<?xml version="1.0" encoding="UTF-8"?>
<svg height="16px" viewBox="0 0 16 16" width="16px" xmlns="http://www.w3.org/2000/svg">
    <path d="m 6.003906 0.175781 c -0.34375 0.234375 -0.503906 0.660157 -0.402344 1.0625 c 0 0 0.375 1.523438 0.65625 3.222657 c 0.136719 0.847656 0.253907 1.734374 0.285157 2.46875 c -0.203125 -0.195313 -0.355469 -0.226563 -0.535157 -0.457032 c -0.515624 -0.660156 -0.859374 -1.292968 -0.859374 -1.292968 c -0.183594 -0.339844 -0.546876 -0.542969 -0.933594 -0.519532 c -0.386719 0.019532 -0.722656 0.261719 -0.871094 0.617188 c 0 0 -0.535156 1.320312 -0.910156 2.910156 c -0.371094 1.589844 -0.753906 3.488281 0.234375 5 c 1.753906 2.6875 5.265625 3.515625 8.117187 2.1875 c 2.710938 -1.257812 3.65625 -4.125 3.25 -6.910156 c -0.328125 -2.222656 -2.113281 -4.144532 -3.730468 -5.675782 c -1.613282 -1.53125 -3.160157 -2.609374 -3.160157 -2.609374 c -0.34375 -0.2382818 -0.796875 -0.2382818 -1.140625 -0.003907 z m 2.109375 3.390625 c 0.378907 0.316406 0.402344 0.28125 0.816407 0.671875 c 1.496093 1.417969 2.945312 3.300781 3.125 4.515625 c 0.324218 2.21875 -0.246094 3.945313 -2.113282 4.808594 c -2 0.929688 -4.410156 0.347656 -5.601562 -1.46875 c -0.289063 -0.441406 -0.289063 -2.039062 0.042968 -3.453125 c 0.09375 -0.398437 0.125 -0.394531 0.230469 -0.738281 c 0.601563 0.761718 1.351563 1.589844 2.519531 1.835937 c 0.445313 0.09375 0.898438 -0.125 1.101563 -0.535156 c 0.367187 -0.742187 0.347656 -1.488281 0.308594 -2.355469 c -0.039063 -0.867187 -0.164063 -1.816406 -0.3125 -2.714844 c -0.050781 -0.300781 -0.0625 -0.28125 -0.117188 -0.566406 z m 0 0" fill="#222222"/>
</svg>
