<?xml version="1.0" encoding="UTF-8"?>
<svg height="16px" viewBox="0 0 16 16" width="16px" xmlns="http://www.w3.org/2000/svg">
    <g fill="#222222">
        <path d="m 12.960938 11.988281 h 1 v 1 h -1 z m -10 0 h 1 v 1 h -1 z m -2 0 h 1 v 1 h -1 z m 14 0 h 1 v 1 h -1 z m 0 0"/>
        <path d="m 11.714844 1.140625 c -1.160156 -0.152344 -2.292969 0.25 -3.140625 0.984375 c -0.832031 0.730469 -1.339844 1.726562 -1.527344 2.765625 c -0.21875 1.214844 -0.007813 2.425781 0.433594 3.496094 c 0.09375 0.21875 0.171875 0.339843 0.273437 0.539062 c -0.039062 0.023438 -0.085937 0.027344 -0.128906 0.050781 c -0.722656 0.414063 -1.433594 0.984376 -1.933594 1.78125 c -0.507812 0.8125 -0.761718 1.835938 -0.496094 2.859376 c 0.253907 0.964843 0.945313 1.765624 1.890626 2.132812 c 0.46875 0.183594 0.976562 0.25 1.476562 0.1875 c 0.503906 -0.0625 0.984375 -0.253906 1.398438 -0.558594 c 0.746093 -0.546875 1.144531 -1.371094 1.269531 -2.195312 c 0.121093 -0.808594 -0.019531 -1.582032 -0.253907 -2.261719 c -0.121093 -0.347656 -0.269531 -0.539063 -0.421874 -0.84375 c 0.441406 -0.070313 0.882812 -0.128906 1.324218 -0.09375 l 0.039063 0.003906 h 3.042969 v -2 h -3 l 0.082031 0.003907 c -0.816407 -0.066407 -1.628907 0.019531 -2.421875 0.210937 c -0.089844 -0.171875 -0.222656 -0.414063 -0.292969 -0.585937 c -0.320313 -0.777344 -0.449219 -1.617188 -0.316406 -2.371094 c 0.117187 -0.628906 0.433593 -1.226563 0.875 -1.613282 c 0.4375 -0.378906 1.050781 -0.578124 1.570312 -0.511718 c 0.417969 0.054687 0.839844 0.289062 1.105469 0.613281 c 0.269531 0.324219 0.421875 0.78125 0.398438 1.199219 l 1.996093 0.109375 c 0.054688 -0.941407 -0.253906 -1.863281 -0.855469 -2.589844 c -0.597656 -0.722656 -1.453124 -1.191406 -2.386718 -1.3125 z m -3.070313 9.558594 c 0.140625 0.269531 0.351563 0.621093 0.441407 0.875 c 0.160156 0.464843 0.226562 0.921875 0.167968 1.3125 c -0.054687 0.371093 -0.25 0.714843 -0.480468 0.882812 c -0.128907 0.097657 -0.292969 0.164063 -0.457032 0.183594 c -0.164062 0.019531 -0.34375 -0.003906 -0.503906 -0.066406 c -0.304688 -0.117188 -0.59375 -0.441407 -0.679688 -0.777344 c -0.097656 -0.375 -0.003906 -0.878906 0.253907 -1.289063 c 0.265625 -0.425781 0.707031 -0.808593 1.234375 -1.109374 c 0.007812 -0.003907 0.019531 -0.007813 0.023437 -0.011719 z m 0 0"/>
    </g>
</svg>
