<?xml version="1.0" encoding="UTF-8"?>
<svg height="16px" viewBox="0 0 16 16" width="16px" xmlns="http://www.w3.org/2000/svg">
    <path d="m 4.929688 0.00390625 c -0.085938 0.01171875 -0.167969 0.04687495 -0.234376 0.10156275 c -0.363281 0.28125 -0.667968 0.628906 -0.695312 1.101562 c -0.023438 0.472657 0.277344 0.882813 0.707031 1.199219 c 0.292969 0.214844 0.292969 0.304688 0.292969 0.332031 c -0.003906 0.027344 -0.066406 0.175781 -0.3125 0.367188 c -0.101562 0.085937 -0.167969 0.203125 -0.183594 0.335937 c -0.015625 0.132813 0.019532 0.265625 0.105469 0.371094 c 0.082031 0.101562 0.199219 0.167969 0.332031 0.183594 c 0.132813 0.015625 0.265625 -0.019532 0.371094 -0.105469 c 0.347656 -0.273437 0.652344 -0.613281 0.6875 -1.082031 c 0.03125 -0.472656 -0.265625 -0.894532 -0.703125 -1.214844 c -0.289063 -0.210938 -0.296875 -0.308594 -0.296875 -0.335938 c 0 -0.027343 0.054688 -0.167968 0.308594 -0.363281 c 0.214844 -0.167969 0.253906 -0.484375 0.085937 -0.703125 c -0.082031 -0.1015622 -0.199219 -0.1718748 -0.332031 -0.18749975 c -0.042969 -0.00390625 -0.085938 -0.00390625 -0.128906 0 z m 2 0 c -0.085938 0.01171875 -0.167969 0.04687495 -0.234376 0.10156275 c -0.363281 0.28125 -0.667968 0.628906 -0.695312 1.101562 c -0.023438 0.472657 0.277344 0.882813 0.707031 1.199219 c 0.292969 0.214844 0.292969 0.304688 0.292969 0.332031 c -0.003906 0.027344 -0.066406 0.175781 -0.3125 0.367188 c -0.101562 0.085937 -0.167969 0.203125 -0.183594 0.335937 c -0.015625 0.132813 0.019532 0.265625 0.105469 0.371094 c 0.082031 0.101562 0.199219 0.167969 0.332031 0.183594 c 0.132813 0.015625 0.265625 -0.019532 0.371094 -0.105469 c 0.347656 -0.273437 0.652344 -0.613281 0.6875 -1.082031 c 0.03125 -0.472656 -0.265625 -0.894532 -0.703125 -1.214844 c -0.289063 -0.210938 -0.296875 -0.308594 -0.296875 -0.335938 c 0 -0.027343 0.054688 -0.167968 0.308594 -0.363281 c 0.214844 -0.167969 0.253906 -0.484375 0.085937 -0.703125 c -0.082031 -0.1015622 -0.199219 -0.1718748 -0.332031 -0.18749975 c -0.042969 -0.00390625 -0.085938 -0.00390625 -0.128906 0 z m 2 0 c -0.085938 0.01171875 -0.167969 0.04687495 -0.234376 0.10156275 c -0.363281 0.28125 -0.667968 0.628906 -0.695312 1.101562 c -0.023438 0.472657 0.277344 0.882813 0.707031 1.199219 c 0.292969 0.214844 0.292969 0.304688 0.292969 0.332031 c -0.003906 0.027344 -0.066406 0.175781 -0.3125 0.367188 c -0.101562 0.085937 -0.167969 0.203125 -0.183594 0.335937 c -0.015625 0.132813 0.019532 0.265625 0.105469 0.371094 c 0.082031 0.101562 0.199219 0.167969 0.332031 0.183594 c 0.132813 0.015625 0.265625 -0.019532 0.371094 -0.105469 c 0.347656 -0.273437 0.652344 -0.613281 0.6875 -1.082031 c 0.03125 -0.472656 -0.265625 -0.894532 -0.703125 -1.214844 c -0.289063 -0.210938 -0.296875 -0.308594 -0.296875 -0.335938 c 0 -0.027343 0.054688 -0.167968 0.308594 -0.363281 c 0.214844 -0.167969 0.253906 -0.484375 0.085937 -0.703125 c -0.082031 -0.1015622 -0.199219 -0.1718748 -0.332031 -0.18749975 c -0.042969 -0.00390625 -0.085938 -0.00390625 -0.128906 0 z m 2 0 c -0.085938 0.01171875 -0.167969 0.04687495 -0.234376 0.10156275 c -0.363281 0.28125 -0.667968 0.628906 -0.695312 1.101562 c -0.023438 0.472657 0.277344 0.882813 0.707031 1.199219 c 0.292969 0.214844 0.292969 0.304688 0.292969 0.332031 c -0.003906 0.027344 -0.066406 0.175781 -0.3125 0.367188 c -0.101562 0.085937 -0.167969 0.203125 -0.183594 0.335937 c -0.015625 0.132813 0.019532 0.265625 0.105469 0.371094 c 0.082031 0.101562 0.199219 0.167969 0.332031 0.183594 c 0.132813 0.015625 0.265625 -0.019532 0.371094 -0.105469 c 0.347656 -0.273437 0.652344 -0.613281 0.6875 -1.082031 c 0.03125 -0.472656 -0.265625 -0.894532 -0.703125 -1.214844 c -0.289063 -0.210938 -0.296875 -0.308594 -0.296875 -0.335938 c 0 -0.027343 0.054688 -0.167968 0.308594 -0.363281 c 0.214844 -0.167969 0.253906 -0.484375 0.085937 -0.703125 c -0.082031 -0.1015622 -0.199219 -0.1718748 -0.332031 -0.18749975 c -0.042969 -0.00390625 -0.085938 -0.00390625 -0.128906 0 z m -8.929688 4.99609375 c 0.003906 2.050781 1.054688 3.957031 2.789062 5.050781 l -1.726562 4.597657 c -0.191406 0.515624 0.070312 1.09375 0.585938 1.289062 c 0.515624 0.191406 1.09375 -0.070312 1.289062 -0.585938 l 0.503906 -1.351562 h 5.113282 l 0.507812 1.351562 c 0.195312 0.515626 0.773438 0.777344 1.289062 0.585938 c 0.515626 -0.195312 0.777344 -0.773438 0.585938 -1.289062 l -1.726562 -4.597657 c 1.734374 -1.09375 2.785156 -3 2.789062 -5.050781 z m 4.632812 5.832031 c 0.445313 0.109375 0.90625 0.164063 1.367188 0.167969 c 0.460938 -0.003906 0.921875 -0.058594 1.367188 -0.167969 l 0.8125 2.167969 h -4.363282 z m 0 0" fill="#222222"/>
</svg>
