<?xml version="1.0" encoding="UTF-8"?>
<svg height="16px" viewBox="0 0 16 16" width="16px" xmlns="http://www.w3.org/2000/svg">
    <path d="m 8 0 c -3.300781 0 -6 2.699219 -6 6 s 2.699219 6 6 6 s 6 -2.699219 6 -6 s -2.699219 -6 -6 -6 z m 0 2 c 2.222656 0 4 1.777344 4 4 s -1.777344 4 -4 4 s -4 -1.777344 -4 -4 s 1.777344 -4 4 -4 z m 0 0.5 c -0.277344 0 -0.5 0.222656 -0.5 0.5 s 0.222656 0.5 0.5 0.5 s 0.5 -0.222656 0.5 -0.5 s -0.222656 -0.5 -0.5 -0.5 z m -2 1 c -0.277344 0 -0.5 0.222656 -0.5 0.5 s 0.222656 0.5 0.5 0.5 s 0.5 -0.222656 0.5 -0.5 s -0.222656 -0.5 -0.5 -0.5 z m 4 0 c -0.277344 0 -0.5 0.222656 -0.5 0.5 s 0.222656 0.5 0.5 0.5 s 0.5 -0.222656 0.5 -0.5 s -0.222656 -0.5 -0.5 -0.5 z m -2 1 c -0.277344 0 -0.5 0.222656 -0.5 0.5 s 0.222656 0.5 0.5 0.5 s 0.5 -0.222656 0.5 -0.5 s -0.222656 -0.5 -0.5 -0.5 z m -2 1 c -0.277344 0 -0.5 0.222656 -0.5 0.5 s 0.222656 0.5 0.5 0.5 s 0.5 -0.222656 0.5 -0.5 s -0.222656 -0.5 -0.5 -0.5 z m 4 0 c -0.277344 0 -0.5 0.222656 -0.5 0.5 s 0.222656 0.5 0.5 0.5 s 0.5 -0.222656 0.5 -0.5 s -0.222656 -0.5 -0.5 -0.5 z m -2 1 c -0.277344 0 -0.5 0.222656 -0.5 0.5 s 0.222656 0.5 0.5 0.5 s 0.5 -0.222656 0.5 -0.5 s -0.222656 -0.5 -0.5 -0.5 z m -3 6.5 c -0.554688 0 -1 0.445312 -1 1 h 1 c 2 0 2 2 2 2 h 2 s 0 -2 2 -2 h 1 c 0 -0.554688 -0.445312 -1 -1 -1 z m 0 0" fill="#222222"/>
</svg>
