<?xml version="1.0" encoding="UTF-8"?>
<svg height="16px" viewBox="0 0 16 16" width="16px" xmlns="http://www.w3.org/2000/svg">
    <g fill="#222222">
        <path d="m -0.015625 4 v 2 c 0 0.550781 0.449219 1 1 1 c 0.546875 0 1 0.453125 1 1 s -0.453125 1 -1 1 c -0.550781 0 -1 0.449219 -1 1 v 2 c 0 1.660156 1.339844 3 3 3 h 10.011719 c 1.660156 0 3 -1.339844 3 -3 v -2 c 0 -0.550781 -0.449219 -1 -1 -1 c -0.546875 0 -1 -0.453125 -1 -1 s 0.453125 -1 1 -1 c 0.550781 0 1 -0.449219 1 -1 v -2 c 0 -1.660156 -1.339844 -3 -3 -3 h -10.011719 c -1.660156 0 -3 1.339844 -3 3 z m 13.011719 -1 c 0.554687 0 1 0.445312 1 1 v 2 l 1 -1 c -1.664063 0 -3 1.339844 -3 3 s 1.335937 3 3 3 l -1 -1 v 2 c 0 0.554688 -0.445313 1 -1 1 h -10.011719 c -0.554687 0 -1 -0.445312 -1 -1 v -2 l -1 1 c 1.660156 0 3 -1.339844 3 -3 s -1.339844 -3 -3 -3 l 1 1 v -2 c 0 -0.554688 0.445313 -1 1 -1 z m 0 0"/>
        <path d="m 8 4 c -0.015625 1.1875 -0.6875 1.5 -2 1.5 v 1.5 h 2 v 5 h 2 v -8 z m 0 0"/>
    </g>
</svg>
