<?xml version="1.0" encoding="UTF-8"?>
<svg height="16px" viewBox="0 0 16 16" width="16px" xmlns="http://www.w3.org/2000/svg">
    <g fill="#222222">
        <path d="m 15.21875 1.492188 s -4.253906 1.917968 -6.105469 3.304687 l -2.453125 1.839844 l -1.140625 1.824219 c -0.4375 0.152343 -0.519531 0.933593 -0.519531 1.15625 c 0 0.285156 0.234375 0.519531 0.519531 0.519531 c 0.222657 0 0.960938 -0.046875 1.085938 -0.40625 l 1.769531 0.167969 l 0.472656 -0.34375 l 0.433594 0.519531 l 1.15625 -0.902344 l -0.421875 -0.507813 l 0.984375 -0.664062 c 1.933594 -1.308594 4.785156 -5.847656 4.785156 -5.847656 c 0.328125 -0.382813 -0.09375 -0.90625 -0.566406 -0.660156 z m 0 0"/>
        <path d="m 15.023438 8.976562 c -0.457032 0.003907 -0.910157 0.136719 -1.296876 0.378907 c -0.386718 0.246093 -0.699218 0.59375 -0.898437 1.007812 c -0.253906 0.519531 -0.304687 0.996094 -0.453125 1.304688 c -0.074219 0.152343 -0.167969 0.269531 -0.261719 0.332031 c -0.042969 0.03125 -0.09375 0.050781 -0.132812 0.0625 c -0.039063 0.007812 -0.078125 0.003906 -0.105469 -0.003906 c -0.023438 -0.007813 -0.066406 -0.03125 -0.105469 -0.070313 c -0.039062 -0.039062 -0.082031 -0.09375 -0.125 -0.167969 c -0.078125 -0.148437 -0.140625 -0.363281 -0.238281 -0.625 c -0.148438 -0.378906 -0.347656 -0.730468 -0.59375 -1.050781 l -0.792969 0.613281 c 0.191407 0.242188 0.339844 0.511719 0.449219 0.796876 c 0.078125 0.195312 0.144531 0.457031 0.296875 0.738281 c 0.078125 0.144531 0.179687 0.289062 0.3125 0.417969 c 0.140625 0.132812 0.3125 0.246093 0.519531 0.304687 c 0.195313 0.058594 0.394532 0.0625 0.578125 0.023437 c 0.1875 -0.035156 0.355469 -0.109374 0.5 -0.210937 c 0.289063 -0.191406 0.476563 -0.460937 0.601563 -0.726563 c 0.25 -0.519531 0.300781 -0.992187 0.449218 -1.304687 c 0.117188 -0.238281 0.308594 -0.453125 0.535157 -0.597656 c 0.226562 -0.140625 0.5 -0.222657 0.769531 -0.222657 z m 0 0"/>
        <path d="m 4 10 v 1 h 1 v -1 z m 0 1 h -1 v 1 h 1 z m 0 0"/>
        <path d="m 1 11 v 1 h 1 v -1 z m 1 1 v 1 h 1 v -1 z m 1 1 v 1 h 1 v -1 z m 1 0 h 1 v -1 h -1 z m 0 0" fill-opacity="0.501961"/>
        <path d="m 0 12 v 1 h 1 v -1 z m 1 1 v 1 h 1 v -1 z m 1 1 v 1 h 1 v -1 z m 1 1 v 1 h 1 v -1 z m 0 0" fill-opacity="0.34902"/>
        <path d="m 0 14 v 1 h 1 v -1 z m 1 1 v 1 h 1 v -1 z m 0 0" fill-opacity="0.101961"/>
    </g>
</svg>
