<?xml version="1.0" encoding="UTF-8"?>
<svg height="16px" viewBox="0 0 16 16" width="16px" xmlns="http://www.w3.org/2000/svg">
    <g fill="#222222">
        <path d="m 3.976562 2.976562 h -2 v 10 h 2 z m 0 0"/>
        <path d="m 3 15.976562 l -3 -4 h 6 z m 0 0"/>
        <path d="m 3 -0.0234375 l -3 3.9999995 h 6 z m 0 0"/>
        <path d="m 5 5 h 1 v 5 h 1 v 1 h -2 z m 0 0"/>
        <path d="m 9.5 5 c -0.824219 0 -1.5 0.675781 -1.5 1.5 v 3 c 0 0.824219 0.675781 1.5 1.5 1.5 c 0.820312 0 1.5 -0.675781 1.5 -1.5 v -3 c 0 -0.824219 -0.679688 -1.5 -1.5 -1.5 z m 0 1 c 0.285156 0 0.5 0.214844 0.5 0.5 v 3 c 0 0.285156 -0.214844 0.5 -0.5 0.5 s -0.5 -0.214844 -0.5 -0.5 v -3 c 0 -0.285156 0.214844 -0.5 0.5 -0.5 z m 0 0"/>
        <path d="m 13.5 5 c -0.824219 0 -1.5 0.675781 -1.5 1.5 v 3 c 0 0.824219 0.675781 1.5 1.5 1.5 s 1.5 -0.675781 1.5 -1.5 v -1.5 h -1 v 1.5 c 0 0.285156 -0.214844 0.5 -0.5 0.5 s -0.5 -0.214844 -0.5 -0.5 v -3 c 0 -0.285156 0.214844 -0.5 0.5 -0.5 s 0.5 0.214844 0.5 0.5 v 0.5 h 1 v -0.5 c 0 -0.824219 -0.675781 -1.5 -1.5 -1.5 z m 0 0"/>
        <path d="m 13.5 8 h 1.5 v 1 h -1.5 z m 0 0"/>
    </g>
</svg>
