<?xml version="1.0" encoding="UTF-8"?>
<svg height="16px" viewBox="0 0 16 16" width="16px" xmlns="http://www.w3.org/2000/svg">
    <g fill="#222222">
        <path d="m 3 0 c -1.644531 0 -3 1.355469 -3 3 v 10.003906 c 0 1.644532 1.355469 3 3 3 h 10 c 1.644531 0 3 -1.355468 3 -3 v -8.503906 c 0 -0.265625 -0.105469 -0.519531 -0.292969 -0.707031 l -3.5 -3.5 c -0.1875 -0.1875 -0.441406 -0.292969 -0.707031 -0.292969 z m 0 2 h 8 v 1.5 c 0 1 0.5 1.5 1.5 1.5 h 1.5 v 8.003906 c 0 0.574219 -0.429688 1 -1 1 h -10 c -0.570312 0 -1 -0.425781 -1 -1 v -10.003906 c 0 -0.570312 0.429688 -1 1 -1 z m 0 0"/>
        <path d="m 7 6 h 2 v -2 h -2 z m 0 0"/>
        <path d="m 7 9 h 2 v -2 h -2 z m 0 0"/>
        <path d="m 7 12 h 2 v -2 h -2 z m 0 0"/>
        <g fill-opacity="0.34902">
            <path d="m 10 12 h 2 v -2 h -2 z m 0 0"/>
            <path d="m 4 12 h 2 v -2 h -2 z m 0 0"/>
        </g>
    </g>
</svg>
