<?xml version="1.0" encoding="UTF-8"?>
<svg height="16px" viewBox="0 0 16 16" width="16px" xmlns="http://www.w3.org/2000/svg">
    <g fill="#222222">
        <g fill-rule="evenodd">
            <path d="m 3 0 c -1.644531 0 -3 1.355469 -3 3 s 1.355469 3 3 3 s 3 -1.355469 3 -3 s -1.355469 -3 -3 -3 z m 0 2 c 0.5625 0 1 0.4375 1 1 s -0.4375 1 -1 1 s -1 -0.4375 -1 -1 s 0.4375 -1 1 -1 z m 0 0"/>
            <path d="m 13 0 c -1.644531 0 -3 1.355469 -3 3 s 1.355469 3 3 3 s 3 -1.355469 3 -3 s -1.355469 -3 -3 -3 z m 0 2 c 0.5625 0 1 0.4375 1 1 s -0.4375 1 -1 1 s -1 -0.4375 -1 -1 s 0.4375 -1 1 -1 z m 0 0"/>
            <path d="m 3 10 c -1.644531 0 -3 1.355469 -3 3 s 1.355469 3 3 3 s 3 -1.355469 3 -3 s -1.355469 -3 -3 -3 z m 0 2 c 0.5625 0 1 0.4375 1 1 s -0.4375 1 -1 1 s -1 -0.4375 -1 -1 s 0.4375 -1 1 -1 z m 0 0"/>
            <path d="m 13 10 c -1.644531 0 -3 1.355469 -3 3 s 1.355469 3 3 3 s 3 -1.355469 3 -3 s -1.355469 -3 -3 -3 z m 0 2 c 0.5625 0 1 0.4375 1 1 s -0.4375 1 -1 1 s -1 -0.4375 -1 -1 s 0.4375 -1 1 -1 z m 0 0"/>
        </g>
        <path d="m 2 5 v 6 h 2 v -6 z m 0 0"/>
        <path d="m 12 5 v 6 h 2 v -6 z m 0 0"/>
        <path d="m 5 2 v 2 h 6 v -2 z m 0 0"/>
        <path d="m 5 12 v 2 h 6 v -2 z m 0 0"/>
        <path d="m 10 8 c 0 1.105469 -0.894531 2 -2 2 s -2 -0.894531 -2 -2 s 0.894531 -2 2 -2 s 2 0.894531 2 2 z m 0 0" fill-rule="evenodd"/>
    </g>
</svg>
