<?xml version="1.0" encoding="UTF-8"?>
<svg height="16px" viewBox="0 0 16 16" width="16px" xmlns="http://www.w3.org/2000/svg">
    <g fill="#222222">
        <path d="m 2.5 8.03125 c -0.277344 0 -0.5 0.222656 -0.5 0.5 c 0 0.273438 0.222656 0.5 0.5 0.5 h 2 c 0.277344 0 0.5 -0.226562 0.5 -0.5 c 0 -0.277344 -0.222656 -0.5 -0.5 -0.5 z m 0 0"/>
        <path d="m 4.476562 2 c -1.367187 0 -2.5 1.132812 -2.5 2.5 s 1.132813 2.5 2.5 2.5 c 1.367188 0 2.5 -1.132812 2.5 -2.5 s -1.132812 -2.5 -2.5 -2.5 z m 0 2 c 0.289063 0 0.5 0.210938 0.5 0.5 s -0.210937 0.5 -0.5 0.5 c -0.289062 0 -0.5 -0.210938 -0.5 -0.5 s 0.210938 -0.5 0.5 -0.5 z m 0 0" fill-rule="evenodd"/>
        <path d="m 5.976562 0 c -0.550781 0 -1 0.449219 -1 1 v 3.5 c 0 0.550781 0.449219 1 1 1 c 0.550782 0 1 -0.449219 1 -1 v -3.5 c 0 -0.550781 -0.449218 -1 -1 -1 z m 0 0"/>
        <path d="m 8.976562 0 c -0.550781 0 -1 0.449219 -1 1 v 0.5 c 0 1.367188 1.132813 2.5 2.5 2.5 h 1.5 c 0.550782 0 1 -0.449219 1 -1 s -0.449218 -1 -1 -1 h -1.5 c -0.289062 0 -0.5 -0.210938 -0.5 -0.5 v -0.5 c 0 -0.550781 -0.449218 -1 -1 -1 z m 0 0"/>
        <path d="m 12.003906 0 c -0.265625 0 -0.519531 0.101562 -0.707031 0.289062 s -0.296875 0.441407 -0.296875 0.707032 l -0.019531 3.554687 c 0 0.261719 -0.1875 0.449219 -0.449219 0.449219 h -1.53125 c -0.550781 0 -1 0.449219 -1 1 s 0.449219 1 1 1 h 1.53125 c 1.335938 0 2.445312 -1.101562 2.449219 -2.4375 l 0.019531 -3.558594 c 0 -0.550781 -0.441406 -0.99999975 -0.996094 -1.003906 z m 0 0"/>
        <path d="m 4.484375 11 c -1.367187 0 -2.5 1.132812 -2.5 2.5 s 1.132813 2.5 2.5 2.5 s 2.5 -1.132812 2.5 -2.5 s -1.132813 -2.5 -2.5 -2.5 z m 0 2 c 0.289063 0 0.5 0.210938 0.5 0.5 s -0.210937 0.5 -0.5 0.5 s -0.5 -0.210938 -0.5 -0.5 s 0.210937 -0.5 0.5 -0.5 z m 0 0" fill-rule="evenodd"/>
        <path d="m 5.984375 9 c -0.550781 0 -1 0.449219 -1 1 v 3.5 c 0 0.550781 0.449219 1 1 1 s 1 -0.449219 1 -1 v -3.5 c 0 -0.550781 -0.449219 -1 -1 -1 z m 0 0"/>
        <path d="m 8.273438 10.292969 c -0.386719 0.390625 -0.386719 1.023437 0.003906 1.414062 l 4 3.992188 c 0.390625 0.390625 1.023437 0.390625 1.414062 0 s 0.390625 -1.023438 -0.003906 -1.414063 l -4 -3.992187 c -0.390625 -0.390625 -1.023438 -0.390625 -1.414062 0 z m 0 0"/>
        <path d="m 13.6875 10.292969 c -0.390625 -0.390625 -1.023438 -0.390625 -1.414062 0.003906 l -4 4.027344 c -0.390626 0.390625 -0.386719 1.023437 0.003906 1.414062 c 0.394531 0.390625 1.027344 0.386719 1.414062 -0.003906 l 4 -4.027344 c 0.390625 -0.394531 0.386719 -1.027343 -0.003906 -1.414062 z m 0 0"/>
        <path d="m 7.574219 8.03125 c -0.277344 0 -0.5 0.222656 -0.5 0.5 c 0 0.273438 0.222656 0.5 0.5 0.5 h 5.910156 c 0.277344 0 0.5 -0.226562 0.5 -0.5 c 0 -0.277344 -0.222656 -0.5 -0.5 -0.5 z m 0 0"/>
    </g>
</svg>
