<?xml version="1.0" encoding="UTF-8"?>
<svg height="16px" viewBox="0 0 16 16" width="16px" xmlns="http://www.w3.org/2000/svg">
    <path d="m 2 0 v 4 h 1 v 11 h 7 v 1 h 4 v -4 h -1 v -8.269531 c 0.597656 -0.347657 1 -0.996094 1 -1.730469 c 0 -1.097656 -0.902344 -2 -2 -2 c -0.734375 0 -1.382812 0.402344 -1.726562 1 h -4.273438 v -1 z m 1 1 h 2 v 2 h -2 z m 9 0 c 0.558594 0 1 0.441406 1 1 s -0.441406 1 -1 1 s -1 -0.441406 -1 -1 s 0.441406 -1 1 -1 z m -6 2 h 4.273438 c 0.171874 0.300781 0.425781 0.554688 0.726562 0.730469 v 8.269531 h -1 v 1 h -5 v -9 h 1 z m 5 10 h 2 v 2 h -2 z m 0 0" fill="#222222"/>
</svg>
