<?xml version="1.0" encoding="UTF-8"?>
<svg height="16px" viewBox="0 0 16 16" width="16px" xmlns="http://www.w3.org/2000/svg">
    <path d="m 11 1 c -0.773438 0 -1.453125 0.449219 -1.785156 1.097656 c -0.632813 0.125 -1.261719 0.269532 -1.867188 0.441406 c -1.386718 0.398438 -2.671875 0.929688 -3.675781 1.800782 c -0.546875 0.472656 -0.988281 1.070312 -1.28125 1.757812 c -0.804687 0.257813 -1.390625 1.015625 -1.390625 1.902344 s 0.585938 1.640625 1.386719 1.902344 c 0.292969 0.6875 0.738281 1.285156 1.285156 1.761718 c 1.003906 0.867188 2.289063 1.402344 3.675781 1.800782 c 0.605469 0.171875 1.234375 0.3125 1.871094 0.441406 c 0.332031 0.644531 1.007812 1.09375 1.78125 1.09375 c 0.53125 0 1.019531 -0.210938 1.378906 -0.554688 c 0.914063 0.132813 1.8125 0.261719 2.621094 0.402344 v -2.03125 c -0.667969 -0.113281 -1.367188 -0.21875 -2.066406 -0.320312 c -0.222656 -0.859375 -1.007813 -1.496094 -1.933594 -1.496094 c -0.6875 0 -1.296875 0.351562 -1.65625 0.882812 c -0.5 -0.101562 -0.988281 -0.214843 -1.445312 -0.34375 c -1.234376 -0.351562 -2.261719 -0.820312 -2.917969 -1.386718 c -0.253907 -0.222656 -0.453125 -0.453125 -0.605469 -0.707032 c 0.382812 -0.363281 0.625 -0.878906 0.625 -1.445312 s -0.238281 -1.078125 -0.621094 -1.441406 c 0.152344 -0.257813 0.347656 -0.488282 0.601563 -0.707032 c 0.65625 -0.570312 1.683593 -1.035156 2.917969 -1.386718 c 0.457031 -0.132813 0.945312 -0.242188 1.445312 -0.34375 c 0.363281 0.527344 0.972656 0.878906 1.65625 0.878906 c 0.925781 0 1.710938 -0.636719 1.933594 -1.492188 c 0.699218 -0.105468 1.398437 -0.210937 2.066406 -0.320312 v -2.03125 c -0.808594 0.136719 -1.707031 0.265625 -2.621094 0.402344 c -0.359375 -0.34375 -0.84375 -0.558594 -1.378906 -0.558594 z m 0 1 c 0.558594 0 1 0.441406 1 1 s -0.441406 1 -1 1 s -1 -0.441406 -1 -1 s 0.441406 -1 1 -1 z m -8 5 c 0.558594 0 1 0.441406 1 1 s -0.441406 1 -1 1 s -1 -0.441406 -1 -1 s 0.441406 -1 1 -1 z m 8 5 c 0.558594 0 1 0.441406 1 1 s -0.441406 1 -1 1 s -1 -0.441406 -1 -1 s 0.441406 -1 1 -1 z m 0 0" fill="#222222"/>
</svg>
