<?xml version="1.0" encoding="UTF-8"?>
<svg height="16px" viewBox="0 0 16 16" width="16px" xmlns="http://www.w3.org/2000/svg">
    <path d="m 13 0 c 0 0.332031 0.003906 0.8125 0.011719 1.261719 c -0.605469 0.347656 -1.011719 1 -1.011719 1.738281 s 0.40625 1.386719 1.007812 1.734375 c -0.039062 1.171875 -0.128906 2.296875 -0.351562 3.136719 c -0.019531 0.078125 -0.042969 0.148437 -0.066406 0.21875 c -0.183594 -0.058594 -0.382813 -0.089844 -0.589844 -0.089844 c -0.621094 0 -1.179688 0.289062 -1.546875 0.738281 c -0.472656 -0.296875 -1.050781 -0.75 -1.746094 -1.445312 c -0.613281 -0.613281 -1.179687 -1.117188 -1.71875 -1.511719 c -0.109375 -0.996094 -0.964843 -1.78125 -1.988281 -1.78125 c -0.707031 0 -1.332031 0.375 -1.6875 0.9375 c -0.4375 0.191406 -0.8125 0.503906 -1.082031 0.859375 c -0.40625 0.53125 -0.644531 1.152344 -0.824219 1.824219 c -0.289062 1.109375 -0.402344 2.402344 -0.441406 3.671875 c -0.578125 0.351562 -0.964844 0.988281 -0.964844 1.707031 c 0 0.726562 0.394531 1.367188 0.980469 1.71875 c 0.007812 0.472656 0.019531 0.921875 0.019531 1.28125 h 2 c 0 -0.332031 -0.003906 -0.8125 -0.011719 -1.261719 c 0.605469 -0.347656 1.011719 -1 1.011719 -1.738281 s -0.40625 -1.386719 -1.007812 -1.734375 c 0.039062 -1.171875 0.128906 -2.296875 0.351562 -3.136719 c 0.070312 -0.277344 0.160156 -0.515625 0.25 -0.710937 c 0.359375 0.359375 0.859375 0.582031 1.40625 0.582031 c 0.40625 0 0.785156 -0.125 1.101562 -0.332031 c 0.351563 0.261719 0.742188 0.589843 1.191407 1.039062 c 1.097656 1.097657 2.050781 1.851563 2.953125 2.246094 c 0.339844 0.621094 1 1.046875 1.753906 1.046875 c 1.097656 0 2 -0.902344 2 -2 c 0 -0.042969 0 -0.085938 -0.003906 -0.128906 c 0.273437 -0.453125 0.453125 -0.957032 0.597656 -1.492188 c 0.289062 -1.109375 0.402344 -2.398437 0.445312 -3.671875 c 0.574219 -0.351562 0.960938 -0.988281 0.960938 -1.707031 c 0 -0.726562 -0.394531 -1.367188 -0.980469 -1.71875 c -0.007812 -0.472656 -0.019531 -0.921875 -0.019531 -1.28125 z m 1 2 c 0.558594 0 1 0.441406 1 1 s -0.441406 1 -1 1 s -1 -0.441406 -1 -1 s 0.441406 -1 1 -1 z m -9 3 c 0.558594 0 1 0.441406 1 1 s -0.441406 1 -1 1 s -1 -0.441406 -1 -1 s 0.441406 -1 1 -1 z m 7 4 c 0.558594 0 1 0.441406 1 1 s -0.441406 1 -1 1 s -1 -0.441406 -1 -1 s 0.441406 -1 1 -1 z m -10 3 c 0.558594 0 1 0.441406 1 1 s -0.441406 1 -1 1 s -1 -0.441406 -1 -1 s 0.441406 -1 1 -1 z m 0 0" fill="#222222"/>
</svg>
