<?xml version="1.0" encoding="UTF-8"?>
<svg height="16px" viewBox="0 0 16 16" width="16px" xmlns="http://www.w3.org/2000/svg">
    <path d="m 1.152344 1 c 0.140625 0.808594 0.269531 1.707031 0.40625 2.617188 c -0.34375 0.363281 -0.558594 0.847656 -0.558594 1.382812 c 0 0.773438 0.449219 1.453125 1.097656 1.78125 c 0.125 0.636719 0.269532 1.265625 0.441406 1.867188 c 0.398438 1.390624 0.929688 2.675781 1.800782 3.679687 c 0.472656 0.546875 1.070312 0.988281 1.753906 1.28125 c 0.261719 0.804687 1.019531 1.390625 1.90625 1.390625 s 1.640625 -0.585938 1.902344 -1.386719 c 0.6875 -0.292969 1.285156 -0.738281 1.757812 -1.285156 c 0.871094 -1.003906 1.40625 -2.289063 1.800782 -3.679687 c 0.175781 -0.601563 0.316406 -1.230469 0.441406 -1.867188 c 0.648437 -0.332031 1.097656 -1.007812 1.097656 -1.78125 c 0 -0.53125 -0.210938 -1.019531 -0.558594 -1.378906 c 0.136719 -0.914063 0.265625 -1.8125 0.402344 -2.621094 h -2.03125 c -0.109375 0.667969 -0.214844 1.367188 -0.320312 2.0625 c -0.855469 0.226562 -1.492188 1.011719 -1.492188 1.9375 c 0 0.6875 0.351562 1.296875 0.882812 1.65625 c -0.101562 0.5 -0.214843 0.988281 -0.34375 1.445312 c -0.351562 1.234376 -0.820312 2.261719 -1.386718 2.917969 c -0.222656 0.253907 -0.453125 0.453125 -0.707032 0.605469 c -0.363281 -0.382812 -0.878906 -0.625 -1.445312 -0.625 s -1.078125 0.238281 -1.445312 0.621094 c -0.253907 -0.152344 -0.484376 -0.347656 -0.707032 -0.601563 c -0.566406 -0.65625 -1.03125 -1.683593 -1.386718 -2.917969 c -0.128907 -0.457031 -0.238282 -0.945312 -0.34375 -1.445312 c 0.53125 -0.363281 0.882812 -0.972656 0.882812 -1.65625 c 0 -0.925781 -0.636719 -1.710938 -1.496094 -1.9375 c -0.101562 -0.695312 -0.207031 -1.394531 -0.320312 -2.0625 z m 1.847656 3 c 0.558594 0 1 0.441406 1 1 s -0.441406 1 -1 1 s -1 -0.441406 -1 -1 s 0.441406 -1 1 -1 z m 10 0 c 0.558594 0 1 0.441406 1 1 s -0.441406 1 -1 1 s -1 -0.441406 -1 -1 s 0.441406 -1 1 -1 z m -5 8 c 0.558594 0 1 0.441406 1 1 s -0.441406 1 -1 1 s -1 -0.441406 -1 -1 s 0.441406 -1 1 -1 z m 0 0" fill="#222222"/>
</svg>
