<?xml version="1.0" encoding="UTF-8"?>
<svg height="16px" viewBox="0 0 16 16" width="16px" xmlns="http://www.w3.org/2000/svg">
    <path d="m 2 0 c -1.097656 0 -2 0.902344 -2 2 c 0 0.734375 0.40625 1.371094 1 1.71875 v 8.5625 c -0.59375 0.347656 -1 0.984375 -1 1.71875 c 0 1.097656 0.902344 2 2 2 c 0.734375 0 1.371094 -0.40625 1.71875 -1 h 8.5625 c 0.347656 0.59375 0.984375 1 1.71875 1 c 1.097656 0 2 -0.902344 2 -2 c 0 -0.734375 -0.40625 -1.371094 -1 -1.71875 v -8.5625 c 0.59375 -0.347656 1 -0.984375 1 -1.71875 c 0 -1.097656 -0.902344 -2 -2 -2 c -0.734375 0 -1.371094 0.40625 -1.71875 1 h -8.5625 c -0.347656 -0.59375 -0.984375 -1 -1.71875 -1 z m 0 1 c 0.558594 0 1 0.441406 1 1 s -0.441406 1 -1 1 s -1 -0.441406 -1 -1 s 0.441406 -1 1 -1 z m 12 0 c 0.558594 0 1 0.441406 1 1 s -0.441406 1 -1 1 s -1 -0.441406 -1 -1 s 0.441406 -1 1 -1 z m -10.28125 2 h 8.5625 c 0.175781 0.296875 0.421875 0.542969 0.71875 0.71875 v 8.5625 c -0.296875 0.175781 -0.542969 0.421875 -0.71875 0.71875 h -8.5625 c -0.175781 -0.296875 -0.421875 -0.542969 -0.71875 -0.71875 v -8.5625 c 0.296875 -0.175781 0.542969 -0.421875 0.71875 -0.71875 z m 1.28125 1 c -0.554688 0 -1 0.445312 -1 1 v 4 c 0 0.554688 0.445312 1 1 1 h 1 v 0.460938 c 0 0.84375 0.695312 1.539062 1.539062 1.539062 h 2.921876 c 0.84375 0 1.539062 -0.695312 1.539062 -1.539062 v -2.921876 c 0 -0.84375 -0.695312 -1.539062 -1.539062 -1.539062 h -0.460938 v -1 c 0 -0.554688 -0.445312 -1 -1 -1 z m 5 3 h 0.460938 c 0.308593 0 0.539062 0.230469 0.539062 0.539062 v 2.921876 c 0 0.308593 -0.230469 0.539062 -0.539062 0.539062 h -2.921876 c -0.308593 0 -0.539062 -0.230469 -0.539062 -0.539062 v -0.460938 h 2 c 0.554688 0 1 -0.445312 1 -1 z m -8 6 c 0.558594 0 1 0.441406 1 1 s -0.441406 1 -1 1 s -1 -0.441406 -1 -1 s 0.441406 -1 1 -1 z m 12 0 c 0.558594 0 1 0.441406 1 1 s -0.441406 1 -1 1 s -1 -0.441406 -1 -1 s 0.441406 -1 1 -1 z m 0 0" fill="#222222"/>
</svg>
