<?xml version="1.0" encoding="UTF-8"?>
<svg height="16px" viewBox="0 0 16 16" width="16px" xmlns="http://www.w3.org/2000/svg">
    <path d="m 8 0 c -0.554688 0 -1 0.445312 -1 1 v 1 c 0 0.554688 0.445312 1 1 1 s 1 -0.445312 1 -1 v -1 c 0 -0.554688 -0.445312 -1 -1 -1 z m -4.992188 2.003906 c -0.257812 0 -0.511718 0.097656 -0.707031 0.292969 c -0.394531 0.394531 -0.394531 1.023437 0 1.414063 l 0.707031 0.707031 c 0.390626 0.394531 1.019532 0.394531 1.414063 0 c 0.390625 -0.390625 0.390625 -1.019531 0 -1.414063 l -0.707031 -0.707031 c -0.199219 -0.195313 -0.453125 -0.292969 -0.707032 -0.292969 z m 9.988282 0 c -0.257813 0 -0.511719 0.097656 -0.707032 0.292969 l -0.707031 0.707031 c -0.394531 0.394532 -0.394531 1.023438 0 1.414063 c 0.390625 0.394531 1.019531 0.394531 1.414063 0 l 0.707031 -0.707031 c 0.390625 -0.390626 0.390625 -1.019532 0 -1.414063 c -0.199219 -0.195313 -0.453125 -0.292969 -0.707031 -0.292969 z m -4.996094 1.996094 c -2.210938 0 -4 1.789062 -4 4 s 1.789062 4 4 4 s 4 -1.789062 4 -4 s -1.789062 -4 -4 -4 z m 0 2 c 1.105469 0 2 0.894531 2 2 s -0.894531 2 -2 2 s -2 -0.894531 -2 -2 s 0.894531 -2 2 -2 z m -7 1 c -0.554688 0 -1 0.445312 -1 1 s 0.445312 1 1 1 h 1 c 0.554688 0 1 -0.445312 1 -1 s -0.445312 -1 -1 -1 z m 13 0 c -0.554688 0 -1 0.445312 -1 1 s 0.445312 1 1 1 h 1 c 0.554688 0 1 -0.445312 1 -1 s -0.445312 -1 -1 -1 z m -10.335938 4.285156 c -0.238281 0.011719 -0.472656 0.109375 -0.65625 0.292969 l -0.707031 0.707031 c -0.394531 0.394532 -0.394531 1.023438 0 1.414063 c 0.390625 0.394531 1.019531 0.394531 1.414063 0 l 0.707031 -0.707031 c 0.390625 -0.390626 0.390625 -1.019532 0 -1.414063 c -0.210937 -0.207031 -0.488281 -0.304687 -0.757813 -0.292969 z m 8.574219 0 c -0.238281 0.011719 -0.472656 0.109375 -0.65625 0.292969 c -0.394531 0.394531 -0.394531 1.023437 0 1.414063 l 0.707031 0.707031 c 0.390626 0.394531 1.019532 0.394531 1.414063 0 c 0.390625 -0.390625 0.390625 -1.019531 0 -1.414063 l -0.707031 -0.707031 c -0.210938 -0.207031 -0.488282 -0.304687 -0.757813 -0.292969 z m -4.289062 1.714844 c -0.53125 0.027344 -0.949219 0.464844 -0.949219 1 v 1 c 0 0.554688 0.445312 1 1 1 s 1 -0.445312 1 -1 v -1 c 0 -0.554688 -0.445312 -1 -1 -1 c -0.015625 0 -0.035156 0 -0.050781 0 z m 0 0" fill="#222222"/>
</svg>
