<?xml version="1.0" encoding="UTF-8"?>
<svg height="16px" viewBox="0 0 16 16" width="16px" xmlns="http://www.w3.org/2000/svg">
    <g fill="#222222">
        <path d="m 0 11 v 2 h 4.179688 c -0.117188 -0.320312 -0.175782 -0.660156 -0.179688 -1 c 0.003906 -0.339844 0.0625 -0.679688 0.179688 -1 z m 0 0" fill-opacity="0.34902"/>
        <path d="m 6 0 v 10.886719 c 0.273438 -0.25 0.628906 -0.386719 1 -0.386719 c 0.367188 0 0.726562 0.136719 1 0.382812 v -10.882812 z m 0 13.113281 v 2.886719 h 2 v -2.886719 c -0.273438 0.25 -0.628906 0.386719 -1 0.386719 s -0.726562 -0.136719 -1 -0.386719 z m 0 0"/>
        <path d="m 7 10 c -1.097656 0 -2 0.902344 -2 2 s 0.902344 2 2 2 s 2 -0.902344 2 -2 s -0.902344 -2 -2 -2 z m 0 1 c 0.558594 0 1 0.441406 1 1 s -0.441406 1 -1 1 s -1 -0.441406 -1 -1 s 0.441406 -1 1 -1 z m 0 0"/>
        <path d="m 16 11 v 2 h -7.679688 c 0.117188 -0.320312 0.175782 -0.660156 0.179688 -1 c -0.003906 -0.339844 -0.0625 -0.679688 -0.179688 -1 z m 0 0"/>
    </g>
</svg>
