<?xml version="1.0" encoding="UTF-8"?>
<svg height="16px" viewBox="0 0 16 16" width="16px" xmlns="http://www.w3.org/2000/svg">
    <g fill="#222222">
        <path d="m 0 7 v 2 h 3.5 v -2 z m 0 0"/>
        <path d="m 4 0 v 6.769531 c 0.273438 -0.246093 0.628906 -0.382812 1 -0.382812 c 0.367188 0 0.726562 0.132812 1 0.382812 v -6.769531 z m 0 9 v 7 h 2 v -7 c -0.273438 0.246094 -0.628906 0.382812 -1 0.386719 c -0.371094 -0.003907 -0.726562 -0.140625 -1 -0.386719 z m 0 0"/>
        <path d="m 5 6 c -1.097656 0 -2 0.902344 -2 2 s 0.902344 2 2 2 s 2 -0.902344 2 -2 s -0.902344 -2 -2 -2 z m 0 1 c 0.558594 0 1 0.441406 1 1 s -0.441406 1 -1 1 s -1 -0.441406 -1 -1 s 0.441406 -1 1 -1 z m 0 0"/>
        <path d="m 11 7 v 2 h -3 c 0.117188 -0.320312 0.175781 -0.660156 0.179688 -1 c -0.003907 -0.339844 -0.0625 -0.679688 -0.179688 -1 z m 0 0"/>
        <path d="m 12.976562 5.984375 l -0.011718 0.015625 h -0.96875 v 0.972656 l -0.007813 0.007813 l 0.007813 0.003906 v 0.015625 h 0.015625 l 0.992187 0.988281 l -1.015625 1.007813 l 0.003907 0.003906 v 1 h 1 v -0.027344 l 1.003906 -0.996094 l 1 0.996094 v 0.027344 h 1 v -1 l 0.003906 -0.003906 l -1.015625 -1.007813 l 0.992187 -0.988281 h 0.015626 v -0.015625 l 0.007812 -0.007813 l -0.007812 -0.003906 v -0.972656 h -0.96875 l -0.011719 -0.015625 l -0.015625 0.015625 h -0.003906 v 0.003906 l -0.996094 0.996094 l -1 -0.996094 v -0.003906 h -0.003906 z m 0 0"/>
    </g>
</svg>
