<?xml version="1.0" encoding="UTF-8"?>
<svg height="16px" viewBox="0 0 16 16" width="16px" xmlns="http://www.w3.org/2000/svg">
    <g fill="#222222">
        <path d="m 8 2 c 3.308594 0 6 2.691406 6 6 s -2.691406 6 -6 6 h -7 l 1 1 v -4 l -1 1 h 7 c 2.214844 0 4 -1.785156 4 -4 s -1.789062 -4 -4 -3.996094 l -7 0.015625 l 1 1 v -4.019531 l -1 1 z m -8 3.019531 c 0 0.265625 0.105469 0.519531 0.292969 0.707031 s 0.441406 0.292969 0.707031 0.292969 l 7 -0.015625 c 1.101562 0 2 0.898438 2 1.996094 s -0.902344 2 -2 2 h -7 c -0.550781 0 -1 0.449219 -1 1 v 4 c 0 0.550781 0.449219 1 1 1 h 7 c 4.421875 0 8 -3.578125 8 -8 s -3.578125 -8 -8 -8 h -7 c -0.550781 0 -1 0.449219 -1 1 z m 0 0"/>
        <path d="m 4 1.5 h 1 v 3 h -1 z m 0 0"/>
        <path d="m 4 11.5 h 1 v 3.5 h -1 z m 0 0"/>
    </g>
</svg>
