<?xml version="1.0" encoding="UTF-8"?>
<svg height="16px" viewBox="0 0 16 16" width="16px" xmlns="http://www.w3.org/2000/svg">
    <g fill="#222222">
        <path d="m 5.652344 3.210938 c 1.972656 -1.972657 5.183594 -1.972657 7.15625 0 c 1.972656 1.972656 1.972656 5.183593 0 7.15625 l -4.171875 4.171874 h 1.191406 l -2.386719 -2.382812 v 1.191406 l 4.175782 -4.175781 c 1.316406 -1.316406 1.316406 -3.445313 0 -4.765625 c -1.320313 -1.320312 -3.453126 -1.320312 -4.769532 0.003906 l -4.164062 4.179688 h 1.191406 l -2.394531 -2.398438 v 1.195313 z m -2.96875 6.570312 c 0.160156 0.15625 0.375 0.246094 0.597656 0.246094 s 0.4375 -0.089844 0.597656 -0.246094 l 4.164063 -4.183594 c 0.652343 -0.652344 1.726562 -0.65625 2.378906 0 c 0.65625 0.65625 0.65625 1.726563 0 2.382813 l -4.171875 4.175781 c -0.328125 0.328125 -0.328125 0.859375 0 1.191406 l 2.386719 2.382813 c 0.328125 0.328125 0.859375 0.328125 1.191406 0 l 4.171875 -4.171875 c 2.636719 -2.636719 2.636719 -6.902344 0 -9.539063 s -6.902344 -2.636719 -9.539062 0 l -4.171876 4.171875 c -0.3281245 0.332032 -0.3281245 0.863282 0 1.195313 z m 0 0"/>
        <path d="m 2.347656 4.804688 l 0.707032 -0.707032 l 2.121093 2.121094 l -0.707031 0.707031 z m 0 0"/>
        <path d="m 8.179688 10.726562 l 0.707031 -0.707031 l 2.476562 2.472657 l -0.710937 0.707031 z m 0 0"/>
    </g>
</svg>
