<?xml version="1.0" encoding="UTF-8"?>
<svg height="16px" viewBox="0 0 16 16" width="16px" xmlns="http://www.w3.org/2000/svg">
    <g fill="#222222">
        <path d="m 3 0 c -1.644531 0 -3 1.355469 -3 3 v 10.003906 c 0 1.644532 1.355469 3 3 3 h 10 c 1.644531 0 3 -1.355468 3 -3 v -8.503906 c 0 -0.265625 -0.105469 -0.519531 -0.292969 -0.707031 l -3.5 -3.5 c -0.1875 -0.1875 -0.441406 -0.292969 -0.707031 -0.292969 z m 0 2 h 8 l 3 3 v 8.003906 c 0 0.574219 -0.429688 1 -1 1 h -10 c -0.570312 0 -1 -0.425781 -1 -1 v -10.003906 c 0 -0.570312 0.429688 -1 1 -1 z m 0 0"/>
        <path d="m 7 9 h 2 v -2 h -2 z m 0 0"/>
        <path d="m 6.496094 3 c 0.273437 0 0.5 0.222656 0.5 0.5 s -0.226563 0.5 -0.5 0.5 h -1.75 l 1.597656 1.601562 c 0.191406 0.195313 0.191406 0.511719 -0.007812 0.707032 c -0.195313 0.195312 -0.511719 0.191406 -0.707032 -0.003906 l -1.601562 -1.613282 v 1.808594 c 0 0.277344 -0.222656 0.5 -0.5 0.5 s -0.5 -0.222656 -0.5 -0.5 v -3.5 z m 3.03125 0 c -0.277344 0 -0.5 0.222656 -0.5 0.5 s 0.222656 0.5 0.5 0.5 h 1.746094 l -1.59375 1.601562 c -0.195313 0.195313 -0.191407 0.511719 0.003906 0.707032 c 0.195312 0.195312 0.511718 0.191406 0.707031 -0.003906 l 1.605469 -1.613282 v 1.808594 c 0 0.277344 0.222656 0.5 0.5 0.5 c 0.273437 0 0.5 -0.222656 0.5 -0.5 v -2.027344 l -1.484375 -1.472656 z m -3.03125 10 c 0.273437 0 0.5 -0.222656 0.5 -0.5 s -0.226563 -0.5 -0.5 -0.5 h -1.75 l 1.597656 -1.601562 c 0.191406 -0.195313 0.191406 -0.511719 -0.007812 -0.707032 c -0.195313 -0.195312 -0.511719 -0.191406 -0.707032 0.003906 l -1.601562 1.613282 v -1.808594 c 0 -0.277344 -0.222656 -0.5 -0.5 -0.5 s -0.5 0.222656 -0.5 0.5 v 3.5 z m 3.03125 0 c -0.277344 0 -0.5 -0.222656 -0.5 -0.5 s 0.222656 -0.5 0.5 -0.5 h 1.746094 l -1.59375 -1.601562 c -0.195313 -0.195313 -0.191407 -0.511719 0.003906 -0.707032 c 0.195312 -0.195312 0.511718 -0.191406 0.707031 0.003906 l 1.605469 1.613282 v -1.808594 c 0 -0.277344 0.222656 -0.5 0.5 -0.5 c 0.273437 0 0.5 0.222656 0.5 0.5 v 3.5 z m 0 0"/>
    </g>
</svg>
