<?xml version="1.0" encoding="UTF-8"?>
<svg height="16px" viewBox="0 0 16 16" width="16px" xmlns="http://www.w3.org/2000/svg">
    <path d="m 8 1 l -4.5 4.5 h 0.027344 c -0.984375 1.101562 -1.527344 2.523438 -1.527344 4 c 0 3.3125 2.6875 6 6 6 s 6 -2.6875 6 -6 c 0 -1.476562 -0.542969 -2.898438 -1.53125 -4 h 0.03125 z m -0.019531 2.691406 s 2.34375 2.464844 3.078125 3.339844 c 0.589844 0.699219 0.941406 1.601562 0.941406 2.582031 c 0 0.132813 -0.007812 0.261719 -0.019531 0.386719 h -7.996094 c -0.011719 -0.125 -0.019531 -0.253906 -0.019531 -0.386719 c 0 -1.019531 0.382812 -1.953125 1.011718 -2.664062 c 0.734376 -0.828125 3.007813 -3.257813 3.007813 -3.257813 z m 0 0" fill="#222222"/>
</svg>
