<?xml version="1.0" encoding="UTF-8"?>
<svg height="16px" viewBox="0 0 16 16" width="16px" xmlns="http://www.w3.org/2000/svg">
    <g fill="#222222">
        <path d="m 8 6 c -1.097656 0 -2 0.902344 -2 2 s 0.902344 2 2 2 s 2 -0.902344 2 -2 s -0.902344 -2 -2 -2 z m 0 1 c 0.558594 0 1 0.441406 1 1 s -0.441406 1 -1 1 s -1 -0.441406 -1 -1 s 0.441406 -1 1 -1 z m 0 0"/>
        <path d="m 8 1 c -4.328125 0 -8 3.054688 -8 7 s 3.671875 7 8 7 s 8 -3.054688 8 -7 s -3.671875 -7 -8 -7 z m 0 2 c 3.402344 0 6 2.316406 6 5 s -2.597656 5 -6 5 s -6 -2.316406 -6 -5 s 2.597656 -5 6 -5 z m 0 0"/>
    </g>
</svg>
