<?xml version="1.0" encoding="UTF-8"?>
<svg height="16px" viewBox="0 0 16 16" width="16px" xmlns="http://www.w3.org/2000/svg">
    <g fill="#222222">
        <path d="m 1.828125 4.808594 c 4.113281 1.585937 8.226563 1.589844 12.34375 0 c 1.03125 -0.394532 1.828125 0.085937 1.828125 1.191406 v 4 c 0 1.105469 -0.800781 1.589844 -1.828125 1.195312 c -4.089844 -1.570312 -8.203125 -1.613281 -12.34375 -0.007812 c -1.03125 0.398438 -1.828125 -0.082031 -1.828125 -1.1875 v -4 c 0 -1.105469 0.796875 -1.589844 1.828125 -1.191406 z m 0 0"/>
        <path d="m 8 1 c -3.855469 0 -7 3.144531 -7 7 s 3.144531 7 7 7 s 7 -3.144531 7 -7 s -3.144531 -7 -7 -7 z m 0 2 c 2.773438 0 5 2.226562 5 5 s -2.226562 5 -5 5 s -5 -2.226562 -5 -5 s 2.226562 -5 5 -5 z m 0 0"/>
    </g>
</svg>
