<?xml version="1.0" encoding="UTF-8"?>
<svg height="16px" viewBox="0 0 16 16" width="16px" xmlns="http://www.w3.org/2000/svg">
    <path d="m 10 0 c -1.089844 0 -2 0.910156 -2 2 v 6 h -6 c -1.089844 0 -2 0.910156 -2 2 v 4 c 0 1.089844 0.910156 2 2 2 h 12 c 1.089844 0 2 -0.910156 2 -2 v -12 c 0 -1.089844 -0.910156 -2 -2 -2 z m 0 2 h 4 v 7 h -4 v -1 h 2 v -1 h -2 v -1 h 3 v -1 h -3 v -1 h 2 v -1 h -2 z m -8 8 h 1 v 2 h 1 v -2 h 1 v 3 h 1 v -3 h 1 v 2 h 1 v -2 h 1 v 4 h -7 z m 8 0 h 4 v 4 h -4 z m 0 0" fill="#222222"/>
</svg>
