<?xml version="1.0" encoding="UTF-8"?>
<svg height="16px" viewBox="0 0 16 16" width="16px" xmlns="http://www.w3.org/2000/svg">
    <path d="m 0 3 v 1 h 1 v -1 z m 2 0 v 1 h 1 v -1 z m 2 0 v 1 h 1 v -1 z m 2 0 v 1 h 1 v -1 z m 2 0 v 1 h 1 v -1 z m 2 0 v 1 h 1 v -1 z m 2 0 v 1 h 1 v -1 z m 2 0 v 1 h 1 v -1 z m -14 2 v 1 h 1 v -1 z m 14 0 v 1 h 1 v -1 z m -11 1 v 5 h 9 v -5 z m -3 1 v 1 h 1 v -1 z m 14 0 v 1 h 1 v -1 z m -14 2 v 1 h 1 v -1 z m 14 0 v 1 h 1 v -1 z m -14 2 v 1 h 1 v -1 z m 14 0 v 1 h 1 v -1 z m -14 2 v 1 h 1 v -1 z m 2 0 v 1 h 1 v -1 z m 2 0 v 1 h 1 v -1 z m 2 0 v 1 h 1 v -1 z m 2 0 v 1 h 1 v -1 z m 2 0 v 1 h 1 v -1 z m 2 0 v 1 h 1 v -1 z m 2 0 v 1 h 1 v -1 z m 0 0" fill="#222222"/>
</svg>
