<?xml version="1.0" encoding="UTF-8"?>
<svg height="16px" viewBox="0 0 16 16" width="16px" xmlns="http://www.w3.org/2000/svg">
    <path d="m 14 16 c 1.097656 0 2 -0.902344 2 -2 c 0 -0.734375 -0.402344 -1.382812 -1 -1.730469 v -3.539062 c 0.597656 -0.347657 1 -0.996094 1 -1.730469 c 0 -1.097656 -0.902344 -2 -2 -2 c -0.734375 0 -1.382812 0.402344 -1.730469 1 h -2.269531 v -2.269531 c 0.597656 -0.347657 1 -0.996094 1 -1.730469 c 0 -1.097656 -0.902344 -2 -2 -2 c -0.734375 0 -1.382812 0.402344 -1.730469 1 h -3.539062 c -0.347657 -0.597656 -0.996094 -1 -1.730469 -1 c -1.097656 0 -2 0.902344 -2 2 c 0 0.734375 0.402344 1.382812 1 1.730469 v 3.539062 c -0.597656 0.347657 -1 0.996094 -1 1.730469 c 0 1.097656 0.902344 2 2 2 c 0.734375 0 1.382812 -0.402344 1.730469 -1 h 2.269531 v 2.269531 c -0.597656 0.347657 -1 0.996094 -1 1.730469 c 0 1.097656 0.902344 2 2 2 c 0.734375 0 1.382812 -0.402344 1.730469 -1 h 3.539062 c 0.347657 0.597656 0.996094 1 1.730469 1 z m 0 -1 c -0.558594 0 -1 -0.441406 -1 -1 s 0.441406 -1 1 -1 s 1 0.441406 1 1 s -0.441406 1 -1 1 z m -7 0 c -0.558594 0 -1 -0.441406 -1 -1 s 0.441406 -1 1 -1 s 1 0.441406 1 1 s -0.441406 1 -1 1 z m 5.269531 -2 h -3.539062 c -0.175781 -0.300781 -0.429688 -0.554688 -0.730469 -0.730469 v -3.539062 c 0.300781 -0.175781 0.554688 -0.429688 0.730469 -0.730469 h 3.539062 c 0.175781 0.300781 0.429688 0.554688 0.730469 0.730469 v 3.539062 c -0.300781 0.175781 -0.554688 0.429688 -0.730469 0.730469 z m -10.269531 -3 c -0.558594 0 -1 -0.441406 -1 -1 s 0.441406 -1 1 -1 s 1 0.441406 1 1 s -0.441406 1 -1 1 z m 12 -2 c -0.558594 0 -1 -0.441406 -1 -1 s 0.441406 -1 1 -1 s 1 0.441406 1 1 s -0.441406 1 -1 1 z m -5 -5 c -0.558594 0 -1 -0.441406 -1 -1 s 0.441406 -1 1 -1 s 1 0.441406 1 1 s -0.441406 1 -1 1 z m -7 0 c -0.558594 0 -1 -0.441406 -1 -1 s 0.441406 -1 1 -1 s 1 0.441406 1 1 s -0.441406 1 -1 1 z m 0 0" fill="#222222"/>
</svg>
