<?xml version="1.0" encoding="UTF-8"?>
<svg height="16px" viewBox="0 0 16 16" width="16px" xmlns="http://www.w3.org/2000/svg">
    <path d="m 2 3 c -0.554688 0 -1 0.445312 -1 1 s 0.445312 1 1 1 h 2 c 0.554688 0 1 -0.445312 1 -1 s -0.445312 -1 -1 -1 z m 5 0 c -0.554688 0 -1 0.445312 -1 1 s 0.445312 1 1 1 h 2 c 0.554688 0 1 -0.445312 1 -1 s -0.445312 -1 -1 -1 z m 5 0 c -0.554688 0 -1 0.445312 -1 1 s 0.445312 1 1 1 h 2 c 0.554688 0 1 -0.445312 1 -1 s -0.445312 -1 -1 -1 z m -11 4 v 1 h 4 v -1 z m 5 0 v 1 h 4 v -1 z m 5 0 v 1 h 4 v -1 z m -10 3 v 1 h 4 v -1 z m 5 0 v 1 h 4 v -1 z m 5 0 v 1 h 4 v -1 z m -10 3 v 1 h 4 v -1 z m 5 0 v 1 h 4 v -1 z m 5 0 v 1 h 4 v -1 z m 0 0" fill="#222222"/>
</svg>
