<?xml version="1.0" encoding="UTF-8"?>
<svg height="16px" viewBox="0 0 16 16" width="16px" xmlns="http://www.w3.org/2000/svg">
    <g fill="#222222">
        <path d="m 0 4.019531 c 0 -1.652343 1.359375 -3.011719 3.011719 -3.011719 h 8.976562 c 1.652344 0 3.011719 1.359376 3.011719 3.011719 v 2 c 0 0.554688 -0.445312 1 -1 1 s -1 -0.445312 -1 -1 v -2 c 0 -0.578125 -0.433594 -1.011719 -1.011719 -1.011719 h -8.976562 c -0.578125 0 -1.011719 0.433594 -1.011719 1.011719 v 5.976563 c 0 0.578125 0.433594 1.011718 1.011719 1.011718 h 0.988281 c 0.550781 0 1 0.449219 1 1 c 0 0.550782 -0.449219 1 -1 1 h -0.988281 c -1.652344 0 -3.011719 -1.359374 -3.011719 -3.011718 z m 0 0" fill-opacity="0.34902"/>
        <path d="m 4.476562 5.007812 c -0.136718 0.003907 -0.257812 0.050782 -0.339843 0.132813 c -0.179688 0.171875 -0.191407 0.578125 0 0.769531 l 3.113281 3.089844 h -1.75 c -0.277344 0 -0.5 0.222656 -0.5 0.5 s 0.222656 0.5 0.5 0.5 h 3 c 0.277344 0 0.5 -0.222656 0.5 -0.5 v -3 c 0 -0.277344 -0.222656 -0.5 -0.5 -0.5 s -0.5 0.222656 -0.5 0.5 v 1.746094 l -3.109375 -3.089844 c -0.132813 -0.101562 -0.277344 -0.148438 -0.414063 -0.148438 z m 0 0"/>
        <path d="m 11.839844 9.691406 v 1.183594 l -0.871094 -0.871094 c -0.261719 -0.261718 -0.683594 -0.261718 -0.945312 0 c -0.257813 0.261719 -0.253907 0.683594 0.007812 0.941406 l 0.867188 0.867188 h -1.226563 c -0.371094 0 -0.671875 0.300781 -0.671875 0.671875 c 0.003906 0.363281 0.304688 0.660156 0.671875 0.65625 h 1.226563 l -0.867188 0.867187 c -0.261719 0.261719 -0.261719 0.6875 0 0.949219 c 0.261719 0.257813 0.683594 0.253907 0.9375 -0.007812 l 0.871094 -0.871094 v 1.230469 c 0 0.371094 0.300781 0.671875 0.667968 0.671875 c 0.367188 -0.003907 0.660157 -0.304688 0.65625 -0.671875 v -1.230469 l 0.871094 0.871094 c 0.261719 0.261719 0.6875 0.261719 0.949219 0 c 0.253906 -0.261719 0.25 -0.683594 -0.011719 -0.941407 l -0.867187 -0.867187 h 1.230469 c 0.367187 0 0.667968 -0.300781 0.667968 -0.671875 c -0.003906 -0.363281 -0.304687 -0.660156 -0.667968 -0.65625 h -1.230469 l 0.867187 -0.867188 c 0.261719 -0.261718 0.261719 -0.6875 0 -0.949218 c -0.261718 -0.257813 -0.679687 -0.253906 -0.9375 0.007812 l -0.871094 0.871094 v -1.183594 c 0 -0.394531 -0.320312 -0.71875 -0.714843 -0.71875 c -0.367188 0.03125 -0.640625 0.351563 -0.609375 0.71875 z m 0 0" fill-rule="evenodd"/>
    </g>
</svg>
