<?xml version="1.0" encoding="UTF-8"?>
<svg height="16px" viewBox="0 0 16 16" width="16px" xmlns="http://www.w3.org/2000/svg">
    <g fill="#222222">
        <path d="m 0 0.972656 v 2 h 0.0117188 v 4.035156 h 13.9921872 l 0.007813 9 h 2 l -0.011719 -11.988281 c 0 -1.644531 -1.355469 -3.046875 -3 -3.046875 z m 12.457031 2.027344 c 0.828125 0 1.5 0.675781 1.5 1.507812 c 0 0.832032 -0.671875 1.503907 -1.5 1.503907 s -1.5 -0.671875 -1.5 -1.503907 c 0 -0.832031 0.671875 -1.507812 1.5 -1.507812 z m 0 0"/>
        <path d="m 15 12 h -14.9882812 v -5.980469 h 14.9882812 z m 0 0" fill-opacity="0.34902"/>
        <path d="m -0.0351562 12 v 1 h 15.0351562 v -1 z m 0 0"/>
        <path d="m 7 8 h 4 c 0.550781 0 1 0.449219 1 1 v 1 c 0 0.550781 -0.449219 1 -1 1 h -4 c -0.550781 0 -1 -0.449219 -1 -1 v -1 c 0 -0.550781 0.449219 -1 1 -1 z m 0 0"/>
    </g>
</svg>
