<?xml version="1.0" encoding="UTF-8"?>
<svg height="16px" viewBox="0 0 16 16" width="16px" xmlns="http://www.w3.org/2000/svg">
    <path d="m 1.5 0 c -0.832031 0 -1.5 0.667969 -1.5 1.5 s 0.667969 1.5 1.5 1.5 s 1.5 -0.667969 1.5 -1.5 s -0.667969 -1.5 -1.5 -1.5 z m 12 0 c -0.832031 0 -1.5 0.667969 -1.5 1.5 s 0.667969 1.5 1.5 1.5 s 1.5 -0.667969 1.5 -1.5 s -0.667969 -1.5 -1.5 -1.5 z m -9.5 1 v 1 h 1 v -1 z m 2 0 v 1 h 1 v -1 z m 2 0 v 1 h 1 v -1 z m 2 0 v 1 h 1 v -1 z m -9 3 v 1 h 1 v -1 z m 12 0 v 1 h 1 v -1 z m -12 2 v 1 h 1 v -1 z m 12 0 v 1 h 1 v -1 z m -12 2 v 1 h 1 v -1 z m 12 0 v 1 h 1 v -1 z m -12 2 v 1 h 1 v -1 z m 12 0 v 1 h 1 v -1 z m -11.5 2 c -0.832031 0 -1.5 0.667969 -1.5 1.5 s 0.667969 1.5 1.5 1.5 s 1.5 -0.667969 1.5 -1.5 s -0.667969 -1.5 -1.5 -1.5 z m 12 0 c -0.832031 0 -1.5 0.667969 -1.5 1.5 s 0.667969 1.5 1.5 1.5 s 1.5 -0.667969 1.5 -1.5 s -0.667969 -1.5 -1.5 -1.5 z m -9.5 1 v 1 h 1 v -1 z m 2 0 v 1 h 1 v -1 z m 2 0 v 1 h 1 v -1 z m 2 0 v 1 h 1 v -1 z m 0 0" fill="#222222"/>
</svg>
