<?xml version="1.0" encoding="UTF-8"?>
<svg height="16px" viewBox="0 0 16 16" width="16px" xmlns="http://www.w3.org/2000/svg">
    <path d="m 7 1 c -2.054688 0 -3.703125 1.503906 -4.929688 2.984375 c -0.617187 0.742187 -1.125 1.507813 -1.488281 2.179687 c -0.183593 0.335938 -0.332031 0.648438 -0.441406 0.945313 c -0.1054688 0.292969 -0.1992188 0.535156 -0.1835938 0.929687 c 0.0273438 0.703126 0.2929688 1.160157 0.6601568 1.835938 c 0.367187 0.671875 0.867187 1.429688 1.476562 2.160156 c 1.210938 1.46875 2.824219 2.945313 4.851562 2.949219 l 5.054688 0.015625 c 2.195312 0.007812 4 -1.804688 4 -4 v -6 c 0 -2.195312 -1.804688 -4 -4 -4 z m 0 2 h 5 c 1.09375 0 2 0.90625 2 2 v 6 c 0 1.09375 -0.90625 2.003906 -2 2 l -5.050781 -0.015625 c -0.921875 0 -2.28125 -0.96875 -3.316407 -2.21875 c -0.519531 -0.628906 -0.960937 -1.296875 -1.257812 -1.851563 c -0.230469 -0.417968 -0.359375 -0.84375 -0.402344 -0.953124 c 0.007813 -0.039063 0.019532 -0.09375 0.042969 -0.15625 c 0.066406 -0.171876 0.175781 -0.414063 0.324219 -0.6875 c 0.296875 -0.546876 0.742187 -1.21875 1.269531 -1.851563 c 1.050781 -1.269531 2.445313 -2.265625 3.390625 -2.265625 z m 0.011719 2.015625 c -0.265625 0 -0.519531 0.101563 -0.707031 0.289063 c -0.390626 0.390624 -0.390626 1.027343 0 1.414062 l 1.289062 1.296875 l -1.289062 1.289063 c -0.390626 0.390624 -0.390626 1.027343 0 1.414062 c 0.386718 0.390625 1.023437 0.390625 1.414062 0 l 1.289062 -1.289062 l 1.292969 1.289062 c 0.390625 0.390625 1.027344 0.390625 1.417969 0 c 0.386719 -0.386719 0.386719 -1.023438 0 -1.414062 l -1.296875 -1.289063 l 1.296875 -1.296875 c 0.386719 -0.386719 0.386719 -1.023438 0 -1.414062 c -0.1875 -0.1875 -0.445312 -0.289063 -0.707031 -0.289063 c -0.265625 0 -0.523438 0.101563 -0.710938 0.289063 l -1.292969 1.296874 l -1.289062 -1.296874 c -0.1875 -0.1875 -0.445312 -0.289063 -0.710938 -0.289063 z m 0 0" fill="#222222"/>
</svg>
