<?xml version="1.0" encoding="UTF-8"?>
<svg height="16px" viewBox="0 0 16 16" width="16px" xmlns="http://www.w3.org/2000/svg">
    <path d="m 3 1 c -0.550781 0 -1 0.449219 -1 1 v 12 h 2 v -5 h 2.382812 l 0.722657 1.449219 c 0.167969 0.335937 0.515625 0.550781 0.894531 0.550781 h 5 c 0.550781 0 1 -0.449219 1 -1 v -6 c 0 -0.550781 -0.449219 -1 -1 -1 h -3.382812 l -0.722657 -1.449219 c -0.167969 -0.335937 -0.515625 -0.550781 -0.894531 -0.550781 z m 1 2 h 3.382812 l 0.722657 1.449219 c 0.167969 0.335937 0.515625 0.550781 0.894531 0.550781 h 3 v 4 h -3.382812 l -0.722657 -1.449219 c -0.167969 -0.335937 -0.515625 -0.550781 -0.894531 -0.550781 h -3 z m 0 0" fill="#222222"/>
</svg>
