<?xml version="1.0" encoding="UTF-8"?>
<svg height="16px" viewBox="0 0 16 16" width="16px" xmlns="http://www.w3.org/2000/svg">
    <g fill="#222222">
        <path d="m 4 0 c -1.660156 0 -3 1.339844 -3 3 v 6 c 0 1.660156 1.339844 3 3 3 h 3.035156 c -0.019531 -0.164062 -0.03125 -0.332031 -0.035156 -0.5 c 0.003906 -0.511719 0.09375 -1.019531 0.265625 -1.5 h -3.265625 c -0.554688 0 -1 -0.445312 -1 -1 v -6 c 0 -0.554688 0.445312 -1 1 -1 h 8 c 0.554688 0 1 0.445312 1 1 v 4.257812 c 0.785156 0.277344 1.476562 0.765626 2 1.414063 v -5.671875 c 0 -1.660156 -1.339844 -3 -3 -3 z m 3.285156 13.050781 c -3.484375 0.195313 -4.285156 0.949219 -4.285156 0.949219 c 0 1 1 1 1 1 h 4.6875 c -0.636719 -0.511719 -1.121094 -1.183594 -1.402344 -1.949219 z m 0 0"/>
        <path d="m 11.5 8 c -1.921875 0 -3.5 1.578125 -3.5 3.5 s 1.578125 3.5 3.5 3.5 c 0.601562 0 1.164062 -0.15625 1.660156 -0.425781 h 0.003906 l 1.128907 1.132812 c 0.390625 0.390625 1.023437 0.390625 1.414062 0 s 0.390625 -1.023437 0 -1.414062 l -1.132812 -1.128907 c 0 -0.003906 0 -0.003906 0 -0.003906 c 0.269531 -0.496094 0.425781 -1.058594 0.425781 -1.660156 c 0 -1.921875 -1.578125 -3.5 -3.5 -3.5 z m 0 2 c 0.839844 0 1.5 0.660156 1.5 1.5 c 0 0.40625 -0.15625 0.769531 -0.410156 1.035156 c -0.007813 0.007813 -0.019532 0.015625 -0.03125 0.027344 c -0.007813 0.007812 -0.015625 0.019531 -0.023438 0.03125 c -0.265625 0.25 -0.628906 0.40625 -1.035156 0.40625 c -0.839844 0 -1.5 -0.660156 -1.5 -1.5 s 0.660156 -1.5 1.5 -1.5 z m 0 0"/>
    </g>
</svg>
