<?xml version="1.0" encoding="UTF-8"?>
<svg height="16px" viewBox="0 0 16 16" width="16px" xmlns="http://www.w3.org/2000/svg">
    <g fill="#222222">
        <path d="m 7.5 0 c -4.128906 0 -7.5 3.371094 -7.5 7.5 s 3.371094 7.5 7.5 7.5 c 0.367188 0 0.726562 -0.027344 1.078125 -0.078125 c -0.597656 -0.515625 -1.050781 -1.183594 -1.3125 -1.929687 c -0.171875 -0.011719 -0.347656 -0.027344 -0.515625 -0.050782 c -0.191406 -0.257812 -0.382812 -0.589844 -0.550781 -1.027344 c -0.105469 -0.273437 -0.203125 -0.582031 -0.289063 -0.914062 h 1.125 c 0.039063 -0.339844 0.117188 -0.675781 0.230469 -1 h -1.5625 c -0.105469 -0.617188 -0.160156 -1.292969 -0.183594 -2 h 3.167969 c 0.796875 -0.644531 1.789062 -0.996094 2.8125 -1 h -1.019531 c -0.019531 -0.699219 -0.070313 -1.371094 -0.167969 -2 h 2.082031 c 0.3125 0.609375 0.503907 1.285156 0.570313 2 h -1.464844 c 1.316406 0 2.566406 0.578125 3.421875 1.578125 c 0.050781 -0.351563 0.078125 -0.710937 0.078125 -1.078125 c 0 -4.128906 -3.371094 -7.5 -7.5 -7.5 z m 0 2 c 0.257812 0 0.503906 0.023438 0.75 0.054688 c 0.191406 0.261718 0.382812 0.59375 0.550781 1.027343 c 0.105469 0.277344 0.203125 0.585938 0.289063 0.917969 h -3.179688 c 0.085938 -0.332031 0.183594 -0.640625 0.289063 -0.917969 c 0.167969 -0.433593 0.359375 -0.765625 0.550781 -1.027343 c 0.246094 -0.03125 0.492188 -0.054688 0.75 -0.054688 z m -2.089844 0.40625 c -0.046875 0.109375 -0.101562 0.203125 -0.144531 0.316406 c -0.148437 0.386719 -0.269531 0.820313 -0.378906 1.277344 h -1.621094 c 0.574219 -0.691406 1.300781 -1.246094 2.144531 -1.59375 z m 4.179688 0 c 0.84375 0.347656 1.570312 0.902344 2.144531 1.59375 h -1.621094 c -0.109375 -0.457031 -0.230469 -0.890625 -0.378906 -1.277344 c -0.042969 -0.113281 -0.097656 -0.207031 -0.144531 -0.316406 z m -6.984375 2.59375 h 2.082031 c -0.097656 0.628906 -0.148438 1.300781 -0.167969 2 h -2.484375 c 0.066406 -0.714844 0.257813 -1.390625 0.570313 -2 z m 3.097656 0 h 3.59375 c 0.105469 0.617188 0.160156 1.292969 0.183594 2 h -3.960938 c 0.023438 -0.707031 0.078125 -1.382812 0.183594 -2 z m -3.667969 3 h 2.484375 c 0.019531 0.699219 0.070313 1.375 0.167969 2 h -2.082031 c -0.3125 -0.609375 -0.503907 -1.285156 -0.570313 -2 z m 1.230469 3 h 1.621094 c 0.109375 0.457031 0.230469 0.890625 0.378906 1.273438 c 0.042969 0.117187 0.097656 0.210937 0.144531 0.320312 c -0.84375 -0.347656 -1.570312 -0.902344 -2.144531 -1.59375 z m 0 0"/>
        <path d="m 11.5 8 c -1.921875 0 -3.5 1.578125 -3.5 3.5 s 1.578125 3.5 3.5 3.5 c 0.601562 0 1.164062 -0.15625 1.660156 -0.425781 h 0.003906 l 1.128907 1.132812 c 0.390625 0.390625 1.023437 0.390625 1.414062 0 s 0.390625 -1.023437 0 -1.414062 l -1.132812 -1.128907 c 0 -0.003906 0 -0.003906 0 -0.003906 c 0.269531 -0.496094 0.425781 -1.058594 0.425781 -1.660156 c 0 -1.921875 -1.578125 -3.5 -3.5 -3.5 z m 0 2 c 0.839844 0 1.5 0.660156 1.5 1.5 c 0 0.40625 -0.15625 0.769531 -0.40625 1.035156 c -0.011719 0.007813 -0.023438 0.015625 -0.03125 0.027344 c -0.011719 0.007812 -0.019531 0.019531 -0.027344 0.027344 c -0.265625 0.253906 -0.628906 0.410156 -1.035156 0.410156 c -0.839844 0 -1.5 -0.660156 -1.5 -1.5 s 0.660156 -1.5 1.5 -1.5 z m 0 0"/>
    </g>
</svg>
