<?xml version="1.0" encoding="UTF-8"?>
<svg height="16px" viewBox="0 0 16 16" width="16px" xmlns="http://www.w3.org/2000/svg">
    <g fill="#222222">
        <path d="m 11 7 c -1.089844 0 -2 -0.910156 -2 -2 v -3 h 2 v 3 h 4 v 2 z m 0 0"/>
        <path d="m 11 9 c -1.089844 0 -2 0.910156 -2 2 v 3 h 2 v -3 h 4 v -2 z m 0 0"/>
        <path d="m 5 7 c 1.089844 0 2 -0.910156 2 -2 v -3 h -2 v 3 h -4 v 2 z m 0 0"/>
        <path d="m 5 9 c 1.089844 0 2 0.910156 2 2 v 3 h -2 v -3 h -4 v -2 z m 0 0"/>
    </g>
</svg>
