<?xml version="1.0" encoding="UTF-8"?>
<svg height="16px" viewBox="0 0 16 16" width="16px" xmlns="http://www.w3.org/2000/svg">
    <path d="m 2.984375 0.00390625 c -1.648437 0 -3 1.35546875 -3 2.99999975 v 10 c 0 1.644532 1.351563 3 3 3 h 10 c 1.644531 0 3 -1.355468 3 -3 v -10 c 0 -1.644531 -1.355469 -2.99999975 -3 -2.99999975 z m 8 1.99609375 h 1 v 0.992188 h 1 v -0.992188 h 1 v 0.992188 h -1 v 1 l 1 0.007812 v 1 h -1 v -1.003906 h -1 v 1.003906 h -1 v -1.007812 h 1 v -1 l -1 0.007812 z m 3.015625 4 l -0.019531 7.003906 c 0 0.570313 -0.425781 1 -1 1 h -10 c -0.570313 0 -1 -0.429687 -1 -1 l 0.019531 -7.003906 z m 0 0" fill="#222222"/>
</svg>
