<?xml version="1.0" encoding="UTF-8"?>
<svg height="16px" viewBox="0 0 16 16" width="16px" xmlns="http://www.w3.org/2000/svg">
    <g fill="#222222">
        <path d="m 10.027344 12.957031 c 0 -1.074219 -0.570313 -2.0625 -1.5 -2.597656 c -0.925782 -0.539063 -2.070313 -0.539063 -3 0 c -0.925782 0.535156 -1.5 1.523437 -1.5 2.597656" fill-opacity="0.34902"/>
        <path d="m 3 16 c -1.644531 0 -3 -1.355469 -3 -3 v -10 c 0 -1.644531 1.355469 -3 3 -3 h 10 c 1.644531 0 3 1.355469 3 3 v 10 c 0 1.644531 -1.355469 3 -3 3 z m 0 -2 h 10 c 0.570312 0 1 -0.429688 1 -1 v -9 h -12 v 9 c 0 0.570312 0.429688 1 1 1 z m 0 0"/>
    </g>
</svg>
