<?xml version="1.0" encoding="UTF-8"?>
<svg height="16px" viewBox="0 0 16 16" width="16px" xmlns="http://www.w3.org/2000/svg">
    <path d="m 0 10 v 5 h 3 v -5 z m 0 0" fill="#222222"/>
    <path d="m 9.5 8 c -0.832031 0 -1.5 0.667969 -1.5 1.5 v 5 c 0 0.832031 0.667969 1.5 1.5 1.5 h 5 c 0.832031 0 1.5 -0.667969 1.5 -1.5 v -5 c 0 -0.832031 -0.667969 -1.5 -1.5 -1.5 z m 1.5 1 h 2 v 2.5 s 0 0.5 -0.5 0.5 h -1 c -0.5 0 -0.5 -0.5 -0.5 -0.5 z m 0.5 4 h 1 c 0.277344 0 0.5 0.222656 0.5 0.5 v 1 c 0 0.277344 -0.222656 0.5 -0.5 0.5 h -1 c -0.277344 0 -0.5 -0.222656 -0.5 -0.5 v -1 c 0 -0.277344 0.222656 -0.5 0.5 -0.5 z m 0 0" fill="#ff7800"/>
    <path d="m 12 1 v 6 h 3 v -6 z m -4 3 v 3 h 3 v -3 z m -4 3 v 8 h 3 v -8 z m 0 0" fill="#222222" fill-opacity="0.34902"/>
</svg>
