<?xml version="1.0" encoding="UTF-8" standalone="no"?>
<!-- Created with Inkscape (http://www.inkscape.org/) -->

<svg
   width="100mm"
   height="100mm"
   viewBox="0 0 100 100"
   version="1.1"
   id="svg1"
   xml:space="preserve"
   inkscape:version="1.3.2 (091e20ef0f, 2023-11-25)"
   sodipodi:docname="icon-round.svg"
   inkscape:export-filename="icon.png"
   inkscape:export-xdpi="96"
   inkscape:export-ydpi="96"
   xmlns:inkscape="http://www.inkscape.org/namespaces/inkscape"
   xmlns:sodipodi="http://sodipodi.sourceforge.net/DTD/sodipodi-0.dtd"
   xmlns="http://www.w3.org/2000/svg"
   xmlns:svg="http://www.w3.org/2000/svg"><sodipodi:namedview
     id="namedview1"
     pagecolor="#ffffff"
     bordercolor="#000000"
     borderopacity="0.25"
     inkscape:showpageshadow="2"
     inkscape:pageopacity="0.0"
     inkscape:pagecheckerboard="0"
     inkscape:deskcolor="#d1d1d1"
     inkscape:document-units="mm"
     inkscape:zoom="1.4677326"
     inkscape:cx="-13.285798"
     inkscape:cy="218.36402"
     inkscape:window-width="3440"
     inkscape:window-height="1371"
     inkscape:window-x="0"
     inkscape:window-y="0"
     inkscape:window-maximized="1"
     inkscape:current-layer="layer1"
     showgrid="true"
     showguides="true" /><defs
     id="defs1" /><g
     inkscape:label="Layer 1"
     inkscape:groupmode="layer"
     id="layer1"><circle
       style="fill:#326ce5;fill-opacity:1;stroke-width:0.317083"
       id="path1"
       cx="50"
       cy="50"
       r="47.937508" /><path
       id="circle1"
       style="fill:#10337c;fill-opacity:1;stroke-width:0.317083"
       d="M 25.060486 72.813127 C 21.726738 72.996309 18.393292 74.452083 15.059546 75.674451 C 13.561276 76.223815 12.062999 76.699204 10.56473 77.109505 A 47.937508 47.937508 0 0 0 50.000049 97.937691 A 47.937508 47.937508 0 0 0 91.938057 72.967639 C 89.171852 73.092134 86.405544 73.985236 83.639339 75.230033 C 79.829353 76.94453 76.019557 79.306414 72.209546 78.925415 C 68.399551 78.544416 64.589234 75.420513 60.779236 75.738013 C 56.969241 76.055507 53.159438 79.814457 49.349443 80.665361 C 45.539447 81.516264 41.729644 79.433703 37.919649 77.325513 C 34.109654 75.204613 30.299335 73.045347 26.489339 72.816744 C 26.01309 72.786581 25.536735 72.786958 25.060486 72.813127 z " /><path
       class="st0"
       d="m 55.784837,66.634915 c -2.375356,-2.876708 -3.528579,-5.709605 -3.64764,-8.49857 -0.244457,-5.841217 3.221398,-10.203356 8.366928,-13.34328 5.415055,-3.302984 10.98047,-4.123978 16.389254,-6.587081 2.701284,-1.228383 5.928956,-3.240256 11.293901,-7.527106 1.748555,4.644123 -3.829405,12.108569 -12.885808,16.057031 2.807828,0.106447 5.828668,-0.752056 9.131623,-2.882989 -0.22566,5.903886 -4.869811,9.539009 -15.192189,10.942875 2.168529,0.72701 4.763214,0.764632 8.072379,-0.169102 -3.177558,10.629448 -16.332827,3.008325 -21.528448,12.008303 z m -11.569673,0 c 2.375331,-2.876708 3.528554,-5.709605 3.647615,-8.49857 0.244482,-5.841217 -3.221399,-10.203356 -8.366928,-13.34328 -5.41503,-3.302984 -10.98047,-4.123978 -16.389229,-6.587081 -2.701309,-1.234629 -5.928958,-3.246501 -11.293901,-7.533381 -1.748553,4.644152 3.829379,12.108566 12.885808,16.057028 -2.807853,0.106458 -5.828695,-0.752053 -9.131649,-2.882987 0.225687,5.903915 4.869812,9.539009 15.19219,10.942876 -2.168529,0.727006 -4.763214,0.764661 -8.072354,-0.169102 3.177558,10.635727 16.332802,3.014604 21.528448,12.01458 z"
       id="path1-7"
       style="fill:#ffffff;fill-opacity:1;stroke-width:0.626715" /><circle
       style="opacity:1;fill:#fdb813;fill-opacity:1;stroke-width:0.261558"
       id="path9"
       cx="50"
       cy="24.270737"
       r="8.9585514" /></g><style
     type="text/css"
     id="style1">.st0{fill-rule:evenodd;clip-rule:evenodd;}</style></svg>
