<?xml version="1.0" encoding="UTF-8"?>
<svg height="16px" viewBox="0 0 16 16" width="16px" xmlns="http://www.w3.org/2000/svg">
    <path d="m 6.855469 0.0117188 c -1.085938 0.0273437 -1.949219 0.9140622 -1.949219 2.0000002 c 0 1.105469 0.894531 2 2 2 c 1.101562 0 2 -0.894531 2 -2 s -0.898438 -2.0000002 -2 -2.0000002 c -0.019531 0 -0.035156 0 -0.050781 0 z m 0.421875 4.9921872 l -1.867188 0.019532 c -0.417968 0.003906 -0.816406 0.183593 -1.089844 0.5 l -0.839843 0.957031 c -0.277344 0.316406 -0.496094 0.6875 -0.640625 1.085937 l -0.78125 2.1875 c -0.257813 0.492188 0.015625 1.179688 0.542968 1.359375 c 0.527344 0.175781 1.175782 -0.210937 1.269532 -0.757812 l 0.796875 -2.164063 c 0.054687 -0.152344 0.136719 -0.292968 0.242187 -0.414062 l 0.105469 -0.117188 v 2.980469 l -1.898437 3.886719 c -0.242188 0.496094 -0.0625 1.09375 0.425781 1.347656 s 1.09375 0.066406 1.347656 -0.421875 l 1.890625 -3.824219 l -0.144531 -0.441406 l 0.230469 0.410156 l 2.09375 3.863282 c 0.25 0.488281 0.851562 0.683593 1.34375 0.4375 c 0.414062 -0.210938 0.628906 -0.679688 0.515624 -1.132813 l 0.007813 -0.003906 l -0.011719 -0.027344 c -0.019531 -0.0625 -0.042968 -0.125 -0.074218 -0.183594 l -2.726563 -5.289062 v -1.695313 l 2.519531 2.164063 c 0.367188 0.382812 1.070313 0.367187 1.421875 -0.035157 c 0.351563 -0.402343 0.277344 -1.101562 -0.152343 -1.417968 l -3.238282 -2.792969 c -0.355468 -0.3125 -0.8125 -0.476563 -1.289062 -0.480469 z m 5.464844 5.011719 c -0.179688 0.300781 -0.429688 0.546875 -0.734376 0.71875 l 3.070313 5 c 0.144531 0.234375 0.453125 0.304687 0.6875 0.164063 c 0.234375 -0.148438 0.308594 -0.453126 0.164063 -0.6875 z m 0 0" fill="#222222"/>
</svg>
