<?xml version="1.0" encoding="UTF-8"?>
<svg height="16px" viewBox="0 0 16 16" width="16px" xmlns="http://www.w3.org/2000/svg">
    <path d="m 2.5 2 c -0.832031 0 -1.5 0.667969 -1.5 1.5 v 9 c 0 0.832031 0.667969 1.5 1.5 1.5 h 12 c 0.832031 0 1.5 -0.667969 1.5 -1.5 v -9 c 0 -0.832031 -0.667969 -1.5 -1.5 -1.5 z m 3 2 c 1.082031 0 1.898438 0.6875 2.207031 1.300781 c 0.308594 0.617188 0.292969 1.199219 0.292969 1.199219 v 0.5 h -2 v -1 h -1 v 4 h 1 v -1 h 2 v 0.5 s 0.015625 0.582031 -0.292969 1.199219 c -0.308593 0.613281 -1.125 1.300781 -2.207031 1.300781 s -1.898438 -0.6875 -2.207031 -1.300781 c -0.308594 -0.617188 -0.292969 -1.199219 -0.292969 -1.199219 v -3 s -0.015625 -0.582031 0.292969 -1.199219 c 0.308593 -0.613281 1.125 -1.300781 2.207031 -1.300781 z m 6 0 c 1.082031 0 1.898438 0.6875 2.207031 1.300781 c 0.308594 0.617188 0.292969 1.199219 0.292969 1.199219 v 0.5 h -2 v -1 h -1 v 4 h 1 v -1 h 2 v 0.5 s 0.015625 0.582031 -0.292969 1.199219 c -0.308593 0.613281 -1.125 1.300781 -2.207031 1.300781 s -1.898438 -0.6875 -2.207031 -1.300781 c -0.308594 -0.617188 -0.292969 -1.199219 -0.292969 -1.199219 v -3 s -0.015625 -0.582031 0.292969 -1.199219 c 0.308593 -0.613281 1.125 -1.300781 2.207031 -1.300781 z m 0 0" fill="#222222"/>
</svg>
