<?xml version="1.0" encoding="UTF-8"?>
<svg height="16px" viewBox="0 0 16 16" width="16px" xmlns="http://www.w3.org/2000/svg">
    <g fill="#222222">
        <path d="m 2 1 c -0.265625 0 -0.519531 0.105469 -0.707031 0.292969 c -0.390625 0.390625 -0.390625 1.023437 0 1.414062 l 12 12 c 0.390625 0.390625 1.023437 0.390625 1.414062 0 s 0.390625 -1.023437 0 -1.414062 l -12 -12 c -0.1875 -0.1875 -0.441406 -0.292969 -0.707031 -0.292969 z m 0 0"/>
        <path d="m 5.949219 0.125 c -0.753907 0.019531 -1.433594 0.460938 -1.753907 1.140625 c -0.207031 0.191406 -0.320312 0.457031 -0.320312 0.734375 v 0.5 c 0 0.128906 0.023438 0.253906 0.074219 0.371094 l 4.066406 6.238281 c 0.152344 0.378906 0.519531 0.625 0.929687 0.628906 l 2.234376 1.261719 l 2.046874 3.191406 c 0.144532 0.386719 0.40625 0.808594 0.824219 0.808594 h 0.824219 c 0.550781 0 1 -0.449219 1 -1 s -0.449219 -1 -1 -1 h -0.804688 l -1.257812 -3.351562 c -0.148438 -0.390626 -0.519531 -0.648438 -0.9375 -0.648438 h -3.324219 l -0.398437 -1 h 2.847656 c 0.550781 0 1 -0.449219 1 -1 s -0.449219 -1 -1 -1 h -3.648438 l -0.78125 -1.957031 c 0.847657 -0.253907 1.429688 -1.03125 1.429688 -1.917969 c 0 -1.105469 -0.894531 -2 -2 -2 c -0.015625 0 -0.03125 0 -0.046875 0 z m 0 0"/>
        <path d="m 2.855469 6.671875 c -0.261719 0.246094 -0.5 0.519531 -0.707031 0.8125 l 1.398437 1.402344 c 0.179687 -0.320313 0.394531 -0.617188 0.660156 -0.859375 z m -1.273438 1.839844 c -0.164062 0.394531 -0.277343 0.8125 -0.339843 1.25 l 2.207031 2.203125 c -0.210938 -0.441406 -0.339844 -0.929688 -0.339844 -1.453125 c 0 -0.148438 0.027344 -0.289063 0.042969 -0.429688 z m -0.324219 2.851562 c 0.363282 2.234375 2.136719 4.007813 4.375 4.375 z m 7.710938 1.421875 c -0.246094 0.269532 -0.539062 0.484375 -0.855469 0.664063 l 1.371094 1.371093 c 0.289063 -0.210937 0.554687 -0.453124 0.796875 -0.722656 z m -3.9375 0.761719 l 2.199219 2.203125 c 0.4375 -0.066406 0.851562 -0.183594 1.238281 -0.351562 l -1.554688 -1.558594 c -0.144531 0.019531 -0.28125 0.042968 -0.429687 0.042968 c -0.523437 0 -1.015625 -0.125 -1.453125 -0.335937 z m 0 0"/>
    </g>
</svg>
