<?xml version="1.0" encoding="UTF-8"?>
<svg height="16px" viewBox="0 0 16 16" width="16px" xmlns="http://www.w3.org/2000/svg">
    <g fill="#222222">
        <path d="m 14 4 c 1.105469 0 2 -0.894531 2 -2 s -0.894531 -2 -2 -2 s -2 0.894531 -2 2 s 0.894531 2 2 2 z m 0 0"/>
        <path d="m 5.914062 0.00390625 c -0.234374 0.01953125 -0.453124 0.12109375 -0.621093 0.28906275 l -2 2 c -0.390625 0.390625 -0.390625 1.023437 0 1.414062 s 1.023437 0.390625 1.414062 0 l 1.40625 -1.40625 l 1.808594 1.261719 l -1.792969 1.449219 c -1.1875 0.082031 -2.277344 0.542969 -3.144531 1.265625 l 1.414063 1.414062 h 0.003906 c 0.582031 -0.433594 1.308594 -0.691406 2.097656 -0.691406 h 0.019531 c 0.757813 0 1.457031 0.246094 2.027344 0.652344 c 0 0.003906 0.003906 0.007812 0.007813 0.011718 l 0.433593 0.367188 c 0.625 0.628906 1.011719 1.5 1.011719 2.46875 c 0 0.789062 -0.253906 1.515625 -0.691406 2.101562 l 1.414062 1.414063 c 0.796875 -0.953125 1.277344 -2.183594 1.277344 -3.515625 c 0 -0.628906 -0.109375 -1.234375 -0.304688 -1.800781 l 1.175782 -0.339844 l -0.367188 4.050781 c -0.050781 0.550782 0.355469 1.035156 0.90625 1.085938 c 0.550782 0.050781 1.035156 -0.355469 1.085938 -0.90625 l 0.5 -5.5 c 0.03125 -0.328125 -0.105469 -0.648438 -0.359375 -0.859375 c -0.253907 -0.210938 -0.59375 -0.28125 -0.910157 -0.191407 l -2.988281 0.851563 l -0.171875 -0.144531 l 1.234375 -1.648438 c 0.164063 -0.214844 0.230469 -0.488281 0.1875 -0.753906 c -0.042969 -0.269531 -0.191406 -0.507812 -0.414062 -0.664062 l -5 -3.5 c -0.191407 -0.132813 -0.425781 -0.195313 -0.660157 -0.17578175 z m -3.636718 6.98046875 c -0.796875 0.953125 -1.277344 2.183594 -1.277344 3.515625 c 0 3.027344 2.472656 5.5 5.5 5.5 c 1.332031 0 2.5625 -0.480469 3.515625 -1.277344 l -1.414063 -1.414062 c -0.585937 0.433594 -1.3125 0.691406 -2.101562 0.691406 c -1.945312 0 -3.5 -1.554688 -3.5 -3.5 c 0 -0.789062 0.257812 -1.515625 0.691406 -2.101562 z m 0 0"/>
    </g>
</svg>
