<?xml version="1.0" encoding="UTF-8"?>
<svg height="16px" viewBox="0 0 16 16" width="16px" xmlns="http://www.w3.org/2000/svg">
    <g fill="#222222">
        <path d="m 2 -0.0195312 c -0.550781 0 -1 0.4492192 -1 1.0000002 v 0.695312 c 0 0.535157 0.4375 1.058594 0.753906 1.230469 c 0.101563 0.058594 0.140625 0.054688 0.222656 0.085938 c -0.121093 0.050781 -0.195312 0.050781 -0.339843 0.15625 c -0.335938 0.25 -0.636719 0.796874 -0.636719 1.296874 s 0.257812 1.027344 0.574219 1.304688 c 0.167969 0.148438 0.285156 0.171875 0.433593 0.242188 c -0.132812 0.054687 -0.226562 0.0625 -0.386718 0.1875 c -0.335938 0.257812 -0.621094 0.800781 -0.621094 1.300781 s 0.316406 1.089843 0.710938 1.332031 c 0.394531 0.246094 0.714843 0.257812 0.9375 0.277344 c 0.082031 0.011718 0.054687 0.007812 0.109374 0.011718 c 0.179688 0.230469 0.453126 0.367188 0.742188 0.378907 c 0.550781 0 1 -0.445313 1 -1 c 0 -0.265625 -0.097656 -0.601563 -0.292969 -0.835938 c -0.144531 -0.171875 -0.296875 -0.230469 -0.445312 -0.300781 c 0.046875 -0.03125 0.070312 -0.019531 0.117187 -0.054688 c 0.335938 -0.261718 0.621094 -0.808593 0.621094 -1.308593 s -0.320312 -1.03125 -0.636719 -1.269531 c -0.183593 -0.132813 -0.289062 -0.152344 -0.429687 -0.210938 c 0.148437 -0.058594 0.261718 -0.070312 0.441406 -0.210938 c 0.339844 -0.261718 0.625 -0.808593 0.625 -1.308593 s -0.269531 -1.03125 -0.601562 -1.300781 c -0.328126 -0.269532 -0.636719 -0.355469 -0.855469 -0.421876 c -0.027344 -0.007812 -0.015625 -0.003906 -0.042969 -0.015624 v -0.261719 c 0 -0.550781 -0.449219 -1.0000002 -1 -1.0000002 z m 0.5 8.5000002 c 0.023438 0.167969 0.089844 0.324219 0.1875 0.457031 c -0.007812 -0.007812 -0.011719 -0.003906 -0.019531 -0.015625 c -0.117188 -0.136719 -0.167969 -0.34375 -0.167969 -0.441406 z m 0 0"/>
        <path d="m 12.351562 -0.0117188 c -0.972656 -0.0585937 -2.023437 0.3164068 -2.855468 1.1484378 l -8.339844 8.339843 c -0.832031 0.835938 -1.2070312 1.886719 -1.1484375 2.855469 c 0.0546875 0.972657 0.4999995 1.84375 1.1484375 2.492188 c 0.652344 0.652343 1.523438 1.09375 2.492188 1.152343 c 0.972656 0.058594 2.023437 -0.316406 2.859374 -1.152343 l 8.335938 -8.335938 c 0.832031 -0.835937 1.210938 -1.886719 1.152344 -2.855469 c -0.058594 -0.972656 -0.503906 -1.84375 -1.152344 -2.496093 c -0.648438 -0.648438 -1.519531 -1.089844 -2.492188 -1.1484378 z m -0.117187 1.9960938 c 0.421875 0.023437 0.859375 0.234375 1.195313 0.566406 c 0.335937 0.335938 0.546874 0.777344 0.570312 1.195313 c 0.023438 0.421875 -0.089844 0.847656 -0.570312 1.324218 l -8.335938 8.339844 c -0.480469 0.480469 -0.90625 0.59375 -1.324219 0.570313 c -0.421875 -0.023438 -0.863281 -0.234375 -1.195312 -0.570313 c -0.335938 -0.335937 -0.546875 -0.773437 -0.574219 -1.195312 c -0.023438 -0.417969 0.09375 -0.84375 0.574219 -1.320313 l 8.335937 -8.34375 c 0.480469 -0.476562 0.902344 -0.589843 1.324219 -0.566406 z m 0 0"/>
        <path d="m 14 3.976562 l -0.050781 8.09375 c -0.003907 0.921876 -1.019531 1.910157 -1.949219 1.910157 v -5 h -2 v 7 h 2 c 2.128906 0 3.9375 -1.757813 3.949219 -3.898438 l 0.050781 -8.09375 z m 0 0"/>
        <path d="m 5 11.980469 c 0 0.554687 -0.449219 1 -1 1 s -1 -0.445313 -1 -1 c 0 -0.550781 0.449219 -1 1 -1 s 1 0.449219 1 1 z m 0 0"/>
        <path d="m 13 3.980469 c 0 0.554687 -0.449219 1 -1 1 s -1 -0.445313 -1 -1 c 0 -0.550781 0.449219 -1 1 -1 s 1 0.449219 1 1 z m 0 0"/>
    </g>
</svg>
