<?xml version="1.0" encoding="UTF-8"?>
<svg height="16px" viewBox="0 0 16 16" width="16px" xmlns="http://www.w3.org/2000/svg">
    <path d="m 6 0 v 4 h -1 v 2 h -1 v 9 h -1 v -9 h -3 v 10 h 16 v -1 h -1 v -4 h -1 v -8 l -3 3 v 5 h -1 v 4 h -1 v -9 h -1 v -2 h -1 v -4 z m 6.5 6 c 0.277344 0 0.5 0.222656 0.5 0.5 s -0.222656 0.5 -0.5 0.5 s -0.5 -0.222656 -0.5 -0.5 s 0.222656 -0.5 0.5 -0.5 z m -11.5 1 h 1 v 1 h -1 z m 4 0 h 3 v 1 h -3 z m 7.5 1 c 0.277344 0 0.5 0.222656 0.5 0.5 s -0.222656 0.5 -0.5 0.5 s -0.5 -0.222656 -0.5 -0.5 s 0.222656 -0.5 0.5 -0.5 z m -11.5 1 h 1 v 1 h -1 z m 4 0 h 3 v 1 h -3 z m 7.5 1.007812 c 0.277344 0 0.5 0.222657 0.5 0.5 c 0 0.277344 -0.222656 0.5 -0.5 0.5 s -0.5 -0.222656 -0.5 -0.5 c 0 -0.277343 0.222656 -0.5 0.5 -0.5 z m -11.5 0.992188 h 1 v 1 h -1 z m 4 0 h 3 v 1 h -3 z m 6 1 h 3 v 1 h -3 z m -10 1 h 1 v 1 h -1 z m 4 0 h 3 v 1 h -3 z m 0 0" fill="#222222"/>
</svg>
