<?xml version="1.0" encoding="UTF-8"?>
<svg height="16px" viewBox="0 0 16 16" width="16px" xmlns="http://www.w3.org/2000/svg">
    <g fill="#222222">
        <path d="m 2.496094 15 c 0.628906 -0.003906 1.1875 -0.40625 1.402344 -0.996094 l 7.566406 -0.007812 c 1.386718 0 2.503906 -1.097656 2.507812 -2.488282 c 0 -1.390624 -1.117187 -2.507812 -2.507812 -2.507812 h -2.992188 c -0.269531 0 -0.5 -0.226562 -0.5 -0.492188 c 0 -0.273437 0.230469 -0.507812 0.507813 -0.507812 h 3.605469 c 0.210937 0.597656 0.777343 1 1.414062 1 c 0.828125 0 1.5 -0.671875 1.5 -1.5 s -0.671875 -1.5 -1.5 -1.5 c -0.058594 0 -0.113281 0.003906 -0.171875 0.011719 c -0.019531 -0.003907 -0.042969 -0.007813 -0.066406 -0.011719 h -4.78125 c -1.390625 0 -2.507813 1.117188 -2.507813 2.511719 c 0.007813 1.386719 1.125 2.496093 2.507813 2.488281 h 2.984375 c 0.273437 0 0.507812 0.230469 0.507812 0.503906 c 0 0.273438 -0.234375 0.507813 -0.511718 0.507813 l -8.71875 -0.007813 c -0.074219 -0.011718 -0.167969 0.003906 -0.242188 0 c -0.828125 0 -1.5 0.671875 -1.5 1.496094 c 0 0.828125 0.671875 1.5 1.5 1.5 z m 0.003906 -1 c -0.277344 0 -0.5 -0.222656 -0.5 -0.5 s 0.222656 -0.5 0.5 -0.5 s 0.5 0.222656 0.5 0.5 s -0.222656 0.5 -0.5 0.5 z m 11 -6 c -0.277344 0 -0.5 -0.222656 -0.5 -0.5 s 0.222656 -0.5 0.5 -0.5 s 0.5 0.222656 0.5 0.5 s -0.222656 0.5 -0.5 0.5 z m 0 0"/>
        <path d="m 13.496094 0 c -1.378906 0 -2.5 1.089844 -2.5 2.4375 c 0 0.289062 0.054687 0.574219 0.160156 0.84375 h -0.007812 c 0.265624 0.804688 1.578124 1.96875 2.347656 2.71875 v -0.003906 c 0.628906 -0.609375 1.617187 -1.496094 2.105468 -2.242188 c 0.109376 -0.167968 0.195313 -0.328125 0.242188 -0.476562 h -0.003906 c 0.101562 -0.265625 0.15625 -0.550782 0.160156 -0.839844 c 0 -1.347656 -1.121094 -2.4375 -2.503906 -2.4375 z m -0.019532 1.824219 c 0.382813 0 0.695313 0.304687 0.695313 0.679687 c 0 0.347656 -0.273437 0.636719 -0.628906 0.667969 l -0.195313 -0.003906 c -0.328125 -0.0625 -0.566406 -0.339844 -0.570312 -0.667969 c 0 -0.375 0.3125 -0.675781 0.699218 -0.675781 z m 0 0"/>
        <path d="m 2.496094 6 c -1.378906 0 -2.50000025 1.089844 -2.50000025 2.4375 c 0 0.289062 0.05468745 0.574219 0.16015625 0.84375 h -0.007812 c 0.265624 0.804688 1.578124 1.96875 2.347656 2.71875 v -0.003906 c 0.628906 -0.609375 1.617187 -1.496094 2.105468 -2.242188 c 0.109376 -0.167968 0.195313 -0.328125 0.242188 -0.476562 h -0.003906 c 0.101562 -0.265625 0.15625 -0.550782 0.160156 -0.839844 c 0 -1.347656 -1.121094 -2.4375 -2.503906 -2.4375 z m -0.019532 1.824219 c 0.382813 0 0.695313 0.304687 0.695313 0.679687 c 0 0.347656 -0.273437 0.636719 -0.628906 0.667969 l -0.195313 -0.003906 c -0.328125 -0.0625 -0.566406 -0.339844 -0.570312 -0.667969 c 0 -0.375 0.3125 -0.675781 0.699218 -0.675781 z m 0 0"/>
    </g>
</svg>
