<?xml version="1.0" encoding="UTF-8"?>
<svg height="16px" viewBox="0 0 16 16" width="16px" xmlns="http://www.w3.org/2000/svg">
    <g fill="#222222">
        <path d="m 0.949219 14.820312 l 0.632812 -0.902343 c 0.394531 -0.566407 1.246094 -0.457031 1.484375 0.191406 l 0.027344 0.074219 c 0.480469 1.320312 2.335938 1.335937 2.839844 0.019531 l 0.039062 -0.101563 c 0.148438 -0.390624 0.710938 -0.386718 0.855469 0.007813 l 0.027344 0.074219 c 0.484375 1.316406 2.335937 1.320312 2.824219 0.007812 l 0.03125 -0.085937 c 0.148437 -0.390625 0.710937 -0.394531 0.859374 0 l 0.03125 0.089843 c 0.496094 1.320313 2.355469 1.316407 2.84375 0.007813 c 0.183594 -0.464844 0.855469 -0.464844 1.046876 0.007813 l 0.269531 0.648437 c 0.070312 0.175781 0.234375 0.300781 0.421875 0.324219 c 0.1875 0.023437 0.375 -0.054688 0.488281 -0.207032 c 0.113281 -0.148437 0.140625 -0.351562 0.066406 -0.523437 l -0.265625 -0.640625 c -0.542968 -1.371094 -2.46875 -1.371094 -3.015625 0.011719 c -0.148437 0.394531 -0.714843 0.394531 -0.863281 0 l -0.03125 -0.089844 c -0.496094 -1.316406 -2.351562 -1.316406 -2.84375 0.003906 l -0.03125 0.085938 c -0.144531 0.382812 -0.695312 0.382812 -0.835938 -0.003907 l -0.027343 -0.074218 c -0.484375 -1.320313 -2.339844 -1.335938 -2.839844 -0.023438 l -0.039063 0.105469 c -0.152343 0.390625 -0.714843 0.386719 -0.859374 -0.007813 l -0.027344 -0.074218 c -0.523438 -1.441406 -2.46875 -1.695313 -3.347656 -0.4375 l -0.6289068 0.90625 c -0.109375 0.15625 -0.1289062 0.359375 -0.046875 0.527344 c 0.0820318 0.171874 0.2460938 0.289062 0.4335938 0.304687 c 0.191406 0.015625 0.375 -0.070313 0.480469 -0.226563 z m 0 0"/>
        <path d="m 0.515625 7 l 0.703125 2.496094 c 0.175781 0.636718 0.269531 1.296875 0.269531 1.960937 v 1.542969 l 2.074219 0.109375 v -1.929687 c 0 -0.660157 -0.105469 -1.320313 -0.308594 -1.949219 l -0.074218 -0.230469 h 9.820312 v 4.453125 h 2 v -6.453125 l -2.019531 1 h -7.011719 l -0.964844 -1 z m 0 0"/>
        <path d="m 10 2 c -1.589844 0 -3.070312 0.835938 -3.886719 2.203125 l -1.96875 3.28125 l 1.710938 1.03125 l 1.972656 -3.285156 c 0.457031 -0.765625 1.28125 -1.230469 2.171875 -1.230469 h 3 v 4 h 2 v -6 z m 0 0"/>
        <g fill-rule="evenodd">
            <path d="m 9 10 h 1 v 1 h -1 z m 0 0"/>
            <path d="m 10.992188 10 h 1.015624 v 1 h -1.015624 z m 0 0"/>
            <path d="m 5 10 h 1 v 1 h -1 z m 0 0"/>
            <path d="m 6.992188 10 h 1.015624 v 1 h -1.015624 z m 0 0"/>
            <path d="m 9.503906 4.964844 h 2 c 0.277344 0 0.503906 0.226562 0.503906 0.503906 s -0.226562 0.503906 -0.503906 0.503906 h -2 c -0.277344 0 -0.503906 -0.226562 -0.503906 -0.503906 s 0.226562 -0.503906 0.503906 -0.503906 z m 0 0"/>
        </g>
    </g>
</svg>
