<?xml version="1.0" encoding="UTF-8"?>
<svg height="16px" viewBox="0 0 16 16" width="16px" xmlns="http://www.w3.org/2000/svg">
    <path d="m 7 1 c -2.894531 2.996094 -5 6.515625 -5 8.75 c 0 3.933594 2.46875 6.25 6 6.25 s 6 -2.3125 6 -6.25 c 0 -2.316406 -1.957031 -5.707031 -5 -8.75 c -1 -1 -2 0 -2 0 z m 1 12.5 c -1.765625 0 -3 -1.179688 -3 -2.867188 c 0 -0.34375 0.101562 -1.4375 1.863281 -3.589843 c 0.636719 -0.914063 1.6875 -0.910157 2.234375 -0.085938 c 1.617188 2.433594 1.902344 3.320313 1.902344 3.675781 c 0 1.6875 -1.234375 2.867188 -3 2.867188 z m 0 0" fill="#222222"/>
</svg>
