<?xml version="1.0" encoding="UTF-8"?>
<svg height="16px" viewBox="0 0 16 16" width="16px" xmlns="http://www.w3.org/2000/svg">
    <path d="m 4 0 c -0.554688 0 -1 0.445312 -1 1 v 4 h -1 c -0.554688 0 -1 0.445312 -1 1 v 9 h -1 v 1 h 16 v -1 h -1 v -9 c 0 -0.554688 -0.488281 -1 -1 -1 h -1 v -4 c 0 -0.554688 -0.445312 -1 -1 -1 z m 3 1 h 2 v 2 h 2 v 2 h -2 v 2 h -2 v -2 h -2 v -2 h 2 z m -3.75 8 h 1.5 c 0.136719 0 0.25 0.113281 0.25 0.25 v 1.5 c 0 0.136719 -0.113281 0.25 -0.25 0.25 h -1.5 c -0.136719 0 -0.25 -0.113281 -0.25 -0.25 v -1.5 c 0 -0.136719 0.113281 -0.25 0.25 -0.25 z m 4 0 h 1.5 c 0.136719 0 0.25 0.113281 0.25 0.25 v 1.5 c 0 0.136719 -0.113281 0.25 -0.25 0.25 h -1.5 c -0.136719 0 -0.25 -0.113281 -0.25 -0.25 v -1.5 c 0 -0.136719 0.113281 -0.25 0.25 -0.25 z m 4 0 h 1.5 c 0.136719 0 0.25 0.113281 0.25 0.25 v 1.5 c 0 0.136719 -0.113281 0.25 -0.25 0.25 h -1.5 c -0.136719 0 -0.25 -0.113281 -0.25 -0.25 v -1.5 c 0 -0.136719 0.113281 -0.25 0.25 -0.25 z m -8 3 h 1.5 c 0.136719 0 0.25 0.113281 0.25 0.25 v 1.5 c 0 0.136719 -0.113281 0.25 -0.25 0.25 h -1.5 c -0.136719 0 -0.25 -0.113281 -0.25 -0.25 v -1.5 c 0 -0.136719 0.113281 -0.25 0.25 -0.25 z m 3.75 0 h 2 v 3 h -2 z m 4.25 0 h 1.5 c 0.136719 0 0.25 0.113281 0.25 0.25 v 1.5 c 0 0.136719 -0.113281 0.25 -0.25 0.25 h -1.5 c -0.136719 0 -0.25 -0.113281 -0.25 -0.25 v -1.5 c 0 -0.136719 0.113281 -0.25 0.25 -0.25 z m 0 0" fill="#222222"/>
</svg>
