<?xml version="1.0" encoding="UTF-8"?>
<svg height="16px" viewBox="0 0 16 16" width="16px" xmlns="http://www.w3.org/2000/svg">
    <g fill="#222222">
        <path d="m 8 0 c -2.75 0 -5 2.25 -5 5 c 0 1.148438 0.390625 2.21875 1.046875 3.0625 c 0.195313 0.25 0.410156 0.480469 0.644531 0.6875 c 0.183594 0.160156 0.421875 0.25 0.664063 0.25 h 5.289062 c 0.246094 0 0.480469 -0.089844 0.664063 -0.25 c 0.148437 -0.132812 0.289062 -0.269531 0.421875 -0.417969 c 0.789062 -0.882812 1.269531 -2.058593 1.269531 -3.332031 c 0 -0.0625 0 -0.097656 -0.003906 -0.097656 c -0.003906 -0.300782 -0.144532 -0.585938 -0.382813 -0.769532 c -0.238281 -0.1875 -0.546875 -0.253906 -0.84375 -0.1875 c -0.136719 0.035157 -0.277343 0.050782 -0.417969 0.050782 c -1.113281 0 -1.996093 -0.878906 -1.996093 -1.996094 c 0.003906 -0.21875 0.039062 -0.433594 0.109375 -0.636719 c 0.101562 -0.285156 0.066406 -0.597656 -0.09375 -0.855469 c -0.15625 -0.253906 -0.421875 -0.4257808 -0.722656 -0.4648432 c -0.207032 -0.0273438 -0.421876 -0.0429688 -0.648438 -0.0429688 z m -0.59375 2.242188 c 0.117188 1.84375 1.484375 3.296874 3.265625 3.621093 c -0.128906 0.390625 -0.164063 0.835938 -0.4375 1.136719 h -4.453125 c -0.046875 -0.054688 -0.105469 -0.105469 -0.152344 -0.164062 c -0.394531 -0.507813 -0.628906 -1.140626 -0.628906 -1.835938 c 0 -1.4375 1.070312 -2.453125 2.40625 -2.757812 z m 0 0"/>
        <path d="m 5 7 c -0.335938 0 -0.652344 0.167969 -0.835938 0.449219 c -0.183593 0.28125 -0.214843 0.636719 -0.085937 0.945312 l 3 7 c 0.160156 0.367188 0.519531 0.609375 0.921875 0.609375 s 0.761719 -0.242187 0.921875 -0.609375 l 3 -7 c 0.128906 -0.308593 0.097656 -0.664062 -0.085937 -0.945312 c -0.183594 -0.28125 -0.5 -0.449219 -0.835938 -0.449219 z m 1.515625 2 h 2.96875 l -1.484375 3.457031 z m 0 0"/>
        <path d="m 7.035156 10 h 1.867188 c 0.273437 0 0.5 0.222656 0.5 0.5 s -0.226563 0.5 -0.5 0.5 h -1.867188 c -0.277344 0 -0.5 -0.222656 -0.5 -0.5 s 0.222656 -0.5 0.5 -0.5 z m 0 0"/>
    </g>
</svg>
