<?xml version="1.0" encoding="UTF-8"?>
<svg height="16px" viewBox="0 0 16 16" width="16px" xmlns="http://www.w3.org/2000/svg">
    <g fill="#222222">
        <path d="m 3 7 h 9 v 1 h -9 z m 0 0" fill-rule="evenodd"/>
        <path d="m 3 3 h 9 v 1 h -9 z m 0 0" fill-rule="evenodd"/>
        <path d="m 6.5 12 h 2 c 0.277344 0 0.539062 0.226562 0.5 0.5 v 3.5 h -3 v -3.5 c 0 -0.277344 0.222656 -0.5 0.5 -0.5 z m 0 0"/>
        <path d="m 4 12 c -0.554688 0 -1 -0.445312 -1 -1 v -8 c 0 -0.554688 0.445312 -1 1 -1 h 7 c 0.554688 0 1 0.445312 1 1 v 8 c 0 0.554688 -0.445312 1 -1 1 v 2 c 1.660156 0 3 -1.339844 3 -3 v -8 c 0 -1.660156 -1.339844 -3 -3 -3 h -7 c -1.660156 0 -3 1.339844 -3 3 v 8 c 0 1.660156 1.339844 3 3 3 z m 0 0"/>
        <path d="m 6 12 h 3 c 0.550781 0 1 0.449219 1 1 s -0.449219 1 -1 1 h -3 c -0.550781 0 -1 -0.449219 -1 -1 s 0.449219 -1 1 -1 z m 0 0"/>
        <path d="m 6.46875 9.019531 h 2.039062 c 0.273438 0 0.492188 0.21875 0.492188 0.492188 c 0 0.269531 -0.21875 0.488281 -0.492188 0.488281 h -2.039062 c -0.273438 0 -0.492188 -0.21875 -0.492188 -0.488281 c 0 -0.273438 0.21875 -0.492188 0.492188 -0.492188 z m 0 0"/>
    </g>
</svg>
