<?xml version="1.0" encoding="UTF-8"?>
<svg height="16px" viewBox="0 0 16 16" width="16px" xmlns="http://www.w3.org/2000/svg">
    <g fill="#222222">
        <path d="m 2 13 h 12 c 0.554688 0 1 0.445312 1 1 v 1 h -14 s 0 -0.445312 0 -1 s 0.445312 -1 1 -1 z m 0 0"/>
        <path d="m 8 1 c -2.769531 0 -5 2.230469 -5 5 v 8 h 10 v -8 c 0 -2.769531 -2.230469 -5 -5 -5 z m 0 2 c 1.660156 0 3 1.339844 3 3 s -1.339844 3 -3 3 s -3 -1.339844 -3 -3 s 1.339844 -3 3 -3 z m 0 1 c -1.105469 0 -2 0.894531 -2 2 s 0.894531 2 2 2 s 2 -0.894531 2 -2 s -0.894531 -2 -2 -2 z m -2.507812 6 h 5.027343 c 0.277344 0 0.5 0.222656 0.5 0.5 s -0.222656 0.5 -0.5 0.5 h -5.027343 c -0.277344 0 -0.5 -0.222656 -0.5 -0.5 s 0.222656 -0.5 0.5 -0.5 z m 0 2 h 5.027343 c 0.277344 0 0.5 0.222656 0.5 0.5 s -0.222656 0.5 -0.5 0.5 h -5.027343 c -0.277344 0 -0.5 -0.222656 -0.5 -0.5 s 0.222656 -0.5 0.5 -0.5 z m 0 0"/>
    </g>
</svg>
