<?xml version="1.0" encoding="UTF-8"?>
<svg height="16px" viewBox="0 0 16 16" width="16px" xmlns="http://www.w3.org/2000/svg">
    <path d="m 1 3 c -0.550781 0 -1 0.449219 -1 1 s 0.449219 1 1 1 c 0.179688 0 0.355469 -0.050781 0.511719 -0.144531 l 3.34375 1.863281 c -0.53125 0.613281 -0.855469 1.410156 -0.855469 2.28125 v 5 h -3 c -0.554688 0 -1 0.445312 -1 1 s 0.445312 1 1 1 h 14 c 0.554688 0 1 -0.445312 1 -1 s -0.445312 -1 -1 -1 h -4 v -3.816406 l 3 1.800781 v 0.015625 c 0 0.550781 0.449219 1 1 1 s 1 -0.449219 1 -1 s -0.449219 -1 -1 -1 c -0.167969 0 -0.335938 0.042969 -0.484375 0.125 l -3.515625 -2.109375 v -0.015625 c 0 -1.921875 -1.578125 -3.5 -3.5 -3.5 c -0.671875 0 -1.300781 0.195312 -1.832031 0.523438 l -3.667969 -2.039063 c -0.007812 -0.546875 -0.453125 -0.984375 -1 -0.984375 z m 6.5 4.5 c 0.847656 0 1.5 0.652344 1.5 1.5 v 5 h -3 v -5 c 0 -0.847656 0.652344 -1.5 1.5 -1.5 z m 0 0" fill="#222222"/>
</svg>
