<?xml version="1.0" encoding="UTF-8"?>
<svg height="16px" viewBox="0 0 16 16" width="16px" xmlns="http://www.w3.org/2000/svg">
    <g fill="#222222">
        <path d="m 4.332031 0 c 0.921875 0 1.667969 0.746094 1.667969 1.667969 c 0 0.917969 -0.746094 1.664062 -1.667969 1.664062 c -0.917969 0 -1.664062 -0.746093 -1.664062 -1.664062 c 0 -0.921875 0.746093 -1.667969 1.664062 -1.667969 z m 0 0"/>
        <path d="m 3.5 3 c -1.386719 0 -2.5 1.113281 -2.5 2.5 v 0.832031 l 5 2.761719 v -3.59375 c 0 -1.386719 -1.113281 -2.5 -2.5 -2.5 z m 0 0"/>
        <path d="m 6.59375 11.554688 l -2.59375 4.445312 h 7 l -2.59375 -4.445312 c -0.1875 -0.324219 -0.53125 -0.519532 -0.90625 -0.519532 s -0.71875 0.195313 -0.90625 0.519532 z m 0 0"/>
        <path d="m 0.734375 5.035156 c -0.253906 0.070313 -0.472656 0.238282 -0.605469 0.46875 c -0.128906 0.230469 -0.1640622 0.503906 -0.0937498 0.761719 c 0.0703128 0.253906 0.2382818 0.472656 0.4687498 0.601563 l 14 8 c 0.230469 0.132812 0.503906 0.167968 0.761719 0.097656 c 0.253906 -0.070313 0.472656 -0.238282 0.605469 -0.46875 c 0.128906 -0.230469 0.164062 -0.503906 0.09375 -0.761719 c -0.070313 -0.253906 -0.238282 -0.472656 -0.46875 -0.601563 l -14 -8 c -0.230469 -0.132812 -0.503906 -0.167968 -0.761719 -0.097656 z m 0 0"/>
        <path d="m 13.332031 6 c -0.917969 0 -1.664062 0.746094 -1.664062 1.667969 c 0 0.917969 0.746093 1.664062 1.664062 1.664062 c 0.921875 0 1.667969 -0.746093 1.667969 -1.664062 c 0 -0.921875 -0.746094 -1.667969 -1.667969 -1.667969 z m 0 0"/>
        <path d="m 13.5 8.90625 c -1.386719 0 -2.5 1.113281 -2.5 2.5 v 0.832031 l 2.8125 1.554688 c 0.457031 0.25 1.011719 0.242187 1.460938 -0.023438 c 0.449218 -0.265625 0.726562 -0.746093 0.726562 -1.269531 v -1.09375 c 0 -1.386719 -1.113281 -2.5 -2.5 -2.5 z m 0 0"/>
    </g>
</svg>
