<?xml version="1.0" encoding="UTF-8"?>
<svg height="16px" viewBox="0 0 16 16" width="16px" xmlns="http://www.w3.org/2000/svg">
    <path d="m 5 0.0507812 c -0.730469 0 -1.464844 0.2187498 -2.089844 0.6562498 l -0.960937 0.664063 c -1.21875 0.847656 -1.949219 2.242187 -1.949219 3.730468 v 10.898438 h 2 v -3 h 6 v 3 h 2 v -6.988281 c 0.230469 0.035156 0.425781 0.1875 0.519531 0.40625 l 2.167969 5.058593 c 0.394531 0.921876 1.308594 1.523438 2.3125 1.523438 h 1 v -2 h -1 c -0.210938 0 -0.390625 -0.121094 -0.472656 -0.3125 l -2.167969 -5.054688 c -0.40625 -0.953124 -1.332031 -1.585937 -2.359375 -1.628906 v -1.902344 c 0 -1.488281 -0.730469 -2.882812 -1.949219 -3.730468 l -0.960937 -0.664063 c -0.625 -0.4375 -1.359375 -0.6562498 -2.089844 -0.6562498 z m 0 1.9960938 c 0.332031 0 0.664062 0.101563 0.949219 0.296875 l 0.960937 0.667969 c 0.683594 0.476562 1.089844 1.253906 1.089844 2.089843 v 1.898438 h -6 v -1.898438 c 0 -0.835937 0.40625 -1.613281 1.089844 -2.089843 l 0.960937 -0.667969 c 0.285157 -0.195312 0.617188 -0.296875 0.949219 -0.296875 z m 0 1.953125 c -0.550781 0 -1 0.449219 -1 1 s 0.449219 1 1 1 s 1 -0.449219 1 -1 s -0.449219 -1 -1 -1 z m -3 4 h 6 v 4 h -6 z m 0 0" fill="#222222"/>
</svg>
