<?xml version="1.0" encoding="UTF-8"?>
<svg height="16px" viewBox="0 0 16 16" width="16px" xmlns="http://www.w3.org/2000/svg">
    <g fill="#222222">
        <path d="m 2.074219 0 c -1.132813 0 -2.074219 0.941406 -2.074219 2.074219 v 11.851562 c 0 1.132813 0.941406 2.074219 2.074219 2.074219 h 11.851562 c 1.132813 0 2.074219 -0.941406 2.074219 -2.074219 v -11.851562 c 0 -1.132813 -0.941406 -2.074219 -2.074219 -2.074219 z m 0 2 h 11.851562 c 0.058594 0 0.074219 0.015625 0.074219 0.074219 v 11.851562 c 0 0.058594 -0.015625 0.074219 -0.074219 0.074219 h -11.851562 c -0.058594 0 -0.074219 -0.015625 -0.074219 -0.074219 v -11.851562 c 0 -0.058594 0.015625 -0.074219 0.074219 -0.074219 z m 0 0"/>
        <path d="m 7.996094 7.011719 c -1.652344 0 -2.996094 1.339843 -2.996094 2.992187 v 4.996094 c 0 0.277344 0.222656 0.5 0.5 0.5 h 4.992188 c 0.277343 0 0.5 -0.222656 0.5 -0.5 v -4.996094 c 0 -1.652344 -1.34375 -2.992187 -2.996094 -2.992187 z m 0 1 c 1.113281 0 1.996094 0.878906 1.996094 1.992187 v 4.496094 h -3.992188 v -4.496094 c 0 -1.113281 0.882812 -1.992187 1.996094 -1.992187 z m 0 0"/>
        <path d="m 1.5 0.917969 c -0.277344 0 -0.5 0.222656 -0.5 0.5 v 2.042969 c 0 1.152343 0.964844 2.082031 2.125 2.082031 s 2.125 -0.929688 2.125 -2.082031 v -2.042969 c 0 -0.277344 -0.222656 -0.5 -0.5 -0.5 z m 0.5 1 h 2.25 v 1.542969 c 0 0.601562 -0.484375 1.082031 -1.125 1.082031 s -1.125 -0.480469 -1.125 -1.082031 z m 0 0"/>
        <path d="m 4.75 0.917969 c -0.277344 0 -0.5 0.222656 -0.5 0.5 v 2.042969 c 0 1.152343 0.964844 2.082031 2.125 2.082031 s 2.125 -0.929688 2.125 -2.082031 v -2.042969 c 0 -0.277344 -0.222656 -0.5 -0.5 -0.5 z m 0.5 1 h 2.25 v 1.542969 c 0 0.601562 -0.484375 1.082031 -1.125 1.082031 s -1.125 -0.480469 -1.125 -1.082031 z m 0 0"/>
        <path d="m 8 0.917969 c -0.277344 0 -0.5 0.222656 -0.5 0.5 v 2.042969 c 0 1.152343 0.964844 2.082031 2.125 2.082031 s 2.125 -0.929688 2.125 -2.082031 v -2.042969 c 0 -0.277344 -0.222656 -0.5 -0.5 -0.5 z m 0.5 1 h 2.25 v 1.542969 c 0 0.601562 -0.484375 1.082031 -1.125 1.082031 s -1.125 -0.480469 -1.125 -1.082031 z m 0 0"/>
        <path d="m 11.25 0.917969 c -0.277344 0 -0.5 0.222656 -0.5 0.5 v 2.042969 c 0 1.152343 0.964844 2.082031 2.125 2.082031 s 2.125 -0.929688 2.125 -2.082031 v -2.042969 c 0 -0.277344 -0.222656 -0.5 -0.5 -0.5 z m 0.5 1 h 2.25 v 1.542969 c 0 0.601562 -0.484375 1.082031 -1.125 1.082031 s -1.125 -0.480469 -1.125 -1.082031 z m 0 0"/>
    </g>
</svg>
