<?xml version="1.0" encoding="UTF-8"?>
<svg height="16px" viewBox="0 0 16 16" width="16px" xmlns="http://www.w3.org/2000/svg">
    <g fill="#222222">
        <g fill-rule="evenodd">
            <path d="m 4 9 h 7.496094 v 1 h -7.496094 z m 0 0"/>
            <path d="m 7 11.5 c 0 0.277344 -0.226562 0.5 -0.5 0.5 c -0.277344 0 -0.5 -0.222656 -0.5 -0.5 c 0 -0.273438 0.222656 -0.5 0.5 -0.5 c 0.273438 0 0.5 0.226562 0.5 0.5 z m 0 0"/>
            <path d="m 10 11.5 c 0 0.277344 -0.226562 0.5 -0.5 0.5 c -0.277344 0 -0.5 -0.222656 -0.5 -0.5 c 0 -0.273438 0.222656 -0.5 0.5 -0.5 c 0.273438 0 0.5 0.226562 0.5 0.5 z m 0 0"/>
        </g>
        <path d="m 1.679688 12.464844 c -0.257813 -0.066406 -0.476563 -0.234375 -0.609376 -0.464844 c -1.9375 -3.355469 -1.183593 -7.636719 1.785157 -10.128906 c 2.96875 -2.492188 7.316406 -2.492188 10.285156 0 c 2.96875 2.492187 3.722656 6.773437 1.785156 10.128906 c -0.273437 0.476562 -0.886719 0.640625 -1.363281 0.363281 c -0.476562 -0.273437 -0.640625 -0.886719 -0.367188 -1.363281 c 1.460938 -2.527344 0.898438 -5.71875 -1.339843 -7.597656 c -2.234375 -1.875 -5.476563 -1.875 -7.710938 0 c -2.234375 1.878906 -2.800781 5.070312 -1.339843 7.597656 c 0.273437 0.476562 0.109374 1.089844 -0.367188 1.363281 c -0.230469 0.136719 -0.503906 0.171875 -0.757812 0.101563 z m 0 0"/>
        <path d="m 6.96875 3 c -1.632812 0 -2.96875 1.335938 -2.96875 2.96875 v 6.46875 c 0 0.277344 0.222656 0.5 0.5 0.5 s 0.5 -0.222656 0.5 -0.5 v -6.46875 c 0 -1.09375 0.875 -1.96875 1.96875 -1.96875 h 2.058594 c 1.09375 0 1.96875 0.875 1.96875 1.96875 v 6.46875 c 0 0.277344 0.222656 0.5 0.5 0.5 s 0.5 -0.222656 0.5 -0.5 v -6.46875 c 0 -1.632812 -1.335938 -2.96875 -2.96875 -2.96875 z m 0 0"/>
        <path d="m 12.515625 12.984375 c -0.132813 0 -0.261719 0.050781 -0.355469 0.148437 c -0.195312 0.191407 -0.195312 0.511719 0 0.703126 l 1.980469 1.984374 c 0.195313 0.195313 0.515625 0.195313 0.710937 0 c 0.191407 -0.195312 0.191407 -0.511718 0 -0.707031 l -1.984374 -1.980469 c -0.09375 -0.097656 -0.222657 -0.148437 -0.351563 -0.148437 z m 0 0"/>
        <path d="m 3.492188 12.984375 c 0.132812 0 0.257812 0.050781 0.351562 0.148437 c 0.195312 0.191407 0.195312 0.511719 0 0.703126 l -1.980469 1.984374 c -0.195312 0.195313 -0.511719 0.195313 -0.707031 0 c -0.195312 -0.195312 -0.195312 -0.511718 0 -0.707031 l 1.980469 -1.980469 c 0.097656 -0.097656 0.222656 -0.148437 0.355469 -0.148437 z m 0 0"/>
    </g>
</svg>
