<?xml version="1.0" encoding="UTF-8"?>
<svg height="16px" viewBox="0 0 16 16" width="16px" xmlns="http://www.w3.org/2000/svg">
    <g fill="#222222">
        <path d="m 4.257812 14.1875 c -0.242187 0 -0.445312 -0.203125 -0.445312 -0.441406 c 0 -0.242188 0.203125 -0.445313 0.445312 -0.445313 c 0.238282 0 0.441407 0.203125 0.441407 0.445313 c 0 0.238281 -0.203125 0.441406 -0.441407 0.441406 z m 0 -2.6875 c -1.246093 0 -2.246093 1 -2.246093 2.246094 c 0 1.242187 1 2.242187 2.246093 2.242187 c 1.242188 0 2.242188 -1 2.242188 -2.242187 c 0 -1.246094 -1 -2.246094 -2.242188 -2.246094 z m 0 0"/>
        <path d="m 2.710938 12.496094 c -0.398438 0 -0.734376 -0.335938 -0.730469 -0.738282 v -3.75 l -1 1 h 11.816406 c 0.652344 0 1.195313 0.539063 1.195313 1.191407 v 1.335937 c 0 0.523438 -0.433594 0.960938 -0.960938 0.960938 c -0.550781 0 -1 0.449218 -0.996094 1 c 0 0.550781 0.445313 1 1 1 c 1.636719 0 2.957032 -1.324219 2.957032 -2.960938 v -1.335937 c 0 -1.765625 -1.425782 -3.191407 -3.195313 -3.191407 h -11.816406 c -0.554688 0 -1.0000002 0.445313 -1.0000002 1 v 3.746094 c -0.0039063 1.515625 1.2109372 2.738282 2.7265622 2.742188 c 0.554688 0 1 -0.445313 1.003907 -1 c 0 -0.550782 -0.445313 -1 -1 -1 z m 0 0"/>
        <path d="m 11.253906 14.1875 c -0.238281 0 -0.441406 -0.203125 -0.441406 -0.445312 c 0 -0.238282 0.203125 -0.441407 0.441406 -0.441407 c 0.242188 0 0.445313 0.203125 0.445313 0.441407 c 0 0.242187 -0.203125 0.445312 -0.445313 0.445312 z m 0 -2.6875 c -1.242187 0 -2.242187 1 -2.242187 2.242188 c 0 1.246093 1 2.246093 2.242187 2.246093 c 1.246094 0 2.246094 -1 2.246094 -2.246093 c 0 -1.242188 -1 -2.242188 -2.246094 -2.242188 z m 0 0"/>
        <path d="m 1.988281 11.964844 v -6.992188 c 0 -0.535156 0.445313 -0.976562 0.980469 -0.976562 h 5.011719 c 0.742187 0 1.410156 0.476562 1.648437 1.179687 l 1.074219 3.152344 c 0.179687 0.519531 0.746094 0.800781 1.269531 0.621094 c 0.523438 -0.179688 0.800782 -0.746094 0.625 -1.269531 l -1.078125 -3.148438 c -0.515625 -1.519531 -1.9375 -2.535156 -3.539062 -2.535156 h -5.011719 c -1.652344 0 -2.9804688 1.328125 -2.9804688 2.976562 v 6.992188 c 0 0.550781 0.4492188 1 0.9999998 1 c 0.554688 0 1 -0.449219 1 -1 z m 0 0"/>
        <path d="m 6.5 13 h 3 c 0.277344 0 0.5 0.222656 0.5 0.5 s -0.222656 0.5 -0.5 0.5 h -3 c -0.277344 0 -0.5 -0.222656 -0.5 -0.5 s 0.222656 -0.5 0.5 -0.5 z m 0 0"/>
        <path d="m 7 0 h 1 v 2.5 h -1 z m 0 0"/>
        <path d="m 11.96875 9.03125 h 1 v 1 h -1 z m -2 0 h 1 v 1 h -1 z m -2 0 h 1 v 1 h -1 z m -2 0 h 1 v 1 h -1 z m -2 0 h 1 v 1 h -1 z m -2 0 h 1 v 1 h -1 z m 11.03125 0.96875 h 1 v 1 h -1 z m -2 0 h 1 v 1 h -1 z m -2 0 h 1 v 1 h -1 z m -2 0 h 1 v 1 h -1 z m -2 0 h 1 v 1 h -1 z m -2 0 h 1 v 1 h -1 z m 0 0"/>
    </g>
</svg>
