<?xml version="1.0" encoding="UTF-8"?>
<svg height="16px" viewBox="0 0 16 16" width="16px" xmlns="http://www.w3.org/2000/svg">
    <g fill="#222222">
        <path d="m 5.976562 2 c 0.546876 0 1 0.453125 1 1 v 10 c 0 0.546875 -0.453124 1 -1 1 h -0.976562 c -1.652344 0 -3 -1.347656 -3 -3 v -6 c 0 -1.652344 1.347656 -3 3 -3 z m -5.976562 3 v 6 c 0 2.765625 2.234375 5 5 5 h 0.976562 c 1.660157 0 3 -1.339844 3 -3 v -10 c 0 -1.660156 -1.339843 -3 -3 -3 h -0.976562 c -2.765625 0 -5 2.234375 -5 5 z m 0 0"/>
        <path d="m 7.5 9.992188 h -1.511719 c -1.101562 0 -1.988281 0.886718 -1.988281 1.984374 v 0.515626 c 0 0.273437 0.222656 0.5 0.5 0.5 s 0.5 -0.226563 0.5 -0.5 v -0.515626 c 0 -0.539062 0.445312 -0.984374 0.988281 -0.984374 h 1.511719 c 0.277344 0 0.5 -0.226563 0.5 -0.5 c 0 -0.277344 -0.222656 -0.5 -0.5 -0.5 z m 0 0"/>
        <path d="m 9.980469 14 c -0.546875 0 -1 -0.453125 -1 -1 v -10 c 0 -0.546875 0.453125 -1 1 -1 h 1.019531 c 1.652344 0 3 1.347656 3 3 v 6 c 0 1.652344 -1.347656 3 -3 3 z m 6.019531 -3 v -6 c 0 -2.765625 -2.234375 -5 -5 -5 h -1.019531 c -1.664063 0 -3 1.339844 -3 3 v 10 c 0 1.660156 1.335937 3 3 3 h 1.019531 c 2.765625 0 5 -2.234375 5 -5 z m 0 0"/>
        <path d="m 6.390625 7.007812 h 5.109375 c 0.277344 0 0.5 0.222657 0.5 0.5 c 0 0.277344 -0.222656 0.5 -0.5 0.5 h -5.109375 c -0.277344 0 -0.5 -0.222656 -0.5 -0.5 c 0 -0.277343 0.222656 -0.5 0.5 -0.5 z m 0 0"/>
        <path d="m 8.523438 6.015625 h 1.511718 c 1.101563 0 1.988282 -0.886719 1.988282 -1.988281 v -0.511719 c 0 -0.277344 -0.222657 -0.5 -0.5 -0.5 c -0.277344 0 -0.5 0.222656 -0.5 0.5 v 0.511719 c 0 0.542968 -0.445313 0.988281 -0.988282 0.988281 h -1.511718 c -0.277344 0 -0.5 0.222656 -0.5 0.5 c 0 0.273437 0.222656 0.5 0.5 0.5 z m 0 0"/>
        <path d="m 8.488281 10 h 1.511719 c 0.542969 0 0.988281 0.445312 0.988281 0.988281 v 0.511719 c 0 0.277344 0.222657 0.5 0.5 0.5 c 0.273438 0 0.5 -0.222656 0.5 -0.5 v -0.511719 c 0 -1.101562 -0.886719 -1.988281 -1.988281 -1.988281 h -1.511719 c -0.277343 0 -0.5 0.222656 -0.5 0.5 s 0.222657 0.5 0.5 0.5 z m 0 0"/>
        <path d="m 1.488281 9.992188 h 1.511719 c 1.101562 0 1.988281 -0.886719 1.988281 -1.988282 v -0.511718 c 0 -0.277344 -0.222656 -0.5 -0.5 -0.5 c -0.277343 0 -0.5 0.222656 -0.5 0.5 v 0.511718 c 0 0.542969 -0.445312 0.988282 -0.988281 0.988282 h -1.511719 c -0.277343 0 -0.5 0.222656 -0.5 0.5 c 0 0.273437 0.222657 0.5 0.5 0.5 z m 0 0"/>
        <path d="m 4.5 4.023438 h 3 c 0.277344 0 0.5 0.210937 0.5 0.46875 v 0.0625 c 0 0.261718 -0.222656 0.46875 -0.5 0.46875 h -3 c -0.277344 0 -0.5 -0.207032 -0.5 -0.46875 v -0.0625 c 0 -0.257813 0.222656 -0.46875 0.5 -0.46875 z m 0 0"/>
        <path d="m 13.476562 5.921875 h 1.023438 c 0.277344 0 0.5 0.210937 0.5 0.46875 v 0.066406 c 0 0.257813 -0.222656 0.464844 -0.5 0.464844 h -1.023438 c -0.277343 0 -0.5 -0.207031 -0.5 -0.464844 v -0.066406 c 0 -0.257813 0.222657 -0.46875 0.5 -0.46875 z m 0 0"/>
        <path d="m 13.476562 10 h 1.023438 c 0.277344 0 0.5 0.210938 0.5 0.46875 v 0.0625 c 0 0.257812 -0.222656 0.46875 -0.5 0.46875 h -1.023438 c -0.277343 0 -0.5 -0.210938 -0.5 -0.46875 v -0.0625 c 0 -0.257812 0.222657 -0.46875 0.5 -0.46875 z m 0 0"/>
    </g>
</svg>
