<?xml version="1.0" encoding="UTF-8"?>
<svg height="16px" viewBox="0 0 16 16" width="16px" xmlns="http://www.w3.org/2000/svg">
    <g fill="#222222">
        <path d="m 0.0625 8.375 c -0.0429688 0.164062 -0.0429688 0.339844 0 0.503906 c 0.941406 3.605469 4.199219 6.117188 7.9375 6.121094 c 3.742188 -0.003906 7.003906 -2.527344 7.9375 -6.140625 c 0.042969 -0.167969 0.042969 -0.339844 0 -0.503906 c -0.933594 -3.574219 -4.175781 -6.351563 -7.9375 -6.355469 c -3.769531 0.003906 -7.011719 2.792969 -7.9375 6.375 z m 13.9375 0.484375 v -0.5 c -0.703125 2.722656 -3.171875 4.636719 -6 4.640625 c -2.824219 -0.003906 -5.292969 -1.90625 -6 -4.625 v 0.5 c 0.710938 -2.757812 3.199219 -4.871094 6 -4.875 c 2.796875 0.003906 5.285156 2.109375 6 4.859375 z m 0 0"/>
        <path d="m 8 11 c -1.378906 0 -2.5 -1.121094 -2.5 -2.5 s 1.121094 -2.5 2.5 -2.5 s 2.5 1.121094 2.5 2.5 s -1.121094 2.5 -2.5 2.5 z m 0 -6 c -1.933594 0 -3.5 1.566406 -3.5 3.5 s 1.566406 3.5 3.5 3.5 s 3.5 -1.566406 3.5 -3.5 s -1.566406 -3.5 -3.5 -3.5 z m 0 0"/>
    </g>
</svg>
