<?xml version="1.0" encoding="UTF-8"?>
<svg height="16px" viewBox="0 0 16 16" width="16px" xmlns="http://www.w3.org/2000/svg">
    <path d="m 1.976562 7 c -0.550781 0 -1 0.449219 -1 1 v 1.617188 c 0 1.097656 0.320313 2.167968 0.921876 3.085937 l 0.113281 0.171875 c 0.871093 1.324219 2.355469 2.125 3.9375 2.125 h 6.050781 c 1.644531 0 3 -1.355469 3 -3 v -1.933594 c 0 -0.042968 0 -0.085937 0 -0.128906 c 0 -0.011719 0 -0.015625 0 -0.023438 c 0 -0.007812 0 -0.007812 0 -0.015624 c 0 -0.023438 -0.011719 -0.042969 -0.011719 -0.066407 c 0 0 0 -0.011719 0 -0.015625 c 0 -0.023437 -0.007812 -0.042968 -0.015625 -0.066406 c -0.011718 -0.027344 -0.015625 -0.054688 -0.023437 -0.082031 c -0.007813 -0.023438 -0.019531 -0.050781 -0.03125 -0.074219 c 0 0 0 -0.011719 -0.007813 -0.015625 c -0.011718 -0.019531 -0.019531 -0.039063 -0.03125 -0.0625 c 0 0 0 -0.007813 -0.011718 -0.011719 c -0.011719 -0.019531 -0.023438 -0.039062 -0.039063 -0.058594 c -0.015625 -0.023437 -0.03125 -0.046874 -0.046875 -0.066406 c -0.015625 -0.015625 -0.027344 -0.035156 -0.042969 -0.050781 c 0 -0.007813 -0.007812 -0.007813 -0.011719 -0.015625 c 0 0 -0.011718 -0.007812 -0.011718 -0.007812 c -0.015625 -0.019532 -0.03125 -0.035157 -0.050782 -0.050782 c 0 0 -0.011718 -0.007812 -0.011718 -0.007812 c -0.015625 -0.015625 -0.035156 -0.03125 -0.054688 -0.042969 c 0 0 -0.007812 -0.011719 -0.011718 -0.011719 c -0.019532 -0.015625 -0.039063 -0.027344 -0.058594 -0.039062 c 0 0 -0.007813 -0.011719 -0.011719 -0.011719 c -0.019531 -0.011719 -0.039063 -0.019531 -0.0625 -0.03125 s -0.046875 -0.023437 -0.074219 -0.035156 c -0.011718 0 -0.011718 -0.007813 -0.015625 -0.007813 c -0.019531 -0.011718 -0.042969 -0.019531 -0.066406 -0.027344 c 0 0 -0.007813 0 -0.011719 0 c -0.019531 -0.007812 -0.042968 -0.011718 -0.066406 -0.015624 c -0.023438 -0.011719 -0.046875 -0.011719 -0.066406 -0.015626 c -0.011719 0 -0.011719 0 -0.015625 0 c -0.011719 0 -0.011719 0 -0.015625 0 c -0.007813 0 -0.007813 0 -0.015625 0 c -0.023438 0 -0.042969 -0.007812 -0.066407 -0.007812 c -0.015624 0 -0.03125 0 -0.042968 0 h -5.292969 c -0.355469 0.617188 -1.015625 0.996094 -1.730469 0.996094 h -2 v 1 c -0.550781 0 -1 -0.449219 -1 -1 v -1 h 3 c 0.105469 0 0.207032 -0.015625 0.304688 -0.046875 c 0.027344 -0.007813 0.054687 -0.019531 0.078125 -0.027344 c 0.289062 -0.121094 0.507812 -0.371094 0.585937 -0.675781 c 0.011719 -0.027344 0.011719 -0.054688 0.019532 -0.082032 c 0.007812 -0.054687 0.011718 -0.109374 0.011718 -0.167968 c 0 -0.550782 -0.445312 -0.996094 -1 -0.996094 z m 6.023438 -5 c -0.554688 0 -1 0.445312 -1 1 v 3 h 2 v -3 c 0 -0.554688 -0.449219 -1 -1 -1 z m 2.972656 -0.003906 c -0.550781 0 -1 0.449218 -1 1 v 4.003906 c 0 0.550781 0.449219 1 1 1 c 0.550782 0 1 -0.449219 1 -1 v -4.003906 c 0 -0.550782 -0.449218 -1 -1 -1 z m 3 1.5 c -0.550781 0 -1 0.449218 -1 1 v 2.503906 c 0 0.550781 0.449219 1 1 1 c 0.550782 0 1 -0.449219 1 -1 v -2.503906 c 0 -0.550782 -0.449218 -1 -1 -1 z m -9 -0.496094 c -0.550781 0 -1 0.449219 -1 1 v 2 h 2 v -2 c 0 -0.550781 -0.445312 -1 -1 -1 z m 0 0" fill="#222222"/>
</svg>
