<?xml version="1.0" encoding="UTF-8"?>
<svg height="16px" viewBox="0 0 16 16" width="16px" xmlns="http://www.w3.org/2000/svg">
    <g fill="#222222">
        <path d="m 7.996094 2 c -0.550782 0 -1 0.445312 -1 1 v 3 h 2 v -3 c 0 -0.554688 -0.445313 -1 -1 -1 z m 2.976562 0 c -0.550781 0 -1 0.445312 -1 1 v 4 c 0 0.550781 0.449219 1 1 1 c 0.550782 0 1 -0.449219 1 -1 v -4 c 0 -0.554688 -0.449218 -1 -1 -1 z m -6 1 c -0.550781 0 -1 0.449219 -1 1 v 1.03125 l 0.964844 0.96875 h 1.035156 v -2 c 0 -0.550781 -0.449218 -1 -1 -1 z m 9 0.5 c -0.550781 0 -1 0.445312 -1 1 v 2.5 c 0 0.550781 0.449219 1 1 1 c 0.550782 0 1 -0.449219 1 -1 v -2.5 c 0 -0.554688 -0.449218 -1 -1 -1 z m -8.035156 3.5 l 1.71875 1.71875 c 0.136719 -0.128906 0.238281 -0.289062 0.285156 -0.472656 c 0.007813 -0.027344 0.015625 -0.054688 0.019532 -0.082032 c 0.007812 -0.054687 0.015624 -0.113281 0.015624 -0.167968 c 0 -0.550782 -0.449218 -0.996094 -1 -0.996094 z m -3.960938 0 c -0.550781 0 -1 0.449219 -1 1 v 1.617188 c 0 1.097656 0.320313 2.167968 0.921876 3.089843 l 0.113281 0.171875 c 0.871093 1.320313 2.355469 2.121094 3.9375 2.121094 h 5.867187 l -5.003906 -5.003906 h -1.839844 v 1 c -0.550781 0 -0.996094 -0.449219 -1 -1 v -1 h 1.839844 l -1.996094 -1.996094 z m 6.726563 2 c -0.089844 0.160156 -0.203125 0.300781 -0.335937 0.429688 l 5.144531 5.140624 c 0.882812 -0.523437 1.484375 -1.476562 1.484375 -2.570312 v -1.929688 c 0.003906 -0.046874 0.003906 -0.089843 0 -0.132812 c 0 -0.011719 0 -0.015625 0 -0.019531 c 0 -0.011719 0 -0.011719 -0.003906 -0.015625 c 0 -0.023438 -0.003907 -0.046875 -0.007813 -0.070313 c 0 0 0 -0.011719 -0.003906 -0.011719 c -0.003907 -0.023437 -0.007813 -0.046874 -0.015625 -0.070312 c -0.003906 -0.027344 -0.011719 -0.054688 -0.023438 -0.082031 c -0.007812 -0.023438 -0.019531 -0.050781 -0.03125 -0.074219 c 0 0 -0.003906 -0.011719 -0.003906 -0.015625 c -0.011719 -0.019531 -0.019531 -0.039063 -0.03125 -0.0625 c -0.003906 0 -0.003906 -0.007813 -0.007812 -0.011719 c -0.011719 -0.019531 -0.023438 -0.039062 -0.039063 -0.058594 c -0.015625 -0.023437 -0.03125 -0.046874 -0.046875 -0.066406 c -0.011719 -0.015625 -0.027344 -0.03125 -0.042969 -0.050781 c -0.003906 -0.007813 -0.007812 -0.007813 -0.011719 -0.015625 c -0.003906 0 -0.007812 -0.011719 -0.011718 -0.011719 c -0.015625 -0.015625 -0.03125 -0.03125 -0.050782 -0.046875 c 0 0 -0.003906 -0.011718 -0.007812 -0.011718 c -0.019531 -0.011719 -0.035156 -0.027344 -0.054688 -0.042969 c -0.003906 0 -0.007812 -0.007813 -0.011718 -0.007813 c -0.019532 -0.015625 -0.039063 -0.027344 -0.058594 -0.039062 c -0.003906 0 -0.007812 -0.011719 -0.011719 -0.011719 c -0.019531 -0.011719 -0.039062 -0.023437 -0.0625 -0.03125 c -0.023437 -0.015625 -0.050781 -0.023437 -0.074219 -0.035156 c -0.007812 0 -0.011718 -0.011719 -0.015624 -0.011719 c -0.019532 -0.007812 -0.042969 -0.015625 -0.066407 -0.023438 h -0.011719 c -0.023437 -0.007812 -0.042968 -0.011718 -0.066406 -0.015624 c -0.023437 -0.011719 -0.046875 -0.011719 -0.070312 -0.015626 h -0.042969 c -0.023437 0 -0.042969 -0.011718 -0.066406 -0.011718 c -0.015625 0 -0.03125 0 -0.042969 0 h -3 z m 0 0"/>
        <path d="m 1.53125 0.46875 l -1.0625 1.0625 l 14 14 l 1.0625 -1.0625 z m 0 0"/>
    </g>
</svg>
