<?xml version="1.0" encoding="UTF-8"?>
<svg height="16px" viewBox="0 0 16 16" width="16px" xmlns="http://www.w3.org/2000/svg">
    <g fill="#222222">
        <path d="m 13.460938 3.875 c -0.191407 0 -0.386719 0.054688 -0.558594 0.171875 c -0.457032 0.308594 -0.578125 0.929687 -0.269532 1.386719 c 1.824219 2.707031 1.824219 6.242187 0 8.949218 c -0.308593 0.457032 -0.1875 1.078126 0.269532 1.386719 c 0.457031 0.308594 1.078125 0.1875 1.390625 -0.269531 c 1.136719 -1.6875 1.707031 -3.640625 1.707031 -5.59375 c 0 -1.949219 -0.570312 -3.902344 -1.707031 -5.589844 c -0.195313 -0.285156 -0.511719 -0.441406 -0.832031 -0.441406 z m -3.503907 2.023438 c -0.199219 0.007812 -0.394531 0.070312 -0.5625 0.199218 c -0.261719 0.199219 -0.394531 0.5 -0.394531 0.804688 v 0.058594 c 0.011719 0.1875 0.074219 0.375 0.199219 0.535156 c 1.074219 1.429687 1.074219 3.390625 0 4.816406 c -0.125 0.164062 -0.1875 0.347656 -0.199219 0.535156 v 0.058594 c 0 0.308594 0.132812 0.609375 0.394531 0.804688 c 0.441407 0.335937 1.070313 0.246093 1.402344 -0.195313 c 0.800781 -1.066406 1.207031 -2.339844 1.207031 -3.613281 c 0 -1.269532 -0.40625 -2.539063 -1.207031 -3.609375 c -0.1875 -0.246094 -0.46875 -0.386719 -0.757813 -0.398438 z m 0 0"/>
        <path d="m 1 2 h 0.652344 c 1.507812 0 2.824218 1.027344 3.191406 2.492188 l 0.933594 3.738281 s -0.003906 -0.027344 -0.003906 -0.027344 s 0.050781 -0.148437 0.050781 -0.148437 s 0.011719 -0.011719 0.011719 -0.011719 s 0.015624 -0.011719 0.015624 -0.011719 s 0.019532 -0.011719 0.019532 -0.011719 s 0.027344 -0.007812 0.027344 -0.007812 s 0.027343 -0.007813 0.027343 -0.007813 s 0.03125 -0.003906 0.03125 -0.003906 h -0.957031 c -0.550781 0 -1 0.449219 -1 1 v 3 c 0 1.097656 -0.902344 2 -2 2 h -1 c -0.550781 0 -1 0.449219 -1 1 s 0.449219 1 1 1 h 1 c 2.214844 0 4 -1.785156 4 -4 v -3 l -1 1 h 0.957031 c 1.195313 0 2.050781 -1.09375 1.761719 -2.253906 l -0.9375 -3.742188 c -0.589844 -2.355468 -2.699219 -4.003906 -5.128906 -4.003906 h -0.652344 c -0.550781 0 -1 0.449219 -1 1 s 0.449219 1 1 1 z m 0 0"/>
        <path d="m 3 11.5 c 0 0.828125 -0.671875 1.5 -1.5 1.5 s -1.5 -0.671875 -1.5 -1.5 s 0.671875 -1.5 1.5 -1.5 h 3.5 v 1 s -2 -0.257812 -2 0.5 z m 0 0"/>
    </g>
</svg>
