<?xml version="1.0" encoding="UTF-8"?>
<svg height="16px" viewBox="0 0 16 16" width="16px" xmlns="http://www.w3.org/2000/svg">
    <path d="m 7.949219 1 c -1.636719 0.027344 -2.949219 1.363281 -2.949219 3 c 0 0.738281 0.273438 1.449219 0.765625 2 h -3.765625 l -1 9 h 14 l -1 -9 h -3.765625 c 0.492187 -0.550781 0.765625 -1.261719 0.765625 -2 c 0 -1.65625 -1.34375 -3 -3 -3 c -0.015625 0 -0.035156 0 -0.050781 0 z m 0.050781 2 c 0.550781 0 1 0.449219 1 1 s -0.449219 1 -1 1 s -1 -0.449219 -1 -1 s 0.449219 -1 1 -1 z m 0 0" fill="#222222"/>
</svg>
