<?xml version="1.0" encoding="UTF-8"?>
<svg height="16px" viewBox="0 0 16 16" width="16px" xmlns="http://www.w3.org/2000/svg">
    <path d="m 3 0 c -1.648438 0 -3 1.351562 -3 3 c 0 1.296875 0.839844 2.410156 2 2.824219 v 0.675781 c 0 1.367188 1.132812 2.5 2.5 2.5 h 2.5 v 1.175781 c -1.160156 0.414063 -2 1.527344 -2 2.824219 c 0 1.648438 1.351562 3 3 3 s 3 -1.351562 3 -3 c 0 -1.296875 -0.839844 -2.410156 -2 -2.824219 v -1.175781 h 2.5 c 1.367188 0 2.5 -1.132812 2.5 -2.5 v -0.675781 c 1.160156 -0.414063 2 -1.527344 2 -2.824219 c 0 -1.648438 -1.351562 -3 -3 -3 s -3 1.351562 -3 3 c 0 1.296875 0.839844 2.410156 2 2.824219 v 0.675781 c 0 0.289062 -0.210938 0.5 -0.5 0.5 h -7 c -0.289062 0 -0.5 -0.210938 -0.5 -0.5 v -0.675781 c 1.160156 -0.414063 2 -1.527344 2 -2.824219 c 0 -1.648438 -1.351562 -3 -3 -3 z m 0 1.5 c 0.828125 0 1.5 0.671875 1.5 1.5 s -0.671875 1.5 -1.5 1.5 s -1.5 -0.671875 -1.5 -1.5 s 0.671875 -1.5 1.5 -1.5 z m 10 0 c 0.828125 0 1.5 0.671875 1.5 1.5 s -0.671875 1.5 -1.5 1.5 s -1.5 -0.671875 -1.5 -1.5 s 0.671875 -1.5 1.5 -1.5 z m -5 10 c 0.828125 0 1.5 0.671875 1.5 1.5 s -0.671875 1.5 -1.5 1.5 s -1.5 -0.671875 -1.5 -1.5 s 0.671875 -1.5 1.5 -1.5 z m 0 0" fill="#222222"/>
</svg>
