<?xml version="1.0" encoding="UTF-8"?>
<svg height="16px" viewBox="0 0 16 16" width="16px" xmlns="http://www.w3.org/2000/svg">
    <path d="m 3 0 v 7.175781 c -1.160156 0.414063 -2 1.527344 -2 2.824219 s 0.839844 2.410156 2 2.824219 v 3.175781 h 2 v -3.175781 c 0.847656 -0.300781 1.523438 -0.976563 1.828125 -1.824219 h 2.171875 c 2.199219 0 4 -1.800781 4 -4 v -1.175781 c 1.160156 -0.414063 2 -1.527344 2 -2.824219 c 0 -1.648438 -1.351562 -3 -3 -3 s -3 1.351562 -3 3 c 0 1.296875 0.839844 2.410156 2 2.824219 v 1.175781 c 0 1.117188 -0.882812 2 -2 2 h -2.171875 c -0.304687 -0.847656 -0.980469 -1.523438 -1.828125 -1.824219 v -7.175781 z m 9 1.5 c 0.828125 0 1.5 0.671875 1.5 1.5 s -0.671875 1.5 -1.5 1.5 s -1.5 -0.671875 -1.5 -1.5 s 0.671875 -1.5 1.5 -1.5 z m -8 7 c 0.828125 0 1.5 0.671875 1.5 1.5 s -0.671875 1.5 -1.5 1.5 s -1.5 -0.671875 -1.5 -1.5 s 0.671875 -1.5 1.5 -1.5 z m 0 0" fill="#222222"/>
</svg>
