<?xml version="1.0" encoding="UTF-8"?>
<svg height="16px" viewBox="0 0 16 16" width="16px" xmlns="http://www.w3.org/2000/svg">
    <path d="m 5 0 c -0.550781 0 -1 0.449219 -1 1 c 0 0.691406 0.390625 1.285156 0.800781 1.605469 c -0.503906 0.671875 -0.800781 1.5 -0.800781 2.394531 h -1 v -1 h -2 v 1 c 0 0.832031 0.5625 1.523438 1.050781 1.769531 c 0.492188 0.246094 0.949219 0.230469 0.949219 0.230469 h 1 v 1 h -3 v 2 h 3 v 1 h -1 s -0.457031 -0.015625 -0.949219 0.230469 c -0.488281 0.246093 -1.050781 0.9375 -1.050781 1.769531 v 3 h 2 v -3 h 1.128906 c 0.449219 1.71875 2.015625 3 3.871094 3 s 3.421875 -1.28125 3.871094 -3 h 1.128906 v 3 h 2 v -3 c 0 -0.832031 -0.5625 -1.523438 -1.050781 -1.769531 c -0.492188 -0.246094 -0.949219 -0.230469 -0.949219 -0.230469 h -1 v -1 h 3 v -2 h -3 v -1 h 1 s 0.457031 0.015625 0.949219 -0.230469 c 0.488281 -0.246093 1.050781 -0.9375 1.050781 -1.769531 v -1 h -2 v 1 h -1 c 0 -0.894531 -0.296875 -1.722656 -0.800781 -2.394531 c 0.410156 -0.320313 0.800781 -0.914063 0.800781 -1.605469 c 0 -0.550781 -0.449219 -1 -1 -1 s -1 0.449219 -1 1 c -0.238281 0 -0.464844 0.085938 -0.644531 0.238281 c -0.425781 -0.152343 -0.882813 -0.238281 -1.355469 -0.238281 s -0.929688 0.085938 -1.355469 0.238281 c -0.179687 -0.152343 -0.40625 -0.238281 -0.644531 -0.238281 c 0 -0.550781 -0.449219 -1 -1 -1 z m 2.96875 5.03125 h 0.0625 c 0.535156 0 0.96875 0.433594 0.96875 0.96875 v 3.0625 c 0 0.535156 -0.433594 0.96875 -0.96875 0.96875 h -0.0625 c -0.535156 0 -0.96875 -0.433594 -0.96875 -0.96875 v -3.0625 c 0 -0.535156 0.433594 -0.96875 0.96875 -0.96875 z m 0 6 h 0.0625 c 0.535156 0 0.96875 0.433594 0.96875 0.96875 v 0.0625 c 0 0.535156 -0.433594 0.96875 -0.96875 0.96875 h -0.0625 c -0.535156 0 -0.96875 -0.433594 -0.96875 -0.96875 v -0.0625 c 0 -0.535156 0.433594 -0.96875 0.96875 -0.96875 z m 0 0" fill="#222222"/>
</svg>
