<?xml version="1.0" encoding="UTF-8"?>
<svg height="16px" viewBox="0 0 16 16" width="16px" xmlns="http://www.w3.org/2000/svg">
    <path d="m 8 0 c -0.257812 0 -0.511719 0.0976562 -0.707031 0.292969 l -7 7 c -0.3906252 0.390625 -0.3906252 1.023437 0 1.414062 l 7 7 c 0.390625 0.390625 1.023437 0.390625 1.414062 0 l 6.996094 -7 c 0.390625 -0.390625 0.390625 -1.023437 0 -1.414062 l -6.996094 -7 c -0.195312 -0.1953128 -0.449219 -0.292969 -0.707031 -0.292969 z m -1 3 h 2 v 6 s 0 1 -1 1 s -1 -1 -1 -1 z m 0 8 h 2 v 2 h -2 z m 0 0" fill="#222222"/>
</svg>
