<?xml version="1.0" encoding="UTF-8"?>
<svg height="16px" viewBox="0 0 16 16" width="16px" xmlns="http://www.w3.org/2000/svg">
    <path d="m 4 0 c -1.648438 0 -3 1.351562 -3 3 c 0 1.296875 0.839844 2.410156 2 2.824219 v 9.175781 h 2 v -9.175781 c 1.160156 -0.414063 2 -1.527344 2 -2.824219 c 0 -1.648438 -1.351562 -3 -3 -3 z m 7 0 c -0.265625 0 -0.519531 0.105469 -0.707031 0.292969 c -0.390625 0.390625 -0.390625 1.023437 0 1.414062 l 1.292969 1.292969 l -1.292969 1.292969 c -0.390625 0.390625 -0.390625 1.023437 0 1.414062 s 1.023437 0.390625 1.414062 0 l 1.292969 -1.292969 l 1.292969 1.292969 c 0.390625 0.390625 1.023437 0.390625 1.414062 0 s 0.390625 -1.023437 0 -1.414062 l -1.292969 -1.292969 l 1.292969 -1.292969 c 0.390625 -0.390625 0.390625 -1.023437 0 -1.414062 c -0.1875 -0.1875 -0.441406 -0.292969 -0.707031 -0.292969 s -0.519531 0.105469 -0.707031 0.292969 l -1.292969 1.292969 l -1.292969 -1.292969 c -0.1875 -0.1875 -0.441406 -0.292969 -0.707031 -0.292969 z m -7 1.5 c 0.828125 0 1.5 0.671875 1.5 1.5 s -0.671875 1.5 -1.5 1.5 s -1.5 -0.671875 -1.5 -1.5 s 0.671875 -1.5 1.5 -1.5 z m 9 4.5 c -0.550781 0 -1 0.449219 -1 1 v 3 c 0 0.054688 0.007812 0.113281 0.019531 0.167969 c -1.171875 0.410156 -2.019531 1.527343 -2.019531 2.832031 c 0 1.648438 1.351562 3 3 3 s 3 -1.351562 3 -3 c 0 -1.304688 -0.847656 -2.421875 -2.019531 -2.832031 c 0.011719 -0.054688 0.019531 -0.113281 0.019531 -0.167969 v -3 c 0 -0.550781 -0.449219 -1 -1 -1 z m 0 5.5 c 0.828125 0 1.5 0.671875 1.5 1.5 s -0.671875 1.5 -1.5 1.5 s -1.5 -0.671875 -1.5 -1.5 s 0.671875 -1.5 1.5 -1.5 z m 0 0" fill="#222222"/>
</svg>
