<?xml version="1.0" encoding="UTF-8"?>
<svg height="16px" viewBox="0 0 16 16" width="16px" xmlns="http://www.w3.org/2000/svg">
    <g fill="#222222">
        <path d="m 0 2.316406 v 5.507813 c 0 2.214843 1.183594 4.257812 3.109375 5.355469 l 4.890625 2.796874 l 4.890625 -2.796874 c 1.925781 -1.097657 3.109375 -3.140626 3.109375 -5.355469 v -5.507813 l -8 -2.285156 z m 14.726562 1.71875 l -0.726562 -0.964844 v 4.753907 c 0 1.492187 -0.804688 2.878906 -2.101562 3.617187 l -4.394532 2.511719 h 0.992188 l -4.394532 -2.511719 c -1.296874 -0.738281 -2.101562 -2.125 -2.101562 -3.617187 v -4.753907 l -0.726562 0.964844 l 7 -2 h -0.546876 z m 0 0"/>
        <path d="m 5.941406 6.957031 l 3.058594 3.058594 c 0.292969 0.292969 0.765625 0.292969 1.058594 0 c 0.292968 -0.292969 0.292968 -0.765625 0 -1.058594 l -3.058594 -3.058593 c -0.292969 -0.292969 -0.765625 -0.292969 -1.058594 0 c -0.292968 0.292968 -0.292968 0.765624 0 1.058593 z m 0 0"/>
        <path d="m 9 5.898438 l -3.058594 3.058593 c -0.292968 0.292969 -0.292968 0.765625 0 1.058594 c 0.292969 0.292969 0.765625 0.292969 1.058594 0 l 3.058594 -3.058594 c 0.292968 -0.292969 0.292968 -0.765625 0 -1.058593 c -0.292969 -0.292969 -0.765625 -0.292969 -1.058594 0 z m 0 0"/>
    </g>
</svg>
