<?xml version="1.0" encoding="UTF-8"?>
<svg height="16px" viewBox="0 0 16 16" width="16px" xmlns="http://www.w3.org/2000/svg">
    <path d="m 7.980469 1.054688 c -0.09375 0 -0.183594 0.007812 -0.269531 0.023437 c -3 0.160156 -5.628907 2.222656 -6.453126 5.128906 c -0.761718 3.019531 0.570313 6.234375 3.242188 7.828125 c 2.71875 1.519532 6.167969 1.066406 8.402344 -1.105468 c 2.167968 -2.230469 2.621094 -5.679688 1.105468 -8.398438 c 1.503907 2.726562 1.03125 6.164062 -1.136718 8.371094 c -2.226563 2.148437 -5.652344 2.578125 -8.328125 1.0625 c -2.621094 -1.574219 -3.917969 -4.730469 -3.179688 -7.671875 c -0.710937 2.949219 0.621094 6.074219 3.21875 7.601562 c 2.652344 1.472657 6.027344 1.007813 8.175781 -1.109375 c 2.09375 -2.164062 2.511719 -5.527344 1.035157 -8.132812 c 1.453125 2.621094 0.992187 5.957031 -1.09375 8.074218 c -2.140625 2.070313 -5.464844 2.484376 -8.035157 1.027344 c -2.519531 -1.507812 -3.777343 -4.570312 -3.0625 -7.398437 c -0.6875 2.832031 0.601563 5.863281 3.101563 7.328125 c 2.546875 1.417968 5.820313 0.964844 7.878906 -1.070313 c 2.015625 -2.078125 2.421875 -5.339843 1 -7.835937 c 1.398438 2.511718 0.949219 5.75 -1.058593 7.777344 c -2.046876 1.988281 -5.277344 2.390624 -7.734376 0.984374 c -2.421874 -1.441406 -3.640624 -4.414062 -2.949218 -7.121093 c -0.664063 2.714843 0.585937 5.65625 2.988281 7.050781 c 2.4375 1.367188 5.613281 0.925781 7.582031 -1.03125 c 1.933594 -1.984375 2.328125 -5.148438 0.957032 -7.539062 c 1.347656 2.402343 0.910156 5.542968 -1.015626 7.480468 c -1.960937 1.910156 -5.089843 2.300782 -7.441406 0.949219 c -2.320312 -1.378906 -3.5 -4.257813 -2.832031 -6.847656 c -0.640625 2.597656 0.570313 5.445312 2.871094 6.777343 c 2.332031 1.308594 5.40625 0.882813 7.285156 -0.992187 c 1.855469 -1.898437 2.234375 -4.964844 0.921875 -7.246094 c 1.289062 2.296875 0.867188 5.339844 -0.980469 7.1875 c -1.867187 1.828125 -4.898437 2.207031 -7.144531 0.90625 c -2.21875 -1.308593 -3.359375 -4.097656 -2.71875 -6.574219 c -0.617188 2.484376 0.558594 5.238282 2.761719 6.503907 c 2.222656 1.257812 5.199219 0.84375 6.988281 -0.953125 c 1.773438 -1.804688 2.140625 -4.773438 0.878906 -6.945313 c 1.238282 2.1875 0.828125 5.128907 -0.9375 6.886719 c -1.777344 1.75 -4.710937 2.113281 -6.847656 0.871094 c -2.121094 -1.246094 -3.226562 -3.941406 -2.605469 -6.300782 c -0.59375 2.367188 0.542969 5.03125 2.644531 6.230469 c 2.117188 1.203125 4.992188 0.800781 6.691407 -0.914062 c 1.695312 -1.71875 2.050781 -4.585938 0.84375 -6.652344 c 1.183593 2.082031 0.785156 4.925781 -0.902344 6.59375 s -4.519531 2.019531 -6.550781 0.828125 c -2.019532 -1.175781 -3.085938 -3.785156 -2.488282 -6.023438 c -0.570312 2.246094 0.527344 4.820313 2.53125 5.953126 c 2.007813 1.152343 4.785157 0.761718 6.394532 -0.875 c 1.613281 -1.625 1.957031 -4.394532 0.800781 -6.351563 c 1.132813 1.972656 0.746094 4.71875 -0.859375 6.292969 c -1.597656 1.589844 -4.332031 1.929687 -6.253906 0.792968 c -1.921875 -1.113281 -2.949219 -3.628906 -2.375 -5.753906 c -0.546875 2.132813 0.511718 4.617188 2.414062 5.683594 c 1.898438 1.09375 4.582032 0.71875 6.097656 -0.835938 c 1.535157 -1.535156 1.863282 -4.207031 0.765626 -6.058593 c 1.074218 1.867187 0.707031 4.511719 -0.824219 6 c -1.507813 1.511719 -4.140625 1.835937 -5.957031 0.75 c -1.820313 -1.046875 -2.808594 -3.46875 -2.257813 -5.476563 c -0.523437 2.015625 0.496094 4.40625 2.300781 5.40625 c 1.789063 1.042969 4.371094 0.679688 5.800782 -0.796875 c 1.453124 -1.445312 1.769531 -4.015625 0.722656 -5.757812 c 1.023437 1.757812 0.667968 4.304687 -0.78125 5.699219 c -1.417969 1.433593 -3.957032 1.746093 -5.660156 0.714843 c -1.722657 -0.980469 -2.671876 -3.3125 -2.144532 -5.203125 c -0.503906 1.894532 0.480469 4.195313 2.183594 5.132813 c 1.683594 0.988281 4.167969 0.636719 5.503906 -0.757813 c 1.378906 -1.355468 1.679688 -3.828125 0.6875 -5.464844 c 0.96875 1.652344 0.625 4.097657 -0.746094 5.40625 c -1.328124 1.351563 -3.765624 1.648438 -5.363281 0.671876 c -1.621093 -0.914063 -2.535156 -3.152344 -2.027343 -4.925782 c -0.480469 1.777344 0.46875 3.988282 2.070312 4.855469 c 1.574219 0.9375 3.957031 0.601563 5.207031 -0.71875 c 1.296875 -1.265625 1.585938 -3.636719 0.644531 -5.164063 c 0.917969 1.542969 0.585938 3.890626 -0.703124 5.105469 c -1.238282 1.273438 -3.578126 1.558594 -5.066407 0.636719 c -1.523437 -0.847656 -2.398437 -3 -1.914062 -4.65625 c -0.457031 1.664062 0.453125 3.78125 1.953125 4.582031 c 1.46875 0.882813 3.753906 0.558594 4.910156 -0.679687 c 1.214844 -1.175782 1.492188 -3.445313 0.605469 -4.863282 c 0.875 1.425782 0.578125 3.683594 -0.636719 4.835938 c -1.148438 1.214844 -3.410156 1.511719 -4.835938 0.636719 c -1.46875 -0.796875 -2.34375 -2.90625 -1.867187 -4.507813 c 0.390625 -1.625 2.199219 -3.011718 3.871094 -2.96875 v -0.003906 c 0.8125 0 1.472656 -0.660156 1.472656 -1.472656 s -0.660156 -1.472656 -1.472656 -1.472656 z m 0 0" fill="#222222"/>
</svg>
