<?xml version="1.0" encoding="UTF-8"?>
<svg height="16px" viewBox="0 0 16 16" width="16px" xmlns="http://www.w3.org/2000/svg">
    <g fill="#222222">
        <path d="m 5 3 c -1.636719 0 -3.050781 1.179688 -3.34375 2.789062 l -1.082031 5.949219 c -0.398438 2.199219 1.324219 4.261719 3.558593 4.261719 h 7.734376 c 2.234374 0 3.957031 -2.0625 3.558593 -4.261719 l -1.082031 -5.949219 c -0.292969 -1.609374 -1.707031 -2.789062 -3.34375 -2.789062 z m 0 2 h 6 c 0.679688 0 1.25 0.476562 1.375 1.144531 l 1.082031 5.953125 c 0.183594 1.011719 -0.5625 1.902344 -1.589843 1.902344 h -7.734376 c -1.027343 0 -1.773437 -0.890625 -1.589843 -1.902344 l 1.082031 -5.953125 c 0.125 -0.667969 0.695312 -1.144531 1.375 -1.144531 z m 0 0"/>
        <path d="m 5.960938 0.0351562 c -1.078126 0 -1.964844 0.8867188 -1.964844 1.9648438 v 1.070312 c 0 0.277344 0.222656 0.5 0.5 0.5 s 0.5 -0.222656 0.5 -0.5 v -1.070312 c 0 -0.542969 0.421875 -0.964844 0.964844 -0.964844 h 4.070312 c 0.542969 0 0.964844 0.421875 0.964844 0.964844 v 1.070312 c 0 0.277344 0.222656 0.5 0.5 0.5 s 0.5 -0.222656 0.5 -0.5 v -1.070312 c 0 -1.078125 -0.886719 -1.9648438 -1.964844 -1.9648438 z m 0 0"/>
        <path d="m 6.644531 6.644531 l -2 2 c -0.191406 0.195313 -0.191406 0.515625 0 0.710938 c 0.195313 0.191406 0.515625 0.191406 0.710938 0 l 2 -2 c 0.191406 -0.195313 0.191406 -0.515625 0 -0.710938 c -0.195313 -0.191406 -0.515625 -0.191406 -0.710938 0 z m 0 0"/>
        <path d="m 6.644531 9.75 l -2 2 c -0.191406 0.195312 -0.191406 0.515625 0 0.707031 c 0.195313 0.195313 0.515625 0.195313 0.710938 0 l 2 -2 c 0.191406 -0.191406 0.191406 -0.511719 0 -0.707031 c -0.195313 -0.191406 -0.515625 -0.191406 -0.710938 0 z m 0 0"/>
        <path d="m 10.644531 6.644531 l -2 2 c -0.191406 0.195313 -0.191406 0.515625 0 0.710938 c 0.195313 0.191406 0.515625 0.191406 0.710938 0 l 2 -2 c 0.191406 -0.195313 0.191406 -0.515625 0 -0.710938 c -0.195313 -0.191406 -0.515625 -0.191406 -0.710938 0 z m 0 0"/>
        <path d="m 10.644531 9.75 l -2 2 c -0.191406 0.195312 -0.191406 0.515625 0 0.707031 c 0.195313 0.195313 0.515625 0.195313 0.710938 0 l 2 -2 c 0.191406 -0.191406 0.191406 -0.511719 0 -0.707031 c -0.195313 -0.191406 -0.515625 -0.191406 -0.710938 0 z m 0 0"/>
    </g>
</svg>
