<?xml version="1.0" encoding="UTF-8"?>
<svg height="16px" viewBox="0 0 16 16" width="16px" xmlns="http://www.w3.org/2000/svg">
    <path d="m 8.015625 0.367188 l -0.890625 2.261718 c -0.878906 2.246094 -2.015625 2.722656 -3.328125 3.484375 c -0.652344 0.382813 -1.378906 0.828125 -1.929687 1.605469 c -0.554688 0.777344 -0.863282 1.828125 -0.871094 3.207031 c -0.011719 1.816407 1.199218 3.1875 2.59375 3.976563 c 1.394531 0.789062 3.027344 1.140625 4.441406 1.09375 c 1.429688 -0.050782 3.011719 -0.503906 4.355469 -1.320313 c 1.339843 -0.8125 2.511719 -2.070312 2.609375 -3.75 c 0.066406 -1.234375 -0.195313 -2.242187 -0.710938 -3.003906 c -0.511718 -0.757813 -1.199218 -1.234375 -1.847656 -1.671875 c -1.304688 -0.867188 -2.554688 -1.542969 -3.460938 -3.648438 z m 0.054687 4.789062 c 0.402344 0.582031 0.832032 0.816406 1.261719 1.261719 c 0.527344 1.59375 0.910157 3.140625 0.703125 4.300781 c -0.15625 0.878906 -0.347656 1.867188 -0.675781 2.578125 c -0.101563 0.21875 -0.222656 0.398437 -0.347656 0.554687 c -0.367188 0.078126 -0.726563 0.136719 -1.050781 0.148438 c -0.242188 0.007812 -0.511719 -0.007812 -0.785157 -0.039062 c -0.148437 -0.171876 -0.285156 -0.398438 -0.394531 -0.6875 c -0.277344 -0.722657 -0.410156 -1.726563 -0.558594 -2.609376 c -0.199218 -1.175781 0.167969 -2.730468 0.675782 -4.324218 c 0.398437 -0.414063 0.796874 -0.625 1.171874 -1.183594 z m -2.5625 2.226562 c -0.289062 1.191407 -0.449218 2.398438 -0.269531 3.445313 c 0.140625 0.847656 0.261719 1.902344 0.609375 2.800781 c 0.003906 0.019532 0.015625 0.035156 0.023438 0.054688 c -0.457032 -0.136719 -0.902344 -0.300782 -1.292969 -0.523438 c -1.007813 -0.570312 -1.589844 -1.277344 -1.582031 -2.222656 c 0.007812 -1.105469 0.21875 -1.667969 0.5 -2.0625 c 0.28125 -0.390625 0.695312 -0.675781 1.308594 -1.03125 c 0.214843 -0.128906 0.457031 -0.285156 0.703124 -0.460938 z m 5.242188 0.113282 c 0.195312 0.148437 0.398438 0.296875 0.578125 0.417968 c 0.609375 0.40625 1.042969 0.746094 1.300781 1.128907 c 0.257813 0.382812 0.421875 0.847656 0.371094 1.769531 c -0.046875 0.785156 -0.644531 1.546875 -1.652344 2.15625 c -0.296875 0.179688 -0.632812 0.332031 -0.972656 0.46875 c 0.332031 -0.824219 0.503906 -1.746094 0.644531 -2.539062 c 0.183594 -1.03125 0.019531 -2.222657 -0.269531 -3.402344 z m 0 0" fill="#222222"/>
</svg>
