<?xml version="1.0" encoding="UTF-8" standalone="no"?>
<!-- Created with Inkscape (http://www.inkscape.org/) -->

<svg
   width="64mm"
   height="64mm"
   viewBox="0 0 64 64"
   version="1.1"
   id="svg1"
   xml:space="preserve"
   inkscape:version="1.3.2 (091e20ef0f, 2023-11-25)"
   sodipodi:docname="icon.svg"
   inkscape:export-filename="icon.png"
   inkscape:export-xdpi="96"
   inkscape:export-ydpi="96"
   xmlns:inkscape="http://www.inkscape.org/namespaces/inkscape"
   xmlns:sodipodi="http://sodipodi.sourceforge.net/DTD/sodipodi-0.dtd"
   xmlns="http://www.w3.org/2000/svg"
   xmlns:svg="http://www.w3.org/2000/svg"><sodipodi:namedview
     id="namedview1"
     pagecolor="#ffffff"
     bordercolor="#000000"
     borderopacity="0.25"
     inkscape:showpageshadow="2"
     inkscape:pageopacity="0.0"
     inkscape:pagecheckerboard="0"
     inkscape:deskcolor="#d1d1d1"
     inkscape:document-units="mm"
     inkscape:zoom="2.9354652"
     inkscape:cx="51.099226"
     inkscape:cy="188.55614"
     inkscape:window-width="3440"
     inkscape:window-height="1371"
     inkscape:window-x="0"
     inkscape:window-y="0"
     inkscape:window-maximized="1"
     inkscape:current-layer="layer1"
     showgrid="true"
     showguides="true" /><defs
     id="defs1" /><g
     inkscape:label="Layer 1"
     inkscape:groupmode="layer"
     id="layer1"
     transform="matrix(1.094705,0,0,1.094705,-5.3568132,-5.3569097)"><circle
       style="fill:#326ce5;fill-opacity:1;stroke-width:0.184792"
       id="path1"
       cx="34.124996"
       cy="34.125042"
       r="27.937508" /><path
       id="circle1"
       style="fill:#10337c;fill-opacity:1;stroke-width:0.184792"
       d="m 19.590507,47.420303 c -1.942874,0.106747 -3.885582,0.955168 -5.828454,1.667542 -0.873174,0.320162 -1.746355,0.597217 -2.619532,0.836342 A 27.937499,27.937499 0 0 0 34.125023,62.062635 27.937499,27.937499 0 0 0 58.566078,47.510339 c -1.612123,0.0726 -3.224297,0.593054 -4.836404,1.318502 -2.220428,0.999194 -4.440746,2.375676 -6.661172,2.153631 -2.220433,-0.222044 -4.441041,-2.042611 -6.661475,-1.857581 -2.220417,0.185027 -4.440739,2.375707 -6.661171,2.871614 -2.220418,0.495892 -4.44074,-0.717799 -6.661157,-1.946434 -2.220433,-1.23604 -4.441042,-2.494443 -6.661476,-2.627659 -0.277559,-0.01763 -0.555171,-0.01736 -0.832716,-0.0018 z" /><path
       class="st0"
       d="m 37.496338,43.819697 c -1.384329,-1.676509 -2.056415,-3.327497 -2.125801,-4.952875 -0.142463,-3.404208 1.8774,-5.946418 4.876164,-7.77633 3.155833,-1.924957 6.39931,-2.403419 9.551483,-3.838895 1.574292,-0.715877 3.455338,-1.888388 6.581975,-4.386713 1.019042,2.706541 -2.231742,7.056749 -7.509719,9.357875 1.636369,0.06207 3.396884,-0.438293 5.321827,-1.680174 -0.13152,3.440718 -2.838091,5.559239 -8.85386,6.377392 1.2638,0.4237 2.775957,0.445616 4.7045,-0.0985 -1.851849,6.194732 -9.518604,1.753223 -12.546569,6.998322 z m -6.742677,0 c 1.384316,-1.676509 2.056402,-3.327497 2.125788,-4.952875 0.142475,-3.404208 -1.8774,-5.946418 -4.876165,-7.77633 -3.15582,-1.924957 -6.399309,-2.403419 -9.551469,-3.838895 -1.574304,-0.719525 -3.45534,-1.892021 -6.581977,-4.390376 -1.019039,2.706571 2.231727,7.056748 7.509721,9.357874 -1.636397,0.06208 -3.396913,-0.438291 -5.321838,-1.680173 0.131532,3.440747 2.838074,5.559239 8.853858,6.377393 -1.2638,0.423698 -2.775957,0.445645 -4.704487,-0.0985 1.851849,6.198395 9.518591,1.756885 12.546569,7.001983 z"
       id="path1-7"
       style="fill:#ffffff;fill-opacity:1;stroke-width:0.365243" /><circle
       style="opacity:1;fill:#fdb813;fill-opacity:1;stroke-width:0.152439"
       id="path9"
       cx="34.124996"
       cy="19.130281"
       r="5.220953" /></g><style
     type="text/css"
     id="style1">.st0{fill-rule:evenodd;clip-rule:evenodd;}</style></svg>
