<?xml version="1.0" encoding="UTF-8" standalone="no"?>
<!-- CC0 licensed https://www.svgrepo.com/svg/33142/seagull-->

<svg
   height="800px"
   width="800px"
   version="1.1"
   id="Layer_1"
   viewBox="0 0 512 512"
   xml:space="preserve"
   sodipodi:docname="seabird.svg"
   inkscape:version="1.3.2 (091e20ef0f, 2023-11-25)"
   xmlns:inkscape="http://www.inkscape.org/namespaces/inkscape"
   xmlns:sodipodi="http://sodipodi.sourceforge.net/DTD/sodipodi-0.dtd"
   xmlns="http://www.w3.org/2000/svg"
   xmlns:svg="http://www.w3.org/2000/svg"><defs
   id="defs5" /><sodipodi:namedview
   id="namedview5"
   pagecolor="#ffffff"
   bordercolor="#000000"
   borderopacity="0.25"
   inkscape:showpageshadow="2"
   inkscape:pageopacity="0.0"
   inkscape:pagecheckerboard="0"
   inkscape:deskcolor="#d1d1d1"
   inkscape:zoom="0.728125"
   inkscape:cx="407.897"
   inkscape:cy="391.41631"
   inkscape:window-width="1499"
   inkscape:window-height="1216"
   inkscape:window-x="26"
   inkscape:window-y="23"
   inkscape:window-maximized="0"
   inkscape:current-layer="Layer_1" />
<circle
   style="fill:#326ce5;fill-opacity:1;stroke-width:0.9525"
   cx="256"
   cy="256"
   r="243.84001"
   id="circle1" />
<path
   style="fill:#1b56d2;fill-opacity:1;stroke-width:0.9525"
   d="M 332.3524,142.81352 147.62646,380.76707 266.46126,499.6019 C 379.55549,494.82504 472.72523,413.03486 494.8479,305.31183 Z"
   id="path1" />
<path
   style="fill:#ffffff;stroke-width:0.9525"
   d="M 147.62646,380.76707 V 219.71164 c 0,-59.85318 48.52033,-108.37353 108.37354,-108.37353 59.85321,0 108.37354,48.52035 108.37354,108.37353 v 161.05633 c 0,-9e-4 -104.86172,84.79158 -216.74708,-9e-4 z"
   id="path2" />
<path
   style="fill:#e2e1e0;stroke-width:0.9525"
   d="m 364.37354,219.71164 c 0,-59.85318 -48.52033,-108.37353 -108.37354,-108.37353 -0.18388,0 -0.36295,0.014 -0.54675,0.014 v 307.07826 c 63.23268,-0.73537 108.92029,-37.6627 108.92029,-37.6627 z"
   id="path3" />
<polygon
   style="fill:#d48b07"
   points="287.03,234.624 256,325.163 224.97,234.624 256,217.1 "
   id="polygon3"
   transform="matrix(0.9525,0,0,0.9525,12.16,12.16)" />
<polygon
   style="fill:#bf7908"
   points="256,325.163 287.03,234.624 256,217.1 255.426,217.424 255.426,323.487 "
   id="polygon4"
   transform="matrix(0.9525,0,0,0.9525,12.16,12.16)" />
<g
   id="g5"
   transform="matrix(0.9525,0,0,0.9525,12.16,12.16)">
	<circle
   style="fill:#273b7a"
   cx="211.74699"
   cy="216.31599"
   r="9.4809999"
   id="circle4" />
	<circle
   style="fill:#273b7a"
   cx="298.66699"
   cy="216.31599"
   r="9.4809999"
   id="circle5" />
</g>
</svg>
