<?xml version="1.0" encoding="UTF-8"?>
<svg height="16px" viewBox="0 0 16 16" width="16px" xmlns="http://www.w3.org/2000/svg">
    <path d="m 4 0.261719 c -0.476562 0 -0.972656 0.183593 -1.332031 0.597656 c -0.144531 0.171875 -0.78125 0.929687 -1.398438 1.953125 c -0.621093 1.019531 -1.269531 2.292969 -1.269531 3.6875 c 0 1.003906 0.347656 1.96875 1.003906 2.707031 c 0.523438 0.59375 1.539063 1.292969 2.996094 1.292969 c 1.238281 0 2.300781 -0.507812 2.984375 -1.273438 c 0.683594 -0.765624 1.015625 -1.75 1.015625 -2.726562 c 0 -1.394531 -0.644531 -2.667969 -1.269531 -3.6875 c -0.621094 -1.023438 -1.257813 -1.78125 -1.402344 -1.953125 c -0.355469 -0.410156 -0.851563 -0.597656 -1.328125 -0.597656 z m 0 2.164062 c 0.203125 0.246094 0.574219 0.6875 1.023438 1.421875 c 0.53125 0.878906 0.976562 1.953125 0.976562 2.652344 c 0 0.515625 -0.183594 1.03125 -0.507812 1.390625 c -0.324219 0.363281 -0.761719 0.609375 -1.492188 0.609375 c -0.859375 0 -1.25 -0.339844 -1.5 -0.621094 c -0.3125 -0.351562 -0.5 -0.835937 -0.5 -1.378906 c 0 -0.699219 0.445312 -1.773438 0.976562 -2.652344 c 0.449219 -0.734375 0.820313 -1.175781 1.023438 -1.421875 z m 0 0"/>
    <path d="m 12 5.761719 c -0.476562 0 -0.972656 0.183593 -1.332031 0.597656 c -0.144531 0.171875 -0.78125 0.929687 -1.398438 1.953125 c -0.621093 1.019531 -1.269531 2.292969 -1.269531 3.6875 c 0 1.003906 0.347656 1.96875 1.003906 2.707031 c 0.523438 0.59375 1.539063 1.292969 2.996094 1.292969 c 1.238281 0 2.300781 -0.507812 2.984375 -1.273438 c 0.683594 -0.765624 1.015625 -1.75 1.015625 -2.726562 c 0 -1.394531 -0.644531 -2.667969 -1.269531 -3.6875 c -0.621094 -1.023438 -1.257813 -1.78125 -1.402344 -1.953125 c -0.355469 -0.410156 -0.851563 -0.597656 -1.328125 -0.597656 z m 0 2.164062 c 0.203125 0.246094 0.574219 0.6875 1.023438 1.421875 c 0.53125 0.878906 0.976562 1.953125 0.976562 2.652344 c 0 0.515625 -0.183594 1.03125 -0.507812 1.394531 c -0.324219 0.359375 -0.761719 0.605469 -1.492188 0.605469 c -0.859375 0 -1.25 -0.339844 -1.5 -0.617188 c -0.3125 -0.355468 -0.5 -0.839843 -0.5 -1.382812 c 0 -0.699219 0.445312 -1.773438 0.976562 -2.652344 c 0.449219 -0.734375 0.820313 -1.175781 1.023438 -1.421875 z m 0 0"/>
</svg>
