<svg xmlns="http://www.w3.org/2000/svg" width="24" height="24" fill="none" stroke="currentColor" stroke-width="2" stroke-linecap="round" stroke-linejoin="round" class="lucide lucide-blocks"><path d="M14.477 2.073c-.671.176-1.239.75-1.417 1.435C13.01 3.7 13 4.18 13 6.5c0 3.001-.001 2.984.225 3.43.136.269.576.709.845.845.446.226.429.225 3.43.225 3.001 0 2.984.001 3.43-.225.266-.135.708-.575.841-.838.229-.452.229-.448.228-3.423 0-2.956-.004-3.009-.218-3.431-.135-.267-.484-.634-.764-.802-.462-.278-.437-.276-3.517-.276-2.48 0-2.787.007-3.023.068M20 6.5V9h-5V4h5v2.5M3.477 6.073c-.671.176-1.239.75-1.417 1.435C2.008 7.706 2 8.577 2 14c0 6.828-.012 6.462.225 6.93.136.269.576.709.845.845.468.237.102.225 6.93.225 6.828 0 6.462.012 6.93-.225.266-.135.708-.575.841-.838.229-.452.229-.448.228-3.423 0-2.956-.004-3.009-.218-3.431-.135-.267-.484-.634-.764-.802-.459-.277-.453-.276-3.387-.279L11 13l-.001-2.61c0-2.821-.005-2.887-.218-3.307-.135-.267-.484-.634-.764-.802-.462-.278-.437-.276-3.517-.276-2.48 0-2.787.007-3.023.068M9 10.5V13H4V8h5v2.5m0 7V20H4v-5h5v2.5m7 0V20h-5v-5h5v2.5" fill-rule="evenodd" fill="#000" stroke="none"/></svg>