<svg xmlns="http://www.w3.org/2000/svg" width="24" height="24" fill="none" stroke="currentColor" stroke-width="2" stroke-linecap="round" stroke-linejoin="round" class="lucide lucide-box"><path d="M11.541 1.042a2.916 2.916 0 0 0-.841.268c-.11.054-1.825 1.027-3.811 2.161-2.252 1.286-3.691 2.131-3.822 2.246A3.129 3.129 0 0 0 2.114 7.2l-.094.3v9l.094.3c.236.756.681 1.35 1.307 1.746.43.272 6.978 3.996 7.279 4.139.48.23.765.294 1.3.294s.82-.064 1.3-.294c.301-.143 6.849-3.867 7.279-4.139a2.91 2.91 0 0 0 1.084-1.206c.339-.69.317-.312.317-5.34s.022-4.65-.317-5.34a2.794 2.794 0 0 0-.73-.943c-.207-.18-7.143-4.177-7.694-4.433a3.512 3.512 0 0 0-.496-.182 3.826 3.826 0 0 0-1.202-.06m.748 2.011c.15.047 6.669 3.75 6.668 3.787 0 .011-1.566.917-3.479 2.014L12 10.848 8.522 8.854C6.609 7.757 5.043 6.851 5.043 6.84c-.001-.037 6.518-3.74 6.668-3.787.082-.026.212-.047.289-.047.077 0 .207.021.289.047M7.694 10.68 11 12.58v3.99c0 2.195-.009 3.99-.02 3.99-.011 0-1.49-.84-3.287-1.867-2.292-1.309-3.312-1.913-3.419-2.024-.285-.294-.274-.121-.274-4.337V8.558l.194.111 3.5 2.011m12.247 5.624a.912.912 0 0 1-.214.364c-.108.112-1.121.711-3.42 2.025a363.268 363.268 0 0 1-3.287 1.867c-.011 0-.02-1.795-.02-3.99v-3.99l3.49-2.005 3.49-2.006.01 3.765c.009 3.243.002 3.793-.049 3.97" fill-rule="evenodd" fill="#000" stroke="none"/></svg>