<svg xmlns="http://www.w3.org/2000/svg" width="24" height="24" fill="none" stroke="currentColor" stroke-width="2" stroke-linecap="round" stroke-linejoin="round" class="lucide lucide-cpu"><path d="M8.695 1.057a1.04 1.04 0 0 0-.567.459c-.103.176-.109.212-.121.831l-.014.646-1.266.016c-1.209.016-1.282.021-1.588.115A3.098 3.098 0 0 0 3.116 5.14c-.085.263-.092.358-.107 1.57L2.993 8h-.55c-.795 0-1.077.111-1.315.516-.091.156-.108.23-.108.484 0 .256.016.328.111.489.125.213.318.375.539.454.098.035.353.054.74.055L3 10v4h-.554c-.798 0-1.079.11-1.318.516-.091.156-.108.23-.108.484 0 .256.016.328.111.489.125.213.318.375.539.454.098.035.352.054.737.055l.586.002.016 1.29c.015 1.212.022 1.307.107 1.57a3.126 3.126 0 0 0 2.024 2.024c.263.085.358.092 1.567.107l1.286.016.014.65c.013.643.014.652.134.846a.998.998 0 0 0 1.718 0c.12-.195.121-.203.134-.85l.014-.653h3.986l.014.653c.013.647.014.655.134.85a.998.998 0 0 0 1.718 0c.12-.194.121-.203.134-.846l.014-.65 1.286-.016c1.209-.015 1.304-.022 1.567-.107a3.126 3.126 0 0 0 2.024-2.024c.085-.263.092-.358.107-1.57l.016-1.29.586-.002c.385-.001.639-.02.737-.055.221-.079.414-.241.539-.454.095-.161.111-.233.111-.489 0-.254-.017-.328-.108-.484-.239-.406-.52-.516-1.318-.516H21v-4l.59-.002c.387-.001.642-.02.74-.055.221-.079.414-.241.539-.454.095-.161.111-.233.111-.489 0-.254-.017-.328-.108-.484-.238-.405-.52-.516-1.315-.516h-.55l-.016-1.29c-.015-1.212-.022-1.307-.107-1.57a3.098 3.098 0 0 0-2.023-2.016c-.306-.094-.379-.099-1.588-.115l-1.266-.016-.014-.646c-.012-.621-.017-.654-.122-.833a1.01 1.01 0 0 0-1.742 0c-.105.179-.11.212-.122.836l-.014.65h-3.986l-.014-.65c-.012-.622-.018-.658-.121-.834a1.005 1.005 0 0 0-1.177-.459m9.615 4.004c.279.083.546.35.629.629.053.179.061.961.061 6.311 0 5.058-.009 6.138-.055 6.289a1.02 1.02 0 0 1-.461.582l-.184.108H5.7l-.184-.108a1.051 1.051 0 0 1-.458-.556c-.09-.256-.087-12.323.003-12.626.079-.269.351-.547.612-.627.29-.089 12.337-.091 12.637-.002M8.695 8.057a1.04 1.04 0 0 0-.567.459L8.02 8.7v6.6l.111.189c.125.213.318.375.539.454.221.079 6.439.079 6.66 0 .221-.079.414-.241.539-.454l.111-.189V8.7l-.108-.184a1.02 1.02 0 0 0-.582-.461c-.26-.078-6.345-.076-6.595.002M14 12v2h-4v-4h4v2" fill-rule="evenodd" fill="#000" stroke="none"/></svg>