<svg xmlns="http://www.w3.org/2000/svg" width="24" height="24" fill="none" stroke="currentColor" stroke-width="2" stroke-linecap="round" stroke-linejoin="round" class="lucide lucide-database"><path d="M10.72 1.025c-4.394.216-7.671 1.383-8.474 3.015a2.843 2.843 0 0 0-.206.555c-.055.295-.055 14.515 0 14.81.022.118.114.367.205.552.373.759 1.272 1.426 2.615 1.943 1.28.492 2.814.818 4.74 1.008.995.097 3.805.097 4.8 0 1.556-.153 2.648-.355 3.88-.716 1.778-.521 3.027-1.325 3.475-2.235.091-.185.183-.434.205-.552.055-.295.055-14.515 0-14.81a2.843 2.843 0 0 0-.206-.555c-.733-1.49-3.502-2.591-7.394-2.941-.666-.059-2.98-.107-3.64-.074m2.66 2.016c2.369.128 4.257.526 5.605 1.18.406.197.58.308.77.488.135.128.245.255.245.282 0 .072-.27.359-.465.492-.956.658-2.872 1.181-5.215 1.424-.939.097-3.701.097-4.64 0-2.306-.239-4.147-.733-5.14-1.378-.248-.16-.54-.452-.54-.538 0-.027.11-.154.245-.282.577-.549 2.164-1.124 3.875-1.404 1.622-.266 3.496-.36 5.26-.264M4.857 7.899c1.284.493 2.816.819 4.743 1.009.995.097 3.805.097 4.8 0 1.556-.153 2.648-.355 3.88-.716.481-.141 1.209-.414 1.513-.568L20 7.519v4.521l-.148.163c-.568.63-2.32 1.257-4.352 1.558-1.211.18-1.771.214-3.5.214s-2.289-.034-3.5-.214c-2.03-.301-3.789-.93-4.35-1.554L4 12.04V7.519l.207.105c.114.057.406.181.65.275m0 7c1.284.493 2.816.819 4.743 1.009.995.097 3.805.097 4.8 0 1.556-.153 2.648-.355 3.88-.716.481-.141 1.209-.414 1.513-.568l.207-.105v4.521l-.148.163c-.568.63-2.32 1.257-4.352 1.558-1.211.18-1.771.214-3.5.214s-2.289-.034-3.5-.214c-2.03-.301-3.789-.93-4.35-1.554L4 19.04v-4.521l.207.105c.114.057.406.181.65.275" fill-rule="evenodd" fill="#000" stroke="none"/></svg>