<svg xmlns="http://www.w3.org/2000/svg" width="24" height="24" fill="none" stroke="currentColor" stroke-width="2" stroke-linecap="round" stroke-linejoin="round" class="lucide lucide-filter"><path d="M1.695 2.057a.99.99 0 0 0-.638 1.255c.057.171.675.92 4.004 4.855l3.937 4.653.001 3.163c.001 3.563-.011 3.409.299 3.714.244.24 4.315 2.264 4.61 2.293a.994.994 0 0 0 .792-.288c.318-.318.3-.036.301-4.719l.001-4.163 3.931-4.646c2.162-2.556 3.954-4.698 3.983-4.76.161-.354.07-.831-.214-1.114-.328-.329.686-.3-10.699-.297-8.177.002-10.175.012-10.308.054m17.738 2.429c-4.262 5.03-6.255 7.404-6.326 7.534l-.087.16-.011 3.59c-.006 1.975-.019 3.59-.03 3.59-.01 0-.459-.22-.998-.489l-.979-.489-.011-3.101c-.011-3.099-.011-3.101-.098-3.261-.071-.13-2.018-2.449-6.34-7.55L4.155 4h15.69l-.412.486" fill="#000" fill-rule="evenodd" stroke="none"/></svg>