<svg xmlns="http://www.w3.org/2000/svg" width="24" height="24" fill="none" stroke="currentColor" stroke-width="2" stroke-linecap="round" stroke-linejoin="round" class="lucide lucide-hard-drive-upload"><path d="M11.58 1.096c-.158.076-.64.538-2.306 2.21-1.158 1.163-2.136 2.175-2.173 2.249-.229.455-.045 1.046.407 1.312.165.097.234.113.492.112.213 0 .341-.022.44-.074.077-.041.684-.615 1.349-1.277l1.209-1.204.011 2.941.011 2.941.121.197a.998.998 0 0 0 1.718 0l.121-.197.011-2.941.011-2.941 1.209 1.204c.665.662 1.272 1.236 1.349 1.277.099.052.227.074.44.074.258.001.327-.015.492-.112.222-.13.409-.369.473-.603a1.187 1.187 0 0 0-.066-.709c-.037-.074-1.015-1.086-2.173-2.249-1.666-1.672-2.148-2.134-2.306-2.21a.967.967 0 0 0-.84 0M3.499 13.043c-1.119.189-2.038 1.005-2.385 2.117l-.094.3v5.08l.094.3a3.086 3.086 0 0 0 2.046 2.046l.3.094h17.08l.3-.094a3.086 3.086 0 0 0 2.046-2.046l.094-.3v-5.08l-.094-.3a3.089 3.089 0 0 0-2.025-2.039l-.321-.101-8.42-.006c-4.631-.003-8.511.01-8.621.029m16.811 2.018c.279.083.546.35.629.629.086.288.091 4.317.006 4.6a1.02 1.02 0 0 1-.461.582l-.184.108H3.7l-.184-.108a1.199 1.199 0 0 1-.291-.249C3 20.327 3 20.332 3 18.022c0-2.433-.002-2.414.301-2.716.326-.326-.448-.299 8.662-.303 7.179-.003 8.167.004 8.347.058M5.695 17.055a1.05 1.05 0 0 0-.567.461c-.091.156-.108.23-.108.484 0 .257.016.327.113.492.518.882 1.865.526 1.865-.492a.994.994 0 0 0-.535-.888 1.17 1.17 0 0 0-.768-.057m4 0a1.05 1.05 0 0 0-.567.461c-.091.156-.108.23-.108.484 0 .257.016.327.113.492.518.882 1.865.526 1.865-.492a.994.994 0 0 0-.535-.888 1.17 1.17 0 0 0-.768-.057" fill-rule="evenodd" fill="#000" stroke="none"/></svg>