<svg xmlns="http://www.w3.org/2000/svg" width="24" height="24" fill="none" stroke="currentColor" stroke-width="2" stroke-linecap="round" stroke-linejoin="round" class="lucide lucide-hard-drive-download"><path d="M11.695 1.057a1.04 1.04 0 0 0-.567.459l-.108.184-.011 2.937-.011 2.937-1.229-1.221C8.688 5.279 8.516 5.124 8.343 5.066a1 1 0 0 0-1.215.45c-.092.156-.108.229-.107.484 0 .212.022.341.074.44.04.077 1.021 1.091 2.179 2.254 2.293 2.302 2.297 2.305 2.726 2.305.429 0 .433-.003 2.726-2.305 1.158-1.163 2.139-2.177 2.179-2.254.052-.099.074-.228.074-.44.001-.255-.015-.328-.107-.484a1 1 0 0 0-1.215-.45c-.173.058-.345.213-1.426 1.287l-1.229 1.221-.011-2.937L12.98 1.7l-.108-.184a1.005 1.005 0 0 0-1.177-.459M3.499 13.043c-1.119.189-2.038 1.005-2.385 2.117l-.094.3v5.08l.094.3a3.086 3.086 0 0 0 2.046 2.046l.3.094h17.08l.3-.094a3.086 3.086 0 0 0 2.046-2.046l.094-.3v-5.08l-.094-.3a3.089 3.089 0 0 0-2.025-2.039l-.321-.101-8.42-.006c-4.631-.003-8.511.01-8.621.029m16.811 2.018c.279.083.546.35.629.629.086.288.091 4.317.006 4.6a1.02 1.02 0 0 1-.461.582l-.184.108H3.7l-.184-.108a1.199 1.199 0 0 1-.291-.249C3 20.327 3 20.332 3 18.022c0-2.433-.002-2.414.301-2.716.326-.326-.448-.299 8.662-.303 7.179-.003 8.167.004 8.347.058M5.695 17.055a1.05 1.05 0 0 0-.567.461c-.091.156-.108.23-.108.484 0 .257.016.327.113.492.518.882 1.865.526 1.865-.492a.994.994 0 0 0-.535-.888 1.17 1.17 0 0 0-.768-.057m4 0a1.05 1.05 0 0 0-.567.461c-.091.156-.108.23-.108.484 0 .257.016.327.113.492.518.882 1.865.526 1.865-.492a.994.994 0 0 0-.535-.888 1.17 1.17 0 0 0-.768-.057" fill-rule="evenodd" fill="#000" stroke="none"/></svg>