<svg xmlns="http://www.w3.org/2000/svg" width="24" height="24" fill="none" stroke="currentColor" stroke-width="2" stroke-linecap="round" stroke-linejoin="round" class="lucide lucide-layers-2"><path d="M11.394 1.06a3.5 3.5 0 0 0-.5.148c-.129.053-2.213 1.229-4.632 2.614-4.769 2.731-4.754 2.721-5.015 3.21-.435.818-.285 1.788.371 2.399.236.219.884.606 3.712 2.214.324.184.589.346.59.36 0 .013-.912.544-2.027 1.18-2.209 1.259-2.405 1.395-2.646 1.847-.435.818-.285 1.789.372 2.399.156.145.487.367.903.606 6.797 3.901 8.266 4.729 8.571 4.83.295.098.383.109.907.109s.612-.011.907-.109c.305-.101 1.774-.929 8.571-4.83.749-.429 1.083-.71 1.275-1.069.436-.818.285-1.79-.372-2.399-.194-.18-.678-.475-2.274-1.384-1.115-.636-2.027-1.167-2.027-1.18.001-.014.266-.176.59-.36 2.828-1.608 3.476-1.995 3.712-2.214.656-.611.806-1.581.371-2.399-.261-.489-.246-.479-5.015-3.21-2.419-1.385-4.502-2.561-4.63-2.613-.492-.199-1.165-.258-1.714-.149m1.051 2.05c.351.171 8.515 4.861 8.515 4.892 0 .015-1.175.698-2.61 1.518-1.435.82-2.754 1.576-2.93 1.681-.645.383-2.885 1.654-3.04 1.724a1.029 1.029 0 0 1-.76 0c-.155-.07-2.396-1.341-3.04-1.724-.176-.105-1.495-.861-2.93-1.681-1.436-.82-2.61-1.503-2.61-1.518 0-.031 8.158-4.718 8.515-4.892A.935.935 0 0 1 12 3c.159 0 .283.031.445.11M9.4 13.976c1.693.967 1.779 1 2.6 1 .822 0 .904-.032 2.627-1.015l1.404-.801 2.464 1.409c1.356.774 2.465 1.42 2.465 1.434 0 .032-8.402 4.849-8.609 4.935a1.07 1.07 0 0 1-.702 0c-.207-.086-8.609-4.903-8.609-4.935 0-.041 4.895-2.837 4.942-2.824.023.007.661.366 1.418.797" fill-rule="evenodd" fill="#000" stroke="none"/></svg>