<svg xmlns="http://www.w3.org/2000/svg" width="24" height="24" fill="none" stroke="currentColor" stroke-width="2" stroke-linecap="round" stroke-linejoin="round" class="lucide lucide-layers-3"><path d="M11.5 1.046c-.11.02-.29.065-.4.1-.291.093-8.965 4.04-9.19 4.182C1.378 5.665 1 6.359 1 7c0 .597.353 1.283.832 1.614.087.061.522.279.965.485.444.205.807.387.807.403.001.016-.359.196-.799.398-1.06.489-1.318.686-1.577 1.203a1.956 1.956 0 0 0 .297 2.231c.258.29.44.399 1.346.81.425.192.758.362.74.377-.017.015-.381.187-.81.383-1.041.475-1.312.682-1.573 1.199a1.953 1.953 0 0 0-.001 1.806c.134.267.438.608.682.763.269.172 8.93 4.101 9.271 4.206.586.18 1.326.145 1.921-.092.347-.139 8.684-3.933 8.909-4.055.246-.134.631-.538.765-.802.4-.788.261-1.7-.353-2.314-.265-.266-.478-.386-1.442-.815a9.47 9.47 0 0 1-.591-.277c-.016-.016.146-.107.36-.203 1.184-.531 1.369-.631 1.628-.88 1.017-.977.759-2.589-.519-3.231-.175-.088-.57-.272-.878-.409a10.106 10.106 0 0 1-.589-.275c-.015-.014.111-.087.28-.162.17-.075.587-.269.926-.432.532-.256.648-.329.843-.531a2.13 2.13 0 0 0 .524-.961c.061-.283.024-.887-.069-1.119a2.174 2.174 0 0 0-.759-.962c-.159-.11-8.412-3.89-9.012-4.127-.532-.21-1.123-.278-1.624-.185m4.843 3.833 4.375 1.991.298.135-1.521.692c-.836.38-1.663.755-1.838.832-.174.077-1.37.621-2.657 1.209a145.273 145.273 0 0 1-2.6 1.17c-.451.173-.382.196-3.083-1.034a4114.99 4114.99 0 0 0-4.346-1.978C3.91 7.414 3.042 7.011 3.041 7c-.001-.016 8.519-3.901 8.719-3.976a1.18 1.18 0 0 1 .283-.011c.198.01.682.22 4.3 1.866m-7.85 6.817c1.324.602 2.533 1.135 2.687 1.183.399.124.954.15 1.381.063.424-.086.502-.118 3.173-1.335l2.195-.998.545.248c.3.137.982.446 1.515.686.533.24.969.448.97.461.001.021-.884.43-2.939 1.358-.374.169-1.787.811-3.14 1.427-1.353.615-2.53 1.142-2.615 1.17a1.04 1.04 0 0 1-.345.032c-.142-.014-1.29-.518-4.535-1.993-2.39-1.086-4.331-1.988-4.315-2.004.024-.024 2.957-1.384 3.003-1.392.007-.001 1.096.491 2.42 1.094m-.005 5c1.326.602 2.538 1.134 2.692 1.181a2.971 2.971 0 0 0 1.818-.056c.144-.051 1.31-.571 2.592-1.154l2.33-1.062 1.519.688c.835.378 1.519.698 1.52.711.001.025-8.273 3.795-8.619 3.927-.394.151-.222.218-4.953-1.932-2.391-1.086-4.334-1.988-4.317-2.005.021-.021 2.928-1.371 2.998-1.392.004-.001 1.093.491 2.42 1.094" fill-rule="evenodd" fill="#000" stroke="none"/></svg>