<svg xmlns="http://www.w3.org/2000/svg" width="24" height="24" fill="none" stroke="currentColor" stroke-width="2" stroke-linecap="round" stroke-linejoin="round" class="lucide lucide-memory-stick"><path d="M3.499 4.043c-1.109.187-2.027.996-2.381 2.097-.079.245-.092.389-.108 1.153-.014.628-.005.923.031 1.052.076.269.347.548.643.662.3.116.484.265.625.505.091.154.109.233.109.468 0 .234-.019.314-.108.466-.143.244-.34.411-.581.491a1.194 1.194 0 0 0-.62.517l-.089.166v5.92l.094.3a3.086 3.086 0 0 0 2.046 2.046l.3.094h17.08l.3-.094c.976-.304 1.716-1.037 2.046-2.026l.093-.28.012-2.909c.012-2.881.012-2.91-.072-3.104a1.103 1.103 0 0 0-.615-.581c-.304-.123-.475-.262-.612-.495-.092-.158-.11-.235-.11-.471 0-.235.018-.314.109-.468a1.11 1.11 0 0 1 .603-.497c.234-.077.478-.287.599-.512.082-.154.087-.213.087-1.123 0-.895-.006-.98-.094-1.26a3.089 3.089 0 0 0-2.025-2.039l-.321-.101-8.42-.006c-4.631-.003-8.511.01-8.621.029M20.31 6.061c.279.083.546.35.629.629.034.112.061.332.06.487l-.001.283-.202.137c-.403.273-.813.804-1.023 1.325-.49 1.213-.069 2.713.976 3.478l.245.18.003.71L21 14H3l.003-.73.003-.73.245-.18c.489-.358.932-1.02 1.098-1.64.105-.393.094-1.126-.023-1.538a3.06 3.06 0 0 0-1.073-1.579l-.247-.183-.003-.263a1.865 1.865 0 0 1 .058-.467c.079-.269.351-.547.612-.627.16-.049 1.357-.058 8.31-.06 7.161-.003 8.147.004 8.327.058M7.695 8.057a1.04 1.04 0 0 0-.567.459L7.02 8.7v2.606l.121.197a.998.998 0 0 0 1.718 0l.121-.197V8.7l-.108-.184a1.005 1.005 0 0 0-1.177-.459m4 0a1.04 1.04 0 0 0-.567.459l-.108.184v2.606l.121.197a.998.998 0 0 0 1.718 0l.121-.197V8.7l-.108-.184a1.005 1.005 0 0 0-1.177-.459m4 0a1.04 1.04 0 0 0-.567.459l-.108.184v2.606l.121.197a.998.998 0 0 0 1.718 0l.121-.197V8.7l-.108-.184a1.005 1.005 0 0 0-1.177-.459M5 17.003v1.004l-.65-.014c-.622-.012-.658-.018-.834-.121a1.199 1.199 0 0 1-.291-.249C3.038 17.377 3 17.202 3 16.575V16h2v1.003M9 17v1H7v-2h2v1m4 0v1h-2v-2h2v1m4 0v1h-2v-2h2v1m4-.446c0 .798-.11 1.079-.516 1.318-.176.103-.212.109-.834.121l-.65.014V16h2v.554" fill-rule="evenodd" fill="#000" stroke="none"/></svg>