<svg xmlns="http://www.w3.org/2000/svg" width="24" height="24" fill="none" stroke="currentColor" stroke-width="2" stroke-linecap="round" stroke-linejoin="round" class="lucide lucide-orbit"><path d="M10.67 1.061c-1.255.152-2.357.49-3.59 1.103A10.642 10.642 0 0 0 3.004 5.65c-1 1.41-1.629 2.979-1.904 4.75-.091.582-.124 1.999-.062 2.612.146 1.432.513 2.704 1.138 3.936l.248.488-.091.172a4.32 4.32 0 0 0-.199.492c-.096.284-.108.382-.111.88-.003.481.01.602.091.86a3.086 3.086 0 0 0 2.046 2.046c.434.135 1.246.135 1.68 0a3.086 3.086 0 0 0 2.046-2.046c.135-.434.135-1.246 0-1.68a3.073 3.073 0 0 0-2.025-2.035c-.409-.124-1.217-.142-1.599-.035a1.277 1.277 0 0 1-.25.056c-.037-.038-.394-.843-.492-1.113-.673-1.844-.69-4.077-.046-5.953A9.133 9.133 0 0 1 6.8 4.632a9.222 9.222 0 0 1 4.18-1.591c.5-.056 1.553-.048 2.088.016.519.062.701.039.962-.123.638-.394.598-1.37-.07-1.701-.171-.085-.338-.123-.748-.171-.639-.075-1.929-.076-2.542-.001m7.829.979a3.05 3.05 0 0 0-2.385 2.12c-.135.434-.135 1.246 0 1.68a3.086 3.086 0 0 0 2.046 2.046c.464.144 1.361.129 1.776-.03.101-.039.603 1.154.785 1.867.227.892.294 1.533.268 2.569-.029 1.123-.169 1.908-.497 2.788-.571 1.531-1.534 2.896-2.752 3.9-1.779 1.467-4.323 2.264-6.44 2.019-1.053-.122-1.255-.101-1.555.162-.423.371-.453.985-.069 1.412.195.217.379.289.944.372.6.089 2.167.101 2.74.021 3.142-.438 5.799-2.025 7.607-4.546a10.723 10.723 0 0 0 2.029-5.781c.103-1.935-.254-3.708-1.09-5.416l-.326-.666.089-.168c.049-.093.137-.313.197-.489.096-.284.108-.382.111-.88.003-.481-.01-.602-.091-.86-.306-.982-1.076-1.753-2.025-2.031-.361-.106-1.029-.149-1.362-.089m.811 2.021c.378.112.69.537.69.939 0 .22-.12.51-.278.673-.241.248-.375.305-.722.306-.255.001-.328-.015-.484-.107-.581-.342-.683-1.098-.212-1.569.279-.279.612-.359 1.006-.242m-7.952 4c-1.128.176-2.215.913-2.789 1.892a3.992 3.992 0 0 0 1.943 5.751 3.988 3.988 0 0 0 5.192-2.216 3.963 3.963 0 0 0 .001-2.972 3.978 3.978 0 0 0-3.1-2.458 3.728 3.728 0 0 0-1.247.003m1.165 2.012a2.011 2.011 0 0 1 1.444 1.617c.1.653-.094 1.243-.564 1.714-.401.403-.856.596-1.403.596-.515 0-.962-.178-1.347-.535-1.33-1.236-.464-3.46 1.347-3.46.143 0 .378.031.523.068M5.31 18.061c.378.112.69.537.69.94 0 .33-.216.695-.516.871-.156.091-.23.108-.484.108s-.328-.017-.484-.108c-.581-.342-.683-1.098-.212-1.569.279-.279.612-.359 1.006-.242" fill-rule="evenodd" fill="#000" stroke="none"/></svg>