<svg xmlns="http://www.w3.org/2000/svg" width="24" height="24" fill="none" stroke="currentColor" stroke-width="2" stroke-linecap="round" stroke-linejoin="round" class="lucide lucide-share"><path d="M11.58 1.096c-.158.076-.64.538-2.306 2.21-1.158 1.163-2.136 2.175-2.173 2.249-.229.455-.045 1.046.407 1.312.165.097.234.113.492.112.213 0 .341-.022.44-.074.077-.041.684-.616 1.349-1.278l1.21-1.204.01 5.442.011 5.441.121.197c.068.11.205.253.311.325.471.316 1.102.171 1.407-.325l.121-.197.011-5.441.01-5.442 1.21 1.204c.665.662 1.272 1.237 1.349 1.278.099.052.227.074.44.074.258.001.327-.015.492-.112.222-.13.409-.369.473-.603a1.187 1.187 0 0 0-.066-.709c-.037-.074-1.015-1.086-2.173-2.249-1.666-1.672-2.148-2.134-2.306-2.21a.967.967 0 0 0-.84 0m-7.885 9.961a1.04 1.04 0 0 0-.567.459l-.108.184v8.84l.094.3a3.086 3.086 0 0 0 2.046 2.046l.3.094h13.08l.3-.094a3.086 3.086 0 0 0 2.046-2.046l.094-.3V11.7l-.109-.186a1.01 1.01 0 0 0-1.742 0l-.109.186-.02 4.28c-.015 3.304-.031 4.306-.07 4.393a1.146 1.146 0 0 1-.446.499l-.184.108H5.7l-.184-.108a1.146 1.146 0 0 1-.446-.499c-.039-.087-.055-1.089-.07-4.393l-.02-4.28-.108-.184a1.005 1.005 0 0 0-1.177-.459" fill-rule="evenodd" fill="#000" stroke="none"/></svg>