<svg xmlns="http://www.w3.org/2000/svg" width="24" height="24" fill="none" stroke="currentColor" stroke-width="2" stroke-linecap="round" stroke-linejoin="round" class="lucide lucide-timer-reset"><path d="M9.695 1.057a1.04 1.04 0 0 0-.567.459c-.091.156-.108.23-.108.484 0 .256.016.328.111.489.125.213.318.375.539.454.219.078 4.441.078 4.66 0 .221-.079.414-.241.539-.454.095-.161.111-.233.111-.489 0-.254-.017-.328-.108-.484a1.02 1.02 0 0 0-.582-.461c-.257-.077-4.347-.076-4.595.002m1.545 3.968c-3.205.295-5.906 2.109-7.332 4.924a8.2 8.2 0 0 0-.686 1.825c-.19.745-.251 1.218-.189 1.458.068.261.234.484.465.627.173.107.231.121.499.121.26 0 .33-.016.495-.113.218-.128.412-.372.464-.583.019-.079.074-.351.121-.604A6.986 6.986 0 0 1 8.18 8.105a7.148 7.148 0 0 1 5.28-.946c1.781.369 3.437 1.518 4.441 3.081.885 1.377 1.278 3.294 1 4.876-.412 2.344-1.831 4.219-3.95 5.222a6.432 6.432 0 0 1-2.691.649c-1.521.052-2.938-.344-4.14-1.157-.379-.256-.53-.38-1.431-1.18L5.956 18l1.612-.002c1.734-.002 1.778-.006 2.051-.215.077-.058.189-.191.25-.294.095-.161.111-.233.111-.489 0-.254-.017-.328-.108-.484a1.02 1.02 0 0 0-.582-.461c-.268-.081-5.312-.081-5.58 0a1.02 1.02 0 0 0-.582.461l-.108.184v5.606l.121.197a.998.998 0 0 0 1.718 0l.121-.196.02-1.23.02-1.23.36.32c.726.647 1.25 1.069 1.664 1.341 2.427 1.595 5.481 1.93 8.155.894 1.299-.503 2.321-1.186 3.296-2.205 1.106-1.154 1.826-2.461 2.224-4.037.195-.773.257-1.294.257-2.16 0-.889-.063-1.4-.273-2.22a8.986 8.986 0 0 0-7.443-6.682c-.402-.058-1.683-.104-2.02-.073m.455 4.032a1.04 1.04 0 0 0-.567.459l-.108.184v4.606l.121.197c.068.11.205.253.311.325.471.316 1.102.171 1.407-.325l.121-.197V9.7l-.108-.184a1.005 1.005 0 0 0-1.177-.459" fill-rule="evenodd" fill="#000" stroke="none"/></svg>