<?xml version="1.0" encoding="UTF-8"?>
<svg height="16px" viewBox="0 0 16 16" width="16px" xmlns="http://www.w3.org/2000/svg">
    <path d="m 7.585938 0.0898438 c -0.355469 0.1640622 -0.585938 0.5195312 -0.585938 0.9101562 v 5.296875 l -2.339844 -2.046875 c -0.417968 -0.363281 -1.046875 -0.324219 -1.410156 0.09375 c -0.363281 0.414062 -0.324219 1.042969 0.09375 1.410156 l 2.566406 2.246094 l -2.566406 2.25 c -0.417969 0.363281 -0.457031 0.992188 -0.09375 1.410156 c 0.363281 0.414063 0.992188 0.457032 1.410156 0.09375 l 2.339844 -2.050781 v 5.296875 c 0 0.390625 0.230469 0.746094 0.585938 0.910156 c 0.359374 0.160156 0.777343 0.101563 1.074218 -0.15625 l 4 -3.5 c 0.214844 -0.191406 0.339844 -0.464844 0.339844 -0.753906 s -0.125 -0.5625 -0.339844 -0.75 l -3.140625 -2.75 l 3.140625 -2.746094 c 0.214844 -0.191406 0.339844 -0.464844 0.339844 -0.753906 s -0.125 -0.5625 -0.339844 -0.75 l -4 -3.5 c -0.296875 -0.2617188 -0.714844 -0.3203125 -1.074218 -0.1601562 z m 1.414062 3.1132812 l 1.484375 1.296875 l -1.484375 1.296875 z m 0 7 l 1.484375 1.296875 l -1.484375 1.296875 z m 0 0" fill="#2e3436"/>
</svg>
