<?xml version="1.0" encoding="UTF-8"?>
<svg height="16px" viewBox="0 0 16 16" width="16px" xmlns="http://www.w3.org/2000/svg">
    <path d="m 7.957031 0.00390625 c -0.128906 0.00390625 -0.253906 0.03515625 -0.371093 0.08593755 c -0.355469 0.1640622 -0.585938 0.5195312 -0.585938 0.9101562 v 5.296875 l -2.339844 -2.046875 c -0.417968 -0.363281 -1.046875 -0.324219 -1.410156 0.09375 c -0.363281 0.414062 -0.324219 1.042969 0.09375 1.410156 l 2.566406 2.246094 l -2.566406 2.25 c -0.417969 0.363281 -0.457031 0.992188 -0.09375 1.410156 c 0.363281 0.414063 0.992188 0.457032 1.410156 0.09375 l 2.339844 -2.050781 v 5.296875 c 0 0.390625 0.230469 0.746094 0.585938 0.910156 c 0.359374 0.160156 0.777343 0.101563 1.074218 -0.15625 l 0.386719 -0.339844 c -0.132813 -0.640624 0.042969 -1.335937 0.535156 -1.828124 l 0.417969 -0.417969 v -0.332031 l -0.417969 -0.421876 c -0.023437 -0.023437 -0.042969 -0.046874 -0.0625 -0.070312 l -0.519531 0.453125 v -2.59375 l 0.125 0.109375 c 0.09375 -0.265625 0.246094 -0.515625 0.457031 -0.726562 c 0.300781 -0.300782 0.691407 -0.496094 1.109375 -0.558594 l -1.171875 -1.027344 l 3.140625 -2.746094 c 0.214844 -0.191406 0.339844 -0.464844 0.339844 -0.753906 s -0.125 -0.5625 -0.339844 -0.75 l -4 -3.5 c -0.195312 -0.171875 -0.449218 -0.2578125 -0.703125 -0.24609375 z m 1.042969 3.19921875 l 1.484375 1.296875 l -1.484375 1.296875 z m 0 0" fill="#2e3434" fill-opacity="0.34902"/>
    <path d="m 11 10 c -0.265625 0 -0.519531 0.105469 -0.707031 0.292969 c -0.390625 0.390625 -0.390625 1.023437 0 1.414062 l 1.292969 1.292969 l -1.292969 1.292969 c -0.390625 0.390625 -0.390625 1.023437 0 1.414062 s 1.023437 0.390625 1.414062 0 l 1.292969 -1.292969 l 1.292969 1.292969 c 0.390625 0.390625 1.023437 0.390625 1.414062 0 s 0.390625 -1.023437 0 -1.414062 l -1.292969 -1.292969 l 1.292969 -1.292969 c 0.390625 -0.390625 0.390625 -1.023437 0 -1.414062 c -0.1875 -0.1875 -0.441406 -0.292969 -0.707031 -0.292969 s -0.519531 0.105469 -0.707031 0.292969 l -1.292969 1.292969 l -1.292969 -1.292969 c -0.1875 -0.1875 -0.441406 -0.292969 -0.707031 -0.292969 z m 0 0" fill="#2e3436"/>
</svg>
