<?xml version="1.0" encoding="UTF-8"?>
<svg height="16px" viewBox="0 0 16 16" width="16px" xmlns="http://www.w3.org/2000/svg">
    <path d="m 7.957031 0.00390625 c -0.128906 0.00390625 -0.253906 0.03515625 -0.371093 0.08593755 c -0.355469 0.1640622 -0.585938 0.5195312 -0.585938 0.9101562 v 4.9375 l -5.46875 -5.46875 l -1.0625 1.0625 l 14 14 l 1.0625 -1.0625 l -2.601562 -2.601562 c 0.152343 -0.394532 0.046874 -0.839844 -0.269532 -1.117188 l -3.140625 -2.75 l 3.140625 -2.746094 c 0.214844 -0.191406 0.339844 -0.464844 0.339844 -0.753906 s -0.125 -0.5625 -0.339844 -0.75 l -4 -3.5 c -0.195312 -0.171875 -0.449218 -0.2578125 -0.703125 -0.24609375 z m 1.042969 3.19921875 l 1.484375 1.296875 l -1.484375 1.296875 z m -3.609375 5.25 l -2.046875 1.796875 c -0.417969 0.363281 -0.457031 0.992188 -0.09375 1.410156 c 0.363281 0.414063 0.992188 0.457032 1.410156 0.09375 l 2.148438 -1.882812 z m 1.609375 1.609375 v 4.9375 c 0 0.390625 0.230469 0.746094 0.585938 0.910156 c 0.359374 0.160156 0.777343 0.101563 1.074218 -0.15625 l 2.148438 -1.882812 l -1.414063 -1.414063 l -0.394531 0.339844 v -0.734375 z m 0 0" fill="#2e3436"/>
</svg>
