<?xml version="1.0" encoding="UTF-8"?>
<svg height="16px" viewBox="0 0 16 16" width="16px" xmlns="http://www.w3.org/2000/svg">
    <g fill="#2e3436">
        <path d="m 7.957031 0.00390625 c -0.128906 0.00390625 -0.253906 0.03515625 -0.371093 0.08593755 c -0.355469 0.1640622 -0.585938 0.5195312 -0.585938 0.9101562 v 4 h 2 v -1.796875 l 1.484375 1.296875 l -0.574219 0.5 h 2.953125 c 0.238281 -0.414062 0.152344 -0.9375 -0.203125 -1.25 l -4 -3.5 c -0.195312 -0.171875 -0.449218 -0.2578125 -0.703125 -0.24609375 z m -3.867187 4.00390575 c -0.316406 -0.03125 -0.628906 0.09375 -0.839844 0.335938 c -0.15625 0.183594 -0.242188 0.414062 -0.238281 0.65625 h 2.507812 l -0.859375 -0.75 c -0.160156 -0.140625 -0.359375 -0.226562 -0.570312 -0.242188 z m -1.078125 6.992188 c -0.003907 0.242188 0.082031 0.476562 0.238281 0.660156 c 0.363281 0.414063 0.992188 0.457032 1.410156 0.09375 l 0.859375 -0.753906 z m 3.988281 0 v 4 c 0 0.390625 0.230469 0.746094 0.585938 0.910156 c 0.359374 0.160156 0.777343 0.101563 1.074218 -0.15625 l 4 -3.5 c 0.355469 -0.316406 0.441406 -0.839844 0.203125 -1.253906 h -2.953125 l 0.574219 0.5 l -1.484375 1.296875 v -1.796875 z m 0 0" fill-opacity="0.34902"/>
        <path d="m 3 6 c -1.105469 0 -2 0.894531 -2 2 s 0.894531 2 2 2 s 2 -0.894531 2 -2 s -0.894531 -2 -2 -2 z m 5 0 c -1.105469 0 -2 0.894531 -2 2 s 0.894531 2 2 2 s 2 -0.894531 2 -2 s -0.894531 -2 -2 -2 z m 5 0 c -1.105469 0 -2 0.894531 -2 2 s 0.894531 2 2 2 s 2 -0.894531 2 -2 s -0.894531 -2 -2 -2 z m 0 0"/>
    </g>
</svg>
