<?xml version="1.0" encoding="UTF-8"?>
<svg height="16px" viewBox="0 0 16 16" width="16px" xmlns="http://www.w3.org/2000/svg">
    <path d="m 8 1.992188 c -2.617188 0 -5.238281 0.933593 -7.191406 2.808593 l -0.5 0.480469 c -0.3984378 0.378906 -0.410156 1.011719 -0.03125 1.410156 c 0.003906 0.007813 0.011718 0.011719 0.019531 0.015625 c 0.480469 -1.007812 1.507813 -1.707031 2.703125 -1.707031 h 0.941406 c 2.480469 -1.292969 5.640625 -1.292969 8.121094 0 h 0.9375 c 1.199219 0 2.222656 0.699219 2.707031 1.707031 c 0.003907 -0.003906 0.011719 -0.007812 0.015625 -0.015625 c 0.382813 -0.398437 0.367188 -1.03125 -0.03125 -1.410156 l -0.496094 -0.480469 c -1.957031 -1.875 -4.578124 -2.808593 -7.195312 -2.808593 z m -1.726562 9.007812 c -0.445313 0.765625 -0.34375 1.757812 0.3125 2.414062 c 0.78125 0.78125 2.046874 0.78125 2.828124 0 c 0.65625 -0.65625 0.757813 -1.648437 0.316407 -2.414062 z m 0 0" fill="#2e3434" fill-opacity="0.34902"/>
    <path d="m 3 6 c -1.105469 0 -2 0.894531 -2 2 s 0.894531 2 2 2 s 2 -0.894531 2 -2 s -0.894531 -2 -2 -2 z m 5 0 c -1.105469 0 -2 0.894531 -2 2 s 0.894531 2 2 2 s 2 -0.894531 2 -2 s -0.894531 -2 -2 -2 z m 5 0 c -1.105469 0 -2 0.894531 -2 2 s 0.894531 2 2 2 s 2 -0.894531 2 -2 s -0.894531 -2 -2 -2 z m 0 0" fill="#2e3436"/>
</svg>
