<?xml version="1.0" encoding="UTF-8"?>
<svg height="16px" viewBox="0 0 16 16" width="16px" xmlns="http://www.w3.org/2000/svg">
    <g fill="#2e3436">
        <path d="m 8 1.992188 c -2.617188 0 -5.238281 0.933593 -7.191406 2.808593 l -0.5 0.480469 c -0.3984378 0.378906 -0.410156 1.011719 -0.03125 1.410156 c 0.382812 0.398438 1.015625 0.410156 1.414062 0.03125 l 0.5 -0.476562 c 3.085938 -2.957032 8.53125 -2.957032 11.617188 0 l 0.5 0.476562 c 0.398437 0.378906 1.03125 0.367188 1.414062 -0.03125 c 0.382813 -0.398437 0.367188 -1.03125 -0.03125 -1.410156 l -0.496094 -0.480469 c -1.957031 -1.875 -4.578124 -2.808593 -7.195312 -2.808593 z m -0.03125 4.007812 c -1.570312 0.011719 -3.128906 0.628906 -4.207031 1.816406 l -0.5 0.546875 c -0.375 0.40625 -0.347657 1.042969 0.066406 1.414063 c 0.40625 0.371094 1.042969 0.34375 1.414063 -0.066406 l 0.496093 -0.546876 c 1.242188 -1.363281 3.992188 -1.492187 5.402344 -0.128906 c 0.117187 -0.023437 0.238281 -0.035156 0.359375 -0.035156 c 0.53125 0 1.039062 0.210938 1.414062 0.585938 l 0.222657 0.222656 c 0.011719 -0.011719 0.023437 -0.019532 0.039062 -0.03125 c 0.40625 -0.371094 0.4375 -1.003906 0.0625 -1.414063 l -0.5 -0.546875 c -1.121093 -1.234375 -2.703125 -1.828125 -4.269531 -1.816406 z m 0.03125 4 c -0.511719 0 -1.023438 0.195312 -1.414062 0.585938 c -0.78125 0.78125 -0.78125 2.046874 0 2.828124 s 2.046874 0.78125 2.828124 0 c 0.210938 -0.210937 0.359376 -0.453124 0.457032 -0.714843 l -0.285156 -0.285157 c -0.554688 -0.554687 -0.707032 -1.367187 -0.46875 -2.070312 c -0.335938 -0.226562 -0.726563 -0.34375 -1.117188 -0.34375 z m 0 0" fill-opacity="0.34902"/>
        <path d="m 11 10 c -0.265625 0 -0.519531 0.105469 -0.707031 0.292969 c -0.390625 0.390625 -0.390625 1.023437 0 1.414062 l 1.292969 1.292969 l -1.292969 1.292969 c -0.390625 0.390625 -0.390625 1.023437 0 1.414062 s 1.023437 0.390625 1.414062 0 l 1.292969 -1.292969 l 1.292969 1.292969 c 0.390625 0.390625 1.023437 0.390625 1.414062 0 s 0.390625 -1.023437 0 -1.414062 l -1.292969 -1.292969 l 1.292969 -1.292969 c 0.390625 -0.390625 0.390625 -1.023437 0 -1.414062 c -0.1875 -0.1875 -0.441406 -0.292969 -0.707031 -0.292969 s -0.519531 0.105469 -0.707031 0.292969 l -1.292969 1.292969 l -1.292969 -1.292969 c -0.1875 -0.1875 -0.441406 -0.292969 -0.707031 -0.292969 z m 0 0"/>
    </g>
</svg>
