<?xml version="1.0" encoding="UTF-8"?>
<svg height="16px" viewBox="0 0 16 16" width="16px" xmlns="http://www.w3.org/2000/svg">
    <path d="m 8 1.007812 c -2.050781 0 -4.097656 0.777344 -5.65625 2.335938 c -3.117188 3.117188 -3.117188 8.195312 0 11.3125 c 0.390625 0.390625 1.023438 0.390625 1.414062 0 c 0.390626 -0.390625 0.390626 -1.023438 0 -1.414062 c -0.378906 -0.378907 -0.699218 -0.796876 -0.953124 -1.242188 c -1.335938 -2.296875 -1.015626 -5.269531 0.953124 -7.242188 c 2.351563 -2.351562 6.132813 -2.351562 8.484376 0 c 2.351562 2.351563 2.351562 6.132813 0 8.484376 c -0.390626 0.390624 -0.390626 1.023437 0 1.414062 c 0.390624 0.390625 1.023437 0.390625 1.414062 0 c 3.117188 -3.117188 3.117188 -8.195312 0 -11.3125 c -1.558594 -1.558594 -3.605469 -2.335938 -5.65625 -2.335938 z m -5.195312 10.992188 l 1.367187 0.367188 l 2.832031 -1.636719 c 0.617188 0.355469 1.378906 0.355469 1.996094 0.003906 c 0.957031 -0.554687 1.285156 -1.777344 0.734375 -2.734375 c -0.554687 -0.957031 -1.777344 -1.285156 -2.734375 -0.730469 c -0.617188 0.355469 -0.996094 1.015625 -0.996094 1.726563 l -2.832031 1.636718 z m 0 0" fill="#2e3434"/>
    <path d="m 12 9 c -0.003906 1.058594 -0.429688 2.074219 -1.179688 2.820312 l 2.128907 2.128907 c 1.3125 -1.3125 2.050781 -3.09375 2.050781 -4.949219 z m 0 0" fill="#2e3436" fill-opacity="0.34902"/>
</svg>
