<?xml version="1.0" encoding="UTF-8"?>
<svg height="16px" viewBox="0 0 16 16" width="16px" xmlns="http://www.w3.org/2000/svg">
    <path d="m 8 0 c -0.550781 0 -1 0.449219 -1 1 s 0.449219 1 1 1 s 1 -0.449219 1 -1 s -0.449219 -1 -1 -1 z m -6.46875 0.46875 l -1.0625 1.0625 l 14 14 l 1.0625 -1.0625 l -1.585938 -1.585938 c -0.015624 -0.234374 -0.109374 -0.460937 -0.289062 -0.640624 c -0.175781 -0.175782 -0.40625 -0.269532 -0.636719 -0.285157 l -0.992187 -0.992187 c 0.609375 -0.832032 0.972656 -1.855469 0.972656 -2.964844 c 0 -2.761719 -2.238281 -5 -5 -5 c -1.109375 0 -2.132812 0.363281 -2.960938 0.976562 l -0.992187 -0.992187 c -0.015625 -0.234375 -0.109375 -0.460937 -0.289063 -0.640625 c -0.175781 -0.175781 -0.40625 -0.269531 -0.636718 -0.285156 z m 11.417969 1.582031 c -0.253907 0 -0.511719 0.097657 -0.707031 0.292969 c -0.390626 0.390625 -0.390626 1.023438 0 1.414062 c 0.390624 0.390626 1.023437 0.390626 1.414062 0 c 0.390625 -0.390624 0.390625 -1.023437 0 -1.414062 c -0.195312 -0.195312 -0.449219 -0.292969 -0.707031 -0.292969 z m -4.949219 2.949219 c 0.183594 0 0.367188 0.019531 0.550781 0.054688 c -0.589843 0.140624 -1.082031 0.542968 -1.339843 1.09375 l -0.714844 -0.714844 c 0.453125 -0.273438 0.972656 -0.425782 1.503906 -0.433594 z m -4.71875 1.34375 c -0.183594 0.519531 -0.28125 1.074219 -0.28125 1.65625 c 0 2.761719 2.238281 5 5 5 c 0.582031 0 1.136719 -0.097656 1.65625 -0.28125 l -1.726562 -1.726562 c -1.597657 -0.039063 -2.878907 -1.324219 -2.921876 -2.921876 z m -2.28125 0.65625 c -0.550781 0 -1 0.449219 -1 1 s 0.449219 1 1 1 s 1 -0.449219 1 -1 s -0.449219 -1 -1 -1 z m 14 0 c -0.550781 0 -1 0.449219 -1 1 s 0.449219 1 1 1 s 1 -0.449219 1 -1 s -0.449219 -1 -1 -1 z m -4.050781 0.449219 c 0.03125 0.179687 0.050781 0.367187 0.050781 0.550781 c -0.007812 0.53125 -0.160156 1.050781 -0.433594 1.503906 l -0.714844 -0.714844 c 0.550782 -0.257812 0.953126 -0.75 1.097657 -1.339843 z m -7.898438 4.5 c -0.253906 0 -0.511719 0.097656 -0.707031 0.292969 c -0.390625 0.390624 -0.390625 1.023437 0 1.414062 s 1.023438 0.390625 1.414062 0 c 0.390626 -0.390625 0.390626 -1.023438 0 -1.414062 c -0.195312 -0.195313 -0.449218 -0.292969 -0.707031 -0.292969 z m 4.949219 2.050781 c -0.550781 0 -1 0.449219 -1 1 s 0.449219 1 1 1 s 1 -0.449219 1 -1 s -0.449219 -1 -1 -1 z m 0 0" fill="#2e3436"/>
</svg>
