<?xml version="1.0" encoding="UTF-8"?>
<svg height="16px" viewBox="0 0 16 16" width="16px" xmlns="http://www.w3.org/2000/svg">
    <path d="m 4 1 c -1.644531 0 -3 1.355469 -3 3 v 1 c 0 0.550781 0.449219 1 1 1 s 1 -0.449219 1 -1 v -1 c 0 -0.5625 0.4375 -1 1 -1 h 9 c 0.566406 0 1 0.4375 1 1 v 7 c 0 0.5625 -0.433594 1 -1 1 h -3 c -0.550781 0 -1 0.449219 -1 1 s 0.449219 1 1 1 h 3 c 1.644531 0 3 -1.355469 3 -3 v -7 c 0 -1.644531 -1.355469 -3 -3 -3 z m -3 6 c -0.550781 0 -1 0.449219 -1 1 s 0.449219 1 1 1 c 2.773438 0 5 2.226562 5 5 c 0 0.550781 0.449219 1 1 1 s 1 -0.449219 1 -1 c 0 -3.855469 -3.144531 -7 -7 -7 z m 0 3 c -0.550781 0 -1 0.449219 -1 1 s 0.449219 1 1 1 c 1.117188 0 2 0.882812 2 2 c 0 0.550781 0.449219 1 1 1 s 1 -0.449219 1 -1 c 0 -2.195312 -1.800781 -4 -4 -4 z m 0 3 c -0.550781 0 -1 0.449219 -1 1 s 0.449219 1 1 1 s 1 -0.449219 1 -1 s -0.449219 -1 -1 -1 z m 0 0" fill="#2e3436"/>
    <path d="m 4.5 4 c -0.277344 0 -0.5 0.222656 -0.5 0.5 v 1.738281 c 0 0.261719 0.144531 0.410157 0.359375 0.511719 c 1.738281 0.8125 3.144531 2.234375 3.933594 3.984375 c 0.085937 0.359375 0.4375 0.265625 0.4375 0.265625 h 3.769531 c 0.277344 0 0.5 -0.222656 0.5 -0.5 v -6 c 0 -0.277344 -0.222656 -0.5 -0.5 -0.5 z m 0 0" fill="#2e3434" fill-opacity="0.34902"/>
</svg>
