<?xml version="1.0" encoding="UTF-8"?>
<svg height="16px" viewBox="0 0 16 16" width="16px" xmlns="http://www.w3.org/2000/svg">
    <g fill="#2e3436">
        <path d="m 7.917969 1 c -1.617188 0 -2.917969 1.300781 -2.917969 2.917969 v 0.441406 c 0.394531 -0.449219 0.894531 -0.8125 1.46875 -1.050781 c 0.460938 -0.191406 0.941406 -0.289063 1.417969 -0.300782 c 0.039062 -0.003906 0.074219 -0.007812 0.113281 -0.007812 s 0.074219 0.003906 0.113281 0.007812 c 0.027344 0 0.058594 0 0.089844 0.003907 c 0.96875 0.046875 1.910156 0.449219 2.625 1.164062 c 0.058594 0.058594 0.117187 0.121094 0.171875 0.1875 v -0.445312 c 0 -1.617188 -1.300781 -2.917969 -2.917969 -2.917969 z m 3.636719 4.175781 c 0.523437 1.027344 0.59375 2.253907 0.140624 3.355469 c -0.339843 0.8125 -0.972656 1.394531 -1.695312 1.824219 v 0.644531 h 0.96875 c 0.570312 0 1.03125 -0.460938 1.03125 -1.03125 v -3.9375 c 0.003906 -0.34375 -0.164062 -0.664062 -0.445312 -0.855469 z m -7.113282 0.011719 c -0.277344 0.1875 -0.445312 0.507812 -0.441406 0.84375 v 3.9375 c 0 0.570312 0.460938 1.03125 1.03125 1.03125 h 0.972656 v -2 c 0 -0.375 0.230469 -0.6875 0.4375 -1 h -1.441406 c -0.550781 0 -0.996094 -0.449219 -0.996094 -1 c 0 -0.644531 0.15625 -1.261719 0.4375 -1.8125 z m 3.558594 1.8125 c -0.003906 0.003906 -0.003906 0.003906 -0.007812 0.007812 c 0.003906 -0.003906 0.007812 -0.007812 0.011718 -0.007812 z m -5.003906 5.976562 c -0.550782 0 -1 0.449219 -1 1 c 0 0.550782 0.449218 1 1 1 h 3.285156 c 0.363281 0.601563 1.011719 0.972657 1.714844 0.972657 s 1.355468 -0.367188 1.71875 -0.972657 h 3.292968 c 0.550782 0 1 -0.449218 1 -1 c 0 -0.550781 -0.449218 -1 -1 -1 h -3.011718 c 0 0.007813 0.003906 0.015626 0.003906 0.023438 c 0 1.046875 -0.953125 2 -2 2 s -1.996094 -0.953125 -1.996094 -2 c 0 -0.007812 0 -0.015625 0 -0.023438 z m 0 0" fill-opacity="0.34902"/>
        <path d="m 8.152344 4.007812 c -0.4375 -0.023437 -0.882813 0.046876 -1.300782 0.222657 c -1.117187 0.460937 -1.851562 1.558593 -1.851562 2.769531 h 2 c 0 -0.40625 0.242188 -0.769531 0.617188 -0.921875 c 0.375 -0.15625 0.800781 -0.074219 1.089843 0.214844 c 0.289063 0.289062 0.371094 0.714843 0.21875 1.089843 c -0.15625 0.375 -0.519531 0.617188 -0.925781 0.617188 c -0.550781 0 -1 0.449219 -1 1 v 2 h 2 v -1.179688 c 0.785156 -0.28125 1.441406 -0.875 1.773438 -1.671874 c 0.460937 -1.117188 0.203124 -2.414063 -0.652344 -3.269532 c -0.535156 -0.535156 -1.242188 -0.835937 -1.96875 -0.871094 z m -0.152344 7.992188 c -0.550781 0 -1 0.449219 -1 1 s 0.449219 1 1 1 s 1 -0.449219 1 -1 s -0.449219 -1 -1 -1 z m 0 0"/>
    </g>
</svg>
