<?xml version="1.0" encoding="UTF-8"?>
<svg height="16px" viewBox="0 0 16 16" width="16px" xmlns="http://www.w3.org/2000/svg">
    <g fill="#222222">
        <g fill-rule="evenodd">
            <path d="m 5 5.996094 c -2.207031 0 -3.992188 1.785156 -3.992188 3.992187 c 0 2.210938 1.785157 3.992188 3.992188 3.992188 h 6 c 2.207031 0 3.992188 -1.78125 3.992188 -3.992188 c 0 -2.207031 -1.785157 -3.992187 -3.992188 -3.992187 z m 0 1 h 6 c 1.675781 0 2.992188 1.316406 2.992188 2.992187 c 0 1.679688 -1.316407 2.992188 -2.992188 2.992188 h -6 c -1.675781 0 -2.992188 -1.3125 -2.992188 -2.992188 c 0 -1.675781 1.316407 -2.992187 2.992188 -2.992187 z m 0 0"/>
            <path d="m 4 8.988281 c -0.277344 0 -0.5 0.226563 -0.5 0.5 c 0 0.582031 0.386719 1.082031 0.914062 1.328125 c 0.527344 0.246094 1.144532 0.246094 1.671876 0 c 0.527343 -0.246094 0.914062 -0.746094 0.914062 -1.328125 c 0 -0.273437 -0.222656 -0.5 -0.5 -0.5 s -0.5 0.226563 -0.5 0.5 c 0 0.140625 -0.089844 0.304688 -0.335938 0.417969 c -0.246093 0.117188 -0.582031 0.117188 -0.828124 0 c -0.246094 -0.113281 -0.335938 -0.277344 -0.335938 -0.417969 c 0 -0.273437 -0.222656 -0.5 -0.5 -0.5 z m 0 0"/>
            <path d="m 9.492188 8.988281 c -0.277344 0 -0.5 0.226563 -0.5 0.5 c 0 0.582031 0.386718 1.082031 0.914062 1.328125 s 1.140625 0.246094 1.667969 0 c 0.53125 -0.246094 0.914062 -0.746094 0.914062 -1.328125 c 0 -0.273437 -0.222656 -0.5 -0.5 -0.5 c -0.273437 0 -0.5 0.226563 -0.5 0.5 c 0 0.140625 -0.085937 0.304688 -0.332031 0.417969 c -0.246094 0.117188 -0.582031 0.117188 -0.828125 0 c -0.246094 -0.113281 -0.335937 -0.277344 -0.335937 -0.417969 c 0 -0.273437 -0.222657 -0.5 -0.5 -0.5 z m 0 0"/>
        </g>
        <path d="m 4.921875 0.03125 l -4.3125 7.46875 c -0.277344 0.476562 -0.109375 1.089844 0.367187 1.363281 c 0.476563 0.277344 1.089844 0.113281 1.367188 -0.363281 l 2.566406 -4.449219 l 1.390625 2.433594 c 0.273438 0.480469 0.882813 0.648437 1.363281 0.375 c 0.480469 -0.273437 0.644532 -0.882813 0.375 -1.363281 z m 0 0"/>
        <path d="m 11.023438 0.03125 l -3.113282 5.464844 c -0.273437 0.480468 -0.105468 1.089844 0.371094 1.363281 c 0.480469 0.273437 1.089844 0.105469 1.363281 -0.375 l 1.394531 -2.433594 l 2.566407 4.449219 c 0.277343 0.476562 0.886719 0.640625 1.363281 0.363281 c 0.480469 -0.273437 0.644531 -0.886719 0.367188 -1.363281 z m 0 0"/>
        <path d="m 0.707031 7.417969 c -0.449219 0.75 -0.707031 1.632812 -0.707031 2.570312 c 0 2.753907 2.246094 5 5 5 h 6 c 2.753906 0 5 -2.246093 5 -5 c 0 -0.917969 -0.25 -1.789062 -0.6875 -2.535156 l -1.726562 1.015625 c 0.261718 0.445312 0.414062 0.960938 0.414062 1.519531 c 0 1.679688 -1.320312 3 -3 3 h -6 c -1.679688 0 -3 -1.320312 -3 -3 c 0 -0.570312 0.15625 -1.09375 0.425781 -1.542969 z m 0 0" fill-rule="evenodd"/>
    </g>
</svg>
