<?xml version="1.0" encoding="UTF-8"?>
<svg height="16px" viewBox="0 0 16 16" width="16px" xmlns="http://www.w3.org/2000/svg">
    <path d="m 4 2.003906 v 1.5 c 0 0.152344 0.03125 0.296875 0.074219 0.433594 c -0.042969 0.011719 -0.199219 0.058594 -0.21875 0.066406 h -0.855469 c -1.105469 0 -2 0.894532 -2 2 v 2 h 2 c 0.011719 -0.003906 0.027344 -0.003906 0.039062 -0.003906 v 0.003906 c -0.027343 1.328125 0.648438 2.324219 1.183594 3 c 0.269532 0.335938 0.511719 0.613282 0.648438 0.808594 c 0.101562 0.148438 0.125 0.226562 0.128906 0.222656 c 0 1.066406 0.085938 1.742188 0.523438 2.324219 c 0.226562 0.289063 0.574218 0.5 0.859374 0.578125 c 0.285157 0.074219 0.496094 0.066406 0.617188 0.066406 h 3 c 0.214844 0 0.996094 -0.0625 1.449219 -0.632812 c 0.449219 -0.574219 0.550781 -1.273438 0.550781 -2.367188 c 0 0.082032 -0.007812 0.003906 0.128906 -0.191406 c 0.136719 -0.195312 0.382813 -0.472656 0.652344 -0.808594 c 0.539062 -0.675781 1.21875 -1.667968 1.21875 -3 h 2 v -2 c 0 -1.105468 -0.894531 -2 -2 -2 h -0.855469 c -0.019531 -0.007812 -0.175781 -0.054687 -0.21875 -0.066406 c 0.042969 -0.136719 0.074219 -0.28125 0.074219 -0.433594 v -1.5 h -1.5 c -0.714844 0 -1.308594 0.496094 -1.457031 1.167969 c -0.527344 -0.101563 -1.054688 -0.167969 -1.542969 -0.167969 s -1.015625 0.066406 -1.542969 0.167969 c -0.148437 -0.671875 -0.742187 -1.167969 -1.457031 -1.167969 z m 4.5 3 c 0.550781 0 1.667969 0.222656 2.566406 0.464844 c 0.523438 0.140625 0.640625 0.183594 0.933594 0.277344 v 2.257812 c 0 0.664063 -0.320312 1.175782 -0.78125 1.75 c -0.230469 0.285156 -0.484375 0.570313 -0.722656 0.90625 c -0.035156 0.050782 -0.066406 0.121094 -0.105469 0.175782 c -0.539063 -0.148438 -1.292969 0.167968 -1.890625 0.167968 s -1.351562 -0.316406 -1.890625 -0.167968 c -0.039063 -0.054688 -0.066406 -0.125 -0.105469 -0.175782 c -0.234375 -0.335937 -0.488281 -0.617187 -0.71875 -0.902344 c -0.453125 -0.570312 -0.757812 -1.066406 -0.746094 -1.714843 c 0 -0.011719 0 -0.023438 0 -0.035157 l -0.03125 -2.261718 c 0.296876 -0.09375 0.410157 -0.140625 0.925782 -0.277344 c 0.898437 -0.242188 2.015625 -0.464844 2.566406 -0.464844 z m -2.5 2 v 1 h 1 v -1 z m 4 0 v 1 h 1 v -1 z m -2.964844 5.5 h 0.964844 v 0.5 h -0.898438 c 0.003907 -0.011718 -0.035156 -0.191406 -0.066406 -0.5 z m 1.964844 0 h 0.964844 c -0.035156 0.3125 -0.078125 0.488282 -0.074219 0.5 h -0.890625 z m 0 0" fill="#222222"/>
</svg>
