<?xml version="1.0" encoding="UTF-8"?>
<svg height="16px" viewBox="0 0 16 16" width="16px" xmlns="http://www.w3.org/2000/svg">
    <g fill="#222222">
        <path d="m 4.523438 5.789062 c -0.582032 2.671876 0.828124 5.210938 4.476562 5.210938 l -0.445312 -0.105469 l 4 2 c 0.429687 0.214844 0.957031 0.09375 1.246093 -0.292969 l 1.5 -2 c 0.234375 -0.316406 0.265625 -0.742187 0.074219 -1.085937 l -5 -9 c -0.136719 -0.246094 -0.367188 -0.421875 -0.640625 -0.4882812 c -0.269531 -0.0664063 -0.558594 -0.015625 -0.789063 0.1406252 l -1.5 1 l 0.5625 -0.167969 l -0.847656 -0.007812 c -2.878906 -0.027344 -5.328125 2.082031 -5.730468 4.929687 l -1.261719 8.9375 c -0.042969 0.285156 0.042969 0.578125 0.234375 0.796875 c 0.1875 0.21875 0.464844 0.34375 0.753906 0.34375 h 6.84375 c 0.550781 0 1 -0.449219 1 -1 v -2 c 0 -0.550781 -0.449219 -1 -1 -1 s -1 0.449219 -1 1 v 2 l 1 -1 h -6.84375 l 0.988281 1.140625 l 1.265625 -8.9375 c 0.261719 -1.855469 1.855469 -3.226563 3.730469 -3.210937 l 0.851563 0.007812 c 0.199218 0 0.394531 -0.058594 0.5625 -0.167969 l 1.5 -1 l -1.429688 -0.347656 l 5 9 l 0.074219 -1.085937 l -1.5 2 l 1.246093 -0.292969 l -4 -2 c -0.136718 -0.070313 -0.289062 -0.105469 -0.445312 -0.105469 c -2.351562 0 -2.832031 -1.359375 -2.523438 -2.789062 c 0.117188 -0.539063 -0.222656 -1.070313 -0.765624 -1.1875 c -0.539063 -0.117188 -1.070313 0.222656 -1.1875 0.765624 z m 0 0"/>
        <path d="m 10 6 c 0 0.550781 -0.449219 1 -1 1 s -1 -0.449219 -1 -1 s 0.449219 -1 1 -1 s 1 0.449219 1 1 z m 0 0"/>
    </g>
</svg>
