<?xml version="1.0" encoding="UTF-8"?>
<svg height="16px" viewBox="0 0 16 16" width="16px" xmlns="http://www.w3.org/2000/svg">
    <g fill="#222222">
        <path d="m 6.429688 5.003906 c -0.238282 0.011719 -0.429688 0.207032 -0.429688 0.453125 v 0.089844 c 0 0.253906 0.203125 0.453125 0.453125 0.453125 h 0.09375 c 0.25 0 0.453125 -0.199219 0.453125 -0.453125 v -0.089844 c 0 -0.253906 -0.203125 -0.453125 -0.453125 -0.453125 h -0.09375 c -0.007813 0 -0.015625 -0.003906 -0.023437 0 z m 3.046874 0 c -0.265624 0.011719 -0.476562 0.230469 -0.476562 0.5 c 0 0.273438 0.222656 0.5 0.5 0.5 s 0.5 -0.226562 0.5 -0.5 c 0 -0.277344 -0.222656 -0.5 -0.5 -0.5 c -0.007812 0 -0.015625 -0.003906 -0.027344 0 z m -2.433593 1.246094 v 0.5 c 0 0.554688 1 1.5 1 1.5 s 1 -0.945312 1 -1.5 v -0.5 z m 0 0"/>
        <path d="m 8.03125 0.00390625 c -1.738281 0 -2.933594 0.51953175 -3.9375 1.49999975 c -0.964844 0.9375 -1.308594 2.175782 -1.53125 3.75 c 0 0 -0.238281 1.296875 0.0625 1.84375 c -0.492188 0.585938 -2.59375 3.21875 -2.59375 4.40625 c 0.367188 1.140625 2.292969 -1.476562 2.625 0.03125 c 0.285156 1.28125 0.855469 1.78125 2.03125 2.5 c -0.933594 0.082032 -1.65625 0.476563 -1.65625 0.96875 c 1.164062 0.714844 1.238281 0.8125 2.4375 0.8125 c 1.105469 0 1.5625 -0.261718 1.5625 -0.8125 c 0 -0.035156 0.007812 -0.0625 0 -0.09375 c 0.332031 0.050782 0.660156 0.09375 1 0.09375 s 0.667969 -0.042968 1 -0.09375 c -0.007812 0.03125 0 0.058594 0 0.09375 c 0 0.550782 0.457031 0.8125 1.5625 0.8125 c 1.199219 0 1.273438 -0.097656 2.4375 -0.8125 c 0 -0.492187 -0.722656 -0.886718 -1.65625 -0.96875 c 1.175781 -0.71875 1.746094 -1.21875 2.03125 -2.5 c 0.332031 -1.507812 2.257812 1.109375 2.625 -0.03125 c 0 -1.1875 -2.101562 -3.820312 -2.59375 -4.40625 c 0.300781 -0.546875 0.0625 -1.84375 0.0625 -1.84375 c -0.222656 -1.574218 -0.566406 -2.8125 -1.53125 -3.75 c -1.003906 -0.980468 -2.199219 -1.49999975 -3.9375 -1.49999975 z m -1.03125 1.90624975 c 0.535156 0.117188 0.597656 1.09375 1.03125 1.09375 s 0.496094 -0.976562 1.03125 -1.09375 c 3.144531 0.144532 3.292969 4.402344 2.53125 5.28125 c 0 0 1.007812 1.859375 0.5625 3.28125 c -0.644531 2.046875 -1.910156 3.03125 -4.125 3.03125 s -3.480469 -0.984375 -4.125 -3.03125 c -0.445312 -1.421875 0.5625 -3.28125 0.5625 -3.28125 c -0.761719 -0.878906 -0.613281 -5.136718 2.53125 -5.28125 z m 0 0"/>
    </g>
</svg>
