<?xml version="1.0" encoding="UTF-8"?>
<svg height="16px" viewBox="0 0 16 16" width="16px" xmlns="http://www.w3.org/2000/svg">
    <g fill="#222222">
        <path d="m 8 5 c -0.550781 0 -1 0.449219 -1 1 v 9 c 0 0.550781 0.449219 1 1 1 s 1 -0.449219 1 -1 v -9 c 0 -0.550781 -0.449219 -1 -1 -1 z m 0 0"/>
        <path d="m 10.46875 7 c -0.132812 0 -0.261719 0.050781 -0.355469 0.144531 l -2.46875 2.5 c -0.191406 0.195313 -0.191406 0.515625 0 0.710938 c 0.195313 0.191406 0.515625 0.191406 0.710938 0 l 2.46875 -2.5 c 0.191406 -0.195313 0.191406 -0.515625 0 -0.710938 c -0.09375 -0.09375 -0.222657 -0.144531 -0.355469 -0.144531 z m 0 0"/>
        <path d="m 8 0 c -3.855469 0 -7 3.144531 -7 7 s 3.144531 7 7 7 s 7 -3.144531 7 -7 s -3.144531 -7 -7 -7 z m 0 2 c 2.773438 0 5 2.226562 5 5 s -2.226562 5 -5 5 s -5 -2.226562 -5 -5 s 2.226562 -5 5 -5 z m 0 0"/>
    </g>
</svg>
