<?xml version="1.0" encoding="UTF-8"?>
<svg height="16px" viewBox="0 0 16 16" width="16px" xmlns="http://www.w3.org/2000/svg">
    <path d="m 8 0 c -4.402344 0 -8 3.597656 -8 8 s 3.597656 8 8 8 s 8 -3.597656 8 -8 s -3.597656 -8 -8 -8 z m 0 1.980469 c 3.339844 0 6.019531 2.679687 6.019531 6.019531 s -2.679687 6.019531 -6.019531 6.019531 s -6.019531 -2.679687 -6.019531 -6.019531 s 2.679687 -6.019531 6.019531 -6.019531 z m -2.554688 3.023437 c -0.113281 0.011719 -0.21875 0.0625 -0.300781 0.140625 l -0.972656 0.980469 l -0.027344 0.019531 l 0.003907 0.003907 c -0.09375 0.09375 -0.148438 0.21875 -0.148438 0.351562 c 0 0.277344 0.222656 0.5 0.5 0.5 c 0.132812 0 0.257812 -0.050781 0.355469 -0.144531 l 0.019531 -0.027344 l 0.625 -0.621094 l 0.621094 0.621094 l 0.023437 0.027344 c 0.09375 0.09375 0.222657 0.144531 0.355469 0.144531 c 0.277344 0 0.5 -0.222656 0.5 -0.5 c 0 -0.132812 -0.050781 -0.257812 -0.144531 -0.355469 c -0.007813 -0.003906 -0.011719 -0.011719 -0.019531 -0.015625 l -0.984376 -0.984375 c -0.105468 -0.105469 -0.257812 -0.15625 -0.410156 -0.140625 z m 5 0 c -0.113281 0.011719 -0.21875 0.0625 -0.300781 0.140625 l -0.972656 0.980469 l -0.027344 0.019531 l 0.003907 0.003907 c -0.09375 0.09375 -0.148438 0.21875 -0.148438 0.351562 c 0 0.277344 0.222656 0.5 0.5 0.5 c 0.132812 0 0.257812 -0.050781 0.355469 -0.144531 l 0.019531 -0.027344 l 0.625 -0.621094 l 0.621094 0.621094 l 0.023437 0.027344 c 0.09375 0.09375 0.222657 0.144531 0.355469 0.144531 c 0.277344 0 0.5 -0.222656 0.5 -0.5 c 0 -0.132812 -0.050781 -0.257812 -0.144531 -0.355469 c -0.007813 -0.003906 -0.011719 -0.011719 -0.019531 -0.015625 l -0.984376 -0.984375 c -0.105468 -0.105469 -0.257812 -0.15625 -0.410156 -0.140625 z m -6.445312 3.996094 c 0.597656 1.792969 2.203125 2.996094 4 3 c 1.796875 -0.003906 3.402344 -1.207031 4 -3 z m 0 0" fill="#222222"/>
</svg>
