<?xml version="1.0" encoding="UTF-8"?>
<svg height="16px" viewBox="0 0 16 16" width="16px" xmlns="http://www.w3.org/2000/svg">
    <path d="m 8 0 c -4.402344 0 -8 3.597656 -8 8 s 3.597656 8 8 8 s 8 -3.597656 8 -8 s -3.597656 -8 -8 -8 z m 0 1.980469 c 3.339844 0 6.019531 2.679687 6.019531 6.019531 s -2.679687 6.019531 -6.019531 6.019531 s -6.019531 -2.679687 -6.019531 -6.019531 s 2.679687 -6.019531 6.019531 -6.019531 z m -2 3.019531 c -0.550781 0 -1 0.449219 -1 1 s 0.449219 1 1 1 s 1 -0.449219 1 -1 s -0.449219 -1 -1 -1 z m 4 0 c -0.550781 0 -1 0.449219 -1 1 s 0.449219 1 1 1 s 1 -0.449219 1 -1 s -0.449219 -1 -1 -1 z m -2 4 c -1.429688 0 -2.75 0.761719 -3.464844 2 c -0.136718 0.238281 -0.054687 0.546875 0.183594 0.683594 c 0.238281 0.136718 0.546875 0.054687 0.683594 -0.183594 c 0.535156 -0.929688 1.523437 -1.5 2.597656 -1.5 s 2.0625 0.570312 2.597656 1.5 c 0.136719 0.238281 0.445313 0.320312 0.683594 0.183594 c 0.238281 -0.136719 0.320312 -0.445313 0.183594 -0.683594 c -0.714844 -1.238281 -2.035156 -2 -3.464844 -2 z m 0 0" fill="#222222"/>
</svg>
