<svg xmlns="http://www.w3.org/2000/svg" width="24" height="24" fill="none" stroke="currentColor" stroke-linecap="round" stroke-linejoin="round" stroke-width="3"><path fill="#000" fill-rule="evenodd" stroke="none" d="M17.729 5.524c-.458.077-.488.103-2.797 2.41-1.901 1.899-2.181 2.195-2.274 2.398-.509 1.114.36 2.308 1.56 2.145.441-.06.6-.171 1.46-1.019l.798-.787.012 2.815.012 2.814.105.248c.25.595.761.938 1.395.938s1.145-.343 1.395-.938l.105-.248.012-2.814.012-2.815.798.787c.86.848 1.019.959 1.46 1.019 1.2.163 2.069-1.031 1.56-2.145-.093-.203-.373-.499-2.274-2.398-2.337-2.335-2.332-2.331-2.834-2.412a3 3 0 0 0-.274-.037zm-11.773.088c-.273.115-.427.221-.593.411-.198.226-4.797 9.465-4.845 9.735-.076.427.104.985.416 1.288.226.218.44.339.741.416.306.078.653.033.995-.129.396-.187.518-.36 1.163-1.643l.587-1.17h4.16l.587 1.17c.645 1.283.767 1.456 1.163 1.643.342.162.689.207.995.129a1.5 1.5 0 0 0 1.151-1.259c.026-.158.027-.326.004-.456-.026-.147-.716-1.568-2.38-4.901-2.572-5.15-2.45-4.935-2.945-5.19-.181-.094-.275-.113-.595-.125-.329-.012-.41-.001-.604.081m1.082 5.858c.001.038-.132.05-.538.05-.33 0-.54-.015-.54-.04 0-.021.121-.283.27-.58l.269-.541.268.531c.148.291.27.553.271.58"/></svg>