<svg xmlns="http://www.w3.org/2000/svg" width="24" height="24" fill="none" stroke="currentColor" stroke-linecap="round" stroke-linejoin="round" stroke-width="3"><path fill="#000" fill-rule="evenodd" stroke="none" d="M5.956 5.612c-.273.115-.427.221-.593.411-.198.226-4.797 9.465-4.845 9.735-.076.427.104.985.416 1.288.226.218.44.339.741.416.306.078.653.033.995-.129.396-.187.518-.36 1.163-1.643l.587-1.17h4.16l.587 1.17c.645 1.283.767 1.456 1.163 1.643.342.162.689.207.995.129a1.5 1.5 0 0 0 1.151-1.259c.026-.158.027-.326.004-.456-.026-.147-.716-1.568-2.38-4.901-2.572-5.15-2.45-4.935-2.945-5.19-.181-.094-.275-.113-.595-.125-.329-.012-.41-.001-.604.081m11.56-.035a1.54 1.54 0 0 0-.998 1.233c-.02.138-.037 1.436-.037 2.886l-.001 2.637-.79-.777c-.982-.965-1.067-1.016-1.69-1.016-.384 0-.44.01-.648.116-.754.382-1.048 1.236-.694 2.012.093.203.373.499 2.274 2.398 1.69 1.689 2.213 2.189 2.374 2.269.423.21.965.21 1.388 0 .161-.08.684-.58 2.374-2.269 1.901-1.899 2.181-2.195 2.274-2.398.354-.776.06-1.63-.694-2.012-.208-.106-.264-.116-.648-.116-.623 0-.708.051-1.69 1.016l-.79.777-.001-2.637c0-1.45-.017-2.748-.037-2.886a1.51 1.51 0 0 0-.832-1.153c-.195-.099-.28-.116-.608-.125-.253-.007-.431.008-.526.045M7.038 11.47c.001.038-.132.05-.538.05-.33 0-.54-.015-.54-.04 0-.021.121-.283.27-.58l.269-.541.268.531c.148.291.27.553.271.58"/></svg>