<svg xmlns="http://www.w3.org/2000/svg" width="24" height="24" fill="none" stroke="currentColor" stroke-linecap="round" stroke-linejoin="round" stroke-width="3"><path fill="#000" fill-rule="evenodd" stroke="none" d="M6.956 5.612c-.273.115-.427.221-.593.411-.198.226-4.797 9.465-4.845 9.735-.076.427.104.985.416 1.288.226.218.44.339.741.416.306.078.653.033.995-.129.396-.187.518-.36 1.163-1.643l.587-1.17h4.16l.587 1.17c.645 1.283.767 1.456 1.163 1.643.342.162.689.207.995.129a1.5 1.5 0 0 0 1.151-1.259c.026-.158.027-.326.004-.456-.026-.147-.716-1.568-2.38-4.901-2.572-5.15-2.45-4.935-2.945-5.19-.181-.094-.275-.113-.595-.125-.329-.012-.41-.001-.604.081m10.764 2.97c-1.432.306-2.565 1.311-3.016 2.674-.193.582-.204.741-.204 2.964v2.08l.105.248c.168.399.453.684.84.84.476.193 1.127.099 1.484-.213.397-.346.537-.651.576-1.25l.027-.405h1.936l.027.405c.039.599.179.904.576 1.25.357.312 1.008.406 1.484.213.387-.156.672-.441.84-.84l.105-.248v-2.08c0-2.223-.011-2.382-.204-2.964a4.01 4.01 0 0 0-3.024-2.672c-.38-.079-1.189-.08-1.552-.002M8.038 11.47c.001.038-.132.05-.538.05-.33 0-.54-.015-.54-.04 0-.021.121-.283.27-.58l.269-.541.268.531c.148.291.27.553.271.58m10.985.192a.99.99 0 0 1 .447.676l.02.182h-1.97v-.121c0-.293.226-.624.529-.777.181-.092.251-.105.495-.094.232.011.319.035.479.134"/></svg>