<svg xmlns="http://www.w3.org/2000/svg" width="24" height="24" fill="none" stroke="currentColor" stroke-linecap="round" stroke-linejoin="round" stroke-width="3"><path fill="#000" fill-rule="evenodd" stroke="none" d="M15.38 1.574a2.73 2.73 0 0 0-1.279.795c-.212.24-.469.746-.543 1.071a3 3 0 0 0-.051.56c0 .433.062.697.259 1.112.223.467.655.899 1.122 1.122.417.198.666.256 1.112.256s.695-.058 1.112-.256c.262-.125.399-.225.648-.474.501-.501.73-1.052.73-1.76 0-.446-.058-.695-.255-1.11-.262-.55-.811-1.037-1.418-1.257-.295-.107-1.12-.141-1.437-.059M7.486 3.6a1.9 1.9 0 0 0-.42.236c-.114.087-.903.859-1.755 1.715C3.988 6.879 3.747 7.14 3.657 7.335a1.503 1.503 0 0 0 2.006 2.009c.189-.087.424-.3 1.414-1.284.654-.649 1.199-1.18 1.213-1.18.031 0 2.959 1.596 2.999 1.634.016.015-.146.294-.36.618-.379.575-.392.59-.509.568-.627-.121-.96-.146-1.68-.127-.819.022-1.262.098-1.9.328-.752.271-1.079.505-1.283.919-.231.469-.23.889.005 1.368.247.506.719.788 1.318.789.299 0 .385-.017.71-.147a3.45 3.45 0 0 1 1.39-.27c.964 0 1.808.347 2.481 1.019.872.873 1.185 2.083.882 3.413-.103.452-.108.513-.064.739.1.508.397.905.837 1.119.24.116.299.128.644.129.335.001.407-.012.605-.109.621-.305.876-.783 1.055-1.97.111-.741.052-1.757-.143-2.459-.039-.143-.056-.269-.037-.281.066-.041 1.922-.332 1.948-.306.014.015-.133 1.136-.326 2.492-.194 1.356-.352 2.575-.351 2.71.001.341.128.653.377.925.252.276.457.398.803.478.477.111.941-.018 1.311-.365.231-.215.371-.435.436-.682.08-.304 1.045-7.146 1.048-7.432.004-.388-.111-.676-.392-.98-.304-.327-.568-.45-1.014-.469-.289-.012-.728.051-2.94.423l-2.6.436-.15-.118c-.082-.065-.15-.137-.15-.159s.353-.564.784-1.203.82-1.246.864-1.347c.24-.557.055-1.311-.416-1.694-.205-.166-5.751-3.198-6.013-3.287-.252-.086-.709-.077-.973.018m8.858.056c.119.119.136.162.136.337 0 .157-.022.227-.103.323a.49.49 0 0 1-.754 0c-.081-.096-.103-.166-.103-.323 0-.175.017-.218.136-.337s.161-.136.344-.136.224.016.344.136M3.895 13.038a1.7 1.7 0 0 0-.663.36c-.289.254-.442.611-.618 1.442-.111.523-.103 1.755.016 2.32q.47 2.237 2.07 3.648c1.152 1.017 2.46 1.546 4.08 1.652.93.062 2.338-.242 3.086-.665.518-.293.838-.96.732-1.528-.06-.324-.257-.684-.475-.873-.467-.402-1.046-.486-1.665-.242-.471.186-.675.24-1.091.287-.866.098-1.796-.172-2.508-.73-1.101-.861-1.543-2.222-1.202-3.702.101-.44.108-.517.068-.716-.055-.276-.196-.588-.343-.762-.336-.398-.983-.611-1.487-.491"/></svg>