<svg xmlns="http://www.w3.org/2000/svg" width="24" height="24" fill="none" stroke="currentColor" stroke-linecap="round" stroke-linejoin="round" stroke-width="3"><path fill="#000" fill-rule="evenodd" stroke="none" d="M8.495.575c-.4.13-.771.419-.984.765-.14.228-.149.258-1.413 4.76-.629 2.244-1.17 4.12-1.202 4.169-.147.23-.144.229-1.794.251l-1.522.02-.228.116c-.93.471-1.133 1.673-.407 2.399.242.242.53.38.906.432.174.025.856.033 1.709.022 1.563-.021 1.772-.049 2.337-.305.708-.321 1.381-.959 1.713-1.624.137-.273.257-.665.852-2.79.282-1.006.524-1.83.538-1.83.013 0 .948 3.29 2.077 7.31 2.395 8.525 2.288 8.159 2.458 8.424.676 1.054 2.252 1.057 2.927.005.167-.26.139-.168 1.461-4.879 1.066-3.797 1.142-4.048 1.261-4.17l.128-.13 1.314-.001c.723 0 1.426-.017 1.564-.037a1.494 1.494 0 0 0 1.287-1.7 1.51 1.51 0 0 0-.829-1.126l-.228-.116h-3.6l-.34.114c-.911.303-1.682.956-2.09 1.766-.139.276-.263.681-.852 2.79-.282 1.006-.524 1.83-.538 1.83s-.949-3.289-2.078-7.31a2124 2124 0 0 0-2.189-7.764c-.211-.704-.459-1.026-.995-1.29C9.49.554 9.427.541 9.062.531c-.256-.006-.462.01-.567.044"/></svg>