<svg xmlns="http://www.w3.org/2000/svg" width="24" height="24" fill="none" stroke="currentColor" stroke-linecap="round" stroke-linejoin="round" stroke-width="3"><path fill="#000" fill-rule="evenodd" stroke="none" d="M3.44 1.547A3.56 3.56 0 0 0 .552 4.388c-.075.391-.075 5.833 0 6.224.221 1.168 1.036 2.177 2.115 2.617.564.229.756.256 2.033.279 1.272.022 1.619-.006 1.949-.159.425-.198.764-.661.828-1.131a1.5 1.5 0 0 0-.829-1.562l-.228-.116-1.28-.02c-1.359-.021-1.379-.024-1.537-.225-.082-.105-.083-.133-.083-2.804V4.792l.136-.136.136-.136h16.416l.136.136.136.136v2.699c0 2.671-.001 2.699-.083 2.804-.158.201-.178.204-1.537.225l-1.28.02-.228.116c-.93.471-1.133 1.673-.407 2.399.242.242.53.38.906.433.432.061 2.537.015 2.879-.063a3.6 3.6 0 0 0 2.145-1.442 3.44 3.44 0 0 0 .604-1.666c.052-.49.052-5.144 0-5.634-.154-1.464-1.103-2.61-2.526-3.052l-.293-.091-8.56-.005c-4.708-.002-8.605.003-8.66.012m2.076 5.032c-.365.134-.71.443-.864.773a1.5 1.5 0 0 0 1.158 2.13c.328.048 12.052.048 12.38 0a1.494 1.494 0 0 0 1.287-1.7 1.51 1.51 0 0 0-.829-1.126l-.228-.116-6.38-.007c-5.236-.007-6.406.002-6.524.046m4 3.998a1.54 1.54 0 0 0-.998 1.233c-.02.138-.037 1.398-.037 2.802-.001 2.8.006 2.72-.24 2.847-.35.181-.721-.05-.721-.45 0-.126.041-.209.216-.441a2.2 2.2 0 0 0 .284-.489 1.7 1.7 0 0 0-.021-1.011c-.112-.301-.436-.653-.746-.81-.214-.108-.267-.118-.653-.118-.385 0-.439.01-.651.117-.575.291-1.149 1.125-1.355 1.968-.117.481-.116 1.179.003 1.635.26.993.93 1.841 1.8 2.278.51.257.885.35 1.483.37.485.016.581.008.94-.085 1.317-.339 2.217-1.236 2.591-2.58.081-.292.085-.403.099-3.008.01-1.641 0-2.817-.024-2.989-.075-.539-.364-.95-.836-1.189-.195-.099-.28-.116-.608-.125q-.382-.01-.526.045m4 0c-.557.213-.919.67-1.001 1.262-.023.168-.033 1.823-.024 4.189.014 3.837.016 3.919.1 4.252.362 1.445 1.334 2.518 2.675 2.955a4.01 4.01 0 0 0 3.936-.863 4.37 4.37 0 0 0 1.164-1.918c.12-.446.148-1.324.055-1.78-.214-1.055-.848-2.031-1.521-2.34-.206-.095-.291-.111-.6-.11-.456 0-.749.12-1.05.429-.242.248-.351.444-.413.743-.098.473.018.877.395 1.374.222.293.267.438.24.77a.98.98 0 0 1-1.233.847 1.04 1.04 0 0 1-.634-.525c-.085-.181-.085-.192-.086-3.992 0-2.095-.017-3.922-.037-4.06a1.51 1.51 0 0 0-.832-1.153c-.195-.099-.28-.116-.608-.125q-.382-.01-.526.045"/></svg>