<svg xmlns="http://www.w3.org/2000/svg" width="24" height="24" fill="none" stroke="currentColor" stroke-linecap="round" stroke-linejoin="round" stroke-width="3"><path fill="#000" fill-rule="evenodd" stroke="none" d="M3.44 1.547A3.56 3.56 0 0 0 .552 4.388c-.076.397-.076 10.827 0 11.224.221 1.168 1.036 2.177 2.115 2.617.474.193.783.249 1.533.276 1.058.039 1.465-.06 1.855-.45.726-.726.523-1.928-.407-2.399-.223-.113-.247-.117-1.008-.137-.822-.022-.889-.036-1.037-.224l-.083-.106V4.792l.136-.136.136-.136h16.416l.136.136.136.136v10.397l-.083.106c-.148.188-.214.203-1.037.224-.762.021-.785.024-1.008.137-.93.471-1.133 1.673-.407 2.399.241.242.529.379.906.433.367.053 1.519.012 1.879-.066a3.6 3.6 0 0 0 1.778-.994c.573-.6.883-1.272.971-2.111.053-.506.053-10.128 0-10.634-.154-1.464-1.103-2.61-2.526-3.052l-.293-.091-8.56-.005c-4.708-.002-8.605.003-8.66.012m8.051 12.049c-.249.092-.374.178-.598.411-.426.443-5.144 6.154-5.232 6.333-.451.917.127 1.994 1.149 2.142.364.053 10.064.048 10.39-.005.143-.023.336-.076.43-.117.244-.108.591-.453.72-.716.099-.201.11-.267.11-.644 0-.378-.011-.442-.11-.64-.104-.21-4.809-5.905-5.279-6.39-.301-.311-.561-.424-1.009-.439-.282-.01-.408.004-.571.065m1.405 4.822c.475.571.864 1.053.864 1.07s-.793.032-1.763.032c-1.296 0-1.76-.012-1.749-.045.025-.073 1.729-2.114 1.758-2.104.014.005.414.476.89 1.047"/></svg>