<svg xmlns="http://www.w3.org/2000/svg" width="24" height="24" fill="none" stroke="currentColor" stroke-linecap="round" stroke-linejoin="round" stroke-width="3"><path fill="#000" fill-rule="evenodd" stroke="none" d="M4.516 1.577c-.322.123-.563.338-2.124 1.898C.986 4.88.75 5.133.658 5.332a1.502 1.502 0 0 0 2.01 2.009c.201-.091.455-.329 1.9-1.773 1.444-1.445 1.682-1.699 1.773-1.9.355-.775.061-1.631-.691-2.011-.195-.099-.28-.116-.608-.125-.253-.007-.431.008-.526.045m14 0c-.861.33-1.24 1.254-.857 2.091.091.201.329.455 1.773 1.9 1.445 1.444 1.699 1.682 1.9 1.773a1.502 1.502 0 0 0 2.009-2.009c-.091-.201-.325-.451-1.773-1.894-1.93-1.924-1.884-1.889-2.526-1.906-.253-.007-.431.008-.526.045M11.08 3.545c-2.267.271-4.109 1.123-5.653 2.613a9.45 9.45 0 0 0-2.721 4.862c-.263 1.198-.263 2.762 0 3.96.25 1.141.756 2.343 1.379 3.274l.243.363-.094.074c-.052.041-.405.384-.786.761-.747.743-.869.917-.924 1.324-.07.515.091.961.476 1.318.305.282.587.393 1 .392.314-.001.552-.065.793-.214.077-.048.482-.417.898-.82.452-.437.775-.721.802-.704l.345.226c.871.577 2.079 1.078 3.182 1.32 1.316.288 2.967.259 4.28-.076a9.8 9.8 0 0 0 2.914-1.278l.349-.229.779.767c.839.827 1.002.94 1.44.999.502.068.946-.091 1.305-.467a1.49 1.49 0 0 0 .333-1.49c-.095-.285-.226-.443-1.029-1.234l-.705-.693.238-.356c1.028-1.539 1.564-3.333 1.564-5.237 0-2.175-.697-4.19-2.038-5.896-.336-.429-1.262-1.334-1.69-1.654-1.28-.956-2.643-1.548-4.18-1.815-.373-.065-.689-.086-1.42-.095a20 20 0 0 0-1.08.005m1.86 3.032c2.154.331 3.918 1.619 4.898 3.576.655 1.309.823 3.004.445 4.476a6.51 6.51 0 0 1-5.303 4.794 8 8 0 0 1-1.96 0c-2.818-.432-5.005-2.635-5.443-5.483-.116-.751-.059-1.797.14-2.569.644-2.508 2.714-4.378 5.303-4.791.436-.069 1.478-.071 1.92-.003m-1.424 1a1.54 1.54 0 0 0-.998 1.233c-.051.35-.047 4.067.004 4.39.079.502.151.596 1.417 1.868.987.991 1.197 1.184 1.393 1.274 1.113.509 2.308-.36 2.145-1.56-.061-.449-.166-.596-1.095-1.537l-.862-.872-.001-1.656c0-.911-.017-1.769-.037-1.907a1.51 1.51 0 0 0-.832-1.153c-.195-.099-.28-.116-.608-.125q-.382-.01-.526.045"/></svg>