<svg xmlns="http://www.w3.org/2000/svg" width="24" height="24" fill="none" stroke="currentColor" stroke-linecap="round" stroke-linejoin="round" stroke-width="3"><path fill="#000" fill-rule="evenodd" stroke="none" d="M2.38 1.576c-.452.112-.95.421-1.279.793-.209.237-.465.739-.547 1.071C.48 3.743.478 6.221.552 6.612.773 7.78 1.588 8.789 2.667 9.229c.356.145.781.249 1.02.25.105.001.154.021.169.071.012.038.148.545.303 1.125.343 1.285.466 1.551.923 2.004.484.481.966.714 1.647.8.425.053 10.079.056 10.539.003.661-.076 1.164-.321 1.65-.803.446-.442.583-.731.883-1.864.39-1.473.337-1.335.51-1.336.421-.002 1.171-.262 1.612-.56.919-.621 1.445-1.519 1.562-2.664.064-.632.023-2.605-.06-2.895a2.64 2.64 0 0 0-1.608-1.73l-.237-.09-9.5-.007c-7.445-.005-9.543.004-9.7.043m18.1 3.781v.837l-.103.122a.6.6 0 0 1-.25.162c-.202.054-16.052.054-16.254 0a.6.6 0 0 1-.25-.162l-.103-.122V4.52h16.96zM17.018 9.61l-.131.49-.109.4H7.222l-.104-.38a27 27 0 0 1-.132-.49l-.028-.11h10.084zm-9.502 4.967c-.373.142-.711.447-.866.779a1.8 1.8 0 0 0-.136.56c-.083.814-.106.869-.656 1.604-.722.964-.889 1.251-1.102 1.884a4.5 4.5 0 0 0-.241 1.456c-.003.363.012.481.085.673.188.498.658.873 1.182.944.478.065.939-.088 1.273-.422.275-.274.392-.548.435-1.015.068-.731.15-.921.702-1.63.585-.751.846-1.201 1.052-1.814a4.5 4.5 0 0 0 .241-1.456c.003-.363-.012-.481-.085-.673q-.2-.529-.758-.814c-.187-.095-.274-.112-.6-.121q-.382-.01-.526.045m5 0c-.373.142-.711.447-.866.779a1.8 1.8 0 0 0-.136.56c-.083.814-.106.869-.656 1.604-.722.964-.889 1.251-1.102 1.884a4.5 4.5 0 0 0-.241 1.456c-.003.363.012.481.085.673.188.498.658.873 1.182.944.478.065.939-.088 1.273-.422.275-.274.392-.548.435-1.015.068-.731.15-.921.702-1.63.585-.751.846-1.201 1.052-1.814a4.5 4.5 0 0 0 .241-1.456c.003-.363-.012-.481-.085-.673q-.2-.529-.758-.814c-.187-.095-.274-.112-.6-.121q-.382-.01-.526.045m5 0c-.373.142-.711.447-.866.779a1.8 1.8 0 0 0-.136.56c-.083.814-.106.869-.656 1.604-.722.964-.889 1.251-1.102 1.884a4.5 4.5 0 0 0-.241 1.456c-.003.363.012.481.085.673.188.498.658.873 1.182.944.478.065.939-.088 1.273-.422.275-.274.392-.548.435-1.015.068-.731.15-.921.702-1.63.585-.751.846-1.201 1.052-1.814a4.5 4.5 0 0 0 .241-1.456c.003-.363-.012-.481-.085-.673q-.2-.529-.758-.814c-.187-.095-.274-.112-.6-.121-.253-.007-.431.008-.526.045"/></svg>