<svg xmlns="http://www.w3.org/2000/svg" width="24" height="24" fill="none" stroke="currentColor" stroke-linecap="round" stroke-linejoin="round" stroke-width="3"><path fill="#000" fill-rule="evenodd" stroke="none" d="M1.516.577C.825.841.426 1.502.523 2.218c.055.405.184.606.778 1.217L1.85 4l-.549.565c-.594.611-.723.812-.778 1.217a1.493 1.493 0 0 0 1.695 1.695c.405-.055.606-.184 1.219-.78l.568-.552.362.362.362.362-.208.256a10.2 10.2 0 0 0-1.04 1.626c-1.362 2.721-1.377 5.779-.042 8.509.15.308.391.738.535.955l.262.395-.709.725c-.39.399-.749.79-.798.869-.15.245-.214.481-.215.796-.001.413.11.695.392 1a1.45 1.45 0 0 0 1.318.476c.411-.056.578-.174 1.375-.974.407-.408.749-.742.762-.742s.202.119.421.264c.763.506 1.868.984 2.858 1.237 2.225.569 4.522.304 6.657-.767.479-.24 1.179-.69 1.577-1.014l.255-.207 1.489 1.483c1.267 1.262 1.523 1.498 1.717 1.587a1.503 1.503 0 0 0 2.007-2.011c-.095-.21-1.076-1.202-10.274-10.395C1.635-.49 2.738.551 2.042.532c-.253-.007-.431.008-.526.045m17 1c-.861.33-1.24 1.254-.857 2.091.091.201.329.455 1.773 1.9 1.445 1.444 1.699 1.682 1.9 1.773a1.502 1.502 0 0 0 2.009-2.009c-.091-.201-.325-.451-1.773-1.894-1.93-1.924-1.884-1.889-2.526-1.906-.253-.007-.431.008-.526.045M10.84 3.581c-.625.082-.806.152-1.102.425-.779.719-.587 1.97.375 2.443.265.13.27.131.747.114.264-.01.822-.018 1.24-.019.648 0 .822.013 1.18.092 1.306.286 2.302.81 3.228 1.697.947.907 1.553 2.012 1.857 3.387.081.364.093.523.09 1.2-.001.429-.01.987-.019 1.241-.016.454-.014.464.115.727.164.333.479.631.799.756a1.66 1.66 0 0 0 1.098.002c.386-.153.766-.558.874-.933.137-.471.209-1.559.154-2.326a9.46 9.46 0 0 0-2.675-6.002c-1.516-1.564-3.422-2.509-5.658-2.807-.529-.07-1.761-.069-2.303.003m5.07 14.629c-1.018.799-2.601 1.346-3.902 1.349a6.54 6.54 0 0 1-6.407-5.139c-.379-1.721-.009-3.585 1.004-5.064l.248-.363 4.574 4.574L16 18.14z"/></svg>