<svg xmlns="http://www.w3.org/2000/svg" width="24" height="24" fill="none" stroke="currentColor" stroke-linecap="round" stroke-linejoin="round" stroke-width="3"><path fill="#000" fill-rule="evenodd" stroke="none" d="M7.6 1.521c-3.236.021-3.262.022-3.553.111-1.299.399-2.247 1.446-2.495 2.756-.076.399-.076 14.825 0 15.224.221 1.168 1.036 2.177 2.116 2.617.716.292.076.271 8.332.271 6.835 0 7.443-.005 7.71-.068a3.7 3.7 0 0 0 1.798-1.004c.573-.6.883-1.272.971-2.111.054-.511.054-14.123 0-14.634a3.5 3.5 0 0 0-.568-1.617c-.599-.886-1.584-1.468-2.591-1.531-.485-.03-7.867-.039-11.72-.014M9.481 7.73c0 1.765.017 3.322.037 3.46a1.49 1.49 0 0 0 1.714 1.282c.451-.069.588-.171 1.718-1.288L14 10.146l1.056 1.048c.869.861 1.097 1.066 1.282 1.15a1.5 1.5 0 0 0 2.14-1.144c.026-.162.042-1.464.042-3.47V4.52h.344c.338 0 .346.002.48.136l.136.136v14.402l-.103.122a.6.6 0 0 1-.25.163c-.204.056-14.05.056-14.254 0a.6.6 0 0 1-.25-.163l-.103-.122V4.792l.136-.136.136-.136H9.48zm5.999-1.807v1.404l-.301-.278a3 3 0 0 0-.53-.393c-.209-.106-.265-.116-.649-.116s-.44.01-.649.116a3 3 0 0 0-.53.393l-.301.278V4.52h2.96z"/></svg>