<svg xmlns="http://www.w3.org/2000/svg" width="24" height="24" fill="none" stroke="currentColor" stroke-linecap="round" stroke-linejoin="round" stroke-width="3"><path fill="#000" fill-rule="evenodd" stroke="none" d="M8.44.547a3.56 3.56 0 0 0-2.888 2.841c-.072.378-.072 2.846 0 3.224.221 1.168 1.036 2.177 2.116 2.617.689.281.535.271 4.332.271 3.075 0 3.449-.007 3.71-.068a3.7 3.7 0 0 0 1.798-1.004c.573-.6.883-1.272.971-2.111.051-.487.051-2.147 0-2.634-.154-1.465-1.106-2.614-2.526-3.051l-.293-.09L12.1.536a202 202 0 0 0-3.66.011m6.904 3.109.136.136v2.402l-.103.122a.6.6 0 0 1-.25.163c-.201.056-6.053.056-6.254 0a.6.6 0 0 1-.25-.163l-.103-.122V3.792l.136-.136.136-.136h6.416zM6.44 10.547a3.56 3.56 0 0 0-2.888 2.841c-.072.378-.072 2.846 0 3.224.221 1.168 1.036 2.177 2.116 2.617.707.288.306.271 6.332.271 4.955 0 5.445-.006 5.71-.068 1.537-.359 2.605-1.561 2.769-3.115.051-.487.051-2.147 0-2.634-.154-1.464-1.104-2.612-2.526-3.052l-.293-.09-5.56-.006c-3.058-.003-5.605.003-5.66.012m10.904 3.109.136.136v2.402l-.103.122a.6.6 0 0 1-.25.163c-.203.056-10.051.056-10.254 0a.6.6 0 0 1-.25-.163l-.103-.122v-2.402l.136-.136.136-.136h10.416zM1.516 20.579c-.365.134-.71.443-.864.773a1.5 1.5 0 0 0 1.158 2.13c.331.048 20.049.048 20.38 0a1.494 1.494 0 0 0 1.287-1.7 1.51 1.51 0 0 0-.829-1.126l-.228-.116-10.38-.007c-8.563-.006-10.405.002-10.524.046"/></svg>