<svg xmlns="http://www.w3.org/2000/svg" width="24" height="24" fill="none" stroke="currentColor" stroke-linecap="round" stroke-linejoin="round" stroke-width="3"><path fill="#000" fill-rule="evenodd" stroke="none" d="M21.516.577c-.554.212-.919.67-1 1.254-.022.162-.033 4.293-.027 10.369l.011 10.1.105.248c.25.595.761.938 1.395.938s1.145-.343 1.395-.938l.105-.248.011-10.1c.006-6.076-.005-10.207-.027-10.369A1.5 1.5 0 0 0 22.65.657c-.195-.099-.28-.116-.608-.125-.253-.007-.431.008-.526.045M3.44 2.547A3.56 3.56 0 0 0 .552 5.388c-.072.378-.072 2.846 0 3.224.221 1.168 1.036 2.177 2.116 2.617.712.29.191.271 7.332.271 5.895 0 6.444-.006 6.71-.068 1.537-.359 2.605-1.561 2.769-3.115.051-.487.051-2.147 0-2.634-.154-1.464-1.104-2.611-2.526-3.052l-.293-.09-6.56-.006c-3.608-.002-6.605.003-6.66.012m12.904 3.109.136.136v2.402l-.103.122a.6.6 0 0 1-.25.163c-.204.056-12.05.056-12.254 0a.6.6 0 0 1-.25-.163l-.103-.122V5.792l.136-.136.136-.136h12.416zm-5.904 6.891a3.56 3.56 0 0 0-2.888 2.841c-.072.378-.072 2.846 0 3.224.221 1.168 1.036 2.177 2.116 2.617.68.277.591.271 3.832.271 2.605 0 2.951-.007 3.21-.068a3.7 3.7 0 0 0 1.798-1.004c.573-.6.883-1.272.971-2.111.051-.487.051-2.147 0-2.634-.154-1.465-1.107-2.615-2.526-3.051-.292-.09-.303-.09-3.353-.096-1.683-.004-3.105.001-3.16.011m5.904 3.109.136.136v2.402l-.103.122a.6.6 0 0 1-.25.163c-.2.055-5.054.055-5.254 0a.6.6 0 0 1-.25-.163l-.103-.122v-2.402l.136-.136.136-.136h5.416z"/></svg>