<svg xmlns="http://www.w3.org/2000/svg" width="24" height="24" fill="none" stroke="currentColor" stroke-linecap="round" stroke-linejoin="round" stroke-width="3"><path fill="#000" fill-rule="evenodd" stroke="none" d="m5.14 2.519-3.56.021-.228.116a1.51 1.51 0 0 0-.829 1.126 1.494 1.494 0 0 0 1.287 1.7c.138.02 1.024.037 1.97.037l1.72.001v1.41c0 .983.016 1.492.052 1.682.221 1.168 1.036 2.177 2.116 2.617.689.281.535.271 4.332.271 3.799 0 3.643.01 4.336-.273.783-.319 1.51-1.016 1.842-1.766.294-.665.357-1.196.334-2.791l-.016-1.15 1.722-.001c.947 0 1.834-.017 1.972-.037a1.494 1.494 0 0 0 1.287-1.7 1.51 1.51 0 0 0-.829-1.126l-.228-.116-4.02-.025a1031 1031 0 0 0-13.26.004m10.204 3.137.136.136v2.402l-.103.122a.6.6 0 0 1-.25.163c-.201.056-6.053.056-6.254 0a.6.6 0 0 1-.25-.163l-.103-.122V5.792l.136-.136.136-.136h6.416zM4.14 12.519l-2.56.021-.228.116a1.51 1.51 0 0 0-.829 1.126 1.494 1.494 0 0 0 1.287 1.7c.138.02.574.037.97.037l.72.001v1.41c0 .983.016 1.492.052 1.682.221 1.168 1.036 2.177 2.116 2.617.707.288.306.271 6.332.271 4.955 0 5.445-.006 5.71-.068 1.298-.304 2.276-1.215 2.65-2.47.13-.439.17-1.044.152-2.292l-.016-1.15.722-.001c.397 0 .834-.017.972-.037a1.494 1.494 0 0 0 1.287-1.7 1.51 1.51 0 0 0-.829-1.126l-.228-.116-2.9-.025c-3.328-.028-11.615-.026-15.38.004m13.204 3.137.136.136v2.402l-.103.122a.6.6 0 0 1-.25.163c-.203.056-10.051.056-10.254 0a.6.6 0 0 1-.25-.163l-.103-.122v-2.402l.136-.136.136-.136h10.416z"/></svg>