<svg xmlns="http://www.w3.org/2000/svg" width="24" height="24" fill="none" stroke="currentColor" stroke-linecap="round" stroke-linejoin="round" stroke-width="3"><path fill="#000" fill-rule="evenodd" stroke="none" d="M8.44 2.547a3.56 3.56 0 0 0-2.888 2.841c-.036.19-.052.702-.052 1.701v1.429l-1.96.011-1.96.011-.228.116a1.51 1.51 0 0 0-.829 1.126 1.494 1.494 0 0 0 1.287 1.7c.331.048 20.049.048 20.38 0a1.494 1.494 0 0 0 1.287-1.7 1.51 1.51 0 0 0-.829-1.126l-.228-.116-1.963-.011-1.963-.012.018-1.168c.019-1.268-.021-1.869-.152-2.311-.349-1.171-1.219-2.041-2.407-2.406l-.293-.09-3.56-.006a202 202 0 0 0-3.66.011m6.904 3.109.136.136v2.416l-.136.136-.136.136H8.792l-.136-.136-.136-.136V5.792l.136-.136.136-.136h6.416zM6.44 12.547a3.56 3.56 0 0 0-2.888 2.841c-.036.19-.052.702-.052 1.7v1.428l-.96.012-.96.012-.228.116a1.51 1.51 0 0 0-.829 1.126 1.494 1.494 0 0 0 1.287 1.7c.331.048 20.049.048 20.38 0a1.494 1.494 0 0 0 1.287-1.7 1.51 1.51 0 0 0-.829-1.126l-.228-.116-.963-.013-.963-.012.018-1.168c.019-1.266-.021-1.867-.152-2.309-.349-1.171-1.217-2.039-2.407-2.407l-.293-.09-5.56-.006c-3.058-.003-5.605.003-5.66.012m10.904 3.109.136.136v2.416l-.136.136-.136.136H6.792l-.136-.136-.136-.136v-2.416l.136-.136.136-.136h10.416z"/></svg>