<svg xmlns="http://www.w3.org/2000/svg" width="24" height="24" fill="none" stroke="currentColor" stroke-linecap="round" stroke-linejoin="round" stroke-width="3"><path fill="#000" fill-rule="evenodd" stroke="none" d="M2.516.577c-.554.212-.919.67-1 1.254-.022.162-.033 4.293-.027 10.369L1.5 22.3l.105.248c.25.595.761.938 1.395.938.635 0 1.15-.346 1.393-.938.097-.235.103-.295.119-1.148l.017-.9 1.446-.001c1.204-.001 1.493-.012 1.735-.068a3.7 3.7 0 0 0 1.798-1.003c.573-.6.883-1.272.971-2.111.053-.506.053-10.128 0-10.634-.154-1.465-1.113-2.622-2.526-3.05-.277-.083-.38-.089-1.863-.103l-1.57-.015-.001-.728c0-.4-.017-.839-.037-.977A1.51 1.51 0 0 0 3.65.657C3.455.558 3.37.541 3.042.532c-.253-.007-.431.008-.526.045m18 0a1.54 1.54 0 0 0-.998 1.233c-.02.138-.037 1.027-.037 1.977l-.001 1.728-1.57.015c-1.483.014-1.586.02-1.863.103a3.57 3.57 0 0 0-2.495 2.755c-.075.393-.075 6.831 0 7.224.221 1.168 1.036 2.177 2.116 2.617.623.254.752.269 2.359.27l1.448.001.012 1.9.013 1.9.105.248c.25.595.761.938 1.395.938s1.145-.343 1.395-.938l.105-.248.011-10.1c.006-6.076-.005-10.207-.027-10.369A1.5 1.5 0 0 0 21.65.657c-.195-.099-.28-.116-.608-.125-.253-.007-.431.008-.526.045M7.344 6.656l.136.136v10.402l-.103.122a.6.6 0 0 1-.25.163c-.192.053-2.062.053-2.254 0a.6.6 0 0 1-.25-.163l-.103-.122V6.792l.136-.136.136-.136h2.416zm12 2 .136.136v6.402l-.103.122a.6.6 0 0 1-.25.163c-.192.053-2.062.053-2.254 0a.6.6 0 0 1-.25-.163l-.103-.122V8.792l.136-.136.136-.136h2.416z"/></svg>