<svg xmlns="http://www.w3.org/2000/svg" width="24" height="24" fill="none" stroke="currentColor" stroke-linecap="round" stroke-linejoin="round" stroke-width="3"><path fill="#000" fill-rule="evenodd" stroke="none" d="M2.516 4.579c-.365.134-.71.443-.864.773a1.5 1.5 0 0 0 1.158 2.13c.33.048 18.05.048 18.38 0a1.494 1.494 0 0 0 1.287-1.7 1.51 1.51 0 0 0-.829-1.126l-.228-.116-9.38-.007c-7.731-.006-9.405.002-9.524.046m4 5.999c-.365.136-.71.444-.864.774a1.5 1.5 0 0 0 1.158 2.13c.327.047 10.053.047 10.38 0a1.494 1.494 0 0 0 1.287-1.7 1.51 1.51 0 0 0-.829-1.126l-.228-.116-5.38-.007c-4.405-.007-5.406.002-5.524.045m-2 6.001c-.365.134-.71.443-.864.773a1.5 1.5 0 0 0 1.158 2.13c.329.048 14.051.048 14.38 0a1.494 1.494 0 0 0 1.287-1.7 1.51 1.51 0 0 0-.829-1.126l-.228-.116-7.38-.007c-6.068-.006-7.406.002-7.524.046"/></svg>