<svg xmlns="http://www.w3.org/2000/svg" width="24" height="24" fill="none" stroke="currentColor" stroke-linecap="round" stroke-linejoin="round" stroke-width="3"><path fill="#000" fill-rule="evenodd" stroke="none" d="M3.516.577c-.554.212-.919.67-1 1.254-.022.162-.033 4.293-.027 10.369L2.5 22.3l.105.248c.25.595.761.938 1.395.938.635 0 1.15-.346 1.393-.938.097-.235.103-.295.119-1.148l.017-.9 1.446-.001c1.204-.001 1.493-.012 1.735-.068a3.7 3.7 0 0 0 1.798-1.003c.573-.6.883-1.272.971-2.111.053-.506.053-10.128 0-10.634-.154-1.465-1.113-2.622-2.526-3.05-.277-.083-.38-.089-1.863-.103l-1.57-.015-.001-.728c0-.4-.017-.839-.037-.977A1.51 1.51 0 0 0 4.65.657C4.455.558 4.37.541 4.042.532c-.253-.007-.431.008-.526.045m10 0c-.554.212-.919.67-1 1.254-.022.162-.033 4.293-.027 10.369l.011 10.1.105.248c.25.595.761.938 1.395.938s1.145-.343 1.395-.938l.105-.248.013-1.9.012-1.9 1.448-.001c1.206-.001 1.495-.012 1.737-.068a3.7 3.7 0 0 0 1.798-1.003c.573-.6.883-1.272.971-2.111.052-.495.052-6.139 0-6.634-.154-1.465-1.113-2.622-2.526-3.05-.277-.083-.38-.089-1.863-.103l-1.57-.015-.001-1.728c0-.95-.017-1.839-.037-1.977A1.51 1.51 0 0 0 14.65.657c-.195-.099-.28-.116-.608-.125q-.382-.01-.526.045M8.344 6.656l.136.136v10.402l-.103.122a.6.6 0 0 1-.25.163c-.192.053-2.062.053-2.254 0a.6.6 0 0 1-.25-.163l-.103-.122V6.792l.136-.136.136-.136h2.416zm10 2 .136.136v6.402l-.103.122a.6.6 0 0 1-.25.163c-.192.053-2.062.053-2.254 0a.6.6 0 0 1-.25-.163l-.103-.122V8.792l.136-.136.136-.136h2.416z"/></svg>