<svg xmlns="http://www.w3.org/2000/svg" width="24" height="24" fill="none" stroke="currentColor" stroke-linecap="round" stroke-linejoin="round" stroke-width="3"><path fill="#000" fill-rule="evenodd" stroke="none" d="M11.516.577c-.554.212-.919.67-1 1.254-.022.162-.033 4.293-.027 10.369l.011 10.1.105.248c.25.595.761.938 1.395.938s1.145-.343 1.395-.938l.105-.248.011-10.1c.006-6.076-.005-10.207-.027-10.369A1.5 1.5 0 0 0 12.65.657c-.195-.099-.28-.116-.608-.125q-.382-.01-.526.045M3.44 2.547a3.58 3.58 0 0 0-2.372 1.556c-.326.504-.485.978-.553 1.645-.061.6-.022 2.624.058 2.973.257 1.133 1.049 2.081 2.091 2.506.641.262.655.263 3.038.282 1.317.011 2.274.002 2.449-.022.374-.052.662-.19.904-.432.726-.726.523-1.928-.407-2.399L8.42 8.54l-2.28-.02c-2.432-.021-2.372-.016-2.537-.225-.08-.102-.083-.151-.083-1.304V5.792l.136-.136.136-.136 2.074-.001c1.141 0 2.186-.017 2.324-.037a1.494 1.494 0 0 0 1.287-1.7 1.51 1.51 0 0 0-.829-1.126L8.42 2.54l-2.44-.005c-1.342-.003-2.485.003-2.54.012m12.076.031c-.53.198-.921.672-.993 1.204a1.494 1.494 0 0 0 1.287 1.7c.138.02 1.183.037 2.324.037l2.074.001.136.136.136.136v1.199c0 1.153-.003 1.202-.083 1.304-.165.209-.105.204-2.537.225l-2.28.02-.228.116c-.93.471-1.133 1.673-.407 2.399.242.242.53.38.904.432.175.024 1.132.033 2.449.022 2.383-.019 2.397-.02 3.038-.282a3.6 3.6 0 0 0 1.575-1.293 3.5 3.5 0 0 0 .568-1.617c.051-.487.051-2.147 0-2.634-.154-1.465-1.109-2.617-2.526-3.051-.289-.088-.331-.089-2.793-.099-2.019-.007-2.528.001-2.644.045M6.44 12.546a3.54 3.54 0 0 0-2.816 2.542c-.117.408-.154 1.037-.132 2.232.015.796.039 1.219.081 1.401.257 1.133 1.049 2.081 2.091 2.506.477.195.785.25 1.536.278 1.058.039 1.465-.06 1.855-.45.726-.726.523-1.928-.407-2.399-.223-.113-.247-.117-1.008-.137-.822-.022-.889-.036-1.037-.224-.08-.102-.083-.151-.083-1.304v-1.199l.136-.136.136-.136.574-.001c.979-.001 1.32-.095 1.689-.464.726-.726.523-1.928-.407-2.399l-.228-.116-.94-.006c-.517-.003-.985.002-1.04.012m9.076.031c-1.049.399-1.349 1.701-.571 2.478.369.369.71.463 1.689.464l.574.001.136.136.136.136v1.199c0 1.589.068 1.497-1.12 1.528-.762.021-.785.024-1.008.137-.93.471-1.133 1.673-.407 2.399.39.39.797.489 1.855.45.75-.027 1.059-.083 1.533-.276 1.195-.488 2.007-1.589 2.146-2.912.051-.487.051-2.147 0-2.634-.132-1.255-.824-2.255-1.946-2.817-.568-.284-.754-.317-1.873-.331-.776-.01-1.032-.001-1.144.042"/></svg>