<svg xmlns="http://www.w3.org/2000/svg" width="24" height="24" fill="none" stroke="currentColor" stroke-linecap="round" stroke-linejoin="round" stroke-width="3"><path fill="#000" fill-rule="evenodd" stroke="none" d="M1.516.577c-.554.212-.919.67-1 1.254C.494 1.993.483 6.124.489 12.2L.5 22.3l.105.248c.25.595.761.938 1.395.938s1.145-.343 1.395-.938L3.5 22.3l.011-10.1c.006-6.076-.005-10.207-.027-10.369A1.5 1.5 0 0 0 2.65.657C2.455.558 2.37.541 2.042.532c-.253-.007-.431.008-.526.045m5.924 1.97a3.56 3.56 0 0 0-2.888 2.841c-.072.378-.072 2.846 0 3.224.221 1.168 1.036 2.177 2.116 2.617.712.29.191.271 7.332.271 5.895 0 6.444-.006 6.71-.068 1.297-.303 2.276-1.215 2.649-2.468.118-.396.16-.91.16-1.964s-.042-1.568-.16-1.964C23.011 3.867 22.143 3 20.953 2.631l-.293-.09-6.56-.006c-3.608-.002-6.605.003-6.66.012m12.904 3.109.136.136v2.402l-.103.122a.6.6 0 0 1-.25.163c-.204.056-12.05.056-12.254 0a.6.6 0 0 1-.25-.163l-.103-.122V5.792l.136-.136.136-.136h12.416zM7.44 12.547a3.56 3.56 0 0 0-2.888 2.841c-.072.378-.072 2.846 0 3.224.221 1.168 1.036 2.177 2.116 2.617.68.277.591.271 3.832.271 2.605 0 2.951-.007 3.21-.068a3.7 3.7 0 0 0 1.798-1.004c.573-.6.883-1.272.971-2.111.051-.487.051-2.147 0-2.634-.154-1.465-1.107-2.615-2.526-3.051-.292-.09-.303-.09-3.353-.096-1.683-.004-3.105.001-3.16.011m5.904 3.109.136.136v2.402l-.103.122a.6.6 0 0 1-.25.163c-.2.055-5.054.055-5.254 0a.6.6 0 0 1-.25-.163l-.103-.122v-2.402l.136-.136.136-.136h5.416z"/></svg>