<svg xmlns="http://www.w3.org/2000/svg" width="24" height="24" fill="none" stroke="currentColor" stroke-linecap="round" stroke-linejoin="round" stroke-width="3"><path fill="#000" fill-rule="evenodd" stroke="none" d="m5.14 1.519-3.56.021-.228.116a1.51 1.51 0 0 0-.829 1.126 1.494 1.494 0 0 0 1.287 1.7c.138.02 1.024.037 1.97.037l1.72.001v1.41c0 .983.016 1.492.052 1.682.221 1.168 1.036 2.177 2.116 2.617.689.281.535.271 4.332.271 3.799 0 3.643.01 4.336-.273.783-.319 1.51-1.016 1.842-1.766.294-.665.357-1.196.334-2.791l-.016-1.15 1.722-.001c.947 0 1.834-.017 1.972-.037a1.494 1.494 0 0 0 1.287-1.7 1.51 1.51 0 0 0-.829-1.126l-.228-.116-4.02-.025a1031 1031 0 0 0-13.26.004m10.204 3.137.136.136v2.402l-.103.122a.6.6 0 0 1-.25.163c-.201.056-6.053.056-6.254 0a.6.6 0 0 1-.25-.163l-.103-.122V4.792l.136-.136.136-.136h6.416zM6.44 13.547a3.56 3.56 0 0 0-2.888 2.841c-.036.19-.052.702-.052 1.7v1.428l-.96.012-.96.012-.228.116a1.51 1.51 0 0 0-.829 1.126 1.494 1.494 0 0 0 1.287 1.7c.331.048 20.049.048 20.38 0a1.494 1.494 0 0 0 1.287-1.7 1.51 1.51 0 0 0-.829-1.126l-.228-.116-.963-.013-.963-.012.018-1.168c.019-1.266-.021-1.867-.152-2.309-.349-1.171-1.217-2.039-2.407-2.407l-.293-.09-5.56-.006c-3.058-.003-5.605.003-5.66.012m10.904 3.109.136.136v2.416l-.136.136-.136.136H6.792l-.136-.136-.136-.136v-2.416l.136-.136.136-.136h10.416z"/></svg>