<svg xmlns="http://www.w3.org/2000/svg" width="24" height="24" fill="none" stroke="currentColor" stroke-linecap="round" stroke-linejoin="round" stroke-width="3"><path fill="#000" fill-rule="evenodd" stroke="none" d="M8.44 2.547c-1.415.247-2.58 1.352-2.858 2.713l-.049.24-1.976.02-1.977.02-.228.116a1.51 1.51 0 0 0-.829 1.126 1.494 1.494 0 0 0 1.287 1.7c.138.02 1.035.037 1.995.037l1.744.001.024.173c.044.319.274.872.509 1.224a3.53 3.53 0 0 0 1.586 1.312c.689.281.535.271 4.332.271 3.799 0 3.643.01 4.336-.273.783-.319 1.51-1.016 1.842-1.766.12-.271.262-.735.262-.855V8.52l1.75-.001c.962 0 1.862-.017 2-.037a1.494 1.494 0 0 0 1.287-1.7 1.51 1.51 0 0 0-.829-1.126l-.228-.116-1.98-.02-1.98-.02-.013-.1a4 4 0 0 0-.09-.366c-.339-1.159-1.218-2.037-2.404-2.402l-.293-.09-3.56-.006a202 202 0 0 0-3.66.011m6.904 3.109.136.136v2.402l-.103.122a.6.6 0 0 1-.25.163c-.201.056-6.053.056-6.254 0a.6.6 0 0 1-.25-.163l-.103-.122V5.792l.136-.136.136-.136h6.416zM6.44 12.547c-1.411.243-2.58 1.353-2.858 2.713l-.049.24-.976.02-.977.02-.228.116a1.51 1.51 0 0 0-.829 1.126 1.494 1.494 0 0 0 1.287 1.7c.138.02.585.037.995.037l.744.001.024.173c.044.319.274.872.509 1.224a3.53 3.53 0 0 0 1.586 1.312c.707.288.306.271 6.332.271 4.955 0 5.445-.006 5.71-.068 1.298-.304 2.276-1.215 2.649-2.47a2 2 0 0 0 .081-.356c0-.085.01-.086.75-.087.412 0 .862-.017 1-.037a1.494 1.494 0 0 0 1.287-1.7 1.51 1.51 0 0 0-.829-1.126l-.228-.116-.98-.02-.98-.02-.013-.1a4 4 0 0 0-.09-.366c-.339-1.159-1.216-2.035-2.404-2.403l-.293-.09-5.56-.006c-3.058-.003-5.605.003-5.66.012m10.904 3.109.136.136v2.402l-.103.122a.6.6 0 0 1-.25.163c-.203.056-10.051.056-10.254 0a.6.6 0 0 1-.25-.163l-.103-.122v-2.402l.136-.136.136-.136h10.416z"/></svg>