<svg xmlns="http://www.w3.org/2000/svg" width="24" height="24" fill="none" stroke="currentColor" stroke-linecap="round" stroke-linejoin="round" stroke-width="3"><path fill="#000" fill-rule="evenodd" stroke="none" d="M5.44.546a3.56 3.56 0 0 0-2.888 2.842c-.076.398-.076 12.826 0 13.224.221 1.168 1.036 2.177 2.116 2.617.621.253.755.269 2.332.269 1.182 0 1.469-.012 1.71-.067a3.7 3.7 0 0 0 1.798-1.003c.573-.6.883-1.272.971-2.111.053-.509.053-12.125 0-12.634-.154-1.465-1.113-2.622-2.526-3.05C8.674.549 8.583.544 7.1.536a45 45 0 0 0-1.66.01m2.904 3.11.136.136v12.402l-.103.122a.6.6 0 0 1-.25.163c-.192.053-2.062.053-2.254 0a.6.6 0 0 1-.25-.163l-.103-.122V3.792l.136-.136.136-.136h2.416zm7.096 3.89a3.56 3.56 0 0 0-2.888 2.842c-.075.391-.075 5.833 0 6.224.221 1.168 1.036 2.177 2.116 2.617.621.253.755.269 2.332.269 1.182 0 1.469-.012 1.71-.067 1.531-.352 2.605-1.56 2.769-3.114.052-.49.052-5.144 0-5.634-.154-1.465-1.113-2.622-2.526-3.05-.279-.084-.37-.089-1.853-.097a45 45 0 0 0-1.66.01m2.904 3.11.136.136v5.402l-.103.122a.6.6 0 0 1-.25.163c-.192.053-2.062.053-2.254 0a.6.6 0 0 1-.25-.163l-.103-.122v-5.402l.136-.136.136-.136h2.416zM1.516 20.579c-.365.134-.71.443-.864.773a1.5 1.5 0 0 0 1.158 2.13c.331.048 20.049.048 20.38 0a1.494 1.494 0 0 0 1.287-1.7 1.51 1.51 0 0 0-.829-1.126l-.228-.116-10.38-.007c-8.563-.006-10.405.002-10.524.046"/></svg>