<svg xmlns="http://www.w3.org/2000/svg" width="24" height="24" fill="none" stroke="currentColor" stroke-linecap="round" stroke-linejoin="round" stroke-width="3"><path fill="#000" fill-rule="evenodd" stroke="none" d="M5.44.546a3.56 3.56 0 0 0-2.888 2.842c-.039.202-.052.866-.052 2.592V8.3l.105.248c.25.595.761.938 1.395.938s1.145-.343 1.395-.938L5.5 8.3l.02-2.273.02-2.274.131-.116.13-.117h2.398l.13.117.131.116.02 2.274L8.5 8.3l.105.248c.25.595.761.938 1.395.938s1.145-.343 1.395-.938L11.5 8.3l.013-2.074c.013-2.183-.013-2.715-.153-3.188A3.54 3.54 0 0 0 8.953.633C8.674.549 8.583.544 7.1.536a45 45 0 0 0-1.66.01m10 3a3.55 3.55 0 0 0-2.816 2.542c-.1.352-.156 1.035-.133 1.655.017.477.035.601.119.808.237.586.756.935 1.39.935.635 0 1.151-.347 1.392-.938.093-.227.103-.311.12-1.007l.019-.76.13-.13.131-.131h2.416l.131.131.13.13.019.76c.017.696.027.78.12 1.007.241.591.757.938 1.392.938s1.153-.349 1.39-.935c.084-.207.102-.331.119-.808.053-1.458-.228-2.358-.987-3.158a3.7 3.7 0 0 0-1.569-.952c-.279-.084-.37-.089-1.853-.097a45 45 0 0 0-1.66.01M1.516 10.579c-.365.134-.71.443-.864.773a1.5 1.5 0 0 0 1.158 2.13c.331.048 20.049.048 20.38 0a1.494 1.494 0 0 0 1.287-1.7 1.51 1.51 0 0 0-.829-1.126l-.228-.116-10.38-.007c-8.563-.006-10.405.002-10.524.046m2 3.998c-.371.142-.711.446-.864.774-.164.35-.18.641-.161 2.947.014 1.767.029 2.21.079 2.423a3.58 3.58 0 0 0 2.72 2.71c.427.098 2.993.098 3.42 0a3.7 3.7 0 0 0 1.798-1.003c.573-.6.883-1.272.971-2.111.05-.471.052-4.168.003-4.507a1.51 1.51 0 0 0-.834-1.154c-.208-.106-.264-.116-.648-.116s-.44.01-.648.116a1.51 1.51 0 0 0-.834 1.154c-.02.138-.037 1.18-.037 2.317l-.001 2.067-.103.122a.6.6 0 0 1-.25.163c-.192.053-2.062.053-2.254 0a.6.6 0 0 1-.25-.163l-.103-.122-.001-2.067c0-1.137-.017-2.179-.037-2.317a1.51 1.51 0 0 0-.832-1.153c-.195-.099-.28-.116-.608-.125-.253-.007-.431.008-.526.045m10 0c-.561.215-.917.667-1.004 1.274-.052.363-.013 1.518.064 1.87.29 1.344 1.343 2.395 2.714 2.71.427.098 2.993.098 3.42 0 1.29-.296 2.276-1.214 2.649-2.467.145-.488.207-1.572.123-2.154a1.51 1.51 0 0 0-.834-1.154c-.208-.106-.264-.116-.648-.116s-.44.01-.648.116c-.295.149-.577.429-.7.694-.129.276-.17.587-.171 1.277-.001.55-.004.571-.104.689a.6.6 0 0 1-.25.163c-.192.053-2.062.053-2.254 0a.6.6 0 0 1-.25-.163c-.1-.118-.103-.139-.104-.689-.001-.69-.042-1.001-.171-1.277-.123-.265-.405-.545-.698-.693-.195-.099-.28-.116-.608-.125q-.382-.01-.526.045"/></svg>