<svg xmlns="http://www.w3.org/2000/svg" width="24" height="24" fill="none" stroke="currentColor" stroke-linecap="round" stroke-linejoin="round" stroke-width="3"><path fill="#000" fill-rule="evenodd" stroke="none" d="M21.516.577c-.554.212-.919.67-1 1.254-.022.162-.033 4.293-.027 10.369l.011 10.1.105.248c.25.595.761.938 1.395.938s1.145-.343 1.395-.938l.105-.248.011-10.1c.006-6.076-.005-10.207-.027-10.369A1.5 1.5 0 0 0 22.65.657c-.195-.099-.28-.116-.608-.125-.253-.007-.431.008-.526.045M3.44 3.546A3.56 3.56 0 0 0 .552 6.388c-.076.397-.076 10.827 0 11.224.221 1.168 1.036 2.177 2.116 2.617.621.253.755.269 2.332.269 1.182 0 1.469-.012 1.71-.067a3.7 3.7 0 0 0 1.798-1.003c.573-.6.883-1.272.971-2.111.053-.506.053-10.128 0-10.634-.154-1.465-1.113-2.622-2.526-3.05-.279-.084-.37-.089-1.853-.097a45 45 0 0 0-1.66.01m10 2a3.56 3.56 0 0 0-2.888 2.842c-.075.393-.075 6.831 0 7.224.221 1.168 1.036 2.177 2.116 2.617.621.253.755.269 2.332.269 1.182 0 1.469-.012 1.71-.067a3.7 3.7 0 0 0 1.798-1.003c.573-.6.883-1.272.971-2.111.052-.495.052-6.139 0-6.634-.154-1.465-1.113-2.622-2.526-3.05-.279-.084-.37-.089-1.853-.097a45 45 0 0 0-1.66.01m-7.096 1.11.136.136v10.402l-.103.122a.6.6 0 0 1-.25.163c-.192.053-2.062.053-2.254 0a.6.6 0 0 1-.25-.163l-.103-.122V6.792l.136-.136.136-.136h2.416zm10 2 .136.136v6.402l-.103.122a.6.6 0 0 1-.25.163c-.192.053-2.062.053-2.254 0a.6.6 0 0 1-.25-.163l-.103-.122V8.792l.136-.136.136-.136h2.416z"/></svg>