<svg xmlns="http://www.w3.org/2000/svg" width="24" height="24" fill="none" stroke="currentColor" stroke-linecap="round" stroke-linejoin="round" stroke-width="3"><path fill="#000" fill-rule="evenodd" stroke="none" d="M9.516.577c-.371.142-.711.446-.864.773-.135.289-.17.587-.171 1.437l-.001.728-1.57.015c-1.483.014-1.586.02-1.863.103a3.57 3.57 0 0 0-2.495 2.755c-.076.397-.076 10.827 0 11.224.221 1.168 1.036 2.177 2.116 2.617.623.254.753.269 2.357.27l1.446.001.017.9c.016.853.022.913.119 1.148.243.592.758.938 1.393.938.634 0 1.145-.343 1.395-.938l.105-.248.011-10.1c.006-6.076-.005-10.207-.027-10.369A1.5 1.5 0 0 0 10.65.657c-.195-.099-.28-.116-.608-.125q-.382-.01-.526.045m10 0a1.54 1.54 0 0 0-.998 1.233c-.02.138-.037 1.027-.037 1.977l-.001 1.728-1.57.015c-1.483.014-1.586.02-1.863.103a3.57 3.57 0 0 0-2.495 2.755c-.075.393-.075 6.831 0 7.224.221 1.168 1.036 2.177 2.116 2.617.623.254.752.269 2.359.27l1.448.001.012 1.9.013 1.9.105.248c.25.595.761.938 1.395.938s1.145-.343 1.395-.938l.105-.248.011-10.1c.006-6.076-.005-10.207-.027-10.369A1.5 1.5 0 0 0 20.65.657c-.195-.099-.28-.116-.608-.125-.253-.007-.431.008-.526.045M8.344 6.656l.136.136v10.402l-.103.122a.6.6 0 0 1-.25.163c-.192.053-2.062.053-2.254 0a.6.6 0 0 1-.25-.163l-.103-.122V6.792l.136-.136.136-.136h2.416zm10 2 .136.136v6.402l-.103.122a.6.6 0 0 1-.25.163c-.192.053-2.062.053-2.254 0a.6.6 0 0 1-.25-.163l-.103-.122V8.792l.136-.136.136-.136h2.416z"/></svg>