<svg xmlns="http://www.w3.org/2000/svg" width="24" height="24" fill="none" stroke="currentColor" stroke-linecap="round" stroke-linejoin="round" stroke-width="3"><path fill="#000" fill-rule="evenodd" stroke="none" d="M6.516.577c-.371.142-.711.446-.864.773-.135.289-.17.587-.171 1.45l-.001.741-.314.07c-1.291.29-2.358 1.424-2.614 2.777-.076.397-.076 10.827 0 11.224a3.62 3.62 0 0 0 1.525 2.307c.302.204.841.432 1.165.494l.229.044.017.921c.016.877.022.934.119 1.17.244.592.758.938 1.393.938s1.149-.346 1.393-.938c.097-.236.103-.293.119-1.17l.017-.921.229-.044c.583-.111 1.3-.514 1.75-.985.573-.6.883-1.272.971-2.111.053-.506.053-10.128 0-10.634-.087-.83-.396-1.506-.957-2.098-.432-.456-1.101-.842-1.688-.974l-.314-.07-.001-.741c0-.407-.017-.852-.037-.99A1.51 1.51 0 0 0 7.65.657C7.455.558 7.37.541 7.042.532q-.382-.01-.526.045m10 0a1.54 1.54 0 0 0-.998 1.233c-.02.138-.037 1.033-.037 1.99l-.001 1.741-.314.07c-1.291.29-2.358 1.424-2.614 2.777-.075.393-.075 6.831 0 7.224a3.62 3.62 0 0 0 1.525 2.307c.303.205.841.432 1.167.494l.231.044.012 1.922.013 1.921.105.248c.25.595.761.938 1.395.938s1.145-.343 1.395-.938l.105-.248.013-1.921.012-1.922.231-.044c.585-.111 1.302-.514 1.752-.985.573-.6.883-1.272.971-2.111.052-.495.052-6.139 0-6.634-.087-.83-.396-1.506-.957-2.098-.432-.456-1.101-.842-1.688-.974l-.314-.07-.001-1.741c0-.957-.017-1.852-.037-1.99A1.51 1.51 0 0 0 17.65.657c-.195-.099-.28-.116-.608-.125-.253-.007-.431.008-.526.045M8.344 6.656l.136.136v10.402l-.103.122a.6.6 0 0 1-.25.161c-.191.05-2.063.05-2.254 0a.6.6 0 0 1-.25-.161l-.103-.122V6.792l.136-.136.136-.136h2.416zm10 2 .136.136v6.402l-.103.122a.6.6 0 0 1-.25.161c-.191.05-2.063.05-2.254 0a.6.6 0 0 1-.25-.161l-.103-.122V8.792l.136-.136.136-.136h2.416z"/></svg>