<svg xmlns="http://www.w3.org/2000/svg" width="24" height="24" fill="none" stroke="currentColor" stroke-linecap="round" stroke-linejoin="round" stroke-width="3"><path fill="#000" fill-rule="evenodd" stroke="none" d="M3.44 2.547A3.56 3.56 0 0 0 .552 5.388c-.078.41-.076 11.856.002 12.172a2.61 2.61 0 0 0 1.806 1.862c.123.033.498.071.847.085l.627.025.191.302a3.6 3.6 0 0 0 1.639 1.393c.455.186.835.26 1.336.26s.881-.074 1.336-.26a3.6 3.6 0 0 0 1.643-1.399l.195-.308h3.652l.195.308a3.6 3.6 0 0 0 1.643 1.399c.455.186.835.26 1.336.26s.881-.074 1.336-.26a3.6 3.6 0 0 0 1.639-1.393l.191-.302.627-.025c.349-.014.724-.052.847-.085.679-.185 1.302-.696 1.594-1.31.267-.561.266-.552.266-2.752 0-1.796-.007-2.004-.073-2.24-.208-.74-.672-1.311-1.327-1.632-.132-.065-.642-.251-1.134-.413l-.894-.295-.803-1.6-.803-1.599-.323-.324c-.241-.241-.399-.36-.623-.469-.457-.223-.689-.268-1.388-.268h-.612l-.001-.23c-.001-.386-.075-.969-.16-1.254-.348-1.169-1.218-2.038-2.406-2.405l-.293-.09-4.56-.005c-2.508-.004-4.605.002-4.66.011m8.904 3.109.136.136V16.52h-2.275l-.226-.346c-.508-.78-1.193-1.296-2.047-1.544-.264-.076-.407-.09-.932-.09s-.668.014-.932.09q-1.283.373-2.047 1.544c-.212.324-.235.346-.364.346H3.52V5.792l.136-.136.136-.136h8.416zm-4.828.921c-.371.142-.711.446-.864.773-.106.228-.17.576-.171.937l-.001.226-.45.014c-.402.012-.474.025-.678.129-.93.471-1.133 1.673-.407 2.399.315.316.731.462 1.319.464l.204.001.027.405c.039.599.179.904.576 1.25.473.413 1.385.413 1.858 0 .397-.346.537-.651.576-1.25l.027-.405.204-.001c.588-.002 1.004-.148 1.319-.464.726-.726.522-1.929-.407-2.399-.203-.103-.277-.117-.678-.13l-.45-.015-.001-.225c-.003-.811-.28-1.331-.869-1.629-.195-.099-.28-.116-.608-.125q-.382-.01-.526.045m9.299 4.413c.405.808.818 1.581.919 1.718.203.276.499.526.804.681.111.057.589.233 1.062.391l.86.287.011 1.226.01 1.227h-.138c-.129 0-.152-.022-.364-.346-.504-.773-1.193-1.296-2.026-1.537-.639-.184-1.603-.14-2.203.101l-.23.093V9.52h.56zm-9.471 6.666c.119.119.136.162.136.337 0 .242-.129.424-.343.483a.5.5 0 0 1-.514-.16c-.081-.096-.103-.166-.103-.323 0-.175.017-.218.136-.337s.161-.136.344-.136.224.016.344.136m10 0c.119.119.136.162.136.337 0 .242-.129.424-.343.483a.5.5 0 0 1-.514-.16c-.081-.096-.103-.166-.103-.323 0-.175.017-.218.136-.337s.161-.136.344-.136.224.016.344.136"/></svg>