<svg xmlns="http://www.w3.org/2000/svg" width="24" height="24" fill="none" stroke="currentColor" stroke-linecap="round" stroke-linejoin="round" stroke-width="3"><path fill="#000" fill-rule="evenodd" stroke="none" d="M9.277 2.558c-1.471.269-2.667 1.161-3.316 2.474-.314.637-.451 1.258-.45 2.048.001.888.148 1.701.495 2.734.109.327.193.598.187.603l-.293.204c-.403.28-1.161 1.055-1.427 1.459-.661 1.002-.96 2.06-.96 3.398 0 1.656.593 3.095 1.754 4.255a5.87 5.87 0 0 0 2.653 1.55c1.339.372 3.202.237 4.795-.346.567-.208 1.526-.691 2-1.008l.414-.277.626.356c.944.537 2.648 1.384 2.927 1.456.452.116 1.017-.053 1.368-.408a1.49 1.49 0 0 0 .288-1.717c-.166-.351-.408-.549-1.058-.865a46 46 0 0 1-1.288-.66l-.708-.378.213-.328a9.5 9.5 0 0 0 1.301-3.167c.047-.219.091-.403.096-.409s.131-.027.278-.048c.857-.121 1.42-.856 1.305-1.702a1.51 1.51 0 0 0-.829-1.126l-.228-.116-.96-.02a56 56 0 0 0-1.92 0l-.96.02-.228.116a1.5 1.5 0 0 0-.701 1.992c.178.383.627.741 1.022.817.129.024.133.03.107.17-.078.419-.471 1.319-.792 1.815-.124.193-.243.35-.263.35-.069 0-1.141-.826-1.725-1.329-.7-.603-1.732-1.654-2.21-2.25a6 6 0 0 1-.35-.463c0-.015.22-.122.49-.24 2.174-.946 3.21-2.055 3.511-3.757.064-.361.055-1.201-.015-1.565a4.6 4.6 0 0 0-1.021-2.126 4.6 4.6 0 0 0-2.246-1.412c-.323-.09-.476-.108-1.039-.12-.363-.007-.742.002-.843.02m1.376 3.1c.272.138.573.445.709.722.086.175.098.254.098.64 0 .374-.013.464-.086.6-.216.402-.764.775-1.754 1.196-.343.145-.64.264-.66.264-.046 0-.252-.64-.347-1.081a4.2 4.2 0 0 1-.073-.879c0-.493.009-.557.098-.74.173-.352.515-.664.878-.803q.144-.055.526-.045c.329.009.413.026.611.126m-2.642 7.876c1.066 1.419 2.584 2.93 4.104 4.085l.256.194-.176.088c-.383.193-1.095.418-1.595.505-.411.071-1.123.105-1.447.069-1.248-.14-2.319-1.104-2.578-2.321-.077-.361-.053-1.296.041-1.634.122-.435.337-.801.666-1.13.169-.17.326-.31.348-.31s.194.204.381.454"/></svg>