<svg xmlns="http://www.w3.org/2000/svg" width="24" height="24" fill="none" stroke="currentColor" stroke-linecap="round" stroke-linejoin="round" stroke-width="3"><path fill="#000" fill-rule="evenodd" stroke="none" d="M4.44 4.545c-1.488.286-2.618 1.392-2.882 2.819-.134.727-.007 1.734.346 2.743l.143.408-.318.36c-.766.868-1.113 1.657-1.204 2.738a4.56 4.56 0 0 0 .452 2.407c.256.522.499.853.927 1.26a3.9 3.9 0 0 0 1.148.781c.651.307 1.206.426 1.994.425a6.55 6.55 0 0 0 2.907-.682c.135-.068.262-.124.283-.124.022 0 .269.147.55.327.645.413.825.484 1.214.483 1.253-.003 1.943-1.447 1.16-2.427-.106-.133-.463-.414-.673-.528a.6.6 0 0 1 .085-.163c.549-.869.906-2.132.913-3.235.003-.359-.012-.479-.085-.67q-.2-.528-.76-.815c-.2-.102-.259-.112-.64-.112-.384 0-.44.01-.648.116-.504.255-.778.667-.838 1.26-.078.774-.122 1.023-.237 1.341-.206.567-.141.578-.868-.157-.591-.597-1.367-1.506-1.368-1.603-.001-.023.201-.179.449-.346.624-.421 1.016-.767 1.306-1.152.409-.543.618-1.052.679-1.657.147-1.451-.613-2.811-1.942-3.476-.479-.24-.797-.313-1.433-.327a7 7 0 0 0-.66.006m12 0c-1.488.286-2.618 1.392-2.882 2.819-.134.727-.007 1.734.346 2.743l.143.408-.318.36c-.766.868-1.113 1.657-1.204 2.738a4.56 4.56 0 0 0 .452 2.407c.256.522.499.853.927 1.26a3.9 3.9 0 0 0 1.148.781c.651.307 1.206.426 1.994.425a6.55 6.55 0 0 0 2.907-.682c.135-.068.262-.124.283-.124.022 0 .269.147.55.327.645.413.825.484 1.214.483 1.253-.003 1.943-1.447 1.16-2.427-.106-.133-.463-.414-.673-.528a.6.6 0 0 1 .085-.163c.549-.869.906-2.132.913-3.235.003-.359-.012-.479-.085-.67q-.2-.528-.76-.815c-.2-.102-.259-.112-.64-.112-.384 0-.44.01-.648.116-.504.255-.778.667-.838 1.26-.078.774-.122 1.023-.237 1.341-.206.567-.141.578-.868-.157-.591-.597-1.367-1.506-1.368-1.603-.001-.023.201-.179.449-.346.624-.421 1.016-.767 1.306-1.152.409-.543.618-1.052.679-1.657.147-1.451-.613-2.811-1.942-3.476-.479-.24-.797-.313-1.433-.327a7 7 0 0 0-.66.006M5.344 7.656c.11.11.136.167.136.3 0 .137-.025.189-.155.319-.162.162-.613.485-.677.485-.054 0-.128-.413-.128-.711 0-.239.01-.267.136-.393.12-.12.161-.136.344-.136s.224.016.344.136m12 0c.11.11.136.167.136.3 0 .137-.025.189-.155.319-.162.162-.613.485-.677.485-.054 0-.128-.413-.128-.711 0-.239.01-.267.136-.393.12-.12.161-.136.344-.136s.224.016.344.136M3.843 13.59c.307.411.766.941 1.213 1.4.24.248.427.46.415.472-.043.043-.734.027-.911-.021a1.42 1.42 0 0 1-.894-.74c-.119-.228-.126-.265-.126-.681 0-.379.049-.66.114-.66.009 0 .094.103.189.23m12 0c.307.411.766.941 1.213 1.4.24.248.427.46.415.472-.043.043-.734.027-.911-.021a1.42 1.42 0 0 1-.894-.74c-.119-.228-.126-.265-.126-.681 0-.379.049-.66.114-.66.009 0 .094.103.189.23"/></svg>