<svg xmlns="http://www.w3.org/2000/svg" width="24" height="24" fill="none" stroke="currentColor" stroke-linecap="round" stroke-linejoin="round" stroke-width="3"><path fill="#000" fill-rule="evenodd" stroke="none" d="M11.277.558C9.806.827 8.61 1.719 7.961 3.032a5.2 5.2 0 0 0-.402 1.248c-.059.334-.059 1.106 0 1.44a4.53 4.53 0 0 0 2.771 3.454l.15.062v5.562c0 4.423-.01 5.562-.05 5.562-.127 0-1.131-.293-1.494-.435a8.15 8.15 0 0 1-2.918-1.905 8.3 8.3 0 0 1-1.938-2.94c-.14-.35-.44-1.389-.44-1.522 0-.022.263-.038.65-.039 1.06-.001 1.389-.087 1.765-.464.726-.726.523-1.928-.407-2.399l-.228-.116H1.58l-.228.116a1.51 1.51 0 0 0-.831 1.136c-.04.285.013 1.285.099 1.868.707 4.787 4.329 8.629 9.051 9.601 1.501.309 3.157.309 4.658 0 4.721-.972 8.344-4.816 9.051-9.601.086-.583.139-1.583.099-1.868a1.51 1.51 0 0 0-.831-1.136l-.228-.116h-3.84l-.228.116c-.93.471-1.133 1.673-.407 2.399.376.377.705.463 1.765.464.357.001.65.017.65.036 0 .13-.279 1.103-.424 1.477a8.2 8.2 0 0 1-1.954 2.988 8.15 8.15 0 0 1-2.918 1.905c-.363.142-1.367.435-1.494.435-.04 0-.048-1.126-.04-5.565l.01-5.566.281-.124a4.48 4.48 0 0 0 2.655-4.489 4.43 4.43 0 0 0-1.343-2.828 3.8 3.8 0 0 0-1.153-.81c-.678-.332-1.061-.423-1.86-.44-.363-.007-.742.002-.843.02m1.376 3.1c.272.138.573.445.709.722.085.174.098.255.098.62 0 .384-.01.44-.116.648-.15.297-.428.576-.704.707-.194.093-.27.105-.64.105s-.446-.012-.64-.105a1.65 1.65 0 0 1-.704-.707c-.106-.208-.116-.264-.116-.648 0-.365.013-.446.098-.62.173-.352.515-.664.878-.803q.144-.055.526-.045c.329.009.413.026.611.126"/></svg>