<svg xmlns="http://www.w3.org/2000/svg" width="24" height="24" fill="none" stroke="currentColor" stroke-linecap="round" stroke-linejoin="round" stroke-width="3"><path fill="#000" fill-rule="evenodd" stroke="none" d="M6.486.598c-.229.084-.43.222-.615.42-.064.068-1.269 2.432-2.714 5.322-1.931 3.861-2.61 5.256-2.639 5.418-.076.427.104.985.416 1.288.226.218.44.339.741.416.306.078.653.033.995-.129.431-.204.477-.276 1.663-2.643L5.42 8.52h.81c.445 0 .81.008.81.018s-.333.689-.741 1.51c-.806 1.624-.852 1.751-.776 2.17.116.639.528 1.084 1.152 1.244.306.078.653.033.995-.129.431-.204.477-.276 1.663-2.643l1.087-2.17h.81c.445 0 .81.008.81.018s-.333.689-.741 1.51c-.806 1.624-.852 1.751-.776 2.17.116.639.528 1.084 1.152 1.244.306.078.653.033.995-.129.431-.204.477-.276 1.663-2.643l1.087-2.17h.81c.445 0 .81.008.81.018s-.333.689-.741 1.51c-.806 1.624-.852 1.751-.776 2.17.116.639.528 1.084 1.152 1.244.306.078.653.033.995-.129.462-.218.339.002 3.175-5.673 1.852-3.707 2.609-5.259 2.635-5.407.111-.625-.241-1.298-.837-1.6C22.44.55 22.382.54 22 .54c-.377 0-.443.012-.644.11-.464.228-.496.278-1.699 2.68l-1.098 2.19h-.799c-.478 0-.8-.015-.8-.038 0-.021.333-.709.741-1.53.8-1.611.843-1.733.775-2.155a1.52 1.52 0 0 0-.833-1.144C17.44.55 17.382.54 17 .54c-.377 0-.443.012-.644.11-.464.228-.496.278-1.699 2.68l-1.098 2.19h-.799c-.478 0-.8-.015-.8-.038 0-.021.333-.709.741-1.53.8-1.611.843-1.733.775-2.155a1.52 1.52 0 0 0-.833-1.144C12.44.55 12.382.54 12 .54c-.377 0-.443.012-.644.11-.464.228-.496.278-1.699 2.68L8.559 5.52H7.76c-.478 0-.8-.015-.8-.038 0-.021.333-.709.741-1.53.8-1.611.843-1.733.775-2.155A1.52 1.52 0 0 0 7.643.654c-.3-.151-.831-.176-1.157-.056m5.03 13.979c-.557.213-.919.67-1.001 1.262-.023.164-.034 1.541-.027 3.369L10.5 22.3l.105.248c.25.595.761.938 1.395.938s1.145-.343 1.395-.938l.105-.248.012-3.092c.007-1.828-.004-3.205-.027-3.369a1.51 1.51 0 0 0-.835-1.182c-.195-.099-.28-.116-.608-.125q-.382-.01-.526.045"/></svg>