<svg xmlns="http://www.w3.org/2000/svg" width="24" height="24" fill="none" stroke="currentColor" stroke-linecap="round" stroke-linejoin="round" stroke-width="3"><path fill="#000" fill-rule="evenodd" stroke="none" d="M7.38 2.576a2.7 2.7 0 0 0-1.241.75l-.157.174-1.781.02c-1.721.02-1.789.023-2.018.11-.372.14-.656.326-.968.634a1.9 1.9 0 0 0-.447.62c-.21.442-.263.688-.257 1.201a5.51 5.51 0 0 0 2.249 4.352c.649.482 1.644.889 2.446 1.002l.346.048.027.147c.014.08.098.295.186.478.224.467.657.9 1.123 1.122.183.087.391.171.463.186l.13.027-.01 1.046-.011 1.046-.183.026c-.758.109-1.641.526-2.238 1.059a4.54 4.54 0 0 0-1.479 2.65c-.061.348-.062 1.025-.002 1.289.16.695.696 1.369 1.33 1.671.598.284.11.266 7.112.266 5.193 0 6.38-.01 6.56-.054a2.62 2.62 0 0 0 1.819-1.666c.268-.8.042-2.156-.514-3.08a5.1 5.1 0 0 0-1.225-1.342c-.46-.344-1.348-.711-1.917-.793l-.183-.026-.011-1.08-.01-1.079.513-.13a8.7 8.7 0 0 0 3.265-1.601 11 11 0 0 0 1.353-1.353c1.15-1.459 1.82-3.313 1.839-5.092.007-.636-.035-.854-.254-1.314-.261-.548-.8-1.027-1.418-1.26l-.237-.09-7-.007c-5.461-.005-7.044.004-7.2.043M20.458 5.67c-.217 1.255-.59 2.091-1.31 2.93a5.5 5.5 0 0 1-2.434 1.618c-.828.277-.784.274-4.684.289l-3.51.013v-5h11.964zM5.48 7.483v.963l-.13-.027c-.246-.053-.69-.285-.938-.491-.381-.318-.742-.874-.83-1.278l-.028-.13H5.48zm8 7.037v1h-2.96v-2h2.96zm3.14 4.118c.11.054.285.178.389.274.179.168.391.473.391.565 0 .03-1.585.043-5.4.043-3.993 0-5.4-.012-5.4-.045 0-.145.359-.579.616-.743.338-.217.11-.208 4.824-.2l4.38.008z"/></svg>