<svg xmlns="http://www.w3.org/2000/svg" width="24" height="24" fill="none" stroke="currentColor" stroke-linecap="round" stroke-linejoin="round" stroke-width="3"><path fill="#000" fill-rule="evenodd" stroke="none" d="M10.82.561c-4.301.477-7.878 3.175-9.491 7.159a11.64 11.64 0 0 0-.606 6.54c.891 4.456 4.38 8.008 8.817 8.975 1.584.345 3.35.346 4.92.001 4.422-.972 7.889-4.48 8.801-8.907a11.9 11.9 0 0 0 .016-4.589c-.874-4.373-4.273-7.901-8.597-8.924-.875-.207-1.356-.261-2.46-.276-.594-.008-1.224.001-1.4.021M9.612 5.13 8.129 7.7l-.687 1.186-.064.106-.806-1.386-.806-1.386.367-.356A8.4 8.4 0 0 1 9.86 3.778a10 10 0 0 1 .566-.137c.026 0-.341.669-.814 1.489M14.3 3.819c1.006.276 2.005.781 2.919 1.475.351.266 1.221 1.108 1.221 1.181 0 .033-.795.044-3.062.042-2.476-.003-3.06-.013-3.05-.055.018-.076 1.564-2.742 1.59-2.742a8 8 0 0 1 .382.099M5.081 11.02c.557.968 1.235 2.142 1.506 2.609.271.466.493.858.493.87 0 .011-.719.021-1.598.021H3.883l-.063-.21c-.229-.769-.316-1.556-.287-2.586.025-.894.083-1.29.309-2.104.103-.374.139-.456.178-.413.027.029.504.845 1.061 1.813m9.091-.259L14.884 12l-.726 1.26-.726 1.26h-2.863l-.728-1.26L9.114 12l.713-1.239.713-1.239h2.92zm6.074-.799c.3 1.191.312 2.765.031 3.958-.117.499-.236.88-.273.88-.018 0-.696-1.148-1.505-2.55a429 429 0 0 0-1.53-2.64l-.059-.091 1.615.011 1.615.01zm-2.788 6.492c.391.679.72 1.266.73 1.304.035.135-1.009 1.033-1.71 1.47a9.4 9.4 0 0 1-1.458.712c-.422.163-1.394.438-1.455.412-.016-.006.408-.768.943-1.692l2.036-3.526.073-.127.065.107c.035.058.384.661.776 1.34m-5.778 1.081c0 .018-1.553 2.712-1.577 2.736-.03.029-.761-.188-1.167-.346a9.6 9.6 0 0 1-1.414-.697c-.622-.388-1.523-1.145-1.844-1.55l-.125-.158h3.064c1.684 0 3.063.007 3.063.015"/></svg>