<svg xmlns="http://www.w3.org/2000/svg" width="24" height="24" fill="none" stroke="currentColor" stroke-linecap="round" stroke-linejoin="round" stroke-width="3"><path fill="#000" fill-rule="evenodd" stroke="none" d="M4.6 2.523c-1.142.021-1.287.031-1.553.111A3.57 3.57 0 0 0 .552 5.388c-.076.398-.076 12.826 0 13.224.221 1.168 1.036 2.177 2.116 2.617.719.293-.04.271 9.332.271 7.775 0 8.442-.005 8.71-.068a3.7 3.7 0 0 0 1.798-1.004c.573-.6.883-1.272.971-2.111.053-.509.053-12.125 0-12.634-.132-1.255-.824-2.255-1.946-2.817-.49-.246-.793-.313-1.493-.332-.986-.028-14.048-.036-15.44-.011M4.48 6.02v.5h-.96v-.364c0-.361.001-.365.136-.5.134-.134.142-.136.48-.136h.344zm4 0v.5h-.96v-1h.96zm11.864-.364c.135.135.136.139.136.5v.364h-8.96v-1h8.688zm.136 8.201v4.337l-.103.122a.6.6 0 0 1-.25.163c-.204.056-16.05.056-16.254 0a.6.6 0 0 1-.25-.163l-.103-.122V9.52h16.96z"/></svg>