<svg xmlns="http://www.w3.org/2000/svg" width="24" height="24" fill="none" stroke="currentColor" stroke-linecap="round" stroke-linejoin="round" stroke-width="3"><path fill="#000" fill-rule="evenodd" stroke="none" d="M9.486.598c-.664.244-1.084.952-.963 1.62.092.507.303.802.806 1.127.208.134.312.238.456.455.103.154.179.289.17.299-.01.009-.249-.063-.531-.161-.824-.288-1.348-.381-2.264-.406-.593-.016-.881-.006-1.2.042A6.4 6.4 0 0 0 1.126 7.16C.519 8.445.376 9.676.62 11.52c.408 3.095 1.743 6.838 3.232 9.06.568.848 1.238 1.604 1.808 2.041.863.661 1.783.951 2.713.855.571-.058 1.065-.202 2.027-.587.915-.366 1.128-.422 1.6-.422s.685.056 1.6.422c.962.385 1.456.529 2.027.587 1.611.166 3.128-.806 4.521-2.896 2.115-3.172 3.748-9.062 3.258-11.747-.379-2.072-1.662-3.78-3.517-4.679a6.2 6.2 0 0 0-1.997-.595c-.577-.078-1.714-.03-2.313.096a9 9 0 0 0-1.881.642l-.443.21-.089-.351A10 10 0 0 0 12.63 2.7c-.448-.879-1.156-1.621-1.922-2.012-.26-.134-.322-.149-.648-.158-.279-.008-.408.007-.574.068M7.728 6.579c.743.142 1.585.527 2.788 1.273.382.238.762.466.845.508.342.175.936.175 1.278 0 .083-.042.463-.27.845-.508 1.609-.998 2.506-1.332 3.581-1.332.987 0 1.743.303 2.41.966.711.708 1.005 1.433 1.005 2.483 0 2.281-1.166 6.157-2.56 8.513-.555.939-1.229 1.711-1.684 1.93-.306.147-.379.13-1.876-.441-1.283-.49-2.097-.615-3.058-.471-.545.083-.934.193-1.662.471-.846.323-1.267.468-1.48.51-.155.03-.21.021-.396-.069-.641-.308-1.521-1.483-2.262-3.019-1.354-2.806-2.247-6.633-1.919-8.222.26-1.258 1.308-2.317 2.559-2.585.367-.078 1.194-.082 1.586-.007"/></svg>