<svg xmlns="http://www.w3.org/2000/svg" width="24" height="24" fill="none" stroke="currentColor" stroke-linecap="round" stroke-linejoin="round" stroke-width="3"><path fill="#000" fill-rule="evenodd" stroke="none" d="M2.38 1.576c-.452.112-.95.421-1.279.793-.209.237-.465.739-.547 1.071-.078.317-.078 3.803 0 4.12.175.713.7 1.372 1.334 1.674.183.087.39.171.46.185l.129.027.014 5.007c.012 4.418.021 5.038.077 5.268.34 1.387 1.345 2.389 2.722 2.711.266.062.815.068 6.71.068s6.444-.006 6.71-.068a3.7 3.7 0 0 0 1.798-1.004c.573-.6.883-1.272.971-2.111.024-.227.04-2.268.04-5.124l.001-4.747.13-.026c.072-.015.279-.099.462-.186.467-.223.9-.655 1.122-1.122.265-.557.266-.566.266-2.612 0-2.045-.001-2.055-.265-2.61-.261-.548-.8-1.027-1.418-1.26l-.237-.09-9.5-.007c-7.445-.005-9.543.004-9.7.043m18.1 3.943v.999H3.52V4.52h16.96zm-2 8.838v4.837l-.103.122a.6.6 0 0 1-.25.163c-.204.056-12.05.056-12.254 0a.6.6 0 0 1-.25-.163l-.103-.122V9.52h12.96zm-9.531-3.742a1.5 1.5 0 0 0-.874.931c-.138.418-.066.932.179 1.284.057.083.446.491.864.909l.76.759-.814.821c-.447.451-.844.881-.882.955-.341.669-.184 1.438.388 1.89.476.377 1.102.427 1.675.134.074-.038.5-.43.945-.871l.81-.803.813.807c.658.653.857.827 1.042.912.418.191.869.193 1.28.004.254-.116.58-.421.696-.651.242-.482.207-1.107-.086-1.528-.057-.081-.445-.489-.863-.907l-.76-.759.814-.821c.457-.461.849-.891.893-.981a1.503 1.503 0 0 0-.819-2.101c-.186-.069-.295-.083-.57-.072-.562.023-.672.094-1.627 1.042l-.813.807-.813-.807c-.965-.958-1.065-1.021-1.647-1.04-.307-.009-.394.003-.591.086"/></svg>