<svg xmlns="http://www.w3.org/2000/svg" width="24" height="24" fill="none" stroke="currentColor" stroke-linecap="round" stroke-linejoin="round" stroke-width="3"><path fill="#000" fill-rule="evenodd" stroke="none" d="M2.38 1.576c-.452.112-.95.421-1.279.793-.209.237-.465.739-.547 1.071-.078.317-.078 3.803 0 4.12.175.713.7 1.372 1.334 1.674.183.087.39.171.46.185l.129.027.014 5.007c.015 5.51-.001 5.16.265 5.851.397 1.029 1.389 1.866 2.514 2.121.342.078 2.447.124 2.879.063.376-.053.664-.191.906-.433.726-.726.523-1.928-.407-2.399l-.228-.116-1.28-.02c-1.359-.021-1.379-.024-1.537-.225-.083-.106-.083-.106-.083-4.94V9.52h12.96v4.835c0 4.834 0 4.834-.083 4.94-.158.201-.178.204-1.537.225l-1.28.02-.228.116c-.93.471-1.133 1.673-.407 2.399.242.242.53.38.906.433.432.061 2.537.015 2.879-.063a3.67 3.67 0 0 0 1.778-.997c.573-.6.883-1.272.971-2.111.024-.227.04-2.268.04-5.124l.001-4.747.13-.026c.072-.015.279-.099.462-.186.467-.223.9-.655 1.122-1.122.265-.557.266-.566.266-2.612 0-2.045-.001-2.055-.265-2.61-.261-.548-.8-1.027-1.418-1.26l-.237-.09-9.5-.007c-7.445-.005-9.543.004-9.7.043m18.1 3.943v.999H3.52V4.52h16.96zm-8.751 5.005c-.447.075-.522.137-2.297 1.91-1.444 1.443-1.681 1.697-1.773 1.898-.51 1.113.358 2.308 1.559 2.145.329-.045.608-.196.95-.513l.308-.287.012 2.812.012 2.811.105.248c.25.595.761.938 1.395.938s1.145-.343 1.395-.938l.105-.248.012-2.811.012-2.812.308.287c.342.317.621.468.95.513 1.201.163 2.069-1.032 1.559-2.145-.092-.201-.329-.455-1.773-1.898-1.799-1.797-1.842-1.832-2.334-1.912a3 3 0 0 0-.274-.037z"/></svg>