<svg xmlns="http://www.w3.org/2000/svg" width="24" height="24" fill="none" stroke="currentColor" stroke-linecap="round" stroke-linejoin="round" stroke-width="3"><path fill="#000" fill-rule="evenodd" stroke="none" d="M2.516 1.577c-.554.212-.919.67-1 1.254-.022.162-.033 3.904-.027 9.369l.011 9.1.105.248q.25.597.847.847l.248.105 9.1.011c5.465.006 9.207-.005 9.369-.027.858-.119 1.423-.854 1.308-1.702a1.51 1.51 0 0 0-.829-1.126l-.228-.116-8.45-.01-8.45-.011-.001-8.229c0-4.68-.016-8.338-.037-8.48a1.51 1.51 0 0 0-.832-1.153c-.195-.099-.28-.116-.608-.125-.253-.007-.431.008-.526.045M18.56 6.571c-.378.133-.533.271-2.53 2.262l-2.029 2.024-1.551-1.54C10.624 7.503 10.675 7.54 10 7.54c-.683 0-.611-.053-2.562 1.898-1.821 1.821-1.835 1.839-1.919 2.386-.029.189-.039 1.157-.031 2.88L5.5 17.3l.105.248q.25.597.847.847l.248.105h12.6l.248-.105q.597-.25.847-.847l.105-.248.011-4.596c.007-2.739-.004-4.706-.026-4.869a1.51 1.51 0 0 0-.834-1.178c-.191-.096-.282-.116-.588-.125-.213-.006-.421.01-.503.039m-6.999 6.128c1.319 1.314 1.579 1.554 1.774 1.644.428.196.902.196 1.329 0 .191-.087.433-.309 1.521-1.391l1.295-1.287v3.855H8.52v-2.899l.73-.731c.401-.401.737-.73.748-.73.01 0 .713.693 1.563 1.539"/></svg>