<svg xmlns="http://www.w3.org/2000/svg" width="24" height="24" fill="none" stroke="currentColor" stroke-linecap="round" stroke-linejoin="round" stroke-width="3"><path fill="#000" fill-rule="evenodd" stroke="none" d="M11.516 3.577a2.3 2.3 0 0 0-.32.163c-.097.059-1.809 1.74-3.804 3.734-3.231 3.229-3.64 3.651-3.734 3.858a1.58 1.58 0 0 0 0 1.336c.094.207.502.628 3.774 3.895 3.965 3.959 3.823 3.831 4.336 3.909a1.49 1.49 0 0 0 1.714-1.282c.02-.138.037-.792.037-1.455l.001-1.205.89-.018c.842-.016.904-.023 1.138-.119q.594-.245.847-.845l.105-.248.012-3.092c.007-1.828-.004-3.205-.027-3.369a1.5 1.5 0 0 0-.837-1.183l-.228-.116-.95-.013-.95-.012V6.287c0-.675-.019-1.344-.042-1.487a1.53 1.53 0 0 0-.83-1.144c-.198-.101-.279-.117-.608-.125-.246-.006-.431.01-.524.046m7 4c-.557.213-.919.67-1.001 1.262-.023.164-.034 1.541-.027 3.369L17.5 15.3l.105.248c.25.595.761.938 1.395.938s1.145-.343 1.395-.938l.105-.248.012-3.092c.007-1.828-.004-3.205-.027-3.369a1.51 1.51 0 0 0-.835-1.182c-.195-.099-.28-.116-.608-.125-.253-.007-.431.008-.526.045m-7.868 2.065c.128.276.431.58.702.706.288.134.588.17 1.42.171l.71.001v2.996l-.95.012-.95.012-.228.116a2 2 0 0 0-.416.3c-.255.252-.379.536-.433.992l-.043.373L8.8 13.66 7.14 12l1.66-1.66 1.66-1.661.043.373c.028.238.08.451.145.59"/></svg>