<svg xmlns="http://www.w3.org/2000/svg" width="24" height="24" fill="none" stroke="currentColor" stroke-linecap="round" stroke-linejoin="round" stroke-width="3"><path fill="#000" fill-rule="evenodd" stroke="none" d="M6.516 2.577a1.54 1.54 0 0 0-.998 1.233c-.02.14-.037 2.952-.037 6.386l-.001 6.137-.79-.777C3.708 14.591 3.623 14.54 3 14.54c-.384 0-.44.01-.648.116-.754.382-1.048 1.236-.694 2.012.093.203.373.499 2.274 2.398 1.69 1.689 2.213 2.189 2.374 2.269.423.21.965.21 1.388 0 .161-.08.684-.58 2.374-2.269 1.901-1.899 2.181-2.195 2.274-2.398.354-.776.06-1.63-.694-2.012-.208-.106-.264-.116-.648-.116-.623 0-.708.051-1.69 1.016l-.79.777-.001-6.137c0-3.434-.017-6.246-.037-6.386a1.51 1.51 0 0 0-.832-1.153c-.195-.099-.28-.116-.608-.125q-.382-.01-.526.045m10.204.005c-1.432.306-2.565 1.311-3.016 2.674-.193.582-.204.741-.204 2.964v2.08l.105.248c.168.399.453.684.84.84.476.193 1.127.099 1.484-.213.397-.346.537-.651.576-1.25l.027-.405h1.936l.027.405c.039.599.179.904.576 1.25.357.312 1.008.406 1.484.213.387-.156.672-.441.84-.84l.105-.248V8.22c0-2.223-.011-2.382-.204-2.964a4.01 4.01 0 0 0-3.024-2.672c-.38-.079-1.189-.08-1.552-.002m1.303 3.08a.99.99 0 0 1 .447.676l.02.182h-1.97v-.121c0-.293.226-.624.529-.777.181-.092.251-.105.495-.094.232.011.319.035.479.134m-3.507 6.916c-1.312.488-1.344 2.321-.049 2.824.213.084.32.093 1.265.115l1.031.023-1.502 1.8c-.909 1.09-1.545 1.887-1.611 2.02-.099.198-.11.262-.11.64 0 .506.068.686.383 1.02.245.259.518.401.877.458.325.052 5.038.055 5.39.004a1.494 1.494 0 0 0 1.287-1.7 1.51 1.51 0 0 0-.829-1.126l-.228-.116-1.09-.012c-.6-.007-1.09-.026-1.09-.042s.675-.839 1.5-1.828c.832-.997 1.545-1.887 1.599-1.998.364-.741.06-1.624-.691-2.004l-.228-.116-2.88-.008c-2.326-.006-2.908.003-3.024.046"/></svg>