<svg xmlns="http://www.w3.org/2000/svg" width="24" height="24" fill="none" stroke="currentColor" stroke-linecap="round" stroke-linejoin="round" stroke-width="3"><path fill="#000" fill-rule="evenodd" stroke="none" d="M6.729 2.524c-.458.077-.488.103-2.797 2.41-1.901 1.899-2.181 2.195-2.274 2.398-.509 1.114.36 2.308 1.56 2.145.441-.06.6-.171 1.461-1.02l.799-.788.011 6.316L5.5 20.3l.105.248c.25.595.761.938 1.395.938s1.145-.343 1.395-.938L8.5 20.3l.011-6.315.011-6.316.799.788c.861.849 1.02.96 1.461 1.02 1.2.163 2.069-1.031 1.56-2.145-.093-.203-.373-.499-2.274-2.398-2.337-2.335-2.332-2.331-2.834-2.412a3 3 0 0 0-.274-.037zm7.787.054c-1.312.488-1.344 2.321-.049 2.824.213.084.32.093 1.265.115l1.031.023-1.502 1.8c-.909 1.09-1.545 1.887-1.611 2.02-.099.198-.11.262-.11.64 0 .506.068.686.383 1.02.245.259.518.401.877.458.325.052 5.038.055 5.39.004a1.494 1.494 0 0 0 1.287-1.7 1.51 1.51 0 0 0-.829-1.126l-.228-.116-1.09-.012c-.6-.007-1.09-.026-1.09-.042s.675-.839 1.5-1.828c.832-.997 1.545-1.887 1.599-1.998.364-.741.06-1.624-.691-2.004l-.228-.116-2.88-.008c-2.326-.006-2.908.003-3.024.046m2.204 10.001c-1.45.325-2.565 1.314-3.016 2.677-.193.582-.204.741-.204 2.964v2.08l.105.248c.168.399.453.684.84.84.476.193 1.127.099 1.484-.213.397-.346.537-.651.576-1.25l.027-.405h1.936l.027.405c.029.455.138.784.33 1.004.343.393.69.557 1.175.557.634 0 1.145-.343 1.395-.938l.105-.248v-2.08c0-2.25-.01-2.389-.217-2.998-.439-1.291-1.46-2.232-2.823-2.603-.342-.093-1.395-.117-1.74-.04m1.303 3.083a.99.99 0 0 1 .447.676l.02.182h-1.97v-.121c0-.293.226-.624.529-.777.181-.092.251-.105.495-.094.232.011.319.035.479.134"/></svg>