<svg xmlns="http://www.w3.org/2000/svg" width="24" height="24" fill="none" stroke="currentColor" stroke-linecap="round" stroke-linejoin="round" stroke-width="3"><path fill="#000" fill-rule="evenodd" stroke="none" d="M2.516 3.577c-.555.212-.919.67-1 1.255-.023.162-.033 3.115-.027 7.369L1.5 19.3l.105.248c.25.595.761.938 1.395.938s1.145-.343 1.395-.938L4.5 19.3l.011-7.099c.006-4.254-.004-7.207-.027-7.369a1.5 1.5 0 0 0-.834-1.175c-.195-.099-.28-.116-.608-.125-.253-.007-.431.008-.526.045m10 1a2.3 2.3 0 0 0-.32.163c-.097.06-1.583 1.515-3.302 3.234-2.473 2.473-3.148 3.169-3.228 3.332a1.6 1.6 0 0 0-.001 1.388c.081.163.761.865 3.269 3.374 2.811 2.813 3.192 3.18 3.398 3.274a1.502 1.502 0 0 0 2.01-2.008c-.09-.198-.35-.476-1.892-2.022l-1.786-1.792 5.138-.001c2.84 0 5.25-.017 5.388-.037a1.494 1.494 0 0 0 1.287-1.7 1.51 1.51 0 0 0-.829-1.126l-.228-.116-5.398-.011-5.397-.01 1.806-1.812c1.559-1.563 1.821-1.843 1.911-2.041.354-.773.059-1.629-.694-2.01-.198-.101-.279-.117-.608-.125-.246-.006-.431.01-.524.046"/></svg>