<svg xmlns="http://www.w3.org/2000/svg" width="24" height="24" fill="none" stroke="currentColor" stroke-linecap="round" stroke-linejoin="round" stroke-width="3"><path fill="#000" fill-rule="evenodd" stroke="none" d="M6.516 5.577a1.54 1.54 0 0 0-.998 1.233c-.052.359-.048 10.103.004 10.424.053.327.187.588.421.823.235.234.496.368.823.421.321.052 10.065.056 10.424.004a1.494 1.494 0 0 0 1.287-1.7 1.51 1.51 0 0 0-.829-1.126l-.228-.116-3.398-.011-3.398-.011 3.806-3.809c3.388-3.391 3.817-3.834 3.912-4.041.354-.776.06-1.63-.694-2.012-.208-.106-.264-.116-.648-.116-.715 0-.353-.31-4.69 4.017l-3.79 3.781-.001-3.139c0-1.726-.017-3.251-.037-3.389a1.51 1.51 0 0 0-.832-1.153c-.195-.099-.28-.116-.608-.125q-.382-.01-.526.045"/></svg>