<svg xmlns="http://www.w3.org/2000/svg" width="24" height="24" fill="none" stroke="currentColor" stroke-linecap="round" stroke-linejoin="round" stroke-width="3"><path fill="#000" fill-rule="evenodd" stroke="none" d="M6.516 5.577a1.52 1.52 0 0 0-.858 2.091c.095.207.524.65 3.913 4.041l3.806 3.81-3.399.01-3.398.011-.228.116a1.51 1.51 0 0 0-.829 1.126 1.494 1.494 0 0 0 1.287 1.7c.359.052 10.103.048 10.424-.004.327-.053.588-.187.823-.421.234-.235.368-.496.421-.823.052-.321.056-10.065.004-10.424a1.51 1.51 0 0 0-.834-1.154c-.208-.106-.264-.116-.648-.116s-.44.01-.648.116a1.51 1.51 0 0 0-.834 1.154c-.02.138-.037 1.663-.037 3.389l-.001 3.139-3.79-3.781c-4.301-4.291-3.976-4.01-4.65-4.026-.246-.006-.431.01-.524.046"/></svg>