<svg xmlns="http://www.w3.org/2000/svg" width="24" height="24" fill="none" stroke="currentColor" stroke-linecap="round" stroke-linejoin="round" stroke-width="3"><path fill="#000" fill-rule="evenodd" stroke="none" d="M11.516 3.577a1.54 1.54 0 0 0-.998 1.233c-.02.138-.037 2.548-.037 5.389l-.001 5.138-2.29-2.28C5.536 10.414 5.696 10.54 5 10.54c-.384 0-.44.01-.648.116-.754.382-1.048 1.235-.694 2.012.094.207.505.631 3.774 3.898 2.918 2.917 3.71 3.687 3.874 3.769.424.21.964.21 1.388 0 .164-.082.956-.852 3.874-3.769 3.269-3.267 3.68-3.691 3.774-3.898.354-.777.06-1.63-.694-2.012-.208-.106-.264-.116-.648-.116-.696 0-.536-.126-3.19 2.517l-2.29 2.28-.001-5.138c0-2.841-.017-5.251-.037-5.389a1.51 1.51 0 0 0-.832-1.153c-.195-.099-.28-.116-.608-.125q-.382-.01-.526.045"/></svg>