<svg xmlns="http://www.w3.org/2000/svg" width="24" height="24" fill="none" stroke="currentColor" stroke-linecap="round" stroke-linejoin="round" stroke-width="3"><path fill="#000" fill-rule="evenodd" stroke="none" d="M11.516.577a1.54 1.54 0 0 0-.998 1.233c-.02.138-.037 2.548-.037 5.389l-.001 5.138-2.29-2.28C5.536 7.414 5.696 7.54 5 7.54c-.384 0-.44.01-.648.116-.754.382-1.048 1.235-.694 2.012.094.207.505.631 3.774 3.898 2.918 2.917 3.71 3.687 3.874 3.769.424.21.964.21 1.388 0 .164-.082.956-.852 3.874-3.769 3.269-3.267 3.68-3.691 3.774-3.898.354-.777.06-1.63-.694-2.012-.208-.106-.264-.116-.648-.116-.696 0-.536-.126-3.19 2.517l-2.29 2.28-.001-5.138c0-2.841-.017-5.251-.037-5.389A1.51 1.51 0 0 0 12.65.657c-.195-.099-.28-.116-.608-.125q-.382-.01-.526.045m-.136 17.997a2.73 2.73 0 0 0-1.279.795c-.21.239-.469.746-.542 1.064A3 3 0 0 0 9.51 21c0 .446.058.695.256 1.112.223.467.655.899 1.122 1.122.417.198.666.256 1.112.256s.695-.058 1.112-.256a2.5 2.5 0 0 0 1.122-1.122c.198-.417.256-.666.256-1.112s-.058-.695-.255-1.11c-.262-.55-.811-1.037-1.418-1.257-.295-.107-1.12-.141-1.437-.059m.964 2.082c.119.119.136.162.136.337 0 .242-.129.424-.343.483a.5.5 0 0 1-.514-.16c-.081-.096-.103-.166-.103-.323 0-.175.017-.218.136-.337s.161-.136.344-.136.224.016.344.136"/></svg>