<svg xmlns="http://www.w3.org/2000/svg" width="24" height="24" fill="none" stroke="currentColor" stroke-linecap="round" stroke-linejoin="round" stroke-width="3"><path fill="#000" fill-rule="evenodd" stroke="none" d="M4.516 1.579c-.365.134-.71.443-.864.773a1.5 1.5 0 0 0 1.158 2.13c.329.048 14.051.048 14.38 0a1.494 1.494 0 0 0 1.287-1.7 1.51 1.51 0 0 0-.829-1.126l-.228-.116-7.38-.007c-6.068-.006-7.406.002-7.524.046m7 3.998a1.54 1.54 0 0 0-.998 1.233c-.02.138-.037 2.548-.037 5.388l-.001 5.138-1.79-1.779C6.595 13.474 6.683 13.54 6 13.54c-.384 0-.44.01-.648.116-.754.382-1.048 1.235-.694 2.012.094.206.461.587 3.274 3.398 2.509 2.508 3.211 3.188 3.374 3.269.424.21.964.21 1.388 0 .163-.081.865-.761 3.374-3.269 2.813-2.811 3.18-3.192 3.274-3.398.354-.777.06-1.63-.694-2.012-.208-.106-.264-.116-.648-.116-.683 0-.595-.066-2.69 2.017l-1.79 1.779-.001-5.138c0-2.84-.017-5.25-.037-5.388a1.51 1.51 0 0 0-.832-1.153c-.195-.099-.28-.116-.608-.125q-.382-.01-.526.045"/></svg>