<svg xmlns="http://www.w3.org/2000/svg" width="24" height="24" fill="none" stroke="currentColor" stroke-linecap="round" stroke-linejoin="round" stroke-width="3"><path fill="#000" fill-rule="evenodd" stroke="none" d="M15.516 1.577c-.857.328-1.24 1.255-.862 2.082.081.176.27.392.91 1.041l.808.819-6.396.011-6.396.01-.228.116a1.51 1.51 0 0 0-.829 1.126 1.494 1.494 0 0 0 1.287 1.7c.14.02 2.952.037 6.386.037l6.137.001-.789.8c-.85.862-.961 1.021-1.021 1.462-.163 1.2 1.031 2.069 2.145 1.56.203-.093.499-.373 2.398-2.274 1.689-1.69 2.189-2.213 2.269-2.374.21-.423.21-.965 0-1.388-.08-.161-.576-.678-2.269-2.368-2.486-2.481-2.369-2.388-3.024-2.406q-.381-.01-.526.045m-8 10a2.3 2.3 0 0 0-.32.163c-.097.06-1.133 1.065-2.302 2.234-1.654 1.654-2.149 2.172-2.228 2.332a1.6 1.6 0 0 0-.001 1.388c.08.161.58.684 2.269 2.374 1.899 1.901 2.195 2.181 2.398 2.274 1.114.509 2.308-.36 2.145-1.56-.06-.441-.171-.6-1.021-1.462l-.789-.8 6.137-.001c3.434 0 6.246-.017 6.386-.037a1.494 1.494 0 0 0 1.287-1.7 1.51 1.51 0 0 0-.829-1.126l-.228-.116-6.396-.01-6.396-.011.808-.819c.64-.649.829-.865.91-1.041a1.505 1.505 0 0 0-.698-2.003c-.198-.101-.279-.117-.608-.125-.246-.006-.431.01-.524.046"/></svg>