<svg xmlns="http://www.w3.org/2000/svg" width="24" height="24" fill="none" stroke="currentColor" stroke-linecap="round" stroke-linejoin="round" stroke-width="3"><path fill="#000" fill-rule="evenodd" stroke="none" d="M11.516 3.577a2.3 2.3 0 0 0-.32.163c-.097.06-1.808 1.74-3.802 3.734-2.883 2.882-3.647 3.668-3.729 3.832-.21.423-.21.964 0 1.388.082.164.852.956 3.769 3.874 3.267 3.269 3.691 3.68 3.898 3.774a1.503 1.503 0 0 0 2.01-2.01c-.093-.201-.393-.518-2.393-2.521L8.663 13.52l5.138-.001c2.841 0 5.251-.017 5.389-.037a1.494 1.494 0 0 0 1.287-1.7 1.51 1.51 0 0 0-.829-1.126l-.228-.116-5.398-.011-5.398-.01 2.306-2.31c2.018-2.022 2.319-2.339 2.412-2.541.354-.775.06-1.631-.694-2.012-.198-.101-.279-.117-.608-.125-.246-.006-.431.01-.524.046"/></svg>