<svg xmlns="http://www.w3.org/2000/svg" width="24" height="24" fill="none" stroke="currentColor" stroke-linecap="round" stroke-linejoin="round" stroke-width="3"><path fill="#000" fill-rule="evenodd" stroke="none" d="M6.516 2.577a1.54 1.54 0 0 0-.998 1.233c-.02.14-.037 2.952-.037 6.386l-.001 6.137-.79-.777C3.708 14.591 3.623 14.54 3 14.54c-.384 0-.44.01-.648.116-.754.382-1.048 1.236-.694 2.012.093.203.373.499 2.274 2.398 1.69 1.689 2.213 2.189 2.374 2.269.423.21.965.21 1.388 0 .161-.08.684-.58 2.374-2.269 1.901-1.899 2.181-2.195 2.274-2.398.354-.776.06-1.63-.694-2.012-.208-.106-.264-.116-.648-.116-.623 0-.708.051-1.69 1.016l-.79.777-.001-6.137c0-3.434-.017-6.246-.037-6.386a1.51 1.51 0 0 0-.832-1.153c-.195-.099-.28-.116-.608-.125q-.382-.01-.526.045m8 .001c-1.047.392-1.349 1.7-.571 2.477.317.317.73.462 1.325.464l.21.001v2.993l-.45.014c-.402.012-.474.025-.678.129a1.51 1.51 0 0 0-.829 1.126 1.494 1.494 0 0 0 1.287 1.7c.138.02 1.123.036 2.19.036s2.052-.016 2.19-.036a1.494 1.494 0 0 0 1.287-1.7 1.51 1.51 0 0 0-.829-1.126c-.203-.103-.277-.117-.678-.13l-.45-.015-.001-2.225c0-1.224-.017-2.338-.037-2.476a1.51 1.51 0 0 0-.834-1.154l-.228-.116-1.38-.008c-1.079-.007-1.412.003-1.524.046m1.924 9.967c-1.497.288-2.612 1.385-2.888 2.843-.072.378-.072 2.846 0 3.224.221 1.168 1.036 2.177 2.116 2.617.451.184.832.258 1.332.258s.881-.074 1.332-.258a3.5 3.5 0 0 0 2.027-2.265c.118-.396.16-.91.16-1.964 0-.517-.018-1.11-.04-1.317-.132-1.255-.824-2.255-1.946-2.817-.479-.24-.797-.313-1.433-.327a7 7 0 0 0-.66.006m.904 3.111.136.136v2.402l-.103.122a.49.49 0 0 1-.754 0l-.103-.122v-2.402l.136-.136c.12-.12.161-.136.344-.136s.224.016.344.136"/></svg>