<svg xmlns="http://www.w3.org/2000/svg" width="24" height="24" fill="none" stroke="currentColor" stroke-linecap="round" stroke-linejoin="round" stroke-width="3"><path fill="#000" fill-rule="evenodd" stroke="none" d="M11.516 3.577a1.52 1.52 0 0 0-.858 2.091c.093.202.394.519 2.412 2.541l2.306 2.31-5.398.011-5.398.01-.228.116a1.51 1.51 0 0 0-.829 1.126 1.494 1.494 0 0 0 1.287 1.7c.138.02 2.548.037 5.389.037l5.138.001-2.286 2.291c-2 2.003-2.3 2.32-2.393 2.521a1.503 1.503 0 0 0 2.01 2.01c.207-.094.631-.505 3.898-3.774 2.917-2.918 3.687-3.71 3.769-3.874.21-.424.21-.964 0-1.388-.082-.164-.848-.95-3.769-3.868-4.163-4.159-3.852-3.891-4.526-3.907-.246-.006-.431.01-.524.046"/></svg>