<svg xmlns="http://www.w3.org/2000/svg" width="24" height="24" fill="none" stroke="currentColor" stroke-linecap="round" stroke-linejoin="round" stroke-width="3"><path fill="#000" fill-rule="evenodd" stroke="none" d="M11.516 3.577a1.54 1.54 0 0 0-.998 1.233c-.02.138-.037.803-.037 1.478l-.001 1.228-.95.012-.95.012-.228.116c-.473.239-.763.65-.837 1.183-.023.164-.034 1.541-.027 3.369L7.5 15.3l.105.248q.253.6.847.845c.234.096.296.103 1.138.119l.89.018v1.205c0 .663.019 1.322.042 1.465.162 1.025 1.196 1.575 2.146 1.142.207-.094.632-.505 3.9-3.774 3.269-3.268 3.68-3.693 3.774-3.9a1.58 1.58 0 0 0 0-1.336c-.094-.207-.501-.627-3.774-3.893-4.163-4.156-3.852-3.888-4.528-3.907q-.38-.01-.524.045m-7 4c-.557.213-.919.67-1.001 1.262-.023.164-.034 1.541-.027 3.369L3.5 15.3l.105.248c.25.595.761.938 1.395.938s1.145-.343 1.395-.938L6.5 15.3l.012-3.092c.007-1.828-.004-3.205-.027-3.369a1.51 1.51 0 0 0-.835-1.182c-.195-.099-.28-.116-.608-.125-.253-.007-.431.008-.526.045M15.2 13.66l-1.66 1.661-.043-.373c-.054-.456-.178-.74-.433-.992a2 2 0 0 0-.416-.3l-.228-.116-.95-.013-.95-.012V10.52l.71-.001c.39 0 .822-.017.96-.037.339-.049.632-.193.865-.427.268-.268.391-.548.44-1.007l.041-.372 1.662 1.662L16.86 12z"/></svg>