<svg xmlns="http://www.w3.org/2000/svg" width="24" height="24" fill="none" stroke="currentColor" stroke-linecap="round" stroke-linejoin="round" stroke-width="3"><path fill="#000" fill-rule="evenodd" stroke="none" d="M6.725 5.53c-.278.04-.555.187-.782.413a1.44 1.44 0 0 0-.424.844c-.028.184-.038 1.948-.03 5.393L5.5 17.3l.105.248c.25.595.761.938 1.395.938s1.145-.343 1.395-.938L8.5 17.3l.012-3.317.011-3.318 3.789 3.786c3.372 3.369 3.813 3.796 4.02 3.891 1.313.6 2.61-.697 2.01-2.01-.095-.207-.523-.649-3.893-4.022l-3.787-3.79 3.139-.001c1.726 0 3.251-.017 3.389-.037a1.494 1.494 0 0 0 1.287-1.7 1.51 1.51 0 0 0-.829-1.126l-.228-.116-1.76-.01c-4.766-.027-8.75-.027-8.935 0"/></svg>