<svg xmlns="http://www.w3.org/2000/svg" width="24" height="24" fill="none" stroke="currentColor" stroke-linecap="round" stroke-linejoin="round" stroke-width="3"><path fill="#000" fill-rule="evenodd" stroke="none" d="M11.729 1.524c-.469.079-.418.032-3.797 3.41-2.813 2.811-3.18 3.192-3.274 3.398a1.502 1.502 0 0 0 2.008 2.01c.198-.09.476-.35 2.021-1.89l1.791-1.786.011 5.317.011 5.317.105.248c.25.595.761.938 1.395.938s1.145-.343 1.395-.938l.105-.248.011-5.317.011-5.317 1.791 1.786c1.545 1.54 1.823 1.8 2.021 1.89 1.31.6 2.606-.697 2.008-2.01-.094-.206-.461-.587-3.274-3.398-2.509-2.508-3.211-3.188-3.374-3.269-.165-.082-.644-.2-.734-.18zM4.516 19.579c-.365.134-.71.443-.864.773a1.5 1.5 0 0 0 1.158 2.13c.141.021 3.273.036 7.19.036s7.049-.015 7.19-.036a1.494 1.494 0 0 0 1.287-1.7 1.51 1.51 0 0 0-.829-1.126l-.228-.116-7.38-.007c-6.068-.006-7.406.002-7.524.046"/></svg>