<svg xmlns="http://www.w3.org/2000/svg" width="24" height="24" fill="none" stroke="currentColor" stroke-linecap="round" stroke-linejoin="round" stroke-width="3"><path fill="#000" fill-rule="evenodd" stroke="none" d="m11.7 5.52-5.12.02-.228.116a1.51 1.51 0 0 0-.829 1.126 1.494 1.494 0 0 0 1.287 1.7c.138.02 1.663.037 3.389.037l3.139.001-3.787 3.79c-3.37 3.373-3.798 3.815-3.893 4.022a1.503 1.503 0 0 0 2.01 2.01c.207-.095.648-.522 4.02-3.891l3.789-3.786.011 3.318.012 3.317.105.248c.25.595.761.938 1.395.938s1.145-.343 1.395-.938l.105-.248.011-5.12c.008-3.445-.002-5.209-.03-5.393a2 2 0 0 0-.14-.465 1.73 1.73 0 0 0-.662-.662c-.185-.094-.619-.189-.779-.17-.044.005-2.384.018-5.2.03"/></svg>