<svg xmlns="http://www.w3.org/2000/svg" width="24" height="24" fill="none" stroke="currentColor" stroke-linecap="round" stroke-linejoin="round" stroke-width="3"><path fill="#000" fill-rule="evenodd" stroke="none" d="M11.516 3.577a2.3 2.3 0 0 0-.32.163c-.097.059-1.806 1.74-3.798 3.734-3.916 3.919-3.792 3.782-3.87 4.294a1.49 1.49 0 0 0 1.282 1.714c.138.02.793.037 1.458.037l1.207.001.013 2.39.012 2.39.105.248q.25.597.847.847l.248.105h6.6l.248-.105q.597-.25.847-.847l.105-.248.012-2.39.013-2.39h1.207c.665 0 1.325-.019 1.468-.042 1.025-.162 1.575-1.196 1.142-2.146-.094-.207-.502-.628-3.774-3.895-4.165-4.158-3.854-3.89-4.528-3.906-.246-.006-.431.01-.524.046m2.18 5.259 1.676 1.676-.396.014c-.341.012-.428.03-.624.13a1.51 1.51 0 0 0-.834 1.154c-.02.138-.037 1.253-.037 2.48l-.001 2.23h-2.96l-.001-2.23c0-1.227-.017-2.342-.037-2.48a1.51 1.51 0 0 0-.832-1.153c-.193-.098-.285-.117-.623-.131l-.397-.016 1.675-1.675C11.226 7.914 11.989 7.16 12 7.16s.774.754 1.696 1.676"/></svg>