<svg xmlns="http://www.w3.org/2000/svg" width="24" height="24" fill="none" stroke="currentColor" stroke-linecap="round" stroke-linejoin="round" stroke-width="3"><path fill="#000" fill-rule="evenodd" stroke="none" d="M11.516 3.577a2.3 2.3 0 0 0-.32.163c-.097.059-1.806 1.74-3.798 3.734-3.916 3.919-3.792 3.782-3.87 4.294a1.49 1.49 0 0 0 1.282 1.714c.138.02.792.037 1.455.037l1.205.001.018.89c.016.842.023.904.119 1.138q.245.594.845.847l.248.105h6.6l.248-.105q.6-.253.845-.847c.096-.234.103-.296.119-1.138l.018-.89h1.205c.663 0 1.322-.019 1.465-.042 1.025-.162 1.575-1.196 1.142-2.146-.094-.207-.502-.628-3.774-3.895-4.165-4.158-3.854-3.89-4.528-3.906-.246-.006-.431.01-.524.046m2.18 5.259 1.676 1.676-.396.014c-.341.012-.428.03-.624.13a1.51 1.51 0 0 0-.834 1.154c-.02.138-.037.578-.037.98l-.001.73h-2.96l-.001-.73c0-.402-.017-.842-.037-.98a1.51 1.51 0 0 0-.832-1.153c-.193-.098-.285-.117-.623-.131l-.397-.016 1.675-1.675C11.226 7.914 11.989 7.16 12 7.16s.774.754 1.696 1.676m-5.18 8.742c-.366.136-.71.444-.864.774a1.5 1.5 0 0 0 1.158 2.13c.138.02 1.573.036 3.19.036s3.052-.016 3.19-.036a1.494 1.494 0 0 0 1.287-1.7 1.51 1.51 0 0 0-.829-1.126l-.228-.116-3.38-.008c-2.742-.006-3.407.003-3.524.046"/></svg>