<svg xmlns="http://www.w3.org/2000/svg" width="24" height="24" fill="none" stroke="currentColor" stroke-linecap="round" stroke-linejoin="round" stroke-width="3"><path fill="#000" fill-rule="evenodd" stroke="none" d="M6.729 1.524c-.447.075-.522.137-2.297 1.91-1.444 1.443-1.681 1.697-1.773 1.898-.51 1.113.358 2.308 1.559 2.145.329-.045.608-.196.951-.514l.309-.288.011 5.313L5.5 17.3l.105.248c.25.595.761.938 1.395.938s1.145-.343 1.395-.938L8.5 17.3l.011-5.312.011-5.313.309.288c.343.318.622.469.951.514 1.201.163 2.069-1.032 1.559-2.145-.092-.201-.329-.455-1.773-1.898-1.799-1.797-1.842-1.832-2.334-1.912a3 3 0 0 0-.274-.037zm10 0c-.447.075-.522.137-2.297 1.91-1.444 1.443-1.681 1.697-1.773 1.898-.51 1.113.358 2.308 1.559 2.145.329-.045.608-.196.951-.514l.309-.288.011 5.313.011 5.312.105.248c.25.595.761.938 1.395.938s1.145-.343 1.395-.938l.105-.248.011-5.312.011-5.313.309.288c.343.318.622.469.951.514 1.201.163 2.069-1.032 1.559-2.145-.092-.201-.329-.455-1.773-1.898-1.799-1.797-1.842-1.832-2.334-1.912a3 3 0 0 0-.274-.037zM3.516 19.579c-.365.134-.71.443-.864.773a1.5 1.5 0 0 0 1.158 2.13c.142.021 3.678.036 8.19.036s8.048-.015 8.19-.036a1.494 1.494 0 0 0 1.287-1.7 1.51 1.51 0 0 0-.829-1.126l-.228-.116-8.38-.007c-6.9-.006-8.406.002-8.524.046"/></svg>