<svg xmlns="http://www.w3.org/2000/svg" width="24" height="24" fill="none" stroke="currentColor" stroke-linecap="round" stroke-linejoin="round" stroke-width="3"><path fill="#000" fill-rule="evenodd" stroke="none" d="M6.729 2.524c-.458.077-.488.103-2.797 2.41-1.901 1.899-2.181 2.195-2.274 2.398-.509 1.114.36 2.308 1.56 2.145.441-.06.6-.171 1.461-1.02l.799-.788.011 6.316L5.5 20.3l.105.248c.25.595.761.938 1.395.938s1.145-.343 1.395-.938L8.5 20.3l.011-6.315.011-6.316.799.788c.861.849 1.02.96 1.461 1.02 1.2.163 2.069-1.031 1.56-2.145-.093-.203-.373-.499-2.274-2.398-2.337-2.335-2.332-2.331-2.834-2.412a3 3 0 0 0-.274-.037zm3.787 8.054c-.365.136-.71.444-.864.774a1.5 1.5 0 0 0 1.158 2.13c.327.047 10.053.047 10.38 0a1.494 1.494 0 0 0 1.287-1.7 1.51 1.51 0 0 0-.829-1.126l-.228-.116-5.38-.007c-4.405-.007-5.406.002-5.524.045m0 4c-.366.136-.71.444-.864.774a1.5 1.5 0 0 0 1.158 2.13c.138.02 1.798.036 3.69.036s3.552-.016 3.69-.036a1.494 1.494 0 0 0 1.287-1.7 1.51 1.51 0 0 0-.829-1.126l-.228-.116-3.88-.008c-3.157-.006-3.907.003-4.024.046m0 4c-.366.136-.71.444-.864.774a1.5 1.5 0 0 0 1.158 2.13c.138.02 1.123.036 2.19.036s2.052-.016 2.19-.036a1.494 1.494 0 0 0 1.287-1.7 1.51 1.51 0 0 0-.829-1.126l-.228-.116-2.38-.008c-1.91-.006-2.409.003-2.524.046"/></svg>