<svg xmlns="http://www.w3.org/2000/svg" width="24" height="24" fill="none" stroke="currentColor" stroke-linecap="round" stroke-linejoin="round" stroke-width="3"><path fill="#000" fill-rule="evenodd" stroke="none" d="M20.516 3.577c-.555.212-.919.67-1 1.255-.023.162-.033 3.115-.027 7.369L19.5 19.3l.105.248c.25.595.761.938 1.395.938s1.145-.343 1.395-.938l.105-.248.011-7.099c.006-4.254-.004-7.207-.027-7.369a1.5 1.5 0 0 0-.834-1.175c-.195-.099-.28-.116-.608-.125-.253-.007-.431.008-.526.045m-10 1a1.52 1.52 0 0 0-.858 2.089c.09.198.352.478 1.911 2.041l1.807 1.812-5.398.011-5.398.01-.228.116a1.51 1.51 0 0 0-.829 1.126 1.494 1.494 0 0 0 1.287 1.7c.138.02 2.548.037 5.388.037l5.138.001-1.786 1.792c-1.542 1.546-1.802 1.824-1.892 2.022a1.502 1.502 0 0 0 2.01 2.008c.206-.094.587-.461 3.398-3.274 2.508-2.509 3.188-3.211 3.269-3.374a1.6 1.6 0 0 0 .141-.938c-.081-.503-.004-.417-3.41-3.818-3.604-3.6-3.357-3.391-4.026-3.407-.246-.006-.431.01-.524.046"/></svg>