<svg xmlns="http://www.w3.org/2000/svg" width="24" height="24" fill="none" stroke="currentColor" stroke-linecap="round" stroke-linejoin="round" stroke-width="3"><path fill="#000" fill-rule="evenodd" stroke="none" d="M11.516 3.577a2.3 2.3 0 0 0-.32.163c-.097.059-1.809 1.74-3.804 3.734-3.231 3.229-3.64 3.651-3.734 3.858a1.58 1.58 0 0 0 0 1.336c.094.207.502.628 3.774 3.895 3.965 3.959 3.823 3.831 4.336 3.909a1.49 1.49 0 0 0 1.714-1.282c.02-.138.037-.793.037-1.458l.001-1.207 2.39-.013 2.39-.012.248-.105q.597-.25.847-.847l.105-.248.012-3.092c.007-1.828-.004-3.205-.027-3.369a1.5 1.5 0 0 0-.837-1.183l-.228-.116-2.45-.011-2.45-.011V6.289c0-.676-.019-1.346-.042-1.489a1.53 1.53 0 0 0-.83-1.144c-.198-.101-.279-.117-.608-.125-.246-.006-.431.01-.524.046m-.868 6.065a1.53 1.53 0 0 0 1.162.84c.138.02 1.245.037 2.46.037l2.21.001v2.998l-2.45.011-2.45.011-.228.116a2 2 0 0 0-.416.3c-.255.252-.379.536-.433.992l-.043.373L8.8 13.66 7.14 12l1.66-1.66 1.66-1.661.043.373c.028.238.08.451.145.59"/></svg>