<svg xmlns="http://www.w3.org/2000/svg" width="24" height="24" fill="none" stroke="currentColor" stroke-linecap="round" stroke-linejoin="round" stroke-width="3"><path fill="#000" fill-rule="evenodd" stroke="none" d="M8.516 4.578a1.54 1.54 0 0 0-.998 1.232c-.02.138-.037 1.253-.037 2.478l-.001 2.228-1.45.012-1.45.012-.232.119c-.754.389-1.044 1.232-.69 2.009.094.207.505.632 3.774 3.9 3.268 3.269 3.693 3.68 3.9 3.774.433.197.903.197 1.336 0 .207-.094.628-.502 3.895-3.774 3.959-3.965 3.831-3.823 3.909-4.336a1.49 1.49 0 0 0-.824-1.576l-.228-.116-1.45-.012-1.45-.012-.001-2.228c0-1.225-.017-2.34-.037-2.478a1.51 1.51 0 0 0-.834-1.154l-.228-.116-3.38-.008c-2.742-.006-3.407.003-3.524.046m4.965 5.152c0 1.215.017 2.322.037 2.46.049.339.193.632.427.865.265.265.544.388 1.003.442l.373.043-1.661 1.66L12 16.86l-1.66-1.66-1.661-1.66.373-.043c.459-.054.738-.177 1.003-.442.234-.233.378-.526.427-.865.02-.138.037-1.245.037-2.46l.001-2.21h2.96z"/></svg>