<svg xmlns="http://www.w3.org/2000/svg" width="24" height="24" fill="none" stroke="currentColor" stroke-linecap="round" stroke-linejoin="round" stroke-width="3"><path fill="#000" fill-rule="evenodd" stroke="none" d="M11.729.524c-.473.079-.382-.003-4.297 3.91-3.269 3.267-3.68 3.691-3.774 3.898a1.503 1.503 0 0 0 2.01 2.01c.201-.093.517-.393 2.52-2.391l2.29-2.286.011 5.318.011 5.317.105.248c.25.595.761.938 1.395.938s1.145-.343 1.395-.938l.105-.248.011-5.317.011-5.318 2.29 2.286c2.003 1.998 2.319 2.298 2.52 2.391a1.503 1.503 0 0 0 2.01-2.01c-.094-.207-.505-.631-3.774-3.898C13.65 1.517 12.858.747 12.694.665s-.644-.2-.734-.18zm-.349 18.05a2.73 2.73 0 0 0-1.279.795c-.21.239-.469.746-.542 1.064A3 3 0 0 0 9.51 21c0 .446.058.695.256 1.112.223.467.655.899 1.122 1.122.417.198.666.256 1.112.256s.695-.058 1.112-.256a2.5 2.5 0 0 0 1.122-1.122c.198-.417.256-.666.256-1.112s-.058-.695-.255-1.11c-.262-.55-.811-1.037-1.418-1.257-.295-.107-1.12-.141-1.437-.059m.964 2.082c.119.119.136.162.136.337 0 .242-.129.424-.343.483a.5.5 0 0 1-.514-.16c-.081-.096-.103-.166-.103-.323 0-.175.017-.218.136-.337s.161-.136.344-.136.224.016.344.136"/></svg>