<svg xmlns="http://www.w3.org/2000/svg" width="24" height="24" fill="none" stroke="currentColor" stroke-linecap="round" stroke-linejoin="round" stroke-width="3"><path fill="#000" fill-rule="evenodd" stroke="none" d="M6.729 2.524c-.458.077-.488.103-2.797 2.41-1.901 1.899-2.181 2.195-2.274 2.398-.509 1.114.36 2.308 1.56 2.145.441-.06.6-.171 1.461-1.02l.799-.788.011 6.316L5.5 20.3l.105.248c.25.595.761.938 1.395.938s1.145-.343 1.395-.938L8.5 20.3l.011-6.315.011-6.316.799.788c.861.849 1.02.96 1.461 1.02 1.2.163 2.069-1.031 1.56-2.145-.093-.203-.373-.499-2.274-2.398-2.337-2.335-2.332-2.331-2.834-2.412a3 3 0 0 0-.274-.037zm9.711.021c-1.497.288-2.612 1.385-2.888 2.843-.072.378-.072 2.846 0 3.224.221 1.168 1.036 2.177 2.116 2.617.451.184.832.258 1.332.258s.881-.074 1.332-.258a3.5 3.5 0 0 0 2.027-2.265c.118-.396.16-.91.16-1.964 0-.517-.018-1.11-.04-1.317-.132-1.255-.824-2.255-1.946-2.817-.479-.24-.797-.313-1.433-.327a7 7 0 0 0-.66.006m.904 3.111.136.136v2.402l-.103.122a.49.49 0 0 1-.754 0l-.103-.122V5.792l.136-.136c.12-.12.161-.136.344-.136s.224.016.344.136m-2.828 6.922c-1.047.392-1.349 1.7-.571 2.477.317.317.73.462 1.325.464l.21.001v2.993l-.45.014c-.402.012-.474.025-.678.129a1.51 1.51 0 0 0-.829 1.126 1.494 1.494 0 0 0 1.287 1.7c.138.02 1.123.036 2.19.036s2.052-.016 2.19-.036a1.494 1.494 0 0 0 1.287-1.7 1.51 1.51 0 0 0-.829-1.126c-.203-.103-.277-.117-.678-.13l-.45-.015-.001-2.225c0-1.224-.017-2.338-.037-2.476a1.51 1.51 0 0 0-.834-1.154l-.228-.116-1.38-.008c-1.079-.007-1.412.003-1.524.046"/></svg>