<svg xmlns="http://www.w3.org/2000/svg" width="24" height="24" fill="none" stroke="currentColor" stroke-linecap="round" stroke-linejoin="round" stroke-width="3"><path fill="#000" fill-rule="evenodd" stroke="none" d="M8.516 3.578c-.366.136-.71.444-.864.774a1.5 1.5 0 0 0 1.158 2.13c.326.047 6.054.047 6.38 0a1.494 1.494 0 0 0 1.287-1.7 1.51 1.51 0 0 0-.829-1.126l-.228-.116-3.38-.008c-2.742-.006-3.407.003-3.524.046m0 4c-.365.136-.71.444-.864.772-.135.289-.17.587-.171 1.438l-.001.728-1.45.012-1.45.012-.232.119c-.754.389-1.044 1.232-.69 2.009.094.207.505.632 3.774 3.9 3.997 3.998 3.818 3.837 4.35 3.909.294.04.607-.008.886-.135.207-.094.628-.502 3.895-3.774 3.959-3.965 3.831-3.823 3.909-4.336a1.49 1.49 0 0 0-.824-1.576l-.228-.116-1.45-.012-1.45-.012-.001-.728c0-.4-.017-.84-.037-.978a1.51 1.51 0 0 0-.834-1.154l-.228-.116-3.38-.008c-2.742-.006-3.407.003-3.524.046m4.965 3.652c0 .39.017.822.037.96.049.339.193.632.427.865.265.265.544.388 1.003.442l.373.043-1.661 1.66L12 16.86l-1.66-1.66-1.661-1.66.373-.043c.459-.054.738-.177 1.003-.442.234-.233.378-.526.427-.865.02-.138.037-.57.037-.96l.001-.71h2.96z"/></svg>