<svg xmlns="http://www.w3.org/2000/svg" width="24" height="24" fill="none" stroke="currentColor" stroke-linecap="round" stroke-linejoin="round" stroke-width="3"><path fill="#000" fill-rule="evenodd" stroke="none" d="M11.729 3.524c-.473.079-.382-.003-4.297 3.91-3.269 3.267-3.68 3.691-3.774 3.898a1.503 1.503 0 0 0 2.01 2.01c.201-.093.517-.393 2.52-2.391l2.29-2.286.011 5.318.011 5.317.105.248c.25.595.761.938 1.395.938s1.145-.343 1.395-.938l.105-.248.011-5.317.011-5.318 2.29 2.286c2.003 1.998 2.319 2.298 2.52 2.391a1.503 1.503 0 0 0 2.01-2.01c-.094-.207-.505-.631-3.774-3.898-2.918-2.917-3.71-3.687-3.874-3.769s-.644-.2-.734-.18z"/></svg>