<svg xmlns="http://www.w3.org/2000/svg" width="24" height="24" fill="none" stroke="currentColor" stroke-linecap="round" stroke-linejoin="round" stroke-width="3"><path fill="#000" fill-rule="evenodd" stroke="none" d="M11.516 4.577a1.54 1.54 0 0 0-.998 1.233c-.02.138-.037 1-.037 1.916l-.001 1.667-1.49-.862c-.819-.475-1.58-.898-1.69-.941-.304-.119-.837-.086-1.153.071a1.75 1.75 0 0 0-.711.731c-.135.294-.149.767-.034 1.113.16.482.334.618 2.068 1.615.82.472 1.49.869 1.49.882s-.67.41-1.49.881c-1.735.998-1.909 1.134-2.068 1.612-.115.346-.101.819.034 1.113.332.725 1.213 1.08 1.933.779.073-.03.78-.429 1.57-.885a86 86 0 0 1 1.486-.849c.039-.015.052.378.062 1.814L10.5 18.3l.105.248c.25.595.761.938 1.395.938s1.145-.343 1.395-.938l.105-.248.013-1.833c.01-1.436.023-1.829.062-1.814.027.01.696.392 1.486.849s1.497.855 1.57.885a1.48 1.48 0 0 0 1.646-.371c.274-.301.369-.522.393-.921.03-.505-.121-.882-.481-1.199-.099-.086-.847-.543-1.664-1.014s-1.485-.867-1.485-.88.666-.408 1.48-.878c1.478-.853 1.768-1.05 1.937-1.321.246-.39.292-1.007.107-1.411a1.75 1.75 0 0 0-.711-.731c-.315-.157-.849-.19-1.153-.071-.11.043-.87.466-1.69.94l-1.49.863-.001-1.667c0-.916-.017-1.778-.037-1.916a1.51 1.51 0 0 0-.832-1.153c-.195-.099-.28-.116-.608-.125q-.382-.01-.526.045"/></svg>