<svg xmlns="http://www.w3.org/2000/svg" width="24" height="24" fill="none" stroke="currentColor" stroke-linecap="round" stroke-linejoin="round" stroke-width="3"><path fill="#000" fill-rule="evenodd" stroke="none" d="M10.8.563c-3.541.39-6.704 2.37-8.56 5.36a11.46 11.46 0 0 0-.9 10.377 11.5 11.5 0 0 0 8.406 6.978c1.393.281 3.111.282 4.478.001a11.4 11.4 0 0 0 4.154-1.715c.762-.505 1.022-.828 1.097-1.367.066-.474-.06-.859-.398-1.217a1.33 1.33 0 0 0-.963-.452c-.479-.028-.646.031-1.287.459-.311.208-.8.493-1.086.635a8.5 8.5 0 0 1-5.721.638c-3.029-.716-5.48-3.127-6.238-6.134-.211-.839-.239-1.086-.239-2.126 0-.827.013-1.052.085-1.444.163-.89.419-1.647.819-2.43 1.13-2.208 3.184-3.824 5.573-4.383.744-.174 1.037-.203 2.02-.202.999.001 1.284.034 2.09.24a8.49 8.49 0 0 1 5.745 5.047c.474 1.19.621 2.08.599 3.632l-.014.96-.116.228a1.5 1.5 0 0 1-1.562.829 1.51 1.51 0 0 1-1.126-.829l-.116-.228-.021-2.86-.02-2.86-.094-.233a1.54 1.54 0 0 0-.765-.815c-.2-.102-.259-.112-.64-.112-.384 0-.44.01-.649.116a2.1 2.1 0 0 0-.443.331l-.213.215-.377-.178c-1.185-.561-2.592-.661-3.908-.28-1.38.4-2.616 1.427-3.285 2.731a5.49 5.49 0 0 0 .993 6.407 5.6 5.6 0 0 0 2.996 1.542c.494.08 1.278.08 1.772 0 .793-.129 1.722-.518 2.349-.983a4 4 0 0 0 .36-.294c.076-.093.092-.088.29.096.778.724 1.716 1.147 2.731 1.233 2.197.185 4.174-1.223 4.743-3.376.265-1.002.178-3.345-.177-4.781A11.508 11.508 0 0 0 14.726.835c-.95-.227-1.414-.281-2.546-.296-.572-.007-1.193.004-1.38.024m2.017 9.07a2.65 2.65 0 0 1 1.553 1.55c.076.205.088.316.088.817s-.012.612-.088.817c-.23.615-.711 1.157-1.26 1.418-.415.197-.664.255-1.11.255s-.695-.058-1.11-.255c-.551-.262-1.039-.813-1.256-1.418-.108-.299-.146-.987-.075-1.347.171-.872.938-1.674 1.812-1.895.328-.083 1.149-.05 1.446.058"/></svg>