<svg xmlns="http://www.w3.org/2000/svg" width="24" height="24" fill="none" stroke="currentColor" stroke-linecap="round" stroke-linejoin="round" stroke-width="3"><path fill="#000" fill-rule="evenodd" stroke="none" d="M5.3 1.546c-1.168.185-1.908.543-2.612 1.262-.592.605-.958 1.36-1.108 2.285-.078.48-.077 1.442.002 1.982.201 1.369.836 3.071 1.715 4.595l.19.33-.19.33c-.879 1.524-1.514 3.226-1.715 4.595-.08.546-.08 1.502 0 1.994.224 1.38 1.022 2.496 2.218 3.1.978.495 2.384.603 3.84.295 1.229-.259 2.725-.858 4.045-1.619l.315-.182.315.182c1.531.883 3.243 1.522 4.617 1.724.557.081 1.47.082 1.974.001 1.929-.31 3.27-1.693 3.535-3.646.072-.531.032-1.635-.079-2.194-.266-1.344-.864-2.872-1.667-4.265L20.513 12l.182-.315c.803-1.393 1.401-2.921 1.667-4.265.111-.559.151-1.663.079-2.194-.254-1.865-1.46-3.188-3.281-3.599-.511-.115-1.853-.122-2.44-.013-1.409.262-2.808.797-4.329 1.654l-.39.22-.43-.242c-1.478-.83-2.918-1.379-4.271-1.627-.352-.065-1.734-.115-2-.073m1.505 3.033c.621.108 1.682.463 2.267.758l.171.086-.591.511a31 31 0 0 0-2.644 2.638l-.585.671-.086-.171a12 12 0 0 1-.584-1.53c-.257-.89-.304-1.823-.117-2.308.139-.362.426-.58.904-.687.186-.042.955-.023 1.265.032m11.952.053c.483.19.682.546.713 1.271.023.516-.048 1.032-.223 1.639a12 12 0 0 1-.584 1.53l-.086.171-.585-.671a30.5 30.5 0 0 0-2.644-2.637l-.593-.511.152-.078c.552-.283 1.625-.646 2.273-.77.436-.083 1.303-.052 1.577.056m-6.449 2.695c1.432 1.088 2.989 2.619 4.138 4.073.46.582.458.578.371.71-.347.531-1.493 1.838-2.342 2.672-.905.888-2.332 2.098-2.475 2.098-.059 0-.726-.518-1.336-1.038a28 28 0 0 1-2.339-2.322c-.59-.678-1.205-1.453-1.205-1.52 0-.056.564-.782 1.058-1.36a30 30 0 0 1 2.149-2.184c.577-.514 1.596-1.333 1.661-1.335.026 0 .17.092.32.206m-.928 2.247a2.73 2.73 0 0 0-1.279.795c-.21.239-.469.746-.542 1.064A3 3 0 0 0 9.51 12c0 .446.058.695.256 1.112.223.467.655.899 1.122 1.122.417.198.666.256 1.112.256s.695-.058 1.112-.256a2.5 2.5 0 0 0 1.122-1.122c.198-.417.256-.666.256-1.112s-.058-.695-.255-1.11c-.262-.55-.811-1.037-1.418-1.257-.295-.107-1.12-.141-1.437-.059m.964 2.082c.119.119.136.162.136.337 0 .242-.129.424-.343.483a.5.5 0 0 1-.514-.16c-.081-.096-.103-.166-.103-.323 0-.175.017-.218.136-.337s.161-.136.344-.136.224.016.344.136M5.999 15.42a31 31 0 0 0 2.573 2.572l.671.585-.151.078c-.553.286-1.597.638-2.263.765-.394.074-1.1.083-1.373.016-.632-.154-.89-.522-.926-1.323-.039-.835.184-1.776.69-2.926.183-.415.194-.43.261-.36.038.04.271.307.518.593m12.942.158c.396.994.561 1.78.529 2.519-.035.817-.288 1.183-.926 1.339-.273.067-.979.058-1.373-.016-.666-.127-1.71-.479-2.263-.765l-.151-.078.591-.511a31 31 0 0 0 2.644-2.638l.585-.671.086.171c.048.095.173.387.278.65"/></svg>