<svg xmlns="http://www.w3.org/2000/svg" width="24" height="24" fill="none" stroke="currentColor" stroke-linecap="round" stroke-linejoin="round" stroke-width="3"><path fill="#000" fill-rule="evenodd" stroke="none" d="M9.516 1.577c-.554.212-.919.67-1 1.254-.022.162-.033 3.904-.027 9.369l.011 9.1.105.248c.25.595.761.938 1.395.938s1.145-.343 1.395-.938l.105-.248.011-9.1c.006-5.465-.005-9.207-.027-9.369a1.5 1.5 0 0 0-.834-1.174c-.195-.099-.28-.116-.608-.125q-.382-.01-.526.045m8 2c-.555.212-.919.67-1 1.256-.023.162-.033 2.917-.027 6.869L16.5 18.3l.105.248c.25.595.761.938 1.395.938s1.145-.343 1.395-.938l.105-.248.011-6.598c.006-3.952-.004-6.707-.027-6.869a1.5 1.5 0 0 0-.834-1.176c-.195-.099-.28-.116-.608-.125-.253-.007-.431.008-.526.045m-12 1a1.54 1.54 0 0 0-1.001 1.257c-.022.162-.033 2.523-.026 5.869L4.5 17.3l.105.248c.25.595.761.938 1.395.938s1.145-.343 1.395-.938L7.5 17.3l.011-5.597c.007-3.346-.004-5.707-.026-5.869a1.51 1.51 0 0 0-.835-1.177c-.195-.099-.28-.116-.608-.125q-.382-.01-.526.045m8 2c-.557.213-.919.67-1.001 1.261-.023.163-.034 1.736-.027 3.869L12.5 15.3l.105.248c.25.595.761.938 1.395.938s1.145-.343 1.395-.938l.105-.248.012-3.593c.007-2.133-.004-3.706-.027-3.869a1.5 1.5 0 0 0-.835-1.181c-.195-.099-.28-.116-.608-.125q-.382-.01-.526.045m-12 2c-.371.142-.711.446-.864.774-.156.334-.179.663-.165 2.367L.501 13.3l.104.248c.25.594.761.938 1.395.938s1.145-.344 1.395-.938l.104-.248.014-1.582c.008-.912-.004-1.704-.026-1.869-.076-.542-.364-.953-.837-1.192-.195-.099-.28-.116-.608-.125-.253-.007-.431.008-.526.045m20 0c-.371.142-.711.446-.864.774-.156.334-.179.663-.165 2.367l.014 1.582.104.248c.25.594.761.938 1.395.938s1.145-.344 1.395-.938l.104-.248.014-1.582c.008-.912-.004-1.704-.026-1.869-.076-.542-.364-.953-.837-1.192-.195-.099-.28-.116-.608-.125-.253-.007-.431.008-.526.045"/></svg>