<svg xmlns="http://www.w3.org/2000/svg" width="24" height="24" fill="none" stroke="currentColor" stroke-linecap="round" stroke-linejoin="round" stroke-width="3"><path fill="#000" fill-rule="evenodd" stroke="none" d="M13.44.545c-1.46.281-2.515 1.284-2.872 2.734-.058.234-.067 1.116-.086 8.608l-.022 8.347-.097.103a.495.495 0 0 1-.74-.021l-.103-.122-.001-6.567c0-4.061-.016-6.711-.04-6.944-.132-1.255-.824-2.255-1.947-2.818C7.013 3.606 6.705 3.54 6 3.54c-.525 0-.668.014-.932.09-1.261.365-2.189 1.349-2.498 2.649-.051.216-.065.665-.079 2.581-.018 2.497-.011 2.419-.227 2.561-.052.034-.232.077-.4.096-1.269.142-1.813 1.644-.919 2.538.357.358.78.483 1.412.419 1.419-.143 2.588-1.121 3.002-2.51.134-.452.16-.939.16-3.098l.001-2.074.136-.136c.119-.119.161-.136.339-.136.169 0 .226.02.334.117l.131.116.022 6.854c.024 7.552.004 6.997.274 7.697.401 1.039 1.411 1.885 2.534 2.122a4.3 4.3 0 0 0 1.42 0 3.6 3.6 0 0 0 1.798-.998c.573-.6.883-1.272.971-2.111.025-.236.04-3.393.04-8.451l.001-8.074.136-.136c.119-.119.161-.136.339-.136.169 0 .226.02.334.117l.131.116.022 6.854c.024 7.552.004 6.997.274 7.697.401 1.039 1.411 1.885 2.534 2.122a4.3 4.3 0 0 0 1.42 0 3.53 3.53 0 0 0 2.649-2.462c.134-.452.16-.939.16-3.093l.001-2.07.114-.127c.102-.114.152-.134.462-.179.434-.063.709-.189.959-.44.726-.726.523-1.928-.407-2.399-.217-.11-.253-.116-.748-.115-.417.001-.582.019-.832.09-1.257.361-2.19 1.35-2.498 2.648-.05.213-.066.692-.086 2.608l-.024 2.347-.097.103a.495.495 0 0 1-.74-.021l-.103-.122-.001-6.567c0-4.061-.016-6.711-.04-6.944-.132-1.255-.824-2.255-1.946-2.817-.479-.24-.797-.313-1.433-.327a7 7 0 0 0-.66.006"/></svg>