<svg xmlns="http://www.w3.org/2000/svg" width="24" height="24" fill="none" stroke="currentColor" stroke-linecap="round" stroke-linejoin="round" stroke-width="3"><path fill="#000" fill-rule="evenodd" stroke="none" d="M11.02.564a7.55 7.55 0 0 0-4.315 2.142A7.44 7.44 0 0 0 4.522 7.47a7.5 7.5 0 0 0 2.1 5.744l.269.275-.69 3.885c-.469 2.638-.689 3.973-.688 4.158.013 1.466 1.583 2.406 2.906 1.739.088-.044.93-.656 1.87-1.359 1.122-.84 1.726-1.268 1.76-1.248.028.017.807.6 1.731 1.295 1.933 1.454 2.079 1.536 2.74 1.529a1.983 1.983 0 0 0 1.967-1.956c.002-.187-.217-1.509-.688-4.159l-.69-3.885.269-.274c1.701-1.734 2.461-4.301 1.978-6.674A7.54 7.54 0 0 0 13.075.582C12.614.515 11.439.504 11.02.564m2.14 3.093c.441.122 1.163.464 1.48.701.304.228.732.652.969.962.268.35.605 1.052.74 1.54.102.37.11.455.11 1.14s-.008.77-.11 1.14c-.127.458-.466 1.177-.707 1.5-1.326 1.777-3.677 2.355-5.635 1.386a4.9 4.9 0 0 1-1.649-1.386c-.245-.329-.584-1.048-.708-1.5-.101-.369-.109-.458-.109-1.14 0-.685.008-.77.11-1.14.135-.488.472-1.19.74-1.54.237-.31.665-.734.969-.962.301-.225 1.033-.577 1.417-.681.515-.139.65-.153 1.343-.139.561.012.717.03 1.04.119m-3.02 11.606c1.14.306 2.58.306 3.72 0 .198-.053.389-.108.423-.122.055-.021.089.116.236.947l.36 2.022c.103.578.185 1.05.182 1.05s-.388-.285-.855-.634c-.879-.657-1.182-.836-1.595-.943-.307-.08-.909-.081-1.211-.003-.462.12-.606.206-1.649.988-.434.326-.795.592-.803.592s.07-.472.173-1.05l.36-2.022c.147-.831.181-.968.236-.947.034.014.225.069.423.122"/></svg>