<svg xmlns="http://www.w3.org/2000/svg" width="24" height="24" fill="none" stroke="currentColor" stroke-linecap="round" stroke-linejoin="round" stroke-width="3"><path fill="#000" fill-rule="evenodd" stroke="none" d="M12.516 1.577a2.3 2.3 0 0 0-.32.163c-.097.059-1.133 1.065-2.304 2.234-1.863 1.862-2.141 2.155-2.233 2.358a1.58 1.58 0 0 0-.007 1.321c.072.158.249.371.651.784l.551.567-3.801 3.808c-2.351 2.355-3.872 3.91-3.988 4.074-.769 1.096-.893 2.476-.329 3.652a3.55 3.55 0 0 0 1.755 1.742c1.172.55 2.526.419 3.629-.351.158-.11 1.653-1.571 3.81-3.724l3.55-3.543.001.699c0 1.03.092 1.336.517 1.733.407.381.771.463 1.517.344a9.6 9.6 0 0 0 4.405-1.914c.437-.338 1.266-1.167 1.604-1.604.807-1.044 1.426-2.297 1.732-3.504.164-.648.262-1.359.224-1.624a1.52 1.52 0 0 0-.832-1.136l-.228-.116-1.38-.012-1.38-.011-2.88-2.871c-3.282-3.271-3.072-3.096-3.738-3.114q-.382-.01-.526.045m3.023 6.096c1.522 1.518 2.592 2.554 2.701 2.616.284.162.495.202 1.19.227l.649.024-.22.44c-.623 1.242-1.762 2.363-2.989 2.94l-.33.155-.024-.647c-.025-.693-.065-.904-.227-1.188-.062-.109-1.101-1.182-2.625-2.71l-2.523-2.531.919-.919c.506-.506.928-.92.939-.92s1.153 1.131 2.54 2.513M11.44 11.58l.419.421-3.782 3.782c-4.089 4.089-3.873 3.894-4.227 3.815a.64.64 0 0 1-.3-.194c-.14-.151-.15-.177-.15-.412v-.251l3.79-3.791A516 516 0 0 1 11 11.16c.012 0 .21.189.44.42"/></svg>