<svg xmlns="http://www.w3.org/2000/svg" width="24" height="24" fill="none" stroke="currentColor" stroke-linecap="round" stroke-linejoin="round" stroke-width="3"><path fill="#000" fill-rule="evenodd" stroke="none" d="M3.516 2.577a1.54 1.54 0 0 0-.998 1.233c-.053.362-.049 16.101.004 16.424.053.327.187.588.421.823.235.234.496.368.823.421.323.053 16.062.057 16.424.004a1.494 1.494 0 0 0 1.287-1.7 1.51 1.51 0 0 0-.829-1.126l-.228-.116-6.398-.01-6.398-.011 2.306-2.31c2.018-2.022 2.319-2.339 2.412-2.541.354-.775.06-1.631-.694-2.012-.208-.106-.264-.116-.648-.116-.696 0-.536-.126-3.19 2.517l-2.29 2.28-.001-6.138c0-3.436-.017-6.249-.037-6.389a1.51 1.51 0 0 0-.832-1.153c-.195-.099-.28-.116-.608-.125-.253-.007-.431.008-.526.045"/></svg>