<svg xmlns="http://www.w3.org/2000/svg" width="24" height="24" fill="none" stroke="currentColor" stroke-linecap="round" stroke-linejoin="round" stroke-width="3"><path fill="#000" fill-rule="evenodd" stroke="none" d="M10.75 1.578a10.8 10.8 0 0 0-5.225 2.174C3.903 5.015 2.643 6.842 2.002 8.86c-.119.377-.142.416-.4.68C.914 10.246.584 11.042.584 12c0 .959.331 1.757 1.019 2.46.267.273.279.293.454.807a10 10 0 0 0 1.176 2.419c1.535 2.328 3.964 3.97 6.672 4.511.805.161 1.241.203 2.095.203.852 0 1.29-.042 2.088-.202 3.035-.605 5.699-2.587 7.169-5.331.283-.529.47-.966.685-1.604.17-.506.18-.523.451-.8.693-.706 1.021-1.498 1.021-2.463 0-.959-.322-1.743-1.012-2.46l-.269-.28-.208-.642c-.344-1.068-1.015-2.323-1.703-3.188-.413-.519-1.039-.738-1.625-.566a1.46 1.46 0 0 0-1.074 1.27c-.052.488.025.712.452 1.306.689.961 1.076 1.803 1.304 2.84.139.632.333.934.791 1.227.256.165.341.287.341.493s-.085.328-.341.493c-.461.296-.615.534-.805 1.248-.387 1.447-1.037 2.565-2.07 3.56-1.057 1.019-2.238 1.644-3.695 1.956a7.7 7.7 0 0 1-3 0c-1.457-.312-2.638-.937-3.695-1.956-1.032-.994-1.686-2.117-2.068-3.553-.192-.721-.343-.956-.804-1.251-.255-.163-.344-.291-.344-.497s.085-.328.341-.493c.474-.304.616-.533.826-1.329.087-.329.224-.76.304-.958 1.145-2.835 3.877-4.7 6.884-4.7.612 0 .994.067 1.352.238.461.22.704.501.704.813 0 .329-.227.814-.423.903-.136.062-.124.07-.233-.144a1.7 1.7 0 0 0-.696-.674c-.208-.106-.264-.116-.648-.116-.381 0-.44.01-.64.112q-.85.434-.845 1.368c.004.642.21 1.115.7 1.604.5.499 1.106.77 1.905.853 1.307.136 2.504-.488 3.263-1.701.36-.575.568-1.275.604-2.036a3.3 3.3 0 0 0-.262-1.552c-.199-.489-.42-.812-.841-1.229-.662-.656-1.519-1.107-2.514-1.322-.507-.109-1.963-.142-2.62-.059m-2.234 8.999c-1.049.399-1.349 1.701-.571 2.478.58.58 1.53.583 2.107.007a1.47 1.47 0 0 0 0-2.124c-.292-.292-.55-.395-1.012-.407-.247-.006-.431.01-.524.046m6 0c-1.049.399-1.349 1.701-.571 2.478.58.58 1.53.583 2.107.007a1.47 1.47 0 0 0 0-2.124c-.292-.292-.55-.395-1.012-.407-.247-.006-.431.01-.524.046m-4.993 4.007c-1.053.379-1.358 1.677-.581 2.464.325.329 1.084.67 1.869.839.593.128 1.785.128 2.378 0 .785-.169 1.544-.51 1.868-.839.722-.73.517-1.924-.411-2.393-.206-.105-.263-.115-.646-.115-.405 0-.431.005-.74.154-.531.255-.659.284-1.26.284s-.729-.029-1.26-.284c-.289-.139-.355-.155-.68-.164-.251-.007-.414.009-.537.054"/></svg>