<svg xmlns="http://www.w3.org/2000/svg" width="24" height="24" fill="none" stroke="currentColor" stroke-linecap="round" stroke-linejoin="round" stroke-width="3"><path fill="#000" fill-rule="evenodd" stroke="none" d="M10.44.546C9.197.771 8.137 1.641 7.728 2.771c-.153.423-.199.674-.233 1.27l-.027.478-.144.024c-1.246.214-2.087.591-2.924 1.309a5.5 5.5 0 0 0-1.622 2.452c-.291.888-.278.575-.278 6.616 0 4.256.011 5.478.052 5.692.221 1.168 1.036 2.177 2.116 2.617.712.29.191.271 7.332.271 5.895 0 6.444-.006 6.71-.068 1.298-.303 2.276-1.216 2.65-2.47.155-.523.164-.906.15-6.302-.015-5.777-.002-5.484-.288-6.357A5.5 5.5 0 0 0 19.6 5.852c-.839-.72-1.675-1.093-2.93-1.31l-.15-.026-.001-.228c-.005-1.588-.693-2.775-1.986-3.422-.623-.312-.685-.32-2.433-.33a45 45 0 0 0-1.66.01m2.904 3.11c.135.135.136.139.136.5v.364h-2.96v-.364c0-.361.001-.365.136-.5l.136-.136h2.416zm3.473 3.974a2.67 2.67 0 0 1 1.553 1.553l.09.237.011 5.386.01 5.386-.103.123c-.121.143-.308.204-.628.205h-.23l-.001-2.23c0-2.311-.024-2.798-.16-3.254a3.52 3.52 0 0 0-2.427-2.406c-.31-.089-.331-.09-2.932-.09s-2.622.001-2.932.09c-1.261.366-2.188 1.348-2.498 2.649-.052.217-.065.677-.079 2.751l-.017 2.49h-.227c-.317-.001-.505-.062-.624-.204l-.103-.122v-5.275c0-3.744.013-5.337.045-5.487.145-.685.674-1.346 1.346-1.679.474-.236.28-.228 5.169-.22l4.5.007zm-9.301.948c-.365.136-.71.444-.864.774a1.5 1.5 0 0 0 1.158 2.13c.326.047 8.054.047 8.38 0a1.494 1.494 0 0 0 1.287-1.7 1.51 1.51 0 0 0-.829-1.126l-.228-.116-4.38-.008c-3.573-.006-4.407.003-4.524.046m6.828 7.078c.135.135.136.139.136.5v.364H9.52v-.364c0-.361.001-.365.136-.5l.136-.136h4.416zm.136 4.364v.5H9.52v-1h4.96z"/></svg>