<svg xmlns="http://www.w3.org/2000/svg" width="24" height="24" fill="none" stroke="currentColor" stroke-linecap="round" stroke-linejoin="round" stroke-width="3"><path fill="#000" fill-rule="evenodd" stroke="none" d="M13.44.546c-1.251.231-2.303 1.094-2.712 2.225-.153.423-.199.674-.233 1.268l-.027.475-1.024.014c-.939.013-1.044.021-1.261.103-.37.137-.655.324-.968.633a1.9 1.9 0 0 0-.447.62C6.489 6.47 6.5 6.301 6.5 10c0 2.672.011 3.384.054 3.56.175.713.701 1.372 1.334 1.674.596.284.161.266 6.612.266 4.773 0 5.88-.01 6.06-.054.713-.175 1.372-.701 1.674-1.334.277-.582.266-.416.266-4.112 0-3.694.011-3.53-.265-4.11-.261-.549-.803-1.03-1.418-1.259-.217-.082-.322-.09-1.267-.103l-1.03-.014-.001-.227c-.005-1.587-.694-2.775-1.986-3.421-.578-.289-.746-.318-1.933-.329a21 21 0 0 0-1.16.009M1.516 3.576C.465 3.982.167 5.277.945 6.055c.25.25.525.377.955.44.282.041.362.069.451.158l.109.109.022 4.849c.025 5.329.009 5.006.274 5.693.395 1.022 1.424 1.894 2.496 2.112l.248.051.006.456c.011.811.183 1.406.576 1.994a3.56 3.56 0 0 0 2.208 1.509 4.3 4.3 0 0 0 1.42 0c1.693-.358 2.905-1.951 2.779-3.656l-.019-.25h2.044l-.001.43c-.003.762.176 1.379.569 1.967a3.56 3.56 0 0 0 2.208 1.509 4.3 4.3 0 0 0 1.42 0c1.693-.358 2.905-1.951 2.779-3.656l-.019-.25.235-.001c.62-.002 1.029-.142 1.35-.464a1.492 1.492 0 0 0-.275-2.328c-.35-.221.128-.209-8.64-.21-5.166 0-8.174-.014-8.267-.039a.6.6 0 0 1-.25-.162l-.103-.122-.001-4.567c0-2.737-.016-4.718-.04-4.944-.087-.83-.396-1.506-.957-2.098a3.7 3.7 0 0 0-1.569-.948c-.378-.109-1.22-.145-1.437-.061m13.828.08c.135.135.136.139.136.5v.364h-1.96v-.364c0-.361.001-.365.136-.5l.136-.136h1.416zM10.48 10.02v2.5h-.96v-5h.96zm5 0v2.5h-1.96v-5h1.96zm4 0v2.5h-.96v-5h.96zM9.344 19.656c.119.119.136.162.136.337 0 .242-.129.424-.343.483a.5.5 0 0 1-.514-.16c-.081-.096-.103-.166-.103-.323 0-.175.017-.218.136-.337s.161-.136.344-.136.224.016.344.136m9 0c.119.119.136.162.136.337 0 .242-.129.424-.343.483a.5.5 0 0 1-.514-.16c-.081-.096-.103-.166-.103-.323 0-.175.017-.218.136-.337s.161-.136.344-.136.224.016.344.136"/></svg>