<svg xmlns="http://www.w3.org/2000/svg" width="24" height="24" fill="none" stroke="currentColor" stroke-linecap="round" stroke-linejoin="round" stroke-width="3"><path fill="#000" fill-rule="evenodd" stroke="none" d="M10.82.563a11.7 11.7 0 0 0-4.218 1.283c-1.202.641-2.44 1.619-3.228 2.549-.963 1.136-1.537 2.069-2.045 3.325a11.6 11.6 0 0 0-.59 6.609 11.52 11.52 0 0 0 8.932 8.932c1.501.309 3.157.309 4.658 0 1.609-.331 3.269-1.076 4.531-2.033a11.2 11.2 0 0 0 2.368-2.368c.957-1.262 1.702-2.922 2.033-4.531a11.8 11.8 0 0 0 0-4.658C22.306 5.036 18.563 1.433 13.9.663c-.846-.14-2.244-.185-3.08-.1m2.6 3.054c2.416.447 4.406 1.764 5.73 3.791 1.631 2.499 1.778 5.857.375 8.532-.182.346-.514.9-.541.9-.002 0-2.665-2.661-5.917-5.913L7.155 5.015l.232-.154a10 10 0 0 1 1.521-.777c.62-.246 1.301-.413 2.192-.54.306-.043 1.974.01 2.32.073m3.399 15.384c-.029.048-.676.429-1.018.6a9.2 9.2 0 0 1-2.621.821c-.591.088-1.769.088-2.36 0-1.86-.279-3.49-1.094-4.802-2.402-1.289-1.285-2.06-2.766-2.405-4.62-.102-.545-.102-2.255 0-2.8.219-1.179.673-2.348 1.248-3.213l.154-.232 5.91 5.91c3.251 3.251 5.903 5.922 5.894 5.936"/></svg>