<svg xmlns="http://www.w3.org/2000/svg" width="24" height="24" fill="none" stroke="currentColor" stroke-linecap="round" stroke-linejoin="round" stroke-width="3"><path fill="#000" fill-rule="evenodd" stroke="none" d="M12.248.601c-.76.199-1.399.778-1.711 1.55-.422 1.045-.375 2.245.16 4.12.118.412.244.92.281 1.129.091.511.123 1.479.067 2-.056.512-.165 1.08-.207 1.08-.018 0-.182-.035-.365-.079-1.233-.291-2.795-.26-4.193.084-1.227.301-2.892 1.034-3.33 1.464a1.46 1.46 0 0 0 .029 2.126c.244.231.493.354.826.408.349.057.587-.009 1.295-.362 1.196-.595 2.121-.859 3.18-.909.561-.026 1.2.014 1.2.076 0 .071-.506.65-.866.991a8.9 8.9 0 0 1-2.13 1.499c-.671.337-1.216.527-2.478.865-1.141.306-1.409.397-1.906.65a2.4 2.4 0 0 0-.743.545 3.6 3.6 0 0 0-.468.562c-.532.947-.501 2.344.072 3.216.719 1.093 1.994 1.65 4.179 1.825.78.063 2.997.066 3.54.005 2.663-.297 4.966-1.386 6.82-3.225a12.9 12.9 0 0 0 2.523-3.557l.183-.386.227.128c.896.506 1.505 1.241 1.854 2.234.107.307.193.776.193 1.06.001.647.153 1.053.52 1.394.305.282.586.392 1 .392.448 0 .714-.112 1.044-.442.379-.379.45-.58.446-1.264-.009-2.108-1.075-4.201-2.784-5.468-.396-.293-1.028-.671-1.326-.792-.121-.049-.22-.111-.22-.137s.034-.236.076-.465c.291-1.59.335-3.198.121-4.478a18.5 18.5 0 0 0-.57-2.26C17.686 2.968 15.915.984 13.79.58c-.45-.085-1.175-.075-1.542.021m1.399 3.083c.691.352 1.403 1.29 1.953 2.572.391.911.69 1.944.818 2.829.122.836.057 2.277-.15 3.354l-.089.458-.451.051a8 8 0 0 0-.771.126l-.319.075-.266-.324a8 8 0 0 0-.544-.591l-.277-.267.063-.193c.306-.946.465-2.009.466-3.114 0-1.128-.133-1.988-.501-3.226-.221-.743-.299-1.155-.299-1.577v-.335l.099.037c.054.021.175.077.268.125M12.311 15.09c.087.138.232.376.321.53.3.52.628.762 1.162.859.282.051.53.016.832-.118.096-.042.174-.067.174-.054 0 .043-.536.797-.776 1.092-1.188 1.459-2.862 2.506-4.629 2.895-.798.176-1.135.203-2.435.198-1.72-.006-2.708-.114-3.233-.353-.404-.184-.327-.226 1.153-.624 1.65-.443 2.521-.783 3.58-1.395 1.307-.755 2.586-1.884 3.458-3.05.094-.126.185-.23.202-.23s.103.113.191.25"/></svg>