<svg xmlns="http://www.w3.org/2000/svg" width="24" height="24" fill="none" stroke="currentColor" stroke-linecap="round" stroke-linejoin="round" stroke-width="3"><path fill="#000" fill-rule="evenodd" stroke="none" d="M2.516 1.577c-.554.212-.919.67-1 1.254-.022.162-.033 3.904-.027 9.369l.011 9.1.105.248q.25.597.847.847l.248.105 9.1.011c5.465.006 9.207-.005 9.369-.027.858-.119 1.423-.854 1.308-1.702a1.51 1.51 0 0 0-.829-1.126l-.228-.116-8.45-.01-8.45-.011-.001-8.229c0-4.68-.016-8.338-.037-8.48a1.51 1.51 0 0 0-.832-1.153c-.195-.099-.28-.116-.608-.125-.253-.007-.431.008-.526.045M15.38 3.575c-.455.115-.95.423-1.279.794-.209.237-.465.739-.547 1.071-.044.179-.054 1.208-.054 5.56s.01 5.381.054 5.56c.175.713.701 1.372 1.334 1.674.539.257.614.266 2.112.266s1.573-.009 2.112-.266a2.5 2.5 0 0 0 1.122-1.122c.283-.594.266-.212.266-6.112 0-4.352-.01-5.381-.054-5.56-.2-.814-.824-1.507-1.629-1.81-.228-.087-.291-.09-1.737-.098-1.098-.005-1.554.006-1.7.043m2.1 7.445v4.5h-.96v-9h.96zM7.38 8.575c-.455.115-.95.423-1.279.794-.209.237-.465.739-.547 1.071-.079.322-.079 5.798 0 6.12.175.713.701 1.372 1.334 1.674.539.257.614.266 2.112.266s1.573-.009 2.112-.266a2.5 2.5 0 0 0 1.122-1.122c.274-.576.266-.467.266-3.612s.008-3.036-.265-3.61c-.261-.548-.8-1.028-1.418-1.26-.228-.087-.291-.09-1.737-.098-1.098-.005-1.554.006-1.7.043m2.1 4.945v2h-.96v-4h.96z"/></svg>