<svg xmlns="http://www.w3.org/2000/svg" width="24" height="24" fill="none" stroke="currentColor" stroke-linecap="round" stroke-linejoin="round" stroke-width="3"><path fill="#000" fill-rule="evenodd" stroke="none" d="M17.516 2.577c-.554.212-.919.67-1 1.255-.023.161-.033 3.509-.027 8.368l.011 8.1.105.248c.25.595.761.938 1.395.938s1.145-.343 1.395-.938l.105-.248.011-8.1c.006-4.859-.004-8.207-.027-8.368a1.5 1.5 0 0 0-.834-1.175c-.195-.099-.28-.116-.608-.125-.253-.007-.431.008-.526.045m-6 6a1.54 1.54 0 0 0-1.001 1.258c-.022.162-.033 2.326-.026 5.368L10.5 20.3l.105.248c.25.595.761.938 1.395.938s1.145-.343 1.395-.938l.105-.248.011-5.097c.007-3.042-.004-5.206-.026-5.368a1.51 1.51 0 0 0-.835-1.178c-.195-.099-.28-.116-.608-.125q-.382-.01-.526.045m-6 6c-.559.214-.919.67-1.002 1.267-.023.165-.034 1.152-.027 2.369L4.5 20.3l.105.248c.25.595.761.938 1.395.938s1.145-.343 1.395-.938L7.5 20.3l.013-2.087c.007-1.217-.004-2.204-.027-2.369-.075-.537-.364-.948-.836-1.187-.195-.099-.28-.116-.608-.125q-.382-.01-.526.045"/></svg>