<svg xmlns="http://www.w3.org/2000/svg" width="24" height="24" fill="none" stroke="currentColor" stroke-linecap="round" stroke-linejoin="round" stroke-width="3"><path fill="#000" fill-rule="evenodd" stroke="none" d="M2.516 1.577c-.554.212-.919.67-1 1.254-.022.162-.033 3.904-.027 9.369l.011 9.1.105.248q.25.597.847.847l.248.105 9.1.011c5.465.006 9.207-.005 9.369-.027.858-.119 1.423-.854 1.308-1.702a1.51 1.51 0 0 0-.829-1.126l-.228-.116-8.45-.01-8.45-.011-.001-8.229c0-4.68-.016-8.338-.037-8.48a1.51 1.51 0 0 0-.832-1.153c-.195-.099-.28-.116-.608-.125-.253-.007-.431.008-.526.045m15 2c-.555.212-.919.67-1 1.256-.023.162-.034 2.721-.027 6.369L16.5 17.3l.105.248c.25.595.761.938 1.395.938s1.145-.343 1.395-.938l.105-.248.011-6.098c.007-3.648-.004-6.207-.027-6.369a1.5 1.5 0 0 0-.834-1.176c-.195-.099-.28-.116-.608-.125-.253-.007-.431.008-.526.045m-5 4c-.556.213-.919.67-1.001 1.259-.022.164-.033 1.933-.026 4.369L11.5 17.3l.105.248c.25.595.761.938 1.395.938s1.145-.343 1.395-.938l.105-.248.011-4.095c.007-2.436-.004-4.205-.026-4.369a1.51 1.51 0 0 0-.835-1.179c-.195-.099-.28-.116-.608-.125q-.382-.01-.526.045m-5 5c-.371.142-.711.446-.864.774-.156.334-.179.663-.165 2.367l.014 1.582.104.248c.25.594.761.938 1.395.938s1.145-.344 1.395-.938l.104-.248.014-1.582c.008-.912-.004-1.704-.026-1.869-.076-.542-.364-.953-.837-1.192-.195-.099-.28-.116-.608-.125q-.382-.01-.526.045"/></svg>