<svg xmlns="http://www.w3.org/2000/svg" width="24" height="24" fill="none" stroke="currentColor" stroke-linecap="round" stroke-linejoin="round" stroke-width="3"><path fill="#000" fill-rule="evenodd" stroke="none" d="M2.516 1.577c-.554.212-.919.67-1 1.254-.022.162-.033 3.904-.027 9.369l.011 9.1.105.248q.25.597.847.847l.248.105 9.1.011c5.465.006 9.207-.005 9.369-.027.858-.119 1.423-.854 1.308-1.702a1.51 1.51 0 0 0-.829-1.126l-.228-.116-8.45-.01-8.45-.011-.001-8.229c0-4.68-.016-8.338-.037-8.48a1.51 1.51 0 0 0-.832-1.153c-.195-.099-.28-.116-.608-.125-.253-.007-.431.008-.526.045M7.38 3.576c-.453.112-.95.421-1.279.793-.209.237-.465.739-.547 1.071-.077.313-.077 2.807 0 3.12.175.713.701 1.372 1.334 1.674.594.283.212.266 6.112.266 4.352 0 5.381-.01 5.56-.054.713-.175 1.372-.701 1.674-1.334.257-.539.266-.614.266-2.112 0-1.497-.01-1.573-.265-2.11-.261-.548-.8-1.027-1.418-1.26l-.237-.09-5.5-.007c-4.271-.005-5.545.004-5.7.043m10.1 3.444v.5H8.52v-1h8.96zm-10.1 4.556c-.453.113-.95.421-1.279.793-.209.237-.465.739-.547 1.071-.077.313-.077 2.807 0 3.12.175.713.701 1.372 1.334 1.674.576.274.467.266 3.612.266s3.036.008 3.612-.266a2.5 2.5 0 0 0 1.122-1.122c.257-.539.266-.614.266-2.112 0-1.497-.01-1.573-.265-2.11-.261-.548-.8-1.027-1.418-1.26l-.237-.09-3-.007c-2.288-.006-3.047.004-3.2.043m5.1 3.444v.5H8.52v-1h3.96z"/></svg>