<svg xmlns="http://www.w3.org/2000/svg" width="24" height="24" fill="none" stroke="currentColor" stroke-linecap="round" stroke-linejoin="round" stroke-width="3"><path fill="#000" fill-rule="evenodd" stroke="none" d="M11.486 2.598c-.229.084-.43.222-.615.42-.064.068-1.48 2.853-3.214 6.322-2.312 4.625-3.11 6.255-3.139 6.418-.076.427.104.985.416 1.288.226.218.44.339.741.416.306.078.653.033.995-.129.418-.197.498-.32 1.413-2.143l.838-1.67h6.158l.838 1.67c.915 1.823.995 1.946 1.413 2.143.342.162.689.207.995.129a1.5 1.5 0 0 0 1.151-1.259c.026-.158.027-.326.004-.456-.026-.148-.916-1.966-3.134-6.407-3.405-6.815-3.192-6.429-3.698-6.683-.305-.154-.833-.18-1.162-.059M12.79 8.94c.424.847.77 1.549.77 1.56s-.702.02-1.56.02-1.56-.009-1.56-.02c0-.039 1.54-3.1 1.56-3.1.011 0 .367.693.79 1.54m-9.274 9.639c-.365.134-.71.443-.864.773a1.5 1.5 0 0 0 1.158 2.13c.142.021 3.678.036 8.19.036s8.048-.015 8.19-.036a1.494 1.494 0 0 0 1.287-1.7 1.51 1.51 0 0 0-.829-1.126l-.228-.116-8.38-.007c-6.9-.006-8.406.002-8.524.046"/></svg>