<svg xmlns="http://www.w3.org/2000/svg" width="24" height="24" fill="none" stroke="currentColor" stroke-linecap="round" stroke-linejoin="round" stroke-width="3"><path fill="#000" fill-rule="evenodd" stroke="none" d="M4.8 1.579a3.5 3.5 0 0 0-.64.248c-.321.16-.44.249-.762.571-.431.431-.656.807-.808 1.351-.085.306-.087.366-.101 3.538l-.013 3.226-.448.014c-.4.012-.472.025-.676.129-.93.471-1.133 1.673-.407 2.399.316.316.731.462 1.321.464l.207.001.018 1.97c.019 2.147.023 2.186.265 2.814.392 1.016 1.447 1.912 2.485 2.109l.228.043.025.434c.036.629.171.93.577 1.285.473.413 1.385.413 1.858 0 .397-.346.537-.651.576-1.25l.027-.405h6.936l.027.405c.039.599.179.904.576 1.25.473.413 1.385.413 1.858 0 .406-.355.541-.656.577-1.285l.025-.434.228-.043c.976-.186 2.005-1.016 2.419-1.952.302-.684.34-1.045.341-3.231l.001-1.71.21-.001c.595-.002 1.008-.147 1.325-.464a1.492 1.492 0 0 0-.275-2.328c-.351-.221.15-.21-8.89-.208l-8.37.002v-5.86l.678.677.677.676-.094.112c-.273.325-.351.98-.169 1.429.234.58.755.931 1.382.931.417 0 .699-.109 1.04-.405.146-.127.703-.673 1.237-1.213.79-.799.99-1.025 1.074-1.207a1.505 1.505 0 0 0-.697-2.005c-.188-.096-.289-.118-.576-.13-.394-.016-.63.045-.892.229l-.16.113-.88-.866c-.963-.948-1.241-1.155-1.8-1.346-.264-.09-.404-.111-.8-.122a3.4 3.4 0 0 0-.74.045m13.68 13.778v1.837l-.103.122a.6.6 0 0 1-.25.162c-.201.054-12.053.054-12.254 0a.6.6 0 0 1-.25-.162l-.103-.122V13.52h12.96z"/></svg>