<svg xmlns="http://www.w3.org/2000/svg" width="24" height="24" fill="none" stroke="currentColor" stroke-linecap="round" stroke-linejoin="round" stroke-width="3"><path fill="#000" fill-rule="evenodd" stroke="none" d="M3.44 5.547A3.56 3.56 0 0 0 .552 8.388c-.075.393-.075 6.831 0 7.224.221 1.168 1.036 2.177 2.115 2.617.474.193.783.249 1.533.276 1.058.039 1.465-.06 1.855-.45.726-.726.523-1.928-.407-2.399-.223-.113-.247-.117-1.008-.137-.822-.022-.889-.036-1.037-.224-.082-.105-.083-.127-.083-3.304V8.792l.136-.136.136-.136 1.074-.001c.591 0 1.186-.017 1.324-.037a1.494 1.494 0 0 0 1.287-1.7 1.51 1.51 0 0 0-.829-1.126L6.42 5.54l-1.44-.005a37 37 0 0 0-1.54.012m7.083.039a1.6 1.6 0 0 0-.595.376c-.172.171-3.282 5.354-3.357 5.594-.085.276-.074.702.025.964.155.411.535.774.948.907.14.046.421.069.986.083.435.011.79.025.79.032s-.371.63-.825 1.385a48 48 0 0 0-.879 1.498c-.228.538-.095 1.196.328 1.625a1.48 1.48 0 0 0 2.088.025c.205-.201 3.307-5.343 3.396-5.631.032-.101.057-.31.057-.465.001-.582-.295-1.046-.845-1.327-.218-.111-.227-.112-1.09-.125-.478-.007-.87-.028-.87-.047s.381-.668.846-1.443c.465-.774.871-1.491.902-1.593.234-.753-.195-1.601-.943-1.863-.225-.078-.731-.076-.962.005m3.993-.009c-1.049.399-1.349 1.701-.571 2.478.369.369.71.463 1.689.464l.574.001.136.136.136.136v3.199c0 3.177-.001 3.199-.083 3.304-.158.201-.178.204-1.537.225l-1.28.02-.228.116c-.93.471-1.133 1.673-.407 2.399.242.242.53.38.906.433.432.061 2.537.015 2.879-.063a3.6 3.6 0 0 0 2.145-1.442 3.44 3.44 0 0 0 .604-1.666c.052-.495.052-6.139 0-6.634-.132-1.255-.824-2.255-1.946-2.817-.568-.284-.754-.317-1.873-.331-.776-.01-1.032-.001-1.144.042m7 4c-.371.142-.711.446-.864.774-.149.319-.181.681-.164 1.869.015 1.052.018 1.086.118 1.328.246.593.759.938 1.394.938s1.148-.345 1.394-.938c.1-.242.103-.276.118-1.328.017-1.187-.015-1.549-.163-1.869-.124-.266-.406-.546-.699-.694-.195-.099-.28-.116-.608-.125-.253-.007-.431.008-.526.045"/></svg>