<svg xmlns="http://www.w3.org/2000/svg" width="24" height="24" fill="none" stroke="currentColor" stroke-linecap="round" stroke-linejoin="round" stroke-width="3"><path fill="#000" fill-rule="evenodd" stroke="none" d="M3.44 5.547C2.01 5.8.916 6.842.569 8.279.515 8.502.504 9 .49 11.68c-.011 2.138-.002 3.278.028 3.573.088.844.425 1.536 1.059 2.17.616.615 1.317.965 2.115 1.054.466.052 2.15.056 2.498.005a1.494 1.494 0 0 0 1.287-1.7 1.51 1.51 0 0 0-.829-1.126l-.228-.116-1.24-.02c-.865-.014-1.266-.035-1.325-.068a1.2 1.2 0 0 1-.21-.192l-.125-.143V8.792l.136-.136.136-.136 1.074-.001c.591 0 1.186-.017 1.324-.037a1.494 1.494 0 0 0 1.287-1.7 1.51 1.51 0 0 0-.829-1.126L6.42 5.54l-1.44-.005a37 37 0 0 0-1.54.012m6.076.03c-.557.213-.919.67-1.001 1.262-.023.164-.034 1.541-.027 3.369L8.5 13.3l.105.248c.25.595.761.938 1.395.938s1.145-.343 1.395-.938l.105-.248.012-3.092c.007-1.828-.004-3.205-.027-3.369a1.51 1.51 0 0 0-.835-1.182c-.195-.099-.28-.116-.608-.125q-.382-.01-.526.045m4 0c-.532.201-.921.673-.993 1.205a1.494 1.494 0 0 0 1.287 1.7c.138.02.733.037 1.324.037l1.074.001.136.136.136.136v6.325l-.125.143c-.07.079-.164.165-.21.192-.059.033-.46.054-1.325.068l-1.24.02-.228.116a1.51 1.51 0 0 0-.829 1.126 1.494 1.494 0 0 0 1.287 1.7c.341.05 2.047.047 2.488-.004.823-.094 1.492-.428 2.122-1.058s.964-1.299 1.058-2.122c.054-.467.054-6.108.001-6.615-.154-1.465-1.113-2.623-2.526-3.05-.277-.083-.377-.089-1.793-.099-1.19-.009-1.53 0-1.644.043m8 4c-.371.142-.711.446-.864.774-.149.319-.181.681-.164 1.869.015 1.052.018 1.086.118 1.328.246.593.759.938 1.394.938s1.148-.345 1.394-.938c.1-.242.103-.276.118-1.328.017-1.187-.015-1.549-.163-1.869-.124-.266-.406-.546-.699-.694-.195-.099-.28-.116-.608-.125-.253-.007-.431.008-.526.045m-12 6c-1.046.4-1.349 1.703-.578 2.475a1.47 1.47 0 0 0 2.124 0c.719-.719.511-1.928-.412-2.395-.195-.099-.28-.116-.608-.125q-.382-.01-.526.045"/></svg>