<svg xmlns="http://www.w3.org/2000/svg" width="24" height="24" fill="none" stroke="currentColor" stroke-linecap="round" stroke-linejoin="round" stroke-width="3"><path fill="#000" fill-rule="evenodd" stroke="none" d="M3.44 5.547A3.56 3.56 0 0 0 .552 8.388c-.075.393-.075 6.831 0 7.224.221 1.168 1.036 2.177 2.116 2.617.712.29.191.271 7.332.271 5.895 0 6.444-.006 6.71-.068 1.537-.359 2.605-1.561 2.769-3.115.052-.495.052-6.139 0-6.634-.154-1.464-1.104-2.611-2.526-3.052l-.293-.09-6.56-.006c-3.608-.002-6.605.003-6.66.012m12.904 3.109.136.136v6.402l-.103.122a.6.6 0 0 1-.25.163c-.204.056-12.05.056-12.254 0a.6.6 0 0 1-.25-.163l-.103-.122V8.792l.136-.136.136-.136h12.416zm-10.828.921c-.371.142-.711.446-.864.774-.149.319-.181.681-.164 1.869.015 1.052.018 1.086.118 1.328.246.593.759.938 1.394.938s1.148-.345 1.394-.938c.1-.242.103-.276.118-1.328.017-1.187-.015-1.549-.163-1.869-.124-.266-.406-.546-.699-.694-.195-.099-.28-.116-.608-.125q-.382-.01-.526.045m4 0c-.371.142-.711.446-.864.774-.149.319-.181.681-.164 1.869.015 1.052.018 1.086.118 1.328.246.593.759.938 1.394.938s1.148-.345 1.394-.938c.1-.242.103-.276.118-1.328.017-1.187-.015-1.549-.163-1.869-.124-.266-.406-.546-.699-.694-.195-.099-.28-.116-.608-.125q-.382-.01-.526.045m4 0c-.371.142-.711.446-.864.774-.149.319-.181.681-.164 1.869.015 1.052.018 1.086.118 1.328.246.593.759.938 1.394.938s1.148-.345 1.394-.938c.1-.242.103-.276.118-1.328.017-1.187-.015-1.549-.163-1.869-.124-.266-.406-.546-.699-.694-.195-.099-.28-.116-.608-.125q-.382-.01-.526.045m8 0c-.371.142-.711.446-.864.774-.149.319-.181.681-.164 1.869.015 1.052.018 1.086.118 1.328.246.593.759.938 1.394.938s1.148-.345 1.394-.938c.1-.242.103-.276.118-1.328.017-1.187-.015-1.549-.163-1.869-.124-.266-.406-.546-.699-.694-.195-.099-.28-.116-.608-.125-.253-.007-.431.008-.526.045"/></svg>