<svg xmlns="http://www.w3.org/2000/svg" width="24" height="24" fill="none" stroke="currentColor" stroke-linecap="round" stroke-linejoin="round" stroke-width="3"><path fill="#000" fill-rule="evenodd" stroke="none" d="M4.98 1.52c-.851.019-.888.024-1.109.128-.251.117-.582.421-.693.636a1.5 1.5 0 0 0 .392 1.88c.217.172.569.316.77.316h.138l.013 7.49c.011 6.722.019 7.517.077 7.751.343 1.391 1.345 2.389 2.722 2.711.263.062.695.068 4.71.068s4.447-.006 4.71-.068a3.7 3.7 0 0 0 1.798-1.004c.573-.6.883-1.272.971-2.111.025-.235.04-3.106.04-7.602l.001-7.225.192-.018c.413-.04.928-.398 1.119-.776a1.505 1.505 0 0 0-.814-2.094c-.223-.083-.234-.083-7.19-.093-3.832-.005-7.363 0-7.847.011m11.5 7v4H7.52v-8h8.96zm0 8.837v1.837l-.103.122a.6.6 0 0 1-.25.163c-.202.056-8.052.056-8.254 0a.6.6 0 0 1-.25-.163l-.103-.122V15.52h8.96z"/></svg>