<svg xmlns="http://www.w3.org/2000/svg" width="24" height="24" fill="none" stroke="currentColor" stroke-linecap="round" stroke-linejoin="round" stroke-width="3"><path fill="#000" fill-rule="evenodd" stroke="none" d="M15.52.526c-2.887.16-5.447 2.037-6.513 4.774-.068.176-.207.617-.307.98-.245.881-.487 1.386-.811 1.685s-.721.482-1.601.733c-.412.117-.888.269-1.058.337a7.56 7.56 0 0 0-3.568 2.957 8.6 8.6 0 0 0-.777 1.641c-.627 1.971-.484 3.926.42 5.735 1.064 2.129 3.101 3.626 5.495 4.037.703.12 2.075.109 3.154-.028a15.7 15.7 0 0 0 7.066-2.771c1.277-.917 2.647-2.283 3.556-3.546a15.6 15.6 0 0 0 2.802-7.12c.135-1.072.146-2.45.027-3.14-.357-2.069-1.518-3.879-3.215-5.013C18.782.846 17.24.43 15.52.526m1.412 3.079c1.65.325 2.99 1.606 3.439 3.287.079.295.088.426.088 1.308-.001.592-.022 1.13-.054 1.36-.397 2.862-1.562 5.234-3.544 7.224-1.136 1.141-2.154 1.871-3.476 2.495a12.2 12.2 0 0 1-4.715 1.197c-1.487.084-2.451-.169-3.387-.889-1.161-.893-1.77-2.137-1.766-3.607.004-1.21.37-2.13 1.232-3.099l.16-.178.33.307c1.448 1.344 3.423 1.805 5.349 1.247 1.722-.499 3.17-1.947 3.669-3.669.234-.808.297-1.787.164-2.528a5.75 5.75 0 0 0-1.411-2.821l-.307-.33.178-.16c1.208-1.075 2.518-1.445 4.051-1.144m-5.513 4.8c.075.32.076.861.001 1.175a2.7 2.7 0 0 1-.632 1.14 2.47 2.47 0 0 1-1.288.722c-.283.062-.838.052-1.115-.022-.363-.095-.379-.116-.158-.199a6.2 6.2 0 0 0 1.155-.614c.761-.511 1.402-1.321 1.787-2.258.142-.345.156-.342.25.056"/></svg>