<svg xmlns="http://www.w3.org/2000/svg" width="24" height="24" fill="none" stroke="currentColor" stroke-linecap="round" stroke-linejoin="round" stroke-width="3"><path fill="#000" fill-rule="evenodd" stroke="none" d="M1.516.577C.655.907.276 1.832.659 2.668c.093.205.441.568 2.971 3.1 1.826 1.829 2.844 2.876 2.807 2.888-.031.01-.228.065-.437.123-1.784.49-3.305 1.617-4.338 3.213a8.6 8.6 0 0 0-.777 1.641c-.627 1.971-.484 3.926.42 5.735 1.064 2.129 3.101 3.626 5.495 4.037.701.12 2.135.108 3.18-.028a16 16 0 0 0 3.073-.724 15.2 15.2 0 0 0 4.339-2.323l.453-.342 1.63 1.625c1.398 1.393 1.663 1.64 1.859 1.73a1.503 1.503 0 0 0 2.008-2.011c-.095-.21-1.076-1.202-10.274-10.395C1.635-.49 2.738.551 2.042.532c-.253-.007-.431.008-.526.045m13.407.004a7.53 7.53 0 0 0-5.64 4.099c-.131.275-.143.329-.143.66 0 .321.014.389.126.626.164.347.379.549.828.784.273.142.442.266.666.49s.348.393.49.666c.235.449.437.664.784.828.237.112.305.126.626.126.32 0 .389-.014.62-.124.585-.278.925-.861.866-1.486-.047-.503-.544-1.368-1.189-2.066l-.255-.276.219-.198a4.7 4.7 0 0 1 1.707-.988c.476-.159.819-.209 1.412-.207 2.044.009 3.793 1.372 4.32 3.367.165.625.154 1.99-.025 3.118-.196 1.241-.546 2.325-1.157 3.58-.35.721-.41.95-.34 1.305.069.354.188.584.42.817.514.516 1.26.6 1.871.211.295-.187.417-.359.767-1.07a15.2 15.2 0 0 0 1.505-5.083c.073-.641.11-1.749.074-2.262-.236-3.399-2.696-6.184-6.057-6.86-.568-.114-1.915-.145-2.495-.057M9.074 11.214l.252.254-.175.024c-.206.029-.603-.023-.911-.117l-.22-.068.155-.061a7 7 0 0 0 .38-.17 3 3 0 0 1 .246-.113c.012-.002.135.111.273.251M5.229 13a5.51 5.51 0 0 0 4.83 1.398 7.3 7.3 0 0 0 1.333-.446l.285-.136 2.001 2.002c1.101 1.101 2.002 2.015 2.002 2.031s-.194.166-.43.334a12.43 12.43 0 0 1-6.596 2.295c-1.478.08-2.44-.174-3.371-.891-1.161-.893-1.77-2.137-1.766-3.607.004-1.197.33-2.038 1.175-3.03.108-.127.205-.23.216-.23s.156.126.321.28"/></svg>