<svg xmlns="http://www.w3.org/2000/svg" width="24" height="24" fill="none" stroke="currentColor" stroke-linecap="round" stroke-linejoin="round" stroke-width="3"><path fill="#000" fill-rule="evenodd" stroke="none" d="M6.44 2.547c-1.42.245-2.536 1.307-2.869 2.732-.047.203-.065.628-.08 1.925l-.019 1.665-.146.069c-.646.308-1.331 1.094-1.6 1.838-.231.639-.226.516-.226 5.204v4.32l.105.248c.168.399.453.684.84.84.476.193 1.127.099 1.484-.213.397-.346.537-.651.576-1.25l.027-.405h14.936l.027.405c.039.599.179.904.576 1.25.357.312 1.008.406 1.484.213.387-.156.672-.441.84-.84l.105-.248.012-4.08c.007-2.614-.004-4.229-.03-4.495-.087-.865-.388-1.536-.96-2.14-.237-.251-.607-.532-.852-.649l-.15-.071-.001-1.402c0-1.504-.033-2.001-.16-2.427-.348-1.169-1.217-2.037-2.406-2.405l-.293-.09-5.56-.006c-3.058-.003-5.605.003-5.66.012m10.904 3.109.136.136V8.52H6.52V5.792l.136-.136.136-.136h10.416zm2 6 .136.136v4.728H4.52v-4.728l.136-.136.136-.136h14.416z"/></svg>