<svg xmlns="http://www.w3.org/2000/svg" width="24" height="24" fill="none" stroke="currentColor" stroke-linecap="round" stroke-linejoin="round" stroke-width="3"><path fill="#000" fill-rule="evenodd" stroke="none" d="M8.58 2.521c-3.215.021-3.242.022-3.533.111a3.58 3.58 0 0 0-2.476 2.647c-.047.203-.065.628-.08 1.925l-.019 1.665-.146.069c-.646.308-1.331 1.094-1.6 1.838-.231.639-.226.516-.226 5.204v4.32l.105.248c.168.399.453.684.84.84.476.193 1.127.099 1.484-.213.397-.346.537-.651.576-1.25l.027-.405h16.936l.027.405c.039.599.179.904.576 1.25.357.312 1.008.406 1.484.213.387-.156.672-.441.84-.84l.105-.248.012-4.08c.007-2.614-.004-4.229-.03-4.495-.087-.865-.388-1.536-.96-2.14-.237-.251-.607-.532-.852-.649l-.15-.071-.001-1.402c0-1.504-.033-2.001-.16-2.427a3.53 3.53 0 0 0-2.406-2.402c-.272-.082-.387-.09-1.633-.101a529 529 0 0 0-8.74-.012m1.9 4.499v1.5H5.52V5.792l.136-.136.136-.136h4.688zm7.864-1.364.136.136V8.52h-4.96v-3h4.688zm2 6 .136.136v4.728H3.52v-4.728l.136-.136.136-.136h16.416z"/></svg>