<svg xmlns="http://www.w3.org/2000/svg" width="24" height="24" fill="none" stroke="currentColor" stroke-linecap="round" stroke-linejoin="round" stroke-width="3"><path fill="#000" fill-rule="evenodd" stroke="none" d="M1.516 2.577c-.554.212-.919.67-1 1.255C.493 3.993.483 7.341.489 12.2L.5 20.3l.105.248c.25.595.761.938 1.395.938.635 0 1.15-.346 1.393-.938.096-.234.103-.296.119-1.138l.018-.89h16.94l.018.89c.016.842.023.904.119 1.138.243.592.758.938 1.393.938.634 0 1.145-.343 1.395-.938l.105-.248.012-5.08c.012-5.264.002-5.664-.152-6.182a3.49 3.49 0 0 0-2.753-2.477c-.138-.026-3.2-.041-8.65-.042L3.52 6.517l-.001-1.228c0-.676-.017-1.341-.037-1.479a1.51 1.51 0 0 0-.832-1.153c-.195-.099-.28-.116-.608-.125-.253-.007-.431.008-.526.045M4.48 12.52v3h-.96v-6h.96zm15.864-2.864.136.136v5.728H7.52v-6h12.688z"/></svg>