<svg xmlns="http://www.w3.org/2000/svg" width="24" height="24" fill="none" stroke="currentColor" stroke-linecap="round" stroke-linejoin="round" stroke-width="3"><path fill="#000" fill-rule="evenodd" stroke="none" d="M11.42.578Q8.808.964 6.944 2.759A7.6 7.6 0 0 0 5.333 4.96c-.246.49-.529 1.302-1.249 3.58-.263.831-.495 1.347-.775 1.725-.256.346-.695.82-1.104 1.195-.193.176-.466.449-.608.606C.571 13.208.225 14.99.746 16.452c.151.425 2.352 4.8 2.583 5.136.609.884 1.64 1.569 2.731 1.814.705.159 2.17.107 3.6-.126 1.849-.301 3.793-.933 5.642-1.833.95-.462 1.474-.757 2.258-1.273 1.561-1.026 2.703-2.013 3.37-2.91.716-.964 1.287-2.316 1.471-3.48a8.5 8.5 0 0 0-.22-3.506c-.089-.306-.743-1.689-2.526-5.343-.664-1.361-1.735-2.505-3.109-3.324-.838-.499-1.667-.805-2.686-.991-.485-.088-1.944-.111-2.44-.038m1.843 2.985c1.635.227 3.149 1.399 3.82 2.954.288.667.401 1.237.4 2.009a4.9 4.9 0 0 1-.825 2.744c-.695 1.069-2.895 2.678-4.943 3.615-2.101.961-4.099 1.487-6.041 1.59-.991.052-1.291-.017-1.687-.392a2 2 0 0 1-.33-.432c-.107-.212-.117-.266-.117-.651 0-.602.05-.686.913-1.541.985-.975 1.488-1.618 1.885-2.411.263-.525.416-.944.8-2.2.476-1.558.718-2.248.932-2.663.703-1.361 2.152-2.408 3.63-2.621a8 8 0 0 1 1.563-.001M11.72 4.582c-1.637.35-2.899 1.648-3.164 3.252a5.3 5.3 0 0 0 0 1.332c.27 1.637 1.641 3.008 3.278 3.278.341.056.991.056 1.332 0 1.634-.27 3.008-1.644 3.278-3.278a5.3 5.3 0 0 0 0-1.332c-.229-1.39-1.301-2.659-2.624-3.106-.616-.208-1.517-.271-2.1-.146m1.303 3.08c.283.174.431.432.451.784.013.237 0 .305-.095.499-.349.713-1.379.724-1.748.018a.98.98 0 0 1 .418-1.341c.181-.092.251-.105.495-.094.232.011.319.035.479.134m6.397 5.678a5.2 5.2 0 0 1-.785 1.96c-.69 1.05-2.901 2.661-4.92 3.585-2.101.961-4.099 1.487-6.041 1.59-.746.039-1.036.01-1.334-.134-.231-.113-.524-.4-.675-.665l-.106-.185.491-.028c2.254-.13 4.861-.856 7.252-2.02.95-.462 1.474-.757 2.258-1.273 1.87-1.229 3.128-2.394 3.764-3.486l.136-.233.012.264c.007.146-.017.427-.052.625"/></svg>