<svg xmlns="http://www.w3.org/2000/svg" width="24" height="24" fill="none" stroke="currentColor" stroke-linecap="round" stroke-linejoin="round" stroke-width="3"><path fill="#000" fill-rule="evenodd" stroke="none" d="M10.172.601c-.694.157-1.244.468-2.06 1.164l-.267.229-.233-.054c-.127-.03-.428-.109-.666-.177-.645-.181-1.027-.243-1.492-.243-1.692 0-3.211 1.108-3.75 2.734A3.7 3.7 0 0 0 1.513 5.5c0 .693.141 1.266.46 1.872.304.576.877 1.202 1.356 1.481l.148.087.014 5.76c.011 5.117.02 5.789.077 6.021.341 1.389 1.345 2.389 2.722 2.711.263.062.695.068 4.71.068 4.913 0 4.632.014 5.336-.273.783-.319 1.51-1.016 1.842-1.766.263-.596.34-1.103.341-2.25l.001-.729.11-.023c1.126-.227 1.859-.597 2.546-1.283.429-.43.715-.853.954-1.416a4.49 4.49 0 0 0-.555-4.483 5.8 5.8 0 0 0-.935-.919c-.46-.344-1.349-.712-1.917-.793l-.183-.026-.011-.299-.011-.3.151-.087c.269-.155.683-.53.94-.852a4.1 4.1 0 0 0 .835-1.835 5.3 5.3 0 0 0 0-1.332c-.23-1.391-1.3-2.658-2.626-3.106a4.15 4.15 0 0 0-2.398-.058l-.852.229-.411.109-.115-.094-.549-.447c-.534-.436-1.135-.747-1.673-.866a4.4 4.4 0 0 0-1.648 0m1.119 2.974c.071.03.309.206.529.391.566.477.733.598 1.024.745.756.381 1.54.377 2.89-.016.759-.22.978-.226 1.292-.032.284.176.429.433.447.793.012.25 0 .31-.101.502a.97.97 0 0 1-.68.513c-.173.031-.265.021-.56-.058-1.507-.408-1.95-.467-2.692-.36-.253.037-.718.138-1.032.225-.7.193-1.237.251-1.826.197a6.4 6.4 0 0 1-.99-.197 10 10 0 0 0-1.032-.225c-.742-.107-1.185-.048-2.692.36-.295.079-.387.089-.56.058a.97.97 0 0 1-.68-.513c-.101-.192-.113-.252-.101-.502.018-.36.163-.617.447-.793.313-.193.531-.188 1.312.031 1.365.382 2.007.399 2.731.07.328-.149.527-.286 1.056-.731.235-.198.49-.393.567-.434a.88.88 0 0 1 .651-.024m-2.4 5.619c.814.224 1.314.294 2.109.294.802 0 1.305-.071 2.109-.298.789-.223 1.048-.223 1.811 0l.54.158.01 5.423.01 5.423-.102.122a.6.6 0 0 1-.251.163c-.202.056-8.052.056-8.254 0a.6.6 0 0 1-.251-.163l-.102-.122.01-5.423.01-5.423.4-.116c.956-.278 1.073-.28 1.951-.038m-.375 1.383c-.557.213-.919.67-1.001 1.262-.023.164-.034 1.541-.027 3.369L7.5 18.3l.105.248c.25.595.761.938 1.395.938s1.145-.343 1.395-.938l.105-.248.012-3.092c.007-1.828-.004-3.205-.027-3.369a1.51 1.51 0 0 0-.835-1.182c-.195-.099-.28-.116-.608-.125q-.382-.01-.526.045m4 0c-.557.213-.919.67-1.001 1.262-.023.164-.034 1.541-.027 3.369L11.5 18.3l.105.248c.25.595.761.938 1.395.938s1.145-.343 1.395-.938l.105-.248.012-3.092c.007-1.828-.004-3.205-.027-3.369a1.51 1.51 0 0 0-.835-1.182c-.195-.099-.28-.116-.608-.125q-.382-.01-.526.045m6.223 2.124c.229.135.501.432.623.679.085.174.098.255.098.62 0 .384-.01.44-.116.648-.132.262-.415.564-.632.676a1 1 0 0 1-.17.076c-.012 0-.022-.63-.022-1.4s.01-1.4.023-1.4.101.046.196.101"/></svg>