<svg xmlns="http://www.w3.org/2000/svg" width="24" height="24" fill="none" stroke="currentColor" stroke-linecap="round" stroke-linejoin="round" stroke-width="3"><path fill="#000" fill-rule="evenodd" stroke="none" d="M1.516.577C.825.841.426 1.502.523 2.218c.054.4.185.607.756 1.195l.528.544-.081.215A4 4 0 0 0 1.519 5.9c.144 1.176.684 2.12 1.606 2.808l.352.263.014 5.745c.011 5.102.02 5.773.077 6.005.341 1.388 1.345 2.389 2.722 2.711.263.062.695.068 4.71.068s4.447-.006 4.71-.068c1.328-.311 2.332-1.271 2.675-2.561l.071-.27 1.327 1.319c1.117 1.112 1.361 1.336 1.553 1.423a1.503 1.503 0 0 0 2.006-2.011c-.095-.21-1.076-1.202-10.274-10.395C1.635-.49 2.738.551 2.042.532c-.253-.007-.431.008-.526.045m8.656.024c-.721.163-1.228.456-2.16 1.25-.635.54-.752.753-.752 1.368 0 .361.011.423.113.621a1.52 1.52 0 0 0 1.055.823c.252.056.336.059.544.018.352-.069.548-.183 1.068-.62.539-.453.691-.541.94-.541.262 0 .391.068.84.446.566.477.733.598 1.024.745.756.381 1.54.377 2.89-.016.759-.22.978-.226 1.292-.032.284.176.429.433.447.793.012.25 0 .31-.101.502a.97.97 0 0 1-.68.513c-.173.031-.265.021-.56-.058-1.362-.369-1.833-.444-2.47-.394-.455.036-1.044.184-1.278.321-.352.206-.614.594-.708 1.048-.043.207-.04.281.016.508.093.378.177.535.407.766.405.408.861.529 1.499.398.421-.086.623-.065 1.326.135l.536.153.024 1.196c.016.784.042 1.251.075 1.356.076.244.226.476.426.66a1.49 1.49 0 0 0 1.923.092c.163-.124.204-.138.351-.118.425.058.875.398 1.081.815.089.18.118.304.132.557.015.285.001.382-.112.755-.105.344-.126.473-.109.654a1.52 1.52 0 0 0 1.243 1.371c.594.119 1.287-.223 1.569-.774.362-.707.51-1.756.373-2.64a5.3 5.3 0 0 0-.404-1.262c-.596-1.21-1.838-2.166-3.132-2.41-.407-.077-.38-.051-.38-.373l.001-.287.149-.087c.27-.157.683-.531.939-.852a4.1 4.1 0 0 0 .835-1.835 5.3 5.3 0 0 0 0-1.332c-.23-1.391-1.3-2.658-2.626-3.106a4.15 4.15 0 0 0-2.398-.058l-.852.229-.411.109-.115-.094-.549-.447c-.534-.436-1.135-.747-1.673-.866a4.4 4.4 0 0 0-1.648 0M9.269 11.41l2.208 2.21.011 2.34.012 2.34.105.248c.25.595.761.938 1.395.938.635 0 1.151-.347 1.392-.938.095-.231.103-.305.12-1.062l.018-.815.475.474.475.474v2.575l-.103.122a.6.6 0 0 1-.25.163c-.202.056-8.052.056-8.254 0a.6.6 0 0 1-.251-.163l-.102-.122.01-5.424.01-5.424.24-.07c.132-.038.249-.071.26-.073s1.014.992 2.229 2.207m-.753 1.767c-.371.142-.711.446-.864.774-.158.338-.179.655-.165 2.565L7.5 18.3l.105.248c.25.595.761.938 1.395.938s1.145-.343 1.395-.938l.105-.248.013-1.784c.007-1.033-.004-1.904-.027-2.069-.075-.54-.363-.951-.836-1.19-.195-.099-.28-.116-.608-.125q-.382-.01-.526.045"/></svg>