<svg xmlns="http://www.w3.org/2000/svg" width="24" height="24" fill="none" stroke="currentColor" stroke-linecap="round" stroke-linejoin="round" stroke-width="3"><path fill="#000" fill-rule="evenodd" stroke="none" d="M11.12.549a9.6 9.6 0 0 0-1.508.349c-2.686.935-4.619 3.247-5.034 6.022-.032.218-.076.917-.097 1.553-.071 2.172-.313 3.582-.847 4.937-.399 1.015-.831 1.699-1.487 2.355-.54.541-.636.728-.635 1.24.002.628.348 1.141.94 1.39l.248.105h18.6l.231-.093c.296-.12.658-.452.802-.737.29-.572.173-1.295-.277-1.71-.651-.602-.877-.885-1.313-1.647-.295-.516-.475-.707-.818-.868-.198-.093-.275-.105-.646-.105-.419 0-.423.001-.698.16-.365.211-.591.487-.705.865-.098.322-.09.701.021.964.035.082.063.158.063.17 0 .011-2.691.021-5.98.021S6 15.51 6 15.499s.044-.109.099-.217c.27-.533.669-1.672.875-2.502.318-1.276.425-2.211.543-4.74.044-.936.14-1.367.44-1.982a4.55 4.55 0 0 1 2.915-2.406c.299-.078.522-.106.974-.122.869-.029 1.41.086 2.205.471.275.133.41.174.623.189a1.5 1.5 0 0 0 1.603-1.255c.082-.452-.117-1.027-.46-1.329-.492-.433-1.716-.887-2.771-1.028-.389-.052-1.568-.07-1.926-.029m6.396 3.028c-.371.142-.711.446-.864.773-.135.289-.17.587-.171 1.438l-.001.728-.95.012-.95.012-.228.116c-.93.471-1.133 1.673-.407 2.399.381.382.7.463 1.82.464l.705.001.018.89c.016.842.023.904.119 1.138.243.592.758.938 1.393.938s1.15-.346 1.393-.938c.096-.234.103-.296.119-1.138l.018-.89.705-.001c1.12-.001 1.439-.082 1.82-.464.726-.726.523-1.928-.407-2.399l-.228-.116-.95-.013-.95-.012-.001-.728c0-.4-.017-.839-.037-.977a1.51 1.51 0 0 0-.832-1.153c-.195-.099-.28-.116-.608-.125-.253-.007-.431.008-.526.045M9.88 19.557c-.404.124-.816.494-.962.864-.122.31-.134.83-.026 1.096.269.655.906 1.295 1.64 1.646.508.242.878.324 1.468.324.38 0 .577-.02.82-.084.832-.218 1.602-.761 2.039-1.438.233-.36.302-.539.329-.847.052-.614-.267-1.168-.848-1.469-.287-.149-.824-.173-1.146-.051-.318.119-.527.283-.741.582-.322.447-.584.447-.906 0-.329-.458-.721-.663-1.259-.657a2.3 2.3 0 0 0-.408.034"/></svg>