<svg xmlns="http://www.w3.org/2000/svg" width="24" height="24" fill="none" stroke="currentColor" stroke-linecap="round" stroke-linejoin="round" stroke-width="3"><path fill="#000" fill-rule="evenodd" stroke="none" d="M7.84.584c-3.049.407-5.681 2.5-6.778 5.392A8 8 0 0 0 .512 9c0 1.11.162 2.001.546 3.011.447 1.177 1.034 2.079 1.952 3.003l.511.515-.144.159c-.389.431-.71 1.092-.825 1.7-.072.378-.072 2.846 0 3.224.221 1.168 1.036 2.177 2.116 2.617.689.281.535.271 4.332.271 3.799 0 3.643.01 4.336-.273a3.62 3.62 0 0 0 1.579-1.298c.254-.376.39-.723.558-1.426.027-.111.046-.12.388-.187.859-.167 1.982-.592 2.647-1.001l.129-.08.319.101c1.861.588 3.839-.478 4.403-2.374.477-1.601-.294-3.329-1.827-4.097-.519-.259-.827-.325-1.532-.325-.525 0-.668.014-.932.09-1.289.374-2.275 1.448-2.509 2.734a4.4 4.4 0 0 0 0 1.269c.027.161.041.3.031.31-.037.038-.858.332-.997.358l-.147.027-.084-.281a3.5 3.5 0 0 0-.75-1.37l-.136-.151.476-.473c.756-.752 1.258-1.449 1.686-2.339.592-1.235.85-2.358.85-3.714 0-.833-.063-1.353-.253-2.091-.543-2.106-1.803-3.853-3.656-5.068-.382-.251-1.224-.664-1.71-.84a9 9 0 0 0-1.743-.417c-.603-.078-1.7-.078-2.286 0M18.3 2.59c-.299.132-.402.203-.593.406-.213.228-.32.447-.389.797-.062.318-.014.531.257 1.12.597 1.3.818 2.205.903 3.695.045.782.098.99.326 1.284.316.407.692.594 1.19.594.42 0 .7-.109 1.006-.392q.41-.38.476-.872c.042-.305-.019-1.397-.113-2.038a12.4 12.4 0 0 0-.792-2.924c-.412-1.003-.687-1.396-1.127-1.607-.294-.142-.89-.174-1.144-.063m-8.41.992c.759.132 1.563.447 2.158.845 1.257.84 2.103 2.156 2.37 3.683.08.453.08 1.327 0 1.78-.359 2.055-1.743 3.672-3.704 4.328-.55.184-1.059.262-1.714.262s-1.164-.078-1.714-.262C4.444 13.267 2.91 10.32 3.743 7.41c.111-.388.446-1.099.692-1.471.807-1.218 2.144-2.082 3.646-2.356.418-.076 1.378-.077 1.809-.001M8.516 7.577c-1.049.399-1.349 1.701-.571 2.478.58.58 1.53.583 2.107.007a1.47 1.47 0 0 0 0-2.124c-.292-.292-.55-.395-1.012-.407-.247-.006-.431.01-.524.046m11.828 8.079c.119.119.136.162.136.337 0 .475-.526.677-.848.325-.092-.101-.112-.159-.112-.324 0-.176.017-.219.136-.338s.161-.136.344-.136.224.016.344.136m-8 2 .136.136v2.402l-.103.122a.6.6 0 0 1-.25.163c-.201.056-6.053.056-6.254 0a.6.6 0 0 1-.25-.163l-.103-.122v-2.402l.136-.136.136-.136h6.416z"/></svg>