<svg xmlns="http://www.w3.org/2000/svg" width="24" height="24" fill="none" stroke="currentColor" stroke-linecap="round" stroke-linejoin="round" stroke-width="3"><path fill="#000" fill-rule="evenodd" stroke="none" d="M1.516.577C.656.906.276 1.832.658 2.667c.091.199.362.487 2.029 2.158L4.61 6.754l-.045.313a22 22 0 0 0-.084 1.444c-.074 2.15-.317 3.553-.847 4.899-.399 1.015-.831 1.699-1.487 2.355-.54.541-.636.728-.635 1.24.002.628.348 1.141.94 1.39l.248.105 6.84.011 6.839.011 2.361 2.357c2.068 2.064 2.39 2.37 2.592 2.463a1.503 1.503 0 0 0 2.01-2.01c-.095-.21-1.076-1.202-10.274-10.395C1.635-.49 2.738.551 2.042.532c-.253-.007-.431.008-.526.045M11.16.563a7.4 7.4 0 0 0-2.458.722c-.937.469-1.267.762-1.421 1.262-.141.456-.088.868.163 1.259.157.245.359.421.617.54.488.223.925.201 1.402-.069 1.048-.595 1.757-.79 2.714-.746.734.034 1.185.15 1.848.474 1.32.645 2.31 2.06 2.434 3.481.012.14.04.713.062 1.274s.066 1.267.099 1.57c.157 1.462.476 3.067.677 3.407.319.539.96.85 1.533.745a1.52 1.52 0 0 0 1.245-1.263c.043-.272.045-.248-.137-1.139-.247-1.204-.417-2.645-.418-3.54-.001-.663-.07-1.51-.162-1.98a7.7 7.7 0 0 0-1.167-2.769c-.402-.601-1.247-1.469-1.831-1.883-.451-.319-1.514-.857-2.02-1.022a7.9 7.9 0 0 0-3.18-.323M9.694 15.51c-2.017.006-3.674.003-3.683-.006s.029-.106.085-.216c.159-.314.479-1.143.636-1.648.351-1.128.578-2.351.691-3.714l.028-.335 2.955 2.955L13.36 15.5zm.186 4.047c-.404.124-.816.494-.962.864-.122.31-.134.83-.026 1.096.269.655.906 1.295 1.64 1.646.508.242.878.324 1.468.324.38 0 .577-.02.82-.084.832-.218 1.602-.761 2.039-1.438.233-.36.302-.539.329-.847.052-.614-.267-1.168-.848-1.469-.287-.149-.824-.173-1.146-.051-.318.119-.527.283-.741.582-.322.447-.584.447-.906 0-.329-.458-.721-.663-1.259-.657a2.3 2.3 0 0 0-.408.034"/></svg>