<svg xmlns="http://www.w3.org/2000/svg" width="24" height="24" fill="none" stroke="currentColor" stroke-linecap="round" stroke-linejoin="round" stroke-width="3"><path fill="#000" fill-rule="evenodd" stroke="none" d="M11.12.546a10 10 0 0 0-1.508.352c-2.686.935-4.619 3.247-5.034 6.022-.032.218-.076.917-.097 1.553-.071 2.172-.313 3.582-.847 4.937-.399 1.015-.831 1.699-1.487 2.355-.54.541-.636.728-.635 1.24.002.628.348 1.141.94 1.39l.248.105h18.6l.231-.093c.296-.12.658-.452.802-.737a1.49 1.49 0 0 0-.296-1.74 1.6 1.6 0 0 0-.239-.21c-.048 0-.547-.619-.738-.915-.441-.683-.84-1.682-1.12-2.8-.079-.316-.177-.64-.218-.72-.11-.214-.414-.498-.674-.629-.208-.106-.264-.116-.648-.116s-.44.01-.648.116c-.588.297-.933.942-.834 1.554.113.691.536 2.061.862 2.793l.207.467c.017.04-1.195.05-5.983.05-3.302 0-6.004-.01-6.004-.021s.044-.109.099-.217c.27-.533.669-1.672.875-2.502.318-1.276.425-2.211.543-4.74.044-.936.14-1.367.44-1.982a4.54 4.54 0 0 1 2.915-2.405c.485-.127 1.292-.169 1.805-.093q1.403.206 2.568 1.309c.562.532.954.691 1.49.605a1.5 1.5 0 0 0 1.211-1.854c-.083-.311-.168-.443-.519-.809C16.384 1.724 14.945.944 13.42.638c-.356-.071-.604-.09-1.3-.099a16 16 0 0 0-1 .007m3.396 6.032c-.366.136-.71.444-.864.774a1.5 1.5 0 0 0 1.158 2.13c.326.047 6.054.047 6.38 0a1.494 1.494 0 0 0 1.287-1.7 1.51 1.51 0 0 0-.829-1.126l-.228-.116-3.38-.008c-2.742-.006-3.407.003-3.524.046M9.88 19.557c-.404.124-.816.494-.962.864-.122.31-.134.83-.026 1.096.269.655.906 1.295 1.64 1.646.508.242.878.324 1.468.324.38 0 .577-.02.82-.084.832-.218 1.602-.761 2.039-1.438.233-.36.302-.539.329-.847.052-.614-.267-1.168-.848-1.469-.287-.149-.824-.173-1.146-.051-.318.119-.527.283-.741.582-.322.447-.584.447-.906 0-.329-.458-.721-.663-1.259-.657a2.3 2.3 0 0 0-.408.034"/></svg>