<svg xmlns="http://www.w3.org/2000/svg" width="24" height="24" fill="none" stroke="currentColor" stroke-linecap="round" stroke-linejoin="round" stroke-width="3"><path fill="#000" fill-rule="evenodd" stroke="none" d="M11.12.546c-.399.052-1.151.228-1.508.352-2.686.935-4.619 3.247-5.034 6.022-.032.218-.076.917-.097 1.553-.071 2.172-.313 3.582-.847 4.937-.399 1.015-.831 1.699-1.487 2.355-.54.541-.636.728-.635 1.24.002.628.348 1.141.94 1.39l.248.105h18.6l.231-.093c.141-.057.325-.18.469-.313q.582-.539.475-1.286c-.057-.404-.152-.565-.627-1.065a7.2 7.2 0 0 1-1.066-1.449c-.231-.431-.503-.665-.945-.816a1.475 1.475 0 0 0-1.752.724c-.215.431-.238.712-.1 1.228l.024.09h-6.004C8.702 15.52 6 15.51 6 15.499s.044-.109.099-.217c.27-.533.669-1.672.875-2.502.318-1.276.425-2.211.543-4.74.044-.936.14-1.367.44-1.982a4.56 4.56 0 0 1 2.915-2.409c.351-.095.458-.105 1.128-.107.715-.002.757.002 1.255.133.419.11.564.131.773.114.51-.041.999-.387 1.228-.869.11-.231.124-.301.124-.621 0-.327-.012-.385-.13-.62-.299-.596-.619-.782-1.77-1.028-.393-.084-.589-.1-1.34-.111a17 17 0 0 0-1.02.006m6.157 3.012c-1.471.269-2.667 1.161-3.316 2.474a5.2 5.2 0 0 0-.402 1.248c-.059.334-.059 1.106 0 1.44.361 2.054 2.013 3.583 4.057 3.756 2.473.208 4.652-1.626 4.86-4.092a4.46 4.46 0 0 0-1.343-3.596 3.8 3.8 0 0 0-1.153-.81c-.678-.332-1.061-.423-1.86-.44-.363-.007-.742.002-.843.02m1.376 3.1c.272.138.573.445.709.722.085.174.098.255.098.62 0 .384-.01.44-.116.648a1.5 1.5 0 0 1-1.562.829 1.51 1.51 0 0 1-1.126-.829c-.106-.208-.116-.264-.116-.648 0-.365.013-.446.098-.62.173-.352.515-.664.878-.803q.144-.055.526-.045c.329.009.413.026.611.126M9.88 19.557c-.404.124-.816.494-.962.864-.122.31-.134.83-.026 1.096.269.655.906 1.295 1.64 1.646.508.242.878.324 1.468.324.38 0 .577-.02.82-.084.832-.218 1.602-.761 2.039-1.438.233-.36.302-.539.329-.847.052-.614-.267-1.168-.848-1.469-.287-.149-.824-.173-1.146-.051-.318.119-.527.283-.741.582-.322.447-.584.447-.906 0-.329-.458-.721-.663-1.259-.657a2.3 2.3 0 0 0-.408.034"/></svg>