<svg xmlns="http://www.w3.org/2000/svg" width="24" height="24" fill="none" stroke="currentColor" stroke-linecap="round" stroke-linejoin="round" stroke-width="3"><path fill="#000" fill-rule="evenodd" stroke="none" d="M11.02.564c-2.805.4-5.173 2.315-6.078 4.915-.333.956-.411 1.465-.461 2.994-.071 2.172-.313 3.582-.847 4.937-.399 1.015-.831 1.699-1.487 2.355-.54.541-.636.728-.635 1.24.002.628.348 1.141.94 1.39l.248.105h18.6l.231-.093c.296-.12.658-.452.802-.737a1.465 1.465 0 0 0-.296-1.73c-.616-.574-.962-1.032-1.321-1.748-.774-1.543-1.113-3.162-1.197-5.719-.021-.636-.065-1.335-.097-1.553A7.53 7.53 0 0 0 13.075.582C12.614.515 11.439.504 11.02.564m2.14 3.093c.441.122 1.163.464 1.48.701.304.228.732.652.969.962.401.525.781 1.473.849 2.12.013.121.041.697.062 1.28.072 2.016.291 3.456.747 4.918.158.506.479 1.337.634 1.644.055.108.099.205.099.217 0 .011-2.7.021-6 .021s-6-.01-6-.021.044-.109.099-.217c.27-.533.669-1.672.875-2.502.319-1.279.423-2.19.545-4.76.045-.959.13-1.329.458-2A4.6 4.6 0 0 1 9.36 4.358c.301-.225 1.033-.577 1.417-.681.515-.139.65-.153 1.343-.139.561.012.717.03 1.04.119m-3.28 15.9c-.404.124-.816.494-.962.864-.122.31-.134.83-.026 1.096.269.655.906 1.295 1.64 1.646.508.242.878.324 1.468.324.38 0 .577-.02.82-.084.832-.218 1.602-.761 2.039-1.438.233-.36.302-.539.329-.847.052-.614-.267-1.168-.848-1.469-.287-.149-.824-.173-1.146-.051-.318.119-.527.283-.741.582-.322.447-.584.447-.906 0-.329-.458-.721-.663-1.259-.657a2.3 2.3 0 0 0-.408.034"/></svg>