<svg xmlns="http://www.w3.org/2000/svg" width="24" height="24" fill="none" stroke="currentColor" stroke-linecap="round" stroke-linejoin="round" stroke-width="3"><path fill="#000" fill-rule="evenodd" stroke="none" d="M8.516.577c-.861.33-1.24 1.254-.857 2.091.091.201.329.455 1.773 1.9 1.445 1.444 1.699 1.682 1.9 1.773.279.128.592.176.886.136.501-.068.541-.1 2.35-1.909 1.444-1.445 1.682-1.699 1.773-1.9.355-.776.061-1.63-.693-2.012C15.44.55 15.384.54 15 .54c-.647 0-.68.022-1.95 1.276L12 2.854l-1.05-1.038C9.705.586 9.649.548 9.042.532q-.382-.01-.526.045M3.38 6.576c-.453.113-.95.421-1.279.793-.209.237-.465.739-.547 1.071-.08.326-.08 11.794 0 12.12.175.713.701 1.372 1.334 1.674.576.274.467.266 3.612.266 2.251 0 2.886-.011 3.06-.054.713-.175 1.372-.701 1.674-1.334.284-.596.266-.161.266-6.612 0-4.773-.01-5.88-.054-6.06a2.64 2.64 0 0 0-1.629-1.81l-.237-.09-3-.007c-2.288-.006-3.047.004-3.2.043m11 0c-.453.113-.95.421-1.279.793-.209.237-.465.739-.547 1.071-.044.18-.054 1.287-.054 6.06s.01 5.88.054 6.06c.175.713.701 1.372 1.334 1.674.576.274.467.266 3.612.266 2.251 0 2.886-.011 3.06-.054.713-.175 1.372-.701 1.674-1.334.284-.596.266-.161.266-6.612 0-4.773-.01-5.88-.054-6.06a2.64 2.64 0 0 0-1.629-1.81l-.237-.09-3-.007c-2.288-.006-3.047.004-3.2.043m-5.9 7.944v5H4.52v-10h3.96zm11 0v5h-3.96v-10h3.96z"/></svg>