<svg xmlns="http://www.w3.org/2000/svg" width="24" height="24" fill="none" stroke="currentColor" stroke-linecap="round" stroke-linejoin="round" stroke-width="3"><path fill="#000" fill-rule="evenodd" stroke="none" d="M3.38 1.576c-.452.112-.95.421-1.279.793-.209.237-.465.739-.547 1.071-.079.322-.079 5.798 0 6.12.175.713.701 1.372 1.334 1.674.596.284.161.266 6.612.266 4.773 0 5.88-.01 6.06-.054.713-.175 1.372-.701 1.674-1.334.274-.576.266-.467.266-3.612s.008-3.036-.265-3.61c-.261-.548-.8-1.027-1.418-1.26l-.237-.09-6-.007c-4.668-.005-6.044.004-6.2.043m11.1 4.944v2H4.52v-4h9.96zm7.036 1.057c-.322.122-.562.337-2.124 1.898-1.406 1.405-1.642 1.658-1.734 1.857-.198.433-.197.903.001 1.336.091.201.329.455 1.773 1.9 1.445 1.444 1.699 1.682 1.9 1.773a1.502 1.502 0 0 0 2.012-2.003c-.084-.185-.289-.413-1.15-1.282L21.146 12l1.048-1.056c.861-.869 1.066-1.097 1.15-1.282.352-.769.055-1.626-.696-2.006-.198-.101-.279-.117-.608-.125-.246-.006-.431.01-.524.046M3.38 12.576c-.452.112-.95.421-1.279.793-.209.237-.465.739-.547 1.071-.079.322-.079 5.798 0 6.12.175.713.701 1.372 1.334 1.674.596.284.161.266 6.612.266 4.773 0 5.88-.01 6.06-.054.713-.175 1.372-.701 1.674-1.334.274-.576.266-.467.266-3.612s.008-3.036-.265-3.61c-.261-.548-.8-1.027-1.418-1.26l-.237-.09-6-.007c-4.668-.005-6.044.004-6.2.043m11.1 4.944v2H4.52v-4h9.96z"/></svg>