<svg xmlns="http://www.w3.org/2000/svg" width="24" height="24" fill="none" stroke="currentColor" stroke-linecap="round" stroke-linejoin="round" stroke-width="3"><path fill="#000" fill-rule="evenodd" stroke="none" d="M3.38 1.576c-.453.113-.95.421-1.279.793-.209.237-.465.739-.547 1.071-.08.326-.08 11.794 0 12.12.175.713.701 1.372 1.334 1.674.576.274.467.266 3.612.266 2.251 0 2.886-.011 3.06-.054.713-.175 1.372-.701 1.674-1.334.284-.596.266-.161.266-6.612 0-4.773-.01-5.88-.054-6.06a2.64 2.64 0 0 0-1.629-1.81l-.237-.09-3-.007c-2.288-.006-3.047.004-3.2.043m11 0c-.453.113-.95.421-1.279.793-.209.237-.465.739-.547 1.071-.044.18-.054 1.287-.054 6.06s.01 5.88.054 6.06c.175.713.701 1.372 1.334 1.674.576.274.467.266 3.612.266 2.251 0 2.886-.011 3.06-.054.713-.175 1.372-.701 1.674-1.334.284-.596.266-.161.266-6.612 0-4.773-.01-5.88-.054-6.06a2.64 2.64 0 0 0-1.629-1.81l-.237-.09-3-.007c-2.288-.006-3.047.004-3.2.043M8.48 9.52v5H4.52v-10h3.96zm11 0v5h-3.96v-10h3.96zm-7.964 8.057c-.322.122-.562.337-2.124 1.898-1.406 1.405-1.642 1.658-1.734 1.857a1.503 1.503 0 0 0 2.004 2.012c.185-.084.413-.289 1.282-1.15L12 21.146l1.056 1.048c.869.861 1.097 1.066 1.282 1.15a1.502 1.502 0 0 0 2.003-2.012c-.091-.201-.325-.451-1.773-1.894-1.932-1.925-1.888-1.892-2.528-1.907-.246-.006-.431.01-.524.046"/></svg>