<svg xmlns="http://www.w3.org/2000/svg" width="24" height="24" fill="none" stroke="currentColor" stroke-linecap="round" stroke-linejoin="round" stroke-width="3"><path fill="#000" fill-rule="evenodd" stroke="none" d="M8.38 1.576c-.452.112-.95.421-1.279.793-.209.237-.465.739-.547 1.071-.079.322-.079 5.798 0 6.12.175.713.701 1.372 1.334 1.674.596.284.161.266 6.612.266 4.773 0 5.88-.01 6.06-.054.713-.175 1.372-.701 1.674-1.334.274-.576.266-.467.266-3.612s.008-3.036-.265-3.61c-.261-.548-.8-1.027-1.418-1.26l-.237-.09-6-.007c-4.668-.005-6.044.004-6.2.043m11.1 4.944v2H9.52v-4h9.96zM1.516 7.577a1.52 1.52 0 0 0-.86 2.085c.084.185.289.413 1.15 1.282L2.854 12l-1.048 1.056c-.861.869-1.066 1.097-1.15 1.282a1.502 1.502 0 0 0 2.012 2.003c.201-.091.455-.329 1.9-1.773 1.444-1.445 1.682-1.699 1.773-1.9a1.57 1.57 0 0 0 0-1.336c-.091-.201-.325-.451-1.773-1.894C2.636 7.513 2.68 7.546 2.04 7.531c-.246-.006-.431.01-.524.046m6.864 4.999c-.452.112-.95.421-1.279.793-.209.237-.465.739-.547 1.071-.079.322-.079 5.798 0 6.12.175.713.701 1.372 1.334 1.674.596.284.161.266 6.612.266 4.773 0 5.88-.01 6.06-.054.713-.175 1.372-.701 1.674-1.334.274-.576.266-.467.266-3.612s.008-3.036-.265-3.61c-.261-.548-.8-1.027-1.418-1.26l-.237-.09-6-.007c-4.668-.005-6.044.004-6.2.043m11.1 4.944v2H9.52v-4h9.96z"/></svg>