<svg xmlns="http://www.w3.org/2000/svg" width="24" height="24" fill="none" stroke="currentColor" stroke-linecap="round" stroke-linejoin="round" stroke-width="3"><path fill="#000" fill-rule="evenodd" stroke="none" d="M8.944.563a7.3 7.3 0 0 0-2.289.674C3.407 2.803 1.475 6.665.802 12.94.626 14.582.499 17.026.53 18.169c.021.778.074 1.011.353 1.551.276.533.578.845 1.257 1.299 1.604 1.072 4.182 1.89 7.12 2.256 1.908.239 4.17.291 5.4.124 2.607-.353 4.855-1.403 6.503-3.039 1.631-1.619 2.46-3.704 2.312-5.819-.208-2.99-2.428-5.429-5.413-5.945-.415-.072-.587-.081-1.242-.062-.532.015-.868.045-1.121.099a7 7 0 0 0-2.494 1.094c-.43.306-1.198 1.073-1.482 1.481l-.215.308-.224.026c-.123.014-.393.06-.601.102s-.384.068-.393.059c-.053-.053.097-2.301.195-2.93l.045-.286h.445c.959 0 1.765-.322 2.453-.979 1.1-1.051 1.371-2.699.702-4.268a4.6 4.6 0 0 0-1.49-1.882c-.316-.236-1.038-.579-1.48-.702-.34-.094-.462-.107-1.16-.118-.429-.007-.904.005-1.056.025m1.707 3.094c.127.064.317.208.422.32.269.286.377.53.399.902.016.284.01.312-.09.432q-.209.248-.617.17c-.277-.053-.326-.083-.53-.329-.235-.283-.336-.367-.595-.5-.2-.102-.259-.112-.64-.112-.384 0-.44.01-.648.116-.264.133-.564.416-.679.638-.256.499-.209 1.155.114 1.578l.104.137-.143.426c-.273.813-.354 1.439-.447 3.466-.109 2.362-.168 2.664-.658 3.418-.753 1.157-.884 1.741-.542 2.403.264.51.95.849 1.531.756.533-.085.909-.389 1.22-.987.426-.817.991-1.36 1.771-1.702.468-.206.707-.249 1.377-.249.523.001.669.015.932.091.353.102.78.306 1.12.537.452.307.821.393 1.257.291a1.38 1.38 0 0 0 .785-.457c.322-.344.446-.735.381-1.194a1.33 1.33 0 0 0-.38-.809c-.189-.202-.672-.545-1.008-.716l-.172-.087.097-.077c.161-.126.71-.385 1.008-.475.625-.189 1.4-.174 2.067.039 1.09.349 1.935 1.222 2.282 2.357.124.407.143 1.308.037 1.788-.504 2.277-2.839 4.087-5.877 4.554-1.196.184-3.419.131-5.229-.125-2.311-.327-4.244-.93-5.454-1.703l-.335-.214.026-.98c.144-5.449.891-9.139 2.313-11.42.879-1.41 1.992-2.182 3.45-2.394.066-.01.345-.015.62-.012.467.006.515.014.731.123"/></svg>