<svg xmlns="http://www.w3.org/2000/svg" width="24" height="24" fill="none" stroke="currentColor" stroke-linecap="round" stroke-linejoin="round" stroke-width="3"><path fill="#000" fill-rule="evenodd" stroke="none" d="M14.38 2.574a2.73 2.73 0 0 0-1.279.795c-.21.239-.469.746-.542 1.064A3 3 0 0 0 12.51 5c0 .452.058.698.264 1.12l.179.37c.008.016-.039.03-.102.03-.354 0-.47.075-2.686 1.737-1.183.887-2.21 1.673-2.282 1.748-.274.283-.42.773-.36 1.213.066.484.127.562 1.597 2.04l1.36 1.367-.004 1.137c-.003 1.076-.006 1.122-.057.843A5.03 5.03 0 0 0 7.4 12.886c-.693-.283-1.033-.344-1.9-.344s-1.207.061-1.9.344a5.1 5.1 0 0 0-2.582 2.394 6.2 6.2 0 0 0-.441 1.355c-.08.445-.08 1.285 0 1.73a5.11 5.11 0 0 0 2.703 3.617c.326.163.963.371 1.355.441.445.08 1.285.08 1.73 0a6.2 6.2 0 0 0 1.355-.441c1.538-.773 2.634-2.376 2.749-4.022.024-.342.03-.363.057-.207.073.41.414.891.758 1.069a1.59 1.59 0 0 0 1.432 0c.342-.177.679-.65.761-1.069l.034-.173.005.225c.011.572.257 1.456.565 2.028a5.25 5.25 0 0 0 2.199 2.149c.326.163.963.371 1.355.441.445.08 1.285.08 1.73 0a6.2 6.2 0 0 0 1.355-.441 5.25 5.25 0 0 0 2.194-2.142c.526-.979.71-2.257.483-3.357a7 7 0 0 0-.415-1.203 5.1 5.1 0 0 0-2.582-2.394c-.693-.283-1.033-.344-1.9-.344s-1.207.061-1.9.344a5.08 5.08 0 0 0-2.59 2.414 6.2 6.2 0 0 0-.429 1.305c-.05.273-.054.187-.058-1.125-.002-.781-.022-1.537-.045-1.68-.076-.482-.171-.613-1.215-1.671-.561-.568-.942-.984-.92-1.004.02-.018.298-.228.617-.465l.628-.469c.034-.026.219.22.645.858.653.979.863 1.208 1.239 1.357.212.083.304.09 1.308.105.603.009 1.208-.002 1.369-.024.376-.052.664-.19.906-.432.726-.726.523-1.928-.407-2.399-.224-.114-.242-.116-1.038-.136l-.81-.02-.679-1.018a39 39 0 0 1-.67-1.024c.005-.003.126.007.269.023.779.086 1.482-.164 2.047-.729.494-.492.723-1.048.723-1.752 0-.446-.058-.695-.255-1.11-.262-.55-.811-1.037-1.418-1.257-.295-.107-1.12-.141-1.437-.059m.964 2.082c.119.119.136.162.136.337 0 .242-.129.424-.343.483a.5.5 0 0 1-.514-.16c-.081-.096-.103-.166-.103-.323 0-.175.017-.218.136-.337s.161-.136.344-.136.224.016.344.136M6.333 15.69c.427.203.774.55.977.977.149.312.15.315.15.833 0 .514-.002.523-.143.82-.36.752-1.007 1.168-1.817 1.168s-1.457-.416-1.817-1.168c-.141-.297-.143-.306-.143-.82 0-.518.001-.521.15-.833a2.13 2.13 0 0 1 1.25-1.093c.104-.034.322-.049.62-.043.439.009.474.016.773.159m13 0c.427.203.774.55.977.977.149.312.15.315.15.833 0 .514-.002.523-.143.82-.36.752-1.007 1.168-1.817 1.168s-1.457-.416-1.817-1.168c-.141-.297-.143-.306-.143-.82 0-.518.001-.521.15-.833a2.13 2.13 0 0 1 1.25-1.093c.104-.034.322-.049.62-.043.439.009.474.016.773.159"/></svg>