<svg xmlns="http://www.w3.org/2000/svg" width="24" height="24" fill="none" stroke="currentColor" stroke-linecap="round" stroke-linejoin="round" stroke-width="3"><path fill="#000" fill-rule="evenodd" stroke="none" d="M6.26 1.962c-.223.066-.555.297-.723.504-.126.154-.202.313-.309.64-.501 1.541-.498 3.041.01 4.533.086.253.151.465.144.473s-.19.049-.407.093a7.15 7.15 0 0 0-3.791 2.078C.62 10.871.54 11.036.54 11.6c0 .377.011.443.11.644.131.268.477.608.731.721.301.133.619.166.921.096.38-.088.469-.146.978-.639.493-.478.777-.69 1.22-.911 1.131-.565 2.554-.593 3.681-.073l.322.149.006.378c.02 1.224.721 2.403 1.774 2.982l.205.113-.021.42c-.045.875-.39 1.691-1.023 2.416-.575.659-1.243 1.054-2.164 1.279-.635.156-.797.232-1.043.492-.236.249-.297.351-.379.634-.199.683.15 1.431.814 1.748.342.163.636.183 1.148.079 1.482-.304 2.851-1.088 3.82-2.188l.3-.341.197.23c1.115 1.306 2.517 2.113 4.22 2.429.566.106 1.009-.022 1.388-.399.23-.228.323-.386.401-.679a1.51 1.51 0 0 0-.774-1.715 5 5 0 0 0-.62-.183 7 7 0 0 1-.75-.22c-.616-.244-1.233-.724-1.657-1.289q-.825-1.097-.825-2.341v-.372l.201-.113c1.064-.597 1.751-1.763 1.77-3.001l.005-.353.282-.142A4 4 0 0 1 17.634 11c.907 0 1.797.302 2.491.847.118.092.386.346.595.564.435.455.595.561.971.648.31.072.624.04.928-.094.254-.113.6-.453.731-.721.099-.201.11-.267.11-.644 0-.378-.011-.442-.11-.64-.213-.426-.966-1.184-1.686-1.697a8.7 8.7 0 0 0-1.604-.844c-.31-.115-1.186-.339-1.329-.339-.05 0-.091-.017-.091-.037s.062-.223.139-.451c.229-.686.379-1.544.38-2.184.003-1.066-.336-2.5-.696-2.942-.18-.223-.509-.443-.761-.511a2 2 0 0 0-.48-.028c-.67.03-1.165.421-1.358 1.07-.094.32-.08.532.075 1.079.238.844.259 1.579.064 2.333a4.24 4.24 0 0 1-1.853 2.507l-.15.09-.45-.22c-.566-.278-.935-.365-1.55-.365s-.984.087-1.55.364l-.45.221-.239-.145c-.31-.189-.822-.672-1.079-1.019a4.24 4.24 0 0 1-.801-2.878c.023-.218.104-.617.18-.888.158-.557.17-.769.066-1.102-.206-.661-.751-1.058-1.439-1.05a2.3 2.3 0 0 0-.428.038m4.78 1.844c-1.053.109-1.481.297-1.797.789-.264.412-.308.895-.124 1.377.107.28.415.613.704.76.346.175.583.196 1.207.107a6.4 6.4 0 0 1 1.94 0c.442.063.594.07.778.036.695-.128 1.187-.683 1.242-1.4a1.48 1.48 0 0 0-.85-1.42c-.527-.241-2.019-.361-3.1-.249m1.31 7.778c.219.251.158.617-.124.751-.174.082-.278.082-.452 0-.265-.126-.338-.478-.15-.724.13-.17.231-.215.436-.193.124.013.189.05.29.166m-7.233.868c-.425.121-.758.405-.968.827-.118.237-.129.292-.127.62.003.318.021.408.156.761.229.602.552 1.232.875 1.711.281.417.748.969 1.018 1.204.358.312 1.008.406 1.484.213.58-.234.931-.755.931-1.382 0-.445-.105-.692-.474-1.12-.492-.569-.736-.97-1.013-1.669-.181-.456-.256-.585-.446-.771a1.5 1.5 0 0 0-.964-.432 2 2 0 0 0-.472.038m12.974.003c-.366.121-.747.422-.893.709-.042.082-.13.286-.197.453-.277.699-.521 1.1-1.013 1.669-.369.428-.474.675-.474 1.12 0 .479.166.828.557 1.169.357.312 1.008.406 1.484.213.282-.114.399-.209.804-.658.578-.639 1.087-1.497 1.454-2.45.145-.375.162-.458.164-.781.003-.328-.009-.384-.125-.62-.263-.529-.712-.833-1.278-.862a1.5 1.5 0 0 0-.483.038"/></svg>