<svg xmlns="http://www.w3.org/2000/svg" width="24" height="24" fill="none" stroke="currentColor" stroke-linecap="round" stroke-linejoin="round" stroke-width="3"><path fill="#000" fill-rule="evenodd" stroke="none" d="M15.38 1.524c-1.439.175-2.783.915-3.659 2.016-.105.132-1.969 2.778-4.142 5.88l-5.386 7.687C1.405 18.233.714 19.241.659 19.348c-.281.542-.161 1.267.282 1.703.375.369.88.522 1.36.41.546-.127.687-.253 1.375-1.238l.49-.703H8.47l.018.89c.016.842.023.904.119 1.138.243.592.758.938 1.393.938s1.15-.346 1.393-.938c.096-.234.103-.296.119-1.138l.018-.89h.265c.146-.001.357-.012.47-.025l.205-.025.018.915c.016.869.022.927.119 1.163.243.592.758.938 1.393.938.634 0 1.147-.345 1.394-.938.103-.246.104-.26.119-1.498.011-.952.026-1.25.064-1.25.1 0 1.296-.63 1.659-.874.584-.392.901-.656 1.467-1.223.758-.758 1.226-1.381 1.675-2.232.744-1.408 1.068-2.695 1.127-4.471l.027-.833.412-.103c.605-.152.829-.247 1.053-.449.226-.204.421-.56.481-.882.109-.581-.236-1.277-.764-1.544-.118-.06-.471-.174-.784-.255-.375-.096-.57-.164-.57-.199 0-.106-.289-.915-.42-1.175a6.1 6.1 0 0 0-1.656-1.982c-.623-.468-1.532-.859-2.313-.997-.455-.08-1.186-.106-1.591-.057m1.2 3.042c.301.063.818.331 1.067.553.291.259.568.669.704 1.042l.109.299.013 2c.014 2.129-.002 2.41-.176 3.107-.519 2.079-2.034 3.783-4.011 4.511-.335.123-1.039.322-1.141.322-.047 0-.015-.072.119-.27.629-.931 1.109-2.325 1.221-3.547.154-1.682-.416-3.663-1.45-5.035a4 4 0 0 1-.235-.332c0-.07 1.265-1.803 1.459-1.999.598-.602 1.435-.837 2.321-.651m-1.064 1.011c-1.049.399-1.349 1.701-.571 2.478.58.58 1.53.583 2.107.007a1.47 1.47 0 0 0 0-2.124c-.292-.292-.55-.395-1.012-.407-.247-.006-.431.01-.524.046m-4.382 4.666c.239.566.309.901.334 1.598.018.497.008.692-.048.98-.301 1.535-1.319 2.777-2.749 3.354-.499.201-.987.292-1.726.324-.585.025-.634.021-.61-.041.05-.13 4.605-6.608 4.629-6.583.014.014.09.18.17.368"/></svg>