<svg xmlns="http://www.w3.org/2000/svg" width="24" height="24" fill="none" stroke="currentColor" stroke-linecap="round" stroke-linejoin="round" stroke-width="3"><path fill="#000" fill-rule="evenodd" stroke="none" d="M10.372 1.164a1.43 1.43 0 0 0-.785.393c-.304.284-.418.537-.526 1.176-.019.112-.042.148-.084.131a4 4 0 0 0-.398-.071c-.384-.056-.672-.017-.95.128-.567.295-.852.795-.823 1.438.018.384.16.686.461.983.241.237.476.345.921.423.149.026.284.059.299.071.015.013-.401 2.445-.923 5.404l-.951 5.38-.136-.01a16 16 0 0 0-.577-.02c-.414-.009-.454-.003-.674.105-.322.158-.634.479-.75.772-.14.352-.135.871.011 1.182.139.296.43.604.688.729.113.054.358.128.545.165s.345.071.35.075a3 3 0 0 1-.046.385c-.092.62.025 1.03.405 1.416.593.602 1.509.591 2.128-.025.219-.218.34-.477.426-.917l.067-.343.472.083c.26.046.476.097.48.114s-.015.175-.043.352c-.064.417-.032.703.113 1.009a1.48 1.48 0 0 0 1.976.718c.511-.243.776-.644.899-1.36.063-.372.078-.41.156-.41.213 0 .833-.135 1.217-.266a4.6 4.6 0 0 0 1.905-1.223 5.034 5.034 0 0 0 .642-6.127l-.096-.156.224-.188c.318-.265.767-.748.958-1.03.36-.53.644-1.209.793-1.899.101-.465.101-1.483.001-1.951-.259-1.209-.911-2.247-1.847-2.939-.271-.201-.767-.503-.91-.553-.085-.031-.086-.059-.01-.454.081-.425.075-.717-.02-.994a1.486 1.486 0 0 0-2.46-.586c-.246.243-.36.475-.446.911a9 9 0 0 1-.078.368c-.007.011-.947-.151-.963-.167a5 5 0 0 1 .05-.387c.091-.609-.033-1.043-.406-1.416a1.53 1.53 0 0 0-1.285-.419M12.81 6.58c.688.122 1.376.258 1.53.304.943.28 1.5.984 1.5 1.895 0 .274-.131.777-.268 1.028a2 2 0 0 1-.78.743c-.351.172-.673.226-1.164.197-.492-.03-2.797-.435-2.818-.496-.011-.035.584-3.516.65-3.801.012-.049.039-.09.061-.09s.602.099 1.289.22m-1.187 6.901c.746.132 1.447.269 1.557.305.909.295 1.426.966 1.426 1.852 0 .189-.022.433-.049.543-.119.484-.487.985-.894 1.216-.59.336-1.023.338-2.803.013-.704-.128-1.278-.25-1.276-.272.005-.048.675-3.898.679-3.898z"/></svg>