<svg xmlns="http://www.w3.org/2000/svg" width="24" height="24" fill="none" stroke="currentColor" stroke-linecap="round" stroke-linejoin="round" stroke-width="3"><path fill="#000" fill-rule="evenodd" stroke="none" d="M7.84.584C5.787.858 3.817 1.948 2.481 3.549A8.7 8.7 0 0 0 .578 7.82c-.088.591-.088 1.769 0 2.36.171 1.137.618 2.373 1.194 3.298.459.736 1.283 1.663 1.931 2.172.842.661 1.948 1.234 2.922 1.512.146.042.171.067.213.213.176.617.593 1.556.934 2.103.459.736 1.283 1.663 1.931 2.172a8.8 8.8 0 0 0 4.117 1.772c.591.088 1.769.088 2.36 0a8.8 8.8 0 0 0 4.117-1.773 11 11 0 0 0 1.353-1.353 8.8 8.8 0 0 0 1.771-4.116c.089-.591.09-1.767.001-2.36a9.2 9.2 0 0 0-.852-2.68c-.659-1.308-1.692-2.447-2.991-3.299-.543-.357-1.546-.813-2.204-1.003-.145-.042-.171-.068-.213-.213a11 11 0 0 0-.583-1.465 8.1 8.1 0 0 0-1.595-2.181A7.9 7.9 0 0 0 12.74 1.38c-.901-.437-1.688-.677-2.614-.796-.603-.078-1.7-.078-2.286 0m2.05 2.998c1.647.288 3.025 1.232 3.842 2.634.102.174.177.33.167.345-.009.016-.129.041-.265.056a8.492 8.492 0 0 0-6.572 5.359c-.167.44-.385 1.218-.44 1.564-.013.088-.035.21-.047.272l-.022.111-.267-.145c-.56-.306-1.245-.903-1.65-1.438-1.064-1.406-1.389-3.198-.893-4.93.111-.388.446-1.099.692-1.471.807-1.218 2.144-2.082 3.646-2.356.418-.076 1.378-.077 1.809-.001m4.568 6.088c-.217 1.255-.59 2.091-1.31 2.93a5.5 5.5 0 0 1-2.434 1.618c-.355.119-1.144.285-1.181.249-.024-.025.114-.722.21-1.057.111-.388.446-1.099.692-1.471.807-1.218 2.144-2.082 3.646-2.356.431-.078.406-.084.377.087m3.646.795a7 7 0 0 1 .52.409c.935.81 1.571 1.956 1.794 3.236.08.453.08 1.327 0 1.78-.359 2.055-1.743 3.672-3.704 4.328a5.58 5.58 0 0 1-3.428 0 5.5 5.5 0 0 1-3.019-2.436c-.102-.174-.179-.323-.172-.33s.161-.04.342-.071a8.8 8.8 0 0 0 3.86-1.732 11 11 0 0 0 1.352-1.352c.923-1.17 1.497-2.491 1.769-4.07l.027-.152.227.128c.126.07.32.188.432.262"/></svg>