<svg xmlns="http://www.w3.org/2000/svg" width="24" height="24" fill="none" stroke="currentColor" stroke-linecap="round" stroke-linejoin="round" stroke-width="3"><path fill="#000" fill-rule="evenodd" stroke="none" d="M3.22 1.52c-.607.019-.652.026-.868.136-.938.475-1.135 1.681-.394 2.41.115.113.28.237.366.276l.156.07v11.453l-.15.071c-.649.309-1.334 1.093-1.603 1.837A3.3 3.3 0 0 0 .512 19c0 .715.187 1.345.57 1.917.672 1.003 1.724 1.57 2.918 1.57.933 0 1.747-.328 2.428-.979 1.061-1.013 1.359-2.592.75-3.969-.28-.633-.937-1.331-1.508-1.603l-.15-.071V4.52l7.71-.001c4.37 0 7.818-.016 7.96-.037a1.494 1.494 0 0 0 1.287-1.7 1.51 1.51 0 0 0-.829-1.126l-.228-.116-2.76-.01c-6.404-.023-14.846-.029-15.44-.01m4.296 4.059c-.365.134-.71.443-.864.773a1.5 1.5 0 0 0 1.158 2.13c.328.048 12.052.048 12.38 0a1.494 1.494 0 0 0 1.287-1.7 1.51 1.51 0 0 0-.829-1.126l-.228-.116-6.38-.007c-5.236-.007-6.406.002-6.524.046m0 4c-.365.134-.71.443-.864.773a1.5 1.5 0 0 0 1.158 2.13c.328.048 12.052.048 12.38 0a1.494 1.494 0 0 0 1.287-1.7 1.51 1.51 0 0 0-.829-1.126l-.228-.116-6.38-.007c-5.236-.007-6.406.002-6.524.046m0 4c-.365.134-.71.443-.864.773a1.5 1.5 0 0 0 1.158 2.13c.328.048 12.052.048 12.38 0a1.494 1.494 0 0 0 1.287-1.7 1.51 1.51 0 0 0-.829-1.126l-.228-.116-6.38-.007c-5.236-.007-6.406.002-6.524.046m2 3.999c-.365.136-.71.444-.864.774a1.5 1.5 0 0 0 1.158 2.13c.138.02 2.462.036 5.19.036s5.052-.016 5.19-.036a1.494 1.494 0 0 0 1.287-1.7 1.51 1.51 0 0 0-.829-1.126l-.228-.116-5.38-.007c-4.405-.007-5.406.002-5.524.045m-5.172 1.078c.119.119.136.162.136.337 0 .157-.022.227-.103.323a.5.5 0 0 1-.514.16c-.214-.059-.343-.241-.343-.483 0-.175.017-.218.136-.337s.161-.136.344-.136.224.016.344.136"/></svg>