<svg xmlns="http://www.w3.org/2000/svg" width="24" height="24" fill="none" stroke="currentColor" stroke-linecap="round" stroke-linejoin="round" stroke-width="3"><path fill="#000" fill-rule="evenodd" stroke="none" d="M14.38 1.576c-.453.113-.95.421-1.279.793-.209.237-.465.739-.547 1.071-.043.174-.054.809-.054 3.06 0 3.145-.008 3.036.266 3.612.125.262.225.399.474.648s.386.349.648.474c.576.274.467.266 3.612.266 2.251 0 2.886-.011 3.06-.054.713-.175 1.372-.701 1.674-1.334.274-.576.266-.467.266-3.612s.008-3.036-.265-3.61c-.261-.548-.8-1.027-1.418-1.26l-.237-.09-3-.007c-2.288-.006-3.047.004-3.2.043m5.1 4.944v2h-3.96v-4h3.96zm-16.1-.944c-.453.113-.95.421-1.279.793-.209.237-.465.739-.547 1.071-.08.326-.08 12.794 0 13.12.175.713.701 1.372 1.334 1.674.598.284.11.266 7.112.266 5.193 0 6.38-.01 6.56-.054.713-.175 1.372-.701 1.674-1.334.274-.576.266-.467.266-3.612s.008-3.036-.265-3.61c-.261-.548-.8-1.027-1.418-1.26-.235-.089-.258-.09-2.764-.101l-2.528-.012-.015-2.468c-.014-2.145-.025-2.498-.082-2.689a2.65 2.65 0 0 0-1.611-1.73l-.237-.09-3-.007c-2.288-.006-3.047.004-3.2.043m5.1 4.944v2H4.52v-4h3.96zm0 7v2H4.52v-4h3.96zm7 0v2h-3.96v-4h3.96z"/></svg>