<svg xmlns="http://www.w3.org/2000/svg" width="24" height="24" fill="none" stroke="currentColor" stroke-linecap="round" stroke-linejoin="round" stroke-width="3"><path fill="#000" fill-rule="evenodd" stroke="none" d="M11.516.577a1.54 1.54 0 0 0-.998 1.233c-.02.138-.037 1.662-.037 3.388l-.001 3.137-1.29-1.278C7.654 5.534 7.663 5.54 7 5.54c-.384 0-.44.01-.648.116-.754.381-1.048 1.237-.694 2.011.092.2.372.498 2.152 2.282L9.857 12 7.81 14.051c-1.78 1.784-2.06 2.082-2.152 2.282a1.502 1.502 0 0 0 2.006 2.01c.191-.087.433-.309 1.521-1.391l1.295-1.287v3.137c0 1.956.016 3.236.042 3.398.162 1.025 1.196 1.575 2.146 1.142.205-.094.543-.417 2.9-2.774s2.68-2.695 2.774-2.9a1.58 1.58 0 0 0 0-1.335c-.092-.2-.372-.498-2.152-2.282L14.143 12l2.047-2.051c1.78-1.784 2.06-2.082 2.152-2.282a1.58 1.58 0 0 0 0-1.335c-.094-.205-.413-.539-2.774-2.893C12.522.401 12.705.551 12.04.532q-.38-.01-.524.045M14.19 7.67l-.67.67V5.66l.67.67.67.67zm6.23.064c-.372.108-.764.43-.932.767a1.55 1.55 0 0 0-.134.902c.06.336.166.539.451.863.489.554.67 1.023.67 1.734s-.181 1.18-.67 1.734a2.7 2.7 0 0 0-.325.445c-.475.983.249 2.139 1.343 2.141.51 0 .866-.189 1.307-.699a5.5 5.5 0 0 0 1.105-1.952A5.1 5.1 0 0 0 23.49 12a5.4 5.4 0 0 0-1.36-3.621c-.311-.36-.572-.553-.861-.639a1.8 1.8 0 0 0-.849-.006m-2.904 2.843c-1.049.399-1.349 1.701-.571 2.478.58.58 1.53.583 2.107.007a1.47 1.47 0 0 0 0-2.124c-.292-.292-.55-.395-1.012-.407-.247-.006-.431.01-.524.046M14.19 17.67l-.67.67v-2.68l.67.67.67.67z"/></svg>