<svg xmlns="http://www.w3.org/2000/svg" width="24" height="24" fill="none" stroke="currentColor" stroke-linecap="round" stroke-linejoin="round" stroke-width="3"><path fill="#000" fill-rule="evenodd" stroke="none" d="M11.516.577a1.54 1.54 0 0 0-.998 1.233c-.02.138-.037 1.662-.037 3.388l-.001 3.137-1.29-1.278C7.654 5.534 7.663 5.54 7 5.54c-.384 0-.44.01-.648.116-.754.381-1.048 1.237-.694 2.011.092.2.372.498 2.152 2.282L9.857 12 7.81 14.051c-1.78 1.784-2.06 2.082-2.152 2.282a1.502 1.502 0 0 0 2.006 2.01c.191-.087.433-.309 1.521-1.391l1.295-1.287v3.137c0 1.956.016 3.236.042 3.398.162 1.025 1.196 1.575 2.146 1.142.205-.094.543-.417 2.9-2.774s2.68-2.695 2.774-2.9a1.58 1.58 0 0 0 0-1.335c-.092-.2-.372-.498-2.152-2.282L14.143 12l2.047-2.051c1.78-1.784 2.06-2.082 2.152-2.282a1.58 1.58 0 0 0 0-1.335c-.094-.205-.413-.539-2.774-2.893C12.522.401 12.705.551 12.04.532q-.38-.01-.524.045M14.19 7.67l-.67.67V5.66l.67.67.67.67zm0 10-.67.67v-2.68l.67.67.67.67z"/></svg>