<svg xmlns="http://www.w3.org/2000/svg" width="24" height="24" fill="none" stroke="currentColor" stroke-linecap="round" stroke-linejoin="round" stroke-width="3"><path fill="#000" fill-rule="evenodd" stroke="none" d="M1.516.577C.655.907.276 1.831.658 2.668c.095.207.589.715 4.653 4.782l4.547 4.549-2.047 2.052c-1.781 1.784-2.061 2.082-2.153 2.282a1.502 1.502 0 0 0 2.006 2.01c.191-.087.433-.309 1.521-1.391l1.295-1.287v3.137c0 1.956.016 3.236.042 3.398.162 1.024 1.198 1.576 2.145 1.142.2-.092.498-.372 2.282-2.152L17 19.143l2.051 2.047c1.784 1.78 2.082 2.06 2.282 2.152a1.503 1.503 0 0 0 2.009-2.01c-.095-.21-1.076-1.202-10.274-10.395C1.635-.49 2.738.551 2.042.532c-.253-.007-.431.008-.526.045m10 0a1.55 1.55 0 0 0-.997 1.247c-.028.186-.039 1.084-.031 2.62L10.5 6.78l.093.23c.174.433.555.803.945.92.089.026.297.048.462.048s.373-.022.462-.048c.237-.071.525-.275.699-.497.246-.31.322-.569.352-1.204l.027-.55.658.659.658.659-.79.801c-.675.685-.808.84-.918 1.072-.115.242-.128.308-.128.63 0 .31.015.393.112.6.147.315.455.624.764.767.21.098.293.113.604.113.325 0 .388-.013.64-.132.257-.122.394-.247 1.688-1.54 1.207-1.208 1.422-1.441 1.513-1.64.198-.432.199-.903.001-1.336-.094-.205-.414-.539-2.774-2.894C12.522.398 12.706.55 12.042.532q-.382-.01-.526.045M14.19 17.67l-.67.67v-2.68l.67.67.67.67z"/></svg>