<svg xmlns="http://www.w3.org/2000/svg" width="24" height="24" fill="none" stroke="currentColor" stroke-linecap="round" stroke-linejoin="round" stroke-width="3"><path fill="#000" fill-rule="evenodd" stroke="none" d="M6.38 2.576c-.451.112-.95.421-1.279.793-.209.237-.465.739-.547 1.071-.08.326-.08 14.794 0 15.12.175.713.701 1.372 1.334 1.674.59.281.306.266 5.192.266 4.925 0 4.74.009 5.616-.278a5.49 5.49 0 0 0 2.239-9.048 9 9 0 0 0-.492-.462l-.216-.181.222-.305a6 6 0 0 0 .773-1.53 5.5 5.5 0 0 0-1.338-5.576c-.831-.826-1.815-1.332-2.994-1.538-.3-.053-.923-.061-4.33-.058-3.014.002-4.029.015-4.18.052m8.437 3.054a2.67 2.67 0 0 1 1.553 1.553c.076.205.088.316.088.817s-.012.612-.088.817c-.221.59-.706 1.148-1.218 1.401-.592.293-.352.276-4.182.292l-3.45.014V5.518l3.53.011 3.53.011zm1 8a2.67 2.67 0 0 1 1.553 1.553c.076.205.088.316.088.817s-.012.612-.088.817c-.221.59-.706 1.148-1.218 1.401-.598.295-.293.276-4.682.292l-3.95.014v-5.006l4.03.011 4.03.011z"/></svg>