<svg xmlns="http://www.w3.org/2000/svg" width="24" height="24" fill="none" stroke="currentColor" stroke-linecap="round" stroke-linejoin="round" stroke-width="3"><path fill="#000" fill-rule="evenodd" stroke="none" d="M17.287.562c-.541.097-1.194.39-1.66.747-.136.104-.572.508-.968.898l-.722.708-.294-.077c-.829-.218-1.663-.318-2.64-.318-1.354 0-2.545.212-3.729.662-.948.361-2.094 1.023-2.906 1.679a12.6 12.6 0 0 0-1.553 1.564 10.51 10.51 0 0 0 0 13.15A10.51 10.51 0 0 0 14.92 22.74a10.57 10.57 0 0 0 6.014-6.341c.648-1.902.739-4.055.25-5.957l-.097-.378.772-.79c1.017-1.039 1.3-1.474 1.525-2.334.15-.573.15-1.307 0-1.88a4.1 4.1 0 0 0-.568-1.266l-.182-.274.308-.33c.339-.363.489-.635.535-.972a1.5 1.5 0 0 0-.829-1.562C22.44.55 22.384.54 22 .54c-.385 0-.439.01-.651.117a3 3 0 0 0-.546.41c-.174.161-.327.293-.342.293-.014 0-.11-.065-.213-.144-.25-.191-.837-.472-1.208-.578-.233-.067-.438-.089-.92-.1-.341-.007-.716.003-.833.024m1.105 3.035c.187.098 1.937 1.856 2.028 2.039.095.19.089.551-.013.748-.045.086-.217.291-.384.455-.295.291-.304.297-.361.215a11.2 11.2 0 0 0-2.403-2.478 24 24 0 0 1-.377-.281c-.032-.031.574-.619.718-.696.194-.104.593-.105.792-.002m-6.062 2.02c2.572.486 4.705 2.244 5.646 4.654.349.891.466 1.489.493 2.513.027 1.028-.054 1.634-.337 2.516-.724 2.256-2.544 4.087-4.788 4.817-2.723.886-5.626.193-7.638-1.822a7.3 7.3 0 0 1-1.487-2.115C3.726 15.138 3.52 14.2 3.52 13s.206-2.138.699-3.18C5.298 7.537 7.383 5.981 9.9 5.581c.49-.078 1.942-.057 2.43.036"/></svg>