<svg xmlns="http://www.w3.org/2000/svg" width="24" height="24" fill="none" stroke="currentColor" stroke-linecap="round" stroke-linejoin="round" stroke-width="3"><path fill="#000" fill-rule="evenodd" stroke="none" d="M15.72.582c-1.758.376-3.02 1.774-3.195 3.539-.046.462-.007.851.148 1.485l.114.467-3.363 3.359L6.06 12.79l-.28-.074c-1.225-.326-2.193-.246-3.155.259-1.062.557-1.874 1.68-2.069 2.859a5.3 5.3 0 0 0 0 1.332c.236 1.432 1.311 2.674 2.711 3.133l.327.107.107.327c.459 1.4 1.701 2.475 3.133 2.711.341.056.991.056 1.332 0 1.34-.221 2.583-1.232 3.052-2.483.332-.885.358-1.544.105-2.583l-.11-.451 3.363-3.358 3.364-3.357.448.111c.634.157 1.032.198 1.489.152a4.01 4.01 0 0 0 3.419-2.729 3.7 3.7 0 0 0 .191-1.246c0-.922-.267-1.705-.84-2.457-.49-.643-1.336-1.208-2.087-1.393-.134-.033-.146-.052-.267-.403C19.81 1.854 18.705.879 17.272.584c-.38-.079-1.189-.08-1.552-.002m1.303 3.08c.302.186.412.4.478.924.084.673.227.982.63 1.361.391.367.633.471 1.283.552.524.066.738.176.924.478.099.159.124.248.135.479.012.25 0 .31-.101.502a.97.97 0 0 1-.676.512c-.175.032-.28.018-.76-.102-.491-.122-.621-.138-1.116-.143-.477-.004-.602.008-.84.084-.616.195-.514.102-4.542 4.129-4.027 4.028-3.934 3.926-4.129 4.542-.074.233-.089.371-.088.82.001.474.017.603.13 1.053.159.633.163.823.023 1.104-.335.673-1.337.709-1.717.062-.079-.135-.117-.284-.158-.609a4 4 0 0 0-.118-.608c-.241-.676-.929-1.204-1.668-1.281-.517-.053-.599-.076-.799-.221-.275-.2-.408-.492-.388-.854q.03-.524.447-.782c.287-.177.508-.181 1.153-.02.471.118.597.134 1.074.135.449.001.587-.014.82-.088.616-.195.514-.102 4.542-4.129 4.027-4.028 3.934-3.926 4.129-4.542.074-.233.089-.371.088-.82-.001-.474-.017-.603-.13-1.053-.071-.282-.129-.593-.129-.691 0-.35.203-.67.529-.834.181-.092.251-.105.495-.094.232.011.319.035.479.134"/></svg>