<svg xmlns="http://www.w3.org/2000/svg" width="24" height="24" fill="none" stroke="currentColor" stroke-linecap="round" stroke-linejoin="round" stroke-width="3"><path fill="#000" fill-rule="evenodd" stroke="none" d="M3.44.547A3.56 3.56 0 0 0 .552 3.388c-.076.398-.076 12.826 0 13.224.221 1.168 1.036 2.177 2.115 2.617.474.193.783.249 1.533.276 1.058.039 1.465-.06 1.855-.45.726-.726.523-1.928-.407-2.399-.223-.113-.247-.117-1.008-.137-.503-.013-.811-.038-.867-.07q-.252-.142-.253-.458c0-.173.018-.217.136-.335l.136-.136.574-.001c.979-.001 1.32-.095 1.689-.464.726-.726.523-1.928-.407-2.399l-.228-.116-.95-.013-.95-.012V3.792l.136-.136.136-.136 5.574-.001c3.1 0 5.685-.017 5.824-.037a1.494 1.494 0 0 0 1.287-1.7 1.51 1.51 0 0 0-.829-1.126L15.42.54 9.48.535C6.213.533 3.495.538 3.44.547m7 4a3.56 3.56 0 0 0-2.888 2.841c-.076.398-.076 12.826 0 13.224.221 1.168 1.036 2.177 2.116 2.617.708.289.283.271 6.532.271 5.33 0 5.632-.004 5.86-.073.647-.197 1.192-.747 1.365-1.376.072-.26.075-.576.075-8.051s-.003-7.791-.075-8.051c-.146-.532-.557-1.002-1.105-1.265l-.3-.144-5.74-.005c-3.157-.002-5.785.003-5.84.012m10.04 7.473v4.5h-9.96V7.792l.136-.136.136-.136h9.688zm0 8v.5h-4.73c-3.103 0-4.781-.015-4.877-.041-.224-.062-.353-.241-.353-.486 0-.175.017-.218.136-.337l.136-.136h9.688z"/></svg>