<svg xmlns="http://www.w3.org/2000/svg" width="24" height="24" fill="none" stroke="currentColor" stroke-linecap="round" stroke-linejoin="round" stroke-width="3"><path fill="#000" fill-rule="evenodd" stroke="none" d="M5.72.582C4.072.936 2.836 2.213 2.549 3.856c-.071.412-.071 15.876 0 16.288a4.075 4.075 0 0 0 3.307 3.307c.435.075 13.395.071 13.704-.005.713-.175 1.372-.701 1.674-1.334.287-.604.266.198.266-10.112 0-7.714-.009-9.378-.054-9.56A2.64 2.64 0 0 0 19.817.63L19.58.54l-6.8-.007C7.089.527 5.938.535 5.72.582M18.48 9.52v6l-6.23.001c-4.979 0-6.28.011-6.48.053l-.25.052V9.952c0-5.005.007-5.692.061-5.821.1-.24.244-.396.466-.507l.209-.104H18.48zm-7.04-4.975c-1.019.196-1.839.74-2.392 1.587-.358.548-.537 1.18-.535 1.888.001.488.076.863.27 1.346.125.314.138.374.088.411a4.422 4.422 0 0 0-1.357 3.135c-.002.306.016.437.086.621.188.498.658.873 1.182.944.478.065.939-.088 1.273-.422.277-.276.388-.54.448-1.062.032-.284.08-.496.141-.622a1.8 1.8 0 0 1 .705-.714c.212-.107.266-.117.651-.117s.439.01.651.117c.269.136.576.445.701.706.056.116.109.348.143.625.066.533.175.793.45 1.067a1.49 1.49 0 0 0 2.11 0c.361-.361.478-.761.42-1.442a4.5 4.5 0 0 0-1.236-2.726l-.168-.173.12-.287c.256-.614.345-1.172.284-1.773-.123-1.217-.83-2.232-1.942-2.788-.479-.24-.797-.313-1.433-.327a7 7 0 0 0-.66.006m.904 3.111c.12.12.136.161.136.344s-.016.224-.136.344-.161.136-.344.136-.224-.016-.344-.136-.136-.161-.136-.344.016-.224.136-.344.161-.136.344-.136.224.016.344.136M18.48 19.52v1h-5.947c-4.011 0-6.026-.014-6.19-.042-.936-.164-1.139-1.434-.296-1.854l.209-.104H18.48z"/></svg>