<svg xmlns="http://www.w3.org/2000/svg" width="24" height="24" fill="none" stroke="currentColor" stroke-linecap="round" stroke-linejoin="round" stroke-width="3"><path fill="#000" fill-rule="evenodd" stroke="none" d="M1.516 1.578a1.54 1.54 0 0 0-1 1.254c-.023.162-.033 3.312-.027 7.869L.5 18.3l.105.248q.25.597.847.847l.248.105 3.88.02 3.88.02.22.114c.493.256.742.641.803 1.241.02.201.048.419.062.485.073.348.422.781.776.96.4.203.958.203 1.358 0 .354-.179.703-.612.776-.96.014-.066.042-.284.062-.485.061-.6.31-.985.803-1.241l.22-.114 3.88-.02 3.88-.02.248-.105q.597-.25.847-.847l.105-.248v-1.44c0-1.407-.002-1.445-.092-1.666-.286-.71-.941-1.08-1.687-.954a1.48 1.48 0 0 0-1.124.954c-.067.176-.091.347-.107.774l-.021.549-3.125.013c-3.073.013-3.129.015-3.457.102-.182.048-.34.088-.35.088s-.014-2.318-.008-5.15l.011-5.15.093-.249a2.74 2.74 0 0 1 1.538-1.537l.249-.093 2.525-.012 2.525-.012.018.892c.016.843.023.904.119 1.139.243.592.758.938 1.393.938.634 0 1.145-.344 1.395-.938l.104-.248.014-1.582c.008-.912-.004-1.704-.026-1.869-.076-.543-.363-.952-.839-1.193l-.228-.116h-3.58c-3.304 0-3.606.006-3.92.072-.998.213-1.853.651-2.647 1.357L12 3.212l-.273-.243A5.75 5.75 0 0 0 9.12 1.615c-.273-.065-.62-.072-3.88-.081-2.923-.008-3.607 0-3.724.044m7.313 3.056a2.74 2.74 0 0 1 1.538 1.537l.093.249.011 5.15c.006 2.832.002 5.15-.008 5.15s-.168-.04-.35-.088c-.328-.087-.384-.089-3.463-.102l-3.13-.013v-12l2.53.012 2.53.012zm12.687 3.943c-.317.12-.553.33-2.004 1.775l-1.508 1.502-.553-.537c-.723-.702-.863-.777-1.451-.777-.384 0-.44.01-.648.116-.754.381-1.048 1.237-.694 2.012.09.195.286.411 1.275 1.399.988.989 1.204 1.185 1.399 1.275.432.197.903.197 1.336 0 .203-.093.499-.373 2.4-2.274s2.181-2.197 2.274-2.4c.354-.776.06-1.63-.694-2.012-.198-.101-.279-.117-.608-.125-.246-.006-.431.01-.524.046"/></svg>