<svg xmlns="http://www.w3.org/2000/svg" width="24" height="24" fill="none" stroke="currentColor" stroke-linecap="round" stroke-linejoin="round" stroke-width="3"><path fill="#000" fill-rule="evenodd" stroke="none" d="M5.72.581C4.069.938 2.836 2.213 2.549 3.856c-.071.412-.071 15.876 0 16.288a4.075 4.075 0 0 0 3.307 3.307c.435.075 13.395.071 13.704-.005.884-.217 1.597-.907 1.869-1.806.058-.195.068-.578.081-3.369.009-1.902-.001-3.26-.024-3.429-.075-.536-.364-.947-.838-1.186-.208-.106-.264-.116-.648-.116s-.44.01-.648.116c-.592.3-.868.818-.871 1.634l-.001.23-6.23.001c-4.984.001-6.28.011-6.48.053l-.251.053L5.53 9.9l.01-5.726.121-.196c.075-.121.196-.242.317-.317l.196-.121 2.063-.021c2.04-.021 2.066-.023 2.296-.114a1.514 1.514 0 0 0 .944-1.623 1.51 1.51 0 0 0-.829-1.126L10.42.54 8.2.533C6.421.527 5.928.536 5.72.581m9.72-.036c-1.46.281-2.57 1.341-2.863 2.734-.03.144-.067.488-.081.765l-.027.504-.231.069c-.593.178-1.201.701-1.47 1.267-.267.562-.268.568-.268 2.616 0 2.046.001 2.055.266 2.612.223.467.655.899 1.122 1.122.582.277.416.266 4.112.266 2.672 0 3.384-.011 3.56-.054.713-.175 1.372-.701 1.674-1.334.265-.557.266-.566.266-2.612 0-2.045-.001-2.055-.265-2.61-.271-.569-.882-1.096-1.479-1.274l-.236-.071-.001-.243c-.004-1.603-.689-2.787-1.986-3.436-.479-.24-.797-.313-1.433-.327a7 7 0 0 0-.66.006m.904 3.111c.135.135.136.139.136.5v.364h-.96v-.364c0-.361.001-.365.136-.5.12-.12.161-.136.344-.136s.224.016.344.136M18.48 8.52v1h-4.96v-2h4.96zm0 11v1h-5.947c-4.011 0-6.026-.014-6.19-.042-.936-.164-1.139-1.434-.296-1.854l.209-.104H18.48z"/></svg>