<svg xmlns="http://www.w3.org/2000/svg" width="24" height="24" fill="none" stroke="currentColor" stroke-linecap="round" stroke-linejoin="round" stroke-width="3"><path fill="#000" fill-rule="evenodd" stroke="none" d="M5.72.582C4.072.936 2.836 2.213 2.549 3.856c-.071.412-.071 15.876 0 16.288a4.075 4.075 0 0 0 3.307 3.307c.435.075 13.395.071 13.704-.005.713-.175 1.372-.701 1.674-1.334.287-.604.266.198.266-10.112 0-7.714-.009-9.378-.054-9.56A2.64 2.64 0 0 0 19.817.63L19.58.54l-6.8-.007C7.089.527 5.938.535 5.72.582M18.48 9.52v6l-6.23.001c-4.979 0-6.28.011-6.48.053l-.25.052V9.952c0-5.005.007-5.692.061-5.821.1-.24.244-.396.466-.507l.209-.104H18.48zm-6.964-4.943c-.557.213-.919.67-1.001 1.261-.023.163-.034 1.736-.027 3.869L10.5 13.3l.105.248c.25.595.761.938 1.395.938s1.145-.343 1.395-.938l.105-.248.012-3.593c.007-2.133-.004-3.706-.027-3.869a1.5 1.5 0 0 0-.835-1.181c-.195-.099-.28-.116-.608-.125q-.382-.01-.526.045m-4 2c-.371.142-.711.446-.864.774-.156.334-.179.663-.165 2.367l.014 1.582.104.248c.25.594.761.938 1.395.938s1.145-.344 1.395-.938l.104-.248.014-1.582c.008-.912-.004-1.704-.026-1.869-.076-.542-.364-.953-.837-1.192-.195-.099-.28-.116-.608-.125q-.382-.01-.526.045m8 0c-.371.142-.711.446-.864.774-.156.334-.179.663-.165 2.367l.014 1.582.104.248c.25.594.761.938 1.395.938s1.145-.344 1.395-.938l.104-.248.014-1.582c.008-.912-.004-1.704-.026-1.869-.076-.542-.364-.953-.837-1.192-.195-.099-.28-.116-.608-.125q-.381-.01-.526.045M18.48 19.52v1h-5.947c-4.011 0-6.026-.014-6.19-.042-.936-.164-1.139-1.434-.296-1.854l.209-.104H18.48z"/></svg>