<svg xmlns="http://www.w3.org/2000/svg" width="24" height="24" fill="none" stroke="currentColor" stroke-linecap="round" stroke-linejoin="round" stroke-width="3"><path fill="#000" fill-rule="evenodd" stroke="none" d="M5.72.582C4.072.936 2.836 2.213 2.549 3.856c-.071.412-.071 15.876 0 16.288a4.075 4.075 0 0 0 3.307 3.307c.435.075 13.395.071 13.704-.005.713-.175 1.372-.701 1.674-1.334.287-.604.266.198.266-10.112 0-7.714-.009-9.378-.054-9.56A2.64 2.64 0 0 0 19.817.63L19.58.54l-6.8-.007C7.089.527 5.938.535 5.72.582M18.48 9.52v6l-6.23.001c-4.979 0-6.28.011-6.48.053l-.25.052V9.952c0-5.005.007-5.692.061-5.821.1-.24.244-.396.466-.507l.209-.104H18.48zM9.485 4.579c-1.33.301-2.308 1.148-2.763 2.391-.117.32-.159.507-.197.884-.091.9.181 1.816.775 2.609.221.295 3.477 3.483 3.823 3.743.5.376 1.259.379 1.749.008.25-.19 3.356-3.112 3.65-3.434.863-.946 1.192-2.418.813-3.633a3.75 3.75 0 0 0-2.515-2.492c-.331-.101-.415-.11-1.04-.113-.74-.002-.963.036-1.509.262l-.275.113-.227-.1c-.449-.199-.788-.265-1.429-.281-.425-.01-.674.003-.855.043m1.367 3.271c.401.42.632.528 1.128.527.531-.001.749-.098 1.149-.511l.312-.322.254-.016c.462-.03.746.2.777.63.03.407-.02.473-1.177 1.57a69 69 0 0 1-1.165 1.09l-.13.109-1.164-1.133c-.694-.676-1.197-1.197-1.244-1.291a.72.72 0 0 1 .058-.714c.158-.207.323-.274.639-.259l.269.012zm7.628 11.67v1h-5.947c-4.011 0-6.026-.014-6.19-.042-.936-.164-1.139-1.434-.296-1.854l.209-.104H18.48z"/></svg>