<svg xmlns="http://www.w3.org/2000/svg" width="24" height="24" fill="none" stroke="currentColor" stroke-linecap="round" stroke-linejoin="round" stroke-width="3"><path fill="#000" fill-rule="evenodd" stroke="none" d="M5.72.582C4.072.936 2.836 2.213 2.549 3.856c-.071.412-.071 15.876 0 16.288a4.075 4.075 0 0 0 3.307 3.307c.435.075 13.395.071 13.704-.005.713-.175 1.372-.701 1.674-1.334.287-.604.266.198.266-10.112 0-7.714-.009-9.378-.054-9.56A2.64 2.64 0 0 0 19.817.63L19.58.54l-6.8-.007C7.089.527 5.938.535 5.72.582M18.48 9.52v6l-6.23.001c-4.979 0-6.28.011-6.48.053l-.25.052V9.952c0-5.005.007-5.692.061-5.821.1-.24.244-.396.466-.507l.209-.104H18.48zm-8.764-5-2.136.02-.228.116c-.295.149-.577.429-.701.695-.148.32-.18.682-.163 1.869.015 1.052.018 1.086.118 1.328.165.397.451.684.839.84.476.193 1.127.099 1.484-.213.397-.346.537-.651.576-1.25l.027-.405h.948v3.993l-.45.014c-.402.012-.474.025-.678.129a1.51 1.51 0 0 0-.829 1.126 1.494 1.494 0 0 0 1.287 1.7c.325.047 4.055.047 4.38 0a1.494 1.494 0 0 0 1.287-1.7 1.51 1.51 0 0 0-.829-1.126c-.203-.103-.277-.117-.678-.13l-.45-.015V7.52h.948l.027.405c.039.599.179.904.576 1.25.357.312 1.008.406 1.484.213.388-.156.674-.443.839-.84.1-.242.103-.276.118-1.328.017-1.187-.015-1.549-.163-1.869-.124-.266-.406-.546-.701-.695-.222-.113-.247-.116-.908-.126a285 285 0 0 0-6.024-.01m8.764 15v1h-5.947c-4.011 0-6.026-.014-6.19-.042-.936-.164-1.139-1.434-.296-1.854l.209-.104H18.48z"/></svg>