<svg xmlns="http://www.w3.org/2000/svg" width="24" height="24" fill="none" stroke="currentColor" stroke-linecap="round" stroke-linejoin="round" stroke-width="3"><path fill="#000" fill-rule="evenodd" stroke="none" d="M5.72.582C4.071.936 2.836 2.213 2.549 3.856c-.071.412-.071 15.876 0 16.288a4.075 4.075 0 0 0 3.307 3.307c.435.075 13.395.071 13.704-.005.884-.217 1.592-.901 1.87-1.806.062-.202.068-.762.08-6.877.007-4.023-.003-6.764-.025-6.929a1.51 1.51 0 0 0-.837-1.178c-.208-.106-.264-.116-.648-.116s-.44.01-.648.116a1.51 1.51 0 0 0-.834 1.154c-.02.138-.037 1.929-.037 3.98l-.001 3.73-6.23.001c-4.984.001-6.28.011-6.48.053l-.251.053L5.53 9.9l.01-5.726.121-.196c.075-.121.196-.242.317-.317l.196-.121 4.063-.02L14.3 3.5l.233-.094a1.516 1.516 0 0 0 .944-1.624 1.51 1.51 0 0 0-.829-1.126L14.42.54 10.2.533C6.714.527 5.935.535 5.72.582M19.516.577c-.08.03-.224.104-.32.164-.097.06-1.043.973-2.102 2.029l-1.926 1.92-.294-.075c-.446-.114-1.383-.106-1.806.016-1.287.371-2.274 1.445-2.509 2.733-.06.328-.06.944 0 1.272a3.56 3.56 0 0 0 2.109 2.593c.451.184.832.258 1.332.258.933 0 1.747-.328 2.428-.979a3.51 3.51 0 0 0 .947-3.421l-.068-.253.853-.854.854-.855.113.094c.324.273.979.351 1.428.169.387-.156.677-.446.833-.833.183-.454.104-1.104-.175-1.436l-.1-.119.1-.119c.271-.322.355-.962.186-1.414q-.198-.528-.757-.814c-.187-.095-.274-.112-.6-.121-.253-.007-.431.008-.526.045m-5.172 7.079c.119.119.136.162.136.337 0 .242-.129.424-.343.483a.5.5 0 0 1-.514-.16c-.081-.096-.103-.166-.103-.323 0-.175.017-.218.136-.337s.161-.136.344-.136.224.016.344.136M18.48 19.52v1h-5.947c-4.011 0-6.026-.014-6.19-.042-.936-.164-1.139-1.434-.296-1.854l.209-.104H18.48z"/></svg>