<svg xmlns="http://www.w3.org/2000/svg" width="24" height="24" fill="none" stroke="currentColor" stroke-linecap="round" stroke-linejoin="round" stroke-width="3"><path fill="#000" fill-rule="evenodd" stroke="none" d="M6.44 1.547a3.56 3.56 0 0 0-2.888 2.841c-.041.216-.052 1.97-.052 8.592v8.32l.096.24c.139.346.533.731.879.859.304.113.733.124 1 .025.096-.035 1.596-.876 3.332-1.868 1.855-1.06 3.185-1.797 3.225-1.786.037.01 1.463.816 3.168 1.791s3.19 1.808 3.3 1.85c.294.114.739.105 1.054-.022.388-.157.673-.442.841-.841l.105-.248.011-8.08c.008-5.328-.002-8.221-.029-8.495-.149-1.498-1.09-2.649-2.529-3.094l-.293-.09-5.56-.006c-3.058-.003-5.605.003-5.66.012m10.904 3.109.136.136v6.806c0 3.744-.014 6.799-.03 6.789-1.664-.968-4.879-2.775-5.006-2.813a1.9 1.9 0 0 0-.888 0c-.127.038-3.342 1.845-5.006 2.813-.016.01-.03-3.045-.03-6.789V4.792l.136-.136.136-.136h10.416zm-2.828 1.921c-.317.12-.553.33-2.004 1.775l-1.508 1.502-.553-.537C9.728 8.615 9.588 8.54 9 8.54c-.384 0-.44.01-.648.116-.754.381-1.048 1.237-.694 2.012.09.195.286.411 1.275 1.399.988.989 1.204 1.185 1.399 1.275.432.197.903.197 1.336 0 .203-.093.499-.373 2.4-2.274s2.181-2.197 2.274-2.4c.354-.776.06-1.63-.694-2.012-.198-.101-.279-.117-.608-.125-.246-.006-.431.01-.524.046"/></svg>