<svg xmlns="http://www.w3.org/2000/svg" width="24" height="24" fill="none" stroke="currentColor" stroke-linecap="round" stroke-linejoin="round" stroke-width="3"><path fill="#000" fill-rule="evenodd" stroke="none" d="M5.72.582C4.072.936 2.836 2.213 2.549 3.856c-.071.412-.071 15.876 0 16.288a4.075 4.075 0 0 0 3.307 3.307c.435.075 13.395.071 13.704-.005.713-.175 1.372-.701 1.674-1.334.287-.604.266.198.266-10.112 0-7.714-.009-9.378-.054-9.56A2.64 2.64 0 0 0 19.817.63L19.58.54l-6.8-.007C7.089.527 5.938.535 5.72.582M18.48 9.52v6l-6.23.001c-4.979 0-6.28.011-6.48.053l-.25.052V9.952c0-5.005.007-5.692.061-5.821.1-.24.244-.396.466-.507l.209-.104H18.48zm-7.399-4.937c-2.049.374-3.664 1.77-4.303 3.721-.243.741-.273 1.021-.275 2.616-.003 1.586.004 1.648.263 2.192.223.467.655.899 1.122 1.122.417.198.666.256 1.112.256s.695-.058 1.112-.256a2.5 2.5 0 0 0 1.122-1.122c.198-.417.256-.666.256-1.112s-.058-.695-.255-1.11c-.266-.559-.828-1.052-1.435-1.259l-.248-.085.025-.156c.064-.401.46-1.019.852-1.33.278-.221.713-.436 1.003-.496a3.9 3.9 0 0 1 1.136 0c.29.06.725.275 1.003.496.392.311.788.929.852 1.33l.025.156-.248.085c-.368.125-.663.315-.985.633a1.9 1.9 0 0 0-.447.62c-.2.421-.258.669-.258 1.116 0 .446.058.695.256 1.112.223.467.655.899 1.122 1.122.417.198.666.256 1.112.256s.695-.058 1.112-.256a2.5 2.5 0 0 0 1.122-1.122c.259-.544.266-.606.263-2.192-.002-1.595-.032-1.875-.275-2.616-.643-1.964-2.27-3.362-4.332-3.722-.431-.076-1.391-.075-1.809.001M18.48 19.52v1h-5.947c-4.011 0-6.026-.014-6.19-.042-.936-.164-1.139-1.434-.296-1.854l.209-.104H18.48z"/></svg>