<svg xmlns="http://www.w3.org/2000/svg" width="24" height="24" fill="none" stroke="currentColor" stroke-linecap="round" stroke-linejoin="round" stroke-width="3"><path fill="#000" fill-rule="evenodd" stroke="none" d="M1.516 1.579a1.53 1.53 0 0 0-1 1.253c-.023.162-.033 3.312-.027 7.869L.5 18.3l.105.248q.25.597.847.847l.248.105 3.86.02 3.86.02.2.098c.272.133.584.436.714.694.075.149.12.321.147.57.022.197.051.412.064.478.071.347.422.781.776.96.4.203.958.203 1.358 0 .354-.179.703-.611.776-.96a7 7 0 0 0 .06-.469c.025-.254.066-.411.147-.571.134-.265.443-.568.718-.702l.2-.098 3.86-.02 3.86-.02.248-.105q.597-.25.847-.847l.105-.248.011-7.599c.006-4.557-.004-7.707-.027-7.869a1.5 1.5 0 0 0-.836-1.176l-.228-.116-3.46-.012c-3.759-.012-3.757-.012-4.546.214-.393.112-1.102.446-1.479.696-.135.089-.4.298-.59.463L12 3.203l-.345-.302A5.54 5.54 0 0 0 8.89 1.582c-.485-.085-7.144-.088-7.374-.003M8.817 4.63a2.67 2.67 0 0 1 1.553 1.553l.09.237.011 5.164.01 5.164-.35-.103-.351-.102-3.13-.013-3.13-.013v-12l2.53.012c2.509.011 2.532.012 2.767.101m11.663 5.888v5.999l-3.13.013-3.13.013-.35.102-.35.102v-5.051c0-3.579.013-5.114.045-5.264.145-.685.674-1.346 1.346-1.679.453-.225.461-.226 3.119-.23l2.45-.003zM5.516 6.578c-.531.199-.921.672-.993 1.204a1.494 1.494 0 0 0 1.287 1.7c.138.02.673.036 1.19.036s1.052-.016 1.19-.036a1.494 1.494 0 0 0 1.287-1.7 1.51 1.51 0 0 0-.829-1.126L8.42 6.54l-1.38-.008c-1.079-.007-1.412.003-1.524.046m10 0c-.531.199-.921.672-.993 1.204a1.494 1.494 0 0 0 1.287 1.7c.138.02.673.036 1.19.036s1.052-.016 1.19-.036a1.494 1.494 0 0 0 1.287-1.7 1.51 1.51 0 0 0-.829-1.126l-.228-.116-1.38-.008c-1.079-.007-1.412.003-1.524.046m-10 4c-.531.199-.921.672-.993 1.204a1.494 1.494 0 0 0 1.287 1.7c.138.02.673.036 1.19.036s1.052-.016 1.19-.036a1.494 1.494 0 0 0 1.287-1.7 1.51 1.51 0 0 0-.829-1.126l-.228-.116-1.38-.008c-1.079-.007-1.412.003-1.524.046m10 0c-.531.199-.921.672-.993 1.204a1.494 1.494 0 0 0 1.287 1.7c.138.02.673.036 1.19.036s1.052-.016 1.19-.036a1.494 1.494 0 0 0 1.287-1.7 1.51 1.51 0 0 0-.829-1.126l-.228-.116-1.38-.008c-1.079-.007-1.412.003-1.524.046"/></svg>