<svg xmlns="http://www.w3.org/2000/svg" width="24" height="24" fill="none" stroke="currentColor" stroke-linecap="round" stroke-linejoin="round" stroke-width="3"><path fill="#000" fill-rule="evenodd" stroke="none" d="M7.82.523C5.617.547 5.682.541 5.039.782c-1.259.472-2.25 1.695-2.489 3.072-.072.414-.073 15.876-.001 16.29a4.075 4.075 0 0 0 3.307 3.307c.435.075 13.395.071 13.704-.005.713-.175 1.372-.701 1.674-1.334.287-.604.266.198.266-10.112 0-10.214.017-9.503-.238-10.06-.31-.678-1.019-1.244-1.726-1.378C19.269.511 11.28.484 7.82.523m.661 6.207c0 1.765.017 3.322.037 3.46a1.49 1.49 0 0 0 1.714 1.282c.451-.069.588-.171 1.718-1.288L13 9.146l1.056 1.048c.869.861 1.097 1.066 1.282 1.15a1.5 1.5 0 0 0 2.14-1.144c.026-.162.042-1.464.042-3.47V3.52h.96v12l-6.23.001c-4.979 0-6.28.011-6.48.053l-.25.052V9.952c0-5.005.007-5.692.061-5.821.1-.24.244-.396.466-.507l.209-.104H8.48zm5.999-1.807v1.404l-.301-.278a3 3 0 0 0-.53-.393c-.209-.106-.265-.116-.649-.116s-.44.01-.649.116a3 3 0 0 0-.53.393l-.301.278V3.52h2.96zm4 14.597v1h-5.947c-4.011 0-6.026-.014-6.19-.042-.936-.164-1.139-1.434-.296-1.854l.209-.104H18.48z"/></svg>