<svg xmlns="http://www.w3.org/2000/svg" width="24" height="24" fill="none" stroke="currentColor" stroke-linecap="round" stroke-linejoin="round" stroke-width="3"><path fill="#000" fill-rule="evenodd" stroke="none" d="M5.72.582C4.072.936 2.836 2.213 2.549 3.856c-.071.412-.071 15.876 0 16.288a4.075 4.075 0 0 0 3.307 3.307c.435.075 13.395.071 13.704-.005.713-.175 1.372-.701 1.674-1.334.287-.604.266.198.266-10.112 0-7.714-.009-9.378-.054-9.56A2.64 2.64 0 0 0 19.817.63L19.58.54l-6.8-.007C7.089.527 5.938.535 5.72.582M18.48 9.52v6l-6.23.001c-4.979 0-6.28.011-6.48.053l-.25.052V9.952c0-5.005.007-5.692.061-5.821.1-.24.244-.396.466-.507l.209-.104H18.48zm-6.989-4.924c-.255.094-.387.186-.595.411-.092.1-.721 1.158-1.494 2.513-.734 1.287-1.397 2.429-1.474 2.538-.077.11-.176.281-.22.38-.044.1-.291.552-.55 1.004-.532.93-.578 1.028-.637 1.354-.114.629.321 1.366.948 1.606.321.123.72.122 1.051-.002.414-.155.635-.397 1.094-1.195l.393-.685h3.986l.393.685c.305.53.444.731.619.893.867.803 2.228.331 2.472-.858a1.5 1.5 0 0 0-.083-.78c-.025-.066-.972-1.743-2.104-3.727-2.208-3.868-2.207-3.867-2.649-4.084-.296-.146-.832-.17-1.15-.053m.646 4.669c.056.102.103.201.103.22s-.108.035-.24.035-.24-.016-.24-.035c0-.059.205-.405.24-.405.018 0 .08.083.137.185M18.48 19.52v1h-5.947c-4.011 0-6.026-.014-6.19-.042-.936-.164-1.139-1.434-.296-1.854l.209-.104H18.48z"/></svg>