<svg xmlns="http://www.w3.org/2000/svg" width="24" height="24" fill="none" stroke="currentColor" stroke-linecap="round" stroke-linejoin="round" stroke-width="3"><path fill="#000" fill-rule="evenodd" stroke="none" d="M5.72.582C4.072.936 2.836 2.213 2.549 3.856c-.071.412-.071 15.876 0 16.288a4.075 4.075 0 0 0 3.307 3.307c.435.075 13.395.071 13.704-.005.713-.175 1.372-.701 1.674-1.334.287-.604.266.198.266-10.112 0-7.714-.009-9.378-.054-9.56A2.64 2.64 0 0 0 19.817.63L19.58.54l-6.8-.007C7.089.527 5.938.535 5.72.582M18.48 6.82c0 1.815-.009 3.3-.021 3.3-.011 0-.094-.046-.183-.102-.473-.299-1.113-.467-1.776-.467-.534 0-.855.06-1.327.249-.627.251-.71.325-3.494 3.104L9.057 15.52l-1.518.001c-1.095 0-1.589.015-1.769.053l-.25.052V9.952c0-5.005.007-5.692.061-5.821.1-.24.244-.396.466-.507l.209-.104H18.48zM9.44 4.545c-.77.148-1.465.517-1.966 1.044A3.42 3.42 0 0 0 6.512 8c0 .715.187 1.345.57 1.917a3.56 3.56 0 0 0 2.208 1.509 4.3 4.3 0 0 0 1.42 0 3.513 3.513 0 0 0 2.765-3.772c-.123-1.217-.83-2.232-1.942-2.788-.479-.24-.797-.313-1.433-.327a7 7 0 0 0-.66.006m.904 3.111c.119.119.136.162.136.337 0 .242-.129.424-.343.483a.5.5 0 0 1-.514-.16c-.081-.096-.103-.166-.103-.323 0-.175.017-.218.136-.337s.161-.136.344-.136.224.016.344.136m6.323 4.906c.062.023.496.423.963.89l.85.847v1.221h-2.56c-1.408 0-2.56-.014-2.56-.03 0-.059 2.862-2.887 2.96-2.926a.41.41 0 0 1 .347-.002m1.813 6.958v1h-5.947c-4.011 0-6.026-.014-6.19-.042-.936-.164-1.139-1.434-.296-1.854l.209-.104H18.48z"/></svg>