<svg xmlns="http://www.w3.org/2000/svg" width="24" height="24" fill="none" stroke="currentColor" stroke-linecap="round" stroke-linejoin="round" stroke-width="3"><path fill="#000" fill-rule="evenodd" stroke="none" d="M5.72.581C4.281.895 3.155 1.893 2.704 3.256c-.151.456-.199.806-.2 1.464 0 .533.008.6.103.828.164.397.45.684.838.84.476.193 1.127.099 1.484-.213.434-.379.543-.645.584-1.431.029-.544.037-.587.15-.769.073-.118.195-.24.315-.314l.195-.121 1.064-.024c.975-.022 1.082-.031 1.296-.114.5-.193.873-.661.944-1.184A1.5 1.5 0 0 0 8.648.656L8.42.54 7.2.532C6.272.526 5.918.538 5.72.581m5.796-.003c-.531.199-.921.672-.993 1.204a1.494 1.494 0 0 0 1.287 1.7c.138.02.673.036 1.19.036s1.052-.016 1.19-.036a1.494 1.494 0 0 0 1.287-1.7 1.51 1.51 0 0 0-.829-1.126L14.42.54 13.04.532c-1.079-.007-1.412.003-1.524.046m6-.001c-1.049.398-1.349 1.701-.571 2.478.315.316.731.462 1.319.464l.204.001.027.405c.039.599.179.904.576 1.25.357.312 1.008.406 1.484.213.387-.156.673-.442.84-.84.101-.24.104-.275.104-1.068 0-.93-.026-1.09-.264-1.59-.261-.549-.804-1.031-1.418-1.259C19.6.55 19.498.542 18.62.532c-.735-.007-.994.003-1.104.045m2 6c-.371.142-.711.446-.864.774-.156.334-.179.663-.165 2.367l.014 1.582.104.248c.25.594.761.938 1.395.938s1.145-.344 1.395-.938l.104-.248.014-1.582c.008-.912-.004-1.704-.026-1.869-.076-.542-.364-.953-.837-1.192-.195-.099-.28-.116-.608-.125-.253-.007-.431.008-.526.045m-16 1c-.371.142-.711.446-.864.774-.149.319-.181.681-.164 1.869.015 1.052.018 1.086.118 1.328.246.593.759.938 1.394.938s1.148-.345 1.394-.938c.1-.242.103-.276.118-1.328.017-1.187-.015-1.549-.163-1.869-.124-.266-.406-.546-.699-.694-.195-.099-.28-.116-.608-.125-.253-.007-.431.008-.526.045m0 6c-.56.214-.919.67-1.002 1.27-.054.388-.018 5.057.04 5.353.29 1.455 1.323 2.64 2.7 3.096.475.157.726.188 1.706.211 1.334.032 1.688-.045 2.095-.452.726-.726.523-1.928-.407-2.399l-.228-.116-1.06-.025c-.583-.014-1.108-.041-1.167-.06a1.05 1.05 0 0 1-.572-.51c-.095-.194-.108-.262-.095-.499.02-.353.168-.609.452-.785l.195-.121 1.064-.024c.975-.022 1.082-.031 1.296-.114.5-.193.873-.661.944-1.184a1.5 1.5 0 0 0-.829-1.562l-.228-.116-1.181-.012c-.889-.009-1.247.001-1.45.043l-.269.055-.001-.283c-.002-.871-.265-1.381-.869-1.686-.195-.099-.28-.116-.608-.125-.253-.007-.431.008-.526.045m16 0c-.371.142-.711.446-.864.773-.106.228-.17.576-.171.937l-.001.226-.45.014c-.402.012-.474.025-.678.129-.93.471-1.133 1.673-.407 2.399.242.242.53.38.906.432.162.023.764.034 1.369.025 1.052-.015 1.086-.018 1.328-.118q.597-.249.846-.846c.1-.242.103-.276.118-1.328.017-1.187-.015-1.549-.163-1.869-.124-.266-.406-.546-.699-.694-.195-.099-.28-.116-.608-.125-.253-.007-.431.008-.526.045m-8 2.001c-.531.199-.921.672-.993 1.204a1.494 1.494 0 0 0 1.287 1.7c.138.02.673.036 1.19.036s1.052-.016 1.19-.036a1.494 1.494 0 0 0 1.287-1.7 1.51 1.51 0 0 0-.829-1.126l-.228-.116-1.38-.008c-1.079-.007-1.412.003-1.524.046m8 3.999a1.7 1.7 0 0 0-.858.75l-.096.186-.491.014c-.448.012-.511.023-.719.129-.93.471-1.133 1.673-.407 2.399.241.242.529.379.906.433.378.054 1.502.013 1.789-.066a2.6 2.6 0 0 0 1.739-1.642c.092-.275.136-.716.099-.989a1.5 1.5 0 0 0-.828-1.134c-.195-.099-.28-.116-.608-.125-.253-.007-.431.008-.526.045m-8 1.001c-.531.199-.921.672-.993 1.204a1.494 1.494 0 0 0 1.287 1.7c.138.02.673.036 1.19.036s1.052-.016 1.19-.036a1.494 1.494 0 0 0 1.287-1.7 1.51 1.51 0 0 0-.829-1.126l-.228-.116-1.38-.008c-1.079-.007-1.412.003-1.524.046"/></svg>