<svg xmlns="http://www.w3.org/2000/svg" width="24" height="24" fill="none" stroke="currentColor" stroke-linecap="round" stroke-linejoin="round" stroke-width="3"><path fill="#000" fill-rule="evenodd" stroke="none" d="M5.44 1.547c-1.419.244-2.536 1.307-2.869 2.732-.047.203-.065.628-.08 1.925l-.019 1.665-.146.069c-.84.4-1.579 1.42-1.774 2.45-.075.396-.075 8.828 0 9.224.221 1.168 1.036 2.177 2.116 2.617.719.293-.04.271 9.332.271 7.775 0 8.442-.005 8.71-.068a3.7 3.7 0 0 0 1.798-1.004c.573-.6.883-1.272.971-2.111.023-.223.04-1.99.04-4.317s-.017-4.094-.04-4.317c-.087-.83-.396-1.506-.957-2.098-.237-.251-.607-.532-.852-.649l-.15-.071-.001-1.402c0-1.504-.033-2.001-.16-2.427-.348-1.169-1.216-2.036-2.406-2.405l-.293-.09-6.56-.006c-3.608-.002-6.605.003-6.66.012m12.904 3.109.136.136V7.52h-1.039l-.097-.19a1.7 1.7 0 0 0-.696-.674c-.208-.106-.264-.116-.648-.116s-.44.01-.648.116a1.7 1.7 0 0 0-.696.674l-.097.19h-1.118l-.097-.19a1.7 1.7 0 0 0-.696-.674c-.208-.106-.264-.116-.648-.116s-.44.01-.648.116a1.7 1.7 0 0 0-.696.674l-.097.19H9.441l-.097-.19a1.7 1.7 0 0 0-.696-.674C8.44 6.55 8.384 6.54 8 6.54s-.44.01-.648.116a1.7 1.7 0 0 0-.696.674l-.097.19H5.52V4.792l.136-.136.136-.136h12.416zm2 6 .136.136v8.402l-.103.122a.6.6 0 0 1-.25.163c-.204.056-16.05.056-16.254 0a.6.6 0 0 1-.25-.163l-.103-.122v-8.402l.136-.136.136-.136h16.416zm-12.904.889c-.77.148-1.465.517-1.966 1.044A3.42 3.42 0 0 0 4.512 15c0 .715.187 1.345.57 1.917a3.56 3.56 0 0 0 2.208 1.509 4.3 4.3 0 0 0 1.42 0 3.513 3.513 0 0 0 2.765-3.772c-.123-1.217-.83-2.232-1.942-2.788-.479-.24-.797-.313-1.433-.327a7 7 0 0 0-.66.006m8 0c-.77.148-1.465.517-1.966 1.044A3.42 3.42 0 0 0 12.512 15c0 .715.187 1.345.57 1.917a3.56 3.56 0 0 0 2.208 1.509 4.3 4.3 0 0 0 1.42 0 3.513 3.513 0 0 0 2.765-3.772c-.123-1.217-.83-2.232-1.942-2.788-.479-.24-.797-.313-1.433-.327a7 7 0 0 0-.66.006m-7.096 3.111c.119.119.136.162.136.337 0 .242-.129.424-.343.483a.5.5 0 0 1-.514-.16c-.081-.096-.103-.166-.103-.323 0-.175.017-.218.136-.337s.161-.136.344-.136.224.016.344.136m8 0c.119.119.136.162.136.337 0 .242-.129.424-.343.483a.5.5 0 0 1-.514-.16c-.081-.096-.103-.166-.103-.323 0-.175.017-.218.136-.337s.161-.136.344-.136.224.016.344.136"/></svg>