<svg xmlns="http://www.w3.org/2000/svg" width="24" height="24" fill="none" stroke="currentColor" stroke-linecap="round" stroke-linejoin="round" stroke-width="3"><path fill="#000" fill-rule="evenodd" stroke="none" d="M1.516.577C.656.906.276 1.832.658 2.667c.091.199.363.488 2.044 2.173L4.64 6.783l-.23.113c-.907.443-1.595 1.335-1.838 2.383-.046.198-.066.62-.081 1.748l-.02 1.486-.445.014c-.398.012-.471.025-.674.129-.93.471-1.133 1.673-.407 2.399.316.316.731.462 1.321.464l.205.001.02 1.47c.015 1.112.035 1.534.081 1.731.314 1.358 1.326 2.374 2.698 2.709.244.06.868.068 6.43.08 6.259.014 6.711.005 7.217-.136l.244-.067.977.967c.795.788 1.018.987 1.201 1.071a1.503 1.503 0 0 0 2.003-2.013c-.095-.21-1.076-1.202-10.274-10.395C1.635-.49 2.738.551 2.042.532c-.253-.007-.431.008-.526.045m7.598 2.037a1.486 1.486 0 0 0-.486 2.448c.337.336.723.456 1.482.457l.37.001.001.37c.001.759.121 1.145.457 1.482.106.105.276.234.378.286.21.106.633.201.776.174.081-.016.092-.005.076.076a1.3 1.3 0 0 0 .031.342 1.5 1.5 0 0 0 1.291 1.232c.138.02 1.255.037 2.484.037l2.234.001.136.136.136.136.001 2.234c0 1.229.017 2.346.037 2.484.049.341.192.633.42.862a1.47 1.47 0 0 0 1.779.265c.207-.111.241-.117.72-.118.903-.001 1.257-.103 1.618-.464.726-.726.522-1.929-.407-2.399-.203-.103-.277-.117-.678-.13l-.45-.015-.001-1.225c0-1.332-.036-1.834-.16-2.25-.348-1.169-1.221-2.041-2.406-2.404-.288-.088-.333-.09-2.873-.102l-2.58-.013.013-1.195c.007-.656-.005-1.321-.027-1.477-.075-.539-.363-.949-.838-1.189l-.228-.116-1.54-.01c-1.537-.01-1.541-.01-1.766.084M8.39 10.53l1.009 1.01H8.99c-.373 0-.431.01-.638.116-.295.149-.577.429-.701.695-.148.32-.18.682-.163 1.869.015 1.052.018 1.086.118 1.328.246.593.759.938 1.394.938s1.148-.345 1.394-.938c.1-.242.103-.276.118-1.328.008-.594-.002-1.203-.022-1.354l-.037-.273 2.953 2.953L16.36 18.5l-5.11.012c-2.81.006-5.19 0-5.288-.014a.5.5 0 0 1-.31-.158l-.132-.132V9.792l.136-.136.136-.136h1.589z"/></svg>