<svg xmlns="http://www.w3.org/2000/svg" width="24" height="24" fill="none" stroke="currentColor" stroke-linecap="round" stroke-linejoin="round" stroke-width="3"><path fill="#000" fill-rule="evenodd" stroke="none" d="M7.516 2.578c-.366.136-.71.444-.864.774a1.5 1.5 0 0 0 1.158 2.13c.138.02.794.037 1.46.037l1.21.001v.997l-2.57.013c-2.53.012-2.575.014-2.863.102a3.57 3.57 0 0 0-2.475 2.647c-.046.198-.066.62-.081 1.748l-.02 1.486-.445.014c-.398.012-.471.025-.674.129-.93.471-1.133 1.673-.407 2.399.316.316.731.462 1.321.464l.205.001.02 1.47c.015 1.112.035 1.534.081 1.731.316 1.367 1.341 2.389 2.718 2.711.266.062.815.068 6.71.068 7.144 0 6.619.02 7.336-.273.783-.319 1.51-1.016 1.842-1.766.287-.649.34-1.077.341-2.731l.001-1.21.21-.001c.595-.002 1.008-.147 1.325-.464.726-.726.522-1.929-.407-2.399-.203-.103-.277-.117-.678-.13l-.45-.015-.001-1.225c0-1.332-.036-1.834-.16-2.25-.348-1.169-1.221-2.041-2.406-2.404-.288-.088-.333-.09-2.863-.102l-2.57-.013-.001-1.229c0-.675-.017-1.34-.037-1.478a1.51 1.51 0 0 0-.834-1.154l-.228-.116-2.38-.008c-1.91-.006-2.409.003-2.524.046m10.828 7.078.136.136v8.402l-.103.122a.6.6 0 0 1-.25.163c-.204.056-12.05.056-12.254 0a.6.6 0 0 1-.25-.163l-.103-.122V9.792l.136-.136.136-.136h12.416zm-9.828 1.921c-.371.142-.711.446-.864.774-.149.319-.181.681-.164 1.869.015 1.052.018 1.086.118 1.328.246.593.759.938 1.394.938s1.148-.345 1.394-.938c.1-.242.103-.276.118-1.328.017-1.187-.015-1.549-.163-1.869-.124-.266-.406-.546-.699-.694-.195-.099-.28-.116-.608-.125q-.382-.01-.526.045m6 0c-.371.142-.711.446-.864.774-.149.319-.181.681-.164 1.869.015 1.052.018 1.086.118 1.328.246.593.759.938 1.394.938s1.148-.345 1.394-.938c.1-.242.103-.276.118-1.328.017-1.187-.015-1.549-.163-1.869-.124-.266-.406-.546-.699-.694-.195-.099-.28-.116-.608-.125q-.382-.01-.526.045"/></svg>