<svg xmlns="http://www.w3.org/2000/svg" width="24" height="24" fill="none" stroke="currentColor" stroke-linecap="round" stroke-linejoin="round" stroke-width="3"><path fill="#000" fill-rule="evenodd" stroke="none" d="M4.44 1.546c-1.366.257-2.406 1.178-2.798 2.479-.104.348-.16.894-.12 1.186.164 1.209 1.668 1.71 2.533.844.25-.25.377-.525.44-.955.068-.467.138-.537.605-.605.43-.063.705-.19.955-.44.726-.726.522-1.929-.407-2.399-.207-.105-.269-.117-.668-.123a5 5 0 0 0-.54.013m4.076.031c-1.048.396-1.349 1.701-.571 2.478.353.354.721.463 1.555.463s1.202-.109 1.555-.463c.726-.726.523-1.928-.407-2.399l-.228-.116-.88-.009c-.663-.006-.916.005-1.024.046m5 0c-1.048.396-1.349 1.701-.571 2.478.353.354.721.463 1.555.463s1.202-.109 1.555-.463c.726-.726.523-1.928-.407-2.399l-.228-.116-.88-.009c-.663-.006-.916.005-1.024.046m5-.001c-1.051.406-1.349 1.701-.571 2.479.25.25.525.377.955.44.467.068.537.138.605.605.063.43.19.705.44.955.865.866 2.369.365 2.533-.844a3 3 0 0 0-.004-.564 3.51 3.51 0 0 0-2.521-3.01c-.378-.109-1.22-.145-1.437-.061m-16 6.001c-.371.142-.711.446-.864.774-.137.294-.184.691-.161 1.371.017.499.034.617.119.828.237.587.755.936 1.39.936s1.153-.349 1.39-.936c.085-.211.102-.329.119-.828.033-.973-.075-1.401-.445-1.766a2 2 0 0 0-.414-.299c-.195-.099-.28-.116-.608-.125-.253-.007-.431.008-.526.045m18 0c-.371.142-.711.446-.864.774-.137.294-.184.691-.161 1.371.017.499.034.617.119.828.237.587.755.936 1.39.936s1.153-.349 1.39-.936c.085-.211.102-.329.119-.828.033-.973-.075-1.401-.445-1.766a2 2 0 0 0-.414-.299c-.195-.099-.28-.116-.608-.125-.253-.007-.431.008-.526.045m-18 5c-.371.142-.711.446-.864.774-.137.294-.184.691-.161 1.371.017.499.034.617.119.828.237.587.755.936 1.39.936s1.153-.349 1.39-.936c.085-.211.102-.329.119-.828.033-.973-.075-1.401-.445-1.766a2 2 0 0 0-.414-.299c-.195-.099-.28-.116-.608-.125-.253-.007-.431.008-.526.045m18 0c-.371.142-.711.446-.864.774-.137.294-.184.691-.161 1.371.017.499.034.617.119.828.237.587.755.936 1.39.936s1.153-.349 1.39-.936c.085-.211.102-.329.119-.828.033-.973-.075-1.401-.445-1.766a2 2 0 0 0-.414-.299c-.195-.099-.28-.116-.608-.125-.253-.007-.431.008-.526.045m-18 5c-.371.142-.711.446-.864.775-.13.277-.168.584-.126 1.005.142 1.427 1.145 2.613 2.554 3.019.306.088.862.138 1.131.102a1.5 1.5 0 0 0 1.266-1.26c.117-.86-.454-1.586-1.334-1.698-.493-.062-.592-.16-.655-.648-.073-.56-.356-.971-.838-1.215-.195-.099-.28-.116-.608-.125-.253-.007-.431.008-.526.045m18 0c-.371.142-.711.446-.865.775a2.2 2.2 0 0 0-.139.52c-.063.487-.167.591-.648.645-1.269.142-1.813 1.644-.919 2.538.357.358.78.483 1.412.419a3.49 3.49 0 0 0 3.117-3.121c.019-.186.021-.44.004-.564a1.51 1.51 0 0 0-.828-1.132c-.195-.099-.28-.116-.608-.125-.253-.007-.431.008-.526.045m-12 2c-1.048.396-1.349 1.701-.571 2.478.353.354.721.463 1.555.463s1.202-.109 1.555-.463c.726-.726.523-1.928-.407-2.399l-.228-.116-.88-.009c-.663-.006-.916.005-1.024.046m5 0c-1.048.396-1.349 1.701-.571 2.478.353.354.721.463 1.555.463s1.202-.109 1.555-.463c.726-.726.523-1.928-.407-2.399l-.228-.116-.88-.009c-.663-.006-.916.005-1.024.046"/></svg>