<svg xmlns="http://www.w3.org/2000/svg" width="24" height="24" fill="none" stroke="currentColor" stroke-linecap="round" stroke-linejoin="round" stroke-width="3"><path fill="#000" fill-rule="evenodd" stroke="none" d="M11.3.578c-.321.065-.513.13-.8.272-.132.065-1.864 1.046-3.848 2.179-2.339 1.336-3.7 2.137-3.87 2.276a3.5 3.5 0 0 0-.905 1.155A3.15 3.15 0 0 0 1.52 7.7c-.051.474-.051 8.126 0 8.6.055.513.133.784.357 1.24q.34.688.905 1.155c.17.139 1.531.94 3.87 2.276a415 415 0 0 0 3.825 2.169c.484.242.936.344 1.523.344.506 0 .911-.08 1.339-.265.526-.227 7.581-4.279 7.878-4.524q.566-.467.906-1.155c.224-.456.302-.727.357-1.24.051-.474.051-8.126 0-8.6a3.15 3.15 0 0 0-.357-1.24 3.5 3.5 0 0 0-.905-1.155c-.17-.139-1.531-.94-3.87-2.276C13.681.935 13.431.796 13.143.694 12.674.527 11.82.473 11.3.578m3.76 4.597c1.562.894 2.84 1.643 2.84 1.665s-1.328.804-2.95 1.736L12 10.272 9.05 8.577c-1.622-.932-2.955-1.711-2.961-1.73-.008-.025 4.823-2.818 5.653-3.268.273-.147.273-.146 3.318 1.596m-7.327 6.104 2.747 1.58v3.415c0 2.861-.009 3.411-.054 3.394-.219-.084-5.71-3.259-5.796-3.351l-.11-.118V9.435l.233.133c.128.072 1.469.843 2.98 1.711m11.675 5.001c-.062.085-5.767 3.395-5.858 3.399-.016 0-.03-1.534-.03-3.41v-3.41l2.97-1.708 2.97-1.707.01 3.368c.01 3.204.007 3.373-.062 3.468"/></svg>