<svg xmlns="http://www.w3.org/2000/svg" width="24" height="24" fill="none" stroke="currentColor" stroke-linecap="round" stroke-linejoin="round" stroke-width="3"><path fill="#000" fill-rule="evenodd" stroke="none" d="M11.462.882c-.37.058-.654.15-1.002.326-.527.265-3.347 1.973-3.647 2.207-.719.563-1.2 1.465-1.294 2.423-.02.21-.037 1.158-.038 2.106L5.48 9.669l-1.59.952c-1.946 1.166-2.084 1.258-2.41 1.605-.35.372-.532.648-.699 1.058-.275.675-.281.74-.279 3.016.002 1.95.006 2.053.086 2.34.235.835.577 1.398 1.14 1.877.312.264 3.509 2.199 3.921 2.372a3.57 3.57 0 0 0 2.7.001c.149-.063 1.032-.57 1.961-1.128L12 20.748l1.69 1.014c.93.558 1.812 1.065 1.961 1.128a3.57 3.57 0 0 0 2.7-.001c.412-.173 3.609-2.108 3.921-2.372.563-.479.905-1.042 1.14-1.877.08-.287.084-.39.086-2.34.002-2.274-.004-2.342-.277-3.011-.166-.407-.353-.691-.701-1.062-.326-.348-.463-.439-2.406-1.604l-1.587-.95-.017-2.007c-.016-1.875-.022-2.026-.1-2.306-.235-.853-.609-1.453-1.2-1.924-.3-.24-3.103-1.941-3.676-2.232a4 4 0 0 0-.64-.246C12.53.864 11.815.826 11.462.882m1.627 3.528c.523.313.951.58.951.594s-.459.3-1.02.636L12 6.251l-1.02-.611c-.561-.336-1.02-.622-1.02-.636 0-.013.428-.281.95-.594.735-.441.981-.57 1.089-.57s.353.128 1.09.57M9.507 8.252l.953.573.011.991c.007.649-.003.986-.03.978a41 41 0 0 1-.979-.574l-.94-.56-.001-.99c0-.545.007-.99.016-.99s.446.258.97.572m5.972.418-.001.99-.94.56c-.516.308-.957.566-.979.574-.027.008-.037-.329-.03-.978l.011-.991.94-.569c.517-.313.953-.571.97-.573s.029.442.029.987m-7.421 4.224 1.023.615-1.012.605c-.556.333-1.035.606-1.064.606-.099 0-2.084-1.217-2.034-1.247l1.009-.61c.528-.319.981-.58 1.007-.581s.508.274 1.071.612m9.936-.047c.52.311.976.587 1.013.611.057.038-.094.142-.946.654-.558.334-1.038.608-1.066.608s-.508-.273-1.065-.606l-1.011-.605 1.01-.611c.556-.336 1.035-.613 1.065-.615.029-.001.479.252 1 .564M4.63 16.829l.85.51v.99c0 .545-.008.991-.017.991-.067 0-1.781-1.066-1.853-1.152-.087-.105-.09-.132-.09-1.062v-.954l.13.084c.071.046.512.313.98.593m5.801 1.353c-.055.05-1.865 1.138-1.894 1.138-.009 0-.017-.446-.017-.99v-.99l.97-.582.97-.582.011.98c.008.751-.001.991-.04 1.026m5.049.148c0 .544-.008.99-.017.99s-.446-.258-.97-.572l-.953-.573-.011-1.006-.01-1.006.98.588.981.589zm4.941-.212c-.045.086-.296.259-.963.659-.497.299-.911.543-.921.543-.009 0-.017-.445-.017-.99v-.99l.97-.584.97-.583.011.914c.009.753 0 .935-.05 1.031"/></svg>