<svg xmlns="http://www.w3.org/2000/svg" width="24" height="24" fill="none" stroke="currentColor" stroke-linecap="round" stroke-linejoin="round" stroke-width="3"><path fill="#000" fill-rule="evenodd" stroke="none" d="M4.516 1.578a1.54 1.54 0 0 0-1 1.253c-.022.162-.033 3.904-.027 9.369l.011 9.1.105.248q.251.597.847.847l.248.104 1.582.014c.912.008 1.704-.004 1.869-.026.374-.052.662-.19.904-.432.726-.726.523-1.928-.407-2.399l-.228-.116-.95-.013-.95-.012V4.52l.71-.001c.39 0 .822-.017.96-.037a1.494 1.494 0 0 0 1.287-1.7 1.51 1.51 0 0 0-.829-1.126L8.42 1.54l-1.88-.008c-1.494-.006-1.91.003-2.024.046m11 0c-.53.198-.921.672-.993 1.204a1.494 1.494 0 0 0 1.287 1.7c.138.02.57.037.96.037l.71.001v14.996l-.95.012-.95.012-.228.116c-.93.471-1.133 1.673-.407 2.399.242.242.53.38.904.432.165.022.957.034 1.869.026l1.582-.014.248-.104q.596-.25.847-.847l.105-.248.011-9.1c.006-5.465-.005-9.207-.027-9.369a1.5 1.5 0 0 0-.836-1.175l-.228-.116-1.88-.008c-1.494-.006-1.91.003-2.024.046"/></svg>