<svg xmlns="http://www.w3.org/2000/svg" width="24" height="24" fill="none" stroke="currentColor" stroke-linecap="round" stroke-linejoin="round" stroke-width="3"><path fill="#000" fill-rule="evenodd" stroke="none" d="M6.44 1.546c-1.437.26-2.527 1.298-2.87 2.733-.053.218-.067.725-.086 3.107-.023 2.767-.026 2.848-.104 2.934-.12.132-.196.161-.522.198-1.263.141-1.804 1.646-.913 2.537.25.251.525.377.959.44.31.045.36.065.462.179l.114.127.001 2.57c0 1.414.018 2.738.04 2.946.18 1.707 1.455 2.982 3.162 3.162.469.049 1.177.051 1.507.003a1.494 1.494 0 0 0 1.287-1.7 1.51 1.51 0 0 0-.829-1.126c-.223-.113-.247-.117-1.008-.137-.822-.022-.889-.036-1.037-.224-.082-.105-.083-.135-.084-2.67 0-1.411-.018-2.733-.04-2.939-.059-.564-.232-1.095-.487-1.496l-.12-.19.12-.19c.255-.401.428-.932.487-1.496.022-.206.04-1.532.04-2.948l.001-2.574.136-.136.136-.136.574-.001c.979-.001 1.32-.095 1.689-.464.726-.726.523-1.928-.407-2.399L8.42 1.54l-.94-.006c-.517-.003-.985.002-1.04.012m9.076.031c-1.049.399-1.349 1.701-.571 2.478.369.369.71.463 1.689.464l.574.001.136.136.136.136v2.56c0 1.517.017 2.728.042 2.974.052.498.226 1.052.446 1.418l.157.259-.122.198a3.5 3.5 0 0 0-.482 1.485c-.022.206-.04 1.528-.04 2.939-.001 2.535-.002 2.565-.084 2.67-.148.188-.214.203-1.037.224-.762.021-.785.024-1.008.137-.93.471-1.133 1.673-.407 2.399.39.39.797.489 1.855.45.751-.028 1.059-.083 1.536-.278a3.5 3.5 0 0 0 2.023-2.263c.138-.464.16-.949.16-3.593l.001-2.57.114-.127c.102-.114.152-.134.462-.179.434-.063.709-.189.959-.44.579-.579.583-1.533.009-2.099a1.48 1.48 0 0 0-.915-.435c-.351-.044-.428-.076-.546-.226-.082-.105-.083-.135-.084-2.67 0-1.412-.018-2.734-.04-2.942-.132-1.255-.824-2.255-1.946-2.817-.568-.284-.754-.317-1.873-.331-.776-.01-1.032-.001-1.144.042"/></svg>