<svg xmlns="http://www.w3.org/2000/svg" width="24" height="24" fill="none" stroke="currentColor" stroke-linecap="round" stroke-linejoin="round" stroke-width="3"><path fill="#000" fill-rule="evenodd" stroke="none" d="M8.529.522a4.47 4.47 0 0 0-3.798 3.081l-.151.466-.255.133c-.69.358-1.463 1.079-1.933 1.802a5.6 5.6 0 0 0-.754 4.195l.073.339-.172.241a5.7 5.7 0 0 0-1.017 2.742c-.161 1.629.517 3.392 1.733 4.506.242.221.265.256.265.402 0 .753.491 2.078 1.049 2.831.304.41.88.965 1.291 1.245.985.67 1.991.981 3.173.979a5.47 5.47 0 0 0 3.697-1.446l.27-.244.27.244a5.9 5.9 0 0 0 1.938 1.156c1.083.382 2.392.391 3.498.025a5.5 5.5 0 0 0 3.512-3.505c.144-.431.262-1.009.262-1.284 0-.146.024-.181.283-.421.334-.309.722-.796.971-1.217 1.111-1.879 1.005-4.197-.275-6.013l-.17-.241.074-.342c.395-1.823-.152-3.733-1.443-5.039-.387-.391-.865-.758-1.242-.954l-.258-.134-.151-.466c-.341-1.054-1.002-1.883-1.972-2.471C16.589.702 15.883.511 15 .511c-1.035 0-1.905.287-2.704.892-.143.108-.276.197-.296.197s-.153-.089-.296-.197A4.53 4.53 0 0 0 8.529.522m.914 3.041c.402.101.85.549.979.976.086.287.084 4.524-.002 4.891-.218.922-.819 1.652-1.7 2.06l-.471.219c-.323.151-.648.621-.73 1.058-.079.414.098.959.411 1.269.366.362.818.522 1.258.446.283-.05.752-.224 1.082-.401l.21-.113-.001 2.186c0 2.404-.005 2.462-.244 2.936a2.492 2.492 0 0 1-3.789.859c-.19-.146-.406-.379-.406-.438 0-.011.086-.029.192-.039.432-.042.921-.402 1.117-.824.267-.573.151-1.262-.285-1.692-.302-.298-.527-.389-1.127-.456-.575-.064-.842-.142-1.197-.351a2.48 2.48 0 0 1-1.091-1.322c-.137-.385-.169-1.047-.07-1.427.163-.624.548-1.147 1.141-1.549.389-.263.57-.455.707-.751.095-.205.111-.292.112-.6s-.014-.393-.106-.589a1.7 1.7 0 0 0-.695-.737L4.52 9.06v-.214c0-.409.192-.939.492-1.357l.124-.172.152.177c.371.434 1.04.616 1.575.428.574-.201.893-.6 1.037-1.294.037-.183-.053-.564-.212-.897-.142-.298-.148-.329-.148-.731 0-.379.011-.442.112-.649.332-.676 1.025-.981 1.791-.788m5.791-.041c.492.08.892.377 1.114.829.101.207.112.27.112.649 0 .402-.006.433-.148.73-.164.344-.245.694-.209.909.099.596.414 1.023.918 1.243.558.244 1.296.075 1.691-.388l.152-.177.124.172c.3.418.492.948.492 1.357v.214l-.21.11a1.56 1.56 0 0 0-.68.703c-.119.243-.13.297-.127.626.005.599.216.96.777 1.325.604.395 1.017.945 1.181 1.576.099.38.067 1.042-.07 1.427a2.48 2.48 0 0 1-1.091 1.322c-.355.209-.622.287-1.197.351-.6.067-.825.158-1.127.456-.436.43-.552 1.119-.285 1.692.196.422.685.782 1.117.824.106.01.192.028.192.039 0 .059-.216.292-.406.438a2.52 2.52 0 0 1-3.107.001 2.6 2.6 0 0 1-.682-.86c-.239-.473-.244-.534-.244-2.92-.001-1.193.009-2.17.02-2.17s.11.045.218.099c.348.177.788.336 1.053.383.44.076.892-.084 1.258-.446.312-.309.489-.861.409-1.28-.079-.416-.418-.902-.732-1.049l-.467-.217c-.742-.344-1.269-.894-1.561-1.627-.198-.499-.204-.595-.191-3.023l.012-2.26.117-.238a1.5 1.5 0 0 1 1.068-.817l.235-.04c.011-.002.135.014.274.037"/></svg>