<svg xmlns="http://www.w3.org/2000/svg" width="24" height="24" fill="none" stroke="currentColor" stroke-linecap="round" stroke-linejoin="round" stroke-width="3"><path fill="#000" fill-rule="evenodd" stroke="none" d="M8.303.564c-.889.13-1.73.555-2.43 1.228a4.55 4.55 0 0 0-1.196 1.969l-.088.3-.324.19a5.2 5.2 0 0 0-1.243.993A5.3 5.3 0 0 0 1.641 7.8c-.17.722-.163 1.774.018 2.516.06.245.06.261-.014.34-.042.046-.157.21-.256.364A5.4 5.4 0 0 0 .509 14c.001 1.499.515 2.759 1.575 3.859l.424.441.024.26c.111 1.239.67 2.409 1.585 3.321.826.823 1.754 1.316 2.908 1.545.486.096 1.464.096 1.95 0 1.101-.218 2.04-.696 2.795-1.422l.23-.221.23.221c.755.726 1.694 1.204 2.795 1.422.486.096 1.464.096 1.95 0 1.154-.229 2.082-.722 2.908-1.545.915-.912 1.477-2.089 1.585-3.321l.022-.26.389-.4c.213-.22.46-.499.548-.62 1.079-1.48 1.365-3.412.755-5.098-.201-.555-.583-1.26-.827-1.526-.074-.079-.074-.095-.014-.34.181-.742.188-1.786.017-2.518a5.3 5.3 0 0 0-1.38-2.554 5.2 5.2 0 0 0-1.243-.993l-.324-.19-.088-.3a4.55 4.55 0 0 0-1.196-1.969A4.46 4.46 0 0 0 16.128.654c-.759-.196-1.783-.168-2.501.068a5.7 5.7 0 0 0-1.337.698l-.29.221-.29-.221a5.6 5.6 0 0 0-1.336-.697C9.813.538 8.94.471 8.303.564m1.304 3.085c.299.137.553.376.708.668.101.189.138.326.181.675.065.529.175.789.449 1.063a1.49 1.49 0 0 0 2.11 0c.274-.274.384-.534.449-1.063.043-.349.08-.486.181-.675.155-.29.407-.53.708-.671.196-.091.279-.106.607-.106s.411.015.607.106c.304.143.573.399.727.693.118.226.126.267.126.661 0 .402-.006.433-.148.73-.164.344-.245.694-.209.909.099.596.414 1.023.918 1.243.552.241 1.293.076 1.683-.376l.143-.166.119.14c.159.187.416.729.47.992.024.117.044.297.044.4 0 .186-.002.189-.21.298a1.56 1.56 0 0 0-.68.703c-.119.243-.13.297-.127.626.005.595.216.958.766 1.319.427.281.813.707 1.005 1.11.087.183.178.427.202.544.063.302.054.871-.016 1.15-.153.602-.596 1.203-1.106 1.501-.395.231-.663.312-1.251.377-.6.067-.825.158-1.127.456-.436.43-.552 1.119-.285 1.692.196.422.685.782 1.117.824.12.011.192.037.192.069 0 .093-.551.564-.809.691-.756.372-1.533.373-2.273.002a2.35 2.35 0 0 1-1.237-1.471c-.192-.621-.399-.877-.92-1.135-.247-.122-.282-.128-.721-.128s-.474.006-.721.128c-.514.255-.731.522-.919 1.133q-.312 1.01-1.238 1.473c-.74.371-1.517.37-2.273-.002-.258-.127-.809-.598-.809-.691 0-.032.072-.058.192-.069.432-.042.921-.402 1.117-.824.267-.573.151-1.262-.285-1.692-.302-.298-.527-.389-1.127-.456a4.6 4.6 0 0 1-.757-.14 2.52 2.52 0 0 1-1.599-1.738c-.071-.279-.08-.847-.017-1.15.12-.586.585-1.231 1.176-1.633.37-.252.552-.448.687-.739.095-.205.111-.292.112-.6s-.014-.393-.106-.589a1.7 1.7 0 0 0-.695-.737c-.217-.113-.218-.115-.218-.302 0-.103.02-.283.044-.4.054-.263.311-.805.47-.992l.119-.14.143.166c.365.423 1.039.602 1.567.416.574-.201.893-.6 1.037-1.294.037-.183-.053-.564-.212-.897-.142-.298-.148-.329-.148-.731 0-.394.008-.435.126-.661.192-.368.506-.631.914-.765.258-.086.756-.049 1.027.075m.402 3.211c-.256.072-.591.28-.747.464-.257.304-.41.832-.344 1.186.034.18.031.188-.132.356s-.17.171-.372.148c-.585-.068-1.197.293-1.47.866-.11.231-.124.3-.124.62 0 .321.014.389.127.628.109.231.447.632.533.632.014 0 .026.119.028.264l.002.264-.25.25a1.42 1.42 0 0 0-.449.965c-.024.278.059.617.215.884.275.47.924.78 1.455.696.206-.032.212-.03.368.122l.159.154.006.35c.005.304.023.387.132.617.157.331.396.569.734.73.231.11.3.124.62.124.319 0 .389-.014.62-.123.224-.107.64-.455.64-.536 0-.014.119-.027.264-.029l.264-.002.25.25c.509.508 1.226.599 1.849.234.472-.277.793-.96.696-1.481-.033-.176-.029-.187.121-.342l.155-.159.35-.006c.303-.005.387-.023.611-.13a1.48 1.48 0 0 0 .695-2.056 1.2 1.2 0 0 0-.375-.456c-.132-.109-.14-.131-.146-.373l-.007-.257.252-.251c.183-.184.275-.315.341-.487.311-.819-.066-1.675-.869-1.976-.182-.068-.302-.084-.571-.075l-.34.01-.16-.147c-.158-.145-.159-.149-.146-.401a1.5 1.5 0 0 0-.439-1.139 1.494 1.494 0 0 0-2.128.016c-.103.104-.187.204-.187.223 0 .018-.122.033-.27.033h-.27l-.171-.198c-.35-.407-1.006-.607-1.52-.462m2.644 3.798c.272.138.573.445.709.722.085.174.098.255.098.62 0 .384-.01.44-.116.648a1.51 1.51 0 0 1-1.126.829 1.5 1.5 0 0 1-1.562-.829c-.106-.208-.116-.264-.116-.648 0-.365.013-.446.098-.62.173-.352.515-.664.878-.803q.144-.056.526-.045c.329.009.413.026.611.126"/></svg>