<svg xmlns="http://www.w3.org/2000/svg" width="24" height="24" fill="none" stroke="currentColor" stroke-linecap="round" stroke-linejoin="round" stroke-width="3"><path fill="#000" fill-rule="evenodd" stroke="none" d="M8.529.522a4.47 4.47 0 0 0-3.798 3.081l-.151.466-.255.133c-.69.358-1.463 1.079-1.933 1.802a5.6 5.6 0 0 0-.754 4.195l.073.339-.172.241a5.7 5.7 0 0 0-1.017 2.742c-.161 1.629.517 3.392 1.733 4.506.242.221.265.256.265.402 0 .753.491 2.078 1.049 2.831a5.9 5.9 0 0 0 1.985 1.657 5.52 5.52 0 0 0 4.906-.007 5.58 5.58 0 0 0 2.72-3.08l.11-.31h4.909l.12.11.121.11-.119.174a1.86 1.86 0 0 0-.31.966c-.037.61.145 1.084.585 1.524.286.286.552.443.912.536a2.07 2.07 0 0 0 1.422-.165c.266-.135.708-.575.841-.838.352-.694.283-1.558-.171-2.137a.8.8 0 0 1-.138-.32c-.212-1.345-1.176-2.44-2.509-2.848-.288-.088-.333-.09-2.863-.102l-2.57-.013V14.52h1.162l.2.137c.589.406 1.389.452 2.047.118.267-.135.709-.575.842-.838a2 2 0 0 0-1.907-2.925 1.86 1.86 0 0 0-.966.326l-.278.18-.55.001-.55.001v-2h5.162l.2.137c.589.406 1.389.452 2.047.118.267-.135.709-.575.842-.838a2 2 0 0 0-1.907-2.925 1.86 1.86 0 0 0-.966.326l-.278.18-.55.001-.55.001V4.97l.35.02c.622.035 1.093-.144 1.534-.586.516-.515.702-1.168.536-1.875a1.8 1.8 0 0 0-.475-.876c-.509-.548-1.203-.759-1.943-.591-.37.085-.686.28-1.022.631a4.6 4.6 0 0 1-.54.477 3.55 3.55 0 0 0-1.387 2.109c-.038.17-.066.607-.081 1.251l-.023.99h-.949l-.001-.77c-.001-.917-.047-1.446-.164-1.885-.377-1.415-1.361-2.519-2.734-3.068C10.032.562 9.209.454 8.529.522m.914 3.041c.402.101.85.549.979.976.086.287.084 4.524-.002 4.891-.218.922-.819 1.652-1.7 2.06l-.471.219c-.323.151-.648.621-.73 1.058-.079.414.098.959.411 1.269.366.362.818.522 1.258.446.283-.05.752-.224 1.082-.401l.21-.113-.001 2.186c0 2.404-.005 2.462-.244 2.936a2.492 2.492 0 0 1-3.789.859c-.19-.146-.406-.379-.406-.438 0-.011.086-.029.192-.039.432-.042.921-.402 1.117-.824.267-.573.151-1.262-.285-1.692-.302-.298-.527-.389-1.127-.456-.575-.064-.842-.142-1.197-.351a2.48 2.48 0 0 1-1.091-1.322c-.137-.385-.169-1.047-.07-1.427.163-.624.548-1.147 1.141-1.549.389-.263.57-.455.707-.751.095-.205.111-.292.112-.6s-.014-.393-.106-.589a1.7 1.7 0 0 0-.695-.737L4.52 9.06v-.214c0-.409.192-.939.492-1.357l.124-.172.152.177c.371.434 1.04.616 1.575.428.574-.201.893-.6 1.037-1.294.037-.183-.053-.564-.212-.897-.142-.298-.148-.329-.148-.731 0-.379.011-.442.112-.649.332-.676 1.025-.981 1.791-.788"/></svg>