<svg xmlns="http://www.w3.org/2000/svg" width="24" height="24" fill="none" stroke="currentColor" stroke-linecap="round" stroke-linejoin="round" stroke-width="3"><path fill="#000" fill-rule="evenodd" stroke="none" d="M6.1 1.522c-1.668.021-1.775.027-2.053.111a3.57 3.57 0 0 0-2.495 2.755c-.076.399-.076 14.825 0 15.224.221 1.168 1.036 2.177 2.116 2.617.716.292.076.271 8.332.271 6.835 0 7.443-.005 7.71-.068a3.7 3.7 0 0 0 1.798-1.004c.573-.6.883-1.272.971-2.111.054-.511.054-14.123 0-14.634a3.5 3.5 0 0 0-.568-1.617c-.61-.902-1.595-1.475-2.631-1.531-.541-.029-11.074-.039-13.18-.013m.38 4.498v1.5H4.52V4.792l.136-.136.136-.136H6.48zm8-.001v1.498H9.52V4.52h4.96zm4.864-1.363.136.136V7.52h-1.96v-3h1.688zm-8.864 7.362v1.498l-2.98.002-2.98.001V10.52h5.96zm9 .001v1.5l-2.98-.001-2.98-.002V10.52h5.96zm-13 6.001v1.5h-.73c-.401 0-.796-.019-.877-.041a.6.6 0 0 1-.25-.163l-.103-.122V16.52h1.96zm8 0v1.5H9.52v-3h4.96zm5-.163v1.337l-.103.122a.6.6 0 0 1-.25.163c-.081.022-.475.041-.877.041h-.73v-3h1.96z"/></svg>