<svg xmlns="http://www.w3.org/2000/svg" width="24" height="24" fill="none" stroke="currentColor" stroke-linecap="round" stroke-linejoin="round" stroke-width="3"><path fill="#000" fill-rule="evenodd" stroke="none" d="M9.44.547C8.205.765 7.137 1.641 6.728 2.771c-.153.423-.199.674-.233 1.268l-.027.476-1.564.015c-1.477.014-1.58.02-1.857.103A3.57 3.57 0 0 0 .552 7.388c-.076.397-.076 10.827 0 11.224.221 1.168 1.036 2.177 2.116 2.617.719.293-.04.271 9.332.271 7.775 0 8.442-.005 8.71-.068a3.7 3.7 0 0 0 1.798-1.004c.573-.6.883-1.272.971-2.111.053-.506.053-10.128 0-10.634-.154-1.465-1.113-2.622-2.526-3.05-.277-.083-.38-.089-1.863-.103l-1.57-.015-.001-.228c-.001-.384-.076-.967-.16-1.251-.348-1.169-1.221-2.041-2.406-2.404-.289-.088-.325-.089-2.853-.096-1.408-.004-2.605.001-2.66.011m4.904 3.109c.135.135.136.139.136.5v.364H9.52v-.364c0-.361.001-.365.136-.5l.136-.136h4.416zm6 4 .136.136v4.391l-.25.146c-.424.246-1.424.729-1.952.943A16.3 16.3 0 0 1 12 14.491a16.3 16.3 0 0 1-6.304-1.231 20 20 0 0 1-1.922-.928l-.254-.149V7.792l.136-.136.136-.136h16.416zm-8.828 2.921c-1.049.399-1.349 1.701-.571 2.478.58.58 1.53.583 2.107.007a1.47 1.47 0 0 0 0-2.124c-.292-.292-.55-.395-1.012-.407-.247-.006-.431.01-.524.046m-7.433 5.258c1.998.875 4.053 1.399 6.317 1.609.275.026.995.047 1.6.047s1.325-.021 1.6-.047c2.2-.204 4.243-.718 6.18-1.552l.65-.28c.039-.016.05.255.05 1.281v1.301l-.103.122a.6.6 0 0 1-.25.163c-.204.056-16.05.056-16.254 0a.6.6 0 0 1-.25-.163l-.103-.122v-1.297c0-.713.006-1.297.013-1.297s.255.106.55.235"/></svg>