<svg xmlns="http://www.w3.org/2000/svg" width="24" height="24" fill="none" stroke="currentColor" stroke-linecap="round" stroke-linejoin="round" stroke-width="3"><path fill="#000" fill-rule="evenodd" stroke="none" d="M9.44.547C8.205.765 7.137 1.641 6.728 2.771c-.153.422-.199.674-.233 1.264l-.026.471-1.441.009c-1.712.011-1.947.044-2.566.353a3.53 3.53 0 0 0-1.91 2.52c-.076.397-.076 10.827 0 11.224.221 1.168 1.036 2.177 2.116 2.617.719.293-.04.271 9.332.271 7.775 0 8.442-.005 8.71-.068a3.7 3.7 0 0 0 1.798-1.004c.573-.6.883-1.272.971-2.111.053-.506.053-10.128 0-10.634-.132-1.252-.824-2.256-1.941-2.815-.619-.31-.854-.342-2.572-.353l-1.446-.009-.001-.223c-.001-.38-.076-.964-.16-1.247-.348-1.169-1.221-2.041-2.406-2.404-.289-.088-.325-.089-2.853-.096-1.408-.004-2.605.001-2.66.011m4.904 3.109c.135.135.136.139.136.5v.364H9.52v-.364c0-.361.001-.365.136-.5l.136-.136h4.416zM4.48 13.02v5.5h-.23c-.32-.001-.507-.062-.627-.204l-.103-.122V7.792l.136-.136c.134-.134.142-.136.48-.136h.344zm12 0v5.5H7.52v-11h8.96zm3.864-5.364.136.136v10.402l-.103.122c-.12.142-.307.203-.627.204h-.23v-11h.344c.338 0 .346.002.48.136m-8.828 1.921c-.371.142-.711.446-.864.773-.106.228-.17.576-.171.937l-.001.226-.45.014c-.402.012-.474.025-.678.129-.93.471-1.133 1.673-.407 2.399.315.316.731.462 1.319.464l.204.001.027.405c.039.599.179.904.576 1.25.473.413 1.385.413 1.858 0 .397-.346.537-.651.576-1.25l.027-.405.204-.001c.588-.002 1.004-.148 1.319-.464.726-.726.522-1.929-.407-2.399-.203-.103-.277-.117-.678-.13l-.45-.015-.001-.225c-.003-.811-.28-1.331-.869-1.629-.195-.099-.28-.116-.608-.125q-.382-.01-.526.045"/></svg>