<svg xmlns="http://www.w3.org/2000/svg" width="24" height="24" fill="none" stroke="currentColor" stroke-linecap="round" stroke-linejoin="round" stroke-width="3"><path fill="#000" fill-rule="evenodd" stroke="none" d="M3.44.547A3.56 3.56 0 0 0 .552 3.388c-.074.389-.074 4.835 0 5.224.291 1.539 1.552 2.707 3.091 2.862.632.064 1.055-.061 1.412-.419.579-.579.583-1.533.009-2.099a1.48 1.48 0 0 0-.915-.435c-.351-.044-.428-.076-.546-.226-.082-.104-.083-.139-.083-2.304V3.792l.136-.136.136-.136h4.407l.127.114c.114.102.134.152.179.462.063.434.189.709.44.959.865.866 2.369.365 2.533-.844a3 3 0 0 0-.004-.564C11.33 2.228 10.355 1.061 8.953.632 8.664.544 8.628.543 6.1.536 4.692.532 3.495.537 3.44.547m6 6a3.56 3.56 0 0 0-2.888 2.841c-.074.389-.074 4.835 0 5.224.221 1.168 1.036 2.177 2.116 2.617.669.272.647.271 3.332.271 2.132 0 2.454-.008 2.71-.068a3.7 3.7 0 0 0 1.798-1.004c.573-.6.883-1.272.971-2.111.051-.49.051-4.144 0-4.634-.154-1.465-1.108-2.617-2.526-3.051-.289-.088-.325-.089-2.853-.096-1.408-.004-2.605.001-2.66.011m4.904 3.109.136.136v4.402l-.103.122a.6.6 0 0 1-.25.163c-.199.055-4.055.055-4.254 0a.6.6 0 0 1-.25-.163l-.103-.122V9.792l.136-.136.136-.136h4.416zm5.172 2.92c-1.051.406-1.349 1.701-.571 2.479.25.251.525.377.959.44.31.045.36.065.462.179l.114.127v4.393l-.103.122a.6.6 0 0 1-.25.163c-.195.054-4.055.055-4.25.001-.241-.067-.327-.197-.383-.583a2.4 2.4 0 0 0-.147-.549c-.122-.264-.405-.543-.699-.692-.208-.106-.264-.116-.648-.116s-.44.01-.648.116c-.455.23-.765.653-.83 1.133a3 3 0 0 0 .004.568 3.5 3.5 0 0 0 2.142 2.872c.669.272.647.271 3.332.271 2.132 0 2.454-.008 2.71-.068 1.297-.303 2.276-1.215 2.649-2.468.133-.448.16-.937.16-2.964s-.027-2.516-.16-2.964a3.52 3.52 0 0 0-2.406-2.399c-.378-.109-1.22-.145-1.437-.061"/></svg>