<svg xmlns="http://www.w3.org/2000/svg" width="24" height="24" fill="none" stroke="currentColor" stroke-linecap="round" stroke-linejoin="round" stroke-width="3"><path fill="#000" fill-rule="evenodd" stroke="none" d="M18.437 1.542a4.5 4.5 0 0 0-1.697.677c-.157.102-1.588 1.496-4.12 4.013-5.056 5.027-4.765 4.728-4.916 5.046-.11.233-.124.302-.124.622 0 .311.015.394.113.604.143.309.452.617.767.764.207.097.29.112.6.112.312 0 .395-.016.62-.117.245-.11.506-.363 4.52-4.365 4.78-4.766 4.363-4.399 5-4.397.271.001.378.02.525.093.283.138.487.334.638.613.127.235.137.279.137.613 0 .287-.018.399-.089.552s-.941 1.05-4.3 4.43c-4.668 4.697-4.461 4.466-4.501 5.027-.046.638.309 1.23.901 1.504.154.071.262.087.589.087.717 0 .286.377 5.112-4.47 2.328-2.337 4.328-4.376 4.445-4.53a4.36 4.36 0 0 0 .424-4.505c-.657-1.322-1.864-2.187-3.34-2.392a4.5 4.5 0 0 0-1.304.019M6.4 13.501c-1.137.159-2.222.809-2.929 1.756-.429.576-.791 1.455-.851 2.069-.043.445-.009.405-.62.715a7 7 0 0 0-.805.469c-.58.436-.826 1.2-.598 1.86.105.305.251.506.65.894 1.109 1.077 2.488 1.866 3.701 2.116a5.6 5.6 0 0 0 3.019-.225c1.746-.637 3.084-2.198 3.493-4.075.1-.46.123-1.419.044-1.87-.343-1.973-1.92-3.485-3.884-3.726a4 4 0 0 0-1.22.017m1.3 3.094c.262.124.53.374.675.627.381.672.168 1.754-.484 2.459-.793.856-1.863 1.043-3.016.526-.146-.066-.277-.138-.291-.161-.015-.023.056-.118.156-.21.52-.48.782-1.078.842-1.928.021-.291.049-.4.164-.628a1.6 1.6 0 0 1 .634-.671c.375-.197.919-.203 1.32-.014"/></svg>