<svg xmlns="http://www.w3.org/2000/svg" width="24" height="24" fill="none" stroke="currentColor" stroke-linecap="round" stroke-linejoin="round" stroke-width="3"><path fill="#000" fill-rule="evenodd" stroke="none" d="M1.516.577C.655.907.276 1.832.658 2.668c.093.202.402.528 2.508 2.637l2.403 2.406-.159.235c-.602.886-.928 2.045-.93 3.303v.268l-1.45.012-1.45.011-.228.116a1.51 1.51 0 0 0-.829 1.126 1.494 1.494 0 0 0 1.287 1.7c.138.02.801.037 1.474.037l1.224.001.047.394c.027.217.084.544.127.726.044.183.075.336.069.341s-.11.059-.231.12c-.87.436-1.748 1.271-2.274 2.163-.499.844-.827 2.186-.723 2.953.163 1.203 1.669 1.702 2.532.838.268-.268.39-.546.434-.993.058-.584.116-.823.283-1.156.185-.371.575-.806.926-1.034.34-.221.397-.228.531-.066 1.093 1.325 2.715 2.268 4.475 2.601.622.118 1.899.127 2.496.019 1.404-.256 2.606-.817 3.658-1.706l.389-.329 1.928 1.923c1.671 1.666 1.959 1.937 2.158 2.028a1.503 1.503 0 0 0 2.009-2.01c-.095-.21-1.076-1.202-10.274-10.395C1.635-.49 2.738.551 2.042.532c-.253-.007-.431.008-.526.045m6 0c-.137.052-.38.198-.519.311-.137.112-.353.438-.417.631a1.8 1.8 0 0 0 0 .961c.101.304.285.52 1.387 1.631.883.89 1.046 1.037 1.273 1.145.231.11.3.124.62.124.441 0 .683-.098 1.089-.443.393-.333.548-.393 1.031-.395.357-.002.426.01.64.11.342.16.667.493.757.778l.028.09h-.501c-.581 0-.818.066-1.134.316-.915.724-.683 2.142.42 2.567.208.08.33.091 1.29.116 1.232.032 1.392.066 1.897.404.46.308.799.739.992 1.26.082.222.089.326.111 1.677.023 1.43.024 1.442.127 1.688q.246.594.845.847l.248.105 2.087.013c1.217.007 2.204-.004 2.369-.027.369-.051.658-.19.899-.431.726-.726.523-1.928-.407-2.399l-.228-.116-1.442-.012-1.442-.012-.047-.688a11 11 0 0 0-.069-.768c-.018-.065.024-.106.226-.22 1.632-.922 2.657-2.568 2.815-4.523.062-.774-.254-1.389-.861-1.674-.193-.09-.272-.103-.64-.103-.369 0-.444.012-.616.1a1.6 1.6 0 0 0-.708.701c-.106.216-.134.337-.177.768-.057.572-.16.901-.402 1.279-.18.281-.548.648-.795.793l-.182.106-.27-.248a5.6 5.6 0 0 0-1-.757c-.159-.094-.291-.192-.291-.217-.017-.574-.151-1.251-.34-1.724l-.106-.265.588-.602c.634-.65.76-.844.816-1.256a1.5 1.5 0 0 0-.829-1.562C16.44.55 16.384.54 16 .54c-.595 0-.726.072-1.489.815l-.589.574-.256-.102c-.494-.198-.891-.277-1.486-.297-.656-.022-1.13.045-1.66.235a7 7 0 0 1-.42.14c-.061.015-.213-.115-.652-.557C8.731.625 8.592.544 8.04.531c-.246-.006-.431.01-.524.046M9.13 11.27l1.35 1.35v5.625l-.09-.027c-.474-.147-1.064-.53-1.536-.999a4.6 4.6 0 0 1-1.204-2.044l-.107-.395-.014-2.04c-.01-1.434-.001-2.111.032-2.278.05-.256.152-.542.193-.542.014 0 .633.607 1.376 1.35m5.822 6.145c-.323.291-1.016.706-1.342.803l-.09.027v-2.584l.802.799.802.8z"/></svg>