<svg xmlns="http://www.w3.org/2000/svg" width="24" height="24" fill="none" stroke="currentColor" stroke-linecap="round" stroke-linejoin="round" stroke-width="3"><path fill="#000" fill-rule="evenodd" stroke="none" d="M7.516.577c-.691.264-1.09.925-.993 1.641.056.412.182.606.815 1.254l.586.601-.1.237a4.7 4.7 0 0 0-.311 1.339l-.046.47-.284.167a5.7 5.7 0 0 0-.995.755l-.272.25-.148-.076c-.081-.041-.303-.228-.492-.415-.543-.538-.684-.874-.789-1.884-.061-.594-.335-1.005-.839-1.26C3.44 3.55 3.384 3.54 3 3.54s-.44.01-.648.116a1.51 1.51 0 0 0-.829 1.127c-.033.243.011.954.081 1.297.072.357.274.957.437 1.3.467.983 1.378 1.959 2.29 2.453.224.121.268.161.249.227-.012.044-.043.39-.069.769l-.047.688-1.442.012-1.442.011-.228.116a1.51 1.51 0 0 0-.829 1.126 1.494 1.494 0 0 0 1.287 1.7c.138.02.801.037 1.475.037l1.226.001.028.27c.025.245.134.839.199 1.091.024.091.005.111-.202.212-.865.424-1.761 1.274-2.29 2.171-.499.844-.827 2.186-.723 2.953.163 1.203 1.669 1.702 2.532.838.268-.268.39-.546.434-.993.09-.912.256-1.295.787-1.824.208-.206.434-.388.572-.459l.227-.117.458.48c.517.543.69.677 1.013.783.865.286 1.821-.318 1.927-1.217.066-.564-.073-.902-.606-1.465a7 7 0 0 1-.564-.679 5.5 5.5 0 0 1-.655-1.433l-.107-.391-.001-2.16c0-2.14.001-2.162.09-2.397.138-.366.325-.655.612-.941.324-.325.63-.509 1.046-.629.32-.093.329-.093 2.704-.093 2.297 0 2.394.003 2.695.084.691.187 1.285.702 1.599 1.385.112.246.16.478.229 1.117.044.408.173.692.43.949.863.863 2.369.365 2.532-.838.028-.207-.005-.899-.055-1.131-.021-.096 0-.119.225-.246 1.634-.926 2.656-2.568 2.814-4.523.062-.774-.254-1.389-.861-1.674-.193-.09-.272-.103-.64-.103-.369 0-.444.012-.616.1a1.6 1.6 0 0 0-.708.701c-.106.216-.134.337-.177.768-.057.572-.16.901-.402 1.279-.18.281-.548.648-.795.793l-.182.106-.27-.248a5.6 5.6 0 0 0-.993-.753l-.284-.167-.044-.454a4.9 4.9 0 0 0-.309-1.339l-.104-.253.586-.601c.633-.648.759-.842.815-1.254a1.5 1.5 0 0 0-.829-1.562C16.44.55 16.384.54 16 .54c-.594 0-.727.072-1.485.811l-.585.57-.305-.122c-.964-.385-2.286-.385-3.25 0l-.305.122-.585-.57C8.748.633 8.596.547 8.042.532q-.382-.01-.526.045m5.032 4.031c.115.042.302.161.417.264.209.188.435.497.435.596 0 .042-.276.052-1.4.052-1.093 0-1.4-.011-1.4-.05.001-.082.169-.334.352-.526.396-.415 1.024-.548 1.596-.336m-.636 6.389a2.01 2.01 0 0 0-1.323 1.341l-.089.282v8.76l.088.28c.153.485.416.835.829 1.106a2.03 2.03 0 0 0 2.083.061c.537-.312 5.996-3.746 6.16-3.874.412-.323.745-.842.879-1.371.078-.305.078-.857.001-1.164a2.65 2.65 0 0 0-1.061-1.503 573 573 0 0 0-3.173-1.989c-2.27-1.418-3.014-1.864-3.214-1.926-.337-.104-.86-.105-1.18-.003m3.688 5.022c.803.501 1.483.929 1.51.951.043.034-1.269.88-3.543 2.286-.036.022-.047-.514-.047-2.254v-2.283l.31.195z"/></svg>