<svg xmlns="http://www.w3.org/2000/svg" width="24" height="24" fill="none" stroke="currentColor" stroke-linecap="round" stroke-linejoin="round" stroke-width="3"><path fill="#000" fill-rule="evenodd" stroke="none" d="M7.516.577c-.691.264-1.09.925-.993 1.641.056.412.182.606.815 1.254l.586.601-.1.237a4.7 4.7 0 0 0-.311 1.339l-.046.47-.284.167a5.7 5.7 0 0 0-.995.755l-.272.25-.148-.076c-.081-.041-.303-.228-.492-.415-.543-.538-.684-.874-.789-1.884-.061-.594-.335-1.005-.839-1.26C3.44 3.55 3.384 3.54 3 3.54s-.44.01-.648.116a1.51 1.51 0 0 0-.829 1.127c-.033.243.011.954.081 1.297.072.357.274.957.437 1.3.467.983 1.378 1.959 2.29 2.453.224.121.268.161.249.227-.012.044-.043.39-.069.769l-.047.688-1.442.012-1.442.011-.228.116a1.51 1.51 0 0 0-.829 1.126 1.494 1.494 0 0 0 1.287 1.7c.138.02.801.037 1.474.037l1.224.001.047.394c.027.217.084.544.127.726.044.183.075.336.069.341s-.11.059-.231.12c-.87.436-1.748 1.271-2.274 2.163-.499.844-.827 2.186-.723 2.953.163 1.203 1.669 1.702 2.532.838.268-.268.39-.546.434-.993.058-.584.116-.823.283-1.156.185-.371.575-.806.926-1.034.39-.253.346-.269.949.339.293.296.677.645.853.776 2.705 2.014 6.295 2.014 9 0 .176-.131.56-.48.853-.776.605-.61.562-.595.957-.331.359.24.735.659.918 1.026.167.333.225.572.283 1.156.044.447.166.725.434.993.863.864 2.369.365 2.532-.838.104-.767-.224-2.109-.723-2.953-.526-.892-1.404-1.727-2.274-2.163a6 6 0 0 1-.231-.12 2.5 2.5 0 0 1 .069-.341c.043-.182.1-.509.127-.726l.047-.394 1.224-.001c.673 0 1.336-.017 1.474-.037a1.494 1.494 0 0 0 1.287-1.7 1.51 1.51 0 0 0-.829-1.126l-.228-.116-1.442-.012-1.442-.012-.047-.688a11 11 0 0 0-.069-.768c-.018-.065.024-.106.226-.22 1.632-.922 2.657-2.568 2.815-4.523.062-.774-.254-1.389-.861-1.674-.193-.09-.272-.103-.64-.103-.369 0-.444.012-.616.1a1.6 1.6 0 0 0-.708.701c-.106.216-.134.337-.177.768-.057.572-.16.901-.402 1.279-.18.281-.548.648-.795.793l-.182.106-.27-.248a5.6 5.6 0 0 0-.993-.753l-.284-.167-.044-.454a4.9 4.9 0 0 0-.309-1.339l-.104-.253.586-.601c.633-.648.759-.842.815-1.254a1.5 1.5 0 0 0-.829-1.562C16.44.55 16.384.54 16 .54c-.594 0-.727.072-1.485.811l-.585.57-.305-.122c-.964-.385-2.286-.385-3.25 0l-.305.122-.585-.57C8.748.633 8.596.547 8.042.532q-.382-.01-.526.045m5.032 4.031c.115.042.302.161.417.264.209.188.435.497.435.596 0 .042-.276.052-1.4.052-1.093 0-1.4-.011-1.4-.05.001-.082.169-.334.352-.526.396-.415 1.024-.548 1.596-.336m2.164 4.005c.416.12.722.304 1.046.629.287.286.474.575.612.941.088.232.09.277.102 2.251.01 1.717.002 2.064-.053 2.36a4.5 4.5 0 0 1-2.475 3.248l-.404.198-.02-3.77-.02-3.77-.094-.233a1.54 1.54 0 0 0-.766-.815c-.2-.102-.259-.112-.64-.112s-.44.01-.64.112a1.54 1.54 0 0 0-.766.815l-.094.233-.02 3.77-.02 3.77-.404-.198a4.57 4.57 0 0 1-2.408-2.914l-.107-.388-.001-2.16c0-2.14.001-2.162.09-2.397.138-.366.325-.655.612-.941a2.3 2.3 0 0 1 1.032-.627c.303-.09.332-.091 2.711-.093 2.402-.002 2.406-.002 2.727.091"/></svg>