<svg xmlns="http://www.w3.org/2000/svg" width="24" height="24" fill="none" stroke="currentColor" stroke-linecap="round" stroke-linejoin="round" stroke-width="3"><path fill="#000" fill-rule="evenodd" stroke="none" d="M7.44.547C6.242.754 5.176 1.608 4.756 2.696c-.259.672-.249.506-.265 4.329l-.015 3.485-.568.021c-.411.015-.649.044-.861.106a3.56 3.56 0 0 0-2.495 2.751c-.075.393-.075 6.831 0 7.224.221 1.168 1.036 2.177 2.116 2.617.719.293-.04.271 9.332.271 7.775 0 8.442-.005 8.71-.068a3.7 3.7 0 0 0 1.798-1.004c.573-.6.883-1.272.971-2.111.024-.226.04-2.159.04-4.817s-.016-4.591-.04-4.817c-.132-1.255-.824-2.255-1.946-2.817-.47-.236-.798-.312-1.443-.335l-.57-.021-.001-1.725c0-1.817-.029-2.309-.16-2.749-.348-1.169-1.218-2.038-2.406-2.405l-.293-.09L12.1.536C9.592.532 7.495.538 7.44.547m8.904 3.109.136.136V20.52H7.52V3.792l.136-.136.136-.136h8.416zm-6.828.922c-.366.136-.71.444-.864.774a1.5 1.5 0 0 0 1.158 2.13c.138.02 1.123.036 2.19.036s2.052-.016 2.19-.036a1.494 1.494 0 0 0 1.287-1.7 1.51 1.51 0 0 0-.829-1.126l-.228-.116-2.38-.008c-1.91-.006-2.409.003-2.524.046m0 4c-.366.136-.71.444-.864.774a1.5 1.5 0 0 0 1.158 2.13c.138.02 1.123.036 2.19.036s2.052-.016 2.19-.036a1.494 1.494 0 0 0 1.287-1.7 1.51 1.51 0 0 0-.829-1.126l-.228-.116-2.38-.008c-1.91-.006-2.409.003-2.524.046m10.828 2.078.136.136v9.402l-.103.122c-.12.142-.307.203-.627.204h-.23v-10h.344c.338 0 .346.002.48.136M9.516 12.578c-.366.136-.71.444-.864.774a1.5 1.5 0 0 0 1.158 2.13c.138.02 1.123.036 2.19.036s2.052-.016 2.19-.036a1.494 1.494 0 0 0 1.287-1.7 1.51 1.51 0 0 0-.829-1.126l-.228-.116-2.38-.008c-1.91-.006-2.409.003-2.524.046M4.48 17.02v3.5h-.23c-.32-.001-.507-.062-.627-.204l-.103-.122v-6.402l.136-.136c.134-.134.142-.136.48-.136h.344zm5.036-.442c-.366.136-.71.444-.864.774a1.5 1.5 0 0 0 1.158 2.13c.138.02 1.123.036 2.19.036s2.052-.016 2.19-.036a1.494 1.494 0 0 0 1.287-1.7 1.51 1.51 0 0 0-.829-1.126l-.228-.116-2.38-.008c-1.91-.006-2.409.003-2.524.046"/></svg>