<svg xmlns="http://www.w3.org/2000/svg" width="24" height="24" fill="none" stroke="currentColor" stroke-linecap="round" stroke-linejoin="round" stroke-width="3"><path fill="#000" fill-rule="evenodd" stroke="none" d="M5.44 1.547c-1.232.212-2.303 1.094-2.717 2.238-.114.314-.155.516-.225 1.104l-.023.189-.667.34c-.745.38-.977.565-1.14.909-.287.606-.187 1.246.268 1.719.319.331.899.525 1.31.436.109-.023.205-.042.214-.042s.023 2.029.031 4.51c.012 3.971.021 4.541.078 4.77.238.967.787 1.742 1.598 2.255l.301.192.022.569c.029.778.141 1.055.581 1.439.473.413 1.385.413 1.858 0 .397-.346.537-.651.576-1.25l.027-.405h8.936l.027.405c.039.599.179.904.576 1.25.473.413 1.385.413 1.858 0 .44-.384.552-.661.581-1.439l.022-.569.301-.192a3.5 3.5 0 0 0 1.646-2.658c.024-.224.04-2.1.04-4.627.001-2.337.009-4.25.019-4.25s.107.019.216.042c.411.089.991-.105 1.31-.436a1.49 1.49 0 0 0 .273-1.709c-.166-.35-.402-.54-1.145-.918l-.667-.341-.021-.169-.044-.389c-.05-.46-.268-1.039-.549-1.454a3.67 3.67 0 0 0-1.958-1.435l-.293-.09-6.56-.006c-3.608-.002-6.605.003-6.66.012m4.076 3.032c-.364.134-.71.443-.864.773a1.5 1.5 0 0 0 1.158 2.13c.325.047 4.055.047 4.38 0a1.5 1.5 0 0 0 1.158-2.13 1.58 1.58 0 0 0-.888-.776c-.134-.042.163-.051 1.794-.053l1.954-.003.136.136.136.136V9.52H5.52V4.792l.136-.136.136-.136 1.934.003c1.656.002 1.913.01 1.79.056m8.964 10.28v2.34l-.114.128c-.095.106-.155.133-.35.157-.308.038-11.724.038-12.032 0-.195-.024-.255-.051-.35-.157l-.114-.128V12.52h12.96zM7.516 13.577c-1.049.399-1.349 1.701-.571 2.478.71.71 1.942.519 2.393-.371a1.48 1.48 0 0 0-.286-1.746c-.292-.292-.55-.395-1.012-.407-.247-.006-.431.01-.524.046m8 0c-1.049.399-1.349 1.701-.571 2.478.58.58 1.53.583 2.107.007a1.47 1.47 0 0 0 0-2.124c-.292-.292-.55-.395-1.012-.407-.247-.006-.431.01-.524.046"/></svg>