<svg xmlns="http://www.w3.org/2000/svg" width="24" height="24" fill="none" stroke="currentColor" stroke-linecap="round" stroke-linejoin="round" stroke-width="3"><path fill="#000" fill-rule="evenodd" stroke="none" d="M5.6 4.522c-2.192.021-2.269.024-2.553.111A3.57 3.57 0 0 0 .552 7.388C.511 7.601.5 8.806.5 12.98v5.32l.105.248q.253.6.847.845c.241.1.278.104 1.314.119l1.065.016.193.304a3.6 3.6 0 0 0 2.266 1.594 4.3 4.3 0 0 0 1.42 0 3.6 3.6 0 0 0 2.269-1.598l.195-.308h2.652l.195.308a3.6 3.6 0 0 0 2.269 1.598 4.3 4.3 0 0 0 1.42 0 3.6 3.6 0 0 0 2.269-1.598l.195-.308h.883c.982-.001 1.308-.037 1.603-.18.231-.111.506-.369.643-.602.105-.178.887-2.86 1.038-3.557.281-1.304.221-1.746-.653-4.801-.176-.616-.456-1.602-.622-2.192-.215-.762-.355-1.178-.484-1.442-.547-1.117-1.733-1.997-2.942-2.184-.335-.051-9.058-.079-13.04-.04m.88 4.498v1.5H3.52V7.792l.136-.136.136-.136H6.48zm7 0v1.5H9.52v-3h3.96zm4.861-1.442c.202.084.405.25.505.411.088.143.757 2.446.726 2.501-.009.017-.7.03-1.534.03H16.52v-3h.841c.644 0 .874.014.98.058m2.114 6.067c.043.214.026.604-.037.875-.033.143-.17.652-.304 1.13l-.243.87h-.666l-.226-.346c-.508-.78-1.193-1.296-2.047-1.544-.264-.076-.407-.09-.932-.09s-.668.014-.932.09c-.854.248-1.539.764-2.047 1.544l-.226.346h-2.59l-.226-.346c-.508-.78-1.193-1.296-2.047-1.544-.264-.076-.407-.09-.932-.09s-.668.014-.932.09q-1.283.373-2.047 1.544c-.212.324-.235.346-.364.346H3.52v-3h16.91zM7.344 17.656c.119.119.136.162.136.337 0 .242-.129.424-.343.483a.5.5 0 0 1-.514-.16c-.081-.096-.103-.166-.103-.323 0-.175.017-.218.136-.337s.161-.136.344-.136.224.016.344.136m9 0c.119.119.136.162.136.337 0 .242-.129.424-.343.483a.5.5 0 0 1-.514-.16c-.081-.096-.103-.166-.103-.323 0-.175.017-.218.136-.337s.161-.136.344-.136.224.016.344.136"/></svg>