<svg xmlns="http://www.w3.org/2000/svg" width="24" height="24" fill="none" stroke="currentColor" stroke-linecap="round" stroke-linejoin="round" stroke-width="3"><path fill="#000" fill-rule="evenodd" stroke="none" d="M13.516.577c-1.049.399-1.349 1.701-.571 2.478.58.58 1.53.583 2.107.007a1.47 1.47 0 0 0 0-2.124c-.292-.292-.55-.395-1.012-.407-.247-.006-.431.01-.524.046m-4 1c-1.049.399-1.349 1.701-.571 2.478.58.58 1.53.583 2.107.007a1.47 1.47 0 0 0 0-2.124c-.292-.292-.55-.395-1.012-.407-.247-.006-.431.01-.524.046m2.109 3.464C5.014 6.695 1.478 7.598 1.339 7.666a1.5 1.5 0 0 0-.682 1.991c.263.536.935.918 1.477.838.091-.013 1.997-.481 4.236-1.04a953 953 0 0 1 4.09-1.015c.011 0 .02.467.02 1.037v1.037l-1.962.002c-1.1.002-2.07.021-2.21.043a4.6 4.6 0 0 0-2.269 1.065c-.801.714-1.286 1.587-1.487 2.676-.074.401-.074 4.999 0 5.4.321 1.737 1.449 3.046 3.082 3.578.707.23.489.222 6.366.222s5.659.008 6.366-.222c1.59-.518 2.696-1.766 3.062-3.455.079-.366.123-4.308.057-5.096-.101-1.199-.537-2.145-1.352-2.939a3.9 3.9 0 0 0-1.153-.81 4.4 4.4 0 0 0-1.288-.419c-.14-.022-1.11-.041-2.211-.043l-1.962-.002.01-1.424.011-1.425 4.48-1.122c2.464-.618 4.561-1.163 4.66-1.212s.266-.173.37-.276a1.48 1.48 0 0 0 .006-2.105c-.291-.294-.56-.408-.996-.421-.357-.01-.432.008-10.435 2.512M7.48 14.52v1H5.513l.014-.47c.015-.538.085-.734.371-1.046.336-.365.61-.477 1.172-.481l.41-.003zm6 0v1h-2.96v-2h2.96zm4.171-.863c.274.139.575.446.711.723.082.169.099.272.112.67l.014.47H16.52v-2.009l.45.015c.402.013.474.027.681.131m.823 5.313c-.013.401-.027.475-.13.678a1.51 1.51 0 0 1-1.154.834c-.327.047-10.053.047-10.38 0a1.51 1.51 0 0 1-1.154-.834c-.103-.203-.117-.277-.13-.678l-.015-.45h12.978z"/></svg>