<svg xmlns="http://www.w3.org/2000/svg" width="24" height="24" fill="none" stroke="currentColor" stroke-linecap="round" stroke-linejoin="round" stroke-width="3"><path fill="#000" fill-rule="evenodd" stroke="none" d="M2.516 1.577c-.371.142-.711.446-.864.773-.124.265-.17.584-.171 1.175l-.001.464-.277.283A2.64 2.64 0 0 0 .554 5.44c-.071.289-.07 1.835.001 2.196a3.64 3.64 0 0 0 1.522 2.283c.303.205.841.432 1.167.494l.231.044.016 3.802c.018 4.199.009 4.045.282 4.845a4.8 4.8 0 0 0 1.134 1.858 5.05 5.05 0 0 0 2.728 1.461c.445.08 1.285.08 1.73 0a6.2 6.2 0 0 0 1.355-.441 5.6 5.6 0 0 0 1.242-.889c.775-.745 1.253-1.647 1.482-2.793.035-.177.054-1.829.072-6.28l.024-6.04.15-.313c.203-.427.55-.774.977-.977.312-.149.315-.15.833-.15s.521.001.833.15c.427.203.774.55.977.977l.15.313.011 3.78.011 3.78-.315.071c-1.283.288-2.346 1.409-2.612 2.753-.071.361-.072 1.907-.001 2.196.102.415.343.85.64 1.156l.275.284.02.65c.017.574.031.679.12.898.159.395.447.683.836.84.476.193 1.127.099 1.484-.213.397-.346.537-.651.576-1.25l.027-.405h.936l.027.405c.039.599.179.904.576 1.25.357.312 1.008.406 1.484.213.389-.157.677-.445.836-.84.089-.219.103-.324.12-.898l.02-.65.273-.282c.291-.3.51-.682.618-1.078.083-.304.118-1.361.063-1.895-.091-.889-.387-1.552-.963-2.16-.431-.455-1.101-.842-1.686-.973l-.311-.07-.016-3.801c-.018-4.199-.009-4.045-.282-4.845a4.8 4.8 0 0 0-1.122-1.847 5.02 5.02 0 0 0-2.465-1.412c-.333-.083-.475-.095-1.14-.095s-.807.012-1.14.095a5.02 5.02 0 0 0-2.465 1.412 4.8 4.8 0 0 0-1.122 1.847c-.282.827-.264.398-.29 7.084l-.023 6.04-.143.3c-.36.752-1.007 1.168-1.817 1.168s-1.457-.416-1.817-1.168l-.143-.3-.011-3.781-.011-3.78.235-.045c.588-.112 1.304-.514 1.755-.986.588-.615.885-1.275.977-2.173.055-.534.02-1.591-.063-1.895a2.5 2.5 0 0 0-.623-1.084l-.279-.288-.001-.464c-.001-.589-.047-.909-.171-1.174-.123-.265-.405-.545-.7-.694C7.44 1.55 7.384 1.54 7 1.54s-.44.01-.648.116c-.592.3-.868.818-.871 1.634l-.001.23h-.96l-.001-.23c-.003-.815-.279-1.335-.869-1.633-.195-.099-.28-.116-.608-.125-.253-.007-.431.008-.526.045m3.964 5.28c0 .304-.01.349-.103.459a.6.6 0 0 1-.25.161c-.191.05-2.063.05-2.254 0a.6.6 0 0 1-.25-.161c-.093-.11-.103-.155-.103-.459V6.52h2.96zm13.864 9.799c.135.135.136.139.136.5v.364h-2.96v-.364c0-.361.001-.365.136-.5l.136-.136h2.416z"/></svg>