<svg xmlns="http://www.w3.org/2000/svg" width="24" height="24" fill="none" stroke="currentColor" stroke-linecap="round" stroke-linejoin="round" stroke-width="3"><path fill="#000" fill-rule="evenodd" stroke="none" d="M6.516 2.577c-1.049.399-1.349 1.701-.571 2.478.58.58 1.53.583 2.107.007a1.47 1.47 0 0 0 0-2.124c-.292-.292-.55-.395-1.012-.407-.247-.006-.431.01-.524.046m5 0c-1.049.399-1.349 1.701-.571 2.478.58.58 1.53.583 2.107.007a1.47 1.47 0 0 0 0-2.124c-.292-.292-.55-.395-1.012-.407-.247-.006-.431.01-.524.046m5 0c-1.049.399-1.349 1.701-.571 2.478.58.58 1.53.583 2.107.007a1.47 1.47 0 0 0 0-2.124c-.292-.292-.55-.395-1.012-.407-.247-.006-.431.01-.524.046m-10 4c-.371.142-.711.446-.864.773-.135.289-.17.587-.171 1.45l-.001.741-.314.07c-1.037.233-2.025 1.088-2.41 2.085-.259.672-.249.506-.265 4.331l-.015 3.486-.448.014c-.4.012-.472.025-.676.129a1.51 1.51 0 0 0-.829 1.126 1.494 1.494 0 0 0 1.287 1.7c.144.021 4.488.036 10.19.036s10.046-.015 10.19-.036a1.494 1.494 0 0 0 1.287-1.7 1.51 1.51 0 0 0-.829-1.126c-.203-.103-.277-.117-.678-.13l-.45-.015-.001-3.225c0-1.85-.017-3.387-.04-3.603-.087-.83-.396-1.506-.957-2.098-.432-.456-1.101-.842-1.688-.974l-.314-.07-.001-.741c0-.407-.017-.852-.037-.99a1.51 1.51 0 0 0-.834-1.154c-.208-.106-.264-.116-.648-.116s-.44.01-.648.116a1.51 1.51 0 0 0-.834 1.154c-.02.138-.037.579-.037.98l-.001.73h-1.96l-.001-.73c0-.401-.017-.842-.037-.98a1.51 1.51 0 0 0-.834-1.154c-.208-.106-.264-.116-.648-.116s-.44.01-.648.116a1.51 1.51 0 0 0-.834 1.154c-.02.138-.037.579-.037.98l-.001.73H8.52l-.001-.73c0-.401-.017-.842-.037-.98a1.51 1.51 0 0 0-.832-1.153c-.195-.099-.28-.116-.608-.125q-.382-.01-.526.045m11.828 6.079.136.136v2.642l-.122.026c-.216.048-.455.034-.585-.033-.07-.037-.493-.341-.94-.677-1.285-.966-1.892-1.229-2.833-1.229-.927 0-1.557.269-2.76 1.175-.935.706-1.059.784-1.24.784s-.305-.078-1.24-.784c-1.215-.915-1.829-1.174-2.79-1.175l-.45-.001v-.364c0-.361.001-.365.136-.5l.136-.136h12.416zM6.38 16.674c.132.084.411.287.62.45.715.56 1.062.793 1.481.993.468.223.789.317 1.225.359 1.041.099 1.875-.241 3.27-1.333.568-.445.86-.623 1.022-.623.168.001.444.167 1.002.604 1.364 1.068 2.018 1.36 3.05 1.363l.43.001v1.032H5.52v-2.954l.09-.018c.05-.009.189-.019.31-.022.191-.005.252.015.46.148"/></svg>