<svg xmlns="http://www.w3.org/2000/svg" width="24" height="24" fill="none" stroke="currentColor" stroke-linecap="round" stroke-linejoin="round" stroke-width="3"><path fill="#000" fill-rule="evenodd" stroke="none" d="M7.516.577c-.371.142-.711.446-.864.773-.106.228-.17.576-.171.937l-.001.226-1.07.017c-.955.015-1.101.026-1.363.104a3.57 3.57 0 0 0-2.495 2.754c-.076.399-.076 14.825 0 15.224.221 1.168 1.036 2.177 2.115 2.617.685.279.429.264 5.044.28 2.536.009 4.281 0 4.449-.024.867-.12 1.433-.851 1.317-1.703a1.51 1.51 0 0 0-.829-1.126l-.228-.116-4.28-.02c-3.309-.015-4.3-.031-4.367-.07a.7.7 0 0 1-.17-.155c-.083-.106-.083-.112-.083-4.44V11.52h14.953l.014 1.39.015 1.39.104.248c.248.594.76.938 1.394.938s1.145-.343 1.395-.938l.105-.248.012-4.08c.012-4.236-.001-4.673-.152-5.182a3.53 3.53 0 0 0-2.407-2.404c-.262-.078-.408-.089-1.363-.104l-1.07-.017-.001-.226c-.003-.813-.28-1.332-.871-1.631C16.44.55 16.384.54 16 .54s-.44.01-.648.116c-.592.3-.868.818-.871 1.634l-.001.23H9.52l-.001-.23C9.516 1.475 9.24.955 8.65.657 8.455.558 8.37.541 8.042.532q-.382-.01-.526.045M6.495 5.925c.039.599.179.904.576 1.25.473.413 1.385.413 1.858 0 .397-.346.537-.651.576-1.25l.027-.405h4.936l.027.405c.039.599.179.904.576 1.25.473.413 1.385.413 1.858 0 .397-.346.537-.651.576-1.25l.027-.405h1.676l.136.136.136.136V8.52H4.52V5.792l.136-.136.136-.136h1.676zm15.021 10.652c-.318.121-.554.33-2.004 1.775l-1.508 1.502-.553-.537c-.723-.702-.863-.777-1.451-.777-.384 0-.44.01-.648.116-.754.381-1.048 1.237-.694 2.012.09.195.286.411 1.275 1.399.988.989 1.204 1.185 1.399 1.275.432.197.903.197 1.336 0 .203-.093.499-.373 2.4-2.274s2.181-2.197 2.274-2.4c.354-.776.06-1.631-.692-2.011-.195-.099-.28-.116-.608-.125-.253-.007-.431.008-.526.045"/></svg>