<svg xmlns="http://www.w3.org/2000/svg" width="24" height="24" fill="none" stroke="currentColor" stroke-linecap="round" stroke-linejoin="round" stroke-width="3"><path fill="#000" fill-rule="evenodd" stroke="none" d="M7.516.577c-.371.142-.711.446-.864.773-.106.228-.17.576-.171.937l-.001.226-1.07.017c-.955.015-1.101.026-1.363.104a3.57 3.57 0 0 0-2.495 2.754c-.076.399-.076 14.825 0 15.224.221 1.168 1.036 2.177 2.116 2.617.656.267.683.27 3.012.27l2.1.001.23-.093c.433-.175.803-.555.92-.945.062-.209.062-.715 0-.924-.117-.391-.496-.78-.911-.935-.213-.08-.298-.083-2.111-.083-1.164 0-1.945-.016-2.035-.041a.6.6 0 0 1-.25-.163l-.103-.122V11.52l1.71-.001c.94 0 1.822-.017 1.96-.037a1.494 1.494 0 0 0 1.287-1.7 1.51 1.51 0 0 0-.829-1.126L8.42 8.54l-1.95-.011-1.95-.012V5.792l.136-.136.136-.136h1.676l.027.405c.039.599.179.904.576 1.25.473.413 1.385.413 1.858 0 .397-.346.537-.651.576-1.25l.027-.405h4.936l.027.405c.039.599.179.904.576 1.25.473.413 1.385.413 1.858 0 .397-.346.537-.651.576-1.25l.027-.405h1.667l.13.117.131.116.023 1.014c.021.922.031 1.034.113 1.243.167.428.55.802.942.92.209.062.715.062.924 0 .393-.118.776-.493.941-.92.078-.202.091-.328.107-1.03.035-1.475-.114-2.197-.599-2.914a3.63 3.63 0 0 0-1.958-1.432c-.262-.078-.408-.089-1.363-.104l-1.07-.017-.001-.226c-.003-.813-.28-1.332-.871-1.631C16.44.55 16.384.54 16 .54s-.44.01-.648.116c-.592.3-.868.818-.871 1.634l-.001.23H9.52l-.001-.23C9.516 1.475 9.24.955 8.65.657 8.455.558 8.37.541 8.042.532q-.382-.01-.526.045m7.504 7.987c-2.244.32-4.216 1.595-5.387 3.483-.998 1.609-1.36 3.591-.989 5.413.754 3.703 4.159 6.301 7.886 6.018a7.51 7.51 0 0 0 6.948-6.948c.295-3.877-2.526-7.378-6.403-7.948-.461-.067-1.636-.078-2.055-.018m2.14 3.093c.441.122 1.163.464 1.48.701.304.228.732.652.969.962.268.35.605 1.052.74 1.54.102.37.11.455.11 1.14 0 .686-.008.769-.11 1.138-.36 1.289-1.196 2.314-2.359 2.89-1.614.798-3.581.549-4.92-.623a4.6 4.6 0 0 1-1.419-2.265c-.102-.37-.11-.456-.11-1.14 0-.685.008-.77.11-1.14.135-.488.472-1.19.74-1.54.237-.31.665-.734.969-.962.301-.225 1.033-.577 1.417-.681.515-.139.65-.153 1.343-.139.561.012.717.03 1.04.119m-1.644.92a1.54 1.54 0 0 0-.998 1.233c-.05.346-.047 2.393.005 2.709.048.296.224.655.41.833.332.319 1.716 1.385 1.946 1.499.231.115.297.129.6.129.242 0 .405-.023.559-.08.306-.112.645-.435.811-.773.117-.236.131-.302.131-.606 0-.635-.167-.896-1.003-1.563l-.457-.365-.001-.767c0-.421-.017-.878-.037-1.016a1.51 1.51 0 0 0-.832-1.153c-.195-.099-.28-.116-.608-.125q-.381-.01-.526.045"/></svg>