<svg xmlns="http://www.w3.org/2000/svg" width="24" height="24" fill="none" stroke="currentColor" stroke-linecap="round" stroke-linejoin="round" stroke-width="3"><path fill="#000" fill-rule="evenodd" stroke="none" d="M7.516.577c-.371.142-.711.446-.864.773-.106.228-.17.576-.171.937l-.001.226-1.07.017c-.955.015-1.101.026-1.363.104a3.57 3.57 0 0 0-2.495 2.754c-.076.399-.076 14.825 0 15.224.221 1.168 1.036 2.177 2.115 2.617.678.276.486.264 4.543.28 2.232.009 3.779 0 3.949-.023.868-.121 1.434-.852 1.318-1.704a1.51 1.51 0 0 0-.829-1.126l-.228-.116-3.78-.02c-2.91-.015-3.8-.031-3.867-.07a.7.7 0 0 1-.17-.155c-.083-.106-.083-.112-.083-4.44v-4.334l8.39-.01 8.39-.011.248-.105q.597-.25.847-.847l.105-.248.013-2.074c.013-2.183-.013-2.715-.153-3.188a3.53 3.53 0 0 0-2.407-2.404c-.262-.078-.408-.089-1.363-.104l-1.07-.017-.001-.226c-.003-.813-.28-1.332-.871-1.631C16.44.55 16.384.54 16 .54s-.44.01-.648.116c-.592.3-.868.818-.871 1.634l-.001.23H9.52l-.001-.23C9.516 1.475 9.24.955 8.65.657 8.455.558 8.37.541 8.042.532q-.382-.01-.526.045M6.495 5.925c.039.599.179.904.576 1.25.473.413 1.385.413 1.858 0 .397-.346.537-.651.576-1.25l.027-.405h4.936l.027.405c.039.599.179.904.576 1.25.473.413 1.385.413 1.858 0 .397-.346.537-.651.576-1.25l.027-.405h1.676l.136.136.136.136V8.52H4.52V5.792l.136-.136.136-.136h1.676zm8.528 6.6c-1.864.179-3.376 1.733-3.498 3.595-.074 1.131.245 2.099.997 3.022.239.293 3.9 3.917 4.125 4.083.501.37 1.279.342 1.783-.064.105-.084 1.075-1.032 2.157-2.107 2.127-2.114 2.275-2.286 2.572-2.996.642-1.535.36-3.151-.758-4.349-1.142-1.222-3.019-1.557-4.544-.811l-.349.171-.364-.172c-.437-.206-.844-.324-1.235-.356-.159-.014-.343-.03-.409-.037a4 4 0 0 0-.477.021m.837 3.085c.066.035.287.218.492.405.457.419.673.516 1.148.516.48 0 .705-.101 1.138-.512.435-.412.615-.509.942-.509.713 0 1.116.712.794 1.402-.085.183-.28.403-.99 1.121a74 74 0 0 1-1.388 1.37l-.505.475-1.379-1.369c-1.57-1.559-1.572-1.562-1.572-2.092 0-.285.013-.342.11-.49.26-.392.803-.535 1.21-.317"/></svg>