<svg xmlns="http://www.w3.org/2000/svg" width="24" height="24" fill="none" stroke="currentColor" stroke-linecap="round" stroke-linejoin="round" stroke-width="3"><path fill="#000" fill-rule="evenodd" stroke="none" d="M7.516.577c-.371.142-.711.446-.864.773-.106.228-.17.576-.171.937l-.001.226-1.07.017c-.955.015-1.101.026-1.363.104a3.57 3.57 0 0 0-2.495 2.754c-.076.399-.076 14.825 0 15.224.221 1.168 1.036 2.177 2.115 2.617.691.281.372.265 5.546.28 2.839.009 4.781-.001 4.949-.024.865-.12 1.431-.852 1.315-1.703a1.51 1.51 0 0 0-.829-1.126l-.228-.116-4.78-.02c-3.708-.016-4.799-.031-4.867-.07a.7.7 0 0 1-.17-.155c-.083-.106-.083-.112-.083-4.44V11.52h14.986l.047.201c.093.405.445.812.87 1.008.283.131.871.131 1.154 0 .395-.182.72-.539.863-.949.046-.129.059-.683.07-2.9.014-2.864-.005-3.352-.15-3.842a3.53 3.53 0 0 0-2.407-2.404c-.262-.078-.408-.089-1.363-.104l-1.07-.017-.001-.226c-.003-.813-.28-1.332-.871-1.631C16.44.55 16.384.54 16 .54s-.44.01-.648.116c-.592.3-.868.818-.871 1.634l-.001.23H9.52l-.001-.23C9.516 1.475 9.24.955 8.65.657 8.455.558 8.37.541 8.042.532q-.382-.01-.526.045M6.495 5.925c.039.599.179.904.576 1.25.473.413 1.385.413 1.858 0 .397-.346.537-.651.576-1.25l.027-.405h4.936l.027.405c.039.599.179.904.576 1.25.473.413 1.385.413 1.858 0 .397-.346.537-.651.576-1.25l.027-.405h1.676l.136.136.136.136V8.52H4.52V5.792l.136-.136.136-.136h1.676zm11.234 6.599c-.458.077-.488.103-2.797 2.41-1.901 1.899-2.181 2.195-2.274 2.398-.509 1.114.36 2.308 1.56 2.145.441-.06.6-.171 1.46-1.019l.797-.786.013 2.314.012 2.314.105.248c.25.595.761.938 1.395.938s1.145-.343 1.395-.938l.105-.248.012-2.314.013-2.314.797.786c.86.848 1.019.959 1.46 1.019 1.2.163 2.069-1.031 1.56-2.145-.093-.203-.373-.499-2.274-2.398-2.337-2.335-2.332-2.331-2.834-2.412a3 3 0 0 0-.274-.037z"/></svg>