<svg xmlns="http://www.w3.org/2000/svg" width="24" height="24" fill="none" stroke="currentColor" stroke-linecap="round" stroke-linejoin="round" stroke-width="3"><path fill="#000" fill-rule="evenodd" stroke="none" d="M7.516.577c-.371.142-.711.446-.864.773-.106.228-.17.576-.171.937l-.001.226-1.07.017c-.955.015-1.101.026-1.363.104a3.57 3.57 0 0 0-2.495 2.754c-.076.399-.076 14.825 0 15.224.221 1.168 1.036 2.177 2.115 2.617.668.272.543.263 4.041.28 1.928.01 3.278.001 3.449-.023.368-.051.657-.19.898-.431.726-.726.523-1.928-.407-2.399l-.228-.116-3.28-.02c-2.511-.015-3.3-.032-3.367-.07a.7.7 0 0 1-.17-.155c-.083-.106-.083-.112-.083-4.44V11.52h15.367l.166.135c.315.255.68.37 1.062.334.6-.056 1.062-.406 1.292-.979.092-.23.092-.234.105-2.546.013-2.43-.01-2.946-.152-3.426a3.53 3.53 0 0 0-2.407-2.404c-.262-.078-.408-.089-1.363-.104l-1.07-.017-.001-.226c-.003-.813-.28-1.332-.871-1.631C16.44.55 16.384.54 16 .54s-.44.01-.648.116c-.592.3-.868.818-.871 1.634l-.001.23H9.52l-.001-.23C9.516 1.475 9.24.955 8.65.657 8.455.558 8.37.541 8.042.532q-.382-.01-.526.045M6.495 5.925c.039.599.179.904.576 1.25.473.413 1.385.413 1.858 0 .397-.346.537-.651.576-1.25l.027-.405h4.936l.027.405c.039.599.179.904.576 1.25.473.413 1.385.413 1.858 0 .397-.346.537-.651.576-1.25l.027-.405h1.676l.136.136.136.136V8.52H4.52V5.792l.136-.136.136-.136h1.676zm9.674 6.917c-.413.082-.827.419-1.024.834-.108.228-.126.312-.131.616l-.006.351-.197.197c-.196.196-.199.198-.4.174-.58-.069-1.195.294-1.467.866-.11.231-.124.3-.124.62 0 .321.014.389.127.628.111.234.448.632.535.632.015 0 .025.106.023.236-.005.224-.013.243-.157.358-.201.16-.289.275-.419.554-.093.199-.109.284-.109.592 0 .32.014.389.124.62.161.338.399.577.73.734.23.109.313.127.615.132l.349.006.185.185.185.185.006.349c.005.302.023.385.132.615.157.331.396.569.734.73.231.11.3.124.62.124.319 0 .389-.014.62-.123.225-.107.64-.455.64-.537 0-.015.108-.027.24-.027s.24.012.24.027c0 .086.4.423.632.533.239.113.307.127.628.127.32 0 .389-.014.62-.124.564-.268.905-.828.874-1.436l-.013-.248.191-.19.19-.19.349-.006c.3-.005.385-.023.609-.13a1.48 1.48 0 0 0 .695-2.056 1.2 1.2 0 0 0-.375-.456c-.129-.107-.14-.133-.145-.35-.002-.129.008-.234.024-.234.015 0 .113-.084.217-.187a1.48 1.48 0 0 0 .315-1.701c-.264-.562-.885-.926-1.462-.858-.201.024-.204.023-.405-.179l-.203-.203.013-.25a1.5 1.5 0 0 0-.439-1.134 1.494 1.494 0 0 0-2.128.016c-.103.104-.187.204-.187.223 0 .018-.108.033-.24.033s-.24-.015-.24-.033c0-.066-.376-.414-.536-.496a1.57 1.57 0 0 0-1.055-.149m2.484 3.816c.272.138.573.445.709.722.085.174.098.255.098.62 0 .384-.01.44-.116.648a1.51 1.51 0 0 1-1.126.829 1.5 1.5 0 0 1-1.562-.829c-.106-.208-.116-.264-.116-.648 0-.365.013-.446.098-.62.173-.352.515-.664.878-.803q.144-.055.526-.045c.329.009.413.026.611.126"/></svg>