<svg xmlns="http://www.w3.org/2000/svg" width="24" height="24" fill="none" stroke="currentColor" stroke-linecap="round" stroke-linejoin="round" stroke-width="3"><path fill="#000" fill-rule="evenodd" stroke="none" d="M7.516.577c-.371.142-.711.446-.864.773-.106.228-.17.576-.171.937l-.001.226-1.07.017c-.955.015-1.101.026-1.363.104a3.57 3.57 0 0 0-2.495 2.754c-.076.399-.076 14.825 0 15.224.221 1.168 1.036 2.177 2.115 2.617.685.279.429.264 5.044.28 2.536.009 4.281 0 4.449-.024.867-.12 1.433-.851 1.317-1.703a1.51 1.51 0 0 0-.829-1.126l-.228-.116-4.28-.02c-3.309-.015-4.3-.031-4.367-.07a.7.7 0 0 1-.17-.155c-.083-.106-.083-.112-.083-4.44V11.52h14.95l.018.89c.016.842.023.904.119 1.138.243.592.758.938 1.393.938.634 0 1.145-.343 1.395-.938l.105-.248.012-3.58c.012-3.723-.003-4.179-.152-4.682a3.53 3.53 0 0 0-2.407-2.404c-.262-.078-.408-.089-1.363-.104l-1.07-.017-.001-.226c-.003-.813-.28-1.332-.871-1.631C16.44.55 16.384.54 16 .54s-.44.01-.648.116c-.592.3-.868.818-.871 1.634l-.001.23H9.52l-.001-.23C9.516 1.475 9.24.955 8.65.657 8.455.558 8.37.541 8.042.532q-.382-.01-.526.045M6.495 5.925c.039.599.179.904.576 1.25.473.413 1.385.413 1.858 0 .397-.346.537-.651.576-1.25l.027-.405h4.936l.027.405c.039.599.179.904.576 1.25.473.413 1.385.413 1.858 0 .397-.346.537-.651.576-1.25l.027-.405h1.676l.136.136.136.136V8.52H4.52V5.792l.136-.136.136-.136h1.676zm10.021 9.652c-.855.325-1.24 1.255-.862 2.082.081.176.269.391.901 1.032l.798.809-.798.809c-.633.641-.82.855-.9 1.032a1.499 1.499 0 0 0 1.563 2.136c.442-.06.599-.17 1.473-1.032l.809-.798.809.798c.641.633.855.82 1.032.9a1.499 1.499 0 0 0 2.136-1.563c-.06-.443-.17-.6-1.032-1.473l-.798-.809.798-.809c.632-.641.82-.856.901-1.032a1.505 1.505 0 0 0-.698-2.003c-.208-.106-.264-.116-.648-.116-.624 0-.707.05-1.7 1.027l-.8.786-.8-.786c-.972-.956-1.078-1.022-1.66-1.036-.246-.006-.431.01-.524.046"/></svg>