<svg xmlns="http://www.w3.org/2000/svg" width="24" height="24" fill="none" stroke="currentColor" stroke-linecap="round" stroke-linejoin="round" stroke-width="3"><path fill="#000" fill-rule="evenodd" stroke="none" d="M1.516.577C.825.841.426 1.502.523 2.218c.057.421.18.605.87 1.31l.64.653-.096.16c-.123.203-.275.6-.366.959-.067.263-.071.721-.071 7.66 0 5.855.011 7.436.052 7.652.221 1.168 1.036 2.177 2.115 2.617.707.288.085.266 8.053.281 4.58.008 7.325-.001 7.58-.027a3.5 3.5 0 0 0 1.252-.352l.291-.142.149.127a1.7 1.7 0 0 0 .79.361c1.2.163 2.067-1.029 1.56-2.145-.095-.21-1.076-1.202-10.274-10.395C1.635-.49 2.738.551 2.042.532c-.253-.007-.431.008-.526.045m14 0c-.371.142-.711.446-.864.773-.106.228-.17.576-.171.94l-.001.23h-2.638c-2.572 0-2.645.002-2.861.083-1.089.408-1.322 1.841-.414 2.558.106.084.296.195.423.246l.23.093 2.624.012 2.624.012.027.403c.039.597.18.902.576 1.248.473.413 1.385.413 1.858 0 .397-.346.537-.651.576-1.25l.027-.405h1.676l.136.136.136.136V8.52h-2.138c-2.066 0-2.147.003-2.361.083-1.089.408-1.322 1.841-.414 2.558.106.084.296.195.423.245.228.092.245.093 2.358.106l2.128.013.012 2.128c.013 2.116.013 2.128.105 2.357.174.432.555.803.945.92.209.062.715.062.924 0 .39-.117.77-.487.945-.92l.093-.23.012-4.82c.007-3.116-.003-4.967-.03-5.235-.129-1.289-.811-2.29-1.949-2.859-.573-.287-.747-.317-1.943-.336l-1.07-.017-.001-.226c-.003-.812-.28-1.332-.869-1.63-.195-.099-.28-.116-.608-.125q-.381-.01-.526.045M5.46 7.6l.919.92H4.52V7.6c0-.506.005-.92.01-.92.006 0 .424.414.93.92m8.42 8.42 4.5 4.5H11.7c-4.433 0-6.73-.014-6.827-.041a.6.6 0 0 1-.25-.163l-.103-.122V11.52h4.86z"/></svg>