<svg xmlns="http://www.w3.org/2000/svg" width="24" height="24" fill="none" stroke="currentColor" stroke-linecap="round" stroke-linejoin="round" stroke-width="3"><path fill="#000" fill-rule="evenodd" stroke="none" d="M9.06 2.562c-.066.02-.219.095-.34.167-.181.108-.413.363-1.323 1.451L6.295 5.5l-1.478.023c-1.371.021-1.498.029-1.77.111A3.57 3.57 0 0 0 .552 8.388c-.076.396-.076 9.828 0 10.224.221 1.168 1.036 2.177 2.116 2.617.719.293-.04.271 9.332.271 7.775 0 8.442-.005 8.71-.068a3.7 3.7 0 0 0 1.798-1.004c.573-.6.883-1.272.971-2.111.053-.504.053-9.13 0-9.634-.132-1.255-.824-2.255-1.946-2.817-.608-.305-.7-.318-2.35-.343L17.705 5.5l-1.102-1.32c-1.148-1.374-1.292-1.512-1.682-1.621-.177-.049-5.692-.046-5.861.003m5.818 4.231c.581.7 1.134 1.33 1.227 1.402s.266.17.383.217c.203.082.289.087 1.985.107l1.774.021.116.131.117.13v9.393l-.103.122a.6.6 0 0 1-.25.163c-.204.056-16.05.056-16.254 0a.6.6 0 0 1-.25-.163l-.103-.122V8.801l.117-.13.116-.131 1.774-.021c1.729-.021 1.779-.024 2.003-.113.128-.051.322-.176.44-.284.115-.106.66-.734 1.21-1.396l1-1.204h3.64zm-3.601 1.765c-1.471.269-2.667 1.161-3.316 2.474a5.2 5.2 0 0 0-.402 1.248c-.059.334-.059 1.106 0 1.44.361 2.054 2.013 3.583 4.057 3.756 2.473.208 4.652-1.626 4.86-4.092a4.46 4.46 0 0 0-1.343-3.596 3.8 3.8 0 0 0-1.153-.81c-.678-.332-1.061-.423-1.86-.44-.363-.007-.742.002-.843.02m1.376 3.1c.272.138.573.445.709.722.085.174.098.255.098.62 0 .384-.01.44-.116.648a1.51 1.51 0 0 1-1.126.829 1.5 1.5 0 0 1-1.562-.829c-.106-.208-.116-.264-.116-.648 0-.365.013-.446.098-.62.173-.352.515-.664.878-.803q.144-.056.526-.045c.329.009.413.026.611.126"/></svg>