<svg xmlns="http://www.w3.org/2000/svg" width="24" height="24" fill="none" stroke="currentColor" stroke-linecap="round" stroke-linejoin="round" stroke-width="3"><path fill="#000" fill-rule="evenodd" stroke="none" d="M1.516.577C.657.906.276 1.832.657 2.664c.087.192.311.436 1.426 1.557L3.405 5.55l-.284.07a4 4 0 0 0-1.18.558c-.699.5-1.224 1.334-1.389 2.21-.076.396-.076 9.828 0 10.224.221 1.168 1.036 2.177 2.115 2.617.711.289 0 .266 8.791.28l7.917.013.871.861c.94.928 1.087 1.033 1.536 1.094 1.2.163 2.067-1.029 1.56-2.145-.095-.21-1.076-1.202-10.274-10.395C1.635-.49 2.738.551 2.042.532c-.253-.007-.431.008-.526.045m7.433 2.04c-.564.232-.892.687-.938 1.303-.048.64.34 1.23.979 1.487.229.092.235.092 2.53.105l2.3.014 1.058 1.269c.581.698 1.134 1.328 1.227 1.4s.266.17.383.217c.203.082.289.087 1.981.107l1.769.021.111.111.111.111.02 4.009.02 4.009.093.23c.175.433.555.803.945.92.089.026.297.048.462.048s.373-.022.462-.048c.39-.117.77-.487.945-.92l.093-.23.012-3.82c.012-3.969-.002-4.416-.152-4.922a3.53 3.53 0 0 0-2.407-2.404c-.272-.082-.399-.09-1.77-.111L17.705 5.5l-1.102-1.32c-1.148-1.374-1.292-1.512-1.682-1.621-.086-.023-1.24-.038-2.941-.038l-2.8.001zM7.335 9.475l.955.956-.12.174c-.437.638-.73 1.623-.73 2.455a4.51 4.51 0 0 0 3.072 4.258c.448.148 1.01.242 1.45.242.81 0 1.802-.298 2.433-.73l.174-.12.906.905.905.905H10.2c-4.092 0-6.23-.014-6.327-.041a.6.6 0 0 1-.25-.163l-.103-.122V8.792l.136-.136.136-.136h2.589zm4.895 5.059c-.208.055-.649.001-.89-.109a1.63 1.63 0 0 1-.738-.721 1.4 1.4 0 0 1-.143-.85l.028-.226.937.936.937.936z"/></svg>