<svg xmlns="http://www.w3.org/2000/svg" width="24" height="24" fill="none" stroke="currentColor" stroke-linecap="round" stroke-linejoin="round" stroke-width="3"><path fill="#000" fill-rule="evenodd" stroke="none" d="M16.516.577c-.367.14-.71.446-.86.765-.062.132-.209.769-.422 1.832-.281 1.396-.337 1.626-.391 1.603a9 9 0 0 0-.543-.129c-.427-.092-.569-.104-1.28-.104-.895 0-1.275.059-2.046.316-.908.302-1.644.758-2.487 1.54-.828.769-2.326 2.311-2.644 2.722-1.181 1.528-1.625 3.698-1.125 5.501.042.151.071.281.065.287a81 81 0 0 1-1.627.333c-1.755.349-1.886.391-2.207.698-.327.314-.51.868-.429 1.301.025.135.213.569.49 1.136l.45.917.023 1.003c.022.953.029 1.014.125 1.25.162.397.447.682.844.844.236.096.297.103 1.249.125l1 .023.92.45c1.018.499 1.225.562 1.609.492.478-.088.926-.42 1.114-.824.061-.13.21-.78.419-1.82.179-.89.328-1.621.332-1.625.003-.004.131.027.284.07 1.06.293 2.408.252 3.55-.108a6.4 6.4 0 0 0 1.991-1.049c.443-.341 2.869-2.766 3.207-3.206a6.5 6.5 0 0 0 1.292-3.06c.115-.761.059-1.777-.137-2.483a2 2 0 0 1-.069-.283c.004-.003.736-.152 1.627-.33 1.76-.352 1.886-.393 2.206-.7.331-.319.514-.876.433-1.317-.024-.125-.216-.564-.486-1.107l-.448-.9-.027-1.02c-.024-.923-.035-1.042-.116-1.253q-.204-.53-.762-.815c-.219-.111-.225-.112-1.22-.136-.55-.013-1.036-.037-1.08-.053s-.491-.23-.994-.475l-.914-.445-.386-.011q-.385-.01-.53.045m1.949 3.737c.339.1.701.166.902.166h.153v.17c0 .209.093.689.195 1.01.07.22.071.242.011.264-.144.051-2.009.406-2.03.386-.012-.012.072-.493.187-1.068.148-.741.224-1.04.258-1.027.027.01.173.055.324.099M12.48 11.86c0 2.365-.006 4.3-.014 4.3-.007 0-.165.052-.35.115a5 5 0 0 1-.466.139l-.13.024.01-4.289.01-4.289.24-.096c.201-.082.557-.188.67-.201.017-.001.03 1.932.03 4.297m3.31-2.95a3.42 3.42 0 0 1 .319 3.59c-.142.285-.386.65-.504.756l-.085.076v-2.366c0-1.301.009-2.366.02-2.366s.124.14.25.31m-7.319 5.319-.011 1.188-.19-.238a3.47 3.47 0 0 1-.691-2.744c.105-.594.419-1.261.777-1.648l.104-.112.011 1.182c.005.651.005 1.718 0 2.372M6.32 17.71c0 .039-.405 2.067-.416 2.078a2 2 0 0 1-.266-.072c-.324-.101-.811-.196-1.008-.196-.148 0-.15-.002-.15-.156 0-.202-.092-.674-.195-1.002a2 2 0 0 1-.073-.266 66 66 0 0 1 2.038-.412c.038-.002.07.01.07.026"/></svg>