<svg xmlns="http://www.w3.org/2000/svg" width="24" height="24" fill="none" stroke="currentColor" stroke-linecap="round" stroke-linejoin="round" stroke-width="3"><path fill="#000" fill-rule="evenodd" stroke="none" d="M2.516 1.577c-.554.212-.919.67-1 1.254-.022.162-.033 3.904-.027 9.369l.011 9.1.105.248q.25.597.847.847l.248.105 9.1.011c5.465.006 9.207-.005 9.369-.027.858-.119 1.423-.854 1.308-1.702a1.51 1.51 0 0 0-.829-1.126l-.228-.116-8.45-.01-8.45-.011-.001-8.229c0-4.68-.016-8.338-.037-8.48a1.51 1.51 0 0 0-.832-1.153c-.195-.099-.28-.116-.608-.125-.253-.007-.431.008-.526.045m14 0c-.371.142-.711.446-.864.773-.108.231-.17.577-.171.952l-.001.243-.236.071c-.599.179-1.206.7-1.476 1.268-.279.586-.268.417-.268 4.116 0 2.672.011 3.384.054 3.56.175.713.7 1.372 1.334 1.674.183.087.388.17.457.185l.126.025.017.928c.016.884.022.94.119 1.176.244.592.758.938 1.393.938s1.149-.346 1.393-.938c.097-.236.103-.292.119-1.176l.017-.928.126-.025c.069-.015.274-.098.457-.185.467-.223.9-.655 1.122-1.122.277-.582.266-.416.266-4.112 0-3.694.011-3.53-.265-4.11-.271-.569-.882-1.096-1.479-1.274l-.236-.071-.001-.243c-.003-.828-.276-1.345-.869-1.645-.195-.099-.28-.116-.608-.125-.253-.007-.431.008-.526.045m-8 2a1.54 1.54 0 0 0-.998 1.233c-.02.138-.037.809-.037 1.492L7.48 7.545l-.236.071c-.599.179-1.206.7-1.476 1.268-.273.573-.268.518-.268 3.116 0 2.595-.004 2.543.266 3.112.222.467.655.899 1.122 1.122.183.087.388.17.456.184l.124.026.025.44c.037.636.17.935.578 1.291.473.413 1.385.413 1.858 0 .408-.356.541-.655.578-1.291l.025-.44.124-.026c.068-.014.273-.097.456-.184.467-.223.9-.655 1.122-1.122.27-.569.266-.517.266-3.112 0-2.594.004-2.544-.265-3.11-.271-.569-.882-1.096-1.479-1.274l-.236-.071-.001-1.243c0-.683-.017-1.354-.037-1.492a1.51 1.51 0 0 0-.832-1.153c-.195-.099-.28-.116-.608-.125q-.382-.01-.526.045m8.964 5.436v2.494h-.96V6.52h.96zm-8 3v1.494h-.96V10.52h.96z"/></svg>