<svg xmlns="http://www.w3.org/2000/svg" width="24" height="24" fill="none" stroke="currentColor" stroke-linecap="round" stroke-linejoin="round" stroke-width="3"><path fill="#000" fill-rule="evenodd" stroke="none" d="M1.516.577C.655.907.276 1.832.659 2.668c.093.205.436.562 2.91 3.04l2.805 2.808-.162.176a7 7 0 0 0-.758 1.048c-.831 1.429-1.077 3.252-.656 4.858.043.165.075.301.07.304s-.755.153-1.668.334c-1.803.357-1.928.396-2.251.705-.327.314-.51.868-.429 1.301.025.135.213.569.49 1.135l.45.918.023 1.002c.022.955.028 1.015.125 1.251.162.397.447.682.844.844.236.097.296.103 1.252.125l1.004.023.916.451c1.014.499 1.221.562 1.606.491.478-.088.926-.42 1.114-.824.061-.13.209-.774.417-1.82.178-.89.33-1.639.339-1.665.011-.034.095-.025.307.03 1.6.42 3.426.173 4.853-.657a7 7 0 0 0 1.048-.758l.176-.162 2.808 2.805c2.478 2.474 2.835 2.817 3.04 2.91a1.502 1.502 0 0 0 2.01-2.009c-.095-.21-1.076-1.202-10.274-10.395C1.635-.49 2.738.551 2.042.532c-.253-.007-.431.008-.526.045m15 0c-.367.14-.71.446-.86.765-.062.133-.207.766-.422 1.84-.18.901-.329 1.641-.331 1.645a5 5 0 0 1-.39-.087 6 6 0 0 0-1.746-.169c-1.318.049-1.949.315-2.26.951a1.504 1.504 0 0 0 .733 2.033c.182.086.279.104.56.104a4 4 0 0 0 .51-.029l.17-.031v.351c.001.45.062.823.172 1.05.125.255.465.585.737.712.2.094.282.108.611.108.432 0 .639-.071.951-.327.166-.136.449-.52.449-.608 0-.022.018-.088.041-.148.041-.106.042-.107.125-.032.136.122.388.514.558.87.293.609.382 1.35.252 2.085-.082.461-.058.821.072 1.104a1.497 1.497 0 0 0 2.027.731c.651-.319.911-.941.953-2.275.023-.731-.034-1.294-.185-1.841a3 3 0 0 1-.07-.282c.004-.002.745-.151 1.647-.331 1.782-.354 1.905-.393 2.226-.702.331-.319.514-.877.432-1.317-.023-.121-.225-.587-.488-1.124l-.45-.918-.024-1.002c-.022-.91-.033-1.025-.114-1.236q-.205-.53-.762-.815c-.219-.111-.225-.112-1.22-.136-.55-.013-1.036-.037-1.08-.053s-.491-.23-.994-.475l-.914-.445-.386-.011q-.385-.01-.53.045m1.822 3.702c.279.096.814.201 1.026.201.155 0 .156.001.156.156 0 .212.105.747.201 1.027.044.126.073.236.065.244-.03.031-2.069.424-2.089.403-.019-.019.38-2.11.403-2.11.004 0 .111.036.238.079M8.471 14.11l-.011 1.15-.186-.235a3.5 3.5 0 0 1-.564-1.136c-.076-.261-.09-.406-.09-.929 0-.525.014-.668.09-.932.114-.391.305-.773.556-1.108l.194-.26.011 1.15c.005.632.005 1.667 0 2.3m4.009 1.257v.747l-.227.085a4 4 0 0 1-.48.138l-.253.053v-2.729l.48.479.48.479zM6.32 17.71c0 .044-.406 2.068-.417 2.08a1.2 1.2 0 0 1-.235-.067c-.268-.092-.836-.203-1.041-.203-.144 0-.147-.003-.147-.156 0-.212-.105-.747-.201-1.027a1.2 1.2 0 0 1-.069-.24 67 67 0 0 1 2.04-.413c.038-.002.07.01.07.026"/></svg>