<svg xmlns="http://www.w3.org/2000/svg" width="24" height="24" fill="none" stroke="currentColor" stroke-linecap="round" stroke-linejoin="round" stroke-width="3"><path fill="#000" fill-rule="evenodd" stroke="none" d="M15.72.509c-1.711.061-3.392.738-4.724 1.902-.482.422-1.25 1.343-1.457 1.749-.039.077-.675 1.121-1.413 2.32L6.419 9.26c-.201.33-1.533 2.499-2.959 4.82S.816 18.412.754 18.548c-.23.506-.293.818-.293 1.452 0 .668.069.984.341 1.547.45.933 1.27 1.588 2.358 1.881.384.103 1.231.091 1.66-.024a3.4 3.4 0 0 0 1.682-1.015c.265-.282.462-.573 1.184-1.754C14.218 9.964 15.604 7.703 15.648 7.65c.087-.104.305-.175.453-.147.18.034.322.171.381.369.046.153.04.178-.136.556-.323.691-.453 1.462-.35 2.074.2 1.181.878 2.114 1.904 2.621.579.287.923.368 1.56.368.621 0 .971-.08 1.52-.346.779-.377 1.27-.884 1.716-1.773a7.26 7.26 0 0 0 .781-3.851c-.21-2.984-2.058-5.481-4.841-6.543-.852-.325-1.96-.503-2.916-.469m-1.001 4.192c0 .023-.121.102-.269.175a3.4 3.4 0 0 0-1.018.764 3 3 0 0 1-.273.28c-.012 0-.129-.218-.26-.485l-.239-.484.24-.217a4.8 4.8 0 0 1 1.039-.729l.317-.162.23.408c.127.225.232.428.233.45m3.738-.468c.933.6 1.612 1.554 1.907 2.677.106.404.147 1.363.077 1.8-.11.687-.489 1.583-.732 1.731a.48.48 0 0 1-.671-.173c-.11-.18-.098-.311.057-.619.524-1.041.541-2.2.049-3.205a53 53 0 0 0-.777-1.414 46 46 0 0 1-.647-1.171c0-.027.535.244.737.374m-7.179 4.722c.002.053-1.158 1.981-1.177 1.957a15 15 0 0 1-.474-1.087c0-.027.258-.469.574-.982l.574-.933.25.495c.138.272.252.52.253.55m-3.305 4.528c.125.277.227.515.227.53 0 .044-1.049 1.747-1.076 1.747-.015 0-.141-.232-.282-.516l-.255-.515.555-.904c.305-.497.566-.891.58-.874.013.016.126.255.251.532m-2.951 4.8.262.524-.459.747c-.252.41-.503.788-.556.838-.209.196-.593.135-.748-.12-.154-.253-.123-.35.382-1.175.711-1.161.821-1.337.84-1.337.009 0 .134.236.279.523"/></svg>