<svg xmlns="http://www.w3.org/2000/svg" width="24" height="24" fill="none" stroke="currentColor" stroke-linecap="round" stroke-linejoin="round" stroke-width="3"><path fill="#000" fill-rule="evenodd" stroke="none" d="M11.493.592c-.369.131-.565.315-.97.908-.828 1.213-1.421 2.689-1.744 4.341l-.066.341-.507-.258C6.937 5.277 5.842 4.89 4.62 4.657c-.47-.09-.679-.108-1.3-.112l-.74-.005-.228.116c-.454.23-.765.653-.83 1.131-.061.449.079 1.313.318 1.967.352.961.974 2.008 1.827 3.076l.372.465-.397.208c-1.371.718-2.432 1.68-2.89 2.622-.181.371-.241.591-.244.895-.004.439.23.902.596 1.18.167.128 1.105.511 1.753.718.581.185 1.398.386 1.905.469.406.067.442.08.424.153-.011.044-.101.318-.2.608a8.4 8.4 0 0 0-.463 2.337c-.051.831.047 1.195.422 1.57.379.379.748.476 1.594.418 1.191-.082 2.506-.49 3.581-1.112l.34-.197.026.573c.036.782.148 1.056.585 1.438.473.413 1.385.413 1.858 0 .437-.381.549-.656.585-1.435l.026-.57.34.193c1.105.629 2.394 1.029 3.581 1.11.846.058 1.215-.039 1.594-.418.375-.375.473-.739.422-1.57a8.4 8.4 0 0 0-.463-2.337c-.099-.29-.189-.564-.2-.608-.018-.073.018-.086.424-.153.879-.144 1.891-.434 2.902-.832.657-.259.836-.372 1.063-.674.468-.623.355-1.446-.326-2.365-.504-.68-1.509-1.485-2.507-2.007l-.409-.214.35-.438c.859-1.072 1.494-2.137 1.848-3.103.24-.652.38-1.518.319-1.967a1.51 1.51 0 0 0-.83-1.131l-.228-.116-.74.005c-.622.004-.829.022-1.3.111-1.16.222-2.201.583-3.407 1.182l-.687.342-.066-.34c-.319-1.644-.912-3.118-1.746-4.345-.317-.466-.592-.742-.864-.862-.271-.121-.835-.142-1.117-.041m.639 5.218c.203.811.345 1.924.348 2.71.002.798.121 1.184.476 1.544.43.436 1.121.552 1.692.284.117-.054.363-.238.548-.408A8.9 8.9 0 0 1 17.4 8.472c.447-.216 1.283-.562 1.305-.541.024.025-.359.57-.725 1.03-.458.576-1.219 1.35-1.64 1.667-.176.132-.39.318-.475.412-.509.563-.473 1.462.08 2.015.278.279.533.384 1.09.453.268.032.618.107.825.176.437.145 1.394.599 1.351.64-.053.05-1.004.195-1.571.238-.39.03-.689.028-1.077-.005a6 6 0 0 0-.772-.025c-.623.056-1.181.606-1.268 1.25-.069.511.078.909.518 1.398.159.176.379.453.489.616.206.304.563 1.013.613 1.218.026.107.021.113-.068.085-.154-.048-.71-.335-.993-.512-.588-.369-1.122-.797-1.792-1.435-.225-.215-.498-.435-.605-.49a1.6 1.6 0 0 0-1.37 0c-.107.055-.38.275-.605.49-.691.658-1.216 1.075-1.833 1.457-.381.236-.991.531-1.026.496-.036-.037.206-.616.401-.961.197-.349.392-.615.71-.971.326-.365.429-.549.502-.897.054-.263.054-.321 0-.564-.08-.351-.175-.53-.402-.756-.239-.238-.57-.405-.848-.428-.12-.01-.464.003-.766.028a6.3 6.3 0 0 1-1.088.006c-.585-.045-1.52-.186-1.57-.236-.043-.043.907-.494 1.356-.644.224-.075.526-.138.78-.165.616-.063.912-.202 1.249-.588.314-.36.407-1.004.214-1.483-.126-.31-.249-.452-.669-.769-.451-.34-1.234-1.13-1.695-1.709-.37-.466-.754-1.012-.73-1.037.022-.021.858.325 1.305.541.85.41 1.57.888 2.197 1.458.182.166.423.347.537.404a1.5 1.5 0 0 0 1.721-.279c.35-.35.462-.718.465-1.535.002-.477.087-1.382.181-1.93.084-.486.261-1.19.299-1.19.017 0 .076.185.132.41"/></svg>