<svg xmlns="http://www.w3.org/2000/svg" width="24" height="24" fill="none" stroke="currentColor" stroke-linecap="round" stroke-linejoin="round" stroke-width="3"><path fill="#000" fill-rule="evenodd" stroke="none" d="M1.516.577C.659.905.276 1.832.655 2.66c.081.177.272.395.945 1.076l.843.854-.223.295c-.417.549-.632 1.116-.702 1.848-.029.301-.038 2.125-.028 5.587.016 5.657-.001 5.292.266 5.984.319.826 1.068 1.581 1.908 1.923.71.29.114.268 7.795.282l6.919.013 1.365 1.359c1.154 1.147 1.4 1.374 1.593 1.462a1.502 1.502 0 0 0 2.006-2.011c-.095-.21-1.076-1.202-10.274-10.395C1.635-.49 2.738.551 2.042.532c-.253-.007-.431.008-.526.045m8.433 3.039c-.565.234-.892.688-.938 1.304-.048.64.34 1.229.979 1.487l.23.093 4.509.02 4.509.02.111.111.111.111.02 4.509.02 4.509.093.23c.175.433.555.803.945.92.209.062.715.062.924 0 .39-.117.77-.487.945-.92l.093-.23.012-4.32c.012-4.483 0-4.91-.152-5.422-.349-1.171-1.218-2.039-2.407-2.407l-.293-.09-4.74-.01-4.74-.01zM6.971 9.52c-.328.017-.428.039-.619.136a1.51 1.51 0 0 0-.829 1.126 1.494 1.494 0 0 0 1.287 1.7c.138.02.997.037 1.91.037l1.66.001 2.5 2.5 2.5 2.5H10.2c-3.41 0-5.23-.014-5.327-.041a.6.6 0 0 1-.25-.163l-.103-.122V12.02c0-2.845.012-5.204.026-5.241.02-.051.348.255 1.42 1.327L7.361 9.5zm8.978.095c-1.072.449-1.281 1.836-.382 2.546.262.208.558.311.98.34.682.048 1.154-.091 1.508-.446.726-.726.523-1.928-.407-2.399-.218-.111-.254-.116-.848-.127-.579-.01-.635-.004-.851.086m-9.433 3.964c-1.045.384-1.348 1.699-.571 2.476.242.242.53.38.906.432.166.023.85.033 1.609.024 1.258-.015 1.331-.02 1.55-.106.43-.17.803-.552.92-.943.062-.209.062-.715 0-.924-.117-.391-.496-.78-.911-.935-.211-.079-.298-.083-1.791-.08-1.199.002-1.602.015-1.712.056"/></svg>