<svg xmlns="http://www.w3.org/2000/svg" width="24" height="24" fill="none" stroke="currentColor" stroke-linecap="round" stroke-linejoin="round" stroke-width="3"><path fill="#000" fill-rule="evenodd" stroke="none" d="M7.591 3.584c-.37.08-.845.287-1.188.517-.341.228-.847.754-1.043 1.081-.077.129-.311.661-.52 1.181l-.381.946-.29-.268a3 3 0 0 0-.519-.385C3.439 6.55 3.384 6.54 3 6.54s-.44.01-.648.116a1.5 1.5 0 0 0-.829 1.562c.048.352.193.608.572 1.009l.346.366-.222.294a3.7 3.7 0 0 0-.575 1.126c-.146.48-.172 1.034-.153 3.309.014 1.752.029 2.185.08 2.398a3.61 3.61 0 0 0 1.596 2.255l.301.192.022.569c.029.778.141 1.055.581 1.439.473.413 1.385.413 1.858 0 .397-.346.537-.651.576-1.25l.027-.405h10.936l.027.405c.039.599.179.904.576 1.25.473.413 1.385.413 1.858 0 .44-.384.552-.661.581-1.439l.022-.569.301-.192a3.5 3.5 0 0 0 1.646-2.658c.022-.207.04-1.25.04-2.317s-.018-2.11-.04-2.317a3.5 3.5 0 0 0-.698-1.796l-.222-.294.346-.366c.379-.401.524-.657.572-1.009a1.5 1.5 0 0 0-.829-1.562c-.208-.106-.264-.116-.648-.116s-.44.01-.649.116a3 3 0 0 0-.525.388l-.295.272-.37-.914c-.401-.989-.52-1.225-.809-1.595-.384-.494-1.101-.974-1.752-1.174l-.3-.092-4.22-.008c-3.571-.006-4.261.001-4.489.051m8.348 3.026c.07.061.21.354.438.915.184.454.347.863.361.91l.027.085h-4.762c-3.141 0-4.763-.014-4.763-.04 0-.022.155-.427.344-.9.266-.666.371-.882.463-.96l.119-.1h7.67zm3.405 5.046.136.136v4.407l-.114.128c-.095.106-.155.133-.35.157-.308.038-13.724.038-14.032 0-.195-.024-.255-.051-.35-.157l-.114-.128v-4.407l.136-.136.136-.136h14.416zm-12.828.921c-1.049.399-1.349 1.701-.571 2.478.71.71 1.942.519 2.393-.371a1.48 1.48 0 0 0-.286-1.746c-.292-.292-.55-.395-1.012-.407-.247-.006-.431.01-.524.046m10 0c-1.049.399-1.349 1.701-.571 2.478.58.58 1.53.583 2.107.007a1.47 1.47 0 0 0 0-2.124c-.292-.292-.55-.395-1.012-.407-.247-.006-.431.01-.524.046"/></svg>