<svg xmlns="http://www.w3.org/2000/svg" width="24" height="24" fill="none" stroke="currentColor" stroke-linecap="round" stroke-linejoin="round" stroke-width="3"><path fill="#000" fill-rule="evenodd" stroke="none" d="M4.46 5.548a4.3 4.3 0 0 0-.949.377 3.8 3.8 0 0 0-1.02.946c-.254.355-1.664 3.281-1.788 3.71C.51 11.247.5 11.416.5 14.02v2.44l.112.332c.214.631.68 1.172 1.248 1.449.379.185.664.242 1.347.267l.626.024.192.301a3.6 3.6 0 0 0 2.265 1.593 4.3 4.3 0 0 0 1.42 0 3.6 3.6 0 0 0 2.269-1.598l.195-.308h3.652l.195.308a3.6 3.6 0 0 0 2.269 1.598 4.3 4.3 0 0 0 1.42 0 3.6 3.6 0 0 0 2.265-1.593l.192-.301.626-.024c.367-.014.727-.05.867-.087a2.45 2.45 0 0 0 1.402-.984c.426-.626.472-.964.447-3.247-.016-1.517-.024-1.676-.102-1.979-.307-1.187-1.214-2.151-2.364-2.509-.474-.148-1.997-.536-3.223-.822l-1.04-.242-.157-.169c-.74-.796-1.798-1.866-1.993-2.017-.548-.421-1.202-.731-1.809-.857-.339-.069-.607-.074-4.321-.07-2.178.002-3.996.013-4.04.023m7.864 3.019c.316.109.556.323 1.654 1.472.931.975 1.18 1.213 1.351 1.295.121.058.705.214 1.371.367 1.203.275 2.833.68 3.306.821.21.062.295.111.373.213l.101.133v2.652h-.137c-.129 0-.152-.022-.364-.346-.508-.78-1.193-1.296-2.047-1.544-.264-.076-.407-.09-.932-.09s-.668.014-.932.09c-.854.248-1.539.764-2.047 1.544l-.226.346h-3.59l-.226-.346c-.508-.78-1.193-1.296-2.047-1.544-.264-.076-.407-.09-.932-.09s-.668.014-.932.09q-1.283.373-2.047 1.544c-.212.324-.235.346-.364.346H3.52v-1.93c0-1.276.015-1.984.044-2.09.044-.158 1.259-2.707 1.377-2.887l.061-.093h3.593c2.649 0 3.629.012 3.729.047m-4.98 8.089c.119.119.136.162.136.337 0 .242-.129.424-.343.483a.5.5 0 0 1-.514-.16c-.081-.096-.103-.166-.103-.323 0-.175.017-.218.136-.337s.161-.136.344-.136.224.016.344.136m10 0c.119.119.136.162.136.337 0 .242-.129.424-.343.483a.5.5 0 0 1-.514-.16c-.081-.096-.103-.166-.103-.323 0-.175.017-.218.136-.337s.161-.136.344-.136.224.016.344.136"/></svg>