<svg xmlns="http://www.w3.org/2000/svg" width="24" height="24" fill="none" stroke="currentColor" stroke-linecap="round" stroke-linejoin="round" stroke-width="3"><path fill="#000" fill-rule="evenodd" stroke="none" d="M5.081 3.583C3.035 3.956 1.417 5.354.78 7.296.488 8.188.5 7.952.5 12.9c0 3.456.011 4.5.052 4.712.221 1.168 1.036 2.177 2.115 2.617.47.191.78.248 1.52.277l.647.026.191.302a3.6 3.6 0 0 0 2.265 1.592 4.3 4.3 0 0 0 1.42 0c.9-.19 1.687-.732 2.219-1.526l.241-.36 5.565-.02 5.565-.02.248-.105a1.52 1.52 0 0 0 .846-.847c.1-.242.103-.276.118-1.328.017-1.187-.015-1.549-.163-1.869-.124-.266-.406-.546-.701-.695-.208-.106-.264-.116-.648-.116s-.44.01-.648.116c-.592.3-.868.818-.871 1.634l-.001.23h-.956l-.014-4.53c-.016-5.029-.006-4.825-.288-5.687-.643-1.963-2.27-3.361-4.332-3.721-.302-.053-.982-.061-4.93-.058-3.681.004-4.639.015-4.879.059m9.736 3.047a2.67 2.67 0 0 1 1.553 1.553l.09.237.011 4.55.011 4.55h-.962l-.001-4.23c0-2.327-.017-4.342-.037-4.48a1.51 1.51 0 0 0-.834-1.154l-.228-.116H9.58l-.228.116a1.51 1.51 0 0 0-.834 1.154c-.02.138-.037 1.701-.037 3.475L8.48 15.51l-.57.021c-.645.023-.973.099-1.443.335-.614.307-1.052.703-1.446 1.308l-.226.346h-.388c-.475 0-.652-.046-.784-.204l-.103-.122v-2.667l1.39-.014 1.39-.015.248-.104a1.52 1.52 0 0 0 .847-.846L7.5 13.3l.013-2.087c.007-1.217-.004-2.204-.027-2.369-.075-.538-.364-.948-.838-1.188L6.42 7.54l-1.19-.012c-.68-.007-1.19-.028-1.19-.049 0-.131.585-.605.945-.766.427-.191.33-.187 5.095-.18l4.5.007zM4.48 11.02v.5h-.96v-1h.96zm8 2.98v3.48h-.96v-6.96h.96zm-4.136 4.656c.119.119.136.162.136.337 0 .242-.129.424-.343.483a.5.5 0 0 1-.514-.16c-.081-.096-.103-.166-.103-.323 0-.175.017-.218.136-.337s.161-.136.344-.136.224.016.344.136"/></svg>