<svg xmlns="http://www.w3.org/2000/svg" width="24" height="24" fill="none" stroke="currentColor" stroke-linecap="round" stroke-linejoin="round" stroke-width="3"><path fill="#000" fill-rule="evenodd" stroke="none" d="M14.534.577c-.617.193-1.8 1.381-2.345 2.355-.498.889-.747 1.967-.673 2.918.015.196.009.31-.016.311-.152.003-.932.125-1.143.179-2.181.557-3.608 2.027-5.583 5.75-1.104 2.08-2.697 5.747-3.713 8.549-.304.836-.339 1.032-.246 1.394.189.736.837 1.217 1.556 1.157.283-.024 1.246-.364 2.949-1.041 4.627-1.839 8.04-3.57 9.916-5.028.586-.456 1.212-1.083 1.471-1.476.627-.947.998-1.946 1.079-2.9l.025-.292.204.015c.113.008.259.022.325.03.237.028 1.047-.063 1.413-.159 1.041-.275 1.888-.782 2.77-1.658.71-.706.965-1.15.965-1.681 0-.52-.252-.968-.926-1.643-1.125-1.128-2.346-1.741-3.631-1.823l-.41-.026-.018-.124a8 8 0 0 1-.043-.436c-.047-.613-.295-1.385-.649-2.016-.554-.99-1.735-2.169-2.361-2.357-.226-.068-.695-.067-.916.002m.635 3.793c.227.392.291.632.291 1.09-.001.373-.009.417-.133.66-.165.325-.365.64-.406.64-.055 0-.312-.572-.363-.805-.067-.312-.031-.877.075-1.172.085-.235.322-.663.367-.663.013 0 .089.112.169.25m4.011 4.248c.207.072.7.341.7.382 0 .039-.409.271-.633.358a2.1 2.1 0 0 1-1.021.12c-.27-.038-.77-.223-.926-.341-.079-.06-.079-.062.02-.138.125-.097.59-.344.79-.42.199-.077.802-.055 1.07.039m-6.56.641c.392.106.621.232.967.531.877.76 1.21 1.376 1.212 2.248l.001.298-.51-.502c-.577-.569-.757-.688-1.139-.758-1.001-.183-1.908.686-1.749 1.677.072.444.184.604 1.002 1.429l.762.768-.513.341c-1.299.864-3.357 1.918-5.837 2.99-1.028.445-1.903.805-1.918.79-.029-.028 1.002-2.411 1.61-3.72l.422-.91.425.406c.461.441.696.58 1.067.63.502.068.946-.091 1.305-.467a1.465 1.465 0 0 0 .12-1.885c-.081-.107-.431-.469-.777-.804l-.631-.61.087-.146A11 11 0 0 1 9.57 10.18c.491-.526 1.013-.834 1.624-.962.337-.07 1.098-.049 1.426.041"/></svg>