<svg xmlns="http://www.w3.org/2000/svg" width="24" height="24" fill="none" stroke="currentColor" stroke-linecap="round" stroke-linejoin="round" stroke-width="3"><path fill="#000" fill-rule="evenodd" stroke="none" d="M6.486 5.598c-.229.084-.43.222-.615.42-.063.067-1.058 2.01-2.214 4.322-1.549 3.098-2.11 4.257-2.139 4.418-.076.427.104.985.416 1.288.226.218.44.339.741.416.306.078.653.033.995-.129.351-.166.534-.395.913-1.143l.339-.67h4.156l.339.67c.476.94.73 1.176 1.391 1.291.442.077.889-.078 1.258-.435.311-.302.491-.867.414-1.299-.026-.147-.65-1.435-2.134-4.407-2.304-4.613-2.201-4.434-2.698-4.683-.305-.154-.833-.18-1.162-.059m8.03-.02a1.53 1.53 0 0 0-1.001 1.258c-.022.164-.033 1.933-.026 4.369L13.5 15.3l.105.248q.25.597.847.847l.248.105h2.6c2.835 0 2.85-.001 3.461-.241A3.53 3.53 0 0 0 23 13c0-.741-.28-1.567-.716-2.107l-.192-.238.094-.212c.488-1.106.382-2.405-.275-3.377a3.65 3.65 0 0 0-1.958-1.434c-.289-.088-.331-.089-2.793-.099-2.019-.007-2.528.001-2.644.045m4.828 3.078c.119.119.136.162.136.337 0 .245-.129.424-.353.486-.085.023-.661.041-1.377.041h-1.23v-1h2.688zM7.291 10.94c.148.298.269.55.269.56s-.252.02-.56.02-.56-.009-.56-.02c0-.04.539-1.1.56-1.1.012 0 .143.243.291.54m12.466 1.638c.119.062.243.276.243.422a.64.64 0 0 1-.233.428c-.098.066-.24.073-1.677.084l-1.57.012V12.52h1.562c1.289 0 1.582.01 1.675.058"/></svg>