<svg xmlns="http://www.w3.org/2000/svg" width="24" height="24" fill="none" stroke="currentColor" stroke-linecap="round" stroke-linejoin="round" stroke-width="3"><path fill="#000" fill-rule="evenodd" stroke="none" d="M6.486 5.598c-.229.084-.43.222-.615.42-.063.067-1.058 2.01-2.214 4.322-1.549 3.098-2.11 4.257-2.139 4.418-.076.427.104.985.416 1.288.226.218.44.339.741.416.306.078.653.033.995-.129.351-.166.534-.395.913-1.143l.339-.67h4.156l.339.67c.476.94.73 1.176 1.391 1.291.442.077.889-.078 1.258-.435.311-.302.491-.867.414-1.299-.026-.147-.65-1.435-2.134-4.407-2.304-4.613-2.201-4.434-2.698-4.683-.305-.154-.833-.18-1.162-.059M17.277 7.56a4.66 4.66 0 0 0-2.238 1.064 4.54 4.54 0 0 0-1.48 2.656c-.059.334-.059 1.106 0 1.44a4.53 4.53 0 0 0 3.637 3.706c.391.076 1.217.076 1.608 0a7 7 0 0 0 1.022-.311c.118-.046.137-.041.267.074.343.301.991.389 1.462.199.387-.156.672-.441.84-.84l.105-.248.012-3.092c.007-1.828-.004-3.205-.027-3.369a1.5 1.5 0 0 0-.837-1.183c-.208-.106-.264-.116-.648-.116-.454 0-.655.064-.927.292l-.121.102-.186-.072a6.4 6.4 0 0 0-1.059-.301c-.284-.046-1.159-.046-1.43-.001m-9.986 3.38c.148.298.269.55.269.56s-.252.02-.56.02-.56-.009-.56-.02c0-.04.539-1.1.56-1.1.012 0 .143.243.291.54m11.362-.282c.272.138.573.445.709.722.085.174.098.255.098.62 0 .384-.01.44-.116.648a1.51 1.51 0 0 1-1.126.829 1.5 1.5 0 0 1-1.562-.829c-.106-.208-.116-.264-.116-.648 0-.365.013-.446.098-.62.173-.352.515-.664.878-.803q.144-.056.526-.045c.329.009.413.026.611.126"/></svg>