<svg xmlns="http://www.w3.org/2000/svg" width="24" height="24" fill="none" stroke="currentColor" stroke-linecap="round" stroke-linejoin="round" stroke-width="3"><path fill="#000" fill-rule="evenodd" stroke="none" d="M3.44 2.547A3.56 3.56 0 0 0 .552 5.388c-.076.398-.076 12.826 0 13.224.221 1.168 1.036 2.177 2.116 2.617.719.293-.04.271 9.332.271 7.775 0 8.442-.005 8.71-.068a3.7 3.7 0 0 0 1.798-1.004c.573-.6.883-1.272.971-2.111.053-.509.053-12.125 0-12.634-.154-1.464-1.103-2.61-2.526-3.052l-.293-.091-8.56-.005c-4.708-.002-8.605.003-8.66.012m16.904 3.109.136.136v12.402l-.103.122c-.132.158-.309.204-.785.204h-.389l-.039-.15c-.022-.082-.123-.51-.224-.95-.196-.85-.308-1.194-.499-1.526-.256-.446-.801-.917-1.335-1.153-.513-.227-.378-.221-5.102-.221-4.197 0-4.362.003-4.659.079-.512.131-.912.365-1.327.78-.528.526-.609.702-.938 2.041l-.265 1.08-.337.012c-.503.019-.67-.016-.826-.172l-.132-.132V5.792l.136-.136.136-.136h16.416zM7.44 6.545c-1.488.286-2.621 1.394-2.881 2.819-.06.328-.06.944 0 1.272a3.56 3.56 0 0 0 2.109 2.593c.7.285.421.271 5.332.271 4.015 0 4.447-.006 4.71-.068 1.524-.356 2.611-1.57 2.765-3.086.171-1.684-.893-3.238-2.543-3.716-.264-.076-.407-.09-.932-.09s-.668.014-.932.09c-1.289.374-2.272 1.444-2.51 2.734a5 5 0 0 0-.045.706l.002.45h-1.044l.018-.27c.094-1.429-.661-2.736-1.956-3.384-.479-.24-.797-.313-1.433-.327a7 7 0 0 0-.66.006m.904 3.111c.12.12.136.161.136.344s-.016.224-.136.344-.161.136-.344.136-.224-.016-.344-.136-.136-.161-.136-.344.016-.224.136-.344.161-.136.344-.136.224.016.344.136m8 0c.12.12.136.161.136.344s-.016.224-.136.344-.161.136-.344.136-.224-.016-.344-.136-.136-.161-.136-.344.016-.224.136-.344.161-.136.344-.136.224.016.344.136m-.449 7.934c.056.192.185.786.185.853 0 .075-.083.077-4.08.077-2.244 0-4.08-.013-4.08-.03s.049-.242.109-.5l.109-.47h3.868c3.65 0 3.87.004 3.889.07"/></svg>