<svg xmlns="http://www.w3.org/2000/svg" width="24" height="24" fill="none" stroke="currentColor" stroke-linecap="round" stroke-linejoin="round" stroke-width="3"><path fill="#000" fill-rule="evenodd" stroke="none" d="M5.516.577a1.54 1.54 0 0 0-.998 1.233c-.02.138-.037 1.929-.037 3.98L4.48 9.52h-.96l-.001-.23c-.003-.816-.279-1.334-.871-1.634C2.44 7.55 2.384 7.54 2 7.54s-.44.01-.648.116c-.472.239-.763.65-.837 1.18-.023.167-.033 2.504-.024 5.949.011 5.038.02 5.704.077 5.936.341 1.388 1.345 2.389 2.722 2.711.268.063.935.068 8.71.068s8.442-.005 8.71-.068a3.7 3.7 0 0 0 1.798-1.004c.573-.6.883-1.272.971-2.111.05-.48.054-11.159.003-11.507a1.51 1.51 0 0 0-.834-1.154c-.208-.106-.264-.116-.648-.116s-.44.01-.648.116c-.592.3-.868.818-.871 1.634l-.001.23h-.96l-.001-3.73c0-2.051-.017-3.842-.037-3.98a1.51 1.51 0 0 0-.834-1.154C18.44.55 18.384.54 18 .54s-.44.01-.648.116c-.592.3-.868.818-.871 1.634l-.001.23h-.96l-.001-.23c-.003-.816-.279-1.334-.871-1.634C14.44.55 14.384.54 14 .54s-.44.01-.648.116c-.592.3-.868.818-.871 1.634l-.001.23h-.96l-.001-.23c-.003-.816-.279-1.334-.871-1.634C10.44.55 10.384.54 10 .54s-.44.01-.648.116c-.592.3-.868.818-.871 1.634l-.001.23h-.96l-.001-.23C7.516 1.475 7.24.955 6.65.657 6.455.558 6.37.541 6.042.532q-.382-.01-.526.045M16.48 7.52v2H7.52v-4h8.96zm4 8.837v3.837l-.103.122a.6.6 0 0 1-.25.163c-.09.025-.82.041-1.877.041h-1.73v-1.21c-.001-1.804-.065-2.306-.39-3.07a4.57 4.57 0 0 0-1.49-1.882c-.322-.241-1.042-.58-1.5-.707-.37-.102-.455-.11-1.14-.11-.686 0-.769.008-1.138.11-1.716.478-2.906 1.756-3.288 3.529-.045.209-.066.665-.082 1.81l-.022 1.53H5.745c-1.053 0-1.782-.016-1.872-.041a.6.6 0 0 1-.25-.163l-.103-.122V12.52h16.96zm-7.827.301c.272.138.573.445.709.722.098.2.098.203.11 1.67l.012 1.47h-2.967l.012-1.47c.011-1.47.011-1.47.109-1.67.173-.352.515-.664.878-.803q.144-.055.526-.045c.329.009.413.026.611.126"/></svg>