<svg xmlns="http://www.w3.org/2000/svg" width="24" height="24" fill="none" stroke="currentColor" stroke-linecap="round" stroke-linejoin="round" stroke-width="3"><path fill="#000" fill-rule="evenodd" stroke="none" d="M3.44 2.547A3.56 3.56 0 0 0 .552 5.388C.516 5.575.5 6.07.5 6.98V8.3l.105.248c.25.595.761.938 1.395.938.635 0 1.148-.345 1.394-.938.101-.244.103-.268.124-1.521l.022-1.274.131-.116.13-.117h16.407l.136.136.136.136v12.397l-.083.106a.7.7 0 0 1-.17.155c-.067.038-.856.055-3.367.07l-3.28.02-.228.116c-.93.471-1.133 1.673-.407 2.399.241.241.53.38.898.431.171.024 1.521.033 3.449.023 3.5-.017 3.372-.008 4.044-.282a3.6 3.6 0 0 0 1.575-1.293 3.5 3.5 0 0 0 .568-1.617c.053-.509.053-12.125 0-12.634-.154-1.464-1.103-2.61-2.526-3.052l-.293-.091-8.56-.005c-4.708-.002-8.605.003-8.66.012m-1.907 8.028c-.24.079-.416.197-.623.418-.294.314-.39.568-.394 1.035-.004.382.113.673.39.972.305.329.507.416 1.254.543 1.035.176 1.772.43 2.589.894a7 7 0 0 1 1.592 1.221c.519.52.881.992 1.224 1.597.461.813.716 1.551.892 2.585.124.733.214.944.523 1.237.384.363.843.495 1.329.382.346-.08.551-.202.803-.478.309-.338.381-.569.356-1.141-.047-1.047-.473-2.499-1.086-3.697-.507-.99-1.067-1.749-1.921-2.605a10.34 10.34 0 0 0-5.441-2.899c-.558-.11-1.257-.14-1.487-.064m-.017 4.004c-.365.134-.712.442-.86.761a1.5 1.5 0 0 0 .29 1.715c.239.243.387.317.897.446.742.188 1.259.483 1.761 1.005.459.477.707.936.895 1.654.135.517.204.656.446.894.595.587 1.528.591 2.102.009.343-.349.498-.81.43-1.283-.293-2.043-1.875-4.023-3.883-4.859-.821-.342-1.69-.485-2.078-.342m0 3.998c-1.049.399-1.349 1.701-.571 2.478.58.58 1.53.583 2.107.007a1.47 1.47 0 0 0 0-2.124c-.292-.292-.55-.395-1.012-.407-.247-.006-.431.01-.524.046"/></svg>