<svg xmlns="http://www.w3.org/2000/svg" width="24" height="24" fill="none" stroke="currentColor" stroke-linecap="round" stroke-linejoin="round" stroke-width="3"><path fill="#000" fill-rule="evenodd" stroke="none" d="M3.915 1.36c-.965.154-1.54.466-1.936 1.049-.258.381-.434 1.037-.482 1.798-.064.999.22 2.939.722 4.94l.181.721-.174.416c-.335.802-.572 1.621-.669 2.316-.065.467-.055 1.49.02 2.015.275 1.926 1.096 3.549 2.472 4.889.533.519.864.787 1.441 1.167 2.429 1.601 5.907 2.215 9.01 1.589 2.11-.425 3.957-1.358 5.361-2.708 1.589-1.528 2.475-3.409 2.616-5.555.085-1.301-.161-2.548-.773-3.926l-.102-.229.156-.651c.435-1.814.635-3.103.668-4.311.017-.642.008-.903-.041-1.203-.213-1.298-.813-1.975-1.989-2.244-.303-.069-.508-.086-1.056-.088-.746-.001-1.186.055-1.952.253-1.238.319-2.604 1.004-3.588 1.798-.167.135-.327.234-.36.224-.315-.097-1.761-.129-2.511-.056l-.456.045-.126-.118c-.342-.319-1.064-.792-1.728-1.132C7.375 1.723 6.05 1.371 4.78 1.34c-.352-.009-.741 0-.865.02m1.601 3.062c.773.146 1.712.536 2.403.996.21.139.577.437.814.661.686.646.992.736 1.893.557.413-.083.588-.095 1.354-.094.815 0 .918.009 1.4.114.917.199 1.196.117 1.908-.564.252-.242.635-.556.857-.704a6.5 6.5 0 0 1 2.974-1.053l.321-.027v.356c0 .886-.266 2.485-.706 4.236-.197.785-.219.915-.205 1.2.015.297.036.362.288.895.494 1.045.663 1.689.663 2.52-.001 2.097-1.226 3.951-3.32 5.022-1.259.644-2.598.95-4.16.949-.792-.001-1.251-.041-1.92-.171-3.374-.655-5.56-2.927-5.56-5.779 0-.81.123-1.284.631-2.436.274-.621.302-.708.319-1.002s.001-.389-.185-1.08c-.454-1.686-.802-3.663-.805-4.574v-.136l.35.025c.192.014.501.053.686.089m2 8.155c-.561.215-.918.668-1.004 1.274-.167 1.183.387 2.046 1.373 2.138.433.041.842-.112 1.163-.433.372-.372.528-.954.444-1.65-.071-.588-.349-1-.842-1.249-.195-.099-.28-.116-.608-.125q-.382-.01-.526.045m8 0c-.561.215-.918.668-1.004 1.274-.167 1.183.387 2.046 1.373 2.138.433.041.842-.112 1.163-.433.372-.372.528-.954.444-1.65-.071-.588-.349-1-.842-1.249-.195-.099-.28-.116-.608-.125q-.381-.01-.526.045m-4.736 2.256c-.61.212-1.017.766-1.019 1.387-.001.567.132.805.844 1.512.384.381.573.539.737.614.419.192.897.192 1.318-.001.169-.077.355-.233.76-.636.447-.444.559-.58.668-.811.12-.254.132-.311.132-.658 0-.329-.014-.411-.108-.609a1.7 1.7 0 0 0-.743-.743l-.229-.108-1.08-.008c-.937-.008-1.106 0-1.28.061"/></svg>