<svg xmlns="http://www.w3.org/2000/svg" width="24" height="24" fill="none" stroke="currentColor" stroke-linecap="round" stroke-linejoin="round" stroke-width="3"><path fill="#000" fill-rule="evenodd" stroke="none" d="M5.824 2.522q-1.478.165-2.561 1.201a5.3 5.3 0 0 0-.575.649c-.255.369-1.8 3.463-1.942 3.889a6 6 0 0 0-.166.633C.504 9.29.503 10.102.577 10.49a4.5 4.5 0 0 0 1.961 2.92c.133.086 1.182.628 2.332 1.203s2.09 1.059 2.09 1.074-.181.395-.403.843c-.327.662-.427.831-.53.893-.116.071-.226.078-1.317.089l-1.19.012-.001-.232c-.003-.818-.278-1.336-.871-1.636-.208-.106-.264-.116-.648-.116s-.44.01-.648.116c-.474.24-.763.65-.838 1.188-.023.165-.034 1.152-.027 2.369L.5 21.3l.105.248c.168.399.453.684.84.84.476.193 1.127.099 1.484-.213.397-.346.537-.651.576-1.25l.027-.405 1.084-.001c1.283-.001 1.732-.039 2.186-.182.395-.124.57-.208.898-.427.643-.432.912-.781 1.493-1.939.257-.512.481-.931.497-.931s.647.308 1.4.685c1.518.76 1.749.858 2.149.915.777.11 1.702-.245 2.202-.844l.19-.23.373.527c.49.693.776.974 1.203 1.183.425.208.728.284 1.131.283.699-.001 1.261-.236 1.766-.739l.325-.323 1.121-2.239c.617-1.231 1.161-2.355 1.208-2.498.195-.585.138-1.297-.148-1.879-.208-.423-.678-.895-1.09-1.095-.485-.234-.673-.266-1.584-.266h-.807l.02-.41c.042-.865-.316-1.66-.961-2.136C17.937 7.789 8.413 3 7.861 2.781c-.56-.222-1.405-.33-2.037-.259m5.503 5.325 4.668 2.33-.833 1.641c-.458.903-1.06 2.097-1.337 2.652l-.505 1.01-4.601-2.301c-3.033-1.516-4.653-2.348-4.754-2.439a1.7 1.7 0 0 1-.286-.388 1.47 1.47 0 0 1-.103-1.071c.036-.111.4-.873.808-1.692.515-1.036.786-1.536.889-1.642a1.44 1.44 0 0 1 1.147-.448c.223.016.569.182 4.907 2.348m-4.811-.27c-1.049.399-1.349 1.701-.571 2.478.58.58 1.53.583 2.107.007a1.47 1.47 0 0 0 0-2.124c-.292-.292-.55-.395-1.012-.407-.247-.006-.431.01-.524.046m12.401 7.228c-.353.707-.657 1.27-.675 1.25a67 67 0 0 1-1.018-1.424c-.066-.101-.063-.112.183-.607l.252-.504h1.901z"/></svg>