<svg xmlns="http://www.w3.org/2000/svg" width="24" height="24" fill="none" stroke="currentColor" stroke-linecap="round" stroke-linejoin="round" stroke-width="3"><path fill="#000" fill-rule="evenodd" stroke="none" d="M19.516 4.577a2.3 2.3 0 0 0-.32.163c-.097.06-2.43 2.361-5.185 5.113l-5.01 5.005-2.05-2.041C4.564 10.443 4.69 10.54 4 10.54c-.384 0-.44.01-.648.116-.754.382-1.048 1.235-.694 2.012.094.205.417.543 2.774 2.9s2.695 2.68 2.9 2.774c.433.197.902.197 1.336 0 .208-.095.808-.682 5.9-5.774s5.679-5.692 5.774-5.9c.354-.777.06-1.63-.694-2.012-.198-.101-.279-.117-.608-.125-.246-.006-.431.01-.524.046"/></svg>