<svg xmlns="http://www.w3.org/2000/svg" width="24" height="24" fill="none" stroke="currentColor" stroke-linecap="round" stroke-linejoin="round" stroke-width="3"><path fill="#000" fill-rule="evenodd" stroke="none" d="M11.24 1.539a10 10 0 0 1-.36.061c-1.588.249-3.277 1.314-4.182 2.639-.171.25-.204.278-.353.301-.709.107-1.254.273-1.803.549a5.5 5.5 0 0 0-2.968 4.002c-.085.484-.084 1.332.003 1.829.274 1.564 1.251 2.996 2.58 3.781l.318.188.015 2.765c.017 3.068.005 2.916.293 3.5.212.43.662.869 1.105 1.08.594.283.212.266 6.112.266s5.518.017 6.112-.266c.443-.211.893-.65 1.105-1.08.288-.584.276-.432.293-3.5l.015-2.766.307-.179c1.166-.678 2.072-1.866 2.462-3.229.143-.5.198-.916.198-1.5a5.46 5.46 0 0 0-2.952-4.847c-.619-.317-1.138-.48-1.885-.593-.149-.023-.182-.051-.353-.301-.881-1.29-2.416-2.282-4.062-2.626-.273-.057-1.826-.115-2-.074m1.58 3.058c1.054.253 1.878.945 2.393 2.011.162.333.426.607.733.758.254.125.282.13.948.156.575.023.725.042.926.118.408.156.669.324.96.617.484.489.708 1.039.708 1.743 0 .485-.086.818-.318 1.24a2.7 2.7 0 0 1-.95.938c-.672.364-1.031.67-1.316 1.122-.297.471-.379.788-.411 1.59l-.025.63H7.532l-.025-.63c-.032-.802-.114-1.119-.411-1.59-.285-.453-.646-.76-1.316-1.122-.563-.303-1.027-.906-1.2-1.558-.082-.311-.083-.928-.002-1.24a2.54 2.54 0 0 1 1.568-1.726c.242-.093.353-.108.96-.132.667-.026.694-.031.948-.156.307-.151.571-.425.733-.758.218-.452.389-.706.679-1.009A3.5 3.5 0 0 1 11.16 4.6c.425-.105 1.229-.106 1.66-.003m3.66 14.423v.5H7.52v-1h8.96z"/></svg>