<svg xmlns="http://www.w3.org/2000/svg" width="24" height="24" fill="none" stroke="currentColor" stroke-linecap="round" stroke-linejoin="round" stroke-width="3"><path fill="#000" fill-rule="evenodd" stroke="none" d="M11.68.535c-.445.101-.846.413-1.022.797-.052.116-.187.633-.298 1.149-.433 2.007-.725 3.18-1.085 4.359-.639 2.091-1.401 3.726-2.304 4.95-.118.159-.227.29-.243.29s-.127-.038-.248-.084c-.803-.306-1.885-.327-2.702-.054-.6.2-1.188.578-1.702 1.093-.604.607-.984 1.237-1.276 2.121-.214.645-.289 1.137-.286 1.864a6.465 6.465 0 0 0 6.466 6.465c1.814.003 3.468-.699 4.71-1.999l.31-.325.31.325a6.54 6.54 0 0 0 3.603 1.917c.59.102 1.498.11 2.063.019 2.841-.459 4.986-2.604 5.446-5.446.086-.532.086-1.443-.001-1.956-.182-1.083-.708-2.17-1.402-2.895-.972-1.018-2.15-1.482-3.456-1.361-.207.02-.382.03-.388.024a14 14 0 0 1-.19-.629 23 23 0 0 0-.342-1.072 6 6 0 0 1-.163-.492c0-.021.038-.018.087.009.048.025.295.123.55.216 1.167.429 2.379.652 3.608.666.53.005.595-.002.823-.095.396-.16.683-.447.842-.84.236-.584.064-1.602-.448-2.651-.916-1.878-2.882-3.761-5.162-4.945-1.517-.788-3.076-1.253-4.66-1.391-.849-.073-1.212-.081-1.44-.029m4.257 3.855c.627.28 1.407.752 2.072 1.255.347.262 1.538 1.421 1.5 1.459-.036.036-.577-.172-1.055-.407A7.4 7.4 0 0 1 17 5.767c-.396-.316-1.351-1.249-1.515-1.479l-.094-.133.151.063c.083.035.261.112.395.172m-2.716 2.897c.164.345.417.894.562 1.22.545 1.226 1.243 3.089 1.199 3.201-.013.034-.096.052-.238.052-.767 0-1.8.454-2.494 1.097l-.25.232-.243-.225a4.4 4.4 0 0 0-1.041-.711l-.314-.157.293-.588c.518-1.036.905-1.998 1.317-3.269.195-.6.586-1.961.589-2.047.002-.052.302.527.62 1.195m-7.699 7.566c.122.05.338.174.48.274.345.244.457.298.735.349.283.052.674.001.911-.12a4 4 0 0 0 .396-.256c.477-.351.984-.438 1.387-.237.427.213.857.856.988 1.477.078.367.077 1.025-.002 1.412-.21 1.034-.994 1.996-1.996 2.45-.864.392-2.011.384-2.887-.021-.973-.45-1.744-1.409-1.951-2.429-.079-.387-.08-1.045-.002-1.412.131-.621.561-1.264.988-1.477.274-.137.636-.14.953-.01m9.975-.011c.122.046.328.162.459.258.47.346.827.45 1.289.376.284-.046.469-.133.799-.376.477-.351.984-.438 1.387-.237.427.213.857.856.988 1.477.078.367.077 1.025-.002 1.412-.21 1.034-.994 1.996-1.996 2.45-.864.392-2.011.384-2.887-.021-.973-.45-1.744-1.409-1.951-2.429-.079-.387-.08-1.045-.002-1.412.131-.621.561-1.264.988-1.477.264-.132.611-.139.928-.021"/></svg>