<svg xmlns="http://www.w3.org/2000/svg" width="24" height="24" fill="none" stroke="currentColor" stroke-linecap="round" stroke-linejoin="round" stroke-width="3"><path fill="#000" fill-rule="evenodd" stroke="none" d="M6.516 4.577c-.555.212-.919.67-1 1.256-.023.162-.034 2.721-.027 6.369L5.5 18.3l.105.248c.25.595.761.938 1.395.938s1.145-.343 1.395-.938L8.5 18.3l.011-6.098c.007-3.648-.004-6.207-.027-6.369a1.5 1.5 0 0 0-.834-1.176c-.195-.099-.28-.116-.608-.125q-.382-.01-.526.045m10 0a2.3 2.3 0 0 0-.32.163c-.097.059-1.584 1.515-3.304 3.234-2.775 2.773-3.14 3.152-3.234 3.358a1.58 1.58 0 0 0 0 1.336c.094.206.461.587 3.274 3.4s3.194 3.18 3.4 3.274a1.502 1.502 0 0 0 2.009-2.01c-.093-.203-.414-.54-2.652-2.782L13.143 12l2.546-2.55c2.238-2.242 2.559-2.579 2.652-2.782.355-.775.061-1.63-.693-2.012-.198-.101-.279-.117-.608-.125-.246-.006-.431.01-.524.046"/></svg>