<svg xmlns="http://www.w3.org/2000/svg" width="24" height="24" fill="none" stroke="currentColor" stroke-linecap="round" stroke-linejoin="round" stroke-width="3"><path fill="#000" fill-rule="evenodd" stroke="none" d="M5.516 7.577a1.52 1.52 0 0 0-.858 2.091c.094.206.461.587 3.274 3.4s3.194 3.18 3.4 3.274c.433.197.903.197 1.336 0 .206-.094.587-.461 3.4-3.274s3.18-3.194 3.274-3.4c.354-.777.06-1.63-.694-2.012-.208-.106-.264-.116-.648-.116-.701 0-.504-.158-3.45 2.777L12 12.857l-2.55-2.54c-2.916-2.905-2.751-2.77-3.41-2.786-.246-.006-.431.01-.524.046"/></svg>