<svg xmlns="http://www.w3.org/2000/svg" width="24" height="24" fill="none" stroke="currentColor" stroke-linecap="round" stroke-linejoin="round" stroke-width="3"><path fill="#000" fill-rule="evenodd" stroke="none" d="M6.516 4.577a1.52 1.52 0 0 0-.858 2.091c.094.205.417.543 2.774 2.9s2.695 2.68 2.9 2.774c.433.197.903.197 1.336 0 .205-.094.543-.417 2.9-2.774s2.68-2.695 2.774-2.9c.354-.777.06-1.63-.694-2.012-.208-.106-.264-.116-.648-.116-.69 0-.565-.097-2.95 2.277L12 8.857l-2.05-2.04C7.592 4.47 7.689 4.546 7.04 4.531c-.246-.006-.431.01-.524.046m0 7a1.52 1.52 0 0 0-.858 2.091c.094.205.417.543 2.774 2.9s2.695 2.68 2.9 2.774c.433.197.903.197 1.336 0 .205-.094.543-.417 2.9-2.774s2.68-2.695 2.774-2.9c.354-.777.06-1.63-.694-2.012-.208-.106-.264-.116-.648-.116-.69 0-.565-.097-2.95 2.277L12 15.857l-2.05-2.04c-2.358-2.347-2.261-2.271-2.91-2.286-.246-.006-.431.01-.524.046"/></svg>