<svg xmlns="http://www.w3.org/2000/svg" width="24" height="24" fill="none" stroke="currentColor" stroke-linecap="round" stroke-linejoin="round" stroke-width="3"><path fill="#000" fill-rule="evenodd" stroke="none" d="M11.516 7.577a2.3 2.3 0 0 0-.32.163c-.097.059-1.584 1.515-3.304 3.234-2.775 2.773-3.14 3.152-3.234 3.358a1.502 1.502 0 0 0 2.01 2.009c.203-.093.54-.414 2.782-2.652L12 11.143l2.55 2.546c2.242 2.238 2.579 2.559 2.782 2.652a1.502 1.502 0 0 0 2.01-2.009c-.094-.206-.458-.584-3.274-3.394-3.606-3.6-3.359-3.391-4.028-3.407-.246-.006-.431.01-.524.046"/></svg>