<svg xmlns="http://www.w3.org/2000/svg" width="24" height="24" fill="none" stroke="currentColor" stroke-linecap="round" stroke-linejoin="round" stroke-width="3"><path fill="#000" fill-rule="evenodd" stroke="none" d="M10.516 5.577a2.3 2.3 0 0 0-.32.163c-.097.059-1.359 1.29-2.804 2.734-2.319 2.318-2.64 2.653-2.734 2.858a1.58 1.58 0 0 0 0 1.336c.094.205.417.543 2.774 2.9s2.695 2.68 2.9 2.774a1.503 1.503 0 0 0 2.01-2.009c-.092-.2-.372-.498-2.152-2.282L8.143 12l2.047-2.051c1.78-1.784 2.06-2.082 2.152-2.282.354-.774.06-1.63-.694-2.011-.198-.101-.279-.117-.608-.125-.246-.006-.431.01-.524.046m7 0a2.3 2.3 0 0 0-.32.163c-.097.059-1.359 1.29-2.804 2.734-2.319 2.318-2.64 2.653-2.734 2.858a1.58 1.58 0 0 0 0 1.336c.094.205.417.543 2.774 2.9s2.695 2.68 2.9 2.774a1.503 1.503 0 0 0 2.01-2.009c-.092-.2-.372-.498-2.152-2.282L15.143 12l2.047-2.051c1.78-1.784 2.06-2.082 2.152-2.282.354-.774.06-1.63-.694-2.011-.198-.101-.279-.117-.608-.125-.246-.006-.431.01-.524.046"/></svg>