<svg xmlns="http://www.w3.org/2000/svg" width="24" height="24" fill="none" stroke="currentColor" stroke-linecap="round" stroke-linejoin="round" stroke-width="3"><path fill="#000" fill-rule="evenodd" stroke="none" d="M11.516 4.577a2.3 2.3 0 0 0-.32.163c-.097.059-1.359 1.29-2.804 2.734-2.319 2.318-2.64 2.653-2.734 2.858a1.503 1.503 0 0 0 2.009 2.01c.2-.092.498-.372 2.282-2.152L12 8.143l2.051 2.047c1.784 1.78 2.082 2.06 2.282 2.152a1.503 1.503 0 0 0 2.009-2.01c-.094-.205-.414-.539-2.774-2.894-3.046-3.04-2.862-2.888-3.526-2.906q-.382-.01-.526.045m0 7a2.3 2.3 0 0 0-.32.163c-.097.059-1.359 1.29-2.804 2.734-2.319 2.318-2.64 2.653-2.734 2.858a1.503 1.503 0 0 0 2.009 2.01c.2-.092.498-.372 2.282-2.152L12 15.143l2.051 2.047c1.784 1.78 2.082 2.06 2.282 2.152a1.503 1.503 0 0 0 2.009-2.01c-.094-.205-.414-.539-2.774-2.894-3.048-3.042-2.865-2.891-3.528-2.907-.246-.006-.431.01-.524.046"/></svg>