<svg xmlns="http://www.w3.org/2000/svg" width="24" height="24" fill="none" stroke="currentColor" stroke-linecap="round" stroke-linejoin="round" stroke-width="3"><path fill="#000" fill-rule="evenodd" stroke="none" d="M6.516 4.577a1.52 1.52 0 0 0-.857 2.091c.093.203.414.54 2.652 2.782L10.857 12l-2.546 2.55c-2.238 2.242-2.559 2.579-2.652 2.782a1.502 1.502 0 0 0 2.009 2.01c.206-.094.587-.461 3.4-3.274s3.18-3.194 3.274-3.4a1.58 1.58 0 0 0 0-1.336c-.094-.206-.458-.584-3.274-3.394-3.606-3.6-3.359-3.391-4.028-3.407-.246-.006-.431.01-.524.046m10 0c-.555.212-.919.67-1 1.256-.023.162-.034 2.721-.027 6.369L15.5 18.3l.105.248c.25.595.761.938 1.395.938s1.145-.343 1.395-.938l.105-.248.011-6.098c.007-3.648-.004-6.207-.027-6.369a1.5 1.5 0 0 0-.834-1.176c-.195-.099-.28-.116-.608-.125-.253-.007-.431.008-.526.045"/></svg>