<svg xmlns="http://www.w3.org/2000/svg" width="24" height="24" fill="none" stroke="currentColor" stroke-linecap="round" stroke-linejoin="round" stroke-width="3"><path fill="#000" fill-rule="evenodd" stroke="none" d="M5.516 5.577a1.52 1.52 0 0 0-.858 2.09c.092.2.372.498 2.152 2.282L8.857 12 6.81 14.051c-1.78 1.784-2.06 2.082-2.152 2.282a1.503 1.503 0 0 0 2.01 2.009c.205-.094.543-.417 2.9-2.774 2.902-2.902 2.838-2.828 2.909-3.35a1.63 1.63 0 0 0-.135-.886c-.094-.205-.414-.539-2.774-2.894C6.52 5.396 6.703 5.547 6.04 5.531c-.246-.006-.431.01-.524.046m7 0a1.52 1.52 0 0 0-.858 2.09c.092.2.372.498 2.152 2.282L15.857 12l-2.047 2.051c-1.78 1.784-2.06 2.082-2.152 2.282a1.503 1.503 0 0 0 2.01 2.009c.205-.094.543-.417 2.9-2.774 2.902-2.902 2.838-2.828 2.909-3.35a1.63 1.63 0 0 0-.135-.886c-.094-.205-.414-.539-2.774-2.894-3.048-3.042-2.865-2.891-3.528-2.907-.246-.006-.431.01-.524.046"/></svg>