<svg xmlns="http://www.w3.org/2000/svg" width="24" height="24" fill="none" stroke="currentColor" stroke-linecap="round" stroke-linejoin="round" stroke-width="3"><path fill="#000" fill-rule="evenodd" stroke="none" d="M11.516 2.577a2.3 2.3 0 0 0-.32.163c-.097.059-1.359 1.29-2.804 2.734-2.319 2.318-2.64 2.653-2.734 2.858a1.503 1.503 0 0 0 2.009 2.01c.2-.092.498-.372 2.282-2.152L12 6.143l2.051 2.047c1.784 1.78 2.082 2.06 2.282 2.152a1.503 1.503 0 0 0 2.009-2.01c-.094-.205-.414-.539-2.774-2.894-3.048-3.042-2.865-2.891-3.528-2.907-.246-.006-.431.01-.524.046m-5 11a1.52 1.52 0 0 0-.858 2.091c.094.205.417.543 2.774 2.9s2.695 2.68 2.9 2.774c.433.197.903.197 1.336 0 .205-.094.543-.417 2.9-2.774s2.68-2.695 2.774-2.9c.354-.777.06-1.63-.694-2.012-.208-.106-.264-.116-.648-.116-.69 0-.565-.097-2.95 2.277L12 17.857l-2.05-2.04c-2.358-2.347-2.261-2.271-2.91-2.286-.246-.006-.431.01-.524.046"/></svg>