<svg xmlns="http://www.w3.org/2000/svg" width="24" height="24" fill="none" stroke="currentColor" stroke-linecap="round" stroke-linejoin="round" stroke-width="3"><path fill="#000" fill-rule="evenodd" stroke="none" d="M10.82.563A11.515 11.515 0 0 0 .739 9.671a11.8 11.8 0 0 0 0 4.658 11.53 11.53 0 0 0 8.801 8.906c1.584.345 3.35.346 4.92.001 4.422-.971 7.89-4.481 8.801-8.907a11.9 11.9 0 0 0 .016-4.589c-.932-4.665-4.69-8.303-9.377-9.077-.846-.14-2.244-.185-3.08-.1m2.6 3.054a8.64 8.64 0 0 1 3.799 1.677c.356.27 1.221 1.108 1.221 1.182 0 .037-.818.046-3.47.042-3.778-.006-3.755-.007-4.559.226-1.077.312-2.157 1.071-2.829 1.987L7.384 9l-.19-.33-.809-1.39-.618-1.06.366-.356a8.2 8.2 0 0 1 1.974-1.415c.933-.479 1.766-.731 2.993-.905.306-.043 1.974.01 2.32.073M5.719 12.12c.907 1.573 1.75 2.995 1.873 3.16s.361.437.527.604a5.6 5.6 0 0 0 3.185 1.566l.404.05-.776 1.34-.807 1.394c-.066.109-1.191-.265-1.967-.655a8 8 0 0 1-2.14-1.559c-1.289-1.285-2.059-2.763-2.406-4.62-.056-.304-.07-.587-.069-1.42.002-1.144.037-1.414.299-2.361.104-.376.138-.455.179-.412.027.029.791 1.34 1.698 2.913m7.098-2.487a2.65 2.65 0 0 1 1.553 1.55c.076.205.088.316.088.817 0 .496-.012.613-.086.809-.231.618-.718 1.167-1.266 1.428-.411.195-.661.253-1.106.253s-.695-.058-1.106-.253c-.552-.263-1.061-.844-1.275-1.457-.092-.264-.125-.981-.06-1.31.171-.872.938-1.674 1.812-1.895.328-.083 1.149-.05 1.446.058m7.429.329c.318 1.262.314 2.807-.01 4.116-.37 1.495-1.127 2.819-2.254 3.942a8.1 8.1 0 0 1-2.962 1.92c-.423.163-1.394.438-1.456.412-.016-.006.678-1.236 1.544-2.732s1.666-2.899 1.777-3.117a5.5 5.5 0 0 0 .339-4.194 6 6 0 0 0-.221-.583 1 1 0 0 1-.083-.185c0-.012.725-.017 1.61-.011l1.61.01z"/></svg>