<svg xmlns="http://www.w3.org/2000/svg" width="24" height="24" fill="none" stroke="currentColor" stroke-linecap="round" stroke-linejoin="round" stroke-width="3"><path fill="#000" fill-rule="evenodd" stroke="none" d="M11.256.817c-.413.094-.718.235-3.233 1.494l-2.438 1.22-.327.325c-.266.263-.358.388-.489.664-.188.394-.239.611-.275 1.163l-.026.4-1.444.727-1.444.726-.325.322c-.262.26-.356.387-.487.662a3.5 3.5 0 0 0-.215.58C.476 9.446.475 20.207.552 20.612c.221 1.168 1.036 2.177 2.116 2.617.719.293-.04.271 9.332.271 7.775 0 8.442-.005 8.71-.068 1.298-.303 2.276-1.216 2.65-2.47.155-.521.164-.909.151-6.402-.014-5.915.009-5.448-.297-6.08-.11-.227-.224-.378-.47-.622l-.324-.322-1.444-.726-1.444-.727-.027-.417c-.053-.825-.257-1.308-.765-1.812l-.328-.325-2.518-1.261C14.44 1.541 13.233.962 13.038.899c-.295-.096-.415-.112-.938-.124-.412-.009-.676.004-.844.042m3.074 4.029 2.15 1.074v14.6h-.96l-.001-1.23c0-1.336-.036-1.837-.16-2.254a3.52 3.52 0 0 0-2.427-2.406c-.264-.076-.407-.09-.932-.09s-.668.014-.932.09a3.56 3.56 0 0 0-2.496 2.649c-.046.198-.066.62-.081 1.751l-.02 1.49H7.52V5.92l2.13-1.066c1.172-.586 2.175-1.079 2.23-1.095a.5.5 0 0 1 .2-.009c.055.012 1.068.505 2.25 1.096m-2.814.731c-.371.142-.711.446-.864.773-.106.228-.17.576-.171.937l-.001.226-.45.014c-.402.012-.474.025-.678.129-.93.471-1.133 1.673-.407 2.399.316.316.731.462 1.32.464l.205.001.018.89c.016.842.023.904.119 1.138.243.592.758.938 1.393.938s1.15-.346 1.393-.938c.096-.234.103-.296.119-1.138l.018-.89.205-.001c.589-.002 1.004-.148 1.32-.464.726-.726.522-1.929-.407-2.399-.203-.103-.277-.117-.678-.13l-.45-.015-.001-.225c-.003-.811-.28-1.331-.869-1.629-.195-.099-.28-.116-.608-.125q-.382-.01-.526.045M4.48 14.98v5.54h-.23c-.32-.001-.507-.062-.627-.204l-.103-.122V9.921l.47-.239c.258-.131.475-.239.48-.24s.01 2.491.01 5.538m16 .077v5.137l-.103.122c-.12.142-.307.203-.627.204h-.23V9.439l.48.241.48.241zm-8.136 2.599.136.136v2.728h-.96v-2.728l.136-.136c.12-.12.161-.136.344-.136s.224.016.344.136"/></svg>