<svg xmlns="http://www.w3.org/2000/svg" width="24" height="24" fill="none" stroke="currentColor" stroke-linecap="round" stroke-linejoin="round" stroke-width="3"><path fill="#000" fill-rule="evenodd" stroke="none" d="M15.516 1.577c-.419.16-.769.5-.916.89-.166.439-.098 1.369.156 2.129.213.633.38.92 1.102 1.884.55.735.573.79.656 1.604.043.428.168.708.431.971.762.762 2.075.483 2.455-.522.166-.439.098-1.369-.156-2.129-.213-.633-.38-.92-1.102-1.884-.55-.735-.573-.79-.656-1.604-.06-.592-.334-1.005-.836-1.259-.195-.099-.28-.116-.608-.125q-.381-.01-.526.045m4 0c-.419.16-.769.5-.916.89-.166.439-.098 1.369.156 2.129.213.633.38.92 1.102 1.884.55.735.573.79.656 1.604.043.428.168.708.431.971.762.762 2.075.483 2.455-.522.166-.439.098-1.369-.156-2.129-.213-.633-.38-.92-1.102-1.884-.55-.735-.573-.79-.656-1.604-.06-.592-.334-1.005-.836-1.259-.195-.099-.28-.116-.608-.125-.253-.007-.431.008-.526.045M4.22 10.52l-2.64.02-.228.116c-.474.24-.763.65-.838 1.188-.023.165-.034 1.152-.027 2.369L.5 16.3l.105.248q.25.597.847.847l.248.105 8.1.011c4.859.006 8.207-.004 8.368-.027.859-.119 1.424-.854 1.309-1.702a1.51 1.51 0 0 0-.829-1.126l-.228-.116-4.95-.011-4.95-.01v-.999l4.71-.001c2.591 0 4.822-.017 4.96-.037a1.494 1.494 0 0 0 1.287-1.7 1.51 1.51 0 0 0-.829-1.126l-.228-.116-1.8-.01c-4.341-.024-9.965-.028-12.4-.01m17.296.057c-.559.214-.919.67-1.002 1.267-.023.165-.034 1.152-.027 2.369L20.5 16.3l.105.248c.25.595.761.938 1.395.938s1.145-.343 1.395-.938l.105-.248.013-2.087c.007-1.217-.004-2.204-.027-2.369-.075-.537-.364-.948-.836-1.187-.195-.099-.28-.116-.608-.125-.253-.007-.431.008-.526.045M5.48 14.02v.5H3.52v-1h1.96z"/></svg>