<svg xmlns="http://www.w3.org/2000/svg" width="24" height="24" fill="none" stroke="currentColor" stroke-linecap="round" stroke-linejoin="round" stroke-width="3"><path fill="#000" fill-rule="evenodd" stroke="none" d="M1.516.577C.655.907.276 1.831.658 2.668c.095.207.524.65 3.91 4.039l3.804 3.807-3.343.004c-3.598.004-3.473-.003-3.814.213q-.599.379-.701 1.113c-.023.165-.034 1.152-.027 2.369L.5 16.3l.105.248q.25.597.847.847l.248.105 6.84.011 6.839.011 2.861 2.857c2.525 2.522 2.887 2.869 3.092 2.962a1.502 1.502 0 0 0 2.01-2.009c-.095-.21-1.076-1.202-10.274-10.395C1.635-.49 2.738.551 2.042.532c-.253-.007-.431.008-.526.045m14 1c-.419.16-.769.5-.916.89-.166.439-.098 1.369.156 2.129.213.633.38.92 1.102 1.884.55.735.573.79.656 1.604.043.428.168.708.431.971.762.762 2.075.483 2.455-.522.166-.439.098-1.369-.156-2.129-.213-.633-.38-.92-1.102-1.884-.55-.735-.573-.79-.656-1.604-.06-.592-.334-1.005-.836-1.259-.195-.099-.28-.116-.608-.125q-.381-.01-.526.045m4 0c-.419.16-.769.5-.916.89-.166.439-.098 1.369.156 2.129.213.633.38.92 1.102 1.884.55.735.573.79.656 1.604.043.428.168.708.431.971.762.762 2.075.483 2.455-.522.166-.439.098-1.369-.156-2.129-.213-.633-.38-.92-1.102-1.884-.55-.735-.573-.79-.656-1.604-.06-.592-.334-1.005-.836-1.259-.195-.099-.28-.116-.608-.125-.253-.007-.431.008-.526.045m-2.567 9.038c-1.072.449-1.281 1.836-.382 2.546.262.208.558.311.98.34.682.048 1.154-.091 1.508-.446.726-.726.523-1.928-.407-2.399-.218-.111-.254-.116-.848-.127-.579-.01-.635-.004-.851.086m4.567-.038c-.559.214-.919.67-1.002 1.267-.023.165-.034 1.152-.027 2.369L20.5 16.3l.105.248c.25.595.761.938 1.395.938s1.145-.343 1.395-.938l.105-.248.013-2.087c.007-1.217-.004-2.204-.027-2.369-.075-.537-.364-.948-.836-1.187-.195-.099-.28-.116-.608-.125-.253-.007-.431.008-.526.045M5.48 14.02v.5H3.52v-1h1.96zm6.4 0 .499.5H8.52v-1h2.861z"/></svg>