<svg xmlns="http://www.w3.org/2000/svg" width="24" height="24" fill="none" stroke="currentColor" stroke-linecap="round" stroke-linejoin="round" stroke-width="3"><path fill="#000" fill-rule="evenodd" stroke="none" d="M11.38.543C8.472.752 5.989 1.828 4.005 3.739 2.141 5.534.968 7.844.573 10.5c-.1.674-.1 2.358.001 3.04.37 2.506 1.41 4.662 3.106 6.436 1.789 1.871 4.117 3.056 6.78 3.45.688.102 2.369.101 3.04-.001 2.643-.404 4.787-1.469 6.604-3.282a10.8 10.8 0 0 0 2.178-3.043 11.27 11.27 0 0 0 1.184-5.36c-.039-1.377-.236-2.408-.708-3.712-.265-.733-.751-1.105-1.446-1.107-.692-.002-1.234.394-1.439 1.053-.112.359-.095.585.088 1.128.546 1.619.649 3.029.335 4.611-.253 1.275-.861 2.574-1.697 3.627-1.095 1.378-2.647 2.396-4.39 2.879-.776.215-1.239.274-2.189.277-.554.002-.999-.016-1.2-.049-1.967-.324-3.517-1.101-4.84-2.426A8.485 8.485 0 0 1 5.057 7.1C6.51 5.057 8.779 3.774 11.32 3.557c1.163-.099 2.317.056 3.578.482.531.179.758.199 1.105.097.579-.169.978-.627 1.077-1.236.047-.287-.004-.565-.161-.886-.209-.428-.525-.642-1.339-.905a10.5 10.5 0 0 0-2.143-.488C12.947.559 11.77.515 11.38.543m7.136 3.034c-.08.03-.224.104-.32.164-.097.059-1.268 1.197-2.602 2.529l-2.426 2.421-.294-.076c-.446-.114-1.383-.106-1.806.016-1.287.371-2.274 1.445-2.509 2.733-.06.328-.06.944 0 1.272a3.56 3.56 0 0 0 2.109 2.593c.451.184.832.258 1.332.258.933 0 1.747-.328 2.428-.979a3.51 3.51 0 0 0 .947-3.42l-.068-.252 2.464-2.469c2.163-2.166 2.478-2.496 2.571-2.699.354-.775.06-1.63-.694-2.012-.198-.101-.279-.117-.608-.125-.246-.006-.431.01-.524.046m-6.175 8.082c.121.121.139.164.139.337 0 .344-.29.57-.617.48-.214-.059-.343-.241-.343-.483 0-.175.017-.218.136-.337s.161-.136.341-.136.222.016.344.139"/></svg>