<svg xmlns="http://www.w3.org/2000/svg" width="24" height="24" fill="none" stroke="currentColor" stroke-linecap="round" stroke-linejoin="round" stroke-width="3"><path fill="#000" fill-rule="evenodd" stroke="none" d="M10.82.563A11.515 11.515 0 0 0 .739 9.671a11.8 11.8 0 0 0 0 4.658 11.52 11.52 0 0 0 8.932 8.932c1.501.309 3.157.309 4.658 0a11.53 11.53 0 0 0 8.932-8.932 11.8 11.8 0 0 0 0-4.658C22.306 5.036 18.563 1.433 13.9.663c-.846-.14-2.244-.185-3.08-.1m2.6 3.054c2.416.447 4.406 1.764 5.73 3.791 1.617 2.478 1.777 5.808.406 8.476a8.75 8.75 0 0 1-3.078 3.344c-.929.579-2.156 1.023-3.298 1.194-.591.088-1.769.088-2.36 0-1.86-.279-3.49-1.094-4.802-2.402-1.289-1.285-2.06-2.766-2.405-4.62-.102-.545-.102-2.255 0-2.8.455-2.445 1.759-4.421 3.795-5.75 1.057-.69 2.201-1.094 3.692-1.306.306-.043 1.974.01 2.32.073m-4.904 3.96a1.52 1.52 0 0 0-.86 2.085c.084.185.289.413 1.15 1.282L9.854 12l-1.048 1.056c-1.131 1.141-1.22 1.261-1.283 1.726-.162 1.197 1.032 2.069 2.139 1.562.185-.084.413-.289 1.282-1.15L12 14.146l1.056 1.048c.869.861 1.097 1.066 1.282 1.15 1.107.507 2.301-.365 2.139-1.562-.063-.465-.152-.585-1.283-1.726L14.146 12l1.048-1.056c.861-.869 1.066-1.097 1.15-1.282.352-.769.055-1.626-.696-2.006-.208-.106-.264-.116-.648-.116-.647 0-.68.022-1.95 1.276L12 9.854l-1.05-1.038C9.703 7.584 9.646 7.545 9.04 7.531c-.246-.006-.431.01-.524.046"/></svg>