<svg xmlns="http://www.w3.org/2000/svg" width="24" height="24" fill="none" stroke="currentColor" stroke-linecap="round" stroke-linejoin="round" stroke-width="3"><path fill="#000" fill-rule="evenodd" stroke="none" d="m10.6 1.52-6.26.021-.293.09C2.745 2.034 1.8 3.078 1.552 4.388c-.076.399-.076 14.825 0 15.224.221 1.168 1.036 2.177 2.116 2.617.716.292.076.271 8.332.271 6.835 0 7.443-.005 7.71-.068a3.7 3.7 0 0 0 1.798-1.004c.573-.6.883-1.272.971-2.111.054-.511.054-14.123 0-14.634-.087-.83-.396-1.506-.957-2.098a3.67 3.67 0 0 0-1.569-.948c-.472-.137-1.022-.144-9.353-.117m4.88 4.337v1.337l-.103.122a.6.6 0 0 1-.25.163c-.087.024-.712.041-1.534.041h-1.388l-.226-.346q-.764-1.171-2.047-1.544c-.264-.076-.407-.09-.932-.09s-.668.014-.932.09c-1.289.374-2.274 1.447-2.509 2.734-.06.328-.06.944 0 1.272.164.898.732 1.752 1.518 2.283.313.212.822.424 1.213.507a4.3 4.3 0 0 0 1.42 0 3.6 3.6 0 0 0 2.267-1.594l.192-.304 1.645-.019c1.811-.021 1.91-.032 2.519-.28a3.51 3.51 0 0 0 2.026-2.265c.123-.415.16-.918.16-2.234l.001-1.21h.344c.338 0 .346.002.48.136l.136.136v14.402l-.103.122a.6.6 0 0 1-.25.163c-.097.027-1.933.041-5.377.041H8.52v-2.728l.136-.136.136-.136h3.034l.195.308a3.6 3.6 0 0 0 1.643 1.399c.455.186.835.26 1.336.26.933 0 1.747-.328 2.428-.979a3.49 3.49 0 0 0 1.047-2.854c-.146-1.436-1.138-2.617-2.543-3.024-.264-.076-.407-.09-.932-.09s-.668.014-.932.09c-.853.248-1.539.764-2.046 1.541l-.224.344-1.729.015c-1.65.013-1.742.018-2.022.103a3.57 3.57 0 0 0-2.475 2.646c-.046.198-.066.62-.081 1.751l-.02 1.49h-.225c-.316-.001-.504-.062-.623-.204l-.103-.122V4.792l.136-.136.136-.136H15.48zM9.344 8.656c.119.119.136.162.136.337 0 .157-.022.227-.103.323a.5.5 0 0 1-.514.16c-.214-.059-.343-.241-.343-.483 0-.175.017-.218.136-.337S8.817 8.52 9 8.52s.224.016.344.136m6 6c.119.119.136.162.136.337 0 .242-.129.424-.343.483a.5.5 0 0 1-.514-.16c-.081-.096-.103-.166-.103-.323 0-.175.017-.218.136-.337s.161-.136.344-.136.224.016.344.136"/></svg>