<svg xmlns="http://www.w3.org/2000/svg" width="24" height="24" fill="none" stroke="currentColor" stroke-linecap="round" stroke-linejoin="round" stroke-width="3"><path fill="#000" fill-rule="evenodd" stroke="none" d="M10.82.563A11.515 11.515 0 0 0 .739 9.671a11.8 11.8 0 0 0 0 4.658 11.52 11.52 0 0 0 8.932 8.932c1.501.309 3.157.309 4.658 0a11.53 11.53 0 0 0 8.932-8.932 11.8 11.8 0 0 0 0-4.658C22.306 5.036 18.563 1.433 13.9.663c-.846-.14-2.244-.185-3.08-.1m2.6 3.054c2.416.447 4.406 1.764 5.73 3.791 1.631 2.499 1.778 5.857.375 8.532a10 10 0 0 1-.386.673l-.154.232-1.63-1.63-1.63-1.629.188-.163a4.4 4.4 0 0 0 1.217-1.663 4.49 4.49 0 0 0-.555-4.483 5.8 5.8 0 0 0-.935-.919c-.311-.233-1.033-.577-1.48-.705l-.38-.109-2.535-.014c-2.778-.015-2.699-.021-3.061.223l-.174.118-.427-.428-.427-.429.231-.154a10.4 10.4 0 0 1 1.521-.776c.62-.246 1.301-.413 2.192-.54.306-.043 1.974.01 2.32.073m3.399 15.384c-.029.048-.676.429-1.018.6a9.2 9.2 0 0 1-2.621.821c-.591.088-1.769.088-2.36 0-1.86-.279-3.49-1.094-4.802-2.402-1.289-1.285-2.06-2.766-2.405-4.62-.102-.545-.102-2.255 0-2.8.219-1.179.673-2.348 1.248-3.213l.154-.232 5.91 5.91c3.251 3.251 5.903 5.922 5.894 5.936M13.62 8.638c.278.136.584.438.723.711.107.212.117.266.117.651 0 .384-.01.44-.116.648-.134.265-.416.564-.64.68l-.156.08-1.444-1.445-1.444-1.446 1.38.012c1.372.011 1.381.012 1.58.109m-4.983 4.577c-.444.095-.853.462-1.044.935-.091.226-.093.255-.093 1.69v1.46l.105.248c.25.595.761.938 1.395.938s1.145-.343 1.395-.938l.105-.248v-1.46c0-1.434-.002-1.464-.093-1.69-.195-.483-.6-.84-1.063-.937a1.36 1.36 0 0 0-.707.002"/></svg>