<svg xmlns="http://www.w3.org/2000/svg" width="24" height="24" fill="none" stroke="currentColor" stroke-linecap="round" stroke-linejoin="round" stroke-width="3"><path fill="#000" fill-rule="evenodd" stroke="none" d="M11.516.579c-.364.134-.71.443-.864.773-.37.789.008 1.745.808 2.045.175.065.383.093.91.124 1.373.078 2.353.334 3.483.909 2.394 1.217 4.019 3.421 4.535 6.149.083.442.116 1.869.054 2.371-.218 1.76-.842 3.198-1.985 4.57-.402.483-.539.747-.567 1.095a1.483 1.483 0 0 0 1.395 1.617c.579.034.944-.16 1.465-.777 2.599-3.079 3.415-7.186 2.185-10.992a11.45 11.45 0 0 0-4.531-6.002C16.554 1.222 14.295.514 12.22.523c-.361.002-.611.022-.704.056m-6.44 2.374c-.321.107-.528.264-1.132.859-.592.582-.714.769-.783 1.199-.046.293-.009.57.116.852.11.249.453.597.714.724.403.197 1.042.169 1.409-.062.055-.035.381-.331.725-.658.677-.643.799-.817.88-1.255.115-.62-.238-1.292-.825-1.572-.339-.162-.775-.196-1.104-.087m6.44 3.624a1.54 1.54 0 0 0-.998 1.233c-.02.138-.037.803-.037 1.479l-.001 1.228-1.45.012-1.45.011-.228.116a1.51 1.51 0 0 0-.829 1.126 1.494 1.494 0 0 0 1.287 1.7c.138.02.793.037 1.456.037l1.207.001.014 1.39.015 1.39.104.248c.248.594.76.938 1.394.938s1.146-.344 1.394-.938l.104-.248.015-1.39.014-1.39 1.207-.001c.663 0 1.318-.017 1.456-.037a1.494 1.494 0 0 0 1.287-1.7 1.51 1.51 0 0 0-.829-1.126l-.228-.116-1.45-.012-1.45-.012-.001-1.228c0-.675-.017-1.34-.037-1.478a1.51 1.51 0 0 0-.832-1.153c-.195-.099-.28-.116-.608-.125q-.382-.01-.526.045M2.237 7.4c-.414.07-.878.411-1.056.774C.988 8.569.714 9.666.599 10.5c-.072.528-.109 1.364-.071 1.608.05.319.155.536.373.769.344.367.695.505 1.212.475.381-.022.622-.128.91-.399.299-.282.423-.556.465-1.027.119-1.356.159-1.601.394-2.443.108-.386.125-.5.105-.731a1.495 1.495 0 0 0-1.273-1.35 3 3 0 0 0-.274-.037zm.074 7.196a1.53 1.53 0 0 0-.95 1.117c-.093.393 0 .74.413 1.553a11 11 0 0 0 2.043 2.8c.611.614.805.744 1.209.808.608.098 1.286-.238 1.564-.774.17-.328.211-.748.106-1.103-.096-.326-.186-.452-.715-.997-.762-.785-1.142-1.325-1.654-2.345-.312-.625-.487-.825-.88-1.008-.303-.142-.849-.166-1.136-.051m13.569 4.99-.46.194c-1.18.497-2.19.708-3.4.707-.994 0-1.661-.109-2.855-.467-.388-.116-.625-.125-.926-.036-1.166.346-1.474 1.832-.538 2.599.203.167.8.39 1.536.576 2.279.576 4.698.418 6.954-.453.667-.258.954-.419 1.18-.663.436-.472.521-1.23.196-1.763a1.8 1.8 0 0 0-.627-.571c-.211-.109-.286-.125-.62-.136-.209-.006-.407 0-.44.013"/></svg>