<svg xmlns="http://www.w3.org/2000/svg" width="24" height="24" fill="none" stroke="currentColor" stroke-linecap="round" stroke-linejoin="round" stroke-width="3"><path fill="#000" fill-rule="evenodd" stroke="none" d="M10.82.563A11.515 11.515 0 0 0 .739 9.671a11.8 11.8 0 0 0 0 4.658 11.52 11.52 0 0 0 8.932 8.932c1.501.309 3.157.309 4.658 0a11.53 11.53 0 0 0 8.932-8.932 11.8 11.8 0 0 0 0-4.658C22.306 5.036 18.563 1.433 13.9.663c-.846-.14-2.244-.185-3.08-.1m2.6 3.054c2.416.447 4.406 1.764 5.73 3.791 1.617 2.478 1.777 5.808.406 8.476a8.75 8.75 0 0 1-3.078 3.344c-.929.579-2.156 1.023-3.298 1.194-.591.088-1.769.088-2.36 0-1.86-.279-3.49-1.094-4.802-2.402-1.289-1.285-2.06-2.766-2.405-4.62-.102-.545-.102-2.255 0-2.8.455-2.445 1.759-4.421 3.795-5.75 1.057-.69 2.201-1.094 3.692-1.306.306-.043 1.974.01 2.32.073m-1.904 2.96a2.3 2.3 0 0 0-.32.163c-.097.06-1.133 1.065-2.302 2.234-1.654 1.654-2.149 2.172-2.228 2.332a1.6 1.6 0 0 0-.001 1.388c.08.161.58.684 2.269 2.374 1.899 1.901 2.195 2.181 2.398 2.274 1.114.509 2.308-.36 2.145-1.56-.06-.441-.171-.6-1.021-1.462l-.789-.8 2.137-.001c1.175 0 2.248-.017 2.386-.037a1.494 1.494 0 0 0 1.287-1.7 1.51 1.51 0 0 0-.829-1.126l-.228-.116-2.395-.011-2.395-.011.807-.819c.639-.648.828-.864.909-1.04a1.505 1.505 0 0 0-.698-2.003c-.198-.101-.279-.117-.608-.125-.246-.006-.431.01-.524.046"/></svg>