<svg xmlns="http://www.w3.org/2000/svg" width="24" height="24" fill="none" stroke="currentColor" stroke-linecap="round" stroke-linejoin="round" stroke-width="3"><path fill="#000" fill-rule="evenodd" stroke="none" d="M10.82.563A11.515 11.515 0 0 0 .739 9.671a11.8 11.8 0 0 0 0 4.658 11.52 11.52 0 0 0 8.932 8.932c1.501.309 3.157.309 4.658 0a11.53 11.53 0 0 0 8.932-8.932 11.8 11.8 0 0 0 0-4.658C22.306 5.036 18.563 1.433 13.9.663c-.846-.14-2.244-.185-3.08-.1m2.6 3.054c2.416.447 4.406 1.764 5.73 3.791 1.617 2.478 1.777 5.808.406 8.476a8.75 8.75 0 0 1-3.078 3.344c-.929.579-2.156 1.023-3.298 1.194-.591.088-1.769.088-2.36 0-1.86-.279-3.49-1.094-4.802-2.402-1.289-1.285-2.06-2.766-2.405-4.62-.102-.545-.102-2.255 0-2.8.455-2.445 1.759-4.421 3.795-5.75 1.057-.69 2.201-1.094 3.692-1.306.306-.043 1.974.01 2.32.073M8.516 5.578a1.54 1.54 0 0 0-1.001 1.257c-.022.162-.033 2.326-.026 5.368L7.5 17.3l.105.248c.25.595.761.938 1.395.938s1.146-.344 1.394-.938l.104-.248.015-1.39.014-1.39h1.187c1.333-.001 1.919-.04 2.386-.162a4.48 4.48 0 0 0 3.03-2.598 4.49 4.49 0 0 0-.555-4.483 5.8 5.8 0 0 0-.935-.919c-.311-.233-1.033-.577-1.48-.705l-.38-.109-2.56-.01c-2.074-.008-2.587 0-2.704.044m5.104 3.06c.278.136.584.438.723.711.107.212.117.266.117.651 0 .384-.01.44-.116.648a1.51 1.51 0 0 1-1.154.834c-.138.02-.794.037-1.46.037l-1.21.001V8.516l1.45.012c1.446.012 1.451.012 1.65.11"/></svg>