<svg xmlns="http://www.w3.org/2000/svg" width="24" height="24" fill="none" stroke="currentColor" stroke-linecap="round" stroke-linejoin="round" stroke-width="3"><path fill="#000" fill-rule="evenodd" stroke="none" d="M10.82.563A11.515 11.515 0 0 0 .739 9.671a11.8 11.8 0 0 0 0 4.658 11.52 11.52 0 0 0 8.932 8.932c1.501.309 3.157.309 4.658 0a11.53 11.53 0 0 0 8.932-8.932 11.8 11.8 0 0 0 0-4.658C22.306 5.036 18.563 1.433 13.9.663c-.846-.14-2.244-.185-3.08-.1m2.6 3.054c2.416.447 4.406 1.764 5.73 3.791 1.617 2.478 1.777 5.808.406 8.476a8.75 8.75 0 0 1-3.078 3.344c-.929.579-2.156 1.023-3.298 1.194-.591.088-1.769.088-2.36 0-1.86-.279-3.49-1.094-4.802-2.402-1.289-1.285-2.06-2.766-2.405-4.62-.102-.545-.102-2.255 0-2.8.455-2.445 1.759-4.421 3.795-5.75 1.057-.69 2.201-1.094 3.692-1.306.306-.043 1.974.01 2.32.073m-1.904 4.96a2.3 2.3 0 0 0-.32.163c-.097.059-1.133 1.065-2.304 2.234-1.863 1.862-2.141 2.155-2.233 2.358a1.502 1.502 0 0 0 2.006 2.011c.195-.09.456-.331 1.782-1.652L12 12.144l1.553 1.547c1.326 1.321 1.587 1.562 1.782 1.652a1.503 1.503 0 0 0 2.007-2.011c-.093-.204-.37-.495-2.274-2.394-2.489-2.483-2.374-2.392-3.028-2.407-.246-.006-.431.01-.524.046"/></svg>