<svg xmlns="http://www.w3.org/2000/svg" width="24" height="24" fill="none" stroke="currentColor" stroke-linecap="round" stroke-linejoin="round" stroke-width="3"><path fill="#000" fill-rule="evenodd" stroke="none" d="M11.38.522c-2.318.117-4.55.945-6.413 2.377-.532.41-1.542 1.397-1.943 1.901A11.9 11.9 0 0 0 .961 8.78C.643 9.868.516 10.791.516 12.017c-.002 4.19 2.23 7.969 5.937 10.05 1.06.595 2.483 1.079 3.807 1.293.682.111 2.138.153 2.832.081 3.189-.327 5.941-1.835 7.956-4.361 1.181-1.48 1.984-3.316 2.309-5.28.138-.834.204-2.364.125-2.91a1.51 1.51 0 0 0-.834-1.154c-.208-.106-.264-.116-.648-.116s-.44.01-.648.116a1.51 1.51 0 0 0-.834 1.154c-.02.138-.037.584-.037.993-.002 1.341-.198 2.335-.686 3.473-1.183 2.757-3.725 4.67-6.735 5.069-.578.076-1.887.056-2.42-.038-3.82-.673-6.61-3.609-7.082-7.453-.068-.554-.027-1.851.077-2.419.153-.836.373-1.5.748-2.263A8.35 8.35 0 0 1 8.3 4.36c1.23-.594 2.328-.844 3.7-.843 1.25 0 1.951.143 3.46.702.355.132.432.147.68.131a1.49 1.49 0 0 0 1.341-1.013c.197-.571.007-1.263-.446-1.621-.215-.171-.757-.411-1.431-.635-.932-.31-1.909-.5-2.79-.542L12.16.506c-.121-.007-.472.001-.78.016m10.136 2.055a2.3 2.3 0 0 0-.32.163c-.097.06-2.205 2.135-4.685 4.613l-4.508 4.504-1.052-1.039C9.68 9.561 9.647 9.54 9 9.54c-.384 0-.44.01-.648.116-.754.382-1.048 1.236-.693 2.012.091.201.329.455 1.773 1.9 1.445 1.444 1.699 1.682 1.9 1.773a1.58 1.58 0 0 0 1.336.001c.208-.095.764-.638 5.4-5.274s5.179-5.192 5.274-5.4c.354-.777.06-1.63-.694-2.012-.198-.101-.279-.117-.608-.125-.246-.006-.431.01-.524.046"/></svg>