<svg xmlns="http://www.w3.org/2000/svg" width="24" height="24" fill="none" stroke="currentColor" stroke-linecap="round" stroke-linejoin="round" stroke-width="3"><path fill="#000" fill-rule="evenodd" stroke="none" d="M10.82.563A11.515 11.515 0 0 0 .739 9.671a11.8 11.8 0 0 0 0 4.658 11.52 11.52 0 0 0 8.932 8.932c1.501.309 3.157.309 4.658 0a11.53 11.53 0 0 0 8.932-8.932 11.8 11.8 0 0 0 0-4.658C22.306 5.036 18.563 1.433 13.9.663c-.846-.14-2.244-.185-3.08-.1m2.6 3.054c2.416.447 4.406 1.764 5.73 3.791 1.617 2.478 1.777 5.808.406 8.476a8.75 8.75 0 0 1-3.078 3.344c-.929.579-2.156 1.023-3.298 1.194-.591.088-1.769.088-2.36 0-1.86-.279-3.49-1.094-4.802-2.402-1.289-1.285-2.06-2.766-2.405-4.62-.102-.545-.102-2.255 0-2.8.455-2.445 1.759-4.421 3.795-5.75 1.057-.69 2.201-1.094 3.692-1.306.306-.043 1.974.01 2.32.073m-1.904 1.96c-.559.214-.919.67-1.002 1.267-.023.165-.034 1.152-.027 2.369L10.5 11.3l.105.248c.25.595.761.938 1.395.938s1.145-.343 1.395-.938l.105-.248.013-2.087c.007-1.217-.004-2.204-.027-2.369-.075-.537-.364-.948-.836-1.187-.195-.099-.28-.116-.608-.125q-.382-.01-.526.045M7.6 7.556c-.418.139-.685.368-1.036.89a7.8 7.8 0 0 0-.739 1.534 6.65 6.65 0 0 0 0 4.04c.158.489.576 1.317.879 1.74.347.487 1.049 1.189 1.536 1.536.423.303 1.251.721 1.74.879a6.65 6.65 0 0 0 4.04 0c.489-.158 1.317-.576 1.74-.879.487-.347 1.189-1.049 1.536-1.536.303-.423.721-1.251.879-1.74a6.67 6.67 0 0 0 0-4.04c-.136-.421-.518-1.209-.756-1.56-.441-.651-.765-.864-1.359-.891-.435-.02-.692.061-1 .314-.375.309-.553.697-.55 1.197.003.334.077.53.372.987.438.675.598 1.197.598 1.948 0 1.167-.479 2.136-1.4 2.835-1.204.913-2.957.912-4.162-.002-.562-.426-1.019-1.045-1.215-1.646a3.4 3.4 0 0 1-.183-1.191c0-.748.155-1.252.599-1.95.306-.481.366-.646.365-1.005-.002-.473-.147-.806-.485-1.109-.306-.276-.516-.359-.939-.373-.198-.006-.405.003-.46.022"/></svg>