<svg xmlns="http://www.w3.org/2000/svg" width="24" height="24" fill="none" stroke="currentColor" stroke-linecap="round" stroke-linejoin="round" stroke-width="3"><path fill="#000" fill-rule="evenodd" stroke="none" d="M10.82.563A11.515 11.515 0 0 0 .739 9.671a11.8 11.8 0 0 0 0 4.658 11.52 11.52 0 0 0 8.932 8.932c1.501.309 3.157.309 4.658 0a11.53 11.53 0 0 0 8.932-8.932 11.8 11.8 0 0 0 0-4.658C22.306 5.036 18.563 1.433 13.9.663c-.846-.14-2.244-.185-3.08-.1m2.6 3.054c2.416.447 4.406 1.764 5.73 3.791 1.617 2.478 1.777 5.808.406 8.476a8.75 8.75 0 0 1-3.078 3.344c-.929.579-2.156 1.023-3.298 1.194-.591.088-1.769.088-2.36 0-1.86-.279-3.49-1.094-4.802-2.402-1.289-1.285-2.06-2.766-2.405-4.62-.102-.545-.102-2.255 0-2.8.455-2.445 1.759-4.421 3.795-5.75 1.057-.69 2.201-1.094 3.692-1.306.306-.043 1.974.01 2.32.073M9.516 6.579a1.54 1.54 0 0 0-.998 1.231c-.052.356-.048 8.063.004 8.39.054.342.192.619.427.855.231.232.405.326.754.407.292.068.523.051.817-.06.237-.089 6.377-4.185 6.566-4.38s.348-.514.391-.785c.07-.437-.089-.957-.382-1.253-.226-.228-6.393-4.324-6.626-4.401-.232-.076-.751-.079-.953-.004m2.919 4.841c.464.308.843.569.843.58 0 .02-1.655 1.128-1.723 1.153-.02.008-.035-.491-.035-1.153s.015-1.161.035-1.153c.02.007.416.265.88.573"/></svg>