<svg xmlns="http://www.w3.org/2000/svg" width="24" height="24" fill="none" stroke="currentColor" stroke-linecap="round" stroke-linejoin="round" stroke-width="3"><path fill="#000" fill-rule="evenodd" stroke="none" d="M18.72.519 15.58.54l-.228.116a1.51 1.51 0 0 0-.829 1.126 1.494 1.494 0 0 0 1.287 1.7c.138.02.763.037 1.389.037l1.139.001-3.787 3.79c-3.37 3.373-3.798 3.815-3.893 4.022a1.503 1.503 0 0 0 2.01 2.01c.207-.095.648-.522 4.018-3.889l3.787-3.784.014 1.316c.015 1.309.016 1.316.119 1.563.247.594.76.938 1.394.938s1.145-.343 1.395-.938L23.5 8.3l.012-3.118c.012-3.304.003-3.517-.171-3.86a1.73 1.73 0 0 0-.662-.662c-.178-.091-.625-.191-.759-.17a308 308 0 0 1-3.2.029m-7.9.043C5.811 1.101 1.748 4.773.739 9.671a11.8 11.8 0 0 0 0 4.658 11.52 11.52 0 0 0 8.932 8.932c1.501.309 3.157.309 4.658 0 4.721-.972 8.344-4.816 9.051-9.601.086-.583.139-1.583.099-1.868a1.51 1.51 0 0 0-.831-1.136c-.208-.106-.264-.116-.648-.116s-.44.01-.648.116c-.608.307-.869.815-.871 1.692-.002.739-.233 1.878-.544 2.682a8.24 8.24 0 0 1-1.955 2.99c-1.312 1.308-2.942 2.123-4.802 2.402-.591.088-1.769.088-2.36 0-1.86-.279-3.49-1.094-4.802-2.402-1.289-1.285-2.06-2.766-2.405-4.62-.102-.545-.102-2.255 0-2.8.343-1.841 1.119-3.341 2.384-4.601a8.1 8.1 0 0 1 2.11-1.55c1.125-.578 2.187-.857 3.535-.93.519-.028.72-.056.897-.122a1.496 1.496 0 0 0 .109-2.741c-.221-.112-.247-.116-.868-.122-.352-.004-.784.009-.96.028"/></svg>