<svg xmlns="http://www.w3.org/2000/svg" width="24" height="24" fill="none" stroke="currentColor" stroke-linecap="round" stroke-linejoin="round" stroke-width="3"><path fill="#000" fill-rule="evenodd" stroke="none" d="M1.516.577C.658.906.276 1.832.656 2.662c.084.185.289.413 1.15 1.281l1.047 1.056-.11.151C1.616 6.681.893 8.448.595 10.4c-.128.837-.128 2.363 0 3.2.363 2.376 1.347 4.463 2.896 6.14 1.258 1.362 2.668 2.337 4.299 2.973 3.7 1.442 7.729.924 11.001-1.415l.211-.151 1.055 1.047c.869.861 1.096 1.066 1.281 1.15a1.503 1.503 0 0 0 2.004-2.012c-.095-.21-1.076-1.202-10.274-10.395C1.635-.49 2.738.551 2.042.532c-.253-.007-.431.008-.526.045M10.7.582c-1.067.128-2.411.475-3.022.78-.581.291-.927.967-.802 1.572.131.633.545 1.068 1.152 1.21.343.08.512.058 1.115-.145 1.01-.339 1.824-.479 2.793-.479 2.396 0 4.469.867 6.132 2.565 1.241 1.267 1.982 2.742 2.317 4.615.103.576.103 2.078 0 2.64a11 11 0 0 1-.427 1.617c-.145.433-.164.53-.149.76.028.405.162.701.447.987.609.608 1.555.59 2.137-.041.202-.219.252-.317.446-.872.43-1.234.641-2.478.641-3.771a11.42 11.42 0 0 0-3.365-8.135C18.365 2.135 16.2 1.039 13.7.638c-.691-.111-2.293-.141-3-.056m6.095 18.444c-.052.063-.695.445-1.015.604a9.6 9.6 0 0 1-2.24.743 8.3 8.3 0 0 1-3.895-.198 8.2 8.2 0 0 1-3.559-2.072c-1.204-1.174-1.967-2.505-2.363-4.123-.295-1.204-.295-2.756 0-3.96.232-.945.656-1.936 1.128-2.635l.159-.235 5.913 5.913c4.433 4.433 5.903 5.926 5.872 5.963"/></svg>