<svg xmlns="http://www.w3.org/2000/svg" width="24" height="24" fill="none" stroke="currentColor" stroke-linecap="round" stroke-linejoin="round" stroke-width="3"><path fill="#000" fill-rule="evenodd" stroke="none" d="M1.724.53C1.308.59.862.922.659 1.322c-.174.343-.183.556-.171 3.86L.5 8.3l.105.248c.25.595.761.938 1.395.938s1.147-.344 1.394-.938c.103-.247.104-.254.119-1.563l.014-1.316 3.787 3.784c3.37 3.367 3.811 3.794 4.018 3.889 1.313.6 2.61-.697 2.01-2.01-.095-.207-.523-.649-3.893-4.022L5.662 3.52l1.139-.001c.626 0 1.251-.017 1.389-.037a1.494 1.494 0 0 0 1.287-1.7A1.51 1.51 0 0 0 8.648.656L8.42.54 7.24.53C4.012.503 1.91.503 1.724.53m9.792.049c-.364.134-.71.443-.864.773-.37.789.008 1.745.809 2.045.177.066.378.094.897.122.367.02.838.065 1.045.1 2.37.405 4.42 1.756 5.747 3.789 1.617 2.478 1.777 5.808.406 8.476a8.1 8.1 0 0 1-1.574 2.136 8.3 8.3 0 0 1-3.882 2.213c-.75.192-1.265.255-2.1.255s-1.35-.063-2.1-.255a8.3 8.3 0 0 1-3.882-2.213 8.1 8.1 0 0 1-1.569-2.127c-.578-1.125-.857-2.187-.93-3.535-.028-.519-.056-.72-.122-.897-.129-.346-.385-.619-.757-.809-.2-.102-.259-.112-.64-.112-.384 0-.44.01-.648.116a1.51 1.51 0 0 0-.831 1.136c-.04.285.013 1.285.099 1.868.707 4.787 4.329 8.629 9.051 9.601 1.501.309 3.157.309 4.658 0a11.53 11.53 0 0 0 8.932-8.932 11.8 11.8 0 0 0 0-4.658C22.306 5.036 18.563 1.433 13.9.663c-.891-.148-2.097-.19-2.384-.084"/></svg>