<svg xmlns="http://www.w3.org/2000/svg" width="24" height="24" fill="none" stroke="currentColor" stroke-linecap="round" stroke-linejoin="round" stroke-width="3"><path fill="#000" fill-rule="evenodd" stroke="none" d="M11 .544c-1.341.158-1.61.238-1.955.582a2 2 0 0 0-.3.434c-.111.232-.125.299-.125.62 0 .32.014.389.124.62.199.415.516.692.937.817.276.082.426.079 1.079-.017a9.5 9.5 0 0 1 2.48 0c.653.096.803.099 1.079.017.421-.125.738-.402.937-.817.11-.231.124-.3.124-.62 0-.31-.015-.393-.112-.6A1.54 1.54 0 0 0 14.22.725c-.567-.13-1.039-.173-2.04-.185A24 24 0 0 0 11 .544m-5.009 1.72c-.212.065-.724.398-1.231.8-.896.711-2.23 2.245-2.441 2.806-.154.411-.1.949.134 1.318.129.205.419.46.658.578.16.079.251.093.589.094.355 0 .427-.013.64-.112.305-.143.427-.262.851-.828A9.5 9.5 0 0 1 6.96 5.162c.582-.432.641-.494.812-.842.115-.234.128-.296.128-.62 0-.32-.014-.389-.124-.62-.323-.679-1.09-1.03-1.785-.816m11.167.034c-.437.161-.726.42-.912.815-.091.196-.106.279-.106.607 0 .333.014.41.112.62.143.305.262.427.828.851a9.5 9.5 0 0 1 1.757 1.769c.436.584.497.642.843.812.234.115.296.128.62.128.32 0 .389-.014.62-.124.746-.355 1.079-1.227.747-1.953-.118-.257-.546-.848-.989-1.363-.751-.875-2.025-1.941-2.566-2.147-.229-.087-.738-.095-.954-.015M1.771 8.658c-.367.115-.744.416-.899.718-.176.344-.288.98-.353 2.006-.058.904.049 2.32.219 2.902.132.45.402.769.822.971.232.111.299.125.62.125.32 0 .389-.014.62-.124.331-.157.58-.406.734-.735.16-.34.172-.565.069-1.291a9 9 0 0 1 0-2.46c.103-.726.091-.951-.069-1.291-.314-.667-1.093-1.03-1.763-.821m19.669-.003a1.5 1.5 0 0 0-.974.824c-.16.34-.172.565-.069 1.291.056.399.083.796.083 1.23s-.027.831-.083 1.23c-.103.726-.091.951.069 1.291.154.329.403.578.734.735.231.11.3.124.62.124.321 0 .388-.014.62-.125.42-.202.69-.521.822-.971.17-.582.277-1.998.219-2.902-.043-.675-.135-1.378-.219-1.666a1.48 1.48 0 0 0-.813-.964 1.5 1.5 0 0 0-1.009-.097M3.3 16.133c-.717.239-1.154.877-1.089 1.589.028.312.165.597.513 1.067.691.935 1.467 1.72 2.366 2.393.624.468.874.584 1.27.588.616.006 1.129-.319 1.395-.885.09-.194.105-.278.105-.605 0-.333-.014-.41-.112-.62-.144-.308-.227-.393-.808-.832a9.6 9.6 0 0 1-1.778-1.788c-.431-.58-.496-.643-.832-.806-.297-.144-.762-.19-1.03-.101m16.56.041c-.427.141-.571.265-1.052.906a9.5 9.5 0 0 1-1.768 1.758c-.581.432-.641.494-.812.842-.115.234-.128.296-.128.62 0 .32.014.389.124.62.356.747 1.224 1.08 1.951.748.632-.29 1.979-1.468 2.71-2.37.684-.843.881-1.213.884-1.658.003-.612-.298-1.099-.858-1.386-.171-.088-.276-.111-.551-.121-.208-.007-.402.008-.5.041M9.7 20.376q-.665.21-.956.824c-.11.231-.124.3-.124.62 0 .321.014.388.125.62.202.42.521.69.971.822.288.084.991.176 1.666.219.904.058 2.32-.049 2.902-.219a1.49 1.49 0 0 0 .971-.822c.111-.232.125-.299.125-.62 0-.32-.014-.389-.124-.62a1.5 1.5 0 0 0-.724-.729c-.322-.151-.59-.176-1.056-.097-.94.16-2.033.161-2.925.004-.397-.069-.636-.07-.851-.002"/></svg>