<svg xmlns="http://www.w3.org/2000/svg" width="24" height="24" fill="none" stroke="currentColor" stroke-linecap="round" stroke-linejoin="round" stroke-width="3"><path fill="#000" fill-rule="evenodd" stroke="none" d="M10.82.563A11.515 11.515 0 0 0 .739 9.671a11.8 11.8 0 0 0 0 4.658 11.52 11.52 0 0 0 8.932 8.932c1.501.309 3.157.309 4.658 0a11.53 11.53 0 0 0 8.932-8.932 11.8 11.8 0 0 0 0-4.658C22.306 5.036 18.563 1.433 13.9.663c-.846-.14-2.244-.185-3.08-.1m2.6 3.054c2.416.447 4.406 1.764 5.73 3.791 1.631 2.499 1.778 5.857.375 8.532-.234.446-.596 1.02-.642 1.02-.014 0-.085-.122-.158-.27a7.54 7.54 0 0 0-2.185-2.641c-.22-.165-.417-.316-.438-.335-.023-.02.011-.085.085-.164.386-.408.811-1.168 1.035-1.854a5.52 5.52 0 0 0 0-3.392c-.932-2.847-3.908-4.402-6.812-3.56-1.38.4-2.616 1.427-3.285 2.731a5.5 5.5 0 0 0-.347 4.221c.224.686.649 1.446 1.035 1.854.074.079.108.144.085.164a17 17 0 0 1-.418.316c-.445.329-1.143 1.022-1.462 1.45a8.6 8.6 0 0 0-.743 1.21c-.073.149-.144.27-.158.27-.047 0-.408-.575-.641-1.02a8.7 8.7 0 0 1-.863-2.54c-.102-.545-.102-2.255 0-2.8.455-2.445 1.759-4.421 3.795-5.75 1.057-.69 2.201-1.094 3.692-1.306.306-.043 1.974.01 2.32.073m-.603 4.016a2.65 2.65 0 0 1 1.553 1.55c.076.205.088.316.088.817s-.012.612-.088.817a2.56 2.56 0 0 1-.638.969 2.4 2.4 0 0 1-1.092.635c-.286.076-.994.076-1.28 0-.773-.206-1.45-.834-1.726-1.604-.108-.299-.146-.987-.075-1.347.171-.872.938-1.674 1.812-1.895.328-.083 1.149-.05 1.446.058m.343 8.024c.441.122 1.163.464 1.48.701.304.228.732.652.969.962.267.35.606 1.055.73 1.52l.102.38-.091.075c-.142.117-.848.459-1.33.645-.987.38-1.91.548-3.02.548s-2.033-.168-3.02-.548c-.482-.186-1.188-.528-1.33-.645l-.091-.075.102-.38c.124-.465.463-1.17.73-1.52.237-.31.665-.734.969-.962.301-.225 1.033-.577 1.417-.681.515-.139.65-.153 1.343-.139.561.012.717.03 1.04.119"/></svg>