<svg xmlns="http://www.w3.org/2000/svg" width="24" height="24" fill="none" stroke="currentColor" stroke-linecap="round" stroke-linejoin="round" stroke-width="3"><path fill="#000" fill-rule="evenodd" stroke="none" d="M10.82.563A11.515 11.515 0 0 0 .739 9.671a11.8 11.8 0 0 0 0 4.658 11.53 11.53 0 0 0 8.932 8.932c1.501.309 3.157.309 4.658 0a11.53 11.53 0 0 0 8.932-8.932 11.8 11.8 0 0 0 0-4.658C22.306 5.036 18.563 1.433 13.9.663c-.846-.14-2.244-.185-3.08-.1m2.6 3.054c2.416.447 4.406 1.764 5.73 3.791 1.242 1.903 1.648 4.397 1.086 6.67a8.5 8.5 0 0 1-1.475 3.068c-.227.3-.481.587-.502.567a2 2 0 0 1-.095-.204c-.19-.443-.669-1.02-1.104-1.329a4 4 0 0 0-1.128-.55l-.312-.09H8.38l-.312.09a3.7 3.7 0 0 0-1.594.959c-.256.268-.605.782-.674.992-.026.076-.054.139-.063.139-.03 0-.297-.308-.498-.574-.832-1.099-1.36-2.314-1.626-3.746-.102-.545-.102-2.255 0-2.8.455-2.445 1.759-4.421 3.795-5.75 1.057-.69 2.201-1.094 3.692-1.306.306-.043 1.974.01 2.32.073m-2.143 1.941c-1.471.269-2.667 1.161-3.316 2.474a5.2 5.2 0 0 0-.402 1.248c-.059.334-.059 1.106 0 1.44.361 2.054 2.013 3.583 4.057 3.756 2.473.208 4.652-1.626 4.86-4.092a4.46 4.46 0 0 0-1.343-3.596 3.8 3.8 0 0 0-1.153-.81c-.678-.332-1.061-.423-1.86-.44-.363-.007-.742.002-.843.02m1.376 3.1c.272.138.573.445.709.722.085.174.098.255.098.62 0 .384-.01.44-.116.648a1.5 1.5 0 0 1-1.562.829 1.51 1.51 0 0 1-1.126-.829c-.106-.208-.116-.264-.116-.648 0-.365.013-.446.098-.62.173-.352.515-.664.878-.803q.144-.056.526-.045c.329.009.413.026.611.126m2.692 9.999.138.138-.012.487-.011.488-.4.157a8.2 8.2 0 0 1-3.06.561 8.2 8.2 0 0 1-3.06-.561l-.4-.157-.011-.488-.012-.487.138-.138.137-.137h6.416z"/></svg>