<svg xmlns="http://www.w3.org/2000/svg" width="24" height="24" fill="none" stroke="currentColor" stroke-linecap="round" stroke-linejoin="round" stroke-width="3"><path fill="#000" fill-rule="evenodd" stroke="none" d="M10.82.563A11.515 11.515 0 0 0 .739 9.671a11.8 11.8 0 0 0 0 4.658 11.52 11.52 0 0 0 8.932 8.932c1.501.309 3.157.309 4.658 0a11.53 11.53 0 0 0 8.932-8.932 11.8 11.8 0 0 0 0-4.658C22.306 5.036 18.563 1.433 13.9.663c-.846-.14-2.244-.185-3.08-.1m2.6 3.054c2.416.447 4.406 1.764 5.73 3.791 1.617 2.478 1.777 5.808.406 8.476a8.75 8.75 0 0 1-3.078 3.344c-.929.579-2.156 1.023-3.298 1.194-.591.088-1.769.088-2.36 0-1.86-.279-3.49-1.094-4.802-2.402-1.289-1.285-2.06-2.766-2.405-4.62-.102-.545-.102-2.255 0-2.8.455-2.445 1.759-4.421 3.795-5.75 1.057-.69 2.201-1.094 3.692-1.306.306-.043 1.974.01 2.32.073m-1.904.96c-.371.142-.711.446-.864.773-.106.227-.17.576-.171.935l-.001.225-.57.021c-.413.015-.651.044-.863.106-1.269.369-2.254 1.449-2.488 2.727-.06.328-.06.944 0 1.272a3.56 3.56 0 0 0 2.108 2.593c.426.173.753.24 1.34.275l.473.027v.986l-1.45.012-1.45.011-.228.116a1.51 1.51 0 0 0-.829 1.126 1.494 1.494 0 0 0 1.287 1.7c.138.02.792.037 1.454.037l1.204.001.027.405c.039.599.179.904.576 1.25.473.413 1.385.413 1.858 0 .396-.345.537-.651.576-1.244l.026-.4.467-.028c.583-.034.91-.101 1.338-.276.783-.319 1.51-1.017 1.842-1.766.779-1.762.072-3.736-1.645-4.595-.47-.236-.798-.312-1.443-.335l-.57-.021v-.99l1.21-.001c.666 0 1.322-.017 1.46-.037a1.494 1.494 0 0 0 1.287-1.7 1.51 1.51 0 0 0-.829-1.126l-.228-.116-1.45-.012-1.45-.012-.001-.228c-.003-.813-.28-1.333-.869-1.631-.195-.099-.28-.116-.608-.125q-.382-.01-.526.045M10.48 10.02v.5h-.23c-.5-.001-.73-.167-.73-.527 0-.175.017-.218.136-.337.134-.134.142-.136.48-.136h.344zm3.864 3.636c.119.119.136.162.136.337 0 .36-.23.526-.73.527h-.23v-1h.344c.338 0 .346.002.48.136"/></svg>