<svg xmlns="http://www.w3.org/2000/svg" width="24" height="24" fill="none" stroke="currentColor" stroke-linecap="round" stroke-linejoin="round" stroke-width="3"><path fill="#000" fill-rule="evenodd" stroke="none" d="M10.82.563A11.515 11.515 0 0 0 .739 9.671a11.8 11.8 0 0 0 0 4.658 11.52 11.52 0 0 0 8.932 8.932c1.501.309 3.157.309 4.658 0a11.53 11.53 0 0 0 8.932-8.932 11.8 11.8 0 0 0 0-4.658C22.306 5.036 18.563 1.433 13.9.663c-.846-.14-2.244-.185-3.08-.1m2.6 3.054c2.416.447 4.406 1.764 5.73 3.791 1.617 2.478 1.777 5.808.406 8.476a8.75 8.75 0 0 1-3.078 3.344c-.929.579-2.156 1.023-3.298 1.194-.591.088-1.769.088-2.36 0-1.86-.279-3.49-1.094-4.802-2.402-1.289-1.285-2.06-2.766-2.405-4.62-.102-.545-.102-2.255 0-2.8.455-2.445 1.759-4.421 3.795-5.75 1.057-.69 2.201-1.094 3.692-1.306.306-.043 1.974.01 2.32.073M11.4 5.524c-1.461.141-2.921 1.186-3.543 2.535-.201.436-.267.71-.251 1.037.045.895.951 1.582 1.8 1.366.318-.081.643-.274.815-.482.073-.088.209-.321.303-.519.198-.415.402-.639.725-.797a1.48 1.48 0 0 1 1.748.316c.269.285.372.52.394.9.017.287.012.308-.117.499-.252.373-.881.801-1.667 1.132-.494.208-.653.312-.847.553a1.45 1.45 0 0 0-.331.916c0 .842.654 1.514 1.471 1.512.88-.002 2.796-1.112 3.584-2.077.722-.884 1.009-1.772.912-2.822-.175-1.886-1.502-3.466-3.304-3.934-.315-.082-1.156-.193-1.312-.173zm.116 10.053c-1.049.399-1.349 1.701-.571 2.478.58.58 1.53.583 2.107.007a1.47 1.47 0 0 0 0-2.124c-.292-.292-.55-.395-1.012-.407-.247-.006-.431.01-.524.046"/></svg>