<svg xmlns="http://www.w3.org/2000/svg" width="24" height="24" fill="none" stroke="currentColor" stroke-linecap="round" stroke-linejoin="round" stroke-width="3"><path fill="#000" fill-rule="evenodd" stroke="none" d="M10.82.563A11.515 11.515 0 0 0 .739 9.671a11.8 11.8 0 0 0 0 4.658c.972 4.722 4.814 8.344 9.601 9.051.583.086 1.583.139 1.868.099a1.5 1.5 0 0 0 1.269-1.261 1.5 1.5 0 0 0-.821-1.558c-.195-.099-.287-.116-.788-.148-1.196-.075-2.025-.24-2.888-.572a8.1 8.1 0 0 1-2.962-1.92c-1.289-1.285-2.06-2.766-2.405-4.62-.102-.545-.102-2.255 0-2.8.343-1.841 1.119-3.341 2.384-4.601C7.276 4.724 8.758 3.956 10.6 3.613c.546-.102 2.255-.102 2.8 0 1.844.344 3.332 1.115 4.602 2.385a8.2 8.2 0 0 1 1.933 2.97c.333.866.482 1.598.545 2.685.032.556.056.714.134.909.233.575.756.924 1.386.924.635 0 1.151-.347 1.392-.938.094-.229.101-.291.095-.824-.027-2.492-.977-5.055-2.604-7.024A11.46 11.46 0 0 0 13.126.562C12.65.514 11.293.515 10.82.563m.696 10.014c-.861.33-1.24 1.254-.858 2.091.095.207.524.65 3.912 4.04l3.805 3.809-1.397.011-1.398.012-.228.116a1.51 1.51 0 0 0-.829 1.126 1.494 1.494 0 0 0 1.287 1.7c.355.052 6.106.048 6.424-.004.327-.053.588-.187.823-.421.234-.235.368-.496.421-.823.052-.318.056-6.069.004-6.424a1.51 1.51 0 0 0-.834-1.154c-.208-.106-.264-.116-.648-.116s-.44.01-.648.116a1.51 1.51 0 0 0-.834 1.154c-.02.138-.037.763-.037 1.389l-.001 1.139-3.79-3.781c-4.299-4.289-3.973-4.007-4.648-4.025q-.382-.01-.526.045"/></svg>