<svg xmlns="http://www.w3.org/2000/svg" width="24" height="24" fill="none" stroke="currentColor" stroke-linecap="round" stroke-linejoin="round" stroke-width="3"><path fill="#000" fill-rule="evenodd" stroke="none" d="M10.82.563a11.52 11.52 0 0 0-7.707 4.142C1.491 6.667.54 9.234.513 11.724c-.006.533.001.595.095.824.241.591.757.938 1.392.938.63 0 1.153-.349 1.386-.926.08-.197.102-.348.132-.911.021-.371.066-.845.101-1.052a8.4 8.4 0 0 1 2.378-4.598C7.276 4.724 8.758 3.956 10.6 3.613c.546-.102 2.255-.102 2.8 0 2.446.457 4.422 1.761 5.75 3.795 1.617 2.478 1.777 5.808.406 8.476a8.75 8.75 0 0 1-3.078 3.344c-1.245.775-2.62 1.182-4.341 1.282-.503.029-.586.045-.788.147a1.5 1.5 0 0 0-.826 1.561 1.5 1.5 0 0 0 1.269 1.261c.285.04 1.285-.013 1.868-.099 4.785-.707 8.629-4.33 9.601-9.051a11.8 11.8 0 0 0 0-4.658C22.306 5.036 18.563 1.433 13.9.663c-.846-.14-2.244-.185-3.08-.1m.696 10.014a2.3 2.3 0 0 0-.32.163c-.097.06-1.864 1.794-3.926 3.854l-3.75 3.745-.001-1.139c0-.627-.017-1.252-.037-1.39a1.51 1.51 0 0 0-.834-1.154c-.208-.106-.264-.116-.648-.116s-.44.01-.648.116a1.51 1.51 0 0 0-.834 1.154c-.052.355-.048 6.106.004 6.424.053.327.187.588.421.823.235.234.496.368.823.421.318.052 6.069.056 6.424.004a1.494 1.494 0 0 0 1.287-1.7 1.51 1.51 0 0 0-.829-1.126l-.228-.116-1.397-.012-1.397-.012 3.805-3.808c3.387-3.39 3.816-3.833 3.911-4.04.354-.775.06-1.631-.692-2.011-.195-.099-.28-.116-.608-.125q-.382-.01-.526.045"/></svg>