<svg xmlns="http://www.w3.org/2000/svg" width="24" height="24" fill="none" stroke="currentColor" stroke-linecap="round" stroke-linejoin="round" stroke-width="3"><path fill="#000" fill-rule="evenodd" stroke="none" d="M11.42.526c-.914.042-1.7.172-2.019.334-.428.216-.763.729-.794 1.212-.04.62.301 1.192.873 1.464.228.109.302.124.6.123.187 0 .531-.032.765-.07.58-.094 1.73-.094 2.31 0 .234.038.578.07.765.07.3.001.371-.014.6-.124.58-.279.92-.855.87-1.474-.039-.487-.368-.987-.792-1.202-.474-.241-1.912-.392-3.178-.333M6.131 2.242c-.339.067-.725.303-1.43.873-.892.722-2.04 2.024-2.344 2.661-.428.895.129 1.92 1.145 2.108.191.035.285.031.516-.025.489-.117.639-.236 1.135-.899a9.9 9.9 0 0 1 1.815-1.805c.559-.416.711-.58.826-.889.183-.489.136-.956-.137-1.369a1.47 1.47 0 0 0-.969-.652 1.1 1.1 0 0 0-.557-.003m11.119.018a1.47 1.47 0 0 0-.721.413c-.575.59-.558 1.564.037 2.11.074.068.314.257.534.419.552.409 1.293 1.157 1.745 1.766.419.563.579.71.899.83q.776.29 1.418-.182.455-.336.58-.876c.127-.547.011-.887-.559-1.65a11.7 11.7 0 0 0-2.363-2.351c-.631-.473-1.089-.613-1.57-.479M1.78 8.656a1.53 1.53 0 0 0-.944.804c-.241.51-.399 2.082-.321 3.19.098 1.403.239 1.933.612 2.308.724.728 1.957.509 2.402-.428.162-.342.178-.597.076-1.259a9.3 9.3 0 0 1 0-2.542c.102-.662.086-.917-.076-1.259-.312-.656-1.096-1.021-1.749-.814m19.66-.001a1.5 1.5 0 0 0-.975.825c-.159.339-.173.598-.068 1.276.114.738.114 1.75 0 2.488-.105.678-.091.937.068 1.276.446.948 1.678 1.17 2.409.435.374-.375.515-.909.61-2.305.062-.907-.032-2.203-.21-2.89-.17-.658-.719-1.117-1.37-1.145a1.8 1.8 0 0 0-.464.04m-10.06.919a2.73 2.73 0 0 0-1.279.795c-.21.239-.469.746-.542 1.064A3 3 0 0 0 9.51 12c0 .446.058.695.256 1.112.223.467.655.899 1.122 1.122.417.198.666.256 1.112.256s.695-.058 1.112-.256a2.5 2.5 0 0 0 1.122-1.122c.198-.417.256-.666.256-1.112s-.058-.695-.255-1.11c-.262-.55-.811-1.037-1.418-1.257-.295-.107-1.12-.141-1.437-.059m.964 2.082c.119.119.136.162.136.337 0 .242-.129.424-.343.483a.5.5 0 0 1-.514-.16c-.081-.096-.103-.166-.103-.323 0-.175.017-.218.136-.337s.161-.136.344-.136.224.016.344.136m-8.93 4.464a1.64 1.64 0 0 0-.967.67c-.157.243-.263.682-.229.943.047.357.179.616.605 1.185a11.6 11.6 0 0 0 2.357 2.343c.774.58 1.274.672 1.914.351.534-.268.881-.938.784-1.512-.098-.577-.227-.749-.978-1.301-.532-.391-1.319-1.187-1.757-1.779-.196-.264-.417-.532-.491-.595-.285-.243-.859-.385-1.238-.305m16.424.056c-.436.167-.566.282-1.041.924-.407.552-1.156 1.293-1.765 1.745-.279.208-.562.447-.628.53-.149.187-.267.494-.304.79-.079.633.394 1.349 1.02 1.546.341.107.766.09 1.054-.043.553-.254 1.879-1.382 2.537-2.157.386-.456.799-1.015.909-1.232a1.495 1.495 0 0 0-.691-2.027c-.192-.094-.287-.113-.589-.121-.227-.006-.412.011-.502.045M9.7 20.374q-.667.22-.956.826c-.11.231-.124.3-.124.62s.014.389.124.62c.339.713.87.926 2.606 1.044.907.062 2.203-.032 2.89-.21.459-.119.81-.407 1.01-.826.355-.748.036-1.616-.73-1.982-.32-.153-.624-.164-1.34-.048-.633.102-1.737.105-2.34.005-.585-.097-.948-.113-1.14-.049"/></svg>