<svg xmlns="http://www.w3.org/2000/svg" width="24" height="24" fill="none" stroke="currentColor" stroke-linecap="round" stroke-linejoin="round" stroke-width="3"><path fill="#000" fill-rule="evenodd" stroke="none" d="M16.932.563c-.136.021-1.25.335-2.476.698s-2.253.659-2.285.659-.241.063-.464.139-2.289.696-4.589 1.377S2.844 4.709 2.73 4.752C1.608 5.179.748 6.261.556 7.487.503 7.826.532 8.51.615 8.844c.03.123.237.708.459 1.3l.403 1.076.014 4.12c.012 3.595.022 4.153.078 4.381.337 1.385 1.344 2.389 2.721 2.711.267.063.875.068 7.71.068s7.443-.005 7.71-.068a3.7 3.7 0 0 0 1.798-1.004c.573-.6.883-1.272.971-2.111.05-.476.053-8.162.003-8.507a1.51 1.51 0 0 0-.834-1.154l-.228-.116-3.92-.02c-3.135-.016-3.892-.03-3.78-.068.291-.101 1.953-.572 2.016-.572.036 0 .169-.037.295-.083s1.183-.361 2.349-.701a107 107 0 0 0 2.355-.703c.307-.113.665-.44.805-.736.166-.352.201-.604.128-.924-.118-.514-.912-3.024-1.035-3.268A3.53 3.53 0 0 0 18.364.638c-.356-.094-1.068-.132-1.432-.075m.78 3.013c.06.031.138.089.173.13.054.061.449 1.255.423 1.279-.004.004-.518.155-1.141.335-1.082.313-1.136.325-1.186.254a44 44 0 0 0-.534-.693c-.265-.341-.474-.627-.466-.636.043-.042 2.376-.718 2.491-.721a.6.6 0 0 1 .24.052m-5.316 2.268c.291.376.521.692.511.702-.054.055-3.054.895-3.095.867-.065-.045-1.01-1.244-1.022-1.297-.007-.031 2.889-.935 3.054-.953.012-.002.261.305.552.681M6.162 7.662c.295.37.513.677.494.695-.065.06-2.708.807-2.737.775-.057-.064-.399-1.023-.399-1.12 0-.141.115-.366.215-.421a43 43 0 0 1 1.871-.587c.015-.002.265.294.556.658m13.318 8.195v3.337l-.103.122a.6.6 0 0 1-.25.163c-.204.056-14.05.056-14.254 0a.6.6 0 0 1-.25-.163l-.103-.122V12.52h14.96z"/></svg>