<svg xmlns="http://www.w3.org/2000/svg" width="24" height="24" fill="none" stroke="currentColor" stroke-linecap="round" stroke-linejoin="round" stroke-width="3"><path fill="#000" fill-rule="evenodd" stroke="none" d="M8.38.576c-.623.154-1.262.644-1.563 1.197a3.6 3.6 0 0 0-.199.465L6.53 2.5l-.595.026c-.424.019-.679.05-.888.111a3.56 3.56 0 0 0-2.495 2.751c-.076.399-.076 14.825 0 15.224.221 1.168 1.036 2.177 2.116 2.617.712.29.191.271 7.332.271 5.895 0 6.444-.006 6.71-.068 1.52-.356 2.611-1.571 2.764-3.079.019-.186.021-.44.004-.564a1.51 1.51 0 0 0-.83-1.133c-.208-.106-.264-.116-.648-.116s-.44.01-.648.116c-.294.149-.577.428-.699.692a2.4 2.4 0 0 0-.147.549c-.056.386-.142.516-.383.583-.2.055-12.05.054-12.25-.001a.6.6 0 0 1-.25-.163l-.103-.122V5.792l.136-.136c.135-.135.138-.136.51-.136l.374.001.091.299c.177.583.663 1.145 1.229 1.421.548.268.405.259 4.14.259s3.592.009 4.14-.259c.566-.276 1.052-.838 1.229-1.421l.091-.299.369-.001c.352 0 .376.006.5.117l.131.116.022 1.274c.021 1.253.023 1.277.124 1.521.246.593.759.938 1.394.938s1.148-.345 1.393-.938c.1-.241.104-.278.119-1.308.018-1.157-.025-1.775-.152-2.202a3.46 3.46 0 0 0-1.827-2.172c-.468-.235-.796-.311-1.467-.34l-.594-.026-.097-.308A2.53 2.53 0 0 0 16.198.783a2.7 2.7 0 0 0-.501-.184C15.4.523 15.25.52 11.984.523 9.427.526 8.53.539 8.38.576m6.1 3.444v.5H9.52v-1h4.96zm2.036 4.557c-.855.325-1.24 1.255-.862 2.082.081.176.27.392.91 1.041l.807.819-3.395.01-3.396.011-.228.116a1.51 1.51 0 0 0-.829 1.126 1.494 1.494 0 0 0 1.287 1.7c.138.02 1.661.037 3.386.037l3.137.001-.789.8c-.85.862-.961 1.021-1.021 1.462-.163 1.2 1.031 2.069 2.145 1.56.203-.093.499-.373 2.398-2.274 1.689-1.69 2.189-2.213 2.269-2.374.21-.423.21-.965 0-1.388-.08-.161-.576-.678-2.269-2.368-2.487-2.483-2.372-2.392-3.026-2.407-.246-.006-.431.01-.524.046"/></svg>