<svg xmlns="http://www.w3.org/2000/svg" width="24" height="24" fill="none" stroke="currentColor" stroke-linecap="round" stroke-linejoin="round" stroke-width="3"><path fill="#000" fill-rule="evenodd" stroke="none" d="M8.38.576c-.816.203-1.483.833-1.762 1.662L6.53 2.5l-.595.026c-.424.019-.679.05-.888.111a3.56 3.56 0 0 0-2.495 2.751c-.076.399-.076 14.825 0 15.224.221 1.168 1.036 2.177 2.116 2.617.712.29.191.271 7.332.271 7.144 0 6.619.02 7.336-.273.783-.319 1.51-1.016 1.842-1.766.337-.762.437-1.898.218-2.482-.329-.88-1.409-1.245-2.19-.74-.489.316-.682.714-.716 1.475-.02.447-.031.505-.119.609a.6.6 0 0 1-.244.156c-.204.056-12.05.056-12.254 0a.6.6 0 0 1-.25-.163l-.103-.122V5.792l.136-.136c.136-.136.137-.136.517-.136h.381l.026.13c.015.071.099.279.186.462.223.467.655.9 1.122 1.122.582.277.416.266 4.112.266 2.672 0 3.384-.011 3.56-.054.713-.175 1.372-.7 1.674-1.334.087-.183.171-.391.186-.462l.026-.13h.381c.427 0 .397-.018.788.457.234.284.541.446.987.52.32.053.826-.122 1.149-.399.209-.179.432-.626.47-.946.093-.771-.638-1.76-1.681-2.275-.544-.268-.773-.322-1.475-.352L17.47 2.5l-.088-.262a2.3 2.3 0 0 0-.603-.976 2.55 2.55 0 0 0-.962-.632L15.58.54l-3.5-.007C9.396.527 8.533.537 8.38.576m6.1 3.444v.5H9.52v-1h4.96zm4.82 3.526a4 4 0 0 0-1.534.639c-.356.25-4.621 4.514-4.835 4.835-.355.532-.407.672-.988 2.666-.431 1.482-.473 1.682-.422 2.042.135.949.806 1.621 1.75 1.751.354.049.599-.004 2.209-.475 1.669-.488 1.735-.51 2.043-.665.495-.251.739-.472 2.923-2.655 2.397-2.395 2.507-2.522 2.783-3.204.79-1.953-.245-4.144-2.269-4.806-.342-.111-.438-.125-.96-.135a7 7 0 0 0-.7.007m.89 3.054c.191.116.29.302.29.546 0 .18-.02.232-.153.4-.085.107-1.049 1.076-2.143 2.154l-1.988 1.96-.481.147c-.264.081-.536.16-.603.175-.144.031-.15.086.077-.702l.144-.5 1.963-1.974c1.08-1.086 2.051-2.045 2.158-2.13.168-.136.22-.156.4-.156.135 0 .251.028.336.08M7.516 16.577c-1.048.396-1.349 1.701-.571 2.478.353.354.721.463 1.555.463s1.202-.109 1.555-.463c.726-.726.523-1.928-.407-2.399l-.228-.116-.88-.009c-.663-.006-.916.005-1.024.046"/></svg>