<svg xmlns="http://www.w3.org/2000/svg" width="24" height="24" fill="none" stroke="currentColor" stroke-linecap="round" stroke-linejoin="round" stroke-width="3"><path fill="#000" fill-rule="evenodd" stroke="none" d="M8.38.576c-.816.203-1.483.833-1.762 1.662L6.53 2.5l-.595.026c-.424.019-.679.05-.888.111a3.56 3.56 0 0 0-2.495 2.751c-.04.211-.052 1.186-.052 4.332v4.06l.093.23c.175.433.555.803.945.92.209.062.715.062.924 0 .39-.117.77-.487.945-.92l.093-.23.02-4.013.02-4.014.131-.116c.124-.112.147-.117.506-.117h.377l.026.13c.015.071.099.279.186.462.223.467.655.9 1.122 1.122.582.277.416.266 4.112.266 2.672 0 3.384-.011 3.56-.054.713-.175 1.372-.7 1.674-1.334.087-.183.171-.391.186-.462l.026-.13h.381c.38 0 .381 0 .517.136l.136.136v14.402l-.103.122a.6.6 0 0 1-.25.163c-.094.026-1.189.041-3.035.041-2.825 0-2.894.002-3.111.083-1.089.408-1.322 1.841-.414 2.558.106.084.296.195.423.246l.23.093h3.1c2.774 0 3.131-.007 3.39-.068a3.7 3.7 0 0 0 1.798-1.004c.573-.6.883-1.272.971-2.111.025-.234.04-3.004.04-7.317s-.015-7.083-.04-7.317c-.132-1.255-.824-2.255-1.946-2.817-.468-.235-.796-.311-1.468-.34L17.47 2.5l-.088-.262a2.3 2.3 0 0 0-.603-.976 2.55 2.55 0 0 0-.962-.632L15.58.54l-3.5-.007C9.396.527 8.533.537 8.38.576m6.1 3.444v.5H9.52v-1h4.96zm-3.18 6.526c-.492.079-1.088.327-1.534.639-.359.251-5.62 5.512-5.835 5.835-.355.533-.407.672-.988 2.666-.431 1.482-.473 1.682-.422 2.042.135.949.806 1.621 1.75 1.751.354.049.599-.004 2.209-.475 1.669-.488 1.735-.51 2.043-.665.504-.255.739-.472 3.423-3.154 2.939-2.938 3.001-3.008 3.283-3.705.79-1.953-.245-4.144-2.269-4.806-.342-.111-.438-.125-.96-.135a7 7 0 0 0-.7.007m.89 3.054c.191.116.29.302.29.546 0 .18-.02.232-.153.4-.085.107-1.274 1.301-2.642 2.654l-2.489 2.46-.481.147c-.264.081-.536.16-.603.175-.144.031-.15.086.076-.702l.144-.5 2.464-2.474c1.355-1.361 2.551-2.545 2.658-2.63.169-.136.219-.156.4-.156.135 0 .251.028.336.08"/></svg>