<svg xmlns="http://www.w3.org/2000/svg" width="24" height="24" fill="none" stroke="currentColor" stroke-linecap="round" stroke-linejoin="round" stroke-width="3"><path fill="#000" fill-rule="evenodd" stroke="none" d="M8.38.576c-.816.203-1.483.833-1.762 1.662L6.53 2.5l-.595.026c-.424.019-.679.05-.888.111a3.56 3.56 0 0 0-2.495 2.751c-.076.399-.076 14.825 0 15.224.221 1.168 1.036 2.177 2.116 2.617.712.29.191.271 7.332.271 5.895 0 6.444-.006 6.71-.068a3.7 3.7 0 0 0 1.798-1.004c.573-.6.883-1.272.971-2.111.049-.471.052-2.171.003-2.507a1.51 1.51 0 0 0-.834-1.154c-.208-.106-.264-.116-.648-.116s-.44.01-.648.116a1.51 1.51 0 0 0-.834 1.154c-.02.138-.037.73-.037 1.317l-.001 1.067-.103.122a.6.6 0 0 1-.25.163c-.204.056-12.05.056-12.254 0a.6.6 0 0 1-.25-.163l-.103-.122V5.792l.136-.136c.136-.136.137-.136.517-.136h.381l.026.13c.015.071.099.279.186.462.223.467.655.9 1.122 1.122.582.277.416.266 4.112.266 2.672 0 3.384-.011 3.56-.054.713-.175 1.372-.7 1.674-1.334.087-.183.171-.391.186-.462l.026-.13h.377c.359 0 .382.005.506.117l.131.116.02 2.274.02 2.273.105.248c.25.595.761.938 1.395.938s1.145-.343 1.395-.938l.105-.248.013-2.074c.013-2.183-.013-2.715-.153-3.188a3.46 3.46 0 0 0-1.827-2.172c-.468-.235-.796-.311-1.468-.34L17.47 2.5l-.088-.262a2.3 2.3 0 0 0-.603-.976 2.55 2.55 0 0 0-.962-.632L15.58.54l-3.5-.007C9.396.527 8.533.537 8.38.576m6.1 3.444v.5H9.52v-1h4.96zm.036 4.557a2.3 2.3 0 0 0-.32.163c-.097.06-1.133 1.065-2.302 2.234-1.654 1.654-2.149 2.172-2.228 2.332a1.6 1.6 0 0 0-.001 1.388c.08.161.58.684 2.269 2.374 1.899 1.901 2.195 2.181 2.398 2.274 1.114.509 2.308-.36 2.145-1.56-.06-.441-.171-.6-1.021-1.462l-.789-.8 3.137-.001c1.725 0 3.248-.017 3.386-.037a1.494 1.494 0 0 0 1.287-1.7 1.51 1.51 0 0 0-.829-1.126l-.228-.116-3.396-.011-3.395-.011.807-.818c.64-.649.829-.865.91-1.041a1.505 1.505 0 0 0-.698-2.003c-.198-.101-.279-.117-.608-.125-.246-.006-.431.01-.524.046"/></svg>