<svg xmlns="http://www.w3.org/2000/svg" width="24" height="24" fill="none" stroke="currentColor" stroke-linecap="round" stroke-linejoin="round" stroke-width="3"><path fill="#000" fill-rule="evenodd" stroke="none" d="M8.38.576c-.816.203-1.483.833-1.762 1.662L6.53 2.5l-.595.026c-.424.019-.679.05-.888.111a3.56 3.56 0 0 0-2.495 2.751c-.076.399-.076 14.825 0 15.224.221 1.168 1.036 2.177 2.116 2.617.712.29.191.271 7.332.271 5.895 0 6.444-.006 6.71-.068a3.7 3.7 0 0 0 1.798-1.004c.573-.6.883-1.272.971-2.111.025-.234.04-3.004.04-7.317s-.015-7.083-.04-7.317c-.132-1.255-.824-2.255-1.946-2.817-.468-.235-.796-.311-1.468-.34L17.47 2.5l-.088-.262a2.3 2.3 0 0 0-.603-.976 2.55 2.55 0 0 0-.962-.632L15.58.54l-3.5-.007C9.396.527 8.533.537 8.38.576m6.1 3.444v.5H9.52v-1h4.96zm-7.9 1.63c.015.071.099.279.186.462.223.467.655.9 1.122 1.122.582.277.416.266 4.112.266 2.672 0 3.384-.011 3.56-.054.713-.175 1.372-.7 1.674-1.334.087-.183.171-.391.186-.462l.026-.13h.381c.38 0 .381 0 .517.136l.136.136v14.402l-.103.122a.6.6 0 0 1-.25.163c-.204.056-12.05.056-12.254 0a.6.6 0 0 1-.25-.163l-.103-.122V5.792l.136-.136c.136-.136.137-.136.517-.136h.381zm.936 3.927c-1.049.399-1.349 1.701-.571 2.478.71.71 1.942.519 2.393-.371a1.48 1.48 0 0 0-.286-1.746c-.292-.292-.55-.395-1.012-.407-.247-.006-.431.01-.524.046m4 .001c-.366.136-.71.444-.864.774a1.5 1.5 0 0 0 1.158 2.13c.138.02 1.123.036 2.19.036s2.052-.016 2.19-.036a1.494 1.494 0 0 0 1.287-1.7 1.51 1.51 0 0 0-.829-1.126l-.228-.116-2.38-.008c-1.91-.006-2.409.003-2.524.046m-4 4.999c-1.049.399-1.349 1.701-.571 2.478.71.71 1.942.519 2.393-.371a1.48 1.48 0 0 0-.286-1.746c-.292-.292-.55-.395-1.012-.407-.247-.006-.431.01-.524.046m4 .001c-.366.136-.71.444-.864.774a1.5 1.5 0 0 0 1.158 2.13c.138.02 1.123.036 2.19.036s2.052-.016 2.19-.036a1.494 1.494 0 0 0 1.287-1.7 1.51 1.51 0 0 0-.829-1.126l-.228-.116-2.38-.008c-1.91-.006-2.409.003-2.524.046"/></svg>