<svg xmlns="http://www.w3.org/2000/svg" width="24" height="24" fill="none" stroke="currentColor" stroke-linecap="round" stroke-linejoin="round" stroke-width="3"><path fill="#000" fill-rule="evenodd" stroke="none" d="M10.98.547a12.3 12.3 0 0 0-3.555.911 11.47 11.47 0 0 0-6.9 9.997C.464 12.726.574 13.743.908 15c.929 3.49 3.534 6.396 6.912 7.707 1.553.604 3.189.865 4.82.77.752-.044 1.085-.108 1.342-.257.227-.132.486-.425.612-.693.091-.196.106-.279.106-.607s-.015-.411-.106-.607c-.213-.454-.686-.815-1.128-.861a8 8 0 0 0-.889.025 8.17 8.17 0 0 1-4.277-.835c-1.84-.897-3.206-2.302-4.042-4.157-.57-1.265-.767-2.268-.726-3.71.048-1.719.464-3.068 1.369-4.435 1.502-2.271 3.884-3.646 6.608-3.816 1.485-.092 2.858.186 4.238.859a8.5 8.5 0 0 1 4.636 6.204c.032.194.075.731.094 1.193.041.959.083 1.152.322 1.454.29.367.627.549 1.099.593.631.059 1.268-.357 1.506-.983.08-.213.084-.273.063-1.184-.016-.727-.042-1.076-.107-1.44-.286-1.608-.765-2.924-1.505-4.133-1.425-2.328-3.482-4.011-5.995-4.906a10.8 10.8 0 0 0-3.907-.654 26 26 0 0 0-.973.02m.536 4.03a1.54 1.54 0 0 0-.998 1.233c-.05.342-.048 6.106.001 6.408.053.319.197.601.429.836.158.16.37.283 1.194.695.94.47 1.019.502 1.286.521.823.059 1.471-.472 1.633-1.336.037-.196-.055-.61-.191-.867-.165-.31-.391-.5-.914-.767l-.436-.223-.001-2.509c0-1.379-.017-2.62-.037-2.758a1.51 1.51 0 0 0-.832-1.153c-.195-.099-.28-.116-.608-.125q-.382-.01-.526.045m6.213 7.947c-.458.077-.488.103-2.797 2.41-1.901 1.899-2.181 2.195-2.274 2.398-.509 1.114.36 2.308 1.56 2.145.441-.06.6-.171 1.46-1.019l.797-.786.013 2.314.012 2.314.105.248c.25.595.761.938 1.395.938s1.145-.343 1.395-.938l.105-.248.012-2.314.013-2.314.797.786c.86.848 1.019.959 1.46 1.019 1.2.163 2.069-1.031 1.56-2.145-.093-.203-.373-.499-2.274-2.398-2.337-2.335-2.332-2.331-2.834-2.412a3 3 0 0 0-.274-.037z"/></svg>