<svg xmlns="http://www.w3.org/2000/svg" width="24" height="24" fill="none" stroke="currentColor" stroke-linecap="round" stroke-linejoin="round" stroke-width="3"><path fill="#000" fill-rule="evenodd" stroke="none" d="M10.72.58c-1.525.189-2.602.515-3.96 1.202C3.308 3.527.993 6.909.56 10.837c-.067.603-.058 1.848.018 2.463.441 3.611 2.399 6.651 5.509 8.555 1.713 1.049 3.757 1.621 5.832 1.633.795.005.982-.039 1.336-.315.848-.66.738-1.982-.208-2.486-.224-.119-.68-.222-.794-.179-.106.041-1.463-.079-1.918-.17-1.351-.268-2.752-.948-3.83-1.857-1.338-1.127-2.29-2.662-2.746-4.424-.294-1.139-.328-2.478-.095-3.677a8.47 8.47 0 0 1 2.85-4.865c.927-.777 2.03-1.371 3.102-1.672.902-.253 1.301-.303 2.424-.302 1.087.001 1.322.028 2.149.242.782.204 1.733.633 2.491 1.126 1.406.914 2.498 2.241 3.176 3.86.29.692.456 1.307.565 2.093.053.379.064.715.053 1.618l-.014 1.14.13.265c.154.315.405.56.723.707.194.09.282.106.607.107.329.001.41-.013.607-.105.268-.126.56-.384.694-.613.159-.271.223-.654.253-1.517.04-1.173-.038-2.034-.276-3.044-.513-2.171-1.52-3.987-3.076-5.542A11.45 11.45 0 0 0 13.29.58c-.621-.073-1.978-.073-2.57 0m.796 3.997a1.54 1.54 0 0 0-.998 1.233c-.05.342-.048 6.106.001 6.408.053.319.197.601.428.835.159.161.386.291 1.343.771.633.318 1.26.606 1.395.64.452.116 1.035-.061 1.379-.418a1.49 1.49 0 0 0 .273-1.709c-.166-.351-.401-.539-1.147-.919l-.67-.342-.001-2.508c0-1.379-.017-2.62-.037-2.758a1.51 1.51 0 0 0-.832-1.153c-.195-.099-.28-.116-.608-.125q-.382-.01-.526.045m6 8a1.54 1.54 0 0 0-.998 1.233c-.02.138-.037 1.211-.037 2.386l-.001 2.137-.79-.777c-.982-.965-1.067-1.016-1.69-1.016-.384 0-.44.01-.648.116-.754.382-1.048 1.236-.694 2.012.093.203.373.499 2.274 2.398 1.69 1.689 2.213 2.189 2.374 2.269.423.21.965.21 1.388 0 .161-.08.684-.58 2.374-2.269 1.901-1.899 2.181-2.195 2.274-2.398.354-.776.06-1.63-.694-2.012-.208-.106-.264-.116-.648-.116-.623 0-.708.051-1.69 1.016l-.79.777-.001-2.137c0-1.175-.017-2.248-.037-2.386a1.51 1.51 0 0 0-.832-1.153c-.195-.099-.28-.116-.608-.125-.253-.007-.431.008-.526.045"/></svg>