<svg xmlns="http://www.w3.org/2000/svg" width="24" height="24" fill="none" stroke="currentColor" stroke-linecap="round" stroke-linejoin="round" stroke-width="3"><path fill="#000" fill-rule="evenodd" stroke="none" d="M8.1 1.548c-.677.062-1.676.319-2.339.6C3.394 3.153 1.691 5.003.907 7.42a7.8 7.8 0 0 0-.398 2.52c-.011 2.255.843 4.396 2.367 5.939.241.243.355.327.545.399.98.37 1.913-.191 2.071-1.245.028-.187-.048-.588-.148-.783a4 4 0 0 0-.425-.57c-.417-.484-.591-.739-.834-1.227-.363-.728-.52-1.367-.553-2.245-.027-.716.024-1.166.194-1.742.6-2.021 2.322-3.552 4.374-3.888.487-.08 1.6-.058 2.04.041 1.911.428 3.414 1.759 4.055 3.589.168.481.263.653.469.854.228.222.539.373.861.42.14.02.743.037 1.339.037.937.001 1.124.011 1.385.078.837.214 1.552.8 1.93 1.583.217.448.301.821.301 1.331 0 .966-.416 1.79-1.218 2.416-.397.309-.483.402-.602.653a1.5 1.5 0 0 0 .286 1.715c.225.229.406.326.761.408.477.111.839.002 1.413-.424 1.348-1.001 2.204-2.566 2.365-4.323.15-1.645-.505-3.443-1.688-4.635a6.07 6.07 0 0 0-2.956-1.669c-.353-.084-.555-.103-1.253-.121l-.832-.021-.203-.405c-.806-1.608-2.23-2.979-3.933-3.787-.882-.419-1.65-.634-2.699-.758-.317-.037-1.462-.045-1.821-.012m3.629 8.976c-.458.077-.488.103-2.797 2.41-1.901 1.899-2.181 2.195-2.274 2.398-.509 1.114.36 2.308 1.56 2.145.441-.06.6-.171 1.46-1.019l.798-.787.012 2.815.012 2.814.105.248c.25.595.761.938 1.395.938s1.145-.343 1.395-.938l.105-.248.012-2.814.012-2.815.798.787c.86.848 1.019.959 1.46 1.019 1.2.163 2.069-1.031 1.56-2.145-.093-.203-.373-.499-2.274-2.398-2.337-2.335-2.332-2.331-2.834-2.412a3 3 0 0 0-.274-.037z"/></svg>