<svg xmlns="http://www.w3.org/2000/svg" width="24" height="24" fill="none" stroke="currentColor" stroke-linecap="round" stroke-linejoin="round" stroke-width="3"><path fill="#000" fill-rule="evenodd" stroke="none" d="M11.516.577c-.371.142-.711.446-.864.774-.149.319-.181.681-.164 1.869.015 1.052.018 1.086.118 1.328.246.593.759.938 1.394.938s1.148-.345 1.394-.938c.1-.242.103-.276.118-1.328.017-1.187-.015-1.549-.163-1.869-.124-.266-.406-.546-.699-.694-.195-.099-.28-.116-.608-.125q-.382-.01-.526.045M4.452 3.514a1.506 1.506 0 0 0-.791 2.212c.059.096.481.547.938 1.004.727.725.866.846 1.106.96.247.117.312.13.635.13.31 0 .393-.015.6-.112.315-.147.624-.455.767-.764.098-.21.113-.293.113-.604 0-.324-.013-.388-.132-.638-.115-.245-.232-.378-.98-1.125-.835-.834-1.009-.972-1.368-1.085-.228-.072-.645-.062-.888.022m14.188-.021c-.349.122-.53.267-1.348 1.084-.748.747-.865.88-.98 1.125-.119.25-.132.314-.132.638 0 .311.015.394.113.604.143.309.452.617.767.764.207.097.29.112.6.112.323 0 .388-.013.635-.13.24-.114.379-.235 1.106-.96.457-.457.879-.909.938-1.005.168-.272.233-.542.213-.886a1.4 1.4 0 0 0-.43-.961c-.291-.29-.576-.411-1.002-.424-.193-.006-.401.011-.48.039m-7.36 3.051c-.815.148-1.177.262-1.723.541-.618.315-.848.565-.977 1.06-.081.313-.076.526.022.824.216.656.789 1.06 1.484 1.046.227-.005.335-.036.727-.21.579-.257.771-.298 1.301-.276.943.038 1.692.52 2.1 1.351.239.485.282.723.251 1.384-.028.619.023.883.236 1.205.42.635 1.243.86 1.915.522.228-.115.538-.421.651-.645.16-.315.223-.699.223-1.366.002-.896-.177-1.637-.595-2.474-.729-1.458-2.106-2.517-3.755-2.89-.272-.062-1.628-.114-1.86-.072m-5.36 4.052c-1.425.27-2.5.827-3.483 1.804C1.306 13.524.646 14.93.525 16.474a9 9 0 0 0 .072 1.658c.049.289.222.926.306 1.133.425 1.036.921 1.782 1.353 2.035.091.053.287.125.435.159.486.113.945-.019 1.329-.382.263-.249.406-.524.455-.88.064-.453-.008-.688-.388-1.274-.433-.668-.595-1.283-.556-2.113.026-.552.093-.828.312-1.287a3.4 3.4 0 0 1 .79-1.087 3.504 3.504 0 0 1 4.31-.335q1.097.729 1.457 2.079c.047.176.118.392.157.48.15.334.538.661.934.787.071.023.534.053 1.029.067.88.025.905.029 1.128.138.286.14.561.416.703.705.089.182.111.289.122.583.019.5-.062.701-.475 1.184-.378.443-.484.681-.483 1.084.002.501.137.809.504 1.144.29.265.58.376.981.376.509-.001.911-.215 1.35-.72.788-.907 1.145-1.858 1.142-3.048-.001-.489-.017-.64-.102-.96-.285-1.077-.786-1.881-1.545-2.478-.781-.616-1.581-.937-2.47-.991l-.365-.022-.132-.299c-.204-.464-.704-1.186-1.141-1.645-.968-1.018-2.098-1.651-3.451-1.931-.565-.117-1.841-.138-2.366-.038m13.596-.018c-.531.199-.921.672-.993 1.204a1.494 1.494 0 0 0 1.287 1.7c.138.02.673.036 1.19.036s1.052-.016 1.19-.036a1.494 1.494 0 0 0 1.287-1.7 1.51 1.51 0 0 0-.829-1.126l-.228-.116-1.38-.008c-1.079-.007-1.412.003-1.524.046m-13 6.999c-.371.142-.711.446-.864.774-.149.319-.181.681-.164 1.869.015 1.052.018 1.086.118 1.328.246.593.759.938 1.394.938s1.148-.345 1.394-.938c.1-.242.103-.276.118-1.328.017-1.187-.015-1.549-.163-1.869-.124-.266-.406-.546-.699-.694-.195-.099-.28-.116-.608-.125q-.382-.01-.526.045m4 1c-.371.142-.711.446-.864.774-.149.319-.181.681-.164 1.869.015 1.052.018 1.086.118 1.328.246.593.759.938 1.394.938s1.148-.345 1.394-.938c.1-.242.103-.276.118-1.328.017-1.187-.015-1.549-.163-1.869-.124-.266-.406-.546-.699-.694-.195-.099-.28-.116-.608-.125q-.382-.01-.526.045"/></svg>