<svg xmlns="http://www.w3.org/2000/svg" width="24" height="24" fill="none" stroke="currentColor" stroke-linecap="round" stroke-linejoin="round" stroke-width="3"><path fill="#000" fill-rule="evenodd" stroke="none" d="M1.516.577C.657.906.276 1.832.657 2.664c.087.191.317.443 1.433 1.572L3.42 5.58l-.441.44a8.4 8.4 0 0 0-2.456 6.513 8.44 8.44 0 0 0 3.291 6.193c1.165.902 2.462 1.448 4.046 1.703.346.056 1.011.066 4.96.08 2.637.008 4.754-.001 5.02-.023l.46-.037 1.404 1.395c1.188 1.18 1.439 1.411 1.631 1.499a1.503 1.503 0 0 0 2.007-2.011c-.095-.21-1.076-1.202-10.274-10.395C1.635-.49 2.738.551 2.042.532c-.253-.007-.431.008-.526.045m8.163 3.037a1.57 1.57 0 0 0-1.015.778c-.118.233-.183.66-.141.927.068.43.398.878.797 1.081.094.048.38.131.636.185.639.134 1.029.267 1.538.525a5.47 5.47 0 0 1 2.7 3.099c.209.594.334.785.658 1.007.394.269.427.274 1.908.303 1.309.026 1.348.029 1.661.132a3.04 3.04 0 0 1 1.926 1.928c.079.244.109.432.123.787.023.557-.04.898-.26 1.399-.139.314-.148.36-.146.735.001.318.018.437.084.58.358.777 1.242 1.128 1.984.789.479-.22.786-.649 1.063-1.489a5.99 5.99 0 0 0-2.415-6.898c-1.01-.66-2.066-.962-3.362-.962h-.655l-.223-.436c-.922-1.802-2.522-3.237-4.481-4.017a8 8 0 0 0-1.574-.427c-.516-.091-.506-.09-.806-.026m.801 9.008 4.9 4.902-3.48-.015c-3.151-.012-3.516-.021-3.86-.086-1.141-.217-2.085-.715-2.924-1.543-.954-.941-1.471-2.07-1.595-3.485-.137-1.57.506-3.25 1.674-4.365.178-.171.338-.31.355-.31s2.235 2.206 4.93 4.902"/></svg>