<svg xmlns="http://www.w3.org/2000/svg" width="24" height="24" fill="none" stroke="currentColor" stroke-linecap="round" stroke-linejoin="round" stroke-width="3"><path fill="#000" fill-rule="evenodd" stroke="none" d="M11.516.577c-.371.142-.711.446-.864.774-.149.319-.181.681-.164 1.869.015 1.052.018 1.086.118 1.328.246.593.759.938 1.394.938s1.148-.345 1.394-.938c.1-.242.103-.276.118-1.328.017-1.187-.015-1.549-.163-1.869-.124-.266-.406-.546-.699-.694-.195-.099-.28-.116-.608-.125q-.382-.01-.526.045M4.452 3.514a1.506 1.506 0 0 0-.791 2.212c.059.096.481.547.938 1.004.727.725.866.846 1.106.96.247.117.312.13.635.13.31 0 .393-.015.6-.112.315-.147.624-.455.767-.764.098-.21.113-.293.113-.604 0-.324-.013-.388-.132-.638-.115-.245-.232-.378-.98-1.125-.835-.834-1.009-.972-1.368-1.085-.228-.072-.645-.062-.888.022m14.188-.021c-.349.122-.53.267-1.348 1.084-.748.747-.865.88-.98 1.125-.119.25-.132.314-.132.638 0 .311.015.394.113.604.143.309.452.617.767.764.207.097.29.112.6.112.323 0 .388-.013.635-.13.24-.114.379-.235 1.106-.96.457-.457.879-.909.938-1.005.168-.272.233-.542.213-.886a1.4 1.4 0 0 0-.43-.961c-.291-.29-.576-.411-1.002-.424-.193-.006-.401.011-.48.039m-7.36 3.051c-.815.148-1.177.262-1.723.541-.618.315-.848.565-.977 1.06-.081.313-.076.526.022.824.216.656.789 1.06 1.484 1.046.227-.005.335-.036.727-.21.579-.257.771-.298 1.301-.276.943.038 1.692.52 2.1 1.351.239.485.282.723.251 1.384-.028.619.023.883.236 1.205.42.635 1.243.86 1.915.522.228-.115.538-.421.651-.645.16-.315.223-.699.223-1.366.002-.896-.177-1.637-.595-2.474-.729-1.458-2.106-2.517-3.755-2.89-.272-.062-1.628-.114-1.86-.072m-5.259 4.037c-2.453.398-4.4 2.044-5.181 4.378a6.64 6.64 0 0 0-.18 3.461 6.5 6.5 0 0 0 1.739 3.142c.537.539.972.863 1.606 1.194a6.4 6.4 0 0 0 2.593.725c.672.049 6.185.049 6.742-.001 1.715-.152 3.128-1.166 3.79-2.72a4.49 4.49 0 0 0-.555-4.483 5.8 5.8 0 0 0-.935-.919c-.321-.24-1.043-.581-1.48-.698a5 5 0 0 0-.761-.127l-.381-.024-.254-.49c-.901-1.739-2.493-2.949-4.453-3.383-.496-.11-1.762-.141-2.29-.055m13.495-.003c-.531.199-.921.672-.993 1.204a1.494 1.494 0 0 0 1.287 1.7c.138.02.673.036 1.19.036s1.052-.016 1.19-.036a1.494 1.494 0 0 0 1.287-1.7 1.51 1.51 0 0 0-.829-1.126l-.228-.116-1.38-.008c-1.079-.007-1.412.003-1.524.046M7.82 13.598a3.57 3.57 0 0 1 1.728 1.015c.45.474.634.828.91 1.757.078.261.148.404.275.56.176.216.498.439.746.515.078.023.546.055 1.041.069.843.025.913.033 1.1.124.277.136.584.437.723.711.107.212.117.266.117.651 0 .384-.01.44-.116.648-.24.474-.65.763-1.189.838-.172.024-1.519.033-3.469.024-3.137-.015-3.191-.017-3.526-.104-1.025-.268-1.927-1.021-2.35-1.961-.183-.406-.257-.754-.279-1.308-.034-.84.119-1.403.561-2.067a3.48 3.48 0 0 1 2.188-1.493c.36-.08 1.168-.069 1.54.021"/></svg>