<svg xmlns="http://www.w3.org/2000/svg" width="24" height="24" fill="none" stroke="currentColor" stroke-linecap="round" stroke-linejoin="round" stroke-width="3"><path fill="#000" fill-rule="evenodd" stroke="none" d="M14.932 2.581A7.52 7.52 0 0 0 9.035 7.23c-.168.422-.312.907-.341 1.155-.067.572.296 1.192.853 1.458a1.47 1.47 0 0 0 1.481-.11c.314-.209.466-.446.675-1.059.279-.819.589-1.332 1.125-1.862.461-.457.44-.465.441.18.004 1.55.563 2.921 1.643 4.022 1.096 1.119 2.514 1.713 4.096 1.717.516.001.546.005.51.073-.093.174-.7.721-1.078.972-.476.316-.641.48-.782.774-.145.304-.188.576-.135.868.138.761.752 1.276 1.514 1.271.344-.002.572-.092 1.078-.426 1.959-1.291 3.21-3.428 3.36-5.74.02-.295.019-.616-.002-.749a1.53 1.53 0 0 0-.825-1.118c-.208-.106-.264-.116-.648-.116-.381 0-.44.01-.64.112a3.5 3.5 0 0 0-.54.39c-.558.485-1.097.689-1.82.689-.739 0-1.306-.219-1.825-.704-.642-.599-.894-1.17-.894-2.027 0-.799.177-1.24.783-1.95.249-.292.361-.518.408-.818a1.49 1.49 0 0 0-.824-1.576c-.216-.11-.257-.116-.788-.123a7 7 0 0 0-.928.048M5.92 10.596c-1.425.27-2.5.827-3.483 1.804C1.306 13.524.646 14.93.525 16.474a9 9 0 0 0 .072 1.658c.049.289.222.926.306 1.133.425 1.036.921 1.782 1.353 2.035.091.053.287.125.435.159.486.113.945-.019 1.329-.382.263-.249.406-.524.455-.88.064-.453-.008-.688-.388-1.274-.433-.668-.595-1.283-.556-2.113.026-.552.093-.828.312-1.287a3.4 3.4 0 0 1 .79-1.087 3.504 3.504 0 0 1 4.31-.335q1.097.729 1.457 2.079c.047.176.118.392.157.48.15.334.538.661.934.787.071.023.534.053 1.029.067.88.025.905.029 1.128.138.286.14.561.416.703.705.089.182.111.289.122.583.019.5-.062.701-.475 1.184-.378.443-.484.681-.483 1.084.002.501.137.809.504 1.144.29.265.58.376.981.376.509-.001.911-.215 1.35-.72.788-.907 1.145-1.858 1.142-3.048-.001-.489-.017-.64-.102-.96-.285-1.077-.786-1.881-1.545-2.478-.781-.616-1.581-.937-2.47-.991l-.365-.022-.132-.299c-.204-.464-.704-1.186-1.141-1.645-.968-1.018-2.098-1.651-3.451-1.931-.565-.117-1.841-.138-2.366-.038m.596 6.981c-.371.142-.711.446-.864.774-.149.319-.181.681-.164 1.869.015 1.052.018 1.086.118 1.328.246.593.759.938 1.394.938s1.148-.345 1.394-.938c.1-.242.103-.276.118-1.328.017-1.187-.015-1.549-.163-1.869-.124-.266-.406-.546-.699-.694-.195-.099-.28-.116-.608-.125q-.382-.01-.526.045m4 1c-.371.142-.711.446-.864.774-.149.319-.181.681-.164 1.869.015 1.052.018 1.086.118 1.328.246.593.759.938 1.394.938s1.148-.345 1.394-.938c.1-.242.103-.276.118-1.328.017-1.187-.015-1.549-.163-1.869-.124-.266-.406-.546-.699-.694-.195-.099-.28-.116-.608-.125q-.382-.01-.526.045"/></svg>