<svg xmlns="http://www.w3.org/2000/svg" width="24" height="24" fill="none" stroke="currentColor" stroke-linecap="round" stroke-linejoin="round" stroke-width="3"><path fill="#000" fill-rule="evenodd" stroke="none" d="M8.18 1.547c-.088.008-.331.041-.54.075A8.53 8.53 0 0 0 .974 7.22C.819 7.666.652 8.38.578 8.912c-.092.659-.064 1.947.055 2.57.347 1.812 1.135 3.3 2.417 4.571.827.82 2.059 1.619 2.697 1.751.606.125 1.307-.234 1.59-.815.21-.43.209-.883-.002-1.328-.139-.295-.392-.518-.916-.809-.521-.29-.864-.535-1.214-.869-.826-.787-1.434-1.937-1.627-3.077-.084-.49-.062-1.565.041-2.026.508-2.279 2.294-3.971 4.544-4.303.547-.08 1.523-.059 1.997.044a5.6 5.6 0 0 1 2.741 1.519 5.25 5.25 0 0 1 1.294 2.069c.207.592.333.784.657 1.007.395.27.424.274 1.928.302 1.353.025 1.362.026 1.68.136.724.251 1.397.83 1.732 1.489.325.64.392 1.594.164 2.309-.214.667-.781 1.338-1.436 1.698-.281.155-.521.231-1.032.329-.487.092-.747.221-.987.488-.315.351-.43.716-.373 1.19.078.659.52 1.135 1.196 1.292.154.035.285.034.568-.004a5.99 5.99 0 0 0 4.908-4.084 5.2 5.2 0 0 0 .294-1.841c.002-1.007-.178-1.772-.635-2.7a6 6 0 0 0-4.1-3.182c-.33-.072-.586-.095-1.209-.109l-.791-.017-.206-.402a8.3 8.3 0 0 0-1.55-2.111A8.47 8.47 0 0 0 9.94 1.562c-.332-.038-1.386-.047-1.76-.015m4.343 9.039a1.6 1.6 0 0 0-.595.376c-.172.171-3.282 5.354-3.357 5.594-.085.276-.074.702.025.964.155.411.535.774.948.907.14.046.421.069.986.083.435.011.79.025.79.032s-.371.63-.825 1.385a48 48 0 0 0-.879 1.498c-.228.538-.095 1.196.328 1.625a1.48 1.48 0 0 0 2.088.025c.205-.201 3.307-5.343 3.396-5.631.032-.101.057-.31.057-.465.001-.582-.295-1.046-.845-1.327-.218-.111-.227-.112-1.09-.125-.478-.007-.87-.028-.87-.047s.381-.668.846-1.443c.465-.774.871-1.491.902-1.593.234-.753-.195-1.601-.943-1.863-.225-.078-.731-.076-.962.005"/></svg>