<svg xmlns="http://www.w3.org/2000/svg" width="24" height="24" fill="none" stroke="currentColor" stroke-linecap="round" stroke-linejoin="round" stroke-width="3"><path fill="#000" fill-rule="evenodd" stroke="none" d="M8.1 1.548c-.677.062-1.676.319-2.339.6C3.394 3.153 1.691 5.003.907 7.42a7.8 7.8 0 0 0-.398 2.52c-.011 2.255.843 4.396 2.367 5.939.241.243.355.327.545.399.98.37 1.913-.191 2.071-1.245.028-.187-.048-.588-.148-.783a4 4 0 0 0-.425-.57c-.417-.484-.591-.739-.834-1.227-.363-.728-.52-1.367-.553-2.245-.027-.716.024-1.166.194-1.742.6-2.021 2.322-3.552 4.374-3.888.487-.08 1.6-.058 2.04.041 1.911.428 3.414 1.759 4.055 3.589.168.481.263.653.469.854.228.222.539.373.861.42.14.02.743.037 1.339.037.937.001 1.124.011 1.385.078.837.214 1.552.8 1.93 1.583.217.448.301.821.301 1.331 0 .966-.416 1.79-1.218 2.416-.397.309-.483.402-.602.653a1.5 1.5 0 0 0 .286 1.715c.225.229.406.326.761.408.477.111.839.002 1.413-.424 1.348-1.001 2.204-2.566 2.365-4.323.15-1.645-.505-3.443-1.688-4.635a6.07 6.07 0 0 0-2.956-1.669c-.353-.084-.555-.103-1.253-.121l-.832-.021-.203-.405c-.806-1.608-2.23-2.979-3.933-3.787-.882-.419-1.65-.634-2.699-.758-.317-.037-1.462-.045-1.821-.012m-.584 11.029c-.371.142-.711.446-.864.774-.137.294-.184.691-.161 1.371.017.499.034.617.119.828.237.587.755.936 1.39.936s1.153-.349 1.39-.936c.085-.211.102-.329.119-.828.033-.973-.075-1.401-.445-1.766a2 2 0 0 0-.414-.299c-.195-.099-.28-.116-.608-.125q-.382-.01-.526.045m8 0c-.371.142-.711.446-.864.774-.137.294-.184.691-.161 1.371.017.499.034.617.119.828.237.587.755.936 1.39.936s1.153-.349 1.39-.936c.085-.211.102-.329.119-.828.033-.973-.075-1.401-.445-1.766a2 2 0 0 0-.414-.299c-.195-.099-.28-.116-.608-.125q-.381-.01-.526.045m-4 2c-.371.142-.711.446-.864.774-.137.294-.184.691-.161 1.371.017.499.034.617.119.828.237.587.755.936 1.39.936s1.153-.349 1.39-.936c.085-.211.102-.329.119-.828.033-.973-.075-1.401-.445-1.766a2 2 0 0 0-.414-.299c-.195-.099-.28-.116-.608-.125q-.382-.01-.526.045m-4 3c-.371.142-.711.446-.864.774-.137.294-.184.691-.161 1.371.017.499.034.617.119.828.237.587.755.936 1.39.936s1.153-.349 1.39-.936c.085-.211.102-.329.119-.828.033-.973-.075-1.401-.445-1.766a2 2 0 0 0-.414-.299c-.195-.099-.28-.116-.608-.125q-.382-.01-.526.045m8 0c-.371.142-.711.446-.864.774-.137.294-.184.691-.161 1.371.017.499.034.617.119.828.237.587.755.936 1.39.936s1.153-.349 1.39-.936c.085-.211.102-.329.119-.828.033-.973-.075-1.401-.445-1.766a2 2 0 0 0-.414-.299c-.195-.099-.28-.116-.608-.125q-.381-.01-.526.045m-4 2c-.371.142-.711.446-.864.774-.137.294-.184.691-.161 1.371.017.499.034.617.119.828.237.587.755.936 1.39.936s1.153-.349 1.39-.936c.085-.211.102-.329.119-.828.033-.973-.075-1.401-.445-1.766a2 2 0 0 0-.414-.299c-.195-.099-.28-.116-.608-.125q-.382-.01-.526.045"/></svg>