<svg xmlns="http://www.w3.org/2000/svg" width="24" height="24" fill="none" stroke="currentColor" stroke-linecap="round" stroke-linejoin="round" stroke-width="3"><path fill="#000" fill-rule="evenodd" stroke="none" d="M7.84 3.584c-2.817.407-5.226 2.148-6.455 4.665a8.2 8.2 0 0 0-.87 3.764c.001 2.041.685 3.901 2.016 5.487 1.054 1.256 2.543 2.214 4.157 2.677 1.166.334 1.551.352 6.952.333 3.874-.014 4.505-.024 4.8-.08 1.343-.253 2.37-.781 3.286-1.691 1.153-1.145 1.76-2.606 1.76-4.239a5.7 5.7 0 0 0-.447-2.288 5.99 5.99 0 0 0-4.099-3.526c-.522-.13-.859-.166-1.537-.166h-.642l-.196-.39a8.6 8.6 0 0 0-2.205-2.718 8.54 8.54 0 0 0-4.257-1.832c-.542-.074-1.736-.073-2.263.004m2.344 3.05a5.5 5.5 0 0 1 3.712 2.884c.117.232.255.548.304.702.193.595.438.915.857 1.12.305.15.588.178 1.783.18 1.241.002 1.449.033 1.98.298a2.96 2.96 0 0 1 1.362 1.362c.217.435.297.789.297 1.32 0 .859-.26 1.492-.869 2.116-.491.503-1.091.786-1.839.866-.259.028-1.892.038-4.851.029-4.963-.016-4.761-.006-5.634-.294a5.5 5.5 0 0 1-3.707-4.356 6.6 6.6 0 0 1 0-1.722c.16-.99.565-1.876 1.225-2.684.775-.948 2.003-1.647 3.296-1.875.481-.085 1.611-.056 2.084.054"/></svg>