<svg xmlns="http://www.w3.org/2000/svg" width="24" height="24" fill="none" stroke="currentColor" stroke-linecap="round" stroke-linejoin="round" stroke-width="3"><path fill="#000" fill-rule="evenodd" stroke="none" d="M7.885 1.585c-.97.131-1.678.349-2.585.793-.974.477-1.65.96-2.38 1.701C1.268 5.758.358 8.192.521 10.496c.15 2.124.935 3.916 2.367 5.408.375.39.557.522.858.621.859.284 1.805-.309 1.928-1.207.075-.549-.073-.907-.614-1.484-.762-.813-1.218-1.68-1.447-2.754-.057-.267-.072-.511-.07-1.14.002-.766.007-.82.127-1.261a5.7 5.7 0 0 1 1.135-2.214c.774-.927 1.887-1.589 3.115-1.852.529-.114 1.681-.103 2.237.021.753.167 1.266.389 1.936.837a5.5 5.5 0 0 1 2.101 2.737c.169.482.264.653.47.854.222.215.527.368.838.419.131.021.711.039 1.29.039 1.209 0 1.436.033 1.951.284a3.02 3.02 0 0 1 1.582 1.9c.114.427.122 1.163.016 1.536-.208.735-.562 1.246-1.208 1.747-.379.293-.536.55-.606.993-.075.466.08.932.426 1.283.217.22.401.318.745.398.474.11.84.003 1.379-.403 1.985-1.495 2.825-4.093 2.098-6.49a5.94 5.94 0 0 0-3.01-3.601c-.897-.46-1.491-.604-2.616-.635l-.791-.022-.218-.427c-1.182-2.311-3.484-3.997-6.06-4.439-.783-.135-1.858-.159-2.595-.059m2.18 10.259c-.242.057-.612.272-.77.447-.282.312-.439.807-.378 1.193l.034.213-.206.207-.205.208-.346.016c-.314.016-.37.031-.618.175-.894.517-1.038 1.723-.285 2.4.183.164.2.194.215.39.015.207.011.216-.144.34a1.505 1.505 0 0 0-.181 2.155c.311.356.863.563 1.314.493.193-.03.196-.028.4.166.203.193.205.198.207.444a1.526 1.526 0 0 0 1.516 1.509c.394 0 .851-.214 1.114-.521.13-.152.164-.17.358-.184.21-.016.218-.013.343.143.167.207.432.387.718.487.288.101.693.086 1.009-.038.601-.234 1.021-.948.923-1.568l-.032-.208.195-.206c.194-.203.199-.205.445-.208a1.4 1.4 0 0 0 .787-.226c.842-.506.959-1.719.231-2.374-.183-.164-.2-.194-.215-.39-.015-.207-.012-.215.147-.343.837-.673.69-2.019-.272-2.492-.245-.121-.301-.132-.671-.138l-.405-.005-.201-.185-.2-.185v-.27c0-.465-.228-.915-.602-1.186-.233-.169-.625-.303-.887-.303a1.62 1.62 0 0 0-1.169.561c-.119.148-.141.159-.334.159s-.215-.01-.338-.164c-.337-.419-.969-.635-1.497-.512m2.584 3.812c.301.152.558.427.696.744.099.225.114.311.114.64.001.34-.011.404-.115.608-.173.342-.408.554-.784.71-.394.162-.735.175-1.096.04-.376-.141-.614-.376-.803-.794-.105-.233-.119-.309-.12-.644-.001-.323.014-.41.097-.58.144-.293.452-.603.676-.68.102-.034.231-.09.286-.122.074-.044.195-.057.463-.047.303.01.399.031.586.125"/></svg>