<svg xmlns="http://www.w3.org/2000/svg" width="24" height="24" fill="none" stroke="currentColor" stroke-linecap="round" stroke-linejoin="round" stroke-width="3"><path fill="#000" fill-rule="evenodd" stroke="none" d="M14.932 2.581A7.52 7.52 0 0 0 9.035 7.23c-.168.422-.312.907-.341 1.155-.067.572.296 1.192.853 1.458a1.47 1.47 0 0 0 1.481-.11c.314-.209.466-.446.675-1.059.279-.819.589-1.332 1.125-1.862.461-.457.44-.465.441.18.004 1.55.563 2.921 1.643 4.022 1.096 1.119 2.514 1.713 4.096 1.717.516.001.546.005.51.073-.093.174-.7.721-1.078.972-.476.316-.641.48-.782.774-.145.304-.188.576-.135.868.138.761.752 1.276 1.514 1.271.344-.002.572-.092 1.078-.426 1.959-1.291 3.21-3.428 3.36-5.74.02-.295.019-.616-.002-.749a1.53 1.53 0 0 0-.825-1.118c-.208-.106-.264-.116-.648-.116-.381 0-.44.01-.64.112a3.5 3.5 0 0 0-.54.39c-.558.485-1.097.689-1.82.689-.739 0-1.306-.219-1.825-.704-.642-.599-.894-1.17-.894-2.027 0-.799.177-1.24.783-1.95.249-.292.361-.518.408-.818a1.49 1.49 0 0 0-.824-1.576c-.216-.11-.257-.116-.788-.123a7 7 0 0 0-.928.048m-8.911 8c-2.453.398-4.4 2.044-5.181 4.378a6.64 6.64 0 0 0-.18 3.461 6.5 6.5 0 0 0 1.739 3.142c.537.539.972.863 1.606 1.194a6.4 6.4 0 0 0 2.593.725c.672.049 6.185.049 6.742-.001 1.715-.152 3.128-1.166 3.79-2.72a4.49 4.49 0 0 0-.555-4.483 5.8 5.8 0 0 0-.935-.919c-.321-.24-1.043-.581-1.48-.698a5 5 0 0 0-.761-.127l-.381-.024-.254-.49c-.901-1.739-2.493-2.949-4.453-3.383-.496-.11-1.762-.141-2.29-.055m1.799 3.017a3.57 3.57 0 0 1 1.728 1.015c.45.474.634.828.91 1.757.078.261.148.404.275.56.176.216.498.439.746.515.078.023.546.055 1.041.069.843.025.913.033 1.1.124.277.136.584.437.723.711.107.212.117.266.117.651 0 .384-.01.44-.116.648-.24.474-.65.763-1.189.838-.172.024-1.519.033-3.469.024-3.137-.015-3.191-.017-3.526-.104-1.025-.268-1.927-1.021-2.35-1.961-.183-.406-.257-.754-.279-1.308-.034-.84.119-1.403.561-2.067a3.48 3.48 0 0 1 2.188-1.493c.36-.08 1.168-.069 1.54.021"/></svg>