<svg xmlns="http://www.w3.org/2000/svg" width="24" height="24" fill="none" stroke="currentColor" stroke-linecap="round" stroke-linejoin="round" stroke-width="3"><path fill="#000" fill-rule="evenodd" stroke="none" d="M10.78 1.546C8.444 1.809 6.44 3.153 5.331 5.2a7 7 0 0 0-.504 1.201c-.063.218-.069.224-.502.512a8.44 8.44 0 0 0-2.94 3.336 8.2 8.2 0 0 0-.87 3.764c.001 2.041.685 3.901 2.016 5.487 1.054 1.256 2.543 2.214 4.157 2.677 1.166.334 1.551.352 6.952.333 3.874-.014 4.505-.024 4.8-.08 1.343-.253 2.37-.781 3.286-1.691 1.153-1.145 1.76-2.606 1.76-4.239a5.7 5.7 0 0 0-.447-2.288 5.99 5.99 0 0 0-4.099-3.526c-.522-.13-.859-.166-1.537-.166h-.642l-.196-.39a8.6 8.6 0 0 0-2.205-2.718 8.6 8.6 0 0 0-3.38-1.67 7.7 7.7 0 0 0-1.58-.217L8.86 5.5l.24-.19c.312-.248.956-.569 1.36-.679.273-.074.426-.086 1.04-.086.62 0 .764.012 1.04.088.669.185 1.445.656 1.899 1.153.399.437.636.846.883 1.526.178.488.302.68.565.874.412.302.442.306 2.073.332 1.446.022 1.462.023 1.66.12.271.133.584.436.713.692.078.154.122.333.162.656.066.535.175.794.45 1.069.864.864 2.369.365 2.532-.84.07-.512-.075-1.338-.347-1.975a4.6 4.6 0 0 0-1.49-1.882c-.315-.236-1.037-.578-1.48-.702-.351-.099-.453-.108-1.349-.126l-.97-.018-.167-.306c-.974-1.783-2.609-3.041-4.554-3.503a9 9 0 0 0-.759-.142c-.311-.038-1.297-.048-1.581-.015m-.596 7.088a5.5 5.5 0 0 1 3.712 2.884c.117.232.255.548.304.702.193.593.438.915.853 1.118.314.154.58.181 1.767.182 1.263.002 1.467.032 2 .298a2.96 2.96 0 0 1 1.362 1.362c.217.435.297.789.297 1.32 0 .859-.26 1.492-.869 2.116-.491.503-1.091.786-1.839.866-.259.028-1.892.038-4.851.029-4.963-.016-4.761-.006-5.634-.294a5.5 5.5 0 0 1-3.707-4.356 6.6 6.6 0 0 1 0-1.722c.16-.99.565-1.876 1.225-2.684.775-.948 2.003-1.647 3.296-1.875.481-.085 1.611-.056 2.084.054"/></svg>