<svg xmlns="http://www.w3.org/2000/svg" width="24" height="24" fill="none" stroke="currentColor" stroke-linecap="round" stroke-linejoin="round" stroke-width="3"><path fill="#000" fill-rule="evenodd" stroke="none" d="M9.046 1.582a4.38 4.38 0 0 0-2.83 1.879c-.345.529-.615 1.249-.678 1.809l-.027.238-.324.049c-2.102.322-3.667 2.13-3.671 4.244-.002.712.114 1.24.413 1.887l.16.347-.142.333c-.275.641-.327.923-.324 1.732.002.775.044 1.014.277 1.596.339.848 1.017 1.648 1.769 2.088l.254.149-1.58 1.586C.991 20.876.747 21.139.657 21.335a1.503 1.503 0 0 0 2.008 2.008c.195-.089.455-.33 1.772-1.641l1.543-1.537.219.346c.275.438.796.964 1.25 1.264a4.36 4.36 0 0 0 4.216.307l.335-.157.335.157c2.062.966 4.516.161 5.641-1.851.18-.323.405-1.001.469-1.413l.05-.323.323-.05c.177-.027.511-.113.742-.19 2.424-.806 3.612-3.594 2.522-5.92L21.925 12l.157-.335c.858-1.831.313-4.059-1.29-5.266a4.5 4.5 0 0 0-1.976-.841l-.321-.05-.046-.313a6 6 0 0 0-.193-.758 4.3 4.3 0 0 0-2.796-2.728 4.48 4.48 0 0 0-3.122.207l-.345.162-.194-.098c-.8-.406-1.865-.56-2.753-.398M10.4 4.638c.099.05.309.216.466.367.402.387.638.49 1.134.493.487.003.708-.093 1.125-.488.43-.407.568-.47 1.035-.47.444 0 .667.085.941.359s.359.497.359.941c0 .335-.013.404-.107.58-.076.141-.583.674-1.73 1.82L12 9.86l-1.623-1.62c-1.189-1.187-1.65-1.673-1.726-1.82-.123-.239-.164-.644-.094-.928.099-.402.459-.787.859-.918.252-.082.762-.049.984.064M6.42 8.65c.145.076.642.547 1.82 1.727L9.86 12l-1.596 1.596c-1.675 1.676-1.764 1.75-2.158 1.8a1.3 1.3 0 0 1-1.132-.388c-.276-.277-.35-.471-.352-.928-.002-.456.061-.604.418-.986a2.4 2.4 0 0 0 .344-.481c.101-.206.114-.276.113-.613-.001-.495-.104-.731-.492-1.134a2.7 2.7 0 0 1-.367-.466c-.121-.239-.153-.718-.066-.975.134-.393.465-.727.844-.851.266-.087.763-.049 1.004.076m12.321-.01c.251.122.494.365.619.62.084.17.099.258.099.58.001.468-.063.61-.464 1.026-.388.403-.491.639-.492 1.134-.001.338.012.406.114.616.063.13.234.363.383.52.397.419.46.559.459 1.024 0 .321-.015.411-.098.58-.311.635-1.083.923-1.714.64-.202-.091-.44-.313-1.869-1.742L14.14 12l1.62-1.623c1.517-1.52 1.749-1.726 2.04-1.822.199-.065.729-.017.941.085m-5.095 7.15c1.077 1.079 1.658 1.691 1.72 1.81.079.152.094.24.094.56 0 .444-.085.667-.359.941s-.497.359-.941.358c-.465 0-.607-.064-1.023-.457-.32-.303-.542-.425-.891-.49-.512-.096-1.014.094-1.446.546a1.8 1.8 0 0 1-.38.295c-.176.093-.247.106-.58.106-.444.001-.667-.083-.941-.358s-.359-.497-.359-.941c0-.32.015-.408.094-.56.062-.119.643-.731 1.72-1.81A93 93 0 0 1 12 14.16c.011 0 .752.733 1.646 1.63"/></svg>