<svg xmlns="http://www.w3.org/2000/svg" width="24" height="24" fill="none" stroke="currentColor" stroke-linecap="round" stroke-linejoin="round" stroke-width="3"><path fill="#000" fill-rule="evenodd" stroke="none" d="M11.024.582C9.023.855 7.155 2.063 6.073 3.785a7.1 7.1 0 0 0-1.072 3.684L5 7.958l-.21.088A7.03 7.03 0 0 0 .664 13.02a7.5 7.5 0 0 0-.085 2.469c.432 2.858 2.471 5.101 5.281 5.808.736.185 1.875.238 2.64.122a8 8 0 0 0 1.905-.555c.057-.025.066.049.083.704.018.666.028.754.12.98.24.59.757.938 1.392.938s1.152-.348 1.391-.938c.091-.222.104-.323.125-.972l.024-.724.4.158c.826.329 1.628.48 2.56.484a6 6 0 0 0 1.68-.201c3.752-.929 6.044-4.719 5.116-8.461a7 7 0 0 0-2.965-4.181 9 9 0 0 0-.83-.457L19 7.952l-.001-.486a7.1 7.1 0 0 0-1.036-3.624c-.933-1.505-2.495-2.664-4.177-3.1a7.7 7.7 0 0 0-2.762-.16m1.656 2.994c.84.137 1.523.497 2.161 1.14.706.71 1.089 1.583 1.145 2.604.022.42-.015.746-.162 1.42-.108.493.028.978.383 1.363.215.233.479.355 1.033.477.495.109.761.198 1.091.365.944.478 1.702 1.397 2.013 2.444.086.287.108.461.126.96.028.818-.063 1.274-.381 1.911-.605 1.211-1.637 1.967-3.009 2.204-1.272.219-2.815-.366-3.611-1.371-.399-.503-.554-.65-.824-.783-.241-.119-.296-.13-.644-.13-.327 0-.413.015-.603.104-.285.134-.47.299-.742.66-.962 1.278-2.684 1.843-4.247 1.392-.687-.198-1.398-.627-1.832-1.107a4.6 4.6 0 0 1-.961-1.769c-.115-.424-.107-1.513.015-1.973a4.03 4.03 0 0 1 3.175-2.927c.686-.12 1.099-.43 1.31-.982.128-.337.139-.527.051-.9-.248-1.046-.205-1.849.146-2.707.343-.843 1.07-1.619 1.911-2.043.719-.363 1.61-.49 2.456-.352"/></svg>