<svg xmlns="http://www.w3.org/2000/svg" width="24" height="24" fill="none" stroke="currentColor" stroke-linecap="round" stroke-linejoin="round" stroke-width="3"><path fill="#000" fill-rule="evenodd" stroke="none" d="M14.072 2.558c-.399.127-.802.49-.946.853-.046.115-1.213 3.818-2.593 8.229l-2.51 8.02v.36c0 .31.015.391.109.585.23.475.635.781 1.16.877.616.113 1.348-.302 1.585-.899.044-.112 1.21-3.812 2.59-8.223l2.51-8.02v-.36c0-.31-.015-.391-.109-.585a1.5 1.5 0 0 0-.699-.724c-.235-.115-.31-.132-.628-.139a2.2 2.2 0 0 0-.469.026M5.516 6.577a2.3 2.3 0 0 0-.32.163c-.097.059-1.133 1.065-2.304 2.234C1.029 10.836.751 11.129.659 11.332a1.58 1.58 0 0 0-.001 1.336c.093.203.373.499 2.274 2.4s2.197 2.181 2.4 2.274a1.503 1.503 0 0 0 2.011-2.007c-.09-.195-.331-.456-1.652-1.782L4.144 12l1.547-1.553C7.012 9.121 7.253 8.86 7.343 8.665c.353-.772.058-1.628-.695-2.009-.198-.101-.279-.117-.608-.125-.246-.006-.431.01-.524.046m12 0a1.52 1.52 0 0 0-.859 2.088c.09.195.331.456 1.652 1.782L19.856 12l-1.547 1.553c-1.321 1.326-1.562 1.587-1.652 1.782a1.503 1.503 0 0 0 2.011 2.007c.203-.093.499-.373 2.4-2.274s2.181-2.197 2.274-2.4a1.58 1.58 0 0 0 0-1.336c-.093-.204-.37-.495-2.274-2.394-2.489-2.483-2.374-2.392-3.028-2.407-.246-.006-.431.01-.524.046"/></svg>