<svg xmlns="http://www.w3.org/2000/svg" width="24" height="24" fill="none" stroke="currentColor" stroke-linecap="round" stroke-linejoin="round" stroke-width="3"><path fill="#000" fill-rule="evenodd" stroke="none" d="M11.729.524c-.26.044-.411.12-.938.47-.226.15-2.499 1.628-5.051 3.285C3.188 5.935 1.026 7.362.935 7.449c-.209.2-.365.507-.416.813-.052.318-.052 7.158 0 7.476.051.306.207.613.416.813.15.144 9.81 6.457 10.339 6.757.425.24 1.006.248 1.419.02a689 689 0 0 0 5.233-3.387c3.156-2.053 5.096-3.339 5.189-3.44a1.5 1.5 0 0 0 .366-.766c.052-.315.051-7.158 0-7.473a1.5 1.5 0 0 0-.416-.813c-.128-.122-9.298-6.122-10.272-6.72a1.5 1.5 0 0 0-1.064-.205m-1.25 5.746v1.47L8.76 8.94c-.946.66-1.742 1.198-1.77 1.196-.027-.003-.559-.361-1.181-.797l-1.131-.792.451-.292c.248-.16 1.54-1.001 2.871-1.869a157 157 0 0 1 2.45-1.583c.017-.001.03.659.029 1.467m5.948.396 2.883 1.873c.021.016-2.251 1.593-2.3 1.597-.028.002-.824-.536-1.77-1.196l-1.719-1.2V6.27c-.001-.808.007-1.47.016-1.47s1.31.84 2.89 1.866M13.2 11.17c.637.445 1.154.822 1.149.838-.015.045-2.299 1.632-2.349 1.632s-2.334-1.587-2.349-1.632c-.012-.036 2.272-1.642 2.339-1.645.028-.002.572.362 1.21.807m-8.921.76c.115.082.135.06-.369.407l-.39.269v-1.21l.331.232zm16.201.072v.602l-.42-.29c-.231-.159-.42-.299-.419-.312 0-.018.796-.594.829-.6.006-.001.01.269.01.6M8.744 15.05l1.733 1.21.002 1.47c0 .808-.007 1.47-.017 1.47-.014 0-5.716-3.693-5.771-3.738a107 107 0 0 1 2.304-1.621c.009 0 .796.544 1.749 1.209m9.42-.403a41 41 0 0 1 1.145.815c-.054.044-5.757 3.738-5.771 3.738-.01 0-.017-.662-.017-1.47l.002-1.47 1.728-1.209c.951-.664 1.736-1.209 1.744-1.21s.534.362 1.169.806"/></svg>