<svg xmlns="http://www.w3.org/2000/svg" width="24" height="24" fill="none" stroke="currentColor" stroke-linecap="round" stroke-linejoin="round" stroke-width="3"><path fill="#000" fill-rule="evenodd" stroke="none" d="M11.3.578c-.536.108-.644.161-2.64 1.301-.836.478-1.602.899-1.703.937a2 2 0 0 0-.38.218c-.108.082-.948.578-1.866 1.103-.957.547-1.78 1.045-1.927 1.167-.5.413-.833.872-1.051 1.45-.235.626-.225.424-.242 4.946-.015 4.188-.003 4.687.128 5.2.091.359.426 1.005.679 1.31.38.458.664.653 2.413 1.651.918.524 1.755 1.021 1.861 1.103s.277.182.38.221c.103.038.872.46 1.708.937 1.726.985 1.984 1.12 2.32 1.218l.492.149c.281.088.757.104.945.032.064-.024.253-.081.42-.126.446-.119.782-.289 2.483-1.261.847-.483 1.625-.911 1.728-.949.103-.039.274-.138.38-.221s.943-.579 1.861-1.103c.976-.557 1.778-1.042 1.93-1.167q.564-.467.904-1.154c.224-.456.302-.727.357-1.24.051-.474.051-8.126 0-8.6a3.6 3.6 0 0 0-.322-1.2c-.181-.412-.556-.885-.962-1.214-.136-.11-.996-.628-1.912-1.152s-1.753-1.018-1.861-1.1a2 2 0 0 0-.38-.218c-.101-.038-.867-.459-1.703-.937C13.758.976 13.414.79 13.142.693 12.674.527 11.82.473 11.3.578m1.509 3.307c.324.184.589.347.59.361 0 .014-.315.208-.7.43l-.701.404-.699-.404c-.385-.222-.699-.416-.698-.43q.002-.035 1.056-.618c.314-.174.447-.144 1.152.257M9.497 7.101a74 74 0 0 0 1.94 1.094c.184.085.282.103.563.104.436.001.432.003 2.695-1.309l1.756-1.018.734.419c.404.23.735.43.734.444 0 .014-1.332.794-2.96 1.735L12 10.279 9.041 8.57c-1.627-.941-2.955-1.724-2.95-1.741.005-.016.333-.216.729-.444l.72-.413.12.069zM7.536 11.16l2.942 1.7.001 3.41c.001 1.876-.01 3.41-.024 3.41s-.346-.183-.739-.408l-.714-.407-.011-2.303-.011-2.302-.095-.236c-.179-.445-.306-.536-2.435-1.764l-1.93-1.112v-.857c0-.51.015-.852.037-.844.02.007 1.361.778 2.979 1.713m11.944-.866v.854l-1.93 1.112c-2.129 1.228-2.256 1.319-2.435 1.764l-.095.236-.011 2.302-.011 2.303-.714.407c-.393.225-.725.408-.739.408s-.025-1.534-.024-3.41l.001-3.41 2.949-1.707a227 227 0 0 1 2.979-1.71c.016-.002.03.381.03.851M5.283 15.05l.714.41.002.83c0 .457-.01.83-.024.83-.076 0-1.306-.741-1.374-.828-.075-.095-.081-.16-.081-.877 0-.426.011-.775.025-.775.013 0 .346.185.738.41m14.197.365c0 .717-.006.782-.081.877-.068.087-1.298.828-1.374.828-.014 0-.024-.373-.024-.83l.002-.83.708-.409c.39-.225.722-.409.739-.41.016 0 .03.348.03.774"/></svg>