<svg xmlns="http://www.w3.org/2000/svg" width="24" height="24" fill="none" stroke="currentColor" stroke-linecap="round" stroke-linejoin="round" stroke-width="3"><path fill="#000" fill-rule="evenodd" stroke="none" d="M5.516.577c-.371.142-.711.446-.864.774-.149.319-.181.681-.164 1.869.015 1.052.018 1.086.118 1.328.246.593.759.938 1.394.938s1.148-.345 1.394-.938c.1-.242.103-.276.118-1.328.017-1.187-.015-1.549-.163-1.869-.124-.266-.406-.546-.699-.694-.195-.099-.28-.116-.608-.125q-.382-.01-.526.045m4 0c-.371.142-.711.446-.864.774-.149.319-.181.681-.164 1.869.015 1.052.018 1.086.118 1.328.246.593.759.938 1.394.938s1.148-.345 1.394-.938c.1-.242.103-.276.118-1.328.017-1.187-.015-1.549-.163-1.869-.124-.266-.406-.546-.699-.694-.195-.099-.28-.116-.608-.125q-.382-.01-.526.045m4 0c-.371.142-.711.446-.864.774-.149.319-.181.681-.164 1.869.015 1.052.018 1.086.118 1.328.246.593.759.938 1.394.938s1.148-.345 1.394-.938c.1-.242.103-.276.118-1.328.017-1.187-.015-1.549-.163-1.869-.124-.266-.406-.546-.699-.694-.195-.099-.28-.116-.608-.125q-.382-.01-.526.045M3.38 6.576c-.451.112-.95.421-1.279.793-.209.237-.465.739-.547 1.071-.044.178-.054 1.061-.054 4.64 0 4.925-.009 4.74.278 5.616a5.49 5.49 0 0 0 3.526 3.526c.859.282.797.278 4.696.278s3.837.004 4.696-.278c1.952-.639 3.404-2.329 3.727-4.335.034-.212.066-.389.07-.394.005-.004.182-.036.394-.07a5.53 5.53 0 0 0 3.988-2.898 5.493 5.493 0 0 0-3.985-7.943c-.306-.054-1.279-.061-7.83-.058-5.792.002-7.525.014-7.68.052m12.091 6.974-.011 4.03-.09.237c-.233.618-.712 1.157-1.26 1.418-.58.276-.416.265-4.11.265s-3.53.011-4.11-.265c-.548-.261-1.027-.8-1.26-1.418l-.09-.237-.011-4.03-.011-4.03h10.964zm3.589-3.808c.707.339 1.239 1.004 1.381 1.728.071.36.033 1.048-.075 1.347-.217.605-.705 1.155-1.256 1.418-.182.087-.388.17-.46.185l-.13.026V9.554l.13.027c.072.015.256.087.41.161"/></svg>