<svg xmlns="http://www.w3.org/2000/svg" width="24" height="24" fill="none" stroke="currentColor" stroke-linecap="round" stroke-linejoin="round" stroke-width="3"><path fill="#000" fill-rule="evenodd" stroke="none" d="M11.516.577c-.371.142-.711.446-.864.773-.111.239-.17.579-.171.995l-.001.286-.19.027c-.266.037-1.199.283-1.447.381a3 3 0 0 1-.221.081c-.008 0-.099-.145-.201-.323-.317-.549-.56-.759-1.039-.898-.584-.17-1.266.081-1.616.594a2 2 0 0 0-.261.694c-.052.302.101.788.399 1.259l.094.15-.701.7-.701.701-.348-.199c-.432-.248-.58-.289-.987-.272a1.2 1.2 0 0 0-.59.145c-.632.312-.965 1.049-.772 1.711.139.479.349.722.898 1.039.178.102.323.194.323.204s-.027.083-.061.163c-.097.232-.288.918-.371 1.332l-.076.38-.516.02c-.468.018-.537.031-.744.136-.93.471-1.133 1.673-.407 2.399.33.33.728.462 1.4.464l.284.001.026.187c.047.342.287 1.216.445 1.62.02.051-.041.105-.267.235-.572.331-.776.555-.924 1.018-.189.593.059 1.296.584 1.654.248.169.564.262.889.26.305-.001.502-.072.975-.349l.241-.141.7.7.7.7-.094.15c-.291.46-.456.972-.401 1.243.105.518.287.83.625 1.073.384.275.837.355 1.275.226.461-.137.705-.352 1.019-.895.144-.25.203-.32.253-.3.398.156 1.276.397 1.613.444l.18.024.024.475c.034.673.162.967.579 1.331.473.413 1.385.413 1.858 0 .417-.364.545-.658.579-1.331l.024-.475.18-.024c.27-.037.943-.213 1.326-.347.187-.065.343-.118.347-.118s.092.145.194.323c.313.541.558.756 1.018.893.758.224 1.596-.226 1.824-.979.141-.467.091-.807-.198-1.33l-.215-.389.697-.697.697-.697.241.141c.457.268.668.345.952.35.697.013 1.28-.399 1.485-1.049a1.35 1.35 0 0 0 .007-.872c-.141-.453-.349-.682-.917-1.01a4 4 0 0 1-.29-.177c0-.006.053-.162.118-.349.135-.387.31-1.057.347-1.331l.026-.187.284-.001c.672-.002 1.07-.134 1.4-.464.726-.726.522-1.929-.407-2.399-.207-.105-.276-.118-.743-.136l-.516-.02-.092-.44a8 8 0 0 0-.334-1.202 3 3 0 0 1-.083-.236c0-.008.146-.099.326-.203.588-.339.833-.656.925-1.196.144-.84-.494-1.649-1.338-1.697-.418-.023-.585.018-1.006.251l-.389.215-.696-.696-.695-.695.197-.351c.23-.408.285-.581.288-.91.011-1.159-1.261-1.87-2.279-1.274-.227.133-.412.346-.634.731a3 3 0 0 1-.201.323c-.008 0-.108-.037-.221-.081a12 12 0 0 0-1.447-.381l-.19-.027-.001-.286c-.002-.873-.264-1.382-.869-1.688-.195-.099-.28-.116-.608-.125q-.382-.01-.526.045m1.424 5c2.167.333 3.92 1.619 4.911 3.603.129.258.387.971.446 1.23l.025.11h-3.117l-.226-.346c-.671-1.029-1.622-1.587-2.813-1.65l-.455-.024-.774-1.34a57 57 0 0 1-.776-1.365c-.001-.035.47-.152.859-.215.435-.069 1.477-.071 1.92-.003M8.29 8.58c.406.704.757 1.316.78 1.36.034.065.014.126-.108.328-.337.556-.507 1.378-.435 2.101.044.441.228 1.022.424 1.343.077.125.14.248.141.272s-.348.649-.775 1.389l-.775 1.346-.175-.17c-.416-.404-.89-1.073-1.205-1.702-.655-1.309-.823-3.004-.445-4.476a6.6 6.6 0 0 1 1.118-2.31c.189-.247.688-.791.707-.772.005.006.342.587.748 1.291m4.054 3.076c.119.119.136.162.136.337 0 .24-.129.424-.338.481-.189.053-.327.014-.485-.134-.122-.116-.137-.152-.137-.34 0-.19.014-.224.143-.345.123-.116.17-.135.344-.135.175 0 .218.017.337.136m5.896 2.134c-.605 2.172-2.323 3.858-4.577 4.489-.938.263-2.359.272-3.256.02-.136-.038-.247-.081-.246-.094.001-.014.35-.628.776-1.365l.775-1.34.362-.009c1.194-.03 2.255-.638 2.905-1.663l.195-.308h3.141z"/></svg>