<svg xmlns="http://www.w3.org/2000/svg" width="24" height="24" fill="none" stroke="currentColor" stroke-linecap="round" stroke-linejoin="round" stroke-width="3"><path fill="#000" fill-rule="evenodd" stroke="none" d="M7.02.564c-2.244.32-4.216 1.595-5.387 3.483C.635 5.656.273 7.638.644 9.46c.754 3.703 4.159 6.301 7.886 6.018a7.51 7.51 0 0 0 6.948-6.948c.295-3.877-2.526-7.378-6.403-7.948C8.614.515 7.439.504 7.02.564m2.14 3.093c.441.122 1.163.464 1.48.701.304.228.732.652.969.962.268.35.605 1.052.74 1.54.102.37.11.455.11 1.14 0 .686-.008.769-.11 1.138-.36 1.289-1.196 2.314-2.359 2.89-1.614.798-3.581.549-4.92-.623A4.6 4.6 0 0 1 3.651 9.14c-.102-.37-.11-.456-.11-1.14 0-.685.008-.77.11-1.14.135-.488.472-1.19.74-1.54.237-.31.665-.734.969-.962.301-.225 1.033-.577 1.417-.681.515-.139.65-.153 1.343-.139.561.012.717.03 1.04.119m-2.644.92c-.85.321-1.242 1.26-.865 2.071.114.247.45.593.669.692l.153.069.014 1.446.014 1.445.104.248c.249.594.761.938 1.395.938s1.145-.343 1.395-.938L9.5 10.3l.013-2.087c.007-1.217-.004-2.204-.027-2.369-.075-.538-.364-.948-.838-1.188L8.42 4.54l-.88-.009c-.663-.006-.916.005-1.024.046m11.103 4.378c-.612.221-.973.696-1.011 1.33a1.46 1.46 0 0 0 .908 1.463c.974.412 1.619.903 2.121 1.614.57.807.843 1.649.843 2.593-.001 1.034-.293 1.94-.873 2.709a4.55 4.55 0 0 1-2.476 1.682c-.486.126-1.364.172-1.841.095-1.129-.181-2.239-.854-2.913-1.769-.188-.255-.49-.827-.652-1.235a1.58 1.58 0 0 0-.692-.76c-.243-.131-.27-.137-.673-.137-.37 0-.447.012-.645.105a1.45 1.45 0 0 0-.811.952c-.131.444-.051.823.351 1.663a7.45 7.45 0 0 0 3.445 3.459 7.1 7.1 0 0 0 3.29.76c2.54.003 4.839-1.237 6.286-3.391.39-.579.817-1.567.998-2.308.161-.654.186-.903.185-1.82-.002-.966-.044-1.286-.28-2.101-.494-1.705-1.629-3.204-3.179-4.2a9 9 0 0 0-1.416-.698 1.6 1.6 0 0 0-.965-.006m-1.465 3.538c-.66.278-1.043.963-.916 1.638.027.14.064.28.083.311.026.042-.222.315-.958 1.058-.699.705-1.022 1.061-1.094 1.202-.308.608-.204 1.287.269 1.76.356.356.81.503 1.293.419.496-.086.547-.127 2.237-1.815 1.7-1.699 1.723-1.727 1.817-2.256.049-.281 0-.61-.132-.887-.123-.258-1.147-1.275-1.413-1.403-.302-.146-.873-.159-1.186-.027"/></svg>