<svg xmlns="http://www.w3.org/2000/svg" width="24" height="24" fill="none" stroke="currentColor" stroke-linecap="round" stroke-linejoin="round" stroke-width="3"><path fill="#000" fill-rule="evenodd" stroke="none" d="M5.84 1.523c-1.395.021-1.521.028-1.793.111a3.57 3.57 0 0 0-2.495 2.754c-.076.399-.076 14.825 0 15.224.221 1.168 1.036 2.177 2.116 2.617.716.292.076.271 8.332.271 6.835 0 7.443-.005 7.71-.068a3.7 3.7 0 0 0 1.798-1.004c.573-.6.883-1.272.971-2.111.054-.511.054-14.123 0-14.634-.087-.83-.396-1.506-.957-2.098-.565-.597-1.397-.997-2.182-1.049-.444-.03-11.663-.041-13.5-.013M6 12.02v7.5h-.49c-.578 0-.749-.04-.887-.204l-.103-.122V4.792l.136-.136.136-.136H6zm4.48 0v7.5H9v-15h1.48zm4.52 0v7.5h-1.48v-15H15zm4.344-7.364.136.136v14.402l-.103.122c-.138.164-.309.204-.887.204H18v-15h1.208z"/></svg>