<svg xmlns="http://www.w3.org/2000/svg" width="24" height="24" fill="none" stroke="currentColor" stroke-linecap="round" stroke-linejoin="round" stroke-width="3"><path fill="#000" fill-rule="evenodd" stroke="none" d="M3.44.547A3.56 3.56 0 0 0 .552 3.388c-.074.389-.074 4.835 0 5.224.221 1.168 1.036 2.177 2.116 2.617.669.272.647.271 3.332.271 2.132 0 2.454-.008 2.71-.068a3.7 3.7 0 0 0 1.798-1.004c.573-.6.883-1.272.971-2.111.051-.49.051-4.144 0-4.634-.154-1.465-1.108-2.617-2.526-3.051C8.664.544 8.628.543 6.1.536 4.692.532 3.495.537 3.44.547m10.076.029c-1.051.406-1.349 1.701-.571 2.479.25.251.525.377.959.44.31.045.36.065.462.179l.114.127v2.194c0 2.161-.001 2.196-.083 2.3-.119.151-.201.185-.539.223-1.263.141-1.804 1.646-.913 2.537.356.357.78.483 1.408.419 1.663-.168 2.948-1.466 3.126-3.157.051-.49.051-4.144 0-4.634-.154-1.461-1.135-2.644-2.526-3.046-.378-.109-1.22-.145-1.437-.061m6 0c-1.051.406-1.349 1.701-.571 2.479.25.251.525.377.959.44.31.045.36.065.462.179l.114.127v2.194c0 2.161-.001 2.196-.083 2.3-.119.151-.201.185-.539.223-1.263.141-1.804 1.646-.913 2.537.356.357.78.483 1.408.419a3.51 3.51 0 0 0 3.002-2.497c.138-.462.164-.937.164-2.977 0-1.067-.018-2.11-.04-2.317-.154-1.461-1.135-2.644-2.526-3.046-.378-.109-1.22-.145-1.437-.061M8.344 3.656l.136.136v4.402l-.103.122a.6.6 0 0 1-.25.163c-.199.055-4.055.055-4.254 0a.6.6 0 0 1-.25-.163l-.103-.122V3.792l.136-.136.136-.136h4.416zm-6.828 8.921a1.54 1.54 0 0 0-.998 1.233c-.088.604-.017 1.781.144 2.39.121.461.46 1.167.729 1.52.249.327.758.813 1.061 1.014.866.572 1.748.785 3.261.786h.614l-.289.31c-.319.343-.47.623-.515.952-.163 1.201 1.032 2.069 2.145 1.559.201-.092.455-.329 1.898-1.773 1.279-1.281 1.69-1.716 1.768-1.874a1.6 1.6 0 0 0 0-1.388c-.078-.159-.484-.587-1.768-1.868C7.611 13.487 7.682 13.54 7 13.54c-.384 0-.44.01-.648.116a1.5 1.5 0 0 0-.829 1.562c.046.337.196.609.535.972l.309.33-.654-.001c-.735-.001-1.124-.045-1.376-.156-.249-.11-.526-.385-.669-.662l-.124-.241-.027-.88c-.024-.772-.038-.909-.116-1.113q-.202-.53-.759-.814c-.187-.095-.274-.112-.6-.121-.253-.007-.431.008-.526.045m13.924-.03a3.56 3.56 0 0 0-2.888 2.841c-.074.389-.074 4.835 0 5.224.221 1.168 1.036 2.177 2.116 2.617.669.272.647.271 3.332.271 2.132 0 2.454-.008 2.71-.068a3.7 3.7 0 0 0 1.798-1.004c.573-.6.883-1.272.971-2.111.051-.49.051-4.144 0-4.634-.154-1.465-1.108-2.617-2.526-3.051-.289-.088-.325-.089-2.853-.096-1.408-.004-2.605.001-2.66.011m4.904 3.109.136.136v4.402l-.103.122a.6.6 0 0 1-.25.163c-.199.055-4.055.055-4.254 0a.6.6 0 0 1-.25-.163l-.103-.122v-4.402l.136-.136.136-.136h4.416z"/></svg>