<svg xmlns="http://www.w3.org/2000/svg" width="24" height="24" fill="none" stroke="currentColor" stroke-linecap="round" stroke-linejoin="round" stroke-width="3"><path fill="#000" fill-rule="evenodd" stroke="none" d="M5.277 1.558c-1.471.269-2.667 1.161-3.316 2.474a5.2 5.2 0 0 0-.402 1.248c-.059.334-.059 1.106 0 1.44.295 1.676 1.433 3.008 3.026 3.543.54.181.822.218 1.885.244l1.01.025v2.981l-1.13.017c-1.078.017-1.147.023-1.509.126-1.288.366-2.298 1.199-2.88 2.376a5.2 5.2 0 0 0-.402 1.248c-.059.334-.059 1.106 0 1.44a4.53 4.53 0 0 0 3.637 3.706c.391.076 1.217.076 1.608 0 1.642-.321 2.933-1.444 3.459-3.011.181-.54.218-.822.244-1.885l.025-1.01h2.936l.023.99c.024 1.04.05 1.258.215 1.808.521 1.738 2.09 3.004 3.91 3.158a4.48 4.48 0 0 0 4.514-2.716 4.49 4.49 0 0 0-.555-4.483 5.8 5.8 0 0 0-.935-.919c-.314-.235-1.036-.578-1.48-.703-.362-.102-.434-.108-1.51-.125l-1.13-.017V10.52h.69c1.252-.001 1.852-.093 2.55-.39a4.48 4.48 0 0 0 2.716-4.514 4.5 4.5 0 0 0-.901-2.339 5.8 5.8 0 0 0-.935-.919c-.322-.241-1.042-.58-1.5-.707-.37-.102-.455-.11-1.14-.11-.686 0-.769.008-1.138.11-1.3.362-2.315 1.196-2.901 2.381a5.4 5.4 0 0 0-.402 1.228c-.025.132-.055.695-.068 1.25l-.022 1.01H10.52v-.71c-.001-1.273-.091-1.869-.39-2.57a4.15 4.15 0 0 0-.997-1.452 3.8 3.8 0 0 0-1.153-.81c-.678-.332-1.061-.423-1.86-.44-.363-.007-.742.002-.843.02m1.376 3.1c.272.138.573.445.709.722.094.193.098.235.111 1.17l.012.97-.712-.001c-.392 0-.825-.017-.963-.037a1.51 1.51 0 0 1-1.154-.834C4.55 6.44 4.54 6.384 4.54 6c0-.365.013-.446.098-.62.173-.352.515-.664.878-.803q.144-.055.526-.045c.329.009.413.026.611.126m12 0c.272.138.573.445.709.722.085.174.098.255.098.62 0 .384-.01.44-.116.648a1.51 1.51 0 0 1-1.154.834c-.138.02-.57.037-.962.037l-.712.001.012-.97c.012-.937.015-.977.11-1.17.173-.352.515-.664.878-.803q.144-.055.526-.045c.329.009.413.026.611.126M13.48 12.02v1.5h-2.96v-3h2.96zm-6.007 5.45-.013.95-.116.228a1.5 1.5 0 0 1-1.562.829 1.51 1.51 0 0 1-1.126-.829c-.106-.208-.116-.264-.116-.648 0-.365.013-.446.098-.62.174-.353.521-.67.878-.801.103-.038.403-.054 1.057-.056l.912-.003zm11.178-.813c.273.139.575.445.711.723.085.174.098.255.098.62 0 .384-.01.44-.116.648a1.51 1.51 0 0 1-1.126.829 1.5 1.5 0 0 1-1.562-.829l-.116-.228-.013-.953-.012-.952.952.012.953.013z"/></svg>