<svg xmlns="http://www.w3.org/2000/svg" width="24" height="24" fill="none" stroke="currentColor" stroke-linecap="round" stroke-linejoin="round" stroke-width="3"><path fill="#000" fill-rule="evenodd" stroke="none" d="M11.516.577a2.3 2.3 0 0 0-.32.163c-.097.06-1.016.948-2.043 1.974-1.741 1.739-1.877 1.885-2 2.146-.12.252-.133.315-.133.64 0 .324.013.388.132.64.124.261.26.407 2.04 2.188 1.664 1.664 1.938 1.921 2.14 2.014.433.197.903.197 1.336 0 .202-.093.476-.35 2.14-2.014 1.78-1.781 1.916-1.927 2.04-2.188.119-.252.132-.316.132-.64s-.013-.388-.132-.64c-.124-.262-.257-.404-2.04-2.182C12.61.487 12.691.55 12.042.532q-.382-.01-.526.045M12.69 4.83l.67.671-.68.679-.68.679-.68-.679-.68-.679.67-.671c.368-.368.679-.67.69-.67s.322.302.69.67M5.174 7.039c-.422.09-.51.165-2.502 2.155C1.007 10.857.751 11.13.658 11.332a1.63 1.63 0 0 0-.135.886c.069.508.078.519 2.149 2.59 1.781 1.78 1.927 1.916 2.188 2.04.252.119.316.132.64.132s.388-.013.64-.132c.261-.124.407-.26 2.188-2.04 1.664-1.664 1.921-1.938 2.014-2.14a1.58 1.58 0 0 0 0-1.336c-.093-.202-.35-.476-2.014-2.14C6.59 7.455 6.397 7.274 6.16 7.163a1.74 1.74 0 0 0-.986-.124m13 0c-.422.09-.51.165-2.502 2.155-1.665 1.663-1.921 1.936-2.014 2.138a1.58 1.58 0 0 0 0 1.336c.093.202.35.476 2.014 2.14 1.781 1.78 1.927 1.916 2.188 2.04.252.119.316.132.64.132s.388-.013.64-.132c.261-.124.407-.26 2.188-2.04 1.664-1.664 1.921-1.938 2.014-2.14a1.58 1.58 0 0 0 0-1.336c-.093-.202-.35-.476-2.014-2.14-1.738-1.737-1.931-1.918-2.168-2.029a1.74 1.74 0 0 0-.986-.124M6.18 12.68l-.679.68-.68-.68-.68-.68.679-.68.679-.68.68.68.68.68zm13 0-.679.68-.68-.68-.68-.68.679-.68.679-.68.68.68.68.68zm-7.664.897a2.3 2.3 0 0 0-.32.163c-.097.06-1.016.948-2.043 1.974-1.741 1.739-1.877 1.885-2 2.146-.12.252-.133.315-.133.64 0 .324.013.388.132.64.124.261.26.407 2.04 2.188 2.071 2.071 2.082 2.08 2.59 2.149.294.04.607-.008.886-.135.202-.093.476-.35 2.14-2.014 1.78-1.781 1.916-1.927 2.04-2.188.119-.252.132-.316.132-.64s-.013-.388-.132-.64c-.124-.262-.257-.404-2.04-2.182-2.199-2.193-2.12-2.132-2.768-2.147-.246-.006-.431.01-.524.046m1.174 4.253.67.671-.68.679-.68.679-.68-.679-.68-.679.67-.671c.368-.368.679-.67.69-.67s.322.302.69.67"/></svg>