<svg xmlns="http://www.w3.org/2000/svg" width="24" height="24" fill="none" stroke="currentColor" stroke-linecap="round" stroke-linejoin="round" stroke-width="3"><path fill="#000" fill-rule="evenodd" stroke="none" d="M10.82.563A11.515 11.515 0 0 0 .739 9.671a11.8 11.8 0 0 0 0 4.658 11.52 11.52 0 0 0 8.932 8.932c1.501.309 3.157.309 4.658 0a11.53 11.53 0 0 0 8.932-8.932 11.8 11.8 0 0 0 0-4.658C22.306 5.036 18.563 1.433 13.9.663c-.846-.14-2.244-.185-3.08-.1m2.6 3.054c2.416.447 4.406 1.764 5.73 3.791 1.617 2.478 1.777 5.808.406 8.476a8.75 8.75 0 0 1-3.078 3.344c-.929.579-2.156 1.023-3.298 1.194-.591.088-1.769.088-2.36 0-1.86-.279-3.49-1.094-4.802-2.402-1.289-1.285-2.06-2.766-2.405-4.62-.102-.545-.102-2.255 0-2.8.455-2.445 1.759-4.421 3.795-5.75 1.057-.69 2.201-1.094 3.692-1.306.306-.043 1.974.01 2.32.073m-.427 3.644c-2.617.874-2.986 1.008-3.295 1.192-.621.37-1.118.909-1.394 1.513-.074.162-.561 1.578-1.083 3.146-.86 2.589-.948 2.877-.948 3.121 0 .832.653 1.499 1.467 1.5.259 0 .497-.073 3.14-.952 1.573-.523 2.992-1.011 3.154-1.085.66-.302 1.295-.916 1.627-1.576.144-.285 2.01-5.874 2.054-6.15.098-.622-.243-1.26-.832-1.556-.185-.093-.284-.114-.583-.125l-.36-.013zm.847 2.929c0 .016-.192.606-.427 1.31-.323.969-.451 1.304-.53 1.383s-.417.208-1.396.535c-.711.237-1.302.421-1.314.409-.041-.042.833-2.589.925-2.696.071-.083.35-.192 1.366-.535 1.288-.434 1.376-.46 1.376-.406"/></svg>