<svg xmlns="http://www.w3.org/2000/svg" width="24" height="24" fill="none" stroke="currentColor" stroke-linecap="round" stroke-linejoin="round" stroke-width="3"><path fill="#000" fill-rule="evenodd" stroke="none" d="m10.72 2.52-1.14.02-.228.116c-.93.471-1.133 1.673-.407 2.399.317.317.73.462 1.325.464l.21.001v1.111l-.19.027c-.36.051-1.259.304-1.724.487a9.4 9.4 0 0 0-3.139 2.013 9.3 9.3 0 0 0-2.245 3.316c-.286.713-.389 1.101-.604 2.267-.009.051-.088.117-.207.174-.887.43-1.609 1.403-1.816 2.449-.071.361-.072 1.907-.001 2.196.175.713.701 1.372 1.334 1.674.604.287-.198.266 10.112.266 7.714 0 9.378-.009 9.56-.054a2.61 2.61 0 0 0 1.862-1.806c.083-.304.118-1.361.063-1.895-.069-.67-.25-1.2-.574-1.679-.327-.483-.822-.928-1.282-1.151-.119-.057-.198-.123-.207-.174l-.1-.541c-.266-1.439-.937-2.906-1.872-4.096-.336-.429-1.262-1.334-1.69-1.654-1.056-.789-2.174-1.332-3.38-1.642a10 10 0 0 0-.67-.15l-.19-.027V5.52l.21-.001c.595-.002 1.008-.147 1.325-.464.725-.725.522-1.929-.404-2.398-.191-.096-.282-.116-.588-.125a81 81 0 0 0-3.343-.012m2.22 7.057c2.167.333 3.92 1.619 4.911 3.603.129.258.387.971.446 1.23l.025.11H5.678l.025-.11c.059-.259.317-.972.446-1.23.983-1.967 2.729-3.258 4.871-3.6.436-.069 1.478-.071 1.92-.003m7.404 8.079c.135.135.136.139.136.5v.364H3.52v-.364c0-.361.001-.365.136-.5l.136-.136h16.416z"/></svg>