<svg xmlns="http://www.w3.org/2000/svg" width="24" height="24" fill="none" stroke="currentColor" stroke-linecap="round" stroke-linejoin="round" stroke-width="3"><path fill="#000" fill-rule="evenodd" stroke="none" d="M6.516 1.577c-.371.142-.711.446-.864.773-.135.289-.17.587-.171 1.438l-.001.728-1.53.012c-1.471.012-1.539.016-1.767.102-.372.14-.656.326-.968.634A2.57 2.57 0 0 0 .554 6.44c-.079.323-.079 6.797 0 7.12a2.62 2.62 0 0 0 1.806 1.866c.177.052.501.068 1.668.083l1.448.019.012 2.886L5.5 21.3l.105.248c.25.595.761.938 1.395.938s1.145-.343 1.395-.938L8.5 21.3l.012-2.89.012-2.89h6.952l.012 2.89.012 2.89.105.248c.25.595.761.938 1.395.938s1.145-.343 1.395-.938l.105-.248.012-2.886.012-2.886 1.448-.019c1.6-.021 1.645-.027 2.182-.292.43-.212.869-.662 1.08-1.105.277-.582.266-.416.266-4.112 0-3.694.011-3.53-.265-4.11-.261-.548-.8-1.027-1.418-1.26-.228-.086-.296-.09-1.767-.102l-1.53-.012-.001-.728c0-.4-.017-.84-.037-.978a1.51 1.51 0 0 0-.834-1.154c-.208-.106-.264-.116-.648-.116s-.44.01-.648.116a1.51 1.51 0 0 0-.834 1.154c-.02.138-.037.577-.037.977l-.001.726-3.48.005-3.48.004-.001-.731c0-.402-.017-.843-.037-.981a1.51 1.51 0 0 0-.832-1.153c-.195-.099-.28-.116-.608-.125q-.382-.01-.526.045M9.88 10.02l2.5 2.5h-1.72l-2.5-2.5-2.5-2.5h1.72zm6 .002 2.5 2.502-.87-.012-.87-.012-2.49-2.49-2.49-2.49h1.72zm4.6-1.102c0 .77-.005 1.4-.01 1.4-.006 0-.64-.63-1.41-1.4l-1.4-1.4h2.82zM4.96 11.1l1.42 1.42H3.52V11.1c0-.781.005-1.42.01-1.42.006 0 .649.639 1.43 1.42"/></svg>