<svg xmlns="http://www.w3.org/2000/svg" width="24" height="24" fill="none" stroke="currentColor" stroke-linecap="round" stroke-linejoin="round" stroke-width="3"><path fill="#000" fill-rule="evenodd" stroke="none" d="M10.82.563A11.515 11.515 0 0 0 .739 9.671a11.8 11.8 0 0 0 0 4.658 11.52 11.52 0 0 0 8.932 8.932c1.501.309 3.157.309 4.658 0a11.53 11.53 0 0 0 8.932-8.932 11.8 11.8 0 0 0 0-4.658C22.306 5.036 18.563 1.433 13.9.663c-.846-.14-2.244-.185-3.08-.1m2.6 3.054c2.416.447 4.406 1.764 5.73 3.791 1.617 2.478 1.777 5.808.406 8.476a8.75 8.75 0 0 1-3.078 3.344c-.929.579-2.156 1.023-3.298 1.194-.591.088-1.769.088-2.36 0-1.86-.279-3.49-1.094-4.802-2.402-1.289-1.285-2.06-2.766-2.405-4.62-.102-.545-.102-2.255 0-2.8.455-2.445 1.759-4.421 3.795-5.75 1.057-.69 2.201-1.094 3.692-1.306.306-.043 1.974.01 2.32.073m-1.904.962a1.54 1.54 0 0 0-.998 1.231c-.048.328-.048 12.052 0 12.38a1.494 1.494 0 0 0 1.284 1.29c.31.044 1.136-.018 1.658-.124a7.525 7.525 0 0 0 6.018-6.826c.295-3.877-2.526-7.378-6.403-7.948-.519-.076-1.357-.078-1.559-.003m2.721 3.526c.477.262 1.035.76 1.405 1.255.241.322.58 1.041.707 1.5.102.37.11.455.11 1.14 0 .686-.008.769-.11 1.138a4.6 4.6 0 0 1-1.419 2.267c-.354.31-.891.636-1.314.796l-.096.037V7.761l.23.102c.127.055.346.165.487.242"/></svg>