<svg xmlns="http://www.w3.org/2000/svg" width="24" height="24" fill="none" stroke="currentColor" stroke-linecap="round" stroke-linejoin="round" stroke-width="3"><path fill="#000" fill-rule="evenodd" stroke="none" d="M13.331.663c-.137.03-.371.106-.52.17C12.584.93 2.458 6.794 1.807 7.206c-.26.164-.566.486-.813.856-.255.383-.3.481-.404.886L.5 9.3v7.4l.113.36c.218.698.654 1.398 1.115 1.792.256.218 6.442 4.059 6.852 4.254.847.402 1.895.41 2.72.018.132-.062 1.806-1.026 3.72-2.142l5.165-3.011c.927-.54 1.803-1.068 1.947-1.174.504-.37.978-1.034 1.202-1.683.179-.52.192-.842.175-4.454-.014-3.287-.017-3.368-.102-3.717-.149-.613-.616-1.352-1.131-1.791-.254-.216-6.447-4.061-6.856-4.257-.445-.213-.838-.296-1.376-.291a4.5 4.5 0 0 0-.713.059m3.502 4.597c2.136 1.321 2.513 1.567 2.459 1.609-.035.027-2.134 1.249-4.663 2.715l-4.598 2.666-.129-.075c-.07-.041-1.257-.776-2.636-1.632-1.975-1.226-2.498-1.568-2.457-1.605.056-.051 8.784-5.14 9.065-5.286.169-.087.179-.087.306-.021.072.038 1.266.771 2.653 1.629m3.647 6.681c0 2.02-.007 2.272-.065 2.361-.051.078-.385.296-.865.566-.016.009-.03-1.034-.03-2.318v-2.335l.45-.264c.248-.145.463-.266.48-.268s.03 1.015.03 2.258M6.156 13.38l2.323 1.44v2.367l.001 2.367-2.401-1.487C4.412 17.034 3.654 16.543 3.6 16.46c-.077-.116-.079-.197-.08-2.414v-2.294l.157.094c.086.052 1.201.742 2.479 1.534m10.324.95-.001 2.33-.447.26c-.246.143-.462.266-.48.273s-.032-1.037-.032-2.321v-2.334l.45-.267c.248-.147.463-.268.48-.269s.03 1.046.03 2.328m-4 2.325v2.334l-.458.266a7 7 0 0 1-.48.265c-.012 0-.022-1.05-.022-2.334v-2.335l.45-.263c.248-.144.463-.264.48-.265s.03 1.048.03 2.332"/></svg>