<svg xmlns="http://www.w3.org/2000/svg" width="24" height="24" fill="none" stroke="currentColor" stroke-linecap="round" stroke-linejoin="round" stroke-width="3"><path fill="#000" fill-rule="evenodd" stroke="none" d="M7.516.577c-.371.142-.711.446-.864.773-.106.228-.17.576-.171.937l-.001.226-1.07.017c-.955.015-1.101.026-1.363.104a3.57 3.57 0 0 0-2.495 2.754c-.076.399-.076 14.825 0 15.224.221 1.168 1.036 2.177 2.116 2.617.716.292.076.271 8.332.271 6.835 0 7.443-.005 7.71-.068a3.7 3.7 0 0 0 1.798-1.004c.573-.6.883-1.272.971-2.111.025-.234.04-3.004.04-7.317s-.015-7.083-.04-7.317c-.132-1.255-.824-2.255-1.946-2.817-.573-.287-.747-.317-1.943-.336l-1.07-.017-.001-.226c-.003-.813-.28-1.332-.871-1.631C16.44.55 16.384.54 16 .54s-.44.01-.648.116c-.592.3-.868.818-.871 1.634l-.001.23H9.52l-.001-.23C9.516 1.475 9.24.955 8.65.657 8.455.558 8.37.541 8.042.532q-.382-.01-.526.045m11.828 5.079.136.136v14.402l-.103.122a.6.6 0 0 1-.25.163c-.204.056-14.05.056-14.254 0a.6.6 0 0 1-.25-.163l-.103-.122V5.792l.136-.136.136-.136h14.416zm-8.067.902c-1.471.269-2.667 1.161-3.316 2.474A4.34 4.34 0 0 0 7.513 11c0 .715.146 1.355.448 1.968.155.312.417.733.482.774.019.011-.115.169-.297.35-1.028 1.017-1.621 2.398-1.633 3.803-.004.59.136.911.558 1.28.473.413 1.385.413 1.858 0 .399-.348.526-.629.586-1.301.065-.735.255-1.16.727-1.632.287-.287.576-.475.941-.612.205-.076.316-.088.817-.088s.612.012.817.088c.365.137.654.325.941.612.472.472.662.897.727 1.632.06.672.187.953.586 1.301.357.312 1.008.406 1.484.213.389-.157.677-.446.835-.838.085-.21.099-.308.097-.655-.012-1.402-.605-2.786-1.627-3.798l-.327-.324.094-.116c.427-.53.782-1.481.849-2.273a4.46 4.46 0 0 0-1.343-3.596 3.8 3.8 0 0 0-1.153-.81c-.678-.332-1.061-.423-1.86-.44-.363-.007-.742.002-.843.02m1.376 3.1c.272.138.573.445.709.722.085.174.098.255.098.62 0 .384-.01.44-.116.648-.15.297-.428.576-.704.707-.194.093-.27.105-.64.105s-.446-.012-.64-.105a1.65 1.65 0 0 1-.704-.707c-.106-.208-.116-.264-.116-.648 0-.365.013-.446.098-.62.173-.352.515-.664.878-.803q.144-.056.526-.045c.329.009.413.026.611.126"/></svg>