<svg xmlns="http://www.w3.org/2000/svg" width="24" height="24" fill="none" stroke="currentColor" stroke-linecap="round" stroke-linejoin="round" stroke-width="3"><path fill="#000" fill-rule="evenodd" stroke="none" d="M10.82.563A11.515 11.515 0 0 0 .739 9.671a11.8 11.8 0 0 0 0 4.658 11.52 11.52 0 0 0 8.932 8.932c1.501.309 3.157.309 4.658 0 4.721-.972 8.344-4.816 9.051-9.601.086-.583.139-1.583.099-1.868a1.47 1.47 0 0 0-.415-.836c-.427-.421-.892-.52-1.662-.355-.884.19-1.689-.032-2.31-.638-.676-.659-.892-1.502-.655-2.557.078-.348.086-.447.051-.62a1.55 1.55 0 0 0-.413-.807c-.415-.439-.89-.546-1.673-.378-.325.07-.488.085-.74.066a2.51 2.51 0 0 1-2.209-1.724 2.75 2.75 0 0 1-.034-1.423c.198-.699.013-1.297-.532-1.72-.295-.228-.506-.278-1.167-.273a12 12 0 0 0-.9.036m-.427 3.456c.294 2.036 1.811 3.797 3.791 4.404.196.06.535.139.753.176l.397.067.07.417c.396 2.343 2.264 4.19 4.579 4.524.257.037.337.064.337.111 0 .131-.244.961-.4 1.357a8.3 8.3 0 0 1-1.938 2.945c-1.312 1.308-2.942 2.123-4.802 2.402-.591.088-1.769.088-2.36 0-1.86-.279-3.49-1.094-4.802-2.402-1.289-1.285-2.06-2.766-2.405-4.62-.102-.545-.102-2.255 0-2.8.343-1.841 1.119-3.341 2.384-4.601A8.37 8.37 0 0 1 9.7 3.82c.68-.192.635-.205.693.199m-2.219 3.02c-.424.09-.848.44-1.038.857-.342.75.004 1.641.775 1.997.272.126.906.126 1.178 0 .978-.452 1.212-1.703.458-2.445a1.8 1.8 0 0 0-.428-.305 1.8 1.8 0 0 0-.945-.104m3.342 3.538c-1.046.4-1.349 1.703-.578 2.475a1.47 1.47 0 0 0 2.124 0c.719-.719.511-1.928-.412-2.395-.195-.099-.28-.116-.608-.125q-.382-.01-.526.045m-5 2c-1.046.4-1.349 1.703-.578 2.475a1.47 1.47 0 0 0 2.124 0c.719-.719.511-1.928-.412-2.395-.195-.099-.28-.116-.608-.125q-.382-.01-.526.045m9.121 1.478c-.723.155-1.23.924-1.111 1.685.171 1.102 1.484 1.637 2.365.965.394-.3.601-.726.596-1.224-.006-.681-.496-1.293-1.143-1.428a1.36 1.36 0 0 0-.707.002m-5.121 1.522c-1.046.4-1.349 1.703-.578 2.475a1.47 1.47 0 0 0 2.124 0c.719-.719.511-1.928-.412-2.395-.195-.099-.28-.116-.608-.125q-.382-.01-.526.045"/></svg>