<svg xmlns="http://www.w3.org/2000/svg" width="24" height="24" fill="none" stroke="currentColor" stroke-linecap="round" stroke-linejoin="round" stroke-width="3"><path fill="#000" fill-rule="evenodd" stroke="none" d="M11.56.58c-.527.107-2.208.544-2.47.642a3.4 3.4 0 0 0-1.12.712 3.54 3.54 0 0 0-1.018 1.698c-.116.431-.116 1.253.001 1.708.045.176.069.331.054.344-.015.014-.799.217-1.743.452-.993.247-1.803.47-1.925.53a1.5 1.5 0 0 0-.682 1.991c.263.536.936.918 1.477.838.4-.059 16.334-4.066 16.521-4.155.113-.053.291-.181.395-.284.587-.58.589-1.515.006-2.106-.284-.287-.561-.407-.976-.423-.322-.012-.444.014-2.323.483l-1.983.496-.071-.283C15.36 1.87 14.324.858 12.992.578c-.338-.071-1.076-.07-1.432.002m1.058 3.07c.122.123.266.519.209.576-.034.035-2.84.731-2.87.712-.014-.009-.047-.123-.073-.255-.053-.268-.008-.437.154-.583.109-.097 1.962-.571 2.256-.576.168-.004.211.013.324.126M2.72 10.52l-1.14.02-.228.116c-.93.471-1.133 1.673-.407 2.399.316.317.73.462 1.323.464l.208.001.015 3.47c.013 2.989.023 3.506.078 3.731.335 1.383 1.344 2.389 2.721 2.711.266.062.815.068 6.71.068s6.444-.006 6.71-.068c1.537-.359 2.605-1.561 2.769-3.115.023-.216.04-1.748.04-3.587l.001-3.21.21-.001c.595-.002 1.008-.147 1.325-.464a1.51 1.51 0 0 0 .294-1.703c-.17-.363-.571-.697-.952-.791-.185-.046-17.373-.081-19.677-.041m15.76 6.337v3.337l-.103.122a.6.6 0 0 1-.25.163c-.204.056-12.05.056-12.254 0a.6.6 0 0 1-.25-.163l-.103-.122V13.52h12.96z"/></svg>