<svg xmlns="http://www.w3.org/2000/svg" width="24" height="24" fill="none" stroke="currentColor" stroke-linecap="round" stroke-linejoin="round" stroke-width="3"><path fill="#000" fill-rule="evenodd" stroke="none" d="M10.82.563A11.515 11.515 0 0 0 .739 9.671a11.8 11.8 0 0 0 0 4.658 11.52 11.52 0 0 0 8.932 8.932c1.501.309 3.157.309 4.658 0a11.53 11.53 0 0 0 8.932-8.932 11.8 11.8 0 0 0 0-4.658C22.306 5.036 18.563 1.433 13.9.663c-.846-.14-2.244-.185-3.08-.1m2.6 3.054c2.416.447 4.406 1.764 5.73 3.791 1.617 2.478 1.777 5.808.406 8.476a8.75 8.75 0 0 1-3.078 3.344c-.929.579-2.156 1.023-3.298 1.194-.591.088-1.769.088-2.36 0-1.86-.279-3.49-1.094-4.802-2.402-1.289-1.285-2.06-2.766-2.405-4.62-.102-.545-.102-2.255 0-2.8.455-2.445 1.759-4.421 3.795-5.75 1.057-.69 2.201-1.094 3.692-1.306.306-.043 1.974.01 2.32.073m-2.339 2.966c-1.106.202-2.14.726-2.899 1.471-.34.333-.474.612-.495 1.028-.039.791.465 1.424 1.242 1.559.499.087.879-.043 1.356-.463.342-.301.819-.551 1.185-.621.362-.069 1.047-.028 1.359.082.696.245 1.325.889 1.542 1.579.129.411.128 1.208-.003 1.586a2.57 2.57 0 0 1-1.619 1.578 2.85 2.85 0 0 1-1.313.059c-.35-.08-.831-.335-1.136-.603-.343-.3-.599-.435-.91-.479a1.51 1.51 0 0 0-1.499.695c-.314.497-.275 1.204.092 1.686.149.196.636.613.992.85 1.66 1.104 3.834 1.2 5.615.249 1.921-1.026 3.033-3.057 2.882-5.264-.17-2.493-2.104-4.59-4.611-4.996-.445-.072-1.373-.07-1.78.004"/></svg>