<svg xmlns="http://www.w3.org/2000/svg" width="24" height="24" fill="none" stroke="currentColor" stroke-linecap="round" stroke-linejoin="round" stroke-width="3"><path fill="#000" fill-rule="evenodd" stroke="none" d="M10.82.563A11.515 11.515 0 0 0 .739 9.671a11.8 11.8 0 0 0 0 4.658 11.52 11.52 0 0 0 8.932 8.932c1.501.309 3.157.309 4.658 0a11.53 11.53 0 0 0 8.932-8.932 11.8 11.8 0 0 0 0-4.658C22.306 5.036 18.563 1.433 13.9.663c-.846-.14-2.244-.185-3.08-.1m2.6 3.054c2.416.447 4.406 1.764 5.73 3.791 1.617 2.478 1.777 5.808.406 8.476a8.75 8.75 0 0 1-3.078 3.344c-.929.579-2.156 1.023-3.298 1.194-.591.088-1.769.088-2.36 0-1.86-.279-3.49-1.094-4.802-2.402-1.289-1.285-2.06-2.766-2.405-4.62-.102-.545-.102-2.255 0-2.8.455-2.445 1.759-4.421 3.795-5.75 1.057-.69 2.201-1.094 3.692-1.306.306-.043 1.974.01 2.32.073M11.1 6.582a5.53 5.53 0 0 0-3.936 2.823c-1.429 2.682-.424 6.015 2.241 7.432 2.047 1.088 4.46.813 6.219-.711.509-.44.696-.792.696-1.303a1.482 1.482 0 0 0-1.71-1.464c-.311.044-.567.179-.91.479-.305.268-.786.523-1.136.603-.372.086-.936.06-1.313-.059a2.58 2.58 0 0 1-1.62-1.578c-.077-.224-.091-.345-.091-.804s.014-.579.092-.808c.239-.69.855-1.312 1.539-1.553.312-.11.997-.151 1.359-.082.366.07.843.32 1.185.621.477.42.857.55 1.356.463.779-.136 1.286-.775 1.241-1.562-.024-.418-.159-.697-.494-1.025-.771-.756-1.805-1.276-2.928-1.472-.429-.076-1.343-.075-1.79 0"/></svg>