<svg xmlns="http://www.w3.org/2000/svg" width="24" height="24" fill="none" stroke="currentColor" stroke-linecap="round" stroke-linejoin="round" stroke-width="3"><path fill="#000" fill-rule="evenodd" stroke="none" d="M3.44.547c-.287.05-.716.19-.972.318C1.346 1.427.653 2.43.521 3.686c-.053.503-.053 10.127 0 10.631.153 1.455 1.118 2.627 2.503 3.038.36.107.895.163 1.187.123a1.5 1.5 0 0 0 1.266-1.26c.116-.857-.454-1.586-1.328-1.697-.351-.044-.428-.076-.546-.226l-.083-.106V3.792l.136-.136.136-.136h10.407l.127.114c.114.102.134.152.179.462.063.434.189.709.44.959a1.49 1.49 0 0 0 2.11 0c.357-.356.483-.78.419-1.408-.143-1.416-1.118-2.582-2.521-3.016l-.293-.09L9.1.535C6.042.532 3.495.538 3.44.547m6 6a3.56 3.56 0 0 0-2.888 2.841c-.076.397-.076 10.827 0 11.224.221 1.168 1.036 2.177 2.116 2.617.707.288.306.271 6.332.271 4.955 0 5.445-.006 5.71-.068a3.7 3.7 0 0 0 1.798-1.004c.573-.6.883-1.272.971-2.111.053-.506.053-10.128 0-10.634-.154-1.464-1.104-2.612-2.526-3.052l-.293-.09-5.56-.006c-3.058-.003-5.605.003-5.66.012m10.904 3.109.136.136v10.402l-.103.122a.6.6 0 0 1-.25.163c-.203.056-10.051.056-10.254 0a.6.6 0 0 1-.25-.163l-.103-.122V9.792l.136-.136.136-.136h10.416zm-8.828 3.922c-.366.136-.71.444-.864.774a1.5 1.5 0 0 0 1.158 2.13c.326.047 6.054.047 6.38 0a1.494 1.494 0 0 0 1.287-1.7 1.51 1.51 0 0 0-.829-1.126l-.228-.116-3.38-.008c-2.742-.006-3.407.003-3.524.046"/></svg>