<svg xmlns="http://www.w3.org/2000/svg" width="24" height="24" fill="none" stroke="currentColor" stroke-linecap="round" stroke-linejoin="round" stroke-width="3"><path fill="#000" fill-rule="evenodd" stroke="none" d="M19.516 2.577a1.64 1.64 0 0 0-.922.89L18.5 3.7l-.02 3.94-.02 3.94-.09.237c-.223.593-.706 1.148-1.218 1.401-.602.297-.24.277-5.131.292l-4.4.013 1.309-1.316c1.103-1.108 1.326-1.352 1.413-1.543.353-.771.057-1.627-.695-2.008C9.44 8.55 9.384 8.54 9 8.54c-.704 0-.49-.174-3.566 2.898-2.103 2.099-2.688 2.705-2.769 2.868-.21.424-.21.964 0 1.388.081.162.671.774 2.769 2.874 2.355 2.357 2.693 2.68 2.898 2.774a1.502 1.502 0 0 0 2.011-2.006c-.087-.191-.308-.433-1.389-1.519l-1.285-1.293 4.436-.014c4.923-.016 4.731-.006 5.592-.288a5.5 5.5 0 0 0 3.525-3.525c.277-.845.271-.752.288-4.865.009-2.277 0-3.816-.024-3.988-.075-.537-.364-.949-.836-1.187-.195-.099-.28-.116-.608-.125-.253-.007-.431.008-.526.045"/></svg>