<svg xmlns="http://www.w3.org/2000/svg" width="24" height="24" fill="none" stroke="currentColor" stroke-linecap="round" stroke-linejoin="round" stroke-width="3"><path fill="#000" fill-rule="evenodd" stroke="none" d="M3.516 2.579c-.364.134-.71.443-.864.773-.371.791 0 1.725.815 2.054L3.7 5.5l3.94.02 3.94.02.237.09a2.67 2.67 0 0 1 1.553 1.553l.09.237.011 4.458.011 4.459-1.291-1.28C10.653 13.534 10.663 13.54 10 13.54c-.384 0-.44.01-.648.116-.754.382-1.048 1.236-.694 2.012.094.205.417.543 2.774 2.898 2.1 2.098 2.712 2.688 2.874 2.769.424.21.964.21 1.388 0 .162-.081.774-.671 2.874-2.769 2.357-2.355 2.68-2.693 2.774-2.898.354-.776.06-1.63-.694-2.012-.208-.106-.264-.116-.648-.116-.663 0-.654-.006-2.188 1.514l-1.288 1.277-.014-4.436c-.016-4.923-.006-4.731-.288-5.592-.643-1.963-2.27-3.361-4.332-3.721-.299-.053-.921-.061-4.29-.059-3.172.002-3.968.013-4.084.056"/></svg>