<svg xmlns="http://www.w3.org/2000/svg" width="24" height="24" fill="none" stroke="currentColor" stroke-linecap="round" stroke-linejoin="round" stroke-width="3"><path fill="#000" fill-rule="evenodd" stroke="none" d="M14.729 2.524c-.465.078-.453.068-3.297 2.91-2.357 2.355-2.68 2.693-2.774 2.898a1.502 1.502 0 0 0 2.006 2.011c.191-.087.433-.309 1.522-1.392l1.296-1.288-.011 4.459-.011 4.458-.09.237c-.223.593-.706 1.148-1.218 1.401-.595.294-.301.275-4.652.3l-3.92.022-.228.116c-.93.471-1.133 1.673-.407 2.399.241.241.53.38.899.431.172.024 1.711.033 3.988.024 4.113-.017 4.02-.011 4.865-.288a5.5 5.5 0 0 0 3.525-3.525c.282-.861.272-.669.288-5.592l.014-4.436 1.293 1.285c1.086 1.081 1.328 1.302 1.519 1.389a1.502 1.502 0 0 0 2.006-2.011c-.094-.205-.417-.543-2.774-2.898-2.876-2.874-2.825-2.83-3.334-2.912a3 3 0 0 0-.274-.037z"/></svg>