<svg xmlns="http://www.w3.org/2000/svg" width="24" height="24" fill="none" stroke="currentColor" stroke-linecap="round" stroke-linejoin="round" stroke-width="3"><path fill="#000" fill-rule="evenodd" stroke="none" d="M8.729 2.524c-.465.078-.453.068-3.297 2.91-2.357 2.355-2.68 2.693-2.774 2.898a1.502 1.502 0 0 0 2.006 2.011c.191-.087.433-.308 1.519-1.389l1.293-1.285.014 4.436c.016 4.923.006 4.731.288 5.592a5.5 5.5 0 0 0 3.525 3.525c.845.277.752.271 4.865.288 2.277.009 3.816 0 3.988-.024.369-.051.658-.19.899-.431.726-.726.523-1.928-.407-2.399l-.228-.116-3.92-.022c-3.497-.021-3.944-.03-4.14-.089a2.66 2.66 0 0 1-1.73-1.612l-.09-.237-.011-4.458-.011-4.459 1.296 1.288c1.089 1.083 1.331 1.305 1.522 1.392a1.502 1.502 0 0 0 2.006-2.011c-.094-.205-.417-.543-2.774-2.898-2.876-2.874-2.825-2.83-3.334-2.912a3 3 0 0 0-.274-.037z"/></svg>