<svg xmlns="http://www.w3.org/2000/svg" width="24" height="24" fill="none" stroke="currentColor" stroke-linecap="round" stroke-linejoin="round" stroke-width="3"><path fill="#000" fill-rule="evenodd" stroke="none" d="M3.516 2.577c-.559.214-.919.67-1.002 1.267-.024.172-.033 1.711-.024 3.988.017 4.113.011 4.02.288 4.865a5.5 5.5 0 0 0 3.525 3.525c.861.282.669.272 5.592.288l4.436.014-1.285 1.293c-1.081 1.086-1.302 1.328-1.389 1.519a1.502 1.502 0 0 0 2.011 2.006c.205-.094.543-.417 2.898-2.774 2.098-2.1 2.688-2.712 2.769-2.874.21-.424.21-.964 0-1.388-.081-.163-.666-.769-2.769-2.868C15.49 8.366 15.704 8.54 15 8.54c-.384 0-.44.01-.648.116-.752.381-1.048 1.237-.695 2.008.087.191.31.435 1.413 1.543l1.309 1.316-4.4-.013c-3.977-.013-4.42-.02-4.619-.081a2.66 2.66 0 0 1-1.73-1.612l-.09-.237-.02-3.94L5.5 3.7l-.094-.233a1.55 1.55 0 0 0-.764-.814c-.187-.095-.274-.112-.6-.121-.253-.007-.431.008-.526.045"/></svg>