<svg xmlns="http://www.w3.org/2000/svg" width="24" height="24" fill="none" stroke="currentColor" stroke-linecap="round" stroke-linejoin="round" stroke-width="3"><path fill="#000" fill-rule="evenodd" stroke="none" d="M12.081 2.583c-2.052.376-3.664 1.77-4.303 3.72-.282.861-.272.669-.288 5.592l-.014 4.436-1.288-1.277C4.654 13.534 4.663 13.54 4 13.54c-.384 0-.44.01-.648.116-.754.382-1.048 1.236-.694 2.012.094.205.417.543 2.774 2.898 2.1 2.098 2.712 2.688 2.874 2.769.424.21.964.21 1.388 0 .162-.081.774-.671 2.874-2.769 2.357-2.355 2.68-2.693 2.774-2.898.354-.776.06-1.63-.694-2.012-.208-.106-.264-.116-.648-.116-.663 0-.653-.006-2.191 1.517l-1.291 1.28.011-4.459.011-4.458.09-.237a2.67 2.67 0 0 1 1.553-1.553l.237-.09 3.94-.02 3.94-.02.233-.094a1.516 1.516 0 0 0 .944-1.624 1.51 1.51 0 0 0-.829-1.126l-.228-.116-4.02-.006c-3.257-.005-4.077.004-4.319.049"/></svg>