<svg xmlns="http://www.w3.org/2000/svg" width="24" height="24" fill="none" stroke="currentColor" stroke-linecap="round" stroke-linejoin="round" stroke-width="3"><path fill="#000" fill-rule="evenodd" stroke="none" d="M8.516.577c-.371.142-.711.446-.864.773-.106.228-.17.576-.171.937l-.001.226-1.07.017c-.955.015-1.101.026-1.363.104a3.57 3.57 0 0 0-2.474 2.645c-.038.17-.066.606-.081 1.248l-.023.986-.444.014c-.397.012-.47.026-.673.129-.93.471-1.133 1.673-.407 2.399.317.317.73.462 1.325.464l.21.001v2.993l-.45.014c-.402.012-.474.025-.678.129-.93.471-1.133 1.673-.407 2.399.315.316.731.462 1.319.464l.205.001.023.97c.015.624.044 1.063.082 1.231.252 1.128 1.048 2.081 2.09 2.506.537.219.775.256 1.84.281l.965.023.026.4c.039.593.18.899.576 1.244.473.413 1.385.413 1.858 0 .397-.346.537-.651.576-1.25l.027-.405h2.936l.027.405c.039.599.179.904.576 1.25.473.413 1.385.413 1.858 0 .396-.345.537-.651.576-1.244l.026-.4.965-.023c1.065-.025 1.303-.062 1.84-.281.783-.319 1.51-1.017 1.842-1.766.262-.593.34-1.104.341-2.231l.001-.71.21-.001c.595-.002 1.008-.147 1.325-.464.726-.726.522-1.929-.407-2.399-.203-.103-.277-.117-.678-.13l-.45-.015V10.52l.21-.001c.595-.002 1.008-.147 1.325-.464.726-.726.522-1.929-.407-2.399-.203-.103-.277-.117-.678-.13l-.45-.015-.001-.725c-.001-1.144-.078-1.652-.341-2.247-.388-.876-1.248-1.612-2.225-1.905-.262-.078-.408-.089-1.363-.104l-1.07-.017-.001-.226c-.003-.813-.28-1.332-.871-1.631C15.44.55 15.384.54 15 .54s-.44.01-.648.116c-.592.3-.868.818-.871 1.634l-.001.23h-2.96l-.001-.23C10.516 1.475 10.24.955 9.65.657 9.455.558 9.37.541 9.042.532q-.382-.01-.526.045m9.828 5.079.136.136v12.402l-.103.122a.6.6 0 0 1-.25.162c-.201.054-12.053.054-12.254 0a.6.6 0 0 1-.25-.162l-.103-.122V5.792l.136-.136.136-.136h12.416zM9.38 7.575c-.454.114-.95.422-1.279.794-.209.237-.465.739-.547 1.071-.079.32-.079 4.8 0 5.12.175.713.701 1.372 1.334 1.674.569.27.517.266 3.112.266s2.543.004 3.112-.266a2.5 2.5 0 0 0 1.122-1.122c.27-.569.266-.517.266-3.112 0-2.594.004-2.544-.265-3.11-.261-.548-.8-1.027-1.418-1.26-.235-.089-.254-.09-2.737-.097-1.891-.006-2.549.005-2.7.042m4.1 4.445v1.5h-2.96v-3h2.96z"/></svg>