<svg xmlns="http://www.w3.org/2000/svg" width="24" height="24" fill="none" stroke="currentColor" stroke-linecap="round" stroke-linejoin="round" stroke-width="3"><path fill="#000" fill-rule="evenodd" stroke="none" d="M5.36.545c-.532.102-1.124.352-1.503.636-.959.72-1.539 1.847-1.764 3.431-.053.369-.083.481-.139.511-.186.1-.56.456-.731.695C.458 6.89.304 8.499.784 10.41c.249.993.762 2.13 1.326 2.937l.172.247-.09.333c-.113.416-.123 1.285-.02 1.733.296 1.294 1.085 2.628 2.248 3.801 1.871 1.887 4.021 2.771 5.683 2.336l.302-.079.248.172c1.746 1.22 4.285 1.854 6.027 1.507.892-.177 1.643-.603 2.061-1.169l.19-.256.464-.066c2.217-.315 3.609-1.376 4.01-3.057.103-.431.113-1.205.02-1.632-.222-1.026-.791-1.757-1.725-2.216-.614-.301-1.43-.478-2.21-.48-.266-.001-.342-.015-.387-.071l-.232-.29c-.382-.479-.747-.707-2.039-1.275l-.972-.428-.034-.158c-.249-1.151-.536-1.758-1.157-2.448-.814-.905-1.869-1.51-2.846-1.632-.121-.015-.238-.048-.258-.073a20 20 0 0 1-.435-.952 19 19 0 0 0-.568-1.206c-.204-.357-.559-.761-.835-.951L9.528 4.9l-.027-.4c-.065-.983-.205-1.594-.502-2.2-.32-.651-.752-1.102-1.36-1.418C7.133.619 6.835.552 6.1.538a9 9 0 0 0-.74.007m.977 3.115c.051.121.143.639.143.803 0 .047-.115.057-.661.057h-.661l.024-.11c.046-.21.3-.685.422-.787.105-.089.16-.103.399-.103h.276zm1.792 4.17c.29.638.564 1.291.548 1.304-.01.008-.953.533-2.097 1.165l-2.103 1.164c-.038.021-.464-.821-.598-1.183a5.6 5.6 0 0 1-.346-1.7c-.03-.67.023-.969.18-1.003.059-.013.125-.03.147-.037.022-.008.96-.015 2.084-.017l2.045-.003zm3.471 3.419c.518.157 1.142.858 1.221 1.371.023.153-.049.291-1.636 3.153a252 252 0 0 1-1.706 3.049c-.197.237-1.104-.047-1.886-.589-1.28-.888-2.366-2.329-2.496-3.31-.048-.363-.195-.263 3.032-2.052a228 228 0 0 1 3.033-1.666c.1-.039.193-.03.438.044m3.986 4.366c.371.162.723.318.784.346l.11.052v2.016c0 2.197-.012 2.344-.194 2.392-.887.233-2.529-.131-3.631-.805l-.124-.077 1.164-2.108c.641-1.159 1.177-2.109 1.191-2.11s.33.132.7.294m4.34 1.949c.155.024.343.069.418.1l.136.057v.276c0 .241-.014.293-.105.402-.112.133-.456.324-.705.393l-.15.042v-.657c0-.568.008-.657.062-.657.035 0 .189.02.344.044"/></svg>