<svg xmlns="http://www.w3.org/2000/svg" width="24" height="24" fill="none" stroke="currentColor" stroke-linecap="round" stroke-linejoin="round" stroke-width="3"><path fill="#000" fill-rule="evenodd" stroke="none" d="M5.516.577a1.54 1.54 0 0 0-.998 1.233c-.02.138-.037.803-.037 1.479L4.48 4.517l-1.45.012-1.45.011-.228.116a1.51 1.51 0 0 0-.829 1.126 1.494 1.494 0 0 0 1.287 1.7c.138.02.794.037 1.458.037l1.208.001.015 4.47c.015 4.915.001 4.628.265 5.314.319.826 1.068 1.581 1.908 1.923.692.282.396.267 5.342.282l4.467.015.014 1.388.015 1.388.104.248c.248.594.76.938 1.394.938s1.146-.344 1.394-.938l.104-.248.015-1.39.014-1.39 1.207-.001c.663 0 1.318-.017 1.456-.037a1.494 1.494 0 0 0 1.287-1.7 1.51 1.51 0 0 0-.829-1.126l-.228-.116-1.45-.012-1.45-.012-.001-4.228c0-2.513-.016-4.381-.04-4.605-.154-1.465-1.105-2.613-2.526-3.052l-.293-.09-4.57-.011-4.57-.012-.001-1.229c0-.676-.017-1.341-.037-1.479A1.51 1.51 0 0 0 6.65.657C6.455.558 6.37.541 6.042.532q-.382-.01-.526.045m10.828 7.079.136.136v8.728h-4.23c-2.762 0-4.281-.015-4.377-.041a.6.6 0 0 1-.25-.163l-.103-.122V7.52h8.688z"/></svg>