<svg xmlns="http://www.w3.org/2000/svg" width="24" height="24" fill="none" stroke="currentColor" stroke-linecap="round" stroke-linejoin="round" stroke-width="3"><path fill="#000" fill-rule="evenodd" stroke="none" d="M11.62.507c-.132.006-.447.031-.7.053-5 .449-9.165 4.175-10.181 9.111a11.8 11.8 0 0 0 0 4.658 11.52 11.52 0 0 0 8.932 8.932c1.501.309 3.157.309 4.658 0a11.53 11.53 0 0 0 8.932-8.932 11.8 11.8 0 0 0 0-4.658A11.51 11.51 0 0 0 13.9.662c-.644-.107-1.759-.183-2.28-.155M10.487 4.97c.015 1.325.015 1.331.119 1.578.247.594.76.938 1.394.938s1.147-.344 1.394-.938c.104-.247.104-.253.119-1.578.008-.731.028-1.33.046-1.33.126 0 1.104.281 1.473.424a8.3 8.3 0 0 1 2.97 1.934 8.3 8.3 0 0 1 1.934 2.97c.155.4.424 1.35.424 1.495 0 .044-.259.056-1.39.066l-1.39.011-.228.116a1.51 1.51 0 0 0-.829 1.126 1.494 1.494 0 0 0 1.287 1.7c.138.02.768.037 1.4.037.634.001 1.15.017 1.15.036 0 .13-.279 1.103-.424 1.477a8.2 8.2 0 0 1-1.954 2.988 8.15 8.15 0 0 1-2.918 1.905c-.363.142-1.367.435-1.494.435-.039 0-.05-.257-.051-1.15 0-.632-.017-1.262-.037-1.4a1.51 1.51 0 0 0-.834-1.154c-.208-.106-.264-.116-.648-.116s-.44.01-.648.116a1.51 1.51 0 0 0-.834 1.154c-.02.138-.037.768-.037 1.4-.001.893-.012 1.15-.051 1.15-.127 0-1.131-.293-1.494-.435a8.15 8.15 0 0 1-2.918-1.905 8.3 8.3 0 0 1-1.938-2.94c-.14-.35-.44-1.389-.44-1.522 0-.023.445-.038 1.15-.039.633 0 1.262-.017 1.4-.037a1.494 1.494 0 0 0 1.287-1.7 1.51 1.51 0 0 0-.829-1.126l-.228-.116-1.39-.012c-1.163-.01-1.39-.021-1.39-.068 0-.148.291-1.166.44-1.54a8.3 8.3 0 0 1 1.917-2.921A8.3 8.3 0 0 1 8.92 4.08c.357-.142 1.359-.434 1.506-.439.034-.001.051.355.061 1.329"/></svg>