<svg xmlns="http://www.w3.org/2000/svg" width="24" height="24" fill="none" stroke="currentColor" stroke-linecap="round" stroke-linejoin="round" stroke-width="3"><path fill="#000" fill-rule="evenodd" stroke="none" d="M10.44.546c-1.437.26-2.532 1.303-2.87 2.733-.049.21-.065.646-.079 2.249l-.018 1.988-2.066.014c-2.004.013-2.076.016-2.36.103a3.57 3.57 0 0 0-2.474 2.646c-.042.182-.066.605-.081 1.401-.03 1.639.041 2.182.373 2.856.545 1.103 1.573 1.812 2.818 1.943.207.022 1.147.04 2.087.04l1.71.001.001 1.71c0 .941.018 1.88.04 2.087.131 1.245.84 2.273 1.943 2.818.674.332 1.217.403 2.856.373 1.257-.023 1.451-.051 2.016-.281.783-.319 1.51-1.017 1.842-1.766.302-.684.34-1.045.341-3.227l.001-1.707 1.97-.018c2.17-.02 2.214-.024 2.846-.282.783-.319 1.51-1.017 1.842-1.766.275-.623.341-1.095.341-2.461 0-1.054-.042-1.568-.16-1.964-.348-1.169-1.223-2.043-2.406-2.403-.284-.087-.356-.09-2.363-.103l-2.07-.014-.001-1.728c0-1.82-.029-2.312-.16-2.752A3.53 3.53 0 0 0 13.953.633c-.279-.084-.37-.089-1.853-.097a45 45 0 0 0-1.66.01m2.889 3.091.131.116.02 2.774.02 2.773.105.248q.25.597.847.847l.248.105 2.773.02 2.774.02.116.131.117.13v1.194c0 1.148-.003 1.198-.083 1.3-.166.211-.068.204-3.037.225l-2.78.02-.228.116a1.51 1.51 0 0 0-.834 1.154c-.02.138-.037 1.405-.037 2.817l-.001 2.567-.103.122a.6.6 0 0 1-.25.163c-.192.053-2.062.053-2.254 0a.6.6 0 0 1-.25-.163l-.103-.122-.001-2.567c0-1.412-.017-2.679-.037-2.817a1.51 1.51 0 0 0-.834-1.154l-.228-.116-2.78-.02c-2.969-.021-2.871-.014-3.037-.225-.08-.102-.083-.152-.083-1.3v-1.194l.117-.13.116-.131 2.774-.02L9.3 10.5l.248-.105q.597-.25.847-.847L10.5 9.3l.02-2.773.02-2.774.131-.116.13-.117h2.398z"/></svg>