<svg xmlns="http://www.w3.org/2000/svg" width="24" height="24" fill="none" stroke="currentColor" stroke-linecap="round" stroke-linejoin="round" stroke-width="3"><path fill="#000" fill-rule="evenodd" stroke="none" d="M11.484 1.583c-.421.114-.897.447-1.139.797-.03.044-.662 1.232-1.404 2.64a694 694 0 0 1-1.358 2.57c-.005.005-.863-.722-1.906-1.616S3.69 4.288 3.58 4.215c-.451-.299-1.105-.394-1.64-.238-.636.186-1.158.713-1.365 1.379-.067.216-.076.713-.018.972.096.428 2.854 10.355 2.939 10.577.28.734.987 1.345 1.784 1.541.18.044 1.396.054 6.74.054 6.204 0 6.533-.004 6.78-.073.769-.218 1.433-.81 1.704-1.522.158-.414 2.935-10.517 2.972-10.812.093-.745-.287-1.508-.953-1.911-.637-.385-1.493-.372-2.103.033-.11.073-1.054.865-2.097 1.759a120 120 0 0 1-1.906 1.616c-.005-.006-.616-1.162-1.358-2.57a214 214 0 0 0-1.404-2.64 2.6 2.6 0 0 0-.692-.615 2.1 2.1 0 0 0-1.479-.182m1.506 5.948a194 194 0 0 0 1.1 2.076c.301.527.796.945 1.351 1.14.394.139 1.017.173 1.399.077.525-.131.768-.29 1.805-1.179.536-.459.981-.83.988-.824.01.009-1.476 5.428-1.779 6.489l-.06.21H12c-5.484 0-5.796-.004-5.816-.07-.035-.117-1.775-6.422-1.806-6.545-.025-.097.126.018.897.68.975.836 1.253 1.034 1.658 1.177.347.122 1.03.151 1.387.059a2.6 2.6 0 0 0 1.37-.879c.093-.12.647-1.127 1.23-2.239S11.989 5.682 12 5.682s.457.832.99 1.849M4.516 19.579c-.365.134-.71.443-.864.773a1.5 1.5 0 0 0 1.158 2.13c.141.021 3.273.036 7.19.036s7.049-.015 7.19-.036a1.494 1.494 0 0 0 1.287-1.7 1.51 1.51 0 0 0-.829-1.126l-.228-.116-7.38-.007c-6.068-.006-7.406.002-7.524.046"/></svg>