<svg xmlns="http://www.w3.org/2000/svg" width="24" height="24" fill="none" stroke="currentColor" stroke-linecap="round" stroke-linejoin="round" stroke-width="3"><path fill="#000" fill-rule="evenodd" stroke="none" d="M13.76.508a3.65 3.65 0 0 0-1.409.376C12.095 1.015 2.123 7.157 1.9 7.321 1.14 7.881.621 8.812.522 9.794c-.056.555-.056 5.902 0 6.452.087.854.397 1.511.998 2.117.355.358.585.521 3.54 2.504a307 307 0 0 0 3.34 2.225c.275.158.86.339 1.257.388a3.6 3.6 0 0 0 1.997-.366c.245-.125 10.084-6.178 10.371-6.381.301-.212.719-.65.919-.961.184-.285.392-.784.481-1.154.059-.244.069-.646.084-3.318.01-1.869.001-3.211-.024-3.483-.091-.995-.574-1.932-1.272-2.466-.46-.352-6.453-4.353-6.72-4.486a5 5 0 0 0-.459-.199c-.319-.107-.906-.18-1.274-.158m.406 3.063c.294.141 4.999 3.32 4.965 3.354-.11.108-9.104 5.312-9.143 5.29-.313-.178-5.108-3.191-5.107-3.21.001-.033 8.592-5.318 8.834-5.434.102-.05.203-.09.225-.09s.123.04.226.09m6.314 8.29v2.22l-.13.135c-.071.074-2.074 1.327-4.45 2.785a3159 3159 0 0 1-4.35 2.667c-.016.009-.03-1.071-.03-2.401V14.85l4.45-2.601a559 559 0 0 1 4.48-2.605c.016-.002.03.995.03 2.217M6.054 13.3l2.425 1.52.001 2.35c0 1.293-.011 2.35-.023 2.35-.063 0-4.694-3.143-4.807-3.262l-.13-.137v-2.202c0-1.839.009-2.198.054-2.171z"/></svg>