<svg xmlns="http://www.w3.org/2000/svg" width="24" height="24" fill="none" stroke="currentColor" stroke-linecap="round" stroke-linejoin="round" stroke-width="3"><path fill="#000" fill-rule="evenodd" stroke="none" d="M12.491.597a1.7 1.7 0 0 0-.323.157c-.192.137-.451.443-.534.631-.052.116-.22 1.024-.477 2.567a356 356 0 0 1-.418 2.479l-.021.091-3.009-.004c-3.259-.005-3.138-.012-3.494.213a1.492 1.492 0 0 0 .145 2.617c.121.053.247.111.279.128.046.025.24 1.3.845 5.56.433 3.04.817 5.657.856 5.814.154.636.464 1.169.958 1.65a3.43 3.43 0 0 0 2.091.98c.517.05 4.806.05 5.286-.001a3.54 3.54 0 0 0 2.349-1.271c.256-.308.58-.948.672-1.328.035-.143.406-2.726.825-5.74s.77-5.521.781-5.572c.011-.05.051-.102.089-.115.601-.203 1.009-.666 1.086-1.235a1.49 1.49 0 0 0-.697-1.491c-.342-.216-.305-.213-3.232-.209-1.492.002-2.726-.005-2.744-.015-.017-.011.079-.682.214-1.491l.245-1.472.507-.027c.704-.036.946-.123 1.285-.459.727-.721.522-1.928-.407-2.398L15.42.54 14.06.53c-1.253-.008-1.377-.003-1.569.067m3.77 9.013c-.011.05-.148 1.017-.304 2.15s-.298 2.074-.315 2.092c-.056.059-.739.148-1.142.148a4.8 4.8 0 0 1-1.62-.284c-1.401-.491-1.796-.593-2.594-.674a7.8 7.8 0 0 0-1.582.001c-.237.024-.438.036-.448.027-.009-.01-.13-.812-.269-1.784L7.734 9.52h8.548zm-5.806 6.49c.352.073.519.125 1.325.412 1.012.361 1.904.508 2.914.482l.548-.014-.02.1c-.011.055-.11.757-.221 1.56-.127.927-.224 1.507-.267 1.589-.146.285-.001.271-2.698.271-2.031 0-2.441-.009-2.531-.057-.229-.123-.243-.181-.544-2.319-.157-1.108-.273-2.025-.26-2.038.098-.098 1.26-.089 1.754.014"/></svg>