<svg xmlns="http://www.w3.org/2000/svg" width="24" height="24" fill="none" stroke="currentColor" stroke-linecap="round" stroke-linejoin="round" stroke-width="3"><path fill="#000" fill-rule="evenodd" stroke="none" d="M2.516 1.577c-.859.329-1.24 1.255-.859 2.087.087.19.306.431 1.368 1.498l1.264 1.272-.228.346A9.4 9.4 0 0 0 2.511 12c0 1.884.531 3.673 1.55 5.22l.228.346-1.264 1.272c-1.062 1.067-1.281 1.308-1.368 1.498a1.502 1.502 0 0 0 2.007 2.007c.19-.087.431-.307 1.499-1.368l1.272-1.265.353.232a10 10 0 0 0 3.232 1.352c1.316.288 2.967.259 4.28-.076a9.8 9.8 0 0 0 2.915-1.278l.35-.23 1.272 1.265c1.068 1.061 1.309 1.281 1.499 1.368a1.502 1.502 0 0 0 2.007-2.007c-.087-.19-.307-.431-1.368-1.499l-1.265-1.272.23-.35A9.35 9.35 0 0 0 21.488 12a9.35 9.35 0 0 0-1.548-5.215l-.23-.35 1.265-1.272c1.061-1.068 1.281-1.309 1.368-1.499.353-.771.057-1.627-.695-2.008-.208-.106-.264-.116-.648-.116-.661 0-.656-.004-2.168 1.494l-1.268 1.257-.392-.255a9.85 9.85 0 0 0-3.712-1.424c-.627-.103-2.293-.103-2.92 0a9.75 9.75 0 0 0-3.725 1.433l-.379.246-1.268-1.257C3.681 1.561 3.664 1.549 3.042 1.532c-.253-.007-.431.008-.526.045m10.424 4c2.154.331 3.918 1.619 4.898 3.576.655 1.309.823 3.004.445 4.476a6.51 6.51 0 0 1-5.303 4.794 8 8 0 0 1-1.96 0c-2.818-.432-5.005-2.635-5.443-5.483-.116-.751-.059-1.797.14-2.569.644-2.508 2.714-4.378 5.303-4.791.436-.069 1.478-.071 1.92-.003"/></svg>