<svg xmlns="http://www.w3.org/2000/svg" width="24" height="24" fill="none" stroke="currentColor" stroke-linecap="round" stroke-linejoin="round" stroke-width="3"><path fill="#000" fill-rule="evenodd" stroke="none" d="M10.36.545c-3.962.23-7.139 1.3-8.26 2.782A3.4 3.4 0 0 0 1.571 4.4c-.067.245-.071.692-.071 7.6 0 8.188-.023 7.513.275 8.14q.721 1.513 3.451 2.416c1.943.642 4.053.932 6.774.932s4.818-.288 6.773-.932c1.817-.599 2.972-1.407 3.452-2.416.298-.627.275.048.275-8.14s.023-7.513-.275-8.14C21.432 2.194 18.697 1.03 14.6.617c-.592-.06-3.572-.11-4.24-.072m3.34 3.014c1.514.105 2.631.29 3.8.628.712.207 1.412.506 1.741.745l.099.071-.1.077c-.331.255-1.467.693-2.332.9-1.503.359-2.945.509-4.908.509s-3.405-.15-4.908-.509c-.861-.206-1.996-.643-2.331-.898l-.098-.075.098-.08c.055-.044.251-.156.437-.249 1.118-.557 2.992-.974 5.022-1.116.651-.045 2.836-.047 3.48-.003M5.3 8.58c1.872.617 4.018.908 6.7.908 2.136 0 3.767-.165 5.43-.551.495-.115 1.663-.467 1.98-.597.066-.027.07.073.07 1.772v1.801l-.246.165c-.829.553-2.525 1.046-4.335 1.259-1.002.118-1.65.152-2.899.152s-1.897-.034-2.899-.152c-1.81-.213-3.506-.706-4.335-1.259l-.246-.165v-1.801c0-1.699.004-1.799.07-1.772.039.016.358.124.71.24m0 7c1.872.617 4.018.908 6.7.908 2.136 0 3.767-.165 5.43-.551.495-.115 1.663-.467 1.98-.597.066-.027.07.073.07 1.772v1.801l-.246.165c-.829.553-2.525 1.046-4.335 1.259-1.002.118-1.65.152-2.899.152s-1.897-.034-2.899-.152c-1.81-.213-3.506-.706-4.335-1.259l-.246-.165v-1.801c0-1.699.004-1.799.07-1.772.039.016.358.124.71.24"/></svg>