<svg xmlns="http://www.w3.org/2000/svg" width="24" height="24" fill="none" stroke="currentColor" stroke-linecap="round" stroke-linejoin="round" stroke-width="3"><path fill="#000" fill-rule="evenodd" stroke="none" d="M10.36.545c-3.962.23-7.139 1.3-8.26 2.782a3.6 3.6 0 0 0-.528 1.053c-.067.225-.072.687-.083 7.36-.008 4.699.001 7.252.029 7.507.076.712.307 1.177.862 1.733.401.402.774.672 1.34.972 2.377 1.256 6.949 1.851 10.98 1.428.858-.09 1.055-.168 1.412-.559.258-.282.377-.583.374-.949-.003-.492-.135-.8-.484-1.126-.33-.309-.496-.366-1.062-.365-.264 0-.714.023-1 .051-2.316.223-5.354-.014-7.343-.573-.8-.225-1.561-.555-1.933-.839l-.144-.109v-1.8c0-1.698.004-1.798.07-1.771.038.016.332.115.651.22 1.325.436 3.063.745 4.959.881 1.412.101 4.275.018 4.82-.14.408-.118.758-.429.949-.844.076-.164.091-.264.09-.597-.001-.352-.014-.427-.111-.624a1.8 1.8 0 0 0-.321-.426c-.437-.413-.701-.472-1.736-.386-.958.079-2.896.077-3.851-.004-2.409-.204-4.488-.745-5.346-1.391l-.172-.129-.001-1.794c-.001-1.694.003-1.793.069-1.766.326.134 1.468.478 1.97.595 1.676.388 3.3.553 5.44.553 2.723 0 4.818-.288 6.776-.933.394-.13.725-.227.736-.217s.06.119.109.24c.227.56.757.908 1.379.908.634 0 1.145-.343 1.395-.938L22.5 8.3V6.48c0-2.02-.003-2.047-.275-2.62-.793-1.666-3.528-2.83-7.625-3.243-.592-.06-3.572-.11-4.24-.072m3.34 3.014c1.514.105 2.631.29 3.8.628.712.207 1.412.506 1.741.745l.099.071-.1.077c-.331.255-1.467.693-2.332.9-1.503.359-2.945.509-4.908.509s-3.405-.15-4.908-.509c-.861-.206-1.996-.643-2.331-.898l-.098-.075.098-.08c.055-.044.251-.156.437-.249 1.118-.557 2.992-.974 5.022-1.116.651-.045 2.836-.047 3.48-.003m6.823 7.027a1.6 1.6 0 0 0-.595.376c-.172.171-3.282 5.354-3.357 5.594-.085.276-.074.702.025.964.155.411.535.774.948.907.14.046.421.069.986.083.435.011.79.025.79.032s-.371.63-.825 1.385a48 48 0 0 0-.879 1.498c-.228.538-.095 1.196.328 1.625a1.48 1.48 0 0 0 2.088.025c.205-.201 3.307-5.343 3.396-5.631.032-.101.057-.31.057-.465.001-.582-.295-1.046-.845-1.327-.218-.111-.227-.112-1.09-.125-.478-.007-.87-.028-.87-.047s.381-.668.846-1.443c.465-.774.871-1.491.902-1.593.234-.753-.195-1.601-.943-1.863-.225-.078-.731-.076-.962.005"/></svg>