<svg xmlns="http://www.w3.org/2000/svg" width="24" height="24" fill="none" stroke="currentColor" stroke-linecap="round" stroke-linejoin="round" stroke-width="3"><path fill="#000" fill-rule="evenodd" stroke="none" d="M10.36.545c-3.962.23-7.139 1.3-8.26 2.782A3.4 3.4 0 0 0 1.571 4.4c-.067.245-.071.69-.071 7.56 0 5.933.01 7.349.053 7.56.333 1.618 2.285 2.869 5.488 3.517 1.141.23 2.315.372 2.645.319a1.48 1.48 0 0 0 1.123-.828c.122-.248.131-.295.131-.667-.001-.38-.008-.414-.137-.654a2 2 0 0 0-.329-.425c-.337-.302-.458-.339-1.614-.484-1.703-.213-3.277-.677-4.06-1.198l-.28-.186v-1.801c0-1.7.004-1.8.07-1.773.901.369 2.821.838 3.43.838.274 0 .357-.018.58-.122.977-.461 1.2-1.721.432-2.44-.269-.251-.521-.353-1.172-.475-1.342-.251-2.426-.62-3.063-1.043l-.277-.184v-1.801c0-1.7.004-1.8.07-1.773.326.134 1.468.478 1.97.595 1.676.388 3.3.553 5.44.553 2.136 0 3.767-.165 5.43-.551.492-.114 1.667-.468 1.975-.595.057-.024.067.044.084.606.017.523.036.672.109.862.163.426.547.802.94.92.209.062.715.062.924 0 .39-.117.77-.487.945-.92l.093-.23V7.12c0-2.733.005-2.67-.275-3.26-.793-1.666-3.528-2.83-7.625-3.243-.592-.06-3.572-.11-4.24-.072m3.34 3.014c1.514.105 2.631.29 3.8.628.712.207 1.412.506 1.741.745l.099.071-.1.077c-.331.255-1.467.693-2.332.9-1.503.359-2.945.509-4.908.509s-3.405-.15-4.908-.509c-.861-.206-1.996-.643-2.331-.898l-.098-.075.098-.08c.055-.044.251-.156.437-.249 1.118-.557 2.992-.974 5.022-1.116.651-.045 2.836-.047 3.48-.003m-2.184 7.018a1.54 1.54 0 0 0-.998 1.233c-.051.351-.047 4.108.004 4.424.053.327.187.588.421.823.235.234.496.368.823.421.316.051 4.073.055 4.424.004a1.494 1.494 0 0 0 1.287-1.7 1.51 1.51 0 0 0-.823-1.123c-.17-.086-.296-.117-.538-.131-.174-.01-.316-.031-.316-.047 0-.049.522-.272.86-.367.385-.109 1.18-.129 1.54-.039 1.088.272 1.999 1.195 2.221 2.248a4.3 4.3 0 0 1-.001 1.399c-.194.922-.838 1.822-1.639 2.291a4 4 0 0 1-1.413.468c-.678.083-1.47-.086-2.128-.452-.234-.13-.424-.293-.862-.736-.696-.705-.778-.75-1.378-.752-.379-.001-.442.01-.644.109-.265.13-.608.476-.718.724a1.6 1.6 0 0 0-.005 1.239c.186.418 1.044 1.308 1.675 1.738 1.22.831 2.782 1.256 4.164 1.132 1.553-.139 2.917-.743 3.983-1.763 1.44-1.379 2.162-3.215 2.022-5.141a6.1 6.1 0 0 0-1.105-3.07c-.267-.375-.881-1.01-1.232-1.273a6.2 6.2 0 0 0-2.64-1.145c-.442-.08-1.511-.088-1.94-.015-1.085.185-2.044.585-2.85 1.189l-.19.143-.001-.174c-.003-.757-.295-1.287-.869-1.577-.195-.099-.28-.116-.608-.125q-.382-.01-.526.045"/></svg>