<svg xmlns="http://www.w3.org/2000/svg" width="24" height="24" fill="none" stroke="currentColor" stroke-linecap="round" stroke-linejoin="round" stroke-width="3"><path fill="#000" fill-rule="evenodd" stroke="none" d="M9.22 3.586a3.3 3.3 0 0 0-1.152.506c-.166.114-1.796 1.564-3.623 3.221C.887 10.541.877 10.551.663 11.127a2.57 2.57 0 0 0 0 1.746c.214.576.225.587 3.772 3.804 1.82 1.651 3.408 3.076 3.527 3.166a3.8 3.8 0 0 0 1.218.565l.36.092h5.44c4.974 0 5.465-.006 5.73-.068a3.7 3.7 0 0 0 1.798-1.004c.573-.6.883-1.272.971-2.111.053-.506.053-10.128 0-10.634-.154-1.464-1.104-2.612-2.526-3.052l-.293-.09-5.58-.008c-4.841-.006-5.617.001-5.86.053m11.124 3.07.136.136v10.402l-.103.122a.6.6 0 0 1-.25.163c-.198.055-10.051.056-10.247.001-.103-.029-.932-.758-3.12-2.743C5.121 13.25 3.78 12.018 3.78 12c0-.027 5.517-5.053 5.895-5.37l.131-.11h10.402zm-8.828.921a1.52 1.52 0 0 0-.86 2.085c.084.185.289.413 1.15 1.282L12.854 12l-1.048 1.056c-1.131 1.141-1.22 1.261-1.283 1.726-.162 1.197 1.032 2.069 2.139 1.562.185-.084.413-.289 1.282-1.15L15 14.146l1.056 1.048c.869.861 1.097 1.066 1.282 1.15 1.107.507 2.301-.365 2.139-1.562-.063-.465-.152-.585-1.283-1.726L17.146 12l1.048-1.056c.861-.869 1.066-1.097 1.15-1.282.352-.769.055-1.626-.696-2.006-.208-.106-.264-.116-.648-.116-.647 0-.68.022-1.95 1.276L15 9.854l-1.05-1.038c-1.247-1.232-1.304-1.271-1.91-1.285-.246-.006-.431.01-.524.046"/></svg>