<svg xmlns="http://www.w3.org/2000/svg" width="24" height="24" fill="none" stroke="currentColor" stroke-linecap="round" stroke-linejoin="round" stroke-width="3"><path fill="#000" fill-rule="evenodd" stroke="none" d="M11.44.545c-.783.151-1.478.523-1.985 1.065l-.24.257-.518.148c-1.837.526-3.598 1.587-4.958 2.99-.566.584-.87.96-1.323 1.639-.924 1.384-1.545 3-1.795 4.668-.094.63-.141 1.596-.098 2.02a3.43 3.43 0 0 0 1.097 2.22c.277.259.291.281.42.668 1.184 3.567 4.204 6.246 7.865 6.977.327.065.77.138.983.161.5.054 1.724.054 2.224 0 1.371-.149 2.894-.641 4.068-1.315 2.282-1.31 3.961-3.356 4.78-5.823.129-.387.143-.409.42-.668a3.45 3.45 0 0 0 1.096-2.216c.07-.681-.057-2.038-.278-2.976a11.6 11.6 0 0 0-3.778-6.147c-1.147-.965-2.693-1.79-4.117-2.198l-.518-.148-.24-.257a3.65 3.65 0 0 0-1.592-.973c-.222-.065-.429-.088-.853-.098a7 7 0 0 0-.66.006m.832 3.038c.11.077.208.302.208.479 0 .277-.325.494-.617.414-.293-.081-.414-.376-.284-.688.08-.191.201-.268.421-.268.101 0 .222.028.272.063M8.786 5.39c.11.291.497.842.78 1.113q1.03.984 2.434.984c.501 0 .881-.074 1.336-.26.792-.323 1.52-1.026 1.85-1.786.124-.286.084-.288.703.023a8.39 8.39 0 0 1 4.386 5.616c.121.526.205 1.214.205 1.686 0 .39-.008.439-.09.527a.8.8 0 0 1-.25.156q-.31.113-.517-.132c-.1-.12-.103-.139-.104-.69-.001-1.228-.161-1.9-.608-2.561a3.6 3.6 0 0 0-1.979-1.436c-.264-.076-.407-.09-.932-.09s-.668.014-.932.09c-1.261.366-2.19 1.351-2.498 2.649-.05.213-.066.692-.086 2.608l-.024 2.347-.097.103a.495.495 0 0 1-.74-.021l-.103-.122-.001-2.067c0-1.137-.018-2.237-.04-2.444-.132-1.255-.824-2.255-1.947-2.818C9.013 8.606 8.705 8.54 8 8.54c-.525 0-.668.014-.932.09a3.56 3.56 0 0 0-2.494 2.649c-.033.152-.068.61-.082 1.095-.023.808-.027.838-.121.95-.132.157-.308.2-.511.125a.7.7 0 0 1-.25-.156c-.082-.088-.09-.137-.09-.527 0-.914.24-2.076.621-3.003a8.5 8.5 0 0 1 3.25-3.895c.347-.223 1.181-.651 1.296-.665.014-.002.059.082.099.187m-.457 6.247.131.116.024 2.354c.02 1.921.036 2.401.086 2.614.326 1.376 1.377 2.421 2.72 2.705a4.3 4.3 0 0 0 1.42 0 3.53 3.53 0 0 0 2.649-2.462c.134-.452.16-.939.16-3.098l.001-2.074.136-.136c.12-.12.161-.136.344-.136.181 0 .225.017.338.13l.13.13.024.84c.027.91.068 1.176.264 1.684.294.762 1.059 1.57 1.763 1.863l.199.083-.146.265a7.75 7.75 0 0 1-2.692 2.812 7.7 7.7 0 0 1-2.973 1.032c-.403.053-1.411.053-1.814 0a7.7 7.7 0 0 1-2.973-1.032 7.75 7.75 0 0 1-2.692-2.812l-.146-.265.199-.083c.478-.198 1.085-.722 1.43-1.233.448-.663.607-1.333.608-2.568l.001-.574.136-.136c.119-.119.161-.136.339-.136.169 0 .226.02.334.117"/></svg>