<svg xmlns="http://www.w3.org/2000/svg" width="24" height="24" fill="none" stroke="currentColor" stroke-linecap="round" stroke-linejoin="round" stroke-width="3"><path fill="#000" fill-rule="evenodd" stroke="none" d="M11.32.563a4.7 4.7 0 0 0-1.324.502c-.178.107-.497.35-.71.54s-2.079 2.044-4.149 4.12C1.259 9.615 1.201 9.677.885 10.308c-.168.335-.316.864-.37 1.316-.103.877.163 1.868.711 2.652.251.358 8.14 8.247 8.498 8.498 1.374.961 3.05.974 4.496.035.212-.138 1.246-1.148 4.284-4.185 2.203-2.202 4.087-4.113 4.187-4.247.818-1.088 1.016-2.454.544-3.757-.277-.766-.127-.601-4.63-5.111-4.349-4.356-4.373-4.378-5.025-4.662-.529-.229-.829-.293-1.46-.308a6 6 0 0 0-.8.024m1.06 3.034c.228.107 7.953 7.845 8.039 8.052a1.05 1.05 0 0 1-.016.731c-.051.11-1.302 1.385-4.029 4.106l-3.954 3.947-.223.048c-.19.042-.258.039-.46-.019l-.237-.068-3.929-3.927c-2.918-2.917-3.945-3.968-3.994-4.085-.092-.223-.084-.572.016-.766.114-.219 7.862-7.954 8.047-8.033.196-.084.546-.077.74.014m-.864 2.98a1.54 1.54 0 0 0-.998 1.233c-.02.138-.037.803-.037 1.479l-.001 1.228-1.45.012-1.45.011-.228.116a1.51 1.51 0 0 0-.829 1.126 1.494 1.494 0 0 0 1.287 1.7c.138.02.793.037 1.456.037l1.207.001.014 1.39.015 1.39.104.248c.248.594.76.938 1.394.938s1.146-.344 1.394-.938l.104-.248.015-1.39.014-1.39 1.207-.001c.663 0 1.318-.017 1.456-.037a1.494 1.494 0 0 0 1.287-1.7 1.51 1.51 0 0 0-.829-1.126l-.228-.116-1.45-.012-1.45-.012-.001-1.228c0-.675-.017-1.34-.037-1.478a1.51 1.51 0 0 0-.832-1.153c-.195-.099-.28-.116-.608-.125q-.382-.01-.526.045"/></svg>