<svg xmlns="http://www.w3.org/2000/svg" width="24" height="24" fill="none" stroke="currentColor" stroke-linecap="round" stroke-linejoin="round" stroke-width="3"><path fill="#000" fill-rule="evenodd" stroke="none" d="M11.32.563a4.7 4.7 0 0 0-1.324.502c-.178.107-.497.35-.71.54s-2.079 2.044-4.149 4.12C1.259 9.615 1.201 9.677.885 10.308c-.168.335-.316.864-.37 1.316-.103.877.163 1.868.711 2.652.251.358 8.14 8.247 8.498 8.498 1.374.961 3.05.974 4.496.035.212-.138 1.246-1.148 4.284-4.185 2.203-2.202 4.087-4.113 4.187-4.247.818-1.088 1.016-2.454.544-3.757-.277-.766-.127-.601-4.63-5.111-4.349-4.356-4.373-4.378-5.025-4.662-.529-.229-.829-.293-1.46-.308a6 6 0 0 0-.8.024m1.06 3.034c.228.107 7.953 7.845 8.039 8.052a1.05 1.05 0 0 1-.016.731c-.051.11-1.302 1.385-4.029 4.106l-3.954 3.947-.223.048c-.19.042-.258.039-.46-.019l-.237-.068-3.929-3.927c-2.918-2.917-3.945-3.968-3.994-4.085-.092-.223-.084-.572.016-.766.114-.219 7.862-7.954 8.047-8.033.196-.084.546-.077.74.014m-3.664 4.18c-1.049.399-1.349 1.701-.571 2.478.58.58 1.53.583 2.107.007a1.47 1.47 0 0 0 0-2.124c-.292-.292-.55-.395-1.012-.407-.247-.006-.431.01-.524.046m5.458.262c-.434.092-.466.121-3.242 2.895-2.503 2.501-2.655 2.661-2.78 2.926-.119.252-.132.316-.132.64 0 .31.015.393.112.6.147.315.455.624.764.767.21.098.293.113.604.113.324 0 .388-.013.64-.132.265-.125.426-.278 2.928-2.78s2.655-2.663 2.78-2.928c.119-.252.132-.316.132-.64 0-.311-.015-.394-.113-.604a1.68 1.68 0 0 0-.748-.753 1.8 1.8 0 0 0-.945-.104m-.025 5.376c-1.275.537-1.251 2.302.038 2.784a1.51 1.51 0 0 0 1.718-.508c.453-.594.373-1.483-.18-1.978-.318-.286-.525-.368-.965-.383-.33-.011-.41 0-.611.085"/></svg>