<svg xmlns="http://www.w3.org/2000/svg" width="24" height="24" fill="none" stroke="currentColor" stroke-linecap="round" stroke-linejoin="round" stroke-width="3"><path fill="#000" fill-rule="evenodd" stroke="none" d="M11.415.525C9.882.593 8.488.947 6.994 1.648c-.415.195-.448.204-.567.155-.521-.215-.754-.258-1.407-.26-.551-.003-.683.01-.952.087-1.967.571-3.018 2.587-2.362 4.532l.143.422-.18.358C1.124 8.03.712 9.449.555 10.78c-.072.61-.061 1.957.021 2.593a11.66 11.66 0 0 0 2.385 5.747c.378.489 1.43 1.541 1.919 1.919 2.55 1.971 5.695 2.805 8.812 2.339a11.7 11.7 0 0 0 3.321-1.028c.407-.193.44-.202.56-.154.605.246 1.192.338 1.778.279a3.45 3.45 0 0 0 2.157-1.047c.998-1.045 1.252-2.466.688-3.855-.048-.12-.039-.153.154-.56a11.9 11.9 0 0 0 1.075-3.637c.09-.692.09-2.05 0-2.749a11.7 11.7 0 0 0-2.386-5.747c-.354-.457-1.368-1.481-1.839-1.856-.853-.681-2.192-1.441-3.173-1.803-1.471-.542-2.974-.769-4.612-.696m1.705 3.058a8.4 8.4 0 0 1 4.08 1.694c.409.314 1.142 1.035 1.45 1.426a8.37 8.37 0 0 1 1.83 5.284c0 1.152-.174 2.096-.578 3.131l-.163.418-.68.003c-.534.002-.738.019-.953.078l-.274.075-4.763-4.763-4.763-4.763.069-.253c.1-.371.14-.866.1-1.257-.019-.189-.026-.358-.016-.374.031-.05.858-.353 1.303-.476a8.5 8.5 0 0 1 3.358-.223M5.344 4.656c.119.119.136.162.136.337 0 .157-.022.227-.103.323a.5.5 0 0 1-.514.16c-.214-.059-.343-.241-.343-.483 0-.175.017-.218.136-.337S4.817 4.52 5 4.52s.224.016.344.136m5.592 8.42 4.757 4.757-.066.235c-.1.354-.142.885-.102 1.28.02.191.022.361.005.378-.103.102-1.212.47-1.79.594a8.6 8.6 0 0 1-3.66-.039c-3.019-.721-5.394-2.968-6.237-5.901-.251-.87-.303-1.289-.302-2.4.001-1.094.049-1.466.294-2.32.118-.411.386-1.136.439-1.19.017-.017.187-.015.378.005.383.039.95-.004 1.231-.092.097-.03.204-.057.237-.059s2.2 2.136 4.816 4.752m8.408 5.58c.119.119.136.162.136.337 0 .242-.129.424-.343.483a.5.5 0 0 1-.514-.16c-.081-.096-.103-.166-.103-.323 0-.175.017-.218.136-.337s.161-.136.344-.136.224.016.344.136"/></svg>