<svg xmlns="http://www.w3.org/2000/svg" width="24" height="24" fill="none" stroke="currentColor" stroke-linecap="round" stroke-linejoin="round" stroke-width="3"><path fill="#000" fill-rule="evenodd" stroke="none" d="M14.256.561a3.9 3.9 0 0 0-1.729.814c-.147.121-1.054 1.009-2.016 1.975-1.505 1.511-1.763 1.787-1.853 1.984a1.502 1.502 0 0 0 2.008 2.008c.198-.09.48-.354 2.052-1.919 1.002-.997 1.861-1.834 1.909-1.858.129-.066.478-.055.624.021.159.082 5.093 4.948 5.172 5.1.068.131.075.484.012.607-.024.048-.879.925-1.898 1.949-1.601 1.608-1.868 1.893-1.959 2.092a1.502 1.502 0 0 0 2.008 2.008c.198-.09.477-.352 2.025-1.893.988-.984 1.912-1.932 2.053-2.107.562-.699.816-1.428.816-2.342 0-.234-.019-.532-.042-.663a3.7 3.7 0 0 0-.727-1.618c-.116-.143-1.381-1.412-2.811-2.821C16.93.973 16.868.922 15.972.656c-.293-.087-.45-.107-.932-.118a6 6 0 0 0-.784.023m.26 4.016c-1.049.399-1.349 1.701-.571 2.478.58.58 1.53.583 2.107.007a1.47 1.47 0 0 0 0-2.124c-.292-.292-.55-.395-1.012-.407-.247-.006-.431.01-.524.046m3 3c-1.049.399-1.349 1.701-.571 2.478.58.58 1.53.583 2.107.007a1.47 1.47 0 0 0 0-2.124c-.292-.292-.55-.395-1.012-.407-.247-.006-.431.01-.524.046m-14.076.97a3.56 3.56 0 0 0-2.888 2.841c-.075.396-.075 8.828 0 9.224.221 1.168 1.036 2.177 2.116 2.617.7.285.421.271 5.332.271 4.015 0 4.447-.006 4.71-.068a3.7 3.7 0 0 0 1.798-1.004c.573-.6.883-1.272.971-2.111.053-.502.053-8.132 0-8.634-.154-1.465-1.105-2.613-2.526-3.052l-.293-.09-4.56-.005c-2.508-.004-4.605.002-4.66.011m8.904 3.109.136.136v8.402l-.103.122a.6.6 0 0 1-.25.163c-.202.056-8.052.056-8.254 0a.6.6 0 0 1-.25-.163l-.103-.122v-8.402l.136-.136.136-.136h8.416zm-2.828.921c-1.049.399-1.349 1.701-.571 2.478.58.58 1.53.583 2.107.007a1.47 1.47 0 0 0 0-2.124c-.292-.292-.55-.395-1.012-.407-.247-.006-.431.01-.524.046m-4 4c-1.049.399-1.349 1.701-.571 2.478.71.71 1.942.519 2.393-.371a1.48 1.48 0 0 0-.286-1.746c-.292-.292-.55-.395-1.012-.407-.247-.006-.431.01-.524.046"/></svg>