<svg xmlns="http://www.w3.org/2000/svg" width="24" height="24" fill="none" stroke="currentColor" stroke-linecap="round" stroke-linejoin="round" stroke-width="3"><path fill="#000" fill-rule="evenodd" stroke="none" d="M10.82.563A11.515 11.515 0 0 0 .739 9.671a11.8 11.8 0 0 0 0 4.658 11.52 11.52 0 0 0 8.932 8.932c1.501.309 3.157.309 4.658 0a11.53 11.53 0 0 0 8.932-8.932 11.8 11.8 0 0 0 0-4.658C22.306 5.036 18.563 1.433 13.9.663c-.846-.14-2.244-.185-3.08-.1m2.6 3.054c2.416.447 4.406 1.764 5.73 3.791 1.617 2.478 1.777 5.808.406 8.476a8.75 8.75 0 0 1-3.078 3.344c-.929.579-2.156 1.023-3.298 1.194-.591.088-1.769.088-2.36 0-1.86-.279-3.49-1.094-4.802-2.402-1.289-1.285-2.06-2.766-2.405-4.62-.102-.545-.102-2.255 0-2.8.455-2.445 1.759-4.421 3.795-5.75 1.057-.69 2.201-1.094 3.692-1.306.306-.043 1.974.01 2.32.073M7.293 6.392c-.613.218-1.571 1.345-2.095 2.462a7.7 7.7 0 0 0-.674 2.595c-.063.83.041 1.226.421 1.606.756.756 2.079.482 2.449-.508.055-.147.096-.4.124-.773.064-.848.267-1.498.658-2.106.082-.128.327-.43.545-.673.458-.51.566-.73.566-1.158 0-.482-.137-.806-.474-1.12-.299-.28-.526-.372-.953-.386-.273-.01-.41.005-.567.061m4.147 2.153c-.77.148-1.465.517-1.966 1.044A3.42 3.42 0 0 0 8.512 12c0 .715.187 1.345.57 1.917a3.56 3.56 0 0 0 2.208 1.509 4.3 4.3 0 0 0 1.42 0 3.513 3.513 0 0 0 2.765-3.772c-.123-1.217-.83-2.232-1.942-2.788-.479-.24-.797-.313-1.433-.327a7 7 0 0 0-.66.006m6.076 2.032c-.414.158-.77.501-.91.876-.055.147-.096.4-.124.773-.064.843-.269 1.503-.651 2.094a8 8 0 0 1-.544.672c-.466.523-.574.743-.574 1.171 0 .496.14.815.506 1.149.29.265.58.376.981.376.53-.001.902-.21 1.434-.803a7.17 7.17 0 0 0 1.842-4.334c.022-.293.024-.609.004-.749a1.5 1.5 0 0 0-.83-1.145c-.195-.099-.28-.116-.608-.125-.253-.007-.431.008-.526.045m-5.172 1.079c.119.119.136.162.136.337 0 .242-.129.424-.343.483a.5.5 0 0 1-.514-.16c-.081-.096-.103-.166-.103-.323 0-.175.017-.218.136-.337s.161-.136.344-.136.224.016.344.136"/></svg>