<svg xmlns="http://www.w3.org/2000/svg" width="24" height="24" fill="none" stroke="currentColor" stroke-linecap="round" stroke-linejoin="round" stroke-width="3"><path fill="#000" fill-rule="evenodd" stroke="none" d="M4.44 1.547a3.56 3.56 0 0 0-2.888 2.841c-.076.399-.076 14.825 0 15.224.221 1.168 1.036 2.177 2.116 2.617.716.292.076.271 8.332.271 6.835 0 7.443-.005 7.71-.068a3.7 3.7 0 0 0 1.798-1.004c.573-.6.883-1.272.971-2.111.054-.511.054-14.123 0-14.634-.154-1.464-1.103-2.611-2.526-3.052l-.293-.091-7.56-.005c-4.158-.002-7.605.003-7.66.012m14.904 3.109.136.136v14.402l-.103.122a.6.6 0 0 1-.25.163c-.204.056-14.05.056-14.254 0a.6.6 0 0 1-.25-.163l-.103-.122V4.792l.136-.136.136-.136h14.416zm-8.324.924c-2.098.335-3.878 1.627-4.819 3.498-.473.94-.686 1.857-.685 2.942a6.46 6.46 0 0 0 6.464 6.465c1.728.003 3.263-.611 4.515-1.805A6.4 6.4 0 0 0 18.486 12c0-3.238-2.323-5.928-5.546-6.423-.442-.068-1.484-.066-1.92.003m1.732 3.003c.641.13 1.193.439 1.71.955.71.71 1.018 1.455 1.018 2.462 0 .979-.294 1.712-.976 2.431-.664.7-1.509 1.056-2.504 1.056q-1.51 0-2.521-1.073C8.813 13.707 8.52 12.97 8.52 12c0-1.007.308-1.752 1.018-2.462.507-.506 1.063-.821 1.682-.952.378-.08 1.146-.082 1.532-.003m-1.236 1.994c-1.049.399-1.349 1.701-.571 2.478.58.58 1.53.583 2.107.007a1.47 1.47 0 0 0 0-2.124c-.292-.292-.55-.395-1.012-.407-.247-.006-.431.01-.524.046"/></svg>