<svg xmlns="http://www.w3.org/2000/svg" width="24" height="24" fill="none" stroke="currentColor" stroke-linecap="round" stroke-linejoin="round" stroke-width="3"><path fill="#000" fill-rule="evenodd" stroke="none" d="M1.516.577C.655.907.276 1.831.658 2.668c.095.207.529.655 3.964 4.093l3.858 3.861-.65.09c-1.973.273-3.599.878-5.264 1.96-.861.56-1.741 1.328-1.905 1.663a1.56 1.56 0 0 0 .001 1.332c.138.282.511.622.807.733.44.167 1.008.099 1.37-.164l.165-.12.117.099c.33.277.982.356 1.434.173.685-.276 1.041-.955.908-1.732l-.028-.163.283-.127c.155-.069.302-.126.326-.126s.163.11.31.244c.146.135.383.301.526.37.232.113.298.126.62.126.31 0 .393-.015.6-.112.435-.203.806-.671.88-1.108.021-.122.046-.156.133-.176.059-.013.59-.036 1.18-.05l1.073-.026 4.867 4.864c4.356 4.353 4.891 4.875 5.099 4.97a1.503 1.503 0 0 0 2.01-2.01c-.095-.21-1.076-1.202-10.274-10.395C1.635-.49 2.738.551 2.042.532c-.253-.007-.431.008-.526.045M14.533.575c-.364.119-.67.403-1.296 1.205a12.2 12.2 0 0 0-1.99 3.7c-.206.606-.225.689-.226 1.02-.001.325.012.387.131.638.117.247.234.381 1.042 1.189.752.752.95.929 1.14 1.015 1.111.509 2.306-.361 2.143-1.56-.054-.396-.186-.607-.732-1.17-.278-.287-.505-.543-.505-.569 0-.064.164-.443.191-.443.012 0 .397.37.855.822.898.886 1.051.995 1.496 1.055 1.197.162 2.069-1.032 1.562-2.139-.085-.185-.291-.415-1.158-1.292L16.13 2.98l.116-.157c.245-.332.312-.931.153-1.355-.113-.303-.449-.668-.75-.815-.186-.091-.287-.112-.587-.121-.226-.007-.424.009-.529.043m4.983 7.004a2.2 2.2 0 0 0-.516.309c-.389.335-.561.879-.462 1.461l.029.169-.231.102c-.395.175-.383.176-.685-.1a2.7 2.7 0 0 0-.531-.373c-.232-.111-.299-.125-.62-.124-.307.001-.396.017-.604.112-.309.14-.616.448-.764.765-.097.207-.112.29-.112.6 0 .323.013.388.131.636.111.234.227.372.784.929s.695.673.929.784c.249.118.311.131.636.13.331-.001.414-.02 1.02-.226 1.714-.584 3.363-1.564 4.464-2.652.387-.383.502-.628.501-1.069-.002-.487-.134-.8-.472-1.115-.279-.261-.524-.367-.896-.389-.387-.022-.665.042-.921.215l-.198.133-.176-.119a2 2 0 0 0-.344-.178c-.208-.073-.764-.073-.962 0m-10 6.998c-.689.262-1.09.925-.993 1.641.054.396.186.607.732 1.17.278.287.505.543.505.569 0 .064-.164.443-.191.443-.012 0-.393-.365-.846-.81C7.704 16.587 7.627 16.54 7 16.54c-.384 0-.44.01-.648.116-.751.38-1.048 1.237-.696 2.006.085.185.291.415 1.158 1.292L7.87 21.02l-.116.157c-.248.337-.314.928-.151 1.363.125.336.521.732.857.857.329.123.754.123 1.08.001.193-.072.303-.153.561-.414 1.088-1.101 2.068-2.75 2.652-4.464.206-.606.225-.689.226-1.02.001-.325-.012-.387-.131-.638-.117-.248-.231-.378-1.04-1.182-1.089-1.083-1.169-1.135-1.768-1.149-.246-.006-.431.01-.524.046"/></svg>