<svg xmlns="http://www.w3.org/2000/svg" width="24" height="24" fill="none" stroke="currentColor" stroke-linecap="round" stroke-linejoin="round" stroke-width="3"><path fill="#000" fill-rule="evenodd" stroke="none" d="M14.533.575c-.356.116-.643.379-1.248 1.14-.947 1.192-1.598 2.416-2.098 3.945-.272.831-.531 2.175-.485 2.519.061.466.42.958.854 1.171.201.099.267.11.644.11.395 0 .434-.007.647-.125l.227-.124.237.117a1.497 1.497 0 0 0 2.166-1.546c-.054-.396-.186-.607-.732-1.17-.278-.287-.505-.537-.505-.555s.04-.137.089-.263l.089-.229.85.839c.917.906 1.067 1.012 1.514 1.073 1.197.162 2.069-1.032 1.562-2.139-.085-.185-.291-.415-1.158-1.292L16.13 2.98l.116-.157c.245-.332.312-.931.153-1.355-.113-.303-.449-.668-.75-.815-.186-.091-.287-.112-.587-.121-.226-.007-.424.009-.529.043m4.983 7.004a2.2 2.2 0 0 0-.516.309c-.389.335-.561.879-.462 1.462l.029.17-.173.074c-.096.041-.24.098-.32.127l-.146.052-.274-.251a2.7 2.7 0 0 0-.534-.375c-.232-.111-.299-.125-.62-.124-.308 0-.395.016-.6.111-.273.125-.587.411-.71.646a2.4 2.4 0 0 0-.151.4l-.067.24-.376.028c-.207.016-1.519.047-2.916.07-2.581.042-2.891.058-3.92.203-1.924.272-3.551.883-5.194 1.951-.861.56-1.741 1.328-1.905 1.663a1.56 1.56 0 0 0 .001 1.332c.138.282.511.622.807.733.44.167 1.008.099 1.37-.164l.165-.12.117.099c.33.277.982.356 1.434.173.685-.276 1.041-.955.908-1.732l-.028-.163.283-.127c.155-.069.302-.126.326-.126s.163.11.31.244c.146.135.383.301.526.37.232.113.298.126.62.126.31 0 .393-.015.6-.112.435-.203.806-.671.88-1.108.021-.122.047-.157.133-.177.059-.014 1.196-.042 2.527-.061 2.558-.039 2.915-.052 3.84-.146 1.704-.174 3.01-.521 4.414-1.174 1.061-.494 2.355-1.374 3.09-2.101.387-.383.502-.628.501-1.069-.002-.487-.134-.8-.472-1.115-.279-.261-.524-.367-.896-.389-.387-.022-.665.042-.921.215l-.198.133-.176-.119a2 2 0 0 0-.344-.178c-.208-.073-.764-.073-.962 0m-10 6.998c-.689.262-1.09.925-.993 1.641.054.396.186.607.732 1.17.278.287.505.537.505.555s-.04.137-.089.263l-.089.229-.841-.827C7.703 16.585 7.629 16.54 7 16.54c-.384 0-.44.01-.648.116-.751.38-1.048 1.237-.696 2.006.085.185.291.415 1.158 1.292L7.87 21.02l-.116.157c-.248.337-.314.928-.151 1.363.068.182.154.304.353.504.33.329.596.442 1.044.443.603.002.917-.211 1.641-1.112 1.417-1.764 2.281-3.739 2.621-5.997.062-.411.062-.46.001-.699-.192-.75-.791-1.191-1.564-1.151-.266.014-.362.039-.554.142l-.232.126-.244-.128c-.219-.115-.282-.129-.626-.137-.249-.006-.434.01-.527.046"/></svg>