<svg xmlns="http://www.w3.org/2000/svg" width="24" height="24" fill="none" stroke="currentColor" stroke-linecap="round" stroke-linejoin="round" stroke-width="3"><path fill="#000" fill-rule="evenodd" stroke="none" d="M6.565 1.483c-1.057.119-1.925.561-2.753 1.403-.414.421-.511.544-.896 1.129C2.128 5.212 1.452 6.973 1.119 8.7c-.11.568-.146 1.294-.082 1.627.132.68.65 1.343 1.387 1.774.251.147.262.159.238.276-.149.728-.194 2.555-.082 3.323.329 2.26 1.561 4.091 3.58 5.323 1.181.72 2.727 1.212 4.4 1.4.711.081 2.168.08 2.883-.001 2.439-.275 4.466-1.151 5.872-2.536 1.166-1.149 1.852-2.514 2.106-4.187.114-.752.076-2.159-.086-3.18-.022-.14-.02-.142.23-.26.337-.159.803-.509 1.085-.814s.527-.794.593-1.183c.147-.854-.272-2.776-.98-4.501-.938-2.283-2.325-3.752-3.931-4.163-.928-.237-2.052-.176-2.979.162-.831.303-1.58.881-2.016 1.555l-.148.228-1.063-.014-1.062-.014-.17-.253c-.585-.872-1.708-1.554-2.863-1.74a7 7 0 0 0-1.466-.039m1.271 3.072c.277.105.515.271.587.41.031.061.073.228.094.372q.074.533.43.885c.253.253.509.378.878.431.25.036.398.029.974-.05.944-.13 1.873-.108 2.581.062.882.211 1.354.142 1.796-.265.33-.305.584-.786.584-1.108 0-.32.217-.558.674-.739.185-.073.305-.09.666-.09.396-.001.463.01.676.109.705.327 1.522 1.617 2.042 3.228.156.482.354 1.261.399 1.571l.028.191-.152.064a2.3 2.3 0 0 1-.485.102 1.4 1.4 0 0 1-.651-.044c-.848-.214-1.216-.587-1.677-1.696a1.5 1.5 0 0 0-.789-.839c-.239-.113-.311-.127-.611-.127-.423.002-.711.106-.995.361-.244.22-.386.455-.47.783-.102.401-.028.745.325 1.501.376.803 1.003 1.593 1.658 2.087.384.289.96.577 1.491.745.474.15.426.067.531.911.111.896.073 1.843-.099 2.471-.566 2.074-2.7 3.417-5.714 3.595-2.2.13-4.275-.426-5.546-1.486a4.2 4.2 0 0 1-1.503-2.705c-.057-.392-.031-1.712.044-2.253l.048-.348.225-.047a5.4 5.4 0 0 0 2.939-1.715c.427-.489.889-1.308 1.108-1.962a1.496 1.496 0 0 0-.654-1.738 1.48 1.48 0 0 0-1.406-.062c-.396.189-.549.371-.864 1.024-.247.513-.312.612-.568.871-.599.605-1.4.827-2.173.602-.261-.076-.259-.058-.114-.746.185-.876.64-2.131 1.025-2.823.521-.936 1.08-1.497 1.601-1.608.267-.057.823-.018 1.067.075m-.32 8.022c-.561.215-.918.668-1.004 1.274-.167 1.183.387 2.046 1.373 2.138.433.041.842-.112 1.163-.433.372-.372.528-.954.444-1.65-.071-.588-.349-1-.842-1.249-.195-.099-.28-.116-.608-.125q-.382-.01-.526.045m8 0c-.561.215-.918.668-1.004 1.274-.167 1.183.387 2.046 1.373 2.138.433.041.842-.112 1.163-.433.372-.372.528-.954.444-1.65-.071-.588-.349-1-.842-1.249-.195-.099-.28-.116-.608-.125q-.381-.01-.526.045m-4.736 2.256c-.61.212-1.017.766-1.019 1.387-.001.567.132.805.844 1.512.384.381.573.539.737.614.419.192.897.192 1.318-.001.169-.077.355-.233.76-.636.447-.444.559-.58.668-.811.12-.254.132-.311.132-.658 0-.329-.014-.411-.108-.609a1.7 1.7 0 0 0-.743-.743l-.229-.108-1.08-.008c-.937-.008-1.106 0-1.28.061"/></svg>