<svg xmlns="http://www.w3.org/2000/svg" width="24" height="24" fill="none" stroke="currentColor" stroke-linecap="round" stroke-linejoin="round" stroke-width="3"><path fill="#000" fill-rule="evenodd" stroke="none" d="M11.516.577c-.371.142-.711.446-.864.773-.135.288-.17.587-.171 1.436l-.001.725-.89.02c-.731.016-.951.034-1.23.105a5.4 5.4 0 0 0-1.954.94c-.505.389-1.084 1.1-1.388 1.704a6.2 6.2 0 0 0-.441 1.355c-.08.445-.08 1.285 0 1.73a5.05 5.05 0 0 0 1.461 2.728c.551.53 1.138.889 1.857 1.134.554.189.971.252 1.835.281l.75.025v3.985l-2.45.011-2.45.011-.228.116a1.51 1.51 0 0 0-.829 1.126 1.494 1.494 0 0 0 1.287 1.7c.138.02 1.242.037 2.455.037l2.205.001.018.89c.016.842.023.904.119 1.138.243.592.758.938 1.393.938s1.15-.346 1.393-.938c.096-.234.103-.297.119-1.132l.017-.884.746-.024c.863-.029 1.276-.093 1.843-.285 1.399-.476 2.575-1.618 3.061-2.974.321-.896.399-1.887.218-2.766a7 7 0 0 0-.415-1.203c-.304-.604-.883-1.315-1.388-1.704a5.4 5.4 0 0 0-1.954-.94c-.279-.071-.499-.089-1.23-.105l-.89-.02V6.52l1.71-.001c.941 0 1.822-.017 1.96-.037a1.494 1.494 0 0 0 1.287-1.7 1.51 1.51 0 0 0-.829-1.126l-.228-.116-1.95-.011-1.95-.012-.001-.728c0-.401-.017-.841-.037-.979A1.51 1.51 0 0 0 12.65.657c-.195-.099-.28-.116-.608-.125q-.382-.01-.526.045M10.48 8.526v2.005l-.67-.021c-.749-.024-1.02-.085-1.369-.31a2.3 2.3 0 0 1-.758-.88c-.141-.297-.143-.306-.143-.82 0-.518.001-.521.15-.833a2.12 2.12 0 0 1 1.25-1.091c.102-.032.41-.052.85-.053l.69-.003zm4.853 5.164c.427.203.774.55.977.977.149.312.15.315.15.833 0 .514-.002.523-.143.82a2.3 2.3 0 0 1-.758.88c-.349.225-.62.286-1.369.31l-.67.021v-4.017l.75.013.75.013z"/></svg>