<svg xmlns="http://www.w3.org/2000/svg" width="24" height="24" fill="none" stroke="currentColor" stroke-linecap="round" stroke-linejoin="round" stroke-width="3"><path fill="#000" fill-rule="evenodd" stroke="none" d="M11.56.505A11.504 11.504 0 0 0 .535 10.746c-.08.694-.057 2.25.044 2.894.594 3.79 2.876 6.945 6.241 8.63a11.3 11.3 0 0 0 5.14 1.21c2.373-.002 4.545-.671 6.5-2.003 3.658-2.493 5.574-6.949 4.86-11.305-.192-1.174-.382-1.521-.997-1.824-.237-.116-.295-.128-.622-.126-.32.001-.395.016-.654.133q-.747.335-1.221-.193c-.247-.275-.279-.39-.247-.904.032-.511-.016-.742-.222-1.063-.28-.436-.641-.631-1.267-.683-.663-.056-1.069-.259-1.318-.659-.194-.312-.232-.447-.23-.813.002-.302.018-.376.147-.666.263-.589.274-.952.044-1.443-.128-.274-.511-.622-.805-.732C14.644.718 12.957.45 11.56.505M13 3.564c.165.022.35.049.41.061l.11.021v.392c0 1.391.66 2.728 1.753 3.551.321.241.926.572 1.194.652.154.046.158.053.247.373.271.982.997 1.884 1.926 2.395.478.263 1.186.471 1.603.471h.197l.004.33c.008.598-.006.885-.069 1.33-.478 3.422-2.917 6.185-6.232 7.059-.737.195-1.115.247-1.943.27-1.069.029-1.867-.081-2.82-.388a8.49 8.49 0 0 1-5.739-6.421c-.181-.889-.207-2.154-.062-3.02a8.57 8.57 0 0 1 3.739-5.756A9.2 9.2 0 0 1 9.86 3.763 8.8 8.8 0 0 1 13 3.564m-1.723 3.994c-1.471.269-2.667 1.161-3.316 2.474a5.2 5.2 0 0 0-.402 1.248c-.059.334-.059 1.106 0 1.44.361 2.054 2.013 3.583 4.057 3.756 2.473.208 4.652-1.626 4.86-4.092a4.46 4.46 0 0 0-1.343-3.596 3.8 3.8 0 0 0-1.153-.81c-.678-.332-1.061-.423-1.86-.44-.363-.007-.742.002-.843.02m1.376 3.1c.272.138.573.445.709.722.085.174.098.255.098.62 0 .384-.01.44-.116.648a1.51 1.51 0 0 1-1.126.829 1.5 1.5 0 0 1-1.562-.829c-.106-.208-.116-.264-.116-.648 0-.365.013-.446.098-.62.173-.352.515-.664.878-.803q.144-.056.526-.045c.329.009.413.026.611.126"/></svg>