<svg xmlns="http://www.w3.org/2000/svg" width="24" height="24" fill="none" stroke="currentColor" stroke-linecap="round" stroke-linejoin="round" stroke-width="3"><path fill="#000" fill-rule="evenodd" stroke="none" d="M10.14 1.179c-.22.051-1.291.317-2.38.591-1.69.425-2.029.522-2.317.666A3.48 3.48 0 0 0 3.52 5.215c-.023.218-.039 2.974-.039 6.833l-.001 6.468-.95.012-.95.012-.228.116a1.51 1.51 0 0 0-.829 1.126 1.494 1.494 0 0 0 1.287 1.7c.138.02.884.037 1.659.037l1.41.001 3.37.842c3.111.778 3.399.843 3.731.845a2.45 2.45 0 0 0 1.632-.587c.265-.219.568-.628.689-.93l.068-.17 3.785-.001c2.082 0 3.898-.017 4.036-.037a1.494 1.494 0 0 0 1.287-1.7 1.51 1.51 0 0 0-.829-1.126l-.228-.116-1.45-.012-1.45-.012-.001-6.228c0-3.836-.016-6.373-.04-6.605-.132-1.255-.824-2.255-1.946-2.817-.606-.304-.709-.319-2.264-.336l-1.391-.016-.39-.387c-.414-.41-.649-.571-1.155-.788-.647-.277-1.443-.335-2.193-.16m1.197 3.036.143.134-.001 3.656-.001 3.655-.097-.235c-.138-.337-.378-.588-.741-.773-.2-.102-.259-.112-.64-.112-.384 0-.44.01-.648.116-.925.468-1.134 1.676-.414 2.396.77.77 2.034.519 2.447-.486l.093-.226.001 3.865.001 3.865L9 19.45l-2.48-.62V5.377l.11-.131c.108-.127.154-.141 2.15-.645 1.122-.283 2.124-.516 2.227-.518.16-.002.208.017.33.132m5.007 1.441.136.136V18.52h-1.96v-13h1.688z"/></svg>