<svg xmlns="http://www.w3.org/2000/svg" width="24" height="24" fill="none" stroke="currentColor" stroke-linecap="round" stroke-linejoin="round" stroke-width="3"><path fill="#000" fill-rule="evenodd" stroke="none" d="M7.44 2.547c-1.198.207-2.264 1.061-2.684 2.149-.27.701-.251.178-.265 7.333l-.014 6.488-1.448.012-1.449.011-.228.116a1.51 1.51 0 0 0-.829 1.126 1.494 1.494 0 0 0 1.287 1.7c.331.048 20.049.048 20.38 0a1.494 1.494 0 0 0 1.287-1.7 1.51 1.51 0 0 0-.829-1.126l-.228-.116-1.45-.012-1.45-.012-.001-6.228c0-3.836-.016-6.373-.04-6.605-.154-1.465-1.105-2.613-2.526-3.052l-.293-.09-4.56-.005c-2.508-.004-4.605.002-4.66.011m8.904 3.109.136.136V18.52H7.52V5.792l.136-.136.136-.136h8.416zm-2.828 4.921c-1.046.4-1.349 1.703-.578 2.475a1.47 1.47 0 0 0 2.124 0c.719-.719.511-1.928-.412-2.395-.195-.099-.28-.116-.608-.125q-.382-.01-.526.045"/></svg>