<svg xmlns="http://www.w3.org/2000/svg" width="24" height="24" fill="none" stroke="currentColor" stroke-linecap="round" stroke-linejoin="round" stroke-width="3"><path fill="#000" fill-rule="evenodd" stroke="none" d="M11.56 9.662a2.9 2.9 0 0 0-1.128.577c-.3.268-.593.713-.714 1.083-.084.254-.098.372-.096.798.002.439.016.536.111.8a2.59 2.59 0 0 0 1.547 1.547c.269.098.354.109.82.109s.552-.011.82-.108a2.59 2.59 0 0 0 1.547-1.548c.098-.269.109-.354.109-.82s-.011-.552-.108-.82a2.535 2.535 0 0 0-2.908-1.618m.764 2a.56.56 0 0 1 .276.438c0 .248-.252.5-.5.5-.244 0-.5-.252-.5-.492 0-.251.248-.508.492-.508a.6.6 0 0 1 .232.062"/></svg>