<svg xmlns="http://www.w3.org/2000/svg" width="24" height="24" fill="none" stroke="currentColor" stroke-linecap="round" stroke-linejoin="round" stroke-width="3"><path fill="#000" fill-rule="evenodd" stroke="none" d="M11.516 1.577a1.54 1.54 0 0 0-.998 1.233c-.02.138-.037 2.112-.037 4.388l-.001 4.137-1.29-1.278C7.654 8.534 7.663 8.54 7 8.54c-.384 0-.44.01-.648.116-.754.382-1.048 1.236-.694 2.012.094.205.417.543 2.774 2.898 2.1 2.098 2.712 2.688 2.874 2.769.424.21.964.21 1.388 0 .162-.081.774-.671 2.874-2.769 2.357-2.355 2.68-2.693 2.774-2.898.354-.776.06-1.63-.694-2.012-.208-.106-.264-.116-.648-.116-.663 0-.654-.006-2.19 1.517l-1.29 1.278-.001-4.137c0-2.276-.017-4.25-.037-4.388a1.51 1.51 0 0 0-.832-1.153c-.195-.099-.28-.116-.608-.125q-.382-.01-.526.045m-9 12c-.371.142-.711.446-.864.774-.164.35-.18.641-.161 2.947.014 1.767.029 2.21.079 2.423a3.58 3.58 0 0 0 2.72 2.711c.267.063.875.068 7.71.068s7.443-.005 7.71-.068c1.537-.359 2.605-1.561 2.769-3.115.05-.471.052-4.168.003-4.507a1.51 1.51 0 0 0-.834-1.154c-.208-.106-.264-.116-.648-.116s-.44.01-.648.116a1.51 1.51 0 0 0-.834 1.154c-.02.138-.037 1.18-.037 2.317l-.001 2.067-.103.122a.6.6 0 0 1-.25.163c-.204.056-14.05.056-14.254 0a.6.6 0 0 1-.25-.163l-.103-.122-.001-2.067c0-1.137-.017-2.179-.037-2.317a1.51 1.51 0 0 0-.832-1.153c-.195-.099-.28-.116-.608-.125-.253-.007-.431.008-.526.045"/></svg>