<svg xmlns="http://www.w3.org/2000/svg" width="24" height="24" fill="none" stroke="currentColor" stroke-linecap="round" stroke-linejoin="round" stroke-width="3"><path fill="#000" fill-rule="evenodd" stroke="none" d="M11.44 1.545c-1.374.264-2.405 1.178-2.798 2.48-.258.858-.124 1.972.327 2.72.086.144.147.287.135.319-.025.065-2.412 4.318-2.482 4.422-.039.058-.103.013-.489-.343-.576-.53-.73-.603-1.273-.603-.351 0-.428.013-.631.108-.753.353-1.069 1.266-.703 2.026.106.218.617.744 1.154 1.185.209.172.385.326.392.342.006.016-.755 1.393-1.692 3.06a214 214 0 0 0-1.758 3.161c-.03.072-.076.231-.101.354-.09.434.094.955.459 1.301.477.451 1.082.544 1.684.259.408-.193.479-.303 2.294-3.536a216 216 0 0 1 1.738-3.067c.034-.037.182-.001.625.149.639.217 1.373.396 2.079.506.66.103 2.542.102 3.2-.001 2.137-.335 3.994-1.142 5.609-2.437.568-.456 1.157-1.05 1.265-1.275a1.48 1.48 0 0 0-.278-1.719 1.8 1.8 0 0 0-.425-.308c-.203-.095-.28-.108-.631-.108-.532 0-.713.084-1.245.579-1.364 1.27-2.898 2.019-4.675 2.283-.92.137-2.179.093-3.06-.107-.414-.094-.92-.254-.92-.292 0-.019.566-1.04 1.257-2.269L11.754 8.5h.499l.709 1.26c.389.693.773 1.335.852 1.426.284.326.766.518 1.223.485.85-.061 1.51-.899 1.36-1.726-.052-.289-.079-.343-.888-1.785l-.64-1.14.087-.14a3.503 3.503 0 0 0-1.423-5.014c-.479-.24-.797-.313-1.433-.327a7 7 0 0 0-.66.006m.904 3.111c.12.12.136.161.136.345 0 .187-.015.224-.137.339a.66.66 0 0 1-.24.149c-.169.032-.3-.012-.446-.149-.122-.115-.137-.152-.137-.339 0-.184.016-.225.136-.345s.161-.136.344-.136.224.016.344.136m5.945 11.107a1.7 1.7 0 0 0-.449.303c-.475.44-.627 1.087-.388 1.652.024.056.548 1.002 1.164 2.102 1.203 2.147 1.33 2.332 1.72 2.516.602.285 1.207.192 1.684-.259a1.465 1.465 0 0 0 .373-1.617c-.025-.066-.551-1.02-1.168-2.12-1.215-2.166-1.327-2.329-1.741-2.527-.312-.15-.881-.174-1.195-.05"/></svg>