<svg xmlns="http://www.w3.org/2000/svg" width="24" height="24" fill="none" stroke="currentColor" stroke-linecap="round" stroke-linejoin="round" stroke-width="3"><path fill="#000" fill-rule="evenodd" stroke="none" d="M14.38.565C11.008.822 9.038 2.049 8.578 4.18c-.05.228-.071.52-.074 1.02l-.004.699-.58.205c-2.633.929-5.313 2.695-6.492 4.276-.32.43-.715 1.204-.826 1.62a3.73 3.73 0 0 0 .274 2.713c.169.335.739 1.27 1.138 1.867 1.45 2.173 3.203 4.017 4.915 5.173 1.258.849 2.554 1.39 3.911 1.633.526.094 1.577.094 2.051.001 1.479-.293 2.482-1.117 3.205-2.63a7.8 7.8 0 0 0 .607-1.826 10 10 0 0 1 .11-.512l.327-.094c1.349-.385 2.736-1.488 3.777-3.005 1.322-1.926 2.16-4.537 2.465-7.675.088-.911.14-2.557.096-3.027-.159-1.682-1.249-2.906-3.158-3.548-.742-.25-1.736-.431-2.8-.51-.63-.046-2.503-.044-3.14.005m3.66 3.053c1.301.181 2.198.561 2.386 1.011.106.252.062 1.852-.088 3.211-.359 3.252-1.542 5.928-3.148 7.124-.62.462-.996.585-1.457.477-.971-.229-2.104-1.431-2.869-3.046C12.03 10.636 11.519 8 11.52 5.469c0-.813.019-.889.28-1.124.438-.395 1.363-.654 2.86-.8.088-.009.772-.011 1.52-.006 1.028.007 1.482.027 1.86.079m-4.524.959c-1.049.399-1.349 1.701-.571 2.478.58.58 1.53.583 2.107.007a1.47 1.47 0 0 0 0-2.124c-.292-.292-.55-.395-1.012-.407-.247-.006-.431.01-.524.046m4 0c-1.049.399-1.349 1.701-.571 2.478.58.58 1.53.583 2.107.007a1.47 1.47 0 0 0 0-2.124c-.292-.292-.55-.395-1.012-.407-.247-.006-.431.01-.524.046m-3.302 3.88c-.628.152-1.102.773-1.102 1.443 0 .697.472 1.287 1.388 1.739.583.287.809.338 1.5.338s.917-.051 1.5-.338c.919-.453 1.384-1.037 1.384-1.739 0-.944-.827-1.63-1.763-1.463-.274.049-.408.12-.877.463-.172.126-.316.127-.488.001-.435-.317-.575-.396-.785-.445a1.46 1.46 0 0 0-.757.001M8.862 9.465l.083.465-.13.156c-.308.368-.395.995-.203 1.469.154.381.481.709.831.834l.195.069.184.461c.101.254.209.518.24.588l.056.127-.249.083c-1.062.354-2 1.397-2.233 2.485-.141.655.229 1.374.855 1.663.216.1.297.115.609.115.307 0 .394-.016.59-.108.331-.155.637-.459.766-.763.171-.399.198-.441.338-.523.118-.069.157-.073.333-.032.252.058.508.059.736.001l.178-.045.33.315c.374.358.825.706 1.196.922l.264.155c.026.015-.152.821-.233 1.058-.121.353-.361.819-.546 1.058-.268.348-.705.493-1.332.444-1.213-.097-2.529-.69-3.84-1.732-.445-.353-1.622-1.522-2.026-2.01a24.5 24.5 0 0 1-2.111-3.038c-.229-.398-.263-.484-.263-.66 0-.991 2.028-2.634 4.7-3.807.264-.116.507-.212.54-.213.045-.002.08.111.142.463m-2.688 2.174c-.424.09-.845.438-1.042.861-.097.207-.112.29-.112.6 0 .311.015.394.113.604.143.31.453.618.763.76.748.341 1.641-.006 1.997-.775.071-.154.087-.262.087-.589 0-.347-.014-.429-.103-.62a1.66 1.66 0 0 0-.737-.726 1.75 1.75 0 0 0-.966-.115"/></svg>