<svg xmlns="http://www.w3.org/2000/svg" width="24" height="24" fill="none" stroke="currentColor" stroke-linecap="round" stroke-linejoin="round" stroke-width="3"><path fill="#000" fill-rule="evenodd" stroke="none" d="M10.82.563A11.515 11.515 0 0 0 .739 9.671a11.8 11.8 0 0 0 0 4.658 11.52 11.52 0 0 0 8.932 8.932c1.501.309 3.157.309 4.658 0a11.53 11.53 0 0 0 8.932-8.932 11.8 11.8 0 0 0 0-4.658C22.306 5.036 18.563 1.433 13.9.663c-.846-.14-2.244-.185-3.08-.1m2.6 3.054c.9.167 1.746.453 2.5.847.426.223.999.577.999.619.001.04-.998.775-1.419 1.045-.517.331-1.257.741-1.75.969l-.39.18-.056-.088a55.258 55.258 0 0 0-1.981-3.129l-.326-.48.111-.028c.217-.053 1.931-.005 2.312.065M8.551 5.33c.754 1.092 1.889 2.849 1.889 2.925 0 .022-.095.046-.78.204-1.267.291-3.03.573-4.62.739l-.93.097q-.152.018-.15-.032c0-.094.32-.837.54-1.251a8.65 8.65 0 0 1 3.13-3.301c.17-.104.322-.19.336-.19.014-.001.277.364.585.809m10.767 2.348c.534.92.901 1.928 1.061 2.922.069.433.075.533.028.504a10 10 0 0 0-.77-.087c-1.237-.112-3.206-.042-4.309.154-.031.005-.152-.221-.31-.583a10 10 0 0 1-.258-.622c0-.017.22-.138.49-.268 1.229-.592 2.73-1.558 3.63-2.335l.14-.121.073.087c.04.048.141.205.225.349m-7.286 3.592c.068.148.168.37.222.492l.098.223-.466.194a19 19 0 0 0-2.126 1.074c-1.541.921-2.725 1.883-4.205 3.414l-.385.398-.226-.331a8.6 8.6 0 0 1-1.409-4.02l-.026-.347.215-.023c.119-.013.612-.061 1.096-.106 2.319-.218 4.462-.569 6.218-1.021.383-.098.706-.188.716-.198s.05-.019.087-.019c.044 0 .11.093.191.27m7.488 2.752c.361.035.669.071.685.081.038.024-.088.46-.27.937a8.8 8.8 0 0 1-1.216 2.162c-.274.36-1.028 1.158-1.093 1.158-.026 0-.099-.203-.162-.45a76 76 0 0 0-.851-2.981c-.146-.467-.258-.857-.249-.866s.205-.033.436-.054a19 19 0 0 1 2.72.013m-5.868 1.488c.365 1.146 1.228 4.264 1.228 4.435 0 .064-.216.143-.78.288-.75.192-1.265.255-2.1.255-1.434 0-2.671-.304-3.957-.97-.595-.309-.665-.362-.611-.462.07-.131 1.487-1.5 1.921-1.856A14.8 14.8 0 0 1 12 15.444c.5-.259 1.332-.641 1.403-.643.013-.001.125.319.249.709"/></svg>