<svg xmlns="http://www.w3.org/2000/svg" width="24" height="24" fill="none" stroke="currentColor" stroke-linecap="round" stroke-linejoin="round" stroke-width="3"><path fill="#000" fill-rule="evenodd" stroke="none" d="M3.44.548a3.56 3.56 0 0 0-2.888 2.84c-.074.389-.074 4.835 0 5.224.22 1.163 1.032 2.171 2.105 2.613.178.074.345.134.373.134.028.001.05.028.05.061 0 .034-.297 1.253-.661 2.71-.608 2.44-.669 2.656-.766 2.73-.559.425-.852.796-1.014 1.283-.253.761-.133 1.892.299 2.803.234.494.423.772.782 1.15.407.428.738.671 1.26.927a4.5 4.5 0 0 0 1.66.456c.587.051 5.282.051 5.68 0 .854-.111 1.563-.605 1.921-1.339.224-.458.247-.62.269-1.868.029-1.676-.04-2.102-.439-2.697a2.35 2.35 0 0 0-1.374-.976c-.254-.065-.443-.079-1.046-.079-.683 0-.735-.005-.715-.07.011-.038.069-.263.127-.5l.107-.43.925-.001c1.401-.002 1.783-.076 2.341-.456.341-.232.629-.563.805-.923.214-.439.245-.636.268-1.7l.021-.98.292-.09c.327-.101.818-.408 1.021-.639a2.8 2.8 0 0 0 .529-.915l.088-.286.98-.022c.711-.015 1.04-.038 1.2-.084.689-.195 1.302-.699 1.594-1.312.087-.183.171-.391.186-.462l.026-.13 1.247-.001c.686 0 1.359-.017 1.497-.037a1.494 1.494 0 0 0 1.287-1.7 1.51 1.51 0 0 0-.829-1.126l-.228-.116-1.475-.02-1.475-.02-.088-.262a2.26 2.26 0 0 0-.603-.976 2.5 2.5 0 0 0-.962-.631c-.215-.081-.333-.09-1.291-.11L15.472 2.5l-.097-.308A2.53 2.53 0 0 0 14.198.783a2.7 2.7 0 0 0-.501-.184C13.396.522 13.248.52 8.464.525 5.756.528 3.495.538 3.44.548m9.04 5.469v2.497l-4.23.001c-2.59 0-4.287-.014-4.377-.038a.6.6 0 0 1-.25-.161l-.103-.122V3.792l.136-.136.136-.136h8.688zm4 .003v.5h-.96v-1h.96zM6.445 14.01 5.82 16.5l-.453.011c-.419.011-.452.006-.432-.06.012-.039.295-1.164.628-2.501l.607-2.43h.9zm4.035-1.99v.5h-.283c-.25 0-.28-.008-.261-.07.011-.038.069-.263.127-.5l.107-.43h.31zm-1 8v.5l-2.21-.001c-2.257-.001-2.626-.02-2.933-.156a1.55 1.55 0 0 1-.641-.61 2 2 0 0 1-.096-.212c0-.011 1.323-.021 2.94-.021h2.94z"/></svg>