<svg xmlns="http://www.w3.org/2000/svg" width="24" height="24" fill="none" stroke="currentColor" stroke-linecap="round" stroke-linejoin="round" stroke-width="3"><path fill="#000" fill-rule="evenodd" stroke="none" d="M13.655 1.558c-.371.089-.771.39-.948.716-.06.111-.171.442-.246.735a9.4 9.4 0 0 1-1.004 2.5c-.353.621-.44.924-.377 1.312a1.53 1.53 0 0 0 1.25 1.261c.558.103 1.162-.175 1.493-.687.084-.129.162-.235.175-.234s.12.158.239.35c.317.511.937 1.326 1.391 1.83.41.454.785.803 1.666 1.553 1.206 1.026 1.899 2.114 2.13 3.342.081.43.057 1.507-.044 1.964a5.58 5.58 0 0 1-1.48 2.703c-.461.465-.843.746-1.38 1.015-.781.392-1.43.559-2.288.59-1.544.057-2.789-.41-4.005-1.5a3 3 0 0 0-.483-.356c-.529-.268-1.267-.157-1.68.253-.343.341-.481.694-.457 1.173.027.534.229.845.947 1.448a8.4 8.4 0 0 0 5.488 1.994c1.343 0 2.514-.276 3.747-.883a8.51 8.51 0 0 0 4.55-5.935c.174-.877.2-2.118.06-2.912-.214-1.217-.773-2.476-1.56-3.51-.538-.708-.968-1.136-2.216-2.204-1.214-1.039-2.305-2.656-2.833-4.196a14 14 0 0 1-.247-.86c-.141-.559-.234-.779-.424-.995-.336-.383-.969-.585-1.464-.467M6.601 3.861c-.399.113-.743.39-.926.75a4 4 0 0 0-.199.599A5.1 5.1 0 0 1 3.92 7.752c-.906.806-1.302 1.249-1.685 1.888-.8 1.332-.946 2.911-.413 4.455.543 1.571 1.851 2.872 3.418 3.399.692.233 1.016.285 1.76.285s1.068-.052 1.76-.285c1.81-.608 3.228-2.22 3.62-4.114.211-1.017.116-2.131-.257-3.026-.329-.791-.808-1.45-1.557-2.145-.278-.258-.608-.57-.732-.694-.571-.567-1.09-1.479-1.313-2.308-.153-.566-.239-.738-.488-.975a1.49 1.49 0 0 0-1.432-.371M7.24 9.12c.116.143.411.449.655.68 1.055.999 1.165 1.123 1.37 1.543.183.377.19.405.206.814.027.688-.142 1.208-.56 1.718-.854 1.043-2.319 1.23-3.376.431a2.65 2.65 0 0 1-.96-1.457c-.079-.338-.056-1.02.045-1.3.127-.355.426-.752.881-1.17.775-.711 1.075-1.01 1.279-1.276.11-.143.211-.256.224-.251.014.004.12.125.236.268"/></svg>