<svg xmlns="http://www.w3.org/2000/svg" width="24" height="24" fill="none" stroke="currentColor" stroke-linecap="round" stroke-linejoin="round" stroke-width="3"><path fill="#000" fill-rule="evenodd" stroke="none" d="M11.486 1.598a1.52 1.52 0 0 0-.786.662c-.052.088-.159.416-.237.728A8.8 8.8 0 0 1 9.766 4.9c-.67 1.378-1.473 2.388-2.785 3.499-2.014 1.705-3.08 3.438-3.406 5.541-.084.541-.082 1.665.004 2.24.169 1.135.617 2.373 1.193 3.298.459.736 1.283 1.663 1.931 2.172a8.7 8.7 0 0 0 3.206 1.585c.738.19 1.258.253 2.091.253 1.11 0 2.001-.162 3.011-.546a8.2 8.2 0 0 0 2.992-1.939 8 8 0 0 0 1.635-2.289c.582-1.213.848-2.359.849-3.654.001-1.301-.245-2.337-.826-3.48-.589-1.16-1.374-2.106-2.642-3.18-1.259-1.068-2.082-2.083-2.715-3.349-.395-.791-.551-1.21-.767-2.066-.077-.305-.174-.62-.215-.7-.11-.214-.414-.498-.674-.629-.303-.154-.83-.18-1.162-.058m.554 5.559c0 .069.705 1.102 1.041 1.523.465.585 1.191 1.319 1.899 1.92 1.422 1.208 2.057 2.091 2.386 3.32.116.435.146 1.416.059 1.93-.303 1.773-1.351 3.23-2.896 4.024a5.49 5.49 0 0 1-6.409-.99c-.837-.841-1.339-1.827-1.545-3.034-.05-.293-.06-.531-.043-1.007.028-.79.131-1.216.449-1.852.426-.85.953-1.468 2.039-2.391.694-.589 1.423-1.326 1.885-1.904.332-.416 1.055-1.469 1.055-1.538A.04.04 0 0 1 12 7.12c.022 0 .04.017.04.037"/></svg>