<svg xmlns="http://www.w3.org/2000/svg" width="24" height="24" fill="none" stroke="currentColor" stroke-linecap="round" stroke-linejoin="round" stroke-width="3"><path fill="#000" fill-rule="evenodd" stroke="none" d="M1.516.577C.658.906.276 1.832.656 2.662c.084.185.288.412 1.141 1.272l1.039 1.047-.32.258C1.49 6.063.795 7.131.573 8.223.505 8.555.5 8.889.5 13s.005 4.445.073 4.777c.524 2.577 3.444 4.607 7.767 5.398 1.222.224 2.248.311 3.66.311 2.964 0 5.516-.531 7.7-1.603 2.094-1.027 3.378-2.441 3.725-4.103.071-.34.075-.61.075-4.78 0-4.111-.005-4.445-.073-4.777-.222-1.092-.917-2.16-1.943-2.984l-.32-.258 1.039-1.047c.853-.86 1.057-1.087 1.141-1.272.352-.769.055-1.626-.696-2.006C22.44.55 22.384.54 22 .54c-.667 0-.643-.017-2.284 1.61l-1.383 1.373-.377-.123c-1.779-.584-3.782-.879-5.956-.879s-4.177.295-5.956.879l-.377.123L4.284 2.15C2.669.548 2.67.549 2.042.532c-.253-.007-.431.008-.526.045M13.42 5.562c.69.058 1.318.143 1.952.263l.554.105-1.582 1.588c-1.353 1.358-1.597 1.621-1.687 1.817a1.502 1.502 0 0 0 2.01 2.007c.2-.092.498-.372 2.281-2.151l2.05-2.046.291.197c.449.304.869.744 1.043 1.093.127.253.148.335.148.565 0 .395-.189.755-.62 1.183-1.185 1.175-3.591 2.024-6.4 2.259-1.054.088-2.781.043-3.84-.1-2.408-.325-4.435-1.124-5.48-2.159-.431-.428-.62-.788-.62-1.183 0-.23.021-.312.147-.565.175-.349.64-.835 1.066-1.111l.271-.176 2.05 2.044c1.782 1.778 2.079 2.058 2.279 2.15 1.31.6 2.609-.698 2.01-2.007-.09-.196-.334-.459-1.687-1.817L8.074 5.93l.554-.105a19 19 0 0 1 1.872-.259c.572-.05 2.354-.052 2.92-.004M5.14 14.27l.32.123.01 2.365.011 2.364-.171-.087c-.692-.351-1.402-.987-1.643-1.47l-.147-.296v-3.778l.65.328c.357.18.794.383.97.451m15.194 3.29c-.239.486-.946 1.121-1.644 1.475l-.171.087.011-2.364.01-2.365.32-.123c.176-.068.608-.269.96-.447l.64-.323.011 1.88.01 1.88zM9.22 15.314c.352.045.78.094.95.109l.31.026v2.496c0 1.969-.011 2.495-.05 2.495-.117 0-1.276-.161-1.57-.218l-.33-.062c-.006 0-.01-1.117-.01-2.482s.014-2.474.03-2.464.318.055.67.1m6.26 2.366c0 1.364-.004 2.48-.01 2.48l-.33.062c-.294.057-1.453.218-1.57.218-.039 0-.05-.526-.05-2.495v-2.496l.31-.026c.432-.037 1.543-.182 1.565-.205a.1.1 0 0 1 .052-.018c.018 0 .033 1.116.033 2.48"/></svg>