<svg xmlns="http://www.w3.org/2000/svg" width="24" height="24" fill="none" stroke="currentColor" stroke-linecap="round" stroke-linejoin="round" stroke-width="3"><path fill="#000" fill-rule="evenodd" stroke="none" d="M15.98.544c-1.57.224-2.733.625-4.039 1.394-1.754 1.034-3.425 2.805-4.336 4.598-.816 1.608-1.215 3.393-1.085 4.857.025.279.059.579.076.667l.031.16-.678.685-.678.685-.165-.039c-.091-.021-.436-.03-.766-.019-.492.016-.663.038-.952.124-1.224.364-2.207 1.269-2.645 2.433-.194.515-.243.808-.24 1.431.003.491.019.639.106.965.118.439.314.885.537 1.223.339.514 1.058 1.147 1.584 1.396.082.039.159.102.172.141.05.159.445.711.693.969.659.685 1.363 1.053 2.309 1.209 1.204.198 2.47-.21 3.358-1.083.646-.635.98-1.251 1.16-2.138.053-.259.063-.465.048-.918l-.02-.584.656-.662.657-.662.348.053c.491.075 1.608.07 2.169-.01.553-.078 1.458-.305 1.748-.437.584-.268.955-.942.854-1.553a3 3 0 0 0-.188-.56c-.129-.285-.152-.377-.165-.689-.039-.878.35-1.748 1.126-2.525.779-.778 1.653-1.168 2.527-1.125.309.015.409.039.69.166.709.321 1.255.258 1.768-.204.259-.233.405-.54.577-1.212.327-1.286.362-2.602.101-3.76-.588-2.602-2.479-4.406-5.138-4.901-.346-.065-1.9-.117-2.2-.075m1.66 3.022a3.7 3.7 0 0 1 1.656.736c.48.391.881 1.044 1.061 1.728.088.336.157 1.043.13 1.331l-.015.159h-.401c-2.107 0-4.22 1.231-5.532 3.223a6.07 6.07 0 0 0-1.007 3.126l-.023.61-.136.025c-.312.059-1.114-.058-1.643-.24-1.51-.518-2.359-1.967-2.21-3.776.204-2.499 2.006-5.014 4.48-6.254 1.23-.616 2.466-.843 3.64-.668M8.38 15.623l.426.423-.666.679c-.825.841-.921 1.006-.918 1.575.001.312.019.401.13.667.164.393.171.651.024.945a.986.986 0 0 1-1.329.452c-.263-.135-.432-.362-.547-.739-.199-.654-.529-.958-1.261-1.161a1.1 1.1 0 0 1-.648-.518c-.12-.231-.12-.661-.001-.89.269-.516.813-.672 1.416-.406.269.119.329.13.694.129.591-.002.708-.07 1.56-.908a58 58 0 0 1 .687-.67c.004 0 .199.189.433.422"/></svg>