<svg xmlns="http://www.w3.org/2000/svg" width="24" height="24" fill="none" stroke="currentColor" stroke-linecap="round" stroke-linejoin="round" stroke-width="3"><path fill="#000" fill-rule="evenodd" stroke="none" d="M6.085.499a3.66 3.66 0 0 0-1.921 1.075l-.216.221-.284-.262a2.6 2.6 0 0 0-.544-.386c-.232-.111-.299-.125-.62-.124-.307.001-.396.017-.604.112-.309.14-.616.448-.764.765-.097.207-.112.29-.112.6 0 .321.013.388.125.62.072.149.238.382.388.544l.262.283-.26.257A3.62 3.62 0 0 0 .477 6.18c-.076.436-.029 1.17.102 1.58.204.642.596 1.247 1.054 1.628l.264.219c.021.017-.017.147-.09.304-.222.48-.298.845-.301 1.429-.002.409.016.59.083.845a3.55 3.55 0 0 0 2.471 2.542c.277.081.406.093.96.091.589-.002.667-.011.98-.114a3.8 3.8 0 0 0 1.2-.646c.143-.117.737-.692 1.32-1.276l1.059-1.062 1.35 1.349 1.349 1.348-1.191 1.202C9.704 17.015 9.56 17.206 9.297 18c-.104.314-.113.389-.115.98-.002.554.01.683.091.96a3.55 3.55 0 0 0 2.542 2.471c.255.067.436.085.845.083.584-.003.949-.079 1.429-.301.157-.073.287-.111.304-.09l.219.264c.379.456.978.845 1.628 1.057.315.103.388.111 1 .112.619.001.681-.006 1-.112a3.7 3.7 0 0 0 1.576-.979l.237-.24.283.262c.162.15.395.316.544.388.232.112.299.125.62.125.31 0 .393-.015.6-.112.315-.147.624-.455.767-.764.098-.21.113-.293.113-.604 0-.321-.013-.388-.125-.62a2.7 2.7 0 0 0-.388-.544l-.262-.283.24-.237c.473-.465.766-.937.979-1.576.106-.319.113-.381.112-1-.001-.612-.009-.685-.112-1-.212-.65-.601-1.249-1.057-1.628l-.264-.219c-.021-.017.017-.147.09-.304.222-.48.298-.845.301-1.429.002-.409-.016-.59-.083-.845a3.52 3.52 0 0 0-1.878-2.309c-.835-.418-1.897-.459-2.802-.107-.602.233-.829.414-2.112 1.687l-1.202 1.192-1.348-1.349-1.349-1.35 1.062-1.059c.584-.583 1.159-1.177 1.276-1.32a3.8 3.8 0 0 0 .646-1.2c.103-.313.112-.391.114-.98.002-.554-.01-.683-.091-.96a3.5 3.5 0 0 0-3.762-2.536 3.3 3.3 0 0 0-1.098.303c-.106.054-.207.092-.225.085a2 2 0 0 1-.232-.255C9.006 1.169 8.389.771 7.74.578 7.29.444 6.494.406 6.085.499m.916 3.002c.147.076.239.249.239.45 0 .126-.041.209-.217.441-.273.36-.359.63-.334 1.048A1.465 1.465 0 0 0 8.26 6.831c.528-.035.599-.085 1.78-1.252.903-.893 1.082-1.052 1.208-1.075a.501.501 0 0 1 .535.728c-.07.131-6.446 6.501-6.57 6.564-.359.181-.782-.146-.709-.548.023-.126.182-.305 1.075-1.208C6.746 8.858 6.796 8.788 6.83 8.26c.075-1.145-1.164-1.951-2.17-1.411a3 3 0 0 0-.354.239c-.188.148-.257.17-.466.152-.312-.026-.5-.416-.343-.712.065-.121 2.918-2.974 3.043-3.042.115-.062.325-.056.461.015m12.298 8.746c.152.119.23.321.197.505-.023.126-.182.305-1.075 1.208-1.167 1.181-1.217 1.252-1.252 1.78-.023.346.058.641.252.924.279.405.654.619 1.139.647.418.025.688-.061 1.048-.334.314-.238.483-.275.713-.156.216.111.303.423.182.651-.032.059-.722.771-1.535 1.582-1.439 1.437-1.482 1.475-1.656 1.495-.328.037-.552-.166-.552-.5 0-.126.041-.209.217-.441.245-.324.343-.597.343-.954a1.39 1.39 0 0 0-.395-1.005c-.342-.351-.774-.518-1.234-.475-.495.046-.57.1-1.731 1.249-.908.899-1.082 1.054-1.211 1.078a.503.503 0 0 1-.532-.733c.065-.122 6.438-6.495 6.563-6.562.138-.075.398-.055.519.041"/></svg>