<svg xmlns="http://www.w3.org/2000/svg" width="24" height="24" fill="none" stroke="currentColor" stroke-linecap="round" stroke-linejoin="round" stroke-width="3"><path fill="#000" fill-rule="evenodd" stroke="none" d="M12.18.507a8.7 8.7 0 0 0-2.139.375c-.818.265-1.894.834-2.286 1.208a1.5 1.5 0 0 0-.293 1.725c.25.484.713.785 1.259.817.389.022.624-.047 1.009-.296a4.94 4.94 0 0 1 2.367-.814c.46-.036 1.123.007 1.515.098a5.08 5.08 0 0 1 3.627 3.292c.169.502.241.98.241 1.59 0 1.138-.212 1.931-.758 2.835-.111.184-.23.444-.265.584-.22.856.432 1.758 1.322 1.829.569.046 1.052-.2 1.409-.717.563-.815.983-1.865 1.173-2.932.729-4.095-1.51-7.916-5.399-9.217-.785-.263-1.938-.419-2.782-.377M1.516.577C.655.906.276 1.832.658 2.667c.091.199.365.49 2.062 2.191L4.677 6.82l-.06.34c-.082.469-.133 1.311-.094 1.558.049.305.208.616.428.837.222.222.379.313.669.391a1.44 1.44 0 0 0 1.422-.384l.19-.19L8.34 10.48l1.108 1.108-.194.12c-.548.338-.815.89-.731 1.51a1.5 1.5 0 0 0 1.269 1.261c.491.069 1.189-.069 1.761-.349l.294-.143.516.517.517.516-.182.22c-.373.452-.687.99-.886 1.517-.166.441-.258.917-.312 1.613-.048.628-.06.689-.189.96-.352.74-1.005 1.158-1.811 1.158-.611 0-1.058-.196-1.466-.642-.319-.349-.471-.707-.522-1.233-.048-.499-.136-.768-.338-1.033-.574-.752-1.774-.752-2.348 0-.237.311-.317.576-.312 1.04.017 1.803 1.113 3.531 2.766 4.362.326.163.963.371 1.355.441.445.08 1.285.08 1.73 0a6.2 6.2 0 0 0 1.355-.441c.663-.333 1.391-.949 1.809-1.53.591-.822.876-1.626.955-2.691.057-.774.155-1.115.426-1.475l.1-.134 3.045 3.042c2.694 2.691 3.072 3.054 3.277 3.147a1.502 1.502 0 0 0 2.01-2.009c-.095-.21-1.076-1.202-10.274-10.395C1.635-.49 2.738.551 2.042.532c-.253-.007-.431.008-.526.045m10.433 4.04c-1.232.506-1.264 2.21-.052 2.746.105.046.361.108.57.137.685.096.935.346 1.031 1.031.066.475.195.766.454 1.025.321.321.73.474 1.163.433.823-.077 1.374-.7 1.372-1.549-.007-2.132-1.797-3.924-3.915-3.919-.32.001-.435.018-.623.096"/></svg>