<svg xmlns="http://www.w3.org/2000/svg" width="24" height="24" fill="none" stroke="currentColor" stroke-linecap="round" stroke-linejoin="round" stroke-width="3"><path fill="#000" fill-rule="evenodd" stroke="none" d="M11.349.585c-3.837.555-6.798 3.894-6.836 7.708-.004.415.008.521.084.717.165.427.549.802.941.92.209.062.715.062.924 0 .237-.071.525-.275.699-.497.233-.294.309-.544.357-1.179.099-1.306.531-2.317 1.361-3.19.676-.711 1.493-1.181 2.487-1.429.326-.081.472-.093 1.134-.093.656 0 .809.012 1.12.09.926.232 1.673.635 2.315 1.247.977.932 1.484 2.067 1.533 3.428.036.97-.095 1.717-.426 2.433-.395.854-.926 1.453-2.322 2.616-1.482 1.234-2.047 1.817-2.514 2.595-.433.72-.617 1.348-.701 2.393-.053.654-.065.714-.194.986-.352.74-1.005 1.158-1.811 1.158-.611 0-1.058-.196-1.466-.642-.319-.349-.471-.707-.522-1.233-.048-.499-.136-.768-.338-1.033-.574-.752-1.774-.752-2.348 0-.237.311-.317.576-.312 1.04.017 1.803 1.113 3.531 2.766 4.362.326.163.963.371 1.355.441.445.08 1.285.08 1.73 0a6.2 6.2 0 0 0 1.355-.441c.663-.333 1.391-.949 1.809-1.53.601-.836.867-1.599.966-2.772.065-.762.128-.969.42-1.385.245-.35.672-.753 1.714-1.619.992-.826 1.699-1.507 2.144-2.067 1.044-1.313 1.594-2.784 1.703-4.549.142-2.304-.619-4.422-2.173-6.053C17.026 1.668 15.411.834 13.606.583c-.556-.078-1.712-.077-2.257.002m.371 3.994c-1.45.325-2.565 1.314-3.016 2.677-.163.49-.201.817-.202 1.704 0 .763.006.836.092 1.05.118.295.346.582.589.744.213.141.397.2.761.246.381.048.536.193.536.5 0 .329-.14.441-.652.523-.281.045-.42.091-.588.194a1.496 1.496 0 0 0-.404 2.213q.562.71 1.669.532a3.53 3.53 0 0 0 2.148-1.192c1.413-1.636.979-4.223-.886-5.277-.231-.131-.251-.153-.228-.248.049-.206.242-.462.439-.584.176-.109.229-.121.522-.121s.346.012.522.121c.288.178.41.401.476.87.031.224.095.475.155.605.116.254.422.579.651.695.812.408 1.776.03 2.097-.821.154-.408.106-1.129-.119-1.79-.438-1.289-1.46-2.231-2.822-2.601-.342-.093-1.395-.117-1.74-.04"/></svg>