<svg xmlns="http://www.w3.org/2000/svg" width="24" height="24" fill="none" stroke="currentColor" stroke-linecap="round" stroke-linejoin="round" stroke-width="3"><path fill="#000" fill-rule="evenodd" stroke="none" d="M10.82.563a11.53 11.53 0 0 0-9.116 6.311 11.63 11.63 0 0 0-.965 7.455 11.52 11.52 0 0 0 8.932 8.932c1.5.309 3.157.309 4.654.001a11.53 11.53 0 0 0 7.544-5.362 11.6 11.6 0 0 0 1.393-3.575c.301-1.465.307-3.124.015-4.585-.932-4.665-4.69-8.303-9.377-9.077-.846-.14-2.244-.185-3.08-.1m2.6 3.054a8.64 8.64 0 0 1 3.799 1.677c.338.256 1.221 1.106 1.221 1.175 0 .025-.22.049-.55.062-.624.024-.96.103-1.423.335a3.5 3.5 0 0 0-1.843 2.222 5 5 0 0 0-.108.66c-.023.238-.068.472-.1.521a.5.5 0 0 1-.832 0c-.032-.049-.077-.285-.101-.524-.129-1.308-.805-2.306-1.95-2.879-.397-.199-.79-.3-1.353-.348-.497-.042-.661-.079-.9-.2-.208-.105-.493-.411-.624-.67-.112-.221-.116-.246-.116-.822v-.593l.34-.139q.874-.357 2.22-.549c.305-.044 1.974.008 2.32.072M5.758 6.489c.127.424.488 1.041.849 1.453.811.924 1.83 1.432 3.093 1.541.697.06.751.112.817.772.086.873.39 1.556.961 2.16 1.147 1.212 3.076 1.429 4.451.5.913-.617 1.442-1.522 1.554-2.66.075-.759.034-.739 1.501-.726l1.156.011.106.422c.254 1.009.312 2.551.13 3.446l-.021.108-2.008.014c-1.941.013-2.017.016-2.3.103a3.58 3.58 0 0 0-2.476 2.646c-.049.206-.067.664-.086 2.181l-.025 1.92-.32.047a5 5 0 0 1-.47.05l-.15.003-.001-1.21c0-.665-.018-1.38-.04-1.587-.132-1.255-.824-2.255-1.947-2.818a3.5 3.5 0 0 0-1.283-.342c-.434-.038-.52-.068-.646-.228-.075-.096-.083-.16-.084-.67-.001-1.226-.161-1.899-.608-2.559a3.63 3.63 0 0 0-1.958-1.431c-.251-.075-.42-.09-1.183-.105-.542-.011-.89-.033-.89-.057 0-.021.081-.246.18-.5a8.5 8.5 0 0 1 1.225-2.172c.35-.45.373-.478.399-.48.013 0 .046.075.074.168m-.42 6.161.13.13.024.84c.015.49.049.949.082 1.101.249 1.124 1.047 2.081 2.092 2.507a4 4 0 0 0 1.232.274c.29.024.33.038.45.158l.132.132v1.164c0 .64-.008 1.164-.018 1.164s-.222-.079-.47-.175c-1.188-.459-2.088-1.041-2.974-1.925-1.437-1.432-2.277-3.204-2.48-5.23l-.027-.27h1.697zm13.737 4.06c-.632.928-1.61 1.897-2.445 2.423l-.11.069v-2.41l.136-.136.136-.136h2.412z"/></svg>