<svg xmlns="http://www.w3.org/2000/svg" width="24" height="24" fill="none" stroke="currentColor" stroke-linecap="round" stroke-linejoin="round" stroke-width="3"><path fill="#000" fill-rule="evenodd" stroke="none" d="M11 .545C8.545.82 6.602 1.602 4.805 3.037.334 6.608-.815 12.992 2.131 17.9c2.419 4.031 7.055 6.199 11.669 5.457a11.57 11.57 0 0 0 7.688-4.857c.512-.74.945-1.583 1.316-2.56.202-.531.213-.579.215-.94.001-.33-.013-.41-.106-.609-.211-.449-.654-.798-1.096-.862-.108-.016-1.385-.019-2.837-.007-2.576.022-2.647.025-2.933.111a3.58 3.58 0 0 0-2.476 2.646c-.049.206-.067.664-.086 2.181l-.025 1.92-.34.047a6 6 0 0 1-.47.05l-.13.003-.001-1.21c0-.665-.018-1.38-.04-1.587-.132-1.255-.824-2.255-1.947-2.818a3.5 3.5 0 0 0-1.283-.342c-.434-.038-.52-.068-.646-.228-.075-.096-.083-.16-.084-.67-.001-1.226-.161-1.899-.608-2.559a3.63 3.63 0 0 0-1.958-1.431c-.251-.075-.42-.09-1.184-.105-.891-.018-.892-.018-.866-.104.287-.95.928-2.111 1.591-2.881l.202-.234.066.194c.27.791.85 1.571 1.578 2.12.611.461 1.472.783 2.273.85.681.058 1.081-.059 1.442-.42.579-.579.583-1.533.009-2.099-.286-.282-.53-.387-1.05-.451-.532-.065-.796-.175-1.058-.441a2 2 0 0 1-.3-.416c-.11-.215-.117-.261-.13-.813l-.013-.585.293-.121c.887-.368 1.734-.55 2.836-.61.519-.028.72-.056.897-.122a1.496 1.496 0 0 0 .109-2.741c-.221-.113-.246-.116-.868-.121-.352-.003-.703.002-.78.01m6.44 0c-1.46.281-2.57 1.341-2.863 2.734-.03.144-.067.488-.081.765l-.027.504-.231.069c-.593.178-1.201.701-1.47 1.267-.267.562-.268.568-.268 2.616 0 2.046.001 2.055.266 2.612.223.467.655.899 1.122 1.122.582.277.416.266 4.112.266 2.672 0 3.384-.011 3.56-.054.713-.175 1.372-.701 1.674-1.334.265-.557.266-.566.266-2.612 0-2.045-.001-2.055-.265-2.61-.271-.569-.882-1.096-1.479-1.274l-.236-.071-.001-.243c-.004-1.603-.689-2.787-1.986-3.436-.479-.24-.797-.313-1.433-.327a7 7 0 0 0-.66.006m.904 3.111c.135.135.136.139.136.5v.364h-.96v-.364c0-.361.001-.365.136-.5.12-.12.161-.136.344-.136s.224.016.344.136M20.48 8.52v1h-4.96v-2h4.96zM5.338 12.65l.13.13.024.84c.015.49.049.949.082 1.101.249 1.124 1.047 2.081 2.092 2.507a4 4 0 0 0 1.232.274c.29.024.33.038.45.158l.132.132v2.326l-.35-.121a11 11 0 0 1-.91-.395c-2.241-1.096-3.966-3.287-4.499-5.712-.078-.357-.201-1.148-.201-1.297 0-.068.053-.073.844-.073h.844zm13.697 4.12a9.2 9.2 0 0 1-1.44 1.619c-.373.322-.978.771-1.04.771-.019 0-.035-.523-.035-1.184v-1.184l.136-.136.136-.136h2.411z"/></svg>