<svg xmlns="http://www.w3.org/2000/svg" width="24" height="24" fill="none" stroke="currentColor" stroke-linecap="round" stroke-linejoin="round" stroke-width="3"><path fill="#000" fill-rule="evenodd" stroke="none" d="M11.6.505c-1.646.104-2.83.37-4.14.933C3.682 3.06 1.093 6.529.578 10.66c-.136 1.087-.072 2.535.161 3.669a11.52 11.52 0 0 0 8.932 8.932c1.134.233 2.582.297 3.669.161 5.337-.666 9.416-4.745 10.082-10.082.136-1.087.072-2.535-.161-3.669A11.51 11.51 0 0 0 13.9.662c-.652-.108-1.814-.187-2.3-.157m1.82 3.12c2.316.376 4.407 1.757 5.73 3.783.465.713.874 1.66 1.086 2.514.122.493.258 1.383.221 1.443-.042.068-.696.479-.998.628a6.5 6.5 0 0 1-1.379.475c-.48.102-1.68.102-2.16 0a5.6 5.6 0 0 1-2.774-1.467C12.031 9.923 11.441 8.539 11.441 7c0-1.162.345-2.261 1.004-3.199l.199-.283.208.024c.114.014.37.051.568.083m-4.6.821A8.2 8.2 0 0 0 8.44 7c0 1.375.271 2.541.878 3.78.534 1.091 1.244 1.992 2.222 2.821.931.788 2.202 1.425 3.463 1.734 1.45.355 3.28.285 4.622-.177.125-.043.242-.078.261-.078.085 0-.4.997-.736 1.512a8.9 8.9 0 0 1-2.672 2.636c-.929.579-2.156 1.023-3.298 1.194-.591.088-1.769.088-2.36 0-1.86-.279-3.49-1.094-4.802-2.402-1.289-1.285-2.06-2.766-2.405-4.62-.102-.545-.102-2.255 0-2.8.45-2.417 1.713-4.351 3.727-5.707.426-.288 1.524-.843 1.571-.795.008.008-.033.165-.091.348"/></svg>