<svg xmlns="http://www.w3.org/2000/svg" width="24" height="24" fill="none" stroke="currentColor" stroke-linecap="round" stroke-linejoin="round" stroke-width="3"><path fill="#000" fill-rule="evenodd" stroke="none" d="M1.516.577C.656.906.276 1.832.658 2.667c.091.198.358.483 1.989 2.118L4.53 6.674l-.262.593c-.932 2.107-1.309 3.82-1.308 5.949.002 2.865.789 5.403 2.241 7.224a9.6 9.6 0 0 0 1.405 1.37c1.339 1 2.949 1.558 4.804 1.664 1.883.108 3.665-.279 5.152-1.119a7.5 7.5 0 0 0 1.577-1.202l.441-.427 1.265 1.257c1.06 1.054 1.301 1.273 1.491 1.36a1.503 1.503 0 0 0 2.006-2.011c-.095-.21-1.076-1.202-10.274-10.395C1.635-.49 2.738.551 2.042.532c-.253-.007-.431.008-.526.045M11.38.544a12 12 0 0 1-.4.08c-.73.139-1.481.472-2.302 1.021-.631.421-.997.777-1.108 1.076-.11.297-.145.618-.092.851.154.681.678 1.15 1.354 1.213.425.039.721-.069 1.228-.447.479-.357 1.076-.674 1.425-.757.302-.071.726-.078.987-.017.311.073 1.045.454 1.418.736 1.605 1.216 3.161 3.727 3.804 6.14.241.906.308 1.447.341 2.76.026 1.029.03 1.067.13 1.28.153.325.396.576.706.729.249.122.296.131.668.131.358 0 .425-.012.629-.112.302-.148.575-.429.727-.748.124-.259.124-.262.139-1.051.038-2.09-.316-3.866-1.168-5.855-1.563-3.646-4.095-6.268-6.683-6.92-.331-.084-.52-.104-1.063-.116a8 8 0 0 0-.74.006m5.021 18.095c-.072.133-.719.717-1.021.921-1.022.69-2.414 1.019-3.875.916-3.091-.218-4.936-2.162-5.446-5.736-.087-.612-.118-1.806-.064-2.482.089-1.109.263-1.836.765-3.196l.044-.118 4.815 4.815c3.801 3.801 4.809 4.829 4.782 4.88"/></svg>