<svg xmlns="http://www.w3.org/2000/svg" width="24" height="24" fill="none" stroke="currentColor" stroke-linecap="round" stroke-linejoin="round" stroke-width="3"><path fill="#000" fill-rule="evenodd" stroke="none" d="M8.48.545c-1.221.149-2.096.396-3.02.853-2.311 1.144-3.749 3.341-3.935 6.013-.054.773-.02 1.107.256 2.482.074.371.157.887.184 1.148.075.725.035.885-.415 1.667-.714 1.241-.948 1.979-1.027 3.246-.058.927.031 1.705.283 2.486.847 2.617 3.385 4.481 6.754 4.961.929.132 2.106.117 2.867-.038 1.129-.231 1.827-.594 3.073-1.601.33-.266.713-.541.852-.61.248-.123.263-.125 1.077-.158 1.814-.073 3.07-.354 4.271-.954a6.2 6.2 0 0 0 1.74-1.24c1.262-1.264 1.911-2.895 2.038-5.122.11-1.936-.26-3.492-1.099-4.618-.264-.354-.823-.897-1.246-1.209-.18-.133-.801-.525-1.38-.872-2.123-1.27-2.351-1.465-3.554-3.039-1.177-1.539-1.793-2.107-2.859-2.637-.715-.355-1.317-.542-2.2-.685C10.754.555 8.827.503 8.48.545m2.155 3.037c.7.101 1.201.271 1.645.557.511.329.706.543 1.86 2.043.853 1.108 1.686 1.883 2.782 2.586.188.121.737.455 1.22.742 1.044.622 1.309.804 1.626 1.115.284.278.508.71.619 1.195.106.464.105 1.981-.002 2.58-.304 1.708-1.142 2.726-2.645 3.213-.772.25-1.325.334-2.529.388-1.636.073-2.16.282-3.614 1.445-.731.584-1.046.776-1.497.91-1.005.299-2.796.097-4.035-.456-1.296-.578-2.162-1.469-2.45-2.52-.099-.36-.119-1.306-.039-1.771.084-.483.183-.719.624-1.484.394-.685.553-1.053.689-1.595.075-.297.088-.461.089-1.09 0-.824-.049-1.222-.281-2.26-.183-.822-.219-1.459-.118-2.063.334-1.998 1.814-3.293 4.081-3.57.352-.043 1.587-.022 1.975.035m.205 3.962c-1.248.222-2.161.688-2.945 1.505a5.7 5.7 0 0 0-.877 1.231 6.2 6.2 0 0 0-.441 1.355c-.08.445-.08 1.285 0 1.73.07.392.278 1.029.441 1.355a5.11 5.11 0 0 0 3.617 2.703c.445.08 1.285.08 1.73 0a6.2 6.2 0 0 0 1.355-.441c1.819-.914 2.927-2.876 2.757-4.879a4.3 4.3 0 0 0-.256-1.223 4.3 4.3 0 0 0-.575-1.16 5 5 0 0 0-2.288-1.851c-.647-.253-.972-.315-1.738-.33a10 10 0 0 0-.78.005m1.493 3.146c.427.203.774.55.977.977.149.312.15.315.15.833 0 .514-.002.523-.143.82-.36.752-1.007 1.168-1.817 1.168s-1.457-.416-1.817-1.168c-.141-.297-.143-.306-.143-.82 0-.518.001-.521.15-.833a2.13 2.13 0 0 1 1.25-1.093c.104-.034.322-.049.62-.043.439.009.474.016.773.159"/></svg>