<svg xmlns="http://www.w3.org/2000/svg" width="24" height="24" fill="none" stroke="currentColor" stroke-linecap="round" stroke-linejoin="round" stroke-width="3"><path fill="#000" fill-rule="evenodd" stroke="none" d="M11.18.577c-.876.169-1.583.461-2.38.984-1.184.776-2.215 1.838-3.187 3.285C4.132 7.051 3.181 9.643 3 11.965c-.192 2.469.217 4.898 1.139 6.775.889 1.809 2.15 3.089 3.841 3.898 1.315.629 2.974.93 4.61.836 3.328-.19 5.861-1.84 7.271-4.734q1.175-2.413 1.178-5.544c.002-2.007-.353-3.708-1.173-5.622-1.563-3.646-4.095-6.268-6.683-6.92-.5-.126-1.543-.167-2.003-.077m1.292 2.987c.311.073 1.045.454 1.418.736 1.23.932 2.481 2.679 3.251 4.54.687 1.662.94 3.01.886 4.72-.109 3.458-1.523 5.841-3.927 6.618-1.288.417-2.912.417-4.2 0-2.404-.777-3.818-3.16-3.927-6.618-.054-1.709.218-3.143.905-4.776a14 14 0 0 1 1.87-3.143c.796-.992 1.87-1.814 2.672-2.046.277-.08.78-.095 1.052-.031"/></svg>