<svg xmlns="http://www.w3.org/2000/svg" width="24" height="24" fill="none" stroke="currentColor" stroke-linecap="round" stroke-linejoin="round" stroke-width="3"><path fill="#000" fill-rule="evenodd" stroke="none" d="M18.516 3.577c-.08.03-.224.104-.32.164-.097.06-1.004.934-2.016 1.943l-1.841 1.835-4.879.011-4.88.01-.228.116a1.51 1.51 0 0 0-.829 1.126 1.494 1.494 0 0 0 1.287 1.7c.138.02 1.663.037 3.39.037l3.14.001-1.499 1.499-1.498 1.499-1.882.011-1.881.011-.228.116c-.93.471-1.133 1.673-.407 2.399.267.267.548.391 1.004.44l.369.04-.781.792c-.843.855-.954 1.015-1.014 1.455-.163 1.199 1.032 2.069 2.143 1.56.199-.091.482-.356 2.094-1.963l1.863-1.859 4.659-.001c2.562 0 4.77-.017 4.908-.037a1.494 1.494 0 0 0 1.287-1.7 1.51 1.51 0 0 0-.829-1.126l-.228-.116-3.399-.011-3.399-.011 1.499-1.499 1.499-1.499 1.66-.001c.913 0 1.772-.017 1.91-.037a1.494 1.494 0 0 0 1.287-1.7 1.51 1.51 0 0 0-.827-1.125c-.193-.098-.285-.117-.62-.131l-.393-.015.803-.815c.637-.645.825-.861.906-1.037a1.505 1.505 0 0 0-.698-2.003c-.198-.101-.279-.117-.608-.125-.246-.006-.431.01-.524.046"/></svg>