<svg xmlns="http://www.w3.org/2000/svg" width="24" height="24" fill="none" stroke="currentColor" stroke-linecap="round" stroke-linejoin="round" stroke-width="3"><path fill="#000" fill-rule="evenodd" stroke="none" d="M13.627 1.483c-.638.069-1.188.273-1.783.663-.295.194-1.062.943-5.428 5.31-3.22 3.22-5.153 5.182-5.271 5.35C.39 13.884.251 15.23.767 16.47c.288.692.425.848 2.97 3.396 2.548 2.552 2.522 2.53 3.029 2.612.323.053 15.062.057 15.424.004a1.494 1.494 0 0 0 1.287-1.7 1.51 1.51 0 0 0-.829-1.126l-.228-.116-2.897-.011-2.897-.011 3.02-3.029c1.8-1.805 3.096-3.137 3.208-3.295.756-1.072.896-2.423.379-3.664-.297-.714-.363-.788-3.669-4.095-1.685-1.686-3.181-3.15-3.324-3.254a3.75 3.75 0 0 0-2.613-.698m.732 3.058c.167.089 6.011 5.963 6.095 6.127.096.187.104.51.016.672-.057.107-6.387 6.465-6.46 6.49-.017.006-1.569-1.529-3.45-3.41L7.14 11l3.18-3.183c1.749-1.75 3.234-3.211 3.3-3.246.254-.136.519-.147.739-.03M8.2 16.34l3.18 3.18H7.66l-2.026-2.03c-1.115-1.117-2.058-2.093-2.096-2.169-.087-.174-.093-.504-.012-.657.056-.105 1.427-1.504 1.474-1.504.011 0 1.451 1.431 3.2 3.18"/></svg>