<svg xmlns="http://www.w3.org/2000/svg" width="24" height="24" fill="none" stroke="currentColor" stroke-linecap="round" stroke-linejoin="round" stroke-width="3"><path fill="#000" fill-rule="evenodd" stroke="none" d="M12.84 2.564a9.4 9.4 0 0 0-7.525 5.515l-.188.421-.773.02c-.756.02-.779.023-1.002.136-.93.471-1.133 1.673-.407 2.399.318.319.729.462 1.335.464l.22.001v.98l-.46.02c-.406.018-.487.034-.688.136-.93.471-1.133 1.673-.407 2.399.366.366.712.463 1.664.464l.549.001.088.21c.979 2.331 2.924 4.237 5.252 5.147 1.648.645 3.608.793 5.291.401a9.9 9.9 0 0 0 3.151-1.37c.762-.511 1.25-.938 1.397-1.221.18-.349.193-.932.029-1.303-.115-.26-.453-.603-.722-.731-.168-.08-.305-.111-.548-.125-.457-.025-.696.053-1.085.355-1.46 1.131-2.702 1.604-4.211 1.604-1.157 0-2.304-.325-3.231-.915a6.8 6.8 0 0 1-1.757-1.632l-.299-.4 2.393-.021c2.393-.02 2.394-.02 2.627-.114a1.514 1.514 0 0 0 .944-1.623 1.51 1.51 0 0 0-.829-1.126l-.228-.116-2.95-.011-2.95-.011v-.998l4.21-.001c2.316 0 4.322-.017 4.46-.037a1.494 1.494 0 0 0 1.287-1.7 1.51 1.51 0 0 0-.829-1.126l-.228-.116-3.95-.011c-2.82-.007-3.95-.023-3.95-.054 0-.024.093-.172.207-.329 1.179-1.632 3.11-2.626 5.097-2.626 1.545 0 2.816.476 4.115 1.54.395.323.651.426 1.061.427.411.001.693-.11 1-.393a1.4 1.4 0 0 0 .473-.886c.073-.538-.08-.932-.524-1.354-1.022-.969-2.648-1.811-4.114-2.129-.887-.192-2.123-.258-2.995-.161"/></svg>