<svg xmlns="http://www.w3.org/2000/svg" width="24" height="24" fill="none" stroke="currentColor" stroke-linecap="round" stroke-linejoin="round" stroke-width="3"><path fill="#000" fill-rule="evenodd" stroke="none" d="m17.72 1.519-3.14.021-.228.116a1.51 1.51 0 0 0-.829 1.126 1.494 1.494 0 0 0 1.287 1.7c.138.02.763.037 1.389.037l1.139.001-4.287 4.29c-3.827 3.829-4.298 4.315-4.393 4.522a1.503 1.503 0 0 0 2.01 2.01c.207-.095.692-.566 4.518-4.39l4.287-4.283.014 1.316c.015 1.309.016 1.316.119 1.563.247.594.76.938 1.394.938s1.145-.343 1.395-.938L22.5 9.3l.012-3.118c.012-3.304.003-3.517-.171-3.86a1.73 1.73 0 0 0-.662-.662c-.178-.091-.625-.191-.759-.17a308 308 0 0 1-3.2.029M4.44 4.547a3.56 3.56 0 0 0-2.888 2.841c-.076.398-.076 11.826 0 12.224.221 1.168 1.036 2.177 2.116 2.617.71.289.249.271 6.832.271 5.425 0 5.944-.006 6.21-.068a3.7 3.7 0 0 0 1.798-1.004c.573-.6.883-1.272.971-2.111.05-.473.053-6.165.003-6.507a1.51 1.51 0 0 0-.834-1.154c-.208-.106-.264-.116-.648-.116s-.44.01-.648.116a1.51 1.51 0 0 0-.834 1.154c-.02.138-.037 1.63-.037 3.317l-.001 3.067-.103.122a.6.6 0 0 1-.25.163c-.203.056-11.051.056-11.254 0a.6.6 0 0 1-.25-.163l-.103-.122V7.792l.136-.136.136-.136 3.074-.001c1.691 0 3.186-.017 3.324-.037a1.494 1.494 0 0 0 1.287-1.7 1.51 1.51 0 0 0-.829-1.126l-.228-.116-3.44-.005c-1.892-.003-3.485.003-3.54.012"/></svg>