<svg xmlns="http://www.w3.org/2000/svg" width="24" height="24" fill="none" stroke="currentColor" stroke-linecap="round" stroke-linejoin="round" stroke-width="3"><path fill="#000" fill-rule="evenodd" stroke="none" d="M1.516.577C.656.906.276 1.832.658 2.666c.09.197.343.469 1.812 1.942 1.455 1.46 1.698 1.72 1.648 1.765l-.415.37c-1.04.926-2.026 2.252-2.704 3.637-.413.845-.497 1.124-.494 1.64.003.476.089.763.459 1.537 1.492 3.121 4.267 5.467 7.64 6.459 2.681.789 5.565.611 8.207-.505l.392-.165 1.95 1.945c1.691 1.687 1.981 1.96 2.18 2.051a1.503 1.503 0 0 0 2.009-2.01c-.095-.21-1.076-1.202-10.274-10.395C1.635-.49 2.738.551 2.042.532c-.253-.007-.431.008-.526.045M10.8 3.563c-.47.052-.742.145-.978.337-.856.693-.745 1.983.213 2.494.275.147.583.197.985.161.457-.041 1.617-.038 1.981.005 1.101.13 2.008.39 2.981.857a9.18 9.18 0 0 1 4.241 4.12l.237.469-.233.452c-.214.416-.426.756-.919 1.475-.244.355-.325.633-.296 1.015.09 1.187 1.43 1.787 2.403 1.076.145-.107.697-.844 1.02-1.364.314-.506.806-1.503.949-1.92.147-.434.156-.98.022-1.42-.118-.386-.688-1.542-1.022-2.071a12.9 12.9 0 0 0-2.135-2.552c-1.88-1.688-4.025-2.692-6.583-3.082-.485-.074-2.355-.108-2.866-.052M7.135 9.275l.794.795-.107.268a4.5 4.5 0 0 0 1.235 5.057 4.5 4.5 0 0 0 4.605.783l.267-.107.474.472c.261.26.465.483.453.494-.072.073-1.063.3-1.676.385-.569.079-1.668.089-2.22.021a10.6 10.6 0 0 1-2.6-.691c-1.948-.819-3.616-2.381-4.592-4.3l-.227-.449.239-.47a9.3 9.3 0 0 1 1.724-2.352c.373-.373.752-.701.81-.701.015 0 .384.358.821.795"/></svg>