<svg xmlns="http://www.w3.org/2000/svg" width="24" height="24" fill="none" stroke="currentColor" stroke-linecap="round" stroke-linejoin="round" stroke-width="3"><path fill="#000" fill-rule="evenodd" stroke="none" d="M10.64 3.585c-4.192.5-7.753 2.991-9.598 6.715-.452.912-.535 1.177-.535 1.7 0 .524.083.787.539 1.709 1.589 3.207 4.506 5.546 8.014 6.425.981.246 1.869.353 2.94.353.828 0 1.329-.042 2.08-.172a12.23 12.23 0 0 0 8.874-6.606c.456-.922.539-1.185.539-1.709s-.083-.787-.539-1.709a12.2 12.2 0 0 0-4.494-4.937c-1.604-.988-3.251-1.553-5.16-1.773-.643-.074-2.023-.072-2.66.004m2.835 3.033c1.331.214 2.522.691 3.705 1.483a8.9 8.9 0 0 1 3.04 3.429l.24.47-.24.47q-1.352 2.648-4.073 4.045c-2.542 1.304-5.752 1.304-8.294 0-1.814-.931-3.169-2.277-4.073-4.044l-.24-.469.232-.46c.723-1.43 1.74-2.57 3.108-3.48a9 9 0 0 1 3.929-1.482c.559-.075 2.1-.053 2.666.038m-2.198.94c-1.471.269-2.667 1.161-3.316 2.474a5.2 5.2 0 0 0-.402 1.248c-.059.334-.059 1.106 0 1.44.361 2.054 2.013 3.583 4.057 3.756 2.473.208 4.652-1.626 4.86-4.092a4.46 4.46 0 0 0-1.343-3.596 3.8 3.8 0 0 0-1.153-.81c-.678-.332-1.061-.423-1.86-.44-.363-.007-.742.002-.843.02m1.376 3.1c.272.138.573.445.709.722.085.174.098.255.098.62 0 .384-.01.44-.116.648a1.51 1.51 0 0 1-1.126.829 1.5 1.5 0 0 1-1.562-.829c-.106-.208-.116-.264-.116-.648 0-.365.013-.446.098-.62.173-.352.515-.664.878-.803q.144-.056.526-.045c.329.009.413.026.611.126"/></svg>