<svg xmlns="http://www.w3.org/2000/svg" width="24" height="24" fill="none" stroke="currentColor" stroke-linecap="round" stroke-linejoin="round" stroke-width="3"><path fill="#000" fill-rule="evenodd" stroke="none" d="M14.02.58c-2.589.418-4.586 2.211-5.299 4.757-.152.543-.202 1.004-.228 2.111l-.025 1.068-.944.012-.944.012-.228.116c-.474.24-.763.65-.838 1.188-.023.165-.034 1.152-.027 2.369L5.5 14.3l.105.248q.253.6.847.845c.234.096.296.103 1.136.119l.889.017.011 3.386L8.5 22.3l.105.248q.25.597.847.847l.248.105h4.6l.248-.105q.597-.25.847-.847l.105-.248.012-3.39.011-3.39h.709c.766-.001 1.132-.042 1.398-.16.237-.105.591-.452.708-.696.091-.188 1.067-3.99 1.141-4.444.101-.618-.245-1.267-.833-1.566l-.226-.114-1.45-.012-1.45-.012v-.989l1.39-.014 1.39-.015.248-.104a1.52 1.52 0 0 0 .847-.846L19.5 6.3l.013-2.087c.007-1.217-.004-2.204-.027-2.369-.075-.538-.364-.948-.838-1.188L18.42.54 16.38.534c-1.503-.005-2.124.007-2.36.046m2.46 3.437v.497l-1.03.014c-.945.013-1.05.021-1.267.103-.37.137-.655.324-.968.633a1.9 1.9 0 0 0-.447.62c-.267.561-.268.57-.268 2.596v1.82l.105.248q.253.598.847.846c.244.102.266.103 1.433.119l1.185.015-.125.486-.125.486-1.12.02-1.12.02-.228.116a1.51 1.51 0 0 0-.834 1.154c-.02.138-.037 1.703-.037 3.48l-.001 3.23h-.96l-.001-3.23c0-1.777-.017-3.342-.037-3.48a1.51 1.51 0 0 0-.834-1.154l-.228-.116-.95-.013-.95-.012v-.985l.89-.018c.842-.016.904-.023 1.138-.119q.595-.246.847-.845l.104-.248.024-2c.027-2.225.023-2.191.316-2.8a3.62 3.62 0 0 1 1.801-1.726c.496-.213.746-.247 1.85-.251l.99-.003z"/></svg>