<svg xmlns="http://www.w3.org/2000/svg" width="24" height="24" fill="none" stroke="currentColor" stroke-linecap="round" stroke-linejoin="round" stroke-width="3"><path fill="#000" fill-rule="evenodd" stroke="none" d="M3.44.546A3.56 3.56 0 0 0 .552 3.388c-.076.399-.076 16.825 0 17.224.221 1.168 1.036 2.177 2.116 2.617.719.293-.04.271 9.332.271 7.775 0 8.442-.005 8.71-.068a3.7 3.7 0 0 0 1.798-1.004c.573-.6.883-1.272.971-2.111.051-.48.054-12.158.003-12.507a1.51 1.51 0 0 0-.834-1.154c-.208-.106-.264-.116-.648-.116-.378 0-.441.011-.63.108-.115.06-1.244.847-2.508 1.75a150 150 0 0 1-2.32 1.642c-.012 0-.022-.445-.023-.99 0-.545-.017-1.102-.037-1.24a1.51 1.51 0 0 0-.834-1.154c-.208-.106-.264-.116-.648-.116-.378 0-.441.011-.63.108-.115.06-1.244.847-2.508 1.75a150 150 0 0 1-2.32 1.642c-.012 0-.022-1.345-.023-2.99 0-1.693-.018-3.154-.04-3.367-.154-1.465-1.113-2.622-2.526-3.05C6.674.549 6.583.544 5.1.536a45 45 0 0 0-1.66.01m2.904 3.11.136.136v4.574c0 2.976.015 4.664.042 4.831.077.472.345.875.736 1.104.219.128.656.227.871.196.426-.06.527-.123 2.933-1.841a172 172 0 0 1 2.396-1.696c.012 0 .022.445.022.99.001 1.082.034 1.398.181 1.707.112.236.363.507.597.644.219.128.656.227.871.196.426-.06.527-.123 2.933-1.841a172 172 0 0 1 2.396-1.696c.012 0 .022 2.078.022 4.617v4.617l-.103.122a.6.6 0 0 1-.25.163c-.204.056-16.05.056-16.254 0a.6.6 0 0 1-.25-.163l-.103-.122V3.792l.136-.136.136-.136h2.416zm.172 12.921c-1.048.396-1.349 1.701-.571 2.478.353.354.721.463 1.555.463s1.202-.109 1.555-.463c.726-.726.523-1.928-.407-2.399l-.228-.116-.88-.009c-.663-.006-.916.005-1.024.046m5 0c-1.048.396-1.349 1.701-.571 2.478.353.354.721.463 1.555.463s1.202-.109 1.555-.463c.726-.726.523-1.928-.407-2.399l-.228-.116-.88-.009c-.663-.006-.916.005-1.024.046m5 0c-1.048.396-1.349 1.701-.571 2.478.353.354.721.463 1.555.463s1.202-.109 1.555-.463c.726-.726.523-1.928-.407-2.399l-.228-.116-.88-.009c-.663-.006-.916.005-1.024.046"/></svg>