<svg xmlns="http://www.w3.org/2000/svg" width="24" height="24" fill="none" stroke="currentColor" stroke-linecap="round" stroke-linejoin="round" stroke-width="3"><path fill="#000" fill-rule="evenodd" stroke="none" d="M12.2.545c-1.483.183-3.018.854-4.08 1.783C7.253 3.087 6.536 4.044 6.119 5a7.4 7.4 0 0 0-.638 3.07c-.001.402-.015.61-.043.61-.024 0-.685-.175-1.47-.389-1.313-.357-1.457-.388-1.788-.388-.31 0-.391.015-.585.109-.617.299-.848.735-1.039 1.968-.065.417-.065 1.463 0 1.92.161 1.134.587 2.29 1.174 3.189.778 1.19 2.01 2.242 3.27 2.792a7.4 7.4 0 0 0 3.07.638c.353.001.61.017.61.039 0 .02-.175.682-.389 1.47-.36 1.324-.389 1.459-.388 1.792.002.31.017.391.112.586.275.563.6.77 1.493.951 1.27.257 2.544.17 3.852-.263a7.24 7.24 0 0 0 3.03-1.91c1.414-1.479 2.127-3.238 2.129-5.254.001-.345.017-.61.038-.61s.709.181 1.53.402c1.39.375 1.514.402 1.793.387a1.43 1.43 0 0 0 1.228-.796c.288-.597.458-1.856.376-2.78-.251-2.829-1.83-5.136-4.333-6.331-1.019-.486-1.843-.676-3.081-.711-.412-.012-.75-.036-.75-.054s.175-.677.389-1.465c.36-1.324.389-1.459.388-1.792-.002-.311-.017-.391-.114-.589-.261-.535-.602-.759-1.423-.932-.433-.092-.615-.107-1.36-.118a17 17 0 0 0-1 .004m.503 3.046c-.012.038-.242.88-.511 1.87-.464 1.709-.488 1.818-.488 2.179 0 .306.017.415.086.561.214.451.538.733.987.861.374.107.645.066 1.292-.195.69-.279 1.199-.387 1.822-.387.765 0 1.394.143 2.054.468a4.6 4.6 0 0 1 2.356 2.8c.101.346.205.92.173.951-.009.009-.853-.211-1.875-.489-1.755-.477-1.88-.505-2.239-.507-.343-.002-.401.009-.6.112-.471.247-.706.528-.823.986-.098.38-.058.672.157 1.17.314.729.382 1.011.413 1.714.05 1.135-.239 2.099-.89 2.965a4.5 4.5 0 0 1-2.341 1.647c-.325.099-.939.213-.972.18-.009-.009.21-.854.487-1.877.477-1.76.504-1.88.506-2.24.001-.339-.011-.405-.114-.612a1.55 1.55 0 0 0-.734-.72c-.242-.115-.305-.127-.629-.125-.337.002-.386.013-.78.185-.824.359-1.3.453-2.145.421-.664-.025-1.09-.119-1.663-.368-1.184-.513-2.171-1.638-2.533-2.889-.099-.34-.205-.92-.174-.95.008-.008.843.209 1.855.482 2.019.546 2.3.596 2.667.479.288-.092.606-.314.768-.538.212-.293.285-.534.282-.925-.003-.312-.018-.375-.185-.76-.321-.743-.388-1.018-.419-1.725-.05-1.134.239-2.099.888-2.962q1.042-1.39 2.77-1.754c.467-.098.581-.1.552-.008m-1.187 6.986c-1.046.4-1.349 1.703-.578 2.475a1.47 1.47 0 0 0 2.124 0c.719-.719.511-1.928-.412-2.395-.195-.099-.28-.116-.608-.125q-.382-.01-.526.045"/></svg>