<svg xmlns="http://www.w3.org/2000/svg" width="24" height="24" fill="none" stroke="currentColor" stroke-linecap="round" stroke-linejoin="round" stroke-width="3"><path fill="#000" fill-rule="evenodd" stroke="none" d="M1.491 3.596c-.258.095-.387.186-.605.423-.201.218-.31.454-.365.793C.469 5.129.466 18.835.518 19.19a1.498 1.498 0 0 0 2.091 1.175c.096-.042 2.122-1.59 4.502-3.44a554 554 0 0 1 4.348-3.365c.011 0 .021 1.211.022 2.69 0 1.48.017 2.802.037 2.94a1.498 1.498 0 0 0 2.091 1.175c.191-.082 9.077-6.967 9.423-7.3.263-.255.399-.527.442-.883.059-.489-.083-.904-.424-1.233-.314-.304-9.255-7.235-9.45-7.326-.147-.068-.257-.083-.6-.082-.506.002-.691.071-1.021.384a1.47 1.47 0 0 0-.457.878c-.026.16-.042 1.276-.042 2.947 0 1.479-.01 2.69-.021 2.69s-1.97-1.515-4.35-3.367C4.728 5.222 2.699 3.67 2.6 3.626c-.264-.119-.829-.134-1.109-.03M8.52 12c0 .016-1.125.904-2.5 1.973l-2.5 1.945V8.082l2.5 1.945c1.375 1.069 2.5 1.957 2.5 1.973m11 0c0 .016-1.125.904-2.5 1.973l-2.5 1.945V8.082l2.5 1.945c1.375 1.069 2.5 1.957 2.5 1.973"/></svg>