<svg xmlns="http://www.w3.org/2000/svg" width="24" height="24" fill="none" stroke="currentColor" stroke-linecap="round" stroke-linejoin="round" stroke-width="3"><path fill="#000" fill-rule="evenodd" stroke="none" d="M15.5.524a7.47 7.47 0 0 0-4.027 1.482c-.379.281-6.959 6.817-7.262 7.214-.237.31-.504.874-.618 1.302-.09.338-.09.343-.1 4.095l-.011 3.756-1.36 1.368C.972 20.896.745 21.143.657 21.336a1.502 1.502 0 0 0 2.007 2.007c.193-.088.44-.315 1.595-1.465l1.368-1.36 3.756-.011c3.744-.01 3.758-.01 4.093-.099a4.1 4.1 0 0 0 1.278-.605c.368-.273 6.806-6.738 7.136-7.165 1.601-2.073 2.029-4.742 1.152-7.195C21.922 2.307 18.869.316 15.5.524m1.06 3.017c.918.085 1.929.582 2.631 1.295a4.5 4.5 0 0 1 1.157 2.024c.104.374.112.448.109 1.14-.002.672-.013.777-.11 1.139a4.9 4.9 0 0 1-.739 1.524c-.13.174-.802.889-1.493 1.589l-1.255 1.271-2.119-.001-2.118-.002 2.306-2.311c2.019-2.022 2.32-2.339 2.413-2.541.354-.775.06-1.631-.694-2.012-.208-.106-.264-.116-.648-.116-.719 0-.292-.371-5.19 4.517l-4.29 4.281V11.1l3.31-3.304c3.551-3.545 3.566-3.558 4.313-3.899.414-.189.96-.332 1.424-.373.366-.032.471-.031.993.017m-3.161 13.44c-.323.324-.5.472-.599.5-.082.023-.972.039-2.159.039h-2.02l.499-.5.499-.5h4.24z"/></svg>