<svg xmlns="http://www.w3.org/2000/svg" width="24" height="24" fill="none" stroke="currentColor" stroke-linecap="round" stroke-linejoin="round" stroke-width="3"><path fill="#000" fill-rule="evenodd" stroke="none" d="M3.516 1.577c-.314.12-.537.313-1.617 1.397C.668 4.21.598 4.303.52 4.82c-.029.192-.039 2.693-.031 7.96L.5 20.46l.112.332c.214.631.68 1.172 1.248 1.449.461.225.619.248 1.87.269 1.688.028 2.11-.042 2.707-.448.481-.327.838-.834.981-1.395.032-.128.071-.438.086-.69l.028-.457h.936l.027.482c.036.625.154 1.01.439 1.429.235.346.564.634.926.81.461.225.619.248 1.87.269 1.688.028 2.11-.042 2.707-.448.481-.327.838-.834.981-1.395.032-.128.071-.438.086-.69l.028-.457h.936l.027.482c.036.625.154 1.01.439 1.429.335.493.823.834 1.426.998.225.062.445.071 1.64.071s1.415-.009 1.64-.071a2.47 2.47 0 0 0 1.423-.993c.243-.357.364-.694.418-1.159.054-.474.052-15.132-.003-15.477-.079-.503-.15-.596-1.416-1.862C20.67 1.546 20.661 1.54 20 1.54s-.67.006-2.062 1.398c-1.266 1.266-1.337 1.359-1.416 1.862a9 9 0 0 0-.042.99v.73h-.96v-.73c0-.401-.019-.847-.042-.99-.079-.503-.15-.596-1.416-1.862C12.67 1.546 12.661 1.54 12 1.54s-.67.006-2.062 1.398C8.672 4.204 8.601 4.297 8.522 4.8a9 9 0 0 0-.042.99v.73h-.96v-.73c0-.401-.019-.847-.042-.99-.079-.503-.15-.596-1.416-1.862-1.368-1.368-1.399-1.389-2.02-1.406-.253-.007-.431.008-.526.045m.733 3.812.231.228V19.52h-.96V5.622l.229-.231a2 2 0 0 1 .249-.231c.011 0 .124.103.251.229m8 0 .231.228V19.52h-.96V5.622l.229-.231a2 2 0 0 1 .249-.231c.011 0 .124.103.251.229m8 0 .231.228V19.52h-.96V5.622l.229-.231a2 2 0 0 1 .249-.231c.011 0 .124.103.251.229M8.48 13.02v3.5h-.96v-7h.96zm8 0v3.5h-.96v-7h.96z"/></svg>