<svg xmlns="http://www.w3.org/2000/svg" width="24" height="24" fill="none" stroke="currentColor" stroke-linecap="round" stroke-linejoin="round" stroke-width="3"><path fill="#000" fill-rule="evenodd" stroke="none" d="M9.78.523C7.808.544 7.682.55 7.36.633a5.5 5.5 0 0 0-1.954.943c-.505.389-1.084 1.1-1.388 1.704a6.2 6.2 0 0 0-.441 1.355c-.08.445-.08 1.285 0 1.73.159.888.62 1.837 1.197 2.465L4.93 9l-.156.17c-.577.628-1.038 1.577-1.197 2.465-.08.445-.08 1.285 0 1.73.159.888.62 1.837 1.197 2.465l.156.17-.156.17c-.577.628-1.038 1.577-1.197 2.465-.08.445-.08 1.285 0 1.73a5.05 5.05 0 0 0 1.413 2.682c.329.324.826.699 1.139.857l.188.096h4.366l.188-.096c.313-.158.81-.533 1.139-.857.861-.848 1.361-1.926 1.469-3.167.022-.253.04-.978.041-1.61 0-.633.014-1.15.03-1.15.017 0 .19.054.385.121.508.172.966.244 1.565.244 1.097 0 2.053-.31 2.952-.956.578-.416 1.199-1.149 1.525-1.8.473-.946.636-2.201.42-3.246-.166-.804-.635-1.73-1.171-2.313L19.07 9l.156-.17c.882-.959 1.364-2.396 1.251-3.727a4.3 4.3 0 0 0-.256-1.223 4.3 4.3 0 0 0-.575-1.16C18.968 1.694 17.901.954 16.64.635c-.289-.073-.483-.088-1.3-.1A195 195 0 0 0 9.78.523m.7 4.977v1.98H9.304c-1.043 0-1.205-.009-1.42-.076-.504-.157-.949-.559-1.201-1.084-.141-.297-.143-.306-.143-.82 0-.518.001-.521.15-.833a2.12 2.12 0 0 1 1.25-1.091c.114-.036.505-.051 1.35-.053l1.19-.003zm5.853-1.81c.427.203.774.55.977.977.149.312.15.315.15.833 0 .514-.002.523-.143.82-.253.527-.697.927-1.205 1.086-.212.065-.422.081-1.42.102l-1.172.025V3.516l1.25.012 1.25.012zM10.48 12.5v1.98H9.304c-1.043 0-1.205-.009-1.42-.076-.504-.157-.949-.559-1.201-1.084-.141-.297-.143-.306-.143-.82 0-.518.001-.521.15-.833a2.12 2.12 0 0 1 1.25-1.091c.114-.036.505-.051 1.35-.053l1.19-.003zm5.853-1.81c.427.203.774.55.977.977.149.312.15.315.15.833 0 .514-.002.523-.143.82-.36.752-1.007 1.168-1.817 1.168s-1.457-.416-1.817-1.168c-.141-.297-.143-.306-.143-.82 0-.518.001-.521.15-.833a2.13 2.13 0 0 1 1.25-1.093c.104-.034.322-.049.62-.043.439.009.474.016.773.159m-5.861 8.08-.012 1.25-.143.3c-.36.752-1.007 1.168-1.817 1.168s-1.457-.416-1.817-1.168c-.141-.297-.143-.306-.143-.82 0-.518.001-.521.15-.833a2.12 2.12 0 0 1 1.25-1.091c.114-.036.506-.051 1.352-.053l1.192-.003z"/></svg>