<svg xmlns="http://www.w3.org/2000/svg" width="24" height="24" fill="none" stroke="currentColor" stroke-linecap="round" stroke-linejoin="round" stroke-width="3"><path fill="#000" fill-rule="evenodd" stroke="none" d="m9.6.521-4.26.02-.293.091c-1.301.4-2.247 1.446-2.495 2.756-.037.193-.052.726-.052 1.832 0 1.54.001 1.563.093 1.79.175.433.555.803.945.92.209.062.715.062.924 0 .391-.117.773-.49.943-.92.087-.221.092-.292.113-1.743l.022-1.514.131-.116.13-.117h6.67l.02 1.47c.015 1.112.035 1.534.081 1.731.264 1.139 1.05 2.081 2.092 2.506.599.244.728.26 2.346.282l1.47.02v10.679l-.132.132a.5.5 0 0 1-.31.158c-.098.014-2.879.02-6.18.014L5.857 20.5l-.279-.189c-.511-.348-1.052-.397-1.567-.143-.929.457-1.111 1.73-.347 2.429.435.397.904.648 1.516.808l.36.095h6.44c5.914 0 6.464-.006 6.73-.068a3.7 3.7 0 0 0 1.798-1.004c.573-.6.883-1.272.971-2.111.055-.524.054-13.168-.001-13.517-.086-.542-.021-.467-2.896-3.344C15.88.752 15.764.647 15.383.561 15.133.505 14.215.498 9.6.521m7.15 5.991c-.799.016-.931-.005-1.098-.172l-.132-.132V4.661l.92.919.921.92zM4.169 8.842c-.413.082-.827.419-1.024.834-.108.228-.126.312-.131.616l-.006.351-.197.197c-.196.196-.199.198-.4.174-.58-.069-1.195.294-1.467.866-.11.231-.124.3-.124.62 0 .321.014.389.127.628.111.234.448.632.535.632.015 0 .025.106.023.236-.005.224-.013.243-.157.358-.201.16-.289.275-.419.554-.093.199-.109.284-.109.592 0 .32.014.389.124.62.161.338.399.577.73.734.23.109.313.127.615.132l.349.006.185.185.185.185.006.349c.005.302.023.385.132.615.157.331.396.569.734.73.231.11.3.124.62.124.319 0 .389-.014.62-.123.225-.107.64-.455.64-.537 0-.015.108-.027.24-.027s.24.012.24.027c0 .086.4.423.632.533.239.113.307.127.628.127.32 0 .389-.014.62-.124.564-.268.905-.828.874-1.436l-.013-.248.191-.19.19-.19.349-.006c.3-.005.385-.023.609-.13a1.48 1.48 0 0 0 .695-2.056 1.2 1.2 0 0 0-.375-.456c-.129-.107-.14-.133-.145-.35-.002-.129.008-.234.024-.234.015 0 .113-.084.217-.187a1.48 1.48 0 0 0 .315-1.701c-.264-.562-.885-.926-1.462-.858-.201.024-.204.023-.405-.179l-.203-.203.013-.25a1.5 1.5 0 0 0-.439-1.134 1.494 1.494 0 0 0-2.128.016c-.103.104-.187.204-.187.223 0 .018-.108.033-.24.033s-.24-.015-.24-.033c0-.066-.376-.414-.536-.496a1.57 1.57 0 0 0-1.055-.149m2.484 3.816c.272.138.573.445.709.722.085.174.098.255.098.62 0 .384-.01.44-.116.648a1.5 1.5 0 0 1-1.562.829 1.51 1.51 0 0 1-1.126-.829c-.106-.208-.116-.264-.116-.648 0-.365.013-.446.098-.62.173-.352.515-.664.878-.803q.144-.056.526-.045c.329.009.413.026.611.126"/></svg>