<svg xmlns="http://www.w3.org/2000/svg" width="24" height="24" fill="none" stroke="currentColor" stroke-linecap="round" stroke-linejoin="round" stroke-width="3"><path fill="#000" fill-rule="evenodd" stroke="none" d="M5.44.547a3.56 3.56 0 0 0-2.888 2.841c-.076.399-.076 16.825 0 17.224.221 1.168 1.036 2.177 2.116 2.617.712.29.191.271 7.332.271 5.895 0 6.444-.006 6.71-.068 1.52-.356 2.611-1.571 2.764-3.079.019-.186.021-.44.004-.564a1.51 1.51 0 0 0-.83-1.133c-.208-.106-.264-.116-.648-.116s-.44.01-.648.116c-.294.149-.577.428-.699.692a2.4 2.4 0 0 0-.147.549c-.056.386-.142.516-.383.583-.2.055-12.05.054-12.25-.001a.6.6 0 0 1-.25-.163l-.103-.122V3.792l.136-.136.136-.136h8.581l1.369 1.36c1.152 1.146 1.404 1.376 1.595 1.464a1.503 1.503 0 0 0 2.007-2.007c-.086-.187-.298-.421-1.234-1.366C16.339 1.183 16.053.953 15.249.675L14.86.54 10.2.535C7.637.532 5.495.538 5.44.547M19.3 7.546a4 4 0 0 0-1.534.639c-.356.25-4.621 4.514-4.835 4.835-.355.532-.407.672-.988 2.666-.431 1.482-.473 1.682-.422 2.042.135.949.806 1.621 1.75 1.751.354.049.599-.004 2.209-.475 1.669-.488 1.735-.51 2.043-.665.495-.251.739-.472 2.923-2.655 2.397-2.395 2.507-2.522 2.783-3.204.79-1.953-.245-4.144-2.269-4.806-.342-.111-.438-.125-.96-.135a7 7 0 0 0-.7.007m.89 3.054c.191.116.29.302.29.546 0 .18-.02.232-.153.4-.085.107-1.049 1.076-2.143 2.154l-1.988 1.96-.481.147c-.264.081-.536.16-.603.175-.144.031-.15.086.077-.702l.144-.5 1.963-1.974c1.08-1.086 2.051-2.045 2.158-2.13.168-.136.22-.156.4-.156.135 0 .251.028.336.08M7.516 16.577c-1.048.396-1.349 1.701-.571 2.478.353.354.721.463 1.555.463s1.202-.109 1.555-.463c.726-.726.523-1.928-.407-2.399l-.228-.116-.88-.009c-.663-.006-.916.005-1.024.046"/></svg>