<svg xmlns="http://www.w3.org/2000/svg" width="24" height="24" fill="none" stroke="currentColor" stroke-linecap="round" stroke-linejoin="round" stroke-width="3"><path fill="#000" fill-rule="evenodd" stroke="none" d="m9.6.521-4.26.02-.293.091c-1.301.4-2.247 1.446-2.495 2.756-.039.202-.052.866-.052 2.592V8.3l.105.248c.25.595.761.938 1.395.938s1.145-.343 1.395-.938L5.5 8.3l.02-2.273.02-2.274.131-.116.13-.117h6.67l.02 1.47c.015 1.112.035 1.534.081 1.731.264 1.139 1.05 2.081 2.092 2.506.599.244.728.26 2.346.282l1.47.02v10.665l-.103.122a.6.6 0 0 1-.25.163c-.09.025-.871.041-2.035.041-1.813 0-1.898.003-2.111.083-1.089.408-1.322 1.841-.414 2.558.106.084.296.195.423.246l.23.093 2.1-.001c1.823 0 2.138-.009 2.39-.067a3.7 3.7 0 0 0 1.798-1.004c.573-.6.883-1.272.971-2.111.055-.524.054-13.168-.001-13.517-.086-.542-.021-.467-2.896-3.344C15.88.752 15.764.647 15.383.561 15.133.505 14.215.498 9.6.521m7.15 5.991c-.799.016-.931-.005-1.098-.172l-.132-.132V4.661l.92.919.921.92zM6.46 9.562a3.9 3.9 0 0 0-1.019.318c-.272.137-3.035 1.819-3.421 2.082a3.59 3.59 0 0 0-1.468 2.266c-.038.2-.052.81-.051 2.312.002 2.262.005 2.305.27 2.95.176.43.373.731.708 1.084.348.365.499.467 2.39 1.6 1.65.988 1.949 1.134 2.552 1.248a3.36 3.36 0 0 0 1.741-.135c.348-.121.476-.193 2.234-1.261 1.405-.854 1.706-1.053 1.984-1.315a3.63 3.63 0 0 0 1.053-1.845c.057-.247.066-.567.066-2.366-.001-1.801-.01-2.119-.068-2.37a4.3 4.3 0 0 0-.487-1.182 4 4 0 0 0-.964-.987c-.486-.325-3.37-2.041-3.61-2.147-.517-.229-1.351-.339-1.91-.252m1.759 3.622c.61.365 1.094.678 1.075.696-.058.053-2.261 1.36-2.294 1.36s-2.237-1.307-2.295-1.361c-.039-.037.003-.065 1.228-.806.683-.414.947-.553 1.045-.553.099 0 .406.164 1.241.664M4.63 17.337l.85.505v1.795l-.898-.54c-.494-.297-.935-.586-.98-.644-.077-.097-.082-.158-.082-.942v-.838l.13.08zm5.85.182v.84l-.11.12c-.085.094-1.773 1.161-1.836 1.161-.008 0-.014-.405-.014-.899v-.899l.97-.579c.534-.319.975-.581.98-.581.006-.001.01.376.01.837"/></svg>