<svg xmlns="http://www.w3.org/2000/svg" width="24" height="24" fill="none" stroke="currentColor" stroke-linecap="round" stroke-linejoin="round" stroke-width="3"><path fill="#000" fill-rule="evenodd" stroke="none" d="m9.6.521-4.26.02-.293.091c-1.301.4-2.247 1.446-2.495 2.756-.039.202-.052.866-.052 2.592V8.3l.105.248c.25.595.761.938 1.395.938s1.145-.343 1.395-.938L5.5 8.3l.02-2.273.02-2.274.131-.116.13-.117h6.67l.02 1.47c.015 1.112.035 1.534.081 1.731.264 1.139 1.05 2.081 2.092 2.506.599.244.728.26 2.346.282l1.47.02v10.66l-.083.106a.7.7 0 0 1-.17.155c-.068.039-1.666.054-7.367.07l-7.28.02-.228.116c-.93.471-1.133 1.673-.407 2.399.239.239.53.38.889.43.166.022 3.096.032 7.449.024 6.518-.011 7.202-.018 7.447-.079.682-.167 1.328-.531 1.778-1.002.573-.6.883-1.272.971-2.111.055-.524.054-13.168-.001-13.517-.086-.542-.021-.467-2.896-3.344C15.88.752 15.764.647 15.383.561 15.133.505 14.215.498 9.6.521m7.15 5.991c-.799.016-.931-.005-1.098-.172l-.132-.132V4.661l.92.919.921.92zM2.614 11.057c-.623.151-1.1.772-1.101 1.432 0 .565.11.742 1.06 1.701l.803.81-.807.813c-.648.653-.827.858-.91 1.038a1.5 1.5 0 0 0-.005 1.287c.115.252.421.578.65.693.482.242 1.107.207 1.528-.086.081-.057.489-.445.907-.863l.759-.76.821.814c.451.447.884.846.961.885.447.228.996.229 1.436.001.214-.111.519-.442.63-.684a1.51 1.51 0 0 0-.002-1.281c-.086-.188-.256-.382-.913-1.044L7.624 15l.803-.81c.441-.445.833-.871.871-.945.29-.567.244-1.183-.124-1.665-.455-.595-1.343-.75-1.963-.341-.127.084-.564.487-.97.896l-.739.744-.801-.794c-.441-.437-.882-.84-.981-.896a1.52 1.52 0 0 0-1.106-.132"/></svg>