<svg xmlns="http://www.w3.org/2000/svg" width="24" height="24" fill="none" stroke="currentColor" stroke-linecap="round" stroke-linejoin="round" stroke-width="3"><path fill="#000" fill-rule="evenodd" stroke="none" d="M5.44.547a3.56 3.56 0 0 0-2.888 2.841C2.511 3.6 2.5 4.659 2.5 8.18v4.52l.105.248c.25.595.761.938 1.395.938s1.145-.343 1.395-.938L5.5 12.7l.02-4.473.02-4.474.131-.116.13-.117H13.9l2.29 2.29 2.29 2.29v12.094l-.103.122a.6.6 0 0 1-.25.163c-.095.026-1.507.041-4.035.041-3.836 0-3.892.001-4.111.083-1.089.408-1.322 1.841-.414 2.558.106.084.296.195.423.246l.23.093h4.1c3.714 0 4.127-.006 4.39-.068a3.7 3.7 0 0 0 1.798-1.004c.573-.6.883-1.272.971-2.111.051-.481.054-12.638.003-12.987-.081-.562.033-.432-3.174-3.638C15.694 1.078 15.354.751 15.14.652L14.9.54 10.22.535C7.646.533 5.495.538 5.44.547m6.246 7.63c-2.185.359-4.048.674-4.14.701-.525.155-.931.632-1.024 1.208-.025.151-.042 1.098-.042 2.339v2.085l-.57.021c-.413.015-.651.044-.863.106-1.269.369-2.254 1.449-2.488 2.727-.06.328-.06.944 0 1.272a3.56 3.56 0 0 0 2.109 2.593c.451.184.832.258 1.332.258a3.4 3.4 0 0 0 1.971-.604c.861-.595 1.386-1.481 1.507-2.543.025-.217.041-1.635.042-3.57 0-2.541.01-3.21.05-3.21.06 0 4.69-.75 4.82-.78l.09-.022v1.752l-.57.021c-.413.015-.651.044-.863.106-1.269.369-2.254 1.449-2.488 2.727-.06.328-.06.944 0 1.272a3.56 3.56 0 0 0 2.109 2.593c.451.184.832.258 1.332.258.933 0 1.747-.328 2.428-.979.593-.567.952-1.308 1.05-2.168.025-.22.041-1.729.041-3.88 0-3.815-.001-3.832-.218-4.203a1.7 1.7 0 0 0-.655-.602c-.431-.218-.479-.213-4.96.522m2.658 7.479c.119.119.136.162.136.337 0 .242-.129.424-.343.483a.5.5 0 0 1-.514-.16c-.081-.096-.103-.166-.103-.323 0-.175.017-.218.136-.337s.161-.136.344-.136.224.016.344.136m-8 2c.119.119.136.162.136.337 0 .242-.129.424-.343.483a.5.5 0 0 1-.514-.16c-.081-.096-.103-.166-.103-.323 0-.175.017-.218.136-.337s.161-.136.344-.136.224.016.344.136"/></svg>