<svg xmlns="http://www.w3.org/2000/svg" width="24" height="24" fill="none" stroke="currentColor" stroke-linecap="round" stroke-linejoin="round" stroke-width="3"><path fill="#000" fill-rule="evenodd" stroke="none" d="m9.6.521-4.26.02-.293.091c-1.301.4-2.247 1.446-2.495 2.756-.076.399-.076 16.825 0 17.224.221 1.168 1.036 2.177 2.116 2.617.712.29.191.271 7.332.271 5.895 0 6.444-.006 6.71-.068a3.7 3.7 0 0 0 1.798-1.004c.573-.6.883-1.272.971-2.111.055-.524.054-13.168-.001-13.517-.086-.542-.021-.467-2.896-3.344C15.88.752 15.764.647 15.383.561 15.133.505 14.215.498 9.6.521m2.891 4.469c.015 1.112.035 1.534.081 1.731.264 1.139 1.05 2.081 2.092 2.506.599.244.728.26 2.346.282l1.47.02v10.665l-.103.122a.6.6 0 0 1-.25.163c-.204.056-12.05.056-12.254 0a.6.6 0 0 1-.25-.163l-.103-.122V3.792l.136-.136.136-.136h6.679zm4.259 1.522c-.799.016-.931-.005-1.098-.172l-.132-.132V4.661l.92.919.921.92zm-2.234 5.065c-.317.12-.553.33-2.004 1.775l-1.508 1.502-.553-.537c-.723-.702-.863-.777-1.451-.777-.384 0-.44.01-.648.116-.754.381-1.048 1.237-.694 2.012.09.195.286.411 1.275 1.399.988.989 1.204 1.185 1.399 1.275.432.197.903.197 1.336 0 .203-.093.499-.373 2.4-2.274s2.181-2.197 2.274-2.4c.354-.776.06-1.63-.694-2.012-.198-.101-.279-.117-.608-.125-.246-.006-.431.01-.524.046"/></svg>