<svg xmlns="http://www.w3.org/2000/svg" width="24" height="24" fill="none" stroke="currentColor" stroke-linecap="round" stroke-linejoin="round" stroke-width="3"><path fill="#000" fill-rule="evenodd" stroke="none" d="m9.6.521-4.26.02-.293.091c-1.301.4-2.247 1.446-2.495 2.756-.076.399-.076 16.825 0 17.224.221 1.168 1.036 2.177 2.116 2.617.712.29.191.271 7.332.271 5.895 0 6.444-.006 6.71-.068a3.7 3.7 0 0 0 1.798-1.004c.573-.6.883-1.272.971-2.111.055-.524.054-13.168-.001-13.517-.086-.542-.021-.467-2.896-3.344C15.88.752 15.764.647 15.383.561 15.133.505 14.215.498 9.6.521m2.891 4.469c.015 1.112.035 1.534.081 1.731.264 1.139 1.05 2.081 2.092 2.506.599.244.728.26 2.346.282l1.47.02v10.665l-.103.122a.6.6 0 0 1-.25.163c-.204.056-12.05.056-12.254 0a.6.6 0 0 1-.25-.163l-.103-.122V3.792l.136-.136.136-.136h6.679zm4.259 1.522c-.799.016-.931-.005-1.098-.172l-.132-.132V4.661l.92.919.921.92zm-5.234 4.065a1.54 1.54 0 0 0-.998 1.233c-.02.138-.037.76-.037 1.383l-.001 1.134-.301-.278a3 3 0 0 0-.53-.393c-.209-.106-.265-.116-.649-.116s-.44.01-.648.116c-.754.382-1.048 1.237-.693 2.012.092.201.329.455 1.773 1.898 1.281 1.279 1.716 1.69 1.874 1.768a1.6 1.6 0 0 0 1.388 0c.158-.078.593-.489 1.874-1.768 1.444-1.443 1.681-1.697 1.773-1.898.355-.775.061-1.63-.693-2.012-.208-.106-.264-.116-.648-.116s-.44.01-.649.116a3 3 0 0 0-.53.393l-.301.278-.001-1.134c0-.623-.017-1.245-.037-1.383a1.51 1.51 0 0 0-.832-1.153c-.195-.099-.28-.116-.608-.125q-.382-.01-.526.045"/></svg>