<svg xmlns="http://www.w3.org/2000/svg" width="24" height="24" fill="none" stroke="currentColor" stroke-linecap="round" stroke-linejoin="round" stroke-width="3"><path fill="#000" fill-rule="evenodd" stroke="none" d="m9.6.521-4.26.02-.293.091c-1.301.4-2.247 1.446-2.495 2.756-.076.399-.076 16.825 0 17.224.221 1.168 1.036 2.177 2.116 2.617.712.29.191.271 7.332.271 5.895 0 6.444-.006 6.71-.068a3.7 3.7 0 0 0 1.798-1.004c.573-.6.883-1.272.971-2.111.055-.524.054-13.168-.001-13.517-.086-.542-.021-.467-2.896-3.344C15.88.752 15.764.647 15.383.561 15.133.505 14.215.498 9.6.521m2.891 4.469c.015 1.112.035 1.534.081 1.731.264 1.139 1.05 2.081 2.092 2.506.599.244.728.26 2.346.282l1.47.02v10.665l-.103.122a.6.6 0 0 1-.25.163c-.204.056-12.05.056-12.254 0a.6.6 0 0 1-.25-.163l-.103-.122V3.792l.136-.136.136-.136h6.679zm4.259 1.522c-.799.016-.931-.005-1.098-.172l-.132-.132V4.661l.92.919.921.92zm-6.03 4.07c-1.637.35-2.899 1.648-3.164 3.252a5.3 5.3 0 0 0 0 1.332c.235 1.426 1.306 2.669 2.698 3.13a3.7 3.7 0 0 0 1.246.191 3.6 3.6 0 0 0 1.238-.19l.306-.103.544.528c.587.57.794.701 1.194.755a1.493 1.493 0 0 0 1.695-1.695c-.054-.4-.185-.607-.755-1.194l-.528-.544.103-.306a3.6 3.6 0 0 0 .19-1.238 3.7 3.7 0 0 0-.191-1.246 4.01 4.01 0 0 0-3.024-2.67c-.38-.079-1.189-.08-1.552-.002m1.303 3.08c.283.174.431.432.451.784.013.237 0 .305-.095.499-.349.713-1.379.724-1.748.018a.98.98 0 0 1 .418-1.341c.181-.092.251-.105.495-.094.232.011.319.035.479.134"/></svg>