<svg xmlns="http://www.w3.org/2000/svg" width="24" height="24" fill="none" stroke="currentColor" stroke-linecap="round" stroke-linejoin="round" stroke-width="3"><path fill="#000" fill-rule="evenodd" stroke="none" d="m9.6.521-4.26.02-.293.091c-1.301.4-2.247 1.446-2.495 2.756-.076.399-.076 16.825 0 17.224.221 1.168 1.036 2.177 2.116 2.617.712.29.191.271 7.332.271 5.895 0 6.444-.006 6.71-.068a3.7 3.7 0 0 0 1.798-1.004c.573-.6.883-1.272.971-2.111.055-.524.054-13.168-.001-13.517-.086-.542-.021-.467-2.896-3.344C15.88.752 15.764.647 15.383.561 15.133.505 14.215.498 9.6.521m2.891 4.469c.015 1.112.035 1.534.081 1.731.264 1.139 1.05 2.081 2.092 2.506.599.244.728.26 2.346.282l1.47.02v10.665l-.103.122a.6.6 0 0 1-.25.163c-.204.056-12.05.056-12.254 0a.6.6 0 0 1-.25-.163l-.103-.122V3.792l.136-.136.136-.136h6.679zm4.259 1.522c-.799.016-.931-.005-1.098-.172l-.132-.132V4.661l.92.919.921.92zM9.516 9.579a1.53 1.53 0 0 0-1.001 1.259c-.023.162-.033 1.54-.026 3.349.011 2.751.02 3.094.08 3.269.144.42.472.763.9.939.28.115.738.129 1.002.031.318-.118 5.416-3.205 5.601-3.392a1.49 1.49 0 0 0 .002-2.066c-.2-.206-5.348-3.31-5.628-3.394-.225-.068-.74-.065-.93.005m2.281 4.246c.134.079.243.158.243.175 0 .027-.46.32-.503.32-.009 0-.017-.144-.017-.32s.008-.32.017-.32.127.065.26.145"/></svg>