<svg xmlns="http://www.w3.org/2000/svg" width="24" height="24" fill="none" stroke="currentColor" stroke-linecap="round" stroke-linejoin="round" stroke-width="3"><path fill="#000" fill-rule="evenodd" stroke="none" d="m9.6.521-4.26.02-.293.091c-1.301.4-2.247 1.446-2.495 2.756-.04.208-.052 1.05-.052 3.592v3.32l.105.248c.25.595.761.938 1.395.938s1.145-.343 1.395-.938L5.5 10.3l.02-3.273.02-3.274.131-.116.13-.117h6.67l.02 1.47c.015 1.112.035 1.534.081 1.731.264 1.139 1.05 2.081 2.092 2.506.599.244.728.26 2.346.282l1.47.02v10.66l-.083.106a.7.7 0 0 1-.17.155c-.068.039-1.666.054-7.367.07l-7.28.02-.228.116c-.93.471-1.133 1.673-.407 2.399.239.239.53.38.889.43.166.022 3.096.032 7.449.024 6.518-.011 7.202-.018 7.447-.079.682-.167 1.328-.531 1.778-1.002.573-.6.883-1.272.971-2.111.055-.524.054-13.168-.001-13.517-.086-.542-.021-.467-2.896-3.344C15.88.752 15.764.647 15.383.561 15.133.505 14.215.498 9.6.521m7.15 5.991c-.799.016-.931-.005-1.098-.172l-.132-.132V4.661l.92.919.921.92zM9.516 8.577c-.08.03-.224.104-.32.164-.097.06-1.043.973-2.102 2.029l-1.926 1.92-.294-.075c-.446-.114-1.383-.106-1.806.016-1.287.371-2.274 1.445-2.509 2.733-.06.328-.06.944 0 1.272a3.56 3.56 0 0 0 2.109 2.593c.451.184.832.258 1.332.258.933 0 1.747-.328 2.428-.979a3.51 3.51 0 0 0 .947-3.421l-.068-.253.853-.854.854-.855.113.094c.324.273.979.351 1.428.169.387-.156.677-.446.833-.833.183-.454.104-1.104-.175-1.436l-.1-.119.1-.119c.271-.322.355-.962.186-1.414q-.197-.528-.759-.815c-.189-.096-.273-.113-.6-.121-.246-.006-.431.01-.524.046m-5.172 7.079c.119.119.136.162.136.337 0 .157-.022.227-.103.323a.5.5 0 0 1-.514.16c-.214-.059-.343-.241-.343-.483 0-.175.017-.218.136-.337s.161-.136.344-.136.224.016.344.136"/></svg>