<svg xmlns="http://www.w3.org/2000/svg" width="24" height="24" fill="none" stroke="currentColor" stroke-linecap="round" stroke-linejoin="round" stroke-width="3"><path fill="#000" fill-rule="evenodd" stroke="none" d="m9.6.521-4.26.02-.293.091c-1.301.4-2.247 1.446-2.495 2.756-.038.197-.052.774-.052 2.092V7.3l.105.248c.25.595.761.938 1.395.938s1.146-.344 1.395-.938l.104-.248.021-1.773.02-1.774.131-.116.13-.117h6.67l.02 1.47c.015 1.112.035 1.534.081 1.731.264 1.139 1.05 2.081 2.092 2.506.599.244.728.26 2.346.282l1.47.02v10.665l-.103.122c-.132.158-.309.204-.785.204-.459 0-.728.083-1.022.316-.915.724-.684 2.135.42 2.568.204.08.299.09.83.089.39-.002.702-.025.89-.066a3.63 3.63 0 0 0 1.798-.999c.573-.6.883-1.272.971-2.111.055-.524.054-13.168-.001-13.517-.086-.542-.021-.467-2.896-3.344C15.88.752 15.764.647 15.383.561 15.133.505 14.215.498 9.6.521m7.15 5.991c-.799.016-.931-.005-1.098-.172l-.132-.132V4.661l.92.919.921.92zM7.02 8.564a7.55 7.55 0 0 0-4.315 2.142C1.395 12.013.655 13.65.517 15.548c-.067.924-.027 4.834.053 5.173.327 1.376 1.377 2.421 2.72 2.705a4.3 4.3 0 0 0 1.42 0 3.53 3.53 0 0 0 2.649-2.462c.212-.712.212-2.216 0-2.928a3.46 3.46 0 0 0-1.826-2.17c-.469-.235-.798-.312-1.44-.335l-.566-.021.02-.145c.087-.613.46-1.536.811-2.005.228-.304.652-.732.962-.969.35-.268 1.052-.605 1.54-.74.37-.102.455-.11 1.14-.11s.77.008 1.14.11c.488.135 1.19.472 1.54.74.31.237.734.665.962.969.351.469.724 1.392.811 2.005l.02.145-.566.021c-.41.015-.648.044-.86.106a3.57 3.57 0 0 0-2.492 2.727c-.069.344-.069 1.928 0 2.272.231 1.161 1.042 2.156 2.113 2.593.451.184.832.258 1.332.258a3.4 3.4 0 0 0 1.971-.604c.869-.6 1.395-1.496 1.508-2.566.052-.498.052-4.148 0-4.837-.27-3.536-2.915-6.385-6.404-6.898-.461-.067-1.636-.078-2.055-.018M4.344 18.656l.136.136v.701c0 .694-.001.702-.103.823a.49.49 0 0 1-.754 0c-.102-.121-.103-.129-.103-.823v-.701l.136-.136c.12-.12.161-.136.344-.136s.224.016.344.136m8 0 .136.136v.701c0 .694-.001.702-.103.823a.49.49 0 0 1-.754 0c-.102-.121-.103-.129-.103-.823v-.701l.136-.136c.12-.12.161-.136.344-.136s.224.016.344.136"/></svg>