<svg xmlns="http://www.w3.org/2000/svg" width="24" height="24" fill="none" stroke="currentColor" stroke-linecap="round" stroke-linejoin="round" stroke-width="3"><path fill="#000" fill-rule="evenodd" stroke="none" d="m9.6.521-4.26.02-.293.091c-1.301.4-2.247 1.446-2.495 2.756-.076.399-.076 16.825 0 17.224.221 1.168 1.036 2.177 2.116 2.617.712.29.191.271 7.332.271 5.895 0 6.444-.006 6.71-.068a3.7 3.7 0 0 0 1.798-1.004c.573-.6.883-1.272.971-2.111.055-.524.054-13.168-.001-13.517-.086-.542-.021-.467-2.896-3.344C15.88.752 15.764.647 15.383.561 15.133.505 14.215.498 9.6.521m2.891 4.469c.015 1.112.035 1.534.081 1.731.264 1.139 1.05 2.081 2.092 2.506.599.244.728.26 2.346.282l1.47.02v10.665l-.103.122a.6.6 0 0 1-.25.163c-.204.056-12.05.056-12.254 0a.6.6 0 0 1-.25-.163l-.103-.122V3.792l.136-.136.136-.136h6.679zm4.259 1.522c-.799.016-.931-.005-1.098-.172l-.132-.132V4.661l.92.919.921.92zm-6.53 4.008-1.64.02-.228.116a1.51 1.51 0 0 0-.834 1.154 6.8 6.8 0 0 0 0 1.38 1.5 1.5 0 0 0 2.13 1.159c.248-.115.593-.45.694-.673.038-.086.085-.156.104-.156s.034.688.034 1.53v1.53l-.191.107a1.51 1.51 0 0 0-.766 1.095 1.494 1.494 0 0 0 1.287 1.7c.324.047 2.056.047 2.38 0a1.494 1.494 0 0 0 1.287-1.7 1.51 1.51 0 0 0-.766-1.095l-.191-.107v-1.53c0-.842.015-1.53.034-1.53s.066.07.104.156c.101.223.446.558.694.673a1.5 1.5 0 0 0 2.13-1.159 6.8 6.8 0 0 0 0-1.38 1.51 1.51 0 0 0-.834-1.154c-.212-.108-.264-.117-.748-.126a172 172 0 0 0-4.68-.01"/></svg>