<svg xmlns="http://www.w3.org/2000/svg" width="24" height="24" fill="none" stroke="currentColor" stroke-linecap="round" stroke-linejoin="round" stroke-width="3"><path fill="#000" fill-rule="evenodd" stroke="none" d="M5.44.547a3.56 3.56 0 0 0-2.888 2.841c-.076.399-.076 16.825 0 17.224.221 1.168 1.036 2.177 2.116 2.617.712.29.191.271 7.332.271 5.895 0 6.444-.006 6.71-.068a3.7 3.7 0 0 0 1.798-1.004c.573-.6.883-1.272.971-2.111.055-.524.054-13.168-.001-13.517-.086-.543-.018-.465-2.916-3.361C16.263 1.14 15.867.761 15.66.659L15.42.54 10.48.535C7.763.532 5.495.538 5.44.547M16.43 5.57l2.05 2.05v12.574l-.103.122a.6.6 0 0 1-.25.163c-.204.056-12.05.056-12.254 0a.6.6 0 0 1-.25-.163l-.103-.122V3.792l.136-.136.136-.136h8.588zm-.914 3.007c-.08.03-.224.104-.32.164-.097.06-1.043.973-2.102 2.029l-1.926 1.92-.294-.075c-.446-.114-1.383-.106-1.806.016-1.287.371-2.274 1.445-2.509 2.733-.06.328-.06.944 0 1.272a3.56 3.56 0 0 0 2.109 2.593c.451.184.832.258 1.332.258.933 0 1.747-.328 2.428-.979a3.51 3.51 0 0 0 .947-3.421l-.068-.253.853-.854.854-.855.113.094c.324.273.979.351 1.428.169.387-.156.677-.446.833-.833.183-.454.104-1.104-.175-1.436l-.1-.119.1-.119c.271-.322.355-.962.186-1.414q-.197-.528-.759-.815c-.189-.096-.273-.113-.6-.121-.246-.006-.431.01-.524.046m-5.172 7.079c.119.119.136.162.136.337 0 .242-.129.424-.343.483a.5.5 0 0 1-.514-.16c-.081-.096-.103-.166-.103-.323 0-.175.017-.218.136-.337s.161-.136.344-.136.224.016.344.136"/></svg>