<svg xmlns="http://www.w3.org/2000/svg" width="24" height="24" fill="none" stroke="currentColor" stroke-linecap="round" stroke-linejoin="round" stroke-width="3"><path fill="#000" fill-rule="evenodd" stroke="none" d="m9.6.521-4.26.02-.293.091c-1.301.4-2.247 1.446-2.495 2.756-.038.197-.052.774-.052 2.092V7.3l.105.248c.25.595.761.938 1.395.938s1.146-.344 1.395-.938l.104-.248.021-1.773.02-1.774.131-.116.13-.117h6.67l.02 1.47c.015 1.112.035 1.534.081 1.731.264 1.139 1.05 2.081 2.092 2.506.599.244.728.26 2.346.282l1.47.02v10.665l-.103.122a.6.6 0 0 1-.25.163c-.225.062-12.103.052-12.284-.011-.09-.032-.201-.131-.323-.288-.36-.464-.737-.66-1.272-.66-.633 0-1.161.372-1.391.98-.118.31-.104.777.031 1.069.313.674.888 1.233 1.635 1.588.413.197.697.273 1.217.326.258.026 2.585.035 6.56.027 6.834-.015 6.33.005 7.036-.283a3.6 3.6 0 0 0 1.575-1.293 3.5 3.5 0 0 0 .568-1.617c.055-.524.054-13.168-.001-13.517-.086-.542-.021-.467-2.896-3.344C15.88.752 15.764.647 15.383.561 15.133.505 14.215.498 9.6.521m7.15 5.991c-.799.016-.931-.005-1.098-.172l-.132-.132V4.661l.92.919.921.92zM6.52 8.583c-.099.035-.808.481-1.576.99l-1.396.927-.984.02-.984.02-.228.116c-.474.24-.763.65-.838 1.188-.023.165-.034 1.152-.027 2.369L.5 16.3l.105.248q.253.601.847.844c.235.097.299.103 1.208.125l.96.023 1.34.897c.737.494 1.421.928 1.52.965.294.111.525.128.817.06.349-.081.523-.175.754-.407.235-.236.373-.513.427-.855.052-.327.056-8.034.004-8.39a1.51 1.51 0 0 0-.831-1.153c-.19-.096-.283-.116-.588-.126-.256-.008-.416.007-.543.052m4.013.992c-.241.079-.416.197-.63.426-.227.243-.329.461-.378.807-.063.439.007.677.357 1.219.426.658.598 1.225.598 1.973s-.172 1.315-.598 1.973c-.35.542-.42.78-.357 1.219.05.354.153.568.398.828.376.397.879.557 1.386.439.47-.109.756-.34 1.145-.928 1.229-1.857 1.38-4.362.386-6.381-.394-.799-.833-1.341-1.23-1.517-.24-.107-.829-.139-1.077-.058M5.48 14c0 .638-.008 1.16-.019 1.16a6 6 0 0 1-.41-.256c-.499-.326-.673-.384-1.152-.384H3.52v-.988l.37-.025c.509-.034.71-.104 1.15-.404.209-.142.394-.259.41-.261.016-.001.03.52.03 1.158"/></svg>