<svg xmlns="http://www.w3.org/2000/svg" width="24" height="24" fill="none" stroke="currentColor" stroke-linecap="round" stroke-linejoin="round" stroke-width="3"><path fill="#000" fill-rule="evenodd" stroke="none" d="M5.62.531a3.525 3.525 0 0 0-3.068 2.857c-.038.197-.052.774-.052 2.092V7.3l.105.248c.25.595.761.938 1.395.938s1.146-.344 1.395-.938l.104-.248.021-1.773.02-1.774.131-.116.13-.117h6.67l.02 1.47c.015 1.112.035 1.534.081 1.731.264 1.139 1.05 2.081 2.092 2.506.599.244.728.26 2.346.282l1.47.02v10.665l-.103.122a.6.6 0 0 1-.25.163c-.097.027-2.227.041-6.301.041-5.591 0-6.163-.006-6.26-.065a1.4 1.4 0 0 1-.275-.298 1.47 1.47 0 0 0-.725-.559c-.322-.122-.859-.098-1.146.051a1.5 1.5 0 0 0-.831 1.128c-.079.462.055.859.478 1.413s1.156 1.027 1.893 1.221l.34.089h6.56c6.027 0 6.584-.006 6.85-.068a3.7 3.7 0 0 0 1.798-1.004c.573-.6.883-1.272.971-2.111.055-.524.054-13.168-.001-13.517-.086-.542-.021-.467-2.896-3.344C15.887.758 15.771.654 15.383.557 15.188.509 6.047.484 5.62.531m11.13 5.981c-.799.016-.931-.005-1.098-.172l-.132-.132V4.661l.92.919.921.92zM4.516 9.577c-.321.122-.561.337-2.122 1.897C1.15 12.719.744 13.148.666 13.306a1.6 1.6 0 0 0 0 1.388c.078.158.489.593 1.768 1.874 1.443 1.444 1.697 1.681 1.898 1.773 1.113.51 2.308-.358 2.145-1.559-.045-.329-.196-.609-.515-.952l-.289-.31 3.134-.001c1.723 0 3.245-.017 3.383-.037a1.494 1.494 0 0 0 1.287-1.7 1.51 1.51 0 0 0-.829-1.126l-.228-.116-3.393-.011-3.392-.011.308-.329c.338-.362.488-.634.534-.971a1.5 1.5 0 0 0-.829-1.562c-.198-.101-.279-.117-.608-.125-.246-.006-.431.01-.524.046"/></svg>