<svg xmlns="http://www.w3.org/2000/svg" width="24" height="24" fill="none" stroke="currentColor" stroke-linecap="round" stroke-linejoin="round" stroke-width="3"><path fill="#000" fill-rule="evenodd" stroke="none" d="m9.6.521-4.26.02-.293.091c-1.301.4-2.247 1.446-2.495 2.756-.041.213-.052 1.37-.052 5.332v5.06l.093.23c.175.433.555.803.945.92.089.026.297.048.462.048s.373-.022.462-.048c.39-.117.77-.487.945-.92l.093-.23.02-5.013.02-5.014.131-.116.13-.117h6.67l.02 1.47c.015 1.112.035 1.534.081 1.731.264 1.139 1.05 2.081 2.092 2.506.599.244.728.26 2.346.282l1.47.02v10.665l-.103.122a.6.6 0 0 1-.25.163c-.094.026-1.189.041-3.035.041-2.825 0-2.894.002-3.111.083-1.089.408-1.322 1.841-.414 2.558.106.084.296.195.423.246l.23.093h3.1c2.774 0 3.131-.007 3.39-.068a3.7 3.7 0 0 0 1.798-1.004c.573-.6.883-1.272.971-2.111.055-.524.054-13.168-.001-13.517-.086-.542-.021-.467-2.896-3.344C15.88.752 15.764.647 15.383.561 15.133.505 14.215.498 9.6.521m7.15 5.991c-.799.016-.931-.005-1.098-.172l-.132-.132V4.661l.92.919.921.92zm-5.45 4.034c-.492.079-1.088.327-1.534.639-.359.251-5.62 5.512-5.835 5.835-.355.533-.407.672-.988 2.666-.431 1.482-.473 1.682-.422 2.042.135.949.806 1.621 1.75 1.751.354.049.599-.004 2.209-.475 1.669-.488 1.735-.51 2.043-.665.504-.255.739-.472 3.423-3.154 2.939-2.938 3.001-3.008 3.283-3.705.79-1.953-.245-4.144-2.269-4.806-.342-.111-.438-.125-.96-.135a7 7 0 0 0-.7.007m.89 3.054c.191.116.29.302.29.546 0 .18-.02.232-.153.4-.085.107-1.274 1.301-2.642 2.654l-2.489 2.46-.481.147c-.264.081-.536.16-.603.175-.144.031-.15.086.076-.702l.144-.5 2.464-2.474c1.355-1.361 2.551-2.545 2.658-2.63.169-.136.219-.156.4-.156.135 0 .251.028.336.08"/></svg>