<svg xmlns="http://www.w3.org/2000/svg" width="24" height="24" fill="none" stroke="currentColor" stroke-linecap="round" stroke-linejoin="round" stroke-width="3"><path fill="#000" fill-rule="evenodd" stroke="none" d="m9.6.521-4.26.02-.293.091c-1.301.4-2.247 1.446-2.495 2.756-.076.399-.076 16.825 0 17.224.221 1.168 1.036 2.177 2.116 2.617.712.29.191.271 7.332.271 5.895 0 6.444-.006 6.71-.068a3.7 3.7 0 0 0 1.798-1.004c.573-.6.883-1.272.971-2.111.055-.524.054-13.168-.001-13.517-.086-.542-.021-.467-2.896-3.344C15.88.752 15.764.647 15.383.561 15.133.505 14.215.498 9.6.521m2.891 4.469c.015 1.112.035 1.534.081 1.731.264 1.139 1.05 2.081 2.092 2.506.599.244.728.26 2.346.282l1.47.02v10.665l-.103.122a.6.6 0 0 1-.25.163c-.204.056-12.05.056-12.254 0a.6.6 0 0 1-.25-.163l-.103-.122V3.792l.136-.136.136-.136h6.679zm4.259 1.522c-.799.016-.931-.005-1.098-.172l-.132-.132V4.661l.92.919.921.92zm-7.37 4.062a2.56 2.56 0 0 0-1.603 1.286c-.194.391-.252.643-.283 1.223l-.026.503-.185.104a1.49 1.49 0 0 0-.325 2.376c.115.113.277.236.36.273l.15.068.026.506c.045.867.233 1.335.741 1.841.436.436.887.659 1.466.724.562.063 1.008-.076 1.354-.423a1.494 1.494 0 0 0-.338-2.365l-.185-.104-.026-.503a4.3 4.3 0 0 0-.092-.723 1.6 1.6 0 0 1-.066-.36c0-.077.029-.239.066-.36a4.3 4.3 0 0 0 .092-.727l.026-.506.15-.068c.083-.037.245-.16.36-.273.74-.729.544-1.936-.393-2.41-.203-.103-.275-.116-.649-.124a3 3 0 0 0-.62.042m4.136.002c-.853.328-1.242 1.261-.865 2.072.114.245.449.593.667.691l.15.068.026.506c.014.282.055.605.092.727.083.277.084.442 0 .72a4.3 4.3 0 0 0-.092.723l-.026.503-.185.104a1.494 1.494 0 0 0-.338 2.365c.346.347.792.486 1.354.423.579-.065 1.03-.288 1.466-.724.508-.506.696-.974.741-1.841l.026-.506.15-.068c.083-.037.245-.16.36-.273a1.49 1.49 0 0 0-.325-2.376l-.185-.104-.026-.503a5 5 0 0 0-.085-.723c-.206-.774-.833-1.448-1.604-1.727-.303-.109-1.077-.143-1.301-.057"/></svg>