<svg xmlns="http://www.w3.org/2000/svg" width="24" height="24" fill="none" stroke="currentColor" stroke-linecap="round" stroke-linejoin="round" stroke-width="3"><path fill="#000" fill-rule="evenodd" stroke="none" d="m9.6.521-4.26.02-.293.091c-1.301.4-2.247 1.446-2.495 2.756-.036.187-.052.682-.052 1.592V6.3l.105.248c.25.595.761.938 1.395.938.635 0 1.148-.345 1.394-.938.101-.244.103-.268.124-1.521l.022-1.274.131-.116.13-.117h6.67l.02 1.47c.015 1.112.035 1.534.081 1.731.264 1.139 1.05 2.081 2.092 2.506.599.244.728.26 2.346.282l1.47.02v10.66l-.083.106a.7.7 0 0 1-.17.155c-.068.039-1.666.054-7.367.07l-7.28.02-.228.116c-.93.471-1.133 1.673-.407 2.399.239.239.53.38.889.43.166.022 3.096.032 7.449.024 6.518-.011 7.202-.018 7.447-.079.682-.167 1.328-.531 1.778-1.002.573-.6.883-1.272.971-2.111.055-.524.054-13.168-.001-13.517-.086-.542-.021-.467-2.896-3.344C15.88.752 15.764.647 15.383.561 15.133.505 14.215.498 9.6.521m7.15 5.991c-.799.016-.931-.005-1.098-.172l-.132-.132V4.661l.92.919.921.92zM4.023 8.525C2.159 8.704.647 10.258.525 12.12c-.074 1.131.245 2.099.997 3.022.239.293 3.9 3.917 4.125 4.083.503.371 1.277.343 1.783-.064.105-.084 1.075-1.032 2.157-2.107 2.127-2.114 2.275-2.286 2.572-2.996.642-1.535.36-3.151-.758-4.349-1.157-1.239-3.093-1.571-4.594-.789l-.292.152-.368-.173c-.44-.208-.846-.326-1.238-.358-.159-.014-.343-.03-.409-.037a4 4 0 0 0-.477.021m.837 3.085c.066.035.287.218.492.405.457.419.673.516 1.148.516s.691-.097 1.148-.516c.465-.426.616-.509.932-.509.71 0 1.115.718.794 1.406-.085.183-.28.403-.99 1.121a74 74 0 0 1-1.388 1.37l-.505.475-1.379-1.369c-1.57-1.559-1.572-1.562-1.572-2.092 0-.285.013-.342.11-.49.26-.392.803-.535 1.21-.317"/></svg>