<svg xmlns="http://www.w3.org/2000/svg" width="24" height="24" fill="none" stroke="currentColor" stroke-linecap="round" stroke-linejoin="round" stroke-width="3"><path fill="#000" fill-rule="evenodd" stroke="none" d="m9.6.521-4.26.02-.293.091c-1.301.4-2.247 1.446-2.495 2.756-.076.399-.076 16.825 0 17.224.221 1.168 1.036 2.177 2.115 2.617.638.26.654.261 3.035.28 1.317.011 2.274.002 2.449-.022.374-.052.662-.19.904-.432.726-.726.523-1.928-.407-2.399l-.228-.116-2.28-.02c-2.432-.021-2.372-.016-2.537-.225l-.083-.106V3.792l.136-.136.136-.136h6.679l.02 1.47c.015 1.112.035 1.534.081 1.731.264 1.139 1.05 2.081 2.092 2.506.599.244.728.26 2.34.282l1.465.02.026.401c.039.594.18.899.576 1.245.357.312 1.008.406 1.484.213.387-.156.673-.442.84-.84l.104-.248.014-1.589c.009-1.032-.002-1.692-.031-1.88-.088-.575-.004-.478-2.9-3.375C15.88.752 15.764.647 15.383.561 15.133.505 14.215.498 9.6.521m7.15 5.991c-.799.016-.931-.005-1.098-.172l-.132-.132V4.661l.92.919.921.92zm-1.31 6.034c-1.366.257-2.406 1.178-2.798 2.479-.104.348-.16.894-.12 1.186.164 1.209 1.668 1.71 2.533.844.25-.25.377-.525.44-.955.068-.467.138-.537.605-.605.43-.063.705-.19.955-.44.726-.726.522-1.929-.407-2.399-.207-.105-.269-.117-.668-.123a5 5 0 0 0-.54.013m4.076.03c-1.051.406-1.349 1.701-.571 2.479.25.25.525.377.955.44.467.068.537.138.605.605.063.43.19.705.44.955.865.866 2.369.365 2.533-.844a3 3 0 0 0-.004-.564 3.51 3.51 0 0 0-2.521-3.01c-.378-.109-1.22-.145-1.437-.061m-6 6.001c-.371.142-.711.446-.864.775-.13.277-.168.584-.126 1.005.142 1.427 1.145 2.613 2.554 3.019.306.088.862.138 1.131.102a1.5 1.5 0 0 0 1.266-1.26c.117-.86-.454-1.586-1.334-1.698-.493-.062-.592-.16-.655-.648-.073-.56-.356-.971-.838-1.215-.195-.099-.28-.116-.608-.125q-.382-.01-.526.045m8 0c-.371.142-.711.446-.865.775a2.2 2.2 0 0 0-.139.52c-.063.487-.167.591-.648.645-1.269.142-1.813 1.644-.919 2.538.357.358.78.483 1.412.419a3.49 3.49 0 0 0 3.117-3.121c.019-.186.021-.44.004-.564a1.51 1.51 0 0 0-.828-1.132c-.195-.099-.28-.116-.608-.125-.253-.007-.431.008-.526.045"/></svg>