<svg xmlns="http://www.w3.org/2000/svg" width="24" height="24" fill="none" stroke="currentColor" stroke-linecap="round" stroke-linejoin="round" stroke-width="3"><path fill="#000" fill-rule="evenodd" stroke="none" d="m9.6.521-4.26.02-.293.091c-1.292.398-2.235 1.432-2.492 2.732-.03.155-.051.589-.053 1.096-.002.818.001.847.103 1.088.25.595.761.938 1.395.938.635 0 1.151-.347 1.392-.938.093-.227.103-.311.12-1.007l.019-.76.13-.13.131-.131h6.679l.02 1.47c.015 1.112.035 1.534.081 1.731.264 1.139 1.05 2.081 2.092 2.506.599.244.728.26 2.346.282l1.47.02v10.66l-.083.106a.7.7 0 0 1-.17.155c-.068.039-1.666.054-7.367.07l-7.28.02-.228.116c-.93.471-1.133 1.673-.407 2.399.239.239.53.38.889.43.166.022 3.096.032 7.449.024 6.518-.011 7.202-.018 7.447-.079.682-.167 1.328-.531 1.778-1.002.573-.6.883-1.272.971-2.111.055-.524.054-13.168-.001-13.517-.086-.542-.021-.467-2.896-3.344C15.88.752 15.764.647 15.383.561 15.133.505 14.215.498 9.6.521m7.15 5.991c-.799.016-.931-.005-1.098-.172l-.132-.132V4.661l.92.919.921.92zM5.44 7.545c-1.46.281-2.57 1.341-2.863 2.734-.03.144-.067.488-.081.765l-.027.504-.231.069c-.593.178-1.201.701-1.47 1.267C.501 13.446.5 13.452.5 15.5c0 2.046.001 2.055.266 2.612.223.467.655.899 1.122 1.122.582.277.416.266 4.112.266s3.53.011 4.112-.266c.262-.125.399-.225.648-.474s.349-.386.474-.648c.265-.557.266-.566.266-2.612 0-2.045-.001-2.055-.265-2.61-.271-.569-.882-1.096-1.479-1.274l-.236-.071-.001-.243c-.004-1.603-.689-2.787-1.986-3.436-.479-.24-.797-.313-1.433-.327a7 7 0 0 0-.66.006m.904 3.111c.135.135.136.139.136.5v.364h-.96v-.364c0-.361.001-.365.136-.5.12-.12.161-.136.344-.136s.224.016.344.136M8.48 15.52v1H3.52v-2h4.96z"/></svg>