<svg xmlns="http://www.w3.org/2000/svg" width="24" height="24" fill="none" stroke="currentColor" stroke-linecap="round" stroke-linejoin="round" stroke-width="3"><path fill="#000" fill-rule="evenodd" stroke="none" d="m9.6.521-4.26.02-.293.091c-1.301.4-2.247 1.446-2.495 2.756-.039.202-.052.866-.052 2.592V8.3l.105.248c.25.595.761.938 1.395.938s1.145-.343 1.395-.938L5.5 8.3l.02-2.273.02-2.274.131-.116.13-.117h6.67l.02 1.47c.015 1.112.035 1.534.081 1.731.264 1.139 1.05 2.081 2.092 2.506.599.244.728.26 2.346.282l1.47.02v10.66l-.083.106a.7.7 0 0 1-.17.155c-.068.039-1.666.054-7.367.07l-7.28.02-.228.116c-.93.471-1.133 1.673-.407 2.399.239.239.53.38.889.43.166.022 3.096.032 7.449.024 6.518-.011 7.202-.018 7.447-.079.682-.167 1.328-.531 1.778-1.002.573-.6.883-1.272.971-2.111.055-.524.054-13.168-.001-13.517-.086-.542-.021-.467-2.896-3.344C15.88.752 15.764.647 15.383.561 15.133.505 14.215.498 9.6.521m7.15 5.991c-.799.016-.931-.005-1.098-.172l-.132-.132V4.661l.92.919.921.92zM3.22 10.52l-1.64.02-.228.116a1.51 1.51 0 0 0-.834 1.154 6.8 6.8 0 0 0 0 1.38 1.5 1.5 0 0 0 2.13 1.159c.248-.115.593-.45.694-.673.038-.086.085-.156.104-.156s.034.688.034 1.53v1.53l-.191.107a1.51 1.51 0 0 0-.766 1.095 1.494 1.494 0 0 0 1.287 1.7c.324.047 2.056.047 2.38 0a1.494 1.494 0 0 0 1.287-1.7 1.51 1.51 0 0 0-.766-1.095l-.191-.107v-1.53c0-.842.015-1.53.034-1.53s.066.07.104.156c.101.223.446.558.694.673a1.5 1.5 0 0 0 2.13-1.159 6.8 6.8 0 0 0 0-1.38 1.51 1.51 0 0 0-.834-1.154c-.212-.108-.264-.117-.748-.126a172 172 0 0 0-4.68-.01"/></svg>