<svg xmlns="http://www.w3.org/2000/svg" width="24" height="24" fill="none" stroke="currentColor" stroke-linecap="round" stroke-linejoin="round" stroke-width="3"><path fill="#000" fill-rule="evenodd" stroke="none" d="m9.6.521-4.26.02-.293.091c-1.301.4-2.247 1.446-2.495 2.756-.038.2-.052.818-.052 2.332v2.06l.093.23c.175.433.555.803.945.92.089.026.297.048.462.048s.373-.022.462-.048c.391-.117.772-.489.944-.92.09-.226.092-.263.113-2.243l.021-2.014.131-.116.13-.117h6.67l.02 1.47c.015 1.112.035 1.534.081 1.731.264 1.139 1.05 2.081 2.092 2.506.599.244.728.26 2.346.282l1.47.02v10.66l-.083.106c-.158.201-.178.204-1.537.225l-1.28.02-.228.116c-.93.471-1.133 1.673-.407 2.399.242.242.53.38.906.433.432.061 2.537.015 2.879-.063a3.67 3.67 0 0 0 1.778-.997c.573-.6.883-1.272.971-2.111.055-.524.054-13.168-.001-13.517-.086-.542-.021-.467-2.896-3.344C15.88.752 15.764.647 15.383.561 15.133.505 14.215.498 9.6.521m7.15 5.991c-.799.016-.931-.005-1.098-.172l-.132-.132V4.661l.92.919.921.92zM7.516 8.579a1.53 1.53 0 0 0-1.001 1.26c-.023.164-.034 1.541-.027 3.369L6.5 16.3l.105.248q.25.597.847.847l.248.105 3.092.012c1.828.007 3.205-.004 3.369-.027.709-.098 1.222-.599 1.319-1.287.044-.31-.018-1.136-.124-1.658a7.54 7.54 0 0 0-6.281-5.958c-.519-.076-1.357-.078-1.559-.003M3.778 10.04c-.298.043-.524.161-.838.435-1.108.967-1.98 2.512-2.298 4.074-.391 1.92.022 3.96 1.139 5.631 1.666 2.49 4.746 3.77 7.65 3.179 1.592-.325 3.087-1.164 4.091-2.299.277-.313.379-.515.434-.857.052-.321.018-.535-.141-.87-.158-.336-.356-.526-.731-.705-.225-.106-.299-.121-.604-.121-.492 0-.736.119-1.246.61-.501.482-.775.685-1.214.9a4.4 4.4 0 0 1-2 .474c-1.657-.005-3.107-.844-3.928-2.271-.369-.641-.531-1.22-.561-2.005-.035-.911.091-1.51.475-2.262.239-.466.471-.778.925-1.244.382-.391.495-.587.561-.969q.11-.64-.32-1.17a1.48 1.48 0 0 0-1.394-.53m6.459 2.065c.477.262 1.035.761 1.405 1.255.185.248.606 1.074.574 1.126-.011.019-.623.034-1.358.034H9.52v-2.759l.23.102c.127.055.346.165.487.242"/></svg>