<svg xmlns="http://www.w3.org/2000/svg" width="24" height="24" fill="none" stroke="currentColor" stroke-linecap="round" stroke-linejoin="round" stroke-width="3"><path fill="#000" fill-rule="evenodd" stroke="none" d="m9.6.521-4.26.02-.293.091c-1.301.4-2.247 1.446-2.495 2.756-.036.187-.052.682-.052 1.592V6.3l.105.248c.25.595.761.938 1.395.938.635 0 1.148-.345 1.394-.938.101-.244.103-.268.124-1.521l.022-1.274.131-.116.13-.117h6.67l.02 1.47c.015 1.112.035 1.534.081 1.731.264 1.139 1.05 2.081 2.092 2.506.599.244.728.26 2.346.282l1.47.02v10.66l-.083.106a.7.7 0 0 1-.17.155c-.068.039-1.666.054-7.367.07l-7.28.02-.228.116c-.93.471-1.133 1.673-.407 2.399.239.239.53.38.889.43.166.022 3.096.032 7.449.024 6.518-.011 7.202-.018 7.447-.079.682-.167 1.328-.531 1.778-1.002.573-.6.883-1.272.971-2.111.055-.524.054-13.168-.001-13.517-.086-.542-.021-.467-2.896-3.344C15.88.752 15.764.647 15.383.561 15.133.505 14.215.498 9.6.521m7.15 5.991c-.799.016-.931-.005-1.098-.172l-.132-.132V4.661l.92.919.921.92zM5.081 8.583c-2.049.374-3.664 1.77-4.303 3.721-.258.787-.275.972-.276 3.116C.5 17.555.5 17.552.766 18.112c.223.467.655.899 1.122 1.122.417.198.666.256 1.112.256s.695-.058 1.112-.256a2.5 2.5 0 0 0 1.122-1.122c.198-.417.256-.666.256-1.112s-.058-.695-.255-1.11c-.272-.571-.882-1.096-1.483-1.276l-.24-.072.017-.561c.013-.444.035-.61.104-.798a2.65 2.65 0 0 1 1.55-1.553c.205-.076.316-.088.817-.088s.612.012.817.088a2.65 2.65 0 0 1 1.55 1.553c.069.188.091.354.104.798l.017.561-.24.072c-.603.181-1.209.7-1.48 1.27-.2.421-.258.669-.258 1.116 0 .446.058.695.256 1.112.223.467.655.899 1.122 1.122.417.198.666.256 1.112.256s.695-.058 1.112-.256a2.5 2.5 0 0 0 1.122-1.122c.266-.56.266-.557.264-2.692-.001-2.144-.018-2.329-.276-3.116-.643-1.964-2.27-3.362-4.332-3.722-.431-.076-1.391-.075-1.809.001"/></svg>