<svg xmlns="http://www.w3.org/2000/svg" width="24" height="24" fill="none" stroke="currentColor" stroke-width="2" stroke-linecap="round" stroke-linejoin="round" class="lucide lucide-file-sliders"><path d="M5.499 1.043C4.38 1.232 3.461 2.048 3.114 3.16l-.094.3v17.08l.094.3a3.086 3.086 0 0 0 2.046 2.046l.3.094h13.08l.3-.094c.976-.304 1.714-1.035 2.046-2.026l.094-.28.011-6.857c.01-6.257.005-6.875-.055-7.06-.06-.188-.263-.401-2.711-2.847-1.773-1.773-2.698-2.669-2.805-2.72-.154-.073-.335-.076-4.94-.082-2.629-.003-4.871.01-4.981.029m7.51 3.747c.014 1.743.017 1.797.107 2.07a3.126 3.126 0 0 0 2.024 2.024c.273.09.327.093 2.07.107l1.79.014v5.551c0 4.588-.01 5.583-.055 5.734a1.02 1.02 0 0 1-.461.582l-.184.108H5.7l-.184-.108a1.199 1.199 0 0 1-.291-.249c-.24-.315-.225.265-.225-8.601 0-9.134-.026-8.39.304-8.719.311-.312.105-.297 4.123-.3L12.995 3l.014 1.79m5.241 2.202c-.17.007-.814.007-1.43 0L15.7 6.98l-.184-.108a1.199 1.199 0 0 1-.291-.249C15.009 6.34 15 6.265 15 4.785V3.42l1.78 1.78 1.781 1.78-.311.012m-8.555 3.065a1.007 1.007 0 0 0-.678.773L8.99 11h-.549c-.792 0-1.075.111-1.313.516-.091.156-.108.23-.108.484 0 .256.016.328.111.489.125.213.318.375.539.454.098.035.352.054.735.055l.586.002.027.179c.036.243.24.533.479.68.174.107.232.121.503.121s.329-.014.503-.121c.239-.147.443-.437.479-.68l.027-.179 2.586-.002c2.055-.001 2.616-.012 2.735-.055.221-.079.414-.241.539-.454.095-.161.111-.233.111-.489 0-.254-.017-.328-.108-.484a1.209 1.209 0 0 0-.254-.295C16.328 11 16.324 11 13.559 11H11.01l-.027-.17a.996.996 0 0 0-.693-.775.9.9 0 0 0-.595.002m4 5a1.007 1.007 0 0 0-.678.773l-.027.17h-2.549c-2.765 0-2.769 0-3.059.221-.08.061-.195.194-.254.295-.091.156-.108.23-.108.484 0 .256.016.328.111.489.125.213.318.375.539.454.119.043.68.054 2.735.055l2.586.002.027.179c.036.243.24.533.479.68.174.107.232.121.503.121s.329-.014.503-.121c.239-.147.443-.437.479-.68l.027-.179.586-.002c.383-.001.637-.02.735-.055.221-.079.414-.241.539-.454.095-.161.111-.233.111-.489 0-.254-.017-.328-.108-.484-.238-.405-.521-.516-1.313-.516h-.549l-.027-.17a.996.996 0 0 0-.693-.775.9.9 0 0 0-.595.002" fill-rule="evenodd" fill="#000" stroke="none"/></svg>