<svg xmlns="http://www.w3.org/2000/svg" width="24" height="24" fill="none" stroke="currentColor" stroke-linecap="round" stroke-linejoin="round" stroke-width="3"><path fill="#000" fill-rule="evenodd" stroke="none" d="m9.6.521-4.26.02-.293.091c-1.301.4-2.247 1.446-2.495 2.756-.039.202-.052.866-.052 2.592V8.3l.105.248c.25.595.761.938 1.395.938s1.145-.343 1.395-.938L5.5 8.3l.02-2.273.02-2.274.131-.116.13-.117h6.67l.02 1.47c.015 1.112.035 1.534.081 1.731.264 1.139 1.05 2.081 2.092 2.506.599.244.728.26 2.346.282l1.47.02v10.66l-.083.106a.7.7 0 0 1-.17.155c-.068.039-1.666.054-7.367.07l-7.28.02-.228.116c-.93.471-1.133 1.673-.407 2.399.239.239.53.38.889.43.166.022 3.096.032 7.449.024 6.518-.011 7.202-.018 7.447-.079.682-.167 1.328-.531 1.778-1.002.573-.6.883-1.272.971-2.111.055-.524.054-13.168-.001-13.517-.086-.542-.021-.467-2.896-3.344C15.88.752 15.764.647 15.383.561 15.133.505 14.215.498 9.6.521m7.15 5.991c-.799.016-.931-.005-1.098-.172l-.132-.132V4.661l.92.919.921.92zM2.38 10.576c-.453.113-.95.421-1.279.793-.209.237-.465.739-.547 1.071-.079.32-.079 4.8 0 5.12.175.713.701 1.372 1.334 1.674.582.277.416.266 4.112.266 3.694 0 3.53.011 4.11-.265.377-.18.835-.595 1.03-.935.063-.11.119-.207.126-.215.006-.009.475.274 1.043.628.567.354 1.112.673 1.211.71.245.089.688.09.95.001.423-.142.816-.537.96-.962.061-.182.069-.507.081-3.275.007-1.81-.003-3.187-.026-3.349a1.5 1.5 0 0 0-.832-1.18c-.278-.14-.767-.181-1.078-.09-.112.033-.635.331-1.202.685-.552.344-1.029.636-1.059.647-.034.013-.09-.048-.154-.168-.13-.246-.601-.716-.884-.882a3.5 3.5 0 0 0-.459-.22l-.237-.09-3.5-.007c-2.684-.006-3.547.004-3.7.043m6.1 4.444v1.5H3.52v-3h4.96zm3.992.118-.012.138-.214-.136-.215-.135.215-.138.214-.138.012.136c.007.074.007.197 0 .273"/></svg>