<svg xmlns="http://www.w3.org/2000/svg" width="24" height="24" fill="none" stroke="currentColor" stroke-linecap="round" stroke-linejoin="round" stroke-width="3"><path fill="#000" fill-rule="evenodd" stroke="none" d="m9.6.521-4.26.02-.293.091c-1.301.4-2.247 1.446-2.495 2.756-.039.202-.052.866-.052 2.592V8.3l.105.248c.25.595.761.938 1.395.938s1.145-.343 1.395-.938L5.5 8.3l.02-2.273.02-2.274.131-.116.13-.117h6.67l.02 1.47c.015 1.112.035 1.534.081 1.731.264 1.139 1.05 2.081 2.092 2.506.599.244.728.26 2.346.282l1.47.02v10.66l-.083.106a.7.7 0 0 1-.17.155c-.068.039-1.666.054-7.367.07l-7.28.02-.228.116c-.93.471-1.133 1.673-.407 2.399.239.239.53.38.889.43.166.022 3.096.032 7.449.024 6.518-.011 7.202-.018 7.447-.079.682-.167 1.328-.531 1.778-1.002.573-.6.883-1.272.971-2.111.055-.524.054-13.168-.001-13.517-.086-.542-.021-.467-2.896-3.344C15.88.752 15.764.647 15.383.561 15.133.505 14.215.498 9.6.521m7.15 5.991c-.799.016-.931-.005-1.098-.172l-.132-.132V4.661l.92.919.921.92zM4.516 10.577c-.322.123-.563.338-2.124 1.898C.986 13.88.75 14.133.658 14.332c-.198.433-.197.903.001 1.336.091.201.329.455 1.773 1.9 1.445 1.444 1.699 1.682 1.9 1.773a1.502 1.502 0 0 0 2.012-2.003c-.084-.185-.289-.413-1.15-1.282L4.146 15l1.048-1.056c.861-.869 1.066-1.097 1.15-1.282.352-.768.055-1.626-.694-2.005-.195-.099-.28-.116-.608-.125-.253-.007-.431.008-.526.045m4 0c-.858.329-1.24 1.255-.86 2.085.084.185.289.413 1.15 1.282L9.854 15l-1.048 1.056c-.861.869-1.066 1.097-1.15 1.282a1.502 1.502 0 0 0 2.012 2.003c.201-.091.455-.329 1.9-1.773 1.444-1.445 1.682-1.699 1.773-1.9a1.57 1.57 0 0 0 0-1.336c-.091-.201-.325-.451-1.773-1.894-1.93-1.924-1.884-1.889-2.526-1.906q-.382-.01-.526.045"/></svg>