<svg xmlns="http://www.w3.org/2000/svg" width="24" height="24" fill="none" stroke="currentColor" stroke-linecap="round" stroke-linejoin="round" stroke-width="3"><path fill="#000" fill-rule="evenodd" stroke="none" d="m9.6.521-4.26.02-.293.091c-1.264.389-2.157 1.343-2.479 2.647-.058.235-.066 1.079-.078 8.421-.013 8.22-.007 8.671.13 9.2.088.342.381.929.57 1.142.172.192.486.369.775.436.71.163 1.468-.269 1.718-.982.119-.338.094-.832-.056-1.125l-.107-.208V3.792l.136-.136.136-.136h6.679l.02 1.47c.015 1.112.035 1.534.081 1.731.264 1.139 1.05 2.081 2.092 2.506.599.244.728.26 2.346.282l1.47.02v10.665l-.103.122a.6.6 0 0 1-.25.163c-.087.024-.712.041-1.535.041-1.307 0-1.402.005-1.611.083-1.089.408-1.322 1.841-.414 2.558.106.084.296.195.423.246.228.092.247.093 1.83.092 1.347-.001 1.646-.012 1.89-.068a3.7 3.7 0 0 0 1.798-1.003c.573-.6.883-1.272.971-2.111.055-.524.054-13.168-.001-13.517-.086-.542-.021-.467-2.896-3.344C15.88.752 15.764.647 15.383.561 15.133.505 14.215.498 9.6.521m-.084 4.056c-.371.142-.711.446-.864.774-.137.294-.184.691-.161 1.371.017.499.034.617.119.828.237.587.755.936 1.39.936s1.153-.349 1.39-.936c.085-.211.102-.329.119-.828.033-.973-.075-1.401-.445-1.766a2 2 0 0 0-.414-.299c-.195-.099-.28-.116-.608-.125q-.382-.01-.526.045m7.234 1.935c-.799.016-.931-.005-1.098-.172l-.132-.132V4.661l.92.919.921.92zM9.516 9.577c-.371.142-.711.446-.864.774-.137.294-.184.691-.161 1.371.017.499.034.617.119.828.237.587.755.936 1.39.936s1.153-.349 1.39-.936c.085-.211.102-.329.119-.828.033-.973-.075-1.401-.445-1.766a2 2 0 0 0-.414-.299c-.195-.099-.28-.116-.608-.125q-.382-.01-.526.045m0 5c-.371.142-.711.446-.864.773-.12.257-.17.582-.171 1.113l-.001.402-.15.071c-.649.309-1.334 1.093-1.603 1.837A3.3 3.3 0 0 0 6.512 20c0 .715.187 1.345.57 1.917.672 1.003 1.724 1.57 2.918 1.57.933 0 1.747-.328 2.428-.979 1.061-1.013 1.359-2.592.75-3.969-.28-.633-.937-1.331-1.508-1.603l-.15-.071-.001-.402c-.001-.792-.117-1.173-.455-1.507a2 2 0 0 0-.414-.299c-.195-.099-.28-.116-.608-.125q-.382-.01-.526.045m.828 5.079c.119.119.136.162.136.337 0 .242-.129.424-.343.483a.5.5 0 0 1-.514-.16c-.081-.096-.103-.166-.103-.323 0-.175.017-.218.136-.337s.161-.136.344-.136.224.016.344.136"/></svg>