<svg xmlns="http://www.w3.org/2000/svg" width="24" height="24" fill="none" stroke="currentColor" stroke-linecap="round" stroke-linejoin="round" stroke-width="3"><path fill="#000" fill-rule="evenodd" stroke="none" d="m9.6.521-4.26.02-.293.091c-1.301.4-2.247 1.446-2.495 2.756-.076.399-.076 16.825 0 17.224.221 1.168 1.036 2.177 2.116 2.617.712.29.191.271 7.332.271 5.895 0 6.444-.006 6.71-.068a3.7 3.7 0 0 0 1.798-1.004c.573-.6.883-1.272.971-2.111.055-.524.054-13.168-.001-13.517-.086-.542-.021-.467-2.896-3.344C15.88.752 15.764.647 15.383.561 15.133.505 14.215.498 9.6.521m2.891 4.469c.015 1.112.035 1.534.081 1.731.264 1.139 1.05 2.081 2.092 2.506.599.244.728.26 2.346.282l1.47.02v10.665l-.103.122a.6.6 0 0 1-.25.163c-.204.056-12.05.056-12.254 0a.6.6 0 0 1-.25-.163l-.103-.122V3.792l.136-.136.136-.136h6.679zm4.259 1.522c-.799.016-.931-.005-1.098-.172l-.132-.132V4.661l.92.919.921.92zm-5.234 4.065c-.557.213-.919.67-1.001 1.262-.023.164-.034 1.541-.027 3.369L10.5 18.3l.105.248c.25.595.761.938 1.395.938s1.145-.343 1.395-.938l.105-.248.012-3.092c.007-1.828-.004-3.205-.027-3.369a1.51 1.51 0 0 0-.835-1.182c-.195-.099-.28-.116-.608-.125q-.382-.01-.526.045m4 3c-.371.142-.711.446-.864.774-.156.334-.179.663-.165 2.367l.014 1.582.104.248c.25.594.761.938 1.395.938s1.145-.344 1.395-.938l.104-.248.014-1.582c.008-.912-.004-1.704-.026-1.869-.076-.542-.364-.953-.837-1.192-.195-.099-.28-.116-.608-.125q-.381-.01-.526.045m-8 2c-.371.142-.711.446-.864.774-.137.294-.184.691-.161 1.371.017.499.034.617.119.828.237.587.755.936 1.39.936s1.153-.349 1.39-.936c.085-.211.102-.329.119-.828.033-.973-.075-1.401-.445-1.766a2 2 0 0 0-.414-.299c-.195-.099-.28-.116-.608-.125q-.382-.01-.526.045"/></svg>