<svg xmlns="http://www.w3.org/2000/svg" width="24" height="24" fill="none" stroke="currentColor" stroke-linecap="round" stroke-linejoin="round" stroke-width="3"><path fill="#000" fill-rule="evenodd" stroke="none" d="M5.44.547a3.56 3.56 0 0 0-2.888 2.841c-.076.399-.076 16.825 0 17.224.221 1.168 1.036 2.177 2.116 2.617.712.29.191.271 7.332.271 5.895 0 6.444-.006 6.71-.068a3.7 3.7 0 0 0 1.798-1.004c.573-.6.883-1.272.971-2.111.055-.524.054-13.168-.001-13.517-.086-.543-.018-.465-2.916-3.361C16.263 1.14 15.867.761 15.66.659L15.42.54 10.48.535C7.763.532 5.495.538 5.44.547M16.43 5.57l2.05 2.05v12.574l-.103.122a.6.6 0 0 1-.25.163c-.204.056-12.05.056-12.254 0a.6.6 0 0 1-.25-.163l-.103-.122V3.792l.136-.136.136-.136h8.588zm-4.99.975c-1.46.281-2.57 1.341-2.863 2.734-.03.144-.067.488-.081.765l-.027.504-.231.069c-.593.178-1.201.701-1.47 1.267-.273.573-.268.518-.268 3.116 0 2.595-.004 2.543.266 3.112.223.467.655.899 1.122 1.122.582.277.416.266 4.112.266 2.672 0 3.384-.011 3.56-.054.713-.175 1.372-.701 1.674-1.334.27-.569.266-.517.266-3.112 0-2.594.004-2.544-.265-3.11-.271-.569-.882-1.096-1.479-1.274l-.236-.071-.001-.243c-.004-1.603-.689-2.787-1.986-3.436-.479-.24-.797-.313-1.433-.327a7 7 0 0 0-.66.006m.904 3.111c.135.135.136.139.136.5v.364h-.96v-.364c0-.361.001-.365.136-.5.12-.12.161-.136.344-.136s.224.016.344.136m2.136 5.364v1.5H9.52v-3h4.96z"/></svg>