<svg xmlns="http://www.w3.org/2000/svg" width="24" height="24" fill="none" stroke="currentColor" stroke-linecap="round" stroke-linejoin="round" stroke-width="3"><path fill="#000" fill-rule="evenodd" stroke="none" d="m9.6.521-4.26.02-.293.091c-1.301.4-2.247 1.446-2.495 2.756-.038.197-.052.774-.052 2.092V7.3l.105.248c.25.595.761.938 1.395.938s1.146-.344 1.395-.938l.104-.248.021-1.773.02-1.774.131-.116.13-.117h6.67l.02 1.47c.015 1.112.035 1.534.081 1.731.264 1.139 1.05 2.081 2.092 2.506.599.244.728.26 2.346.282l1.47.02v10.665l-.103.122a.6.6 0 0 1-.25.163c-.225.062-12.103.052-12.284-.011-.09-.032-.201-.131-.323-.288-.36-.464-.737-.66-1.272-.66-.633 0-1.161.372-1.391.98-.118.31-.104.777.031 1.069.313.674.888 1.233 1.635 1.588.413.197.697.273 1.217.326.258.026 2.585.035 6.56.027 6.834-.015 6.33.005 7.036-.283a3.6 3.6 0 0 0 1.575-1.293 3.5 3.5 0 0 0 .568-1.617c.055-.524.054-13.168-.001-13.517-.086-.542-.021-.467-2.896-3.344C15.88.752 15.764.647 15.383.561 15.133.505 14.215.498 9.6.521m7.15 5.991c-.799.016-.931-.005-1.098-.172l-.132-.132V4.661l.92.919.921.92zM4.277 9.558c-1.471.269-2.667 1.161-3.316 2.474a5.2 5.2 0 0 0-.402 1.248c-.059.334-.059 1.106 0 1.44.361 2.054 2.013 3.583 4.057 3.756a4.46 4.46 0 0 0 1.996-.284l.312-.119.602.587c.65.635.844.761 1.256.817a1.493 1.493 0 0 0 1.695-1.695c-.056-.412-.182-.606-.817-1.256l-.587-.602.119-.312a4.5 4.5 0 0 0-.617-4.335 5.8 5.8 0 0 0-.935-.919c-.317-.237-1.039-.579-1.48-.701-.323-.089-.479-.107-1.04-.119-.363-.007-.742.002-.843.02m1.376 3.1c.272.138.573.445.709.722.085.174.098.255.098.62 0 .384-.01.44-.116.648a1.51 1.51 0 0 1-1.126.829 1.5 1.5 0 0 1-1.562-.829c-.106-.208-.116-.264-.116-.648 0-.365.013-.446.098-.62.173-.352.515-.664.878-.803.095-.037.273-.052.526-.045.329.009.413.026.611.126"/></svg>