<svg xmlns="http://www.w3.org/2000/svg" width="24" height="24" fill="none" stroke="currentColor" stroke-linecap="round" stroke-linejoin="round" stroke-width="3"><path fill="#000" fill-rule="evenodd" stroke="none" d="m9.6.521-4.26.02-.293.091c-1.301.4-2.247 1.446-2.495 2.756-.076.399-.076 16.825 0 17.224.221 1.168 1.036 2.177 2.116 2.617.712.29.191.271 7.332.271 5.895 0 6.444-.006 6.71-.068a3.7 3.7 0 0 0 1.798-1.004c.573-.6.883-1.272.971-2.111.055-.524.054-13.168-.001-13.517-.086-.542-.021-.467-2.896-3.344C15.88.752 15.764.647 15.383.561 15.133.505 14.215.498 9.6.521m2.891 4.469c.015 1.112.035 1.534.081 1.731.264 1.139 1.05 2.081 2.092 2.506.599.244.728.26 2.346.282l1.47.02v10.665l-.103.122a.6.6 0 0 1-.25.163c-.204.056-12.05.056-12.254 0a.6.6 0 0 1-.25-.163l-.103-.122V3.792l.136-.136.136-.136h6.679zm4.259 1.522c-.799.016-.931-.005-1.098-.172l-.132-.132V4.661l.92.919.921.92zm-5.021 4.012c-.447.075-.522.137-2.297 1.91-1.444 1.443-1.681 1.697-1.773 1.898-.51 1.113.358 2.308 1.559 2.145.329-.045.608-.196.948-.512l.307-.285.014 1.31c.015 1.304.016 1.311.119 1.558.247.594.76.938 1.394.938s1.147-.344 1.394-.938c.103-.247.104-.254.119-1.558l.014-1.31.307.285c.34.316.619.467.948.512 1.201.163 2.069-1.032 1.559-2.145-.092-.201-.329-.455-1.773-1.898-1.799-1.797-1.842-1.832-2.334-1.912a3 3 0 0 0-.274-.037z"/></svg>