<svg xmlns="http://www.w3.org/2000/svg" width="24" height="24" fill="none" stroke="currentColor" stroke-linecap="round" stroke-linejoin="round" stroke-width="3"><path fill="#000" fill-rule="evenodd" stroke="none" d="M11.6.521C8.364.542 8.338.543 8.047.632 6.748 1.031 5.8 2.078 5.552 3.388c-.076.398-.076 12.826 0 13.224.221 1.168 1.036 2.177 2.116 2.617.704.287.364.271 5.832.271 4.485 0 4.946-.006 5.21-.068a3.7 3.7 0 0 0 1.798-1.004c.573-.6.883-1.272.971-2.111.055-.521.054-10.17-.001-10.517-.084-.534-.066-.512-2.396-2.844C16.895.767 16.759.645 16.383.561 16.138.506 15.186.498 11.6.521m1.892 3.969c.015.624.044 1.063.082 1.231.252 1.128 1.048 2.081 2.09 2.506.538.22.774.256 1.846.281l.97.023v7.663l-.103.122a.6.6 0 0 1-.25.163c-.203.056-9.051.056-9.254 0a.6.6 0 0 1-.25-.163l-.103-.122V3.792l.136-.136.136-.136h4.677zm3.762 1.023c-.236.029-.466-.037-.602-.173-.124-.124-.132-.149-.132-.405v-.274l.421.42c.399.396.416.42.313.432m-14.738.664a1.54 1.54 0 0 0-.998 1.233c-.05.343-.048 12.825.002 13.296.08.76.355 1.336.897 1.877.541.542 1.117.817 1.877.897.468.049 9.956.051 10.296.002a1.494 1.494 0 0 0 1.287-1.7 1.51 1.51 0 0 0-.829-1.126l-.228-.116-5.14-.021a642 642 0 0 1-5.15-.03c-.006-.005-.01-2.893-.011-6.419 0-3.597-.016-6.52-.037-6.66a1.51 1.51 0 0 0-.832-1.153c-.195-.099-.28-.116-.608-.125-.253-.007-.431.008-.526.045"/></svg>