<svg xmlns="http://www.w3.org/2000/svg" width="24" height="24" fill="none" stroke="currentColor" stroke-width="2" stroke-linecap="round" stroke-linejoin="round" class="lucide lucide-file-key-2"><path d="M5.499 1.043C4.38 1.232 3.461 2.048 3.114 3.16l-.094.3v6.846l.121.197a.998.998 0 0 0 1.718 0l.121-.197L5 7.023c.022-3.679.001-3.429.321-3.74C5.625 2.989 5.459 3 9.445 3h3.55l.014 1.79c.014 1.743.017 1.797.107 2.07a3.126 3.126 0 0 0 2.024 2.024c.273.09.327.093 2.07.107l1.79.014v5.551c0 4.588-.01 5.583-.055 5.734a1.02 1.02 0 0 1-.461.582l-.184.108-7.28.02c-5.706.016-7.304.031-7.393.07a1.146 1.146 0 0 0-.499.446c-.091.156-.108.23-.108.484 0 .257.016.327.113.492.128.218.369.409.59.469.1.027 2.62.037 7.504.03l7.353-.011.28-.094a3.145 3.145 0 0 0 2.026-2.026l.094-.28.011-6.857c.01-6.257.005-6.875-.055-7.06-.06-.188-.263-.401-2.711-2.847-1.773-1.773-2.698-2.669-2.805-2.72-.154-.073-.335-.076-4.94-.082-2.629-.003-4.871.01-4.981.029M18.25 6.992c-.17.007-.814.007-1.43 0L15.7 6.98l-.184-.108a1.199 1.199 0 0 1-.291-.249C15.009 6.34 15 6.265 15 4.785V3.42l1.78 1.78 1.781 1.78-.311.012M9.64 9.068c-.154.053-.485.366-2.26 2.134L5.3 13.274l-.283-.095c-1.66-.562-3.384.312-3.903 1.981-.135.434-.135 1.246 0 1.68a3.086 3.086 0 0 0 2.046 2.046c.434.135 1.246.135 1.68 0a3.086 3.086 0 0 0 2.046-2.046c.08-.257.094-.381.092-.86-.002-.521-.011-.585-.127-.92l-.125-.36 1.135-1.138 1.135-1.138.214.203c.267.252.422.334.685.361a.99.99 0 0 0 .972-.496c.097-.165.113-.234.112-.492-.001-.354-.055-.476-.35-.788L10.428 11l.201-.212c.295-.312.349-.434.35-.788.001-.255-.015-.328-.107-.484a1.016 1.016 0 0 0-1.232-.448m-5.306 5.996c.364.124.666.549.666.937 0 .33-.216.695-.516.871-.156.091-.23.108-.484.108s-.328-.017-.484-.108c-.579-.341-.683-1.098-.215-1.566a.957.957 0 0 1 1.033-.242" fill-rule="evenodd" fill="#000" stroke="none"/></svg>