<svg xmlns="http://www.w3.org/2000/svg" width="24" height="24" fill="none" stroke="currentColor" stroke-linecap="round" stroke-linejoin="round" stroke-width="3"><path fill="#000" fill-rule="evenodd" stroke="none" d="m13.86.52-2 .02-.292.107a3.17 3.17 0 0 0-1.999 2.184C9.505 3.079 9.5 3.484 9.5 8s.005 4.921.069 5.169a3.15 3.15 0 0 0 2.262 2.262c.246.063.601.069 4.169.069s3.923-.006 4.169-.069a3.16 3.16 0 0 0 2.259-2.241c.059-.222.069-.629.082-3.666.009-2.32 0-3.508-.029-3.7-.085-.558-.054-.522-2.399-2.868C17.895.767 17.759.645 17.383.561 17.151.509 16.154.497 13.86.52m.632 3.97c.015.624.044 1.063.082 1.231.252 1.128 1.048 2.081 2.09 2.506.538.22.774.256 1.846.281l.97.023v3.989h-6.96v-9h1.949zm3.762 1.023c-.236.029-.466-.037-.602-.173-.124-.124-.132-.149-.132-.405v-.274l.421.42c.399.396.416.42.313.432M6.516 6.577c-.556.213-.919.67-1.001 1.26-.023.165-.033 2.083-.025 4.809.015 5.04-.005 4.672.29 5.255.254.503.816 1.065 1.319 1.319.573.291.333.274 4.253.29 2.12.008 3.642-.002 3.809-.025.866-.12 1.432-.852 1.316-1.703a1.51 1.51 0 0 0-.829-1.126l-.228-.116-3.45-.011-3.45-.011-.001-4.229c0-2.326-.017-4.341-.037-4.479a1.51 1.51 0 0 0-.832-1.153c-.195-.099-.28-.116-.608-.125q-.382-.01-.526.045m-4 4c-.556.213-.919.67-1.001 1.26-.023.165-.033 2.083-.025 4.809.015 5.04-.005 4.672.29 5.255.254.503.816 1.065 1.319 1.319.573.291.333.274 4.253.29 2.12.008 3.642-.002 3.809-.025.866-.12 1.432-.852 1.316-1.703a1.51 1.51 0 0 0-.829-1.126l-.228-.116-3.45-.011-3.45-.011-.001-4.229c0-2.326-.017-4.341-.037-4.479a1.51 1.51 0 0 0-.832-1.153c-.195-.099-.28-.116-.608-.125-.253-.007-.431.008-.526.045"/></svg>