<svg xmlns="http://www.w3.org/2000/svg" width="24" height="24" fill="none" stroke="currentColor" stroke-linecap="round" stroke-linejoin="round" stroke-width="3"><path fill="#000" fill-rule="evenodd" stroke="none" d="m9.6.521-4.26.02-.293.091c-1.301.4-2.247 1.446-2.495 2.756-.076.399-.076 16.825 0 17.224.221 1.168 1.036 2.177 2.116 2.617.712.29.191.271 7.332.271 5.895 0 6.444-.006 6.71-.068a3.7 3.7 0 0 0 1.798-1.004c.573-.6.883-1.272.971-2.111.055-.524.054-13.168-.001-13.517-.086-.542-.021-.467-2.896-3.344C15.88.752 15.764.647 15.383.561 15.133.505 14.215.498 9.6.521m2.891 4.469c.015 1.112.035 1.534.081 1.731.264 1.139 1.05 2.081 2.092 2.506.599.244.728.26 2.346.282l1.47.02v10.665l-.103.122a.6.6 0 0 1-.25.163c-.204.056-12.05.056-12.254 0a.6.6 0 0 1-.25-.163l-.103-.122V3.792l.136-.136.136-.136h6.679zm4.259 1.522c-.799.016-.931-.005-1.098-.172l-.132-.132V4.661l.92.919.921.92zm-2.217 4.063c-.241.079-.416.197-.63.426-.227.243-.329.461-.378.807-.063.439.007.677.357 1.219.426.658.598 1.225.598 1.973s-.172 1.315-.598 1.973c-.35.542-.42.78-.357 1.219.05.354.153.568.398.828.376.397.879.557 1.386.439.47-.109.756-.34 1.145-.928 1.229-1.857 1.38-4.362.386-6.381-.394-.799-.833-1.341-1.23-1.517-.24-.107-.829-.139-1.077-.058m-3.442 1.483a1.53 1.53 0 0 0-1.077 1.313c-.033.349.028.578.258.969.184.314.188.327.188.66s-.004.346-.188.66c-.23.391-.291.62-.258.969a1.5 1.5 0 0 0 .866 1.225c.233.113.298.126.62.125.319 0 .39-.014.62-.123.859-.407 1.485-1.883 1.361-3.208-.078-.834-.433-1.689-.902-2.178-.375-.39-1.001-.564-1.488-.412m-3.575 1.519c-1.049.399-1.349 1.701-.571 2.478.71.71 1.942.519 2.393-.371a1.48 1.48 0 0 0-.286-1.746c-.292-.292-.55-.395-1.012-.407-.247-.006-.431.01-.524.046"/></svg>