<svg xmlns="http://www.w3.org/2000/svg" width="24" height="24" fill="none" stroke="currentColor" stroke-linecap="round" stroke-linejoin="round" stroke-width="3"><path fill="#000" fill-rule="evenodd" stroke="none" d="m9.6.521-4.26.02-.293.091c-1.301.4-2.247 1.446-2.495 2.756-.039.202-.052.866-.052 2.592V8.3l.105.248c.25.595.761.938 1.395.938s1.145-.343 1.395-.938L5.5 8.3l.02-2.273.02-2.274.131-.116.13-.117h6.67l.02 1.47c.015 1.112.035 1.534.081 1.731.264 1.139 1.05 2.081 2.092 2.506.599.244.728.26 2.346.282l1.47.02v10.66l-.083.106a.7.7 0 0 1-.17.155c-.068.039-1.666.054-7.367.07l-7.28.02-.228.116c-.93.471-1.133 1.673-.407 2.399.239.239.53.38.889.43.166.022 3.096.032 7.449.024 6.518-.011 7.202-.018 7.447-.079.682-.167 1.328-.531 1.778-1.002.573-.6.883-1.272.971-2.111.055-.524.054-13.168-.001-13.517-.086-.542-.021-.467-2.896-3.344C15.88.752 15.764.647 15.383.561 15.133.505 14.215.498 9.6.521m7.15 5.991c-.799.016-.931-.005-1.098-.172l-.132-.132V4.661l.92.919.921.92zM3.38 10.574a2.56 2.56 0 0 0-1.603 1.286c-.194.391-.252.643-.283 1.223l-.026.503-.185.104a1.49 1.49 0 0 0-.325 2.376c.115.113.277.236.36.273l.15.068.026.506c.045.867.233 1.335.741 1.841.436.436.887.659 1.466.724.562.063 1.008-.076 1.354-.423a1.494 1.494 0 0 0-.338-2.365l-.185-.104-.026-.503a4.3 4.3 0 0 0-.092-.723 1.07 1.07 0 0 1 0-.72 4.3 4.3 0 0 0 .092-.727l.026-.506.15-.068c.083-.037.245-.16.36-.273.74-.729.544-1.936-.393-2.41-.203-.103-.275-.116-.649-.124a3 3 0 0 0-.62.042m4.136.002c-.853.328-1.242 1.261-.865 2.072.114.245.449.593.667.691l.15.068.026.506a4.3 4.3 0 0 0 .092.727c.037.121.066.283.066.36s-.029.239-.066.36a4.3 4.3 0 0 0-.092.723l-.026.503-.185.104a1.494 1.494 0 0 0-.338 2.365c.346.347.792.486 1.354.423.579-.065 1.03-.288 1.466-.724.508-.506.696-.974.741-1.841l.026-.506.15-.068c.083-.037.245-.16.36-.273a1.49 1.49 0 0 0-.325-2.376l-.185-.104-.026-.503a5 5 0 0 0-.085-.723c-.206-.774-.833-1.448-1.604-1.727-.303-.109-1.077-.143-1.301-.057"/></svg>