<svg xmlns="http://www.w3.org/2000/svg" width="24" height="24" fill="none" stroke="currentColor" stroke-linecap="round" stroke-linejoin="round" stroke-width="3"><path fill="#000" fill-rule="evenodd" stroke="none" d="M5.44.547a3.56 3.56 0 0 0-2.888 2.841c-.076.399-.076 16.825 0 17.224.221 1.168 1.036 2.177 2.116 2.617.712.29.191.271 7.332.271 5.895 0 6.444-.006 6.71-.068a3.7 3.7 0 0 0 1.798-1.004c.573-.6.883-1.272.971-2.111.055-.524.054-13.168-.001-13.517-.086-.543-.018-.465-2.916-3.361C16.263 1.14 15.867.761 15.66.659L15.42.54 10.48.535C7.763.532 5.495.538 5.44.547M16.43 5.57l2.05 2.05v12.574l-.103.122a.6.6 0 0 1-.25.163c-.204.056-12.05.056-12.254 0a.6.6 0 0 1-.25-.163l-.103-.122V3.792l.136-.136.136-.136h8.588zm-5.237.009c-1.588.26-2.999 1.435-3.49 2.908-.119.355-.129.609-.039.916.131.441.401.761.794.941.455.209.872.201 1.33-.025.314-.154.536-.404.731-.819.206-.438.38-.626.751-.809.277-.137.336-.151.628-.151.356 0 .609.075.888.265.36.245.611.713.613 1.14.001.212-.017.273-.129.439-.247.367-.881.797-1.663 1.127-.494.208-.653.312-.847.553a1.45 1.45 0 0 0-.331.916c0 .842.654 1.514 1.471 1.512.891-.002 2.812-1.123 3.602-2.101.64-.793.903-1.496.904-2.416.002-1.676-.945-3.2-2.466-3.968-.801-.405-1.871-.572-2.747-.428m.323 9.998c-1.049.399-1.349 1.701-.571 2.478.58.58 1.53.583 2.107.007a1.47 1.47 0 0 0 0-2.124c-.292-.292-.55-.395-1.012-.407-.247-.006-.431.01-.524.046"/></svg>