<svg xmlns="http://www.w3.org/2000/svg" width="24" height="24" fill="none" stroke="currentColor" stroke-linecap="round" stroke-linejoin="round" stroke-width="3"><path fill="#000" fill-rule="evenodd" stroke="none" d="m9.6.521-4.26.02-.293.091c-1.301.4-2.247 1.446-2.495 2.756-.076.399-.076 16.825 0 17.224.221 1.168 1.036 2.177 2.116 2.617.712.29.191.271 7.332.271 5.895 0 6.444-.006 6.71-.068a3.7 3.7 0 0 0 1.798-1.004c.573-.6.883-1.272.971-2.111.055-.524.054-13.168-.001-13.517-.086-.542-.021-.467-2.896-3.344C15.88.752 15.764.647 15.383.561 15.133.505 14.215.498 9.6.521m2.891 4.469c.015 1.112.035 1.534.081 1.731.264 1.139 1.05 2.081 2.092 2.506.599.244.728.26 2.346.282l1.47.02v10.665l-.103.122a.6.6 0 0 1-.25.163c-.204.056-12.05.056-12.254 0a.6.6 0 0 1-.25-.163l-.103-.122V3.792l.136-.136.136-.136h6.679zm4.259 1.522c-.799.016-.931-.005-1.098-.172l-.132-.132V4.661l.92.919.921.92zM9.516 9.577a1.7 1.7 0 0 0-.858.75l-.096.186-.491.014c-.448.012-.511.023-.719.129-.93.471-1.133 1.673-.407 2.399.327.327.729.462 1.379.464l.264.001.07.156c.101.223.446.558.694.673a1.56 1.56 0 0 0 1.296 0c.248-.115.593-.45.694-.673l.07-.156 2.264-.001c1.245 0 2.376-.017 2.514-.037a1.494 1.494 0 0 0 1.287-1.7 1.51 1.51 0 0 0-.829-1.126l-.228-.116-2.49-.011-2.49-.011-.096-.189a1.7 1.7 0 0 0-.694-.672c-.195-.099-.28-.116-.608-.125q-.382-.01-.526.045m4 5a1.7 1.7 0 0 0-.859.752l-.097.189-2.49.011-2.49.011-.228.116a1.51 1.51 0 0 0-.829 1.126 1.494 1.494 0 0 0 1.287 1.7c.138.02 1.269.037 2.514.037l2.264.001.07.156c.101.223.446.558.694.673a1.56 1.56 0 0 0 1.296 0c.248-.115.593-.45.694-.673l.07-.156.264-.001c.65-.002 1.052-.137 1.379-.464.726-.726.523-1.928-.407-2.399-.208-.106-.272-.117-.719-.13l-.492-.014-.095-.186a1.7 1.7 0 0 0-.692-.669c-.195-.099-.28-.116-.608-.125q-.382-.01-.526.045"/></svg>