<svg xmlns="http://www.w3.org/2000/svg" width="24" height="24" fill="none" stroke="currentColor" stroke-linecap="round" stroke-linejoin="round" stroke-width="3"><path fill="#000" fill-rule="evenodd" stroke="none" d="M1.516 1.579C.664 1.893.268 2.858.66 3.66c.061.124 1.572 1.941 3.958 4.76l3.86 4.56.001 3c.001 1.751.018 3.099.04 3.238.053.319.197.601.429.836.168.17.457.327 2.344 1.271 1.279.641 2.25 1.103 2.394 1.14a.97.97 0 0 0 .506.016c.694-.121 1.179-.597 1.289-1.263.023-.143.039-1.83.039-4.231v-3.993l.325-.387c.179-.213.369-.48.421-.593.278-.597.073-1.404-.456-1.793-.32-.235-.574-.311-.979-.293-.303.014-.384.035-.62.157-.241.125-.335.214-.84.798-.614.709-.788.99-.851 1.377-.023.142-.04 1.479-.04 3.27v3.031L12 18.32l-.48-.241V15.29c0-1.578-.017-2.891-.039-3.023a2 2 0 0 0-.133-.44c-.066-.144-1.012-1.292-3.087-3.747L5.268 4.54l4.016-.02L13.3 4.5l.224-.091c.673-.272 1.071-.936.967-1.61a2 2 0 0 0-.137-.464 1.73 1.73 0 0 0-.712-.691l-.222-.104-5.88-.007c-4.817-.006-5.906.002-6.024.046m15-.002c-.857.328-1.24 1.255-.862 2.082.081.176.269.391.901 1.032l.798.809-.798.809c-.633.641-.82.855-.9 1.032a1.499 1.499 0 0 0 1.563 2.136c.442-.06.599-.17 1.473-1.032l.809-.798.809.798c.873.862 1.03.972 1.473 1.032a1.499 1.499 0 0 0 1.563-2.136c-.08-.177-.267-.391-.9-1.032l-.798-.809.798-.809c.632-.641.82-.856.901-1.032a1.505 1.505 0 0 0-.698-2.003c-.208-.106-.264-.116-.648-.116-.624 0-.707.05-1.7 1.027l-.8.786-.8-.786c-.97-.955-1.074-1.019-1.658-1.035-.253-.007-.431.008-.526.045"/></svg>