<svg xmlns="http://www.w3.org/2000/svg" width="24" height="24" fill="none" stroke="currentColor" stroke-linecap="round" stroke-linejoin="round" stroke-width="3"><path fill="#000" fill-rule="evenodd" stroke="none" d="M1.516 1.579C.664 1.893.268 2.858.66 3.66c.061.124 1.572 1.941 3.958 4.76l3.86 4.56.001 3c.001 1.751.018 3.099.04 3.238.053.319.197.601.429.836.168.17.457.327 2.344 1.271 1.279.641 2.25 1.103 2.394 1.14a.97.97 0 0 0 .506.016c.694-.121 1.179-.597 1.289-1.263.023-.143.039-1.838.04-4.238l.001-4 3.86-4.56q3.86-4.56 3.969-4.78c.098-.198.109-.263.109-.64 0-.348-.015-.453-.088-.61-.122-.264-.454-.601-.724-.736l-.228-.114-10.38-.007c-8.563-.006-10.405.002-10.524.046M18.694 4.57c-.017.028-1.362 1.625-2.989 3.549-2.054 2.43-2.987 3.563-3.053 3.707a2 2 0 0 0-.133.441c-.022.133-.039 1.533-.039 3.263v3.031L12 18.32l-.48-.241V15.29c0-1.578-.017-2.891-.039-3.023a2 2 0 0 0-.133-.441c-.066-.144-1.001-1.279-3.053-3.707A555 555 0 0 1 5.306 4.57c-.025-.04 1.325-.05 6.694-.05s6.719.01 6.694.05"/></svg>