<svg xmlns="http://www.w3.org/2000/svg" width="24" height="24" fill="none" stroke="currentColor" stroke-linecap="round" stroke-linejoin="round" stroke-width="3"><path fill="#000" fill-rule="evenodd" stroke="none" d="M10.68.583A11.57 11.57 0 0 0 4.8 3.041c-.838.668-1.764 1.684-2.387 2.619C1.226 7.443.537 9.65.514 11.74c-.005.514.002.581.095.808.239.59.755.938 1.391.938.63 0 1.153-.349 1.386-.926.079-.196.102-.351.134-.908.04-.71.051-.804.147-1.312.294-1.562 1.085-3.057 2.27-4.294C7.18 4.75 8.98 3.848 10.869 3.576c.519-.074 1.653-.084 2.131-.017a8.9 8.9 0 0 1 2.78.84c1.173.579 1.916 1.184 2.951 2.401.14.165.331.358.425.43.349.266.927.338 1.375.17.296-.111.669-.45.807-.733.192-.394.203-.887.029-1.28-.203-.458-1.422-1.764-2.246-2.404-1.747-1.359-3.622-2.13-5.84-2.402-.615-.075-1.956-.074-2.601.002m.311 3.979a7.4 7.4 0 0 0-2.31.722c-.401.198-.591.318-.733.462-.342.346-.504.832-.425 1.27.122.675.61 1.16 1.275 1.267.33.053.59-.008 1.102-.259.857-.42 1.129-.482 2.1-.483.704 0 .813.009 1.12.096 1.689.478 2.838 1.669 3.284 3.403.028.11.056.776.073 1.72.026 1.535.027 1.541.129 1.788.246.593.759.938 1.394.938s1.149-.346 1.393-.938c.1-.24.104-.282.119-1.276.035-2.18-.14-3.224-.757-4.512-.434-.906-1.083-1.77-1.786-2.381a7.84 7.84 0 0 0-3.443-1.725c-.403-.088-.587-.103-1.366-.115-.495-.008-1.021.003-1.169.023M5.9 8.561c-.227.069-.557.299-.723.505-.181.222-.35.666-.492 1.294-.127.561-.164.968-.205 2.249-.077 2.409-.357 4.513-.809 6.091-.101.352-.162.649-.164.8-.015.987 1.014 1.743 1.941 1.424q.61-.209.872-.724c.276-.541.688-2.388.896-4.02.163-1.276.22-1.995.264-3.34.046-1.407.073-1.652.242-2.24.134-.466.146-.691.054-1.003a1.45 1.45 0 0 0-.811-.951c-.183-.086-.292-.107-.585-.114a2.2 2.2 0 0 0-.48.029m5.54-.015c-1.452.273-2.562 1.332-2.864 2.733-.033.15-.073.714-.095 1.321a44 44 0 0 1-.129 2.04c-.124 1.338-.12 1.674.02 1.965.392.81 1.304 1.119 2.079.706.502-.268.721-.653.808-1.424.121-1.067.258-3.129.26-3.936a.38.38 0 0 1 .115-.277c.102-.114.152-.134.462-.179.434-.063.709-.189.959-.44.726-.726.522-1.929-.407-2.399-.207-.105-.269-.117-.668-.123a5 5 0 0 0-.54.013m9.9.028a1.51 1.51 0 0 0-1.014 1.646c.094.596.101 3.512.014 5.44-.027.6-.024.654.058.87.101.264.407.623.658.77.091.053.287.125.435.159.477.111.941-.018 1.311-.365.259-.242.38-.448.454-.775.106-.47.161-1.679.159-3.519-.002-2.262-.069-3.08-.291-3.511-.112-.218-.414-.501-.676-.633-.194-.099-.281-.117-.588-.125-.213-.006-.425.012-.52.043m-7.824 3.123a1.54 1.54 0 0 0-.998 1.233c-.02.138-.037.745-.037 1.35-.003 3.137-.291 5.61-.815 7.001-.276.733-.186 1.301.28 1.774.23.234.422.334.778.409.489.101.976-.053 1.352-.429.212-.213.275-.335.478-.935.496-1.464.781-3.288.883-5.64.063-1.463.087-3.258.046-3.53a1.52 1.52 0 0 0-.833-1.153c-.195-.099-.28-.116-.608-.125q-.382-.01-.526.045m-12 2.88c-1.049.399-1.349 1.701-.571 2.478.58.58 1.53.583 2.107.007a1.47 1.47 0 0 0 0-2.124c-.292-.292-.55-.395-1.012-.407-.247-.006-.431.01-.524.046m15.76 2.016c-.398.161-.71.453-.863.807-.034.077-.114.498-.178.935a49 49 0 0 1-.259 1.54c-.241 1.263-.226 1.555.102 2.012a1.49 1.49 0 0 0 1.859.477c.323-.159.626-.48.74-.786.046-.122.163-.657.26-1.19.395-2.157.422-2.614.181-3.066a1.67 1.67 0 0 0-.707-.683c-.27-.128-.872-.152-1.135-.046M8.8 18.557c-.345.106-.759.446-.911.747a4 4 0 0 0-.186.608c-.06.248-.201.734-.313 1.08-.185.569-.205.664-.207 1.008-.003.332.011.409.104.609.304.647 1.033 1.018 1.678.853.458-.118.791-.365.984-.731.221-.417.717-2.126.759-2.613a1.5 1.5 0 0 0-.969-1.515c-.23-.086-.728-.11-.939-.046"/></svg>