<svg xmlns="http://www.w3.org/2000/svg" width="24" height="24" fill="none" stroke="currentColor" stroke-linecap="round" stroke-linejoin="round" stroke-width="3"><path fill="#000" fill-rule="evenodd" stroke="none" d="M11.38.575c-.462.117-.961.43-1.286.806-.104.12-.223.219-.263.219-.152 0-.705.131-1.129.268a7.55 7.55 0 0 0-5.059 5.677c-.155.76-.168 1.354-.155 7.175L3.5 20.3l.105.248c.25.595.761.938 1.395.938s1.145-.343 1.395-.938L6.5 20.3l.012-2.89.012-2.89h.951l.016 2.97c.013 2.523.025 3.009.078 3.231.333 1.381 1.345 2.39 2.721 2.711.256.06.578.068 2.71.068s2.454-.008 2.71-.068c1.297-.303 2.276-1.216 2.65-2.47.155-.523.164-.906.15-6.302-.015-5.777-.002-5.484-.288-6.357a5.5 5.5 0 0 0-1.369-2.213l-.333-.33V4.52l.71-.001c.39 0 .822-.017.96-.037a1.494 1.494 0 0 0 1.287-1.7 1.51 1.51 0 0 0-.829-1.126l-.228-.116-1.2-.02-1.2-.02-.263-.26a2.56 2.56 0 0 0-.94-.61c-.228-.087-.291-.09-1.737-.098-1.098-.005-1.554.006-1.7.043m2.1 3.445v.5h-.96v-1h.96zM9.148 6.089a5.5 5.5 0 0 0-1.37 2.214c-.209.637-.26 1.026-.286 2.187l-.024 1.03h-.954l.016-1.65.016-1.65.108-.38c.135-.476.477-1.179.737-1.52.237-.31.665-.734.969-.962.121-.09.418-.262.66-.382l.44-.217.011.499.011.5zm4.669 1.544a2.66 2.66 0 0 1 1.553 1.55l.09.237.011 3.55.011 3.55H10.52v-3.438c0-2.387.014-3.503.045-3.65.179-.848.95-1.64 1.806-1.857.328-.083 1.149-.05 1.446.058m1.663 12.224c0 .303-.01.349-.103.459a.6.6 0 0 1-.25.163c-.199.055-4.055.055-4.254 0a.6.6 0 0 1-.25-.163c-.093-.11-.103-.156-.103-.459v-.337h4.96z"/></svg>