<svg xmlns="http://www.w3.org/2000/svg" width="24" height="24" fill="none" stroke="currentColor" stroke-linecap="round" stroke-linejoin="round" stroke-width="3"><path fill="#000" fill-rule="evenodd" stroke="none" d="M7.6 1.557c-.427.131-.853.52-1.001.913-.104.28-.113.672-.022.986.067.23.168.371.776 1.09.394.466.836 1.12 1.129 1.67l.212.396-.1.084c-.055.046-.213.174-.352.284s-.301.241-.362.292l-.111.091-.151-.271c-.352-.635-1.022-1.389-1.656-1.866C5.088 4.57 3.32 3.939 2.58 4.019c-.504.054-.897.32-1.189.806C.84 5.741.562 6.863.53 8.308c-.031 1.375.144 2.431.573 3.457l.094.225-.136.335c-.911 2.24-.684 5.481.497 7.106.229.315.747.569 1.161.569.49 0 1.738-.365 2.413-.706.951-.48 1.973-1.46 2.486-2.386l.151-.271.165.143c.246.212.845.66 1.178.881l.293.194-.028.162c-.035.211-.238.787-.367 1.043a5.3 5.3 0 0 1-.608.921c-.38.478-.491.977-.327 1.473.143.435.467.772.915.953l.23.093h2.52c2.48 0 2.526-.001 2.872-.09.72-.183 1.245-.5 1.782-1.073.486-.52.708-1.004.915-1.994.032-.153.039-.159.352-.265 1.799-.614 3.369-1.89 4.48-3.642.653-1.03 1.346-2.798 1.346-3.433 0-.509-.49-1.891-1.02-2.878-1.067-1.989-2.915-3.596-4.846-4.215-.272-.088-.28-.094-.312-.25-.122-.593-.214-.886-.398-1.26-.183-.374-.25-.464-.608-.823-.563-.564-1.074-.853-1.752-.993-.267-.056-.735-.064-3.579-.061-1.8.002-3.317.018-3.372.034m6.34 3a2 2 0 0 1-.336.06c-.488.054-1.373.272-1.98.487a1.7 1.7 0 0 1-.285.087 26 26 0 0 1-.332-.641c-.008-.016.667-.029 1.5-.027.832.001 1.477.016 1.433.034M4.209 7.668c.686.497 1.175 1.45 1.254 2.444.021.272.013.334-.074.528-.053.121-.158.4-.233.62-.189.56-.189.92 0 1.48.075.22.18.499.233.62.087.194.095.256.074.528a4.1 4.1 0 0 1-.409 1.44c-.152.298-.259.44-.533.712-.297.295-.63.54-.845.62-.053.02-.071-.032-.11-.308-.064-.458-.057-1.415.013-1.872.111-.724.258-1.123.582-1.586a1.53 1.53 0 0 0-.006-1.795c-.424-.604-.634-1.437-.635-2.52 0-.486.057-1.149.106-1.228.023-.039.296.11.583.317m9.111.064c0 .007-.054.16-.119.339A11.1 11.1 0 0 0 12.512 12c0 1.392.219 2.64.689 3.928.065.179.113.331.106.338-.026.026-.622-.163-1.036-.33-1.499-.602-2.742-1.563-3.58-2.767-.2-.287-.611-1.072-.611-1.166 0-.098.371-.809.604-1.158.289-.433.947-1.136 1.413-1.51a8.8 8.8 0 0 1 2.623-1.432c.526-.175.6-.196.6-.171m3.998.302c1.323.662 2.375 1.93 2.985 3.596l.136.37-.142.39c-.574 1.588-1.673 2.926-2.913 3.546-.2.1-.441.209-.535.241l-.17.06-.107-.169c-.141-.221-.496-1.009-.625-1.388a8.5 8.5 0 0 1-.184-4.74c.164-.642.552-1.605.809-2.008l.107-.169.165.059c.091.032.305.127.474.212m.198 2.543c-.561.215-.918.668-1.004 1.274-.167 1.183.387 2.046 1.373 2.138.433.041.842-.112 1.163-.433.372-.372.528-.954.444-1.65-.071-.588-.349-1-.842-1.249-.195-.099-.28-.116-.608-.125-.253-.007-.431.008-.526.045m-5.096 8.566c.245.075 1.033.237 1.36.279.195.024.221.036.14.06-.138.041-1.84.046-1.84.005a3 3 0 0 1 .134-.407z"/></svg>