<svg xmlns="http://www.w3.org/2000/svg" width="24" height="24" fill="none" stroke="currentColor" stroke-linecap="round" stroke-linejoin="round" stroke-width="3"><path fill="#000" fill-rule="evenodd" stroke="none" d="M1.516.577C.825.841.426 1.502.523 2.218c.057.42.18.606.869 1.31l.638.652-.178.115c-.23.149-.403.386-.648.885C.737 6.134.521 7.196.52 8.528c0 1.259.182 2.266.584 3.237l.093.225-.136.335c-.911 2.24-.684 5.481.497 7.106.229.315.747.569 1.161.569.49 0 1.738-.365 2.413-.706.951-.48 1.973-1.46 2.486-2.386l.151-.271.165.143c.246.212.845.66 1.178.881l.293.194-.028.162c-.035.211-.238.787-.367 1.043a5.3 5.3 0 0 1-.608.921c-.38.478-.491.977-.327 1.473.143.435.467.772.915.953l.23.093h2.52c2.48 0 2.526-.001 2.872-.09.719-.183 1.246-.5 1.781-1.072.396-.423.672-.94.811-1.519l.092-.38 1.904 1.899c1.648 1.644 1.934 1.913 2.133 2.004a1.503 1.503 0 0 0 2.009-2.01c-.095-.21-1.076-1.202-10.274-10.395C1.635-.49 2.738.551 2.042.532c-.253-.007-.431.008-.526.045m6.568.989c-.195.056-.522.275-.68.455a2 2 0 0 0-.24.377c-.089.19-.104.276-.104.602 0 .329.015.411.107.609a1.52 1.52 0 0 0 1.153.869c.16.025 1.31.042 2.977.042 1.494 0 2.708.009 2.697.019a2 2 0 0 1-.337.063c-.439.059-1.16.22-1.637.365-.764.233-1.087.468-1.314.953-.105.225-.121.306-.122.6-.001.423.103.71.359.995.22.245.455.386.784.47.322.082.533.059 1.109-.123.251-.079.462-.138.469-.13.007.007-.048.184-.123.394-.255.714-.263 1.032-.036 1.495.129.264.463.591.711.698.628.269 1.257.137 1.718-.361.172-.186.24-.305.384-.682.21-.549.468-1.115.614-1.344l.106-.169.163.058c1.478.521 2.783 1.958 3.461 3.809l.135.37-.103.29a10.6 10.6 0 0 1-.85 1.71c-.255.391-.405.777-.404 1.034.003.777.622 1.455 1.383 1.516.412.033.877-.133 1.159-.416.681-.681 1.86-3.281 1.864-4.109.002-.527-.477-1.889-1.02-2.9-1.07-1.996-2.876-3.565-4.846-4.213-.272-.089-.28-.096-.312-.252-.122-.592-.214-.886-.398-1.26-.183-.374-.25-.464-.608-.823-.563-.564-1.074-.853-1.752-.993-.266-.055-.712-.064-3.319-.06-1.834.002-3.065.019-3.148.042M4.209 7.668c.674.489 1.155 1.41 1.253 2.403.026.269.019.309-.136.721-.263.704-.34 1.026-.314 1.327.022.247.276 1.066.416 1.336.14.272-.055 1.254-.374 1.873-.152.298-.259.44-.533.712-.297.295-.63.54-.845.62-.053.02-.071-.032-.11-.308-.064-.458-.057-1.415.013-1.872.111-.724.258-1.123.582-1.586a1.53 1.53 0 0 0-.006-1.795c-.424-.604-.634-1.437-.635-2.52 0-.486.057-1.149.106-1.228.023-.039.296.11.583.317m13.307 2.909c-.561.215-.918.668-1.004 1.274-.167 1.183.387 2.046 1.373 2.138.433.041.842-.112 1.163-.433.372-.372.528-.954.444-1.65-.071-.588-.349-1-.842-1.249-.195-.099-.28-.116-.608-.125-.253-.007-.431.008-.526.045m-4.407 5.073c.114.334.202.612.196.618-.024.025-.635-.171-1.034-.332-1.499-.602-2.742-1.563-3.58-2.767-.204-.293-.611-1.073-.611-1.17 0-.078.297-.687.457-.937l.15-.235 2.108 2.108 2.108 2.107zm-.689 3.493c.245.075 1.033.237 1.36.279.195.024.221.036.14.06-.138.041-1.84.046-1.84.005a3 3 0 0 1 .134-.407z"/></svg>