<svg xmlns="http://www.w3.org/2000/svg" width="24" height="24" fill="none" stroke="currentColor" stroke-linecap="round" stroke-linejoin="round" stroke-width="3"><path fill="#000" fill-rule="evenodd" stroke="none" d="m12.92 6.504-.52.059c-2.152.249-4.515 1.312-6.61 2.976-.237.187-.446.341-.465.341-.095 0-1.309-1.546-1.82-2.316-.383-.579-.545-.75-.864-.912-.2-.101-.26-.112-.641-.112-.377 0-.443.011-.644.11a1.68 1.68 0 0 0-.698.692c-.239.486-.197 1.007.124 1.536.422.697 1.247 1.799 2.023 2.702l.362.421-.335.389C1.734 13.666.703 15.112.573 15.559c-.227.781.18 1.584.947 1.864.274.101.727.088 1.011-.028.372-.153.551-.327.953-.93.204-.305.5-.723.656-.93.416-.545 1.145-1.415 1.186-1.415.02 0 .189.124.376.275a18 18 0 0 0 1.759 1.235c2.065 1.266 4.119 1.89 6.218 1.89 2.811 0 5.387-1.031 8.002-3.204.497-.412 1.299-1.162 1.506-1.407.403-.476.397-1.371-.012-1.837-.173-.198-1.154-1.113-1.495-1.395-2.107-1.743-4.243-2.764-6.488-3.1-.39-.059-1.96-.109-2.272-.073m2.02 3.073c1.101.199 2.085.577 3.137 1.204.512.305 1.683 1.15 1.683 1.214 0 .066-.826.684-1.428 1.07-1.059.677-2.238 1.156-3.333 1.354-.506.092-1.607.125-2.108.063-1.448-.181-2.74-.675-4.151-1.591-.418-.27-1.219-.856-1.219-.891 0-.041.837-.645 1.322-.955 1.294-.824 2.568-1.318 3.895-1.508.481-.07 1.723-.047 2.202.04"/></svg>