<svg xmlns="http://www.w3.org/2000/svg" width="24" height="24" fill="none" stroke="currentColor" stroke-linecap="round" stroke-linejoin="round" stroke-width="3"><path fill="#000" fill-rule="evenodd" stroke="none" d="M1.516.577C.659.905.276 1.832.655 2.66c.082.179.273.396.963 1.094l.861.871.01 8.838L2.5 22.3l.105.248c.25.595.761.938 1.395.938s1.145-.343 1.395-.938L5.5 22.3l.012-3.225.012-3.224.288-.085c.529-.155.984-.213 1.828-.235 1.296-.032 1.811.085 3.818.868 1.784.696 2.507.907 3.562 1.041l.318.04 2.881 2.878c2.544 2.541 2.908 2.89 3.113 2.983a1.502 1.502 0 0 0 2.01-2.009c-.095-.21-1.076-1.202-10.274-10.395C1.635-.49 2.738.551 2.042.532c-.253-.007-.431.008-.526.045m6 .002c-1.045.384-1.348 1.699-.571 2.476.32.32.73.462 1.341.464.666.003 1.556.25 3.172.88 1.56.609 2.231.819 3.122.977.898.16 2.282.153 3.331-.017.27-.043.508-.079.529-.079.023 0 .042 1.711.049 4.51l.011 4.51.105.248c.25.595.761.938 1.395.938s1.145-.343 1.395-.938l.105-.248.011-5.6c.008-3.805-.002-5.69-.031-5.88a1.53 1.53 0 0 0-.828-1.162c-.182-.092-.291-.117-.574-.131-.4-.019-.639.043-.898.233-.574.421-1.342.638-2.546.719-1.243.084-2.153-.103-3.894-.799C10.952.964 10.144.723 9.068.582 8.492.506 7.716.505 7.516.579m3.271 12.368a1.6 1.6 0 0 1-.267-.07c-.354-.11-1.137-.263-1.639-.32-.783-.089-2.468-.006-3.192.156l-.169.038V7.66l2.638 2.638a237 237 0 0 1 2.629 2.649"/></svg>