<svg xmlns="http://www.w3.org/2000/svg" width="24" height="24" fill="none" stroke="currentColor" stroke-linecap="round" stroke-linejoin="round" stroke-width="3"><path fill="#000" fill-rule="evenodd" stroke="none" d="M16.5.593c-.11.041-2.486 1.219-5.28 2.618C5.683 5.983 5.884 5.87 5.668 6.327c-.29.613-.185 1.26.281 1.728.171.173.672.433 4.86 2.528l4.668 2.336.012 4.691.011 4.69.105.248c.25.595.761.938 1.395.938s1.145-.343 1.395-.938l.105-.248.011-10.1c.006-6.076-.005-10.207-.027-10.369a1.5 1.5 0 0 0-.833-1.174C17.353.506 16.812.476 16.5.593M15.48 7v2.56l-2.54-1.27C11.543 7.592 10.4 7.011 10.4 7c0-.015 5.016-2.546 5.07-2.558.006-.001.01 1.15.01 2.558"/></svg>