<svg xmlns="http://www.w3.org/2000/svg" width="24" height="24" fill="none" stroke="currentColor" stroke-linecap="round" stroke-linejoin="round" stroke-width="3"><path fill="#000" fill-rule="evenodd" stroke="none" d="m6.9.546-.5.057c-1.46.166-2.848.713-3.486 1.375-.203.21-.344.513-.394.842-.029.192-.039 3.286-.031 9.88l.011 9.6.105.248c.25.595.761.938 1.395.938s1.145-.343 1.395-.938L5.5 22.3l.012-3.225.012-3.224.288-.085c.529-.155.984-.213 1.828-.235 1.296-.032 1.811.085 3.818.868 2.002.781 2.808.996 4.042 1.079.936.062 2.334-.053 3.16-.261.731-.184 1.459-.482 1.927-.787.539-.353.812-.729.891-1.23.052-.329.056-12.031.004-12.39a1.51 1.51 0 0 0-.834-1.154c-.208-.106-.264-.116-.648-.116s-.439.01-.64.114a2 2 0 0 0-.3.186c-.215.191-.883.433-1.489.538-.196.034-.617.08-.937.101-1.243.084-2.153-.103-3.894-.799C10.378.735 9.433.514 7.808.526c-.433.003-.842.012-.908.02m2.066 3.052c.578.099 1.234.31 2.492.801 1.56.609 2.231.819 3.122.977.898.16 2.282.153 3.331-.017.27-.043.508-.079.53-.079.025 0 .039 1.57.039 4.434v4.434l-.29.086c-.426.127-.896.201-1.553.245-1.247.084-2.155-.103-3.897-.799-2.463-.985-3.397-1.193-5.179-1.148-.818.021-1.412.078-1.872.181l-.169.038V3.852l.29-.085c.592-.174 1.071-.231 2.016-.24.523-.005.794.012 1.14.071"/></svg>