<svg xmlns="http://www.w3.org/2000/svg" width="24" height="24" fill="none" stroke="currentColor" stroke-linecap="round" stroke-linejoin="round" stroke-width="3"><path fill="#000" fill-rule="evenodd" stroke="none" d="M11.4.578c-.687.174-1.599.781-2.185 1.452-.812.932-1.21 1.913-1.214 2.996-.003 1.072.384 2.032 1.203 2.982.152.176.287.363.301.416a.507.507 0 0 1-.481.616c-.242 0-.361-.108-.541-.495-.182-.39-.4-.619-.762-.797-.234-.115-.295-.128-.621-.128s-.387.012-.621.128c-.501.248-.767.625-.9 1.272-.096.468-.088 1.462.018 2.067a6.48 6.48 0 0 0 6.383 5.398 6.4 6.4 0 0 0 4.08-1.418c2.173-1.747 2.988-4.655 2.031-7.247a8 8 0 0 0-.261-.6c-.494-.997-1.003-1.599-2.15-2.541-1.243-1.021-1.65-1.57-2.179-2.939-.248-.642-.43-.872-.859-1.085-.191-.095-.278-.112-.622-.122a2.7 2.7 0 0 0-.62.045m.103 3.952c.475.804 1.225 1.62 2.278 2.476.845.688 1.181 1.092 1.448 1.744.21.511.262.824.239 1.43-.024.61-.113.972-.35 1.413-.65 1.209-1.778 1.894-3.118 1.894-1.027 0-1.854-.36-2.56-1.115-.266-.285-.283-.313-.196-.322 1.381-.14 2.509-.941 2.993-2.125.229-.56.263-.741.26-1.385-.002-.535-.014-.639-.112-.958a3.5 3.5 0 0 0-.667-1.25c-.752-.868-.866-1.253-.558-1.879.069-.139.13-.253.137-.253.006 0 .099.149.206.33M4.449 16.605c-.279.107-.656.458-.784.728a2.4 2.4 0 0 0-.146.454c-.053.27-.017.508.126.845.102.238.446.589.691.703.112.053.64.22 1.174.371s.97.283.97.294-.437.143-.97.294c-.534.151-1.062.318-1.174.371-.245.114-.589.465-.691.703-.143.337-.179.575-.126.845a1.5 1.5 0 0 0 .481.881c.302.279.592.396.98.396.245-.001.699-.121 3.65-.965L12 21.56l3.37.965c2.951.844 3.405.964 3.65.965.388 0 .678-.117.98-.396.636-.59.668-1.488.075-2.115a1.7 1.7 0 0 0-.411-.314c-.112-.053-.64-.22-1.174-.371s-.97-.283-.97-.294.437-.143.97-.294c.534-.151 1.062-.318 1.174-.371.556-.26.933-.986.815-1.565a1.47 1.47 0 0 0-.488-.868c-.309-.28-.569-.382-.971-.382-.269 0-.627.094-3.659.96L12 18.44l-3.361-.96c-3.115-.89-3.384-.96-3.67-.958-.21.002-.377.028-.52.083"/></svg>