<svg xmlns="http://www.w3.org/2000/svg" width="24" height="24" fill="none" stroke="currentColor" stroke-linecap="round" stroke-linejoin="round" stroke-width="3"><path fill="#000" fill-rule="evenodd" stroke="none" d="M11.467 1.597c-.28.112-.538.327-1.17.97C9.313 3.571 8.748 4.39 8.388 5.34c-.266.7-.326 1.036-.326 1.84-.001.655.009.76.11 1.158.148.586.328 1.029.753 1.847.459.883.516 1.05.544 1.578.025.495-.009.632-.218.877a.98.98 0 0 1-1.444.068c-.197-.189-.249-.316-.306-.753-.061-.473-.18-.739-.448-1.008a1.9 1.9 0 0 0-.412-.298c-.198-.098-.265-.109-.641-.109-.379 0-.442.011-.647.112-.394.193-.824.728-1.179 1.465-.847 1.763-.892 3.814-.128 5.863a8.2 8.2 0 0 0 1.914 2.984c.911.919 1.842 1.527 3.029 1.978 1.01.384 1.901.546 3.011.546s2.001-.162 3.011-.546a8.2 8.2 0 0 0 2.992-1.939 8 8 0 0 0 1.635-2.289c.582-1.213.848-2.359.849-3.654.001-1.301-.245-2.337-.826-3.48-.589-1.16-1.374-2.106-2.642-3.18-1.259-1.068-2.082-2.083-2.715-3.349-.396-.793-.552-1.212-.768-2.071-.078-.308-.184-.633-.235-.721-.129-.222-.465-.527-.692-.63-.273-.122-.875-.14-1.142-.032m.127 4.753c.782 1.588 1.893 2.983 3.386 4.25 1.422 1.208 2.057 2.091 2.386 3.32.116.435.146 1.416.059 1.93-.355 2.084-1.734 3.707-3.711 4.368-2.07.693-4.44.039-5.862-1.618-.722-.841-1.119-1.734-1.312-2.953l-.028-.172.194.097c2.25 1.134 4.982-.093 5.653-2.538.114-.416.157-.963.118-1.49-.069-.914-.251-1.495-.821-2.612-.502-.984-.595-1.259-.592-1.752a2.7 2.7 0 0 1 .053-.54c.061-.22.244-.64.28-.64.014 0 .103.157.197.35"/></svg>