<svg xmlns="http://www.w3.org/2000/svg" width="24" height="24" fill="none" stroke="currentColor" stroke-linecap="round" stroke-linejoin="round" stroke-width="3"><path fill="#000" fill-rule="evenodd" stroke="none" d="M8.98.52c-.851.019-.888.024-1.109.128-.251.117-.582.421-.693.636a1.5 1.5 0 0 0 .392 1.88c.217.172.569.316.772.316h.138v.41q.001.759.172 1.11c.125.255.465.585.737.712.2.094.282.108.611.108.31 0 .416-.017.577-.091.399-.184.733-.554.858-.949.028-.088.061-.407.073-.71l.023-.55h.949v2.39c.001 2.494.016 2.769.172 3.09.125.255.465.585.737.712.2.094.282.108.611.108.31 0 .416-.017.577-.091.395-.182.721-.54.863-.949.045-.129.059-.661.07-2.725l.014-2.565.19-.018c.411-.04.927-.398 1.117-.776a1.505 1.505 0 0 0-.814-2.094C15.8.521 15.724.519 12.827.51A235 235 0 0 0 8.98.52M1.516.577C.655.907.276 1.831.658 2.668c.095.206.515.641 3.807 3.936l3.701 3.704-2.458 4.917c-2.728 5.456-2.618 5.204-2.577 5.91.037.651.269 1.165.736 1.638.277.28.726.539 1.133.654.247.069.591.073 7 .073 6.332 0 6.756-.004 6.997-.071.4-.11.858-.375 1.135-.655l.244-.247.382.363c.416.395.667.539 1.024.587 1.2.163 2.067-1.029 1.56-2.145-.095-.21-1.076-1.202-10.274-10.395C1.635-.49 2.738.551 2.042.532c-.253-.007-.431.008-.526.045m9.398 13.934c-.795.005-1.454.003-1.462-.006s.202-.453.469-.987l.486-.971.977.977.977.976zm5.173 3.719.706.71.384.77c.21.423.383.778.383.79 0 .011-2.502.02-5.56.02s-5.56-.009-5.56-.02.333-.686.74-1.5l.74-1.48h7.461z"/></svg>