<svg xmlns="http://www.w3.org/2000/svg" width="24" height="24" fill="none" stroke="currentColor" stroke-linecap="round" stroke-linejoin="round" stroke-width="3"><path fill="#000" fill-rule="evenodd" stroke="none" d="M1.516.577C.656.906.276 1.832.658 2.666c.09.198.364.49 2.023 2.154C4.193 6.337 4.6 6.766 4.6 6.845c0 .136.161.6.31.895.175.347.439.688.969 1.258.258.276.493.547.524.602.048.084.061.949.079 5.48.02 4.74.03 5.411.086 5.641.339 1.387 1.346 2.39 2.722 2.711.256.06.578.068 2.71.068s2.454-.008 2.71-.068a3.7 3.7 0 0 0 1.798-1.004c.605-.633.894-1.294.98-2.239l.046-.511 1.785 1.779c1.54 1.535 1.817 1.795 2.015 1.885 1.31.6 2.605-.696 2.008-2.01-.095-.21-1.076-1.202-10.274-10.395C1.635-.49 2.738.551 2.042.532c-.253-.007-.431.008-.526.045m5 .002c-.365.134-.71.443-.864.773a1.5 1.5 0 0 0 1.158 2.13c.138.02 2.369.037 4.96.037l4.71.001v.998l-2.95.011-2.95.011-.228.116a1.51 1.51 0 0 0-.829 1.126 1.494 1.494 0 0 0 1.287 1.7c.138.02 1.226.037 2.42.037l2.17.001-.184.25a3.75 3.75 0 0 0-.662 1.57c-.032.174-.053.598-.053 1.12-.001.816.002.847.104 1.088.25.595.761.938 1.395.938.635 0 1.151-.347 1.392-.938.093-.229.103-.308.119-1.028.014-.589.034-.809.079-.9.034-.066.263-.336.51-.6.869-.929 1.142-1.394 1.329-2.26.053-.249.067-.668.081-2.462.01-1.313.001-2.274-.023-2.449-.076-.543-.363-.952-.839-1.193L18.42.54 12.54.533C7.72.526 6.634.535 6.516.579m7.964 17.828v1.787l-.103.122a.6.6 0 0 1-.25.163c-.199.055-4.055.055-4.254 0a.6.6 0 0 1-.25-.163l-.103-.122V11.66L12 14.14l2.48 2.48z"/></svg>