<svg xmlns="http://www.w3.org/2000/svg" width="24" height="24" fill="none" stroke="currentColor" stroke-linecap="round" stroke-linejoin="round" stroke-width="3"><path fill="#000" fill-rule="evenodd" stroke="none" d="M8.98.52c-.851.019-.888.024-1.109.128-.251.117-.582.421-.693.636a1.5 1.5 0 0 0 .392 1.88c.217.172.569.316.772.316h.138V5.9c0 1.331-.014 2.42-.032 2.42-.068 0-.884.506-1.228.761-3.056 2.27-4.081 6.435-2.426 9.859.406.839.821 1.43 1.485 2.114a7.95 7.95 0 0 0 7.577 2.207 7.85 7.85 0 0 0 3.865-2.207c.232-.239.504-.542.605-.674 1.863-2.441 2.19-5.652.856-8.4a8.1 8.1 0 0 0-2.402-2.899c-.344-.255-1.16-.761-1.228-.761-.018 0-.032-1.087-.032-2.415V3.49l.192-.018c.413-.04.928-.398 1.119-.776a1.504 1.504 0 0 0-.818-2.095c-.224-.084-.277-.085-3.19-.093C11.193.504 9.464.509 8.98.52m3.5 5.915c0 1.804.015 2.996.041 3.128.053.281.166.508.365.734.194.221.393.342.794.485 1.273.453 2.261 1.361 2.86 2.628.174.368.388 1.023.353 1.08-.023.039-9.763.039-9.786 0-.035-.057.179-.712.353-1.08.599-1.267 1.587-2.175 2.86-2.628.392-.139.589-.258.784-.469a1.5 1.5 0 0 0 .375-.75c.026-.132.041-1.324.041-3.128V3.52h.96zm4.08 11.117c0 .07-.422.764-.602.988a5.17 5.17 0 0 1-2.707 1.788c-.453.122-.5.127-1.251.127s-.798-.005-1.251-.127a5.3 5.3 0 0 1-1.64-.769c-.418-.3-1.018-.913-1.274-1.3-.169-.257-.395-.667-.395-.718 0-.011 2.052-.021 4.56-.021s4.56.014 4.56.032"/></svg>