<svg xmlns="http://www.w3.org/2000/svg" width="24" height="24" fill="none" stroke="currentColor" stroke-linecap="round" stroke-linejoin="round" stroke-width="3"><path fill="#000" fill-rule="evenodd" stroke="none" d="M8.98.52c-.851.019-.888.024-1.109.128-.251.117-.582.421-.693.636a1.5 1.5 0 0 0 .392 1.88c.217.172.569.316.772.316h.138v6.2l-2.615 5.231c-2.901 5.801-2.775 5.516-2.734 6.224.037.651.269 1.165.736 1.638.277.28.726.539 1.133.654.247.069.591.073 7 .073 7.589 0 6.937.027 7.572-.311a2.57 2.57 0 0 0 1.193-1.428c.046-.144.093-.425.104-.626.041-.708.167-.423-2.734-6.224L15.52 9.68V3.49l.192-.018c.413-.04.928-.398 1.119-.776a1.505 1.505 0 0 0-.814-2.094C15.8.521 15.724.519 12.827.51A235 235 0 0 0 8.98.52m3.5 5.956c0 3.221.018 3.584.2 4.13.064.19.513 1.14.998 2.11s.882 1.773.882 1.784-1.152.02-2.56.02-2.56-.009-2.56-.02.397-.814.882-1.784.934-1.92.998-2.11c.182-.546.2-.909.2-4.13V3.52h.96zM16.82 19a80 80 0 0 1 .74 1.5c0 .011-2.502.02-5.56.02s-5.56-.009-5.56-.02.333-.686.74-1.5l.74-1.48h8.16z"/></svg>