<svg xmlns="http://www.w3.org/2000/svg" width="24" height="24" fill="none" stroke="currentColor" stroke-linecap="round" stroke-linejoin="round" stroke-width="3"><path fill="#000" fill-rule="evenodd" stroke="none" d="M5.516.579c-.365.134-.71.443-.864.772-.164.349-.18.642-.162 2.947.018 2.285.028 2.422.223 2.982.197.57.468.968 1.166 1.718.258.276.493.547.524.602.048.084.061.949.079 5.48.02 4.74.03 5.411.086 5.641.339 1.387 1.346 2.39 2.722 2.711.256.06.578.068 2.71.068s2.454-.008 2.71-.068a3.7 3.7 0 0 0 1.798-1.004c.573-.6.883-1.272.971-2.111.024-.228.04-2.384.04-5.469.001-4.636.007-5.103.066-5.22.037-.07.268-.344.515-.608.869-.929 1.142-1.394 1.329-2.26.053-.249.067-.668.081-2.462.01-1.313.001-2.274-.023-2.449-.076-.543-.363-.952-.839-1.193L18.42.54 12.04.533C6.804.526 5.634.535 5.516.579M16.48 4.02v.5H7.52v-1h8.96zm-1.264 3.75c-.318.431-.516.881-.646 1.47-.06.269-.069.86-.088 5.647l-.022 5.347-.097.103a.6.6 0 0 1-.24.143c-.191.053-4.055.053-4.246 0a.6.6 0 0 1-.24-.143l-.097-.103-.022-5.347C9.499 10.1 9.49 9.509 9.43 9.24c-.13-.589-.328-1.039-.646-1.47L8.6 7.52h6.8zm-3.7 2.807c-1.05.402-1.349 1.7-.571 2.478.862.863 2.369.365 2.532-.837a1.5 1.5 0 0 0-.827-1.561c-.195-.099-.28-.116-.608-.125q-.382-.01-.526.045"/></svg>