<svg xmlns="http://www.w3.org/2000/svg" width="24" height="24" fill="none" stroke="currentColor" stroke-linecap="round" stroke-linejoin="round" stroke-width="3"><path fill="#000" fill-rule="evenodd" stroke="none" d="M6.56 1.573c-.891.3-1.294 1.236-.902 2.095.094.205.417.543 2.774 2.9s2.695 2.68 2.9 2.774c.433.197.903.197 1.336 0 .205-.094.543-.417 2.9-2.774s2.68-2.695 2.774-2.9c.354-.777.06-1.63-.694-2.012l-.228-.116-5.36-.007c-4.03-.006-5.395.004-5.5.04m6.11 3.617-.67.67-.67-.67-.67-.67h2.68zM1.516 10.578c-.531.199-.921.672-.993 1.204a1.494 1.494 0 0 0 1.287 1.7c.138.02.673.036 1.19.036s1.052-.016 1.19-.036a1.494 1.494 0 0 0 1.287-1.7 1.51 1.51 0 0 0-.829-1.126l-.228-.116-1.38-.008c-1.079-.007-1.412.003-1.524.046m6 0c-.531.199-.921.672-.993 1.204a1.494 1.494 0 0 0 1.287 1.7c.138.02.673.036 1.19.036s1.052-.016 1.19-.036a1.494 1.494 0 0 0 1.287-1.7 1.51 1.51 0 0 0-.829-1.126l-.228-.116-1.38-.008c-1.079-.007-1.412.003-1.524.046m6 0c-.531.199-.921.672-.993 1.204a1.494 1.494 0 0 0 1.287 1.7c.138.02.673.036 1.19.036s1.052-.016 1.19-.036a1.494 1.494 0 0 0 1.287-1.7 1.51 1.51 0 0 0-.829-1.126l-.228-.116-1.38-.008c-1.079-.007-1.412.003-1.524.046m6 0c-.531.199-.921.672-.993 1.204a1.494 1.494 0 0 0 1.287 1.7c.138.02.673.036 1.19.036s1.052-.016 1.19-.036a1.494 1.494 0 0 0 1.287-1.7 1.51 1.51 0 0 0-.829-1.126l-.228-.116-1.38-.008c-1.079-.007-1.412.003-1.524.046m-8 3.999a2.3 2.3 0 0 0-.32.163c-.097.059-1.359 1.29-2.804 2.734-2.319 2.318-2.64 2.653-2.734 2.858-.433.949.117 1.984 1.142 2.146.328.052 10.032.056 10.39.004 1.026-.148 1.587-1.196 1.152-2.15-.094-.205-.414-.539-2.774-2.894-3.048-3.042-2.865-2.891-3.528-2.907-.246-.006-.431.01-.524.046M12.7 18.84l.679.68h-2.758l.679-.68c.374-.374.689-.68.7-.68s.326.306.7.68"/></svg>