<svg xmlns="http://www.w3.org/2000/svg" width="24" height="24" fill="none" stroke="currentColor" stroke-linecap="round" stroke-linejoin="round" stroke-width="3"><path fill="#000" fill-rule="evenodd" stroke="none" d="M11.516.577c-.371.142-.711.446-.864.774-.149.319-.181.681-.164 1.869.015 1.052.018 1.086.118 1.328.246.593.759.938 1.394.938s1.148-.345 1.394-.938c.1-.242.103-.276.118-1.328.017-1.187-.015-1.549-.163-1.869-.124-.266-.406-.546-.699-.694-.195-.099-.28-.116-.608-.125q-.382-.01-.526.045m-7.076.97c-1.426.25-2.516 1.286-2.872 2.732-.058.234-.066 1.006-.078 7.421-.009 4.735.001 7.301.028 7.575.048.482.156.873.347 1.261.545 1.103 1.573 1.812 2.818 1.943.471.05 3.169.052 3.507.003a1.494 1.494 0 0 0 1.287-1.7 1.51 1.51 0 0 0-.829-1.126l-.228-.116-1.78-.02c-1.895-.021-1.875-.019-2.037-.225l-.083-.106V4.792l.136-.136.136-.136 1.574-.001c.866 0 1.686-.017 1.824-.037a1.494 1.494 0 0 0 1.287-1.7 1.51 1.51 0 0 0-.829-1.126L8.42 1.54l-1.94-.005c-1.067-.003-1.985.002-2.04.012m11.076.031c-.531.199-.921.672-.993 1.204a1.494 1.494 0 0 0 1.287 1.7c.138.02.958.037 1.824.037l1.574.001.136.136.136.136v14.397l-.083.106c-.162.206-.142.204-2.037.225l-1.78.02-.228.116c-.93.471-1.133 1.673-.407 2.399.242.242.53.38.906.432.47.066 3.544.018 3.879-.06a3.7 3.7 0 0 0 1.778-.999c.573-.6.883-1.272.971-2.111.054-.511.054-14.123 0-14.634-.154-1.465-1.111-2.619-2.526-3.05-.284-.087-.354-.09-2.293-.099-1.604-.009-2.029 0-2.144.044m-4 4.999c-.371.142-.711.446-.864.774-.149.319-.181.681-.164 1.869.015 1.052.018 1.086.118 1.328.246.593.759.938 1.394.938s1.148-.345 1.394-.938c.1-.242.103-.276.118-1.328.017-1.187-.015-1.549-.163-1.869-.124-.266-.406-.546-.699-.694-.195-.099-.28-.116-.608-.125q-.382-.01-.526.045m0 6c-.371.142-.711.446-.864.774-.149.319-.181.681-.164 1.869.015 1.052.018 1.086.118 1.328.246.593.759.938 1.394.938s1.148-.345 1.394-.938c.1-.242.103-.276.118-1.328.017-1.187-.015-1.549-.163-1.869-.124-.266-.406-.546-.699-.694-.195-.099-.28-.116-.608-.125q-.382-.01-.526.045m0 6c-.371.142-.711.446-.864.774-.149.319-.181.681-.164 1.869.015 1.052.018 1.086.118 1.328.246.593.759.938 1.394.938s1.148-.345 1.394-.938c.1-.242.103-.276.118-1.328.017-1.187-.015-1.549-.163-1.869-.124-.266-.406-.546-.699-.694-.195-.099-.28-.116-.608-.125q-.382-.01-.526.045"/></svg>