<svg xmlns="http://www.w3.org/2000/svg" width="24" height="24" fill="none" stroke="currentColor" stroke-linecap="round" stroke-linejoin="round" stroke-width="3"><path fill="#000" fill-rule="evenodd" stroke="none" d="M11.516.577c-.371.142-.711.446-.864.774-.149.319-.181.681-.164 1.869.015 1.052.018 1.086.118 1.328.246.593.759.938 1.394.938s1.148-.345 1.394-.938c.1-.242.103-.276.118-1.328.017-1.187-.015-1.549-.163-1.869-.124-.266-.406-.546-.699-.694-.195-.099-.28-.116-.608-.125q-.382-.01-.526.045m-9 5a1.54 1.54 0 0 0-.998 1.233c-.052.358-.048 10.062.004 10.39.162 1.025 1.196 1.575 2.146 1.142.205-.094.543-.417 2.9-2.774s2.68-2.695 2.774-2.9a1.58 1.58 0 0 0 0-1.336c-.094-.205-.414-.539-2.774-2.894C3.52 5.396 3.703 5.547 3.04 5.531c-.246-.006-.431.01-.524.046m18 0a2.3 2.3 0 0 0-.32.163c-.097.059-1.359 1.29-2.804 2.734-2.319 2.318-2.64 2.653-2.734 2.858a1.58 1.58 0 0 0 0 1.336c.094.205.417.543 2.774 2.9s2.695 2.68 2.9 2.774c.95.433 1.984-.117 2.146-1.142.052-.328.056-10.032.004-10.39a1.51 1.51 0 0 0-.834-1.154c-.198-.101-.279-.117-.608-.125-.246-.006-.431.01-.524.046m-9 1c-.371.142-.711.446-.864.774-.149.319-.181.681-.164 1.869.015 1.052.018 1.086.118 1.328.246.593.759.938 1.394.938s1.148-.345 1.394-.938c.1-.242.103-.276.118-1.328.017-1.187-.015-1.549-.163-1.869-.124-.266-.406-.546-.699-.694-.195-.099-.28-.116-.608-.125q-.382-.01-.526.045M5.19 12.67l-.67.67v-2.68l.67.67.67.67zm14.29-.66v1.33l-.67-.67-.669-.67.659-.66c.362-.363.664-.66.67-.66.005 0 .01.598.01 1.33m-7.964.567c-.371.142-.711.446-.864.774-.149.319-.181.681-.164 1.869.015 1.052.018 1.086.118 1.328.246.593.759.938 1.394.938s1.148-.345 1.394-.938c.1-.242.103-.276.118-1.328.017-1.187-.015-1.549-.163-1.869-.124-.266-.406-.546-.699-.694-.195-.099-.28-.116-.608-.125q-.382-.01-.526.045m0 6c-.371.142-.711.446-.864.774-.149.319-.181.681-.164 1.869.015 1.052.018 1.086.118 1.328.246.593.759.938 1.394.938s1.148-.345 1.394-.938c.1-.242.103-.276.118-1.328.017-1.187-.015-1.549-.163-1.869-.124-.266-.406-.546-.699-.694-.195-.099-.28-.116-.608-.125q-.382-.01-.526.045"/></svg>