<svg xmlns="http://www.w3.org/2000/svg" width="24" height="24" fill="none" stroke="currentColor" stroke-linecap="round" stroke-linejoin="round" stroke-width="3"><path fill="#000" fill-rule="evenodd" stroke="none" d="M8.277.558C6.806.827 5.61 1.719 4.961 3.032A4.34 4.34 0 0 0 4.513 5q0 1.542.935 2.75l.193.25-.193.25a4.6 4.6 0 0 0-.889 2.03c-.059.334-.059 1.106 0 1.44a4.53 4.53 0 0 0 3.637 3.706c.596.116 1.498.064 2.094-.12l.19-.058v.739c0 .407-.013.733-.03.726l-.43-.207a8.5 8.5 0 0 0-2.048-.703 13 13 0 0 0-2.832-.277c-.524.013-.575.021-.788.13a1.51 1.51 0 0 0-.831 1.136c-.044.313.017 1.107.121 1.586a6.1 6.1 0 0 0 .921 2.142c.115.165.41.499.654.742 1.361 1.355 3.382 2.097 6.03 2.213 3.358.147 5.938-.615 7.555-2.233.818-.819 1.309-1.721 1.556-2.864.104-.479.165-1.273.121-1.586a1.51 1.51 0 0 0-.831-1.136l-.228-.116-.88.002c-.95.003-1.609.068-2.41.24-.988.212-1.489.393-2.58.93-.016.008-.03-.318-.03-.725v-.739l.19.058a4.6 4.6 0 0 0 2.384.053 4.47 4.47 0 0 0 3.036-2.599 4.48 4.48 0 0 0-.578-4.51L18.359 8l.193-.25a4.48 4.48 0 0 0 .578-4.51 4.6 4.6 0 0 0-1.49-1.882c-.322-.241-1.042-.58-1.5-.707-.37-.102-.455-.11-1.14-.11s-.77.008-1.14.11c-.508.141-1.198.476-1.571.765L12 1.639l-.289-.223c-.368-.284-1.061-.624-1.551-.759C9.837.568 9.681.55 9.12.538c-.363-.007-.742.002-.843.02m1.376 3.1c.4.203.747.65.809 1.043.025.156.021.163-.128.234-.453.215-.982.714-1.317 1.243-.19.3-.2.309-.328.288-.394-.064-.824-.404-1.033-.818C7.55 5.44 7.54 5.384 7.54 5c0-.365.013-.446.098-.62.173-.352.515-.664.878-.803q.144-.055.526-.045c.329.009.413.026.611.126m6 0c.272.138.573.445.709.722.085.174.098.255.098.62 0 .384-.01.44-.116.648-.209.414-.639.754-1.033.818-.128.021-.138.012-.328-.288-.335-.529-.864-1.028-1.317-1.243-.146-.07-.153-.082-.134-.224.045-.332.349-.769.684-.981.278-.175.419-.21.826-.198.329.009.413.026.611.126m-3.309 3.998c.12.12.136.161.136.344s-.016.224-.136.344-.161.136-.344.136-.224-.016-.344-.136-.136-.161-.136-.344.016-.224.136-.344.161-.136.344-.136.224.016.344.136M9.06 9.884c.283.43.681.822 1.113 1.096.31.196.312.199.288.339-.069.389-.436.855-.813 1.03a1.5 1.5 0 0 1-1.992-.701c-.106-.208-.116-.264-.116-.648 0-.365.013-.446.098-.62.174-.353.521-.67.878-.801.266-.098.287-.086.544.305m6.58-.233c.257.121.567.43.703.698.107.212.117.266.117.651 0 .384-.01.44-.116.648a1.5 1.5 0 0 1-1.992.701c-.377-.175-.744-.641-.813-1.03-.024-.14-.022-.143.288-.339.433-.275.83-.666 1.113-1.098.239-.365.24-.366.38-.342.077.014.221.064.32.111m-7.6 9.273c.734.241 1.426.671 1.796 1.115.112.135.204.26.204.279 0 .018-.167-.002-.37-.046-1.101-.239-2.01-.715-2.509-1.315-.111-.133-.201-.256-.201-.275 0-.048.625.093 1.08.242m9-.246c0 .021-.09.146-.201.279-.499.6-1.408 1.076-2.509 1.315-.203.044-.37.064-.37.046s.092-.144.204-.279c.485-.582 1.357-1.044 2.456-1.3l.41-.096c.005-.002.01.014.01.035"/></svg>