<svg xmlns="http://www.w3.org/2000/svg" width="24" height="24" fill="none" stroke="currentColor" stroke-linecap="round" stroke-linejoin="round" stroke-width="3"><path fill="#000" fill-rule="evenodd" stroke="none" d="M6.56 1.58c-1.682.288-3.118 1.208-4.044 2.592C1.84 5.183 1.515 6.263 1.514 7.5c-.001 1.597.592 3.061 1.692 4.174l.322.326-.322.326c-1.097 1.11-1.691 2.575-1.692 4.174a5.83 5.83 0 0 0 1.753 4.233A5.84 5.84 0 0 0 7.5 22.486c1.594 0 3.052-.59 4.17-1.688l.331-.326.325.322c1.111 1.097 2.577 1.692 4.174 1.692 1.628 0 3.066-.595 4.226-1.747 1.153-1.145 1.76-2.606 1.76-4.239 0-1.594-.59-3.052-1.688-4.169L20.473 12l.325-.331c1.098-1.117 1.688-2.575 1.688-4.169a5.7 5.7 0 0 0-.447-2.288c-.796-1.948-2.577-3.329-4.707-3.649-.37-.055-1.294-.055-1.664 0-1.307.196-2.475.776-3.378 1.677l-.29.289-.29-.289c-.903-.901-2.071-1.481-3.378-1.677-.381-.057-1.397-.048-1.772.017m1.62 3c.154.032.442.139.64.238a2.96 2.96 0 0 1 1.362 1.362c.215.43.305.829.29 1.272l-.012.322-.19.078-.191.078-.59-.575C8.726 6.612 8.595 6.54 8 6.54c-.384 0-.44.01-.648.116a1.5 1.5 0 0 0-.829 1.562c.056.412.182.606.817 1.257l.589.603-.09.216c-.088.212-.093.217-.234.203-.08-.008-.28-.022-.445-.032-1.173-.068-2.327-1.093-2.581-2.291A4.1 4.1 0 0 1 4.58 6.82c.118-.568.508-1.192 1.019-1.632.277-.239.86-.533 1.201-.606.345-.074 1.032-.075 1.38-.002m9 0c.357.074.937.363 1.221.608.511.44.901 1.064 1.019 1.632a4.1 4.1 0 0 1 .001 1.354c-.254 1.198-1.408 2.223-2.581 2.291-.165.01-.366.024-.447.032-.144.014-.149.011-.235-.202l-.088-.216.589-.604c.636-.651.762-.845.818-1.257a1.5 1.5 0 0 0-.829-1.562c-.208-.106-.264-.116-.648-.116-.595 0-.726.072-1.489.815l-.59.575-.191-.078-.19-.078-.012-.322c-.029-.83.358-1.651 1.071-2.264.277-.239.86-.533 1.201-.606.345-.074 1.032-.075 1.38-.002m-4.527 6.078c.272.138.573.445.709.722.085.174.098.255.098.62 0 .385-.01.439-.117.65a2 2 0 0 1-.34.444c-.293.279-.571.386-1.003.386s-.71-.107-1.003-.386a2 2 0 0 1-.34-.444c-.107-.211-.117-.265-.117-.65 0-.365.013-.446.098-.62.173-.352.515-.664.878-.803q.144-.056.526-.045c.329.009.413.026.611.126M7.848 13.73l.082.19-.589.604c-.636.652-.762.846-.818 1.258a1.493 1.493 0 0 0 1.695 1.695c.412-.056.606-.182 1.258-.818l.603-.589.191.078.19.078.012.322c.051 1.445-1.132 2.758-2.638 2.928a2.94 2.94 0 0 1-2.444-.86c-.609-.624-.869-1.257-.869-2.116 0-.531.08-.885.297-1.32a2.95 2.95 0 0 1 1.362-1.362c.438-.219.768-.295 1.233-.286l.353.008zm9.332-.15c.357.074.937.363 1.221.608.511.44.901 1.064 1.019 1.632a4.1 4.1 0 0 1 .001 1.354c-.201.948-1.012 1.854-1.931 2.158-1.12.37-2.307.096-3.1-.716-.598-.613-.889-1.31-.862-2.068l.012-.322.19-.078.191-.078.603.589c.652.636.846.762 1.258.818a1.493 1.493 0 0 0 1.695-1.695c-.056-.411-.182-.606-.813-1.252-.321-.33-.584-.609-.584-.621s.035-.105.079-.206l.078-.183.332.001c.182 0 .457.027.611.059"/></svg>