<svg xmlns="http://www.w3.org/2000/svg" width="24" height="24" fill="none" stroke="currentColor" stroke-linecap="round" stroke-linejoin="round" stroke-width="3"><path fill="#000" fill-rule="evenodd" stroke="none" d="M3.44 1.547A3.56 3.56 0 0 0 .552 4.388c-.076.398-.076 13.826 0 14.224.221 1.168 1.036 2.177 2.116 2.617.719.293-.04.271 9.332.271 7.775 0 8.442-.005 8.71-.068a3.7 3.7 0 0 0 1.798-1.004c.573-.6.883-1.272.971-2.111.053-.506.053-10.128 0-10.634-.154-1.465-1.107-2.615-2.526-3.051l-.293-.09-4.362-.021c-4.042-.019-4.369-.026-4.467-.09-.058-.038-.327-.398-.597-.8-.717-1.064-1.18-1.509-1.904-1.827-.621-.272-.492-.261-3.27-.268-1.386-.004-2.565.001-2.62.011m4.776 3.057c.058.046.325.411.593.81.506.756.951 1.261 1.311 1.487.54.339 1.044.516 1.643.577.252.026 1.931.042 4.425.042h4.02l.136.136.136.136v10.402l-.103.122a.6.6 0 0 1-.25.163c-.204.056-16.05.056-16.254 0a.6.6 0 0 1-.25-.163l-.103-.122V4.792l.136-.136.136-.136h2.159c2.131 0 2.16.001 2.265.084m3.3 3.973a1.54 1.54 0 0 0-.998 1.233c-.02.138-.037.76-.037 1.383l-.001 1.134-.301-.278a3 3 0 0 0-.53-.393c-.209-.106-.265-.116-.649-.116s-.44.01-.648.116c-.754.382-1.048 1.237-.693 2.012.092.201.329.455 1.773 1.898 1.281 1.279 1.716 1.69 1.874 1.768a1.6 1.6 0 0 0 1.388 0c.158-.078.593-.489 1.874-1.768 1.444-1.443 1.681-1.697 1.773-1.898.355-.775.061-1.63-.693-2.012-.208-.106-.264-.116-.648-.116s-.44.01-.649.116a3 3 0 0 0-.53.393l-.301.278-.001-1.134c0-.623-.017-1.245-.037-1.383a1.51 1.51 0 0 0-.832-1.153c-.195-.099-.28-.116-.608-.125q-.382-.01-.526.045"/></svg>