<svg xmlns="http://www.w3.org/2000/svg" width="24" height="24" fill="none" stroke="currentColor" stroke-linecap="round" stroke-linejoin="round" stroke-width="3"><path fill="#000" fill-rule="evenodd" stroke="none" d="M3.44 1.548a3.56 3.56 0 0 0-2.888 2.84c-.076.398-.076 13.826 0 14.224.221 1.168 1.036 2.177 2.115 2.617.656.267.599.262 3.538.28 1.623.01 2.776.001 2.949-.023.371-.051.66-.19.901-.431.726-.726.523-1.928-.407-2.399l-.228-.116-2.78-.02c-2.969-.021-2.871-.014-3.037-.225l-.083-.106V4.792l.136-.136.136-.136h2.155c1.872 0 2.167.008 2.243.061.048.034.308.39.577.79.794 1.181 1.328 1.651 2.213 1.945.219.072.523.136.774.162.261.026 1.898.042 4.43.042h4.015l.13.117.131.116.02 2.774.02 2.773.105.248c.25.595.761.938 1.395.938s1.145-.343 1.395-.938l.105-.248.012-2.578c.013-2.697-.008-3.198-.152-3.684-.349-1.171-1.22-2.041-2.407-2.406l-.293-.09-4.367-.021c-4.332-.021-4.368-.022-4.48-.104-.062-.045-.337-.414-.61-.82-.733-1.088-1.217-1.529-2.038-1.861-.519-.21-.622-.216-3.218-.211-1.324.003-2.452.013-2.507.023m9 6.997c-1.488.286-2.621 1.394-2.881 2.819-.06.328-.06.944 0 1.272.17.928.749 1.778 1.583 2.323l.318.207.02 3.567.02 3.567.105.248c.25.595.761.938 1.395.938s1.146-.344 1.394-.938l.104-.248.015-1.387.014-1.387.407.214c.425.225.92.42 1.326.524l.388.099c.092.024.157.069.173.121.056.176.504.788.745 1.019q1.03.984 2.434.984a3.4 3.4 0 0 0 1.971-.604 3.48 3.48 0 0 0 1.504-2.537c.171-1.684-.893-3.238-2.543-3.716-.264-.076-.407-.09-.932-.09s-.668.014-.932.09a3.6 3.6 0 0 0-1.984 1.443c-.199.295-.199.295-.674.063-.545-.264-1.083-.765-1.421-1.321-.133-.22-.309-.614-.309-.693 0-.02.14-.133.31-.253a3.48 3.48 0 0 0 1.485-3.215c-.123-1.217-.83-2.232-1.942-2.788-.479-.24-.797-.313-1.433-.327a7 7 0 0 0-.66.006m.904 3.111c.12.12.136.161.136.344s-.016.224-.136.344-.161.136-.344.136-.224-.016-.344-.136-.136-.161-.136-.344.016-.224.136-.344.161-.136.344-.136.224.016.344.136m7 7c.119.119.136.162.136.337 0 .242-.129.424-.343.483a.5.5 0 0 1-.514-.16c-.081-.096-.103-.166-.103-.323 0-.175.017-.218.136-.337s.161-.136.344-.136.224.016.344.136"/></svg>