<svg xmlns="http://www.w3.org/2000/svg" width="24" height="24" fill="none" stroke="currentColor" stroke-linecap="round" stroke-linejoin="round" stroke-width="3"><path fill="#000" fill-rule="evenodd" stroke="none" d="M3.44 1.548a3.56 3.56 0 0 0-2.888 2.84c-.076.398-.076 13.826 0 14.224.221 1.168 1.036 2.177 2.115 2.617.668.272.543.263 4.041.28 1.928.01 3.278.001 3.449-.023.368-.051.657-.19.898-.431.726-.726.523-1.928-.407-2.399l-.228-.116-3.28-.02c-2.511-.015-3.3-.032-3.367-.07a.7.7 0 0 1-.17-.155l-.083-.106V4.792l.136-.136.136-.136h2.155c1.872 0 2.167.008 2.243.061.048.034.308.39.577.79.794 1.181 1.328 1.651 2.213 1.945.219.072.523.136.774.162.261.026 1.898.042 4.43.042h4.015l.13.117.131.116.022 1.274c.021 1.253.023 1.277.124 1.521.246.593.759.938 1.394.938s1.148-.345 1.393-.938c.1-.241.104-.278.119-1.308.018-1.157-.025-1.775-.152-2.202-.349-1.171-1.22-2.041-2.407-2.406l-.293-.09-4.367-.021c-4.332-.021-4.368-.022-4.48-.104-.062-.045-.337-.414-.61-.82-.733-1.088-1.217-1.529-2.038-1.861-.519-.21-.622-.216-3.218-.211-1.324.003-2.452.013-2.507.023m18.076 11.029c-.08.03-.224.104-.32.164-.097.06-1.043.973-2.102 2.029l-1.926 1.92-.294-.075c-.446-.114-1.383-.106-1.806.016-1.287.371-2.274 1.445-2.509 2.733-.06.328-.06.944 0 1.272a3.56 3.56 0 0 0 2.109 2.593c.451.184.832.258 1.332.258.933 0 1.747-.328 2.428-.979a3.51 3.51 0 0 0 .947-3.421l-.068-.253.853-.854.854-.855.113.094c.324.273.979.351 1.428.169.387-.156.677-.446.833-.833.183-.454.104-1.104-.175-1.436l-.1-.119.1-.119c.271-.322.355-.962.186-1.414q-.197-.528-.759-.815c-.189-.096-.273-.113-.6-.121-.246-.006-.431.01-.524.046m-5.172 7.079c.119.119.136.162.136.337 0 .242-.129.424-.343.483a.5.5 0 0 1-.514-.16c-.081-.096-.103-.166-.103-.323 0-.175.017-.218.136-.337s.161-.136.344-.136.224.016.344.136"/></svg>