<svg xmlns="http://www.w3.org/2000/svg" width="24" height="24" fill="none" stroke="currentColor" stroke-linecap="round" stroke-linejoin="round" stroke-width="3"><path fill="#000" fill-rule="evenodd" stroke="none" d="M3.44 1.548a3.56 3.56 0 0 0-2.888 2.84c-.076.398-.076 13.826 0 14.224.221 1.168 1.036 2.177 2.116 2.617.717.292.046.271 8.592.271h7.68l.34-.09c1.118-.296 2.037-1.097 2.439-2.125.146-.374 1.722-6.582 1.763-6.946.155-1.357-.587-2.74-1.838-3.427l-.124-.068-.001-.392c-.002-1.296-.288-2.119-.997-2.867a3.74 3.74 0 0 0-1.569-.953c-.291-.089-.317-.089-3.66-.111-3.322-.021-3.369-.022-3.48-.104-.062-.045-.337-.414-.61-.82-.733-1.088-1.217-1.529-2.038-1.861-.519-.21-.622-.216-3.218-.211-1.324.003-2.452.013-2.507.023m4.75 3.033c.048.034.308.39.577.79.794 1.181 1.328 1.651 2.213 1.945.219.072.523.136.774.162.252.025 1.602.042 3.434.042h3.02l.136.136c.135.135.136.139.136.499v.363l-4.93.012c-5.525.014-5.049-.012-5.744.313a3.5 3.5 0 0 0-1.441 1.237c-.148.23-1.545 2.901-1.713 3.276-.264.591-.171 1.191.255 1.648.236.251.442.374.768.458.304.078.653.033.99-.126.403-.191.546-.403 1.419-2.096.446-.864.84-1.58.897-1.63l.103-.09h11.124l.136.136c.114.114.136.165.136.315 0 .192-1.483 6.036-1.589 6.261a.5.5 0 0 1-.186.2c-.116.063-.628.069-7.345.08-3.971.006-7.3 0-7.398-.014a.5.5 0 0 1-.31-.158l-.132-.132V4.792l.136-.136.136-.136h2.155c1.872 0 2.167.008 2.243.061"/></svg>