<svg xmlns="http://www.w3.org/2000/svg" width="24" height="24" fill="none" stroke="currentColor" stroke-linecap="round" stroke-linejoin="round" stroke-width="3"><path fill="#000" fill-rule="evenodd" stroke="none" d="M3.44 1.547A3.56 3.56 0 0 0 .552 4.388c-.076.398-.076 13.826 0 14.224.221 1.168 1.036 2.177 2.116 2.617.719.293-.04.271 9.332.271 7.775 0 8.442-.005 8.71-.068a3.7 3.7 0 0 0 1.798-1.004c.573-.6.883-1.272.971-2.111.053-.506.053-10.128 0-10.634-.154-1.465-1.107-2.615-2.526-3.051l-.293-.09-4.362-.021c-4.042-.019-4.369-.026-4.467-.09-.058-.038-.327-.398-.597-.8-.717-1.064-1.18-1.509-1.904-1.827-.621-.272-.492-.261-3.27-.268-1.386-.004-2.565.001-2.62.011m4.776 3.057c.058.046.325.411.593.81.506.756.951 1.261 1.311 1.487.54.339 1.044.516 1.643.577.252.026 1.931.042 4.425.042h4.02l.136.136.136.136v10.402l-.103.122a.6.6 0 0 1-.25.163c-.204.056-16.05.056-16.254 0a.6.6 0 0 1-.25-.163l-.103-.122V4.792l.136-.136.136-.136h2.159c2.131 0 2.16.001 2.265.084"/></svg>