<svg xmlns="http://www.w3.org/2000/svg" width="24" height="24" fill="none" stroke="currentColor" stroke-linecap="round" stroke-linejoin="round" stroke-width="3"><path fill="#000" fill-rule="evenodd" stroke="none" d="M3.44 1.548a3.56 3.56 0 0 0-2.888 2.84C.515 4.581.5 5.114.5 6.22c0 1.54.001 1.563.093 1.79.175.433.555.803.945.92.209.062.715.062.924 0 .391-.117.773-.49.943-.92.087-.221.092-.292.113-1.743l.022-1.514.131-.116.13-.117h2.151c1.867 0 2.162.008 2.238.061.048.034.308.39.577.79.794 1.181 1.328 1.651 2.213 1.945.219.072.523.136.774.162.261.026 1.899.042 4.434.042h4.02l.136.136.136.136v10.402l-.103.122a.6.6 0 0 1-.25.163c-.098.027-2.815.04-8.167.039-8.647-.002-8.258.008-8.4-.204a3 3 0 0 1-.178-.372c-.359-.861-1.359-1.19-2.172-.714-.489.286-.79.955-.685 1.523.229 1.235 1.278 2.31 2.595 2.659l.34.09h8.48c7.832 0 8.502-.005 8.77-.068a3.7 3.7 0 0 0 1.798-1.004c.573-.6.883-1.272.971-2.111.053-.506.053-10.128 0-10.634-.154-1.465-1.107-2.615-2.526-3.051l-.293-.09-4.367-.021c-4.332-.021-4.368-.022-4.48-.104-.062-.045-.337-.414-.61-.82-.733-1.088-1.217-1.529-2.038-1.861-.519-.21-.622-.216-3.218-.211-1.324.003-2.452.013-2.507.023m1.076 7.029c-.321.122-.561.337-2.122 1.897C1.15 11.719.744 12.148.666 12.306a1.6 1.6 0 0 0 0 1.388c.078.158.489.593 1.768 1.874 1.443 1.444 1.697 1.681 1.898 1.773 1.113.51 2.308-.358 2.145-1.559-.045-.329-.196-.609-.515-.952l-.289-.31 3.134-.001c1.723 0 3.245-.017 3.383-.037a1.494 1.494 0 0 0 1.287-1.7 1.51 1.51 0 0 0-.829-1.126l-.228-.116-3.393-.011-3.392-.011.308-.329c.338-.362.488-.634.534-.971a1.5 1.5 0 0 0-.829-1.562c-.198-.101-.279-.117-.608-.125-.246-.006-.431.01-.524.046"/></svg>