<svg xmlns="http://www.w3.org/2000/svg" width="24" height="24" fill="none" stroke="currentColor" stroke-linecap="round" stroke-linejoin="round" stroke-width="3"><path fill="#000" fill-rule="evenodd" stroke="none" d="M2.516 1.577c-.556.213-.919.67-1.001 1.258-.023.165-.032 2.898-.024 6.949.011 5.967.019 6.704.077 6.937.34 1.381 1.348 2.391 2.702 2.706.335.078 3.409.126 3.879.06.376-.052.664-.19.906-.432.726-.726.523-1.928-.407-2.399l-.228-.116-1.78-.02c-1.895-.021-1.875-.019-2.037-.225-.083-.105-.083-.119-.083-3.95V8.5l1.67.014c.985.008 1.789-.003 1.959-.027.376-.052.664-.19.906-.432.726-.726.523-1.928-.407-2.399L8.42 5.54l-1.78-.02c-1.895-.021-1.875-.019-2.037-.225-.079-.101-.083-.154-.084-1.17 0-.586-.017-1.177-.037-1.315a1.51 1.51 0 0 0-.832-1.153c-.195-.099-.28-.116-.608-.125-.253-.007-.431.008-.526.045m9.864-.001c-.451.112-.95.421-1.279.793-.209.237-.465.739-.547 1.071-.043.174-.054.809-.054 3.06 0 3.145-.008 3.036.266 3.612.125.262.225.399.474.648s.386.349.648.474c.586.279.365.266 4.612.266 3.092 0 3.883-.011 4.06-.054.713-.175 1.372-.701 1.674-1.334.265-.557.266-.566.266-2.612 0-2.045-.001-2.055-.265-2.61-.261-.548-.801-1.028-1.418-1.26-.226-.085-.302-.09-1.644-.102l-1.407-.013-.35-.467c-.646-.864-.825-1.038-1.328-1.287-.447-.222-.609-.24-2.128-.237-.952.002-1.442.018-1.58.052m2.793 3.494c.476.631.782.933 1.147 1.127.491.261.685.292 1.99.313l1.17.019V8.52h-5.96v-4h1.238zm-2.793 7.506c-.451.112-.95.421-1.279.793-.209.237-.465.739-.547 1.071-.043.174-.054.809-.054 3.06s.011 2.886.054 3.06c.175.713.701 1.372 1.334 1.674.586.279.365.266 4.612.266 3.092 0 3.883-.011 4.06-.054.713-.175 1.372-.701 1.674-1.334.265-.557.266-.566.266-2.612 0-2.045-.001-2.055-.265-2.61-.261-.548-.8-1.027-1.418-1.26-.228-.087-.294-.09-1.808-.102l-1.57-.012-.217-.428a5 5 0 0 0-.371-.627c-.305-.396-.844-.745-1.357-.878-.202-.052-.483-.062-1.58-.06-.913.003-1.397.019-1.534.053m2.433 3.4c.277.54.535.845.937 1.108.575.375.915.433 2.56.435l1.17.001v2h-5.96v-4h.53l.53.001z"/></svg>