<svg xmlns="http://www.w3.org/2000/svg" width="24" height="24" fill="none" stroke="currentColor" stroke-linecap="round" stroke-linejoin="round" stroke-width="3"><path fill="#000" fill-rule="evenodd" stroke="none" d="M3.44 1.547A3.56 3.56 0 0 0 .552 4.388c-.076.398-.076 13.826 0 14.224.221 1.168 1.036 2.177 2.116 2.617.719.293-.04.271 9.332.271 7.775 0 8.442-.005 8.71-.068a3.7 3.7 0 0 0 1.798-1.004c.573-.6.883-1.272.971-2.111.053-.506.053-10.128 0-10.634-.154-1.465-1.107-2.615-2.526-3.051l-.293-.09-4.362-.021c-4.042-.019-4.369-.026-4.467-.09-.058-.038-.327-.398-.597-.8-.717-1.064-1.18-1.509-1.904-1.827-.621-.272-.492-.261-3.27-.268-1.386-.004-2.565.001-2.62.011m4.776 3.057c.058.046.325.411.593.81.506.756.951 1.261 1.311 1.487.54.339 1.044.516 1.643.577.252.026 1.931.042 4.425.042h4.02l.136.136.136.136v10.402l-.103.122a.6.6 0 0 1-.25.163c-.204.056-16.05.056-16.254 0a.6.6 0 0 1-.25-.163l-.103-.122V4.792l.136-.136.136-.136h2.159c2.131 0 2.16.001 2.265.084m2.504 3.978c-1.637.35-2.899 1.648-3.164 3.252a5.3 5.3 0 0 0 0 1.332c.235 1.426 1.306 2.669 2.698 3.13a3.7 3.7 0 0 0 1.246.191 3.6 3.6 0 0 0 1.238-.19l.306-.103.544.528c.587.57.794.701 1.194.755a1.493 1.493 0 0 0 1.695-1.695c-.054-.4-.185-.607-.755-1.194l-.528-.544.103-.306a3.6 3.6 0 0 0 .19-1.238 3.7 3.7 0 0 0-.191-1.246 4.01 4.01 0 0 0-3.024-2.67c-.38-.079-1.189-.08-1.552-.002m1.303 3.08c.283.174.431.432.451.784.013.237 0 .305-.095.499-.349.713-1.379.724-1.748.018a.98.98 0 0 1 .418-1.341c.181-.092.251-.105.495-.094.232.011.319.035.479.134"/></svg>