<svg xmlns="http://www.w3.org/2000/svg" width="24" height="24" fill="none" stroke="currentColor" stroke-linecap="round" stroke-linejoin="round" stroke-width="3"><path fill="#000" fill-rule="evenodd" stroke="none" d="M3.44 1.548a3.56 3.56 0 0 0-2.888 2.84c-.076.398-.076 13.826 0 14.224.221 1.168 1.036 2.177 2.116 2.617.69.281.526.271 4.412.271h3.5l.23-.093c.433-.175.803-.555.92-.945.062-.209.062-.715 0-.924-.117-.391-.496-.78-.911-.935-.218-.081-.282-.083-3.511-.083-2.119 0-3.34-.015-3.435-.041a.6.6 0 0 1-.25-.163l-.103-.122V4.792l.136-.136.136-.136h2.155c1.872 0 2.167.008 2.243.061.048.034.308.39.577.79.794 1.181 1.328 1.651 2.213 1.945.219.072.523.136.774.162.261.026 1.898.042 4.43.042h4.015l.13.117.131.116.021 1.914c.021 1.878.023 1.917.113 2.143.172.431.553.803.944.92.209.062.715.062.924 0 .391-.117.772-.489.944-.92.089-.225.092-.269.106-1.94.015-1.814-.015-2.37-.152-2.832-.349-1.171-1.22-2.041-2.407-2.406l-.293-.09-4.367-.021c-4.332-.021-4.368-.022-4.48-.104-.062-.045-.337-.414-.61-.82-.733-1.088-1.217-1.529-2.038-1.861-.519-.21-.622-.216-3.218-.211-1.324.003-2.452.013-2.507.023m12.625 11.296c-.242.057-.612.272-.77.447-.282.312-.439.807-.378 1.193l.034.213-.206.207-.205.208-.346.016c-.314.016-.37.031-.618.175-.894.517-1.038 1.723-.285 2.4.183.164.2.194.215.39.015.207.011.216-.144.34a1.505 1.505 0 0 0-.181 2.155c.311.356.863.563 1.314.493.193-.03.196-.028.4.166.203.193.205.198.207.444a1.526 1.526 0 0 0 1.516 1.509c.394 0 .851-.214 1.114-.521.13-.152.164-.17.358-.184.21-.016.218-.013.343.143.167.207.432.387.718.487.288.101.693.086 1.009-.038.601-.234 1.021-.948.923-1.568l-.032-.208.195-.206c.194-.203.199-.205.445-.208a1.4 1.4 0 0 0 .787-.226c.842-.506.959-1.719.231-2.374-.183-.164-.2-.194-.215-.39-.015-.207-.012-.215.147-.343.837-.673.69-2.019-.272-2.492-.245-.121-.301-.132-.671-.138l-.405-.005-.201-.185-.2-.185v-.27c0-.465-.228-.915-.602-1.186-.233-.169-.625-.303-.887-.303a1.62 1.62 0 0 0-1.169.561c-.119.148-.141.159-.334.159s-.215-.01-.338-.164c-.337-.419-.969-.635-1.497-.512m2.584 3.812c.301.152.558.427.696.744.099.225.114.311.114.64.001.34-.011.404-.115.608-.173.342-.408.554-.784.71-.394.162-.735.175-1.096.04-.376-.141-.614-.376-.803-.794-.105-.233-.119-.309-.12-.644-.001-.323.014-.41.097-.58.144-.293.452-.603.676-.68.102-.034.231-.09.286-.122.074-.044.195-.057.463-.047.303.01.399.031.586.125"/></svg>