<svg xmlns="http://www.w3.org/2000/svg" width="24" height="24" fill="none" stroke="currentColor" stroke-linecap="round" stroke-linejoin="round" stroke-width="3"><path fill="#000" fill-rule="evenodd" stroke="none" d="M3.44 1.547C2.014 1.797.924 2.834.568 4.279.51 4.512.502 5.249.49 11.2c-.009 4.396.001 6.801.028 7.075.048.483.156.873.347 1.261.552 1.118 1.581 1.818 2.86 1.946.275.027 3.162.037 8.575.028 7.44-.012 8.184-.019 8.43-.079.683-.168 1.328-.532 1.778-1.003.573-.6.883-1.272.971-2.111.053-.506.053-10.128 0-10.634-.154-1.465-1.107-2.615-2.526-3.051l-.293-.09-4.362-.021c-4.052-.02-4.369-.026-4.468-.09-.058-.039-.336-.407-.618-.819-.748-1.093-1.07-1.409-1.792-1.757-.678-.327-.527-.312-3.36-.319-1.386-.004-2.565.001-2.62.011m4.75 3.035c.049.034.318.398.598.81.567.832.949 1.253 1.392 1.535.524.333.964.485 1.6.553.205.022 2.098.039 4.394.039l4.034.001.136.136.136.136v10.402l-.103.122a.6.6 0 0 1-.25.163c-.094.026-1.297.041-3.377.041h-3.23v-2.346l.308-.195a3.491 3.491 0 0 0-.296-6.114c-.519-.259-.827-.325-1.532-.325-.525 0-.668.014-.932.09-1.289.374-2.274 1.447-2.509 2.734-.06.328-.06.944 0 1.272.171.937.773 1.811 1.613 2.343l.308.195v2.346H7.25c-2.08 0-3.283-.015-3.377-.041a.6.6 0 0 1-.25-.163l-.103-.122V4.792l.136-.136.136-.136h2.155c1.879 0 2.166.008 2.243.062m4.154 8.074c.12.12.136.161.136.344s-.016.224-.136.344-.161.136-.344.136-.224-.016-.344-.136-.136-.161-.136-.344.016-.224.136-.344.161-.136.344-.136.224.016.344.136"/></svg>