<svg xmlns="http://www.w3.org/2000/svg" width="24" height="24" fill="none" stroke="currentColor" stroke-linecap="round" stroke-linejoin="round" stroke-width="3"><path fill="#000" fill-rule="evenodd" stroke="none" d="M3.44 1.548a3.56 3.56 0 0 0-2.888 2.84c-.076.398-.076 13.826 0 14.224.221 1.168 1.036 2.177 2.115 2.617.668.272.543.263 4.041.28 1.928.01 3.278.001 3.449-.023.368-.051.657-.19.898-.431.726-.726.523-1.928-.407-2.399l-.228-.116-3.28-.02c-2.511-.015-3.3-.032-3.367-.07a.7.7 0 0 1-.17-.155l-.083-.106V4.792l.136-.136.136-.136h2.155c1.872 0 2.167.008 2.243.061.048.034.308.39.577.79.794 1.181 1.328 1.651 2.213 1.945.219.072.523.136.774.162.261.026 1.898.042 4.43.042h4.015l.13.117.131.116.022 1.514c.021 1.454.025 1.522.113 1.743.17.43.552.803.943.92.209.062.715.062.924 0 .391-.117.774-.49.943-.92.086-.219.091-.293.106-1.533.017-1.404-.019-1.995-.151-2.439-.349-1.171-1.22-2.041-2.407-2.406l-.293-.09-4.367-.021c-4.332-.021-4.368-.022-4.48-.104-.062-.045-.337-.414-.61-.82-.733-1.088-1.217-1.529-2.038-1.861-.519-.21-.622-.216-3.218-.211-1.324.003-2.452.013-2.507.023m14 9.997c-1.46.281-2.57 1.341-2.863 2.734-.03.144-.067.488-.081.765l-.027.504-.231.069c-.593.178-1.201.701-1.47 1.267-.267.562-.268.568-.268 2.616 0 2.046.001 2.055.266 2.612.223.467.655.899 1.122 1.122.582.277.416.266 4.112.266 2.672 0 3.384-.011 3.56-.054.713-.175 1.372-.701 1.674-1.334.265-.557.266-.566.266-2.612 0-2.045-.001-2.055-.265-2.61-.271-.569-.882-1.096-1.479-1.274l-.236-.071-.001-.243c-.004-1.603-.689-2.787-1.986-3.436-.479-.24-.797-.313-1.433-.327a7 7 0 0 0-.66.006m.904 3.111c.135.135.136.139.136.5v.364h-.96v-.364c0-.361.001-.365.136-.5.12-.12.161-.136.344-.136s.224.016.344.136m2.136 4.864v1h-4.96v-2h4.96z"/></svg>