<svg xmlns="http://www.w3.org/2000/svg" width="24" height="24" fill="none" stroke="currentColor" stroke-linecap="round" stroke-linejoin="round" stroke-width="3"><path fill="#000" fill-rule="evenodd" stroke="none" d="M3.44 1.548a3.56 3.56 0 0 0-2.888 2.84c-.076.398-.076 13.826 0 14.224.221 1.168 1.036 2.177 2.115 2.617.656.267.599.262 3.538.28 1.623.01 2.776.001 2.949-.023.371-.051.66-.19.901-.431.726-.726.523-1.928-.407-2.399l-.228-.116-2.78-.02c-2.969-.021-2.871-.014-3.037-.225l-.083-.106V4.792l.136-.136.136-.136h2.155c1.872 0 2.167.008 2.243.061.048.034.308.39.577.79.794 1.181 1.328 1.651 2.213 1.945.219.072.523.136.774.162.261.026 1.899.042 4.434.042h4.02l.13.13c.129.13.13.131.152.63.026.578.106.847.346 1.15.267.337.606.518 1.049.559.433.041.842-.112 1.163-.433.391-.391.519-.906.438-1.77-.085-.913-.378-1.583-.964-2.201a3.75 3.75 0 0 0-1.569-.953l-.293-.09-4.367-.021c-4.332-.021-4.368-.022-4.48-.104-.062-.045-.337-.414-.61-.82-.733-1.088-1.217-1.529-2.038-1.861-.519-.21-.622-.216-3.218-.211-1.324.003-2.452.013-2.507.023m8.076 7.029a1.54 1.54 0 0 0-.998 1.233c-.051.351-.047 4.108.004 4.424.053.327.187.588.421.823.235.234.496.368.823.421.316.051 4.073.055 4.424.004a1.494 1.494 0 0 0 1.287-1.7 1.5 1.5 0 0 0-.797-1.106c-.108-.053-.198-.109-.198-.126-.003-.056.916-.031 1.23.033a3.6 3.6 0 0 1 1.634.834c.311.279.539.577.788 1.033.284.519.547.749 1.021.893.239.073.452.072.74-.003.729-.19 1.206-.862 1.13-1.59-.054-.515-.632-1.495-1.291-2.188-1.076-1.132-2.389-1.803-3.923-2.005-.506-.066-1.636-.025-2.112.076a7.1 7.1 0 0 0-1.671.597c-.245.126-.459.236-.477.243s-.031-.082-.032-.2c-.003-.798-.284-1.32-.869-1.616-.195-.099-.28-.116-.608-.125q-.382-.01-.526.045m8.204 7.942-2.14.021-.228.116a1.5 1.5 0 0 0-.829 1.562c.064.473.401.93.837 1.136l.22.104-.28.03c-.508.053-1.281-.083-1.76-.31-.732-.346-1.254-.858-1.692-1.658-.284-.519-.636-.795-1.126-.882-.965-.171-1.848.644-1.747 1.612.054.515.632 1.495 1.291 2.188 1.173 1.233 2.603 1.912 4.302 2.041 1.217.092 2.609-.222 3.631-.821.129-.076.242-.138.252-.138.009 0 .029.182.044.405.039.599.179.904.576 1.25.357.312 1.008.406 1.484.213.387-.156.672-.441.84-.84l.105-.248.013-2.113c.013-2.259-.003-2.532-.172-2.865a1.73 1.73 0 0 0-.662-.662c-.178-.09-.624-.191-.759-.171-.033.005-1.023.019-2.2.03"/></svg>