<svg xmlns="http://www.w3.org/2000/svg" width="24" height="24" fill="none" stroke="currentColor" stroke-linecap="round" stroke-linejoin="round" stroke-width="3"><path fill="#000" fill-rule="evenodd" stroke="none" d="M3.44 1.548a3.56 3.56 0 0 0-2.888 2.84c-.076.398-.076 13.826 0 14.224.221 1.168 1.036 2.177 2.115 2.617.611.248.707.259 2.533.28 1.006.011 1.774.003 1.949-.022.376-.052.664-.19.906-.432.726-.726.523-1.928-.407-2.399l-.228-.116-1.78-.02c-1.895-.021-1.875-.019-2.037-.225l-.083-.106V4.792l.136-.136.136-.136h2.155c1.872 0 2.167.008 2.243.061.048.034.308.39.577.79.794 1.181 1.328 1.651 2.213 1.945.219.072.523.136.774.162.261.026 1.898.042 4.43.042h4.015l.127.114c.114.102.134.152.179.462.063.434.189.709.44.959a1.49 1.49 0 0 0 2.11 0c.357-.356.483-.78.419-1.408-.144-1.419-1.117-2.584-2.521-3.015l-.293-.09-4.367-.021c-4.332-.021-4.368-.022-4.48-.104-.062-.045-.337-.414-.61-.82-.733-1.088-1.217-1.529-2.038-1.861-.519-.21-.622-.216-3.218-.211-1.324.003-2.452.013-2.507.023m11.58 7.016c-2.244.32-4.216 1.595-5.387 3.483-.998 1.609-1.36 3.591-.989 5.413.754 3.703 4.159 6.301 7.886 6.018a7.51 7.51 0 0 0 6.948-6.948c.295-3.877-2.526-7.378-6.403-7.948-.461-.067-1.636-.078-2.055-.018m2.14 3.093c.441.122 1.163.464 1.48.701.304.228.732.652.969.962.268.35.605 1.052.74 1.54.102.37.11.455.11 1.14 0 .686-.008.769-.11 1.138-.36 1.289-1.196 2.314-2.359 2.89-1.614.798-3.581.549-4.92-.623a4.6 4.6 0 0 1-1.419-2.265c-.102-.37-.11-.456-.11-1.14 0-.685.008-.77.11-1.14.135-.488.472-1.19.74-1.54.237-.31.665-.734.969-.962.301-.225 1.033-.577 1.417-.681.515-.139.65-.153 1.343-.139.561.012.717.03 1.04.119m-1.644.92a1.54 1.54 0 0 0-.998 1.233c-.05.343-.047 2.07.004 2.39.072.459.191.634.921 1.37.531.534.712.69.893.773 1.109.508 2.304-.363 2.141-1.561-.049-.358-.192-.607-.591-1.028l-.366-.386-.001-.654c0-.36-.017-.766-.037-.904a1.51 1.51 0 0 0-.832-1.153c-.195-.099-.28-.116-.608-.125q-.381-.01-.526.045"/></svg>