<svg xmlns="http://www.w3.org/2000/svg" width="24" height="24" fill="none" stroke="currentColor" stroke-linecap="round" stroke-linejoin="round" stroke-width="3"><path fill="#000" fill-rule="evenodd" stroke="none" d="M3.44 1.548a3.56 3.56 0 0 0-2.888 2.84c-.076.398-.076 13.826 0 14.224.221 1.168 1.036 2.177 2.115 2.617.678.276.486.264 4.543.28 2.232.009 3.779 0 3.949-.023.868-.121 1.434-.852 1.318-1.704a1.51 1.51 0 0 0-.829-1.126l-.228-.116-3.78-.02c-2.91-.015-3.8-.031-3.867-.07a.7.7 0 0 1-.17-.155l-.083-.106V4.792l.136-.136.136-.136h2.155c1.872 0 2.167.008 2.243.061.048.034.308.39.577.79.794 1.181 1.328 1.651 2.213 1.945.219.072.523.136.774.162.261.026 1.898.042 4.43.042h4.015l.13.117.131.116.023 1.014c.021.922.031 1.034.113 1.243.167.428.55.802.942.92.209.062.715.062.924 0 .393-.118.776-.493.941-.92.078-.202.091-.328.107-1.03.035-1.475-.114-2.197-.599-2.914a3.66 3.66 0 0 0-1.958-1.434l-.293-.09-4.367-.021c-4.332-.021-4.368-.022-4.48-.104-.062-.045-.337-.414-.61-.82-.733-1.088-1.217-1.529-2.038-1.861-.519-.21-.622-.216-3.218-.211-1.324.003-2.452.013-2.507.023m11.42 9.998a4.02 4.02 0 0 0-2.893 2.014c-.196.35-.397 1.01-.446 1.463-.108.998.204 2.088.84 2.931.235.313 3.98 4.046 4.277 4.265.479.352 1.241.356 1.713.007.225-.165 3.89-3.793 4.128-4.085.456-.56.709-1.047.893-1.721.076-.275.088-.419.086-1.02-.002-.646-.011-.727-.113-1.059-.322-1.049-1.006-1.886-1.942-2.375-.577-.302-.989-.411-1.643-.435-.816-.031-1.367.084-2.011.419l-.27.141-.236-.126c-.55-.293-1.005-.407-1.703-.424a7 7 0 0 0-.68.005m1.002 3.077c.065.041.262.208.438.372.202.188.416.344.58.422.231.109.301.123.62.123.32 0 .389-.014.62-.124.169-.081.379-.236.6-.444.446-.42.535-.464.9-.446.34.018.553.134.73.401.097.148.11.205.11.49 0 .265-.018.359-.1.522-.115.228-.759.904-2.023 2.123l-.851.821-1.356-1.34c-1.171-1.156-1.374-1.375-1.488-1.598-.12-.237-.13-.284-.116-.556.012-.241.035-.327.125-.462.106-.161.331-.335.491-.38.161-.046.602 0 .72.076"/></svg>