<svg xmlns="http://www.w3.org/2000/svg" width="24" height="24" fill="none" stroke="currentColor" stroke-linecap="round" stroke-linejoin="round" stroke-width="3"><path fill="#000" fill-rule="evenodd" stroke="none" d="M3.44 1.548a3.56 3.56 0 0 0-2.888 2.84C.513 4.59.5 5.254.5 6.98V9.3l.105.248c.25.595.761.938 1.395.938s1.145-.343 1.395-.938L3.5 9.3l.02-2.273.02-2.274.131-.116.13-.117h2.151c1.867 0 2.162.008 2.238.061.048.034.308.39.577.79.794 1.181 1.328 1.651 2.213 1.945.219.072.523.136.774.162.261.026 1.899.042 4.434.042h4.02l.136.136.136.136v10.402l-.103.122a.6.6 0 0 1-.25.163c-.204.056-16.05.056-16.254 0a.6.6 0 0 1-.25-.163c-.1-.118-.103-.139-.104-.689-.001-.69-.042-1.001-.171-1.277-.123-.265-.405-.545-.7-.694-.208-.106-.264-.116-.648-.116s-.44.01-.648.116c-.476.241-.762.648-.84 1.195-.052.363-.013 1.518.064 1.87.29 1.343 1.337 2.389 2.714 2.711.268.063.935.068 8.71.068s8.442-.005 8.71-.068a3.7 3.7 0 0 0 1.798-1.004c.573-.6.883-1.272.971-2.111.053-.506.053-10.128 0-10.634-.154-1.465-1.107-2.615-2.526-3.051l-.293-.09-4.367-.021c-4.332-.021-4.368-.022-4.48-.104-.062-.045-.337-.414-.61-.82-.733-1.088-1.217-1.529-2.038-1.861-.519-.21-.622-.216-3.218-.211-1.324.003-2.452.013-2.507.023m5.076 7.029c-.689.262-1.09.925-.993 1.641.046.337.196.609.535.971l.308.33-3.393.01-3.393.011-.228.116a1.51 1.51 0 0 0-.829 1.126 1.494 1.494 0 0 0 1.287 1.7c.138.02 1.66.037 3.383.037l3.134.001-.289.31c-.319.343-.47.623-.515.952-.163 1.201 1.032 2.069 2.145 1.559.201-.092.455-.329 1.898-1.773 1.279-1.281 1.69-1.716 1.768-1.874a1.6 1.6 0 0 0 0-1.388c-.078-.159-.484-.587-1.768-1.868C9.636 8.513 9.68 8.546 9.04 8.531c-.246-.006-.431.01-.524.046"/></svg>