<svg xmlns="http://www.w3.org/2000/svg" width="24" height="24" fill="none" stroke="currentColor" stroke-linecap="round" stroke-linejoin="round" stroke-width="3"><path fill="#000" fill-rule="evenodd" stroke="none" d="M3.44 1.547A3.54 3.54 0 0 0 .624 4.088C.485 4.575.477 5.042.49 11.8c.012 5.951.02 6.688.078 6.921.342 1.39 1.345 2.389 2.722 2.711.267.063.889.068 7.95.068h7.66l.352-.09c1.033-.263 1.876-.93 2.325-1.839.182-.367.227-.53 1.122-4.001.432-1.676.761-3.034.783-3.232.155-1.356-.588-2.739-1.838-3.426l-.124-.068-.001-.392c-.002-1.296-.288-2.119-.997-2.867a3.74 3.74 0 0 0-1.569-.953c-.291-.089-.317-.089-3.655-.111-3.102-.019-3.37-.026-3.468-.09-.058-.039-.336-.407-.618-.819-.748-1.093-1.07-1.409-1.792-1.757-.677-.326-.527-.312-3.36-.319-1.386-.004-2.565.001-2.62.011m4.75 3.035c.049.034.318.398.597.81.733 1.077 1.159 1.482 1.914 1.817.323.144.646.225 1.079.271.198.021 1.725.039 3.394.039l3.034.001.136.136c.135.135.136.139.136.499v.363l-4.95.012c-5.55.012-5.082-.013-5.767.313a3.5 3.5 0 0 0-1.537 1.389c-.099.169-.515.983-.924 1.808-.809 1.633-.855 1.759-.779 2.178.116.639.528 1.084 1.152 1.244.306.078.653.033.995-.129.415-.196.502-.327 1.371-2.059.529-1.054.832-1.614.903-1.67l.107-.084h11.157l.136.136c.114.114.136.165.136.316 0 .216-1.526 6.15-1.618 6.29a.7.7 0 0 1-.171.167c-.101.067-.508.072-7.329.083-3.972.006-7.302 0-7.4-.014a.5.5 0 0 1-.31-.158l-.132-.132V4.792l.136-.136.136-.136h2.155c1.879 0 2.166.008 2.243.062m5.19 7.992a2.73 2.73 0 0 0-1.279.795c-.21.239-.469.746-.542 1.064a3 3 0 0 0-.049.567c0 .446.058.695.256 1.112.223.467.655.899 1.122 1.122.417.198.666.256 1.112.256s.695-.058 1.112-.256a2.5 2.5 0 0 0 1.122-1.122c.198-.417.256-.666.256-1.112s-.058-.695-.255-1.11c-.262-.55-.811-1.037-1.418-1.257-.295-.107-1.12-.141-1.437-.059m.964 2.082c.119.119.136.162.136.337 0 .242-.129.424-.343.483a.5.5 0 0 1-.514-.16c-.081-.096-.103-.166-.103-.323 0-.175.017-.218.136-.337s.161-.136.344-.136.224.016.344.136"/></svg>