<svg xmlns="http://www.w3.org/2000/svg" width="24" height="24" fill="none" stroke="currentColor" stroke-linecap="round" stroke-linejoin="round" stroke-width="3"><path fill="#000" fill-rule="evenodd" stroke="none" d="M7.44 2.547a3.56 3.56 0 0 0-2.888 2.841c-.076.396-.076 9.828 0 10.224.221 1.168 1.036 2.177 2.116 2.617.712.29.191.271 7.332.271 5.895 0 6.444-.006 6.71-.068a3.7 3.7 0 0 0 1.798-1.004c.573-.6.883-1.272.971-2.111.052-.495.052-6.139 0-6.634-.154-1.465-1.112-2.621-2.526-3.05-.284-.086-.363-.089-2.655-.111-2.146-.02-2.371-.028-2.467-.091-.058-.038-.327-.398-.597-.8-.717-1.064-1.18-1.509-1.904-1.827-.621-.272-.492-.261-3.27-.268-1.386-.004-2.565.001-2.62.011m4.776 3.057c.058.046.325.411.593.81.506.756.951 1.261 1.311 1.487.54.339 1.044.516 1.643.577.223.023 1.314.042 2.425.042h2.02l.136.136.136.136v6.402l-.103.122a.6.6 0 0 1-.25.163c-.204.056-12.05.056-12.254 0a.6.6 0 0 1-.25-.163l-.103-.122V5.792l.136-.136.136-.136h2.159c2.131 0 2.16.001 2.265.084m-10.7.973C.96 6.79.597 7.247.515 7.836c-.023.167-.033 2.504-.024 5.949.014 6.251-.003 5.823.265 6.519.319.826 1.068 1.581 1.908 1.923.711.29.085.268 8.053.282 4.353.008 7.283-.002 7.449-.024.861-.12 1.426-.854 1.311-1.703a1.51 1.51 0 0 0-.829-1.126l-.228-.116-7.28-.02c-5.701-.016-7.299-.031-7.367-.07a.7.7 0 0 1-.17-.155l-.083-.106-.001-5.564c0-3.095-.017-5.676-.037-5.815a1.51 1.51 0 0 0-.832-1.153c-.195-.099-.28-.116-.608-.125-.253-.007-.431.008-.526.045"/></svg>