<svg xmlns="http://www.w3.org/2000/svg" width="24" height="24" fill="none" stroke="currentColor" stroke-linecap="round" stroke-linejoin="round" stroke-width="3"><path fill="#000" fill-rule="evenodd" stroke="none" d="M3.44 1.547A3.56 3.56 0 0 0 .552 4.388c-.076.398-.076 13.826 0 14.224.221 1.168 1.036 2.177 2.116 2.617.679.277.594.271 3.812.271h2.9l.23-.093c.433-.175.803-.555.92-.945.062-.209.062-.715 0-.924-.117-.391-.496-.78-.911-.935-.216-.081-.289-.083-2.911-.083-1.71 0-2.742-.015-2.835-.041a.6.6 0 0 1-.25-.163l-.103-.122V4.792l.136-.136.136-.136h2.159c2.131 0 2.16.001 2.265.084.058.046.325.411.593.81.506.756.951 1.261 1.311 1.487.54.339 1.044.516 1.643.577.252.026 1.931.042 4.425.042h4.02l.136.136.136.136v5.188c0 5.884.038 5.301-.363 5.552-.991.62-.929 2.075.112 2.602.469.238.924.22 1.443-.057.728-.389 1.349-1.109 1.614-1.874.218-.626.207-.332.223-5.903.015-5.356.006-5.739-.149-6.262-.349-1.171-1.22-2.042-2.407-2.406l-.293-.09-4.362-.021c-4.042-.019-4.369-.026-4.467-.09-.058-.038-.327-.398-.597-.8-.717-1.064-1.18-1.509-1.904-1.827-.621-.272-.492-.261-3.27-.268-1.386-.004-2.565.001-2.62.011m11.076 7.03c-.371.142-.711.446-.864.774-.137.294-.184.691-.161 1.371.017.499.034.617.119.828.237.587.755.936 1.39.936s1.153-.349 1.39-.936c.085-.211.102-.329.119-.828.033-.973-.075-1.401-.445-1.766a2 2 0 0 0-.414-.299c-.195-.099-.28-.116-.608-.125q-.382-.01-.526.045m0 5c-.371.142-.711.446-.864.773-.12.257-.17.582-.171 1.113l-.001.402-.15.071c-.649.309-1.334 1.093-1.603 1.837A3.3 3.3 0 0 0 11.512 19c0 .715.187 1.345.57 1.917.672 1.003 1.724 1.57 2.918 1.57.933 0 1.747-.328 2.428-.979 1.061-1.013 1.359-2.592.75-3.969-.28-.633-.937-1.331-1.508-1.603l-.15-.071-.001-.402c-.001-.792-.117-1.173-.455-1.507a2 2 0 0 0-.414-.299c-.195-.099-.28-.116-.608-.125q-.382-.01-.526.045m.828 5.079c.119.119.136.162.136.337 0 .242-.129.424-.343.483a.5.5 0 0 1-.514-.16c-.081-.096-.103-.166-.103-.323 0-.175.017-.218.136-.337s.161-.136.344-.136.224.016.344.136"/></svg>