<svg xmlns="http://www.w3.org/2000/svg" width="24" height="24" fill="none" stroke="currentColor" stroke-linecap="round" stroke-linejoin="round" stroke-width="3"><path fill="#000" fill-rule="evenodd" stroke="none" d="M3.44 1.548a3.56 3.56 0 0 0-2.888 2.84C.513 4.59.5 5.254.5 6.98V9.3l.105.248c.25.595.761.938 1.395.938s1.145-.343 1.395-.938L3.5 9.3l.02-2.273.02-2.274.131-.116.13-.117h2.151c1.867 0 2.162.008 2.238.061.048.034.308.39.577.79.794 1.181 1.328 1.651 2.213 1.945.219.072.523.136.774.162.261.026 1.899.042 4.434.042h4.02l.136.136.136.136v10.402l-.103.122a.6.6 0 0 1-.25.163c-.204.056-16.05.056-16.254 0a.6.6 0 0 1-.25-.163l-.103-.122v-3.402l.136-.136.136-.136h3.535l-.289.31c-.319.343-.47.623-.515.952-.163 1.201 1.032 2.069 2.145 1.559.201-.092.455-.329 1.898-1.773 1.279-1.281 1.69-1.716 1.768-1.874a1.6 1.6 0 0 0 0-1.388c-.078-.159-.484-.587-1.768-1.868C8.611 8.487 8.682 8.54 8 8.54c-.384 0-.44.01-.648.116a1.5 1.5 0 0 0-.829 1.562c.046.336.196.609.533.97l.307.328-2.011.014c-1.946.013-2.022.016-2.305.103a3.57 3.57 0 0 0-2.495 2.755c-.073.385-.073 3.839 0 4.224.221 1.168 1.036 2.177 2.116 2.617.719.293-.04.271 9.332.271 7.775 0 8.442-.005 8.71-.068a3.7 3.7 0 0 0 1.798-1.004c.573-.6.883-1.272.971-2.111.053-.506.053-10.128 0-10.634-.154-1.465-1.107-2.615-2.526-3.051l-.293-.09-4.367-.021c-4.332-.021-4.368-.022-4.48-.104-.062-.045-.337-.414-.61-.82-.733-1.088-1.217-1.529-2.038-1.861-.519-.21-.622-.216-3.218-.211-1.324.003-2.452.013-2.507.023"/></svg>