<svg xmlns="http://www.w3.org/2000/svg" width="24" height="24" fill="none" stroke="currentColor" stroke-linecap="round" stroke-linejoin="round" stroke-width="3"><path fill="#000" fill-rule="evenodd" stroke="none" d="M3.44 1.547C2.014 1.797.924 2.834.568 4.279.51 4.512.502 5.249.49 11.2c-.009 4.396.001 6.801.028 7.075.048.483.156.873.347 1.261.552 1.118 1.581 1.818 2.86 1.946.275.027 3.162.037 8.575.028 7.44-.012 8.184-.019 8.43-.079.683-.168 1.328-.532 1.778-1.003.573-.6.883-1.272.971-2.111.053-.506.053-10.128 0-10.634-.154-1.465-1.107-2.615-2.526-3.051l-.293-.09-4.362-.021c-4.052-.02-4.369-.026-4.468-.09-.058-.039-.336-.407-.618-.819-.748-1.093-1.07-1.409-1.792-1.757-.678-.327-.527-.312-3.36-.319-1.386-.004-2.565.001-2.62.011m4.75 3.035c.049.034.318.398.598.81.567.832.949 1.253 1.392 1.535.524.333.964.485 1.6.553.205.022 2.098.039 4.394.039l4.034.001.136.136.136.136v10.402l-.103.122a.6.6 0 0 1-.25.163c-.204.056-16.05.056-16.254 0a.6.6 0 0 1-.25-.163l-.103-.122V4.792l.136-.136.136-.136h2.155c1.879 0 2.166.008 2.243.062m3.19 5.992a2.73 2.73 0 0 0-1.279.795c-.21.239-.469.746-.542 1.064A3 3 0 0 0 9.51 13c0 .446.058.695.256 1.112.223.467.655.899 1.122 1.122.417.198.666.256 1.112.256s.695-.058 1.112-.256a2.5 2.5 0 0 0 1.122-1.122c.198-.417.256-.666.256-1.112s-.058-.695-.255-1.11c-.262-.55-.811-1.037-1.418-1.257-.295-.107-1.12-.141-1.437-.059m.964 2.082c.119.119.136.162.136.337 0 .242-.129.424-.343.483a.5.5 0 0 1-.514-.16c-.081-.096-.103-.166-.103-.323 0-.175.017-.218.136-.337s.161-.136.344-.136.224.016.344.136"/></svg>