<svg xmlns="http://www.w3.org/2000/svg" width="24" height="24" fill="none" stroke="currentColor" stroke-linecap="round" stroke-linejoin="round" stroke-width="3"><path fill="#000" fill-rule="evenodd" stroke="none" d="M6.565.584c-.667.112-1.459.442-2.073.863-.37.253-1.033.901-1.323 1.293-1.161 1.569-1.786 3.821-1.648 5.937.062.962.166 1.475.579 2.869.362 1.223.347 1.096.381 3.114.023 1.371.045 1.862.091 2.061.315 1.366 1.375 2.421 2.718 2.705a4.3 4.3 0 0 0 1.42 0 3.6 3.6 0 0 0 1.798-.998c.496-.519.781-1.072.95-1.848.015-.066.041-.822.059-1.68.041-2.013.069-2.157.874-4.46.786-2.248 1.008-3.153 1.086-4.42.176-2.881-1.063-5.008-3.165-5.437C7.929.505 7.035.505 6.565.584m1.378 3.044c.149.106.345.463.437.792.043.155.074.467.088.88.035 1.051-.111 1.813-.652 3.392a174 174 0 0 0-.919 2.778c-.011.038-.213.05-.837.05-.814 0-.822-.001-.86-.09-.121-.283-.565-1.962-.622-2.352-.092-.624-.062-1.761.061-2.338.31-1.449 1.001-2.563 1.858-2.997.336-.17.566-.22.963-.211.299.007.381.023.483.096m7.717.958c-2.084.442-3.322 2.591-3.137 5.444.082 1.27.298 2.151 1.065 4.35.829 2.374.853 2.497.894 4.52.023 1.134.048 1.631.091 1.821a3.56 3.56 0 0 0 2.717 2.705 4.3 4.3 0 0 0 1.42 0c1.061-.224 2.044-1.007 2.468-1.965.293-.664.34-1.065.341-2.921.001-1.598.018-1.746.309-2.737.47-1.6.591-2.183.652-3.126.136-2.111-.485-4.357-1.63-5.9-.732-.987-1.625-1.649-2.716-2.014a6 6 0 0 0-.735-.181c-.478-.078-1.364-.076-1.739.004m1.415 2.992c1.078.287 1.917 1.456 2.293 3.195.119.554.131 2.013.021 2.557-.068.33-.51 1.907-.59 2.1-.037.089-.045.09-.859.09-.624 0-.826-.012-.837-.05a174 174 0 0 0-.919-2.778c-.498-1.453-.664-2.255-.664-3.197.001-.774.092-1.222.329-1.611.175-.289.322-.364.71-.364.166.001.398.027.516.058M6.48 15.357v.837l-.103.122a.49.49 0 0 1-.754 0l-.103-.122V14.52h.96zm12 4v.837l-.103.122a.49.49 0 0 1-.754 0l-.103-.122V18.52h.96z"/></svg>