<svg xmlns="http://www.w3.org/2000/svg" width="24" height="24" fill="none" stroke="currentColor" stroke-linecap="round" stroke-linejoin="round" stroke-width="3"><path fill="#000" fill-rule="evenodd" stroke="none" d="M15.516.577a1.54 1.54 0 0 0-.998 1.233c-.02.138-.037 1.212-.037 2.388l-.001 2.137-1.29-1.277c-1.057-1.047-1.333-1.3-1.53-1.398l-.24-.12H9.4c-1.978 0-2.026.002-2.332.09a3.54 3.54 0 0 0-2.443 2.456c-.115.401-.144.94-.144 2.714l-.001 1.741-.314.07c-1.291.29-2.358 1.424-2.614 2.777-.075.391-.075 5.833 0 6.224.221 1.168 1.036 2.177 2.116 2.617.183.074.463.163.622.197a4.3 4.3 0 0 0 1.42 0 3.6 3.6 0 0 0 2.269-1.598l.195-.308h1.652l.195.308a3.6 3.6 0 0 0 2.269 1.598 4.3 4.3 0 0 0 1.42 0 3.6 3.6 0 0 0 2.269-1.598l.195-.308 2.883-.001c1.586 0 2.995-.017 3.133-.037a1.494 1.494 0 0 0 1.287-1.7 1.51 1.51 0 0 0-.829-1.126l-.228-.116-2.45-.011-2.45-.011-.001-7.729c0-4.382-.016-7.837-.037-7.979A1.51 1.51 0 0 0 16.65.657c-.195-.099-.28-.116-.608-.125q-.381-.01-.526.045M12.43 8.57l2.05 2.05v5.211l-.23-.093c-.6-.241-1.564-.285-2.203-.101-.833.241-1.522.764-2.026 1.537l-.226.346h-1.59l-.226-.346c-.394-.605-.832-1.001-1.446-1.308-.47-.236-.798-.312-1.443-.335l-.57-.021v-1.718l.136-.136.136-.136 3.574-.001c1.966 0 3.686-.017 3.824-.037a1.494 1.494 0 0 0 1.287-1.7 1.51 1.51 0 0 0-.829-1.126l-.228-.116-2.45-.011-2.45-.011V6.792l.136-.136.136-.136h2.588zM5.344 18.656c.119.119.136.162.136.337 0 .242-.129.424-.343.483a.5.5 0 0 1-.514-.16c-.081-.096-.103-.166-.103-.323 0-.175.017-.218.136-.337s.161-.136.344-.136.224.016.344.136m8 0c.119.119.136.162.136.337 0 .242-.129.424-.343.483a.5.5 0 0 1-.514-.16c-.081-.096-.103-.166-.103-.323 0-.175.017-.218.136-.337s.161-.136.344-.136.224.016.344.136"/></svg>