<svg xmlns="http://www.w3.org/2000/svg" width="24" height="24" fill="none" stroke="currentColor" stroke-linecap="round" stroke-linejoin="round" stroke-width="3"><path fill="#000" fill-rule="evenodd" stroke="none" d="M14.516 5.577a1.52 1.52 0 0 0-.859 2.087c.087.191.31.435 1.411 1.542l1.307 1.314h-4.457c-3.825 0-4.508.009-4.808.062-2.062.36-3.689 1.758-4.332 3.722-.243.741-.273 1.023-.276 2.596L2.5 18.3l.105.248c.25.595.761.938 1.395.938.635 0 1.148-.345 1.393-.938.103-.246.104-.258.127-1.688.022-1.351.029-1.455.111-1.677a2.67 2.67 0 0 1 1.552-1.553l.237-.09 4.458-.011 4.459-.011-1.288 1.296c-1.083 1.089-1.305 1.331-1.392 1.522a1.502 1.502 0 0 0 2.011 2.006c.205-.094.543-.417 2.898-2.774 2.098-2.1 2.688-2.712 2.769-2.874a1.6 1.6 0 0 0 .141-.938c-.08-.498-.042-.455-2.91-3.318-3.046-3.042-2.863-2.891-3.526-2.907-.246-.006-.431.01-.524.046"/></svg>