<svg xmlns="http://www.w3.org/2000/svg" width="24" height="24" fill="none" stroke="currentColor" stroke-linecap="round" stroke-linejoin="round" stroke-width="3"><path fill="#000" fill-rule="evenodd" stroke="none" d="M5.516.577a1.54 1.54 0 0 0-.998 1.233c-.02.138-.037.803-.037 1.479L4.48 4.517l-1.45.012-1.45.011-.228.116a1.51 1.51 0 0 0-.829 1.126 1.494 1.494 0 0 0 1.287 1.7c.138.02.794.037 1.46.037l1.21.001v8.997l-1.45.012-1.45.011-.228.116a1.51 1.51 0 0 0-.829 1.126 1.494 1.494 0 0 0 1.287 1.7c.138.02.793.037 1.456.037l1.207.001.014 1.39.015 1.39.104.248c.248.594.76.938 1.394.938s1.146-.344 1.394-.938l.104-.248.015-1.39.014-1.39h8.946l.014 1.39.015 1.39.104.248c.248.594.76.938 1.394.938s1.146-.344 1.394-.938l.104-.248.015-1.39.014-1.39 1.207-.001c.663 0 1.318-.017 1.456-.037a1.494 1.494 0 0 0 1.287-1.7 1.51 1.51 0 0 0-.829-1.126l-.228-.116-1.45-.012-1.45-.012V7.52l1.21-.001c.666 0 1.322-.017 1.46-.037a1.494 1.494 0 0 0 1.287-1.7 1.51 1.51 0 0 0-.829-1.126l-.228-.116-1.45-.012-1.45-.012-.001-1.228c0-.675-.017-1.34-.037-1.478a1.51 1.51 0 0 0-.834-1.154C18.44.55 18.384.54 18 .54s-.44.01-.648.116a1.51 1.51 0 0 0-.834 1.154c-.02.138-.037.804-.037 1.48l-.001 1.23H7.52l-.001-1.23c0-.676-.017-1.342-.037-1.48A1.51 1.51 0 0 0 6.65.657C6.455.558 6.37.541 6.042.532q-.382-.01-.526.045M16.48 12.02v4.5H7.52v-9h8.96z"/></svg>