<svg xmlns="http://www.w3.org/2000/svg" width="24" height="24" fill="none" stroke="currentColor" stroke-linecap="round" stroke-linejoin="round" stroke-width="3"><path fill="#000" fill-rule="evenodd" stroke="none" d="M4.516.579a1.51 1.51 0 0 0-.988 1.653c.076.496.068.487 2.548 2.977l2.299 2.309-1.898.011-1.897.011-.228.116a1.51 1.51 0 0 0-.834 1.154c-.047.326-.047 7.054 0 7.38.082.566-.092.372 3.793 4.26L10.858 24h2.261l.121-.167c.263-.363.257-.275.271-3.443l.012-2.87h2.709c1.661 0 2.809-.017 2.968-.042 1.024-.162 1.576-1.198 1.142-2.146-.093-.201-.392-.517-2.39-2.518l-2.283-2.288 1.815-.013L19.3 10.5l.248-.105q.597-.25.847-.847L20.5 9.3l.012-3.593c.007-2.133-.004-3.706-.027-3.869a1.51 1.51 0 0 0-.837-1.182L19.42.54 12.04.533C5.972.527 4.634.535 4.516.579M17.48 5.52v2h-4.82l-2-2-2-2h8.82zm-4.1 7 2 2H6.52v-4h4.86zm-2.9 5.9c0 .495-.005.9-.01.9a56 56 0 0 1-.91-.9l-.899-.9h1.819z"/></svg>