<svg xmlns="http://www.w3.org/2000/svg" width="24" height="24" fill="none" stroke="currentColor" stroke-linecap="round" stroke-linejoin="round" stroke-width="3"><path fill="#000" fill-rule="evenodd" stroke="none" d="M5.44.547c-1.2.209-2.264 1.061-2.684 2.149-.273.709-.252-.045-.265 9.364l-.013 8.521-.19.107a1.51 1.51 0 0 0-.765 1.094 1.494 1.494 0 0 0 1.287 1.7c.328.048 12.052.048 12.38 0a1.494 1.494 0 0 0 1.287-1.7 1.51 1.51 0 0 0-.766-1.095l-.191-.107v-6.06h.344c.335 0 .347.003.475.131l.131.131.021 1.339c.015.985.037 1.408.081 1.6.314 1.365 1.375 2.421 2.718 2.705a4.3 4.3 0 0 0 1.42 0 3.6 3.6 0 0 0 1.798-.998c.573-.6.883-1.272.971-2.111.055-.519.054-7.265-.001-7.799a3.7 3.7 0 0 0-.453-1.44c-.25-.425-.63-.835-2.49-2.679C18.614 3.493 18.677 3.54 18 3.54c-.384 0-.44.01-.648.116-.753.381-1.048 1.237-.695 2.01.091.197.36.484 1.964 2.094l1.859 1.865v7.569l-.103.122a.49.49 0 0 1-.754 0l-.103-.122-.001-1.067c0-.587-.018-1.237-.04-1.444-.132-1.255-.824-2.255-1.946-2.817-.47-.236-.798-.312-1.443-.335l-.57-.021-.001-3.725c0-2.18-.017-3.881-.04-4.102-.154-1.465-1.106-2.614-2.526-3.051l-.293-.09L9.1.536a202 202 0 0 0-3.66.011m6.904 3.109.136.136V7.52H5.52V3.792l.136-.136.136-.136h6.416zm.136 11.864v5H5.52v-10h6.96z"/></svg>