<svg xmlns="http://www.w3.org/2000/svg" width="24" height="24" fill="none" stroke="currentColor" stroke-linecap="round" stroke-linejoin="round" stroke-width="3"><path fill="#000" fill-rule="evenodd" stroke="none" d="M1.516 1.577c-.554.212-.919.67-1 1.254C.494 2.993.483 6.735.489 12.2L.5 21.3l.105.248c.25.595.761.938 1.395.938s1.145-.343 1.395-.938L3.5 21.3l.011-9.1c.006-5.465-.005-9.207-.027-9.369a1.5 1.5 0 0 0-.834-1.174c-.195-.099-.28-.116-.608-.125-.253-.007-.431.008-.526.045m5.924-.03a3.56 3.56 0 0 0-2.888 2.841c-.076.399-.076 14.825 0 15.224.221 1.168 1.036 2.177 2.116 2.617.7.285.421.271 5.332.271 4.015 0 4.447-.006 4.71-.068a3.7 3.7 0 0 0 1.798-1.004c.573-.6.883-1.272.971-2.111.054-.511.054-14.123 0-14.634-.154-1.465-1.105-2.613-2.526-3.052l-.293-.09-4.56-.005c-2.508-.004-4.605.002-4.66.011m14.076.03c-.554.212-.919.67-1 1.254-.022.162-.033 3.904-.027 9.369l.011 9.1.105.248c.25.595.761.938 1.395.938s1.145-.343 1.395-.938l.105-.248.011-9.1c.006-5.465-.005-9.207-.027-9.369a1.5 1.5 0 0 0-.834-1.174c-.195-.099-.28-.116-.608-.125-.253-.007-.431.008-.526.045m-5.172 3.079.136.136v14.402l-.103.122a.6.6 0 0 1-.25.163c-.202.056-8.052.056-8.254 0a.6.6 0 0 1-.25-.163l-.103-.122V4.792l.136-.136.136-.136h8.416z"/></svg>