<svg xmlns="http://www.w3.org/2000/svg" width="24" height="24" fill="none" stroke="currentColor" stroke-linecap="round" stroke-linejoin="round" stroke-width="3"><path fill="#000" fill-rule="evenodd" stroke="none" d="M11.44 1.547a3.56 3.56 0 0 0-2.888 2.841c-.076.399-.076 14.825 0 15.224.221 1.168 1.036 2.177 2.116 2.617.7.285.421.271 5.332.271 4.015 0 4.447-.006 4.71-.068a3.7 3.7 0 0 0 1.798-1.004c.573-.6.883-1.272.971-2.111.054-.511.054-14.123 0-14.634-.154-1.465-1.105-2.613-2.526-3.052l-.293-.09-4.56-.005c-2.508-.004-4.605.002-4.66.011m-5.924 2.03c-.555.212-.919.67-1 1.255-.023.162-.033 3.115-.027 7.369L4.5 19.3l.105.248c.25.595.761.938 1.395.938s1.145-.343 1.395-.938L7.5 19.3l.011-7.099c.006-4.254-.004-7.207-.027-7.369a1.5 1.5 0 0 0-.834-1.175c-.195-.099-.28-.116-.608-.125q-.382-.01-.526.045m14.828 1.079.136.136v14.402l-.103.122a.6.6 0 0 1-.25.163c-.202.056-8.052.056-8.254 0a.6.6 0 0 1-.25-.163l-.103-.122V4.792l.136-.136.136-.136h8.416zm-18.828.921A1.54 1.54 0 0 0 .515 6.835c-.022.162-.033 2.326-.026 5.368L.5 17.3l.105.248c.25.595.761.938 1.395.938s1.145-.343 1.395-.938L3.5 17.3l.011-5.097c.007-3.042-.004-5.206-.026-5.368a1.51 1.51 0 0 0-.835-1.178c-.195-.099-.28-.116-.608-.125-.253-.007-.431.008-.526.045"/></svg>