<svg xmlns="http://www.w3.org/2000/svg" width="24" height="24" fill="none" stroke="currentColor" stroke-linecap="round" stroke-linejoin="round" stroke-width="3"><path fill="#000" fill-rule="evenodd" stroke="none" d="M4.44 1.547a3.56 3.56 0 0 0-2.888 2.841c-.076.397-.076 10.827 0 11.224.221 1.168 1.036 2.177 2.116 2.617.716.292.076.271 8.332.271 6.835 0 7.443-.005 7.71-.068a3.7 3.7 0 0 0 1.798-1.004c.573-.6.883-1.272.971-2.111.053-.506.053-10.128 0-10.634-.154-1.464-1.103-2.611-2.526-3.052l-.293-.091-7.56-.005c-4.158-.002-7.605.003-7.66.012m14.904 3.109.136.136v10.402l-.103.122a.6.6 0 0 1-.25.163c-.204.056-14.05.056-14.254 0a.6.6 0 0 1-.25-.163l-.103-.122V4.792l.136-.136.136-.136h14.416zM3.516 19.577c-1.048.396-1.349 1.701-.571 2.478.353.354.721.463 1.555.463s1.202-.109 1.555-.463c.726-.726.523-1.928-.407-2.399l-.228-.116-.88-.009c-.663-.006-.916.005-1.024.046m5 0c-1.048.396-1.349 1.701-.571 2.478.353.354.721.463 1.555.463s1.202-.109 1.555-.463c.726-.726.523-1.928-.407-2.399l-.228-.116-.88-.009c-.663-.006-.916.005-1.024.046m5 0c-1.048.396-1.349 1.701-.571 2.478.353.354.721.463 1.555.463s1.202-.109 1.555-.463c.726-.726.523-1.928-.407-2.399l-.228-.116-.88-.009c-.663-.006-.916.005-1.024.046m5 0c-1.048.396-1.349 1.701-.571 2.478.353.354.721.463 1.555.463s1.202-.109 1.555-.463c.726-.726.523-1.928-.407-2.399l-.228-.116-.88-.009c-.663-.006-.916.005-1.024.046"/></svg>