<svg xmlns="http://www.w3.org/2000/svg" width="24" height="24" fill="none" stroke="currentColor" stroke-linecap="round" stroke-linejoin="round" stroke-width="3"><path fill="#000" fill-rule="evenodd" stroke="none" d="M3.44 4.547A3.56 3.56 0 0 0 .552 7.388c-.075.396-.075 8.828 0 9.224.221 1.168 1.036 2.177 2.116 2.617.719.293-.04.271 9.332.271 7.775 0 8.442-.005 8.71-.068 1.537-.359 2.605-1.561 2.769-3.115.053-.502.053-8.132 0-8.634-.154-1.464-1.103-2.61-2.526-3.052l-.293-.091-8.56-.005c-4.708-.002-8.605.003-8.66.012m16.904 3.109.136.136v8.402l-.103.122a.6.6 0 0 1-.25.163c-.204.056-16.05.056-16.254 0a.6.6 0 0 1-.25-.163l-.103-.122V7.792l.136-.136.136-.136h16.416zm-12.828.921c-.371.142-.711.446-.864.773-.106.228-.17.576-.171.937l-.001.226-.45.014c-.402.012-.474.025-.678.129-.93.471-1.133 1.673-.407 2.399.315.316.731.462 1.319.464l.204.001.027.405c.039.599.179.904.576 1.25.473.413 1.385.413 1.858 0 .397-.346.537-.651.576-1.25l.027-.405.204-.001c.588-.002 1.004-.148 1.319-.464.726-.726.522-1.929-.407-2.399-.203-.103-.277-.117-.678-.13l-.45-.015-.001-.225c-.003-.811-.28-1.331-.869-1.629-.195-.099-.28-.116-.608-.125q-.382-.01-.526.045m10 1c-1.049.399-1.349 1.701-.571 2.478.58.58 1.53.583 2.107.007a1.47 1.47 0 0 0 0-2.124c-.292-.292-.55-.395-1.012-.407-.247-.006-.431.01-.524.046m-3 2c-1.049.399-1.349 1.701-.571 2.478.58.58 1.53.583 2.107.007a1.47 1.47 0 0 0 0-2.124c-.292-.292-.55-.395-1.012-.407-.247-.006-.431.01-.524.046"/></svg>