<svg xmlns="http://www.w3.org/2000/svg" width="24" height="24" fill="none" stroke="currentColor" stroke-linecap="round" stroke-linejoin="round" stroke-width="3"><path fill="#000" fill-rule="evenodd" stroke="none" d="M5.78 3.582A5.52 5.52 0 0 0 1.797 6.49c-.412.801-.496 1.167-.734 3.191-.483 4.1-.642 6.301-.506 7.039.35 1.914 1.749 3.338 3.639 3.705.621.121 1.511.062 2.084-.137.678-.236 1.073-.536 2.351-1.786l1.003-.982h4.732l.998.978c1.273 1.247 1.677 1.554 2.356 1.79.573.199 1.463.258 2.084.137 1.86-.361 3.247-1.747 3.623-3.621.08-.401.078-1.389-.006-2.424-.129-1.599-.541-5.395-.683-6.289-.195-1.234-.922-2.51-1.873-3.287-.812-.663-1.689-1.064-2.684-1.225-.514-.084-11.905-.081-12.401.003m12.162 2.999c.774.197 1.46.823 1.718 1.564.105.303.214 1.103.477 3.515.245 2.25.315 3.121.319 3.96l.004.8-.112.22q-.287.561-.812.758c-.294.11-.705.12-.899.022-.075-.038-.578-.505-1.117-1.038-.539-.532-1.076-1.043-1.194-1.135a3.7 3.7 0 0 0-1.086-.575l-.38-.132H9.14l-.38.132a3.7 3.7 0 0 0-1.086.575c-.118.092-.655.603-1.194 1.135-.539.533-1.042 1-1.117 1.038-.194.098-.605.088-.899-.022q-.524-.197-.812-.758l-.112-.22.005-.82c.005-.886.098-1.997.377-4.48.241-2.14.308-2.64.396-2.925.233-.753.92-1.395 1.726-1.612.333-.089 11.547-.092 11.898-.002m-10.426.996c-.371.142-.711.446-.864.773-.106.228-.17.576-.171.937l-.001.226-.45.014c-.402.012-.474.025-.678.129-.93.471-1.133 1.673-.407 2.399.315.316.731.462 1.319.464l.204.001.027.405c.039.599.179.904.576 1.25.473.413 1.385.413 1.858 0 .397-.346.537-.651.576-1.25l.027-.405.204-.001c.588-.002 1.004-.148 1.319-.464.726-.726.522-1.929-.407-2.399-.203-.103-.277-.117-.678-.13l-.45-.015-.001-.225c-.003-.811-.28-1.331-.869-1.629-.195-.099-.28-.116-.608-.125q-.382-.01-.526.045m10 1c-1.049.399-1.349 1.701-.571 2.478.58.58 1.53.583 2.107.007a1.47 1.47 0 0 0 0-2.124c-.292-.292-.55-.395-1.012-.407-.247-.006-.431.01-.524.046m-3 2c-1.049.399-1.349 1.701-.571 2.478.58.58 1.53.583 2.107.007a1.47 1.47 0 0 0 0-2.124c-.292-.292-.55-.395-1.012-.407-.247-.006-.431.01-.524.046"/></svg>