<svg xmlns="http://www.w3.org/2000/svg" width="24" height="24" fill="none" stroke="currentColor" stroke-linecap="round" stroke-linejoin="round" stroke-width="3"><path fill="#000" fill-rule="evenodd" stroke="none" d="M10.64 2.584a11.57 11.57 0 0 0-7.842 4.519C.947 9.566.147 12.791.643 15.8c.215 1.301.655 2.606 1.231 3.646.252.455.393.634.619.788.425.291.992.345 1.436.137.45-.211.71-.508.847-.968.131-.443.066-.781-.275-1.423-.666-1.253-.981-2.54-.981-4 0-2.278.871-4.379 2.479-5.98C7.633 6.373 9.698 5.52 12 5.52s4.378.858 6 2.48a8.33 8.33 0 0 1 2.48 5.98c0 1.477-.27 2.576-.983 4.001-.263.526-.303.635-.324.882-.055.659.278 1.218.898 1.508.212.099.313.122.545.123.47.003.906-.19 1.177-.518.177-.215.517-.847.761-1.415a11.48 11.48 0 0 0 .104-8.871A11.49 11.49 0 0 0 13.3 2.58c-.645-.075-2.025-.073-2.66.004m4.876 5.993a2.3 2.3 0 0 0-.32.163c-.097.059-1.133 1.065-2.304 2.234-1.863 1.862-2.141 2.155-2.233 2.358a1.502 1.502 0 0 0 2.009 2.01c.203-.093.499-.373 2.4-2.274s2.181-2.197 2.274-2.4c.354-.776.06-1.63-.694-2.012-.198-.101-.279-.117-.608-.125-.246-.006-.431.01-.524.046"/></svg>