<svg xmlns="http://www.w3.org/2000/svg" width="24" height="24" fill="none" stroke="currentColor" stroke-linecap="round" stroke-linejoin="round" stroke-width="3"><path fill="#000" fill-rule="evenodd" stroke="none" d="M13.516.577a2.3 2.3 0 0 0-.32.163c-.178.11-5.848 5.735-6.275 6.226-.298.341-.407.621-.407 1.04 0 .627.351 1.148.931 1.382.449.182 1.114.103 1.427-.169l.108-.094.19.186.191.187-3.555 3.561c-2.186 2.19-3.626 3.664-3.741 3.827-.769 1.096-.893 2.476-.329 3.652a3.55 3.55 0 0 0 1.755 1.742c1.172.55 2.526.419 3.629-.351.158-.11 1.657-1.575 3.821-3.735l3.562-3.554.186.19.186.19-.094.108c-.272.313-.351.978-.169 1.427.234.58.755.931 1.382.931.418 0 .699-.109 1.04-.406.146-.128 1.601-1.57 3.234-3.206 2.621-2.627 2.98-3.001 3.073-3.206.355-.776.061-1.63-.693-2.012-.188-.096-.289-.118-.577-.13-.395-.016-.608.039-.887.227l-.174.117-2.943-2.945-2.943-2.945.094-.108c.16-.182.268-.536.268-.872 0-.602-.289-1.064-.844-1.347-.187-.095-.274-.112-.6-.121q-.382-.01-.526.045M15.94 8.08 18.86 11l-.93.93-.93.93-2.93-2.93L11.14 7l.92-.92c.506-.506.929-.92.94-.92s1.334 1.314 2.94 2.92m-7.112 7.952c-3.819 3.819-3.625 3.645-3.978 3.566a.64.64 0 0 1-.3-.194c-.14-.151-.15-.177-.15-.412v-.251l3.55-3.55 3.549-3.551.431.43.431.429z"/></svg>