<svg xmlns="http://www.w3.org/2000/svg" width="24" height="24" fill="none" stroke="currentColor" stroke-linecap="round" stroke-linejoin="round" stroke-width="3"><path fill="#000" fill-rule="evenodd" stroke="none" d="m8.18 1.52-2.6.02-.22.108c-.121.06-.303.195-.405.3C4.791 2.118.79 8.069.628 8.385.47 8.691.469 9.26.625 9.61c.037.083 2.382 3.159 5.211 6.836 4.988 6.482 5.152 6.689 5.394 6.835a1.49 1.49 0 0 0 1.757-.148c.165-.146 10.268-13.287 10.371-13.49.171-.335.178-.94.014-1.258-.162-.316-4.163-6.267-4.327-6.437a1.34 1.34 0 0 0-.864-.414c-.397-.026-7.21-.035-10.001-.014m-.37 4.49L7.06 7.5l-1.113.011c-.941.009-1.111.002-1.1-.046.007-.031.445-.706.973-1.5l.96-1.443.89-.001.891-.001zM12.82 6a80 80 0 0 1 .74 1.5c0 .011-.702.02-1.56.02s-1.56-.009-1.56-.02.333-.686.74-1.5c.603-1.205.755-1.48.82-1.48s.217.275.82 1.48m5.36-.035c.528.794.966 1.469.973 1.5.011.048-.159.055-1.1.046L16.94 7.5l-.75-1.49-.751-1.49.891.001.89.001zm-10.688 6.48c.325 1.059.584 1.933.574 1.942-.015.015-2.868-3.664-2.958-3.814-.026-.043.132-.053.88-.053H6.9zm6.458-1.875a675 675 0 0 0-.974 3.16c-.526 1.71-.965 3.11-.976 3.11s-.45-1.4-.976-3.11a675 675 0 0 0-.974-3.16c-.015-.04.392-.05 1.95-.05s1.965.01 1.95.05m4.941 0-1.489 1.942c-.798 1.041-1.459 1.885-1.468 1.875-.01-.009.249-.883.574-1.942l.592-1.925h.915c.726 0 .907.01.876.05"/></svg>