<svg xmlns="http://www.w3.org/2000/svg" width="24" height="24" fill="none" stroke="currentColor" stroke-linecap="round" stroke-linejoin="round" stroke-width="3"><path fill="#000" fill-rule="evenodd" stroke="none" d="M11.08.545C8.813.816 6.971 1.668 5.427 3.158 3.843 4.686 2.936 6.467 2.572 8.76c-.06.376-.068 1.084-.081 6.771-.009 3.936 0 6.457.024 6.629.121.874.865 1.443 1.717 1.312.451-.069.588-.171 1.718-1.288l1.049-1.037.8.788c.684.675.839.807 1.071.917.242.115.308.128.63.128s.388-.013.63-.128c.232-.11.387-.242 1.07-.916l.8-.789.8.789c.683.674.838.806 1.07.916.242.115.308.128.63.128s.388-.013.63-.128c.232-.11.387-.242 1.071-.917l.8-.788 1.056 1.047c.868.861 1.096 1.066 1.281 1.15.952.436 1.984-.126 2.143-1.167.03-.196.039-2.228.029-6.64-.014-6.271-.015-6.364-.1-6.884-.282-1.739-.927-3.235-1.96-4.549-.312-.398-1.248-1.322-1.632-1.612-1.296-.979-2.689-1.59-4.238-1.857-.372-.065-.692-.086-1.42-.095a20 20 0 0 0-1.08.005m1.86 3.032c2.872.441 5.042 2.611 5.483 5.483.045.29.056 1.224.056 4.813l.001 4.454-.301-.278a3 3 0 0 0-.53-.393c-.209-.106-.265-.116-.649-.116-.624 0-.707.05-1.7 1.027l-.8.786-.8-.786c-.993-.977-1.076-1.027-1.7-1.027s-.707.05-1.7 1.027l-.8.786-.8-.786C7.707 17.59 7.624 17.54 7 17.54c-.384 0-.44.01-.649.116a3 3 0 0 0-.53.393l-.301.278.001-4.454c0-4.735.001-4.744.196-5.502.644-2.508 2.714-4.378 5.303-4.791.436-.069 1.478-.071 1.92-.003m-4.424 5c-1.049.399-1.349 1.701-.571 2.478.58.58 1.53.583 2.107.007a1.47 1.47 0 0 0 0-2.124c-.292-.292-.55-.395-1.012-.407-.247-.006-.431.01-.524.046m6 0c-1.049.399-1.349 1.701-.571 2.478.58.58 1.53.583 2.107.007a1.47 1.47 0 0 0 0-2.124c-.292-.292-.55-.395-1.012-.407-.247-.006-.431.01-.524.046"/></svg>