<svg xmlns="http://www.w3.org/2000/svg" width="24" height="24" fill="none" stroke="currentColor" stroke-linecap="round" stroke-linejoin="round" stroke-width="3"><path fill="#000" fill-rule="evenodd" stroke="none" d="M6.72 1.582c-1.757.376-3.021 1.775-3.195 3.538-.037.377-.001.994.073 1.27.033.121.028.132-.071.152-.512.108-.913.328-1.312.722a1.9 1.9 0 0 0-.447.62C1.509 8.428 1.5 8.501 1.5 10c0 1.498.009 1.573.266 2.112.222.467.655.899 1.122 1.122.183.087.389.171.46.185l.127.026.016 3.008c.013 2.558.025 3.046.078 3.268.333 1.381 1.344 2.389 2.721 2.711.265.062.755.068 5.71.068s5.445-.006 5.71-.068c1.297-.303 2.276-1.216 2.649-2.468.139-.468.16-.946.16-3.771l.001-2.747.13-.026c.072-.015.279-.099.462-.186.467-.223.9-.655 1.122-1.122.257-.539.266-.614.266-2.112 0-1.497-.01-1.573-.265-2.11a2 2 0 0 0-.447-.62c-.397-.398-.798-.619-1.315-.728-.099-.02-.104-.032-.071-.152.074-.277.11-.894.073-1.27-.174-1.767-1.448-3.174-3.203-3.536-.388-.08-1.202-.084-1.602-.007a5.3 5.3 0 0 0-1.97.843c-.354.247-1.225 1.115-1.476 1.47-.105.148-.206.27-.224.27s-.119-.122-.224-.27c-.251-.355-1.122-1.223-1.476-1.47a5.3 5.3 0 0 0-1.97-.843c-.375-.072-1.264-.069-1.61.005m1.546 3.115c.259.126.385.226.714.561.247.252.481.54.613.752.348.562.425.51-.758.509-.558 0-1.173-.017-1.367-.037-.304-.032-.378-.056-.539-.172-.6-.431-.534-1.357.12-1.689.191-.096.245-.105.557-.092.304.013.386.034.66.168m8.756-.036c.289.178.433.434.451.795.012.25 0 .31-.101.502-.074.141-.18.266-.301.352-.161.116-.235.14-.539.172-.194.02-.809.037-1.367.037-1.183.001-1.105.053-.758-.51.289-.468.961-1.147 1.293-1.306.352-.169.406-.181.783-.171.305.007.366.022.539.129m-6.542 5.361v.501l-2.98-.005-2.98-.006V9.52h5.96zm9-.006v.496l-2.98.006-2.98.005V9.52h5.96zm-9 6.504v3H8.75c-1.057 0-1.787-.016-1.877-.041a.6.6 0 0 1-.25-.163l-.103-.122V13.52h3.96zm7-.163v2.837l-.103.122a.6.6 0 0 1-.25.163c-.09.025-.82.041-1.877.041h-1.73v-6h3.96z"/></svg>