<svg xmlns="http://www.w3.org/2000/svg" width="24" height="24" fill="none" stroke="currentColor" stroke-linecap="round" stroke-linejoin="round" stroke-width="3"><path fill="#000" fill-rule="evenodd" stroke="none" d="M5.516 1.577a1.54 1.54 0 0 0-.998 1.233c-.02.139-.037 2.632-.037 5.597l-.001 5.348-.378.179a4.36 4.36 0 0 0-1.507 1.136c-.521.594-.891 1.385-1.036 2.21-.059.334-.059 1.106 0 1.44.361 2.054 2.013 3.583 4.057 3.756 2.473.208 4.652-1.626 4.86-4.092a4.46 4.46 0 0 0-1.343-3.596 3.9 3.9 0 0 0-1.123-.798l-.411-.205.025-.142c.135-.791.529-1.817.975-2.543A7.9 7.9 0 0 1 11.1 8.599c.726-.446 1.752-.84 2.542-.975.143-.025.143-.024.26.226.703 1.504 2.096 2.489 3.714 2.626A4.48 4.48 0 0 0 22.13 7.76a4.49 4.49 0 0 0-.555-4.483 5.8 5.8 0 0 0-.935-.919c-.322-.241-1.042-.58-1.5-.707-.37-.102-.455-.11-1.14-.11s-.77.008-1.14.11c-.458.127-1.178.466-1.5.707A5.1 5.1 0 0 0 14.136 3.7a7 7 0 0 0-.39.83q-.024.07-.142.07c-.181 0-1.097.19-1.55.322A10.7 10.7 0 0 0 7.92 7.253l-.38.344-.021-2.448-.02-2.449-.094-.233a1.54 1.54 0 0 0-.763-.814c-.187-.095-.274-.112-.6-.121q-.382-.01-.526.045m13.137 3.081c.272.138.573.445.709.722.085.174.098.255.098.62 0 .384-.01.44-.116.648a1.51 1.51 0 0 1-1.126.829 1.5 1.5 0 0 1-1.562-.829c-.106-.208-.116-.264-.116-.648 0-.365.013-.446.098-.62.173-.352.515-.664.878-.803q.144-.055.526-.045c.329.009.413.026.611.126m-1.137 8.919c-.371.142-.711.446-.864.773-.135.289-.17.587-.171 1.438l-.001.728-.95.012-.95.012-.228.116c-.93.471-1.133 1.673-.407 2.399.381.382.7.463 1.82.464l.705.001.018.89c.016.842.023.904.119 1.138.243.592.758.938 1.393.938s1.15-.346 1.393-.938c.096-.234.103-.296.119-1.138l.018-.89.705-.001c1.12-.001 1.439-.082 1.82-.464.726-.726.523-1.928-.407-2.399l-.228-.116-.95-.013-.95-.012-.001-.728c0-.4-.017-.839-.037-.977a1.51 1.51 0 0 0-.832-1.153c-.195-.099-.28-.116-.608-.125-.253-.007-.431.008-.526.045M6.653 16.658c.272.138.573.445.709.722.085.174.098.255.098.62 0 .384-.01.44-.116.648a1.5 1.5 0 0 1-1.562.829 1.51 1.51 0 0 1-1.126-.829c-.106-.208-.116-.264-.116-.648 0-.365.013-.446.098-.62.173-.352.515-.664.878-.803q.144-.055.526-.045c.329.009.413.026.611.126"/></svg>