<svg xmlns="http://www.w3.org/2000/svg" width="24" height="24" fill="none" stroke="currentColor" stroke-linecap="round" stroke-linejoin="round" stroke-width="3"><path fill="#000" fill-rule="evenodd" stroke="none" d="M4.277 1.558C2.806 1.827 1.61 2.719.961 4.032A5.2 5.2 0 0 0 .559 5.28C.5 5.614.5 6.386.559 6.72a4.52 4.52 0 0 0 2.77 3.453l.149.062.011 5.533L3.5 21.3l.105.248c.25.595.761.938 1.395.938s1.145-.343 1.395-.938L6.5 21.3l.02-5.535.02-5.536.281-.124a4.48 4.48 0 0 0 2.655-4.489 4.43 4.43 0 0 0-1.343-2.828 3.8 3.8 0 0 0-1.153-.81c-.678-.332-1.061-.423-1.86-.44-.363-.007-.742.002-.843.02m10.239.019c-.322.123-.562.338-2.122 1.897-1.244 1.245-1.65 1.674-1.728 1.832a1.6 1.6 0 0 0 0 1.388c.078.158.489.593 1.768 1.874 1.443 1.444 1.697 1.681 1.898 1.773 1.113.51 2.308-.358 2.145-1.559-.045-.329-.196-.609-.515-.952l-.289-.31h1.526l.13.117.131.116.02 1.774.021 1.773.104.248c.249.594.761.938 1.395.938s1.145-.344 1.395-.938l.104-.248.014-1.568c.018-2.055-.029-2.501-.335-3.193-.388-.876-1.248-1.613-2.225-1.905-.259-.077-.412-.089-1.303-.104l-1.01-.017.305-.327c.336-.359.486-.632.532-.968a1.5 1.5 0 0 0-.827-1.561c-.195-.099-.28-.116-.608-.125q-.382-.01-.526.045M5.653 4.658c.272.138.573.445.709.722.085.174.098.255.098.62 0 .384-.01.44-.116.648-.15.297-.428.576-.704.707-.194.093-.27.105-.64.105s-.446-.012-.64-.105a1.65 1.65 0 0 1-.704-.707C3.55 6.44 3.54 6.384 3.54 6c0-.365.013-.446.098-.62.173-.352.515-.664.878-.803.095-.037.273-.052.526-.045.329.009.413.026.611.126m12.863 8.919c-.371.142-.711.446-.864.773-.135.289-.17.587-.171 1.438l-.001.728-.95.012-.95.012-.228.116c-.93.471-1.133 1.673-.407 2.399.381.382.7.463 1.82.464l.705.001.018.89c.016.842.023.904.119 1.138.243.592.758.938 1.393.938s1.15-.346 1.393-.938c.096-.234.103-.296.119-1.138l.018-.89.705-.001c1.12-.001 1.439-.082 1.82-.464.726-.726.523-1.928-.407-2.399l-.228-.116-.95-.013-.95-.012-.001-.728c0-.4-.017-.839-.037-.977a1.51 1.51 0 0 0-.832-1.153c-.195-.099-.28-.116-.608-.125-.253-.007-.431.008-.526.045"/></svg>