<svg xmlns="http://www.w3.org/2000/svg" width="24" height="24" fill="none" stroke="currentColor" stroke-linecap="round" stroke-linejoin="round" stroke-width="3"><path fill="#000" fill-rule="evenodd" stroke="none" d="M4.277 1.558C2.806 1.827 1.61 2.719.961 4.032A5.2 5.2 0 0 0 .559 5.28C.5 5.614.5 6.386.559 6.72a4.52 4.52 0 0 0 2.77 3.453l.149.062.011 5.533L3.5 21.3l.105.248c.25.595.761.938 1.395.938s1.145-.343 1.395-.938L6.5 21.3l.02-5.535.02-5.536.281-.124a4.48 4.48 0 0 0 2.655-4.489 4.43 4.43 0 0 0-1.343-2.828 3.8 3.8 0 0 0-1.153-.81c-.678-.332-1.061-.423-1.86-.44-.363-.007-.742.002-.843.02m10.239.019c-.322.123-.562.338-2.122 1.897-1.244 1.245-1.65 1.674-1.728 1.832a1.6 1.6 0 0 0 0 1.388c.078.158.489.593 1.768 1.874 1.443 1.444 1.697 1.681 1.898 1.773 1.113.51 2.308-.358 2.145-1.559-.045-.329-.196-.609-.515-.952l-.289-.31h1.535l.136.136.136.136v5.963l-.378.179a4.36 4.36 0 0 0-1.507 1.136c-.521.594-.891 1.385-1.036 2.21-.059.334-.059 1.106 0 1.44.361 2.054 2.013 3.583 4.057 3.756 2.473.208 4.652-1.626 4.86-4.092a4.46 4.46 0 0 0-1.343-3.596c-.393-.383-.654-.566-1.163-.816l-.45-.222-.001-2.845c0-1.597-.018-3.01-.04-3.222-.132-1.255-.824-2.255-1.946-2.817-.565-.283-.754-.317-1.883-.336l-1.01-.017.305-.327c.336-.359.486-.632.532-.968a1.5 1.5 0 0 0-.827-1.561c-.195-.099-.28-.116-.608-.125q-.382-.01-.526.045M5.653 4.658c.272.138.573.445.709.722.085.174.098.255.098.62 0 .384-.01.44-.116.648-.15.297-.428.576-.704.707-.194.093-.27.105-.64.105s-.446-.012-.64-.105a1.65 1.65 0 0 1-.704-.707C3.55 6.44 3.54 6.384 3.54 6c0-.365.013-.446.098-.62.173-.352.515-.664.878-.803.095-.037.273-.052.526-.045.329.009.413.026.611.126m14 12c.272.138.573.445.709.722.085.174.098.255.098.62 0 .384-.01.44-.116.648a1.51 1.51 0 0 1-1.126.829 1.5 1.5 0 0 1-1.562-.829c-.106-.208-.116-.264-.116-.648 0-.365.013-.446.098-.62.173-.352.515-.664.878-.803q.144-.055.526-.045c.329.009.413.026.611.126"/></svg>