<svg xmlns="http://www.w3.org/2000/svg" width="24" height="24" fill="none" stroke="currentColor" stroke-linecap="round" stroke-linejoin="round" stroke-width="3"><path fill="#000" fill-rule="evenodd" stroke="none" d="M5.277 1.558c-1.471.269-2.667 1.161-3.316 2.474a5.2 5.2 0 0 0-.402 1.248c-.059.334-.059 1.106 0 1.44a4.53 4.53 0 0 0 2.769 3.453l.147.061.016 3.113c.013 2.656.024 3.151.078 3.374.331 1.373 1.347 2.391 2.701 2.706.335.078 3.409.126 3.879.06.376-.052.664-.19.906-.432.726-.726.523-1.928-.407-2.399l-.228-.116-1.782-.02c-1.614-.018-1.792-.027-1.889-.091-.243-.158-.23.021-.219-3.228l.01-2.972.281-.124a4.48 4.48 0 0 0 2.655-4.489 4.43 4.43 0 0 0-1.343-2.828 3.8 3.8 0 0 0-1.153-.81c-.678-.332-1.061-.423-1.86-.44-.363-.007-.742.002-.843.02m1.376 3.1c.272.138.573.445.709.722.085.174.098.255.098.62 0 .384-.01.44-.116.648-.15.297-.428.576-.704.707-.194.093-.27.105-.64.105s-.446-.012-.64-.105a1.65 1.65 0 0 1-.704-.707C4.55 6.44 4.54 6.384 4.54 6c0-.365.013-.446.098-.62.173-.352.515-.664.878-.803q.144-.055.526-.045c.329.009.413.026.611.126m5.863-.08c-.531.199-.921.672-.993 1.204a1.494 1.494 0 0 0 1.287 1.7c.138.02.958.037 1.824.037l1.574.001.136.136.136.136v5.963l-.378.179a4.4 4.4 0 0 0-2.141 2.098A4.34 4.34 0 0 0 13.513 18c0 .253.02.577.046.72.361 2.054 2.013 3.583 4.057 3.756 2.473.208 4.652-1.626 4.86-4.092a4.46 4.46 0 0 0-1.343-3.596c-.393-.383-.654-.566-1.163-.816l-.45-.222-.001-2.845c0-1.597-.018-3.01-.04-3.222-.154-1.465-1.111-2.619-2.526-3.05-.284-.087-.354-.09-2.293-.099-1.604-.009-2.029 0-2.144.044m6.137 12.08c.272.138.573.445.709.722.085.174.098.255.098.62 0 .384-.01.44-.116.648a1.51 1.51 0 0 1-1.126.829 1.5 1.5 0 0 1-1.562-.829c-.106-.208-.116-.264-.116-.648 0-.365.013-.446.098-.62.173-.352.515-.664.878-.803q.144-.055.526-.045c.329.009.413.026.611.126"/></svg>