<svg xmlns="http://www.w3.org/2000/svg" width="24" height="24" fill="none" stroke="currentColor" stroke-linecap="round" stroke-linejoin="round" stroke-width="3"><path fill="#000" fill-rule="evenodd" stroke="none" d="M11.516 1.577a1.54 1.54 0 0 0-.998 1.233c-.02.138-.037 1.306-.037 2.597l-.001 2.348-.378.179A4.36 4.36 0 0 0 8.595 9.07c-.521.594-.891 1.385-1.036 2.21-.059.334-.059 1.106 0 1.44a4.53 4.53 0 0 0 2.769 3.453l.148.061.012 2.533.012 2.533.105.248c.25.595.761.938 1.395.938s1.145-.343 1.395-.938l.105-.248.02-2.535.02-2.536.281-.124a4.48 4.48 0 0 0 2.655-4.489 4.43 4.43 0 0 0-1.343-2.828c-.393-.383-.654-.566-1.163-.816l-.45-.222-.001-2.345c0-1.29-.017-2.457-.037-2.595a1.51 1.51 0 0 0-.832-1.153c-.195-.099-.28-.116-.608-.125q-.382-.01-.526.045m1.137 9.081c.272.138.573.445.709.722.085.174.098.255.098.62 0 .384-.01.44-.116.648-.15.297-.428.576-.704.707-.194.093-.27.105-.64.105s-.446-.012-.64-.105a1.65 1.65 0 0 1-.704-.707c-.106-.208-.116-.264-.116-.648 0-.365.013-.446.098-.62.173-.352.515-.664.878-.803q.144-.056.526-.045c.329.009.413.026.611.126"/></svg>