<svg xmlns="http://www.w3.org/2000/svg" width="24" height="24" fill="none" stroke="currentColor" stroke-linecap="round" stroke-linejoin="round" stroke-width="3"><path fill="#000" fill-rule="evenodd" stroke="none" d="M5.516 1.577a1.54 1.54 0 0 0-.998 1.233c-.02.139-.037 2.632-.037 5.597l-.001 5.348-.378.179a4.36 4.36 0 0 0-1.507 1.136c-.521.594-.891 1.385-1.036 2.21-.059.334-.059 1.106 0 1.44.361 2.054 2.013 3.583 4.057 3.756a4.48 4.48 0 0 0 4.505-2.696c.075-.176.14-.327.146-.335s.204-.047.441-.086c4.436-.737 7.929-4.23 8.652-8.651.039-.237.077-.436.085-.441s.159-.071.335-.146a4.48 4.48 0 0 0 2.696-4.505 4.5 4.5 0 0 0-.901-2.339 5.8 5.8 0 0 0-.935-.919c-.322-.241-1.042-.58-1.5-.707-.37-.102-.455-.11-1.14-.11-.686 0-.769.008-1.138.11-1.3.362-2.315 1.196-2.901 2.381a5.2 5.2 0 0 0-.402 1.248c-.059.334-.059 1.106 0 1.44.255 1.449 1.155 2.667 2.44 3.302.153.076.296.138.318.138.079 0 .083.083.021.388-.517 2.512-2.431 4.687-4.865 5.526-.55.189-1.227.35-1.268.302a2 2 0 0 1-.126-.256 4.2 4.2 0 0 0-.946-1.332c-.393-.383-.654-.566-1.163-.816l-.45-.222-.001-5.345c0-2.963-.017-5.456-.037-5.595a1.51 1.51 0 0 0-.832-1.153c-.195-.099-.28-.116-.608-.125q-.382-.01-.526.045m13.137 3.081c.272.138.573.445.709.722.085.174.098.255.098.62 0 .384-.01.44-.116.648-.15.297-.428.576-.704.707-.194.093-.27.105-.64.105s-.446-.012-.64-.105a1.65 1.65 0 0 1-.704-.707c-.106-.208-.116-.264-.116-.648 0-.365.013-.446.098-.62.173-.352.515-.664.878-.803q.144-.055.526-.045c.329.009.413.026.611.126m-12 12c.272.138.573.445.709.722.085.174.098.255.098.62 0 .384-.01.44-.116.648a1.5 1.5 0 0 1-1.562.829 1.51 1.51 0 0 1-1.126-.829c-.106-.208-.116-.264-.116-.648 0-.365.013-.446.098-.62.173-.352.515-.664.878-.803q.144-.055.526-.045c.329.009.413.026.611.126"/></svg>