<svg xmlns="http://www.w3.org/2000/svg" width="24" height="24" fill="none" stroke="currentColor" stroke-linecap="round" stroke-linejoin="round" stroke-width="3"><path fill="#000" fill-rule="evenodd" stroke="none" d="M4.277 1.558C2.806 1.827 1.61 2.719.961 4.032A5.2 5.2 0 0 0 .559 5.28C.5 5.614.5 6.386.559 6.72a4.53 4.53 0 0 0 2.771 3.454l.15.062v3.519l-.378.179a4.36 4.36 0 0 0-1.507 1.136c-.521.594-.891 1.385-1.036 2.21-.059.334-.059 1.106 0 1.44.361 2.054 2.013 3.583 4.057 3.756 2.473.208 4.652-1.626 4.86-4.092a4.46 4.46 0 0 0-1.343-3.596c-.393-.383-.654-.566-1.163-.816l-.451-.222.011-1.76.01-1.761.281-.124a4.48 4.48 0 0 0 2.655-4.489 4.43 4.43 0 0 0-1.343-2.828 3.8 3.8 0 0 0-1.153-.81c-.678-.332-1.061-.423-1.86-.44-.363-.007-.742.002-.843.02m7.239.019c-.554.212-.919.67-1 1.254-.022.162-.033 3.904-.027 9.369l.011 9.1.105.248c.25.595.761.938 1.395.938s1.145-.343 1.395-.938l.105-.248.011-9.1c.006-5.465-.005-9.207-.027-9.369a1.5 1.5 0 0 0-.834-1.174c-.195-.099-.28-.116-.608-.125q-.382-.01-.526.045m6.761-.019c-1.471.269-2.667 1.161-3.316 2.474a5.2 5.2 0 0 0-.402 1.248c-.059.334-.059 1.106 0 1.44.255 1.449 1.155 2.667 2.44 3.302.153.076.296.138.318.138.081 0 .082.087.006.437a7.5 7.5 0 0 1-2.103 3.763c-.19.187-.396.412-.457.5-.287.414-.335 1.036-.113 1.48.34.681 1.108 1.015 1.804.785.314-.103.466-.219 1-.757a10.4 10.4 0 0 0 1.797-2.408c.527-.976.971-2.301 1.122-3.341l.049-.343.341-.148c1.104-.479 1.903-1.278 2.367-2.368a4.49 4.49 0 0 0-.555-4.483 5.8 5.8 0 0 0-.935-.919c-.317-.237-1.039-.579-1.48-.701-.323-.089-.479-.107-1.04-.119-.363-.007-.742.002-.843.02m-12.624 3.1c.272.138.573.445.709.722.085.174.098.255.098.62 0 .384-.01.44-.116.648-.15.297-.428.576-.704.707-.194.093-.27.105-.64.105s-.446-.012-.64-.105a1.65 1.65 0 0 1-.704-.707C3.55 6.44 3.54 6.384 3.54 6c0-.365.013-.446.098-.62.173-.352.515-.664.878-.803.095-.037.273-.052.526-.045.329.009.413.026.611.126m14 0c.272.138.573.445.709.722.085.174.098.255.098.62 0 .384-.01.44-.116.648-.15.297-.428.576-.704.707-.194.093-.27.105-.64.105s-.446-.012-.64-.105a1.65 1.65 0 0 1-.704-.707c-.106-.208-.116-.264-.116-.648 0-.365.013-.446.098-.62.173-.352.515-.664.878-.803q.144-.055.526-.045c.329.009.413.026.611.126m-14 12c.272.138.573.445.709.722.085.174.098.255.098.62 0 .384-.01.44-.116.648a1.51 1.51 0 0 1-1.126.829 1.5 1.5 0 0 1-1.562-.829c-.106-.208-.116-.264-.116-.648 0-.365.013-.446.098-.62.173-.352.515-.664.878-.803.095-.037.273-.052.526-.045.329.009.413.026.611.126"/></svg>