<svg xmlns="http://www.w3.org/2000/svg" width="24" height="24" fill="none" stroke="currentColor" stroke-linecap="round" stroke-linejoin="round" stroke-width="3"><path fill="#000" fill-rule="evenodd" stroke="none" d="M5.277 1.558c-1.471.269-2.667 1.161-3.316 2.474a5.2 5.2 0 0 0-.402 1.248c-.059.334-.059 1.106 0 1.44a4.52 4.52 0 0 0 2.77 3.453l.149.062.011 5.533L4.5 21.3l.105.248c.25.595.761.938 1.395.938s1.145-.343 1.395-.938L7.5 21.3l.012-2.452.013-2.452.28.252c.815.734 1.511 1.227 2.332 1.656.988.515 2.132.898 3.143 1.054.463.071.469.073.497.186.015.057.097.246.182.42.833 1.685 2.565 2.669 4.425 2.512a4.5 4.5 0 0 0 4.092-4.092 4.52 4.52 0 0 0-.901-3.107 5.8 5.8 0 0 0-.935-.919c-.322-.241-1.042-.58-1.5-.707-.37-.102-.455-.11-1.14-.11-.686 0-.769.008-1.138.11-1.308.365-2.318 1.197-2.909 2.399a6 6 0 0 1-.176.345c-.029.031-.811-.17-1.25-.321-1.6-.552-3.026-1.703-3.928-3.174-.456-.742-.919-1.964-.967-2.552-.012-.15-.009-.152.229-.26a4.49 4.49 0 0 0 2.615-4.472 4.43 4.43 0 0 0-1.343-2.828 3.8 3.8 0 0 0-1.153-.81c-.678-.332-1.061-.423-1.86-.44-.363-.007-.742.002-.843.02m1.376 3.1c.272.138.573.445.709.722.085.174.098.255.098.62 0 .384-.01.44-.116.648-.15.297-.428.576-.704.707-.194.093-.27.105-.64.105s-.446-.012-.64-.105a1.65 1.65 0 0 1-.704-.707C4.55 6.44 4.54 6.384 4.54 6c0-.365.013-.446.098-.62.173-.352.515-.664.878-.803q.144-.055.526-.045c.329.009.413.026.611.126m12 12c.272.138.573.445.709.722.085.174.098.255.098.62 0 .384-.01.44-.116.648a1.51 1.51 0 0 1-1.126.829 1.5 1.5 0 0 1-1.562-.829c-.106-.208-.116-.264-.116-.648 0-.365.013-.446.098-.62.173-.352.515-.664.878-.803q.144-.055.526-.045c.329.009.413.026.611.126"/></svg>