<svg xmlns="http://www.w3.org/2000/svg" width="24" height="24" fill="none" stroke="currentColor" stroke-linecap="round" stroke-linejoin="round" stroke-width="3"><path fill="#000" fill-rule="evenodd" stroke="none" d="M5.277 1.558c-1.471.269-2.667 1.161-3.316 2.474a5.2 5.2 0 0 0-.402 1.248c-.059.334-.059 1.106 0 1.44a4.53 4.53 0 0 0 2.765 3.451l.143.06.024.615c.02.507.043.673.129.946a2.48 2.48 0 0 0 1.24 1.449c.511.249.536.252 2.67.269l1.95.016v.114c0 .106-.03.129-.378.294a4.36 4.36 0 0 0-1.507 1.136c-.521.594-.891 1.385-1.036 2.21-.059.334-.059 1.106 0 1.44.361 2.054 2.013 3.583 4.057 3.756 2.473.208 4.652-1.626 4.86-4.092a4.46 4.46 0 0 0-1.343-3.596c-.393-.383-.654-.566-1.163-.816-.418-.206-.45-.23-.45-.337v-.115l1.75-.001c.963-.001 1.885-.019 2.05-.04 1.043-.135 1.852-.84 2.101-1.827.034-.136.075-.512.091-.835l.028-.588.281-.124a4.49 4.49 0 0 0 2.655-4.489 4.5 4.5 0 0 0-.901-2.339 5.8 5.8 0 0 0-.935-.919c-.322-.241-1.042-.58-1.5-.707-.37-.102-.455-.11-1.14-.11-.686 0-.769.008-1.138.11-1.3.362-2.315 1.196-2.901 2.381a5.2 5.2 0 0 0-.402 1.248c-.059.334-.059 1.106 0 1.44a4.53 4.53 0 0 0 2.771 3.454c.133.055.15.078.15.203v.141H7.515l.013-.144c.011-.138.026-.151.293-.27a4.48 4.48 0 0 0 2.655-4.488 4.43 4.43 0 0 0-1.343-2.828 3.8 3.8 0 0 0-1.153-.81c-.678-.332-1.061-.423-1.86-.44-.363-.007-.742.002-.843.02m1.376 3.1c.272.138.573.445.709.722.085.174.098.255.098.62 0 .384-.01.44-.116.648-.15.297-.428.576-.704.707-.194.093-.27.105-.64.105s-.446-.012-.64-.105a1.65 1.65 0 0 1-.704-.707C4.55 6.44 4.54 6.384 4.54 6c0-.365.013-.446.098-.62.173-.352.515-.664.878-.803q.144-.055.526-.045c.329.009.413.026.611.126m12 0c.272.138.573.445.709.722.085.174.098.255.098.62 0 .384-.01.44-.116.648-.15.297-.428.576-.704.707-.194.093-.27.105-.64.105s-.446-.012-.64-.105a1.65 1.65 0 0 1-.704-.707c-.106-.208-.116-.264-.116-.648 0-.365.013-.446.098-.62.173-.352.515-.664.878-.803q.144-.055.526-.045c.329.009.413.026.611.126m-6 12c.272.138.573.445.709.722.085.174.098.255.098.62 0 .384-.01.44-.116.648a1.51 1.51 0 0 1-1.126.829 1.5 1.5 0 0 1-1.562-.829c-.106-.208-.116-.264-.116-.648 0-.365.013-.446.098-.62.173-.352.515-.664.878-.803q.144-.055.526-.045c.329.009.413.026.611.126"/></svg>