<svg xmlns="http://www.w3.org/2000/svg" width="24" height="24" fill="none" stroke="currentColor" stroke-linecap="round" stroke-linejoin="round" stroke-width="3"><path fill="#000" fill-rule="evenodd" stroke="none" d="M11.277 7.558c-.637.116-1.465.462-1.917.8a4.67 4.67 0 0 0-1.482 1.851l-.138.309-2.58.011-2.58.011-.228.116a1.502 1.502 0 0 0 .115 2.749l.233.094 2.532.021 2.531.02.129.28c.813 1.777 2.573 2.818 4.492 2.656a4.48 4.48 0 0 0 3.721-2.655l.124-.281 2.536-.02 2.535-.021.233-.094a1.515 1.515 0 0 0 .944-1.623 1.51 1.51 0 0 0-.829-1.126l-.228-.116-2.583-.011-2.584-.011-.134-.309a4.2 4.2 0 0 0-.986-1.421 3.8 3.8 0 0 0-1.153-.81c-.678-.332-1.061-.423-1.86-.44-.363-.007-.742.002-.843.02m1.376 3.1c.272.138.573.445.709.722.085.174.098.255.098.62 0 .384-.01.44-.116.648a1.51 1.51 0 0 1-1.126.829 1.5 1.5 0 0 1-1.562-.829c-.106-.208-.116-.264-.116-.648 0-.365.013-.446.098-.62.173-.352.515-.664.878-.803q.144-.056.526-.045c.329.009.413.026.611.126"/></svg>