<svg xmlns="http://www.w3.org/2000/svg" width="24" height="24" fill="none" stroke="currentColor" stroke-linecap="round" stroke-linejoin="round" stroke-width="3"><path fill="#000" fill-rule="evenodd" stroke="none" d="M4.486.6c-.329.118-.662.403-.812.693-.09.175-.241.772-.32 1.267-.07.44-.073 2-.004 2.364l.05.264-.216.456a7.7 7.7 0 0 0-.591 1.822c-.124.656-.123 2.002.001 2.694.349 1.952 1.332 3.442 3.001 4.547a9.6 9.6 0 0 0 1.745.85c.213.072.358.142.355.172-.003.028-.043.249-.089.491-.047.242-.094.506-.106.587-.021.14-.032.149-.231.192-.295.063-.813.055-1.049-.017-.31-.095-.571-.264-.982-.639l-.798-.727c-.859-.784-1.612-1.118-2.459-1.089-.348.011-.431.028-.629.129a1.51 1.51 0 0 0-.829 1.126 1.493 1.493 0 0 0 1.28 1.698c.286.041.365.095.957.66.855.814 1.375 1.205 1.97 1.479.357.164.878.323 1.25.382.293.047 1.29.06 1.418.02.07-.023.075.029.089 1.128.016 1.129.018 1.156.119 1.399.246.593.76.938 1.394.938s1.145-.343 1.395-.938l.105-.248.003-2.7c.003-2.647.005-2.706.091-3.012q.153-.551.505-1.048c.239-.338.333-.538.373-.794a1.52 1.52 0 0 0-.667-1.503c-.268-.172-.38-.199-.997-.244-1.384-.102-2.42-.531-3.23-1.34a3.65 3.65 0 0 1-.819-1.23c-.18-.462-.246-.912-.247-1.685-.001-.605.01-.728.099-1.067.105-.399.316-.86.586-1.277.304-.471.35-.8.21-1.52-.1-.512-.129-.72-.101-.72.012 0 .168.102.348.226l.5.346c.205.14.59.268.808.268.085 0 .43-.044.766-.098 1.31-.21 1.719-.24 3.272-.24s1.962.03 3.272.24c.336.054.681.098.766.098.218 0 .603-.128.808-.268l.51-.353.336-.233-.027.272c-.016.15-.056.401-.09.557-.071.332-.079.708-.019.931.023.086.115.273.204.416.629 1.01.797 1.673.721 2.84-.039.61-.127 1.029-.294 1.407-.353.796-1.106 1.537-1.966 1.934-.631.291-1.25.441-2.033.494-.561.037-.764.093-1.053.289-.55.371-.774 1.128-.527 1.774.025.066.139.255.254.42.265.382.427.705.542 1.081.091.298.091.304.094 3.019l.002 2.72.105.248c.25.595.761.938 1.395.938s1.145-.343 1.395-.938l.105-.248v-5.64l-.095-.42a7 7 0 0 1-.1-.491c-.004-.055.076-.098.355-.192a10 10 0 0 0 1.619-.765c1.94-1.222 3.036-3.055 3.207-5.368.102-1.389-.114-2.607-.673-3.784l-.218-.46.044-.3c.126-.845.091-1.862-.098-2.827-.118-.605-.2-.793-.464-1.073-.537-.567-1.312-.61-2.496-.137-.454.181-1.17.562-1.637.872-.244.161-.339.204-.42.187-.621-.133-2.343-.26-3.524-.26s-2.903.127-3.524.26c-.08.017-.175-.025-.413-.183C6.626.768 5.232.332 4.486.6"/></svg>