<svg xmlns="http://www.w3.org/2000/svg" width="24" height="24" fill="none" stroke="currentColor" stroke-linecap="round" stroke-linejoin="round" stroke-width="3"><path fill="#000" fill-rule="evenodd" stroke="none" d="M5.144 1.602c-.457.161-.875.507-1.067.884C3.984 2.667.646 12.559.536 12.978c-.196.747.037 1.57.599 2.113.193.186 1.869 1.394 5.185 3.737 2.695 1.904 4.973 3.495 5.062 3.535.36.163.876.163 1.236 0 .252-.113 9.887-6.966 10.206-7.259a2.17 2.17 0 0 0 .634-1.039c.076-.267.087-.78.022-1.034-.1-.386-3.419-10.306-3.509-10.486-.122-.245-.398-.542-.668-.721a1.865 1.865 0 0 0-2.635.621c-.055.096-.533 1.453-1.062 3.015a635 635 0 0 1-.988 2.91c-.025.066-.187.07-2.619.07H9.407l-.969-2.91c-.532-1.601-1.018-3-1.08-3.11a1.9 1.9 0 0 0-.796-.733c-.282-.139-.321-.148-.74-.158-.364-.009-.483.004-.678.073M7.12 10.81c.181.235.477.452.735.539.188.064.521.071 3.965.082 2.517.008 3.853-.002 4.04-.031.154-.023.371-.086.481-.14.247-.12.551-.416.663-.647.045-.095.343-.942.661-1.883.317-.94.588-1.737.601-1.77s.496 1.353 1.074 3.08c.784 2.343 1.039 3.152 1.005 3.186a604 604 0 0 1-4.196 2.992l-4.151 2.945-4.2-2.97c-3.183-2.25-4.194-2.984-4.175-3.031.013-.034.48-1.421 1.037-3.082a509 509 0 0 1 1.043-3.097c.023-.056.203.437.654 1.784.515 1.537.647 1.893.763 2.043"/></svg>