<svg xmlns="http://www.w3.org/2000/svg" width="24" height="24" fill="none" stroke="currentColor" stroke-linecap="round" stroke-linejoin="round" stroke-width="3"><path fill="#000" fill-rule="evenodd" stroke="none" d="M7.153 3.561c-1.418.22-2.417.95-3.294 2.41-.163.271-1.117 2.514-2.599 6.109-.636 1.545-.749 1.987-.747 2.938a5.48 5.48 0 0 0 3.791 5.204 5.5 5.5 0 0 0 5.578-1.34c.99-.989 1.507-2.184 1.62-3.74.025-.337.035-.367.158-.49.115-.115.158-.132.34-.132s.225.017.34.132c.123.123.133.153.158.49.069.95.256 1.662.627 2.383a5.489 5.489 0 0 0 10.097-.829 5.2 5.2 0 0 0 .265-1.678c.002-.843-.123-1.418-.515-2.376-1.131-2.766-2.654-6.364-2.804-6.622-.43-.739-1.036-1.421-1.583-1.782a4.4 4.4 0 0 0-2.569-.712c-.386.012-.462.027-.664.13-.929.47-1.134 1.677-.407 2.398.319.316.535.4 1.188.463.25.025.505.074.602.117.447.198.762.661 1.266 1.866.202.484.377.912.388.95.019.064-.021.07-.454.07a5.53 5.53 0 0 0-2.983.907 6 6 0 0 0-1.372 1.303l-.08.11-.24-.097c-.736-.297-1.784-.297-2.52 0l-.24.097-.08-.11c-.99-1.355-2.672-2.209-4.35-2.21-.259 0-.47-.013-.47-.029 0-.092.761-1.842.915-2.104.219-.373.483-.652.713-.755.101-.044.348-.09.62-.115.668-.06.885-.143 1.207-.463.727-.721.522-1.928-.407-2.398-.214-.109-.261-.116-.748-.123a6 6 0 0 0-.747.028m-.336 9.072a2.65 2.65 0 0 1 1.553 1.55c.076.205.088.316.088.817s-.012.612-.088.817c-.23.615-.711 1.157-1.26 1.418-.415.197-.664.255-1.11.255s-.695-.058-1.11-.255c-.551-.262-1.039-.813-1.256-1.418-.108-.299-.146-.987-.075-1.347.171-.872.938-1.674 1.812-1.895.328-.083 1.149-.05 1.446.058m12 0a2.65 2.65 0 0 1 1.553 1.55c.076.205.088.316.088.817s-.012.612-.088.817c-.23.615-.711 1.157-1.26 1.418-.415.197-.664.255-1.11.255s-.695-.058-1.11-.255c-.551-.262-1.039-.813-1.256-1.418-.108-.299-.146-.987-.075-1.347.171-.872.938-1.674 1.812-1.895.328-.083 1.149-.05 1.446.058"/></svg>