<svg xmlns="http://www.w3.org/2000/svg" width="24" height="24" fill="none" stroke="currentColor" stroke-linecap="round" stroke-linejoin="round" stroke-width="3"><path fill="#000" fill-rule="evenodd" stroke="none" d="M4.491 1.598c-.263.095-.397.19-.625.444a1.32 1.32 0 0 0-.35.955c.004.406 1.793 17.482 1.863 17.787.149.641.404 1.114.86 1.591.356.372.678.611 1.085.803.716.337.897.35 4.979.332 3.333-.015 3.403-.017 3.726-.102a3.47 3.47 0 0 0 1.585-.887c.609-.574.949-1.257 1.064-2.141.026-.198.449-4.185.939-8.861.7-6.668.885-8.549.861-8.728a1.51 1.51 0 0 0-.83-1.135l-.228-.116-7.36-.009c-7.127-.008-7.367-.006-7.569.067M17.32 4.563c0 .023-.153 1.494-.34 3.268a936 936 0 0 0-.34 3.252c0 .015-.086.064-.19.108a3.6 3.6 0 0 1-2.495.146c-.399-.124-.69-.277-1.175-.618-.771-.541-1.7-.942-2.56-1.104-.616-.116-1.919-.107-2.535.017a4 4 0 0 1-.464.08c-.01-.011-.544-5.098-.542-5.162.002-.05 10.641-.037 10.641.013M9.722 12.58c.471.1.866.284 1.47.686 1.172.782 2.096 1.117 3.333 1.21.472.035 1.284-.002 1.598-.072.133-.03.157-.026.157.03-.001.036-.135 1.342-.299 2.901-.22 2.096-.314 2.859-.36 2.929a.7.7 0 0 1-.17.165c-.101.066-.324.071-3.451.071s-3.35-.005-3.451-.071c-.236-.154-.219-.043-.615-3.823-.205-1.95-.373-3.603-.373-3.673-.001-.118.015-.133.229-.214.127-.048.338-.111.47-.14.333-.073 1.111-.072 1.462.001"/></svg>