<svg xmlns="http://www.w3.org/2000/svg" width="24" height="24" fill="none" stroke="currentColor" stroke-linecap="round" stroke-linejoin="round" stroke-width="3"><path fill="#000" fill-rule="evenodd" stroke="none" d="M10.8.564C5.887 1.093 1.85 4.69.785 9.485c-.679 3.061-.096 6.26 1.608 8.816.655.982 1.282 1.701 2.089 2.393a11.4 11.4 0 0 0 4.098 2.28c4.182 1.308 8.717.129 11.761-3.058 1.045-1.094 1.913-2.493 2.466-3.976.196-.527.209-.582.21-.94.002-.353-.007-.399-.133-.65a1.5 1.5 0 0 0-.717-.704c-.201-.094-.276-.106-.647-.106-.41 0-.426.004-.68.147-.436.246-.552.408-.839 1.173-.674 1.793-1.769 3.196-3.281 4.2-.344.229-1.11.66-1.172.66-.013 0 .123-.301.305-.67.52-1.058.892-2.069 1.173-3.188.225-.891.184-1.345-.16-1.78q-.475-.598-1.282-.553c-.39.022-.62.12-.918.392-.268.245-.357.431-.53 1.106-.33 1.288-.77 2.421-1.293 3.334-.24.418-.808 1.279-.844 1.279-.046 0-.642-.928-.912-1.42a13.5 13.5 0 0 1-1.207-3.11c-.111-.458-.279-1.37-.28-1.514 0-.055.084-.067.59-.086.471-.017.636-.039.82-.109.425-.16.802-.545.92-.939.062-.209.062-.715 0-.924-.117-.391-.496-.78-.911-.935-.188-.07-.313-.083-.821-.083-.706 0-.646.091-.497-.757a12.8 12.8 0 0 1 1.956-4.923 13.5 13.5 0 0 1 1.205-1.56c.488-.519.625-.807.625-1.312 0-.537-.317-1.037-.823-1.3-.242-.126-.249-.127-.884-.134-.352-.004-.793.01-.98.03m6.64-.019c-1.46.281-2.57 1.341-2.863 2.734-.03.144-.067.488-.081.765l-.027.504-.231.069c-.593.178-1.201.701-1.47 1.267-.267.562-.268.568-.268 2.616 0 2.046.001 2.055.266 2.612.223.467.655.899 1.122 1.122.582.277.416.266 4.112.266 2.672 0 3.384-.011 3.56-.054.713-.175 1.372-.701 1.674-1.334.265-.557.266-.566.266-2.612 0-2.045-.001-2.055-.265-2.61-.271-.569-.882-1.096-1.479-1.274l-.236-.071-.001-.243c-.004-1.603-.689-2.787-1.986-3.436-.479-.24-.797-.313-1.433-.327a7 7 0 0 0-.66.006m.904 3.111c.135.135.136.139.136.5v.364h-.96v-.364c0-.361.001-.365.136-.5.12-.12.161-.136.344-.136s.224.016.344.136M8.179 4.87a16 16 0 0 0-1.559 5.167l-.06.47c0 .007-.657.013-1.46.013s-1.46-.013-1.459-.03c.003-.103.172-.773.28-1.109.392-1.218 1.067-2.335 2.016-3.335.241-.253.89-.792 1.283-1.065.263-.182 1.17-.701 1.225-.701.015 0-.105.266-.266.59M20.48 8.52v1h-4.96v-2h4.96zM6.575 13.63c.011.061.032.209.045.33.187 1.658.755 3.542 1.559 5.17.161.324.282.59.27.59s-.213-.101-.446-.224c-2.097-1.11-3.732-3.218-4.247-5.476a16 16 0 0 0-.102-.43c-.018-.066.069-.07 1.44-.07h1.46z"/></svg>