<svg xmlns="http://www.w3.org/2000/svg" width="24" height="24" fill="none" stroke="currentColor" stroke-linecap="round" stroke-linejoin="round" stroke-width="3"><path fill="#000" fill-rule="evenodd" stroke="none" d="M11.6.505c-1.646.104-2.83.37-4.14.933C3.682 3.06 1.093 6.529.578 10.66c-.136 1.087-.072 2.535.161 3.669a11.52 11.52 0 0 0 8.932 8.932c1.134.233 2.582.297 3.669.161 5.337-.666 9.416-4.745 10.082-10.082.136-1.087.072-2.535-.161-3.669A11.51 11.51 0 0 0 13.9.662c-.652-.108-1.814-.187-2.3-.157M8.179 4.87a16 16 0 0 0-1.559 5.167l-.06.47c0 .007-.657.013-1.46.013-1.252 0-1.46-.008-1.46-.058 0-.032.061-.298.136-.59.521-2.032 1.762-3.765 3.57-4.984.235-.158 1.046-.606 1.099-.607.015-.001-.105.265-.266.589m7.81-.37c.764.404 1.37.856 2.013 1.498a8.3 8.3 0 0 1 1.934 2.97c.156.402.424 1.35.424 1.497 0 .046-.246.055-1.46.055-.803 0-1.46-.006-1.46-.013l-.06-.47a16 16 0 0 0-1.559-5.167c-.161-.324-.282-.59-.27-.59s.209.099.438.22m-3.638.35a13.2 13.2 0 0 1 1.745 3.934c.107.423.304 1.489.304 1.645v.091H9.6v-.091c0-.156.197-1.222.304-1.645.242-.96.702-2.126 1.183-3.004.273-.497.866-1.42.913-1.42.017 0 .175.22.351.49m-5.776 8.78c.011.061.032.209.045.33.187 1.658.755 3.542 1.559 5.17.161.324.285.59.276.59s-.164-.074-.344-.165a8 8 0 0 1-2.093-1.535 8.3 8.3 0 0 1-1.938-2.94c-.14-.35-.44-1.389-.44-1.522 0-.023.556-.038 1.457-.038h1.457zm7.825-.039c0 .14-.204 1.23-.304 1.625a13.5 13.5 0 0 1-1.215 3.064c-.254.459-.838 1.36-.881 1.36-.047 0-.64-.923-.913-1.42a13.5 13.5 0 0 1-1.207-3.11c-.113-.466-.279-1.371-.28-1.52 0-.066.141-.07 2.4-.07 2.272 0 2.4.004 2.4.071m5.96-.036c0 .02-.056.258-.124.53a8.62 8.62 0 0 1-3.758 5.143c-.233.145-.89.492-.933.492-.009 0 .115-.266.276-.59.804-1.628 1.372-3.512 1.559-5.17.013-.121.034-.269.045-.33l.021-.11h1.457c.812 0 1.457.016 1.457.035"/></svg>