<svg xmlns="http://www.w3.org/2000/svg" width="24" height="24" fill="none" stroke="currentColor" stroke-linecap="round" stroke-linejoin="round" stroke-width="3"><path fill="#000" fill-rule="evenodd" stroke="none" d="M11.516.577a1.54 1.54 0 0 0-1.001 1.257c-.022.162-.033 2.523-.026 5.869L10.5 13.3l.105.248c.25.595.761.938 1.395.938s1.147-.345 1.394-.938c.102-.244.103-.266.119-1.44l.015-1.191 3.666-1.835c3.265-1.633 3.687-1.855 3.857-2.027.46-.462.569-1.119.286-1.718-.219-.464-.085-.387-4.685-2.688L12.444.543l-.392-.011q-.393-.01-.536.045M7.54 3.51c-.459.164-1.563.853-2.22 1.385-.409.331-1.115 1.046-1.487 1.506-1.2 1.484-1.994 3.355-2.257 5.319-.09.669-.09 1.891 0 2.56.628 4.685 4.087 8.287 8.719 9.079 2.446.418 5.071-.101 7.221-1.428 2.577-1.59 4.325-4.197 4.842-7.217a10.5 10.5 0 0 0-.321-4.789c-.204-.669-.591-1.044-1.211-1.174a1.1 1.1 0 0 0-.476-.004c-.649.111-1.081.511-1.249 1.156-.073.279-.058.434.1 1.017.184.681.244 1.097.268 1.847.041 1.323-.177 2.361-.739 3.511-.73 1.497-1.962 2.734-3.424 3.441-1.122.542-2.104.769-3.326.77-3.62.001-6.703-2.591-7.36-6.189-.09-.491-.123-1.616-.062-2.141a7.5 7.5 0 0 1 1.929-4.223c.621-.671 1.093-1.039 1.975-1.539.56-.317.797-.547.935-.906.123-.324.143-.59.066-.891-.121-.473-.38-.795-.811-1.007-.331-.163-.794-.198-1.112-.083M16.6 6c0 .011-.693.367-1.54.79l-1.54.77V4.44l1.54.77c.847.423 1.54.779 1.54.79M7.493 8.594c-.358.124-.561.309-.917.836-.706 1.044-1.058 2.22-1.062 3.55-.007 1.777.599 3.265 1.861 4.572 1.079 1.117 2.494 1.777 4.151 1.934 1.36.129 2.873-.277 4.114-1.104 2.133-1.423 3.263-4.14 2.741-6.594-.112-.528-.375-.88-.836-1.119-.224-.116-.278-.127-.625-.128-.343-.001-.405.011-.64.123-.33.157-.579.406-.736.736-.119.25-.123.277-.108.68.044 1.119.027 1.566-.07 1.878-.357 1.141-1.178 1.997-2.261 2.356-1.89.627-3.887-.424-4.474-2.354-.055-.18-.085-.428-.1-.804-.033-.87.111-1.394.585-2.127.297-.459.371-.655.374-.989.004-.655-.372-1.22-.962-1.441-.273-.102-.747-.104-1.035-.005"/></svg>