<svg xmlns="http://www.w3.org/2000/svg" width="24" height="24" fill="none" stroke="currentColor" stroke-linecap="round" stroke-linejoin="round" stroke-width="3"><path fill="#000" fill-rule="evenodd" stroke="none" d="M11.44 4.545c-.745.143-1.449.51-1.932 1.005l-.192.197-.328-.101c-.29-.089-.402-.101-.968-.103-.551-.003-.683.01-.952.087a3.56 3.56 0 0 0-2.495 2.649c-.038.17-.066.606-.081 1.246l-.023.985h-.464c-.997.002-1.826.351-2.509 1.057a3.36 3.36 0 0 0-.903 1.625c-.068.28-.084.466-.082.953.015 3.08 1.621 6.022 4.246 7.775a9.7 9.7 0 0 0 3.383 1.395c.903.179 1.037.185 3.9.184 2.633-.001 2.762-.005 3.3-.09 1.734-.276 3.241-.923 4.556-1.959.366-.288 1.266-1.188 1.554-1.554 1.034-1.313 1.692-2.844 1.956-4.549.07-.452.085-.785.102-2.347.022-1.939-.005-2.479-.148-2.962a3.47 3.47 0 0 0-1.828-2.173c-.504-.252-.83-.323-1.492-.324a6 6 0 0 0-.71.028c-.121.027-.134.019-.187-.108-.089-.212-.376-.617-.621-.876a3.7 3.7 0 0 0-1.59-.955c-.269-.077-.401-.09-.952-.087-.566.002-.678.014-.968.103l-.328.101-.192-.197a3.76 3.76 0 0 0-1.539-.913c-.222-.065-.429-.088-.853-.098a7 7 0 0 0-.66.006m.889 3.092.131.116.021 1.474c.021 1.472.021 1.473.125 1.721.247.594.76.938 1.394.938.635 0 1.149-.346 1.393-.938.098-.237.103-.29.119-1.207l.017-.958.132-.132c.114-.114.158-.131.334-.131.169 0 .226.02.334.117l.131.116.022 1.514c.021 1.454.025 1.522.113 1.743.17.43.552.803.943.92.209.062.715.062.924 0 .237-.071.525-.275.699-.497.24-.303.321-.571.348-1.152.024-.499.024-.502.153-.631.113-.113.157-.13.338-.13.183 0 .224.016.344.136l.136.136-.001 1.894c0 1.993-.018 2.25-.196 2.943-.653 2.543-2.774 4.427-5.423 4.818-.269.04-.99.053-2.86.053s-2.591-.013-2.86-.053c-2.649-.391-4.77-2.275-5.423-4.818-.193-.75-.257-1.636-.136-1.87.118-.229.447-.307.682-.164.144.088.191.198.252.597.056.361.185.622.428.865a1.47 1.47 0 0 0 2.114 0c.217-.217.355-.47.418-.769.031-.145.045-1.05.045-2.854V8.792l.136-.136c.12-.12.161-.136.344-.136s.225.017.339.131l.13.13.019.76c.017.696.027.78.12 1.007.241.591.757.938 1.392.938s1.148-.345 1.394-.938c.101-.244.103-.268.124-1.521l.022-1.274.131-.116c.107-.096.166-.117.329-.117s.222.021.329.117"/></svg>