<svg xmlns="http://www.w3.org/2000/svg" width="24" height="24" fill="none" stroke="currentColor" stroke-linecap="round" stroke-linejoin="round" stroke-width="3"><path fill="#000" fill-rule="evenodd" stroke="none" d="M11.28 3.582a4 4 0 0 0-.44.122c-.433.159-9 4.08-9.223 4.221-.512.323-.918.915-1.06 1.547-.063.28-.052.84.023 1.131.131.51.49 1.066.876 1.358.215.162.739.42 2.19 1.08l.826.375.018 1.522c.017 1.509.019 1.525.124 1.874.207.683.514 1.164 1.079 1.691 1.236 1.154 3.218 1.851 5.612 1.974 2.891.148 5.523-.593 7.001-1.972.558-.521.876-1.02 1.08-1.693.104-.347.106-.376.13-1.87l.024-1.517.46-.209.46-.208.02 1.646.021 1.646.104.248c.249.594.761.938 1.395.938s1.145-.343 1.395-.938l.105-.248.012-3.244c.013-3.65.018-3.576-.276-4.172a2.42 2.42 0 0 0-1.096-1.092c-.427-.217-8.336-3.825-8.801-4.014a4.3 4.3 0 0 0-.628-.194c-.375-.078-1.073-.079-1.431-.002m4.675 4.672c2.093.953 3.812 1.741 3.82 1.75s-1.706.797-3.81 1.751c-2.696 1.222-3.866 1.734-3.965 1.734-.1.001-1.237-.499-3.949-1.734-2.095-.954-3.809-1.744-3.809-1.755-.001-.011 1.704-.797 3.789-1.747 2.949-1.344 3.826-1.728 3.954-1.73.136-.002.84.305 3.97 1.731M9.2 15.571c.847.386 1.668.739 1.824.785a3.65 3.65 0 0 0 1.952 0c.156-.046.995-.406 1.865-.8a65 65 0 0 1 1.61-.716c.016 0 .029.283.029.629v.629l-.238.226c-.425.404-1.348.805-2.287.991-.682.136-1.092.172-1.955.172s-1.273-.036-1.955-.172c-.939-.186-1.862-.587-2.287-.991l-.238-.226v-.65c0-.607.005-.648.07-.614.039.02.763.352 1.61.737"/></svg>