<svg xmlns="http://www.w3.org/2000/svg" width="24" height="24" fill="none" stroke="currentColor" stroke-linecap="round" stroke-linejoin="round" stroke-width="3"><path fill="#000" fill-rule="evenodd" stroke="none" d="M21.56.571c-.369.13-.535.273-2.044 1.776l-1.544 1.538-.167-.281a4.58 4.58 0 0 0-2.847-2.125c-.473-.118-1.261-.146-1.76-.064a4.53 4.53 0 0 0-2.876 1.73c-.18.237-.189.244-.288.192-.686-.359-1.842-.512-2.719-.358a4.48 4.48 0 0 0-2.373 1.243A4.43 4.43 0 0 0 3.651 6.86c-.1.765.005 1.526.313 2.273l.118.287-.148.12c-1.049.846-1.606 1.749-1.815 2.94-.059.334-.059 1.106 0 1.44.061.349.228.898.342 1.121l.092.182-.14.096c-.372.255-.89.788-1.156 1.189a4.9 4.9 0 0 0-.698 1.772c-.059.334-.059 1.106 0 1.44.361 2.054 2.013 3.583 4.057 3.756a4.53 4.53 0 0 0 3.11-.903c.287-.218.696-.632.894-.906l.154-.212.303.13c1.438.619 3.176.396 4.443-.568.29-.221.603-.532.848-.844.11-.139.202-.253.206-.253s.135.053.293.117c.444.181.832.276 1.333.328.385.039.538.036.94-.016a4.43 4.43 0 0 0 2.641-1.293 4.46 4.46 0 0 0 1.292-3.567c-.049-.531-.235-1.215-.424-1.551-.035-.062-.004-.101.205-.259a4.7 4.7 0 0 0 1.304-1.559c.361-.716.501-1.37.471-2.2a4.33 4.33 0 0 0-1.307-3.002c-.32-.32-1.03-.838-1.149-.838-.094 0-.058-.058.183-.297l.237-.234.08.156c.117.228.437.531.679.644a1.5 1.5 0 0 0 2.13-1.159c.02-.138.036-.898.036-1.69s-.016-1.552-.036-1.69a1.51 1.51 0 0 0-.831-1.153c-.191-.096-.282-.116-.588-.125-.213-.006-.421.01-.503.039M14.529 4.49c.481.22.825.712.862 1.232.034.476-.09.817-.427 1.171-.835.879-2.325.401-2.52-.809A1.494 1.494 0 0 1 13.5 4.412c.268-.082.763-.044 1.029.078M8.736 6.042a1.6 1.6 0 0 1 .713.71c.12.245.131.297.131.648s-.011.403-.131.648a1.47 1.47 0 0 1-1.559.824 1.493 1.493 0 0 1-.336-2.859c.195-.083.278-.094.606-.083.307.011.418.032.576.112M18.769 8.73c.481.22.825.712.862 1.232.034.476-.09.817-.427 1.171-.835.879-2.325.401-2.52-.809a1.494 1.494 0 0 1 1.056-1.672c.268-.082.763-.044 1.029.078m-5.8 1.56c.481.22.825.712.862 1.232.034.476-.09.817-.427 1.171a1.38 1.38 0 0 1-.822.43 1.49 1.49 0 0 1-1.384-.53c-.465-.588-.44-1.42.058-1.946.342-.361.648-.488 1.144-.473.268.008.389.033.569.116M7.18 11.839c.245.119.545.393.672.615.232.405.253.998.048 1.402a1.5 1.5 0 0 1-1.298.831c-.623.005-1.107-.288-1.386-.839-.106-.208-.116-.264-.116-.648 0-.365.013-.446.098-.62.173-.352.515-.664.878-.803.238-.092.858-.057 1.104.062m10.074 2.715c.293.144.55.402.706.71.088.172.1.247.1.616 0 .368-.013.447-.103.64a1.55 1.55 0 0 1-1.108.841c-.626.124-1.325-.243-1.606-.841-.09-.193-.103-.272-.103-.64 0-.369.012-.444.1-.616.199-.39.53-.677.931-.808.104-.034.294-.051.495-.043.272.01.37.034.588.141m-6.008 1.463c.375.114.73.425.916.803.085.174.098.255.098.62 0 .384-.01.44-.116.648a1.5 1.5 0 0 1-1.562.829 1.51 1.51 0 0 1-1.126-.829c-.106-.208-.116-.264-.116-.648 0-.365.013-.446.098-.62.174-.353.521-.67.878-.801.192-.071.699-.072.93-.002m-5.593 1.641c.272.138.573.445.709.722.085.174.098.255.098.62 0 .384-.01.44-.116.648a1.5 1.5 0 0 1-1.562.829 1.51 1.51 0 0 1-1.126-.829c-.106-.208-.116-.264-.116-.648 0-.365.013-.446.098-.62.173-.352.515-.664.878-.803.095-.037.273-.052.526-.045.329.009.413.026.611.126"/></svg>