<svg xmlns="http://www.w3.org/2000/svg" width="24" height="24" fill="none" stroke="currentColor" stroke-linecap="round" stroke-linejoin="round" stroke-width="3"><path fill="#000" fill-rule="evenodd" stroke="none" d="M6.6 1.522c-2.192.021-2.269.024-2.553.111a3.57 3.57 0 0 0-2.495 2.755c-.076.399-.076 14.825 0 15.224.221 1.168 1.036 2.177 2.116 2.617.716.292.076.271 8.332.271 6.835 0 7.443-.005 7.71-.068a3.7 3.7 0 0 0 1.798-1.004c.573-.6.883-1.272.971-2.111.054-.511.054-14.123 0-14.634-.132-1.255-.824-2.255-1.946-2.817a3.1 3.1 0 0 0-1.273-.331c-.579-.029-10.001-.039-12.66-.013m.88 4.498v1.5H4.52V4.792l.136-.136.136-.136H7.48zm6 0v1.5h-2.96v-3h2.96zm5.864-1.364.136.136V7.52h-2.96v-3h2.688zM7.48 12.02v1.5H4.52v-3h2.96zm6 0v1.5h-2.96v-3h2.96zm6 0v1.5h-2.96v-3h2.96zm-12 6v1.5H6.25c-.716 0-1.292-.018-1.377-.041a.6.6 0 0 1-.25-.163l-.103-.122V16.52h2.96zm6 0v1.5h-2.96v-3h2.96zm6-.163v1.337l-.103.122a.6.6 0 0 1-.25.163c-.085.023-.661.041-1.377.041h-1.23v-3h2.96z"/></svg>