<svg xmlns="http://www.w3.org/2000/svg" width="24" height="24" fill="none" stroke="currentColor" stroke-linecap="round" stroke-linejoin="round" stroke-width="3"><path fill="#000" fill-rule="evenodd" stroke="none" d="M4.44 1.547a3.56 3.56 0 0 0-2.888 2.841c-.076.399-.076 14.825 0 15.224.221 1.168 1.036 2.177 2.116 2.617.688.28.539.271 4.292.271 3.74 0 3.57.011 4.152-.266.443-.211.893-.65 1.105-1.08.294-.595.277-.352.293-4.182l.014-3.448 3.448-.014c3.075-.013 3.472-.022 3.668-.081a2.64 2.64 0 0 0 1.788-1.789c.059-.195.069-.577.082-3.357.015-3.276-.001-3.744-.15-4.245-.349-1.171-1.216-2.038-2.407-2.407l-.293-.091-7.56-.005c-4.158-.002-7.605.003-7.66.012m6.04 5.973v3H4.52V4.792l.136-.136.136-.136h5.688zm8.864-2.864.136.136v5.728h-5.96v-6h5.688zM10.48 16.52v3H7.75c-1.739 0-2.784-.015-2.877-.041a.6.6 0 0 1-.25-.163l-.103-.122V13.52h5.96zm11.036-.943c-.317.12-.553.33-2.004 1.775l-1.508 1.502-.553-.537c-.723-.702-.863-.777-1.451-.777-.384 0-.44.01-.648.116-.754.381-1.048 1.237-.694 2.012.09.195.286.411 1.275 1.399.988.989 1.204 1.185 1.399 1.275.432.197.903.197 1.336 0 .203-.093.499-.373 2.4-2.274s2.181-2.197 2.274-2.4c.354-.776.06-1.63-.694-2.012-.198-.101-.279-.117-.608-.125-.246-.006-.431.01-.524.046"/></svg>