<svg xmlns="http://www.w3.org/2000/svg" width="24" height="24" fill="none" stroke="currentColor" stroke-linecap="round" stroke-linejoin="round" stroke-width="3"><path fill="#000" fill-rule="evenodd" stroke="none" d="M4.44 1.547a3.56 3.56 0 0 0-2.888 2.841c-.076.399-.076 14.825 0 15.224.221 1.168 1.036 2.177 2.116 2.617.688.28.539.271 4.292.271 3.74 0 3.57.011 4.152-.266.443-.211.893-.65 1.105-1.08.294-.595.277-.352.293-4.182l.014-3.448 3.448-.014c3.075-.013 3.472-.022 3.668-.081a2.64 2.64 0 0 0 1.788-1.789c.059-.195.069-.577.082-3.357.015-3.276-.001-3.744-.15-4.245-.349-1.171-1.216-2.038-2.407-2.407l-.293-.091-7.56-.005c-4.158-.002-7.605.003-7.66.012m6.04 5.973v3H4.52V4.792l.136-.136.136-.136h5.688zm8.864-2.864.136.136v5.728h-5.96v-6h5.688zM10.48 16.52v3H7.75c-1.739 0-2.784-.015-2.877-.041a.6.6 0 0 1-.25-.163l-.103-.122V13.52h5.96zm5.036-1.943c-.855.325-1.24 1.255-.862 2.082.081.176.269.391.901 1.032l.798.809-.798.809c-.633.641-.82.855-.9 1.032a1.499 1.499 0 0 0 1.563 2.136c.442-.06.599-.17 1.473-1.032l.809-.798.809.798c.641.633.855.82 1.032.9a1.499 1.499 0 0 0 2.136-1.563c-.06-.443-.17-.6-1.032-1.473l-.798-.809.798-.809c.632-.641.82-.856.901-1.032a1.505 1.505 0 0 0-.698-2.003c-.208-.106-.264-.116-.648-.116-.624 0-.707.05-1.7 1.027l-.8.786-.8-.786c-.972-.956-1.078-1.022-1.66-1.036-.246-.006-.431.01-.524.046"/></svg>