<svg xmlns="http://www.w3.org/2000/svg" width="24" height="24" fill="none" stroke="currentColor" stroke-linecap="round" stroke-linejoin="round" stroke-width="3"><path fill="#000" fill-rule="evenodd" stroke="none" d="M4.44 1.547a3.54 3.54 0 0 0-2.816 2.541c-.111.39-.153 1.042-.136 2.152.015 1.03.019 1.067.119 1.308.245.593.758.938 1.393.938s1.148-.345 1.394-.938c.101-.244.103-.268.124-1.521l.022-1.274.131-.116.13-.117 1.07-.001c.588 0 1.181-.017 1.319-.037a1.494 1.494 0 0 0 1.287-1.7 1.51 1.51 0 0 0-.829-1.126L7.42 1.54l-1.44-.005a37 37 0 0 0-1.54.012m12.076.03c-.532.201-.921.673-.993 1.205a1.494 1.494 0 0 0 1.287 1.7c.138.02.731.037 1.319.037l1.07.001.13.117.131.116.022 1.274c.021 1.253.023 1.277.124 1.521.246.593.759.938 1.394.938s1.148-.345 1.393-.938c.1-.241.104-.278.119-1.308.024-1.56-.052-2.117-.377-2.776a3.55 3.55 0 0 0-2.182-1.831c-.277-.083-.377-.089-1.793-.099-1.19-.009-1.53 0-1.644.043M7.38 5.576c-.453.113-.95.421-1.279.793-.209.237-.465.739-.547 1.071-.078.317-.078 3.803 0 4.12.176.714.701 1.373 1.334 1.673.415.197.586.238 1.141.272l.443.027.019 1.444c.021 1.595.027 1.641.292 2.178.212.43.662.869 1.105 1.08.576.274.467.266 3.612.266 2.251 0 2.886-.011 3.06-.054.713-.175 1.372-.701 1.674-1.334.265-.557.266-.566.266-2.612 0-2.045-.001-2.055-.265-2.61-.262-.55-.81-1.036-1.418-1.257-.183-.067-.358-.09-.763-.104l-.526-.018-.019-1.466c-.015-1.184-.031-1.507-.083-1.685a2.64 2.64 0 0 0-1.609-1.73l-.237-.09-3-.007c-2.288-.006-3.047.004-3.2.043m5.1 3.918v.973l-1.327.027c-.729.014-1.62.026-1.98.026H8.52v-2h3.96zm3 5.026v1h-3.96v-2h3.96zM2.516 15.577a1.54 1.54 0 0 0-.998 1.233c-.049.336-.046 2.036.003 2.507.18 1.707 1.455 2.982 3.162 3.162.471.049 2.171.052 2.507.003a1.494 1.494 0 0 0 1.287-1.7 1.51 1.51 0 0 0-.829-1.126l-.228-.116-1.28-.02c-1.359-.021-1.379-.024-1.537-.225-.079-.101-.083-.154-.084-1.17 0-.586-.017-1.177-.037-1.315a1.51 1.51 0 0 0-.832-1.153c-.195-.099-.28-.116-.608-.125-.253-.007-.431.008-.526.045m18 0a1.54 1.54 0 0 0-.998 1.233c-.02.138-.037.729-.037 1.315-.001 1.016-.005 1.069-.084 1.17-.158.201-.178.204-1.537.225l-1.28.02-.228.116a1.51 1.51 0 0 0-.829 1.126 1.494 1.494 0 0 0 1.287 1.7c.336.049 2.036.046 2.507-.003 1.707-.18 2.982-1.455 3.162-3.162.049-.471.052-2.171.003-2.507a1.51 1.51 0 0 0-.832-1.153c-.195-.099-.28-.116-.608-.125-.253-.007-.431.008-.526.045"/></svg>