<svg xmlns="http://www.w3.org/2000/svg" width="24" height="24" fill="none" stroke="currentColor" stroke-linecap="round" stroke-linejoin="round" stroke-width="3"><path fill="#000" fill-rule="evenodd" stroke="none" d="M18.848.578c-.548.125-.855.32-1.535.974-1.023.985-1.411 1.506-1.631 2.188-.149.465-.202.958-.202 1.886v.748l-.53.535-.531.534-.388-.197c-.982-.5-1.91-.726-2.986-.726-1.035 0-1.864.274-2.695.89-.793.588-1.219 1.178-1.789 2.477-.093.212-.219.434-.28.492-.102.098-.15.109-.586.141-1.742.124-3.153.903-4.184 2.308-.384.524-.793 1.479-.911 2.13-.331 1.83.203 3.923 1.414 5.542.308.411 1.075 1.178 1.486 1.486 1.619 1.211 3.712 1.745 5.542 1.414.998-.181 2.085-.762 2.84-1.518.987-.986 1.506-2.182 1.622-3.733.03-.408.096-.485.604-.708 1.046-.459 1.537-.765 2.038-1.273.892-.903 1.342-1.974 1.341-3.191a6.5 6.5 0 0 0-.752-3.056l-.18-.339.536-.531.535-.531h.723c2.025 0 2.587-.254 4.131-1.869.53-.555.707-.806.873-1.241.09-.238.102-.333.104-.79.002-.41-.013-.566-.073-.74-.208-.606-.4-.851-1.576-2.005C20.882.967 20.647.79 20.16.636 19.82.528 19.191.5 18.848.578m.992 3.602.419.42-.42.421c-.469.471-.525.498-1.009.499h-.31v-.892l.428-.434c.235-.239.438-.434.45-.434s.212.189.442.42m-8.177 5.382c.13.023.298.061.372.085l.134.042-.409.411c-.389.391-.418.411-.611.434-.454.054-1.066.465-1.349.907-.388.604-.39 1.512-.003 2.114a1.99 1.99 0 0 0 1.703.937 1.99 1.99 0 0 0 1.703-.937c.135-.21.277-.615.277-.789 0-.083.095-.202.415-.521l.416-.414.043.134c.159.499.163 1.283.008 1.606-.11.23-.39.55-.619.707a8 8 0 0 1-.792.393c-.727.325-1.074.543-1.42.896-.41.416-.656.804-.828 1.298-.128.37-.173.622-.22 1.215-.047.604-.14.899-.41 1.302q-.823 1.232-2.446 1.095c-1.877-.159-3.482-1.51-3.977-3.349-.092-.342-.105-.467-.107-1.048-.002-.589.007-.685.087-.897.269-.714.858-1.303 1.546-1.545.148-.052.458-.101.863-.137 1.034-.09 1.671-.354 2.308-.955.424-.401.65-.741.972-1.466.141-.319.301-.652.354-.74.203-.336.559-.638.887-.753.211-.074.756-.086 1.103-.025m-.848 3.553c.091.096.219.208.285.25.066.041.096.075.067.075-.163 0-.611-.461-.606-.624.001-.02.021 0 .045.044.025.044.118.159.209.255m-5.299 1.462a1.52 1.52 0 0 0-.858 2.091c.09.195.286.411 1.275 1.399.988.989 1.204 1.185 1.399 1.275 1.312.6 2.61-.698 2.01-2.01-.09-.196-.283-.406-1.274-1.393-1.376-1.37-1.41-1.393-2.028-1.408-.246-.006-.431.01-.524.046"/></svg>