<svg xmlns="http://www.w3.org/2000/svg" width="24" height="24" fill="none" stroke="currentColor" stroke-linecap="round" stroke-linejoin="round" stroke-width="3"><path fill="#000" fill-rule="evenodd" stroke="none" d="M17.22.278c-1.627.267-2.889 1.412-3.305 2.995-.095.361-.143 1.206-.086 1.514l.039.207-.366.364-.367.365-.477-.091c-.424-.081-.599-.091-1.538-.09-1.13 0-1.401.028-2.349.241-1.761.395-3.627 1.292-5.269 2.531-.879.664-1.819 1.541-2.15 2.006-.882 1.239-1.086 3.001-.56 4.822.522 1.803 1.552 3.481 3.068 4.998 1.036 1.035 2.064 1.787 3.26 2.385 1.452.725 2.9 1.058 4.144.952.732-.062 1.274-.205 1.836-.485.449-.223.782-.471 1.2-.892 1.307-1.317 2.422-2.933 3.135-4.545.96-2.17 1.285-4.381.92-6.272l-.081-.417.373-.372.373-.371.18.042c.105.025.423.034.76.024.617-.02.989-.101 1.502-.328.829-.367 1.659-1.21 2.015-2.048.259-.608.303-.846.301-1.613-.002-.644-.011-.729-.112-1.06-.22-.725-.524-1.242-1.024-1.742a3.9 3.9 0 0 0-.985-.73c-.173-.087-.229-.148-.386-.415-.579-.987-1.532-1.687-2.611-1.914-.365-.077-1.143-.11-1.44-.061m1.077 3.098c.245.144.374.326.485.686.117.378.246.602.461.796.184.166.494.322.726.363.082.015.243.084.358.153a.973.973 0 0 1 .219 1.492q-.482.548-1.239.204c-.265-.12-.319-.13-.707-.13-.563 0-.73.081-1.309.636l-.427.41-.425-.423-.425-.423.403-.423c.258-.27.446-.508.522-.66.108-.215.119-.275.12-.637.001-.361-.011-.425-.119-.66-.167-.361-.17-.735-.009-1.009.124-.211.315-.373.539-.456.227-.085.607-.048.827.081M12.1 8.582c1.539.266 2.638 1.17 3.122 2.568.183.53.258 1.032.257 1.73-.002.644-.038.995-.161 1.56-.096.438-.393 1.401-.432 1.399-.014-.001-.087-.141-.163-.31-1.143-2.584-3.61-5.058-6.213-6.231-.192-.087-.349-.17-.35-.184 0-.035.939-.331 1.32-.416.822-.183 1.94-.233 2.62-.116M5.905 11.58c2.52.482 5.416 3.124 6.314 5.76.229.673.327 1.573.221 2.024-.181.766-.715 1.134-1.637 1.127-2.625-.019-6.062-2.918-7.061-5.954a4.2 4.2 0 0 1-.214-1.497c.014-.396.032-.493.126-.7a1.38 1.38 0 0 1 .936-.777c.243-.057.978-.048 1.315.017m1.269 2.459c-.424.09-.845.438-1.042.861-.097.207-.112.29-.112.6 0 .323.013.388.131.636.111.234.227.372.784.929s.695.673.929.784c.248.118.313.131.636.131.31 0 .393-.015.6-.112.315-.147.624-.455.767-.764.098-.21.113-.293.113-.604 0-.323-.013-.388-.131-.636-.111-.234-.227-.372-.784-.929-.542-.542-.697-.674-.909-.773a1.73 1.73 0 0 0-.982-.123"/></svg>