<svg xmlns="http://www.w3.org/2000/svg" width="24" height="24" fill="none" stroke="currentColor" stroke-linecap="round" stroke-linejoin="round" stroke-width="3"><path fill="#000" fill-rule="evenodd" stroke="none" d="M8.516 1.537c-.137.052-.38.198-.519.311-.137.112-.353.438-.416.629-.135.407-.057.991.175 1.311.062.085.299.325.528.532 1.071.97 1.432 1.401 1.759 2.1.267.568.437 1.246.437 1.739v.219l-4.054 4.061C3.934 14.936 2.302 16.6 2.191 16.76c-.5.716-.697 1.396-.66 2.27.033.781.259 1.429.699 2.01.668.88 1.607 1.377 2.7 1.429.89.042 1.59-.158 2.31-.66.16-.111 1.802-1.72 4.261-4.175l4.001-3.994.507.51.506.51v.326c-.003.86.629 1.5 1.479 1.5.418 0 .699-.109 1.04-.406.146-.127 1.152-1.12 2.234-2.207 1.707-1.713 1.983-2.007 2.074-2.206.354-.774.059-1.63-.694-2.011-.195-.099-.284-.118-.613-.13l-.386-.013-.564-.57-.565-.569v-.657c0-.361-.019-.774-.042-.917-.078-.494-.158-.6-1.377-1.833-1.719-1.738-2.2-2.139-3.141-2.621-.76-.39-1.427-.611-2.32-.77-.527-.093-4.895-.127-5.124-.039m4.884 3.05c.548.11 1.124.348 1.62.672.136.088.719.631 1.35 1.257l1.11 1.101v.253c0 .764.182 1.518.495 2.052.18.306.637.844 1.121 1.317l.265.259-.428.429-.428.43-.483-.47c-.785-.764-1.107-.984-1.762-1.202-.384-.128-1.236-.234-1.469-.183-.115.025-.154-.006-.696-.547l-.575-.574v-.46c-.002-1.577-.243-2.73-.821-3.918l-.259-.531.33.027c.181.015.465.055.63.088m-4.517 11.39-3.478 3.478-.232.014c-.272.018-.443-.066-.573-.279-.088-.144-.106-.424-.036-.563.024-.048 1.595-1.639 3.49-3.537l3.445-3.449.431.429.431.429z"/></svg>