<svg xmlns="http://www.w3.org/2000/svg" width="24" height="24" fill="none" stroke="currentColor" stroke-linecap="round" stroke-linejoin="round" stroke-width="3"><path fill="#000" fill-rule="evenodd" stroke="none" d="M2.45 1.603c-.382.15-.778.586-.888.977-.025.088-.277 2.698-.56 5.8C.6 12.793.496 14.067.523 14.237c.081.509-.027.389 3.672 4.087 2.125 2.125 3.526 3.496 3.691 3.611 1.261.883 2.9.903 4.154.052.267-.181.705-.614.907-.895l.178-.249.193.076c.894.353 2.146.224 3.033-.31.657-.397 1.258-1.094 1.494-1.737l.084-.227.226-.024c.845-.091 1.377-.277 1.945-.681.274-.195.707-.634.887-.9.259-.381.511-.986.56-1.344l.024-.176.244-.001c.313 0 .718-.096.926-.217.223-.131.528-.467.629-.693.16-.355.147-.568-.365-6.229-.265-2.926-.501-5.437-.525-5.58a1.47 1.47 0 0 0-.46-.877c-.334-.315-.514-.383-1.02-.383-.379 0-.442.011-.647.112-.399.195-.659.529-.85 1.09-.015.045-.453.138-.648.138-.07 0-.346-.131-.711-.337-1.252-.707-2.189-.975-3.544-1.012-1.316-.036-2.284.174-3.463.752l-.483.237H4.448l-.119-.21c-.149-.264-.47-.567-.719-.677-.284-.127-.876-.142-1.16-.03M15.5 4.637c.355.097.923.363 1.497.7.737.432 1.223.562 1.983.528.286-.013.575-.034.642-.047l.122-.025.272 3.014c.149 1.657.281 3.094.293 3.193l.021.18-1.915-1.903c-1.885-1.872-2.158-2.121-2.635-2.405a4.51 4.51 0 0 0-4.56 0c-.395.235-.676.468-1.323 1.097-.66.642-.749.696-1.047.629a.64.64 0 0 1-.3-.194c-.14-.151-.15-.177-.15-.412V8.74l1.71-1.705c1.538-1.532 1.744-1.724 2.05-1.901.569-.33.91-.455 1.6-.588a9 9 0 0 1 .76-.008c.529.009.724.029.98.099M6.792 6.074c-.297.305-.624.672-.727.816a3.6 3.6 0 0 0-.329 3.648c.204.424.375.671.693.995a3.61 3.61 0 0 0 4.723.37c.139-.103.535-.462.88-.799.346-.338.701-.65.79-.696.397-.2.972-.196 1.374.011.129.067.818.73 2.294 2.209l2.11 2.114v.244c0 .225-.011.256-.15.411a.6.6 0 0 1-.3.201c-.332.074-.334.073-1.845-1.426C14.64 12.52 14.669 12.54 14 12.54c-.384 0-.44.01-.648.116-.751.38-1.048 1.237-.696 2.006.085.186.301.425 1.26 1.392 1.006 1.014 1.16 1.187 1.186 1.32a.628.628 0 0 1-.749.725c-.104-.022-.387-.279-1.293-1.174-1.392-1.376-1.406-1.385-2.06-1.385-.384 0-.44.01-.648.116a1.5 1.5 0 0 0-.829 1.562c.05.372.189.605.651 1.091l.426.449v.236c0 .216-.013.25-.15.403a.6.6 0 0 1-.3.201c-.352.078-.198.214-3.516-3.105L3.562 13.42l.359-3.937.359-3.95c0-.007.686-.013 1.525-.013H7.33z"/></svg>