<svg xmlns="http://www.w3.org/2000/svg" width="24" height="24" fill="none" stroke="currentColor" stroke-linecap="round" stroke-linejoin="round" stroke-width="3"><path fill="#000" fill-rule="evenodd" stroke="none" d="M11.44.545c-.77.148-1.465.517-1.966 1.044-.222.233-.606.78-.654.932-.02.063-.047.071-.152.048a6 6 0 0 0-.708-.028c-.479.001-.634.016-.892.09-1.257.361-2.185 1.345-2.499 2.648-.053.221-.065.701-.078 3.121l-.016 2.86-.628.001c-.543 0-.667.013-.927.094-1.248.388-2.192 1.405-2.448 2.637a3 3 0 0 0-.06.868c.033.784.235 1.357.69 1.96.323.428 4.275 4.336 4.782 4.729 1.295 1.003 2.66 1.582 4.316 1.829 1.142.17 4.095.185 5.147.026a9.6 9.6 0 0 0 4.549-1.954c.366-.288 1.266-1.188 1.554-1.554q1.547-1.963 1.959-4.549c.079-.497.084-.716.101-3.853.017-3.483.002-3.944-.15-4.456a3.47 3.47 0 0 0-1.828-2.173c-.504-.252-.83-.323-1.492-.324a6 6 0 0 0-.71.028c-.121.027-.134.019-.187-.108-.089-.212-.376-.617-.621-.876a3.67 3.67 0 0 0-1.59-.954c-.258-.074-.413-.089-.892-.09a6 6 0 0 0-.71.028c-.121.027-.134.019-.187-.108-.161-.386-.669-.987-1.083-1.281-.633-.45-1.161-.623-1.96-.641a7 7 0 0 0-.66.006m.889 3.092.131.116.02 3.274.02 3.273.105.248c.25.595.761.938 1.395.938s1.145-.343 1.395-.938l.105-.248.02-2.273.02-2.274.131-.116c.107-.096.166-.117.329-.117s.222.021.329.117l.131.116.02 2.774.02 2.773.105.248c.25.595.761.938 1.395.938s1.146-.344 1.395-.938l.104-.248.021-1.773.02-1.774.131-.116c.108-.097.165-.117.334-.117.178 0 .22.017.339.136l.136.136-.001 3.394c0 3.598-.005 3.701-.196 4.443-.653 2.543-2.774 4.427-5.423 4.818-.495.073-3.446.072-3.98-.002-.914-.125-1.557-.315-2.205-.652-.756-.394-1.112-.703-3.209-2.789-1.074-1.069-1.979-1.993-2.01-2.052-.12-.23-.033-.54.183-.651a.7.7 0 0 1 .285-.061c.165 0 .181.013 1.18 1.001.824.815 1.054 1.021 1.236 1.104 1.105.506 2.299-.367 2.137-1.563-.049-.358-.192-.607-.591-1.028l-.366-.386V5.792l.136-.136c.119-.119.161-.136.339-.136.169 0 .226.02.334.117l.131.116.02 2.514c.021 2.511.021 2.513.113 2.743.174.432.555.803.945.92.209.062.715.062.924 0 .39-.117.77-.487.945-.92l.093-.23.02-3.513.02-3.514.131-.116c.107-.096.166-.117.329-.117s.222.021.329.117"/></svg>