<svg xmlns="http://www.w3.org/2000/svg" width="24" height="24" fill="none" stroke="currentColor" stroke-linecap="round" stroke-linejoin="round" stroke-width="3"><path fill="#000" fill-rule="evenodd" stroke="none" d="M17.918 1.282a4.45 4.45 0 0 0-1.742.542l-.244.136-.348-.163a5.4 5.4 0 0 0-.736-.267c-.346-.094-.462-.105-1.068-.106-.573-.001-.732.012-1.009.086-1.655.438-2.834 1.662-3.194 3.314-.047.217-.069.497-.069.896 0 .498.015.642.109 1.02.12.48.395 1.105.658 1.493.091.133.165.25.165.26 0 .009-.256.026-.57.038-.647.023-.975.1-1.443.335-.284.143-.676.42-.789.557-.069.084-4.469 4.334-4.564 4.408-.056.044-.094.033-.249-.072-.288-.194-.497-.249-.896-.233-.288.012-.389.034-.577.13-.754.382-1.048 1.235-.694 2.012.094.206.461.587 3.274 3.4 3.45 3.45 3.323 3.337 3.85 3.409a1.497 1.497 0 0 0 1.544-2.17l-.119-.241.204-.183a4 4 0 0 0 .284-.273l.079-.09 2.063-.001c1.135 0 2.284-.018 2.554-.039.95-.074 1.791-.342 2.486-.793.245-.159.825-.626.873-.702.016-.027.876-.856 1.91-1.842 3.251-3.103 3.329-3.186 3.605-3.881A3.5 3.5 0 0 0 22.86 8.9c-.213-.299-.698-.76-.973-.924a2.4 2.4 0 0 1 .145-.322c.171-.342.335-.817.412-1.194.081-.392.07-1.5-.018-1.877a4.32 4.32 0 0 0-2.364-2.926c-.391-.181-.907-.326-1.266-.356-.163-.014-.35-.03-.416-.037a4 4 0 0 0-.462.018m.915 3.121c.264.132.436.31.578.597.076.154.088.239.083.593-.011.742-.139.918-2.083 2.858l-1.434 1.432-1.227-1.192c-1.512-1.469-1.894-1.904-2.137-2.434-.089-.195-.099-.263-.087-.589.016-.431.102-.644.362-.901.269-.267.471-.345.892-.346.313 0 .386.014.56.106.11.058.333.243.495.409.477.49.917.647 1.464.525q.612-.136.985-.679c.11-.16.384-.367.58-.439.086-.032.284-.059.44-.06a.9.9 0 0 1 .529.12m1.411 6.099c.241.125.354.489.213.69-.047.067-3.534 3.433-4.933 4.762-.209.198-.537.376-.874.474-.199.057-.571.07-2.79.092-2.488.024-2.568.027-2.853.113-.345.105-.803.328-1.027.501-.088.068-.32.272-.515.455a4 4 0 0 1-.38.331c-.014 0-.455-.429-.979-.954l-.953-.954 2.253-2.175a174 174 0 0 0 2.306-2.246c.049-.066.169-.071 1.774-.071h1.722l.136.136c.118.118.136.162.136.335a.49.49 0 0 1-.253.459c-.062.036-.452.056-1.367.07l-1.28.02-.228.116c-.93.471-1.133 1.673-.407 2.399.242.242.53.38.906.433.432.061 2.537.015 2.879-.063.405-.091.906-.31 1.236-.538.162-.112.6-.488.975-.835.375-.348.78-.712.9-.81s.516-.467.879-.82c.827-.805 1.978-1.866 2.093-1.931a.47.47 0 0 1 .431.011"/></svg>