<svg xmlns="http://www.w3.org/2000/svg" width="24" height="24" fill="none" stroke="currentColor" stroke-linecap="round" stroke-linejoin="round" stroke-width="3"><path fill="#000" fill-rule="evenodd" stroke="none" d="M5.277.558C3.806.827 2.61 1.719 1.961 3.032a5.2 5.2 0 0 0-.402 1.248c-.059.334-.059 1.106 0 1.44.361 2.054 2.013 3.583 4.057 3.756 2.473.208 4.652-1.626 4.86-4.092a4.46 4.46 0 0 0-1.343-3.596A3.8 3.8 0 0 0 7.98.978C7.302.646 6.919.555 6.12.538c-.363-.007-.742.002-.843.02m1.376 3.1c.272.138.573.445.709.722.085.174.098.255.098.62 0 .384-.01.44-.116.648a1.5 1.5 0 0 1-1.562.829 1.51 1.51 0 0 1-1.126-.829C4.55 5.44 4.54 5.384 4.54 5c0-.365.013-.446.098-.62.173-.352.515-.664.878-.803q.144-.055.526-.045c.329.009.413.026.611.126m8.767.988c-1.366.173-2.64 1.053-3.295 2.274a4.6 4.6 0 0 0-.521 2.16l.006.42-1.155.023c-1.29.027-1.453.054-2.028.343-.284.143-.676.42-.789.557-.069.084-4.469 4.334-4.564 4.408-.056.044-.094.033-.249-.072-.288-.194-.497-.249-.896-.233-.288.012-.389.034-.577.13-.754.382-1.048 1.235-.694 2.012.094.206.461.587 3.274 3.4 3.45 3.45 3.323 3.337 3.85 3.409a1.497 1.497 0 0 0 1.544-2.17l-.119-.241.204-.183c.113-.101.241-.224.284-.273l.079-.09 2.063-.001c1.135 0 2.284-.018 2.554-.039.95-.074 1.791-.342 2.486-.793.245-.159.825-.626.873-.702.016-.027.876-.856 1.91-1.842 3.251-3.103 3.329-3.186 3.605-3.881a3.506 3.506 0 0 0-2.618-4.758l-.26-.047-.108-.439a4.5 4.5 0 0 0-.506-1.277 4.42 4.42 0 0 0-4.353-2.095m1.168 3.093c.272.124.552.409.683.693.151.327.151.809 0 1.137-.13.282-.42.571-.711.708-.183.085-.278.103-.56.103-.285 0-.377-.017-.568-.107a1.55 1.55 0 0 1-.704-.705 1.48 1.48 0 0 1 .001-1.136c.18-.392.565-.708.965-.793.252-.053.659-.008.894.1m3.656 3.763c.241.125.354.489.213.69-.047.067-3.534 3.433-4.933 4.762-.209.198-.537.376-.874.474-.199.057-.571.07-2.79.092-2.488.024-2.568.027-2.853.113-.345.105-.803.328-1.027.501-.088.068-.32.272-.515.455a4 4 0 0 1-.38.331c-.014 0-.455-.429-.979-.954l-.953-.954 2.253-2.175a174 174 0 0 0 2.306-2.246c.049-.066.169-.071 1.774-.071h1.722l.136.136c.118.118.136.162.136.335a.49.49 0 0 1-.253.459c-.062.036-.452.056-1.367.07l-1.28.02-.228.116a1.5 1.5 0 0 0-.829 1.562c.064.47.403.933.828 1.131.33.153.677.181 1.949.159 1.279-.023 1.469-.049 2.036-.281.622-.253.533-.177 4.717-4.062.37-.344.712-.647.76-.674a.47.47 0 0 1 .431.011"/></svg>