<svg xmlns="http://www.w3.org/2000/svg" width="24" height="24" fill="none" stroke="currentColor" stroke-linecap="round" stroke-linejoin="round" stroke-width="3"><path fill="#000" fill-rule="evenodd" stroke="none" d="M7.44 1.545c-1.46.281-2.523 1.293-2.871 2.734-.054.224-.065.734-.078 3.621l-.016 3.36-.627.001c-.544 0-.668.013-.928.094-1.248.388-2.192 1.405-2.448 2.637a3 3 0 0 0-.06.868c.033.784.236 1.358.69 1.96.282.373 4.174 4.24 4.658 4.628 1.327 1.064 2.734 1.675 4.44 1.93 1.142.17 4.095.185 5.147.026a9.6 9.6 0 0 0 4.549-1.954c.366-.288 1.266-1.188 1.554-1.554 1.032-1.31 1.682-2.82 1.959-4.549.081-.504.085-.697.101-4.357.017-3.998.003-4.435-.15-4.952a3.52 3.52 0 0 0-2.428-2.408c-.264-.076-.407-.09-.932-.09s-.668.014-.932.09a3.6 3.6 0 0 0-2.02 1.502c-.198.304-.418.835-.469 1.132s-.001.276-.649.28c-.507.003-.636.018-.918.103l-.328.1-.192-.197a3.76 3.76 0 0 0-1.539-.913c-.212-.062-.45-.091-.863-.106l-.57-.021-.001-.225c-.005-1.585-.695-2.773-1.986-3.419-.479-.24-.797-.313-1.433-.327a7 7 0 0 0-.66.006m.889 3.092.131.116.02 3.274.02 3.273.105.248c.25.595.761.938 1.395.938.635 0 1.148-.345 1.394-.938.101-.244.103-.268.124-1.521l.022-1.274.131-.116c.107-.096.166-.117.329-.117s.222.021.329.117l.131.116.021 1.474c.021 1.472.021 1.473.125 1.721.247.594.76.938 1.394.938.635 0 1.149-.346 1.393-.938.098-.237.103-.29.119-1.207l.017-.958.132-.132c.114-.114.158-.131.334-.131.169 0 .226.02.334.117l.131.116.022 1.514c.021 1.454.025 1.522.113 1.743.17.43.552.803.943.92.209.062.715.062.924 0 .39-.117.771-.487.945-.92l.093-.23.02-3.013.02-3.014.131-.116c.108-.097.165-.117.334-.117.178 0 .22.017.339.136l.136.136-.001 3.894c0 4.135-.003 4.192-.196 4.943-.642 2.5-2.726 4.387-5.3 4.797-.498.079-2.612.116-3.483.06-1.629-.104-2.601-.431-3.684-1.239-.386-.288-4.261-4.105-4.36-4.295-.12-.23-.033-.54.183-.651a.7.7 0 0 1 .285-.061c.165 0 .181.013 1.18 1.001.824.815 1.054 1.021 1.236 1.104 1.105.506 2.299-.367 2.137-1.563-.049-.358-.192-.607-.591-1.028l-.366-.386V4.792l.136-.136c.119-.119.161-.136.339-.136.169 0 .226.02.334.117"/></svg>