<svg xmlns="http://www.w3.org/2000/svg" width="24" height="24" fill="none" stroke="currentColor" stroke-linecap="round" stroke-linejoin="round" stroke-width="3"><path fill="#000" fill-rule="evenodd" stroke="none" d="M19.54 5.48a3.6 3.6 0 0 0-1.589.653c-.127.095-.559.477-.96.849l-.922.855-.192.177-.067-.097c-.134-.196-.516-.571-.75-.737a4 4 0 0 0-1.128-.55c-.307-.088-.349-.09-2.452-.09s-2.145.002-2.452.09c-.509.148-1.169.524-1.39.793-.069.084-4.469 4.334-4.564 4.408-.056.044-.094.033-.249-.072-.288-.194-.497-.249-.896-.233-.288.012-.389.034-.577.13-.754.382-1.048 1.235-.694 2.012.094.206.461.587 3.274 3.4 3.45 3.45 3.323 3.337 3.85 3.409a1.497 1.497 0 0 0 1.544-2.17l-.119-.241.204-.183c.113-.101.241-.224.284-.273l.079-.09 2.063-.001c1.135 0 2.284-.018 2.554-.039.95-.074 1.791-.342 2.486-.793.245-.159.825-.626.873-.702.016-.027.876-.856 1.91-1.842 3.251-3.103 3.329-3.186 3.605-3.881a3.48 3.48 0 0 0-.883-3.89c-.759-.699-1.846-1.04-2.842-.892m.704 3.022c.241.125.354.489.213.69-.047.067-3.534 3.433-4.933 4.762-.209.198-.537.376-.874.474-.199.057-.571.07-2.79.092-2.488.024-2.568.027-2.853.113-.345.105-.803.328-1.027.501-.088.068-.32.272-.515.455a4 4 0 0 1-.38.331c-.014 0-.455-.429-.979-.954l-.953-.954 2.253-2.175a174 174 0 0 0 2.306-2.246c.049-.066.169-.071 1.774-.071h1.722l.136.136c.118.118.136.162.136.335a.49.49 0 0 1-.253.459c-.062.036-.452.056-1.367.07l-1.28.02-.228.116c-.93.471-1.133 1.673-.407 2.399.242.242.53.38.906.433.432.061 2.537.015 2.879-.063.405-.091.906-.31 1.236-.538.162-.112 1.284-1.124 2.494-2.249s2.254-2.08 2.32-2.122a.44.44 0 0 1 .464-.014"/></svg>