<svg xmlns="http://www.w3.org/2000/svg" width="24" height="24" fill="none" stroke="currentColor" stroke-linecap="round" stroke-linejoin="round" stroke-width="3"><path fill="#000" fill-rule="evenodd" stroke="none" d="M11.516.577c-.371.142-.711.446-.864.773-.115.246-.17.58-.171 1.037-.001.277-.012.331-.071.348-.038.011-.232.058-.43.104-2.323.536-4.392 2.134-5.561 4.297-.181.334-.506 1.082-.552 1.269-.021.084-.056.109-.18.129-.376.06-.864.445-1.036.818a1.5 1.5 0 0 0 1.159 2.13c.33.048 16.05.048 16.38 0a1.494 1.494 0 0 0 .172-2.929c-.168-.039-.209-.065-.229-.15-.046-.185-.372-.935-.552-1.267-1.168-2.161-3.239-3.762-5.561-4.297a17 17 0 0 1-.43-.104c-.059-.017-.07-.071-.071-.348-.002-.918-.254-1.419-.869-1.73-.195-.099-.28-.116-.608-.125q-.382-.01-.526.045M12.94 5.68a5.55 5.55 0 0 1 3.723 2.424c.119.179.217.345.217.37 0 .034-1.257.046-4.88.046s-4.88-.012-4.88-.046c0-.025.098-.191.217-.37.828-1.238 2.071-2.086 3.486-2.38.522-.108.553-.111 1.143-.118.348-.004.652.019.974.074m-9.72 6.84-1.64.02-.228.116a1.51 1.51 0 0 0-.829 1.126 1.494 1.494 0 0 0 1.287 1.7c.138.02.569.037.96.037l.71.001v3.996l-.95.012-.95.012-.228.116c-.93.471-1.133 1.673-.407 2.399.242.242.53.38.904.432.165.022.957.034 1.869.026l1.582-.014.248-.104c.389-.163.683-.452.831-.817.049-.121.1-.23.112-.242.012-.013.186.127.387.311.2.183.494.447.653.587.849.747 1.846 1.15 3.078 1.246.637.05 4.145.05 4.782 0 .95-.074 1.791-.342 2.486-.793.251-.163.827-.627.873-.704.016-.027.905-.852 1.975-1.833 1.759-1.613 1.968-1.817 2.184-2.14.241-.36.387-.691.518-1.17.052-.194.069-.402.067-.82-.002-.485-.017-.607-.109-.912a3.47 3.47 0 0 0-.91-1.537c-.422-.411-.805-.656-1.3-.828a3.8 3.8 0 0 0-1.876-.13c-.689.144-1.2.426-1.916 1.057-.23.203-.436.37-.457.37-.02 0-.069-.05-.109-.11-.126-.195-.51-.575-.757-.75a4.2 4.2 0 0 0-1.107-.547c-.283-.086-.358-.09-2.253-.101-4.398-.026-7.931-.031-9.48-.012m11.124 3.136c.116.116.136.164.136.324 0 .202-.096.38-.253.47-.062.036-.45.056-1.367.07l-1.28.02-.228.116c-.93.471-1.133 1.673-.407 2.399.242.242.53.38.906.433.432.061 2.537.015 2.879-.063a3.65 3.65 0 0 0 1.69-.907c.132-.125.932-.833 1.778-1.573 1.021-.894 1.582-1.358 1.67-1.382.262-.072.569.113.637.384.069.272.035.309-1.855 2.042-.984.903-1.906 1.754-2.047 1.89a2.2 2.2 0 0 1-.974.552c-.223.062-.5.069-2.629.069s-2.406-.007-2.629-.069a2.2 2.2 0 0 1-.974-.551 92 92 0 0 0-1.567-1.393l-1.31-1.146V15.52h7.688z"/></svg>