<svg xmlns="http://www.w3.org/2000/svg" width="24" height="24" fill="none" stroke="currentColor" stroke-linecap="round" stroke-linejoin="round" stroke-width="3"><path fill="#000" fill-rule="evenodd" stroke="none" d="M11.729.524c-.458.077-.488.103-2.797 2.41-1.901 1.899-2.181 2.195-2.274 2.398-.509 1.114.36 2.308 1.56 2.145.441-.06.6-.171 1.46-1.019l.797-.786.013 2.314.012 2.314.105.248c.25.595.761.938 1.395.938s1.145-.343 1.395-.938l.105-.248.012-2.314.013-2.314.797.786c.86.848 1.019.959 1.46 1.019 1.2.163 2.069-1.031 1.56-2.145-.093-.203-.373-.499-2.274-2.398C12.731.599 12.736.603 12.234.522a3 3 0 0 0-.274-.037zM3.44 12.547a3.56 3.56 0 0 0-2.888 2.841c-.074.389-.074 4.835 0 5.224.221 1.168 1.036 2.177 2.116 2.617.719.293-.04.271 9.332.271 7.775 0 8.442-.005 8.71-.068 1.537-.359 2.605-1.561 2.769-3.115.051-.49.051-4.144 0-4.634-.154-1.464-1.103-2.61-2.526-3.052l-.293-.091-8.56-.005c-4.708-.002-8.605.003-8.66.012m16.904 3.109.136.136v4.402l-.103.122a.6.6 0 0 1-.25.163c-.204.056-16.05.056-16.254 0a.6.6 0 0 1-.25-.163l-.103-.122v-4.402l.136-.136.136-.136h16.416zm-14.828.921c-1.049.399-1.349 1.701-.571 2.478.71.71 1.942.519 2.393-.371a1.48 1.48 0 0 0-.286-1.746c-.292-.292-.55-.395-1.012-.407-.247-.006-.431.01-.524.046m4 0c-1.049.399-1.349 1.701-.571 2.478.58.58 1.53.583 2.107.007a1.47 1.47 0 0 0 0-2.124c-.292-.292-.55-.395-1.012-.407-.247-.006-.431.01-.524.046"/></svg>