<svg xmlns="http://www.w3.org/2000/svg" width="24" height="24" fill="none" stroke="currentColor" stroke-linecap="round" stroke-linejoin="round" stroke-width="3"><path fill="#000" fill-rule="evenodd" stroke="none" d="M11.516.577a1.54 1.54 0 0 0-.998 1.233c-.02.138-.037 1.211-.037 2.386l-.001 2.137-.79-.777C8.708 4.591 8.623 4.54 8 4.54c-.384 0-.44.01-.648.116-.754.382-1.048 1.236-.694 2.012.093.203.373.499 2.274 2.398 1.69 1.689 2.213 2.189 2.374 2.269.423.21.965.21 1.388 0 .161-.08.684-.58 2.374-2.269 1.901-1.899 2.181-2.195 2.274-2.398.354-.776.06-1.63-.694-2.012-.208-.106-.264-.116-.648-.116-.623 0-.708.051-1.69 1.016l-.79.777-.001-2.137c0-1.175-.017-2.248-.037-2.386A1.51 1.51 0 0 0 12.65.657c-.195-.099-.28-.116-.608-.125q-.382-.01-.526.045M3.44 12.547a3.56 3.56 0 0 0-2.888 2.841c-.074.389-.074 4.835 0 5.224.221 1.168 1.036 2.177 2.116 2.617.719.293-.04.271 9.332.271 7.775 0 8.442-.005 8.71-.068 1.537-.359 2.605-1.561 2.769-3.115.051-.49.051-4.144 0-4.634-.154-1.464-1.103-2.61-2.526-3.052l-.293-.091-8.56-.005c-4.708-.002-8.605.003-8.66.012m16.904 3.109.136.136v4.402l-.103.122a.6.6 0 0 1-.25.163c-.204.056-16.05.056-16.254 0a.6.6 0 0 1-.25-.163l-.103-.122v-4.402l.136-.136.136-.136h16.416zm-14.828.921c-1.049.399-1.349 1.701-.571 2.478.71.71 1.942.519 2.393-.371a1.48 1.48 0 0 0-.286-1.746c-.292-.292-.55-.395-1.012-.407-.247-.006-.431.01-.524.046m4 0c-1.049.399-1.349 1.701-.571 2.478.58.58 1.53.583 2.107.007a1.47 1.47 0 0 0 0-2.124c-.292-.292-.55-.395-1.012-.407-.247-.006-.431.01-.524.046"/></svg>