<svg xmlns="http://www.w3.org/2000/svg" width="24" height="24" fill="none" stroke="currentColor" stroke-linecap="round" stroke-linejoin="round" stroke-width="3"><path fill="#000" fill-rule="evenodd" stroke="none" d="M10.38 2.575c-.455.115-.95.423-1.279.794A3 3 0 0 0 8.56 4.43c-.046.2-.055.211-.214.25-3.291.819-5.571 3.481-5.825 6.8-.022.297-.041.883-.041 1.302v.763l-.236.071c-.599.179-1.206.7-1.476 1.268C.509 15.428.5 15.501.5 17c0 1.498.009 1.573.266 2.112.223.467.655.899 1.122 1.122.604.287-.198.266 10.112.266 7.714 0 9.378-.009 9.56-.054.713-.175 1.372-.701 1.674-1.334.257-.539.266-.614.266-2.112 0-1.497-.01-1.573-.265-2.11-.271-.569-.882-1.096-1.479-1.274l-.236-.071v-.763c0-1.783-.209-2.892-.756-4.01-1.019-2.083-2.807-3.515-5.11-4.091-.159-.04-.168-.051-.214-.251-.18-.788-.821-1.498-1.623-1.8-.228-.087-.291-.09-1.737-.098-1.098-.005-1.554.006-1.7.043m2.108 5.335.012 2.39.105.248c.25.595.761.938 1.395.938s1.147-.345 1.394-.938c.102-.244.104-.266.125-1.519l.021-1.27.44.217a4.33 4.33 0 0 1 2.043 2.044c.118.242.263.611.322.82.102.363.108.432.125 1.53l.017 1.15H5.513l.017-1.15c.017-1.098.023-1.167.125-1.53.125-.444.468-1.166.703-1.48A4.6 4.6 0 0 1 8.02 7.976l.44-.217.021 1.27c.021 1.253.023 1.275.125 1.519.247.593.76.938 1.394.938s1.145-.343 1.395-.938l.105-.248.012-2.39.013-2.39h.95zm7.992 9.11v.5H3.52v-1h16.96z"/></svg>