<svg xmlns="http://www.w3.org/2000/svg" width="24" height="24" fill="none" stroke="currentColor" stroke-linecap="round" stroke-linejoin="round" stroke-width="3"><path fill="#000" fill-rule="evenodd" stroke="none" d="M6.426 2.603A3.6 3.6 0 0 0 4.309 4.1c-.086.132-.964 1.855-1.952 3.828-1.599 3.196-1.8 3.619-1.839 3.866-.029.187-.038 1.315-.027 3.472.013 2.732.024 3.232.078 3.455.333 1.382 1.344 2.389 2.721 2.711.268.063.935.068 8.71.068s8.442-.005 8.71-.068a3.7 3.7 0 0 0 1.798-1.004c.573-.6.883-1.272.971-2.111.054-.511.053-6.218-.001-6.55-.034-.213-.327-.825-1.836-3.84-.987-1.973-1.865-3.695-1.951-3.827a3.6 3.6 0 0 0-2.135-1.499c-.328-.079-.459-.08-5.576-.078-5.038.003-5.252.006-5.554.08m10.63 3.001c.072.057.488.846 1.305 2.479.66 1.318 1.199 2.405 1.199 2.416s-3.402.021-7.56.021-7.56-.009-7.56-.02.539-1.098 1.198-2.415c.824-1.649 1.231-2.422 1.305-2.48l.108-.085h9.898zm3.424 10.253v2.337l-.103.122a.6.6 0 0 1-.25.163c-.204.056-16.05.056-16.254 0a.6.6 0 0 1-.25-.163l-.103-.122V13.52h16.96zm-14.964-1.28c-1.049.399-1.349 1.701-.571 2.478.71.71 1.942.519 2.393-.371a1.48 1.48 0 0 0-.286-1.746c-.292-.292-.55-.395-1.012-.407-.247-.006-.431.01-.524.046m4 0c-1.049.399-1.349 1.701-.571 2.478.58.58 1.53.583 2.107.007a1.47 1.47 0 0 0 0-2.124c-.292-.292-.55-.395-1.012-.407-.247-.006-.431.01-.524.046"/></svg>