<svg xmlns="http://www.w3.org/2000/svg" width="24" height="24" fill="none" stroke="currentColor" stroke-linecap="round" stroke-linejoin="round" stroke-width="3"><path fill="#000" fill-rule="evenodd" stroke="none" d="M9.45 1.603c-.382.151-.78.588-.887.977-.025.088-.162 1.213-.305 2.5a120 120 0 0 1-.278 2.389c-.013.038-.523.052-2.208.06L3.58 7.54l-.228.116a1.51 1.51 0 0 0-.829 1.126 1.494 1.494 0 0 0 1.287 1.7c.138.02 1.055.037 2.04.037 1.494.001 1.79.01 1.79.056 0 .03-.072.699-.16 1.485l-.16 1.444c0 .007-.841.019-1.87.025l-1.87.011-.228.116a1.51 1.51 0 0 0-.829 1.126 1.494 1.494 0 0 0 1.287 1.7c.138.02.908.037 1.712.037l1.463.001-.232 2.07c-.128 1.139-.234 2.214-.237 2.39-.006.421.098.702.372 1.001.252.276.457.398.803.478.477.111.941-.018 1.311-.365.226-.211.368-.431.435-.674.036-.13.563-4.667.563-4.847 0-.043.278-.053 1.492-.053h1.493l-.232 2.07c-.128 1.139-.234 2.214-.237 2.39-.006.421.098.702.372 1.001.252.276.457.398.803.478.477.111.941-.018 1.311-.365.226-.211.368-.431.435-.674.036-.13.563-4.667.563-4.847 0-.043.358-.053 1.97-.054 1.083 0 2.082-.017 2.22-.037a1.494 1.494 0 0 0 1.287-1.7 1.51 1.51 0 0 0-.829-1.126l-.228-.116-2.03-.011c-1.949-.011-2.03-.015-2.03-.086 0-.079.261-2.462.301-2.753l.024-.17 1.627-.001c.896 0 1.74-.017 1.878-.037a1.494 1.494 0 0 0 1.287-1.7 1.51 1.51 0 0 0-.829-1.126l-.228-.116-1.7-.02-1.7-.02.013-.14c.007-.077.111-1.022.23-2.1.25-2.25.26-2.463.137-2.791-.115-.307-.45-.67-.753-.815-.323-.155-.847-.179-1.177-.055-.4.151-.796.579-.907.981-.025.088-.162 1.213-.305 2.5a122 122 0 0 1-.278 2.39c-.014.039-.344.05-1.472.05-.8 0-1.463-.009-1.474-.019s.085-.951.213-2.09c.265-2.375.277-2.611.153-2.942-.115-.307-.45-.669-.753-.815-.314-.151-.883-.176-1.197-.051m4.19 8.972c0 .03-.072.699-.16 1.485l-.16 1.445c0 .008-.666.015-1.48.015-1.426 0-1.48-.003-1.48-.076 0-.079.26-2.46.301-2.754l.024-.17h1.477c1.229 0 1.478.009 1.478.055"/></svg>