<svg xmlns="http://www.w3.org/2000/svg" width="24" height="24" fill="none" stroke="currentColor" stroke-linecap="round" stroke-linejoin="round" stroke-width="3"><path fill="#000" fill-rule="evenodd" stroke="none" d="M11.637 1.055c-.444.095-.853.462-1.044.935-.092.227-.093.251-.093 1.77V5.3l.105.248c.25.595.761.938 1.395.938s1.145-.343 1.395-.938L13.5 5.3V3.76c0-1.519-.001-1.543-.093-1.77-.195-.483-.6-.84-1.063-.937a1.36 1.36 0 0 0-.707.002M4.716 4.777a1.52 1.52 0 0 0-.858 2.089c.086.188.26.384.976 1.1s.912.89 1.1.976a1.502 1.502 0 0 0 2.008-2.008c-.086-.189-.256-.38-.973-1.093-1.046-1.04-1.133-1.096-1.729-1.11-.246-.006-.431.01-.524.046m13.6 0c-.303.115-.521.296-1.326 1.103-.674.674-.85.873-.934 1.057a1.502 1.502 0 0 0 2.01 2.005c.188-.086.384-.26 1.1-.976s.89-.912.976-1.1c.354-.773.059-1.629-.694-2.01-.198-.101-.279-.117-.608-.125-.246-.006-.431.01-.524.046m-7.235 2.806a5.8 5.8 0 0 0-1.933.723c-1.591.955-2.619 2.747-2.635 4.589-.004.59.136.911.558 1.28.473.413 1.385.413 1.858 0 .399-.348.526-.629.586-1.301.065-.735.255-1.16.727-1.632.287-.287.576-.475.941-.612.205-.076.316-.088.817-.088s.612.012.817.088c.365.137.654.325.941.612.472.472.662.897.727 1.632.06.672.187.953.586 1.301.357.312 1.008.406 1.484.213.389-.157.677-.446.835-.838.256-.633.022-2.031-.515-3.075-.788-1.535-2.238-2.588-3.985-2.893-.431-.076-1.391-.075-1.809.001m-9.565 3.995c-.531.199-.921.672-.993 1.204a1.494 1.494 0 0 0 1.287 1.7c.138.02.673.036 1.19.036s1.052-.016 1.19-.036a1.494 1.494 0 0 0 1.287-1.7 1.51 1.51 0 0 0-.829-1.126l-.228-.116-1.38-.008c-1.079-.007-1.412.003-1.524.046m18 0c-.531.199-.921.672-.993 1.204a1.494 1.494 0 0 0 1.287 1.7c.138.02.673.036 1.19.036s1.052-.016 1.19-.036a1.494 1.494 0 0 0 1.287-1.7 1.51 1.51 0 0 0-.829-1.126l-.228-.116-1.38-.008c-1.079-.007-1.412.003-1.524.046m-18 4.001c-.365.134-.71.443-.864.773a1.5 1.5 0 0 0 1.158 2.13c.331.048 20.049.048 20.38 0a1.494 1.494 0 0 0 1.287-1.7 1.51 1.51 0 0 0-.829-1.126l-.228-.116-10.38-.007c-8.563-.006-10.405.002-10.524.046m0 4c-.365.134-.71.443-.864.773a1.5 1.5 0 0 0 1.158 2.13c.331.048 20.049.048 20.38 0a1.494 1.494 0 0 0 1.287-1.7 1.51 1.51 0 0 0-.829-1.126l-.228-.116-10.38-.007c-8.563-.006-10.405.002-10.524.046"/></svg>