<svg xmlns="http://www.w3.org/2000/svg" width="24" height="24" fill="none" stroke="currentColor" stroke-linecap="round" stroke-linejoin="round" stroke-width="3"><path fill="#000" fill-rule="evenodd" stroke="none" d="M3.516 4.577c-.555.212-.919.67-1 1.256-.023.162-.034 2.721-.027 6.369L2.5 18.3l.105.248c.25.595.761.938 1.395.938s1.145-.343 1.395-.938L5.5 18.3l.012-2.39.013-2.39h4.95l.013 2.39.012 2.39.105.248c.25.595.761.938 1.395.938s1.145-.343 1.395-.938l.105-.248.011-6.098c.007-3.648-.004-6.207-.027-6.369a1.5 1.5 0 0 0-.836-1.177c-.208-.106-.264-.116-.648-.116s-.44.01-.648.116a1.51 1.51 0 0 0-.834 1.154c-.02.138-.037 1.253-.037 2.48l-.001 2.23H5.52l-.001-2.23c0-1.227-.017-2.342-.037-2.48a1.51 1.51 0 0 0-.832-1.153c-.195-.099-.28-.116-.608-.125-.253-.007-.431.008-.526.045M18.54 8.784c-.777.111-1.52.4-2.2.857-.521.35-.745.671-.815 1.167-.065.459.059.85.381 1.194.243.26.447.379.785.457.456.106.776.025 1.325-.334.528-.345 1.081-.454 1.362-.27.083.054.102.098.101.236-.002.398-.142.545-1.122 1.169-.702.447-1.05.708-1.41 1.057-.691.668-1.119 1.456-1.326 2.438-.084.398-.137 1.177-.099 1.453.089.661.61 1.176 1.288 1.274.325.047 4.055.047 4.38 0a1.494 1.494 0 0 0 1.287-1.7 1.51 1.51 0 0 0-.829-1.126l-.228-.116-1.19-.012c-.716-.008-1.19-.028-1.19-.05 0-.057.548-.451 1.192-.857.908-.573 1.409-1.049 1.779-1.688.492-.851.624-2.034.326-2.929-.157-.469-.384-.82-.794-1.224-.506-.499-.976-.759-1.665-.919-.285-.067-1.086-.113-1.338-.077"/></svg>