<svg xmlns="http://www.w3.org/2000/svg" width="24" height="24" fill="none" stroke="currentColor" stroke-linecap="round" stroke-linejoin="round" stroke-width="3"><path fill="#000" fill-rule="evenodd" stroke="none" d="M3.516 4.577c-.555.212-.919.67-1 1.256-.023.162-.034 2.721-.027 6.369L2.5 18.3l.105.248c.25.595.761.938 1.395.938s1.145-.343 1.395-.938L5.5 18.3l.012-2.39.013-2.39h4.95l.013 2.39.012 2.39.105.248c.25.595.761.938 1.395.938s1.145-.343 1.395-.938l.105-.248.011-6.098c.007-3.648-.004-6.207-.027-6.369a1.5 1.5 0 0 0-.836-1.177c-.208-.106-.264-.116-.648-.116s-.44.01-.648.116a1.51 1.51 0 0 0-.834 1.154c-.02.138-.037 1.253-.037 2.48l-.001 2.23H5.52l-.001-2.23c0-1.227-.017-2.342-.037-2.48a1.51 1.51 0 0 0-.832-1.153c-.195-.099-.28-.116-.608-.125-.253-.007-.431.008-.526.045m13 4.001a1.54 1.54 0 0 0-.998 1.232c-.05.346-.047 3.111.004 3.424.053.327.187.588.421.823.39.389.681.461 1.877.464.86.003.977.023 1.259.218a.86.86 0 0 1 .394.706c.018.308-.05.489-.262.701-.182.183-.395.284-.696.331-.286.045-.528.004-1.015-.173-.344-.125-.621-.131-.948-.021-.55.185-.865.531-1.014 1.113-.139.542.143 1.242.623 1.545.231.146.682.325 1.051.417 1.987.498 4.059-.424 4.892-2.178 1.131-2.38-.334-5.118-2.997-5.601-.27-.049-.224-.052.773-.056.583-.003 1.172-.021 1.31-.041a1.494 1.494 0 0 0 1.287-1.7 1.51 1.51 0 0 0-.829-1.126l-.228-.116-2.38-.008c-1.91-.006-2.409.003-2.524.046"/></svg>