<svg xmlns="http://www.w3.org/2000/svg" width="24" height="24" fill="none" stroke="currentColor" stroke-linecap="round" stroke-linejoin="round" stroke-width="3"><path fill="#000" fill-rule="evenodd" stroke="none" d="M3.516 4.577c-.555.212-.919.67-1 1.256-.023.162-.034 2.721-.027 6.369L2.5 18.3l.105.248c.25.595.761.938 1.395.938s1.145-.343 1.395-.938L5.5 18.3l.012-2.39.013-2.39h4.95l.013 2.39.012 2.39.105.248c.25.595.761.938 1.395.938s1.145-.343 1.395-.938l.105-.248.011-6.098c.007-3.648-.004-6.207-.027-6.369a1.5 1.5 0 0 0-.836-1.177c-.208-.106-.264-.116-.648-.116s-.44.01-.648.116a1.51 1.51 0 0 0-.834 1.154c-.02.138-.037 1.253-.037 2.48l-.001 2.23H5.52l-.001-2.23c0-1.227-.017-2.342-.037-2.48a1.51 1.51 0 0 0-.832-1.153c-.195-.099-.28-.116-.608-.125-.253-.007-.431.008-.526.045m16 4c-.266.101-.455.249-.902.708-1.908 1.953-2.778 3.536-3.037 5.523-.076.588-.086 1.485-.021 1.828.222 1.15 1.04 2.156 2.112 2.593.451.184.832.258 1.332.258.933 0 1.747-.328 2.428-.979 1.061-1.013 1.359-2.592.75-3.969-.382-.864-1.284-1.642-2.185-1.885a3 3 0 0 1-.268-.08c-.031-.023.451-.581.985-1.144.583-.613.714-.82.767-1.212a1.5 1.5 0 0 0-.829-1.562c-.198-.101-.279-.117-.608-.125-.246-.006-.431.01-.524.046m-.172 7.079c.119.119.136.162.136.337 0 .242-.129.424-.343.483a.5.5 0 0 1-.514-.16c-.081-.096-.103-.166-.103-.323 0-.175.017-.218.136-.337s.161-.136.344-.136.224.016.344.136"/></svg>