<svg xmlns="http://www.w3.org/2000/svg" width="24" height="24" fill="none" stroke="currentColor" stroke-linecap="round" stroke-linejoin="round" stroke-width="3"><path fill="#000" fill-rule="evenodd" stroke="none" d="M3.516 4.577c-.555.212-.919.67-1 1.256-.023.162-.034 2.721-.027 6.369L2.5 18.3l.105.248c.25.595.761.938 1.395.938s1.145-.343 1.395-.938L5.5 18.3l.012-2.39.013-2.39h4.95l.013 2.39.012 2.39.105.248c.25.595.761.938 1.395.938s1.145-.343 1.395-.938l.105-.248.011-6.098c.007-3.648-.004-6.207-.027-6.369a1.5 1.5 0 0 0-.836-1.177c-.208-.106-.264-.116-.648-.116s-.44.01-.648.116a1.51 1.51 0 0 0-.834 1.154c-.02.138-.037 1.253-.037 2.48l-.001 2.23H5.52l-.001-2.23c0-1.227-.017-2.342-.037-2.48a1.51 1.51 0 0 0-.832-1.153c-.195-.099-.28-.116-.608-.125-.253-.007-.431.008-.526.045m14.827 4.067a4.3 4.3 0 0 0-1.283.413c-.518.253-.735.448-.914.823-.111.231-.125.3-.125.621-.001.327.011.385.129.626.165.334.398.567.73.727.232.113.298.126.62.126.344 0 .377-.008.74-.18.339-.161.411-.18.663-.18.249 0 .301.014.43.112.13.099.147.132.147.289a.38.38 0 0 1-.113.304c-.1.113-.151.131-.481.18-.438.065-.684.18-.943.438a1.44 1.44 0 0 0-.419.813c-.079.487.072.953.419 1.301.259.258.505.373.943.438.33.049.381.067.481.18.094.105.113.163.113.336 0 .284-.101.466-.321.579-.323.166-.696.085-1.236-.266-.52-.34-.972-.403-1.483-.209-.526.2-.927.773-.927 1.325 0 .342.03.487.152.729.136.27.308.451.649.68 1.848 1.248 4.033 1.062 5.318-.452.284-.334.645-1.023.746-1.422.24-.952.09-2.035-.386-2.785l-.12-.19.12-.19c.252-.397.428-.934.485-1.477.14-1.356-.552-2.619-1.804-3.29a3.83 3.83 0 0 0-2.33-.399"/></svg>