<svg xmlns="http://www.w3.org/2000/svg" width="24" height="24" fill="none" stroke="currentColor" stroke-linecap="round" stroke-linejoin="round" stroke-width="3"><path fill="#000" fill-rule="evenodd" stroke="none" d="M3.516 4.577c-.555.212-.919.67-1 1.256-.023.162-.034 2.721-.027 6.369L2.5 18.3l.105.248c.25.595.761.938 1.395.938s1.145-.343 1.395-.938L5.5 18.3l.012-2.39.013-2.39h4.95l.013 2.39.012 2.39.105.248c.25.595.761.938 1.395.938s1.145-.343 1.395-.938l.105-.248.011-6.098c.007-3.648-.004-6.207-.027-6.369a1.5 1.5 0 0 0-.836-1.177c-.208-.106-.264-.116-.648-.116s-.44.01-.648.116a1.51 1.51 0 0 0-.834 1.154c-.02.138-.037 1.253-.037 2.48l-.001 2.23H5.52l-.001-2.23c0-1.227-.017-2.342-.037-2.48a1.51 1.51 0 0 0-.832-1.153c-.195-.099-.28-.116-.608-.125-.253-.007-.431.008-.526.045m13 4c-.559.214-.919.67-1.002 1.267-.023.165-.034 1.152-.027 2.369L15.5 14.3l.105.248q.251.598.847.846l.248.104 1.386.015 1.387.014.014 1.387.015 1.386.104.248c.248.594.76.938 1.394.938s1.145-.343 1.395-.938l.105-.248.011-4.095c.007-2.436-.004-4.205-.026-4.369a1.51 1.51 0 0 0-.837-1.18c-.208-.106-.264-.116-.648-.116s-.44.01-.648.116a1.51 1.51 0 0 0-.834 1.154c-.02.138-.037.804-.037 1.48l-.001 1.23h-.96l-.001-1.23c0-.676-.017-1.342-.037-1.48a1.51 1.51 0 0 0-.832-1.153c-.195-.099-.28-.116-.608-.125-.253-.007-.431.008-.526.045"/></svg>