<svg xmlns="http://www.w3.org/2000/svg" width="24" height="24" fill="none" stroke="currentColor" stroke-linecap="round" stroke-linejoin="round" stroke-width="3"><path fill="#000" fill-rule="evenodd" stroke="none" d="M10.84 1.565c-.767.078-1.808.329-2.566.617-.948.361-2.094 1.023-2.906 1.679a12.6 12.6 0 0 0-1.553 1.564A10.6 10.6 0 0 0 1.62 10.4c-.121.757-.145 1.768-.13 5.44.013 3.127.024 3.656.079 3.881.335 1.384 1.358 2.402 2.721 2.709.414.093 2.006.093 2.42 0a3.54 3.54 0 0 0 2.649-2.466c.127-.428.16-.925.16-2.464 0-.792-.018-1.61-.04-1.817-.132-1.255-.824-2.255-1.946-2.817-.573-.287-.747-.317-1.943-.336l-1.07-.017v-.581a6.96 6.96 0 0 1 .699-3.112 7.49 7.49 0 0 1 5.706-4.238c.554-.081 1.596-.081 2.15 0 3.029.444 5.476 2.678 6.221 5.678.114.461.184 1.095.184 1.672v.581l-1.07.017c-.955.015-1.101.026-1.363.104a3.57 3.57 0 0 0-2.495 2.754c-.073.385-.073 3.839 0 4.224.221 1.168 1.036 2.177 2.116 2.617.569.232.802.266 1.832.266s1.262-.034 1.836-.268a3.6 3.6 0 0 0 1.575-1.293 3.5 3.5 0 0 0 .568-1.617c.051-.481.052-7.085.002-7.904-.163-2.639-1.22-4.995-3.069-6.837a9.6 9.6 0 0 0-1.65-1.342 10.4 10.4 0 0 0-4.69-1.673c-.456-.048-1.745-.045-2.232.004M6.344 15.656l.136.136v3.402l-.103.122c-.138.164-.309.204-.877.204s-.739-.04-.877-.204l-.103-.122V15.52h1.688zm13.136 1.701v1.837l-.103.122c-.138.164-.309.204-.877.204s-.739-.04-.877-.204l-.103-.122v-3.402l.136-.136.136-.136h1.688z"/></svg>