<svg xmlns="http://www.w3.org/2000/svg" width="24" height="24" fill="none" stroke="currentColor" stroke-linecap="round" stroke-linejoin="round" stroke-width="3"><path fill="#000" fill-rule="evenodd" stroke="none" d="M3.516 4.577c-.555.212-.919.67-1 1.256-.023.162-.034 2.721-.027 6.369L2.5 18.3l.105.248c.25.595.761.938 1.395.938s1.145-.343 1.395-.938L5.5 18.3l.012-2.39.013-2.39h4.95l.013 2.39.012 2.39.105.248c.25.595.761.938 1.395.938s1.145-.343 1.395-.938l.105-.248.011-6.098c.007-3.648-.004-6.207-.027-6.369a1.5 1.5 0 0 0-.836-1.177c-.208-.106-.264-.116-.648-.116s-.44.01-.648.116a1.51 1.51 0 0 0-.834 1.154c-.02.138-.037 1.253-.037 2.48l-.001 2.23H5.52l-.001-2.23c0-1.227-.017-2.342-.037-2.48a1.51 1.51 0 0 0-.832-1.153c-.195-.099-.28-.116-.608-.125-.253-.007-.431.008-.526.045M19.52 8.57c-.195.065-3.425 2.222-3.615 2.413-.545.553-.525 1.5.044 2.072.231.232.405.326.754.407.458.106.784.017 1.366-.375.202-.136.377-.247.387-.247s.025 1.229.032 2.73l.012 2.73.105.248c.25.595.761.938 1.395.938s1.145-.343 1.395-.938l.105-.248.011-4.1c.008-2.757-.002-4.192-.031-4.38a1.51 1.51 0 0 0-.83-1.163c-.196-.099-.278-.116-.608-.124-.211-.005-.445.012-.522.037"/></svg>