<svg xmlns="http://www.w3.org/2000/svg" width="24" height="24" fill="none" stroke="currentColor" stroke-linecap="round" stroke-linejoin="round" stroke-width="3"><path fill="#000" fill-rule="evenodd" stroke="none" d="M5.516 2.577c-.554.212-.919.67-1 1.255-.023.161-.033 3.509-.027 8.368l.011 8.1.105.248c.25.595.761.938 1.395.938s1.145-.343 1.395-.938L7.5 20.3l.012-3.39.011-3.39h8.954l.011 3.39.012 3.39.105.248c.25.595.761.938 1.395.938s1.145-.343 1.395-.938l.105-.248.011-8.1c.006-4.859-.004-8.207-.027-8.368a1.5 1.5 0 0 0-.836-1.176c-.208-.106-.264-.116-.648-.116s-.44.01-.648.116a1.51 1.51 0 0 0-.834 1.154c-.02.138-.037 1.703-.037 3.48l-.001 3.23H7.52l-.001-3.23c0-1.777-.017-3.342-.037-3.48a1.51 1.51 0 0 0-.832-1.153c-.195-.099-.28-.116-.608-.125q-.382-.01-.526.045"/></svg>