<svg xmlns="http://www.w3.org/2000/svg" width="24" height="24" fill="none" stroke="currentColor" stroke-linecap="round" stroke-linejoin="round" stroke-width="3"><path fill="#000" fill-rule="evenodd" stroke="none" d="M10.84.565c-.767.078-1.808.329-2.566.617-.948.361-2.094 1.023-2.906 1.679a12.6 12.6 0 0 0-1.553 1.564A10.6 10.6 0 0 0 1.62 9.4c-.116.723-.146 1.766-.129 4.44.013 2.195.026 2.662.079 2.881.33 1.379 1.357 2.402 2.72 2.709.414.093 2.006.093 2.42 0a3.67 3.67 0 0 0 1.798-1.002c.573-.6.883-1.272.971-2.111.051-.489.051-3.145 0-3.634-.132-1.255-.824-2.255-1.946-2.817-.559-.28-.759-.317-1.833-.334A18 18 0 0 1 4.692 9.5c-.099-.033.221-1.045.544-1.72a7.51 7.51 0 0 1 5.689-4.198c.554-.081 1.596-.081 2.15 0a7.52 7.52 0 0 1 5.718 4.259c.302.644.606 1.629.514 1.66-.026.008-.479.022-1.007.031-.841.014-.996.026-1.253.103a3.56 3.56 0 0 0-2.495 2.753c-.073.385-.073 3.839 0 4.224.221 1.168 1.036 2.177 2.116 2.617.471.192.813.253 1.612.286l.7.029-.277.269a2.3 2.3 0 0 1-.56.409c-.57.282-.415.269-3.643.295l-2.92.023-.228.116c-.93.471-1.133 1.673-.407 2.399.242.242.53.38.904.432.176.024 1.323.033 2.989.023 2.994-.019 3.049-.023 3.859-.288a5.5 5.5 0 0 0 3.525-3.525c.276-.843.271-.758.288-4.817.016-3.714-.008-4.719-.13-5.48a10.46 10.46 0 0 0-2.968-5.824 9.6 9.6 0 0 0-1.65-1.342 10.4 10.4 0 0 0-4.69-1.673c-.456-.048-1.745-.045-2.232.004M6.344 12.656l.136.136v3.402l-.103.122c-.138.164-.309.204-.877.204s-.739-.04-.877-.204l-.103-.122V12.52h1.688zm13.136 1.701v1.837l-.103.122c-.138.164-.309.204-.877.204s-.739-.04-.877-.204l-.103-.122v-3.402l.136-.136.136-.136h1.688z"/></svg>