<svg xmlns="http://www.w3.org/2000/svg" width="24" height="24" fill="none" stroke="currentColor" stroke-linecap="round" stroke-linejoin="round" stroke-width="3"><path fill="#000" fill-rule="evenodd" stroke="none" d="M6.38 1.597c-.793.145-1.314.313-1.974.636C2.361 3.235.948 5.165.579 7.46.493 7.994.493 8.979.578 9.5c.227 1.39.793 2.595 1.832 3.9.524.658 1.366 1.525 5.156 5.308 3.138 3.132 3.56 3.54 3.766 3.633a1.58 1.58 0 0 0 1.336.001c.208-.094.648-.522 4.194-4.073 3.878-3.885 4.371-4.4 4.983-5.211.751-.994 1.337-2.256 1.533-3.299.178-.955.139-2.104-.102-2.999-.607-2.25-2.146-3.965-4.315-4.806a8 8 0 0 0-1.481-.376c-.514-.082-1.87-.062-2.38.034-1.134.215-2.011.59-2.89 1.236l-.21.155-.21-.155c-.686-.504-1.503-.902-2.237-1.09-.684-.175-.956-.207-1.873-.221-.743-.011-.97 0-1.3.06M8.7 4.636c.176.047.489.166.696.265l.376.181-.979.989c-.539.544-1.065 1.106-1.171 1.249a3.7 3.7 0 0 0-.321 3.84c.382.752 1.117 1.436 1.872 1.741a3.79 3.79 0 0 0 3.068-.12c.355-.178.715-.474 1.893-1.555.671-.616 1.188-1.059 1.3-1.114.156-.077.25-.092.586-.092.334.001.427.015.564.088s1.273 1.06 2.03 1.763l.194.18-.401.402-.402.402-.554-.538c-.723-.702-.863-.777-1.451-.777-.384 0-.44.01-.648.116a1.5 1.5 0 0 0-.829 1.562c.055.405.184.606.78 1.219l.552.568-.425.425-.425.425-.554-.538c-.723-.702-.863-.777-1.451-.777-.384 0-.44.01-.648.116a1.5 1.5 0 0 0-.829 1.562c.055.405.184.606.78 1.219l.551.567-.416.418c-.229.23-.43.414-.446.408-.08-.028-6.769-6.745-7.061-7.09-.993-1.176-1.411-2.143-1.411-3.265q0-1.399.882-2.488c.579-.717 1.366-1.195 2.318-1.408.394-.088 1.555-.055 1.98.057m8.572-.052c.936.193 1.74.678 2.326 1.403.586.724.882 1.556.882 2.478 0 .387-.062.935-.105.935-.01 0-.382-.326-.826-.724-.91-.815-1.151-.999-1.609-1.228-.636-.318-1.198-.447-1.946-.448-.928 0-1.74.257-2.494.791-.154.109-.775.653-1.38 1.21s-1.154 1.044-1.22 1.085c-.28.172-.684.061-.889-.243-.107-.158-.123-.466-.034-.635.088-.166 3.606-3.647 3.923-3.881.538-.398 1.19-.68 1.76-.763.418-.06 1.276-.05 1.612.02"/></svg>