<svg xmlns="http://www.w3.org/2000/svg" width="24" height="24" fill="none" stroke="currentColor" stroke-linecap="round" stroke-linejoin="round" stroke-width="3"><path fill="#000" fill-rule="evenodd" stroke="none" d="M1.516.577C.825.841.426 1.502.523 2.218c.057.418.18.606.854 1.294l.625.639-.3.444a6.91 6.91 0 0 0-.978 5.616c.185.734.606 1.65 1.099 2.389.692 1.039 1.105 1.478 5.703 6.068 3.174 3.169 3.6 3.58 3.806 3.674a1.58 1.58 0 0 0 1.334 0c.199-.091.476-.35 2.032-1.902l1.802-1.797 2.301 2.296c2.013 2.01 2.329 2.31 2.531 2.403a1.503 1.503 0 0 0 2.01-2.01c-.095-.21-1.076-1.202-10.274-10.395C1.635-.49 2.738.551 2.042.532c-.253-.007-.431.008-.526.045m14.084.969-.4.057a6.7 6.7 0 0 0-2.988 1.244l-.208.152-.332-.24c-.9-.651-2.418-1.214-3.083-1.144-.648.068-1.199.601-1.305 1.265-.073.448.092.94.427 1.275.25.249.344.297.882.443.855.233 1.33.516 2.164 1.292.416.387.682.541 1.019.586.548.075.92-.074 1.475-.589.544-.504.865-.738 1.329-.969.569-.283.905-.36 1.681-.387.686-.023 1.04.021 1.557.197 1.093.369 2.085 1.361 2.454 2.452.284.843.278 1.825-.016 2.607-.311.825-.84 1.606-1.719 2.537-.594.628-.717.883-.69 1.434a1.463 1.463 0 0 0 1.381 1.394c.552.035.825-.095 1.382-.662 1.578-1.606 2.505-3.224 2.792-4.872a7.8 7.8 0 0 0 .02-2.138c-.385-2.527-2.051-4.592-4.461-5.526a8 8 0 0 0-1.451-.372c-.355-.057-1.609-.081-1.91-.036M9.27 11.41l5.09 5.09-1.179 1.179-1.18 1.179-3.167-3.159a475 475 0 0 1-3.5-3.513c-1.013-1.075-1.573-2.023-1.757-2.98a4.26 4.26 0 0 1 .142-1.986c.092-.265.4-.9.438-.9.013 0 2.314 2.291 5.113 5.09"/></svg>