<svg xmlns="http://www.w3.org/2000/svg" width="24" height="24" fill="none" stroke="currentColor" stroke-linecap="round" stroke-linejoin="round" stroke-width="3"><path fill="#000" fill-rule="evenodd" stroke="none" d="M6.38 1.597c-.793.145-1.314.313-1.974.636C2.361 3.235.948 5.165.579 7.46.493 7.994.493 8.979.578 9.5c.227 1.39.793 2.595 1.832 3.9.524.658 1.366 1.525 5.156 5.308 3.138 3.132 3.56 3.54 3.766 3.633.433.199.903.198 1.336 0 .206-.093.621-.494 3.686-3.553 4.582-4.574 5.101-5.126 5.801-6.168.565-.842 1.062-2.005 1.223-2.861.178-.955.139-2.104-.102-2.999-.607-2.25-2.146-3.965-4.315-4.806a8 8 0 0 0-1.481-.376c-.514-.082-1.87-.062-2.38.034-1.134.215-2.011.59-2.89 1.236l-.21.155-.21-.155c-.686-.504-1.503-.902-2.237-1.09-.684-.175-.956-.207-1.873-.221-.743-.011-.97 0-1.3.06M8.7 4.636c.176.047.489.166.694.265l.375.18-.51.526c-.362.374-.538.588-.608.741-.189.414-.188.894.005 1.314.084.185.289.412 1.15 1.281l1.046 1.055-.55.566c-.595.612-.724.813-.779 1.218-.016.12-.016.316 0 .436.053.388.186.606.701 1.14.924.959 1.191 1.128 1.782 1.128.627 0 1.148-.351 1.382-.931.181-.448.103-1.112-.168-1.426l-.092-.108.56-.575c.411-.422.587-.633.66-.792a1.58 1.58 0 0 0-.004-1.316c-.085-.185-.289-.413-1.153-1.284l-1.05-1.059.74-.73c.848-.837 1.141-1.069 1.699-1.347.569-.283.905-.36 1.681-.387.686-.023 1.04.021 1.557.197.892.301 1.762 1.049 2.207 1.897.35.666.474 1.227.445 2.011-.016.431-.043.618-.127.899-.218.732-.666 1.488-1.355 2.285-.209.242-1.866 1.925-3.683 3.739l-3.303 3.299-3.167-3.159c-3.475-3.466-3.697-3.693-4.072-4.16-.867-1.077-1.243-2.005-1.243-3.064q0-1.399.882-2.488c.579-.717 1.366-1.195 2.318-1.408.394-.088 1.555-.055 1.98.057"/></svg>