<svg xmlns="http://www.w3.org/2000/svg" width="24" height="24" fill="none" stroke="currentColor" stroke-linecap="round" stroke-linejoin="round" stroke-width="3"><path fill="#000" fill-rule="evenodd" stroke="none" d="M6.38 1.597c-.793.145-1.314.313-1.974.636C2.361 3.235.948 5.165.579 7.46.493 7.994.493 8.979.578 9.5c.225 1.379.792 2.595 1.798 3.857.563.706 1.353 1.521 5.19 5.351 3.138 3.132 3.56 3.54 3.766 3.633.433.199.903.198 1.336 0 .206-.093.621-.494 3.686-3.553 4.582-4.574 5.101-5.126 5.801-6.168.565-.842 1.062-2.005 1.223-2.861.178-.955.139-2.104-.102-2.999-.607-2.25-2.146-3.965-4.315-4.806a8 8 0 0 0-1.481-.376c-.514-.082-1.87-.062-2.38.034-1.134.215-2.011.59-2.89 1.236l-.21.155-.21-.155c-.686-.504-1.503-.902-2.237-1.09-.684-.175-.956-.207-1.873-.221-.743-.011-.97 0-1.3.06M8.7 4.636c.401.104 1.036.418 1.389.685.148.112.445.367.66.566.554.513.928.663 1.469.59.348-.047.607-.195 1.033-.59.544-.504.865-.738 1.329-.969.569-.283.905-.36 1.681-.387.686-.023 1.04.021 1.557.197.892.301 1.762 1.049 2.207 1.897.35.666.474 1.227.445 2.011-.023.619-.123 1.026-.38 1.556l-.15.308-1.705.01c-1.334.009-1.713 0-1.743-.04a37 37 0 0 1-.593-1.347c-.304-.713-.609-1.378-.676-1.478-.283-.421-.83-.676-1.354-.632-.498.042-.964.349-1.178.778-.063.126-.311.917-.551 1.759s-.449 1.516-.464 1.5a5 5 0 0 1-.2-.427c-.209-.479-.473-.788-.823-.965-.214-.108-.267-.118-.653-.118-.377 0-.443.012-.644.11a1.67 1.67 0 0 0-.684.66l-.12.21H4.079l-.08-.13c-.098-.16-.298-.671-.384-.98-.099-.361-.119-1.245-.037-1.652a3.9 3.9 0 0 1 .824-1.771c.579-.717 1.366-1.195 2.318-1.408.392-.087 1.554-.055 1.98.057m6.132 8.7c.292.148.604.183 1.608.184h.9l-2.67 2.67L12 18.86l-2.67-2.67-2.67-2.671 1.412.011 1.411.01.593 1.329c.326.731.64 1.401.698 1.489.155.234.467.463.77.563.673.224 1.456-.092 1.765-.713.063-.125.311-.916.55-1.756l.436-1.528.169.155c.093.086.258.201.368.257"/></svg>