<svg xmlns="http://www.w3.org/2000/svg" width="24" height="24" fill="none" stroke="currentColor" stroke-linecap="round" stroke-linejoin="round" stroke-width="3"><path fill="#000" fill-rule="evenodd" stroke="none" d="M11.3.578c-.321.065-.513.13-.8.272-.132.065-1.864 1.046-3.848 2.179-2.339 1.336-3.7 2.137-3.87 2.276a3.5 3.5 0 0 0-.905 1.155A3.15 3.15 0 0 0 1.52 7.7c-.051.474-.051 8.126 0 8.6.055.513.133.784.357 1.24q.34.688.905 1.155c.17.139 1.531.94 3.87 2.276a415 415 0 0 0 3.825 2.169c.484.242.936.344 1.523.344.506 0 .911-.08 1.339-.265.526-.227 7.581-4.279 7.878-4.524q.566-.467.906-1.155c.224-.456.302-.727.357-1.24.051-.474.051-8.126 0-8.6a3.15 3.15 0 0 0-.357-1.24 3.5 3.5 0 0 0-.905-1.155c-.17-.139-1.531-.94-3.87-2.276C13.681.935 13.431.796 13.143.694 12.674.527 11.82.473 11.3.578m4.44 4.981c1.936 1.106 3.569 2.062 3.63 2.126l.11.116v4.194c0 4.153-.001 4.195-.081 4.297-.047.059-1.618.981-3.665 2.151-2.991 1.709-3.608 2.048-3.734 2.048s-.743-.339-3.734-2.048c-2.047-1.17-3.618-2.092-3.665-2.151-.08-.102-.081-.144-.081-4.297V7.801l.11-.116c.08-.084 6.064-3.539 7.11-4.104.278-.151.222-.179 4 1.978"/></svg>