<svg xmlns="http://www.w3.org/2000/svg" width="24" height="24" fill="none" stroke="currentColor" stroke-linecap="round" stroke-linejoin="round" stroke-width="3"><path fill="#000" fill-rule="evenodd" stroke="none" d="M13.516 2.577a2.3 2.3 0 0 0-.32.163c-.26.16-5.027 4.944-5.233 5.252-.434.648-.61 1.216-.622 2l-.008.532-2.778 2.788c-3.043 3.053-2.949 2.944-3.037 3.519-.029.188-.04.848-.031 1.88l.014 1.589.104.248q.25.596.847.847l.248.105 4.6.011c3.108.008 4.691-.002 4.88-.031.523-.079.598-.137 2.009-1.536l1.289-1.277.531-.008c.797-.012 1.394-.202 2.027-.646.157-.109 1.27-1.189 2.732-2.649 2.177-2.173 2.481-2.491 2.574-2.696.354-.777.06-1.63-.694-2.012-.208-.106-.264-.116-.648-.116-.699 0-.516-.146-3.351 2.678l-2.452 2.442H15.8l-2.684-2.68c-1.627-1.625-2.707-2.733-2.742-2.814-.121-.279-.176-.215 2.428-2.827 2.131-2.137 2.447-2.47 2.54-2.672.354-.774.06-1.63-.694-2.011-.198-.101-.279-.117-.608-.125-.246-.006-.431.01-.524.046M10.94 15.08 12.859 17l-.759.76-.759.76H4.52v-.9l2.23-2.23A180 180 0 0 1 9 13.16c.011 0 .884.864 1.94 1.92"/></svg>