<svg xmlns="http://www.w3.org/2000/svg" width="24" height="24" fill="none" stroke="currentColor" stroke-linecap="round" stroke-linejoin="round" stroke-width="3"><path fill="#000" fill-rule="evenodd" stroke="none" d="M11.2.52c-.611.04-1.375.162-1.995.319-.52.131-1.334.403-1.575.526-.524.268-.873.992-.754 1.569.137.66.61 1.12 1.264 1.226.277.045.496.007 1.042-.182a8.7 8.7 0 0 1 4.88-.221c.594.146.96.276 1.498.533l.42.202-.22.051c-.616.144-2.22.349-3.274.418-.469.031-.714.066-.866.122a1.45 1.45 0 0 0-.925 1.015 1.5 1.5 0 0 0 1.203 1.855c.665.104 3.589-.247 5.16-.62l.437-.104.095.116c.48.582 1.61 2.202 1.61 2.308 0 .081-1.247-.029-2.2-.195-.636-.111-1.046-.014-1.453.345-.337.296-.537.859-.465 1.309.081.508.461 1.001.897 1.164.47.176 1.789.357 2.898.397l.737.027.115.28c.177.428.457 1.275.568 1.715l.099.395-.098.194a2 2 0 0 0-.145.469c-.06.348.017.702.223 1.023.289.453.736.686 1.309.682.261-.001.342-.02.574-.135.697-.343 1.181-1.158 1.181-1.989 0-.642-.364-2.021-.887-3.365l-.16-.411.127-.304c.078-.188.143-.435.17-.649.077-.624-.063-1.052-.713-2.175a25 25 0 0 0-1.547-2.32l-.419-.551.054-.229c.16-.68-.037-1.43-.51-1.948-.435-.476-1.501-1.212-2.435-1.681C15.362.817 13.214.389 11.2.52M1.516.577C.658.906.276 1.832.656 2.662c.085.185.29.414 1.159 1.292L2.872 5.02l-.157.2c-.402.512-.943 1.46-1.268 2.22C-.174 11.231.32 15.533 2.755 18.83c.539.731.975 1.074 1.567 1.231a2.4 2.4 0 0 0 1.011.003l.234-.055.566.436c1.272.98 2.657 1.836 3.421 2.115.58.212 1.129.198 1.711-.045l.293-.122.411.16c.96.374 1.783.624 2.589.788.925.188 1.482.104 2.092-.315l.23-.158.57.126c1.288.283 2.502.434 3.81.471.954.028 1.051.022 1.308-.082.566-.229.918-.757.918-1.377 0-.419-.109-.699-.407-1.04-.127-.146-4.72-4.749-10.205-10.229C1.659-.465 2.737.551 2.042.532c-.253-.007-.431.008-.526.045m6.747 9.853c-.021.022-.47-.098-.983-.261-.83-.265-1.356-.184-1.827.279-.126.124-.25.299-.317.448-.101.223-.113.304-.142.944a26 26 0 0 1-.198 2.319c-.087.676-.265 1.764-.293 1.792-.056.055-.483-.977-.658-1.591-.256-.895-.301-1.243-.302-2.34-.001-.874.011-1.06.09-1.48.213-1.128.59-2.117 1.156-3.031l.221-.358 1.634 1.633c.898.898 1.627 1.639 1.619 1.646m-.043 3.071c.088.014.191.034.228.045.049.013.138.228.308.746.525 1.597.832 3.1.908 4.459.016.269.017.489.003.489-.107 0-1.952-1.322-2.398-1.718-.017-.016.023-.263.09-.55.197-.852.521-2.94.521-3.355 0-.144.03-.185.117-.16.035.01.135.03.223.044m4.7 1.612c-.035.012-.802-.147-.831-.172a9 9 0 0 1-.146-.501l-.134-.49.576.575c.317.316.558.581.535.588m.44 3.122c.319.043.681.089.805.104l.226.026.085.547c.079.512.168 1.335.146 1.358-.038.042-1.833-.581-1.905-.66-.015-.016-.036-.359-.047-.761-.018-.662-.014-.729.045-.712.036.011.326.055.645.098m4.464 1.754c-.008.008-.062.003-.119-.011-.079-.02-.105-.052-.105-.13v-.103l.12.115c.065.063.112.121.104.129"/></svg>