<svg xmlns="http://www.w3.org/2000/svg" width="24" height="24" fill="none" stroke="currentColor" stroke-linecap="round" stroke-linejoin="round" stroke-width="3"><path fill="#000" fill-rule="evenodd" stroke="none" d="M2.516.577c-.81.308-1.349 1.311-1.204 2.242.094.606.248.856 1.009 1.637l.55.564-.254.354C.813 7.889.114 11.213.74 14.303c.256 1.265.812 2.678 1.463 3.717.367.587.877 1.254 1.153 1.51.536.496 1.28.698 1.974.535l.229-.054.551.419c1.187.906 2.884 1.941 3.564 2.175.479.165 1.057.133 1.587-.088l.289-.12.415.157c1.241.469 2.85.886 3.424.886.445 0 .912-.16 1.321-.452l.17-.121.47.106c1.373.312 3.471.556 4.02.469s.944-.279 1.326-.639c.311-.293.521-.623.65-1.02.092-.282.105-.387.103-.823-.005-.898-.221-2.515-.482-3.6l-.11-.46.187-.28c.367-.551.472-1.104.338-1.78a21 21 0 0 0-.88-3.015l-.105-.275.125-.3a2.7 2.7 0 0 0 .168-.645c.077-.624-.063-1.052-.713-2.175a24 24 0 0 0-1.548-2.322l-.421-.552.056-.208c.072-.27.07-.75-.003-1.026-.197-.739-.709-1.276-1.981-2.073A11.8 11.8 0 0 0 14.193.723C12.648.429 10.846.465 9.368.82c-1.48.355-2.92 1.012-4.088 1.865l-.26.19-.267-.264-.268-.264.001-.323c0-.236-.023-.387-.086-.555-.113-.303-.437-.654-.747-.811C3.45.555 3.371.539 3.04.531c-.246-.006-.431.01-.524.046m10.507 3.002a8.4 8.4 0 0 1 1.51.319c.434.132 1.318.497 1.398.577.062.062-1.387.298-2.591.423-.33.034-.962.077-1.405.096-.776.032-.813.037-1.06.153-.5.235-.832.723-.864 1.269-.015.254.004.351.184.931.259.83.353 1.203.427 1.684.059.383.085 1.595.036 1.644-.048.048-1.003.015-1.458-.051a13 13 0 0 1-1.92-.454c-.831-.267-1.373-.184-1.832.283a1.8 1.8 0 0 0-.313.447c-.101.219-.112.298-.141.94a26 26 0 0 1-.198 2.319c-.087.674-.265 1.764-.293 1.791-.053.054-.47-.949-.64-1.541-.256-.887-.317-1.349-.319-2.389-.001-1.014.063-1.528.292-2.325.963-3.351 3.829-5.768 7.269-6.131.521-.055 1.452-.048 1.918.015m4.855 4.131c.373.478 1.322 1.866 1.322 1.933 0 .086-1.027.01-1.94-.143a20 20 0 0 1-1.866-.4c-.492-.136-1.722-.541-1.779-.586-.024-.019-.055-.111-.068-.204a7 7 0 0 0-.05-.3c-.026-.126-.023-.13.108-.13.426 0 2.539-.327 3.335-.516.264-.063.501-.117.526-.119.025-.003.21.207.412.465m-2.952 4.4c.09.09.387 1.868.453 2.71.014.176.035.389.047.474l.022.153-.274-.026a29 29 0 0 1-1.854-.224c-.424-.071-1.205-.234-1.231-.256a9 9 0 0 1-.148-.505 15 15 0 0 0-.197-.668c-.047-.13-.05-.175-.013-.185.809-.232 1.341-.658 1.651-1.323.072-.154.143-.344.157-.422l.027-.142.663.19c.365.104.678.205.697.224m4.682.605c.076.069.632 1.722.632 1.879 0 .035-.071.042-.27.023a22 22 0 0 1-1.353-.181l-.252-.043-.026-.227a33 33 0 0 0-.202-1.451c-.017-.059.05-.063.712-.045.402.011.743.031.759.045m-11.388.786c.088.014.191.034.228.045.049.013.137.228.307.746q.795 2.42.91 4.462l.027.491-.381-.24a22 22 0 0 1-1.963-1.414l-.112-.091.122-.525c.197-.853.522-2.942.522-3.358 0-.144.03-.185.117-.16.035.01.135.03.223.044m10.328 3.961c.216.033.616.083.89.11l.497.05.053.199c.165.625.412 2.103.412 2.468v.122l-.31-.027a17 17 0 0 1-2.14-.35l-.35-.081-.001-.186c0-.103-.035-.448-.077-.767l-.101-.76c-.023-.176-.02-.183.159-.32.1-.077.249-.225.331-.328s.171-.19.197-.19a6 6 0 0 1 .44.06m-5.188.773c.319.043.681.089.805.104l.226.026.085.547c.086.554.163 1.294.138 1.324-.046.056-1.89-.571-1.914-.651a12 12 0 0 1-.032-.756c-.017-.644-.012-.71.047-.692.036.011.326.055.645.098"/></svg>