<svg xmlns="http://www.w3.org/2000/svg" width="24" height="24" fill="none" stroke="currentColor" stroke-linecap="round" stroke-linejoin="round" stroke-width="3"><path fill="#000" fill-rule="evenodd" stroke="none" d="M7.44.547C6.018.793 4.908 1.85 4.57 3.279c-.049.21-.065.645-.079 2.246L4.473 7.51l-.566.021c-.41.015-.648.044-.86.106a3.56 3.56 0 0 0-2.495 2.751c-.076.396-.076 9.828 0 10.224.221 1.168 1.036 2.177 2.116 2.617.719.293-.04.271 9.332.271 7.775 0 8.442-.005 8.71-.068a3.7 3.7 0 0 0 1.798-1.004c.573-.6.883-1.272.971-2.111.052-.495.052-6.139 0-6.634-.132-1.255-.824-2.255-1.946-2.817-.47-.236-.798-.312-1.443-.335l-.57-.021-.001-3.225c0-1.849-.017-3.386-.04-3.602-.154-1.465-1.105-2.613-2.526-3.052l-.293-.09L12.1.536C9.592.532 7.495.538 7.44.547m8.904 3.109.136.136V20.52H7.52V3.792l.136-.136.136-.136h8.416zm-4.828.921c-.371.142-.711.446-.864.773-.106.228-.17.576-.171.937l-.001.226-.45.014c-.402.012-.474.025-.678.129-.93.471-1.133 1.673-.407 2.399.315.316.731.462 1.319.464l.204.001.027.405c.039.599.179.904.576 1.25.473.413 1.385.413 1.858 0 .397-.346.537-.651.576-1.25l.027-.405.204-.001c.588-.002 1.004-.148 1.319-.464.726-.726.522-1.929-.407-2.399-.203-.103-.277-.117-.678-.13l-.45-.015-.001-.225c-.003-.811-.28-1.331-.869-1.629-.195-.099-.28-.116-.608-.125q-.382-.01-.526.045M4.48 15.52v5h-.23c-.32-.001-.507-.062-.627-.204l-.103-.122v-9.402l.136-.136c.134-.134.142-.136.48-.136h.344zm5.036-2.942c-.366.136-.71.444-.864.774a1.5 1.5 0 0 0 1.158 2.13c.138.02 1.123.036 2.19.036s2.052-.016 2.19-.036a1.494 1.494 0 0 0 1.287-1.7 1.51 1.51 0 0 0-.829-1.126l-.228-.116-2.38-.008c-1.91-.006-2.409.003-2.524.046m10.828 1.078.136.136v6.402l-.103.122c-.12.142-.307.203-.627.204h-.23v-7h.344c.338 0 .346.002.48.136M9.516 16.578c-.366.136-.71.444-.864.774a1.5 1.5 0 0 0 1.158 2.13c.138.02 1.123.036 2.19.036s2.052-.016 2.19-.036a1.494 1.494 0 0 0 1.287-1.7 1.51 1.51 0 0 0-.829-1.126l-.228-.116-2.38-.008c-1.91-.006-2.409.003-2.524.046"/></svg>