<svg xmlns="http://www.w3.org/2000/svg" width="24" height="24" fill="none" stroke="currentColor" stroke-linecap="round" stroke-linejoin="round" stroke-width="3"><path fill="#000" fill-rule="evenodd" stroke="none" d="M5.72.52 4.58.54l-.228.116c-.93.471-1.133 1.673-.407 2.399.317.317.73.462 1.325.464l.21.001v1.302c0 .715.019 1.475.043 1.687.073.651.293 1.226.669 1.751.079.11.936.997 1.904 1.97L9.856 12l-1.76 1.77c-.968.973-1.825 1.86-1.904 1.97a3.63 3.63 0 0 0-.669 1.751c-.024.212-.043.979-.043 1.704v1.318l-.45.014c-.402.012-.474.025-.678.129a1.51 1.51 0 0 0-.829 1.126 1.494 1.494 0 0 0 1.287 1.7c.329.048 14.051.048 14.38 0a1.494 1.494 0 0 0 1.287-1.7 1.51 1.51 0 0 0-.829-1.126c-.203-.103-.277-.117-.678-.13l-.45-.015V19.22c0-.71-.019-1.475-.042-1.7a3.6 3.6 0 0 0-.67-1.78c-.079-.11-.936-.997-1.904-1.97L14.144 12l1.76-1.77c.968-.973 1.825-1.86 1.904-1.97a3.6 3.6 0 0 0 .67-1.78c.023-.225.042-.983.042-1.684V3.52l.21-.001c.595-.002 1.008-.147 1.325-.464a1.51 1.51 0 0 0 .294-1.703c-.17-.363-.571-.697-.952-.791C19.21.515 7.943.481 5.72.52m9.76 4.429v1.429l-1.74 1.741L12 9.86l-1.74-1.741-1.74-1.741V3.52h6.96zm-1.729 10.942 1.729 1.731v2.898H8.52v-2.898l1.729-1.731c.952-.952 1.739-1.731 1.751-1.731s.799.779 1.751 1.731"/></svg>