<svg xmlns="http://www.w3.org/2000/svg" width="24" height="24" fill="none" stroke="currentColor" stroke-linecap="round" stroke-linejoin="round" stroke-width="3"><path fill="#000" fill-rule="evenodd" stroke="none" d="M11.335.561a3.8 3.8 0 0 0-1.179.474c-.348.223-7.48 6.322-7.766 6.641-.493.551-.796 1.263-.871 2.051-.03.307-.039 1.947-.029 5.093.013 4.075.022 4.672.078 4.901.339 1.386 1.345 2.389 2.722 2.711.267.063.875.068 7.71.068s7.443-.005 7.71-.068c1.297-.303 2.276-1.216 2.649-2.468.144-.485.16-.928.16-4.644 0-3.714-.009-3.97-.159-4.31-.116-.262-.444-.582-.731-.715-.219-.101-.295-.115-.629-.115s-.41.014-.629.115c-.287.133-.615.453-.731.715-.15.34-.159.593-.16 4.437v3.747l-.103.122a.6.6 0 0 1-.25.163c-.085.023-.661.041-1.375.041h-1.228l-.014-3.47c-.013-3.096-.022-3.494-.081-3.69a2.66 2.66 0 0 0-1.612-1.73c-.236-.09-.243-.09-2.817-.09s-2.581 0-2.817.09c-.596.224-1.146.701-1.398 1.212-.296.6-.279.351-.295 4.208l-.014 3.47H6.248c-.714 0-1.29-.018-1.375-.041a.6.6 0 0 1-.25-.163l-.103-.122V14.52c0-2.57.012-4.704.026-4.742.023-.059 6.755-5.859 7.138-6.149.207-.157.408-.148.704.032.418.253.781.314 1.203.202 1.115-.297 1.5-1.699.685-2.492-.286-.277-.739-.542-1.186-.692-.359-.121-.436-.133-.97-.143a6 6 0 0 0-.785.025m6.181 1.016c-.371.142-.711.446-.864.773-.135.289-.17.587-.171 1.438l-.001.728-.95.012-.95.012-.228.116c-.93.471-1.133 1.673-.407 2.399.381.382.7.463 1.82.464l.705.001.018.89c.016.842.023.904.119 1.138.243.592.758.938 1.393.938s1.15-.346 1.393-.938c.096-.234.103-.296.119-1.138l.018-.89.705-.001c1.12-.001 1.439-.082 1.82-.464.726-.726.523-1.928-.407-2.399l-.228-.116-.95-.013-.95-.012-.001-.728c0-.4-.017-.839-.037-.977a1.51 1.51 0 0 0-.832-1.153c-.195-.099-.28-.116-.608-.125-.253-.007-.431.008-.526.045M13.48 16.52v3h-2.96v-6h2.96z"/></svg>