<svg xmlns="http://www.w3.org/2000/svg" width="24" height="24" fill="none" stroke="currentColor" stroke-linecap="round" stroke-linejoin="round" stroke-width="3"><path fill="#000" fill-rule="evenodd" stroke="none" d="M11.252.58a3.7 3.7 0 0 0-1.119.469c-.353.228-7.478 6.33-7.754 6.641-.484.544-.786 1.26-.861 2.042-.029.301-.038 1.97-.028 5.088.013 4.075.022 4.672.078 4.901.339 1.386 1.345 2.389 2.722 2.711.267.063.875.068 7.71.068s7.443-.005 7.71-.068a3.7 3.7 0 0 0 1.798-1.004c.573-.6.883-1.272.971-2.111.055-.52.054-9.1-.001-9.634a3.6 3.6 0 0 0-.857-1.993c-.267-.301-7.405-6.415-7.749-6.638a3.3 3.3 0 0 0-.912-.421C12.617.525 11.621.496 11.252.58m1.064 3.049c.383.29 7.115 6.09 7.138 6.149.014.038.026 2.172.026 4.742v4.674l-.103.122a.6.6 0 0 1-.25.163c-.085.023-.661.041-1.375.041h-1.228l-.014-3.47c-.013-3.096-.022-3.494-.081-3.69a2.66 2.66 0 0 0-1.612-1.73c-.236-.09-.243-.09-2.817-.09s-2.581 0-2.817.09c-.596.224-1.146.701-1.398 1.212-.296.6-.279.351-.295 4.208l-.014 3.47H6.248c-.714 0-1.29-.018-1.375-.041a.6.6 0 0 1-.25-.163l-.103-.122V14.52c0-2.57.012-4.704.026-4.742.022-.056 6.68-5.794 7.134-6.148a.504.504 0 0 1 .636-.001M13.48 16.52v3h-2.96v-6h2.96z"/></svg>