<svg xmlns="http://www.w3.org/2000/svg" width="24" height="24" fill="none" stroke="currentColor" stroke-linecap="round" stroke-linejoin="round" stroke-width="3"><path fill="#000" fill-rule="evenodd" stroke="none" d="M11.252.58a3.7 3.7 0 0 0-1.119.469c-.353.228-7.478 6.33-7.754 6.641-.484.544-.786 1.26-.861 2.042-.029.301-.038 1.97-.028 5.088.013 4.075.022 4.672.078 4.901.339 1.387 1.349 2.392 2.722 2.711.252.058.567.067 2.39.067l2.1.001.23-.093c.433-.175.803-.555.92-.945.062-.209.062-.715 0-.924-.117-.391-.496-.78-.911-.935-.213-.08-.298-.083-2.111-.083-1.164 0-1.945-.016-2.035-.041a.6.6 0 0 1-.25-.163l-.103-.122V14.52c0-2.57.012-4.704.026-4.742.023-.059 6.755-5.859 7.138-6.149a.5.5 0 0 1 .632 0c.383.29 7.115 6.09 7.138 6.149.014.038.026 2.172.026 4.742v4.674l-.103.122a.6.6 0 0 1-.25.163c-.2.055-5.054.055-5.254 0a.6.6 0 0 1-.25-.163c-.092-.11-.103-.156-.103-.453v-.332l.473-.027c.588-.035.914-.102 1.343-.277.783-.319 1.51-1.017 1.842-1.766.294-.666.359-1.202.33-2.761-.022-1.236-.039-1.343-.29-1.852-.263-.533-.889-1.061-1.462-1.232l-.236-.071v-.763c-.001-.864-.041-1.195-.18-1.482-.121-.251-.414-.538-.7-.686-.201-.104-.256-.114-.64-.114-.388 0-.438.009-.654.12-.308.158-.632.507-.749.809-.081.209-.091.318-.108 1.161l-.018.93h-.951v-.75c-.001-.852-.041-1.184-.18-1.47-.121-.251-.414-.538-.7-.686-.201-.104-.256-.114-.64-.114-.388 0-.438.009-.654.12-.308.158-.632.507-.749.809-.082.21-.092.317-.108 1.175l-.018.944-.232.069c-.594.178-1.201.701-1.471 1.267a4 4 0 0 0-.214.556c-.074.303-.076 2.781-.002 3.172.221 1.168 1.036 2.177 2.115 2.617.425.173.753.24 1.335.274l.467.028.027.457c.015.251.046.558.069.681.205 1.106 1.044 2.128 2.103 2.56.68.277.591.271 3.832.271 2.605 0 2.951-.007 3.21-.068a3.7 3.7 0 0 0 1.798-1.004c.573-.6.883-1.272.971-2.111.055-.52.054-9.1-.001-9.634a3.6 3.6 0 0 0-.857-1.993c-.267-.301-7.405-6.415-7.749-6.638a3.3 3.3 0 0 0-.912-.421C12.617.525 11.621.496 11.252.58m3.228 13.777v.837l-.103.122a.6.6 0 0 1-.25.162c-.196.052-4.058.052-4.254 0a.6.6 0 0 1-.25-.162l-.103-.122V13.52h4.96z"/></svg>