<svg xmlns="http://www.w3.org/2000/svg" width="24" height="24" fill="none" stroke="currentColor" stroke-linecap="round" stroke-linejoin="round" stroke-width="3"><path fill="#000" fill-rule="evenodd" stroke="none" d="M11.1 1.586a5.1 5.1 0 0 0-2.864 1.635 4.8 4.8 0 0 0-.937 1.595l-.127.356-.356.127c-.453.163-.676.278-1.119.575-.947.637-1.571 1.459-1.933 2.547a6 6 0 0 0-.209.819l-.049.34-.191.096c-.26.13-.545.42-.664.676-.135.289-.168.586-.128 1.128.183 2.461 1.601 4.516 3.997 5.793.971.518 2.314.932 3.56 1.099l.38.051.011.547.011.547-1.451.012-1.451.011-.228.116a1.51 1.51 0 0 0-.829 1.126 1.494 1.494 0 0 0 1.287 1.7c.326.047 8.054.047 8.38 0a1.494 1.494 0 0 0 1.287-1.7 1.51 1.51 0 0 0-.829-1.126l-.228-.116-1.451-.012-1.451-.012.011-.547.011-.546.38-.051c4.317-.578 7.289-3.287 7.557-6.892.04-.542.007-.839-.128-1.128a1.6 1.6 0 0 0-.665-.676l-.192-.096-.064-.38c-.124-.747-.485-1.605-.918-2.179-.589-.783-1.501-1.447-2.405-1.752l-.275-.093-.128-.358a5 5 0 0 0-3.842-3.235c-.446-.078-1.321-.076-1.76.003m1.63 3.05c.264.103.64.375.799.578l.109.139-.258.121a6 6 0 0 0-1.112.717l-.272.221-.108-.087c-.444-.359-.84-.629-1.156-.788l-.369-.186.119-.147c.121-.15.417-.391.598-.486.055-.029.199-.085.32-.125.316-.105 1.009-.082 1.33.043M8.84 8.042c.588.095 1.184.543 1.44 1.085.206.436.395.395-1.79.383-2.191-.012-1.985.038-1.759-.425.302-.617 1-1.053 1.729-1.08.066-.002.237.014.38.037m7 0c.588.095 1.184.543 1.44 1.085.206.436.395.395-1.79.383-2.191-.012-1.985.038-1.759-.425.302-.617 1-1.053 1.729-1.08.066-.002.237.014.38.037m2.32 4.499c0 .071-.231.455-.439.731-1.147 1.522-3.523 2.349-6.337 2.203-2.288-.118-4.161-.928-5.115-2.213-.204-.275-.429-.653-.429-.721 0-.011 2.772-.021 6.16-.021s6.16.01 6.16.021"/></svg>