<svg xmlns="http://www.w3.org/2000/svg" width="24" height="24" fill="none" stroke="currentColor" stroke-linecap="round" stroke-linejoin="round" stroke-width="3"><path fill="#000" fill-rule="evenodd" stroke="none" d="M11.02.58a6.5 6.5 0 0 0-4.861 3.585A9 9 0 0 0 5.64 5.63c-.038.15-.068.183-.252.275-.924.464-1.64 1.427-1.829 2.459-.06.328-.06.944 0 1.272.204 1.114 1.05 2.169 2.071 2.58l.281.113 1.906 4.836c1.048 2.66 1.972 4.948 2.052 5.086.572.98 1.83 1.439 2.932 1.069a2.55 2.55 0 0 0 1.33-1.068c.079-.137 1.003-2.425 2.051-5.086l1.907-4.837.281-.113c.553-.223 1.138-.703 1.509-1.238.804-1.162.817-2.751.032-3.912a3.5 3.5 0 0 0-1.256-1.139l-.266-.147-.095-.367C17.635 2.845 15.572.981 12.94.577c-.442-.068-1.484-.066-1.92.003m1.732 3.003c.369.075.82.262 1.148.477.308.201.839.732 1.04 1.04.319.487.54 1.169.54 1.668.001.57.145.971.463 1.289.259.258.505.373.943.438.33.049.381.067.481.18.092.103.113.164.113.325 0 .162-.021.222-.114.327-.1.111-.15.132-.39.158-.36.04-9.592.04-9.952 0-.24-.026-.29-.047-.39-.158-.093-.105-.114-.165-.114-.327 0-.161.021-.222.113-.325.1-.113.151-.131.481-.18.438-.065.684-.18.943-.438.318-.318.462-.719.463-1.289 0-.499.221-1.181.54-1.668.201-.308.732-.839 1.04-1.04a3.7 3.7 0 0 1 1.12-.474c.378-.08 1.146-.082 1.532-.003m2.009 8.967c.001.05-2.74 7.008-2.761 7.008S9.237 12.6 9.239 12.55c.001-.016 1.243-.03 2.761-.03s2.76.014 2.761.03"/></svg>