<svg xmlns="http://www.w3.org/2000/svg" width="24" height="24" fill="none" stroke="currentColor" stroke-linecap="round" stroke-linejoin="round" stroke-width="3"><path fill="#000" fill-rule="evenodd" stroke="none" d="M4.44 1.547a3.56 3.56 0 0 0-2.888 2.841c-.076.399-.076 14.825 0 15.224.221 1.168 1.036 2.177 2.116 2.617.682.278.582.271 3.912.271h3l.23-.093c.423-.171.764-.51.898-.895a1.6 1.6 0 0 0-.077-1.208c-.116-.23-.441-.534-.702-.656-.202-.095-.292-.11-.76-.128l-.53-.02 3.331-3.33 3.331-3.33h.393l1.703 1.691c1.834 1.821 1.89 1.868 2.371 1.941a1.49 1.49 0 0 0 1.714-1.282c.05-.347.047-10.029-.003-10.507-.154-1.464-1.103-2.611-2.526-3.052l-.293-.091-7.56-.005c-4.158-.002-7.605.003-7.66.012m14.904 3.109.136.136v6.535l-.35-.328c-.452-.425-.698-.606-1.086-.8-.541-.269-.852-.337-1.544-.337-.503 0-.651.014-.914.09-.36.103-.871.348-1.165.558-.11.079-2.199 2.139-4.642 4.577-4.406 4.399-4.442 4.433-4.6 4.433-.25-.001-.445-.072-.556-.204l-.103-.122V4.792l.136-.136.136-.136h14.416zM8.44 5.545c-.77.148-1.465.517-1.966 1.044A3.42 3.42 0 0 0 5.512 9c0 .715.187 1.345.57 1.917a3.56 3.56 0 0 0 2.208 1.509 4.3 4.3 0 0 0 1.42 0 3.513 3.513 0 0 0 2.765-3.772c-.123-1.217-.83-2.232-1.942-2.788-.479-.24-.797-.313-1.433-.327a7 7 0 0 0-.66.006m.904 3.111c.119.119.136.162.136.337 0 .157-.022.227-.103.323a.5.5 0 0 1-.514.16c-.214-.059-.343-.241-.343-.483 0-.175.017-.218.136-.337S8.817 8.52 9 8.52s.224.016.344.136m7.227 6.4c-.092.03-.245.1-.34.156-.094.056-.912.846-1.819 1.755-1.409 1.414-1.663 1.686-1.751 1.88-.202.44-.203.862-.006 1.294.11.239.416.571.629.681a1.59 1.59 0 0 0 1.429.001c.074-.037.274-.203.446-.367l.312-.298.017 1.071c.015 1.041.019 1.078.119 1.319.245.593.758.938 1.393.938s1.148-.345 1.393-.938c.1-.241.104-.278.119-1.319l.017-1.071.312.298c.339.324.473.408.779.49a1.57 1.57 0 0 0 1.096-.124c.214-.111.519-.442.63-.684.19-.414.188-.864-.003-1.284-.093-.203-.325-.452-1.775-1.906-1.909-1.913-1.908-1.913-2.502-1.935a1.6 1.6 0 0 0-.495.043"/></svg>