<svg xmlns="http://www.w3.org/2000/svg" width="24" height="24" fill="none" stroke="currentColor" stroke-linecap="round" stroke-linejoin="round" stroke-width="3"><path fill="#000" fill-rule="evenodd" stroke="none" d="M1.516.577C.825.841.426 1.502.523 2.218c.053.387.187.606.695 1.133l.469.487-.093.371-.094.371v7.38c0 5.855.011 7.436.052 7.652.221 1.168 1.036 2.177 2.115 2.617.707.288.087.266 8.033.281 7.276.013 7.724.006 8.227-.135l.232-.065.489.471c.528.509.747.643 1.134.696 1.2.163 2.067-1.029 1.56-2.145-.095-.21-1.076-1.202-10.274-10.395C1.635-.49 2.738.551 2.042.532c-.253-.007-.431.008-.526.045m7 1.001c-.366.136-.71.444-.864.774a1.5 1.5 0 0 0 1.158 2.13c.138.02 2.522.037 5.324.037l5.074.001.136.136.136.136v6.535l-.301-.278a3 3 0 0 0-.53-.393c-.209-.106-.265-.116-.649-.116s-.44.01-.648.116c-.754.382-1.048 1.237-.693 2.012.092.201.329.455 1.773 1.898 1.794 1.792 1.844 1.833 2.324 1.91.487.079.953-.072 1.301-.419.234-.235.368-.496.421-.823.055-.339.056-10.029.001-10.551-.154-1.464-1.104-2.612-2.526-3.052l-.293-.09-5.5-.008c-4.513-.007-5.526.001-5.644.045M5.594 8.181c-.109.446-.118 1.141-.02 1.548.334 1.39 1.346 2.391 2.719 2.692.394.086 1.194.066 1.601-.041l.273-.072.597.596.596.595-3.01 3.011c-2.985 2.985-3.011 3.01-3.17 3.01-.251-.001-.446-.072-.557-.204l-.103-.122V6.66l.581.582.582.581zm9.846 9.399 1.94 1.94H9.62l1.94-1.94 1.94-1.94z"/></svg>