<svg xmlns="http://www.w3.org/2000/svg" width="24" height="24" fill="none" stroke="currentColor" stroke-linecap="round" stroke-linejoin="round" stroke-width="3"><path fill="#000" fill-rule="evenodd" stroke="none" d="M4.44 1.547a3.56 3.56 0 0 0-2.888 2.841c-.076.399-.076 14.825 0 15.224.221 1.168 1.036 2.177 2.115 2.617.668.272.543.263 4.041.28 1.928.01 3.278.001 3.449-.023.368-.051.657-.19.898-.431.726-.726.523-1.928-.407-2.399l-.228-.116-.895-.013-.895-.013 1.305-1.311c1.098-1.104 1.321-1.348 1.408-1.539.353-.771.057-1.627-.695-2.008-.208-.106-.264-.116-.648-.116-.698 0-.525-.137-3.281 2.608-2.348 2.338-2.384 2.372-2.54 2.372-.25-.001-.445-.072-.556-.204l-.103-.122V4.792l.136-.136.136-.136h14.407l.13.117.131.116.02 3.514.02 3.513.093.23c.175.433.555.803.945.92.209.062.715.062.924 0 .39-.117.77-.487.945-.92l.093-.23.012-3.32c.012-3.456-.004-3.923-.152-4.422-.349-1.171-1.216-2.038-2.407-2.407l-.293-.091-7.56-.005c-4.158-.002-7.605.003-7.66.012m4 3.998c-.77.148-1.465.517-1.966 1.044A3.42 3.42 0 0 0 5.512 9c0 .715.187 1.345.57 1.917a3.56 3.56 0 0 0 2.208 1.509 4.3 4.3 0 0 0 1.42 0 3.513 3.513 0 0 0 2.765-3.772c-.123-1.217-.83-2.232-1.942-2.788-.479-.24-.797-.313-1.433-.327a7 7 0 0 0-.66.006m.904 3.111c.119.119.136.162.136.337 0 .157-.022.227-.103.323a.5.5 0 0 1-.514.16c-.214-.059-.343-.241-.343-.483 0-.175.017-.218.136-.337S8.817 8.52 9 8.52s.224.016.344.136m5.535 2.833q-.988.345-1.305 1.373c-.07.225-.074.48-.074 4.618v4.38l.088.28c.153.485.416.835.829 1.106a2.03 2.03 0 0 0 2.083.061c.657-.382 6.006-3.754 6.18-3.896.42-.341.725-.819.859-1.349.226-.889-.133-1.949-.85-2.511-.355-.278-6.197-3.915-6.468-4.027-.355-.147-.976-.163-1.342-.035m3.651 4.968c.875.546 1.59 1.006 1.59 1.023s-.715.477-1.59 1.023-1.684 1.053-1.8 1.126l-.21.133v-4.564l.21.133c.116.073.925.58 1.8 1.126"/></svg>