<svg xmlns="http://www.w3.org/2000/svg" width="24" height="24" fill="none" stroke="currentColor" stroke-linecap="round" stroke-linejoin="round" stroke-width="3"><path fill="#000" fill-rule="evenodd" stroke="none" d="M18.516.577c-.371.142-.711.446-.864.773-.135.289-.17.587-.171 1.438l-.001.728-.95.012-.95.012-.228.116c-.93.471-1.133 1.673-.407 2.399.381.382.7.463 1.82.464l.705.001.018.89c.016.842.023.904.119 1.138.243.592.758.938 1.393.938s1.15-.346 1.393-.938c.096-.234.103-.296.119-1.138l.018-.89.705-.001c1.12-.001 1.439-.082 1.82-.464.726-.726.523-1.928-.407-2.399l-.228-.116-.95-.013-.95-.012-.001-.728c0-.4-.017-.839-.037-.977A1.51 1.51 0 0 0 19.65.657c-.195-.099-.28-.116-.608-.125-.253-.007-.431.008-.526.045M4.44 1.548a3.56 3.56 0 0 0-2.888 2.84c-.076.399-.076 14.825 0 15.224.221 1.168 1.036 2.177 2.116 2.617.716.292.076.271 8.332.271 6.835 0 7.443-.005 7.71-.068 1.298-.303 2.276-1.216 2.65-2.47.15-.506.164-.953.152-4.922l-.012-3.82-.091-.226c-.287-.71-.942-1.08-1.688-.954a1.5 1.5 0 0 0-.878.517c-.148.186-.321.571-.322.716-.001.08-.059.039-.391-.274-.608-.572-1.092-.868-1.718-1.048-.453-.13-1.372-.13-1.826.001-.36.103-.871.348-1.165.558-.11.079-2.199 2.139-4.642 4.577-4.406 4.399-4.442 4.433-4.6 4.433-.25-.001-.445-.072-.556-.204l-.103-.122V4.801l.117-.13.116-.131 4.014-.02 4.013-.02.23-.093c.433-.175.803-.555.92-.945.062-.209.062-.715 0-.924-.117-.391-.496-.78-.911-.935-.22-.082-.265-.083-4.351-.078-2.27.003-4.173.013-4.228.023m4 3.997c-.77.148-1.465.517-1.966 1.044A3.42 3.42 0 0 0 5.512 9c0 .715.187 1.345.57 1.917a3.56 3.56 0 0 0 2.208 1.509 4.3 4.3 0 0 0 1.42 0 3.513 3.513 0 0 0 2.765-3.772c-.123-1.217-.83-2.232-1.942-2.788-.479-.24-.797-.313-1.433-.327a7 7 0 0 0-.66.006m.904 3.111c.119.119.136.162.136.337 0 .157-.022.227-.103.323a.5.5 0 0 1-.514.16c-.214-.059-.343-.241-.343-.483 0-.175.017-.218.136-.337S8.817 8.52 9 8.52s.224.016.344.136m8.745 5.573 1.391 1.389v3.576l-.103.122a.6.6 0 0 1-.25.163c-.096.026-1.758.041-4.827.041H9.62l3.341-3.34 3.34-3.34h.396z"/></svg>