<svg xmlns="http://www.w3.org/2000/svg" width="24" height="24" fill="none" stroke="currentColor" stroke-linecap="round" stroke-linejoin="round" stroke-width="3"><path fill="#000" fill-rule="evenodd" stroke="none" d="M7.44.547a3.56 3.56 0 0 0-2.888 2.841c-.076.398-.076 12.826 0 13.224.221 1.168 1.036 2.177 2.116 2.617.712.29.191.271 7.332.271 5.895 0 6.444-.006 6.71-.068 1.537-.359 2.605-1.561 2.769-3.115.053-.509.053-12.125 0-12.634-.154-1.464-1.104-2.611-2.526-3.052l-.293-.09L14.1.535C10.492.533 7.495.538 7.44.547m12.904 3.109.136.136v5.994l-.273-.092c-.425-.142-.807-.186-1.407-.162-.632.025-.963.106-1.5.366a5 5 0 0 0-.64.384c-.154.116-1.639 1.566-3.301 3.224l-3.021 3.014H9.179c-.667 0-1.222-.018-1.306-.041a.6.6 0 0 1-.25-.163l-.103-.122V3.792l.136-.136.136-.136h12.416zm-18.828.921A1.54 1.54 0 0 0 .515 5.834C.493 6 .483 8.93.491 13.283c.011 6.432.019 7.204.077 7.438.34 1.381 1.329 2.373 2.702 2.709.245.061.929.068 7.447.079 4.353.008 7.283-.002 7.449-.024.861-.12 1.426-.854 1.311-1.703a1.51 1.51 0 0 0-.829-1.126l-.228-.116-7.28-.02c-5.701-.016-7.299-.031-7.367-.07a.7.7 0 0 1-.17-.155l-.083-.106-.001-7.064c0-3.987-.016-7.174-.037-7.315a1.51 1.51 0 0 0-.832-1.153c-.195-.099-.28-.116-.608-.125-.253-.007-.431.008-.526.045m9.924-.032c-.77.148-1.465.517-1.966 1.044A3.42 3.42 0 0 0 8.512 8c0 .715.187 1.345.57 1.917a3.56 3.56 0 0 0 2.208 1.509 4.3 4.3 0 0 0 1.42 0 3.513 3.513 0 0 0 2.765-3.772c-.123-1.217-.83-2.232-1.942-2.788-.479-.24-.797-.313-1.433-.327a7 7 0 0 0-.66.006m.904 3.111c.119.119.136.162.136.337 0 .242-.129.424-.343.483a.5.5 0 0 1-.514-.16c-.081-.096-.103-.166-.103-.323 0-.175.017-.218.136-.337s.161-.136.344-.136.224.016.344.136m7.028 4.928c.07.035.349.282.618.549l.49.486v2.575l-.103.122a.6.6 0 0 1-.25.163c-.093.026-1.122.041-2.827.041h-2.68l1.92-1.923c1.056-1.057 1.983-1.956 2.06-1.998.18-.097.592-.105.772-.015"/></svg>