<svg xmlns="http://www.w3.org/2000/svg" width="24" height="24" fill="none" stroke="currentColor" stroke-linecap="round" stroke-linejoin="round" stroke-width="3"><path fill="#000" fill-rule="evenodd" stroke="none" d="M4.44 1.547a3.56 3.56 0 0 0-2.888 2.841c-.076.399-.076 14.825 0 15.224.221 1.168 1.036 2.177 2.116 2.617.716.292.076.271 8.332.271 6.835 0 7.443-.005 7.71-.068a3.7 3.7 0 0 0 1.798-1.004c.573-.6.883-1.272.971-2.111.05-.478.053-10.16.003-10.507a1.51 1.51 0 0 0-.834-1.154c-.208-.106-.264-.116-.648-.116s-.44.01-.648.116a1.51 1.51 0 0 0-.834 1.154c-.02.138-.037.76-.037 1.383l-.001 1.134-.37-.347c-.591-.555-1.081-.851-1.698-1.029-.453-.13-1.372-.13-1.826.001-.36.103-.871.348-1.165.558-.11.079-2.199 2.139-4.642 4.577-4.406 4.399-4.442 4.433-4.6 4.433-.25-.001-.445-.072-.556-.204l-.103-.122V4.792l.136-.136.136-.136 3.574-.001c1.966 0 3.686-.017 3.824-.037a1.494 1.494 0 0 0 1.287-1.7 1.51 1.51 0 0 0-.829-1.126l-.228-.116-3.94-.005c-2.167-.003-3.985.003-4.04.012m11.076 2.031c-.366.136-.71.444-.864.774a1.5 1.5 0 0 0 1.158 2.13c.326.047 6.054.047 6.38 0a1.494 1.494 0 0 0 1.287-1.7 1.51 1.51 0 0 0-.829-1.126l-.228-.116-3.38-.008c-2.742-.006-3.407.003-3.524.046M8.44 5.545c-.77.148-1.465.517-1.966 1.044A3.42 3.42 0 0 0 5.512 9c0 .715.187 1.345.57 1.917a3.56 3.56 0 0 0 2.208 1.509 4.3 4.3 0 0 0 1.42 0 3.513 3.513 0 0 0 2.765-3.772c-.123-1.217-.83-2.232-1.942-2.788-.479-.24-.797-.313-1.433-.327a7 7 0 0 0-.66.006m.904 3.111c.119.119.136.162.136.337 0 .157-.022.227-.103.323a.5.5 0 0 1-.514.16c-.214-.059-.343-.241-.343-.483 0-.175.017-.218.136-.337S8.817 8.52 9 8.52s.224.016.344.136m8.745 5.573 1.391 1.389v3.576l-.103.122a.6.6 0 0 1-.25.163c-.096.026-1.758.041-4.827.041H9.62l3.341-3.34 3.34-3.34h.396z"/></svg>