<svg xmlns="http://www.w3.org/2000/svg" width="24" height="24" fill="none" stroke="currentColor" stroke-linecap="round" stroke-linejoin="round" stroke-width="3"><path fill="#000" fill-rule="evenodd" stroke="none" d="M11.516 1.577a1.54 1.54 0 0 0-.998 1.233c-.02.138-.037 2.111-.037 4.386l-.001 4.137-.79-.777C8.708 9.591 8.623 9.54 8 9.54c-.384 0-.44.01-.648.116-.754.382-1.048 1.236-.694 2.012.093.203.373.499 2.274 2.398 2.331 2.329 2.333 2.331 2.824 2.41.308.05.661-.003.938-.141.161-.08.684-.58 2.374-2.269 1.901-1.899 2.181-2.195 2.274-2.398.354-.776.06-1.63-.694-2.012-.208-.106-.264-.116-.648-.116-.623 0-.708.051-1.69 1.016l-.79.777-.001-4.137c0-2.275-.017-4.248-.037-4.386a1.51 1.51 0 0 0-.832-1.153c-.195-.099-.28-.116-.608-.125q-.382-.01-.526.045M3.44 3.547A3.56 3.56 0 0 0 .552 6.388c-.076.397-.076 10.827 0 11.224.221 1.168 1.036 2.177 2.116 2.617.719.293-.04.271 9.332.271 7.775 0 8.442-.005 8.71-.068a3.7 3.7 0 0 0 1.798-1.004c.573-.6.883-1.272.971-2.111.053-.506.053-10.128 0-10.634-.155-1.474-1.13-2.642-2.547-3.053-.309-.089-.335-.09-2.832-.09h-2.52l-.228.116a1.51 1.51 0 0 0-.829 1.126 1.494 1.494 0 0 0 1.287 1.7c.138.02 1.183.037 2.324.037l2.074.001.136.136.136.136v10.402l-.103.122a.6.6 0 0 1-.25.163c-.204.056-16.05.056-16.254 0a.6.6 0 0 1-.25-.163l-.103-.122V6.792l.136-.136.136-.136 2.074-.001c1.141 0 2.186-.017 2.324-.037a1.494 1.494 0 0 0 1.287-1.7 1.51 1.51 0 0 0-.829-1.126L8.42 3.54l-2.44-.005c-1.342-.003-2.485.003-2.54.012"/></svg>