<svg xmlns="http://www.w3.org/2000/svg" width="24" height="24" fill="none" stroke="currentColor" stroke-linecap="round" stroke-linejoin="round" stroke-width="3"><path fill="#000" fill-rule="evenodd" stroke="none" d="M10.516 4.578c-.365.136-.71.444-.864.774a1.5 1.5 0 0 0 1.158 2.13c.327.047 10.053.047 10.38 0a1.494 1.494 0 0 0 1.287-1.7 1.51 1.51 0 0 0-.829-1.126l-.228-.116-5.38-.007c-4.405-.007-5.406.002-5.524.045m-4 1.999a2.3 2.3 0 0 0-.32.163c-.097.059-1.133 1.065-2.304 2.234-1.863 1.862-2.141 2.155-2.233 2.358a1.58 1.58 0 0 0-.001 1.336c.093.203.373.499 2.274 2.4s2.197 2.181 2.4 2.274a1.503 1.503 0 0 0 2.011-2.007c-.09-.195-.331-.456-1.652-1.782L5.144 12l1.547-1.553C8.012 9.121 8.253 8.86 8.343 8.665c.353-.772.058-1.628-.695-2.009-.198-.101-.279-.117-.608-.125-.246-.006-.431.01-.524.046m4 4.001c-.365.136-.71.444-.864.774a1.5 1.5 0 0 0 1.158 2.13c.327.047 10.053.047 10.38 0a1.494 1.494 0 0 0 1.287-1.7 1.51 1.51 0 0 0-.829-1.126l-.228-.116-5.38-.007c-4.405-.007-5.406.002-5.524.045m0 6c-.365.136-.71.444-.864.774a1.5 1.5 0 0 0 1.158 2.13c.327.047 10.053.047 10.38 0a1.494 1.494 0 0 0 1.287-1.7 1.51 1.51 0 0 0-.829-1.126l-.228-.116-5.38-.007c-4.405-.007-5.406.002-5.524.045"/></svg>