<svg xmlns="http://www.w3.org/2000/svg" width="24" height="24" fill="none" stroke="currentColor" stroke-linecap="round" stroke-linejoin="round" stroke-width="3"><path fill="#000" fill-rule="evenodd" stroke="none" d="m7.22 1.52-1.64.02-.228.116c-1.174.594-1.104 2.267.115 2.748.229.09.267.092 2.273.117 1.906.023 2.06.031 2.345.109a3.13 3.13 0 0 1 1.523.927c.205.221.592.834.592.937 0 .014-1.489.029-3.31.035l-3.31.011-.228.116a1.51 1.51 0 0 0-.829 1.126 1.494 1.494 0 0 0 1.287 1.7c.138.02 1.633.037 3.323.037l3.073.001-.173.33c-.131.25-.26.417-.533.69-.408.408-.674.579-1.15.743-.56.192-.728.205-2.71.22-1.023.008-1.922.025-1.998.039-.355.064-.798.415-.982.779-.267.526-.179 1.229.209 1.664.096.108 7.845 7.402 8.526 8.026.424.389.853.541 1.317.467a1.49 1.49 0 0 0 1.054-2.27c-.061-.1-1.338-1.332-3.036-2.932-1.612-1.517-2.93-2.776-2.93-2.798 0-.021.056-.038.124-.038.21 0 .915-.158 1.342-.3.906-.302 1.639-.762 2.355-1.479.643-.642 1.02-1.205 1.358-2.023.12-.291.341-.979.341-1.063 0-.046.225-.055 1.31-.056.721 0 1.422-.017 1.56-.037a1.494 1.494 0 0 0 1.287-1.7 1.51 1.51 0 0 0-.829-1.126l-.228-.116-1.532-.012c-1.152-.009-1.535-.024-1.546-.06l-.121-.408a7.6 7.6 0 0 0-.486-1.229 3 3 0 0 1-.135-.29c0-.012.752-.021 1.67-.022.919 0 1.782-.017 1.92-.037a1.494 1.494 0 0 0 1.287-1.7 1.51 1.51 0 0 0-.829-1.126l-.228-.116-.9-.01a872 872 0 0 0-10.3-.01"/></svg>