<svg xmlns="http://www.w3.org/2000/svg" width="24" height="24" fill="none" stroke="currentColor" stroke-linecap="round" stroke-linejoin="round" stroke-width="3"><path fill="#000" fill-rule="evenodd" stroke="none" d="M5.081 6.581c-1.755.333-3.174 1.372-3.956 2.894a5.34 5.34 0 0 0-.611 2.505 5.4 5.4 0 0 0 .611 2.545 5.54 5.54 0 0 0 3.989 2.899 7.4 7.4 0 0 0 1.726.018c1.609-.232 3.153-1.093 4.708-2.625l.449-.442.453.442c1.97 1.927 3.952 2.816 5.932 2.661.546-.043.839-.1 1.325-.26a5.5 5.5 0 0 0 3.515-3.522 5.5 5.5 0 0 0-1.338-5.576c-.841-.837-1.827-1.339-3.034-1.545-.579-.098-1.556-.061-2.187.083-1.328.304-2.454.933-3.764 2.101-.25.224-.555.514-.678.646l-.222.24-.196-.215c-.278-.303-1.084-1.021-1.509-1.343-.961-.73-1.913-1.19-2.957-1.43-.41-.094-.58-.111-1.217-.121-.518-.008-.83.005-1.039.045M6.86 9.618c.402.109 1.165.513 1.64.869.467.35 1.54 1.395 1.54 1.501 0 .093-.631.764-1.101 1.169-1.034.892-1.992 1.329-2.924 1.332-.456.002-.706-.055-1.125-.254-.551-.262-1.039-.813-1.256-1.418-.108-.299-.146-.987-.075-1.347.171-.872.937-1.673 1.812-1.895.276-.07 1.164-.044 1.489.043m11.957.015a2.65 2.65 0 0 1 1.553 1.55c.076.205.088.316.088.817s-.012.612-.088.817c-.23.615-.711 1.157-1.26 1.418-.419.199-.669.256-1.125.254-.931-.003-1.891-.44-2.921-1.329a12 12 0 0 1-.781-.756l-.371-.403.334-.366c.989-1.084 2.12-1.844 3.054-2.051.411-.091 1.201-.066 1.517.049"/></svg>