<svg xmlns="http://www.w3.org/2000/svg" width="24" height="24" fill="none" stroke="currentColor" stroke-linecap="round" stroke-linejoin="round" stroke-width="3"><path fill="#000" fill-rule="evenodd" stroke="none" d="M6.02.58C3.153 1.038.979 3.248.553 6.14c-.078.527-.078 11.193 0 11.72.421 2.856 2.531 5.033 5.381 5.551l.486.089h5.54c5.921 0 5.796.004 6.607-.202a6.46 6.46 0 0 0 4.731-4.731c.206-.811.202-.689.202-6.567s.004-5.756-.202-6.567c-.653-2.58-2.717-4.45-5.358-4.856C17.434.499 6.51.502 6.02.58m11.732 3.003c.641.13 1.193.439 1.71.955.369.37.581.675.764 1.102.265.618.254.348.254 6.36s.011 5.742-.254 6.36a3.58 3.58 0 0 1-2.418 2.051l-.348.089H6.54l-.352-.09a3.57 3.57 0 0 1-2.414-2.05c-.265-.618-.254-.348-.254-6.36s-.011-5.742.254-6.36c.183-.427.395-.732.764-1.102.369-.369.674-.581 1.102-.764.601-.259.315-.247 6.332-.251 4.819-.003 5.508.004 5.78.06m-.578 1.456c-.424.09-.845.438-1.042.861-.097.207-.112.29-.112.6 0 .311.015.394.113.604.143.31.453.618.763.76.748.341 1.641-.006 1.997-.775.071-.154.087-.262.087-.589 0-.347-.014-.429-.103-.62a1.66 1.66 0 0 0-.737-.726 1.75 1.75 0 0 0-.966-.115M11.56 6.483c-.688.055-1.189.194-1.877.52-1.382.657-2.371 1.779-2.861 3.244a4.9 4.9 0 0 0-.269 1.673c-.004 1.17.349 2.306 1 3.217a7 7 0 0 0 1.31 1.31c1.409 1.007 3.33 1.281 4.965.709a5.47 5.47 0 0 0 3.124-2.739c.606-1.215.746-2.456.427-3.772-.542-2.24-2.515-3.958-4.759-4.144-.552-.046-.685-.048-1.06-.018m1.315 3.127a2.52 2.52 0 0 1 1.515 1.515c.139.39.171 1.046.07 1.434a2.54 2.54 0 0 1-1.801 1.821c-.317.085-.891.085-1.219 0a2.51 2.51 0 0 1-1.843-1.944c-.062-.295-.029-.959.061-1.216.244-.695.675-1.198 1.285-1.498.402-.198.622-.242 1.157-.229.399.009.53.029.775.117"/></svg>