<svg xmlns="http://www.w3.org/2000/svg" width="24" height="24" fill="none" stroke="currentColor" stroke-linecap="round" stroke-linejoin="round" stroke-width="3"><path fill="#000" fill-rule="evenodd" stroke="none" d="m12.2 2.52-2.62.02-.228.116a1.51 1.51 0 0 0-.829 1.126 1.494 1.494 0 0 0 1.287 1.7c.138.02.869.037 1.625.037 1.289.001 1.373.005 1.356.071-.043.163-4.805 12.834-4.84 12.879-.029.036-.454.051-1.705.06l-1.666.011-.228.116a1.51 1.51 0 0 0-.829 1.126 1.494 1.494 0 0 0 1.287 1.7c.326.047 9.054.047 9.38 0a1.494 1.494 0 0 0 1.287-1.7 1.51 1.51 0 0 0-.829-1.126l-.228-.116-1.58-.011a44 44 0 0 1-1.626-.027c-.029-.01.842-2.384 2.381-6.489l2.427-6.473 1.639-.022c1.593-.021 1.646-.024 1.872-.114.503-.199.873-.664.944-1.186a1.5 1.5 0 0 0-.829-1.562c-.216-.11-.257-.116-.808-.126a334 334 0 0 0-6.64-.01"/></svg>