<svg xmlns="http://www.w3.org/2000/svg" width="24" height="24" fill="none" stroke="currentColor" stroke-linecap="round" stroke-linejoin="round" stroke-width="3"><path fill="#000" fill-rule="evenodd" stroke="none" d="M10.9.564a9.6 9.6 0 0 0-6.793 4.169 9.6 9.6 0 0 0-1.53 4.047c-.088.638-.088 1.801 0 2.44a9.56 9.56 0 0 0 8.083 8.189c.473.074.751.083 3.092.1l2.573.019-.785.796c-.846.858-.957 1.018-1.017 1.458-.163 1.2 1.031 2.069 2.145 1.56.203-.093.499-.373 2.398-2.274 1.689-1.69 2.189-2.213 2.269-2.374.21-.423.21-.965 0-1.388-.08-.161-.576-.678-2.269-2.368-2.515-2.511-2.371-2.398-3.066-2.398-.384 0-.44.01-.648.116a1.505 1.505 0 0 0-.698 2.003c.081.176.27.393.914 1.045l.812.824-2.52-.02c-2.654-.022-2.72-.026-3.48-.223-2.392-.619-4.211-2.537-4.747-5.005-.079-.364-.091-.534-.091-1.28s.012-.916.091-1.28c.563-2.592 2.495-4.524 5.087-5.087.364-.079.534-.091 1.28-.091s.916.012 1.28.091c1.283.279 2.368.862 3.271 1.759 1.196 1.187 1.822 2.594 1.932 4.343.052.808.156 1.063.588 1.44.357.312 1.008.406 1.484.213.389-.157.676-.444.837-.84.093-.226.101-.295.096-.785-.018-1.727-.592-3.536-1.595-5.03A9.57 9.57 0 0 0 14.572.864C13.731.622 13.217.552 12.16.538c-.517-.007-1.084.005-1.26.026"/></svg>