<svg xmlns="http://www.w3.org/2000/svg" width="24" height="24" fill="none" stroke="currentColor" stroke-linecap="round" stroke-linejoin="round" stroke-width="3"><path fill="#000" fill-rule="evenodd" stroke="none" d="M10.9.564a9.6 9.6 0 0 0-6.793 4.169C3.104 6.227 2.53 8.036 2.512 9.763c-.005.49.003.559.096.785.161.396.448.683.837.84.476.193 1.127.099 1.484-.213.432-.377.536-.632.588-1.44a6.9 6.9 0 0 1 .33-1.795c.748-2.196 2.57-3.807 4.873-4.307.364-.079.534-.091 1.28-.091s.916.012 1.28.091c2.309.502 4.12 2.105 4.876 4.317.246.719.302 1.101.302 2.05s-.056 1.331-.302 2.05a6.54 6.54 0 0 1-4.536 4.235c-.76.197-.826.201-3.48.223l-2.52.02.812-.824c.644-.652.833-.869.914-1.045a1.505 1.505 0 0 0-.698-2.003c-.208-.106-.264-.116-.648-.116-.695 0-.551-.113-3.066 2.398-1.693 1.69-2.189 2.207-2.269 2.368-.21.423-.21.965 0 1.388.08.161.58.684 2.269 2.374 1.899 1.901 2.195 2.181 2.398 2.274 1.114.509 2.308-.36 2.145-1.56-.06-.44-.171-.6-1.017-1.458l-.785-.796 2.573-.019c2.341-.017 2.619-.026 3.092-.1a9.557 9.557 0 0 0 8.083-8.189c.088-.639.088-1.802 0-2.44a9.6 9.6 0 0 0-1.53-4.047A9.57 9.57 0 0 0 14.572.864C13.731.622 13.217.552 12.16.538c-.517-.007-1.084.005-1.26.026"/></svg>