<svg xmlns="http://www.w3.org/2000/svg" width="24" height="24" fill="none" stroke="currentColor" stroke-linecap="round" stroke-linejoin="round" stroke-width="3"><path fill="#000" fill-rule="evenodd" stroke="none" d="M5.449 1.603c-.277.109-.656.462-.789.733-.198.404-.197.922.001 1.33.074.15.801.965 2.68 3C8.759 8.203 9.92 9.473 9.92 9.489s-.976.034-2.17.04l-2.17.011-.228.116a1.51 1.51 0 0 0-.829 1.126 1.494 1.494 0 0 0 1.287 1.7c.138.02 1.245.037 2.46.037l2.21.001v.998l-2.45.011-2.45.011-.228.116a1.51 1.51 0 0 0-.829 1.126 1.494 1.494 0 0 0 1.287 1.7c.138.02 1.243.037 2.458.037l2.207.001.013 2.39.012 2.39.105.248c.25.595.761.938 1.395.938s1.145-.343 1.395-.938l.105-.248.012-2.39.013-2.39 2.207-.001c1.215 0 2.32-.017 2.458-.037a1.494 1.494 0 0 0 1.287-1.7 1.51 1.51 0 0 0-.829-1.126l-.228-.116-2.45-.011-2.45-.011v-.998l2.21-.001c1.215 0 2.322-.017 2.46-.037a1.494 1.494 0 0 0 1.287-1.7 1.51 1.51 0 0 0-.829-1.126l-.228-.116-2.17-.011c-1.193-.007-2.17-.025-2.17-.04 0-.016 1.152-1.277 2.561-2.803 1.408-1.526 2.604-2.849 2.656-2.94.21-.362.252-.881.103-1.277-.114-.305-.449-.668-.753-.817-.205-.101-.268-.112-.647-.112-.475 0-.677.07-.976.338-.087.078-1.248 1.321-2.58 2.762C13.113 6.081 12.013 7.26 12 7.26s-1.113-1.179-2.444-2.62c-1.332-1.441-2.493-2.684-2.58-2.762-.279-.25-.505-.334-.936-.347-.31-.009-.419.004-.591.072"/></svg>