<svg xmlns="http://www.w3.org/2000/svg" width="24" height="24" fill="none" stroke="currentColor" stroke-linecap="round" stroke-linejoin="round" stroke-width="3"><path fill="#000" fill-rule="evenodd" stroke="none" d="M11.277 1.558c-1.471.269-2.667 1.161-3.316 2.474a5.2 5.2 0 0 0-.402 1.248c-.059.334-.059 1.106 0 1.44a4.53 4.53 0 0 0 2.771 3.454l.15.062v3.284H7.52l-.001-.23c-.003-.816-.279-1.334-.871-1.634-.208-.106-.264-.116-.648-.116s-.44.01-.648.116c-.595.301-.868.817-.871 1.644l-.001.241-.314.07c-1.291.29-2.358 1.424-2.614 2.777-.072.378-.072 2.846 0 3.224.221 1.168 1.036 2.177 2.116 2.617.716.292.076.271 8.332.271 6.835 0 7.443-.005 7.71-.068a3.7 3.7 0 0 0 1.798-1.004c.573-.6.883-1.272.971-2.111.051-.487.051-2.147 0-2.634-.154-1.465-1.107-2.615-2.526-3.051-.291-.089-.311-.09-3.363-.102l-3.071-.013.011-1.644.01-1.644.281-.124a4.48 4.48 0 0 0 2.655-4.489 4.43 4.43 0 0 0-1.343-2.828 3.8 3.8 0 0 0-1.153-.81c-.678-.332-1.061-.423-1.86-.44-.363-.007-.742.002-.843.02m1.376 3.1c.272.138.573.445.709.722.085.174.098.255.098.62 0 .384-.01.44-.116.648-.15.297-.428.576-.704.707-.194.093-.27.105-.64.105s-.446-.012-.64-.105a1.65 1.65 0 0 1-.704-.707c-.106-.208-.116-.264-.116-.648 0-.365.013-.446.098-.62.173-.352.515-.664.878-.803q.144-.055.526-.045c.329.009.413.026.611.126m6.691 11.998.136.136v2.402l-.103.122a.6.6 0 0 1-.25.163c-.204.056-14.05.056-14.254 0a.6.6 0 0 1-.25-.163l-.103-.122v-2.402l.136-.136.136-.136h14.416z"/></svg>