<svg xmlns="http://www.w3.org/2000/svg" width="24" height="24" fill="none" stroke="currentColor" stroke-linecap="round" stroke-linejoin="round" stroke-width="3"><path fill="#000" fill-rule="evenodd" stroke="none" d="M5.516 3.577a1.54 1.54 0 0 0-1.001 1.257c-.022.162-.033 2.523-.026 5.869L4.5 16.3l.105.248c.25.595.761.938 1.395.938s1.145-.343 1.395-.938L7.5 16.3l.011-5.597c.007-3.346-.004-5.707-.026-5.869a1.51 1.51 0 0 0-.835-1.177c-.195-.099-.28-.116-.608-.125q-.382-.01-.526.045m6 0c-.557.213-.919.67-1.001 1.262-.023.164-.034 1.541-.027 3.369L10.5 11.3l.105.248c.25.595.761.938 1.395.938s1.145-.343 1.395-.938l.105-.248.012-3.092c.007-1.828-.004-3.205-.027-3.369a1.51 1.51 0 0 0-.835-1.182c-.195-.099-.28-.116-.608-.125q-.382-.01-.526.045m6 0c-.555.212-.919.67-1 1.255-.023.162-.033 3.115-.027 7.369L16.5 19.3l.105.248c.25.595.761.938 1.395.938s1.145-.343 1.395-.938l.105-.248.011-7.099c.006-4.254-.004-7.207-.027-7.369a1.5 1.5 0 0 0-.834-1.175c-.195-.099-.28-.116-.608-.125-.253-.007-.431.008-.526.045"/></svg>