<svg xmlns="http://www.w3.org/2000/svg" width="24" height="24" fill="none" stroke="currentColor" stroke-linecap="round" stroke-linejoin="round" stroke-width="3"><path fill="#000" fill-rule="evenodd" stroke="none" d="M14.72.503c-.055.01-.235.036-.4.059a8.3 8.3 0 0 0-2.256.704 7.5 7.5 0 0 0-2.168 1.552 7.8 7.8 0 0 0-2.197 4.085c-.185.908-.201 2.078-.041 2.916l.062.319-3.213 3.221C.894 16.98.935 16.933.666 17.787c-.158.503-.198 1.051-.175 2.421.022 1.338.036 1.427.292 1.946.212.43.662.869 1.105 1.08.557.265.566.266 2.612.266s2.055-.001 2.612-.266a2.48 2.48 0 0 0 1.121-1.122c.197-.415.238-.586.272-1.14l.026-.441.441-.026c.554-.034.725-.075 1.14-.272a2.47 2.47 0 0 0 1.121-1.121c.199-.419.24-.593.273-1.167l.026-.462.184-.026c.329-.047.897-.251 1.204-.432.165-.097.446-.304.624-.46l.325-.283.311.059c.508.097 1.306.138 1.886.097a8.01 8.01 0 0 0 7.182-5.858c.182-.647.239-1.065.26-1.9.017-.648.008-.916-.046-1.277-.224-1.526-.787-2.827-1.724-3.985C20.534 1.93 18.791.917 16.841.573c-.324-.057-1.892-.109-2.121-.07m1.56 3.019c1.114.179 1.992.626 2.782 1.416.985.985 1.457 2.133 1.458 3.547q0 1.967-1.374 3.423c-.415.44-.853.766-1.363 1.013-.789.383-1.439.536-2.263.535-.573 0-.76-.029-1.458-.223-.369-.103-.489-.119-.76-.104-.497.027-.677.132-1.362.795-.316.306-.58.557-.587.558s-.22.018-.473.036c-.734.054-1.156.243-1.665.746a1.9 1.9 0 0 0-.446.62c-.201.423-.242.596-.274 1.168l-.027.459-.524.018c-.779.026-1.188.2-1.729.735a1.9 1.9 0 0 0-.446.62c-.201.423-.242.596-.275 1.172l-.026.464H3.52v-1.897l3.554-3.562c3.835-3.842 3.71-3.703 3.807-4.227.045-.244.019-.407-.177-1.137-.388-1.438-.053-3.076.878-4.297.219-.287.731-.774 1.058-1.006a5.1 5.1 0 0 1 1.984-.85c.377-.068 1.292-.08 1.656-.022m-.34 2.052c-.451.149-.898.489-1.14.867-.388.604-.39 1.512-.003 2.114a1.99 1.99 0 0 0 1.703.937c.552 0 .969-.166 1.369-.544.43-.407.619-.848.619-1.448 0-.81-.417-1.457-1.168-1.816-.284-.136-.324-.144-.76-.153-.298-.006-.516.009-.62.043m1.083 1.088c.283.174.431.432.451.784.013.237 0 .305-.095.499-.349.713-1.379.724-1.748.018a.98.98 0 0 1 .418-1.341c.181-.092.251-.105.495-.094.232.011.319.035.479.134m-.771.416a.48.48 0 0 0-.174.67c.2.328.644.328.844 0a.49.49 0 0 0-.198-.686.45.45 0 0 0-.472.016"/></svg>