<svg xmlns="http://www.w3.org/2000/svg" width="24" height="24" fill="none" stroke="currentColor" stroke-linecap="round" stroke-linejoin="round" stroke-width="3"><path fill="#000" fill-rule="evenodd" stroke="none" d="M13.602.563a4.1 4.1 0 0 0-1.882.754c-.143.109-1.181 1.121-2.306 2.25-2.176 2.184-2.305 2.332-2.57 2.969-.229.551-.302.935-.299 1.584.002.49.018.639.104.96.119.448.291.842.519 1.193l.165.252-3.279 3.288C.462 17.415.607 17.25.518 17.834q-.045.294-.029 1.96l.016 1.666.11.332c.268.81.906 1.409 1.745 1.637.235.064.488.071 2.6.071H7.3l.248-.105q.6-.253.845-.847c.096-.234.103-.297.119-1.133l.017-.886.886-.017c.836-.016.899-.023 1.133-.119a1.5 1.5 0 0 0 .845-.845c.096-.234.103-.296.119-1.138l.018-.89h.205c.335-.001.711-.076.934-.188.115-.057.345-.229.511-.382l.302-.278.249.162q.52.339 1.189.517c.321.086.47.102.96.104.649.003 1.033-.07 1.584-.299.637-.265.785-.394 2.969-2.57 1.129-1.125 2.142-2.163 2.252-2.306.27-.354.534-.905.662-1.383.093-.346.106-.474.106-.997s-.013-.651-.106-.997a4.4 4.4 0 0 0-.662-1.383c-.11-.143-1.537-1.594-3.172-3.224-3.218-3.208-3.183-3.177-3.92-3.475a4.3 4.3 0 0 0-1.991-.258m.951 3.075c.189.098 5.736 5.656 5.831 5.842.097.191.097.649 0 .84-.098.192-3.842 3.943-4.044 4.052-.211.113-.655.12-.86.013-.196-.102-5.744-5.645-5.85-5.845-.112-.21-.119-.655-.014-.86.086-.168 3.832-3.937 4.004-4.029.276-.148.664-.153.933-.013m-1.037 1.939a1.52 1.52 0 0 0-.857 2.091c.091.201.329.455 1.773 1.9 1.445 1.444 1.699 1.682 1.9 1.773a1.502 1.502 0 0 0 2.009-2.009c-.091-.201-.325-.451-1.773-1.894-1.932-1.925-1.888-1.892-2.528-1.907-.246-.006-.431.01-.524.046m-2.276 8.91c0 .016-.373.034-.83.041-.825.012-.831.013-1.058.128a1.51 1.51 0 0 0-.834 1.154c-.02.138-.037.578-.037.978l-.001.728-.95.012-.95.012-.228.116a1.51 1.51 0 0 0-.834 1.154c-.02.138-.037.579-.037.98l-.001.73H3.52v-1.9l2.97-2.97 2.97-2.97.89.89c.489.489.89.902.89.917"/></svg>