<svg xmlns="http://www.w3.org/2000/svg" width="24" height="24" fill="none" stroke="currentColor" stroke-linecap="round" stroke-linejoin="round" stroke-width="3"><path fill="#000" fill-rule="evenodd" stroke="none" d="M20.516.577a2.3 2.3 0 0 0-.32.163c-.097.06-2.147 2.078-4.556 4.484l-4.38 4.375-.14-.086c-.23-.141-.838-.434-1.159-.559-1.251-.484-2.811-.57-4.181-.23-1.996.496-3.778 1.968-4.619 3.816a6.8 6.8 0 0 0-.646 2.94c-.001 1.916.7 3.615 2.045 4.96a6.84 6.84 0 0 0 4.94 2.045 6.84 6.84 0 0 0 4.94-2.045c.906-.906 1.491-1.926 1.836-3.2.279-1.029.279-2.451 0-3.48-.172-.637-.453-1.32-.731-1.78l-.144-.24 1.047-1.048 1.048-1.048.702.689c.791.776 1.067.979 1.536 1.132a2.6 2.6 0 0 0 1.529.001c.545-.178.735-.331 2.077-1.68 1.293-1.299 1.41-1.443 1.613-1.976.09-.238.102-.333.104-.79.003-.554-.035-.732-.247-1.16-.143-.289-.307-.481-1.024-1.208l-.64-.649.552-.567c.595-.612.724-.813.779-1.218A1.5 1.5 0 0 0 21.65.657c-.195-.099-.28-.116-.608-.125-.253-.007-.431.008-.526.045M19.44 6.58l.419.42-.679.68-.679.68-.431-.43-.43-.429.669-.67c.369-.369.68-.671.691-.671.012 0 .21.189.44.42M8.272 11.584c1.188.245 2.207 1 2.753 2.041.354.674.475 1.23.443 2.033-.031.761-.174 1.269-.525 1.863-.593 1.004-1.648 1.737-2.763 1.92a5.3 5.3 0 0 1-1.36 0c-.904-.148-1.827-.693-2.418-1.426A3.85 3.85 0 0 1 3.52 15.5c0-.96.287-1.778.882-2.513a4.03 4.03 0 0 1 2.318-1.405c.363-.078 1.172-.077 1.552.002"/></svg>