<svg xmlns="http://www.w3.org/2000/svg" width="24" height="24" fill="none" stroke="currentColor" stroke-linecap="round" stroke-linejoin="round" stroke-width="3"><path fill="#000" fill-rule="evenodd" stroke="none" d="M3.44 2.547A3.56 3.56 0 0 0 .552 5.388c-.076.398-.076 12.826 0 13.224.221 1.168 1.036 2.177 2.116 2.617.719.293-.04.271 9.332.271 7.775 0 8.442-.005 8.71-.068a3.7 3.7 0 0 0 1.798-1.004c.573-.6.883-1.272.971-2.111.053-.509.053-12.125 0-12.634-.154-1.464-1.103-2.61-2.526-3.052l-.293-.091-8.56-.005c-4.708-.002-8.605.003-8.66.012m16.904 3.109.136.136v4.725H3.52V5.792l.136-.136.136-.136h16.416zm-14.828.922c-.366.136-.71.444-.864.774a1.5 1.5 0 0 0 1.158 2.13c.138.02 1.123.036 2.19.036s2.052-.016 2.19-.036a1.494 1.494 0 0 0 1.287-1.7 1.51 1.51 0 0 0-.829-1.126l-.228-.116-2.38-.008c-1.91-.006-2.409.003-2.524.046m8-.001c-1.049.399-1.349 1.701-.571 2.478.58.58 1.53.583 2.107.007a1.47 1.47 0 0 0 0-2.124c-.292-.292-.55-.395-1.012-.407-.247-.006-.431.01-.524.046m4 0c-1.049.399-1.349 1.701-.571 2.478.58.58 1.53.583 2.107.007a1.47 1.47 0 0 0 0-2.124c-.292-.292-.55-.395-1.012-.407-.247-.006-.431.01-.524.046M4.487 14.91l.015 1.39.104.248c.248.594.76.938 1.394.938s1.146-.344 1.394-.938l.104-.248.015-1.39.014-1.39h.946l.014 1.39.015 1.39.104.248c.248.594.76.938 1.394.938s1.146-.344 1.394-.938l.104-.248.015-1.39.014-1.39h.946l.014 1.39.015 1.39.104.248c.248.594.76.938 1.394.938s1.146-.344 1.394-.938l.104-.248.015-1.39.014-1.39h.946l.014 1.39.015 1.39.104.248c.248.594.76.938 1.394.938s1.146-.344 1.394-.938l.104-.248.015-1.39.014-1.39h.953v4.674l-.103.122a.6.6 0 0 1-.25.163c-.204.056-16.05.056-16.254 0a.6.6 0 0 1-.25-.163l-.103-.122V13.52h.953z"/></svg>