<svg xmlns="http://www.w3.org/2000/svg" width="24" height="24" fill="none" stroke="currentColor" stroke-linecap="round" stroke-linejoin="round" stroke-width="3"><path fill="#000" fill-rule="evenodd" stroke="none" d="M1.516.577C.825.841.426 1.502.523 2.218c.048.352.193.608.572 1.009l.346.366-.222.294C.803 4.434.588 5.002.518 5.733.489 6.036.48 8.161.49 12.32c.012 5.468.021 6.169.078 6.401.339 1.38 1.328 2.372 2.702 2.709.246.061.974.068 8.188.079l7.917.013.871.861c.94.928 1.087 1.033 1.536 1.094 1.2.163 2.067-1.029 1.56-2.145-.095-.21-1.076-1.202-10.274-10.395C1.635-.49 2.738.551 2.042.532c-.253-.007-.431.008-.526.045M14.56 2.52l-5.3.02-.196.1c-.31.158-.566.413-.713.712-.12.244-.131.298-.131.647 0 .33.014.412.107.61a1.52 1.52 0 0 0 1.153.869c.169.027 2.1.042 5.494.042h5.234l.136.136.136.136.001 5.274c0 2.921.017 5.385.037 5.524.049.341.192.633.42.862.89.889 2.363.39 2.544-.862.052-.356.048-10.477-.004-10.93-.194-1.703-1.425-2.927-3.157-3.139a3 3 0 0 0-.4-.031c-.034.005-2.446.018-5.361.03M4.781 7.126c-.273.325-.351.98-.169 1.429.156.387.446.677.833.833.449.182 1.104.104 1.428-.169l.113-.094.706.707.707.708h-.41c-.372 0-.43.011-.637.116-.93.471-1.133 1.673-.407 2.399.58.58 1.53.583 2.107.007.345-.345.524-.87.437-1.279l-.042-.196 1.457 1.457L12.36 14.5l-2.89.02-2.89.02-.228.116a1.51 1.51 0 0 0-.829 1.126 1.494 1.494 0 0 0 1.287 1.7c.138.02 2.122.037 4.411.037l4.16.001.499.5.499.5h-6.18c-4.091 0-6.229-.014-6.326-.041a.6.6 0 0 1-.25-.163l-.103-.122V12.02c0-3.395.012-6.204.026-6.241.02-.052.171.078.677.584l.652.651zm8.735-.549c-1.049.399-1.349 1.701-.571 2.478.58.58 1.53.583 2.107.007a1.47 1.47 0 0 0 0-2.124c-.292-.292-.55-.395-1.012-.407-.247-.006-.431.01-.524.046m4 0c-1.049.399-1.349 1.701-.571 2.478.58.58 1.53.583 2.107.007a1.47 1.47 0 0 0 0-2.124c-.292-.292-.55-.395-1.012-.407-.247-.006-.431.01-.524.046"/></svg>