<svg xmlns="http://www.w3.org/2000/svg" width="24" height="24" fill="none" stroke="currentColor" stroke-linecap="round" stroke-linejoin="round" stroke-width="3"><path fill="#000" fill-rule="evenodd" stroke="none" d="M11.516.577a1.54 1.54 0 0 0-.998 1.233c-.02.138-.037 1.028-.037 1.979l-.001 1.729-2.45.011-2.45.011-.233.118c-.136.069-.32.212-.44.342-.197.213-.306.447-2.278 4.886C1.206 14.088.546 15.615.523 15.764a1.5 1.5 0 0 0 1.287 1.718c.138.02 1.477.037 2.977.037l2.727.001.046.23c.216 1.081.699 1.945 1.454 2.603.881.769 1.83 1.127 2.986 1.127s2.105-.358 2.986-1.127c.755-.658 1.238-1.522 1.454-2.603l.046-.23h2.747c1.591 0 2.847-.017 2.985-.039.816-.134 1.391-.909 1.262-1.701-.028-.17-.605-1.511-2.109-4.896C19.399 6.447 19.29 6.213 19.093 6a1.8 1.8 0 0 0-.44-.342l-.233-.118-2.45-.011-2.45-.011-.001-1.729c0-.951-.017-1.841-.037-1.979A1.51 1.51 0 0 0 12.65.657c-.195-.099-.28-.116-.608-.125q-.382-.01-.526.045m6.817 10.873a661 661 0 0 1 1.328 2.999c.025.064-.413.068-7.661.068s-7.686-.004-7.661-.068c.014-.038.612-1.387 1.328-2.999l1.302-2.93h10.062zm-4.961 6.14c-.101.272-.411.593-.732.757-.2.103-.258.113-.64.113s-.44-.01-.64-.113a1.7 1.7 0 0 1-.617-.547c-.193-.305-.305-.28 1.257-.28 1.314 0 1.396.004 1.372.07"/></svg>