<svg xmlns="http://www.w3.org/2000/svg" width="24" height="24" fill="none" stroke="currentColor" stroke-linecap="round" stroke-linejoin="round" stroke-width="3"><path fill="#000" fill-rule="evenodd" stroke="none" d="M8.54.575a1.54 1.54 0 0 0-.663.454c-.159.177-.343.585-1.75 3.868-.972 2.268-1.586 3.75-1.606 3.877-.129.819.451 1.587 1.289 1.708.138.02 1.245.037 2.46.037l2.21.001v9.996l-.95.012-.95.012-.228.116a1.51 1.51 0 0 0-.829 1.126 1.494 1.494 0 0 0 1.287 1.7c.326.047 6.054.047 6.38 0a1.494 1.494 0 0 0 1.287-1.7 1.51 1.51 0 0 0-.829-1.126l-.228-.116-.95-.013-.95-.012V10.52h2.23c1.256 0 2.334-.017 2.468-.039.454-.075.916-.397 1.108-.772.129-.254.198-.659.156-.919-.025-.148-.568-1.465-1.609-3.895-1.513-3.531-1.581-3.68-1.78-3.895a1.8 1.8 0 0 0-.44-.342L15.42.54 12.06.532C9.438.526 8.665.536 8.54.575m6.312 4.887c.458 1.067.842 1.967.854 1.999.019.049-.482.057-3.706.057s-3.725-.008-3.706-.057c.012-.032.396-.932.854-1.999l.831-1.942h4.042z"/></svg>