<svg xmlns="http://www.w3.org/2000/svg" width="24" height="24" fill="none" stroke="currentColor" stroke-linecap="round" stroke-linejoin="round" stroke-width="3"><path fill="#000" fill-rule="evenodd" stroke="none" d="M3.516 1.577c-.554.209-.919.67-1.001 1.262-.023.164-.034 1.541-.027 3.369L2.5 9.3l.105.248c.057.137.156.308.22.381.204.234.373.359.627.466l.248.105 1.36-.002c1.117-.001 1.412-.013 1.65-.067 1.289-.295 2.276-1.214 2.649-2.469a2 2 0 0 0 .081-.356V7.52h2.768l.136.136.136.136v3.723l-.95.012-.95.013-.233.118c-.136.069-.32.212-.44.342-.199.215-.267.364-1.78 3.896-.971 2.268-1.586 3.751-1.606 3.878-.129.819.451 1.587 1.289 1.708.346.05 12.102.049 12.408-.001.454-.075.916-.397 1.108-.772.129-.254.198-.659.156-.919-.025-.148-.568-1.465-1.609-3.895-1.513-3.531-1.581-3.68-1.78-3.895a1.8 1.8 0 0 0-.44-.342l-.233-.118-.95-.013-.95-.012-.001-1.728c0-1.819-.029-2.311-.16-2.751a3.54 3.54 0 0 0-2.406-2.403c-.275-.083-.393-.089-1.893-.111L9.46 4.5l-.013-.1a4 4 0 0 0-.09-.366c-.339-1.16-1.225-2.044-2.404-2.401-.277-.083-.377-.089-1.793-.099-1.19-.009-1.53 0-1.644.043m2.828 3.079.136.136v2.402l-.103.122c-.12.142-.307.203-.627.204h-.23v-3h.344c.338 0 .346.002.48.136m10.508 11.806c.458 1.067.842 1.967.854 2 .02.051-.454.058-3.706.058s-3.726-.007-3.706-.058c.012-.033.396-.933.854-2l.831-1.942h4.042z"/></svg>