<svg xmlns="http://www.w3.org/2000/svg" width="24" height="24" fill="none" stroke="currentColor" stroke-linecap="round" stroke-linejoin="round" stroke-width="3"><path fill="#000" fill-rule="evenodd" stroke="none" d="M10.516.577c-.322.123-.563.338-2.124 1.898-1.765 1.764-1.801 1.808-1.869 2.307-.071.522.081.924.528 1.398l.302.32-2.271 2.28c-1.385 1.391-2.313 2.352-2.378 2.466a2 2 0 0 0-.166.47c-.103.495-.075.571 1.039 2.799.542 1.083.975 1.986.962 2.007s-.064.038-.112.038c-.165 0-.671.161-.96.306a3.5 3.5 0 0 0-1.843 2.222c-.111.39-.153 1.042-.136 2.152.015 1.03.019 1.067.119 1.308q.246.594.845.847l.248.105h8.6l.248-.105q.6-.253.845-.847c.1-.241.104-.278.119-1.308.018-1.157-.025-1.775-.152-2.202a3.46 3.46 0 0 0-1.827-2.172c-.533-.267-.772-.314-1.733-.342l-.86-.024-1.053-2.096-1.054-2.097 1.833-1.833 1.833-1.833.088.089c.068.069.307.856 1.012 3.33.508 1.782.962 3.348 1.01 3.48.12.334.513.73.851.858.479.182 1.03.1 1.446-.215.129-.098 2.056-2.001 4.282-4.23 3.608-3.612 4.059-4.078 4.154-4.285.336-.737.082-1.57-.602-1.969-.092-.054-1.605-.506-3.54-1.059l-3.38-.965-1.46-1.449C11.66.54 11.673.549 11.042.532q-.382-.01-.526.045m.924 4.003.419.42-.429.43-.43.43-.43-.43-.429-.43.419-.42c.23-.231.428-.42.44-.42s.21.189.44.42m5.111 2.709 1.572.448-2.192 2.192c-1.205 1.205-2.196 2.177-2.201 2.16-.006-.017-.243-.84-.526-1.83l-.516-1.799.881-.886.882-.885.264.076zM9.344 19.656c.135.135.136.139.136.5v.364H4.52v-.364c0-.361.001-.365.136-.5l.136-.136h4.416z"/></svg>