<svg xmlns="http://www.w3.org/2000/svg" width="24" height="24" fill="none" stroke="currentColor" stroke-linecap="round" stroke-linejoin="round" stroke-width="3"><path fill="#000" fill-rule="evenodd" stroke="none" d="M10.54 2.575a1.54 1.54 0 0 0-.663.454c-.159.177-.343.585-1.75 3.868-.972 2.268-1.586 3.75-1.606 3.877-.129.819.451 1.587 1.289 1.708.138.02 1.245.037 2.46.037l2.21.001v3.674l-.103.122a.6.6 0 0 1-.25.163c-.227.063-2.646.055-2.663-.009l-.082-.33c-.295-1.199-1.229-2.156-2.45-2.51-.3-.086-.373-.09-1.832-.09H3.58l-.228.116c-.473.239-.763.65-.837 1.183-.023.164-.034 1.541-.027 3.369L2.5 21.3l.105.248q.25.597.847.847l.248.105 1.36-.002c1.512-.002 1.658-.019 2.276-.271.783-.319 1.51-1.016 1.842-1.766.118-.267.262-.735.262-.851 0-.08.024-.082 1.51-.101 1.662-.022 1.784-.036 2.386-.282.783-.319 1.51-1.017 1.842-1.766.302-.684.34-1.045.341-3.231l.001-1.71h2.23c1.256 0 2.334-.017 2.468-.039.454-.075.916-.397 1.108-.772.129-.254.198-.659.156-.919-.025-.148-.568-1.465-1.609-3.895-1.513-3.531-1.581-3.68-1.78-3.895a1.8 1.8 0 0 0-.44-.342l-.233-.118-3.36-.008c-2.622-.006-3.395.004-3.52.043m6.312 4.887c.458 1.067.842 1.967.854 1.999.019.049-.482.057-3.706.057s-3.725-.008-3.706-.057c.012-.032.396-.932.854-1.999l.831-1.942h4.042zM6.344 16.656l.136.136v2.402l-.103.122c-.12.142-.307.203-.627.204h-.23v-3h.344c.338 0 .346.002.48.136"/></svg>