<svg xmlns="http://www.w3.org/2000/svg" width="24" height="24" fill="none" stroke="currentColor" stroke-linecap="round" stroke-linejoin="round" stroke-width="3"><path fill="#000" fill-rule="evenodd" stroke="none" d="M7.52.587a1.6 1.6 0 0 0-.69.487c-.123.152-.529 1.133-2.235 5.399L2.51 11.686l.002.312c.002.636.346 1.147.94 1.397l.248.105 3.39.012 3.39.011v2.987l-.57.021c-.645.023-.973.099-1.443.335a3.5 3.5 0 0 0-1.843 2.222c-.111.39-.153 1.042-.136 2.152.015 1.03.019 1.067.119 1.308q.246.594.845.847l.248.105h8.6l.248-.105q.6-.253.845-.847c.1-.241.104-.278.119-1.308.018-1.157-.025-1.775-.152-2.202a3.46 3.46 0 0 0-1.827-2.172c-.47-.236-.798-.312-1.443-.335l-.57-.021v-2.99h3.23c1.857 0 3.329-.017 3.463-.039a1.49 1.49 0 0 0 1.249-1.192c.044-.209.047-.322.014-.507-.025-.142-.87-2.307-2.099-5.38-2.21-5.525-2.14-5.37-2.537-5.633-.398-.263-.122-.249-4.851-.247-3.794.002-4.31.009-4.469.065m8.856 6.393a256 256 0 0 1 1.384 3.499c0 .026-2.009.04-5.76.04s-5.76-.014-5.76-.04c0-.021.623-1.596 1.384-3.499l1.384-3.46h5.984zm-2.032 12.676c.135.135.136.139.136.5v.364H9.52v-.364c0-.361.001-.365.136-.5l.136-.136h4.416z"/></svg>