<svg xmlns="http://www.w3.org/2000/svg" width="24" height="24" fill="none" stroke="currentColor" stroke-linecap="round" stroke-linejoin="round" stroke-width="3"><path fill="#000" fill-rule="evenodd" stroke="none" d="M11.536.577c-.238.074-8.403 5.186-8.608 5.389-.567.562-.56 1.513.017 2.089.233.234.526.378.865.427.348.051 16.101.049 16.408-.001 1.196-.196 1.698-1.662.86-2.509-.213-.215-8.377-5.322-8.63-5.398-.224-.067-.693-.066-.912.003m1.846 4.053c.734.457 1.335.844 1.336.86s-1.222.03-2.718.03-2.719-.014-2.718-.03c.002-.041 2.645-1.687 2.712-1.688.03-.001.655.372 1.388.828M5.516 9.577c-.557.213-.919.67-1.001 1.261-.023.163-.034 1.736-.027 3.869L4.5 18.3l.105.248c.25.595.761.938 1.395.938s1.145-.343 1.395-.938L7.5 18.3l.012-3.593c.007-2.133-.004-3.706-.027-3.869a1.5 1.5 0 0 0-.835-1.181c-.195-.099-.28-.116-.608-.125q-.382-.01-.526.045m4 0c-.557.213-.919.67-1.001 1.261-.023.163-.034 1.736-.027 3.869L8.5 18.3l.105.248c.25.595.761.938 1.395.938s1.145-.343 1.395-.938l.105-.248.012-3.593c.007-2.133-.004-3.706-.027-3.869a1.5 1.5 0 0 0-.835-1.181c-.195-.099-.28-.116-.608-.125q-.382-.01-.526.045m4 0c-.557.213-.919.67-1.001 1.261-.023.163-.034 1.736-.027 3.869L12.5 18.3l.105.248c.25.595.761.938 1.395.938s1.145-.343 1.395-.938l.105-.248.012-3.593c.007-2.133-.004-3.706-.027-3.869a1.5 1.5 0 0 0-.835-1.181c-.195-.099-.28-.116-.608-.125q-.382-.01-.526.045m4 0c-.557.213-.919.67-1.001 1.261-.023.163-.034 1.736-.027 3.869L16.5 18.3l.105.248c.25.595.761.938 1.395.938s1.145-.343 1.395-.938l.105-.248.012-3.593c.007-2.133-.004-3.706-.027-3.869a1.5 1.5 0 0 0-.835-1.181c-.195-.099-.28-.116-.608-.125-.253-.007-.431.008-.526.045m-15 11.002c-.365.134-.71.443-.864.773a1.5 1.5 0 0 0 1.158 2.13c.143.021 4.083.036 9.19.036s9.047-.015 9.19-.036a1.494 1.494 0 0 0 1.287-1.7 1.51 1.51 0 0 0-.829-1.126l-.228-.116-9.38-.007c-7.731-.006-9.405.002-9.524.046"/></svg>