<svg xmlns="http://www.w3.org/2000/svg" width="24" height="24" fill="none" stroke="currentColor" stroke-linecap="round" stroke-linejoin="round" stroke-width="3"><path fill="#000" fill-rule="evenodd" stroke="none" d="M11.491.596a1.58 1.58 0 0 0-.902.884l-.089.22v10.6l.105.248c.25.595.761.938 1.395.938s1.145-.343 1.395-.938l.105-.248.013-1.691.013-1.691 2.667-1.336c2.909-1.457 2.932-1.472 3.141-1.913.286-.605.179-1.26-.283-1.724-.169-.171-.555-.375-3.402-1.799L12.438.54l-.369-.01c-.285-.008-.417.007-.578.066M14.6 5c0 .012-.243.142-.54.29l-.54.27V4.44l.54.27c.297.148.54.278.54.29m-6.906 5.52c-.19.04-.353.118-.914.44-.22.127-.544.311-.72.409-1.22.682-4.428 2.54-4.585 2.655-.978.717-1.263 2.161-.64 3.236.165.284.415.555.699.756.304.215 8.563 4.938 9.006 5.149.913.436 1.99.437 2.915.001.369-.174 8.645-4.896 8.989-5.129 1.039-.704 1.363-2.186.721-3.298a2.5 2.5 0 0 0-.755-.792c-.232-.156-1.439-.848-5.07-2.907-.418-.237-.83-.453-.915-.48-.095-.03-.287-.043-.5-.032-.439.023-.711.145-1 .451a1.45 1.45 0 0 0-.298 1.612c.032.076.052.143.045.15s-.611.355-1.343.774l-1.329.76-1.329-.76c-.732-.419-1.335-.765-1.341-.771a1.4 1.4 0 0 1 .074-.247 1.484 1.484 0 0 0-.863-1.893c-.254-.095-.621-.132-.847-.084m-.003 4.746a37 37 0 0 1 1.217.71c.037.033-.253.216-1.167.737-.668.382-1.241.688-1.272.68-.08-.019-2.429-1.365-2.429-1.391.001-.026 2.406-1.402 2.451-1.402.016 0 .556.3 1.2.666m11.054.024c.668.38 1.215.7 1.215.712 0 .026-2.348 1.372-2.426 1.391-.091.022-2.508-1.38-2.447-1.419.188-.122 2.38-1.37 2.409-1.372.019-.001.582.308 1.249.688m-5.471 3.167 1.213.695-.273.159c-1.645.954-2.068 1.18-2.213 1.18-.123 0-.372-.126-1.297-.654-.63-.36-1.14-.668-1.134-.686.016-.048 2.362-1.389 2.43-1.389.033 0 .606.313 1.274.695"/></svg>