<svg xmlns="http://www.w3.org/2000/svg" width="24" height="24" fill="none" stroke="currentColor" stroke-linecap="round" stroke-linejoin="round" stroke-width="3"><path fill="#000" fill-rule="evenodd" stroke="none" d="M6.516.577c-.688.26-1.09.925-.993 1.641.082.602.59 1.143 1.177 1.252.088.017-1.028.039-2.48.05l-2.64.02-.228.116a1.51 1.51 0 0 0-.829 1.126 1.494 1.494 0 0 0 1.287 1.7c.138.02.835.038 1.55.04 1.13.003 1.281.011 1.156.057a1.52 1.52 0 0 0-.861 2.08c.08.177.267.39.9 1.032l.8.809-1.297 1.304c-1.092 1.098-1.314 1.341-1.401 1.532a1.502 1.502 0 0 0 2.007 2.007c.192-.087.433-.309 1.532-1.401L7.5 12.644l1.304 1.298c1.098 1.092 1.341 1.314 1.532 1.401a1.502 1.502 0 0 0 2.007-2.007c-.087-.191-.309-.434-1.401-1.532L9.645 10.5l.768-.78.767-.78.8-1.209.8-1.209.58-.002c.987-.003 1.326-.096 1.695-.465a1.492 1.492 0 0 0-.275-2.328c-.339-.214-.284-.211-3.58-.212-2.706-.001-3.036-.007-2.85-.057.304-.081.484-.185.705-.404.727-.721.522-1.928-.407-2.398L8.42.54 7.54.531c-.663-.006-.916.005-1.024.046M9.16 6.543c0 .091-.354.501-.954 1.106l-.703.709-.762-.753c-.747-.74-.968-.92-1.257-1.026-.123-.046.13-.054 1.766-.056 1.05-.002 1.91.007 1.91.02m7.34 4.047c-.286.126-.397.199-.574.376-.148.148-.556.939-2.771 5.374-1.928 3.858-2.608 5.256-2.637 5.418-.076.427.104.985.416 1.288.226.218.44.339.741.416.306.078.653.033.995-.129.418-.197.498-.32 1.413-2.143l.838-1.67h4.158l.838 1.67c.915 1.823.995 1.946 1.413 2.143.342.162.689.207.995.129a1.5 1.5 0 0 0 1.151-1.259c.026-.158.027-.326.004-.456-.026-.148-.783-1.7-2.635-5.407-2.856-5.717-2.706-5.449-3.201-5.688-.294-.141-.89-.173-1.144-.062m.791 5.35c.148.298.269.55.269.56s-.252.02-.56.02-.56-.009-.56-.02c0-.04.539-1.1.56-1.1.012 0 .143.243.291.54"/></svg>