<svg xmlns="http://www.w3.org/2000/svg" width="24" height="24" fill="none" stroke="currentColor" stroke-linecap="round" stroke-linejoin="round" stroke-width="3"><path fill="#000" fill-rule="evenodd" stroke="none" d="M5.44 3.547c-1.195.205-2.264 1.061-2.684 2.149-.264.684-.249.391-.274 5.444l-.022 4.6-.606 1.204c-.695 1.381-.759 1.575-.723 2.191.037.651.269 1.165.736 1.638.278.281.736.546 1.136.656.242.067.749.071 8.977.071 8.402 0 8.73-.003 9-.075.424-.114.87-.366 1.153-.652.467-.473.699-.987.736-1.638.036-.615-.028-.808-.733-2.222l-.616-1.235-.001-4.309c0-2.566-.016-4.461-.04-4.686-.154-1.464-1.104-2.611-2.526-3.052l-.293-.09-6.56-.006c-3.608-.002-6.605.003-6.66.012m12.904 3.109.136.136v7.728H5.52V6.792l.136-.136.136-.136h12.416zm.976 11.343c.132.264.24.489.24.5s-3.402.021-7.56.021-7.56-.009-7.56-.021c0-.011.108-.236.24-.5l.241-.479h14.158z"/></svg>