<svg xmlns="http://www.w3.org/2000/svg" width="24" height="24" fill="none" stroke="currentColor" stroke-linecap="round" stroke-linejoin="round" stroke-width="3"><path fill="#000" fill-rule="evenodd" stroke="none" d="M4.44 2.547a3.56 3.56 0 0 0-2.888 2.841c-.075.396-.075 8.828 0 9.224.221 1.168 1.036 2.177 2.116 2.617.716.292.076.271 8.332.271 6.835 0 7.443-.005 7.71-.068 1.537-.359 2.605-1.561 2.769-3.115.053-.502.053-8.132 0-8.634-.154-1.464-1.103-2.611-2.526-3.052l-.293-.091-7.56-.005c-4.158-.002-7.605.003-7.66.012m14.904 3.109.136.136v8.402l-.103.122a.6.6 0 0 1-.25.163c-.204.056-14.05.056-14.254 0a.6.6 0 0 1-.25-.163l-.103-.122V5.792l.136-.136.136-.136h14.416zM1.516 18.579c-.365.134-.71.443-.864.773a1.5 1.5 0 0 0 1.158 2.13c.331.048 20.049.048 20.38 0a1.494 1.494 0 0 0 1.287-1.7 1.51 1.51 0 0 0-.829-1.126l-.228-.116-10.38-.007c-8.563-.006-10.405.002-10.524.046"/></svg>