<svg xmlns="http://www.w3.org/2000/svg" width="24" height="24" fill="none" stroke="currentColor" stroke-linecap="round" stroke-linejoin="round" stroke-width="3"><path fill="#000" fill-rule="evenodd" stroke="none" d="M10.533.582C7.612.901 5.042 2.067 3.149 3.931 1.719 5.34.799 7.155.558 9.04c-.212 1.664.2 3.603 1.082 5.096l.194.329-.135.398c-.353 1.036-.209 2.186.385 3.064.33.488.824.932 1.326 1.191l.198.102.092.36c.236.921.66 1.776 1.238 2.496.256.319.8.848 1.104 1.075.42.314.821.412 1.267.308a1.38 1.38 0 0 0 .785-.457c.322-.344.446-.734.381-1.199-.06-.43-.183-.628-.682-1.091-.48-.446-.705-.732-.929-1.178-.212-.424-.212-.426.129-.664l.294-.205.459.151a12.5 12.5 0 0 0 1.69.442c.469.091.563.098.779.059.512-.093.92-.404 1.138-.868.092-.198.107-.28.107-.609s-.015-.411-.106-.607c-.245-.523-.612-.766-1.403-.93-.527-.109-1.1-.264-1.328-.359-.126-.053-.131-.064-.154-.336-.114-1.355-1.159-2.581-2.537-2.977-.258-.074-.413-.089-.892-.09a6 6 0 0 0-.705.027c-.121.027-.131.019-.247-.2a5.2 5.2 0 0 1-.437-1.162c-.103-.399-.11-.477-.108-1.226.002-.732.011-.833.105-1.183.365-1.351 1.161-2.481 2.397-3.405 1.219-.911 2.56-1.466 4.255-1.76.46-.08.656-.09 1.7-.09s1.24.01 1.7.09c1.695.294 3.036.849 4.255 1.76 1.555 1.162 2.449 2.701 2.514 4.328.025.632-.021 1.036-.194 1.703-.154.595-.142.822.066 1.245a1.477 1.477 0 0 0 1.957.689c.463-.218.737-.611.917-1.317.509-1.995.316-3.84-.592-5.663a8.8 8.8 0 0 0-1.77-2.443C18.962 2.062 16.373.894 13.42.58c-.69-.073-2.209-.072-2.887.002m3.456 9.297c-.488.088-1.066.517-1.281.95-.217.436-.208.18-.208 5.871v5.28l.091.253c.179.494.506.873.939 1.085a1.81 1.81 0 0 0 1.58.003c.438-.205.593-.394 1.77-2.16l1.093-1.641 1.923-.001c2.075 0 2.215-.012 2.619-.217.676-.342 1.107-1.195.967-1.91a1.94 1.94 0 0 0-.465-.94c-.18-.191-7.36-6.078-7.697-6.312-.322-.223-.906-.338-1.331-.261m3.171 5.623 1.22.998-.8.023c-.647.018-.831.036-.96.094-.316.141-.539.345-.788.718a9 9 0 0 1-.277.403c-.02.021-.035-.75-.035-1.775V14.15l.21.177c.115.098.759.627 1.43 1.175m-11.816.154c.12.12.136.161.136.344s-.016.224-.136.344-.161.136-.344.136c-.302 0-.48-.178-.48-.48s.178-.48.48-.48c.183 0 .224.016.344.136"/></svg>