<svg xmlns="http://www.w3.org/2000/svg" width="24" height="24" fill="none" stroke="currentColor" stroke-linecap="round" stroke-linejoin="round" stroke-width="3"><path fill="#000" fill-rule="evenodd" stroke="none" d="M10.531.58C8.111.855 6.022 1.662 4.22 3.018 2.475 4.331 1.225 6.148.739 8.08c-.473 1.879-.227 3.917.687 5.713.138.271.285.538.326.595.073.1.072.106-.057.487-.349 1.023-.202 2.178.389 3.052.33.488.824.932 1.326 1.191l.198.102.092.36c.236.921.66 1.776 1.238 2.496.256.319.8.848 1.104 1.075.42.314.821.412 1.267.308a1.38 1.38 0 0 0 .785-.457c.322-.344.446-.734.381-1.199-.06-.43-.183-.628-.682-1.091-.479-.446-.707-.735-.925-1.172-.225-.454-.228-.426.078-.64l.27-.188.463.144c.968.302 1.851.487 2.821.588.566.06 2.276.059 2.82-.001 2.204-.241 4.162-.916 5.815-2.004 2.124-1.397 3.574-3.337 4.128-5.524a8.2 8.2 0 0 0 0-3.83 8.96 8.96 0 0 0-1.775-3.445c-1.8-2.154-4.511-3.572-7.688-4.022-.641-.091-2.604-.114-3.269-.038m2.71 3.001c1.817.22 3.329.8 4.678 1.794 1.325.975 2.258 2.38 2.499 3.76a6.3 6.3 0 0 1 0 1.73c-.358 2.056-2.159 3.985-4.596 4.923-1.263.487-2.45.699-3.922.701-1.164.002-1.907-.096-2.991-.395-.435-.12-.407-.088-.446-.53-.117-1.322-1.172-2.544-2.531-2.932-.254-.073-.417-.089-.872-.091-.308 0-.634.012-.724.029l-.164.029-.182-.389c-.326-.696-.432-1.169-.459-2.03-.031-1 .121-1.67.576-2.546.975-1.877 3.155-3.378 5.664-3.897 1.039-.216 2.458-.279 3.47-.156M5.344 15.656c.12.12.136.161.136.344s-.016.224-.136.344-.161.136-.344.136c-.302 0-.48-.178-.48-.48s.178-.48.48-.48c.183 0 .224.016.344.136"/></svg>