<svg xmlns="http://www.w3.org/2000/svg" width="24" height="24" fill="none" stroke="currentColor" stroke-linecap="round" stroke-linejoin="round" stroke-width="3"><path fill="#000" fill-rule="evenodd" stroke="none" d="M10.82.563A11.515 11.515 0 0 0 .739 9.671a11.8 11.8 0 0 0 0 4.658 11.52 11.52 0 0 0 8.932 8.932c1.501.309 3.157.309 4.658 0a11.53 11.53 0 0 0 8.932-8.932 11.8 11.8 0 0 0 0-4.658C22.306 5.036 18.563 1.433 13.9.663c-.846-.14-2.244-.185-3.08-.1m2.6 3.054c2.416.447 4.406 1.764 5.73 3.791 1.617 2.478 1.777 5.808.406 8.476a8.75 8.75 0 0 1-3.078 3.344c-.929.579-2.156 1.023-3.298 1.194-.591.088-1.769.088-2.36 0-1.86-.279-3.49-1.094-4.802-2.402-1.289-1.285-2.06-2.766-2.405-4.62-.102-.545-.102-2.255 0-2.8.455-2.445 1.759-4.421 3.795-5.75 1.057-.69 2.201-1.094 3.692-1.306.306-.043 1.974.01 2.32.073m-4.904 3.96c-1.049.399-1.349 1.701-.571 2.478.58.58 1.53.583 2.107.007a1.47 1.47 0 0 0 0-2.124c-.292-.292-.55-.395-1.012-.407-.247-.006-.431.01-.524.046m6 0c-1.049.399-1.349 1.701-.571 2.478.58.58 1.53.583 2.107.007a1.47 1.47 0 0 0 0-2.124c-.292-.292-.55-.395-1.012-.407-.247-.006-.431.01-.524.046m-9.023 4.017c-.49.17-.888.649-.97 1.169-.105.667.43 2.279 1.096 3.301a7.53 7.53 0 0 0 5.261 3.361c.553.082 1.687.082 2.24 0a7.53 7.53 0 0 0 5.261-3.361c.647-.993 1.192-2.604 1.1-3.254a1.5 1.5 0 0 0-.833-1.154l-.228-.116-6.36-.009c-6.024-.008-6.371-.005-6.567.063m10.279 2.983c-.095.169-.507.617-.78.847-.974.822-2.117 1.173-3.443 1.057-.985-.087-1.731-.39-2.483-1.01-.3-.247-.738-.712-.831-.881-.036-.066.155-.07 3.766-.07 3.282 0 3.799.008 3.771.057"/></svg>