<svg xmlns="http://www.w3.org/2000/svg" width="24" height="24" fill="none" stroke="currentColor" stroke-linecap="round" stroke-linejoin="round" stroke-width="3"><path fill="#000" fill-rule="evenodd" stroke="none" d="M11.28.582a4 4 0 0 0-.44.122c-.519.191-9.016 4.088-9.248 4.242A2.5 2.5 0 0 0 .634 6.2c-.081.225-.094.333-.092.8.001.463.014.576.094.794A2.54 2.54 0 0 0 1.9 9.23c.68.342 8.811 4.021 9.076 4.107a3.55 3.55 0 0 0 2.104-.015c.31-.104 8.379-3.749 9.08-4.102.357-.18.839-.641 1.025-.98.421-.77.441-1.565.058-2.342a2.5 2.5 0 0 0-.908-1.001c-.238-.141-8.714-4.018-9.158-4.188-.478-.184-1.358-.243-1.897-.127m4.669 4.667c2.095.952 3.81 1.742 3.81 1.755.001.013-1.714.804-3.809 1.757-2.828 1.287-3.846 1.733-3.95 1.73-.094-.002-1.377-.568-3.918-1.727A322 322 0 0 1 4.274 7.01c-.016-.017 1.675-.807 3.759-1.757 2.853-1.301 3.826-1.728 3.947-1.731.13-.003.87.319 3.969 1.727M1.58 11.216c-.564.178-.945.618-1.06 1.223-.047.247.024.654.16.92.116.228.39.494.637.62.583.295 9.345 4.244 9.657 4.352.354.122.388.127 1.026.126.629-.001.677-.007 1.02-.123.304-.103 9.056-4.048 9.664-4.356.246-.125.52-.391.636-.619.5-.98-.152-2.132-1.239-2.189-.19-.01-.368.005-.481.04-.099.031-2.269 1.005-4.823 2.163C13.588 14.82 12.092 15.48 12 15.48s-1.589-.66-4.777-2.107c-2.554-1.158-4.722-2.13-4.819-2.16a1.7 1.7 0 0 0-.824.003m0 5c-.564.178-.945.618-1.06 1.223-.047.247.024.654.16.92.116.228.39.494.637.62.583.295 9.345 4.244 9.657 4.352.354.122.388.127 1.026.126.629-.001.677-.007 1.02-.123.304-.103 9.056-4.048 9.664-4.356.246-.125.52-.391.636-.619.5-.98-.152-2.132-1.239-2.189-.19-.01-.368.005-.481.04-.099.031-2.269 1.005-4.823 2.163C13.588 19.82 12.092 20.48 12 20.48s-1.589-.66-4.777-2.107c-2.554-1.158-4.722-2.13-4.819-2.16a1.7 1.7 0 0 0-.824.003"/></svg>