<svg xmlns="http://www.w3.org/2000/svg" width="24" height="24" fill="none" stroke="currentColor" stroke-linecap="round" stroke-linejoin="round" stroke-width="3"><path fill="#000" fill-rule="evenodd" stroke="none" d="M11.28.582a4 4 0 0 0-.44.122c-.519.191-9.016 4.088-9.248 4.242A2.5 2.5 0 0 0 .634 6.2c-.081.225-.094.333-.092.8.001.463.014.576.094.794.255.696.679 1.151 1.402 1.503.206.1.381.189.39.197.008.009-.179.11-.416.226-.37.18-.479.258-.762.541-.542.541-.761 1.114-.72 1.89.022.427.12.766.32 1.108.284.484.602.762 1.218 1.063l.379.186-.433.211c-.372.182-.481.259-.764.542-.542.541-.761 1.114-.72 1.89.041.793.424 1.479 1.062 1.904.219.145 7.914 3.685 9.028 4.153a3.5 3.5 0 0 0 1.357.277c.462.001.601-.018 1.003-.133.252-.073 8.663-3.864 9.24-4.166.139-.073.368-.252.546-.429.241-.239.339-.374.465-.64.209-.438.266-.692.261-1.157a2.35 2.35 0 0 0-.415-1.337c-.27-.403-.531-.622-1.063-.893l-.446-.227.441-.214c.376-.183.488-.261.752-.525.245-.245.344-.381.47-.647.209-.438.266-.692.261-1.157a2.35 2.35 0 0 0-.415-1.337c-.269-.402-.53-.622-1.059-.891l-.443-.225.44-.216c.372-.183.486-.263.745-.523.413-.417.622-.809.718-1.345.172-.968-.309-2.031-1.143-2.526-.238-.141-8.714-4.018-9.158-4.188-.478-.184-1.358-.243-1.897-.127m4.669 4.667c2.095.952 3.81 1.742 3.81 1.755.001.013-.489.245-1.089.516s-1.333.605-1.63.741c-3.254 1.499-4.913 2.233-5.04 2.23-.093-.002-.937-.367-2.52-1.091-1.309-.598-3.015-1.376-3.79-1.728-.776-.353-1.418-.653-1.427-.667-.008-.014 1.689-.802 3.771-1.752 2.853-1.301 3.825-1.728 3.946-1.731.13-.003.87.319 3.969 1.727m-7.56 6.949c1.253.571 2.417 1.084 2.587 1.139a3.55 3.55 0 0 0 2.104-.015c.187-.063 1.354-.575 2.594-1.139l2.254-1.025.886.403c.487.222.9.417.917.434.016.016-.263.163-.62.325l-1.331.602-3.16 1.437c-1.448.659-2.533 1.13-2.606 1.133-.145.004-7.791-3.451-7.743-3.499.041-.039 1.739-.825 1.794-.829.025-.002 1.07.463 2.324 1.034m-.128 4.945c2.446 1.114 2.605 1.181 3.016 1.274.305.069.981.091 1.268.042.411-.071.884-.264 3.045-1.246l2.33-1.058.89.404c.489.223.903.418.92.435.044.044-7.564 3.493-7.716 3.498-.145.004-7.792-3.451-7.743-3.499.038-.037 1.737-.825 1.79-.829.022-.002 1.012.438 2.2.979"/></svg>