<svg xmlns="http://www.w3.org/2000/svg" width="24" height="24" fill="none" stroke="currentColor" stroke-linecap="round" stroke-linejoin="round" stroke-width="3"><path fill="#000" fill-rule="evenodd" stroke="none" d="M11.62.524c-.722.067-.696.054-5.508 2.81-2.436 1.395-4.519 2.603-4.629 2.684C.497 6.742.21 8.178.835 9.261c.175.303.473.613.786.816.155.101.96.57 1.789 1.043s1.508.87 1.509.882c0 .011-.706.424-1.569.916-1.718.979-1.978 1.146-2.23 1.431-.697.789-.815 1.994-.285 2.912.161.279.456.597.721.776.217.147 8.582 4.951 8.904 5.113.271.137.801.286 1.179.332q.688.084 1.461-.164c.38-.122.534-.208 8.051-4.518.665-.382 1.313-.777 1.439-.878.588-.474.899-1.138.9-1.922 0-.345-.019-.477-.105-.74-.184-.564-.468-.958-.919-1.275-.135-.095-.952-.575-1.816-1.067-.863-.492-1.569-.905-1.569-.916.001-.012.74-.444 1.643-.96.902-.516 1.743-1.021 1.867-1.121.587-.473.898-1.138.899-1.921 0-.345-.019-.477-.105-.74-.184-.564-.468-.957-.919-1.275-.415-.292-8.867-5.113-9.175-5.233A3.5 3.5 0 0 0 11.62.524m3.12 4.464c1.408.807 3.158 1.81 3.89 2.228s1.33.772 1.33.786c0 .013-.985.587-2.19 1.275L15.3 10.69c-2.182 1.26-3.209 1.83-3.3 1.83-.088 0-1.777-.937-3.26-1.808-.132-.077-1.243-.713-2.47-1.412-1.227-.7-2.23-1.283-2.23-1.297 0-.026 7.403-4.282 7.714-4.434q.186-.091.306-.069c.066.012 1.272.682 2.68 1.488m-5.468 9.493c1.382.788 1.692.919 2.365 1.001.265.032.461.032.726 0 .674-.082.982-.213 2.37-1.004.697-.398 1.292-.718 1.321-.711.104.025 3.905 2.213 3.896 2.243-.006.016-1.771 1.037-3.924 2.27-2.597 1.486-3.952 2.24-4.026 2.24s-1.429-.754-4.026-2.24c-2.153-1.233-3.919-2.254-3.924-2.27-.012-.035 3.822-2.24 3.904-2.246.03-.002.623.32 1.318.717"/></svg>