<svg xmlns="http://www.w3.org/2000/svg" width="24" height="24" fill="none" stroke="currentColor" stroke-linecap="round" stroke-linejoin="round" stroke-width="3"><path fill="#000" fill-rule="evenodd" stroke="none" d="M3.38 1.576c-.452.112-.95.421-1.279.793-.209.237-.465.739-.547 1.071-.079.322-.079 5.798 0 6.12.175.713.701 1.372 1.334 1.674.602.286-.095.266 9.112.266 6.873 0 8.379-.01 8.56-.054.713-.175 1.372-.701 1.674-1.334.274-.576.266-.467.266-3.612s.008-3.036-.265-3.61c-.261-.548-.8-1.027-1.418-1.26l-.237-.09-8.5-.007c-6.652-.005-8.543.004-8.7.043m16.1 4.944v2H4.52v-4h14.96zm-16.1 6.056c-.453.113-.95.421-1.279.793-.209.237-.465.739-.547 1.071-.079.322-.079 5.798 0 6.12.175.713.701 1.372 1.334 1.674.586.279.365.266 4.612.266 3.092 0 3.883-.011 4.06-.054.713-.175 1.372-.701 1.674-1.334.274-.576.266-.467.266-3.612s.008-3.036-.265-3.61c-.261-.548-.8-1.027-1.418-1.26l-.237-.09-4-.007c-3.081-.006-4.046.004-4.2.043m13-.001c-.454.115-.95.423-1.279.794-.209.237-.465.739-.547 1.071-.043.174-.054.809-.054 3.06s.011 2.886.054 3.06c.175.713.701 1.372 1.334 1.674.557.265.566.266 2.612.266s2.055-.001 2.612-.266a2.5 2.5 0 0 0 1.122-1.122c.274-.576.266-.467.266-3.612s.008-3.036-.265-3.61c-.261-.548-.8-1.027-1.418-1.26-.233-.088-.273-.09-2.237-.097-1.495-.006-2.051.005-2.2.042m-5.9 4.945v2H4.52v-4h5.96zm9 0v2h-1.96v-4h1.96z"/></svg>