<svg xmlns="http://www.w3.org/2000/svg" width="24" height="24" fill="none" stroke="currentColor" stroke-linecap="round" stroke-linejoin="round" stroke-width="3"><path fill="#000" fill-rule="evenodd" stroke="none" d="M3.38 1.576c-.453.113-.95.421-1.279.793-.209.237-.465.739-.547 1.071-.079.324-.079 7.796 0 8.12.175.713.701 1.372 1.334 1.674.576.274.467.266 3.612.266s3.036.008 3.612-.266a2.5 2.5 0 0 0 1.122-1.122c.279-.586.266-.365.266-4.612 0-4.245.013-4.026-.265-4.61-.261-.548-.8-1.027-1.418-1.26l-.237-.09-3-.007c-2.288-.006-3.047.004-3.2.043m11 0c-.453.113-.95.421-1.279.793-.209.237-.465.739-.547 1.071-.041.169-.054.649-.054 2.06 0 2.046.001 2.055.266 2.612.223.467.655.899 1.122 1.122.576.274.467.266 3.612.266 2.251 0 2.886-.011 3.06-.054.713-.175 1.372-.701 1.674-1.334.265-.557.266-.566.266-2.612 0-2.045-.001-2.055-.265-2.61-.261-.548-.8-1.027-1.418-1.26l-.237-.09-3-.007c-2.288-.006-3.047.004-3.2.043M8.48 7.52v3H4.52v-6h3.96zm11-2v1h-3.96v-2h3.96zm-5.1 5.056c-.453.113-.95.421-1.279.793-.209.237-.465.739-.547 1.071-.043.177-.054.968-.054 4.06s.011 3.883.054 4.06c.175.713.701 1.372 1.334 1.674.576.274.467.266 3.612.266 2.251 0 2.886-.011 3.06-.054.713-.175 1.372-.701 1.674-1.334.279-.586.266-.365.266-4.612 0-4.245.013-4.026-.265-4.61-.261-.548-.8-1.027-1.418-1.26l-.237-.09-3-.007c-2.288-.006-3.047.004-3.2.043m5.1 5.944v3h-3.96v-6h3.96zm-16.1-1.944c-.453.113-.95.421-1.279.793-.209.237-.465.739-.547 1.071-.078.317-.078 3.803 0 4.12.175.713.701 1.372 1.334 1.674.576.274.467.266 3.612.266 2.251 0 2.886-.011 3.06-.054.713-.175 1.372-.701 1.674-1.334.265-.557.266-.566.266-2.612 0-2.045-.001-2.055-.265-2.61-.261-.548-.8-1.027-1.418-1.26l-.237-.09-3-.007c-2.288-.006-3.047.004-3.2.043m5.1 3.944v1H4.52v-2h3.96z"/></svg>