<svg xmlns="http://www.w3.org/2000/svg" width="24" height="24" fill="none" stroke="currentColor" stroke-linecap="round" stroke-linejoin="round" stroke-width="3"><path fill="#000" fill-rule="evenodd" stroke="none" d="M3.38 1.576c-.453.113-.95.421-1.279.793-.209.237-.465.739-.547 1.071-.079.322-.079 5.798 0 6.12.175.713.701 1.372 1.334 1.674.576.274.467.266 3.612.266 2.251 0 2.886-.011 3.06-.054.713-.175 1.372-.701 1.674-1.334.274-.576.266-.467.266-3.612s.008-3.036-.265-3.61c-.261-.548-.8-1.027-1.418-1.26l-.237-.09-3-.007c-2.288-.006-3.047.004-3.2.043m10.136 1.002c-.366.136-.71.444-.864.774a1.5 1.5 0 0 0 1.158 2.13c.326.047 7.054.047 7.38 0a1.494 1.494 0 0 0 1.287-1.7 1.51 1.51 0 0 0-.829-1.126l-.228-.116-3.88-.008c-3.157-.006-3.907.003-4.024.046M8.48 6.52v2H4.52v-4h3.96zm5.036 1.058c-.366.136-.71.444-.864.774a1.5 1.5 0 0 0 1.158 2.13c.138.02 1.798.036 3.69.036s3.552-.016 3.69-.036a1.494 1.494 0 0 0 1.287-1.7 1.51 1.51 0 0 0-.829-1.126l-.228-.116-3.88-.008c-3.157-.006-3.907.003-4.024.046M3.38 12.576c-.453.113-.95.421-1.279.793-.209.237-.465.739-.547 1.071-.079.322-.079 5.798 0 6.12.175.713.701 1.372 1.334 1.674.576.274.467.266 3.612.266 2.251 0 2.886-.011 3.06-.054.713-.175 1.372-.701 1.674-1.334.274-.576.266-.467.266-3.612s.008-3.036-.265-3.61c-.261-.548-.8-1.027-1.418-1.26l-.237-.09-3-.007c-2.288-.006-3.047.004-3.2.043m10.136 1.002c-.366.136-.71.444-.864.774a1.5 1.5 0 0 0 1.158 2.13c.138.02 1.798.036 3.69.036s3.552-.016 3.69-.036a1.494 1.494 0 0 0 1.287-1.7 1.51 1.51 0 0 0-.829-1.126l-.228-.116-3.88-.008c-3.157-.006-3.907.003-4.024.046M8.48 17.52v2H4.52v-4h3.96zm5.036 1.058c-.366.136-.71.444-.864.774a1.5 1.5 0 0 0 1.158 2.13c.326.047 7.054.047 7.38 0a1.494 1.494 0 0 0 1.287-1.7 1.51 1.51 0 0 0-.829-1.126l-.228-.116-3.88-.008c-3.157-.006-3.907.003-4.024.046"/></svg>