<svg xmlns="http://www.w3.org/2000/svg" width="24" height="24" fill="none" stroke="currentColor" stroke-linecap="round" stroke-linejoin="round" stroke-width="3"><path fill="#000" fill-rule="evenodd" stroke="none" d="M12.56.597a4.8 4.8 0 0 0-1.835.752c-.371.246-.915.744-1.148 1.05-.143.187-.146.189-.311.157-.287-.056-1.262-.04-1.646.027a4.95 4.95 0 0 0-2.576 1.316A4.94 4.94 0 0 0 3.57 6.678l-.074.418-.295.174C1.848 8.069.929 9.375.596 10.972c-.109.52-.119 1.395-.022 1.937.149.834.438 1.525.972 2.319 1.119 1.662 1.315 2.216 1.075 3.03-.201.682-.531 1.227-1.395 2.306-.555.693-.637.831-.707 1.187-.194.982.734 1.908 1.729 1.728.336-.061.504-.154.971-.534 1.168-.951 1.813-1.364 2.416-1.547.248-.075.351-.085.64-.065.488.035.923.155 1.385.384.384.19.543.297 1.159.783.504.396 1.327.752 2.146.927.473.102 1.6.102 2.075 0 1.592-.34 2.903-1.276 3.715-2.653l.169-.285.228-.027c.684-.082 1.496-.39 2.147-.816.368-.24 1.077-.947 1.33-1.326.59-.885.861-1.774.859-2.82a6 6 0 0 0-.039-.746l-.037-.187.189-.144c.289-.22.804-.774 1.027-1.106.581-.86.861-1.767.863-2.797a4.7 4.7 0 0 0-.478-2.164l-.18-.385.139-.275c.299-.595.506-1.483.507-2.176a5.7 5.7 0 0 0-.22-1.42c-.524-1.801-2.09-3.183-3.973-3.505-.343-.059-1.269-.059-1.612 0a5.6 5.6 0 0 0-1.314.409l-.34.16-.34-.159c-.768-.359-1.358-.487-2.22-.48a5 5 0 0 0-.9.072m1.526 3.002c.291.09.554.247.872.521.278.239.475.339.793.401.468.092.893-.051 1.369-.461.322-.277.656-.443 1.015-.504a1.997 1.997 0 0 1 2.326 1.787c.054.557-.121 1.073-.521 1.537-.41.476-.553.901-.461 1.369.062.318.162.515.401.793.435.505.6.905.6 1.452-.001.586-.171.995-.588 1.418-.187.19-.324.286-.56.391-.497.222-.574.267-.777.45-.12.107-.242.273-.324.439-.121.246-.131.296-.129.647.001.347.013.406.134.661.185.391.243.629.243 1 0 .375-.065.65-.224.944-.403.743-1.214 1.148-2.072 1.034-.394-.052-.684-.011-.971.139-.411.215-.596.454-.794 1.025-.198.57-.339.806-.695 1.159a2.42 2.42 0 0 1-2.333.642c-.388-.1-.642-.23-.953-.489a7.7 7.7 0 0 0-2.348-1.299l-.451-.151 5.299-5.302c4.75-4.752 5.31-5.326 5.405-5.534.354-.777.06-1.63-.694-2.012-.208-.106-.264-.116-.648-.116-.724 0-.169-.494-6.185 5.512L5.53 16.329l-.071-.195c-.268-.734-.52-1.204-1.218-2.274-.259-.396-.522-.846-.585-1-.108-.264-.115-.314-.115-.86 0-.547.007-.596.115-.86.328-.801.819-1.251 1.697-1.556.61-.212.854-.415 1.08-.895.104-.222.107-.247.096-.864-.017-.902.103-1.267.566-1.725.44-.435.897-.605 1.53-.571.355.019.45.045.935.257.222.096.313.113.621.113.327.001.385-.011.627-.13.38-.187.608-.454.829-.97.151-.353.215-.452.44-.677q.415-.416.879-.544c.292-.081.835-.071 1.13.021"/></svg>