<svg xmlns="http://www.w3.org/2000/svg" width="24" height="24" fill="none" stroke="currentColor" stroke-linecap="round" stroke-linejoin="round" stroke-width="3"><path fill="#000" fill-rule="evenodd" stroke="none" d="M18.486.598c-.28.103-.422.216-.751.592-.53.607-1.154 1.192-1.561 1.463-1.069.712-2.477 1.147-5.914 1.827-1.729.343-2.179.478-3.08.927-1.361.677-2.623 1.824-3.417 3.104a8.7 8.7 0 0 0-1.005 2.342c-.208.793-.257 1.205-.257 2.147 0 .918.047 1.331.238 2.078l.097.378-.309.322a7.03 7.03 0 0 0-1.871 3.613c-.11.56-.179 1.491-.134 1.822.11.811.869 1.376 1.696 1.264.247-.033.592-.185.742-.326.409-.382.502-.619.558-1.404.042-.59.107-.976.222-1.329.078-.238.392-.88.493-1.012l.073-.094.657.655c1.114 1.11 2.151 1.739 3.589 2.175 1.642.499 3.59.471 5.475-.081a11.8 11.8 0 0 0 4.073-2.127c.56-.446 1.429-1.313 1.86-1.854 1.309-1.644 2.159-3.595 2.441-5.6.127-.901.118-2.521-.021-3.726-.243-2.109-.748-3.764-1.82-5.974-.348-.716-.53-.941-.916-1.13-.3-.146-.839-.171-1.158-.052m.325 4.763c.434 1.284.669 2.854.669 4.464 0 .908-.06 1.449-.237 2.149-.377 1.488-1.147 2.815-2.301 3.968-1.491 1.49-3.419 2.393-5.408 2.534-1.736.123-3.293-.436-4.43-1.59l-.276-.28.156-.041c.086-.023.363-.087.616-.144 1.666-.372 3.506-1.185 5.055-2.234.877-.592 1.532-1.188 1.694-1.539a1.503 1.503 0 0 0-.701-1.992c-.208-.106-.264-.116-.648-.116-.381 0-.441.01-.642.112a4 4 0 0 0-.58.433c-1.175 1.05-3.183 2.038-4.958 2.439-.286.064-.68.163-.876.219-.275.079-.363.091-.387.052-.064-.103-.087-.824-.042-1.291a5.2 5.2 0 0 1 .613-2.07c.639-1.225 1.822-2.227 3.132-2.65.176-.057.905-.221 1.62-.366 3.176-.64 4.586-1.036 5.882-1.652a10 10 0 0 0 1.482-.899l.296-.224.065.15c.035.082.128.338.206.568"/></svg>