<svg xmlns="http://www.w3.org/2000/svg" width="24" height="24" fill="none" stroke="currentColor" stroke-linecap="round" stroke-linejoin="round" stroke-width="3"><path fill="#000" fill-rule="evenodd" stroke="none" d="M13.516.578c-.53.198-.921.672-.993 1.204a1.494 1.494 0 0 0 1.287 1.7c.138.02.795.037 1.46.037l1.21.001v.999l-7.03.01-7.03.011-.28.115C1.215 5.036.671 5.722.519 6.7c-.049.312-.029.546.081.961.133.502 1.12 3.576 1.221 3.804.331.749 1.123 1.5 1.888 1.79.526.2.734.229 1.779.253l.988.023.014 3.944c.016 4.385-.003 4.079.293 4.679.212.43.662.869 1.105 1.08.582.277.416.266 4.112.266s3.53.011 4.112-.266c.443-.211.893-.65 1.105-1.08.296-.6.277-.294.293-4.679l.014-3.944.988-.023c1.045-.024 1.253-.053 1.779-.253.763-.289 1.557-1.041 1.887-1.786.091-.205.975-2.949 1.202-3.729.379-1.305-.239-2.561-1.52-3.084-.279-.114-.284-.114-1.305-.128l-1.025-.015-.022-.966c-.015-.697-.039-1.028-.084-1.187A2.63 2.63 0 0 0 17.817.63c-.232-.088-.275-.09-2.197-.098-1.564-.007-1.989.003-2.104.046M20.06 8.31l-.436 1.378c-.269.848-.267.847-1.499.824l-.655-.012-.088-.262a2.26 2.26 0 0 0-.603-.976 2.55 2.55 0 0 0-.962-.632l-.237-.09H8.42l-.237.09c-.372.14-.657.327-.962.63a2.25 2.25 0 0 0-.603.978l-.088.262-.655.012c-.83.016-1.041-.009-1.195-.138-.125-.105-.089-.004-.753-2.104l-.238-.75H20.31zm-5.58 7.71v4.5H9.52v-9h4.96z"/></svg>