<svg xmlns="http://www.w3.org/2000/svg" width="24" height="24" fill="none" stroke="currentColor" stroke-linecap="round" stroke-linejoin="round" stroke-width="3"><path fill="#000" fill-rule="evenodd" stroke="none" d="M3.516 2.577c-.554.212-.919.67-1 1.255-.023.161-.033 3.509-.027 8.368l.011 8.1.105.248c.25.595.761.938 1.395.938s1.145-.343 1.395-.938L5.5 20.3l.011-8.1c.006-4.859-.004-8.207-.027-8.368a1.5 1.5 0 0 0-.834-1.175c-.195-.099-.28-.116-.608-.125-.253-.007-.431.008-.526.045m8 2c-.555.212-.919.67-1 1.255-.023.162-.033 3.115-.027 7.369L10.5 20.3l.105.248c.25.595.761.938 1.395.938s1.145-.343 1.395-.938l.105-.248.011-7.099c.006-4.254-.004-7.207-.027-7.369a1.5 1.5 0 0 0-.834-1.175c-.195-.099-.28-.116-.608-.125q-.382-.01-.526.045m3.975.021c-.256.092-.386.182-.605.421-.268.29-.439.782-.386 1.11.035.212 3.989 14.082 4.108 14.406.108.298.439.663.725.803a1.45 1.45 0 0 0 1.688-.263c.33-.311.542-.855.477-1.222-.037-.208-3.998-14.092-4.106-14.393-.118-.326-.521-.733-.848-.855a1.75 1.75 0 0 0-1.053-.007M7.516 6.577c-.555.212-.919.67-1 1.256-.023.162-.034 2.721-.027 6.369L6.5 20.3l.105.248c.25.595.761.938 1.395.938s1.145-.343 1.395-.938L9.5 20.3l.011-6.098c.007-3.648-.004-6.207-.027-6.369a1.5 1.5 0 0 0-.834-1.176c-.195-.099-.28-.116-.608-.125q-.382-.01-.526.045"/></svg>