<svg xmlns="http://www.w3.org/2000/svg" width="24" height="24" fill="none" stroke="currentColor" stroke-linecap="round" stroke-linejoin="round" stroke-width="3"><path fill="#000" fill-rule="evenodd" stroke="none" d="M5.14 1.52c-1.658.019-1.729.023-1.957.11-.372.14-.656.326-.968.634a2.57 2.57 0 0 0-.661 1.176c-.08.327-.08 16.793 0 17.12.175.713.701 1.372 1.334 1.674.582.277.416.266 4.112.266s3.53.011 4.112-.266c.443-.211.893-.65 1.105-1.08.293-.593.276-.354.301-4.199l.022-3.465 1.318 3.645a372 372 0 0 0 1.396 3.825c.429.989 1.629 1.66 2.65 1.482.275-.048 2.365-.794 2.699-.963.615-.312 1.121-.978 1.297-1.707.085-.351.067-.933-.038-1.232-.141-.4-5.457-15.087-5.556-15.348a2.54 2.54 0 0 0-2.326-1.644c-.446-.005-.588.03-1.505.368l-.733.271-.241-.179c-.304-.226-.654-.388-.962-.444-.282-.052-2.906-.073-5.399-.044m.34 10.5v7.5h-.96v-15h.96zm4 0v7.5h-.96v-15h.96zm6.756-.218c1.522 4.206 2.562 7.136 2.54 7.157-.062.06-.914.359-.939.329-.033-.039-5.127-14.136-5.133-14.202-.002-.033.17-.119.456-.227.253-.095.469-.174.48-.176.011-.001 1.179 3.202 2.596 7.119"/></svg>