<svg xmlns="http://www.w3.org/2000/svg" width="24" height="24" fill="none" stroke="currentColor" stroke-linecap="round" stroke-linejoin="round" stroke-width="3"><path fill="#000" fill-rule="evenodd" stroke="none" d="M10.82.563A11.515 11.515 0 0 0 .739 9.671a11.8 11.8 0 0 0 0 4.658 11.52 11.52 0 0 0 8.932 8.932c1.501.309 3.157.309 4.658 0a11.53 11.53 0 0 0 8.932-8.932 11.8 11.8 0 0 0 0-4.658C22.306 5.036 18.563 1.433 13.9.663c-.846-.14-2.244-.185-3.08-.1m2.6 3.054c1.15.213 2.337.675 3.193 1.244l.232.154-1.087 1.087L14.67 7.19l-.365-.172A5.3 5.3 0 0 0 12 6.52c-.841 0-1.599.164-2.305.498l-.365.172-1.088-1.088-1.087-1.087.232-.154a10 10 0 0 1 1.521-.777c.62-.246 1.301-.413 2.192-.54.306-.043 1.974.01 2.32.073M7.053 9.613c-.601 1.195-.708 2.762-.277 4.076.075.23.2.544.277.698l.141.279-1.09 1.09-1.089 1.089-.154-.232c-.575-.865-1.029-2.034-1.248-3.213-.102-.545-.102-2.255 0-2.8.219-1.179.673-2.348 1.248-3.213l.154-.232 1.089 1.089 1.09 1.09zM19.141 7.39c.245.369.601 1.074.793 1.572.606 1.57.716 3.44.302 5.116-.208.841-.651 1.863-1.097 2.535l-.154.232-1.089-1.089-1.09-1.09.141-.279c.601-1.195.708-2.762.277-4.077a6 6 0 0 0-.277-.694l-.141-.276 1.087-1.09c.597-.599 1.089-1.09 1.091-1.09s.073.103.157.23m-6.324 2.243a2.65 2.65 0 0 1 1.553 1.55c.076.205.088.316.088.817s-.012.612-.088.817c-.23.615-.711 1.157-1.26 1.418-.415.197-.664.255-1.11.255s-.695-.058-1.11-.255c-.551-.262-1.039-.813-1.256-1.418-.108-.299-.146-.987-.075-1.347.171-.872.938-1.674 1.812-1.895.328-.083 1.149-.05 1.446.058m-2.506 7.591c.789.259 1.75.333 2.575.2a6.1 6.1 0 0 0 1.501-.477l.279-.141 1.092 1.092 1.092 1.093-.235.152c-.959.621-2.25 1.101-3.435 1.279-.591.088-1.769.088-2.36 0-1.185-.178-2.476-.658-3.435-1.279l-.235-.152 1.092-1.093 1.092-1.092.279.141c.154.077.468.202.698.277"/></svg>