<svg xmlns="http://www.w3.org/2000/svg" width="24" height="24" fill="none" stroke="currentColor" stroke-linecap="round" stroke-linejoin="round" stroke-width="3"><path fill="#000" fill-rule="evenodd" stroke="none" d="M11.12 2.58a5.51 5.51 0 0 0-4.437 4.048c-.151.574-.171.824-.192 2.359l-.02 1.526-.446.014c-.397.012-.47.026-.673.129-.93.471-1.133 1.673-.407 2.399.317.317.73.462 1.325.464l.21.001v4.993l-.45.014c-.402.012-.474.025-.678.129a1.51 1.51 0 0 0-.829 1.126 1.494 1.494 0 0 0 1.287 1.7c.325.047 4.055.047 4.38 0a1.494 1.494 0 0 0 1.287-1.7 1.51 1.51 0 0 0-.829-1.126c-.203-.103-.277-.117-.678-.13l-.45-.015V13.52l.21-.001c.595-.002 1.008-.147 1.325-.464.726-.726.522-1.929-.407-2.399-.203-.103-.277-.117-.68-.13l-.452-.015.013-1.545c.014-1.496.017-1.554.106-1.795.253-.688.877-1.303 1.557-1.539.232-.079.344-.092.828-.09.504.001.587.012.83.105.569.218.953.531 1.363 1.113.364.516.786.745 1.354.735.454-.008.976-.315 1.209-.711.123-.21.224-.575.224-.808 0-.574-.644-1.547-1.456-2.2A5.57 5.57 0 0 0 12.9 2.579c-.436-.071-1.362-.071-1.78.001m2.396 7.998c-1.047.392-1.349 1.7-.571 2.477.317.317.73.462 1.325.464l.21.001v4.993l-.45.014c-.402.012-.474.025-.678.129a1.51 1.51 0 0 0-.829 1.126 1.494 1.494 0 0 0 1.287 1.7c.138.02 1.123.036 2.19.036s2.052-.016 2.19-.036a1.494 1.494 0 0 0 1.287-1.7 1.51 1.51 0 0 0-.829-1.126c-.203-.103-.277-.117-.678-.13l-.45-.015-.001-3.225c0-1.774-.017-3.338-.037-3.476a1.51 1.51 0 0 0-.834-1.154l-.228-.116-1.38-.008c-1.079-.007-1.412.003-1.524.046"/></svg>