<svg xmlns="http://www.w3.org/2000/svg" width="24" height="24" fill="none" stroke="currentColor" stroke-linecap="round" stroke-linejoin="round" stroke-width="3"><path fill="#000" fill-rule="evenodd" stroke="none" d="M11.02.564c-2.244.32-4.216 1.595-5.387 3.483-1.296 2.089-1.495 4.755-.503 6.733.306.611.589.995 1.323 1.796.684.747.901 1.091 1.067 1.684.117.419.193.56.425.791.373.371.87.523 1.348.412.351-.081.526-.175.751-.401.474-.477.56-1.02.293-1.863-.289-.915-.737-1.624-1.684-2.664-.967-1.061-1.159-1.523-1.12-2.695.024-.757.124-1.166.445-1.82a4.3 4.3 0 0 1 2.042-2.043c.242-.118.62-.265.84-.326.37-.102.455-.11 1.14-.11s.77.008 1.14.11c.488.135 1.19.472 1.54.74.31.237.734.665.962.969.242.323.58 1.042.706 1.5.1.363.11.463.111 1.08.001.592-.011.721-.091.998-.18.62-.415.984-1.085 1.676-.854.883-1.299 1.584-1.598 2.518-.291.907-.218 1.439.264 1.923.591.594 1.506.593 2.106-.004.237-.235.305-.367.443-.851.178-.628.325-.85 1.102-1.664.571-.6.876-1.005 1.159-1.543.568-1.078.811-2.285.716-3.553-.261-3.489-2.929-6.348-6.4-6.858-.461-.067-1.636-.078-2.055-.018M8.516 16.578c-.366.136-.71.444-.864.774a1.5 1.5 0 0 0 1.158 2.13c.326.047 6.054.047 6.38 0a1.494 1.494 0 0 0 1.287-1.7 1.51 1.51 0 0 0-.829-1.126l-.228-.116-3.38-.008c-2.742-.006-3.407.003-3.524.046m1 4c-.366.136-.71.444-.864.774a1.5 1.5 0 0 0 1.158 2.13c.138.02 1.123.036 2.19.036s2.052-.016 2.19-.036a1.494 1.494 0 0 0 1.287-1.7 1.51 1.51 0 0 0-.829-1.126l-.228-.116-2.38-.008c-1.91-.006-2.409.003-2.524.046"/></svg>