<svg xmlns="http://www.w3.org/2000/svg" width="24" height="24" fill="none" stroke="currentColor" stroke-linecap="round" stroke-linejoin="round" stroke-width="3"><path fill="#000" fill-rule="evenodd" stroke="none" d="M1.516.577C.656.906.276 1.832.658 2.667c.091.199.361.486 2.022 2.151L4.597 6.74l-.061.34c-.085.469-.083 1.394.003 1.9a6.3 6.3 0 0 0 .585 1.832c.328.651.59 1.005 1.289 1.738.701.735.936 1.099 1.107 1.71.117.419.193.56.425.791.373.371.87.523 1.348.412.351-.081.526-.175.751-.401.348-.35.501-.805.432-1.287-.067-.473-.368-1.273-.653-1.735-.068-.11.794.723 2.213 2.14l2.324 2.32-2.89.02-2.89.02-.228.116a1.51 1.51 0 0 0-.829 1.126 1.494 1.494 0 0 0 1.287 1.7c.326.047 6.054.047 6.38 0 .137-.02.344-.08.46-.134.24-.112.56-.415.677-.643l.08-.155 2.347 2.343c2.056 2.052 2.376 2.356 2.578 2.449a1.503 1.503 0 0 0 2.01-2.01c-.095-.21-1.076-1.202-10.274-10.395C1.635-.49 2.738.551 2.042.532c-.253-.007-.431.008-.526.045M11.16.563a7.4 7.4 0 0 0-2.458.722c-.937.469-1.267.762-1.421 1.262-.141.456-.088.868.163 1.259.157.245.359.421.617.54.488.223.925.201 1.402-.069.423-.241.89-.461 1.165-.551.849-.276 1.974-.265 2.82.029a4.56 4.56 0 0 1 2.941 3.254c.101.414.1 1.505-.001 1.871-.116.421-.308.793-.638 1.232-.349.466-.433.683-.435 1.116-.001.419.118.692.441 1.016.2.199.322.285.504.353.329.123.754.123 1.08.001.466-.174 1.13-.981 1.562-1.897.351-.745.509-1.353.573-2.211.121-1.632-.326-3.269-1.284-4.699-.402-.601-1.247-1.469-1.831-1.883-.451-.319-1.514-.857-2.02-1.022a7.9 7.9 0 0 0-3.18-.323M9.516 20.578c-.366.136-.71.444-.864.774a1.5 1.5 0 0 0 1.158 2.13c.138.02 1.123.036 2.19.036s2.052-.016 2.19-.036a1.494 1.494 0 0 0 1.287-1.7 1.51 1.51 0 0 0-.829-1.126l-.228-.116-2.38-.008c-1.91-.006-2.409.003-2.524.046"/></svg>