<svg xmlns="http://www.w3.org/2000/svg" width="24" height="24" fill="none" stroke="currentColor" stroke-linecap="round" stroke-linejoin="round" stroke-width="3"><path fill="#000" fill-rule="evenodd" stroke="none" d="M2.516 1.577c-.554.212-.919.67-1 1.254-.022.162-.033 3.904-.027 9.369l.011 9.1.105.248q.25.597.847.847l.248.105 9.1.011c5.465.006 9.207-.005 9.369-.027.858-.119 1.423-.854 1.308-1.702a1.51 1.51 0 0 0-.829-1.126l-.228-.116-8.45-.01-8.45-.011-.001-8.229c0-4.68-.016-8.338-.037-8.48a1.51 1.51 0 0 0-.832-1.153c-.195-.099-.28-.116-.608-.125-.253-.007-.431.008-.526.045m16 6c-.08.03-.224.104-.32.164-.097.059-1.08 1.01-2.185 2.112l-2.01 2.004-1.55-1.54C10.624 8.503 10.675 8.54 10 8.54c-.682 0-.61-.053-2.568 1.898-1.448 1.443-1.682 1.693-1.773 1.894a1.502 1.502 0 0 0 2.003 2.012c.185-.084.413-.289 1.282-1.151l1.057-1.048 1.553 1.547c1.325 1.32 1.586 1.561 1.781 1.651a1.58 1.58 0 0 0 1.333-.001c.205-.094.543-.417 2.9-2.774s2.68-2.695 2.774-2.9c.354-.777.06-1.63-.694-2.012-.198-.101-.279-.117-.608-.125-.246-.006-.431.01-.524.046"/></svg>