<svg xmlns="http://www.w3.org/2000/svg" width="24" height="24" fill="none" stroke="currentColor" stroke-linecap="round" stroke-linejoin="round" stroke-width="3"><path fill="#000" fill-rule="evenodd" stroke="none" d="M6.02 5.579c-2.833.46-5.014 2.64-5.443 5.441a8 8 0 0 0 0 1.96 6.5 6.5 0 0 0 4.382 5.18c.8.267 1.229.323 2.661.348 1.355.023 1.694-.003 2.029-.159.425-.198.764-.661.828-1.131a1.5 1.5 0 0 0-.829-1.562l-.228-.116-1.46-.026c-1.293-.024-1.498-.036-1.793-.11a3.4 3.4 0 0 1-1.688-.99C3.813 13.707 3.52 12.97 3.52 12c0-1.007.308-1.752 1.018-2.462.37-.369.675-.581 1.102-.764.52-.223.777-.254 2.108-.255.656 0 1.304-.017 1.442-.037a1.494 1.494 0 0 0 1.287-1.7 1.51 1.51 0 0 0-.829-1.126L9.42 5.54l-1.54-.006c-1.099-.005-1.632.008-1.86.045m8.496 0c-.364.134-.71.443-.864.773a1.5 1.5 0 0 0 1.158 2.13c.138.02.786.037 1.442.037 1.331.001 1.588.032 2.108.255.427.183.732.395 1.102.764.71.71 1.018 1.455 1.018 2.462 0 .979-.294 1.712-.976 2.431a3.43 3.43 0 0 1-1.675.974c-.291.073-.499.086-1.789.109l-1.46.026-.228.116c-.93.471-1.133 1.673-.407 2.399.241.242.529.379.906.433.43.061 2.671.014 3.146-.067 2.14-.362 3.873-1.64 4.838-3.569.68-1.358.841-3.092.426-4.568-.708-2.517-2.735-4.31-5.321-4.707-.501-.077-3.214-.076-3.424.002m-7 4.999c-.365.136-.71.444-.864.774a1.5 1.5 0 0 0 1.158 2.13c.326.047 8.054.047 8.38 0a1.494 1.494 0 0 0 1.287-1.7 1.51 1.51 0 0 0-.829-1.126l-.228-.116-4.38-.008c-3.573-.006-4.407.003-4.524.046"/></svg>