<svg xmlns="http://www.w3.org/2000/svg" width="24" height="24" fill="none" stroke="currentColor" stroke-linecap="round" stroke-linejoin="round" stroke-width="3"><path fill="#000" fill-rule="evenodd" stroke="none" d="M3.44.545c-.77.148-1.465.517-1.966 1.044A3.42 3.42 0 0 0 .512 4c0 .715.187 1.345.57 1.917A3.56 3.56 0 0 0 3.355 7.44l.345.07-1.06.015-1.06.015-.228.116c-.471.238-.763.65-.836 1.177-.023.162-.034 2.721-.027 6.369L.5 21.3l.105.248q.25.597.847.847l.248.105h4.6l.248-.105q.597-.25.847-.847L7.5 21.3l.011-6.098c.007-3.648-.004-6.207-.027-6.369a1.5 1.5 0 0 0-.836-1.177L6.42 7.54l-1.06-.015L4.3 7.51l.345-.071c1.799-.368 3.012-1.99 2.83-3.785-.123-1.217-.83-2.232-1.942-2.788C5.054.626 4.736.553 4.1.539a7 7 0 0 0-.66.006m.904 3.111c.119.119.136.162.136.337 0 .157-.022.227-.103.323a.49.49 0 0 1-.754 0c-.081-.096-.103-.166-.103-.323 0-.175.017-.218.136-.337S3.817 3.52 4 3.52s.224.016.344.136M15.02 6.564a7.55 7.55 0 0 0-4.315 2.142 7.5 7.5 0 0 0-2.062 3.839c-.148.725-.168 1.415-.155 5.175L8.5 21.3l.105.248q.25.597.847.847l.248.105h4.6l.248-.105q.597-.25.847-.847l.105-.248.02-3.773.02-3.774.131-.116c.107-.096.166-.117.329-.117s.222.021.329.117l.131.116.02 3.774.02 3.773.105.248q.25.597.847.847l.248.105h4.6l.248-.105q.597-.25.847-.847l.105-.248.012-3.58c.013-3.76-.007-4.45-.155-5.175a7.54 7.54 0 0 0-6.282-5.963c-.461-.067-1.636-.078-2.055-.018m2.14 3.093c.441.122 1.163.464 1.48.701.304.228.732.652.969.962.259.339.601 1.042.738 1.52l.11.38.013 3.15.013 3.15h-.963l-.001-2.73c0-1.521-.018-2.897-.04-3.107-.132-1.255-.824-2.255-1.947-2.818-.519-.259-.827-.325-1.532-.325-.525 0-.668.014-.932.09-1.261.365-2.185 1.345-2.499 2.649-.053.222-.065.709-.078 3.251l-.016 2.99h-.958l.013-3.15.013-3.15.11-.38c.137-.478.479-1.181.738-1.52.237-.31.665-.734.969-.962.301-.225 1.033-.577 1.417-.681.515-.139.65-.153 1.343-.139.561.012.717.03 1.04.119M4.48 15.02v4.5h-.96v-9h.96z"/></svg>