<svg xmlns="http://www.w3.org/2000/svg" width="24" height="24" fill="none" stroke="currentColor" stroke-linecap="round" stroke-linejoin="round" stroke-width="3"><path fill="#000" fill-rule="evenodd" stroke="none" d="M16.373.6a6.5 6.5 0 0 0-2.382.693c-.798.407-1.09.644-2.377 1.925-1.083 1.08-1.172 1.179-1.256 1.402-.197.526-.089 1.141.269 1.539.503.56 1.287.68 1.909.292.09-.056.632-.564 1.204-1.128 1.254-1.237 1.536-1.438 2.32-1.646.455-.122 1.305-.122 1.76 0 .996.265 1.804.931 2.278 1.878.491.979.442 2.293-.121 3.265-.164.283-.399.533-2.051 2.182-2.058 2.053-2.069 2.062-2.826 2.314-.75.25-1.424.251-2.194.004-.598-.192-.927-.415-1.546-1.045-.673-.684-.76-.732-1.36-.734-.506-.001-.685.066-1.02.382a1.49 1.49 0 0 0-.347 1.69c.193.433 1.065 1.328 1.715 1.76 1.714 1.139 3.648 1.425 5.588.828.748-.23 1.32-.523 1.984-1.014.572-.424 3.799-3.661 4.233-4.247a6.6 6.6 0 0 0 1.286-3.873c-.005-2.958-2.028-5.563-4.879-6.285A6.9 6.9 0 0 0 16.373.6M9.54 7.526a6.5 6.5 0 0 0-3.216 1.113c-.501.343-1.081.885-2.726 2.546-1.619 1.634-1.925 2.006-2.334 2.835-.532 1.077-.739 2.031-.691 3.177a6.4 6.4 0 0 0 .941 3.117 6.494 6.494 0 0 0 9.44 1.818c.316-.234 2.18-2.046 2.448-2.382.698-.872.208-2.198-.884-2.393-.346-.062-.727-.004-.998.151-.099.057-.657.575-1.24 1.15-1.261 1.244-1.496 1.415-2.268 1.647-.309.094-.422.107-.932.108-.66.002-.994-.067-1.516-.315q-1.09-.516-1.662-1.653c-.491-.977-.442-2.294.122-3.265.163-.28.406-.541 1.971-2.112 1.915-1.921 2.1-2.08 2.704-2.313.449-.173.812-.24 1.3-.239 1.066.001 1.929.4 2.663 1.232.396.449.65.626 1.02.71.498.113.951-.016 1.338-.381.457-.433.599-1.09.36-1.664-.179-.428-1.058-1.336-1.726-1.782-1.266-.845-2.575-1.197-4.114-1.105"/></svg>