<svg xmlns="http://www.w3.org/2000/svg" width="24" height="24" fill="none" stroke="currentColor" stroke-linecap="round" stroke-linejoin="round" stroke-width="3"><path fill="#000" fill-rule="evenodd" stroke="none" d="M1.516.577C.656.906.276 1.832.657 2.666c.09.196.339.463 1.751 1.881.906.908 1.639 1.658 1.629 1.665-.009.007-.152.091-.317.186C2.057 7.357.871 9.101.577 11.02a8 8 0 0 0 0 1.96 6.5 6.5 0 0 0 4.382 5.18c.8.267 1.229.323 2.661.348 1.355.023 1.694-.003 2.029-.159.425-.198.764-.661.828-1.131a1.5 1.5 0 0 0-.829-1.562l-.228-.116-1.46-.026c-1.63-.03-1.829-.057-2.426-.333-.973-.45-1.744-1.409-1.951-2.429a4.7 4.7 0 0 1 0-1.504c.249-1.225 1.328-2.352 2.522-2.633l.299-.071.979.978.978.978-.39.02c-.328.017-.428.039-.619.136a1.51 1.51 0 0 0-.829 1.126 1.494 1.494 0 0 0 1.287 1.7c.138.02.997.037 1.909.037l1.66.001 4.86 4.858c4.35 4.347 4.885 4.869 5.093 4.964a1.503 1.503 0 0 0 2.01-2.01c-.095-.21-1.076-1.202-10.274-10.395C1.635-.49 2.738.551 2.042.532c-.253-.007-.431.008-.526.045m13 5c-.533.202-.921.673-.993 1.205a1.494 1.494 0 0 0 1.287 1.7c.138.02.79.037 1.45.037 1.062.001 1.239.011 1.536.082a3.52 3.52 0 0 1 2.626 2.716c.09.447.062 1.215-.059 1.636a4.3 4.3 0 0 1-.531 1.099c-.285.42-.366.722-.307 1.145.049.356.192.631.455.88.382.36.844.495 1.322.384.143-.033.317-.089.384-.124.609-.315 1.373-1.664 1.652-2.914.395-1.775.053-3.55-.982-5.105-.369-.552-1.129-1.3-1.716-1.689a6.7 6.7 0 0 0-2.331-.999c-.334-.075-.523-.084-2.009-.095-1.315-.01-1.669-.002-1.784.042"/></svg>