<svg xmlns="http://www.w3.org/2000/svg" width="24" height="24" fill="none" stroke="currentColor" stroke-linecap="round" stroke-linejoin="round" stroke-width="3"><path fill="#000" fill-rule="evenodd" stroke="none" d="M2.516 4.579c-.365.134-.71.443-.864.773a1.5 1.5 0 0 0 1.158 2.13c.329.048 13.051.048 13.38 0a1.494 1.494 0 0 0 1.287-1.7 1.51 1.51 0 0 0-.829-1.126l-.228-.116-6.88-.007c-5.652-.007-6.906.002-7.024.046m18-.002a1.54 1.54 0 0 0-.998 1.233c-.02.138-.037 1.502-.037 3.033l-.001 2.783-.25-.052c-.56-.117-1.442-.051-2.05.154-1.323.447-2.395 1.716-2.624 3.106a5.3 5.3 0 0 0 0 1.332c.27 1.637 1.641 3.008 3.278 3.278.341.056.991.056 1.332 0 1.62-.267 2.947-1.579 3.28-3.244.059-.294.096-9.95.04-10.354-.075-.539-.363-.95-.836-1.189-.195-.099-.28-.116-.608-.125-.253-.007-.431.008-.526.045m-18 6.001c-.365.136-.71.444-.864.774a1.5 1.5 0 0 0 1.158 2.13c.326.047 9.054.047 9.38 0a1.494 1.494 0 0 0 1.287-1.7 1.51 1.51 0 0 0-.829-1.126l-.228-.116-4.88-.008c-3.989-.006-4.906.003-5.024.046m16.507 4.084c.283.174.431.432.451.784.013.237 0 .305-.095.499-.349.713-1.379.724-1.748.018a.98.98 0 0 1 .418-1.341c.181-.092.251-.105.495-.094.232.011.319.035.479.134M2.516 16.578c-.365.136-.71.444-.864.774a1.5 1.5 0 0 0 1.158 2.13c.326.047 9.054.047 9.38 0a1.494 1.494 0 0 0 1.287-1.7 1.51 1.51 0 0 0-.829-1.126l-.228-.116-4.88-.008c-3.989-.006-4.906.003-5.024.046"/></svg>