<svg xmlns="http://www.w3.org/2000/svg" width="24" height="24" fill="none" stroke="currentColor" stroke-linecap="round" stroke-linejoin="round" stroke-width="3"><path fill="#000" fill-rule="evenodd" stroke="none" d="M3.38 3.575c-.454.114-.95.422-1.279.794-.209.237-.465.739-.547 1.071-.079.32-.079 4.8 0 5.12.175.713.701 1.372 1.334 1.674.569.27.517.266 3.112.266s2.543.004 3.112-.266a2.5 2.5 0 0 0 1.122-1.122c.27-.569.266-.517.266-3.112 0-2.594.004-2.544-.265-3.11-.261-.548-.8-1.027-1.418-1.26-.235-.089-.254-.09-2.737-.097-1.891-.006-2.549.005-2.7.042m9.136 1.003c-.365.136-.71.444-.864.774a1.5 1.5 0 0 0 1.158 2.13c.326.047 8.054.047 8.38 0a1.494 1.494 0 0 0 1.287-1.7 1.51 1.51 0 0 0-.829-1.126l-.228-.116-4.38-.008c-3.573-.006-4.407.003-4.524.046M7.48 8.02v1.5H4.52v-3h2.96zm5.036 2.558c-.365.136-.71.444-.864.774a1.5 1.5 0 0 0 1.158 2.13c.326.047 8.054.047 8.38 0a1.494 1.494 0 0 0 1.287-1.7 1.51 1.51 0 0 0-.829-1.126l-.228-.116-4.38-.008c-3.573-.006-4.407.003-4.524.046m-4 2.999c-.317.12-.553.33-2.004 1.775l-1.508 1.502-.553-.537c-.723-.702-.863-.777-1.451-.777-.384 0-.44.01-.648.116-.754.381-1.048 1.237-.694 2.012.09.195.286.411 1.275 1.399.988.989 1.204 1.185 1.399 1.275.432.197.903.197 1.336 0 .203-.093.499-.373 2.4-2.274s2.181-2.197 2.274-2.4c.354-.776.06-1.63-.694-2.012-.198-.101-.279-.117-.608-.125-.246-.006-.431.01-.524.046m4 3.001c-.365.136-.71.444-.864.774a1.5 1.5 0 0 0 1.158 2.13c.326.047 8.054.047 8.38 0a1.494 1.494 0 0 0 1.287-1.7 1.51 1.51 0 0 0-.829-1.126l-.228-.116-4.38-.008c-3.573-.006-4.407.003-4.524.046"/></svg>