<svg xmlns="http://www.w3.org/2000/svg" width="24" height="24" fill="none" stroke="currentColor" stroke-linecap="round" stroke-linejoin="round" stroke-width="3"><path fill="#000" fill-rule="evenodd" stroke="none" d="M3.516 4.577c-.85.321-1.242 1.26-.865 2.071.115.248.45.593.673.694l.156.07V8.58l-.191.107a1.51 1.51 0 0 0-.766 1.095 1.494 1.494 0 0 0 1.287 1.7c.138.02.673.036 1.19.036s1.052-.016 1.19-.036a1.494 1.494 0 0 0 1.287-1.7 1.51 1.51 0 0 0-.766-1.095L6.52 8.58l-.001-1.26c0-.693-.017-1.372-.037-1.51a1.51 1.51 0 0 0-.834-1.154L5.42 4.54l-.88-.009c-.663-.006-.916.005-1.024.046m6 .002c-.365.134-.71.443-.864.773a1.5 1.5 0 0 0 1.158 2.13c.327.048 11.053.048 11.38 0a1.494 1.494 0 0 0 1.287-1.7 1.51 1.51 0 0 0-.829-1.126l-.228-.116-5.88-.007c-4.82-.007-5.906.002-6.024.046m0 6c-.365.134-.71.443-.864.773a1.5 1.5 0 0 0 1.158 2.13c.327.048 11.053.048 11.38 0a1.494 1.494 0 0 0 1.287-1.7 1.51 1.51 0 0 0-.829-1.126l-.228-.116-5.88-.007c-4.82-.007-5.906.002-6.024.046M4.06 12.398c-.963.255-1.404.652-1.537 1.384-.136.75.439 1.561 1.191 1.682l.164.026-.304.325c-.314.336-.645.776-.777 1.033-.291.564-.367 1.258-.186 1.705.157.39.444.676.841.841.242.1.276.103 1.328.118 1.187.017 1.549-.015 1.869-.163.924-.43 1.129-1.691.392-2.415l-.209-.206.162-.24c.392-.576.55-1.172.481-1.804-.07-.634-.308-1.123-.772-1.586a2.6 2.6 0 0 0-1.286-.718c-.386-.082-1.01-.073-1.357.018m5.456 4.181c-.365.134-.71.443-.864.773a1.5 1.5 0 0 0 1.158 2.13c.327.048 11.053.048 11.38 0a1.494 1.494 0 0 0 1.287-1.7 1.51 1.51 0 0 0-.829-1.126l-.228-.116-5.88-.007c-4.82-.007-5.906.002-6.024.046"/></svg>