<svg xmlns="http://www.w3.org/2000/svg" width="24" height="24" fill="none" stroke="currentColor" stroke-linecap="round" stroke-linejoin="round" stroke-width="3"><path fill="#000" fill-rule="evenodd" stroke="none" d="M2.516 4.577a1.54 1.54 0 0 0-.998 1.233c-.05.347-.047 10.029.003 10.507.18 1.707 1.455 2.982 3.162 3.162.471.05 3.169.052 3.507.003a1.494 1.494 0 0 0 1.287-1.7 1.51 1.51 0 0 0-.829-1.126l-.228-.116-1.78-.02c-1.895-.021-1.875-.019-2.037-.225-.08-.102-.083-.15-.083-1.45V13.5l1.67.014c.985.008 1.789-.003 1.959-.027.376-.052.664-.19.906-.432.726-.726.523-1.928-.407-2.399l-.228-.116-1.78-.02c-1.895-.021-1.875-.019-2.037-.225-.082-.104-.083-.141-.084-2.17 0-1.136-.017-2.177-.037-2.315a1.51 1.51 0 0 0-.832-1.153c-.195-.099-.28-.116-.608-.125-.253-.007-.431.008-.526.045m5 .002c-.365.134-.71.443-.864.773a1.5 1.5 0 0 0 1.158 2.13c.329.048 13.051.048 13.38 0a1.494 1.494 0 0 0 1.287-1.7 1.51 1.51 0 0 0-.829-1.126l-.228-.116-6.88-.007c-5.652-.007-6.906.002-7.024.046m5 5.999c-.365.136-.71.444-.864.774a1.5 1.5 0 0 0 1.158 2.13c.326.047 8.054.047 8.38 0a1.494 1.494 0 0 0 1.287-1.7 1.51 1.51 0 0 0-.829-1.126l-.228-.116-4.38-.008c-3.573-.006-4.407.003-4.524.046m0 6c-.365.136-.71.444-.864.774a1.5 1.5 0 0 0 1.158 2.13c.326.047 8.054.047 8.38 0a1.494 1.494 0 0 0 1.287-1.7 1.51 1.51 0 0 0-.829-1.126l-.228-.116-4.38-.008c-3.573-.006-4.407.003-4.524.046"/></svg>