<svg xmlns="http://www.w3.org/2000/svg" width="24" height="24" fill="none" stroke="currentColor" stroke-linecap="round" stroke-linejoin="round" stroke-width="3"><path fill="#000" fill-rule="evenodd" stroke="none" d="M2.516 4.579c-.365.134-.71.443-.864.773a1.5 1.5 0 0 0 1.158 2.13c.329.048 13.051.048 13.38 0a1.494 1.494 0 0 0 1.287-1.7 1.51 1.51 0 0 0-.829-1.126l-.228-.116-6.88-.007c-5.652-.007-6.906.002-7.024.046m0 5.999c-.365.136-.71.444-.864.774a1.5 1.5 0 0 0 1.158 2.13c.326.047 9.054.047 9.38 0a1.494 1.494 0 0 0 1.287-1.7 1.51 1.51 0 0 0-.829-1.126l-.228-.116-4.88-.008c-3.989-.006-4.906.003-5.024.046m13 .001a1.53 1.53 0 0 0-1.001 1.259c-.023.162-.033 1.54-.026 3.349.011 2.751.02 3.094.08 3.269.144.42.472.763.9.939.28.115.738.129 1.002.031.318-.118 5.416-3.205 5.601-3.392a1.49 1.49 0 0 0 .002-2.066c-.2-.206-5.348-3.31-5.628-3.394-.225-.068-.74-.065-.93.005m2.281 4.246c.134.079.243.158.243.175 0 .027-.46.32-.503.32-.009 0-.017-.144-.017-.32s.008-.32.017-.32.127.065.26.145M2.516 16.578c-.365.136-.71.444-.864.774a1.5 1.5 0 0 0 1.158 2.13c.326.047 9.054.047 9.38 0a1.494 1.494 0 0 0 1.287-1.7 1.51 1.51 0 0 0-.829-1.126l-.228-.116-4.88-.008c-3.989-.006-4.906.003-5.024.046"/></svg>