<svg xmlns="http://www.w3.org/2000/svg" width="24" height="24" fill="none" stroke="currentColor" stroke-linecap="round" stroke-linejoin="round" stroke-width="3"><path fill="#000" fill-rule="evenodd" stroke="none" d="M2.516 4.579c-.365.134-.71.443-.864.773a1.5 1.5 0 0 0 1.158 2.13c.329.048 13.051.048 13.38 0a1.494 1.494 0 0 0 1.287-1.7 1.51 1.51 0 0 0-.829-1.126l-.228-.116-6.88-.007c-5.652-.007-6.906.002-7.024.046m18-.002a1.54 1.54 0 0 0-.998 1.233c-.02.138-.037 2.519-.037 5.317l-.001 5.067-.103.122a.6.6 0 0 1-.25.163c-.081.022-.495.041-.921.041h-.773l.029-.17c.128-.753-.167-1.363-.822-1.698-.2-.102-.259-.112-.64-.112-.659 0-.669.006-2.066 1.398-1.256 1.252-1.336 1.354-1.41 1.818-.05.31.004.663.143.938.074.148.378.483 1.068 1.181 1.188 1.2 1.426 1.41 1.731 1.524.333.124.765.12 1.089-.011.563-.227.926-.751.932-1.342a2.5 2.5 0 0 0-.024-.393l-.027-.122 1.012-.023c.682-.015 1.1-.042 1.282-.083a3.67 3.67 0 0 0 1.778-.997c.573-.6.883-1.272.971-2.111.05-.478.053-10.16.003-10.507a1.51 1.51 0 0 0-.832-1.153c-.195-.099-.28-.116-.608-.125-.253-.007-.431.008-.526.045m-18 6.002c-.365.134-.71.443-.864.773a1.5 1.5 0 0 0 1.158 2.13c.329.048 13.051.048 13.38 0a1.494 1.494 0 0 0 1.287-1.7 1.51 1.51 0 0 0-.829-1.126l-.228-.116-6.88-.007c-5.652-.007-6.906.002-7.024.046m0 5.999c-.366.136-.71.444-.864.774a1.5 1.5 0 0 0 1.158 2.13c.138.02 1.798.036 3.69.036s3.552-.016 3.69-.036a1.494 1.494 0 0 0 1.287-1.7 1.51 1.51 0 0 0-.829-1.126l-.228-.116-3.88-.008c-3.157-.006-3.907.003-4.024.046"/></svg>