<svg xmlns="http://www.w3.org/2000/svg" width="24" height="24" fill="none" stroke="currentColor" stroke-linecap="round" stroke-linejoin="round" stroke-width="3"><path fill="#000" fill-rule="evenodd" stroke="none" d="M15.516 2.577c-.312.119-.536.312-1.621 1.397-1.213 1.213-1.297 1.323-1.371 1.782-.05.31.004.663.143.938.074.148.378.483 1.068 1.181 1.188 1.2 1.426 1.41 1.731 1.524.333.124.765.12 1.089-.011.563-.227.926-.751.932-1.342.001-.15-.01-.329-.025-.399l-.028-.127h1.765l.13.117.131.116.02 5.274.02 5.273.105.248c.25.595.761.938 1.395.938s1.145-.343 1.395-.938l.105-.248.012-5.08c.007-3.292-.003-5.226-.03-5.495-.129-1.289-.811-2.29-1.949-2.859-.578-.29-.742-.318-1.986-.336l-1.113-.017.029-.166c.127-.75-.17-1.361-.823-1.695-.189-.096-.273-.113-.6-.121-.246-.006-.431.01-.524.046m-13 2.001c-.366.136-.71.444-.864.774a1.5 1.5 0 0 0 1.158 2.13c.326.047 7.054.047 7.38 0a1.494 1.494 0 0 0 1.287-1.7 1.51 1.51 0 0 0-.829-1.126l-.228-.116-3.88-.008c-3.157-.006-3.907.003-4.024.046m0 6.001c-.365.134-.71.443-.864.773a1.5 1.5 0 0 0 1.158 2.13c.329.048 13.051.048 13.38 0a1.494 1.494 0 0 0 1.287-1.7 1.51 1.51 0 0 0-.829-1.126l-.228-.116-6.88-.007c-5.652-.007-6.906.002-7.024.046m0 6c-.365.134-.71.443-.864.773a1.5 1.5 0 0 0 1.158 2.13c.329.048 13.051.048 13.38 0a1.494 1.494 0 0 0 1.287-1.7 1.51 1.51 0 0 0-.829-1.126l-.228-.116-6.88-.007c-5.652-.007-6.906.002-7.024.046"/></svg>