<svg xmlns="http://www.w3.org/2000/svg" width="24" height="24" fill="none" stroke="currentColor" stroke-linecap="round" stroke-linejoin="round" stroke-width="3"><path fill="#000" fill-rule="evenodd" stroke="none" d="M2.516 4.579c-.365.134-.71.443-.864.773a1.5 1.5 0 0 0 1.158 2.13c.33.048 18.05.048 18.38 0a1.494 1.494 0 0 0 1.287-1.7 1.51 1.51 0 0 0-.829-1.126l-.228-.116-9.38-.007c-7.731-.006-9.405.002-9.524.046m8 3.998a1.54 1.54 0 0 0-.998 1.233c-.051.351-.047 4.108.004 4.424.053.327.187.588.421.823.235.234.496.368.823.421.316.051 4.073.055 4.424.004a1.494 1.494 0 0 0 1.287-1.7 1.51 1.51 0 0 0-.823-1.123c-.17-.086-.296-.117-.538-.131-.174-.01-.316-.031-.316-.047 0-.049.522-.272.86-.367.385-.109 1.18-.129 1.54-.039 1.088.272 1.999 1.195 2.221 2.248a4.3 4.3 0 0 1-.001 1.399c-.194.922-.838 1.822-1.639 2.291a4 4 0 0 1-1.413.468c-.678.083-1.47-.086-2.128-.452-.234-.13-.424-.293-.862-.736-.696-.705-.778-.75-1.378-.752-.379-.001-.442.01-.644.109-.265.13-.608.476-.718.724a1.6 1.6 0 0 0-.005 1.239c.186.418 1.044 1.308 1.675 1.738 1.22.831 2.782 1.256 4.164 1.132 1.553-.139 2.917-.743 3.983-1.763 1.44-1.379 2.162-3.215 2.022-5.141a6.1 6.1 0 0 0-1.105-3.07c-.267-.375-.881-1.01-1.232-1.273a6.2 6.2 0 0 0-2.64-1.145c-.442-.08-1.511-.088-1.94-.015-1.085.185-2.044.585-2.85 1.189l-.19.143-.001-.174c-.003-.757-.295-1.287-.869-1.577-.195-.099-.28-.116-.608-.125q-.382-.01-.526.045m-8 2.001c-.366.136-.71.444-.864.774a1.5 1.5 0 0 0 1.158 2.13c.138.02 1.123.036 2.19.036s2.052-.016 2.19-.036a1.494 1.494 0 0 0 1.287-1.7 1.51 1.51 0 0 0-.829-1.126l-.228-.116-2.38-.008c-1.91-.006-2.409.003-2.524.046m0 6c-.366.136-.71.444-.864.774a1.5 1.5 0 0 0 1.158 2.13c.138.02 1.123.036 2.19.036s2.052-.016 2.19-.036a1.494 1.494 0 0 0 1.287-1.7 1.51 1.51 0 0 0-.829-1.126l-.228-.116-2.38-.008c-1.91-.006-2.409.003-2.524.046"/></svg>