<svg xmlns="http://www.w3.org/2000/svg" width="24" height="24" fill="none" stroke="currentColor" stroke-linecap="round" stroke-linejoin="round" stroke-width="3"><path fill="#000" fill-rule="evenodd" stroke="none" d="M2.516 3.577c-.855.325-1.24 1.255-.862 2.082.081.176.269.391.901 1.032l.798.809-.798.809c-.862.873-.972 1.03-1.032 1.473-.163 1.201 1.032 2.069 2.145 1.559.199-.091.432-.306 1.64-1.513 1.293-1.294 1.418-1.431 1.54-1.688.119-.252.132-.315.132-.64s-.013-.388-.132-.64c-.122-.258-.244-.391-1.54-1.682C3.665 3.542 3.67 3.546 3.04 3.531c-.246-.006-.431.01-.524.046m7 1.002c-.365.134-.71.443-.864.773a1.5 1.5 0 0 0 1.158 2.13c.327.048 11.053.048 11.38 0a1.494 1.494 0 0 0 1.287-1.7 1.51 1.51 0 0 0-.829-1.126l-.228-.116-5.88-.007c-4.82-.007-5.906.002-6.024.046m0 6c-.365.134-.71.443-.864.773a1.5 1.5 0 0 0 1.158 2.13c.327.048 11.053.048 11.38 0a1.494 1.494 0 0 0 1.287-1.7 1.51 1.51 0 0 0-.829-1.126l-.228-.116-5.88-.007c-4.82-.007-5.906.002-6.024.046m-7 1.998c-.855.325-1.24 1.255-.862 2.082.081.176.269.391.901 1.032l.798.809-.798.809c-.862.873-.972 1.03-1.032 1.473-.163 1.201 1.032 2.069 2.145 1.559.199-.091.432-.306 1.64-1.513 1.293-1.294 1.418-1.431 1.54-1.688.119-.252.132-.315.132-.64s-.013-.388-.132-.64c-.122-.258-.244-.391-1.54-1.682-1.643-1.636-1.638-1.632-2.268-1.647-.246-.006-.431.01-.524.046m7 4.002c-.365.134-.71.443-.864.773a1.5 1.5 0 0 0 1.158 2.13c.327.048 11.053.048 11.38 0a1.494 1.494 0 0 0 1.287-1.7 1.51 1.51 0 0 0-.829-1.126l-.228-.116-5.88-.007c-4.82-.007-5.906.002-6.024.046"/></svg>