<svg xmlns="http://www.w3.org/2000/svg" width="24" height="24" fill="none" stroke="currentColor" stroke-linecap="round" stroke-linejoin="round" stroke-width="3"><path fill="#000" fill-rule="evenodd" stroke="none" d="M2.516 4.579c-.365.134-.71.443-.864.773a1.5 1.5 0 0 0 1.158 2.13c.329.048 13.051.048 13.38 0a1.494 1.494 0 0 0 1.287-1.7 1.51 1.51 0 0 0-.829-1.126l-.228-.116-6.88-.007c-5.652-.007-6.906.002-7.024.046m12 3.998c-.689.262-1.09.925-.993 1.641.055.405.184.606.778 1.217l.549.565-.549.565c-.594.611-.723.812-.778 1.217a1.493 1.493 0 0 0 1.695 1.695c.405-.055.606-.184 1.217-.778L17 14.15l.565.549c.411.4.624.577.782.649a1.5 1.5 0 0 0 2.13-1.566c-.055-.405-.184-.606-.778-1.217L19.15 12l.549-.565c.594-.611.723-.812.778-1.217a1.5 1.5 0 0 0-.829-1.562c-.208-.106-.264-.116-.648-.116-.587 0-.729.076-1.449.775L17 9.85l-.551-.535c-.7-.68-.864-.771-1.409-.784-.246-.006-.431.01-.524.046m-12 2.001c-.365.136-.71.444-.864.774a1.5 1.5 0 0 0 1.158 2.13c.326.047 8.054.047 8.38 0a1.494 1.494 0 0 0 1.287-1.7 1.51 1.51 0 0 0-.829-1.126l-.228-.116-4.38-.008c-3.573-.006-4.407.003-4.524.046m0 6.001c-.365.134-.71.443-.864.773a1.5 1.5 0 0 0 1.158 2.13c.329.048 13.051.048 13.38 0a1.494 1.494 0 0 0 1.287-1.7 1.51 1.51 0 0 0-.829-1.126l-.228-.116-6.88-.007c-5.652-.007-6.906.002-7.024.046"/></svg>