<svg xmlns="http://www.w3.org/2000/svg" width="24" height="24" fill="none" stroke="currentColor" stroke-linecap="round" stroke-linejoin="round" stroke-width="3"><path fill="#000" fill-rule="evenodd" stroke="none" d="M10.726 1.583c-2.357.303-4.465 1.329-6.125 2.983-1.709 1.702-2.765 3.9-3.043 6.332-.059.518-.058 1.69.002 2.222.515 4.551 3.874 8.242 8.34 9.161 1.345.277 2.855.277 4.2 0a10.5 10.5 0 0 0 8.181-8.181c.126-.611.199-1.279.204-1.867.004-.461-.007-.565-.084-.766q-.202-.529-.761-.815c-.2-.102-.259-.112-.64-.112s-.44.01-.64.112c-.371.19-.628.463-.756.807-.064.17-.094.385-.124.876-.072 1.195-.288 2.045-.755 2.975-1.213 2.411-3.469 3.935-6.175 4.171-2.234.194-4.678-.798-6.148-2.498-.956-1.104-1.528-2.284-1.788-3.683-.104-.559-.104-2.066 0-2.62.152-.811.35-1.386.725-2.108.926-1.778 2.44-3.069 4.323-3.688 1.45-.476 2.933-.501 4.438-.076.675.191 1.017.168 1.458-.097.477-.286.757-.837.71-1.396-.042-.498-.354-.974-.781-1.192-.368-.187-1.406-.436-2.26-.541-.609-.075-1.91-.075-2.501.001"/></svg>