<svg xmlns="http://www.w3.org/2000/svg" width="24" height="24" fill="none" stroke="currentColor" stroke-linecap="round" stroke-linejoin="round" stroke-width="3"><path fill="#000" fill-rule="evenodd" stroke="none" d="M10.82.563a11.4 11.4 0 0 0-3.233.821c-.857.349-1.186.52-1.781.925-.902.613-1.468 1.077-2.049 1.677C1.978 5.823.898 8.09.578 10.66c-.087.691-.087 1.989 0 2.68.362 2.905 1.723 5.472 3.895 7.347 1.114.962 2.06 1.529 3.447 2.065 1.97.761 4.29.945 6.409.509a11.53 11.53 0 0 0 8.932-8.932 11.8 11.8 0 0 0 0-4.658C22.306 5.036 18.563 1.433 13.9.663c-.846-.14-2.244-.185-3.08-.1m4.72 3.716c.406.186 1.131.689 1.453 1.007.446.44.77 1.064.908 1.749.094.462.066 1.232-.059 1.625-.255.801-.786 1.521-1.434 1.945-.306.2-.786.404-1.114.474l-.284.062c-.085.019-.083.008.053-.23.365-.638.61-1.277.78-2.031.11-.488.149-1.506.079-2.066-.118-.943-.481-1.946-.98-2.706l-.074-.112.176.068c.097.037.32.134.496.215m-5.184-.035c1.048.265 1.844.933 2.307 1.934.339.734.394 1.651.147 2.452-.035.115-.075.21-.088.21s-.085-.104-.16-.23c-.589-.995-1.6-1.918-2.662-2.43-.942-.454-1.616-.616-2.738-.656L6.503 5.5l.359-.264c.674-.496 1.276-.846 1.678-.974.501-.16 1.23-.167 1.816-.018m-2.63 4.332a3.35 3.35 0 0 1 1.754.942l.3.301-.52.027c-1.081.056-1.991.307-2.9.801a6.6 6.6 0 0 0-2.553 2.551c-.18.331-.181.33-.245-.197-.06-.483-.052-1.382.014-1.727.256-1.332 1.34-2.428 2.664-2.694.351-.071 1.127-.073 1.486-.004m12.698 2.352c.071.539.071 1.427 0 1.798a3.43 3.43 0 0 1-2.335 2.61c-.88.274-1.992.177-2.769-.244-.369-.199-.825-.571-1.004-.819l-.077-.106.391-.003c.956-.008 1.802-.218 2.75-.685a6.4 6.4 0 0 0 2.864-2.808c.05-.104.099-.182.108-.172.01.009.042.202.072.429M8.913 12.911c-.007.017-.106.219-.22.45a6 6 0 0 0-.642 2.599c-.046 1.435.273 2.586 1.056 3.81.095.148.163.27.151.27-.064 0-.771-.296-1.098-.46-.973-.487-1.42-.897-1.794-1.647-.264-.527-.366-.975-.369-1.613a3.47 3.47 0 0 1 1.614-2.937c.302-.192.538-.295.929-.406.365-.104.392-.109.373-.066m2.504 2.44c.703 1.209 1.944 2.244 3.272 2.73a6.5 6.5 0 0 0 2.275.406c.284.001.516.006.516.012 0 .019-.58.451-.667.496a.4.4 0 0 1-.154.045c-.036 0-.299.109-.583.242-.68.318-1.097.414-1.676.385-1.549-.077-2.728-.974-3.224-2.456-.178-.529-.181-1.384-.007-1.981.024-.082.054-.15.067-.149.013 0 .095.122.181.27"/></svg>