<svg xmlns="http://www.w3.org/2000/svg" width="24" height="24" fill="none" stroke="currentColor" stroke-linecap="round" stroke-linejoin="round" stroke-width="3"><path fill="#000" fill-rule="evenodd" stroke="none" d="M11.516.577c-.559.214-.919.67-1.002 1.267-.023.165-.034 1.152-.027 2.369L10.5 6.3l.105.248c.25.595.761.938 1.395.938s1.145-.343 1.395-.938L13.5 6.3l.013-2.087c.007-1.217-.004-2.204-.027-2.369-.075-.537-.364-.948-.836-1.187-.195-.099-.28-.116-.608-.125q-.382-.01-.526.045M4.574 3.439c-.424.09-.845.438-1.042.861-.097.207-.112.29-.112.6 0 .324.013.388.132.64.123.259.252.399 1.74 1.888 1.39 1.39 1.639 1.622 1.84 1.713a1.502 1.502 0 0 0 2.009-2.009c-.091-.201-.323-.45-1.713-1.84C5.976 3.84 5.795 3.673 5.56 3.563a1.74 1.74 0 0 0-.986-.124m14.2 0c-.415.088-.527.183-2.202 1.855-1.391 1.39-1.622 1.637-1.713 1.838a1.502 1.502 0 0 0 2.009 2.009c.201-.091.45-.323 1.84-1.713 1.488-1.489 1.617-1.629 1.74-1.888.119-.252.132-.316.132-.64 0-.311-.015-.394-.113-.604a1.68 1.68 0 0 0-.748-.753 1.8 1.8 0 0 0-.945-.104M1.516 10.578c-.366.136-.71.444-.864.774a1.5 1.5 0 0 0 1.158 2.13c.138.02 1.123.036 2.19.036s2.052-.016 2.19-.036a1.494 1.494 0 0 0 1.287-1.7 1.51 1.51 0 0 0-.829-1.126l-.228-.116-2.38-.008c-1.91-.006-2.409.003-2.524.046m16 0c-.366.136-.71.444-.864.774a1.5 1.5 0 0 0 1.158 2.13c.138.02 1.123.036 2.19.036s2.052-.016 2.19-.036a1.494 1.494 0 0 0 1.287-1.7 1.51 1.51 0 0 0-.829-1.126l-.228-.116-2.38-.008c-1.91-.006-2.409.003-2.524.046m-10.2 4.199c-.322.123-.56.335-2.064 1.838-1.448 1.446-1.578 1.588-1.7 1.846-.119.251-.132.315-.132.639 0 .311.015.394.113.604.143.309.452.617.767.764.207.097.29.112.6.112.324 0 .388-.013.64-.132.259-.123.399-.252 1.888-1.74 1.39-1.39 1.622-1.639 1.713-1.84.355-.775.061-1.631-.691-2.011-.195-.099-.28-.116-.608-.125-.253-.007-.431.008-.526.045m8.4 0c-.861.33-1.24 1.255-.857 2.091.091.201.323.45 1.713 1.84 1.489 1.488 1.629 1.617 1.888 1.74.252.119.316.132.64.132.311 0 .394-.015.604-.113.309-.143.617-.452.764-.767.097-.207.112-.29.112-.6 0-.324-.013-.388-.132-.64-.123-.26-.249-.396-1.74-1.882-1.864-1.857-1.826-1.829-2.466-1.846q-.381-.01-.526.045m-4.2 1.8c-.559.214-.919.67-1.002 1.267-.023.165-.034 1.152-.027 2.369L10.5 22.3l.105.248c.25.595.761.938 1.395.938s1.145-.343 1.395-.938l.105-.248.013-2.087c.007-1.217-.004-2.204-.027-2.369-.075-.537-.364-.948-.836-1.187-.195-.099-.28-.116-.608-.125q-.382-.01-.526.045"/></svg>