<svg xmlns="http://www.w3.org/2000/svg" width="24" height="24" fill="none" stroke="currentColor" stroke-linecap="round" stroke-linejoin="round" stroke-width="3"><path fill="#000" fill-rule="evenodd" stroke="none" d="M1.516.577C.655.907.276 1.832.658 2.667c.092.201.38.506 2.244 2.373C4.078 6.219 5.04 7.195 5.04 7.21a3 3 0 0 1-.216.359 8.8 8.8 0 0 0-1.126 2.659l-.064.288-1.027.012-1.027.012-.228.116a1.51 1.51 0 0 0-.829 1.126 1.494 1.494 0 0 0 1.287 1.7c.138.02.601.037 1.03.037l.78.001.135.53c.779 3.078 3.115 5.416 6.191 6.194l.525.133.017.962c.016.92.021.971.119 1.209.244.592.758.938 1.393.938s1.149-.346 1.393-.938c.098-.238.103-.288.119-1.217l.017-.97.146-.04c.08-.022.168-.041.196-.041.075 0 .913-.274 1.189-.389a10 10 0 0 0 1.371-.715 3 3 0 0 1 .359-.216c.015 0 .991.962 2.17 2.138 1.867 1.864 2.172 2.152 2.373 2.244a1.503 1.503 0 0 0 2.009-2.01c-.095-.21-1.076-1.202-10.274-10.395C1.635-.49 2.738.551 2.042.532c-.253-.007-.431.008-.526.045m10 0c-.371.142-.711.446-.864.773-.137.293-.17.588-.171 1.499l-.001.789-.11.025c-.463.103-.892.235-1.057.325-.379.206-.662.612-.754 1.083-.042.212-.039.286.019.518.133.531.379.84.838 1.055.364.17.638.186 1.124.063.578-.145.91-.187 1.488-.187.829 0 1.586.169 2.313.516 1.669.794 2.768 2.261 3.084 4.114.102.6.059 1.51-.105 2.21-.148.631-.141.843.037 1.225.154.33.362.55.657.695.612.299 1.205.222 1.699-.221.297-.267.437-.587.624-1.429l.025-.11.789-.001c.434 0 .901-.017 1.039-.037a1.494 1.494 0 0 0 1.287-1.7 1.51 1.51 0 0 0-.829-1.126l-.228-.116-1.016-.02-1.016-.02-.147-.56c-.391-1.497-1.044-2.69-2.06-3.77a8.53 8.53 0 0 0-4.131-2.414l-.53-.131-.001-.782c0-.431-.017-.895-.037-1.033A1.51 1.51 0 0 0 12.65.657c-.195-.099-.28-.116-.608-.125q-.382-.01-.526.045m-.578 12.501c2.023 2.023 3.67 3.687 3.66 3.696-.073.071-.725.365-1.025.462-.565.184-.955.244-1.587.244a5.2 5.2 0 0 1-2.414-.552 5.5 5.5 0 0 1-2.994-4.048 5.7 5.7 0 0 1 .143-2.329c.086-.291.47-1.151.515-1.151.013 0 1.679 1.655 3.702 3.678"/></svg>