<svg xmlns="http://www.w3.org/2000/svg" width="24" height="24" fill="none" stroke="currentColor" stroke-linecap="round" stroke-linejoin="round" stroke-width="3"><path fill="#000" fill-rule="evenodd" stroke="none" d="M11.516.577c-.371.142-.711.446-.864.773-.136.292-.17.587-.171 1.493l-.001.782-.51.127A8.48 8.48 0 0 0 3.76 9.94l-.148.56-1.016.02-1.016.02-.228.116a1.51 1.51 0 0 0-.829 1.126 1.494 1.494 0 0 0 1.287 1.7c.138.02.601.037 1.03.037l.78.001.13.512c.217.852.598 1.766 1.022 2.446.459.736 1.283 1.663 1.931 2.172a8.7 8.7 0 0 0 3.26 1.598l.508.129.017.962c.016.92.021.971.119 1.209.244.592.758.938 1.393.938s1.149-.346 1.393-.938c.098-.238.103-.289.119-1.209l.017-.962.508-.129a8.7 8.7 0 0 0 3.26-1.599 11 11 0 0 0 1.353-1.353 8.9 8.9 0 0 0 1.632-3.386l.094-.39.782-.001c.43 0 .894-.017 1.032-.037a1.494 1.494 0 0 0 1.287-1.7 1.51 1.51 0 0 0-.829-1.126l-.228-.116-1.016-.02-1.016-.02-.148-.56c-.422-1.604-1.124-2.836-2.256-3.961a8.4 8.4 0 0 0-3.954-2.227l-.51-.127-.001-.782c0-.431-.017-.895-.037-1.033A1.51 1.51 0 0 0 12.65.657c-.195-.099-.28-.116-.608-.125q-.382-.01-.526.045m1.374 6.005c.759.132 1.563.447 2.158.845 1.257.84 2.103 2.156 2.37 3.683.08.453.08 1.327 0 1.78-.359 2.055-1.743 3.672-3.704 4.328-.55.184-1.059.262-1.714.262s-1.164-.078-1.714-.262c-2.842-.951-4.376-3.898-3.543-6.808.111-.388.446-1.099.692-1.471.807-1.218 2.144-2.082 3.646-2.356.418-.076 1.378-.077 1.809-.001"/></svg>