<svg xmlns="http://www.w3.org/2000/svg" width="24" height="24" fill="none" stroke="currentColor" stroke-linecap="round" stroke-linejoin="round" stroke-width="3"><path fill="#000" fill-rule="evenodd" stroke="none" d="M11.5.523C9.434.682 7.566 1.827 6.451 3.62c-.72 1.156-.97 2.237-.971 4.185v.705l-.57.021c-.413.015-.651.044-.863.106a3.56 3.56 0 0 0-2.495 2.751c-.075.396-.075 8.828 0 9.224.221 1.168 1.036 2.177 2.116 2.617.716.292.076.271 8.332.271 6.835 0 7.443-.005 7.71-.068a3.7 3.7 0 0 0 1.798-1.004c.573-.6.883-1.272.971-2.111.023-.223.04-1.99.04-4.317s-.017-4.094-.04-4.317c-.154-1.464-1.104-2.612-2.526-3.052l-.293-.09-5.573-.011-5.574-.012.015-1.109.014-1.109.134-.39c.324-.942 1.06-1.752 1.923-2.115.522-.22.913-.286 1.541-.263.619.023.904.091 1.396.334.598.295 1.03.687 1.458 1.325.293.435.511.613.9.734.915.284 1.83-.341 1.932-1.322.032-.304-.061-.621-.293-1.001A6.51 6.51 0 0 0 11.5.523m7.844 11.133.136.136v8.402l-.103.122a.6.6 0 0 1-.25.163c-.204.056-14.05.056-14.254 0a.6.6 0 0 1-.25-.163l-.103-.122v-8.402l.136-.136.136-.136h14.416zm-7.964 1.918a2.73 2.73 0 0 0-1.279.795c-.21.239-.469.746-.542 1.064A3 3 0 0 0 9.51 16c0 .446.058.695.256 1.112.223.467.655.899 1.122 1.122.417.198.666.256 1.112.256s.695-.058 1.112-.256a2.5 2.5 0 0 0 1.122-1.122c.198-.417.256-.666.256-1.112s-.058-.695-.255-1.11c-.262-.55-.811-1.037-1.418-1.257-.295-.107-1.12-.141-1.437-.059m.964 2.082c.119.119.136.162.136.337 0 .242-.129.424-.343.483a.5.5 0 0 1-.514-.16c-.081-.096-.103-.166-.103-.323 0-.175.017-.218.136-.337s.161-.136.344-.136.224.016.344.136"/></svg>