<svg xmlns="http://www.w3.org/2000/svg" width="24" height="24" fill="none" stroke="currentColor" stroke-linecap="round" stroke-linejoin="round" stroke-width="3"><path fill="#000" fill-rule="evenodd" stroke="none" d="M11.02.58a6.52 6.52 0 0 0-5.447 5.437c-.042.254-.066.832-.081 1.928L5.47 9.51l-.565.021c-.408.015-.646.044-.858.106a3.56 3.56 0 0 0-2.495 2.751c-.075.395-.075 7.829 0 8.224.221 1.168 1.036 2.177 2.116 2.617.716.292.076.271 8.332.271 6.835 0 7.443-.005 7.71-.068a3.7 3.7 0 0 0 1.798-1.004c.573-.6.883-1.272.971-2.111.052-.499.052-7.135 0-7.634-.132-1.255-.824-2.255-1.946-2.817-.469-.235-.798-.312-1.438-.335l-.565-.021-.021-1.565c-.023-1.663-.05-1.959-.248-2.662C17.553 2.767 15.526.974 12.94.577c-.442-.068-1.484-.066-1.92.003m1.732 3.003c.641.13 1.193.439 1.71.955.369.37.581.675.764 1.102.232.541.254.751.254 2.398V9.52H8.52V8.038c0-1.647.022-1.857.254-2.398.183-.427.395-.732.764-1.102.507-.506 1.063-.821 1.682-.952.378-.08 1.146-.082 1.532-.003m6.592 9.073.136.136v7.402l-.103.122a.6.6 0 0 1-.25.163c-.204.056-14.05.056-14.254 0a.6.6 0 0 1-.25-.163l-.103-.122v-7.402l.136-.136.136-.136h14.416z"/></svg>