<svg xmlns="http://www.w3.org/2000/svg" width="24" height="24" fill="none" stroke="currentColor" stroke-linecap="round" stroke-linejoin="round" stroke-width="3"><path fill="#000" fill-rule="evenodd" stroke="none" d="M11.74.509c-1.204.046-2.352.426-3.4 1.123-.549.365-1.352 1.168-1.709 1.708a6.8 6.8 0 0 0-1.035 2.563c-.074.414-.088.684-.106 2.042L5.47 9.51l-.565.021c-.408.015-.646.044-.858.106a3.56 3.56 0 0 0-2.495 2.751c-.075.395-.075 7.829 0 8.224.221 1.168 1.036 2.177 2.116 2.617.716.292.076.271 8.332.271 6.835 0 7.443-.005 7.71-.068a3.7 3.7 0 0 0 1.798-1.004c.573-.6.883-1.272.971-2.111.052-.499.052-7.135 0-7.634-.154-1.464-1.104-2.612-2.526-3.052l-.293-.09-5.57-.011-5.57-.012V8.037c0-1.186.012-1.542.063-1.789.243-1.198 1.256-2.287 2.425-2.607 1.324-.363 2.593-.011 3.558.985.401.414.61.798.814 1.495.176.597.216.679.459.922a1.482 1.482 0 0 0 2.317-.237c.319-.498.319-.907-.003-1.886-.434-1.325-1.426-2.604-2.613-3.369-.879-.567-2.024-.96-2.952-1.013L12.1.508a4 4 0 0 0-.36.001m7.604 12.147.136.136v7.402l-.103.122a.6.6 0 0 1-.25.163c-.204.056-14.05.056-14.254 0a.6.6 0 0 1-.25-.163l-.103-.122v-7.402l.136-.136.136-.136h14.416z"/></svg>