<svg xmlns="http://www.w3.org/2000/svg" width="24" height="24" fill="none" stroke="currentColor" stroke-linecap="round" stroke-linejoin="round" stroke-width="3"><path fill="#000" fill-rule="evenodd" stroke="none" d="M11.02.58c-2.822.451-5.004 2.629-5.445 5.437-.032.201-.068.837-.082 1.428L5.468 8.51l-.564.021c-.407.015-.646.044-.857.106a3.56 3.56 0 0 0-2.495 2.751c-.075.396-.075 8.828 0 9.224.221 1.168 1.036 2.177 2.116 2.617.716.292.076.271 8.332.271 6.835 0 7.443-.005 7.71-.068a3.7 3.7 0 0 0 1.798-1.004c.573-.6.883-1.272.971-2.111.053-.502.053-8.132 0-8.634-.132-1.255-.824-2.255-1.946-2.817-.469-.235-.798-.312-1.437-.335l-.564-.021-.024-1.065c-.016-.668-.048-1.205-.088-1.442-.476-2.853-2.633-4.989-5.48-5.426-.442-.068-1.484-.066-1.92.003m1.732 3.003c.641.13 1.193.439 1.71.955.369.37.581.675.764 1.102.215.501.254.794.254 1.898v.982H8.52v-.982c0-1.104.039-1.397.254-1.898.183-.427.395-.732.764-1.102.507-.506 1.063-.821 1.682-.952.378-.08 1.146-.082 1.532-.003m6.592 8.073.136.136v8.402l-.103.122a.6.6 0 0 1-.25.163c-.204.056-14.05.056-14.254 0a.6.6 0 0 1-.25-.163l-.103-.122v-8.402l.136-.136.136-.136h14.416zm-7.964 1.918a2.73 2.73 0 0 0-1.279.795c-.21.239-.469.746-.542 1.064A3 3 0 0 0 9.51 16c0 .446.058.695.256 1.112.223.467.655.899 1.122 1.122.417.198.666.256 1.112.256s.695-.058 1.112-.256a2.5 2.5 0 0 0 1.122-1.122c.198-.417.256-.666.256-1.112s-.058-.695-.255-1.11c-.262-.55-.811-1.037-1.418-1.257-.295-.107-1.12-.141-1.437-.059m.964 2.082c.119.119.136.162.136.337 0 .242-.129.424-.343.483a.5.5 0 0 1-.514-.16c-.081-.096-.103-.166-.103-.323 0-.175.017-.218.136-.337s.161-.136.344-.136.224.016.344.136"/></svg>