<svg xmlns="http://www.w3.org/2000/svg" width="24" height="24" fill="none" stroke="currentColor" stroke-linecap="round" stroke-linejoin="round" stroke-width="3"><path fill="#000" fill-rule="evenodd" stroke="none" d="M4.44 1.547a3.56 3.56 0 0 0-2.888 2.841c-.076.399-.076 14.825 0 15.224.221 1.168 1.036 2.177 2.115 2.617.638.26.654.261 3.035.28 1.317.011 2.274.002 2.449-.022.374-.052.662-.19.904-.432.726-.726.523-1.928-.407-2.399l-.228-.116-2.28-.02c-2.432-.021-2.372-.016-2.537-.225l-.083-.106V4.792l.136-.136.136-.136 2.074-.001c1.141 0 2.186-.017 2.324-.037a1.494 1.494 0 0 0 1.287-1.7 1.51 1.51 0 0 0-.829-1.126L9.42 1.54l-2.44-.005c-1.342-.003-2.485.003-2.54.012m11.076 4.03a1.52 1.52 0 0 0-.859 2.087c.087.191.31.435 1.41 1.541l1.307 1.314-4.397.01-4.397.011-.228.116a1.51 1.51 0 0 0-.829 1.126 1.494 1.494 0 0 0 1.287 1.7c.138.02 2.112.037 4.388.037l4.137.001-1.287 1.295c-1.082 1.088-1.304 1.33-1.391 1.521a1.502 1.502 0 0 0 2.011 2.006c.205-.094.543-.417 2.898-2.774 2.098-2.1 2.688-2.712 2.769-2.874a1.6 1.6 0 0 0 .141-.938c-.08-.498-.042-.455-2.91-3.318-3.046-3.042-2.863-2.891-3.526-2.907-.246-.006-.431.01-.524.046"/></svg>