<svg xmlns="http://www.w3.org/2000/svg" width="24" height="24" fill="none" stroke="currentColor" stroke-linecap="round" stroke-linejoin="round" stroke-width="3"><path fill="#000" fill-rule="evenodd" stroke="none" d="M10.08 1.545c-2.267.271-4.109 1.123-5.653 2.613A9.45 9.45 0 0 0 1.706 9.02c-.263 1.198-.263 2.762 0 3.96.327 1.492 1.027 2.938 1.968 4.062 1.574 1.881 3.668 3.04 6.106 3.38.699.098 1.838.089 2.56-.018a9.6 9.6 0 0 0 3.876-1.465l.349-.23 1.77 1.764c1.525 1.521 1.801 1.779 1.999 1.869a1.502 1.502 0 0 0 2.008-2.008c-.09-.198-.348-.474-1.869-1.999l-1.764-1.77.23-.349A9.35 9.35 0 0 0 20.488 11c0-2.175-.697-4.19-2.038-5.896-.336-.429-1.262-1.334-1.69-1.654-1.28-.956-2.643-1.548-4.18-1.815-.373-.065-.689-.086-1.42-.095a20 20 0 0 0-1.08.005m1.86 3.032c2.917.448 5.115 2.691 5.502 5.613.077.576.029 1.495-.101 1.969a4.5 4.5 0 0 1-2.351 2.869c-1.614.798-3.581.549-4.92-.623a4.6 4.6 0 0 1-1.418-2.265c-.099-.36-.11-.466-.111-1.06-.001-.587.009-.686.089-.897a2.67 2.67 0 0 1 1.553-1.553c.205-.076.316-.088.817-.088s.612.012.817.088c.365.137.654.325.941.612.467.466.68.933.712 1.559.019.369.016.385-.088.509a.495.495 0 0 1-.743.029c-.072-.077-.107-.183-.145-.442a2.4 2.4 0 0 0-.147-.549c-.122-.264-.405-.543-.699-.692-.208-.106-.264-.116-.648-.116s-.44.01-.648.116c-.455.23-.765.653-.83 1.133-.061.45.062 1.141.299 1.676.14.317.468.772.751 1.043a3.4 3.4 0 0 0 2.428.979c.933 0 1.747-.328 2.428-.979 1.056-1.009 1.342-2.533.79-4.215-.928-2.835-3.909-4.389-6.808-3.549-1.38.4-2.616 1.427-3.285 2.731-.49.953-.686 1.959-.6 3.084.157 2.082 1.177 4.001 2.835 5.334.117.093.078.081-.231-.071-1.925-.952-3.222-2.735-3.552-4.882-.116-.751-.059-1.797.14-2.569.644-2.508 2.714-4.378 5.303-4.791.436-.069 1.478-.071 1.92-.003"/></svg>