<svg xmlns="http://www.w3.org/2000/svg" width="24" height="24" fill="none" stroke="currentColor" stroke-linecap="round" stroke-linejoin="round" stroke-width="3"><path fill="#000" fill-rule="evenodd" stroke="none" d="M9.44.547C8.205.765 7.137 1.641 6.728 2.771c-.153.423-.199.674-.233 1.266l-.026.473-.565.021c-.407.015-.646.044-.857.106a3.56 3.56 0 0 0-2.495 2.751c-.076.397-.076 10.827 0 11.224.209 1.106 1 2.129 1.979 2.562.185.082.228.121.269.246.078.237.49.819.766 1.083a3.6 3.6 0 0 0 1.724.923 4.3 4.3 0 0 0 1.42 0 3.6 3.6 0 0 0 2.269-1.598l.195-.308h1.652l.195.308a3.6 3.6 0 0 0 2.269 1.598 4.3 4.3 0 0 0 1.42 0 3.6 3.6 0 0 0 1.798-.998c.282-.295.547-.677.663-.956.075-.181.108-.214.304-.3.32-.142.761-.459 1.033-.744.573-.6.883-1.272.971-2.111.053-.506.053-10.128 0-10.634-.132-1.255-.824-2.255-1.946-2.817-.47-.236-.798-.312-1.443-.335l-.57-.021-.001-.225c-.001-.382-.076-.966-.16-1.249-.348-1.169-1.221-2.041-2.406-2.404-.289-.088-.325-.089-2.853-.096-1.408-.004-2.605.001-2.66.011m4.904 3.109c.135.135.136.139.136.5v.364H9.52v-.364c0-.361.001-.365.136-.5l.136-.136h4.416zM6.48 12.197c0 4.561-.002 4.678-.076 4.702-.119.038-.54.319-.72.482l-.164.148V7.792l.136-.136c.134-.134.142-.136.48-.136h.344zm8-.004v4.672l-.15.071c-.452.215-.949.685-1.309 1.238l-.226.346h-1.59l-.226-.346c-.36-.553-.857-1.023-1.309-1.238l-.15-.071V7.52h4.96zm3.864-4.537.136.136v9.737l-.164-.148c-.18-.163-.601-.444-.72-.482-.074-.024-.076-.141-.076-4.702V7.52h.344c.338 0 .346.002.48.136m-10 12c.119.119.136.162.136.337 0 .242-.129.424-.343.483a.5.5 0 0 1-.514-.16c-.081-.096-.103-.166-.103-.323 0-.175.017-.218.136-.337s.161-.136.344-.136.224.016.344.136m8 0c.119.119.136.162.136.337 0 .242-.129.424-.343.483a.5.5 0 0 1-.514-.16c-.081-.096-.103-.166-.103-.323 0-.175.017-.218.136-.337s.161-.136.344-.136.224.016.344.136"/></svg>