<svg xmlns="http://www.w3.org/2000/svg" width="24" height="24" fill="none" stroke="currentColor" stroke-linecap="round" stroke-linejoin="round" stroke-width="3"><path fill="#000" fill-rule="evenodd" stroke="none" d="M12.78.824c-1.807.244-3.437.952-4.768 2.071-.193.163-1.904 1.851-3.8 3.751-3.059 3.065-3.46 3.48-3.553 3.686a1.58 1.58 0 0 0-.001 1.336c.093.203.373.499 2.274 2.4s2.197 2.181 2.4 2.274c.433.198.903.197 1.336-.001.205-.093.601-.473 3.452-3.319 1.771-1.767 3.259-3.233 3.307-3.257a.8.8 0 0 1 .284-.045c.377 0 .627.283.598.675l-.016.216-3.277 3.27c-3.534 3.529-3.426 3.408-3.493 3.902-.04.293.008.606.135.885.093.203.373.499 2.274 2.4s2.197 2.181 2.4 2.274c.279.127.592.175.886.135.5-.068.357.061 4.168-3.761 3.618-3.629 3.689-3.702 4.041-4.178a9.28 9.28 0 0 0 1.63-7.298 9.26 9.26 0 0 0-3.297-5.446A9.4 9.4 0 0 0 14.952.802c-.523-.057-1.679-.045-2.172.022m2.44 3.056a6.28 6.28 0 0 1 4.915 5.1 6.2 6.2 0 0 1-.58 3.874c-.415.826-.65 1.108-2.272 2.726L16 16.86l-.929-.93-.929-.929 1.263-1.27c1.338-1.346 1.471-1.511 1.69-2.093a3.84 3.84 0 0 0-.021-2.646c-.393-1.021-1.373-1.89-2.454-2.177-.392-.104-1.483-.106-1.86-.004a4.8 4.8 0 0 0-1.11.513c-.105.07-.739.674-1.411 1.341l-1.22 1.214-.95-.95-.949-.95 1.37-1.364c.754-.75 1.476-1.448 1.605-1.551.754-.599 1.864-1.077 2.885-1.243.524-.085 1.707-.054 2.24.059m-8.77 8.57-.429.43-.95-.949-.951-.95.43-.431.429-.43.95.949.951.95zm6.49 5.63.919.92-.429.43-.43.43-.93-.93-.929-.929.419-.421c.23-.231.428-.42.44-.42.011 0 .434.414.94.92"/></svg>