<svg xmlns="http://www.w3.org/2000/svg" width="24" height="24" fill="none" stroke="currentColor" stroke-linecap="round" stroke-linejoin="round" stroke-width="3"><path fill="#000" fill-rule="evenodd" stroke="none" d="M3.44 2.547A3.56 3.56 0 0 0 .552 5.388c-.076.398-.076 12.826 0 13.224.221 1.168 1.036 2.177 2.116 2.617.719.293-.04.271 9.332.271 7.775 0 8.442-.005 8.71-.068a3.7 3.7 0 0 0 1.798-1.004c.573-.6.883-1.272.971-2.111.053-.509.053-12.125 0-12.634-.154-1.464-1.103-2.61-2.526-3.052l-.293-.091-8.56-.005c-4.708-.002-8.605.003-8.66.012m16.904 3.109c.118.118.136.162.136.335v.2l-4.108 2.61c-2.259 1.435-4.167 2.635-4.24 2.665-.112.047-.152.047-.265 0-.073-.031-1.981-1.23-4.24-2.666L3.52 6.191v-.2c0-.173.018-.217.136-.335l.136-.136h16.416zM6.88 11.881a360 360 0 0 0 3.482 2.194c.819.458 1.862.534 2.814.206.353-.121.462-.187 4.004-2.439l3.28-2.085.01 4.208c.011 4.605.026 4.304-.219 4.464-.102.067-.543.072-8.109.083-4.401.006-8.082 0-8.18-.014a.5.5 0 0 1-.31-.158l-.132-.132v-4.226c0-3.37.01-4.221.05-4.198.028.016 1.517.959 3.31 2.097"/></svg>