<svg xmlns="http://www.w3.org/2000/svg" width="24" height="24" fill="none" stroke="currentColor" stroke-linecap="round" stroke-linejoin="round" stroke-width="3"><path fill="#000" fill-rule="evenodd" stroke="none" d="M6.22 3.51c-1.811.088-3.549 1.027-4.592 2.482A6.4 6.4 0 0 0 .621 8.297c-.127.627-.145 1.356-.13 5.283.012 3.37.023 3.914.078 4.141.336 1.384 1.344 2.389 2.721 2.711.268.063.935.068 8.71.068s8.442-.005 8.71-.068c1.298-.303 2.276-1.216 2.65-2.47.154-.518.165-.934.148-5.326-.018-4.36-.017-4.35-.191-5.008-.469-1.778-1.827-3.246-3.537-3.821-.782-.264-.74-.26-3.24-.274-3.437-.019-10.093-.034-10.32-.023m1.2 3.129c.692.218 1.332.741 1.711 1.401.057.099.154.324.216.5l.113.32.011 4.168.011 4.168-.115.129c-.096.108-.155.134-.351.159-.376.047-4.973.042-5.143-.005a.6.6 0 0 1-.25-.163l-.103-.122.001-4.047c0-3.337.01-4.094.057-4.314a2.98 2.98 0 0 1 2.237-2.256c.374-.085 1.245-.052 1.605.062m11.409-.005a2.74 2.74 0 0 1 1.538 1.537l.093.249.011 4.386.011 4.386-.104.123a.6.6 0 0 1-.251.164c-.095.026-1.459.041-3.887.041H12.5l.012-3.909c.013-3.952-.006-4.689-.133-5.314a7 7 0 0 0-.505-1.468l-.156-.311 3.431.011 3.431.012zm-4.313.944c-1.047.391-1.348 1.7-.571 2.477.381.381.7.463 1.819.464l.704.001.027.405c.039.599.179.904.576 1.25.357.312 1.008.406 1.484.213.388-.156.674-.443.839-.84.1-.242.103-.276.118-1.328.017-1.187-.015-1.549-.163-1.869-.124-.266-.406-.546-.701-.695l-.228-.116-1.88-.008c-1.494-.006-1.91.003-2.024.046m-9 .999c-1.048.396-1.349 1.701-.571 2.478.353.354.721.463 1.555.463s1.202-.109 1.555-.463c.726-.726.523-1.928-.407-2.399L7.42 8.54l-.88-.009c-.663-.006-.916.005-1.024.046"/></svg>