<svg xmlns="http://www.w3.org/2000/svg" width="24" height="24" fill="none" stroke="currentColor" stroke-linecap="round" stroke-linejoin="round" stroke-width="3"><path fill="#000" fill-rule="evenodd" stroke="none" d="M3.44 2.547C2.246 2.751 1.176 3.608.756 4.696.487 5.395.505 4.911.49 11.7c-.009 4.057.001 6.302.028 6.575.048.483.156.873.347 1.261.545 1.103 1.573 1.812 2.818 1.943.477.05 9.161.053 9.507.003a1.494 1.494 0 0 0 1.287-1.7 1.51 1.51 0 0 0-.829-1.126l-.228-.116-4.782-.02c-4.481-.019-4.788-.024-4.889-.091-.245-.16-.23.141-.219-4.464l.01-4.208 3.28 2.085a331 331 0 0 0 3.524 2.222c.839.469 1.87.549 2.832.217.353-.121.462-.187 4.004-2.439l3.28-2.085.02 1.772.02 1.771.105.248c.25.595.761.938 1.395.938s1.145-.343 1.395-.938l.105-.248.012-3.58c.012-3.723-.003-4.179-.152-4.682-.349-1.171-1.216-2.037-2.407-2.407l-.293-.091-8.56-.005c-4.708-.002-8.605.003-8.66.012m16.904 3.109c.118.118.136.162.136.335v.2l-4.108 2.61c-2.259 1.435-4.167 2.635-4.24 2.665-.112.047-.152.047-.265 0-.073-.031-1.981-1.23-4.24-2.666L3.52 6.191v-.2c0-.173.018-.217.136-.335l.136-.136h16.416zm-3.828 9.921c-.689.262-1.09.925-.993 1.641.055.405.184.606.778 1.217l.549.565-.549.565c-.594.611-.723.812-.778 1.217a1.493 1.493 0 0 0 1.695 1.695c.405-.055.606-.184 1.217-.778L19 21.15l.565.549c.611.594.812.723 1.217.778a1.493 1.493 0 0 0 1.695-1.695c-.055-.405-.184-.606-.778-1.217L21.15 19l.549-.565c.594-.611.723-.812.778-1.217a1.5 1.5 0 0 0-.829-1.562c-.208-.106-.264-.116-.648-.116-.587 0-.729.076-1.449.775L19 16.85l-.551-.535c-.7-.68-.864-.771-1.409-.784-.246-.006-.431.01-.524.046"/></svg>