<svg xmlns="http://www.w3.org/2000/svg" width="24" height="24" fill="none" stroke="currentColor" stroke-linecap="round" stroke-linejoin="round" stroke-width="3"><path fill="#000" fill-rule="evenodd" stroke="none" d="M3.44 2.547C2.246 2.751 1.176 3.608.756 4.696.487 5.395.505 4.911.49 11.7c-.009 4.057.001 6.302.028 6.575.048.483.156.873.347 1.261.545 1.103 1.573 1.812 2.818 1.943.476.05 8.162.053 8.507.003a1.494 1.494 0 0 0 1.287-1.7 1.51 1.51 0 0 0-.829-1.126l-.228-.116-4.282-.02c-4.003-.019-4.289-.025-4.389-.091-.245-.16-.23.141-.219-4.464l.01-4.208 3.28 2.085a331 331 0 0 0 3.524 2.222c.839.469 1.87.549 2.832.217.353-.121.462-.187 4.004-2.439l3.28-2.085.02 1.772.02 1.771.105.248c.25.595.761.938 1.395.938s1.145-.343 1.395-.938l.105-.248.012-3.58c.012-3.723-.003-4.179-.152-4.682-.349-1.171-1.216-2.037-2.407-2.407l-.293-.091-8.56-.005c-4.708-.002-8.605.003-8.66.012m16.904 3.109c.118.118.136.162.136.335v.2l-4.108 2.61c-2.259 1.435-4.167 2.635-4.24 2.665-.112.047-.152.047-.265 0-.073-.031-1.981-1.23-4.24-2.666L3.52 6.191v-.2c0-.173.018-.217.136-.335l.136-.136h16.416zm-1.828 8.921c-.371.142-.711.446-.864.773-.135.289-.17.587-.171 1.438l-.001.728-.95.012-.95.012-.228.116c-.93.471-1.133 1.673-.407 2.399.381.382.7.463 1.82.464l.705.001.018.89c.016.842.023.904.119 1.138.243.592.758.938 1.393.938s1.15-.346 1.393-.938c.096-.234.103-.296.119-1.138l.018-.89.705-.001c1.12-.001 1.439-.082 1.82-.464.726-.726.523-1.928-.407-2.399l-.228-.116-.95-.013-.95-.012-.001-.728c0-.4-.017-.839-.037-.977a1.51 1.51 0 0 0-.832-1.153c-.195-.099-.28-.116-.608-.125-.253-.007-.431.008-.526.045"/></svg>