<svg xmlns="http://www.w3.org/2000/svg" width="24" height="24" fill="none" stroke="currentColor" stroke-linecap="round" stroke-linejoin="round" stroke-width="3"><path fill="#000" fill-rule="evenodd" stroke="none" d="M7.44 2.547a3.56 3.56 0 0 0-2.888 2.841c-.076.396-.076 9.828 0 10.224.221 1.168 1.036 2.177 2.116 2.617.712.29.191.271 7.332.271 5.895 0 6.444-.006 6.71-.068a3.7 3.7 0 0 0 1.798-1.004c.573-.6.883-1.272.971-2.111.053-.504.053-9.13 0-9.634-.154-1.464-1.104-2.611-2.526-3.052l-.293-.09-6.56-.006c-3.608-.002-6.605.003-6.66.012m12.906 3.111c.12.12.137.161.126.302l-.012.163-3.16 1.686c-2.433 1.297-3.192 1.685-3.3 1.685s-.867-.388-3.3-1.685L7.54 6.123l-.012-.163c-.011-.141.006-.182.126-.302l.138-.138h12.416zm-18.83.919A1.54 1.54 0 0 0 .518 7.81c-.051.348-.047 11.027.003 11.507.18 1.707 1.455 2.982 3.162 3.162.482.051 14.157.054 14.507.003a1.494 1.494 0 0 0 1.287-1.7 1.51 1.51 0 0 0-.829-1.126l-.228-.116-7.28-.02c-5.701-.016-7.299-.031-7.367-.07a.7.7 0 0 1-.17-.155l-.083-.106-.001-5.564c0-3.095-.017-5.676-.037-5.815a1.51 1.51 0 0 0-.832-1.153c-.195-.099-.28-.116-.608-.125-.253-.007-.431.008-.526.045M9.98 10.82c2.545 1.356 2.688 1.428 3.021 1.531.62.192 1.378.192 1.998 0 .332-.102.554-.215 3.241-1.647l2.22-1.182.01 2.825c.011 3.089.023 2.924-.219 3.082-.101.067-.454.072-6.109.083-3.301.006-6.082 0-6.18-.014a.5.5 0 0 1-.31-.158l-.132-.132v-5.69l.17.087c.094.047 1.124.594 2.29 1.215"/></svg>