<svg xmlns="http://www.w3.org/2000/svg" width="24" height="24" fill="none" stroke="currentColor" stroke-linecap="round" stroke-linejoin="round" stroke-width="3"><path fill="#000" fill-rule="evenodd" stroke="none" d="M3.44 2.547C2.246 2.751 1.176 3.608.756 4.696.487 5.395.505 4.911.49 11.7c-.009 4.057.001 6.302.028 6.575.048.483.156.873.347 1.261a3.51 3.51 0 0 0 2.16 1.82c.521.155.946.168 4.935.156l3.82-.012.23-.093c.423-.171.764-.51.898-.895a1.6 1.6 0 0 0-.077-1.208c-.116-.23-.441-.534-.702-.656l-.229-.108-4.022-.02c-3.755-.019-4.029-.025-4.129-.091-.245-.16-.23.141-.219-4.464l.01-4.208 3.28 2.085a331 331 0 0 0 3.524 2.222c.839.469 1.87.549 2.832.217.353-.121.462-.187 4.004-2.439l3.28-2.085.021 1.512c.021 1.454.025 1.52.113 1.741.172.431.553.803.944.92.209.062.715.062.924 0 .39-.117.77-.487.945-.92l.093-.23.012-3.32c.012-3.456-.004-3.923-.152-4.422-.349-1.171-1.216-2.037-2.407-2.407l-.293-.091-8.56-.005c-4.708-.002-8.605.003-8.66.012m16.904 3.109c.118.118.136.162.136.335v.2l-4.108 2.61c-2.259 1.435-4.167 2.635-4.24 2.665-.112.047-.152.047-.265 0-.073-.031-1.981-1.23-4.24-2.666L3.52 6.191v-.2c0-.173.018-.217.136-.335l.136-.136h16.416zm-2.784 7.866c-2.136.193-3.851 1.927-4.039 4.083-.19 2.197 1.231 4.212 3.355 4.754.892.228 1.967.159 2.798-.179l.253-.104.601.586c.648.633.842.759 1.254.815a1.493 1.493 0 0 0 1.695-1.695c-.056-.412-.182-.606-.815-1.254l-.586-.601.104-.253c.415-1.019.416-2.298.003-3.347-.462-1.175-1.505-2.17-2.703-2.579a4.8 4.8 0 0 0-1.92-.226m1.047 3.125c.317.148.569.394.723.707.119.242.13.296.13.646s-.011.404-.13.646a1.5 1.5 0 0 1-.723.708c-.196.091-.279.106-.607.106s-.411-.015-.607-.106c-.865-.406-1.148-1.501-.58-2.242.176-.228.373-.379.651-.495.328-.138.81-.125 1.143.03"/></svg>