<svg xmlns="http://www.w3.org/2000/svg" width="24" height="24" fill="none" stroke="currentColor" stroke-linecap="round" stroke-linejoin="round" stroke-width="3"><path fill="#000" fill-rule="evenodd" stroke="none" d="M3.44 2.547C2.246 2.751 1.176 3.608.756 4.696.487 5.395.505 4.911.49 11.7c-.009 4.057.001 6.302.028 6.575.048.483.156.873.347 1.261.553 1.118 1.581 1.819 2.86 1.946.271.027 2.601.037 6.735.029l6.32-.011.23-.093c.423-.171.764-.51.898-.895a1.6 1.6 0 0 0-.077-1.208c-.116-.23-.441-.534-.702-.656l-.229-.108-6.522-.02c-6.144-.019-6.528-.024-6.629-.091-.245-.16-.23.141-.219-4.464l.01-4.208 3.28 2.085a331 331 0 0 0 3.524 2.222c.839.469 1.87.549 2.832.217.353-.121.462-.187 4.004-2.439l3.28-2.085.026.511c.031.593.112.861.353 1.165.174.222.462.426.699.497.209.062.715.062.924 0 .39-.117.771-.488.945-.92.092-.23.092-.234.105-2.546.013-2.43-.01-2.946-.152-3.426-.349-1.171-1.216-2.037-2.407-2.407l-.293-.091-8.56-.005c-4.708-.002-8.605.003-8.66.012m16.904 3.109c.118.118.136.162.136.335v.2l-4.108 2.61c-2.259 1.435-4.167 2.635-4.24 2.665-.112.047-.152.047-.265 0-.073-.031-1.981-1.23-4.24-2.666L3.52 6.191v-.2c0-.173.018-.217.136-.335l.136-.136h16.416zM19.2 12.575c-.356.083-.518.144-.921.349-.455.232-.83.531-1.103.88-.549.701-.742 1.202-.653 1.694.116.639.528 1.084 1.152 1.244.585.15 1.248-.133 1.597-.682.253-.398.303-.457.418-.497.314-.11.65-.005.749.234.049.119.045.134-.063.248-.139.147-.535.382-.908.539-.67.284-1.054.94-.945 1.617.148.92 1.03 1.47 1.923 1.2 1.094-.33 2.311-1.28 2.746-2.144.461-.915.38-2.068-.217-3.064a3.53 3.53 0 0 0-2.095-1.574c-.337-.09-1.364-.117-1.68-.044m.316 8.002c-1.046.4-1.349 1.703-.578 2.475a1.47 1.47 0 0 0 2.124 0c.719-.719.511-1.928-.412-2.395-.195-.099-.28-.116-.608-.125-.253-.007-.431.008-.526.045"/></svg>