<svg xmlns="http://www.w3.org/2000/svg" width="24" height="24" fill="none" stroke="currentColor" stroke-linecap="round" stroke-linejoin="round" stroke-width="3"><path fill="#000" fill-rule="evenodd" stroke="none" d="M11.26.579a4 4 0 0 0-.969.368c-.265.153-8.462 6.303-8.705 6.529C.977 8.045.609 8.821.518 9.725.491 9.997.481 11.92.49 15.3c.013 4.56.022 5.19.078 5.421.34 1.387 1.345 2.389 2.722 2.711.268.063.935.068 8.71.068s8.442-.005 8.71-.068a3.7 3.7 0 0 0 1.798-1.004c.573-.6.883-1.272.971-2.111.024-.228.04-2.328.04-5.317s-.016-5.089-.04-5.317c-.09-.851-.467-1.642-1.044-2.186-.224-.211-8.238-6.238-8.618-6.481A3.7 3.7 0 0 0 12.722.58C12.371.507 11.593.506 11.26.579m4.853 5.886c2.16 1.619 3.927 2.958 3.927 2.975 0 .039-7.73 4.952-7.908 5.026-.112.047-.152.047-.265-.001-.178-.074-7.907-4.986-7.907-5.025 0-.017 1.767-1.356 3.927-2.975C11.77 3.553 11.817 3.52 12 3.52s.23.033 4.113 2.945M6.88 14.881a360 360 0 0 0 3.482 2.194c.819.458 1.862.534 2.814.206.353-.121.462-.187 4.004-2.439l3.28-2.085.01 3.708c.011 4.056.025 3.805-.219 3.964-.102.067-.543.072-8.109.083-4.401.006-8.082 0-8.18-.014a.5.5 0 0 1-.31-.158l-.132-.132v-3.726c0-2.97.01-3.721.05-3.698.028.016 1.517.959 3.31 2.097"/></svg>