<svg xmlns="http://www.w3.org/2000/svg" width="24" height="24" fill="none" stroke="currentColor" stroke-linecap="round" stroke-linejoin="round" stroke-width="3"><path fill="#000" fill-rule="evenodd" stroke="none" d="M11.08.545C8.813.816 6.971 1.668 5.427 3.158 3.835 4.694 2.884 6.571 2.578 8.78c-.078.564-.088 1.704-.02 2.24.338 2.657 1.838 5.481 4.442 8.36 1.122 1.241 3.004 2.998 4.013 3.747.662.492 1.312.492 1.974 0 1.006-.747 2.893-2.508 4.013-3.747 2.347-2.594 3.839-5.222 4.316-7.6.132-.657.171-1.081.171-1.84a9.4 9.4 0 0 0-2.037-5.836c-.336-.429-1.262-1.334-1.69-1.654-1.28-.956-2.643-1.548-4.18-1.815-.373-.065-.689-.086-1.42-.095a20 20 0 0 0-1.08.005m1.86 3.032c2.915.448 5.115 2.691 5.502 5.611.06.455.03 1.513-.056 1.932-.372 1.811-1.482 3.789-3.323 5.92-.752.871-2.926 3-3.063 3-.142 0-2.337-2.155-3.104-3.048-1.828-2.128-2.911-4.066-3.282-5.872-.086-.419-.116-1.477-.056-1.932A6.496 6.496 0 0 1 11.02 3.58c.436-.069 1.478-.071 1.92-.003m-1.663 1.981c-1.471.269-2.667 1.161-3.316 2.474a5.2 5.2 0 0 0-.402 1.248c-.059.334-.059 1.106 0 1.44.361 2.054 2.013 3.583 4.057 3.756 2.473.208 4.652-1.626 4.86-4.092a4.46 4.46 0 0 0-1.343-3.596 3.8 3.8 0 0 0-1.153-.81c-.678-.332-1.061-.423-1.86-.44-.363-.007-.742.002-.843.02m1.376 3.1c.272.138.573.445.709.722.085.174.098.255.098.62 0 .384-.01.44-.116.648a1.5 1.5 0 0 1-1.562.829 1.51 1.51 0 0 1-1.126-.829c-.106-.208-.116-.264-.116-.648 0-.365.013-.446.098-.62.173-.352.515-.664.878-.803q.144-.056.526-.045c.329.009.413.026.611.126"/></svg>