<svg xmlns="http://www.w3.org/2000/svg" width="24" height="24" fill="none" stroke="currentColor" stroke-linecap="round" stroke-linejoin="round" stroke-width="3"><path fill="#000" fill-rule="evenodd" stroke="none" d="M11.02.564a7.55 7.55 0 0 0-4.315 2.142 7.36 7.36 0 0 0-1.822 2.95c-.661 2.033-.465 3.972.622 6.134l.366.73-.585.001c-.684 0-.975.056-1.367.262-.461.243-.869.646-1.089 1.076-.045.088-.545 1.537-1.111 3.221a360 360 0 0 1-1.12 3.3c-.133.356-.125.957.02 1.412.253.793.879 1.389 1.721 1.637.226.066.785.071 9.4.083q9.16.012 9.52-.029c.483-.055.814-.174 1.177-.421.682-.464 1.052-1.187 1.052-2.061.001-.298-.019-.433-.089-.621-.049-.132-.553-1.617-1.119-3.3-.566-1.684-1.066-3.133-1.111-3.221-.22-.43-.628-.833-1.089-1.076-.392-.206-.683-.262-1.367-.262l-.585-.001.366-.73c.77-1.531 1.087-2.937.981-4.342A7.52 7.52 0 0 0 13.075.582C12.614.515 11.439.504 11.02.564m2.14 3.093c.441.122 1.163.464 1.48.701.304.228.732.652.969.962.268.351.605 1.052.74 1.54.102.37.11.454.108 1.12-.001.649-.012.758-.106 1.108-.321 1.186-1.096 2.492-2.334 3.932-.442.515-1.945 2.02-2.017 2.02s-1.573-1.503-2.018-2.02c-1.228-1.427-2.012-2.747-2.333-3.932-.094-.35-.105-.459-.106-1.108-.002-.666.006-.75.108-1.12.135-.488.472-1.189.74-1.54.237-.31.665-.734.969-.962.301-.225 1.033-.577 1.417-.681.515-.139.65-.153 1.343-.139.561.012.717.03 1.04.119m-1.72.888c-.77.148-1.465.517-1.966 1.044A3.42 3.42 0 0 0 8.512 8c0 .715.187 1.345.57 1.917a3.56 3.56 0 0 0 2.208 1.509 4.3 4.3 0 0 0 1.42 0 3.513 3.513 0 0 0 2.765-3.772c-.123-1.217-.83-2.232-1.942-2.788-.479-.24-.797-.313-1.433-.327a7 7 0 0 0-.66.006m.904 3.111c.119.119.136.162.136.337 0 .242-.129.424-.343.483a.5.5 0 0 1-.514-.16c-.081-.096-.103-.166-.103-.323 0-.175.017-.218.136-.337s.161-.136.344-.136.224.016.344.136m-3.801 8.232c.813.837 1.794 1.729 2.433 2.21.506.382.949.479 1.48.325.431-.125 1.653-1.157 2.981-2.517l.378-.386h2.778l.824 2.47c.453 1.359.823 2.484.823 2.5s-3.708.03-8.24.03-8.24-.013-8.24-.03c0-.016.37-1.141.823-2.5l.824-2.47h2.779z"/></svg>