<svg xmlns="http://www.w3.org/2000/svg" width="24" height="24" fill="none" stroke="currentColor" stroke-linecap="round" stroke-linejoin="round" stroke-width="3"><path fill="#000" fill-rule="evenodd" stroke="none" d="M1.516.577C.657.906.276 1.832.657 2.664c.088.193.317.442 1.489 1.62l1.386 1.392-.183.412a9.3 9.3 0 0 0-.837 3.932c.001.684.044 1.121.172 1.76.477 2.378 1.969 5.005 4.316 7.6 1.122 1.241 3.004 2.998 4.013 3.747.647.481 1.323.49 1.935.027 1.064-.806 2.5-2.131 3.582-3.306l.563-.612 2.005 2c1.741 1.738 2.035 2.015 2.235 2.106a1.503 1.503 0 0 0 2.009-2.01c-.095-.21-1.076-1.202-10.274-10.395C1.635-.49 2.738.551 2.042.532c-.253-.007-.431.008-.526.045M11.1.543l-.46.06c-.971.127-2.479.625-3.02.997-.486.334-.741.983-.601 1.53.181.703.689 1.131 1.401 1.179.3.02.37 0 1.14-.322 1.23-.515 2.73-.615 4.069-.27 2.839.729 4.854 3.311 4.85 6.213-.001.95-.159 1.723-.545 2.678-.22.542-.231.59-.231.912.001.585.272 1.049.764 1.309.459.242.879.253 1.356.035.451-.207.688-.544 1.032-1.469 1.195-3.218.677-6.642-1.405-9.291-.312-.398-1.248-1.322-1.632-1.612-1.296-.979-2.689-1.59-4.238-1.857-.371-.064-.694-.086-1.42-.096a20 20 0 0 0-1.06.004m1.209 5.112c-.657.245-1.038.771-1.046 1.445-.003.279.013.353.121.582.221.466.45.666.977.855.64.229.89.51 1.181 1.323.099.279.489.659.804.784a1.66 1.66 0 0 0 1.104 0c.313-.122.635-.424.791-.74.216-.439.202-.862-.05-1.524-.469-1.232-1.512-2.226-2.791-2.661-.328-.112-.876-.144-1.091-.064M7.507 10.05c.009.502.063.85.199 1.281a4.49 4.49 0 0 0 2.928 2.947 4.2 4.2 0 0 0 1.32.214l.405.007 1.304 1.304 1.303 1.304-.39.436c-.727.814-2.471 2.497-2.587 2.497-.064 0-1.241-1.101-1.95-1.824-2.505-2.555-3.977-4.915-4.425-7.096-.084-.407-.116-1.491-.058-1.941.026-.197.094-.554.152-.792l.106-.433.843.843.843.842z"/></svg>