<svg xmlns="http://www.w3.org/2000/svg" width="24" height="24" fill="none" stroke="currentColor" stroke-linecap="round" stroke-linejoin="round" stroke-width="3"><path fill="#000" fill-rule="evenodd" stroke="none" d="M8.58 1.765c-.563.069-.897.214-3.471 1.502L2.588 4.529l-.329.325c-.267.265-.359.39-.491.666a3.5 3.5 0 0 0-.215.58c-.043.195-.053 1.508-.053 6.96v6.72l.109.32c.371 1.089 1.3 1.776 2.403 1.779.547.002.709-.062 2.836-1.124 1.588-.792 2.027-.995 2.152-.995s.621.231 2.468 1.151c1.537.765 2.405 1.175 2.588 1.222.7.182 1.383.164 2.031-.053.197-.066 1.446-.666 2.839-1.363l2.486-1.246.329-.325c.266-.264.36-.391.491-.666.089-.187.186-.457.215-.6.043-.209.053-1.561.053-6.92 0-7.449.023-6.842-.286-7.48-.2-.413-.67-.879-1.101-1.092a2.6 2.6 0 0 0-1.809-.168c-.131.038-1.117.508-2.192 1.045-1.558.777-1.987.975-2.112.975-.126 0-.604-.223-2.396-1.118-1.238-.617-2.379-1.161-2.552-1.215-.286-.091-.919-.194-1.112-.182-.044.003-.206.021-.36.04m-1.1 9.495v5.82L6 17.82l-1.48.74V6.92l1.47-.738a284 284 0 0 1 1.48-.74c.005-.001.01 2.617.01 5.818m6 1.48v5.82L12 17.82l-1.48-.74V5.44l1.48.74 1.48.74zm6-1.48v5.82l-1.48.74-1.48.74V6.92l1.47-.738a284 284 0 0 1 1.48-.74c.006-.001.01 2.617.01 5.818"/></svg>