<svg xmlns="http://www.w3.org/2000/svg" width="24" height="24" fill="none" stroke="currentColor" stroke-linecap="round" stroke-linejoin="round" stroke-width="3"><path fill="#000" fill-rule="evenodd" stroke="none" d="M4.6 1.557c-.428.132-.853.52-1 .912-.146.391-.105.919.099 1.271.051.088 1.598 1.879 3.437 3.98l3.343 3.82.001 4.489v4.488l-1.45.012-1.45.011-.228.116a1.51 1.51 0 0 0-.829 1.126 1.494 1.494 0 0 0 1.287 1.7c.326.047 8.054.047 8.38 0a1.494 1.494 0 0 0 1.287-1.7 1.51 1.51 0 0 0-.829-1.126l-.228-.116-1.45-.012-1.45-.012v-4.488l.001-4.488 3.361-3.84c2.236-2.554 3.394-3.907 3.458-4.04.362-.745.058-1.624-.692-2.004l-.228-.116-7.36-.007c-4.048-.004-7.405.007-7.46.024m11.04 2.984c0 .039-3.606 4.139-3.64 4.139s-3.64-4.1-3.64-4.139c0-.012 1.638-.021 3.64-.021s3.64.009 3.64.021"/></svg>