<svg xmlns="http://www.w3.org/2000/svg" width="24" height="24" fill="none" stroke="currentColor" stroke-linecap="round" stroke-linejoin="round" stroke-width="3"><path fill="#000" fill-rule="evenodd" stroke="none" d="M11.58 7.059C6.463 8.481 2.384 9.634 2.287 9.687c-.223.12-.551.466-.647.683-.133.302-.159.651-.159 2.13 0 1.537.025 1.842.181 2.164.117.244.471.591.708.696.124.054 1.715.44 1.817.44.007 0 .013.14.013.31 0 .565.198 1.372.465 1.899.308.608.951 1.347 1.484 1.705.732.492 1.725.806 2.551.806.612 0 1.433-.204 2.028-.504.844-.424 1.596-1.175 1.98-1.974.105-.219.17-.311.212-.3l3.94.88c4.278.953 4.246.948 4.695.766.387-.156.673-.442.84-.84l.105-.248V5.74l-.097-.26c-.077-.206-.153-.315-.365-.525-.337-.334-.58-.436-1.03-.433-.282.002-1.075.215-9.428 2.537m7.9 5.001c0 2.233-.009 4.06-.02 4.06-.03 0-14.789-3.279-14.87-3.304-.059-.018-.07-.072-.07-.351v-.33l7.41-2.063c4.076-1.134 7.442-2.065 7.48-2.067.066-.005.07.213.07 4.055M8.5 16.759c.616.135 1.155.259 1.197.276.068.027.054.048-.117.179-.264.201-.675.324-.977.293a1.58 1.58 0 0 1-1.205-.763c-.13-.226-.142-.269-.068-.245.027.009.554.126 1.17.26"/></svg>