<svg xmlns="http://www.w3.org/2000/svg" width="24" height="24" fill="none" stroke="currentColor" stroke-linecap="round" stroke-linejoin="round" stroke-width="3"><path fill="#000" fill-rule="evenodd" stroke="none" d="M1.516.577C.655.907.276 1.832.659 2.668c.093.205.436.562 2.912 3.042 1.544 1.546 2.794 2.81 2.778 2.81-.015 0-.904.244-1.975.542-1.18.329-2.014.582-2.117.642-.222.13-.524.456-.617.668-.133.3-.159.65-.159 2.128 0 1.537.025 1.842.181 2.164.117.244.471.591.708.696.124.054 1.715.44 1.817.44.007 0 .013.14.013.31 0 .565.198 1.372.465 1.899.308.608.951 1.347 1.484 1.705.732.492 1.725.806 2.551.806.612 0 1.433-.204 2.028-.504.838-.422 1.573-1.151 1.975-1.96.086-.174.157-.319.157-.322s.789.169 1.753.384l1.753.39 2.368 2.364c2.074 2.071 2.396 2.377 2.598 2.47a1.503 1.503 0 0 0 2.01-2.01c-.095-.21-1.076-1.202-10.274-10.395C1.635-.49 2.738.551 2.042.532c-.253-.007-.431.008-.526.045m15.476 4.977c-2.039.568-3.791 1.065-3.892 1.104-.257.098-.625.451-.765.732-.102.206-.114.272-.114.63-.001.371.008.419.13.667.241.494.704.799 1.253.826.292.014.407-.014 3.053-.749C18.17 8.344 19.423 8 19.442 8s.04 1.654.047 3.81l.011 3.81.093.23c.175.433.555.803.945.92.209.062.715.062.924 0 .39-.117.77-.487.945-.92l.093-.23.011-4.756c.007-2.837-.004-4.866-.026-5.029a1.51 1.51 0 0 0-.834-1.178c-.19-.096-.283-.116-.588-.126L20.7 4.52zm-6.375 7.203c1.74 1.74 1.792 1.796 1.62 1.758l-3.877-.859c-2.035-.45-3.731-.828-3.77-.84-.059-.018-.07-.072-.07-.351v-.33l2.09-.584a97 97 0 0 1 2.15-.587c.033-.002.869.805 1.857 1.793M8.5 16.759c.616.135 1.155.259 1.197.276.068.027.054.048-.117.179-.264.201-.675.324-.977.293a1.58 1.58 0 0 1-1.205-.763c-.13-.226-.142-.269-.068-.245.027.009.554.126 1.17.26"/></svg>