<svg xmlns="http://www.w3.org/2000/svg" width="24" height="24" fill="none" stroke="currentColor" stroke-linecap="round" stroke-linejoin="round" stroke-width="3"><path fill="#000" fill-rule="evenodd" stroke="none" d="M3.44 3.547A3.555 3.555 0 0 0 .575 6.279c-.08.367-.117 1.588-.06 1.953.092.583.367.95.903 1.205.394.187.502.305.502.547 0 .213-.168.427-.392.498a1.52 1.52 0 0 0-.867.757c-.177.347-.188.573-.17 3.489.013 2.301.026 2.773.078 2.993C.9 19.1 1.913 20.11 3.29 20.432c.268.063.935.068 8.71.068s8.442-.005 8.71-.068a3.7 3.7 0 0 0 1.798-1.004c.573-.6.883-1.272.971-2.111.053-.508.053-5.261-.001-5.591a1.49 1.49 0 0 0-.813-1.121 1.7 1.7 0 0 0-.296-.125c-.022 0-.097-.064-.165-.141-.098-.112-.124-.178-.124-.315 0-.237.108-.361.461-.528.541-.257.85-.645.936-1.177.053-.326.054-1.142.002-1.636-.154-1.464-1.103-2.61-2.526-3.052l-.293-.091-8.56-.005c-4.708-.002-8.605.003-8.66.012m16.904 3.109c.121.121.136.159.135.35-.001.204-.009.22-.164.334-.323.238-.715.755-.939 1.24-.208.451-.295.877-.295 1.44 0 .772.198 1.411.619 2.002.186.26.682.778.745.778.019 0 .035.162.035.36v.36H3.52v-.691l.312-.305c.524-.51.852-1.077 1.013-1.752.071-.3.081-.434.063-.912-.028-.783-.197-1.307-.61-1.884-.184-.259-.68-.776-.743-.776-.019 0-.035-.092-.035-.204 0-.179.017-.221.136-.34l.136-.136h16.416zm-12.828.921c-.371.142-.711.446-.864.774-.149.319-.181.681-.164 1.869.015 1.052.018 1.086.118 1.328.246.593.759.938 1.394.938s1.148-.345 1.394-.938c.1-.242.103-.276.118-1.328.017-1.187-.015-1.549-.163-1.869-.124-.266-.406-.546-.699-.694-.195-.099-.28-.116-.608-.125q-.382-.01-.526.045m4 0c-.371.142-.711.446-.864.774-.149.319-.181.681-.164 1.869.015 1.052.018 1.086.118 1.328.246.593.759.938 1.394.938s1.148-.345 1.394-.938c.1-.242.103-.276.118-1.328.017-1.187-.015-1.549-.163-1.869-.124-.266-.406-.546-.699-.694-.195-.099-.28-.116-.608-.125q-.382-.01-.526.045m4 0c-.371.142-.711.446-.864.774-.149.319-.181.681-.164 1.869.015 1.052.018 1.086.118 1.328.246.593.759.938 1.394.938s1.148-.345 1.394-.938c.1-.242.103-.276.118-1.328.017-1.187-.015-1.549-.163-1.869-.124-.266-.406-.546-.699-.694-.195-.099-.28-.116-.608-.125q-.381-.01-.526.045M4.48 17.02v.5h-.23c-.32-.001-.507-.062-.627-.204-.093-.11-.103-.156-.103-.459v-.337h.96zm4 0v.5h-.96v-1h.96zm4 0v.5h-.96v-1h.96zm4 0v.5h-.96v-1h.96zm4-.163c0 .303-.01.349-.103.459-.12.142-.307.203-.627.204h-.23v-1h.96z"/></svg>