<svg xmlns="http://www.w3.org/2000/svg" width="24" height="24" fill="none" stroke="currentColor" stroke-linecap="round" stroke-linejoin="round" stroke-width="3"><path fill="#000" fill-rule="evenodd" stroke="none" d="M11.729.524c-.458.077-.488.103-2.797 2.41-1.901 1.899-2.181 2.195-2.274 2.398-.509 1.114.36 2.308 1.56 2.145.441-.06.6-.171 1.462-1.021l.8-.789-.001 3.517c0 3.895.008 3.764-.263 4.306-.136.274-.35.497-3.798 3.95-3.245 3.251-3.665 3.686-3.759 3.892a1.502 1.502 0 0 0 2.009 2.01c.207-.094.624-.498 3.857-3.734 2.268-2.27 3.707-3.74 3.844-3.928.672-.921 1.025-1.863 1.111-2.964.021-.273.039-1.97.039-3.772l.001-3.277.8.789c.862.85 1.021.961 1.462 1.021 1.2.163 2.069-1.031 1.56-2.145-.093-.203-.373-.499-2.274-2.398C12.731.599 12.736.603 12.234.522a3 3 0 0 0-.274-.037zm2.787 15.053a1.52 1.52 0 0 0-.858 2.091c.094.205.417.543 2.774 2.9s2.695 2.68 2.9 2.774a1.503 1.503 0 0 0 2.01-2.01c-.094-.205-.414-.539-2.774-2.894-3.048-3.042-2.865-2.891-3.528-2.907-.246-.006-.431.01-.524.046"/></svg>