<svg xmlns="http://www.w3.org/2000/svg" width="24" height="24" fill="none" stroke="currentColor" stroke-linecap="round" stroke-linejoin="round" stroke-width="3"><path fill="#000" fill-rule="evenodd" stroke="none" d="M4.44 1.547c-1.194.205-2.264 1.061-2.684 2.149-.273.708-.252-.007-.266 9.024-.009 5.629.001 8.267.03 8.46.158 1.041 1.191 1.6 2.148 1.162.195-.09.411-.286 1.399-1.275.989-.988 1.185-1.204 1.275-1.399.354-.775.06-1.631-.694-2.012-.211-.108-.261-.116-.678-.116h-.45V4.792l.136-.136.136-.136h14.416l.136.136.136.136v10.397l-.083.106c-.119.151-.201.185-.539.223-1.263.141-1.804 1.646-.913 2.537.357.358.78.483 1.412.419a3.45 3.45 0 0 0 2.151-1.046c.573-.6.883-1.272.971-2.111.053-.506.053-10.128 0-10.634-.154-1.464-1.103-2.611-2.526-3.052l-.293-.091-7.56-.005c-4.158-.002-7.605.003-7.66.012m7.076 4.03c-.371.142-.711.446-.864.773-.135.289-.17.587-.171 1.438l-.001.728-.95.012-.95.012-.228.116c-.93.471-1.133 1.673-.407 2.399.381.382.7.463 1.82.464l.705.001.018.89c.016.842.023.904.119 1.138.243.592.758.938 1.393.938s1.15-.346 1.393-.938c.096-.234.103-.296.119-1.138l.018-.89.705-.001c1.12-.001 1.439-.082 1.82-.464.726-.726.523-1.928-.407-2.399l-.228-.116-.95-.013-.95-.012-.001-.728c0-.4-.017-.839-.037-.977a1.51 1.51 0 0 0-.832-1.153c-.195-.099-.28-.116-.608-.125q-.382-.01-.526.045m-3 10.001c-.366.136-.71.444-.864.774a1.5 1.5 0 0 0 1.158 2.13c.326.047 6.054.047 6.38 0a1.494 1.494 0 0 0 1.287-1.7 1.51 1.51 0 0 0-.829-1.126l-.228-.116-3.38-.008c-2.742-.006-3.407.003-3.524.046"/></svg>