<svg xmlns="http://www.w3.org/2000/svg" width="24" height="24" fill="none" stroke="currentColor" stroke-linecap="round" stroke-linejoin="round" stroke-width="3"><path fill="#000" fill-rule="evenodd" stroke="none" d="M4.44 1.547c-1.194.205-2.264 1.061-2.684 2.149-.273.708-.252-.007-.266 9.024-.009 5.629.001 8.267.03 8.46.158 1.04 1.191 1.6 2.146 1.162.199-.091.482-.356 2.092-1.962l1.863-1.857 5.919-.014c6.567-.014 6.092.005 6.796-.282a3.6 3.6 0 0 0 1.575-1.293 3.5 3.5 0 0 0 .568-1.617c.053-.506.053-10.128 0-10.634-.154-1.464-1.103-2.611-2.526-3.052l-.293-.091-7.56-.005c-4.158-.002-7.605.003-7.66.012m14.904 3.109.136.136v10.397l-.083.106a.7.7 0 0 1-.17.155c-.068.039-1.463.054-6.367.07l-6.28.02-.24.12c-.185.093-.421.298-1.03.896l-.79.777V4.792l.136-.136.136-.136h14.416zm-9.828.921c-.321.122-.561.337-2.122 1.897-1.244 1.245-1.65 1.674-1.728 1.832a1.6 1.6 0 0 0 0 1.388c.078.158.489.593 1.768 1.874 1.443 1.444 1.697 1.681 1.898 1.773 1.113.51 2.308-.358 2.145-1.559-.045-.329-.196-.609-.515-.952l-.289-.31h4.535l.131.131.13.13.019.76c.017.696.027.78.12 1.007.241.591.757.938 1.392.938s1.153-.349 1.39-.935c.084-.207.102-.331.119-.808.053-1.458-.228-2.358-.987-3.158a3.74 3.74 0 0 0-1.569-.953c-.288-.088-.336-.09-2.805-.102l-2.512-.013.307-.329c.338-.361.488-.634.534-.97a1.5 1.5 0 0 0-.829-1.562c-.198-.101-.279-.117-.608-.125-.246-.006-.431.01-.524.046"/></svg>