<svg xmlns="http://www.w3.org/2000/svg" width="24" height="24" fill="none" stroke="currentColor" stroke-linecap="round" stroke-linejoin="round" stroke-width="3"><path fill="#000" fill-rule="evenodd" stroke="none" d="M4.44 1.547c-1.194.205-2.264 1.061-2.684 2.149-.273.708-.252-.007-.266 9.024-.009 5.629.001 8.267.03 8.46.158 1.04 1.191 1.6 2.146 1.162.199-.091.482-.356 2.092-1.962l1.863-1.857 5.919-.014c6.567-.014 6.092.005 6.796-.282a3.6 3.6 0 0 0 1.575-1.293 3.5 3.5 0 0 0 .568-1.617c.053-.506.053-10.128 0-10.634-.154-1.464-1.103-2.611-2.526-3.052l-.293-.091-7.56-.005c-4.158-.002-7.605.003-7.66.012m14.904 3.109.136.136v10.397l-.083.106a.7.7 0 0 1-.17.155c-.068.039-1.463.054-6.367.07l-6.28.02-.24.12c-.185.093-.421.298-1.03.896l-.79.777V4.792l.136-.136.136-.136h14.416zm-6.564.89a4 4 0 0 0-.581.188l-.302.13-.228-.092a4 4 0 0 0-.599-.157A3.326 3.326 0 0 0 7.497 7.46c-.265.558-.315.79-.315 1.44.001.642.073.972.327 1.486.229.463.532.804 2.121 2.383 1.255 1.249 1.511 1.485 1.705 1.574a1.58 1.58 0 0 0 1.333-.001c.201-.092.44-.314 1.795-1.674 1.257-1.261 1.609-1.638 1.801-1.928.429-.646.601-1.282.565-2.079a3.23 3.23 0 0 0-.693-1.906 3.4 3.4 0 0 0-1.944-1.212 4.3 4.3 0 0 0-1.412.003m.962 3.04c.111.12.126.284.041.446-.032.059-.446.495-.92.967l-.862.86-.852-.84c-.468-.461-.882-.887-.92-.945-.099-.152-.086-.264.048-.397.175-.175.277-.154.591.123.492.435.931.578 1.425.463.43-.1.618-.221.922-.593.13-.16.177-.19.292-.19.097 0 .166.031.235.106"/></svg>