<svg xmlns="http://www.w3.org/2000/svg" width="24" height="24" fill="none" stroke="currentColor" stroke-linecap="round" stroke-linejoin="round" stroke-width="3"><path fill="#000" fill-rule="evenodd" stroke="none" d="M1.516.577C.657.906.276 1.832.657 2.665c.088.192.318.442 1.501 1.631L3.554 5.7l-.313.489c-1.825 2.85-2.207 6.351-1.032 9.451l.174.46-.937 2.819C.4 22.064.411 22.016.594 22.505c.226.602.772.982 1.413.982.244 0 .526-.086 3.042-.923 1.525-.508 2.799-.924 2.832-.924s.221.064.419.142c2.048.808 4.338.92 6.48.315 1.074-.303 2.263-.874 3.14-1.509l.3-.217 1.444 1.434c1.223 1.215 1.478 1.45 1.671 1.538a1.503 1.503 0 0 0 2.007-2.011c-.095-.21-1.076-1.202-10.274-10.395C1.635-.49 2.738.551 2.042.532c-.253-.007-.431.008-.526.045m9.904.967c-1.139.069-2.633.404-3.12.7-.235.142-.45.398-.589.7-.073.158-.091.266-.09.556 0 .319.014.39.123.62a1.53 1.53 0 0 0 1.249.87c.23.017.352-.003.77-.121.697-.198 1.038-.262 1.683-.312 1.232-.097 2.596.159 3.74.701A7.5 7.5 0 0 1 18.683 8.7c.682 1.387.932 3 .694 4.48-.055.344-.089.487-.296 1.258-.119.443-.098.749.073 1.094.162.328.408.573.726.724.231.11.3.124.621.124.326 0 .386-.013.62-.128.307-.153.57-.398.697-.65.185-.366.44-1.352.566-2.182.099-.65.1-2.082.002-2.74q-.611-4.109-3.686-6.698a10.38 10.38 0 0 0-6.442-2.436c-.329-.009-.706-.01-.838-.002m-.506 11.51 5.175 5.175-.295.183c-1.238.772-2.782 1.152-4.307 1.061-.846-.051-1.647-.266-2.547-.685-.483-.225-.545-.243-.863-.26l-.344-.017-1.649.548c-.907.302-1.659.539-1.671.528-.011-.012.226-.764.528-1.671l.548-1.649-.018-.344c-.018-.314-.04-.389-.261-.883a11 11 0 0 1-.348-.88c-.529-1.675-.407-3.628.33-5.3.16-.363.491-.98.525-.98.013 0 2.352 2.328 5.197 5.174"/></svg>