<svg xmlns="http://www.w3.org/2000/svg" width="24" height="24" fill="none" stroke="currentColor" stroke-linecap="round" stroke-linejoin="round" stroke-width="3"><path fill="#000" fill-rule="evenodd" stroke="none" d="M4.44 1.547c-1.194.205-2.264 1.061-2.684 2.149-.273.708-.252-.007-.266 9.024-.009 5.629.001 8.267.03 8.46.158 1.04 1.191 1.6 2.146 1.162.199-.091.482-.356 2.092-1.962l1.863-1.857 5.919-.014c6.567-.014 6.092.005 6.796-.282a3.6 3.6 0 0 0 1.575-1.293 3.5 3.5 0 0 0 .568-1.617c.053-.506.053-10.128 0-10.634-.154-1.464-1.103-2.611-2.526-3.052l-.293-.091-7.56-.005c-4.158-.002-7.605.003-7.66.012m14.904 3.109.136.136v10.397l-.083.106a.7.7 0 0 1-.17.155c-.068.039-1.463.054-6.367.07l-6.28.02-.24.12c-.185.093-.421.298-1.03.896l-.79.777V4.792l.136-.136.136-.136h14.416zM9.6 6.064c-.442.118-.555.23-1.766 1.745-.619.773-1.158 1.48-1.198 1.57a1.65 1.65 0 0 0 0 1.242c.094.211 2.263 2.924 2.455 3.07.286.217.496.283.909.286.337.003.405-.009.605-.107.512-.252.819-.679.87-1.209.03-.312-.012-.58-.127-.821-.037-.077-.374-.522-.748-.99L9.919 10l.681-.85c.374-.467.71-.913.747-.99.324-.676.087-1.516-.538-1.913A1.47 1.47 0 0 0 9.6 6.064m3.956.012a1.65 1.65 0 0 0-.694.448 1.57 1.57 0 0 0-.209 1.636c.037.077.373.523.747.99l.681.85-.681.85c-.374.468-.71.913-.747.99a1.5 1.5 0 0 0-.129.83c.057.527.365.951.871 1.2.2.098.268.11.605.107.413-.003.623-.069.909-.286.192-.146 2.361-2.859 2.455-3.07a1.65 1.65 0 0 0 0-1.242c-.04-.09-.579-.797-1.198-1.57-1.221-1.527-1.324-1.628-1.784-1.747a1.37 1.37 0 0 0-.826.014"/></svg>