<svg xmlns="http://www.w3.org/2000/svg" width="24" height="24" fill="none" stroke="currentColor" stroke-linecap="round" stroke-linejoin="round" stroke-width="3"><path fill="#000" fill-rule="evenodd" stroke="none" d="m18.22 1.519-2.64.021-.228.116c-.93.471-1.133 1.673-.407 2.399.375.375.705.463 1.753.464l.637.001-1.287 1.295c-1.082 1.088-1.304 1.33-1.391 1.521a1.502 1.502 0 0 0 2.007 2.007c.191-.087.432-.308 1.516-1.386l1.29-1.282.018.812c.017.756.025.83.12 1.061.241.591.757.938 1.392.938s1.145-.343 1.395-.938L22.5 8.3l.012-2.616c.013-2.781.001-3.023-.171-3.362a1.73 1.73 0 0 0-.662-.662c-.178-.091-.624-.191-.759-.17-.033.005-1.248.018-2.7.029m-13.78.028c-1.196.206-2.264 1.061-2.684 2.149-.273.708-.252-.007-.266 9.024-.009 5.629.001 8.267.03 8.46.158 1.04 1.191 1.6 2.146 1.162.199-.091.482-.356 2.092-1.962l1.863-1.857 5.919-.014c6.567-.014 6.092.005 6.796-.282a3.6 3.6 0 0 0 1.575-1.293 3.5 3.5 0 0 0 .568-1.617c.05-.471.052-3.169.003-3.507a1.51 1.51 0 0 0-.834-1.154c-.208-.106-.264-.116-.648-.116s-.44.01-.648.116a1.51 1.51 0 0 0-.834 1.154c-.02.138-.037.954-.037 1.815-.001 1.522-.003 1.567-.084 1.67a.7.7 0 0 1-.17.155c-.068.039-1.463.054-6.367.07l-6.28.02-.24.12c-.185.093-.421.298-1.03.896l-.79.777V4.792l.136-.136.136-.136 3.574-.001c1.966 0 3.686-.017 3.824-.037a1.494 1.494 0 0 0 1.287-1.7 1.51 1.51 0 0 0-.829-1.126l-.228-.116-3.94-.005c-2.167-.003-3.985.003-4.04.012"/></svg>