<svg xmlns="http://www.w3.org/2000/svg" width="24" height="24" fill="none" stroke="currentColor" stroke-linecap="round" stroke-linejoin="round" stroke-width="3"><path fill="#000" fill-rule="evenodd" stroke="none" d="M4.44 1.548c-1.188.199-2.264 1.061-2.684 2.148-.273.708-.252-.007-.265 9.022-.008 4.958.002 8.284.025 8.449.12.867.867 1.435 1.716 1.305.486-.074.524-.106 2.528-2.099l1.861-1.85 5.919-.014c6.567-.014 6.092.005 6.796-.282.783-.319 1.51-1.017 1.842-1.766.302-.683.354-1.159.334-3.036-.015-1.341-.02-1.415-.105-1.631-.203-.511-.626-.869-1.128-.954-.746-.126-1.405.247-1.686.954-.087.217-.091.287-.112 1.832-.02 1.53-.025 1.61-.101 1.694a.8.8 0 0 1-.16.134c-.059.034-1.709.051-6.36.066l-6.28.02-.24.12c-.185.093-.421.298-1.03.896l-.79.777V4.801l.117-.13.116-.131 3.614-.02 3.613-.02.23-.093c.433-.175.803-.555.92-.945.062-.209.062-.715 0-.924-.117-.391-.496-.78-.911-.935-.219-.082-.27-.083-3.951-.078-2.05.003-3.773.013-3.828.023m12.837.01c-1.471.269-2.667 1.161-3.316 2.474a5.2 5.2 0 0 0-.402 1.248c-.059.334-.059 1.106 0 1.44.361 2.054 2.013 3.583 4.057 3.756 2.473.208 4.652-1.626 4.86-4.092a4.46 4.46 0 0 0-1.343-3.596 3.8 3.8 0 0 0-1.153-.81c-.678-.332-1.061-.423-1.86-.44-.363-.007-.742.002-.843.02m1.376 3.1c.272.138.573.445.709.722.085.174.098.255.098.62 0 .384-.01.44-.116.648a1.51 1.51 0 0 1-1.126.829 1.5 1.5 0 0 1-1.562-.829c-.106-.208-.116-.264-.116-.648 0-.365.013-.446.098-.62.173-.352.515-.664.878-.803q.144-.055.526-.045c.329.009.413.026.611.126"/></svg>