<svg xmlns="http://www.w3.org/2000/svg" width="24" height="24" fill="none" stroke="currentColor" stroke-linecap="round" stroke-linejoin="round" stroke-width="3"><path fill="#000" fill-rule="evenodd" stroke="none" d="M11.38 1.522a10.49 10.49 0 0 0-9.014 6.319 11.3 11.3 0 0 0-.809 3.109c-.061.574-.026 2.045.06 2.582.132.814.325 1.544.586 2.21.086.221.157.431.157.465s-.404 1.254-.899 2.71c-.494 1.456-.917 2.751-.94 2.877-.17.938.729 1.831 1.691 1.681.116-.019 1.405-.439 2.865-.934 1.459-.496 2.685-.901 2.723-.901s.202.055.364.122c.624.259 1.616.519 2.456.644.233.035.735.054 1.42.054.928-.001 1.127-.013 1.6-.094 3.02-.522 5.457-2.095 7.138-4.608.347-.518.867-1.543 1.082-2.132.825-2.256.861-4.679.104-6.946-.904-2.703-2.775-4.841-5.344-6.104a10.37 10.37 0 0 0-5.24-1.054m1.142 3c1.025.081 1.862.305 2.742.734.852.415 1.393.798 2.037 1.443a7.48 7.48 0 0 1 2.139 4.361c.1.796.037 1.963-.143 2.68-.535 2.125-1.916 3.896-3.822 4.898a7.4 7.4 0 0 1-3.464.841c-1.159.002-2.143-.221-3.291-.744-.376-.171-.455-.193-.76-.206l-.34-.015-1.36.459c-.748.253-1.466.497-1.597.543-.13.046-.241.079-.247.073s.224-.704.512-1.55c.475-1.395.526-1.571.543-1.883.02-.376.048-.28-.404-1.356a7.4 7.4 0 0 1-.513-2.073c-.053-.519-.021-1.497.064-1.987.329-1.873 1.36-3.58 2.842-4.702 1.149-.871 2.594-1.421 3.98-1.515.253-.017.479-.034.502-.037s.284.013.58.036M9.6 8.064c-.442.118-.555.23-1.766 1.745-.619.773-1.158 1.48-1.198 1.57a1.65 1.65 0 0 0 0 1.242c.094.211 2.263 2.924 2.455 3.07.286.217.496.283.909.286.337.003.405-.009.605-.107.512-.252.819-.679.87-1.209.03-.312-.012-.58-.127-.821-.037-.077-.374-.522-.748-.99L9.919 12l.681-.85c.374-.467.71-.913.747-.99.324-.676.087-1.516-.538-1.913A1.47 1.47 0 0 0 9.6 8.064m3.956.012a1.65 1.65 0 0 0-.694.448 1.57 1.57 0 0 0-.209 1.636c.037.077.373.523.747.99l.681.85-.681.85c-.374.468-.71.913-.747.99a1.5 1.5 0 0 0-.129.83c.057.527.365.951.871 1.2.2.098.268.11.605.107.413-.003.623-.069.909-.286.192-.146 2.361-2.859 2.455-3.07a1.65 1.65 0 0 0 0-1.242c-.04-.09-.579-.797-1.198-1.57-1.221-1.527-1.324-1.628-1.784-1.747a1.37 1.37 0 0 0-.826.014"/></svg>