<svg xmlns="http://www.w3.org/2000/svg" width="24" height="24" fill="none" stroke="currentColor" stroke-linecap="round" stroke-linejoin="round" stroke-width="3"><path fill="#000" fill-rule="evenodd" stroke="none" d="M1.516.577C.825.841.426 1.502.523 2.218c.052.387.187.606.693 1.131l.468.485-.062.214c-.034.117-.08.393-.101.613-.05.514-.053 16.184-.003 16.529a1.49 1.49 0 0 0 1.714 1.282c.486-.074.524-.106 2.53-2.1l1.861-1.852h8.754l2.362 2.358c2.069 2.065 2.391 2.371 2.593 2.464a1.503 1.503 0 0 0 2.01-2.01c-.095-.21-1.076-1.202-10.274-10.395C1.635-.49 2.738.551 2.042.532c-.253-.007-.431.008-.526.045m7 1.001c-.366.136-.71.444-.864.774a1.5 1.5 0 0 0 1.158 2.13c.138.02 2.52.037 5.319.037l5.07.001.13.117.131.116.02 5.274.02 5.273.105.248c.25.595.761.938 1.395.938s1.145-.343 1.395-.938l.105-.248.012-5.08c.012-5.264.002-5.664-.152-6.182-.349-1.171-1.217-2.039-2.407-2.407l-.293-.09-5.5-.008c-4.513-.007-5.526.001-5.644.045M9.97 15.52l-3.39.02-.24.12c-.185.093-.421.298-1.03.896l-.79.777V6.66l4.42 4.42 4.42 4.42z"/></svg>