<svg xmlns="http://www.w3.org/2000/svg" width="24" height="24" fill="none" stroke="currentColor" stroke-linecap="round" stroke-linejoin="round" stroke-width="3"><path fill="#000" fill-rule="evenodd" stroke="none" d="M11.38 1.522a10.49 10.49 0 0 0-9.014 6.319 11.3 11.3 0 0 0-.809 3.109c-.061.574-.026 2.045.06 2.582.132.814.325 1.544.586 2.21.086.221.157.431.157.465s-.404 1.254-.899 2.71c-.494 1.456-.917 2.751-.94 2.877-.17.938.729 1.831 1.691 1.681.116-.019 1.405-.439 2.865-.934 1.459-.496 2.685-.901 2.723-.901s.202.055.364.122c.624.259 1.616.519 2.456.644.233.035.735.054 1.42.054.928-.001 1.127-.013 1.6-.094 3.02-.522 5.457-2.095 7.138-4.608.347-.518.867-1.543 1.082-2.132.825-2.256.861-4.679.104-6.946-.904-2.703-2.775-4.841-5.344-6.104a10.37 10.37 0 0 0-5.24-1.054m1.142 3c1.025.081 1.862.305 2.742.734.852.415 1.393.798 2.037 1.443a7.48 7.48 0 0 1 2.139 4.361c.1.796.037 1.963-.143 2.68-.535 2.125-1.916 3.896-3.822 4.898a7.4 7.4 0 0 1-3.464.841c-1.159.002-2.143-.221-3.291-.744-.376-.171-.455-.193-.76-.206l-.34-.015-1.36.459c-.748.253-1.466.497-1.597.543-.13.046-.241.079-.247.073s.224-.704.512-1.55c.475-1.395.526-1.571.543-1.883.02-.376.048-.28-.404-1.356a7.4 7.4 0 0 1-.513-2.073c-.053-.519-.021-1.497.064-1.987.329-1.873 1.36-3.58 2.842-4.702 1.149-.871 2.594-1.421 3.98-1.515.253-.017.479-.034.502-.037s.284.013.58.036m.843 2.521a5 5 0 0 0-1.197.42l-.252.138-.174-.102c-.246-.144-.745-.319-1.142-.399-.455-.093-1.28-.066-1.74.056a4.13 4.13 0 0 0-2.037 1.332c-.545.682-.807 1.377-.85 2.26-.028.556.021.945.176 1.41.233.697.511 1.115 1.144 1.722.264.253 1.219 1.177 2.122 2.054s1.722 1.649 1.819 1.715c.49.338 1.25.314 1.712-.054.085-.067 1.027-.972 2.094-2.011 2.281-2.222 2.463-2.442 2.773-3.346a4 4 0 0 0-.821-4.005c-.357-.397-1.332-.961-1.932-1.117-.368-.096-1.335-.138-1.695-.073m1.055 3.015c.397.165.598.457.597.866-.002.479-.056.548-1.585 2.041-.744.727-1.37 1.316-1.392 1.308-.021-.007-.53-.49-1.13-1.073s-1.241-1.199-1.425-1.368c-.2-.184-.372-.383-.429-.497a.896.896 0 0 1 .794-1.295c.323 0 .447.063.896.458.615.541 1.021.687 1.563.561.419-.097.639-.258 1.083-.794.199-.239.707-.342 1.028-.207"/></svg>