<svg xmlns="http://www.w3.org/2000/svg" width="24" height="24" fill="none" stroke="currentColor" stroke-linecap="round" stroke-linejoin="round" stroke-width="3"><path fill="#000" fill-rule="evenodd" stroke="none" d="M3.44.547c-.288.05-.716.19-.972.318C1.346 1.427.653 2.43.521 3.686.466 4.205.467 14.854.522 15.2c.162 1.024 1.198 1.576 2.144 1.142.199-.091.482-.356 2.092-1.961l1.862-1.856 2.92-.016c3.225-.017 3.13-.01 3.796-.282a3.6 3.6 0 0 0 1.575-1.293 3.5 3.5 0 0 0 .568-1.617c.052-.49.052-5.144 0-5.634-.154-1.465-1.105-2.613-2.526-3.052l-.293-.09L8.1.536C5.592.532 3.495.538 3.44.547m8.904 3.109.136.136v2.699c0 2.671-.001 2.699-.083 2.804a.7.7 0 0 1-.17.155c-.067.038-.856.055-3.367.07l-3.28.02-.24.12c-.185.093-.421.298-1.03.896l-.79.777V3.792l.136-.136.136-.136h8.416zm5.172 3.921c-.532.201-.921.673-.993 1.205a1.494 1.494 0 0 0 1.287 1.7c.138.02.733.037 1.324.037l1.074.001.136.136.136.136v7.541l-.79-.777c-.609-.598-.845-.803-1.03-.896l-.24-.12-3.28-.02c-2.511-.015-3.3-.032-3.367-.07a.7.7 0 0 1-.17-.155c-.075-.096-.083-.16-.084-.67-.001-.688-.042-.999-.171-1.275-.123-.265-.405-.545-.7-.694-.208-.106-.264-.116-.648-.116s-.44.01-.648.116c-.476.241-.762.648-.84 1.195-.052.363-.013 1.518.064 1.87.241 1.116 1.045 2.081 2.088 2.506.666.272.571.265 3.796.282l2.92.016 1.86 1.849c2.004 1.992 2.042 2.024 2.528 2.098a1.49 1.49 0 0 0 1.714-1.282c.051-.348.047-11.027-.003-11.507-.154-1.465-1.113-2.623-2.526-3.05-.277-.083-.377-.089-1.793-.099-1.19-.009-1.53 0-1.644.043"/></svg>