<svg xmlns="http://www.w3.org/2000/svg" width="24" height="24" fill="none" stroke="currentColor" stroke-linecap="round" stroke-linejoin="round" stroke-width="3"><path fill="#000" fill-rule="evenodd" stroke="none" d="M11.38 1.522a10.49 10.49 0 0 0-9.014 6.319 11.3 11.3 0 0 0-.809 3.109c-.061.574-.026 2.045.06 2.582.132.814.325 1.544.586 2.21.086.221.157.431.157.465s-.404 1.254-.899 2.71c-.494 1.456-.917 2.751-.94 2.877-.17.938.729 1.831 1.691 1.681.116-.019 1.405-.439 2.865-.934 1.459-.496 2.685-.901 2.723-.901s.202.055.364.122c.624.259 1.616.519 2.456.644.233.035.735.054 1.42.054.928-.001 1.127-.013 1.6-.094 3.02-.522 5.457-2.095 7.138-4.608.347-.518.867-1.543 1.082-2.132.825-2.256.861-4.679.104-6.946-.904-2.703-2.775-4.841-5.344-6.104a10.37 10.37 0 0 0-5.24-1.054m1.142 3c1.025.081 1.862.305 2.742.734.852.415 1.393.798 2.037 1.443a7.48 7.48 0 0 1 2.139 4.361c.1.796.037 1.963-.143 2.68-.535 2.125-1.916 3.896-3.822 4.898a7.4 7.4 0 0 1-3.464.841c-1.159.002-2.143-.221-3.291-.744-.376-.171-.455-.193-.76-.206l-.34-.015-1.36.459c-.748.253-1.466.497-1.597.543-.13.046-.241.079-.247.073s.224-.704.512-1.55c.475-1.395.526-1.571.543-1.883.02-.376.048-.28-.404-1.356a7.4 7.4 0 0 1-.513-2.073c-.053-.519-.021-1.497.064-1.987.329-1.873 1.36-3.58 2.842-4.702 1.149-.871 2.594-1.421 3.98-1.515.253-.017.479-.034.502-.037s.284.013.58.036M9.516 7.577c-.321.122-.561.337-2.122 1.897-1.244 1.245-1.65 1.674-1.728 1.832a1.6 1.6 0 0 0 0 1.388c.078.158.489.593 1.768 1.874 1.443 1.444 1.697 1.681 1.898 1.773 1.113.51 2.308-.358 2.145-1.559-.045-.329-.196-.609-.515-.952l-.289-.31h3.535l.131.131.13.13.019.76c.017.696.027.78.12 1.007.241.591.757.938 1.392.938s1.153-.349 1.39-.935c.084-.207.102-.331.119-.808.053-1.458-.228-2.358-.987-3.158a3.7 3.7 0 0 0-1.569-.952c-.283-.087-.359-.09-2.305-.103l-2.011-.014.307-.328c.337-.361.487-.634.533-.97a1.5 1.5 0 0 0-.829-1.562c-.198-.101-.279-.117-.608-.125-.246-.006-.431.01-.524.046"/></svg>