<svg xmlns="http://www.w3.org/2000/svg" width="24" height="24" fill="none" stroke="currentColor" stroke-linecap="round" stroke-linejoin="round" stroke-width="3"><path fill="#000" fill-rule="evenodd" stroke="none" d="M11.38 1.522a10.49 10.49 0 0 0-9.014 6.319 11.3 11.3 0 0 0-.809 3.109c-.061.574-.026 2.045.06 2.582.132.814.325 1.544.586 2.21.086.221.157.431.157.465s-.404 1.254-.899 2.71c-.494 1.456-.917 2.751-.94 2.877-.17.938.729 1.831 1.691 1.681.116-.019 1.405-.439 2.865-.934 1.459-.496 2.685-.901 2.723-.901s.202.055.364.122c.624.259 1.616.519 2.456.644.233.035.735.054 1.42.054.928-.001 1.127-.013 1.6-.094 3.02-.522 5.457-2.095 7.138-4.608.347-.518.867-1.543 1.082-2.132.825-2.256.861-4.679.104-6.946-.904-2.703-2.775-4.841-5.344-6.104a10.37 10.37 0 0 0-5.24-1.054m1.142 3c1.025.081 1.862.305 2.742.734.852.415 1.393.798 2.037 1.443a7.48 7.48 0 0 1 2.139 4.361c.1.796.037 1.963-.143 2.68-.535 2.125-1.916 3.896-3.822 4.898a7.4 7.4 0 0 1-3.464.841c-1.159.002-2.143-.221-3.291-.744-.376-.171-.455-.193-.76-.206l-.34-.015-1.36.459c-.748.253-1.466.497-1.597.543-.13.046-.241.079-.247.073s.224-.704.512-1.55c.475-1.395.526-1.571.543-1.883.02-.376.048-.28-.404-1.356a7.4 7.4 0 0 1-.513-2.073c-.053-.519-.021-1.497.064-1.987.329-1.873 1.36-3.58 2.842-4.702 1.149-.871 2.594-1.421 3.98-1.515.253-.017.479-.034.502-.037s.284.013.58.036M8.516 7.577a1.52 1.52 0 0 0-.86 2.085c.084.185.289.413 1.15 1.282L9.854 12l-1.048 1.056c-1.131 1.141-1.22 1.261-1.283 1.726-.162 1.197 1.032 2.069 2.139 1.562.185-.084.413-.289 1.282-1.15L12 14.146l1.056 1.048c.869.861 1.097 1.066 1.282 1.15 1.107.507 2.301-.365 2.139-1.562-.063-.465-.152-.585-1.283-1.726L14.146 12l1.048-1.056c.861-.869 1.066-1.097 1.15-1.282.352-.769.055-1.626-.696-2.006-.208-.106-.264-.116-.648-.116-.647 0-.68.022-1.95 1.276L12 9.854l-1.05-1.038C9.703 7.584 9.646 7.545 9.04 7.531c-.246-.006-.431.01-.524.046"/></svg>