<svg xmlns="http://www.w3.org/2000/svg" width="24" height="24" fill="none" stroke="currentColor" stroke-linecap="round" stroke-linejoin="round" stroke-width="3"><path fill="#000" fill-rule="evenodd" stroke="none" d="M4.44 1.547c-1.194.205-2.264 1.061-2.684 2.149-.273.708-.252-.007-.266 9.024-.009 5.629.001 8.267.03 8.46.158 1.04 1.191 1.6 2.146 1.162.199-.091.482-.356 2.092-1.962l1.863-1.857 5.919-.014c6.567-.014 6.092.005 6.796-.282a3.6 3.6 0 0 0 1.575-1.293 3.5 3.5 0 0 0 .568-1.617c.053-.506.053-10.128 0-10.634-.154-1.464-1.103-2.611-2.526-3.052l-.293-.091-7.56-.005c-4.158-.002-7.605.003-7.66.012m14.904 3.109.136.136v10.397l-.083.106a.7.7 0 0 1-.17.155c-.068.039-1.463.054-6.367.07l-6.28.02-.24.12c-.185.093-.421.298-1.03.896l-.79.777V4.792l.136-.136.136-.136h14.416zm-7.828.921c-.371.142-.711.446-.864.773-.135.289-.17.587-.171 1.438l-.001.728-.95.012-.95.012-.228.116c-.93.471-1.133 1.673-.407 2.399.381.382.7.463 1.82.464l.705.001.018.89c.016.842.023.904.119 1.138.243.592.758.938 1.393.938s1.15-.346 1.393-.938c.096-.234.103-.296.119-1.138l.018-.89.705-.001c1.12-.001 1.439-.082 1.82-.464.726-.726.523-1.928-.407-2.399l-.228-.116-.95-.013-.95-.012-.001-.728c0-.4-.017-.839-.037-.977a1.51 1.51 0 0 0-.832-1.153c-.195-.099-.28-.116-.608-.125q-.382-.01-.526.045"/></svg>