<svg xmlns="http://www.w3.org/2000/svg" width="24" height="24" fill="none" stroke="currentColor" stroke-linecap="round" stroke-linejoin="round" stroke-width="3"><path fill="#000" fill-rule="evenodd" stroke="none" d="M4.44 1.547a3.54 3.54 0 0 0-2.816 2.541c-.1.352-.156 1.035-.133 1.655.017.477.035.601.119.808.237.586.756.935 1.39.935.635 0 1.151-.347 1.392-.938.093-.227.103-.311.12-1.007l.019-.76.13-.13.131-.131 1.074-.001c.591 0 1.186-.017 1.324-.037a1.494 1.494 0 0 0 1.287-1.7 1.51 1.51 0 0 0-.829-1.126L7.42 1.54l-1.44-.005a37 37 0 0 0-1.54.012m6.076.031c-.53.198-.921.672-.993 1.204a1.494 1.494 0 0 0 1.287 1.7c.325.047 3.055.047 3.38 0a1.494 1.494 0 0 0 1.287-1.7 1.51 1.51 0 0 0-.829-1.126l-.228-.116-1.88-.008c-1.494-.006-1.91.003-2.024.046m7-.001c-1.049.399-1.349 1.701-.571 2.478.368.368.711.463 1.684.464.569.001.57.001.697.115.114.102.134.152.179.462.063.434.189.709.44.959a1.49 1.49 0 0 0 2.11 0c.357-.356.483-.78.419-1.408-.143-1.416-1.133-2.598-2.521-3.013-.261-.077-.403-.088-1.293-.099-.776-.01-1.032-.001-1.144.042m3 6c-.371.142-.711.446-.864.774-.149.319-.181.681-.164 1.869.015 1.052.018 1.086.118 1.328.246.593.759.938 1.394.938s1.148-.345 1.394-.938c.1-.242.103-.276.118-1.328.017-1.187-.015-1.549-.163-1.869-.124-.266-.406-.546-.699-.694-.195-.099-.28-.116-.608-.125-.253-.007-.431.008-.526.045m-18 1c-.371.142-.711.446-.864.774-.149.319-.181.681-.164 1.869.015 1.052.018 1.086.118 1.328.246.593.759.938 1.394.938s1.148-.345 1.394-.938c.1-.242.103-.276.118-1.328.017-1.187-.015-1.549-.163-1.869-.124-.266-.406-.546-.699-.694-.195-.099-.28-.116-.608-.125-.253-.007-.431.008-.526.045m18 5c-.371.142-.711.446-.865.775a2.2 2.2 0 0 0-.139.52c-.076.59-.134.622-1.15.648-.764.02-.787.023-1.01.136-.93.471-1.133 1.673-.407 2.399.353.354.721.463 1.555.464 1.335 0 2.159-.282 2.915-.997.729-.69 1.182-1.855 1.063-2.733a1.51 1.51 0 0 0-.828-1.132c-.195-.099-.28-.116-.608-.125-.253-.007-.431.008-.526.045m-18 1a1.54 1.54 0 0 0-.998 1.233c-.051.352-.048 5.065.004 5.39.162 1.025 1.197 1.575 2.146 1.142.203-.093.499-.373 2.4-2.274s2.181-2.197 2.274-2.4c.354-.776.06-1.63-.694-2.012-.208-.106-.264-.116-.648-.116-.623 0-.708.051-1.69 1.016l-.79.777-.001-.637c0-.35-.017-.748-.037-.886a1.51 1.51 0 0 0-.832-1.153c-.195-.099-.28-.116-.608-.125-.253-.007-.431.008-.526.045m8 1.001c-.53.198-.921.672-.993 1.204a1.494 1.494 0 0 0 1.287 1.7c.325.047 3.055.047 3.38 0a1.494 1.494 0 0 0 1.287-1.7 1.51 1.51 0 0 0-.829-1.126l-.228-.116-1.88-.008c-1.494-.006-1.91.003-2.024.046"/></svg>