<svg xmlns="http://www.w3.org/2000/svg" width="24" height="24" fill="none" stroke="currentColor" stroke-linecap="round" stroke-linejoin="round" stroke-width="3"><path fill="#000" fill-rule="evenodd" stroke="none" d="M11.28 1.54a10 10 0 0 1-.614.058c-.451.033-.596.06-.784.144-.294.132-.604.446-.75.758-.097.207-.112.29-.112.6s.015.393.112.6c.147.315.455.624.764.767.224.103.279.112.684.107.567-.008 2.273-.008 2.84 0 .405.005.46-.004.684-.107.309-.143.617-.452.764-.767.097-.207.112-.29.112-.6s-.015-.393-.112-.6a2 2 0 0 0-.316-.447c-.291-.296-.555-.404-1.118-.455-.476-.044-2.051-.086-2.154-.058M6.354 3.274c-.258.085-.344.142-.883.575-.791.637-1.905 1.856-2.13 2.332a1.56 1.56 0 0 0 .02 1.299c.28.555.973.906 1.575.797.462-.084.701-.25 1.142-.794a9.6 9.6 0 0 1 1.41-1.412c.635-.529.794-.807.798-1.395.002-.276-.013-.343-.142-.61-.253-.525-.696-.819-1.284-.851a1.3 1.3 0 0 0-.506.059m10.36.019c-.974.332-1.317 1.497-.688 2.336.053.071.277.275.497.453.508.412.983.887 1.395 1.395.444.549.68.714 1.142.8.602.111 1.299-.241 1.579-.797.2-.398.204-.926.01-1.314-.248-.496-1.337-1.687-2.12-2.317-.546-.439-.625-.49-.896-.574a1.38 1.38 0 0 0-.919.018M2.774 9.039c-.422.09-.848.44-1.036.854-.083.18-.115.334-.142.68l-.076.937a6 6 0 0 0 0 .98l.076.935c.027.344.06.5.142.684.136.303.446.612.762.759.207.097.29.112.6.112s.393-.015.6-.112c.315-.147.624-.455.767-.764.103-.224.112-.279.107-.684-.008-.567-.008-2.273 0-2.84.005-.405-.004-.46-.107-.684a1.68 1.68 0 0 0-.748-.753 1.8 1.8 0 0 0-.945-.104m17.8 0c-.424.09-.845.438-1.042.861-.111.238-.112.244-.095.9.021.802.021 2.023-.001 2.62-.015.425-.012.449.108.7.363.764 1.233 1.084 1.984.731.387-.182.682-.518.799-.91.135-.451.213-1.685.153-2.424l-.076-.942c-.027-.344-.06-.5-.142-.684a1.65 1.65 0 0 0-.743-.748 1.8 1.8 0 0 0-.945-.104m-1.739 6.741c-.296.095-.552.295-.847.66a11 11 0 0 1-1.478 1.491c-.642.534-.799.812-.799 1.416 0 .247.02.327.144.586.285.593.836.909 1.49.857.348-.028.594-.157 1.13-.593.849-.69 1.92-1.854 2.174-2.363.194-.388.19-.916-.01-1.314a1.65 1.65 0 0 0-.646-.641c-.226-.121-.292-.137-.613-.147-.237-.007-.423.009-.545.048m-15.744.275c-.384.127-.75.425-.909.743-.05.1-.447 1.253-.882 2.562-.885 2.659-.886 2.663-.706 3.145.225.602.772.982 1.412.982.242 0 .503-.078 2.641-.789 1.305-.434 2.455-.83 2.555-.88.252-.126.497-.39.65-.697.116-.234.128-.294.128-.62 0-.32-.014-.39-.124-.621a1.54 1.54 0 0 0-.735-.732c-.231-.114-.297-.128-.6-.128-.317.001-.401.021-1.214.294-.479.162-.882.285-.894.273s.111-.415.273-.894c.274-.814.294-.896.294-1.214 0-.303-.014-.37-.128-.6-.263-.529-.712-.833-1.278-.862a1.5 1.5 0 0 0-.483.038m7.009 3.399q-.667.22-.956.826c-.11.231-.124.3-.124.62s.014.389.124.62c.188.396.521.689.915.807.451.135 1.685.213 2.424.153l.942-.076c.344-.027.5-.06.684-.142.303-.136.612-.446.759-.762.097-.207.112-.29.112-.6s-.015-.393-.112-.6a1.55 1.55 0 0 0-1.209-.882c-.146-.015-.58.001-1.026.039-.633.054-.867.058-1.293.022-.923-.078-1.073-.081-1.24-.025"/></svg>