<svg xmlns="http://www.w3.org/2000/svg" width="24" height="24" fill="none" stroke="currentColor" stroke-linecap="round" stroke-linejoin="round" stroke-width="3"><path fill="#000" fill-rule="evenodd" stroke="none" d="M4.44 1.547c-1.194.205-2.264 1.061-2.684 2.149-.273.708-.252-.007-.266 9.024-.009 5.629.001 8.267.03 8.46.158 1.04 1.191 1.6 2.146 1.162.199-.091.482-.356 2.092-1.962l1.863-1.857 5.919-.014c6.567-.014 6.092.005 6.796-.282a3.6 3.6 0 0 0 1.575-1.293 3.5 3.5 0 0 0 .568-1.617c.053-.506.053-10.128 0-10.634-.154-1.464-1.103-2.611-2.526-3.052l-.293-.091-7.56-.005c-4.158-.002-7.605.003-7.66.012m14.904 3.109.136.136v10.397l-.083.106a.7.7 0 0 1-.17.155c-.068.039-1.463.054-6.367.07l-6.28.02-.24.12c-.185.093-.421.298-1.03.896l-.79.777V4.792l.136-.136.136-.136h14.416zM7.516 6.578c-1.047.392-1.349 1.7-.571 2.477.317.317.73.462 1.325.464l.21.001v.335c0 .278-.014.352-.083.44-.119.151-.201.185-.539.223-1.263.141-1.804 1.646-.913 2.537.357.358.78.483 1.412.419a3.48 3.48 0 0 0 2.518-1.491 3.44 3.44 0 0 0 .604-1.666c.049-.471.052-2.171.003-2.507a1.51 1.51 0 0 0-.834-1.154l-.228-.116-1.38-.008c-1.079-.007-1.412.003-1.524.046m6 0c-1.047.392-1.349 1.7-.571 2.477.317.317.73.462 1.325.464l.21.001v.335c0 .278-.014.352-.083.44-.119.151-.201.185-.539.223-1.263.141-1.804 1.646-.913 2.537.357.358.78.483 1.412.419a3.48 3.48 0 0 0 2.518-1.491 3.44 3.44 0 0 0 .604-1.666c.049-.471.052-2.171.003-2.507a1.51 1.51 0 0 0-.834-1.154l-.228-.116-1.38-.008c-1.079-.007-1.412.003-1.524.046"/></svg>