<svg xmlns="http://www.w3.org/2000/svg" width="24" height="24" fill="none" stroke="currentColor" stroke-linecap="round" stroke-linejoin="round" stroke-width="3"><path fill="#000" fill-rule="evenodd" stroke="none" d="M1.516.577C.655.907.276 1.831.659 2.668c.093.206.485.612 3.46 3.592l3.354 3.36.02 1.48c.021 1.575.042 1.76.263 2.392a4.66 4.66 0 0 0 1.35 1.951c1.277 1.055 3.043 1.34 4.558.734l.266-.106.401.401.402.401-.137.084c-.214.131-.916.395-1.303.489-.296.072-.491.088-1.213.095-.952.011-1.21-.022-1.82-.228a5.47 5.47 0 0 1-3.681-4.332c-.043-.262-.059-.712-.06-1.641 0-.704-.017-1.392-.037-1.53a1.51 1.51 0 0 0-.834-1.154C5.44 8.55 5.384 8.54 5 8.54s-.44.01-.648.116a1.51 1.51 0 0 0-.834 1.154c-.083.571-.026 2.994.085 3.662a8.61 8.61 0 0 0 3.778 5.767c.681.447 1.775.918 2.599 1.119.198.048.389.096.425.106.058.016.068.13.083.927.016.863.022.922.119 1.157.243.592.758.938 1.393.938s1.15-.347 1.392-.938c.096-.233.104-.302.125-1.162l.023-.913.52-.132c.904-.228 1.795-.607 2.48-1.055l.36-.235 2.101 2.093c1.828 1.82 2.132 2.106 2.332 2.198a1.503 1.503 0 0 0 2.009-2.01c-.095-.21-1.076-1.202-10.274-10.395C1.635-.49 2.738.551 2.042.532c-.253-.007-.431.008-.526.045m9.764.002a4.9 4.9 0 0 0-1.903.786c-.543.375-1.136 1.075-1.4 1.649-.353.773-.057 1.625.695 1.995.245.12.298.131.647.131.327 0 .413-.015.603-.104.309-.145.498-.324.742-.7.233-.362.411-.528.736-.686.297-.144.825-.153 1.16-.019.301.12.597.39.763.696l.137.253.021 2.52c.02 2.516.02 2.52.112 2.75.174.432.555.803.945.92.089.026.297.048.462.048s.373-.022.462-.048c.39-.117.77-.487.945-.92l.093-.23V7.08c0-2.285-.007-2.575-.072-2.892-.332-1.633-1.497-2.955-3.033-3.442-.663-.21-1.481-.274-2.115-.167m7.236 7.998a1.62 1.62 0 0 0-.919.89c-.086.222-.093.31-.127 1.813-.059 2.56-.065 2.308.058 2.569a1.7 1.7 0 0 0 .743.743c.201.095.278.108.629.108.361 0 .422-.011.626-.114.295-.15.581-.434.703-.697.126-.271.204-.722.251-1.449.049-.735.05-2.302.002-2.63a1.51 1.51 0 0 0-.832-1.153c-.195-.099-.28-.116-.608-.125-.253-.007-.431.008-.526.045"/></svg>