<svg xmlns="http://www.w3.org/2000/svg" width="24" height="24" fill="none" stroke="currentColor" stroke-linecap="round" stroke-linejoin="round" stroke-width="3"><path fill="#000" fill-rule="evenodd" stroke="none" d="M15.02.58c-2.578.412-4.586 2.212-5.297 4.75-.117.416-.158.674-.203 1.283l-.038.514-.177.246c-.097.136-1.403 1.921-2.902 3.967s-2.778 3.83-2.843 3.964c-.314.649-.315 1.56-.001 2.173.058.115.072.185.047.234-.02.038-.078.231-.129.429-.077.299-.093.465-.094.98 0 .664.03.861.226 1.48.211.665.515 1.184.987 1.689a3.8 3.8 0 0 0 1.753 1.099c.325.1.403.108 1.071.109.656.001.756-.008 1.124-.106.223-.059.547-.163.72-.232.348-.137 1.244-.58 1.727-.854.563-.318 1.19-.617 1.487-.707.55-.167 1.435-.056 2.186.275.277.122.467.225 1.03.558.33.196.598.267.901.238a1.53 1.53 0 0 0 1.256-.865c.116-.237.129-.297.129-.623 0-.322-.014-.39-.126-.627a1.8 1.8 0 0 0-.293-.429c-.374-.362-1.56-.992-2.374-1.261a6.3 6.3 0 0 0-1.91-.333c-1.278-.043-1.965.179-4.027 1.301-.96.522-1.296.655-1.713.679-.375.021-.558-.048-.771-.29-.119-.136-.286-.422-.286-.489 0-.018.122-.037.27-.044a2.36 2.36 0 0 0 1.231-.396c.11-.071 1.871-1.405 3.914-2.965l3.715-2.836.492-.004c2.419-.019 4.622-1.416 5.733-3.635.68-1.358.841-3.092.426-4.568-.708-2.517-2.735-4.31-5.321-4.707-.442-.068-1.484-.066-1.92.003m1.732 3.003c.641.13 1.193.439 1.71.955.71.71 1.018 1.455 1.018 2.462 0 .979-.294 1.712-.976 2.431-.664.7-1.509 1.056-2.504 1.056q-1.51 0-2.521-1.073C12.813 8.707 12.52 7.97 12.52 7c0-1.007.308-1.752 1.018-2.462.507-.506 1.063-.821 1.682-.952.378-.08 1.146-.082 1.532-.003m-5.84 7.449c.293.368.852.921 1.127 1.115.087.062.154.131.147.153-.011.034-2.123 1.659-4.818 3.707l-.693.526-.102-.101-.101-.102 2.067-2.825a335 335 0 0 1 2.079-2.825c.007 0 .139.159.294.352"/></svg>