<svg xmlns="http://www.w3.org/2000/svg" width="24" height="24" fill="none" stroke="currentColor" stroke-linecap="round" stroke-linejoin="round" stroke-width="3"><path fill="#000" fill-rule="evenodd" stroke="none" d="M11.277.558c-.84.153-1.645.537-2.238 1.066-.801.714-1.286 1.587-1.487 2.676-.075.406-.075 7.994 0 8.4.358 1.938 1.744 3.355 3.644 3.726.391.076 1.217.076 1.608 0 1.642-.321 2.933-1.444 3.459-3.011.235-.701.228-.565.246-4.535.011-2.35.002-3.839-.025-4.16-.1-1.19-.537-2.14-1.351-2.932a3.8 3.8 0 0 0-1.153-.81c-.678-.332-1.061-.423-1.86-.44-.363-.007-.742.002-.843.02m1.376 3.1c.272.138.573.445.709.722l.098.2v7.84l-.116.228a1.5 1.5 0 0 1-1.562.829 1.51 1.51 0 0 1-1.126-.829l-.116-.228V4.58l.098-.2c.173-.352.515-.664.878-.803q.144-.055.526-.045c.329.009.413.026.611.126M4.516 8.577c-.561.215-.918.668-1.004 1.274-.062.432-.013 2.821.068 3.349.173 1.129.622 2.362 1.192 3.278.459.736 1.283 1.663 1.931 2.172a8.7 8.7 0 0 0 3.26 1.598l.508.129.017.962c.016.92.021.971.119 1.209.244.592.758.938 1.393.938s1.149-.346 1.393-.938c.098-.238.103-.289.119-1.209l.017-.962.508-.129a8.7 8.7 0 0 0 3.26-1.599 11 11 0 0 0 1.353-1.353 8.84 8.84 0 0 0 1.77-4.096c.081-.527.13-2.915.068-3.349-.078-.547-.364-.954-.84-1.195-.208-.106-.264-.116-.648-.116s-.44.01-.648.116a1.51 1.51 0 0 0-.834 1.154c-.02.138-.037.808-.037 1.49-.001.931-.017 1.327-.063 1.59-.359 2.055-1.743 3.672-3.704 4.328-.55.184-1.059.262-1.714.262s-1.164-.078-1.714-.262c-1.961-.656-3.345-2.273-3.704-4.328-.046-.263-.062-.659-.063-1.59 0-.682-.017-1.352-.037-1.49a1.51 1.51 0 0 0-.832-1.153c-.195-.099-.28-.116-.608-.125-.253-.007-.431.008-.526.045"/></svg>