<svg xmlns="http://www.w3.org/2000/svg" width="24" height="24" fill="none" stroke="currentColor" stroke-linecap="round" stroke-linejoin="round" stroke-width="3"><path fill="#000" fill-rule="evenodd" stroke="none" d="M3.44 2.547A3.56 3.56 0 0 0 .552 5.388c-.076.398-.076 11.826 0 12.224.221 1.168 1.036 2.177 2.115 2.617.425.173.753.24 1.335.274l.467.028.026.4c.039.593.18.899.576 1.244.473.413 1.385.413 1.858 0 .397-.346.537-.651.576-1.25l.027-.405h8.936l.027.405c.039.599.179.904.576 1.25.473.413 1.385.413 1.858 0 .396-.345.537-.651.576-1.244l.026-.4.467-.028c.257-.015.588-.052.735-.083a3.6 3.6 0 0 0 1.775-.992c.573-.6.883-1.272.971-2.111.053-.508.053-11.126 0-11.634-.154-1.464-1.103-2.61-2.526-3.052l-.293-.091-8.56-.005c-4.708-.002-8.605.003-8.66.012m16.904 3.109.136.136v11.402l-.103.122a.6.6 0 0 1-.251.162c-.203.055-16.049.055-16.252 0a.6.6 0 0 1-.251-.162l-.103-.122V5.792l.136-.136.136-.136h16.416zm-13.964.92c-.453.113-.95.421-1.279.793-.209.237-.465.739-.547 1.071-.079.322-.079 5.798 0 6.12.175.713.701 1.372 1.334 1.674.582.277.416.266 4.112.266 2.672 0 3.384-.011 3.56-.054.713-.175 1.372-.701 1.674-1.334.274-.576.266-.467.266-3.612s.008-3.036-.265-3.61c-.261-.548-.8-1.027-1.418-1.26l-.237-.09-3.5-.007c-2.684-.006-3.547.004-3.7.043m11.136.001c-.557.213-.919.67-1.001 1.261-.023.163-.034 1.736-.027 3.869L16.5 15.3l.105.248c.25.595.761.938 1.395.938s1.145-.343 1.395-.938l.105-.248.012-3.593c.007-2.133-.004-3.706-.027-3.869a1.5 1.5 0 0 0-.835-1.181c-.195-.099-.28-.116-.608-.125-.253-.007-.431.008-.526.045M12.48 11.52v2H7.52v-4h4.96z"/></svg>