<svg xmlns="http://www.w3.org/2000/svg" width="24" height="24" fill="none" stroke="currentColor" stroke-linecap="round" stroke-linejoin="round" stroke-width="3"><path fill="#000" fill-rule="evenodd" stroke="none" d="M8.38.575A2.56 2.56 0 0 0 6.777 1.86c-.239.481-.262.619-.286 1.723L6.47 4.585l-.186.105c-.435.245-.699.641-.771 1.159-.024.175-.033 1.132-.022 2.449.019 2.359.02 2.369.265 3.006.29.752 1.045 1.556 1.74 1.854.101.044.184.084.184.091s-.037.109-.083.23c-.12.316-.114.756.015 1.076.156.387.441.672.84.84l.248.105h2.6l.248-.105c.399-.168.684-.453.84-.84.129-.32.135-.76.015-1.076a4 4 0 0 1-.083-.23c0-.007.083-.047.184-.091.468-.2 1.069-.723 1.407-1.224.395-.584.606-1.349.608-2.206l.001-.212.15.026c1.268.219 2.105.596 2.954 1.332.935.81 1.571 1.956 1.794 3.236.08.453.08 1.327 0 1.78-.359 2.055-1.743 3.672-3.704 4.328-.865.289-.505.274-7.154.299l-5.98.023-.228.116a1.51 1.51 0 0 0-.829 1.126 1.494 1.494 0 0 0 1.287 1.7c.33.048 18.05.048 18.38 0a1.494 1.494 0 0 0 1.287-1.7 1.51 1.51 0 0 0-.829-1.126c-.203-.103-.277-.117-.678-.13-.247-.008-.45-.025-.45-.038s.097-.15.215-.305a8.74 8.74 0 0 0 1.686-4.003c.089-.591.09-1.767.001-2.36-.183-1.22-.655-2.474-1.302-3.457a7.6 7.6 0 0 0-1.136-1.384A7.9 7.9 0 0 0 17.74 7.38a8 8 0 0 0-1.671-.619c-.373-.094-1.283-.241-1.493-.241-.041 0-.056-.059-.057-.23-.003-.786-.257-1.293-.803-1.6l-.186-.105-.021-1.002c-.016-.734-.039-1.062-.084-1.223A2.64 2.64 0 0 0 11.817.63c-.228-.087-.291-.09-1.737-.098-1.098-.005-1.554.006-1.7.043m2.1 3.445v.5h-.96v-1h.96zm1 4.837v1.337l-.103.122a.6.6 0 0 1-.25.163c-.192.053-2.062.053-2.254 0a.6.6 0 0 1-.25-.163l-.103-.122V7.52h2.96zm-5.964 7.721c-.365.136-.71.444-.864.774a1.5 1.5 0 0 0 1.158 2.13c.326.047 8.054.047 8.38 0a1.494 1.494 0 0 0 1.287-1.7 1.51 1.51 0 0 0-.829-1.126l-.228-.116-4.38-.008c-3.573-.006-4.407.003-4.524.046"/></svg>