<svg xmlns="http://www.w3.org/2000/svg" width="24" height="24" fill="none" stroke="currentColor" stroke-linecap="round" stroke-linejoin="round" stroke-width="3"><path fill="#000" fill-rule="evenodd" stroke="none" d="M11.516 1.577c-.371.142-.711.446-.864.773-.135.289-.17.587-.171 1.439l-.001.728-3.07.013c-3.052.012-3.072.013-3.363.102-1.299.399-2.247 1.446-2.495 2.756-.073.385-.073 3.839 0 4.224.221 1.168 1.036 2.177 2.115 2.617.664.27.565.263 3.841.28l2.969.016.011 3.388.012 3.387.105.248c.25.595.761.938 1.395.938s1.145-.343 1.395-.938l.105-.248.012-3.39.011-3.39h2.209c1.316 0 2.313-.017 2.468-.042a2 2 0 0 0 .46-.138c.25-.121 4.434-3.774 4.584-4.002.21-.321.3-.837.211-1.209a1.7 1.7 0 0 0-.361-.637c-.085-.093-1.063-.963-2.174-1.933-1.356-1.185-2.099-1.807-2.26-1.892l-.24-.127-2.45-.011-2.45-.011-.001-.729c0-.401-.017-.841-.037-.979a1.51 1.51 0 0 0-.832-1.153c-.195-.099-.28-.116-.608-.125q-.382-.01-.526.045m7.058 6.919c.613.536 1.114.988 1.114 1.004s-.511.476-1.134 1.022l-1.134.994-6.197.002c-4.051.001-6.249-.013-6.347-.039a.6.6 0 0 1-.253-.163l-.103-.122V7.792l.136-.136.136-.136 6.334.001h6.334z"/></svg>