<svg xmlns="http://www.w3.org/2000/svg" width="24" height="24" fill="none" stroke="currentColor" stroke-linecap="round" stroke-linejoin="round" stroke-width="3"><path fill="#000" fill-rule="evenodd" stroke="none" d="M8.22.52c-.607.019-.652.026-.868.136-.94.476-1.135 1.681-.39 2.413.117.115.288.24.381.279.158.065.169.08.191.263.05.42.42.897.855 1.101.2.094.282.108.611.108.31 0 .416-.017.577-.091.425-.196.759-.581.865-.999l.053-.21h2.973l.024.93c.027 1.043.083 1.44.288 2.056.187.563.354.88.905 1.721.506.77.677 1.101.75 1.445.025.117.045.531.045.92.001.793.043 1.143.172 1.408.125.255.465.585.737.712.2.094.282.108.611.108.31 0 .416-.017.577-.091.274-.126.529-.346.681-.585.219-.347.242-.5.238-1.544-.005-1.065-.055-1.442-.276-2.106-.187-.563-.354-.88-.905-1.721-.506-.77-.677-1.101-.75-1.445-.025-.119-.045-.587-.045-1.064v-.852l.156-.07c.223-.101.558-.446.673-.694a1.56 1.56 0 0 0 0-1.296c-.169-.363-.571-.697-.952-.791C16.211.514 9.469.481 8.22.52M1.516.577C.655.907.276 1.832.659 2.668c.093.204.416.543 2.685 2.814l2.579 2.583-.139.418C5.485 9.379 5.5 9.037 5.5 15c0 4.19.011 5.399.052 5.612.221 1.168 1.036 2.177 2.116 2.617.689.281.535.271 4.332.271 3.075 0 3.449-.007 3.71-.068 1.328-.311 2.332-1.271 2.675-2.561l.071-.27 1.327 1.319c1.117 1.112 1.361 1.336 1.553 1.423a1.503 1.503 0 0 0 2.006-2.011c-.095-.21-1.076-1.202-10.274-10.395C1.635-.49 2.738.551 2.042.532c-.253-.007-.431.008-.526.045m9.426 12.534c-.008.009-.156-.008-.329-.037-.194-.033-.65-.053-1.203-.052h-.89V10.66l1.218 1.218c.671.67 1.212 1.225 1.204 1.233M10.46 16.1c.176.036.5.129.72.206 1.586.56 2.207.694 3.218.694h.46l.311.309.311.309v2.576l-.103.122a.6.6 0 0 1-.25.163c-.201.056-6.053.056-6.254 0a.6.6 0 0 1-.25-.163l-.103-.122v-4.108l.27-.026c.149-.014.288-.034.31-.043.089-.037 1.062.022 1.36.083"/></svg>