<svg xmlns="http://www.w3.org/2000/svg" width="24" height="24" fill="none" stroke="currentColor" stroke-linecap="round" stroke-linejoin="round" stroke-width="3"><path fill="#000" fill-rule="evenodd" stroke="none" d="M8.22.52c-.607.019-.652.026-.868.136-.938.475-1.135 1.681-.394 2.41.115.113.28.237.366.276l.156.07v.852c0 .477-.02.945-.045 1.064-.073.344-.244.675-.75 1.445-.551.841-.718 1.158-.905 1.721-.294.884-.28.55-.28 6.506 0 4.19.011 5.399.052 5.612.221 1.168 1.036 2.177 2.116 2.617.689.281.535.271 4.332.271 3.075 0 3.449-.007 3.71-.068 1.298-.303 2.276-1.216 2.65-2.47.155-.522.164-.908.15-6.222-.015-5.692-.001-5.377-.29-6.246-.187-.563-.354-.88-.905-1.721-.506-.77-.677-1.101-.75-1.445-.025-.119-.045-.587-.045-1.064v-.852l.156-.07c.223-.101.558-.446.673-.694a1.56 1.56 0 0 0 0-1.296c-.169-.363-.571-.697-.952-.791C16.211.514 9.469.481 8.22.52m5.272 3.93c.027 1.043.083 1.44.288 2.056.187.563.354.88.905 1.721.506.77.677 1.101.75 1.445.03.14.045.891.045 2.225v2.013l-.302.045a4.9 4.9 0 0 1-2.298-.239c-1.018-.356-1.398-.474-1.78-.552a8 8 0 0 0-1.95-.149l-.63.025v-1.578c0-1.013.016-1.654.045-1.79.073-.344.244-.675.75-1.445.551-.841.718-1.158.905-1.721.205-.616.261-1.013.288-2.056l.024-.93h2.936zM10.455 16.1c.352.073.519.125 1.325.412 1.061.378 1.92.513 3.03.476l.67-.022v3.228l-.103.122a.6.6 0 0 1-.25.163c-.201.056-6.053.056-6.254 0a.6.6 0 0 1-.25-.163l-.103-.122v-4.108l.27-.026c.149-.014.288-.034.31-.043.09-.037 1.062.022 1.355.083"/></svg>