<svg xmlns="http://www.w3.org/2000/svg" width="24" height="24" fill="none" stroke="currentColor" stroke-linecap="round" stroke-linejoin="round" stroke-width="3"><path fill="#000" fill-rule="evenodd" stroke="none" d="M7.516 1.577a1.54 1.54 0 0 0-.998 1.233c-.02.138-.037.954-.037 1.815-.001 1.522-.003 1.567-.084 1.67-.162.206-.142.204-2.037.225l-1.78.02-.228.116c-.93.471-1.133 1.673-.407 2.399.242.242.53.38.906.432.47.066 3.544.018 3.879-.06a3.62 3.62 0 0 0 2.145-1.444 3.44 3.44 0 0 0 .604-1.666c.05-.471.052-3.169.003-3.507a1.51 1.51 0 0 0-.832-1.153c-.195-.099-.28-.116-.608-.125q-.382-.01-.526.045m8 0c-.561.215-.919.669-1.003 1.274-.064.461-.018 3.544.058 3.87a3.58 3.58 0 0 0 2.699 2.706c.335.078 3.409.126 3.879.06.376-.052.664-.19.906-.432.726-.726.523-1.928-.407-2.399l-.228-.116-1.78-.02c-1.895-.021-1.875-.019-2.037-.225-.081-.103-.083-.148-.084-1.67 0-.861-.017-1.677-.037-1.815a1.51 1.51 0 0 0-.832-1.153c-.195-.099-.28-.116-.608-.125q-.381-.01-.526.045m-13 13.001c-.531.199-.921.672-.993 1.204a1.494 1.494 0 0 0 1.287 1.7c.138.02.956.037 1.819.037l1.57.001.13.117.131.116.02 1.774.021 1.773.104.248c.249.594.761.938 1.395.938s1.145-.344 1.395-.938l.104-.248.014-1.568c.014-1.669-.018-2.239-.153-2.694-.349-1.171-1.223-2.045-2.407-2.405-.284-.087-.354-.09-2.293-.099-1.604-.009-2.029 0-2.144.044m14.924-.031a3.56 3.56 0 0 0-2.888 2.841c-.038.197-.052.774-.052 2.092v1.82l.105.248c.25.595.761.938 1.395.938s1.146-.344 1.395-.938l.104-.248.021-1.773.02-1.774.131-.116.13-.117 1.57-.001c.863 0 1.681-.017 1.819-.037a1.494 1.494 0 0 0 1.287-1.7 1.51 1.51 0 0 0-.829-1.126l-.228-.116-1.94-.005c-1.067-.003-1.985.002-2.04.012"/></svg>