<svg xmlns="http://www.w3.org/2000/svg" width="24" height="24" fill="none" stroke="currentColor" stroke-linecap="round" stroke-linejoin="round" stroke-width="3"><path fill="#000" fill-rule="evenodd" stroke="none" d="M20.516 1.577c-.08.03-.224.104-.32.164-.097.059-1.188 1.118-2.426 2.353l-2.25 2.244-.001-1.139c0-.626-.017-1.251-.037-1.389a1.51 1.51 0 0 0-.834-1.154c-.208-.106-.264-.116-.648-.116s-.44.01-.648.116a1.51 1.51 0 0 0-.834 1.154c-.052.355-.048 6.106.004 6.424.053.327.187.588.421.823.235.234.496.368.823.421.318.052 6.069.056 6.424.004a1.494 1.494 0 0 0 1.287-1.7 1.51 1.51 0 0 0-.829-1.126l-.228-.116-1.397-.012-1.396-.012 2.304-2.309c2.017-2.02 2.318-2.337 2.411-2.539.354-.775.06-1.631-.692-2.011-.195-.099-.28-.116-.608-.125-.253-.007-.431.008-.526.045M6.7 12.519l-3.12.021-.228.116a1.51 1.51 0 0 0-.829 1.126 1.494 1.494 0 0 0 1.287 1.7c.138.02.762.037 1.389.037l1.138.001-2.286 2.291c-2 2.003-2.3 2.32-2.393 2.521a1.503 1.503 0 0 0 2.01 2.01c.201-.093.517-.392 2.517-2.389l2.288-2.283.014 1.315c.015 1.309.016 1.316.119 1.563.247.594.76.938 1.394.938s1.145-.343 1.395-.938l.105-.248.012-3.118c.012-3.304.003-3.517-.171-3.86a1.73 1.73 0 0 0-.662-.662c-.185-.094-.618-.189-.779-.17-.044.005-1.484.018-3.2.029"/></svg>