<svg xmlns="http://www.w3.org/2000/svg" width="24" height="24" fill="none" stroke="currentColor" stroke-linecap="round" stroke-linejoin="round" stroke-width="3"><path fill="#000" fill-rule="evenodd" stroke="none" d="M3.44 2.547A3.56 3.56 0 0 0 .552 5.388c-.075.395-.075 7.829 0 8.224.221 1.168 1.036 2.177 2.115 2.617.65.264.62.262 3.343.28l2.47.017v.99l-.95.012-.95.012-.228.116a1.51 1.51 0 0 0-.829 1.126 1.494 1.494 0 0 0 1.287 1.7c.326.047 5.054.047 5.38 0a1.494 1.494 0 0 0 1.287-1.7 1.51 1.51 0 0 0-.829-1.126c-.203-.103-.277-.117-.678-.13l-.45-.015v-.991l.21-.001c.595-.002 1.008-.147 1.325-.464.726-.726.523-1.928-.407-2.399l-.228-.116-4.28-.02c-3.309-.015-4.3-.031-4.367-.07a.7.7 0 0 1-.17-.155c-.083-.105-.083-.12-.083-3.804V5.792l.136-.136.136-.136h12.407l.13.117.131.116.022 1.274c.021 1.253.023 1.277.124 1.521.246.593.759.938 1.394.938s1.148-.345 1.393-.938c.1-.241.104-.278.119-1.308.018-1.157-.025-1.775-.152-2.202-.349-1.171-1.217-2.038-2.407-2.407l-.293-.09-6.56-.006c-3.608-.002-6.605.003-6.66.012m14 7.999a3.56 3.56 0 0 0-2.888 2.842c-.075.393-.075 6.831 0 7.224.221 1.168 1.036 2.177 2.116 2.617.621.253.755.269 2.332.269 1.182 0 1.469-.012 1.71-.067a3.7 3.7 0 0 0 1.798-1.003c.573-.6.883-1.272.971-2.111.052-.495.052-6.139 0-6.634-.154-1.465-1.113-2.622-2.526-3.05-.279-.084-.37-.089-1.853-.097a45 45 0 0 0-1.66.01m2.904 3.11.136.136v6.402l-.103.122a.6.6 0 0 1-.25.163c-.192.053-2.062.053-2.254 0a.6.6 0 0 1-.25-.163l-.103-.122v-6.402l.136-.136.136-.136h2.416z"/></svg>