<svg xmlns="http://www.w3.org/2000/svg" width="24" height="24" fill="none" stroke="currentColor" stroke-linecap="round" stroke-linejoin="round" stroke-width="3"><path fill="#000" fill-rule="evenodd" stroke="none" d="M3.44 1.547A3.56 3.56 0 0 0 .552 4.388c-.076.397-.076 10.827 0 11.224.221 1.168 1.036 2.177 2.115 2.617.674.274.509.264 4.343.28l3.47.015v.993l-1.45.012-1.45.011-.228.116a1.51 1.51 0 0 0-.829 1.126 1.494 1.494 0 0 0 1.287 1.7c.326.047 8.054.047 8.38 0a1.494 1.494 0 0 0 1.287-1.7 1.51 1.51 0 0 0-.829-1.126l-.228-.116-1.45-.012-1.45-.012v-.992l3.47-.015c3.837-.016 3.668-.005 4.346-.282a3.6 3.6 0 0 0 1.575-1.293 3.5 3.5 0 0 0 .568-1.617c.053-.506.053-10.128 0-10.634-.154-1.464-1.103-2.61-2.526-3.052l-.293-.091-8.56-.005c-4.708-.002-8.605.003-8.66.012m16.904 3.109.136.136v10.402l-.103.122a.6.6 0 0 1-.253.163c-.206.055-16.042.055-16.248 0a.6.6 0 0 1-.253-.163l-.103-.122V4.792l.136-.136.136-.136h16.416zm-5.828 1.921c-.317.12-.553.33-2.004 1.775l-1.508 1.502-.553-.537C9.728 8.615 9.588 8.54 9 8.54c-.384 0-.44.01-.648.116-.754.381-1.048 1.237-.694 2.012.09.195.286.411 1.275 1.399.988.989 1.204 1.185 1.399 1.275.432.197.903.197 1.336 0 .203-.093.499-.373 2.4-2.274s2.181-2.197 2.274-2.4c.354-.776.06-1.63-.694-2.012-.198-.101-.279-.117-.608-.125-.246-.006-.431.01-.524.046"/></svg>