<svg xmlns="http://www.w3.org/2000/svg" width="24" height="24" fill="none" stroke="currentColor" stroke-linecap="round" stroke-linejoin="round" stroke-width="3"><path fill="#000" fill-rule="evenodd" stroke="none" d="M3.44 1.547A3.56 3.56 0 0 0 .552 4.388c-.076.397-.076 10.827 0 11.224.221 1.168 1.036 2.177 2.115 2.617.674.274.509.264 4.343.28l3.47.015v.993l-1.45.012-1.45.011-.228.116a1.51 1.51 0 0 0-.829 1.126 1.494 1.494 0 0 0 1.287 1.7c.326.047 8.054.047 8.38 0a1.494 1.494 0 0 0 1.287-1.7 1.51 1.51 0 0 0-.829-1.126l-.228-.116-1.45-.012-1.45-.012v-.992l3.47-.015c3.837-.016 3.668-.005 4.346-.282a3.6 3.6 0 0 0 1.575-1.293 3.5 3.5 0 0 0 .568-1.617c.053-.506.053-10.128 0-10.634-.154-1.464-1.103-2.61-2.526-3.052l-.293-.091-8.56-.005c-4.708-.002-8.605.003-8.66.012m16.904 3.109.136.136v10.402l-.103.122a.6.6 0 0 1-.253.163c-.206.055-16.042.055-16.248 0a.6.6 0 0 1-.253-.163l-.103-.122V4.792l.136-.136.136-.136h16.416zm-8.828.921a1.54 1.54 0 0 0-.998 1.233c-.02.138-.037.76-.037 1.383l-.001 1.134-.301-.278a3 3 0 0 0-.53-.393C9.44 8.55 9.384 8.54 9 8.54s-.44.01-.648.116c-.754.382-1.048 1.237-.693 2.012.092.201.329.455 1.773 1.898 1.281 1.279 1.716 1.69 1.874 1.768a1.6 1.6 0 0 0 1.388 0c.158-.078.593-.489 1.874-1.768 1.444-1.443 1.681-1.697 1.773-1.898.355-.775.061-1.63-.693-2.012-.208-.106-.264-.116-.648-.116s-.44.01-.649.116a3 3 0 0 0-.53.393l-.301.278-.001-1.134c0-.623-.017-1.245-.037-1.383a1.51 1.51 0 0 0-.832-1.153c-.195-.099-.28-.116-.608-.125q-.382-.01-.526.045"/></svg>