<svg xmlns="http://www.w3.org/2000/svg" width="24" height="24" fill="none" stroke="currentColor" stroke-linecap="round" stroke-linejoin="round" stroke-width="3"><path fill="#000" fill-rule="evenodd" stroke="none" d="M13.44 2.547a3.56 3.56 0 0 0-2.888 2.841c-.076.398-.076 12.826 0 13.224.221 1.168 1.036 2.177 2.116 2.617.689.281.535.271 4.332.271 3.075 0 3.449-.007 3.71-.068a3.7 3.7 0 0 0 1.798-1.004c.573-.6.883-1.272.971-2.111.053-.509.053-12.125 0-12.634-.154-1.465-1.106-2.614-2.526-3.051l-.293-.09-3.56-.006a202 202 0 0 0-3.66.011m-10 2A3.56 3.56 0 0 0 .552 7.388c-.075.393-.075 6.831 0 7.224.221 1.168 1.036 2.177 2.115 2.617.638.26.654.261 3.035.28 1.317.011 2.274.002 2.449-.022.374-.052.662-.19.904-.432.726-.726.523-1.928-.407-2.399l-.228-.116-2.28-.02c-2.432-.021-2.372-.016-2.537-.225-.082-.105-.083-.127-.083-3.304V7.792l.136-.136.136-.136 2.074-.001c1.141 0 2.186-.017 2.324-.037a1.494 1.494 0 0 0 1.287-1.7 1.51 1.51 0 0 0-.829-1.126L8.42 4.54l-2.44-.005c-1.342-.003-2.485.003-2.54.012m16.904 1.109.136.136v12.402l-.103.122a.6.6 0 0 1-.25.163c-.201.056-6.053.056-6.254 0a.6.6 0 0 1-.25-.163l-.103-.122V5.792l.136-.136.136-.136h6.416zm-3.828 1.921c-1.049.399-1.349 1.701-.571 2.478.58.58 1.53.583 2.107.007a1.47 1.47 0 0 0 0-2.124c-.292-.292-.55-.395-1.012-.407-.247-.006-.431.01-.524.046m-.136 4.997a2.73 2.73 0 0 0-1.279.795c-.21.239-.469.746-.542 1.064a3 3 0 0 0-.049.567c0 .446.058.695.256 1.112.223.467.655.899 1.122 1.122.417.198.666.256 1.112.256s.695-.058 1.112-.256a2.5 2.5 0 0 0 1.122-1.122c.198-.417.256-.666.256-1.112s-.058-.695-.255-1.11c-.262-.55-.811-1.037-1.418-1.257-.295-.107-1.12-.141-1.437-.059m.964 2.082c.119.119.136.162.136.337 0 .242-.129.424-.343.483a.5.5 0 0 1-.514-.16c-.081-.096-.103-.166-.103-.323 0-.175.017-.218.136-.337s.161-.136.344-.136.224.016.344.136m-12.395 3.96c-.565.235-.892.688-.938 1.304-.048.64.343 1.234.979 1.485.219.086.292.091 1.55.106.759.009 1.443-.001 1.609-.024.376-.052.664-.19.906-.432.726-.726.523-1.928-.407-2.399l-.228-.116-1.62-.01-1.62-.01z"/></svg>