<svg xmlns="http://www.w3.org/2000/svg" width="24" height="24" fill="none" stroke="currentColor" stroke-linecap="round" stroke-linejoin="round" stroke-width="3"><path fill="#000" fill-rule="evenodd" stroke="none" d="M3.44 1.547A3.56 3.56 0 0 0 .552 4.388c-.076.397-.076 10.827 0 11.224.221 1.168 1.036 2.177 2.115 2.617.674.274.509.264 4.343.28l3.47.015v.993l-1.45.012-1.45.011-.228.116a1.51 1.51 0 0 0-.829 1.126 1.494 1.494 0 0 0 1.287 1.7c.326.047 8.054.047 8.38 0a1.494 1.494 0 0 0 1.287-1.7 1.51 1.51 0 0 0-.829-1.126l-.228-.116-1.45-.012-1.45-.012v-.992l3.47-.015c3.837-.016 3.668-.005 4.346-.282a3.6 3.6 0 0 0 1.575-1.293 3.5 3.5 0 0 0 .568-1.617c.053-.506.053-10.128 0-10.634-.154-1.464-1.103-2.61-2.526-3.052l-.293-.091-8.56-.005c-4.708-.002-8.605.003-8.66.012m16.904 3.109.136.136v10.402l-.103.122a.6.6 0 0 1-.253.163c-.206.055-16.042.055-16.248 0a.6.6 0 0 1-.253-.163l-.103-.122V4.792l.136-.136.136-.136h16.416zM9.174 6.039c-.424.09-.845.438-1.042.861-.097.207-.112.29-.112.6 0 .322.013.388.128.63.11.232.242.387.916 1.07l.789.8-.789.8c-.674.683-.806.838-.916 1.07-.115.242-.128.308-.128.63 0 .31.015.393.112.6.147.315.455.624.764.767.21.098.293.113.604.113.322 0 .388-.013.63-.128.232-.11.387-.242 1.07-.916l.8-.789.8.789c.683.674.838.806 1.07.916.242.115.308.128.63.128.311 0 .394-.015.604-.113.309-.143.617-.452.764-.767.097-.207.112-.29.112-.6 0-.322-.013-.388-.128-.63-.11-.232-.242-.387-.916-1.07l-.789-.8.789-.8c.674-.683.806-.838.916-1.07.115-.242.128-.308.128-.63 0-.31-.015-.393-.112-.6a1.68 1.68 0 0 0-.764-.765c-.208-.095-.297-.111-.604-.112-.322-.001-.389.013-.63.126-.233.109-.383.238-1.07.915l-.8.789-.8-.789c-.664-.655-.841-.808-1.05-.905a1.73 1.73 0 0 0-.976-.12"/></svg>