<svg xmlns="http://www.w3.org/2000/svg" width="24" height="24" fill="none" stroke="currentColor" stroke-linecap="round" stroke-linejoin="round" stroke-width="3"><path fill="#000" fill-rule="evenodd" stroke="none" d="M3.44 1.547A3.56 3.56 0 0 0 .552 4.388c-.076.397-.076 10.827 0 11.224.221 1.168 1.036 2.177 2.115 2.617.674.274.509.264 4.343.28l3.47.015v.993l-1.45.012-1.45.011-.228.116a1.51 1.51 0 0 0-.829 1.126 1.494 1.494 0 0 0 1.287 1.7c.326.047 8.054.047 8.38 0a1.494 1.494 0 0 0 1.287-1.7 1.51 1.51 0 0 0-.829-1.126l-.228-.116-1.45-.012-1.45-.012v-.992l3.47-.015c3.837-.016 3.668-.005 4.346-.282a3.6 3.6 0 0 0 1.575-1.293 3.5 3.5 0 0 0 .568-1.617c.053-.506.053-10.128 0-10.634-.154-1.464-1.103-2.61-2.526-3.052l-.293-.091-8.56-.005c-4.708-.002-8.605.003-8.66.012m16.904 3.109.136.136v10.402l-.103.122a.6.6 0 0 1-.253.163c-.206.055-16.042.055-16.248 0a.6.6 0 0 1-.253-.163l-.103-.122V4.792l.136-.136.136-.136h16.416zM9.38 5.575c-.454.114-.95.422-1.279.794-.209.237-.465.739-.547 1.071-.079.32-.079 4.8 0 5.12.175.713.701 1.372 1.334 1.674.569.27.517.266 3.112.266s2.543.004 3.112-.266a2.5 2.5 0 0 0 1.122-1.122c.27-.569.266-.517.266-3.112 0-2.594.004-2.544-.265-3.11-.261-.548-.8-1.027-1.418-1.26-.235-.089-.254-.09-2.737-.097-1.891-.006-2.549.005-2.7.042m4.1 4.445v1.5h-2.96v-3h2.96z"/></svg>