<svg xmlns="http://www.w3.org/2000/svg" width="24" height="24" fill="none" stroke="currentColor" stroke-linecap="round" stroke-linejoin="round" stroke-width="3"><path fill="#000" fill-rule="evenodd" stroke="none" d="M1.516.577c-.42.16-.77.501-.915.89-.174.464-.083 1.106.203 1.432a.6.6 0 0 1 .116.161c0 .016-.062.193-.137.394C.483 4.257.5 3.866.5 9.92c0 4.256.011 5.478.052 5.692.221 1.168 1.036 2.177 2.115 2.617.674.274.509.264 4.343.28l3.47.015v.993l-1.45.012-1.45.011-.228.116a1.51 1.51 0 0 0-.829 1.126 1.494 1.494 0 0 0 1.287 1.7c.326.047 8.054.047 8.38 0a1.494 1.494 0 0 0 1.287-1.7 1.51 1.51 0 0 0-.829-1.126l-.228-.116-1.45-.012-1.45-.012v-.996h2.857l2.362 2.358c2.069 2.065 2.391 2.371 2.593 2.464a1.503 1.503 0 0 0 2.01-2.01c-.095-.21-1.076-1.202-10.274-10.395C1.635-.49 2.738.551 2.042.532c-.253-.007-.431.008-.526.045m7 1.001c-.366.136-.71.444-.864.774a1.5 1.5 0 0 0 1.158 2.13c.139.02 2.722.037 5.819.037l5.57.001.13.117.131.116.02 5.274.02 5.273.105.248c.25.595.761.938 1.395.938s1.145-.343 1.395-.938l.105-.248.012-5.08c.012-5.264.002-5.664-.152-6.182-.349-1.171-1.217-2.038-2.407-2.407l-.293-.09-6-.008c-4.929-.007-6.026.001-6.144.045m-.058 9.02 4.917 4.917-4.67.003c-3.117.003-4.722-.01-4.825-.038a.6.6 0 0 1-.257-.164l-.103-.122v-4.757c0-2.616.005-4.757.01-4.757.006 0 2.223 2.213 4.928 4.918"/></svg>