<svg xmlns="http://www.w3.org/2000/svg" width="24" height="24" fill="none" stroke="currentColor" stroke-linecap="round" stroke-linejoin="round" stroke-width="3"><path fill="#000" fill-rule="evenodd" stroke="none" d="M10.84 1.564c-.782.083-1.813.332-2.566.618-.948.361-2.094 1.023-2.906 1.679a12.6 12.6 0 0 0-1.553 1.564 10.51 10.51 0 0 0 0 13.15 10.51 10.51 0 0 0 13.05 2.728 10.56 10.56 0 0 0 5.514-7.7c.092-.592.142-1.531.096-1.822a1.53 1.53 0 0 0-.827-1.125c-.208-.106-.264-.116-.648-.116-.381 0-.44.01-.642.113a3.4 3.4 0 0 0-.558.412c-1.576 1.407-3.699 1.693-5.533.746-1.832-.946-2.879-2.989-2.568-5.011.156-1.015.537-1.817 1.236-2.6.344-.385.488-.644.537-.968a1.49 1.49 0 0 0-.824-1.576c-.22-.112-.25-.116-.848-.122a11 11 0 0 0-.96.03M8.875 5.596c-.601 2.376-.024 4.979 1.523 6.86.274.333.886.941 1.209 1.201 1.862 1.498 4.448 2.059 6.787 1.471.245-.061.446-.097.446-.079 0 .055-.28.593-.453.87-1.3 2.079-3.431 3.374-5.857 3.559-2.144.163-4.282-.639-5.824-2.183a7.5 7.5 0 0 1-1.981-3.477c-.276-1.094-.276-2.542 0-3.636a7.58 7.58 0 0 1 3.15-4.438c.255-.17 1.093-.632 1.109-.612a7 7 0 0 1-.109.464"/></svg>