<svg xmlns="http://www.w3.org/2000/svg" width="24" height="24" fill="none" stroke="currentColor" stroke-linecap="round" stroke-linejoin="round" stroke-width="3"><path fill="#000" fill-rule="evenodd" stroke="none" d="M7.5 1.59c-.371.164-.584.331-.755.593-.068.104-1.219 3.495-3.17 9.34C.587 20.477.513 20.707.513 21.005c0 .627.347 1.141.939 1.39l.248.105h20.6l.213-.091q.66-.28.892-.903c.194-.519.368.076-2.485-8.486-2.226-6.679-2.586-7.728-2.707-7.887a1.43 1.43 0 0 0-.573-.481c-.2-.102-.259-.112-.64-.112-.685 0-.589-.073-2.747 2.074L12.406 8.45l-1.581-3.159C9.284 2.212 9.238 2.126 9.02 1.927c-.325-.297-.521-.376-.98-.393-.299-.011-.414.001-.54.056m2.027 7.82c1.338 2.671 1.366 2.717 1.803 2.923.342.162.689.207.995.129.139-.036.334-.112.434-.169.104-.06.906-.826 1.886-1.803l1.706-1.698 1.78 5.342c.979 2.937 1.771 5.351 1.758 5.363-.029.03-15.749.03-15.778.001C4.086 19.473 8.247 6.96 8.28 6.96c.011 0 .572 1.103 1.247 2.45"/></svg>