<svg xmlns="http://www.w3.org/2000/svg" width="24" height="24" fill="none" stroke="currentColor" stroke-linecap="round" stroke-linejoin="round" stroke-width="3"><path fill="#000" fill-rule="evenodd" stroke="none" d="M7.5 1.59c-.371.164-.584.331-.755.593-.068.104-1.219 3.495-3.17 9.34C.587 20.477.513 20.707.513 21.005c0 .627.347 1.141.939 1.39l.248.105 10.158.011c6.497.006 10.234-.004 10.369-.029.81-.15 1.376-.904 1.252-1.669-.054-.334-5.096-15.435-5.212-15.609a1.7 1.7 0 0 0-.621-.55c-.206-.104-.263-.114-.646-.114-.685 0-.589-.073-2.747 2.074L12.406 8.45l-1.581-3.159C9.284 2.212 9.238 2.126 9.02 1.927c-.325-.297-.521-.376-.98-.393-.299-.011-.414.001-.54.056m2.027 7.82c1.338 2.671 1.366 2.717 1.803 2.923.342.162.689.207.995.129.139-.036.334-.112.434-.169.104-.06.906-.826 1.886-1.803l1.706-1.698 1.027 3.083c.566 1.696 1.018 3.1 1.005 3.12s-.181.095-.373.165c-1.053.382-1.958.437-2.955.178-.694-.181-1.217-.436-2.195-1.07-1.47-.954-2.36-1.352-3.614-1.616-.468-.098-.579-.106-1.486-.107-.546 0-1.064.019-1.17.042-.138.031-.19.031-.19-.002 0-.069 1.857-5.625 1.88-5.625.011 0 .572 1.103 1.247 2.45m-.987 6.169c.895.163 1.501.435 2.643 1.184 1.875 1.23 3.351 1.732 5.077 1.727a7.5 7.5 0 0 0 2.609-.454c.193-.069.387-.133.431-.143.072-.016.107.064.346.782.146.44.255.81.243.823-.034.034-15.762.026-15.781-.008-.01-.017.228-.759.527-1.65l.545-1.62.34-.17c.4-.201.964-.39 1.393-.467.412-.075 1.231-.077 1.627-.004"/></svg>