<svg xmlns="http://www.w3.org/2000/svg" width="24" height="24" fill="none" stroke="currentColor" stroke-linecap="round" stroke-linejoin="round" stroke-width="3"><path fill="#000" fill-rule="evenodd" stroke="none" d="M3.56 2.571c-.729.256-1.147.926-1.032 1.656.024.154 1.177 2.974 3.579 8.75 1.949 4.688 3.587 8.61 3.641 8.717.38.756 1.394 1.032 2.116.576.194-.122.427-.377.53-.579.043-.084.587-1.655 1.208-3.492.622-1.836 1.15-3.36 1.174-3.385s1.556-.563 3.404-1.194c1.848-.632 3.428-1.184 3.512-1.226.416-.212.719-.648.806-1.161.031-.183-.064-.65-.177-.87-.1-.197-.353-.452-.579-.583-.089-.052-4.023-1.7-8.742-3.664L4.42 2.547l-.36-.013c-.215-.007-.416.007-.5.037m8.22 6.289a476 476 0 0 1 4.912 2.058c.017.016-.775.306-1.76.643-2.006.686-2.045.701-2.282.874-.318.234-.4.419-1.077 2.413-.348 1.027-.645 1.855-.659 1.84-.019-.02-3.941-9.426-4.106-9.845q-.022-.057.035-.034z"/></svg>