<svg xmlns="http://www.w3.org/2000/svg" width="24" height="24" fill="none" stroke="currentColor" stroke-linecap="round" stroke-linejoin="round" stroke-width="3"><path fill="#000" fill-rule="evenodd" stroke="none" d="M1.5.593c-.283.121-.401.198-.571.368-.312.312-.473.81-.403 1.253.045.286 4.089 11.402 4.22 11.602.503.763 1.577.904 2.238.296.103-.095.229-.239.281-.32.051-.082.491-1.144.977-2.36.486-1.217.905-2.233.931-2.259s1.045-.446 2.265-.933 2.265-.911 2.323-.94c.151-.079.418-.357.539-.563a1.9 1.9 0 0 0 .163-.458c.14-.67-.211-1.334-.863-1.635-.143-.065-2.717-1.014-5.72-2.107L2.42.549 2.04.536C1.748.527 1.623.54 1.5.593m5.191 4.709c1.139.414 2.057.764 2.04.779a7 7 0 0 1-.571.239c-.951.375-1.197.528-1.425.888-.051.081-.214.45-.36.82-.147.37-.279.686-.294.703s-.365-.901-.779-2.04l-.774-2.128q-.02-.056.035-.035zm8.329 3.262c-2.244.32-4.216 1.595-5.387 3.483-.998 1.609-1.36 3.591-.989 5.413.754 3.703 4.159 6.301 7.886 6.018a7.51 7.51 0 0 0 6.948-6.948c.295-3.877-2.526-7.378-6.403-7.948-.461-.067-1.636-.078-2.055-.018m2.14 3.093c.441.122 1.163.464 1.48.701.304.228.732.652.969.962.268.35.605 1.052.74 1.54.102.37.11.455.11 1.14 0 .678-.009.772-.106 1.12a6 6 0 0 1-.199.591l-.094.211-2.995-2.996-2.995-2.996.315-.12c.275-.105.649-.207.975-.266a9 9 0 0 1 .76-.005c.563.011.716.029 1.04.118m.653 8.457c-.417.218-1.17.373-1.813.373-1.321 0-2.483-.525-3.376-1.526a4.6 4.6 0 0 1-.973-1.821c-.102-.37-.11-.455-.11-1.14.001-.799.048-1.072.287-1.669l.104-.259 2.993 2.993 2.994 2.993z"/></svg>