<svg xmlns="http://www.w3.org/2000/svg" width="24" height="24" fill="none" stroke="currentColor" stroke-linecap="round" stroke-linejoin="round" stroke-width="3"><path fill="#000" fill-rule="evenodd" stroke="none" d="M1.516.577C.656.906.276 1.832.657 2.666c.09.196.337.461 1.727 1.856l1.622 1.627-.06.143c-.089.213-.209.674-.303 1.159-.146.762-.171 1.576-.152 5.035.019 3.456.023 3.54.225 4.394a8.4 8.4 0 0 0 1.067 2.602c1.761 2.847 5.102 4.412 8.397 3.933a8.43 8.43 0 0 0 4.8-2.394l.44-.441 1.344 1.33c1.129 1.116 1.381 1.346 1.572 1.433a1.502 1.502 0 0 0 2.006-2.011c-.095-.21-1.076-1.202-10.274-10.395C1.635-.49 2.738.551 2.042.532c-.253-.007-.431.008-.526.045M11.16.539a9 9 0 0 1-.42.062c-.819.109-1.609.354-2.44.758-.659.32-.887.504-1.058.853-.165.338-.214.621-.159.923.09.496.392.901.833 1.115.24.116.299.128.644.129l.38.001.56-.268c1.003-.48 1.407-.572 2.5-.572.596 0 .857.017 1.108.071a5.54 5.54 0 0 1 4.127 3.719c.234.732.245.886.245 3.55.001 2.525.016 2.798.172 3.12.125.255.465.585.737.712.2.094.282.108.611.108.31 0 .416-.017.577-.091a1.68 1.68 0 0 0 .863-.949c.044-.127.059-.618.07-2.36.019-2.758-.021-3.464-.25-4.437-.259-1.103-.927-2.445-1.666-3.351-1.067-1.308-2.642-2.347-4.234-2.796-.822-.231-1.219-.285-2.22-.299a17 17 0 0 0-.98.002m.356 4.038c-.371.142-.711.446-.865.775-.207.444-.208 1.22-.001 1.643.127.26.466.589.739.717.2.094.282.108.611.108.31 0 .416-.017.577-.091.697-.321 1.037-1.032.909-1.899a1.52 1.52 0 0 0-.836-1.173c-.195-.099-.28-.116-.608-.125q-.382-.01-.526.045M16.28 18.45c0 .017-.139.177-.31.355a5.6 5.6 0 0 1-2.51 1.496c-.513.147-.881.195-1.5.193-.868-.001-1.605-.177-2.42-.575-1.405-.687-2.471-2.017-2.887-3.6l-.11-.419-.013-3.62-.012-3.62 4.881 4.88c2.685 2.684 4.881 4.894 4.881 4.91"/></svg>