<svg xmlns="http://www.w3.org/2000/svg" width="24" height="24" fill="none" stroke="currentColor" stroke-linecap="round" stroke-linejoin="round" stroke-width="3"><path fill="#000" fill-rule="evenodd" stroke="none" d="M10.84.584C8.787.858 6.817 1.948 5.481 3.549 4.477 4.752 3.826 6.214 3.572 7.84c-.065.418-.072.795-.072 4.16 0 4.09-.002 4.055.265 5.091a8.34 8.34 0 0 0 2.195 3.873c.911.919 1.842 1.527 3.029 1.978 1.01.384 1.901.546 3.011.546.833 0 1.353-.063 2.091-.253a8.75 8.75 0 0 0 3.206-1.586 11 11 0 0 0 1.353-1.353c.928-1.176 1.534-2.588 1.778-4.136.066-.419.072-.787.072-4.16 0-3.365-.007-3.742-.072-4.16-.396-2.532-1.728-4.608-3.849-5.999-.382-.251-1.224-.664-1.71-.84a9 9 0 0 0-1.743-.417c-.603-.078-1.7-.078-2.286 0m2.05 2.998c.759.132 1.563.447 2.158.845 1.257.84 2.103 2.156 2.37 3.683.092.522.092 7.258 0 7.78-.359 2.055-1.743 3.672-3.704 4.328a5.58 5.58 0 0 1-3.428 0c-1.961-.656-3.345-2.273-3.704-4.328-.092-.522-.092-7.258 0-7.78a5.9 5.9 0 0 1 .853-2.171c.807-1.218 2.144-2.082 3.646-2.356.418-.076 1.378-.077 1.809-.001m-1.374.995c-.559.214-.919.67-1.002 1.267-.023.165-.034 1.152-.027 2.369L10.5 10.3l.105.248c.25.595.761.938 1.395.938s1.145-.343 1.395-.938l.105-.248.013-2.087c.007-1.217-.004-2.204-.027-2.369-.075-.537-.364-.948-.836-1.187-.195-.099-.28-.116-.608-.125q-.382-.01-.526.045"/></svg>