<svg xmlns="http://www.w3.org/2000/svg" width="24" height="24" fill="none" stroke="currentColor" stroke-linecap="round" stroke-linejoin="round" stroke-width="3"><path fill="#000" fill-rule="evenodd" stroke="none" d="M2.56 1.571c-.729.256-1.147.926-1.032 1.657.024.156 1.158 2.923 3.577 8.728 1.948 4.674 3.585 8.586 3.639 8.693.203.4.576.681 1.049.791.596.138 1.358-.244 1.619-.813.052-.114.48-1.345.951-2.736l.856-2.529 2.441 2.437c2.142 2.138 2.469 2.45 2.672 2.543 1.113.509 2.308-.36 2.145-1.56-.07-.516-.03-.47-2.678-3.122l-2.437-2.441 2.529-.857c1.391-.471 2.622-.9 2.736-.953.417-.193.737-.635.823-1.138a1.04 1.04 0 0 0-.026-.533c-.125-.5-.387-.81-.882-1.041a1733 1733 0 0 0-8.702-3.641L3.42 1.547l-.36-.013c-.215-.007-.416.007-.5.037m8.2 6.287a505 505 0 0 1 4.889 2.055c.016.016-.785.306-1.78.643-.995.338-1.893.659-1.996.714a1.6 1.6 0 0 0-.612.61c-.049.099-.366.994-.704 1.989s-.628 1.796-.644 1.78c-.02-.02-3.704-8.823-4.104-9.806q-.023-.057.034-.034z"/></svg>