<svg xmlns="http://www.w3.org/2000/svg" width="24" height="24" fill="none" stroke="currentColor" stroke-linecap="round" stroke-linejoin="round" stroke-width="3"><path fill="#000" fill-rule="evenodd" stroke="none" d="M6.691.798c-.256.092-.386.182-.605.421-.197.213-.304.442-.366.779-.052.291-.041.345.476 2.202.457 1.64.429 1.559.6 1.784.681.9 2.034.783 2.541-.218.13-.257.191-.634.143-.888-.077-.403-.852-3.146-.947-3.347-.127-.272-.512-.622-.801-.73C7.45.695 6.981.694 6.691.798m6.925 1.858c-.373.091-.416.126-1.984 1.633-.929.893-1.04 1.04-1.107 1.462-.044.275.014.664.136.913.121.249.474.592.721.701.4.177.888.168 1.281-.025.152-.074.486-.361 1.146-.985 1.231-1.165 1.422-1.365 1.538-1.618a1.485 1.485 0 0 0-1.064-2.096 1.3 1.3 0 0 0-.667.015M1.656 5.8a1.9 1.9 0 0 0-.447.302c-.503.454-.638 1.09-.368 1.721.106.246.447.596.695.713.112.053.906.29 1.764.527 1.817.503 1.94.518 2.389.308.457-.214.713-.511.852-.989.19-.653-.142-1.403-.753-1.699-.136-.066-.905-.303-1.708-.526-1.278-.356-1.507-.408-1.84-.422-.312-.013-.416-.001-.584.065M8.56 7.571c-.729.256-1.147.926-1.032 1.657.046.297 5.056 12.342 5.255 12.636a1.47 1.47 0 0 0 1.506.598c.34-.072.576-.211.826-.484.228-.25.152-.055 1.165-2.978l.7-2.02 2.271-.787c1.248-.432 2.353-.826 2.453-.875.361-.175.692-.632.775-1.074.048-.251-.011-.629-.139-.901-.118-.248-.412-.54-.68-.676-.11-.056-2.909-1.231-6.22-2.611L9.42 7.547l-.36-.013c-.215-.007-.416.007-.5.037m-3.044 3.006c-.263.1-.451.248-.9.708-.851.871-1.676 1.759-1.784 1.92-.362.539-.281 1.336.183 1.812.489.5 1.142.613 1.766.305.21-.103.386-.269 1.264-1.191 1.169-1.228 1.291-1.375 1.377-1.673.158-.541.041-1.059-.328-1.458-.32-.345-.567-.455-1.053-.468-.252-.007-.43.008-.525.045m8.798 2.262c1.344.561 2.431 1.03 2.415 1.044-.016.013-.335.128-.709.255-.857.292-1.039.377-1.255.59-.248.247-.325.403-.607 1.232a14 14 0 0 1-.275.769c-.018.02-1.865-4.337-2.078-4.899-.019-.049-.347-.182 2.509 1.009"/></svg>