<svg xmlns="http://www.w3.org/2000/svg" width="24" height="24" fill="none" stroke="currentColor" stroke-linecap="round" stroke-linejoin="round" stroke-width="3"><path fill="#000" fill-rule="evenodd" stroke="none" d="M18.516 3.577a2.3 2.3 0 0 0-.32.163c-.097.06-2.763 2.694-5.926 5.854l-5.75 5.745-.001-1.139c0-.627-.017-1.252-.037-1.39a1.51 1.51 0 0 0-.834-1.154c-.208-.106-.264-.116-.648-.116s-.44.01-.648.116a1.51 1.51 0 0 0-.834 1.154c-.052.355-.048 6.106.004 6.424.053.327.187.588.421.823.235.234.496.368.823.421.318.052 6.069.056 6.424.004a1.494 1.494 0 0 0 1.287-1.7 1.51 1.51 0 0 0-.829-1.126l-.228-.116-1.397-.012-1.398-.012 5.821-5.828c5.251-5.257 5.83-5.849 5.912-6.046.327-.785.032-1.61-.71-1.986-.198-.101-.279-.117-.608-.125-.246-.006-.431.01-.524.046"/></svg>