<svg xmlns="http://www.w3.org/2000/svg" width="24" height="24" fill="none" stroke="currentColor" stroke-linecap="round" stroke-linejoin="round" stroke-width="3"><path fill="#000" fill-rule="evenodd" stroke="none" d="M5.516 6.577a2.3 2.3 0 0 0-.32.163c-.097.06-1.133 1.065-2.302 2.234C1.24 10.628.745 11.146.666 11.306a1.6 1.6 0 0 0-.001 1.388c.08.161.58.684 2.269 2.374 1.899 1.901 2.195 2.181 2.398 2.274 1.114.509 2.308-.36 2.145-1.56-.06-.441-.171-.6-1.021-1.462l-.789-.8 8.137-.001c4.624 0 8.244-.016 8.386-.037a1.494 1.494 0 0 0 1.287-1.7 1.51 1.51 0 0 0-.829-1.126l-.228-.116-8.396-.01-8.396-.011.808-.819c.64-.649.829-.865.91-1.041a1.505 1.505 0 0 0-.698-2.003c-.198-.101-.279-.117-.608-.125-.246-.006-.431.01-.524.046"/></svg>