<svg xmlns="http://www.w3.org/2000/svg" width="24" height="24" fill="none" stroke="currentColor" stroke-linecap="round" stroke-linejoin="round" stroke-width="3"><path fill="#000" fill-rule="evenodd" stroke="none" d="M4.516 3.577c-.847.322-1.227 1.219-.874 2.065.082.197.661.789 5.912 6.046l5.822 5.829-1.398.011-1.398.012-.228.116a1.51 1.51 0 0 0-.829 1.126 1.494 1.494 0 0 0 1.287 1.7c.355.052 6.106.048 6.424-.004.327-.053.588-.187.823-.421.234-.235.368-.496.421-.823.052-.318.056-6.069.004-6.424a1.51 1.51 0 0 0-.834-1.154c-.208-.106-.264-.116-.648-.116s-.44.01-.648.116a1.51 1.51 0 0 0-.834 1.154c-.02.138-.037.763-.037 1.389l-.001 1.14-5.79-5.782c-6.538-6.529-5.965-6.01-6.65-6.026-.246-.006-.431.01-.524.046"/></svg>