<svg xmlns="http://www.w3.org/2000/svg" width="24" height="24" fill="none" stroke="currentColor" stroke-linecap="round" stroke-linejoin="round" stroke-width="3"><path fill="#000" fill-rule="evenodd" stroke="none" d="M11.729.524c-.447.075-.522.137-2.297 1.91-1.444 1.443-1.681 1.697-1.773 1.898-.51 1.113.358 2.308 1.559 2.145.329-.045.609-.196.952-.515l.31-.289v4.847H5.633l.309-.33c.339-.363.489-.635.535-.972a1.5 1.5 0 0 0-.829-1.562C5.44 7.55 5.384 7.54 5 7.54c-.682 0-.611-.053-2.566 1.898C1.15 10.719.744 11.147.666 11.306a1.6 1.6 0 0 0 0 1.388c.078.158.489.593 1.768 1.874 1.443 1.444 1.697 1.681 1.898 1.773 1.113.51 2.308-.358 2.145-1.559-.045-.329-.196-.609-.515-.952l-.289-.31h4.807v4.807l-.301-.278a3 3 0 0 0-.53-.393c-.209-.106-.265-.116-.649-.116s-.44.01-.648.116c-.754.382-1.048 1.237-.693 2.012.092.201.329.455 1.773 1.898 1.794 1.792 1.844 1.833 2.324 1.91.308.05.661-.003.938-.142.158-.078.593-.489 1.874-1.768 1.444-1.443 1.681-1.697 1.773-1.898.355-.775.061-1.63-.693-2.012-.208-.106-.264-.116-.648-.116s-.44.01-.649.116a3 3 0 0 0-.53.393l-.301.278V13.52h4.807l-.289.31c-.319.343-.47.623-.515.952-.163 1.201 1.032 2.069 2.145 1.559.201-.092.455-.329 1.898-1.773 1.279-1.281 1.69-1.716 1.768-1.874a1.6 1.6 0 0 0 0-1.388c-.078-.159-.484-.587-1.768-1.868C19.611 7.487 19.682 7.54 19 7.54c-.384 0-.44.01-.648.116a1.5 1.5 0 0 0-.829 1.562c.046.337.196.609.535.972l.309.33H13.52V5.673l.31.289c.343.319.623.47.952.515 1.201.163 2.069-1.032 1.559-2.145-.092-.201-.329-.455-1.773-1.898C12.769.637 12.726.602 12.234.522a3 3 0 0 0-.274-.037z"/></svg>