<svg xmlns="http://www.w3.org/2000/svg" width="24" height="24" fill="none" stroke="currentColor" stroke-linecap="round" stroke-linejoin="round" stroke-width="3"><path fill="#000" fill-rule="evenodd" stroke="none" d="m15.7 3.519-3.12.021-.228.116a1.51 1.51 0 0 0-.829 1.126 1.494 1.494 0 0 0 1.287 1.7c.138.02.763.037 1.389.037l1.14.001-5.803 5.81c-5.234 5.24-5.812 5.831-5.894 6.028-.547 1.313.687 2.547 2 2 .197-.082.788-.659 6.024-5.89l5.807-5.799.014 1.315c.015 1.31.016 1.317.119 1.564.247.594.76.938 1.394.938s1.145-.343 1.395-.938l.105-.248.012-3.118c.012-3.304.003-3.517-.171-3.86a1.73 1.73 0 0 0-.662-.662c-.185-.094-.618-.189-.779-.17-.044.005-1.484.018-3.2.029"/></svg>