<svg xmlns="http://www.w3.org/2000/svg" width="24" height="24" fill="none" stroke="currentColor" stroke-linecap="round" stroke-linejoin="round" stroke-width="3"><path fill="#000" fill-rule="evenodd" stroke="none" d="M4.724 3.53c-.416.06-.862.392-1.065.792-.174.343-.183.556-.171 3.86L3.5 11.3l.105.248c.25.595.761.938 1.395.938s1.147-.344 1.394-.938c.103-.247.104-.254.119-1.564l.014-1.315 5.807 5.799c5.236 5.231 5.827 5.808 6.024 5.89 1.313.547 2.547-.687 2-2-.082-.197-.66-.788-5.894-6.028L8.661 6.52l1.14-.001c.626 0 1.251-.017 1.389-.037a1.494 1.494 0 0 0 1.287-1.7 1.51 1.51 0 0 0-.829-1.126l-.228-.116-1.08-.01c-2.945-.027-5.431-.027-5.616 0"/></svg>