<svg xmlns="http://www.w3.org/2000/svg" width="24" height="24" fill="none" stroke="currentColor" stroke-linecap="round" stroke-linejoin="round" stroke-width="3"><path fill="#000" fill-rule="evenodd" stroke="none" d="M4.729 1.524c-.447.075-.522.137-2.297 1.91C.988 4.877.751 5.131.659 5.332c-.51 1.113.358 2.308 1.559 2.145.329-.045.609-.196.952-.515l.31-.289v6.154c.001 4.038.015 6.24.042 6.407.053.327.187.588.421.823.235.234.496.368.823.421.167.027 2.369.041 6.407.042h6.154l-.289.31c-.319.343-.47.623-.515.952-.163 1.201 1.032 2.069 2.145 1.559.201-.092.455-.329 1.898-1.773 1.279-1.281 1.69-1.716 1.768-1.874a1.6 1.6 0 0 0 0-1.388c-.078-.159-.484-.587-1.768-1.868-1.955-1.951-1.884-1.898-2.566-1.898-.384 0-.44.01-.648.116a1.5 1.5 0 0 0-.829 1.562c.046.337.196.609.535.972l.309.33H8.624l1.806-1.812c1.56-1.564 1.822-1.844 1.912-2.042.354-.773.059-1.629-.694-2.01-.208-.106-.264-.116-.648-.116-.683 0-.595-.066-2.69 2.017l-1.79 1.779V6.673l.31.289c.343.319.623.47.952.515 1.201.163 2.069-1.032 1.559-2.145-.092-.201-.329-.455-1.773-1.898-1.799-1.797-1.842-1.832-2.334-1.912a3 3 0 0 0-.274-.037z"/></svg>