<svg xmlns="http://www.w3.org/2000/svg" width="24" height="24" fill="none" stroke="currentColor" stroke-linecap="round" stroke-linejoin="round" stroke-width="3"><path fill="#000" fill-rule="evenodd" stroke="none" d="m15.7 3.519-3.12.021-.228.116c-1.174.594-1.104 2.269.115 2.747.221.087.3.093 1.543.115l1.31.022-4.4 4.4-4.4 4.4-.001-1.14c0-.627-.017-1.252-.037-1.39a1.51 1.51 0 0 0-.834-1.154c-.208-.106-.264-.116-.648-.116s-.44.01-.648.116a1.51 1.51 0 0 0-.834 1.154c-.052.355-.048 6.106.004 6.424.053.327.187.588.421.823.235.234.496.368.823.421.318.052 6.069.056 6.424.004a1.494 1.494 0 0 0 1.287-1.7 1.51 1.51 0 0 0-.829-1.126l-.228-.116-1.39-.02-1.39-.02 4.416-4.416 4.416-4.416.015 1.316c.015 1.31.016 1.317.119 1.564.247.594.76.938 1.394.938s1.145-.343 1.395-.938l.105-.248.012-3.118c.012-3.304.003-3.517-.171-3.86a1.73 1.73 0 0 0-.662-.662c-.185-.094-.618-.189-.779-.17-.044.005-1.484.018-3.2.029"/></svg>