<svg xmlns="http://www.w3.org/2000/svg" width="24" height="24" fill="none" stroke="currentColor" stroke-linecap="round" stroke-linejoin="round" stroke-width="3"><path fill="#000" fill-rule="evenodd" stroke="none" d="M11.729.524c-.458.077-.488.103-2.797 2.41-1.901 1.899-2.181 2.195-2.274 2.398-.509 1.114.36 2.308 1.56 2.145.441-.06.6-.171 1.462-1.021l.799-.787.01 8.315.011 8.316.105.248c.25.595.761.938 1.395.938s1.145-.343 1.395-.938l.105-.248.011-8.316.01-8.315.799.787c.862.85 1.021.961 1.462 1.021 1.2.163 2.069-1.031 1.56-2.145-.093-.203-.373-.499-2.274-2.398C12.731.599 12.736.603 12.234.522a3 3 0 0 0-.274-.037z"/></svg>