<svg xmlns="http://www.w3.org/2000/svg" width="24" height="24" fill="none" stroke="currentColor" stroke-linecap="round" stroke-linejoin="round" stroke-width="3"><path fill="#000" fill-rule="evenodd" stroke="none" d="M17.516 6.577c-.855.325-1.24 1.255-.862 2.082.081.176.27.392.91 1.041l.808.819-8.396.011-8.396.01-.228.116a1.51 1.51 0 0 0-.829 1.126 1.494 1.494 0 0 0 1.287 1.7c.142.021 3.762.037 8.386.037l8.137.001-.789.8c-.85.862-.961 1.021-1.021 1.462-.163 1.2 1.031 2.069 2.145 1.56.203-.093.499-.373 2.398-2.274 1.689-1.69 2.189-2.213 2.269-2.374.21-.423.21-.965 0-1.388-.08-.161-.576-.678-2.269-2.368-2.487-2.483-2.372-2.392-3.026-2.407-.246-.006-.431.01-.524.046"/></svg>