<svg xmlns="http://www.w3.org/2000/svg" width="24" height="24" fill="none" stroke="currentColor" stroke-linecap="round" stroke-linejoin="round" stroke-width="3"><path fill="#000" fill-rule="evenodd" stroke="none" d="M4.724 3.53c-.416.06-.862.392-1.065.792-.174.343-.183.556-.171 3.86L3.5 11.3l.105.248c.25.595.761.938 1.395.938s1.147-.344 1.394-.938c.103-.247.104-.254.119-1.564l.015-1.316 4.416 4.416L15.36 17.5l-1.39.02-1.39.02-.228.116a1.51 1.51 0 0 0-.829 1.126 1.494 1.494 0 0 0 1.287 1.7c.355.052 6.106.048 6.424-.004.327-.053.588-.187.823-.421.234-.235.368-.496.421-.823.052-.318.056-6.069.004-6.424a1.51 1.51 0 0 0-.834-1.154c-.208-.106-.264-.116-.648-.116s-.44.01-.648.116a1.51 1.51 0 0 0-.834 1.154c-.02.138-.037.763-.037 1.39l-.001 1.14-4.4-4.4-4.4-4.4 1.31-.022c1.243-.022 1.322-.028 1.543-.115.502-.197.873-.663.944-1.185a1.5 1.5 0 0 0-.829-1.562l-.228-.116-1.08-.01c-2.945-.027-5.431-.027-5.616 0"/></svg>