<svg xmlns="http://www.w3.org/2000/svg" width="24" height="24" fill="none" stroke="currentColor" stroke-linecap="round" stroke-linejoin="round" stroke-width="3"><path fill="#000" fill-rule="evenodd" stroke="none" d="M5.516 6.577a2.3 2.3 0 0 0-.32.163c-.097.06-1.133 1.065-2.302 2.234C1.24 10.628.745 11.146.666 11.306a1.6 1.6 0 0 0-.001 1.388c.08.161.58.684 2.269 2.374 1.899 1.901 2.195 2.181 2.398 2.274 1.114.509 2.308-.36 2.145-1.56-.06-.441-.171-.6-1.021-1.462l-.789-.8h12.666l-.789.8c-.85.862-.961 1.021-1.021 1.462-.163 1.2 1.031 2.069 2.145 1.56.203-.093.499-.373 2.398-2.274 1.689-1.69 2.189-2.213 2.269-2.374.21-.423.21-.965 0-1.388-.08-.161-.576-.678-2.269-2.368C18.551 6.427 18.695 6.54 18 6.54c-.384 0-.44.01-.648.116a1.505 1.505 0 0 0-.698 2.003c.081.176.27.392.91 1.042l.809.819H5.627l.809-.819c.64-.65.829-.866.91-1.042a1.505 1.505 0 0 0-.698-2.003c-.198-.101-.279-.117-.608-.125-.246-.006-.431.01-.524.046"/></svg>