<svg xmlns="http://www.w3.org/2000/svg" width="24" height="24" fill="none" stroke="currentColor" stroke-linecap="round" stroke-linejoin="round" stroke-width="3"><path fill="#000" fill-rule="evenodd" stroke="none" d="M15.516.577a1.54 1.54 0 0 0-.998 1.233c-.02.139-.037 2.698-.037 5.76-.001 3.031-.008 5.51-.015 5.51-.008 0-.134-.054-.279-.12-1.099-.498-2.523-.579-3.777-.216-1.38.4-2.616 1.427-3.285 2.731a5.49 5.49 0 1 0 10.097 4.222c.295-.901.274-.225.288-9.374.007-4.994-.003-8.324-.025-8.489A1.51 1.51 0 0 0 16.65.657c-.195-.099-.28-.116-.608-.125q-.381-.01-.526.045m-2.699 15.056a2.65 2.65 0 0 1 1.553 1.55c.076.205.088.316.088.817s-.012.612-.088.817c-.23.615-.711 1.157-1.26 1.418-.415.197-.664.255-1.11.255s-.695-.058-1.11-.255c-.551-.262-1.039-.813-1.256-1.418-.108-.299-.146-.987-.075-1.347.171-.872.938-1.674 1.812-1.895.328-.083 1.149-.05 1.446.058"/></svg>