<svg xmlns="http://www.w3.org/2000/svg" width="24" height="24" fill="none" stroke="currentColor" stroke-linecap="round" stroke-linejoin="round" stroke-width="3"><path fill="#000" fill-rule="evenodd" stroke="none" d="M14.616 2.538C7.893 3.666 8.305 3.577 7.923 3.98c-.242.257-.342.461-.4.82-.028.171-.042 1.753-.043 4.604v4.343l-.35-.1c-.316-.09-.425-.1-1.11-.103-.714-.004-.784.003-1.158.107-1.301.363-2.315 1.196-2.901 2.381a5.2 5.2 0 0 0-.402 1.248c-.059.334-.059 1.106 0 1.44a4.53 4.53 0 0 0 3.637 3.706c.391.076 1.217.076 1.608 0 1.642-.321 2.933-1.444 3.459-3.011.238-.708.228-.521.254-5.013l.023-4.139 4.47-.745 4.47-.745v2.974l-.35-.1c-.316-.09-.425-.1-1.11-.103-.714-.004-.784.003-1.158.107-1.301.363-2.315 1.196-2.901 2.381A4.34 4.34 0 0 0 13.513 16c0 .253.02.577.046.72a4.53 4.53 0 0 0 3.637 3.706c.391.076 1.217.076 1.608 0 1.642-.321 2.933-1.444 3.459-3.011.246-.734.231-.242.246-7.655.013-6.114.008-6.808-.05-7.07-.103-.463-.379-.813-.817-1.037-.446-.227-.264-.25-7.026.885m4.856 2.951-.012.248-4.471.745-4.471.745.011-.482.011-.482L15 5.52l4.46-.743.012.231c.006.128.006.344 0 .481m-.819 9.169c.272.138.573.445.709.722.085.174.098.255.098.62 0 .384-.01.44-.116.648a1.5 1.5 0 0 1-1.562.829 1.51 1.51 0 0 1-1.126-.829c-.106-.208-.116-.264-.116-.648 0-.365.013-.446.098-.62.173-.352.515-.664.878-.803q.144-.056.526-.045c.329.009.413.026.611.126m-12 2c.272.138.573.445.709.722.085.174.098.255.098.62 0 .384-.01.44-.116.648a1.5 1.5 0 0 1-1.562.829 1.51 1.51 0 0 1-1.126-.829c-.106-.208-.116-.264-.116-.648 0-.365.013-.446.098-.62.173-.352.515-.664.878-.803q.144-.055.526-.045c.329.009.413.026.611.126"/></svg>