<svg xmlns="http://www.w3.org/2000/svg" width="24" height="24" fill="none" stroke="currentColor" stroke-linecap="round" stroke-linejoin="round" stroke-width="3"><path fill="#000" fill-rule="evenodd" stroke="none" d="M1.516.577C.655.907.276 1.831.659 2.668c.093.206.488.615 3.505 3.635l3.4 3.403-2 5.425c-1.1 2.983-2.019 5.53-2.042 5.659-.078.429.089.926.427 1.268a1.52 1.52 0 0 0 1.619.33c.073-.031 1.527-.853 3.232-1.828s3.131-1.78 3.168-1.79c.04-.011 1.37.726 3.225 1.786 1.736.992 3.236 1.833 3.332 1.868.39.144 1.023.048 1.336-.202l.118-.094.575.56c.621.605.821.734 1.228.789 1.2.163 2.067-1.029 1.56-2.145-.095-.21-1.076-1.202-10.274-10.395C1.635-.49 2.738.551 2.042.532c-.253-.007-.431.008-.526.045m9.97.023c-.118.042-.29.135-.382.206-.344.264-.402.382-1.07 2.187-.348.939-.653 1.799-.678 1.912-.064.283-.017.594.14.921a1.484 1.484 0 0 0 2.26.514 1 1 0 0 1 .186-.13c.006.005.275.73.599 1.61s.623 1.668.666 1.752c.276.546.936.885 1.533.788.9-.146 1.479-1.033 1.228-1.88-.165-.556-2.617-7.149-2.714-7.296A1.53 1.53 0 0 0 11.486.6m.774 13.806c1.298 1.301 2.297 2.329 2.22 2.284-1.184-.684-1.893-1.073-2.036-1.117a1.96 1.96 0 0 0-.888 0c-.097.03-.932.486-1.856 1.014-.924.529-1.72.982-1.77 1.008l-.09.048.092-.252c.061-.169 1.965-5.344 1.968-5.351z"/></svg>