<svg xmlns="http://www.w3.org/2000/svg" width="24" height="24" fill="none" stroke="currentColor" stroke-linecap="round" stroke-linejoin="round" stroke-width="3"><path fill="#000" fill-rule="evenodd" stroke="none" d="M1.516.577C.655.907.276 1.832.659 2.668c.093.203.413.54 2.65 2.78l2.545 2.548-.377.176c-1.336.622-3.159 1.495-3.277 1.57-.36.228-.595.589-.677 1.04-.104.576.206 1.208.749 1.527.124.073 1.18.353 3.813 1.012 2.002.501 3.65.921 3.662.932.011.012.431 1.66.932 3.662.665 2.659.938 3.687 1.013 3.813.568.962 1.845 1.033 2.523.142.079-.104 1.084-2.185 1.673-3.466l.118-.255 2.547 2.543c2.239 2.236 2.576 2.556 2.779 2.649a1.502 1.502 0 0 0 2.01-2.009c-.095-.21-1.076-1.202-10.274-10.395C1.635-.49 2.738.551 2.042.532c-.253-.007-.431.008-.526.045M21.5.593c-.215.08-9.275 4.371-9.803 4.642-.394.203-.534.325-.708.613q-.408.677-.052 1.42c.284.593.968.946 1.586.818.166-.034 1.099-.456 2.95-1.333a959 959 0 0 1 3.034-1.435l.328-.152-.172.367c-.094.202-.732 1.551-1.418 2.998-1.185 2.502-1.366 2.926-1.365 3.207.001.141.083.457.173.665.097.224.396.526.644.651.493.248 1.007.23 1.462-.05.292-.18.473-.396.663-.794.892-1.872 4.241-8.942 4.405-9.302.258-.564.304-.77.249-1.111a1.51 1.51 0 0 0-.83-1.14c-.3-.149-.838-.179-1.146-.064M8.708 10.866a19 19 0 0 1-1.188-.292c-.038-.015.058-.079.26-.174l.32-.151.309.303c.17.167.304.308.299.314m4.9 5.339c-.078.174-.155.303-.17.286s-.084-.265-.154-.551-.137-.556-.15-.6c-.013-.045.116.056.297.234l.319.315z"/></svg>