<svg xmlns="http://www.w3.org/2000/svg" width="24" height="24" fill="none" stroke="currentColor" stroke-linecap="round" stroke-linejoin="round" stroke-width="3"><path fill="#000" fill-rule="evenodd" stroke="none" d="M21.44.612C21.266.688 4.008 8.86 2.52 9.572c-.785.375-1.133.986-.98 1.719.097.468.393.853.804 1.049.115.054 1.776.49 3.793.994 1.973.494 3.597.907 3.609.919s.432 1.66.933 3.662c.661 2.641.939 3.688 1.012 3.813.219.371.558.625.984.734.575.147 1.248-.135 1.587-.666.078-.123 8.966-18.852 9.127-19.232.296-.703-.039-1.567-.738-1.906-.192-.093-.295-.114-.611-.126-.331-.013-.408-.002-.6.08M18.768 5.31c-.041.083-1.251 2.638-2.69 5.679-1.439 3.04-2.628 5.515-2.642 5.5-.014-.016-.244-.911-.512-1.989s-.531-2.051-.584-2.161a1.67 1.67 0 0 0-.679-.679c-.11-.053-1.083-.316-2.161-.584a67 67 0 0 1-1.989-.512c-.02-.018 11.226-5.385 11.32-5.402a.7.7 0 0 1-.063.148"/></svg>