<svg xmlns="http://www.w3.org/2000/svg" width="24" height="24" fill="none" stroke="currentColor" stroke-linecap="round" stroke-linejoin="round" stroke-width="3"><path fill="#000" fill-rule="evenodd" stroke="none" d="M11.5.59c-.378.167-.574.321-.753.593-.057.086-1.708 4.513-3.67 9.837C3.532 20.642 3.51 20.702 3.51 21c-.001.444.113.711.446 1.042.205.204.321.284.519.357.304.113.733.124 1 .025.096-.035 1.596-.876 3.332-1.868 1.855-1.06 3.185-1.797 3.225-1.786.037.01 1.463.815 3.168 1.79s3.159 1.797 3.232 1.828a1.52 1.52 0 0 0 1.619-.33c.335-.339.497-.816.427-1.251-.047-.29-7.079-19.402-7.214-19.607a1.65 1.65 0 0 0-.624-.549c-.29-.14-.888-.172-1.14-.061m2.589 11.419a763 763 0 0 1 2.057 5.619c-.006.005-.783-.434-1.728-.976s-1.808-1.017-1.918-1.057a1.6 1.6 0 0 0-.5-.072 1.6 1.6 0 0 0-.5.072c-.11.04-.973.515-1.918 1.057s-1.722.981-1.728.976C7.838 17.611 11.977 6.4 12 6.4c.012 0 .952 2.524 2.089 5.609"/></svg>