<svg xmlns="http://www.w3.org/2000/svg" width="24" height="24" fill="none" stroke="currentColor" stroke-linecap="round" stroke-linejoin="round" stroke-width="3"><path fill="#000" fill-rule="evenodd" stroke="none" d="M9.38.575c-.454.114-.95.422-1.279.794-.209.237-.465.739-.547 1.071-.079.32-.079 4.8 0 5.12.176.714.701 1.373 1.334 1.673.415.197.586.238 1.145.272l.447.027v.985l-2.53.012c-2.509.011-2.532.012-2.767.101-.596.224-1.146.701-1.398 1.212-.246.497-.269.635-.293 1.704l-.022.965-.525.018c-.78.026-1.188.2-1.73.735a2.57 2.57 0 0 0-.661 1.176c-.079.32-.079 4.8 0 5.12.175.713.701 1.372 1.334 1.674.569.27.517.266 3.112.266s2.543.004 3.112-.266a2.5 2.5 0 0 0 1.122-1.122c.27-.569.266-.517.266-3.112 0-2.594.004-2.544-.265-3.11-.262-.55-.81-1.036-1.418-1.257-.183-.067-.358-.09-.767-.104l-.53-.018v-.991h10.96v.991l-.53.018c-.785.026-1.192.199-1.735.735a2.57 2.57 0 0 0-.661 1.176c-.079.32-.079 4.8 0 5.12.175.713.701 1.372 1.334 1.674.569.27.517.266 3.112.266s2.543.004 3.112-.266a2.5 2.5 0 0 0 1.122-1.122c.27-.569.266-.517.266-3.112 0-2.594.004-2.544-.265-3.11-.262-.55-.81-1.036-1.418-1.257-.182-.066-.358-.09-.762-.104l-.525-.018-.022-.965c-.015-.697-.039-1.027-.084-1.186a2.63 2.63 0 0 0-1.607-1.73c-.235-.089-.258-.09-2.767-.101l-2.53-.012v-.985l.447-.027c.559-.034.73-.075 1.145-.272a2.48 2.48 0 0 0 1.122-1.121c.27-.569.266-.517.266-3.112 0-2.594.004-2.544-.265-3.11-.261-.548-.8-1.027-1.418-1.26-.235-.089-.254-.09-2.737-.097-1.891-.006-2.549.005-2.7.042m4.1 4.443v1.497h-2.96V3.52h2.96zm-7 14.002v1.5H3.52v-3h2.96zm14 0v1.5h-2.96v-3h2.96z"/></svg>