<svg xmlns="http://www.w3.org/2000/svg" width="24" height="24" fill="none" stroke="currentColor" stroke-linecap="round" stroke-linejoin="round" stroke-width="3"><path fill="#000" fill-rule="evenodd" stroke="none" d="M15.914.573a1.59 1.59 0 0 0-.909.822c-.092.198-.105.274-.103.625l.003.4.501.98c.511 1 .803 1.667 1.081 2.472a18.8 18.8 0 0 1-.054 12.408c-.267.753-.612 1.528-1.085 2.44l-.446.86-.001.401c-.001.373.008.419.13.667.294.596.947.946 1.559.834.326-.06.7-.254.871-.454.189-.22.515-.802.921-1.647a21.67 21.67 0 0 0 .891-16.635c-.503-1.411-1.415-3.312-1.807-3.768a1.5 1.5 0 0 0-.407-.299c-.237-.12-.31-.137-.634-.148-.238-.008-.416.007-.511.042m-3.365 2.068c-.424.107-.877.503-1.024.894-.124.333-.149.643-.071.908.035.119.25.587.478 1.038.725 1.434 1.122 2.62 1.366 4.079.151.898.193 1.459.191 2.5-.006 2.488-.505 4.478-1.702 6.78-.406.781-.439.959-.28 1.526.206.736 1.062 1.193 1.816.97.483-.144.704-.348 1.056-.974 1.455-2.592 2.217-5.752 2.127-8.822-.076-2.619-.677-5.018-1.828-7.3-.566-1.124-.689-1.281-1.17-1.502-.256-.117-.702-.162-.959-.097M8.98 4.792c-.636.221-1 .75-1 1.453v.344l.327.657c.18.361.384.8.454.975a10.33 10.33 0 0 1 0 7.558c-.07.175-.274.614-.454.975l-.327.657v.344c0 .399.077.652.288.942.165.228.54.478.816.544.521.125 1.15-.061 1.483-.438.192-.216.832-1.494 1.071-2.137 1.123-3.023 1.125-6.338.005-9.312-.267-.709-.771-1.751-.997-2.061-.342-.468-1.102-.697-1.666-.501M5.449 6.923c-.28.111-.658.463-.783.73-.251.535-.223.877.132 1.607.494 1.017.658 1.702.657 2.74-.002 1.045-.165 1.727-.657 2.74-.273.563-.342.861-.274 1.184.074.353.219.611.476.85.301.279.591.395.985.398.663.003 1.138-.352 1.527-1.143 1.29-2.623 1.29-5.452 0-8.055-.258-.519-.537-.843-.865-1-.315-.151-.883-.176-1.198-.051"/></svg>