<svg xmlns="http://www.w3.org/2000/svg" width="24" height="24" fill="none" stroke="currentColor" stroke-linecap="round" stroke-linejoin="round" stroke-width="3"><path fill="#000" fill-rule="evenodd" stroke="none" d="M7.516.577c-.371.142-.711.446-.864.773-.106.227-.17.576-.171.935l-.001.225-.57.021c-.413.015-.651.044-.863.106a3.56 3.56 0 0 0-2.495 2.751c-.036.187-.052.682-.052 1.592V8.3l.105.248c.25.595.761.938 1.395.938.635 0 1.148-.345 1.394-.938.101-.244.103-.268.124-1.521l.022-1.274.131-.116c.122-.109.152-.117.464-.117h.333l.027.405c.039.599.179.904.576 1.25.357.312 1.008.406 1.484.213.387-.156.672-.441.84-.84L9.5 6.3l.013-2.087c.007-1.217-.004-2.204-.027-2.369-.075-.537-.364-.948-.836-1.187-.195-.099-.28-.116-.608-.125q-.382-.01-.526.045m4 0c-.559.214-.919.67-1.002 1.267-.023.165-.034 1.152-.027 2.369L10.5 6.3l.105.248c.25.595.761.938 1.395.938s1.145-.343 1.395-.938L13.5 6.3l.013-2.087c.007-1.217-.004-2.204-.027-2.369-.075-.537-.364-.948-.836-1.187-.195-.099-.28-.116-.608-.125q-.382-.01-.526.045m4 0c-.559.214-.919.67-1.002 1.267-.023.165-.034 1.152-.027 2.369L14.5 6.3l.105.248c.168.399.453.684.84.84.476.193 1.127.099 1.484-.213.397-.346.537-.651.576-1.25l.027-.405h.333c.312 0 .342.008.464.117l.131.116.022 1.274c.021 1.253.023 1.277.124 1.521.246.593.759.938 1.394.938s1.148-.345 1.393-.938c.1-.241.104-.278.119-1.308.018-1.157-.025-1.775-.152-2.202a3.46 3.46 0 0 0-1.827-2.172c-.47-.236-.798-.312-1.443-.335l-.57-.021-.001-.225c-.003-.81-.28-1.331-.869-1.628-.195-.099-.28-.116-.608-.125q-.381-.01-.526.045m-8 8.001c-.366.136-.71.444-.864.774a1.5 1.5 0 0 0 1.158 2.13c.326.047 6.054.047 6.38 0a1.494 1.494 0 0 0 1.287-1.7 1.51 1.51 0 0 0-.829-1.126l-.228-.116-3.38-.008c-2.742-.006-3.407.003-3.524.046m-4 1.999c-.371.142-.711.446-.864.774-.149.319-.181.681-.164 1.869.015 1.052.018 1.086.118 1.328.246.593.759.938 1.394.938s1.148-.345 1.394-.938c.1-.242.103-.276.118-1.328.017-1.187-.015-1.549-.163-1.869-.124-.266-.406-.546-.699-.694-.195-.099-.28-.116-.608-.125-.253-.007-.431.008-.526.045m16 0c-.371.142-.711.446-.864.774-.149.319-.181.681-.164 1.869.015 1.052.018 1.086.118 1.328.246.593.759.938 1.394.938s1.148-.345 1.394-.938c.1-.242.103-.276.118-1.328.017-1.187-.015-1.549-.163-1.869-.124-.266-.406-.546-.699-.694-.195-.099-.28-.116-.608-.125-.253-.007-.431.008-.526.045m-12 2.001c-.365.136-.71.444-.864.774a1.5 1.5 0 0 0 1.158 2.13c.326.047 8.054.047 8.38 0a1.494 1.494 0 0 0 1.287-1.7 1.51 1.51 0 0 0-.829-1.126l-.228-.116-4.38-.008c-3.573-.006-4.407.003-4.524.046m-4 3.999c-.561.215-.918.668-1.004 1.274-.06.425-.015 2.537.061 2.87.258 1.133 1.049 2.081 2.091 2.506.477.195.785.25 1.536.278 1.058.039 1.465-.06 1.855-.45.726-.726.523-1.928-.407-2.399-.223-.113-.247-.117-1.008-.137-.822-.022-.889-.036-1.037-.224-.079-.101-.083-.154-.084-1.17 0-.586-.017-1.177-.037-1.315a1.51 1.51 0 0 0-.832-1.153c-.195-.099-.28-.116-.608-.125-.253-.007-.431.008-.526.045m4 .001c-.366.136-.71.444-.864.774a1.5 1.5 0 0 0 1.158 2.13c.138.02 1.348.036 2.69.036s2.552-.016 2.69-.036a1.494 1.494 0 0 0 1.287-1.7 1.51 1.51 0 0 0-.829-1.126l-.228-.116-2.88-.008c-2.326-.006-2.908.003-3.024.046m12-.001a1.54 1.54 0 0 0-.998 1.233c-.02.138-.037.729-.037 1.315-.001 1.433.055 1.363-1.121 1.394-.762.021-.785.024-1.008.137-.93.471-1.133 1.673-.407 2.399.39.39.797.489 1.855.45.75-.027 1.059-.083 1.533-.276 1.195-.488 2.007-1.589 2.146-2.912.049-.471.052-2.171.003-2.507a1.51 1.51 0 0 0-.832-1.153c-.195-.099-.28-.116-.608-.125-.253-.007-.431.008-.526.045m-9 4.001c-.531.199-.921.672-.993 1.204a1.494 1.494 0 0 0 1.287 1.7c.138.02.673.036 1.19.036s1.052-.016 1.19-.036a1.494 1.494 0 0 0 1.287-1.7 1.51 1.51 0 0 0-.829-1.126l-.228-.116-1.38-.008c-1.079-.007-1.412.003-1.524.046"/></svg>