<svg xmlns="http://www.w3.org/2000/svg" width="24" height="24" fill="none" stroke="currentColor" stroke-linecap="round" stroke-linejoin="round" stroke-width="3"><path fill="#000" fill-rule="evenodd" stroke="none" d="M5.44.547C4.215.758 3.136 1.642 2.728 2.771c-.153.423-.199.674-.233 1.268l-.027.474-.444.014c-.396.012-.469.026-.672.129-.93.471-1.133 1.673-.407 2.399.317.317.73.462 1.325.464l.21.001v.993l-.45.014c-.402.012-.474.025-.678.129-.93.471-1.133 1.673-.407 2.399.317.317.73.462 1.325.464l.21.001v.993l-.45.014c-.402.012-.474.025-.678.129-.93.471-1.133 1.673-.407 2.399.317.317.73.462 1.325.464l.21.001v.993l-.45.014c-.402.012-.474.025-.678.129-.93.471-1.133 1.673-.407 2.399.315.316.731.462 1.319.464l.204.001.028.462c.015.254.046.564.069.687.205 1.106 1.044 2.128 2.103 2.56.712.29.191.271 7.332.271 5.895 0 6.444-.006 6.71-.068a3.7 3.7 0 0 0 1.798-1.004c.573-.6.883-1.272.971-2.111.05-.476.053-7.563.003-7.907a1.51 1.51 0 0 0-.834-1.154c-.208-.106-.264-.116-.648-.116s-.44.01-.648.116a1.51 1.51 0 0 0-.834 1.154c-.02.138-.037 1.945-.037 4.017l-.001 3.767-.103.122a.6.6 0 0 1-.25.163c-.204.056-12.05.056-12.254 0a.6.6 0 0 1-.25-.163c-.093-.11-.103-.156-.103-.459v-.337l.21-.001c.595-.002 1.008-.147 1.325-.464.726-.726.522-1.929-.407-2.399-.203-.103-.277-.117-.678-.13l-.45-.015v-.991l.21-.001c.595-.002 1.008-.147 1.325-.464.726-.726.522-1.929-.407-2.399-.203-.103-.277-.117-.678-.13l-.45-.015v-.991l.21-.001c.595-.002 1.008-.147 1.325-.464.726-.726.522-1.929-.407-2.399-.203-.103-.277-.117-.678-.13l-.45-.015V7.52l.21-.001c.595-.002 1.008-.147 1.325-.464.726-.726.522-1.929-.407-2.399-.203-.103-.277-.117-.678-.13l-.45-.015v-.359c0-.356.001-.361.136-.496l.136-.136 3.774-.001c2.076 0 3.886-.017 4.024-.037a1.494 1.494 0 0 0 1.287-1.7 1.51 1.51 0 0 0-.829-1.126L13.82.54 9.68.535C7.403.532 5.495.538 5.44.547M19.3.546c-.492.079-1.088.327-1.534.639-.359.251-5.62 5.512-5.835 5.835-.355.533-.407.672-.988 2.666-.431 1.482-.473 1.682-.422 2.042.135.949.806 1.621 1.75 1.751.354.049.599-.004 2.209-.475 1.669-.488 1.735-.51 2.043-.665.504-.255.739-.472 3.423-3.154 2.939-2.938 3.001-3.008 3.283-3.705.79-1.953-.245-4.144-2.269-4.806-.342-.111-.438-.125-.96-.135a7 7 0 0 0-.7.007m.89 3.054c.191.116.29.302.29.546 0 .18-.02.232-.153.4-.085.107-1.274 1.301-2.642 2.654l-2.489 2.46-.481.147c-.264.081-.536.16-.603.175-.144.031-.15.086.076-.702l.144-.5 2.464-2.474c1.355-1.361 2.551-2.545 2.658-2.63.169-.136.219-.156.4-.156.135 0 .251.028.336.08"/></svg>