<svg xmlns="http://www.w3.org/2000/svg" width="24" height="24" fill="none" stroke="currentColor" stroke-linecap="round" stroke-linejoin="round" stroke-width="3"><path fill="#000" fill-rule="evenodd" stroke="none" d="m10.6.521-5.26.02-.293.09c-1.079.334-1.959 1.146-2.319 2.14-.153.423-.199.674-.233 1.268l-.027.474-.444.014c-.396.012-.469.026-.672.129-.93.471-1.133 1.673-.407 2.399.317.317.73.462 1.325.464l.21.001v.993l-.45.014c-.402.012-.474.025-.678.129-.93.471-1.133 1.673-.407 2.399.317.317.73.462 1.325.464l.21.001v.993l-.45.014c-.402.012-.474.025-.678.129-.93.471-1.133 1.673-.407 2.399.317.317.73.462 1.325.464l.21.001v.993l-.45.014c-.402.012-.474.025-.678.129-.93.471-1.133 1.673-.407 2.399.315.316.731.462 1.319.464l.204.001.028.462c.015.254.046.564.069.687.205 1.106 1.044 2.128 2.103 2.56.712.29.191.271 7.332.271 5.895 0 6.444-.006 6.71-.068a3.7 3.7 0 0 0 1.798-1.004c.573-.6.883-1.272.971-2.111.054-.512.054-16.122 0-16.634-.087-.83-.396-1.506-.957-2.098a3.67 3.67 0 0 0-1.569-.948C18.488.502 17.797.492 10.6.521m3.88 11.499v8.5h-4.23c-2.762 0-4.281-.015-4.377-.041a.6.6 0 0 1-.25-.163c-.093-.11-.103-.156-.103-.459v-.337l.21-.001c.595-.002 1.008-.147 1.325-.464.726-.726.522-1.929-.407-2.399-.203-.103-.277-.117-.678-.13l-.45-.015v-.991l.21-.001c.595-.002 1.008-.147 1.325-.464.726-.726.522-1.929-.407-2.399-.203-.103-.277-.117-.678-.13l-.45-.015v-.991l.21-.001c.595-.002 1.008-.147 1.325-.464.726-.726.522-1.929-.407-2.399-.203-.103-.277-.117-.678-.13l-.45-.015V7.52l.21-.001c.595-.002 1.008-.147 1.325-.464.726-.726.522-1.929-.407-2.399-.203-.103-.277-.117-.678-.13l-.45-.015v-.359c0-.356.001-.361.136-.496l.136-.136h8.688zm3.864-8.364.136.136v16.402l-.103.122c-.12.142-.307.203-.627.204h-.23v-17h.344c.338 0 .346.002.48.136"/></svg>