<svg xmlns="http://www.w3.org/2000/svg" width="24" height="24" fill="none" stroke="currentColor" stroke-linecap="round" stroke-linejoin="round" stroke-width="3"><path fill="#000" fill-rule="evenodd" stroke="none" d="M7.516.577c-.371.142-.711.446-.864.773-.106.227-.17.576-.171.935l-.001.225-.57.021c-.413.015-.651.044-.863.106a3.56 3.56 0 0 0-2.495 2.751c-.076.399-.076 14.825 0 15.224.221 1.168 1.036 2.177 2.116 2.617.712.29.191.271 7.332.271 5.895 0 6.444-.006 6.71-.068a3.7 3.7 0 0 0 1.798-1.004c.573-.6.883-1.272.971-2.111.054-.511.054-14.123 0-14.634-.132-1.255-.824-2.255-1.946-2.817-.47-.236-.798-.312-1.443-.335l-.57-.021-.001-.225c-.003-.811-.28-1.33-.871-1.629C16.44.55 16.384.54 16 .54s-.44.01-.648.116c-.592.3-.868.818-.871 1.634l-.001.23h-.96l-.001-.23c-.003-.816-.279-1.334-.871-1.634C12.44.55 12.384.54 12 .54s-.44.01-.648.116c-.592.3-.868.818-.871 1.634l-.001.23h-.96l-.001-.23C9.516 1.475 9.24.955 8.65.657 8.455.558 8.37.541 8.042.532q-.382-.01-.526.045M6.495 5.925c.039.599.179.904.576 1.25.473.413 1.385.413 1.858 0 .397-.346.537-.651.576-1.25l.027-.405h.936l.027.405c.039.599.179.904.576 1.25.473.413 1.385.413 1.858 0 .397-.346.537-.651.576-1.25l.027-.405h.936l.027.405c.039.599.179.904.576 1.25.473.413 1.385.413 1.858 0 .397-.346.537-.651.576-1.25l.027-.405h.338c.331 0 .341.003.474.136l.136.136v14.402l-.103.122a.6.6 0 0 1-.25.163c-.204.056-12.05.056-12.254 0a.6.6 0 0 1-.25-.163l-.103-.122V5.792l.136-.136c.133-.133.143-.136.474-.136h.338zm1.021 2.653c-.366.136-.71.444-.864.774a1.5 1.5 0 0 0 1.158 2.13c.326.047 6.054.047 6.38 0a1.494 1.494 0 0 0 1.287-1.7 1.51 1.51 0 0 0-.829-1.126l-.228-.116-3.38-.008c-2.742-.006-3.407.003-3.524.046m0 4c-.365.136-.71.444-.864.774a1.5 1.5 0 0 0 1.158 2.13c.326.047 8.054.047 8.38 0a1.494 1.494 0 0 0 1.287-1.7 1.51 1.51 0 0 0-.829-1.126l-.228-.116-4.38-.008c-3.573-.006-4.407.003-4.524.046m0 4c-.366.136-.71.444-.864.774a1.5 1.5 0 0 0 1.158 2.13c.138.02 1.348.036 2.69.036s2.552-.016 2.69-.036a1.494 1.494 0 0 0 1.287-1.7 1.51 1.51 0 0 0-.829-1.126l-.228-.116-2.88-.008c-2.326-.006-2.908.003-3.024.046"/></svg>