<svg xmlns="http://www.w3.org/2000/svg" width="24" height="24" fill="none" stroke="currentColor" stroke-linecap="round" stroke-linejoin="round" stroke-width="3"><path fill="#000" fill-rule="evenodd" stroke="none" d="M5.44.547C4.215.758 3.136 1.642 2.728 2.771c-.153.423-.199.674-.233 1.268l-.027.474-.444.014c-.396.012-.469.026-.672.129-.93.471-1.133 1.673-.407 2.399.317.317.73.462 1.325.464l.21.001v.993l-.45.014c-.402.012-.474.025-.678.129-.93.471-1.133 1.673-.407 2.399.317.317.73.462 1.325.464l.21.001v.993l-.45.014c-.402.012-.474.025-.678.129-.93.471-1.133 1.673-.407 2.399.317.317.73.462 1.325.464l.21.001v.993l-.45.014c-.402.012-.474.025-.678.129-.93.471-1.133 1.673-.407 2.399.315.316.731.462 1.319.464l.204.001.028.462c.015.254.046.564.069.687.205 1.106 1.044 2.128 2.103 2.56.712.29.191.271 7.332.271 5.895 0 6.444-.006 6.71-.068a3.7 3.7 0 0 0 1.798-1.004c.573-.6.883-1.272.971-2.111.054-.512.054-16.122 0-16.634-.154-1.464-1.104-2.611-2.526-3.052l-.293-.09L12.1.535C8.492.533 5.495.538 5.44.547m12.904 3.109.136.136v16.402l-.103.122a.6.6 0 0 1-.25.163c-.204.056-12.05.056-12.254 0a.6.6 0 0 1-.25-.163c-.093-.11-.103-.156-.103-.459v-.337l.21-.001c.595-.002 1.008-.147 1.325-.464.726-.726.522-1.929-.407-2.399-.203-.103-.277-.117-.678-.13l-.45-.015v-.991l.21-.001c.595-.002 1.008-.147 1.325-.464.726-.726.522-1.929-.407-2.399-.203-.103-.277-.117-.678-.13l-.45-.015v-.991l.21-.001c.595-.002 1.008-.147 1.325-.464.726-.726.522-1.929-.407-2.399-.203-.103-.277-.117-.678-.13l-.45-.015V7.52l.21-.001c.595-.002 1.008-.147 1.325-.464.726-.726.522-1.929-.407-2.399-.203-.103-.277-.117-.678-.13l-.45-.015v-.359c0-.356.001-.361.136-.496l.136-.136h12.416zM8.949 6.617c-.564.232-.892.687-.938 1.303-.048.64.34 1.229.979 1.487l.23.093h5.56l.23-.093c.433-.175.803-.555.92-.945.062-.209.062-.715 0-.924-.117-.391-.496-.78-.911-.935-.217-.081-.286-.083-3.031-.082l-2.808.001zm0 3.999c-.564.234-.892.688-.938 1.304-.048.64.34 1.229.979 1.487l.23.093 3.333.012c1.974.007 3.445-.004 3.608-.027.866-.12 1.432-.852 1.316-1.703a1.51 1.51 0 0 0-.829-1.126l-.228-.116-3.62-.009-3.62-.01zm0 4c-.565.234-.892.688-.938 1.304-.048.64.34 1.23.979 1.487.23.092.233.092 2.558.105 1.367.007 2.444-.003 2.609-.026a1.5 1.5 0 0 0 .898-.431c.726-.726.523-1.928-.407-2.399l-.228-.116-2.62-.01-2.62-.009z"/></svg>