<svg xmlns="http://www.w3.org/2000/svg" width="24" height="24" fill="none" stroke="currentColor" stroke-linecap="round" stroke-linejoin="round" stroke-width="3"><path fill="#000" fill-rule="evenodd" stroke="none" d="m10.1.521-4.76.02-.293.091C3.968.964 3.088 1.777 2.728 2.771c-.153.423-.199.674-.233 1.268l-.027.474-.444.014c-.396.012-.469.026-.672.129-.93.471-1.133 1.673-.407 2.399.317.317.73.462 1.325.464l.21.001v.993l-.45.014c-.402.012-.474.025-.678.129-.93.471-1.133 1.673-.407 2.399.317.317.73.462 1.325.464l.21.001v.993l-.45.014c-.402.012-.474.025-.678.129-.93.471-1.133 1.673-.407 2.399.317.317.73.462 1.325.464l.21.001v.993l-.45.014c-.402.012-.474.025-.678.129-.93.471-1.133 1.673-.407 2.399.315.316.731.462 1.319.464l.204.001.028.462c.015.254.046.564.069.687.205 1.106 1.044 2.128 2.103 2.56.712.29.191.271 7.332.271 5.895 0 6.444-.006 6.71-.068a3.7 3.7 0 0 0 1.798-1.004c.573-.6.883-1.272.971-2.111.054-.512.054-16.122 0-16.634-.132-1.255-.824-2.255-1.946-2.817-.522-.262-.782-.315-1.613-.331C16.326.504 14.678.501 10.1.521m3.38 11.499v8.5H9.75c-2.421 0-3.782-.015-3.877-.041a.6.6 0 0 1-.25-.163c-.093-.11-.103-.156-.103-.459v-.337l.21-.001c.595-.002 1.008-.147 1.325-.464.726-.726.522-1.929-.407-2.399-.203-.103-.277-.117-.678-.13l-.45-.015v-.991l.21-.001c.595-.002 1.008-.147 1.325-.464.726-.726.522-1.929-.407-2.399-.203-.103-.277-.117-.678-.13l-.45-.015v-.991l.21-.001c.595-.002 1.008-.147 1.325-.464.726-.726.522-1.929-.407-2.399-.203-.103-.277-.117-.678-.13l-.45-.015V7.52l.21-.001c.595-.002 1.008-.147 1.325-.464.726-.726.522-1.929-.407-2.399-.203-.103-.277-.117-.678-.13l-.45-.015v-.359c0-.356.001-.361.136-.496l.136-.136h7.688zm4.864-8.364.136.136V5.52h-1.96v-2h1.688zm.136 5.864v1h-1.96v-2h1.96zm0 5v1h-1.96v-2h1.96zm0 4.837v.837l-.103.122a.6.6 0 0 1-.25.163c-.081.022-.475.041-.877.041h-.73v-2h1.96z"/></svg>