<svg xmlns="http://www.w3.org/2000/svg" width="24" height="24" fill="none" stroke="currentColor" stroke-linecap="round" stroke-linejoin="round" stroke-width="3"><path fill="#000" fill-rule="evenodd" stroke="none" d="M1.516.577C.657.906.276 1.832.657 2.665c.088.193.32.444 1.524 1.654l1.42 1.426-.1.094c-.126.118-.499.674-.636.948-.057.114-.183.44-.281.725-.308.9-.537 1.258-1.37 2.137-.274.29-.492.56-.554.687-.298.61-.167 1.288.34 1.758.322.298.584.395 1.06.393.322-.002 1.058-.085 1.312-.149l.095-.024.026 1.213c.015.734.049 1.376.085 1.624.359 2.453 1.699 4.582 3.736 5.932.725.48 1.436.808 2.381 1.097l.474.146.486.463c.524.502.745.636 1.127.688.12.016.316.016.436 0 .382-.052.603-.187 1.126-.686l.484-.463.476-.146c1.389-.425 2.384-.981 3.436-1.918l.2-.178 1.583 1.576c1.353 1.347 1.616 1.591 1.812 1.681a1.503 1.503 0 0 0 2.007-2.011c-.095-.21-1.076-1.202-10.274-10.395C1.635-.49 2.738.551 2.042.532c-.253-.007-.431.008-.526.045m10 0c-.371.142-.711.446-.864.773-.109.235-.17.578-.171.972l-.001.261-.54.084c-.823.128-1.171.344-1.435.893-.113.235-.125.296-.125.641 0 .35.011.403.131.648.146.296.387.535.709.704.177.093.247.105.6.106.22.001.661-.033.98-.074.768-.098 2.134-.074 2.86.051 1.216.21 2.078.492 3.012.986.903.477 1.561 1.05 1.79 1.558.16.355.161.349-.082.455-.405.175-.659.493-.879 1.099-.101.278-.26.438-.689.694-.409.244-.56.397-.716.725-.431.907.177 2.014 1.163 2.115.216.023.22.025.242.168.103.646.389 1.047.922 1.293.283.131.871.131 1.154 0 .398-.184.733-.553.858-.949.028-.088.061-.418.073-.733l.023-.572.165.029c.09.016.425.027.744.026.646-.004 1.034-.072 1.304-.23.251-.147.557-.506.657-.77.15-.397.097-.949-.126-1.316-.042-.069-.283-.318-.535-.553-.725-.676-1.012-1.116-1.254-1.923-.157-.522-.215-.68-.347-.941-1.027-2.027-3.963-3.707-7.269-4.161l-.35-.048-.001-.264c-.002-.851-.27-1.364-.869-1.667-.195-.099-.28-.116-.608-.125q-.382-.01-.526.045M6.734 8.874l.993.994-.194.143c-.324.237-.388.255-.521.145-.185-.153-.447-.477-.623-.771-.215-.361-.5-.637-.772-.75-.184-.076-.214-.103-.194-.172.038-.137.26-.583.29-.583.015 0 .475.447 1.021.994m2.998 3.598c.279.205.618.405 1.028.607.336.166.365.193 2.69 2.514 1.292 1.291 2.35 2.359 2.35 2.374 0 .039-.572.492-.826.655-.416.266-.857.464-1.503.675-.637.207-1.019.367-1.321.551l-.15.092-.15-.092c-.31-.189-.73-.363-1.362-.564-.919-.293-1.432-.567-2.06-1.104a5.7 5.7 0 0 1-1.751-2.8c-.113-.429-.128-.558-.147-1.213l-.021-.733.156.032c.222.045.537.028.771-.041.312-.093 1.224-.562 1.645-.846.209-.141.393-.257.411-.257a1.2 1.2 0 0 1 .24.15"/></svg>