<svg xmlns="http://www.w3.org/2000/svg" width="24" height="24" fill="none" stroke="currentColor" stroke-linecap="round" stroke-linejoin="round" stroke-width="3"><path fill="#000" fill-rule="evenodd" stroke="none" d="M11.516.577c-.371.142-.711.446-.864.773-.11.235-.17.578-.171.974l-.001.264-.35.048c-3.014.414-5.8 1.882-6.987 3.683-.256.389-.397.689-.563 1.201-.268.824-.549 1.262-1.354 2.118-.508.541-.653.776-.702 1.138a1.495 1.495 0 0 0 1.256 1.699c.28.043 1.186-.035 1.604-.14.083-.02.084-.013.109 1.192.015.734.049 1.376.085 1.624.359 2.453 1.699 4.582 3.736 5.932.725.48 1.436.808 2.381 1.097l.474.146.486.463c.524.502.745.636 1.127.688.579.079.917-.07 1.56-.684l.481-.46.705-.228c.424-.138.909-.33 1.218-.483 2.544-1.261 4.264-3.642 4.675-6.471.035-.235.071-.896.086-1.543l.026-1.133.163.029c.09.016.425.027.744.026.646-.004 1.034-.072 1.304-.23.251-.147.557-.506.657-.77.15-.397.097-.949-.126-1.316-.042-.069-.283-.318-.535-.553-.725-.676-1.012-1.116-1.254-1.923-.157-.522-.215-.68-.347-.941-1.027-2.027-3.963-3.707-7.269-4.161l-.35-.048-.001-.264c-.002-.851-.27-1.364-.869-1.667-.195-.099-.28-.116-.608-.125q-.382-.01-.526.045m2.144 5.059c1.221.211 2.079.492 3.012.986.903.477 1.561 1.05 1.79 1.558.16.355.161.349-.082.455-.407.176-.665.5-.88 1.105-.073.207-.406.58-.517.58-.031 0-.195-.093-.365-.207a2.1 2.1 0 0 1-.554-.524c-.508-.661-.573-.732-.785-.86-.28-.168-.433-.209-.787-.209-.328 0-.63.095-.881.277-.087.063-.304.303-.482.534-.338.438-.509.598-.907.85l-.238.151-.219-.114c-.308-.162-.643-.486-.908-.881-.257-.382-.409-.529-.708-.687-.189-.099-.249-.109-.629-.11-.369 0-.447.013-.642.104-.306.144-.475.304-.743.701-.245.365-.559.673-.834.819l-.171.09-.116-.096c-.187-.155-.448-.478-.625-.773-.213-.356-.495-.632-.769-.75-.243-.106-.242-.1-.082-.455.297-.659 1.299-1.404 2.622-1.951.622-.257 1.492-.488 2.28-.605.636-.095.667-.096 1.74-.084.792.01 1.1.03 1.48.096m1.036 6.797c.457.344 1.515.902 1.913 1.009.214.058.614.058.766 0l.116-.044-.021.751c-.019.676-.033.799-.147 1.231a5.7 5.7 0 0 1-1.751 2.8c-.628.537-1.141.811-2.06 1.104-.632.201-1.052.375-1.362.564l-.15.092-.15-.092c-.31-.189-.73-.363-1.362-.564-.919-.293-1.432-.567-2.06-1.104a5.7 5.7 0 0 1-1.751-2.8c-.113-.429-.128-.558-.147-1.213l-.021-.733.156.032c.222.045.537.028.773-.042.307-.091 1.212-.556 1.654-.85.216-.144.414-.25.44-.237s.192.124.368.247c.35.245 1.413.781 1.7.857.294.078.667.056.954-.058.467-.184 1.321-.668 1.764-1a1 1 0 0 1 .156-.103c.01 0 .11.069.222.153"/></svg>