<svg xmlns="http://www.w3.org/2000/svg" width="24" height="24" fill="none" stroke="currentColor" stroke-linecap="round" stroke-linejoin="round" stroke-width="3"><path fill="#000" fill-rule="evenodd" stroke="none" d="M7.96.582a3.7 3.7 0 0 0-1.433.675c-.328.255-5.251 5.206-5.405 5.436A4.5 4.5 0 0 0 .59 7.905L.5 8.26v7.48l.091.358c.112.44.376 1.003.62 1.322.25.327 5.241 5.296 5.482 5.458a4.5 4.5 0 0 0 1.212.532l.355.09h7.48l.355-.09c.45-.115.958-.352 1.299-.607.325-.242 5.254-5.18 5.461-5.47.213-.299.45-.829.555-1.238l.09-.355V8.26l-.091-.358c-.112-.44-.376-1.003-.62-1.322-.292-.382-5.254-5.304-5.521-5.477A4.7 4.7 0 0 0 16.22.615c-.223-.067-.51-.073-4.12-.081C8.887.527 8.175.535 7.96.582m10.049 5.409 2.471 2.47v7.076l-2.45 2.452c-1.928 1.93-2.48 2.461-2.59 2.492-.189.052-6.691.052-6.88 0-.11-.031-.662-.562-2.59-2.492l-2.45-2.452V8.461l2.471-2.47 2.47-2.471h7.078zM8.516 7.577a1.52 1.52 0 0 0-.86 2.085c.084.185.289.413 1.15 1.282L9.854 12l-1.048 1.056c-1.131 1.141-1.22 1.261-1.283 1.726-.162 1.197 1.032 2.069 2.139 1.562.185-.084.413-.289 1.282-1.15L12 14.146l1.056 1.048c.869.861 1.097 1.066 1.282 1.15 1.107.507 2.301-.365 2.139-1.562-.063-.465-.152-.585-1.283-1.726L14.146 12l1.048-1.056c.861-.869 1.066-1.097 1.15-1.282.352-.769.055-1.626-.696-2.006-.208-.106-.264-.116-.648-.116-.647 0-.68.022-1.95 1.276L12 9.854l-1.05-1.038C9.703 7.584 9.646 7.545 9.04 7.531c-.246-.006-.431.01-.524.046"/></svg>