<svg xmlns="http://www.w3.org/2000/svg" width="24" height="24" fill="none" stroke="currentColor" stroke-linecap="round" stroke-linejoin="round" stroke-width="3"><path fill="#000" fill-rule="evenodd" stroke="none" d="M7.96.582a3.7 3.7 0 0 0-1.433.675c-.328.255-5.251 5.206-5.405 5.436A4.5 4.5 0 0 0 .59 7.905L.5 8.26v7.48l.091.358c.112.44.376 1.003.62 1.322.25.327 5.241 5.296 5.482 5.458a4.5 4.5 0 0 0 1.212.532l.355.09h7.48l.355-.09c.45-.115.958-.352 1.299-.607.325-.242 5.254-5.18 5.461-5.47.213-.299.45-.829.555-1.238l.09-.355V8.26l-.091-.358c-.112-.44-.376-1.003-.62-1.322-.292-.382-5.254-5.304-5.521-5.477A4.7 4.7 0 0 0 16.22.615c-.223-.067-.51-.073-4.12-.081C8.887.527 8.175.535 7.96.582m10.049 5.409 2.471 2.47v7.076l-2.45 2.452c-1.928 1.93-2.48 2.461-2.59 2.492-.189.052-6.691.052-6.88 0-.11-.031-.662-.562-2.59-2.492l-2.45-2.452V8.461l2.471-2.47 2.47-2.471h7.078zm-6.493.586c-.559.214-.919.67-1.002 1.267-.023.165-.034 1.152-.027 2.369L10.5 12.3l.105.248c.25.595.761.938 1.395.938s1.145-.343 1.395-.938l.105-.248.013-2.087c.007-1.217-.004-2.204-.027-2.369-.075-.537-.364-.948-.836-1.187-.195-.099-.28-.116-.608-.125q-.382-.01-.526.045m0 8c-1.049.399-1.349 1.701-.571 2.478.58.58 1.53.583 2.107.007a1.47 1.47 0 0 0 0-2.124c-.292-.292-.55-.395-1.012-.407-.247-.006-.431.01-.524.046"/></svg>