<svg xmlns="http://www.w3.org/2000/svg" width="24" height="24" fill="none" stroke="currentColor" stroke-linecap="round" stroke-linejoin="round" stroke-width="3"><path fill="#000" fill-rule="evenodd" stroke="none" d="M7.808.581a3.5 3.5 0 0 0-1.498.738c-.453.367-4.994 4.945-5.179 5.221a3.6 3.6 0 0 0-.441.88C.497 7.99.5 7.907.5 12c0 3.615.005 3.88.074 4.176.152.65.398 1.123.851 1.639.529.601 4.867 4.887 5.115 5.053.301.202.571.337.884.444.545.187.578.188 4.596.188 3.484 0 3.827-.006 4.128-.071a3.4 3.4 0 0 0 1.541-.747c.449-.363 4.952-4.903 5.16-5.202.312-.447.498-.889.599-1.424.076-.402.076-7.71 0-8.112a3.7 3.7 0 0 0-.579-1.404c-.174-.259-4.701-4.831-5.151-5.2A3.7 3.7 0 0 0 16.52.669L16.14.54 12.1.533C8.789.527 8.015.535 7.808.581m7.913 3.004c.143.095 4.505 4.445 4.643 4.631l.116.156v7.256l-.116.156c-.063.086-1.13 1.167-2.37 2.402-1.925 1.919-2.277 2.253-2.414 2.29-.222.06-6.936.061-7.16 0-.137-.036-.486-.368-2.414-2.289-1.24-1.236-2.306-2.317-2.37-2.403l-.116-.156V8.372l.116-.156c.138-.186 4.5-4.536 4.643-4.631.09-.059.436-.065 3.721-.065s3.631.006 3.721.065M9.516 7.577c-.557.213-.919.67-1.001 1.262-.023.164-.034 1.541-.027 3.369L8.5 15.3l.105.248c.25.595.761.938 1.395.938s1.145-.343 1.395-.938l.105-.248.012-3.092c.007-1.828-.004-3.205-.027-3.369a1.51 1.51 0 0 0-.835-1.182c-.195-.099-.28-.116-.608-.125q-.382-.01-.526.045m4 0c-.557.213-.919.67-1.001 1.262-.023.164-.034 1.541-.027 3.369L12.5 15.3l.105.248c.25.595.761.938 1.395.938s1.145-.343 1.395-.938l.105-.248.012-3.092c.007-1.828-.004-3.205-.027-3.369a1.51 1.51 0 0 0-.835-1.182c-.195-.099-.28-.116-.608-.125q-.382-.01-.526.045"/></svg>