<svg xmlns="http://www.w3.org/2000/svg" width="24" height="24" fill="none" stroke="currentColor" stroke-linecap="round" stroke-linejoin="round" stroke-width="3"><path fill="#000" fill-rule="evenodd" stroke="none" d="M2.516 1.578c-.366.136-.71.444-.864.774-.371.791 0 1.726.815 2.054l.233.093 2.617.021 2.616.02 2.864 8.584c3.132 9.391 2.904 8.77 3.338 9.092.395.292.25.281 3.678.295 1.81.007 3.187-.003 3.349-.026.865-.12 1.43-.852 1.315-1.703a1.51 1.51 0 0 0-.829-1.126l-.228-.116-2.667-.011-2.667-.011-2.828-8.489c-1.556-4.669-2.871-8.58-2.922-8.691-.121-.26-.4-.536-.688-.682L9.42 1.54l-3.38-.008c-2.742-.006-3.407.003-3.524.046m11 0c-.366.136-.71.444-.864.774a1.5 1.5 0 0 0 1.158 2.13c.326.047 7.054.047 7.38 0a1.494 1.494 0 0 0 1.287-1.7 1.51 1.51 0 0 0-.829-1.126l-.228-.116-3.88-.008c-3.157-.006-3.907.003-4.024.046"/></svg>