<svg xmlns="http://www.w3.org/2000/svg" width="24" height="24" fill="none" stroke="currentColor" stroke-linecap="round" stroke-linejoin="round" stroke-width="3"><path fill="#000" fill-rule="evenodd" stroke="none" d="m11.2.504-.54.058C8.222.819 5.655 2.059 3.88 3.838 2.15 5.571 1.021 7.763.642 10.124c-.386 2.407-.014 4.869 1.057 6.994l.15.298-.143.422c-.36 1.068-.221 2.202.378 3.089a3.6 3.6 0 0 0 2.206 1.499 4.3 4.3 0 0 0 1.42 0c1.061-.224 2.044-1.007 2.468-1.965.779-1.762.072-3.736-1.645-4.595-.534-.268-.786-.32-1.57-.326l-.698-.006-.135-.317c-.814-1.906-.833-4.37-.048-6.342C5.464 5.401 8.959 3.207 12.6 3.526c.992.087 1.212.076 1.52-.072.993-.478 1.179-1.729.366-2.464-.294-.266-.461-.326-1.126-.411-.455-.058-1.889-.108-2.16-.075m7.24 1.041c-.77.148-1.465.517-1.966 1.044A3.42 3.42 0 0 0 15.512 5c0 .715.187 1.345.57 1.917.657.981 1.712 1.562 2.858 1.571.198.002.455-.01.571-.026l.21-.03.104.234c.797 1.8.906 4.054.288 5.974a9.1 9.1 0 0 1-1.489 2.744c-.3.373-.892.962-1.284 1.277-1.167.938-2.632 1.571-4.163 1.799-.564.083-1.569.083-2.237-.001-.601-.076-.864-.057-1.159.082a1.52 1.52 0 0 0-.859 1.166 1.5 1.5 0 0 0 1.126 1.647c.612.15 2.207.215 3.064.125 2.032-.213 3.925-.913 5.516-2.042a11.9 11.9 0 0 0 2.797-2.797c1.338-1.903 2.095-4.272 2.095-6.552a11.8 11.8 0 0 0-1.228-5.224c-.153-.303-.153-.275.025-.794.479-1.392-.052-3.033-1.257-3.89-.633-.45-1.161-.623-1.96-.641a7 7 0 0 0-.66.006m.904 3.111c.119.119.136.162.136.337 0 .242-.129.424-.343.483a.5.5 0 0 1-.514-.16c-.081-.096-.103-.166-.103-.323 0-.175.017-.218.136-.337s.161-.136.344-.136.224.016.344.136m-8.067 2.902c-1.471.269-2.667 1.161-3.316 2.474a5.2 5.2 0 0 0-.402 1.248c-.059.334-.059 1.106 0 1.44.361 2.054 2.013 3.583 4.057 3.756 2.473.208 4.652-1.626 4.86-4.092a4.46 4.46 0 0 0-1.343-3.596 3.8 3.8 0 0 0-1.153-.81c-.678-.332-1.061-.423-1.86-.44-.363-.007-.742.002-.843.02m1.376 3.1c.272.138.573.445.709.722.085.174.098.255.098.62 0 .384-.01.44-.116.648a1.51 1.51 0 0 1-1.126.829 1.5 1.5 0 0 1-1.562-.829c-.106-.208-.116-.264-.116-.648 0-.365.013-.446.098-.62.173-.352.515-.664.878-.803q.144-.056.526-.045c.329.009.413.026.611.126m-7.309 7.998c.119.119.136.162.136.337 0 .242-.129.424-.343.483a.5.5 0 0 1-.514-.16c-.081-.096-.103-.166-.103-.323 0-.175.017-.218.136-.337s.161-.136.344-.136.224.016.344.136"/></svg>