<svg xmlns="http://www.w3.org/2000/svg" width="24" height="24" fill="none" stroke="currentColor" stroke-linecap="round" stroke-linejoin="round" stroke-width="3"><path fill="#000" fill-rule="evenodd" stroke="none" d="M12.38 1.576a2.56 2.56 0 0 0-1.603 1.284c-.276.555-.268.472-.294 3.112l-.023 2.393-1.94-1.949C7.453 5.344 6.49 4.41 6.38 4.34a2.55 2.55 0 0 0-1.91-.361c-.693.146-1.395.702-1.703 1.346a4 4 0 0 0-.21.535c-.07.277-.102 5.97-.038 6.595.075.729.338 1.394.754 1.904.081.1.361.402.623.671l.475.49-.335.001c-.693.003-1.222.169-1.685.529-.555.431-.891 1.044-.97 1.77-.046.423.09 1.019.332 1.451.181.325.512.627 1.906 1.743 1.452 1.161 1.666 1.302 2.181 1.431.182.046 1.338.055 6.72.055h6.5l.323-.11c.178-.06.439-.184.58-.275.323-.207 1.735-1.613 1.925-1.915.273-.435.394-.857.396-1.38a2.4 2.4 0 0 0-.26-1.097c-.116-.233-4.557-8.153-4.749-8.469l-.077-.126 1.916-1.643c1.054-.904 1.999-1.735 2.1-1.846.743-.827.819-2.1.182-3.044-.318-.471-.914-.886-1.456-1.015-.328-.078-7.205-.082-7.52-.004m5.5 2.961c0 .027-2.205 1.911-2.22 1.896A76 76 0 0 1 14.6 4.54c0-.011.738-.02 1.64-.02s1.64.008 1.64.017M15.01 19.51l-2.35.011-3.57-3.571-3.57-3.571V7.66l5.92 5.92 5.92 5.92zm.159-7.81c.89 1.584 1.641 2.925 1.669 2.98s-.708-.656-1.634-1.58l-1.684-1.68v-1.316c0-.725.007-1.31.015-1.301s.744 1.313 1.634 2.897M7.9 19.043l.48.477H6.549l-.584-.466a35 35 0 0 1-.625-.504c-.025-.024.346-.028 1.02-.011l1.06.028z"/></svg>