<svg xmlns="http://www.w3.org/2000/svg" width="24" height="24" fill="none" stroke="currentColor" stroke-linecap="round" stroke-linejoin="round" stroke-width="3"><path fill="#000" fill-rule="evenodd" stroke="none" d="M11.3.578c-.332.067-.515.13-.84.293-.356.178-7.223 4.101-7.445 4.253A3.5 3.5 0 0 0 1.855 6.5c-.203.422-.282.706-.335 1.2-.051.474-.051 8.126 0 8.6.055.513.133.784.357 1.24q.34.688.905 1.155c.262.216 7.152 4.185 7.778 4.481.889.42 1.965.421 2.872.002.504-.232 2.364-1.305 2.557-1.475.579-.508.668-1.339.214-1.999-.262-.381-.7-.595-1.223-.597-.36-.002-.477.039-1.061.373-.191.11-.36.2-.374.2s-.025-1.535-.025-3.411v-3.411l1.93-1.107 2.97-1.704 1.04-.598.03.44c.044.638.178.934.581 1.286.357.312 1.008.406 1.484.213.388-.156.674-.443.838-.84.1-.241.104-.278.119-1.308.024-1.603-.042-2.075-.389-2.78a3.5 3.5 0 0 0-.905-1.155c-.17-.139-1.531-.94-3.87-2.276C13.681.935 13.431.796 13.143.694 12.674.527 11.82.473 11.3.578M15 5.139a728 728 0 0 1 2.874 1.648c.09.058.073.071-.637.479-.538.31-.749.411-.799.387-.221-.106-5.877-3.357-5.878-3.378 0-.021.727-.448 1.189-.699.264-.143.283-.134 3.251 1.563m-4.44 2.612c1.595.913 2.904 1.662 2.908 1.666.005.003-.323.197-.729.431l-.738.426-2.976-1.707C7.387 7.628 6.062 6.845 6.08 6.826s.344-.212.724-.428c.59-.336.702-.387.773-.35.046.024 1.388.79 2.983 1.703m-2.97 3.451 2.89 1.657v3.415c0 2.861-.009 3.411-.054 3.394-.219-.084-5.71-3.259-5.796-3.351l-.11-.118V9.431l.09.057c.05.031 1.39.803 2.98 1.714m7.926 3.376c-.366.136-.71.444-.864.774a1.5 1.5 0 0 0 1.158 2.13c.326.047 6.054.047 6.38 0a1.494 1.494 0 0 0 1.287-1.7 1.51 1.51 0 0 0-.829-1.126l-.228-.116-3.38-.008c-2.742-.006-3.407.003-3.524.046"/></svg>