<svg xmlns="http://www.w3.org/2000/svg" width="24" height="24" fill="none" stroke="currentColor" stroke-linecap="round" stroke-linejoin="round" stroke-width="3"><path fill="#000" fill-rule="evenodd" stroke="none" d="M9.22 1.521c-2.95.024-2.803.01-3.457.322-.641.305-1.182.786-1.514 1.347-.327.552-2.654 5.262-2.712 5.49-.052.203-.058.924-.046 5.507.012 4.665.021 5.303.077 5.534.34 1.388 1.345 2.389 2.722 2.711.267.063.875.068 7.71.068s7.443-.005 7.71-.068a3.7 3.7 0 0 0 1.798-1.004c.573-.6.883-1.272.971-2.111.024-.228.04-2.361.04-5.399.001-4.31-.007-5.053-.058-5.249-.033-.125-.661-1.429-1.396-2.898-.979-1.956-1.389-2.735-1.531-2.912-.565-.7-1.309-1.148-2.154-1.297-.287-.051-4.345-.071-8.16-.041m1.26 4.499v1.5H7.96c-1.386 0-2.52-.009-2.52-.02s.314-.648.698-1.416c.463-.926.734-1.423.805-1.479.106-.084.137-.085 1.822-.085h1.715zm6.56-1.433c.089.052.261.364.816 1.482.387.779.704 1.424.704 1.434 0 .009-1.134.017-2.52.017h-2.52v-3h1.704c1.517 0 1.716.007 1.816.067m2.44 10.27v4.337l-.103.122a.6.6 0 0 1-.25.163c-.204.056-14.05.056-14.254 0a.6.6 0 0 1-.25-.163l-.103-.122V10.52h14.96z"/></svg>