<svg xmlns="http://www.w3.org/2000/svg" width="24" height="24" fill="none" stroke="currentColor" stroke-linecap="round" stroke-linejoin="round" stroke-width="3"><path fill="#000" fill-rule="evenodd" stroke="none" d="M7.552.525a3.3 3.3 0 0 0-.586.151C6.652.79 2.481 3.113 1.988 3.448A3.43 3.43 0 0 0 .639 5.38a3.45 3.45 0 0 0 .553 2.9l.158.219-.17.241c-.849 1.198-.873 2.742-.062 3.937.237.349.662.754 1.033.984l.32.199.021 1.74c.021 1.842.033 1.966.232 2.503a3.64 3.64 0 0 0 1.34 1.706c.384.255 6.481 3.38 6.817 3.494a3.46 3.46 0 0 0 2.238 0c.336-.114 6.433-3.239 6.817-3.494a3.64 3.64 0 0 0 1.34-1.706c.199-.537.211-.661.232-2.503l.021-1.74.32-.199a3.45 3.45 0 0 0 1.512-2.041 3.45 3.45 0 0 0-.553-2.9l-.158-.219.17-.241c.847-1.195.873-2.742.066-3.931a3.7 3.7 0 0 0-.871-.878c-.286-.195-4.369-2.495-4.712-2.656-.459-.214-.849-.286-1.439-.265-.764.026-.909.083-2.484.973-.726.41-1.339.747-1.363.748s-.573-.296-1.22-.66C9.097.634 9.01.596 8.401.521a2.5 2.5 0 0 0-.849.004m.929 3.203c.241.136.439.257.438.27-.001.02-4.52 2.579-4.803 2.719-.102.051-.129.049-.259-.02-.304-.161-.412-.416-.279-.657.038-.07.708-.47 2.228-1.329 1.196-.677 2.188-1.23 2.205-1.23.017-.001.228.11.47.247m9.754 1.011c1.64.922 2.145 1.224 2.188 1.308.131.253.014.51-.296.65l-.158.071-2.354-1.328a361 361 0 0 1-2.45-1.388c-.094-.06-.089-.063.32-.297.263-.15.452-.232.516-.225.056.005 1.061.549 2.234 1.209m-3.769 2.367c1.352.763 2.443 1.399 2.426 1.414-.018.015-1.126.642-2.462 1.394L12 11.28 9.537 9.893c-1.633-.919-2.445-1.397-2.41-1.419.123-.074 4.854-2.749 4.868-2.751.008-.002 1.12.621 2.471 1.383M6.498 11.62c1.331.748 2.42 1.369 2.42 1.38.001.011-.204.134-.455.273-.454.25-.458.252-.58.188a146 146 0 0 1-1.473-.827c-.743-.421-1.575-.89-1.85-1.044-.8-.447-.943-.541-.993-.65a.41.41 0 0 1 .037-.436c.09-.115.346-.267.425-.253.027.005 1.138.621 2.469 1.369m13.66-1.301c.293.15.393.387.266.633-.06.117-.084.131-2.104 1.268l-1.79 1.009-.529.3-.46-.255c-.253-.139-.46-.263-.459-.274.001-.023 4.843-2.754 4.89-2.758a.8.8 0 0 1 .186.077M6.13 15.921c.875.492 1.514.654 2.215.561.521-.07.898-.208 1.527-.561.315-.177.58-.321.59-.321s.018.938.018 2.083-.015 2.078-.034 2.07c-.018-.007-1.101-.561-2.405-1.23-1.964-1.009-2.384-1.238-2.446-1.34-.066-.108-.075-.21-.075-.853 0-.402.009-.73.02-.73s.276.144.59.321m7.997-.001c1 .56 1.606.684 2.513.514.331-.063.683-.213 1.265-.539.289-.162.536-.295.55-.295s.025.326.025.725c0 .658-.008.738-.081.856-.069.112-.424.307-2.447 1.345a476 476 0 0 1-2.399 1.227c-.018.008-.033-.924-.033-2.07s.008-2.083.018-2.083.275.144.589.32"/></svg>