<svg xmlns="http://www.w3.org/2000/svg" width="24" height="24" fill="none" stroke="currentColor" stroke-linecap="round" stroke-linejoin="round" stroke-width="3"><path fill="#000" fill-rule="evenodd" stroke="none" d="M11.3.578c-.332.067-.515.13-.84.293-.356.178-7.223 4.101-7.445 4.253A3.5 3.5 0 0 0 1.855 6.5c-.203.422-.282.706-.335 1.2-.051.474-.051 8.126 0 8.6.055.513.133.784.357 1.24q.34.688.905 1.155c.17.139 1.531.94 3.87 2.276a415 415 0 0 0 3.825 2.169c.484.242.936.344 1.523.344.506 0 .911-.08 1.339-.265.526-.227 7.581-4.279 7.878-4.524q.566-.467.906-1.155c.224-.456.302-.727.357-1.24.051-.474.051-8.126 0-8.6a3.15 3.15 0 0 0-.357-1.24 3.5 3.5 0 0 0-.905-1.155c-.17-.139-1.531-.94-3.87-2.276C13.681.935 13.431.796 13.143.694 12.674.527 11.82.473 11.3.578m3.76 4.597c1.562.894 2.84 1.643 2.84 1.665 0 .021-.314.221-.698.442-.508.293-.716.394-.766.371-.22-.106-5.875-3.358-5.876-3.378 0-.021.727-.448 1.189-.699.264-.143.279-.136 3.311 1.599m-4.5 2.576c1.595.913 2.904 1.662 2.908 1.666s-.323.197-.73.431l-.738.424-2.95-1.695C7.427 7.644 6.1 6.863 6.1 6.84s.314-.22.697-.438c.596-.339.709-.391.78-.354.046.024 1.388.79 2.983 1.703m-2.827 3.528 2.747 1.58v3.415c0 2.861-.009 3.411-.054 3.394-.219-.084-5.71-3.259-5.796-3.351l-.11-.118V9.435l.233.133c.128.072 1.469.843 2.98 1.711m11.675 5.001c-.062.085-5.767 3.395-5.858 3.399-.016 0-.03-1.534-.03-3.41v-3.41l1.77-1.015a1261 1261 0 0 0 3.85-2.217l.32-.184.01 3.369c.01 3.204.007 3.373-.062 3.468"/></svg>