<svg xmlns="http://www.w3.org/2000/svg" width="24" height="24" fill="none" stroke="currentColor" stroke-linecap="round" stroke-linejoin="round" stroke-width="3"><path fill="#000" fill-rule="evenodd" stroke="none" d="M3.44.547A3.56 3.56 0 0 0 .552 3.388c-.072.378-.072 2.846 0 3.224.221 1.168 1.036 2.177 2.116 2.617.712.29.191.271 7.332.271 5.895 0 6.444-.006 6.71-.068 1.298-.304 2.276-1.215 2.649-2.47a2 2 0 0 0 .081-.356c0-.082.018-.086.384-.086.383 0 .384 0 .52.136l.136.136v1.699c0 1.659-.002 1.701-.083 1.804a.7.7 0 0 1-.17.155c-.067.039-1.084.055-4.487.071l-4.4.021-.293.09c-1.264.388-2.208 1.4-2.47 2.647-.03.144-.067.488-.081.765l-.027.504-.231.069c-.593.178-1.201.701-1.47 1.267-.273.573-.268.518-.268 3.116 0 2.595-.004 2.543.266 3.112.223.467.655.899 1.122 1.122.539.257.614.266 2.112.266s1.573-.009 2.112-.266a2.5 2.5 0 0 0 1.122-1.122c.27-.569.266-.517.266-3.112 0-2.594.004-2.544-.265-3.11-.271-.569-.882-1.096-1.479-1.274l-.236-.071v-.372c0-.354.006-.378.117-.502l.116-.131 4.354-.023c3.84-.019 4.385-.03 4.623-.088 1.528-.369 2.586-1.567 2.749-3.112.051-.489.051-3.145 0-3.634-.132-1.255-.824-2.255-1.946-2.817-.477-.239-.796-.312-1.466-.335-.39-.014-.597-.036-.605-.066l-.08-.325c-.293-1.189-1.203-2.129-2.429-2.509l-.293-.09L10.1.535C6.492.533 3.495.538 3.44.547m12.904 3.109.136.136v2.402l-.103.122a.6.6 0 0 1-.25.163c-.204.056-12.05.056-12.254 0a.6.6 0 0 1-.25-.163l-.103-.122V3.792l.136-.136.136-.136h12.416zM10.48 19.02v1.5h-.96v-3h.96z"/></svg>