<svg xmlns="http://www.w3.org/2000/svg" width="24" height="24" fill="none" stroke="currentColor" stroke-linecap="round" stroke-linejoin="round" stroke-width="3"><path fill="#000" fill-rule="evenodd" stroke="none" d="M8.14.52C6.482.539 6.411.543 6.183.63c-.596.224-1.146.701-1.398 1.212-.3.608-.28.264-.295 4.944l-.013 4.207-.276.281a2.66 2.66 0 0 0-.647 1.166c-.071.289-.07 1.835.001 2.196.23 1.159 1.042 2.156 2.112 2.593.534.217.773.254 1.839.279l.966.023.017 1.404c.019 1.504.039 1.684.253 2.229A3.55 3.55 0 0 0 10.9 23.22c1.759.587 3.679-.322 4.362-2.064.204-.521.226-.72.247-2.221l.019-1.404.966-.023c.636-.015 1.058-.044 1.236-.083a3.67 3.67 0 0 0 1.778-.997c.588-.615.885-1.275.977-2.173.055-.534.02-1.591-.063-1.895a2.5 2.5 0 0 0-.622-1.082l-.277-.286-.013-4.206c-.015-4.618.001-4.321-.26-4.877-.306-.653-1.023-1.217-1.714-1.347-.261-.049-6.4-.077-9.396-.042m.355 3.405c.039.599.179.904.576 1.25.473.413 1.385.413 1.858 0 .397-.346.537-.651.576-1.25l.027-.405h.941l.014 1.39.015 1.39.104.248c.248.594.76.938 1.394.938s1.146-.344 1.394-.938l.104-.248.015-1.39.014-1.39h.953v7H7.52v-7h.948zm8.985 9.93c0 .278-.014.352-.083.44-.159.202-.173.204-1.617.226-1.275.02-1.375.027-1.597.11-.592.22-1.145.699-1.398 1.211-.275.557-.275.552-.294 2.477-.02 1.912-.018 1.898-.265 2.016-.174.082-.278.082-.452 0-.247-.118-.245-.104-.265-2.016-.014-1.447-.028-1.776-.082-1.959a2.64 2.64 0 0 0-1.61-1.729c-.222-.083-.322-.09-1.597-.11-1.444-.022-1.458-.024-1.617-.226-.069-.088-.083-.162-.083-.44v-.335h10.96z"/></svg>