<svg xmlns="http://www.w3.org/2000/svg" width="24" height="24" fill="none" stroke="currentColor" stroke-linecap="round" stroke-linejoin="round" stroke-width="3"><path fill="#000" fill-rule="evenodd" stroke="none" d="M4.516.577c-.859.329-1.24 1.255-.859 2.087.087.192.308.433 1.402 1.532L6.357 5.5 3.765 8.1C2.242 9.627 1.096 10.809.987 10.964a4 4 0 0 0-.552 1.176c-.124.455-.124 1.265 0 1.72.103.381.296.802.527 1.148.211.314 5.621 5.738 5.998 6.012a3.4 3.4 0 0 0 2.39.655 3.36 3.36 0 0 0 1.69-.655c.143-.104 2.271-2.198 4.728-4.654 4-3.998 4.48-4.49 4.574-4.698a1.58 1.58 0 0 0 0-1.336c-.094-.208-.546-.672-4.274-4.395C11.307 1.182 11.719 1.54 11 1.54c-.625 0-.707.05-1.7 1.027l-.8.788-1.3-1.289C5.678.558 5.665.549 5.042.532c-.253-.007-.431.008-.526.045m9.423 7.502 2.92 2.92-.258.26-.259.261H4.62l1.937-1.937 1.937-1.937.323.302c.356.333.63.484.965.529a1.493 1.493 0 0 0 1.695-1.695c-.045-.335-.196-.609-.529-.965l-.303-.324.167-.166c.092-.092.176-.167.188-.167.011 0 1.334 1.314 2.939 2.919m-2.688 8.53C9.181 18.679 9.16 18.698 9 18.698s-.181-.019-2.251-2.089L4.66 14.52h8.68zm8.265-2.03c-.332.122-.698.43-.834.701a3.5 3.5 0 0 0-.16.44c-.114.387-.202.535-.743 1.26-.69.923-.893 1.272-1.074 1.844-.148.468-.194.747-.193 1.173 0 .719.187 1.347.57 1.92.672 1.003 1.724 1.57 2.918 1.57.933 0 1.747-.328 2.428-.979 1.13-1.08 1.383-2.784.632-4.268-.168-.333-.347-.602-.839-1.26-.55-.736-.627-.868-.759-1.307-.228-.754-.75-1.157-1.491-1.15a1.8 1.8 0 0 0-.455.056m.671 4.711c.245.368.293.484.293.705 0 .24-.13.422-.343.481a.5.5 0 0 1-.514-.16c-.133-.158-.141-.445-.018-.686.108-.212.359-.59.391-.59.014 0 .099.112.191.25"/></svg>