<svg xmlns="http://www.w3.org/2000/svg" width="24" height="24" fill="none" stroke="currentColor" stroke-linecap="round" stroke-linejoin="round" stroke-width="3"><path fill="#000" fill-rule="evenodd" stroke="none" d="M19.22.56c-.471.085-1.016.32-1.46.631-.143.101-1.044.963-2.007 1.921L14.006 4.85l-.314-.277c-.385-.34-.587-.48-.96-.667-.831-.418-1.912-.512-2.83-.246-.396.115-.721.27-1.122.534-.339.222-1.602 1.463-1.778 1.746-.363.582-.38 1.488-.039 2.044l.077.125-.37.356c-.204.196-.496.45-.65.565-.806.6-1.916 1.033-3.516 1.371-.328.069-.696.169-.817.223a2.5 2.5 0 0 0-.738.561c-.515.629-.584 1.624-.157 2.295.063.099.463.603.889 1.12l.957 1.163c.1.123 1.437 1.746 2.972 3.607 2.994 3.631 3.027 3.667 3.573 3.886.842.339 1.655.256 2.386-.242 1.677-1.142 3.949-3.564 5.013-5.344l.233-.39h.268c.322 0 .701-.109.977-.282.258-.161 1.468-1.379 1.711-1.722a3.89 3.89 0 0 0 .447-3.738 4.1 4.1 0 0 0-.788-1.231l-.281-.312 1.739-1.748c.959-.964 1.82-1.863 1.92-2.007.531-.757.755-1.593.666-2.482C23.33 2.33 22.351 1.129 20.96.674c-.341-.111-.44-.125-.96-.137a6 6 0 0 0-.78.023m.97 3.04c.285.174.389.616.204.865-.048.063-1.053 1.087-2.235 2.275-2.252 2.265-2.254 2.267-2.382 2.75-.075.282-.072.766.007 1.033.129.432.247.598.922 1.283.403.41.68.726.72.82.087.205.085.556-.003.743a1.8 1.8 0 0 1-.234.333l-.162.185-3.455-3.454-3.456-3.453.19-.169c.105-.093.252-.199.327-.234.174-.083.546-.084.742-.002.094.04.407.315.819.719.685.675.851.793 1.283.922.267.079.751.082 1.033.007.483-.128.485-.13 2.75-2.382 1.188-1.182 2.212-2.187 2.275-2.235.154-.114.473-.118.655-.006m-5.987 12.186a4 4 0 0 1-.2.346c-.018.018-2.096-.53-4.619-1.218l-4.587-1.251-.243-.294c-.134-.161-.237-.299-.229-.306s.204-.071.435-.142c1.654-.509 2.861-1.2 3.954-2.263l.426-.414 2.616 2.614 2.615 2.614zm-4.163 2.415c.979.265 1.806.492 1.837.502.04.014-.028.107-.22.303-.355.361-1.344 1.234-1.399 1.234-.023 0-.482-.534-1.02-1.188-1.26-1.531-1.149-1.387-1.055-1.358.042.013.878.241 1.857.507"/></svg>