<svg xmlns="http://www.w3.org/2000/svg" width="24" height="24" fill="none" stroke="currentColor" stroke-linecap="round" stroke-linejoin="round" stroke-width="3"><path fill="#000" fill-rule="evenodd" stroke="none" d="M10.8.565a12.4 12.4 0 0 0-2.787.656c-.52.192-1.663.755-2.113 1.041A11.62 11.62 0 0 0 .807 9.38c-.915 3.842.251 7.914 3.075 10.738a11.53 11.53 0 0 0 5.498 3.075c.966.23 2.258.355 2.945.284 1.462-.149 2.589-1.258 2.8-2.753.113-.799-.114-1.638-.629-2.323-.231-.306-.262-.414-.139-.48.049-.026.559-.041 1.381-.041.986 0 1.398-.015 1.692-.062 1.234-.197 2.271-.63 3.222-1.344 1.51-1.133 2.463-2.74 2.771-4.674.09-.568.061-1.774-.059-2.456-.567-3.202-2.711-5.972-5.838-7.541A12 12 0 0 0 13.32.579C12.733.516 11.359.508 10.8.565m2.388 3.016c1.687.22 3.301.895 4.55 1.902 1.8 1.451 2.825 3.536 2.731 5.555a3.88 3.88 0 0 1-1.066 2.531c-.586.625-1.129.954-1.983 1.2-.249.072-.454.084-1.86.112-1.82.037-1.924.051-2.549.362-.854.424-1.429 1.155-1.657 2.109-.069.29-.08.431-.063.848.029.726.214 1.255.622 1.776.246.314.252.325.222.402-.047.122-.15.137-.71.099-3.996-.265-7.329-3.397-7.844-7.369-.079-.611-.078-1.61.003-2.234.481-3.73 3.522-6.785 7.256-7.289.578-.078 1.762-.08 2.348-.004m-.248.993c-.451.149-.898.489-1.14.867-.388.604-.39 1.512-.003 2.114a1.99 1.99 0 0 0 1.703.937c.552 0 .969-.166 1.369-.544.43-.407.619-.848.619-1.448 0-.81-.417-1.457-1.168-1.816-.284-.136-.324-.144-.76-.153-.298-.006-.516.009-.62.043m-5 1c-.451.149-.898.489-1.14.867-.388.604-.39 1.512-.003 2.114a1.99 1.99 0 0 0 1.703.937c.552 0 .969-.166 1.369-.544.43-.407.619-.848.619-1.448 0-.81-.417-1.457-1.168-1.816-.284-.136-.324-.144-.76-.153-.298-.006-.516.009-.62.043m6.083.088c.283.174.431.432.451.784.013.237 0 .305-.095.499-.349.713-1.379.724-1.748.018a.98.98 0 0 1 .418-1.341c.181-.092.251-.105.495-.094.232.011.319.035.479.134m-.771.416a.48.48 0 0 0-.174.67c.2.328.644.328.844 0a.49.49 0 0 0-.198-.686.45.45 0 0 0-.472.016m-4.229.584c.283.174.431.432.451.784.013.237 0 .305-.095.499-.349.713-1.379.724-1.748.018a.98.98 0 0 1 .418-1.341c.181-.092.251-.105.495-.094.232.011.319.035.479.134m-.771.416a.48.48 0 0 0-.174.67c.2.328.644.328.844 0a.45.45 0 0 0 0-.496.48.48 0 0 0-.67-.174m8.688 1.496c-.451.149-.898.489-1.14.867-.388.604-.39 1.512-.003 2.114a1.99 1.99 0 0 0 1.703.937c.552 0 .969-.166 1.369-.544.43-.407.619-.848.619-1.448 0-.81-.417-1.457-1.168-1.816-.284-.136-.324-.144-.76-.153-.298-.006-.516.009-.62.043m1.083 1.088c.283.174.431.432.451.784.013.237 0 .305-.095.499-.349.713-1.379.724-1.748.018a.98.98 0 0 1 .418-1.341c.181-.092.251-.105.495-.094.232.011.319.035.479.134m-.771.416a.54.54 0 0 0-.252.43c0 .24.256.492.5.492.248 0 .5-.252.5-.5 0-.252-.253-.5-.508-.5a.56.56 0 0 0-.24.078m-11.312.496c-.451.149-.898.489-1.14.867-.388.604-.39 1.512-.003 2.114a1.99 1.99 0 0 0 1.703.937c.552 0 .969-.166 1.369-.544.43-.407.619-.848.619-1.448 0-.81-.417-1.457-1.168-1.816-.284-.136-.324-.144-.76-.153-.298-.006-.516.009-.62.043m1.083 1.088c.283.174.431.432.451.784.013.237 0 .305-.095.499-.349.713-1.379.724-1.748.018a.98.98 0 0 1 .418-1.341c.181-.092.251-.105.495-.094.232.011.319.035.479.134m-.771.416a.54.54 0 0 0-.252.43c0 .24.256.492.5.492.248 0 .5-.252.5-.5 0-.252-.253-.5-.508-.5a.56.56 0 0 0-.24.078"/></svg>