<svg xmlns="http://www.w3.org/2000/svg" width="24" height="24" fill="none" stroke="currentColor" stroke-linecap="round" stroke-linejoin="round" stroke-width="3"><path fill="#000" fill-rule="evenodd" stroke="none" d="m9.58 1.521-5.24.02-.293.09C2.745 2.033 1.8 3.078 1.552 4.388c-.076.399-.076 14.825 0 15.224.221 1.168 1.036 2.177 2.116 2.617.716.292.076.271 8.332.271 6.835 0 7.443-.005 7.71-.068a3.7 3.7 0 0 0 1.798-1.004c.573-.6.883-1.272.971-2.111.054-.511.054-14.123 0-14.634-.132-1.255-.824-2.255-1.946-2.817-.558-.28-.761-.317-1.813-.332-2.07-.03-4.131-.033-9.14-.013m3.9 7.499v4.5H4.52V4.792l.136-.136.136-.136h8.688zm5.864-4.364.136.136v14.402l-.103.122a.6.6 0 0 1-.25.163c-.085.023-.661.041-1.377.041h-1.23v-15h2.688zM13.48 18.02v1.5H9.25c-2.762 0-4.281-.015-4.377-.041a.6.6 0 0 1-.25-.163l-.103-.122V16.52h8.96z"/></svg>