<svg xmlns="http://www.w3.org/2000/svg" width="24" height="24" fill="none" stroke="currentColor" stroke-linecap="round" stroke-linejoin="round" stroke-width="3"><path fill="#000" fill-rule="evenodd" stroke="none" d="M4.44 1.547a3.56 3.56 0 0 0-2.888 2.841c-.076.399-.076 14.825 0 15.224.221 1.168 1.036 2.177 2.116 2.617.716.292.076.271 8.332.271 6.835 0 7.443-.005 7.71-.068a3.7 3.7 0 0 0 1.798-1.004c.573-.6.883-1.272.971-2.111.054-.511.054-14.123 0-14.634-.154-1.464-1.103-2.611-2.526-3.052l-.293-.091-7.56-.005c-4.158-.002-7.605.003-7.66.012m14.904 3.109.136.136v8.728H4.52V4.792l.136-.136.136-.136h14.416zM8.516 6.577a1.52 1.52 0 0 0-.857 2.091c.091.201.329.455 1.773 1.9 1.809 1.809 1.849 1.841 2.35 1.909.294.04.607-.008.886-.136.201-.091.455-.329 1.9-1.773 1.444-1.445 1.682-1.699 1.773-1.9.355-.776.061-1.63-.693-2.012-.208-.106-.264-.116-.648-.116-.647 0-.68.022-1.95 1.276L12 8.854l-1.05-1.038C9.703 6.584 9.646 6.545 9.04 6.531c-.246-.006-.431.01-.524.046m10.964 11.28v1.337l-.103.122a.6.6 0 0 1-.25.163c-.204.056-14.05.056-14.254 0a.6.6 0 0 1-.25-.163l-.103-.122V16.52h14.96z"/></svg>