<svg xmlns="http://www.w3.org/2000/svg" width="24" height="24" fill="none" stroke="currentColor" stroke-linecap="round" stroke-linejoin="round" stroke-width="3"><path fill="#000" fill-rule="evenodd" stroke="none" d="M6.6 1.522c-2.192.021-2.269.024-2.553.111a3.57 3.57 0 0 0-2.495 2.755c-.076.399-.076 14.825 0 15.224.221 1.168 1.036 2.177 2.116 2.617.716.292.076.271 8.332.271 6.835 0 7.443-.005 7.71-.068a3.7 3.7 0 0 0 1.798-1.004c.573-.6.883-1.272.971-2.111.054-.511.054-14.123 0-14.634-.154-1.465-1.11-2.618-2.526-3.05-.285-.087-.349-.09-2.453-.101-5.021-.027-8.782-.031-10.9-.01m.895 3.403c.039.599.179.904.576 1.25.473.413 1.385.413 1.858 0 .397-.346.537-.651.576-1.25l.027-.405h8.676l.136.136.136.136v14.402l-.103.122a.6.6 0 0 1-.25.163c-.096.026-1.615.041-4.377.041h-4.23l-.001-.23c-.003-.816-.279-1.334-.871-1.634-.208-.106-.264-.116-.648-.116s-.44.01-.648.116c-.592.3-.868.818-.871 1.634l-.001.23H6.25c-.716 0-1.292-.018-1.377-.041a.6.6 0 0 1-.25-.163l-.103-.122V4.792l.136-.136.136-.136h2.676zm1.021 2.652c-.371.142-.711.446-.864.774-.137.294-.184.691-.161 1.371.017.499.034.617.119.828.237.587.755.936 1.39.936s1.153-.349 1.39-.936c.085-.211.102-.329.119-.828.033-.973-.075-1.401-.445-1.766a2 2 0 0 0-.414-.299c-.195-.099-.28-.116-.608-.125q-.382-.01-.526.045m0 5c-.371.142-.711.446-.864.774-.137.294-.184.691-.161 1.371.017.499.034.617.119.828.237.587.755.936 1.39.936s1.153-.349 1.39-.936c.085-.211.102-.329.119-.828.033-.973-.075-1.401-.445-1.766a2 2 0 0 0-.414-.299c-.195-.099-.28-.116-.608-.125q-.382-.01-.526.045"/></svg>