<svg xmlns="http://www.w3.org/2000/svg" width="24" height="24" fill="none" stroke="currentColor" stroke-linecap="round" stroke-linejoin="round" stroke-width="3"><path fill="#000" fill-rule="evenodd" stroke="none" d="M14.28.581a5.6 5.6 0 0 0-2.411 1.027c-.382.28-9.076 8.934-9.59 9.546a7.5 7.5 0 0 0-1.536 6.697 7.6 7.6 0 0 0 1.353 2.769 10 10 0 0 0 1.286 1.281c2.014 1.583 4.731 2.015 7.175 1.141a7.6 7.6 0 0 0 2.143-1.193c.154-.121 2.462-2.4 5.128-5.065 4.348-4.344 4.86-4.868 4.954-5.076.352-.774.056-1.628-.694-1.997-.245-.12-.297-.131-.647-.131-.684.001-.192-.434-5.641 5-2.651 2.644-4.928 4.888-5.06 4.986-.832.619-1.696.915-2.686.918-.508.002-.704-.02-1.154-.131-1.551-.381-2.825-1.646-3.25-3.225-.094-.35-.105-.461-.107-1.128-.003-.692.005-.766.109-1.14a4.6 4.6 0 0 1 .781-1.6c.098-.132 2.205-2.267 4.683-4.744 4.753-4.753 4.672-4.678 5.244-4.881.222-.079.339-.093.8-.094.465-.001.578.012.813.093a2.66 2.66 0 0 1 1.402 1.202c.205.393.275.678.277 1.141.003.481-.052.742-.242 1.143-.14.293-.241.399-4.666 4.83L8.22 16.48h-.207c-.164 0-.232-.021-.329-.103a.5.5 0 0 1-.161-.507c.027-.095 1.175-1.267 4.415-4.509C16.926 6.37 16.54 6.811 16.54 6.1c0-.347-.014-.429-.103-.62-.354-.754-1.315-1.085-2.057-.71-.161.082-8.565 8.407-9.025 8.941a3.38 3.38 0 0 0-.849 2.309c.013 1.657 1.149 3.042 2.789 3.401.384.084 1.229.063 1.605-.041.333-.092.917-.377 1.18-.577.121-.092 2.264-2.208 4.762-4.703 3.201-3.196 4.61-4.63 4.772-4.856.78-1.082 1.155-2.444 1.028-3.724-.089-.895-.387-1.774-.833-2.46A5.56 5.56 0 0 0 16.021.579c-.434-.07-1.322-.07-1.741.002"/></svg>