<svg xmlns="http://www.w3.org/2000/svg" width="24" height="24" fill="none" stroke="currentColor" stroke-linecap="round" stroke-linejoin="round" stroke-width="3"><path fill="#000" fill-rule="evenodd" stroke="none" d="M10.94.539Q8.035.936 5.999 2.96C4.683 4.269 3.88 5.873 3.577 7.8c-.094.599-.096 1.766-.002 2.34.119.735.24 1.148 1.053 3.6 1.107 3.336 1.995 5.89 2.106 6.057.248.375.616.61 1.066.681.143.023.802.042 1.465.042h1.205l.018.89c.016.842.023.904.119 1.138.243.592.758.938 1.393.938s1.15-.346 1.393-.938c.096-.234.103-.296.119-1.138l.018-.89h1.205c.663 0 1.322-.019 1.465-.042a1.53 1.53 0 0 0 1.065-.679c.117-.177.667-1.753 1.937-5.559.958-2.868 1.102-3.342 1.199-3.944.138-.85.111-2.109-.062-2.969A8.52 8.52 0 0 0 13.08.538C12.573.47 11.441.47 10.94.539m1.91 3.001a5.51 5.51 0 0 1 4.535 4.3c.107.487.107 1.801.001 2.26-.076.331-1.368 4.255-2.06 6.26l-.394 1.14H9.068l-.394-1.14c-.7-2.028-1.985-5.932-2.055-6.24-.104-.466-.125-1.538-.04-2.049a5.48 5.48 0 0 1 4.461-4.51 6.3 6.3 0 0 1 1.81-.021m-1.573 1.018c-1.471.269-2.667 1.161-3.316 2.474-.409.83-.571 1.947-.361 2.501.188.498.658.873 1.182.944.478.065.939-.088 1.273-.422.277-.276.388-.54.448-1.062.032-.284.08-.496.141-.622a1.8 1.8 0 0 1 .705-.714c.212-.107.266-.117.651-.117.496 0 .69.073 1.023.387.297.28.406.525.472 1.059.066.535.175.794.45 1.069a1.49 1.49 0 0 0 2.11 0c.361-.361.478-.761.42-1.442a4.43 4.43 0 0 0-1.342-2.825 3.8 3.8 0 0 0-1.153-.81c-.678-.332-1.061-.423-1.86-.44-.363-.007-.742.002-.843.02m.239 6.019c-.371.142-.711.446-.864.773-.136.291-.17.587-.171 1.47l-.001.76-.191.107a1.51 1.51 0 0 0-.766 1.095 1.494 1.494 0 0 0 1.287 1.7c.324.047 2.056.047 2.38 0a1.494 1.494 0 0 0 1.287-1.7 1.51 1.51 0 0 0-.766-1.095l-.191-.107-.001-.76c0-.418-.017-.872-.037-1.01a1.51 1.51 0 0 0-.832-1.153c-.195-.099-.28-.116-.608-.125q-.382-.01-.526.045"/></svg>