<svg xmlns="http://www.w3.org/2000/svg" width="24" height="24" fill="none" stroke="currentColor" stroke-linecap="round" stroke-linejoin="round" stroke-width="3"><path fill="#000" fill-rule="evenodd" stroke="none" d="M10.6.555c-.581.191-.986.649-1.079 1.219-.05.306.004.58.22 1.118q.174.432.127.445c-.554.148-.889.302-1.241.573-.484.372-.891 1.003-1.051 1.63-.056.218-.072.444-.073 1.02-.002.709.003.751.102.988.167.398.453.684.84.84.476.193 1.127.099 1.484-.213.426-.372.545-.653.583-1.384l.028-.526.14-.035a3.03 3.03 0 0 0 2.106-1.97c.08-.244.109-.429.123-.78.023-.572-.026-.801-.353-1.626-.305-.772-.442-.951-.914-1.197-.186-.097-.272-.116-.58-.124-.199-.006-.407.004-.462.022m3.916.022c-1.049.399-1.349 1.701-.571 2.478.58.58 1.53.583 2.107.007a1.47 1.47 0 0 0 0-2.124c-.292-.292-.55-.395-1.012-.407-.247-.006-.431.01-.524.046m5.82.398c-.751.252-1.48.516-1.62.587-1.508.757-2.471 2.327-2.428 3.96l.012.467-.44.023c-.548.029-.968.136-1.387.354-.724.377-1.28.978-1.551 1.676-.111.288-.326 1.222-.399 1.736-.068.481.082.931.426 1.277.591.594 1.503.593 2.108-.004.267-.263.357-.484.518-1.269.091-.447.161-.695.203-.725.036-.027.287-.055.593-.067.39-.015.602-.044.809-.109.83-.263 1.495-.835 1.846-1.588.218-.467.268-.747.271-1.493.003-.647.005-.664.119-.89.132-.26.329-.474.564-.612.088-.052.727-.285 1.42-.518s1.334-.472 1.425-.532a1.499 1.499 0 0 0-.18-2.593c-.187-.094-.286-.115-.585-.126L21.7.516zm-16.82.602c-1.049.399-1.349 1.701-.571 2.478.58.58 1.53.583 2.107.007a1.47 1.47 0 0 0 0-2.124c-.292-.292-.55-.395-1.012-.407-.247-.006-.431.01-.524.046m18 5c-1.049.399-1.349 1.701-.571 2.478.58.58 1.53.583 2.107.007a1.47 1.47 0 0 0 0-2.124c-.292-.292-.55-.395-1.012-.407-.247-.006-.431.01-.524.046M6.293 9.244a2.8 2.8 0 0 0-.945.372c-.502.334-.85.808-1.066 1.453-.067.203-.933 2.649-1.922 5.435-.99 2.787-1.817 5.174-1.838 5.305-.153.946.731 1.816 1.691 1.665.154-.024 9.303-3.228 11.01-3.855.428-.158.958-.618 1.218-1.059.267-.453.339-.766.337-1.46-.002-.627-.023-.751-.245-1.44-.42-1.303-1.461-2.782-2.893-4.109-1.316-1.22-2.7-2.006-3.999-2.271a4.2 4.2 0 0 0-1.348-.036m13.727 1.895a3.01 3.01 0 0 0-2.26 2.208l-.042.167-.569.013c-.535.012-.583.02-.797.129-.93.471-1.133 1.673-.407 2.399.378.378.813.491 1.735.45.978-.043 1.582-.288 2.181-.885.409-.408.632-.823.802-1.488q.015-.046.446.127c.582.234.832.276 1.186.201.322-.068.545-.19.781-.425.215-.216.315-.411.388-.759.135-.648-.187-1.293-.801-1.604-.37-.188-1.126-.473-1.418-.534a3.6 3.6 0 0 0-1.225.001M7.942 12.563c.281.14.665.375.92.565.566.422 1.588 1.444 2.01 2.01.291.39.753 1.225.83 1.496.023.083.015.091-.068.068-.259-.07-1.101-.536-1.494-.826-.56-.414-1.58-1.435-2.011-2.014-.292-.391-.754-1.224-.831-1.496-.023-.084-.016-.091.068-.068.052.015.311.134.576.265M6.08 16.114a16 16 0 0 0 1.87 1.859c.138.111.237.216.22.232-.038.038-3.658 1.32-3.676 1.302-.01-.01 1.095-3.156 1.272-3.624.022-.055.051-.081.071-.06s.128.151.243.291m15.436 2.463c-1.049.399-1.349 1.701-.571 2.478.58.58 1.53.583 2.107.007a1.47 1.47 0 0 0 0-2.124c-.292-.292-.55-.395-1.012-.407-.247-.006-.431.01-.524.046"/></svg>