<svg xmlns="http://www.w3.org/2000/svg" width="24" height="24" fill="none" stroke="currentColor" stroke-linecap="round" stroke-linejoin="round" stroke-width="3"><path fill="#000" fill-rule="evenodd" stroke="none" d="M10.44.545c-.77.148-1.465.517-1.966 1.044A3.42 3.42 0 0 0 7.512 4c0 .715.187 1.345.57 1.917a3.56 3.56 0 0 0 2.208 1.509 4.3 4.3 0 0 0 1.42 0 3.513 3.513 0 0 0 2.765-3.772c-.123-1.217-.83-2.232-1.942-2.788-.479-.24-.797-.313-1.433-.327a7 7 0 0 0-.66.006m.904 3.111c.119.119.136.162.136.337 0 .157-.022.227-.103.323a.49.49 0 0 1-.754 0c-.081-.096-.103-.166-.103-.323 0-.175.017-.218.136-.337s.161-.136.344-.136.224.016.344.136m6.096.889c-.77.148-1.465.517-1.966 1.044A3.42 3.42 0 0 0 14.512 8c0 .715.187 1.345.57 1.917a3.56 3.56 0 0 0 2.208 1.509 4.3 4.3 0 0 0 1.42 0 3.513 3.513 0 0 0 2.765-3.772c-.123-1.217-.83-2.232-1.942-2.788-.479-.24-.797-.313-1.433-.327a7 7 0 0 0-.66.006m.904 3.111c.119.119.136.162.136.337 0 .242-.129.424-.343.483a.5.5 0 0 1-.514-.16c-.081-.096-.103-.166-.103-.323 0-.175.017-.218.136-.337s.161-.136.344-.136.224.016.344.136M4.7 8.564c-.989.143-2.079.722-2.813 1.494-.922.97-1.368 2.11-1.372 3.499-.003 1.266.482 2.45 1.402 3.415.557.585 1.108.933 2 1.266.624.232.897.386 1.178.667.279.28.444.569.654 1.146.33.91.681 1.464 1.305 2.06 1.337 1.278 3.15 1.696 4.973 1.147 1.42-.428 2.665-1.634 3.187-3.088.279-.776.321-1.321.295-3.85-.021-2.074-.039-2.293-.248-3.037-.708-2.516-2.735-4.309-5.321-4.706-.278-.043-.888-.055-2.68-.051-1.276.002-2.428.019-2.56.038m5.052 3.019c.641.13 1.193.439 1.71.955.516.517.825 1.069.955 1.71.087.427.093 4.456.007 4.778-.252.949-1.237 1.597-2.202 1.449-.57-.087-1.129-.453-1.412-.922a5.4 5.4 0 0 1-.304-.694c-.199-.547-.322-.803-.576-1.199-.659-1.024-1.596-1.743-2.866-2.199-.514-.184-.778-.339-.998-.583-.595-.661-.712-1.507-.321-2.313.202-.417.743-.858 1.211-.987.137-.038.729-.052 2.336-.054 1.806-.003 2.201.006 2.46.059m9.688.962c-.77.148-1.465.517-1.966 1.044A3.42 3.42 0 0 0 16.512 16c0 .715.187 1.345.57 1.917a3.56 3.56 0 0 0 2.208 1.509 4.3 4.3 0 0 0 1.42 0 3.513 3.513 0 0 0 2.765-3.772c-.123-1.217-.83-2.232-1.942-2.788-.479-.24-.797-.313-1.433-.327a7 7 0 0 0-.66.006m.904 3.111c.119.119.136.162.136.337 0 .242-.129.424-.343.483a.5.5 0 0 1-.514-.16c-.081-.096-.103-.166-.103-.323 0-.175.017-.218.136-.337s.161-.136.344-.136.224.016.344.136"/></svg>