<svg xmlns="http://www.w3.org/2000/svg" width="24" height="24" fill="none" stroke="currentColor" stroke-linecap="round" stroke-linejoin="round" stroke-width="3"><path fill="#000" fill-rule="evenodd" stroke="none" d="M1.516.577C.655.907.276 1.831.658 2.668c.095.206.501.627 3.651 3.78l3.545 3.547-.605.633c-.332.347-1.524 1.55-2.65 2.672s-2.113 2.139-2.197 2.26a4 4 0 0 0-.429.817c-.178.497-1.417 4.656-1.451 4.87-.094.589.148 1.265.607 1.699.431.408 1.045.611 1.606.532.357-.051 4.803-1.407 5.175-1.579.164-.076.418-.227.564-.336s1.445-1.379 2.885-2.82l2.62-2.622 3.56 3.557c3.165 3.162 3.587 3.569 3.793 3.664a1.503 1.503 0 0 0 2.01-2.01c-.095-.21-1.076-1.202-10.274-10.395C1.635-.49 2.738.551 2.042.532c-.253-.007-.431.008-.526.045M18.56.544c-.783.143-1.469.437-2.02.866-.11.085-1.268 1.221-2.574 2.523-1.667 1.662-2.401 2.421-2.466 2.548a1.48 1.48 0 0 0 .278 1.741c.473.473 1.149.576 1.761.27.153-.078.753-.651 2.541-2.432 1.566-1.56 2.4-2.362 2.52-2.426.154-.081.237-.094.58-.094.368 0 .417.009.612.118.241.133.442.339.576.59.078.146.092.232.092.572 0 .342-.014.426-.094.58-.063.121-.862.951-2.424 2.52-1.281 1.287-2.367 2.403-2.412 2.48a1.54 1.54 0 0 0-.155 1.142c.067.252.119.353.295.571a1.52 1.52 0 0 0 1.804.403c.141-.066.764-.663 2.578-2.472 1.316-1.311 2.48-2.501 2.587-2.644a4.25 4.25 0 0 0 .846-2.58c.001-1.99-1.288-3.654-3.244-4.184C20.013.574 19.786.55 19.3.54a9 9 0 0 0-.74.004M10.94 13.08l.92.92-2.579 2.579c-1.418 1.418-2.624 2.597-2.68 2.62-.132.054-2.577.799-2.588.788-.007-.007.137-.489.672-2.247l.122-.4 2.586-2.59c1.422-1.425 2.595-2.59 2.607-2.59.011 0 .434.414.94.92"/></svg>