<svg xmlns="http://www.w3.org/2000/svg" width="24" height="24" fill="none" stroke="currentColor" stroke-linecap="round" stroke-linejoin="round" stroke-width="3"><path fill="#000" fill-rule="evenodd" stroke="none" d="M2.386.583a3 3 0 0 0-.55.221C.938 1.272.396 2.283.52 3.258c.044.345 3.403 13.147 3.518 13.406.185.418.602.886 1.006 1.129.319.191.761.3 3.196.785 1.397.279 2.568.515 2.603.525.044.012.077.108.11.32.054.352.261.827.475 1.093.217.27 1.457 1.526 1.852 1.875.537.476 1.069.689 1.72.689s1.184-.213 1.72-.69c.438-.388 5.705-5.676 5.875-5.898.178-.232.389-.706.441-.989.153-.829-.06-1.562-.644-2.223-.424-.479-1.734-1.757-1.965-1.915a2.5 2.5 0 0 0-.996-.406c-.221-.035-.314-.068-.328-.114a384 384 0 0 1-.525-2.605c-.278-1.397-.55-2.655-.603-2.796a2.45 2.45 0 0 0-1.255-1.367c-.174-.084-2.122-.613-6.415-1.742A1920 1920 0 0 0 3.74.617C3.28.505 2.762.492 2.386.583m8.53 5.015c2.341.615 4.268 1.132 4.284 1.15.015.018.284 1.317.597 2.889l.57 2.856-1.94 1.94-1.94 1.94-2.854-.57c-1.569-.313-2.868-.584-2.885-.601-.034-.032-2.275-8.528-2.256-8.548.007-.006.729.707 1.606 1.584l1.595 1.595-.066.235a3.9 3.9 0 0 0-.102 1.282c.06.605.253 1.131.595 1.626a3.58 3.58 0 0 0 2.17 1.45 4.3 4.3 0 0 0 1.42 0 3.513 3.513 0 0 0 2.765-3.772 3.5 3.5 0 0 0-2.543-3.023c-.423-.122-1.36-.13-1.807-.016l-.294.076-1.605-1.606A92 92 0 0 1 6.64 4.48c.011 0 1.935.503 4.276 1.118m.428 5.058c.119.119.136.162.136.337 0 .157-.022.227-.103.323a.5.5 0 0 1-.514.16c-.214-.059-.343-.241-.343-.483 0-.175.017-.218.136-.337s.161-.136.344-.136.224.016.344.136m8.096 3.924.419.421-2.429 2.429L15 19.86l-.43-.43-.43-.43 2.42-2.42c1.331-1.331 2.429-2.42 2.441-2.42.011 0 .209.189.439.42"/></svg>