<svg xmlns="http://www.w3.org/2000/svg" width="24" height="24" fill="none" stroke="currentColor" stroke-linecap="round" stroke-linejoin="round" stroke-width="3"><path fill="#000" fill-rule="evenodd" stroke="none" d="M17.22 1.56c-.482.087-1.06.341-1.5.66-.371.269-12.586 12.494-12.789 12.8-.357.536-.371.574-.932 2.489-.489 1.668-.53 1.854-.478 2.219.135.949.806 1.621 1.75 1.751.354.049.599-.004 2.209-.475 1.922-.562 1.963-.577 2.5-.935.306-.203 12.531-12.418 12.8-12.789a3.62 3.62 0 0 0 .694-2.522c-.144-1.428-1.123-2.629-2.514-3.084-.341-.111-.44-.125-.96-.137a6 6 0 0 0-.78.023m.97 3.04c.191.116.29.302.29.546 0 .181-.02.231-.156.4-.086.107-2.844 2.878-6.13 6.158L6.22 17.669l-.5.143c-.788.226-.736.22-.703.084.015-.064.092-.341.171-.616l.143-.5 5.965-5.974c3.28-3.286 6.051-6.044 6.158-6.13.169-.136.219-.156.4-.156.135 0 .251.028.336.08m-6.674 13.978c-.365.136-.71.444-.864.774a1.5 1.5 0 0 0 1.158 2.13c.326.047 9.054.047 9.38 0a1.494 1.494 0 0 0 1.287-1.7 1.51 1.51 0 0 0-.829-1.126l-.228-.116-4.88-.008c-3.989-.006-4.906.003-5.024.046"/></svg>