<svg xmlns="http://www.w3.org/2000/svg" width="24" height="24" fill="none" stroke="currentColor" stroke-linecap="round" stroke-linejoin="round" stroke-width="3"><path fill="#000" fill-rule="evenodd" stroke="none" d="M18.477.558a4.8 4.8 0 0 0-1.717.686c-.358.23-14.193 14.06-14.429 14.423a4 4 0 0 0-.283.54c-.162.392-1.474 4.717-1.524 5.025-.096.597.145 1.279.605 1.714.431.407 1.046.61 1.613.53.29-.04 4.635-1.351 5.047-1.522.159-.066.402-.193.54-.281.183-.116 2.134-2.041 7.183-7.086 3.813-3.81 7.02-7.044 7.126-7.187 1.117-1.495 1.137-3.593.049-5.1A4.47 4.47 0 0 0 20.318.658C19.999.569 19.84.55 19.3.538c-.352-.007-.722.002-.823.02m1.315 3.101c.24.131.442.337.576.589.078.146.092.232.092.572 0 .363-.01.419-.112.602-.082.147-1.96 2.049-6.9 6.987L6.66 19.194l-1.319.401c-.726.22-1.323.397-1.327.392-.004-.004.126-.448.29-.987l.4-1.32.102-.34 6.767-6.772c3.722-3.724 6.828-6.81 6.902-6.856.249-.156.409-.194.765-.181.285.011.374.032.552.128"/></svg>