<svg xmlns="http://www.w3.org/2000/svg" width="24" height="24" fill="none" stroke="currentColor" stroke-linecap="round" stroke-linejoin="round" stroke-width="3"><path fill="#000" fill-rule="evenodd" stroke="none" d="M1.516.577C.655.907.276 1.831.658 2.668c.095.206.501.627 3.651 3.78l3.545 3.547-.605.633c-.332.347-1.524 1.55-2.65 2.672s-2.113 2.139-2.197 2.26a4 4 0 0 0-.429.817c-.178.497-1.417 4.656-1.451 4.87-.094.589.148 1.265.607 1.699.431.408 1.045.611 1.606.532.357-.051 4.803-1.407 5.175-1.579.164-.076.418-.227.564-.336s1.445-1.379 2.885-2.82l2.62-2.622 3.56 3.557c3.165 3.162 3.587 3.569 3.793 3.664a1.503 1.503 0 0 0 2.01-2.01c-.095-.21-1.076-1.202-10.274-10.395C1.635-.49 2.738.551 2.042.532c-.253-.007-.431.008-.526.045M18.56.544c-.783.143-1.468.436-2.02.866-.11.085-1.268 1.22-2.574 2.523-1.671 1.665-2.402 2.421-2.466 2.548a1.48 1.48 0 0 0 .278 1.741 1.48 1.48 0 0 0 1.754.272c.121-.061.434-.333.833-.724l.639-.625.927.926.926.926-.621.632c-.667.678-.754.793-.852 1.128-.102.346-.064.779.096 1.085.29.558.956.898 1.565.8.455-.073.533-.133 1.804-1.396 2.651-2.633 3.64-3.64 3.823-3.891.966-1.325 1.086-3.163.302-4.595-.577-1.052-1.539-1.8-2.733-2.124C20.013.574 19.786.55 19.3.54a9 9 0 0 0-.74.004m1.232 3.115c.24.131.442.337.576.589.078.146.092.232.092.572 0 .364-.01.418-.113.603-.067.121-.362.453-.73.82L19 6.859l-.93-.929-.929-.93.599-.602c.816-.819.935-.887 1.5-.867.285.011.374.032.552.128M10.94 13.08l.92.92-2.579 2.579c-1.418 1.418-2.624 2.597-2.68 2.62-.132.054-2.577.799-2.588.788-.007-.007.137-.489.672-2.247l.122-.4 2.586-2.59c1.422-1.425 2.595-2.59 2.607-2.59.011 0 .434.414.94.92"/></svg>