<svg xmlns="http://www.w3.org/2000/svg" width="24" height="24" fill="none" stroke="currentColor" stroke-linecap="round" stroke-linejoin="round" stroke-width="3"><path fill="#000" fill-rule="evenodd" stroke="none" d="M18.477.558a4.75 4.75 0 0 0-1.717.687c-.331.215-1.363 1.234-8.544 8.435-3.933 3.944-5.774 5.817-5.885 5.987a4 4 0 0 0-.283.54c-.162.392-1.474 4.717-1.524 5.025-.096.597.145 1.279.605 1.714.431.407 1.046.61 1.613.53.238-.033 4.537-1.318 4.935-1.475a3.3 3.3 0 0 0 .803-.437C8.795 21.328 22.406 7.712 22.638 7.4c1.117-1.495 1.137-3.593.049-5.1A4.47 4.47 0 0 0 20.318.658C19.999.569 19.84.55 19.3.538c-.352-.007-.722.002-.823.02m1.315 3.101c.24.131.442.337.576.589.078.146.092.232.092.572 0 .364-.01.418-.113.603-.067.121-.362.453-.73.82L19 6.859l-.93-.929-.929-.93.599-.602c.816-.819.935-.887 1.5-.867.285.011.374.032.552.128M15.94 8.08l.92.92-5.094 5.094-5.094 5.094-1.325.403c-.729.222-1.329.4-1.333.396s.126-.448.29-.987l.4-1.32.102-.34 5.087-5.09C12.69 9.45 14.989 7.16 15 7.16s.434.414.94.92"/></svg>