<svg xmlns="http://www.w3.org/2000/svg" width="24" height="24" fill="none" stroke="currentColor" stroke-linecap="round" stroke-linejoin="round" stroke-width="3"><path fill="#000" fill-rule="evenodd" stroke="none" d="M6.287.562c-.537.096-1.186.387-1.66.744-.424.32-3.224 3.155-3.441 3.484-.911 1.382-.911 3.041 0 4.42.136.205.705.806 1.941 2.051l1.749 1.76-1.191 1.2c-1.235 1.243-1.423 1.471-1.637 1.986-.162.392-1.474 4.717-1.524 5.025-.096.597.145 1.279.605 1.714.431.407 1.046.61 1.613.53.29-.04 4.635-1.351 5.047-1.522.532-.222.743-.395 1.99-1.637l1.2-1.193 1.76 1.75c1.827 1.816 2.007 1.971 2.626 2.265.512.243 1.009.35 1.635.35s1.123-.107 1.635-.35c.618-.293.803-.452 2.428-2.076s1.783-1.81 2.076-2.428c.243-.512.35-1.009.35-1.635s-.107-1.123-.35-1.635c-.293-.617-.45-.8-2.266-2.626l-1.75-1.761 1.661-1.659c.913-.913 1.748-1.776 1.854-1.919 1.117-1.495 1.137-3.593.049-5.1a4.5 4.5 0 0 0-2.39-1.649c-.367-.102-.452-.11-1.117-.109-.626 0-.765.012-1.06.092a4.5 4.5 0 0 0-1.6.79c-.121.094-.958.909-1.859 1.812l-1.64 1.642-1.7-1.692c-.936-.931-1.827-1.787-1.981-1.903a4.6 4.6 0 0 0-1.3-.645c-.233-.067-.438-.089-.92-.1-.341-.007-.716.003-.833.024m1.105 3.035c.081.042.218.149.305.238l.156.162-.551.567c-.595.612-.724.813-.779 1.218a1.493 1.493 0 0 0 1.695 1.695c.405-.055.606-.184 1.219-.78l.567-.551.438.436.439.437L8.95 8.95l-1.93 1.93-1.673-1.67c-.92-.919-1.707-1.737-1.75-1.818-.104-.201-.104-.583 0-.784.092-.175 2.848-2.931 3.023-3.022.174-.091.586-.085.772.011m12.4.062c.24.131.442.337.576.589.078.146.092.232.092.572 0 .364-.01.418-.113.603-.067.121-.362.453-.73.82L19 6.859l-.93-.929-.929-.93.599-.602c.816-.819.935-.887 1.5-.867.285.011.374.032.552.128M15.94 8.08l.92.92-5.094 5.094-5.094 5.094-1.325.403c-.729.222-1.329.4-1.333.396s.126-.448.29-.987l.4-1.32.102-.34 5.087-5.09C12.69 9.45 14.989 7.16 15 7.16s.434.414.94.92m1.363 6.483c-.596.613-.725.814-.78 1.219a1.5 1.5 0 0 0 2.13 1.566c.158-.072.371-.249.783-.65l.567-.551.162.156c.089.087.196.224.238.305.104.201.104.583 0 .784-.042.081-.731.799-1.53 1.594-1.428 1.42-1.457 1.446-1.663 1.489a.9.9 0 0 1-.42 0c-.207-.043-.231-.064-1.94-1.769l-1.731-1.725 1.93-1.93 1.931-1.931.437.438.438.437z"/></svg>