<svg xmlns="http://www.w3.org/2000/svg" width="24" height="24" fill="none" stroke="currentColor" stroke-linecap="round" stroke-linejoin="round" stroke-width="3"><path fill="#000" fill-rule="evenodd" stroke="none" d="M11.462 1.562c-.88.138-.901.151-5.186 3.267-2.081 1.513-3.854 2.812-3.94 2.887-.491.427-.899 1.114-1.06 1.784-.114.472-.115 1.077-.003 1.5.125.474 2.927 9.156 3.029 9.389.154.349.454.776.754 1.074.494.492.998.78 1.656.948l.348.089H17.1l.32-.091c1.128-.319 2.02-1.114 2.435-2.17.177-.451 2.945-9.099 3.01-9.406.224-1.048-.266-2.422-1.116-3.132-.096-.081-1.893-1.378-3.992-2.883-4.007-2.872-4.22-3.012-4.857-3.178-.37-.096-1.081-.135-1.438-.078m.783 3.029c.079.038 1.814 1.266 3.855 2.729 3.903 2.798 3.869 2.77 3.798 3.013-.25.868-2.849 8.844-2.911 8.935a.6.6 0 0 1-.183.18c-.077.042-1.03.052-4.762.052-4.39 0-4.672-.004-4.773-.071a.7.7 0 0 1-.17-.165c-.088-.135-2.899-8.885-2.899-9.026 0-.072.042-.163.11-.236.162-.176 7.326-5.367 7.49-5.427.187-.069.273-.066.445.016"/></svg>