<svg xmlns="http://www.w3.org/2000/svg" width="24" height="24" fill="none" stroke="currentColor" stroke-linecap="round" stroke-linejoin="round" stroke-width="3"><path fill="#000" fill-rule="evenodd" stroke="none" d="M5.72 2.582c-1.637.35-2.899 1.648-3.164 3.252a5.3 5.3 0 0 0 0 1.332c.27 1.637 1.641 3.008 3.278 3.278.341.056.991.056 1.332 0 1.634-.27 3.008-1.644 3.278-3.278a5.3 5.3 0 0 0 0-1.332c-.229-1.39-1.301-2.659-2.624-3.106-.616-.208-1.517-.271-2.1-.146m12.796.995a2.3 2.3 0 0 0-.32.163c-.097.059-3.384 3.315-7.304 7.234-6.423 6.42-7.139 7.149-7.234 7.358a1.503 1.503 0 0 0 2.01 2.01c.209-.095.941-.814 7.4-7.274 6.46-6.459 7.179-7.191 7.274-7.4.354-.778.06-1.631-.694-2.012-.198-.101-.279-.117-.608-.125-.246-.006-.431.01-.524.046M7.023 5.662c.283.174.431.432.451.784.013.237 0 .305-.095.499-.349.713-1.379.724-1.748.018a.98.98 0 0 1 .418-1.341c.181-.092.251-.105.495-.094.232.011.319.035.479.134m9.697 7.92c-1.637.35-2.899 1.648-3.164 3.252a5.3 5.3 0 0 0 0 1.332c.235 1.426 1.306 2.669 2.698 3.13a3.7 3.7 0 0 0 1.246.191 3.7 3.7 0 0 0 1.246-.191c1.388-.46 2.463-1.707 2.698-3.13a5.3 5.3 0 0 0 0-1.332c-.229-1.39-1.301-2.659-2.624-3.106-.616-.208-1.517-.271-2.1-.146m1.303 3.08c.283.174.431.432.451.784.013.237 0 .305-.095.499-.349.713-1.379.724-1.748.018a.98.98 0 0 1 .418-1.341c.181-.092.251-.105.495-.094.232.011.319.035.479.134"/></svg>