<svg xmlns="http://www.w3.org/2000/svg" width="24" height="24" fill="none" stroke="currentColor" stroke-linecap="round" stroke-linejoin="round" stroke-width="3"><path fill="#000" fill-rule="evenodd" stroke="none" d="M11.38 2.574a2.73 2.73 0 0 0-1.279.795c-.21.239-.469.746-.542 1.064A3 3 0 0 0 9.51 5c0 .446.058.695.256 1.112.223.467.655.899 1.122 1.122.417.198.666.256 1.112.256s.695-.058 1.112-.256a2.5 2.5 0 0 0 1.122-1.122c.198-.417.256-.666.256-1.112s-.058-.695-.255-1.11c-.262-.55-.811-1.037-1.418-1.257-.295-.107-1.12-.141-1.437-.059m.964 2.082c.119.119.136.162.136.337 0 .242-.129.424-.343.483a.5.5 0 0 1-.514-.16c-.081-.096-.103-.166-.103-.323 0-.175.017-.218.136-.337s.161-.136.344-.136.224.016.344.136M5.5 6.593c-.571.243-.872.61-.977 1.189-.098.54.177 1.155.655 1.468.105.069 1.134.433 2.725.964l2.557.853.012 1.297.012 1.296-1.463 2.94c-1.056 2.122-1.474 3.001-1.503 3.158-.076.426.104.985.416 1.288.226.218.44.339.741.416.306.078.653.033.995-.129.42-.198.496-.314 1.443-2.203.477-.951.876-1.73.887-1.73s.41.779.887 1.73c.947 1.889 1.023 2.005 1.443 2.203.342.162.689.207.995.129a1.5 1.5 0 0 0 1.151-1.259c.026-.159.027-.325.004-.456-.026-.143-.488-1.112-1.501-3.147l-1.463-2.94.012-1.296.012-1.297 2.557-.853c1.591-.531 2.62-.895 2.725-.964.964-.631.865-2.072-.179-2.596-.18-.09-.289-.114-.569-.127l-.347-.015-2.863.954L12 8.419 9.148 7.47c-2.787-.928-2.859-.95-3.17-.948-.206.002-.374.026-.478.071"/></svg>