<svg xmlns="http://www.w3.org/2000/svg" width="24" height="24" fill="none" stroke="currentColor" stroke-linecap="round" stroke-linejoin="round" stroke-width="3"><path fill="#000" fill-rule="evenodd" stroke="none" d="M7.38 1.576A2.56 2.56 0 0 0 5.777 2.86c-.237.476-.261.623-.286 1.688l-.021.968-.945.012-.945.012-.228.116a1.51 1.51 0 0 0-.829 1.126 1.494 1.494 0 0 0 1.287 1.7c.138.02.57.037.96.037l.71.001v.996l-.95.012-.95.012-.228.116a1.51 1.51 0 0 0-.829 1.126 1.494 1.494 0 0 0 1.287 1.7c.138.02.569.037.959.037l.708.001.012 4.39.011 4.39.105.248c.25.595.761.938 1.395.938s1.145-.343 1.395-.938L8.5 21.3l.012-2.39.013-2.39h1.727c2.452 0 3.028-.057 4.092-.403 1.68-.546 3.232-1.791 4.097-3.287l.179-.309.66-.001c1.072-.002 1.398-.088 1.775-.465.726-.726.523-1.928-.407-2.399-.205-.104-.275-.117-.691-.13l-.463-.014.002-.496.001-.496.222-.001c.606-.002 1.017-.145 1.336-.464.726-.726.523-1.928-.407-2.399l-.228-.116-.887-.013-.886-.012-.221-.371c-.998-1.671-2.708-2.938-4.619-3.421-.747-.189-1.003-.203-3.692-.2-1.867.003-2.588.017-2.735.053m5.78 3.077c.445.127 1.271.526 1.5.725l.16.139-3.15.001-3.15.002V4.516l2.13.014 2.13.014zm3.311 4.357-.011.49-3.97.01-3.97.01v-1h7.962zm-1.729 3.546c-.083.135-.903.574-1.343.719-.617.203-.736.212-2.869.233l-2.01.02V12.52h3.122c1.844 0 3.114.015 3.1.036"/></svg>