<svg xmlns="http://www.w3.org/2000/svg" width="24" height="24" fill="none" stroke="currentColor" stroke-linecap="round" stroke-linejoin="round" stroke-width="3"><path fill="#000" fill-rule="evenodd" stroke="none" d="M3.48.56C2.478.731 1.451 1.5.985 2.429a3.67 3.67 0 0 0-.346 2.005c.315 3.003 1.414 6.178 3.045 8.802.318.51.462.681.705.836.985.628 2.291-.086 2.291-1.252 0-.36-.082-.582-.423-1.14C4.852 9.376 4.056 7.161 3.68 4.512c-.093-.653-.081-.731.145-.908.103-.082.143-.084 1.797-.084h1.692l.12.101c.137.116.181.234.246.659.111.734.295 1.478.587 2.375.129.397.174.591.156.679-.018.09-.22.321-.758.864-.403.408-.783.821-.843.917a1.43 1.43 0 0 0-.215.883c.019.385.154.687.431.964.49.49 1.257.58 1.847.218.273-.168 1.745-1.673 1.975-2.019a3.64 3.64 0 0 0 .566-2.121 4.2 4.2 0 0 0-.265-1.183c-.208-.563-.41-1.39-.543-2.217-.083-.513-.184-.853-.363-1.215C9.804 1.511 8.834.765 7.853.577 7.616.532 7.147.521 5.606.525 4.536.527 3.579.543 3.48.56m18.036.017a2.3 2.3 0 0 0-.32.163c-.097.059-4.734 4.665-10.304 10.234C1.734 20.129.753 21.122.658 21.332a1.502 1.502 0 0 0 2.01 2.009c.203-.092.536-.41 2.735-2.605l2.504-2.501.313.267c.456.387 1.159.91 1.8 1.339 2.863 1.917 5.913 3.066 9.278 3.498.559.071.863.076 1.222.019a3.54 3.54 0 0 0 2.725-2.163c.241-.594.255-.746.255-2.835 0-2.1-.011-2.215-.263-2.82-.4-.963-1.286-1.759-2.245-2.018a10 10 0 0 0-.792-.162 13 13 0 0 1-2.006-.503 9 9 0 0 0-.96-.261c-.582-.091-1.372.032-1.939.3-.399.189-.65.367-1.076.759l-.367.34-.318-.228a15 15 0 0 1-.489-.363l-.172-.136 5.182-5.184c4.642-4.645 5.192-5.208 5.287-5.416.354-.776.06-1.631-.692-2.011-.195-.099-.28-.116-.608-.125-.253-.007-.431.008-.526.045M11.42 15.934c.913.697 1.96 1.344 2.308 1.428.119.029.323.04.493.027.495-.038.645-.138 1.564-1.039.676-.662.825-.79.923-.79.064 0 .303.063.53.139.812.274 1.776.515 2.482.621.425.064.543.109.659.246l.101.12v1.681c0 1.876.004 1.845-.278 1.979-.132.063-.174.063-.662-.003a18.1 18.1 0 0 1-7.069-2.496c-.815-.493-1.667-1.091-2.223-1.561l-.213-.18.351-.352.35-.352.122.098c.067.054.32.25.562.434"/></svg>