<svg xmlns="http://www.w3.org/2000/svg" width="24" height="24" fill="none" stroke="currentColor" stroke-linecap="round" stroke-linejoin="round" stroke-width="3"><path fill="#000" fill-rule="evenodd" stroke="none" d="M18.72.519 15.58.54l-.228.116a1.51 1.51 0 0 0-.829 1.126 1.494 1.494 0 0 0 1.287 1.7c.138.02.762.037 1.388.037l1.138.001-1.786 1.792c-1.542 1.546-1.802 1.824-1.892 2.022a1.502 1.502 0 0 0 2.008 2.008c.198-.09.476-.35 2.018-1.888l1.789-1.783.014 1.315c.015 1.308.016 1.315.119 1.562.247.594.76.938 1.394.938s1.145-.343 1.395-.938L23.5 8.3l.012-3.118c.012-3.304.003-3.517-.171-3.86a1.73 1.73 0 0 0-.662-.662c-.178-.091-.625-.191-.759-.17a308 308 0 0 1-3.2.029M3.48.56C2.478.731 1.451 1.5.985 2.429a3.7 3.7 0 0 0-.347 2.005c.267 2.544 1.097 5.272 2.291 7.526 1.506 2.842 3.598 5.326 6.031 7.159 3.073 2.317 6.418 3.708 10.152 4.224.845.117 1.228.111 1.754-.027.659-.173 1.191-.492 1.682-1.009.546-.575.851-1.265.934-2.115.07-.713.027-3.727-.057-4.085a3.6 3.6 0 0 0-.976-1.722c-.611-.604-1.123-.837-2.249-1.025a13 13 0 0 1-2.006-.503 9 9 0 0 0-.96-.261c-.582-.091-1.372.032-1.939.3-.399.189-.65.367-1.076.76l-.368.34-.389-.279a14.3 14.3 0 0 1-3.232-3.253l-.225-.315.347-.376c.444-.478.692-.855.847-1.282.32-.885.309-1.695-.038-2.634-.208-.563-.41-1.39-.543-2.217-.083-.513-.184-.853-.363-1.215C9.804 1.511 8.834.765 7.853.577 7.616.532 7.147.521 5.606.525 4.536.527 3.579.543 3.48.56m3.954 3.061c.137.116.181.234.246.659.111.734.295 1.478.587 2.375.128.393.174.591.157.677-.018.088-.236.336-.797.905-.614.623-.794.831-.883 1.018a1.7 1.7 0 0 0-.106 1.017c.111.461 1.082 1.935 1.996 3.028.388.464 1.602 1.678 2.066 2.066 1.093.914 2.567 1.885 3.028 1.996.119.029.323.04.493.027.495-.038.645-.138 1.564-1.039.676-.662.825-.79.923-.79.064 0 .303.063.53.139.812.274 1.776.515 2.482.621.425.064.543.109.659.246l.101.12v1.712c0 1.695-.001 1.712-.087 1.821-.168.215-.287.233-.928.143-2.849-.4-5.367-1.37-7.825-3.015a18.2 18.2 0 0 1-4.915-4.898C5.051 9.951 4.092 7.456 3.682 4.527c-.09-.642-.073-.754.139-.92.109-.086.127-.087 1.801-.087h1.692z"/></svg>