<svg xmlns="http://www.w3.org/2000/svg" width="24" height="24" fill="none" stroke="currentColor" stroke-linecap="round" stroke-linejoin="round" stroke-width="3"><path fill="#000" fill-rule="evenodd" stroke="none" d="M7.54 2.523c-1.258.022-1.338.028-1.708.127a4.56 4.56 0 0 0-2.08 1.223 3.8 3.8 0 0 0-.814 1.181c-.311.655-.492 1.598-.415 2.161.163 1.205 1.668 1.704 2.532.84.279-.279.387-.538.45-1.08.08-.696.304-1.058.815-1.319.196-.1.271-.114.689-.128l.469-.016.011 7.394L7.5 20.3l.105.248c.25.595.761.938 1.395.938s1.145-.343 1.395-.938l.105-.248.011-7.39.011-7.39h2.958v5.69c.001 3.505.016 5.867.041 6.15.07.79.334 1.565.745 2.188.201.303.687.812 1.014 1.061.353.269 1.058.607 1.52.729.445.118 1.1.182 1.415.139a1.5 1.5 0 0 0 1.262-1.259 1.49 1.49 0 0 0-.413-1.262c-.29-.286-.527-.386-1.074-.454-.259-.032-.55-.093-.647-.137-.253-.111-.53-.384-.677-.664l-.126-.241-.011-5.97-.01-5.97 1.71-.001c.941 0 1.823-.017 1.961-.037a1.5 1.5 0 0 0 1.159-2.13c-.17-.364-.572-.698-.952-.791-.197-.048-10.54-.078-12.857-.038"/></svg>