<svg xmlns="http://www.w3.org/2000/svg" width="24" height="24" fill="none" stroke="currentColor" stroke-linecap="round" stroke-linejoin="round" stroke-width="3"><path fill="#000" fill-rule="evenodd" stroke="none" d="M7.84.019a10 10 0 0 1-.36.061c-.382.06-1.006.215-1.396.347-.375.127-1.251.543-1.613.765A8.45 8.45 0 0 0 .519 7.4C.489 7.665.48 9.702.49 14.12c.012 5.653.021 6.368.078 6.601.342 1.389 1.345 2.389 2.722 2.711.268.063.935.068 8.71.068s8.442-.005 8.71-.068c1.298-.303 2.276-1.216 2.65-2.47.154-.518.165-.928.15-5.563-.015-4.426-.016-4.462-.103-4.849-.368-1.625-1.361-2.882-2.826-3.574-.624-.295-1.013-.383-2.186-.493-.473-.044-.659-.105-1.023-.333-.385-.241-.585-.506-.849-1.13a8.2 8.2 0 0 0-1.761-2.583C13.59 1.262 12.196.506 10.52.137 10.054.034 9.948.026 8.96.016a25 25 0 0 0-1.12.003M10 3.095c1.764.407 3.124 1.568 3.826 3.265a5.06 5.06 0 0 0 3.685 3.036c.214.043.605.091.869.106.737.043 1.103.19 1.515.609.483.492.585.793.585 1.732v.674H3.532l-.022-2.329c-.016-1.826-.01-2.406.032-2.688.317-2.132 1.997-3.931 4.109-4.399.749-.167 1.642-.169 2.349-.006M4.487 16.91l.015 1.39.104.248c.248.594.76.938 1.394.938s1.146-.344 1.394-.938l.104-.248.015-1.39.014-1.39h.946l.014 1.39.015 1.39.104.248c.248.594.76.938 1.394.938s1.146-.344 1.394-.938l.104-.248.015-1.39.014-1.39h.946l.014 1.39.015 1.39.104.248c.248.594.76.938 1.394.938s1.146-.344 1.394-.938l.104-.248.015-1.39.014-1.39h.946l.014 1.39.015 1.39.104.248c.248.594.76.938 1.394.938s1.146-.344 1.394-.938l.104-.248.015-1.39.014-1.39h.953v4.674l-.103.122a.6.6 0 0 1-.25.163c-.204.056-16.05.056-16.254 0a.6.6 0 0 1-.25-.163l-.103-.122V15.52h.953z"/></svg>