<svg xmlns="http://www.w3.org/2000/svg" width="24" height="24" fill="none" stroke="currentColor" stroke-linecap="round" stroke-linejoin="round" stroke-width="3"><path fill="#000" fill-rule="evenodd" stroke="none" d="M8.18.959c-.93.064-1.708.19-2.64.428-.683.175-.961.315-1.301.653-.305.303-.471.575-.622 1.02-.091.268-.109.388-.109.74s.018.472.109.74c.283.831.809 1.355 1.666 1.657 1.513.534 3.229 1.386 4.442 2.207l.226.153-.02.191-.02.192-3.791 3.8c-3.266 3.274-3.822 3.847-4.01 4.14-.42.655-.6 1.255-.6 2 0 .741.183 1.353.59 1.98a3.59 3.59 0 0 0 2.98 1.629c.814.003 1.483-.207 2.16-.68.158-.11 1.737-1.654 4.04-3.951l3.78-3.769.194-.02.194-.02.291.445c.78 1.198 1.56 2.795 2.065 4.226.344.976 1.033 1.573 2.013 1.745.965.169 2.065-.351 2.524-1.194.18-.33.431-1.315.575-2.253.418-2.72.008-5.548-1.163-8.023l-.201-.426.162-.269c.276-.457.346-.722.346-1.3 0-.531-.041-.719-.25-1.14-.167-.335-.467-.665-1.897-2.08-1.47-1.456-1.618-1.576-2.173-1.751-.222-.07-.376-.089-.74-.089-.547 0-.869.085-1.294.342l-.274.166-.446-.209a13.6 13.6 0 0 0-4.366-1.218A17.5 17.5 0 0 0 8.18.959m1.64 3.003c.723.053 1.394.161 2.064.334.56.144 1.236.372 1.236.418 0 .015-.312.338-.693.719l-.692.691-.571-.364c-.315-.201-.808-.5-1.098-.665-.522-.298-1.88-.98-2.059-1.034-.157-.048-.058-.079.326-.104.606-.04.899-.039 1.487.005m8.12 2.118.92.92-1.93 1.93L15 10.86l-.93-.93-.93-.93 1.92-1.92A134 134 0 0 1 17 5.16c.011 0 .434.414.94.92m1.5 5.15c.299.824.524 1.932.603 2.97.044.575.017 1.783-.04 1.818-.016.01-.162-.265-.326-.61a23 23 0 0 0-1.609-2.843l-.197-.295.694-.695c.382-.382.706-.695.721-.695.014 0 .084.157.154.35M8.888 15.972c-3.754 3.754-3.565 3.585-3.918 3.506a.64.64 0 0 1-.3-.194c-.14-.151-.15-.177-.15-.412v-.251l3.49-3.49 3.489-3.491.431.43.431.429z"/></svg>