<svg xmlns="http://www.w3.org/2000/svg" width="24" height="24" fill="none" stroke="currentColor" stroke-linecap="round" stroke-linejoin="round" stroke-width="3"><path fill="#000" fill-rule="evenodd" stroke="none" d="M3.44 2.547C2.246 2.752 1.176 3.608.756 4.696.489 5.388.506 5.02.49 10.7c-.014 5.377-.005 5.738.154 6.275.412 1.386 1.583 2.351 3.039 2.504.471.05 4.168.052 4.507.003a1.494 1.494 0 0 0 1.287-1.7 1.51 1.51 0 0 0-.829-1.126l-.228-.116-2.28-.02c-2.432-.021-2.372-.016-2.537-.225l-.083-.106V5.792l.136-.136.136-.136h15.407l.13.117.131.116.02 1.774.021 1.773.104.248c.249.594.761.938 1.395.938s1.145-.344 1.395-.938l.104-.248.014-1.568c.014-1.669-.018-2.239-.153-2.694-.349-1.171-1.216-2.038-2.407-2.407l-.293-.091-8.06-.005c-4.433-.002-8.105.003-8.16.012m10 9a3.56 3.56 0 0 0-2.888 2.841c-.073.385-.073 3.839 0 4.224.221 1.168 1.036 2.177 2.116 2.617.689.281.535.271 4.332.271 3.075 0 3.449-.007 3.71-.068a3.7 3.7 0 0 0 1.798-1.004c.573-.6.883-1.272.971-2.111.051-.489.051-3.145 0-3.634-.154-1.465-1.106-2.614-2.526-3.051l-.293-.09-3.56-.006a202 202 0 0 0-3.66.011m6.904 3.109.136.136v3.402l-.103.122a.6.6 0 0 1-.25.163c-.201.056-6.053.056-6.254 0a.6.6 0 0 1-.25-.163l-.103-.122v-3.402l.136-.136.136-.136h6.416z"/></svg>