<svg xmlns="http://www.w3.org/2000/svg" width="24" height="24" fill="none" stroke="currentColor" stroke-linecap="round" stroke-linejoin="round" stroke-width="3"><path fill="#000" fill-rule="evenodd" stroke="none" d="M1.614 2.057c-.702.17-1.207.937-1.092 1.656.081.502.099.523 2.049 2.477L4.378 8l-.739.001c-.862.001-1.14.047-1.438.238-.906.582-.916 1.92-.018 2.515.349.231.28.226 3.317.226 2.11 0 2.84-.012 2.962-.049.392-.12.771-.489.945-.921l.093-.23V4.22l-.091-.226c-.287-.71-.942-1.08-1.688-.954-.503.085-.928.445-1.126.954-.077.199-.09.324-.106 1.041l-.018.814L4.685 4.07C3.612 2.999 2.828 2.25 2.72 2.189a1.52 1.52 0 0 0-1.106-.132m10.023.997c-.448.098-.863.472-1.038.936-.283.75.124 1.63.889 1.924.154.059.565.068 3.952.086 2.856.015 3.801.032 3.865.068.162.094.172.204.185 1.992.012 1.687.014 1.724.104 1.95.172.432.553.803.944.92.089.026.297.048.462.048s.373-.022.462-.048c.39-.117.77-.487.945-.92.093-.229.093-.237.093-2.09 0-2.021-.01-2.132-.238-2.74-.368-.976-1.265-1.776-2.322-2.069-.32-.089-.325-.089-4.2-.098-2.93-.006-3.935.004-4.103.041m-9 9.001c-.445.096-.857.466-1.042.935-.084.214-.091.306-.106 1.288-.019 1.206.025 1.771.175 2.229.345 1.058 1.193 1.934 2.22 2.292.548.191.746.205 2.676.193 1.54-.01 1.803-.021 1.952-.078 1.15-.441 1.318-2.013.287-2.675-.342-.219-.515-.237-2.294-.238-1.519-.001-1.602-.005-1.723-.08-.248-.153-.259-.215-.274-1.521-.013-1.113-.018-1.193-.104-1.41-.187-.479-.596-.84-1.06-.937a1.36 1.36 0 0 0-.707.002m10.768.005c-.405.074-.65.159-1.024.353-.932.483-1.557 1.305-1.809 2.378-.064.275-.072.516-.072 2.209s.008 1.934.072 2.209c.339 1.443 1.386 2.458 2.822 2.734.432.084 6.78.084 7.212 0 1.446-.278 2.513-1.322 2.825-2.762.06-.279.069-.567.069-2.201 0-1.674-.008-1.914-.072-2.189-.259-1.101-.906-1.931-1.879-2.41a5 5 0 0 0-.689-.271c-.318-.088-.342-.088-3.74-.096-2.731-.007-3.479.003-3.715.046m6.821 3.005c.255.121.254.115.254 1.935s.001 1.814-.254 1.935c-.124.058-.451.065-3.226.065-3.399 0-3.292.008-3.422-.243-.086-.167-.086-3.347 0-3.513.129-.25.012-.242 3.416-.243 2.782-.001 3.108.006 3.232.064"/></svg>