<svg xmlns="http://www.w3.org/2000/svg" width="24" height="24" fill="none" stroke="currentColor" stroke-linecap="round" stroke-linejoin="round" stroke-width="3"><path fill="#000" fill-rule="evenodd" stroke="none" d="M11.516.579a1.53 1.53 0 0 0-1.001 1.256c-.022.162-.033 2.326-.026 5.368L10.5 12.3l.105.248q.25.597.847.847l.248.105h10.6l.248-.105q.601-.253.844-.847c.094-.229.101-.291.095-.824-.027-2.492-.977-5.055-2.604-7.024A11.5 11.5 0 0 0 13.9.663c-.891-.148-2.097-.19-2.384-.084m-3.776.78c-.242.051-.553.182-1.041.437A11.486 11.486 0 0 0 1.68 17.06a11.52 11.52 0 0 0 5.608 5.424 11.53 11.53 0 0 0 11.157-.968A12.2 12.2 0 0 0 20.96 19.2c.736-.924 1.547-2.34 1.705-2.978.166-.672-.176-1.369-.825-1.678-.234-.112-.298-.124-.64-.124-.327 0-.411.015-.6.104-.39.186-.577.391-.829.911a10.6 10.6 0 0 1-.782 1.385c-1.317 1.913-3.369 3.2-5.709 3.582-1.01.164-2.3.095-3.41-.185-2.888-.728-5.232-3.027-6.048-5.932-.193-.686-.268-1.22-.29-2.065-.037-1.439.202-2.604.789-3.849.829-1.758 2.15-3.092 3.991-4.027.661-.335.86-.504 1.028-.871.446-.979-.153-2.023-1.22-2.126a1.6 1.6 0 0 0-.38.012m6.345 2.405c2.073.522 3.871 1.816 5.065 3.644.462.708.87 1.65 1.086 2.507.068.272.124.519.124.55 0 .046-.539.055-3.42.055h-3.42V7.08c0-1.952.015-3.44.035-3.44s.258.056.53.124"/></svg>