<svg xmlns="http://www.w3.org/2000/svg" width="24" height="24" fill="none" stroke="currentColor" stroke-linecap="round" stroke-linejoin="round" stroke-width="3"><path fill="#000" fill-rule="evenodd" stroke="none" d="M18.4 3.545c-1.04.189-1.898.633-2.737 1.418l-.261.244-.571-.103c-.77-.139-1.309-.184-2.202-.184-2.771 0-5.238.821-6.979 2.322a6.4 6.4 0 0 0-1.818 2.701 9 9 0 0 1-.145.417c-.008.011-.048-.022-.09-.074-.068-.083-.077-.164-.078-.66-.001-.689-.042-1-.171-1.276-.123-.265-.405-.545-.7-.694C2.44 7.55 2.384 7.54 2 7.54s-.44.01-.648.116A1.51 1.51 0 0 0 .518 8.81c-.048.33-.046 1.038.003 1.507.115 1.095.691 2.045 1.582 2.612.418.266.801.416 1.341.528.096.02.107.043.131.281.035.339.184.921.34 1.325.228.587.672 1.24 1.232 1.807l.326.331.014 1.549.014 1.55.104.248q.25.596.847.847l.248.105 2.087.013c2.218.013 2.518-.004 2.862-.164.394-.184.75-.639.817-1.046l.026-.157.053.207c.076.297.181.48.401.702.239.241.529.38.898.431.165.023 1.152.034 2.369.027L18.3 21.5l.248-.105q.597-.25.847-.847l.105-.248.013-1.72.014-1.72.205-.14c.358-.243.72-.576.965-.888l.237-.301.683-.02c.612-.017.709-.029.931-.12.394-.159.679-.443.847-.843l.105-.248.013-2.087c.007-1.217-.004-2.204-.027-2.369-.075-.538-.364-.948-.838-1.188-.216-.11-.259-.117-.831-.129l-.603-.014-.122-.247a4 4 0 0 0-.347-.547l-.225-.299-.001-1.18c0-.649-.017-1.292-.037-1.43a1.51 1.51 0 0 0-.834-1.154c-.209-.106-.267-.117-.688-.123a6 6 0 0 0-.56.012m-.839 4.859c.069.256.211.478.517.806.148.16.294.335.323.39s.076.265.102.466c.059.452.183.73.442.989.317.317.73.462 1.325.464l.21.001v.991l-.45.016c-.397.015-.477.03-.68.131a2 2 0 0 0-.403.285c-.169.167-.212.24-.466.786-.149.321-.346.49-.967.834-.636.353-.907.684-.995 1.219-.021.131-.039.8-.039 1.488v1.25h-.96l-.001-.23c-.003-.816-.279-1.334-.871-1.634l-.228-.116h-3.84l-.228.116c-.592.3-.868.818-.871 1.634l-.001.23h-.96v-.99c0-.545-.019-1.107-.043-1.25-.07-.435-.236-.684-.739-1.105-1.073-.898-1.24-1.309-1.209-2.974.015-.8.027-.932.108-1.181a3.44 3.44 0 0 1 1.088-1.605c.655-.527 1.334-.869 2.253-1.133.994-.286 1.82-.382 2.995-.349.996.028 1.402.095 2.188.358.67.224.864.252 1.179.168a1.54 1.54 0 0 0 1.005-.807l.113-.232.028.404c.015.222.049.483.075.58m-2.045 1.173c-1.049.399-1.349 1.701-.571 2.478.58.58 1.53.583 2.107.007a1.47 1.47 0 0 0 0-2.124c-.292-.292-.55-.395-1.012-.407-.247-.006-.431.01-.524.046"/></svg>