<svg xmlns="http://www.w3.org/2000/svg" width="24" height="24" fill="none" stroke="currentColor" stroke-linecap="round" stroke-linejoin="round" stroke-width="3"><path fill="#000" fill-rule="evenodd" stroke="none" d="m8.04 1.523-1.82.023-.379.108c-1.294.372-2.299 1.202-2.88 2.378a5.2 5.2 0 0 0-.402 1.248c-.059.334-.059 1.106 0 1.44.295 1.676 1.433 3.008 3.026 3.543.54.181.822.218 1.882.244l1.007.025.013 1.884L8.5 14.3l.105.248c.25.595.761.938 1.395.938s1.145-.343 1.395-.938l.105-.248.011-4.89.011-4.89h.956l.011 4.89.011 4.89.105.248c.25.595.761.938 1.395.938s1.145-.343 1.395-.938l.105-.248.011-4.944.011-4.945.155-.07c.222-.1.557-.445.672-.693a1.56 1.56 0 0 0 0-1.296c-.17-.363-.571-.697-.952-.791-.206-.052-4.513-.074-7.357-.038m.44 4.497v1.5l-.71-.001a10 10 0 0 1-.96-.037 1.51 1.51 0 0 1-1.154-.834C5.55 6.44 5.54 6.384 5.54 6c0-.365.013-.446.098-.62.174-.353.521-.67.878-.801.103-.038.402-.054 1.054-.056l.91-.003zm9.036 6.557c-.855.325-1.24 1.255-.862 2.082.081.176.27.392.91 1.041l.808.819-8.396.011-8.396.01-.228.116a1.51 1.51 0 0 0-.829 1.126 1.494 1.494 0 0 0 1.287 1.7c.142.021 3.762.037 8.386.037l8.137.001-.789.8c-.85.862-.961 1.021-1.021 1.462-.163 1.2 1.031 2.069 2.145 1.56.203-.093.499-.373 2.398-2.274 1.689-1.69 2.189-2.213 2.269-2.374.21-.423.21-.965 0-1.388-.08-.161-.576-.678-2.269-2.368-2.487-2.483-2.372-2.392-3.026-2.407-.246-.006-.431.01-.524.046"/></svg>