<svg xmlns="http://www.w3.org/2000/svg" width="24" height="24" fill="none" stroke="currentColor" stroke-linecap="round" stroke-linejoin="round" stroke-width="3"><path fill="#000" fill-rule="evenodd" stroke="none" d="M10.74 2.524c-1.33.015-2.19.041-2.308.069a9 9 0 0 0-.952.265 6 6 0 0 0-3.541 7.882C4.5 12.19 5.81 13.5 7.26 14.061c.92.356 1.332.419 2.928.447l1.288.023.012 2.884.012 2.885.105.248c.25.595.761.938 1.395.938s1.145-.343 1.395-.938l.105-.248.011-7.39.011-7.39h.956l.011 7.39.011 7.39.105.248c.25.595.761.938 1.395.938s1.145-.343 1.395-.938l.105-.248.011-7.39.011-7.39.209-.001c.594-.002 1.008-.147 1.324-.464a1.51 1.51 0 0 0 .294-1.703c-.17-.364-.572-.697-.952-.791-.21-.051-5.418-.074-8.657-.037m.74 5.996v3h-.97c-1.126-.001-1.555-.041-2-.188-.919-.304-1.73-1.21-1.931-2.158A4.1 4.1 0 0 1 6.58 7.82c.032-.154.139-.442.238-.64A2.95 2.95 0 0 1 8.18 5.818c.538-.269.693-.291 2.09-.295l1.21-.003z"/></svg>