<svg xmlns="http://www.w3.org/2000/svg" width="24" height="24" fill="none" stroke="currentColor" stroke-linecap="round" stroke-linejoin="round" stroke-width="3"><path fill="#000" fill-rule="evenodd" stroke="none" d="m12.04 1.523-1.82.023-.379.108c-1.294.372-2.299 1.202-2.88 2.378a5.2 5.2 0 0 0-.402 1.248c-.059.334-.059 1.106 0 1.44.295 1.676 1.433 3.008 3.026 3.543.54.181.822.218 1.882.244l1.007.025.013 1.884.013 1.884.105.248c.25.595.761.938 1.395.938s1.145-.343 1.395-.938l.105-.248.011-4.89.011-4.89h.956l.011 4.89.011 4.89.105.248c.25.595.761.938 1.395.938s1.145-.343 1.395-.938l.105-.248.011-4.89.011-4.89.209-.001c.594-.002 1.008-.147 1.324-.464a1.51 1.51 0 0 0 .294-1.703c-.17-.364-.572-.697-.952-.791-.205-.05-5.468-.074-8.357-.038m.44 4.497v1.5l-.71-.001a10 10 0 0 1-.96-.037 1.51 1.51 0 0 1-1.154-.834C9.55 6.44 9.54 6.384 9.54 6c0-.365.013-.446.098-.62.174-.353.521-.67.878-.801.103-.038.402-.054 1.054-.056l.91-.003zm-6.964 6.557a2.3 2.3 0 0 0-.32.163c-.097.06-1.134 1.065-2.304 2.234C1.044 16.82.75 17.13.66 17.327c-.207.454-.205.945.005 1.367.08.161.58.684 2.269 2.374 1.899 1.901 2.195 2.181 2.398 2.274 1.114.509 2.308-.36 2.145-1.56-.06-.441-.171-.6-1.021-1.462l-.789-.8 8.137-.001c4.624 0 8.244-.016 8.386-.037a1.494 1.494 0 0 0 1.287-1.7 1.51 1.51 0 0 0-.829-1.126l-.228-.116-8.396-.01-8.396-.011.808-.819c.64-.649.829-.865.91-1.041a1.505 1.505 0 0 0-.698-2.003c-.198-.101-.279-.117-.608-.125-.246-.006-.431.01-.524.046"/></svg>