<svg xmlns="http://www.w3.org/2000/svg" width="24" height="24" fill="none" stroke="currentColor" stroke-linecap="round" stroke-linejoin="round" stroke-width="3"><path fill="#000" fill-rule="evenodd" stroke="none" d="M16.24.56a6.76 6.76 0 0 0-2.853 1.092c-.194.132-.599.47-.9.75S9.733 5.123 7.036 7.826c-3.337 3.344-4.995 5.033-5.19 5.288a6.6 6.6 0 0 0-1.288 3.181c-.067.534-.028 1.484.082 2 .28 1.318.834 2.341 1.779 3.286.949.949 1.954 1.492 3.307 1.786.354.077.533.09 1.234.09.699 0 .88-.013 1.231-.09 1.086-.236 1.899-.605 2.729-1.239.462-.354 10.854-10.745 11.208-11.208a6.6 6.6 0 0 0 1.314-3.215c.067-.534.028-1.484-.082-2-.259-1.221-.812-2.287-1.634-3.151A6.34 6.34 0 0 0 18.252.638C17.766.541 16.684.5 16.24.56m1.38 3.018c1.097.196 2.002.868 2.483 1.842.575 1.165.478 2.459-.265 3.54-.084.121-1.094 1.16-2.245 2.31L15.5 13.36l-2.43-2.43-2.43-2.43 2.13-2.125c1.171-1.169 2.211-2.179 2.31-2.244.775-.516 1.667-.71 2.54-.553m-6.35 14.014c-1.935 1.937-2.354 2.326-2.699 2.503a4.8 4.8 0 0 1-.965.324c-.946.199-2.046-.083-2.821-.722-1.385-1.142-1.663-3.102-.654-4.617.065-.099 1.075-1.139 2.244-2.31L8.5 10.64l2.43 2.43 2.43 2.43z"/></svg>