<svg xmlns="http://www.w3.org/2000/svg" width="24" height="24" fill="none" stroke="currentColor" stroke-linecap="round" stroke-linejoin="round" stroke-width="3"><path fill="#000" fill-rule="evenodd" stroke="none" d="M4.38.576c-.452.112-.95.421-1.279.793-.209.237-.465.739-.547 1.071-.078.317-.078 3.803 0 4.12.175.713.7 1.372 1.334 1.674.183.087.39.171.461.185l.128.027.014 6.007c.011 5.346.02 6.036.077 6.268.341 1.389 1.345 2.389 2.722 2.711.263.062.695.068 4.71.068s4.447-.006 4.71-.068a3.7 3.7 0 0 0 1.798-1.004c.573-.6.883-1.272.971-2.111.024-.231.04-2.606.04-6.124l.001-5.747.13-.026c.072-.015.279-.099.462-.186.467-.223.9-.655 1.122-1.122.265-.557.266-.566.266-2.612 0-2.045-.001-2.055-.265-2.61-.261-.548-.8-1.027-1.418-1.26L19.58.54l-7.5-.007C6.222.528 4.536.537 4.38.576m14.1 3.943v.999H5.52V3.52h12.96zm-2 4.499v.498l-1.53.012c-1.471.012-1.539.016-1.767.102-.372.14-.656.326-.968.634a2.57 2.57 0 0 0-.661 1.176c-.079.322-.079 5.798 0 6.12a2.62 2.62 0 0 0 1.806 1.866c.177.052.501.068 1.67.083l1.45.019v.333c0 .299-.01.345-.103.455a.6.6 0 0 1-.25.163c-.202.056-8.052.056-8.254 0a.6.6 0 0 1-.25-.163l-.103-.122V8.52h8.96zm0 5.502v2h-1.96v-4h1.96z"/></svg>