<svg xmlns="http://www.w3.org/2000/svg" width="24" height="24" fill="none" stroke="currentColor" stroke-linecap="round" stroke-linejoin="round" stroke-width="3"><path fill="#000" fill-rule="evenodd" stroke="none" d="M1.516.577C.655.907.276 1.831.659 2.668c.093.206.484.611 3.463 3.593L7.48 9.622v.664c0 .615-.006.671-.085.771-.053.067-.406.269-.953.542-.479.239-1.021.525-1.206.634a3.53 3.53 0 0 0-1.664 2.303c-.084.375-.096 1.704-.018 2.024.217.883.909 1.6 1.806 1.868.191.057.543.068 2.667.082l2.447.015.013 1.888.013 1.887.105.248c.25.595.761.938 1.395.938s1.145-.343 1.395-.938l.105-.248.013-1.89.013-1.89h2.851l2.362 2.358c2.069 2.065 2.391 2.371 2.593 2.464a1.503 1.503 0 0 0 2.01-2.01c-.095-.21-1.076-1.202-10.274-10.395C1.635-.49 2.738.551 2.042.532c-.253-.007-.431.008-.526.045M7.444.566c-.196.057-.522.275-.68.455a2 2 0 0 0-.24.377c-.089.19-.104.276-.104.602 0 .329.015.411.107.609a1.52 1.52 0 0 0 1.153.869c.166.027 1.755.042 4.394.042h4.134l.136.136c.118.118.136.162.136.335 0 .208-.086.367-.247.453-.044.023-.248.059-.454.078-.65.062-1.083.267-1.564.742a1.9 1.9 0 0 0-.447.62c-.262.55-.268.603-.268 2.256 0 1.456.002 1.484.093 1.71.175.433.555.803.945.92.089.026.297.048.462.048s.373-.022.462-.048c.392-.118.775-.491.942-.92.084-.214.091-.308.107-1.312l.017-1.081.23-.044c.324-.062.863-.29 1.165-.494 1.091-.738 1.682-1.98 1.552-3.265-.145-1.427-1.113-2.588-2.522-3.023l-.293-.09-4.54-.007C9.215.529 7.531.54 7.444.566m4.313 13.331 1.617 1.617-3.427.004-3.427.004v-.236c0-.176.02-.261.082-.339.05-.064.464-.297 1.07-.603A23 23 0 0 0 8.9 13.69c.471-.305.963-.837 1.164-1.26.039-.082.072-.15.074-.15z"/></svg>