<svg xmlns="http://www.w3.org/2000/svg" width="24" height="24" fill="none" stroke="currentColor" stroke-linecap="round" stroke-linejoin="round" stroke-width="3"><path fill="#000" fill-rule="evenodd" stroke="none" d="M7.44.547C5.989.798 4.819 1.943 4.559 3.364c-.06.328-.06.944 0 1.272.164.898.732 1.752 1.518 2.283.304.205.841.433 1.17.495l.233.044v1.746c0 1.716-.001 1.747-.085 1.853-.053.067-.406.269-.953.542-.479.239-1.021.525-1.206.634a3.53 3.53 0 0 0-1.664 2.303c-.084.375-.096 1.704-.018 2.024.217.883.909 1.6 1.806 1.868.191.057.543.068 2.667.082l2.447.015.013 1.888.013 1.887.105.248c.25.595.761.938 1.395.938s1.145-.343 1.395-.938l.105-.248.013-1.887.013-1.888 2.447-.015c2.712-.018 2.604-.008 3.181-.293.43-.212.869-.662 1.08-1.105a4 4 0 0 0 .212-.552c.078-.317.065-1.647-.019-2.024a3.52 3.52 0 0 0-1.663-2.303 28 28 0 0 0-1.206-.634c-.547-.273-.9-.475-.953-.542-.084-.106-.085-.137-.085-1.853V7.458l.233-.044c.329-.062.866-.29 1.17-.495 1.091-.738 1.682-1.98 1.552-3.265-.145-1.427-1.113-2.588-2.522-3.023l-.293-.09L12.1.536C9.592.532 7.495.538 7.44.547m8.904 3.109c.118.118.136.162.136.335 0 .208-.086.367-.247.453-.044.023-.248.059-.454.078-.65.062-1.083.267-1.564.742a2.57 2.57 0 0 0-.661 1.176c-.079.322-.078 4.538.001 4.94a3.6 3.6 0 0 0 1.545 2.31c.132.086.684.379 1.226.652.622.313 1.018.535 1.07.602.064.081.084.164.084.341v.234H6.52v-.234c0-.175.021-.26.082-.338.05-.064.464-.297 1.07-.603A23 23 0 0 0 8.9 13.69a3.6 3.6 0 0 0 1.545-2.31c.079-.402.08-4.618.001-4.94a2.57 2.57 0 0 0-.658-1.17c-.479-.479-.912-.686-1.567-.748-.206-.019-.41-.055-.454-.078-.161-.086-.247-.245-.247-.453 0-.173.018-.217.136-.335l.136-.136h8.416z"/></svg>