<svg xmlns="http://www.w3.org/2000/svg" width="24" height="24" fill="none" stroke="currentColor" stroke-linecap="round" stroke-linejoin="round" stroke-width="3"><path fill="#000" fill-rule="evenodd" stroke="none" d="M19.44.504c-.621.114-1.124.307-1.567.6-.199.131-.722.617-1.633 1.517L14.9 3.946l-.34-.147c-.538-.233-.862-.299-1.46-.299-.766 0-1.399.187-2.007.592a4.7 4.7 0 0 0-.915.868c-.3.406-.575 1.06-.655 1.56-.118.727.02 1.591.356 2.234l.075.146L5.865 13c-4.451 4.462-4.255 4.246-4.343 4.8-.023.143-.042.779-.042 1.414v1.154l-.366.386c-.399.421-.542.67-.591 1.028a1.493 1.493 0 0 0 1.695 1.695c.358-.049.607-.192 1.028-.591l.386-.366h1.154c.635 0 1.271-.019 1.414-.042.554-.088.338.108 4.8-4.343l4.1-4.089.146.075a3.7 3.7 0 0 0 2.311.337c2.378-.451 3.663-3.062 2.565-5.215l-.077-.149 1.062-1.057c1.266-1.261 1.682-1.717 1.896-2.077 1.251-2.106.142-4.742-2.263-5.38-.234-.062-1.101-.113-1.3-.076m.693 3.031c.17.07.337.272.369.443.06.316.083.288-1.885 2.265-2.01 2.018-2.026 2.038-2.094 2.539-.074.544.077.919.589 1.465.274.292.37.424.391.534.083.443-.348.835-.777.705-.115-.034-.577-.476-2.173-2.075-1.805-1.808-2.031-2.048-2.055-2.185a.625.625 0 0 1 .728-.728c.102.02.244.125.527.39.546.512.921.663 1.465.589.502-.068.523-.085 2.52-2.076 1.013-1.01 1.887-1.855 1.942-1.876a.6.6 0 0 1 .453.01M12.44 11.58l.419.421L9.1 15.76l-3.76 3.76h-.82v-.9l3.73-3.73c2.051-2.051 3.739-3.73 3.751-3.73.011 0 .209.189.439.42"/></svg>