<svg xmlns="http://www.w3.org/2000/svg" width="24" height="24" fill="none" stroke="currentColor" stroke-linecap="round" stroke-linejoin="round" stroke-width="3"><path fill="#000" fill-rule="evenodd" stroke="none" d="m15.66.54-.54.16c-2.846.838-5.541 2.314-7.88 4.315-.595.508-1.905 1.834-2.398 2.425A21.7 21.7 0 0 0 .828 14.7c-.307.953-.369 1.251-.314 1.523a1.57 1.57 0 0 0 1.013 1.191c.47.168 19.905 5.987 20.207 6.051q.716.15 1.286-.388c.356-.337.528-.823.455-1.287-.033-.21-5.917-19.877-6.083-20.33-.066-.183-.15-.303-.35-.504-.331-.333-.581-.437-1.034-.433a3 3 0 0 0-.348.017m-.537 3.763c.064.214.117.41.117.434s-.113.086-.25.139c-.415.157-1.416.64-1.99.958-3.001 1.667-5.589 4.274-7.25 7.306-.28.512-.718 1.438-.875 1.85-.053.142-.119.25-.15.25s-.232-.054-.447-.121l-.391-.12.158-.407c.23-.589.367-.895.72-1.601 1.812-3.624 4.72-6.502 8.395-8.308.66-.325 1.799-.81 1.833-.782.007.006.065.187.13.402m2.824 9.407a879 879 0 0 1 1.798 6.038c-.005.005-2.721-.805-6.037-1.799-4.06-1.218-6.028-1.826-6.028-1.862 0-.081.498-1.135.749-1.585 1.234-2.211 3.07-4.178 5.155-5.523.751-.485 2.309-1.295 2.496-1.297.045-.001.505 1.484 1.867 6.028m-3.431-4.133c-1.049.399-1.349 1.701-.571 2.478.58.58 1.53.583 2.107.007a1.47 1.47 0 0 0 0-2.124c-.292-.292-.55-.395-1.012-.407-.247-.006-.431.01-.524.046m-4 4c-1.049.399-1.349 1.701-.571 2.478.58.58 1.53.583 2.107.007a1.47 1.47 0 0 0 0-2.124c-.292-.292-.55-.395-1.012-.407-.247-.006-.431.01-.524.046m5 1c-1.049.399-1.349 1.701-.571 2.478.58.58 1.53.583 2.107.007a1.47 1.47 0 0 0 0-2.124c-.292-.292-.55-.395-1.012-.407-.247-.006-.431.01-.524.046"/></svg>