<svg xmlns="http://www.w3.org/2000/svg" width="24" height="24" fill="none" stroke="currentColor" stroke-linecap="round" stroke-linejoin="round" stroke-width="3"><path fill="#000" fill-rule="evenodd" stroke="none" d="M10.543 1.084a1.7 1.7 0 0 0-.663.414c-.055.059-.615 1.135-1.244 2.391L7.493 6.173l-.05-.255a3.2 3.2 0 0 0-1.2-1.901c-.349-.263-1.554-.876-1.891-.962-.463-.119-1.009.024-1.382.361-.217.195-.292.349-1.426 2.908C.857 7.872.546 8.618.52 8.781c-.048.292.031.706.184.973.132.23 2.056 2.162 2.416 2.425.168.123 2.681 1.4 7.08 3.598 7.319 3.657 7.074 3.544 7.883 3.635.338.037.481.03 1.244-.065 1.005-.126 1.39-.217 1.766-.42a2.91 2.91 0 0 0 1.348-3.615c-.09-.24-.708-1.338-.974-1.731a4.2 4.2 0 0 0-.947-.943c-.142-.098-1.329-.718-2.637-1.378-1.629-.821-2.402-1.232-2.45-1.3-.054-.077-.153-.729-.434-2.84-.201-1.507-.389-2.857-.42-3a3.26 3.26 0 0 0-.635-1.402c-.402-.534-.807-.828-1.885-1.368-.73-.366-1.057-.424-1.516-.266m1.474 6.418c.209 1.561.409 2.946.444 3.077a3.6 3.6 0 0 0 1.413 1.985c.167.112 1.33.717 2.585 1.345 1.254.627 2.329 1.175 2.387 1.216.127.089.736 1.111.688 1.154-.019.016-.286.059-.594.096-.429.05-.596.056-.715.022-.085-.024-3.109-1.519-6.72-3.322L4.94 9.796l-.571-.57-.572-.569.368-.83.369-.829.073.289a3.2 3.2 0 0 0 1.306 1.811c.152.098.596.337.987.53l.711.352.364-.002c.45-.002.712-.095 1.016-.362.203-.177.261-.282 1.413-2.585.661-1.319 1.208-2.392 1.217-2.383s.187 1.293.396 2.854M1.516 20.579c-.365.134-.71.443-.864.773a1.5 1.5 0 0 0 1.158 2.13c.331.048 20.049.048 20.38 0a1.494 1.494 0 0 0 1.287-1.7 1.51 1.51 0 0 0-.829-1.126l-.228-.116-10.38-.007c-8.563-.006-10.405.002-10.524.046"/></svg>