<svg xmlns="http://www.w3.org/2000/svg" width="24" height="24" fill="none" stroke="currentColor" stroke-linecap="round" stroke-linejoin="round" stroke-width="3"><path fill="#000" fill-rule="evenodd" stroke="none" d="M19.409 1.36c-1.099.154-2.347.721-3.349 1.522-.176.141-1.049.98-1.941 1.865l-1.621 1.609-3.719-.819c-4.024-.887-4.197-.916-4.739-.802-.734.155-1.242.557-1.728 1.37-.408.684-.493.958-.49 1.595.001.431.014.516.124.827.143.405.402.789.704 1.044.115.098 1.092.758 2.17 1.469 1.078.71 1.991 1.312 2.028 1.338.061.042.032.102-.29.585L6.2 13.5l-1.31.02-1.31.02-.24.12c-.352.176-1.537 1.355-1.683 1.676-.264.575-.161 1.267.248 1.68.085.086.798.585 1.585 1.11l1.43.954.954 1.43c.525.787 1.024 1.499 1.11 1.583.311.305.813.464 1.233.39.45-.079.627-.2 1.344-.92.956-.959.958-.964.96-2.703l.001-1.08.527-.348a9 9 0 0 1 .535-.34l1.337 2.028c.731 1.111 1.41 2.115 1.508 2.23a2.5 2.5 0 0 0 1.044.705c.317.112.39.122.847.122.459 0 .531-.011.874-.129.802-.277 1.112-.469 1.508-.935.26-.306.438-.659.544-1.078.147-.581.133-.666-.781-4.815l-.819-3.72 1.608-1.62c1.584-1.596 1.916-1.962 2.31-2.546a7.1 7.1 0 0 0 1.079-2.775c.067-.461.027-1.253-.083-1.639-.247-.867-.642-1.254-1.515-1.487-.347-.093-1.216-.131-1.636-.073m.186 3.141c-.122.44-.367.941-.664 1.356-.08.112-1.039 1.103-2.132 2.203-1.188 1.195-2.031 2.075-2.095 2.186a2 2 0 0 0-.167.477c-.074.352-.16-.108.807 4.295.406 1.846.733 3.369.727 3.384s-.655-.95-1.442-2.142c-.787-1.193-1.503-2.241-1.592-2.329-.263-.26-.55-.383-.943-.403a1.8 1.8 0 0 0-.523.035c-.124.034-.675.376-1.61.997-1.666 1.107-1.543 1.028-1.5.956.019-.031.447-.676.951-1.433.505-.757.944-1.44.977-1.517.216-.518.083-1.206-.308-1.594-.093-.092-1.147-.812-2.342-1.6-1.195-.787-2.159-1.437-2.143-1.443s1.594.333 3.507.753c1.912.42 3.575.78 3.694.8.275.046.697-.036.957-.186.111-.064.991-.907 2.186-2.095 1.1-1.093 2.091-2.052 2.203-2.132a4.3 4.3 0 0 1 1.097-.574c.209-.074.383-.134.387-.135a1 1 0 0 1-.032.141M7.576 16.534a3 3 0 0 0-.088.57l-.028.395-.13-.203a2 2 0 0 0-.626-.626l-.203-.13.4-.029c.33-.023.466-.051.727-.148.004-.002-.02.075-.052.171"/></svg>