<svg xmlns="http://www.w3.org/2000/svg" width="24" height="24" fill="none" stroke="currentColor" stroke-linecap="round" stroke-linejoin="round" stroke-width="3"><path fill="#000" fill-rule="evenodd" stroke="none" d="M5.516 1.577c-.554.212-.919.67-1 1.254-.022.161-.033 3.904-.027 9.349.01 8.48.016 9.093.08 9.282.269.786 1.186 1.237 1.932.95.295-.114 14.363-9.168 14.572-9.379a1.48 1.48 0 0 0-.011-2.078C20.913 10.807 7.01 1.843 6.63 1.65c-.176-.089-.272-.108-.59-.118q-.38-.01-.524.045m7.417 7.663c2.346 1.507 4.265 2.749 4.266 2.76 0 .015-7.757 5.016-9.445 6.089l-.234.149V5.763l.573.368z"/></svg>