<svg xmlns="http://www.w3.org/2000/svg" width="24" height="24" fill="none" stroke="currentColor" stroke-linecap="round" stroke-linejoin="round" stroke-width="3"><path fill="#000" fill-rule="evenodd" stroke="none" d="M8.516.577a1.54 1.54 0 0 0-.998 1.233c-.02.138-.037 1.253-.037 2.478L7.48 6.516l-.95.012-.95.012-.228.116c-.476.241-.763.65-.839 1.193-.024.176-.033 1.323-.023 2.989.019 2.994.023 3.049.288 3.859a5.49 5.49 0 0 0 3.526 3.525c.502.165.97.244 1.663.281l.507.028.013 1.884.013 1.885.105.248c.25.595.761.938 1.395.938s1.145-.343 1.395-.938l.105-.248.013-1.885.013-1.884.507-.028c.693-.037 1.161-.116 1.663-.281a5.49 5.49 0 0 0 3.526-3.525c.265-.81.269-.865.288-3.859.01-1.666.001-2.813-.023-2.989-.076-.543-.363-.952-.839-1.193l-.228-.116-.95-.013-.95-.012-.001-2.228c0-1.225-.017-2.339-.037-2.477a1.51 1.51 0 0 0-.834-1.154C15.44.55 15.384.54 15 .54s-.44.01-.648.116a1.51 1.51 0 0 0-.834 1.154c-.02.138-.037 1.253-.037 2.48l-.001 2.23h-2.96l-.001-2.23c0-1.227-.017-2.342-.037-2.48A1.51 1.51 0 0 0 9.65.657C9.455.558 9.37.541 9.042.532q-.382-.01-.526.045m7.956 10.973c-.012 1.99-.014 2.035-.102 2.267-.233.618-.712 1.157-1.26 1.418-.566.269-.516.265-3.11.265s-2.544.004-3.11-.265c-.548-.261-1.027-.8-1.26-1.418-.088-.232-.09-.277-.102-2.267l-.011-2.03h8.966z"/></svg>