<svg xmlns="http://www.w3.org/2000/svg" width="24" height="24" fill="none" stroke="currentColor" stroke-linecap="round" stroke-linejoin="round" stroke-width="3"><path fill="#000" fill-rule="evenodd" stroke="none" d="M17.516 1.577a2.3 2.3 0 0 0-.32.163c-.097.059-1.133 1.065-2.304 2.234-1.863 1.862-2.141 2.155-2.233 2.358-.434.948.116 1.984 1.141 2.146.143.023.771.042 1.396.042h1.137l-.789.8c-.85.862-.961 1.021-1.021 1.462-.163 1.2 1.031 2.068 2.145 1.56.204-.093.495-.37 2.394-2.274 2.333-2.339 2.334-2.341 2.41-2.836a1.49 1.49 0 0 0-.824-1.576l-.228-.116-1.394-.012-1.395-.012.806-.817c.639-.648.828-.864.909-1.04a1.505 1.505 0 0 0-.696-2.002c-.195-.099-.28-.116-.608-.125-.253-.007-.431.008-.526.045m-8 8c-.293.111-.512.291-1.256 1.025l-.76.75-.309-.289a3 3 0 0 0-.54-.406c-.212-.107-.266-.117-.651-.117-.672 0-.647-.018-2.263 1.598-1.414 1.414-1.589 1.621-1.876 2.227-.243.512-.35 1.009-.35 1.635 0 .451.018.606.104.94.173.668.472 1.205 1.001 1.798l.236.264-1.047 1.056C.675 21.197.586 21.317.523 21.782c-.162 1.197 1.032 2.069 2.139 1.562.185-.084.412-.289 1.28-1.149l1.056-1.047.264.236c.593.529 1.13.828 1.798 1.001.334.086.489.104.94.104.626 0 1.123-.107 1.635-.35.601-.285.816-.466 2.233-1.877 1.484-1.477 1.542-1.551 1.609-2.044.071-.521-.081-.924-.527-1.398l-.301-.32.797-.809c.631-.64.819-.856.9-1.032a1.505 1.505 0 0 0-.698-2.003c-.208-.106-.264-.116-.648-.116-.624 0-.707.05-1.702 1.028l-.802.789-.426-.427-.427-.426.801-.812c.633-.642.821-.857.902-1.033a1.505 1.505 0 0 0-.698-2.003c-.198-.101-.279-.117-.608-.125-.246-.006-.431.01-.524.046M7.94 16.08 9.859 18l-.699.701c-.642.643-.718.707-.917.765a.7.7 0 0 1-.44.015c-.223-.048-.226-.052-1.676-1.495-.83-.826-1.488-1.513-1.534-1.602-.102-.197-.109-.557-.013-.748.059-.119 1.365-1.476 1.42-1.476.011 0 .884.864 1.94 1.92"/></svg>