<svg xmlns="http://www.w3.org/2000/svg" width="24" height="24" fill="none" stroke="currentColor" stroke-linecap="round" stroke-linejoin="round" stroke-width="3"><path fill="#000" fill-rule="evenodd" stroke="none" d="M8.516.577a1.54 1.54 0 0 0-.998 1.233c-.02.138-.037 1.244-.037 2.46L7.48 6.48l-.71.004c-.39.002-1.043.015-1.45.03-.711.025-.749.03-.968.142-.938.475-1.135 1.681-.394 2.41.115.113.28.237.366.276l.156.07v.784c0 .431.019 1.027.041 1.324.247 3.239 2.457 5.897 5.599 6.737l.34.091.02 1.976.02 1.976.105.248c.25.595.761.938 1.395.938s1.145-.343 1.395-.938l.105-.248.02-1.976.02-1.976.34-.091c2.487-.665 4.456-2.512 5.237-4.913.305-.939.403-1.7.403-3.148v-.784l.156-.07a1.7 1.7 0 0 0 .366-.276c.74-.728.544-1.936-.392-2.409-.218-.11-.259-.116-.969-.143a56 56 0 0 0-1.451-.031l-.71-.003-.001-2.21c0-1.216-.017-2.322-.037-2.46a1.51 1.51 0 0 0-.834-1.154C15.44.55 15.384.54 15 .54s-.44.01-.648.116a1.51 1.51 0 0 0-.834 1.154c-.02.138-.037 1.244-.037 2.46l-.001 2.21h-2.96l-.001-2.21c0-1.216-.017-2.322-.037-2.46A1.51 1.51 0 0 0 9.65.657C9.455.558 9.37.541 9.042.532q-.382-.01-.526.045M16.47 10.65c-.017 1.078-.023 1.147-.126 1.509-.363 1.278-1.199 2.298-2.354 2.869-.65.321-1.225.452-1.99.452s-1.34-.131-1.99-.452a4.4 4.4 0 0 1-1.386-1.067 4.7 4.7 0 0 1-.969-1.801c-.102-.361-.108-.436-.125-1.51l-.017-1.13h8.974z"/></svg>