<svg xmlns="http://www.w3.org/2000/svg" width="24" height="24" fill="none" stroke="currentColor" stroke-linecap="round" stroke-linejoin="round" stroke-width="3"><path fill="#000" fill-rule="evenodd" stroke="none" d="M11.516 3.577a1.54 1.54 0 0 0-.998 1.233c-.02.138-.037 1.478-.037 2.979l-.001 2.729-2.95.011-2.95.011-.228.116a1.51 1.51 0 0 0-.829 1.126 1.494 1.494 0 0 0 1.287 1.7c.138.02 1.469.037 2.958.037l2.708.001.012 2.89.012 2.89.105.248c.25.595.761.938 1.395.938s1.145-.343 1.395-.938l.105-.248.012-2.89.012-2.89 2.708-.001c1.489 0 2.82-.017 2.958-.037a1.494 1.494 0 0 0 1.287-1.7 1.51 1.51 0 0 0-.829-1.126l-.228-.116-2.95-.011-2.95-.011-.001-2.729c0-1.501-.017-2.841-.037-2.979a1.51 1.51 0 0 0-.832-1.153c-.195-.099-.28-.116-.608-.125q-.382-.01-.526.045"/></svg>