<svg xmlns="http://www.w3.org/2000/svg" width="24" height="24" fill="none" stroke="currentColor" stroke-linecap="round" stroke-linejoin="round" stroke-width="3"><path fill="#000" fill-rule="evenodd" stroke="none" d="M2.516.577c-.561.215-.918.668-1.004 1.274-.057.404-.015 1.471.07 1.749.147.484.438.894.852 1.2.133.099.244.189.244.201.001.012-.109.102-.244.2A2.17 2.17 0 0 0 1.51 7c0 .729.321 1.354.924 1.8.133.099.244.189.244.201.001.012-.109.102-.244.2A2.17 2.17 0 0 0 1.51 11c0 .907.394 1.496 1.437 2.146.065.04.01.11-.529.66-.331.337-.684.722-.785.854a5.66 5.66 0 0 0-1.059 2.435 6.6 6.6 0 0 0 .001 1.814 5.54 5.54 0 0 0 4.495 4.513c.459.083 1.399.083 1.857.001a5.7 5.7 0 0 0 2.413-1.055c.132-.099 1.792-1.729 3.688-3.622l3.449-3.442.011 3.498.012 3.498.105.248c.168.4.453.684.845.842.21.085.308.099.655.097 2.306-.019 4.387-1.561 5.117-3.791.294-.898.278-.447.278-7.716 0-7.236.016-6.771-.265-7.649A5.51 5.51 0 0 0 18.923.584a6.9 6.9 0 0 0-1.846 0 5.8 5.8 0 0 0-2.331.986c-.22.161-1.643 1.555-4.374 4.282L6.324 9.895l.081-.258c.105-.333.113-.887.017-1.217a2.28 2.28 0 0 0-.856-1.219c-.135-.098-.245-.188-.244-.2 0-.012.111-.102.244-.201.603-.446.924-1.071.924-1.8 0-.978-.503-1.652-1.702-2.28l-.267-.14-.001-.26C4.516 1.472 4.248.959 3.65.657 3.455.558 3.37.541 3.042.532c-.253-.007-.431.008-.526.045M18.68 3.593c.636.167 1.251.678 1.548 1.287.198.407.252.646.252 1.12 0 .47-.053.711-.249 1.12l-.163.34-6.304 6.304c-5.869 5.868-6.323 6.313-6.584 6.446a2.4 2.4 0 0 1-1.18.282c-.233 0-.48-.027-.64-.07-.827-.22-1.556-.939-1.767-1.742-.091-.347-.091-1.013 0-1.36.166-.634-.199-.245 6.642-7.085 6.84-6.841 6.451-6.476 7.085-6.642.347-.091 1.013-.091 1.36 0m-1.164.984c-1.049.399-1.349 1.701-.571 2.478.58.58 1.53.583 2.107.007a1.47 1.47 0 0 0 0-2.124c-.292-.292-.55-.395-1.012-.407-.247-.006-.431.01-.524.046m2.922 13.959c-.084.445-.405 1.006-.745 1.305l-.153.134-.01-3.857-.01-3.856.47-.472.47-.471.012 3.49c.008 2.461-.002 3.561-.034 3.727M5.516 16.577c-1.049.399-1.349 1.701-.571 2.478.71.71 1.942.519 2.393-.371a1.48 1.48 0 0 0-.286-1.746c-.292-.292-.55-.395-1.012-.407-.247-.006-.431.01-.524.046"/></svg>