<svg xmlns="http://www.w3.org/2000/svg" width="24" height="24" fill="none" stroke="currentColor" stroke-linecap="round" stroke-linejoin="round" stroke-width="3"><path fill="#000" fill-rule="evenodd" stroke="none" d="M3.44 1.547A3.56 3.56 0 0 0 .552 4.388C.512 4.597.5 5.481.5 8.22c.001 3.871.006 3.988.24 5.115a11.52 11.52 0 0 0 8.931 8.926c1.501.309 3.157.309 4.658 0a11.53 11.53 0 0 0 8.932-8.932c.222-1.08.227-1.175.247-4.793.02-3.526.005-3.982-.148-4.498-.349-1.171-1.216-2.037-2.407-2.407l-.293-.091-8.56-.005c-4.708-.002-8.605.003-8.66.012m16.904 3.109.136.136v3.422c0 3.763-.007 3.906-.244 4.864-.37 1.495-1.127 2.819-2.254 3.942-1.312 1.308-2.942 2.123-4.802 2.402-.591.088-1.769.088-2.36 0-1.86-.279-3.49-1.094-4.802-2.402-1.268-1.264-2.012-2.671-2.39-4.519-.078-.383-.082-.563-.096-4.053l-.016-3.652.138-.138.138-.138h16.416zM7.516 8.577a1.52 1.52 0 0 0-.858 2.091c.093.203.373.499 2.274 2.4s2.197 2.181 2.4 2.274c.433.197.903.197 1.336 0 .203-.093.499-.373 2.4-2.274s2.181-2.197 2.274-2.4c.354-.776.06-1.63-.694-2.012-.208-.106-.264-.116-.648-.116-.675 0-.624-.037-2.45 1.777L12 11.856l-1.55-1.539C8.649 8.528 8.673 8.546 8.04 8.531c-.246-.006-.431.01-.524.046"/></svg>