<svg xmlns="http://www.w3.org/2000/svg" width="24" height="24" fill="none" stroke="currentColor" stroke-linecap="round" stroke-linejoin="round" stroke-width="3"><path fill="#000" fill-rule="evenodd" stroke="none" d="M10.726.583C6.389 1.14 2.891 4.227 1.821 8.44c-.241.949-.278 1.291-.278 2.56s.037 1.611.278 2.56a10.54 10.54 0 0 0 4.307 6.133c.564.382.946.468 1.435.322a1.46 1.46 0 0 0 1.069-1.34c.036-.613-.183-1-.828-1.463-1.195-.858-1.908-1.663-2.474-2.794-.563-1.125-.815-2.175-.812-3.389.002-1.227.217-2.189.729-3.269.707-1.491 1.817-2.635 3.315-3.416 1.12-.583 2.123-.824 3.438-.824s2.318.241 3.438.824c1.966 1.025 3.299 2.721 3.841 4.887.295 1.179.272 2.64-.06 3.789a8 8 0 0 1-1.214 2.48c-.478.638-.996 1.129-1.805 1.711-.483.347-.642.535-.763.899a1.49 1.49 0 0 0 1 1.905c.489.146.87.06 1.435-.321 2.177-1.47 3.759-3.763 4.343-6.294.223-.964.245-1.183.243-2.42-.001-1.246-.041-1.601-.279-2.54-.991-3.904-4.151-6.928-8.062-7.716-1.014-.205-2.435-.263-3.391-.141m.294 3.997a6.43 6.43 0 0 0-3.583 1.818c-.572.571-.93 1.067-1.257 1.742-.402.829-.591 1.523-.657 2.404-.103 1.374.293 2.898 1.041 4.01.392.582.659.797 1.127.905.486.113.945-.019 1.329-.382.263-.249.406-.524.455-.88.063-.446-.006-.681-.359-1.226-.435-.673-.596-1.196-.596-1.942 0-.968.291-1.727.92-2.401.5-.535 1.145-.907 1.811-1.045a4.7 4.7 0 0 1 1.501 0c1.078.221 2.093 1.082 2.492 2.114.165.427.236.826.236 1.328 0 .75-.16 1.272-.596 1.946-.353.545-.422.78-.359 1.226.049.356.192.631.455.88.384.363.843.495 1.329.382.468-.108.735-.323 1.127-.905.749-1.114 1.141-2.628 1.04-4.018-.063-.865-.256-1.569-.656-2.396-.327-.675-.685-1.171-1.257-1.742C15.552 5.39 14.3 4.77 12.852 4.561c-.385-.055-1.435-.044-1.832.019m.36 3.994a2.73 2.73 0 0 0-1.279.795c-.21.239-.469.746-.542 1.064A3 3 0 0 0 9.51 11c0 .446.058.695.256 1.112.223.467.655.899 1.122 1.122.417.198.666.256 1.112.256s.695-.058 1.112-.256a2.5 2.5 0 0 0 1.122-1.122c.198-.417.256-.666.256-1.112s-.058-.695-.255-1.11c-.262-.55-.811-1.037-1.418-1.257-.295-.107-1.12-.141-1.437-.059m.964 2.082c.119.119.136.162.136.337 0 .157-.022.227-.103.323a.5.5 0 0 1-.514.16c-.214-.059-.343-.241-.343-.483 0-.175.017-.218.136-.337s.161-.136.344-.136.224.016.344.136m-.964 3.918c-.81.209-1.49.845-1.759 1.646-.157.465-.151.593.142 3.24.194 1.76.296 2.545.351 2.704.277.801 1.021 1.323 1.886 1.323s1.609-.522 1.886-1.323c.055-.159.157-.944.351-2.704.227-2.046.269-2.529.242-2.76a2.34 2.34 0 0 0-.7-1.439 2.5 2.5 0 0 0-.962-.628c-.295-.107-1.12-.141-1.437-.059"/></svg>