<svg xmlns="http://www.w3.org/2000/svg" width="24" height="24" fill="none" stroke="currentColor" stroke-linecap="round" stroke-linejoin="round" stroke-width="3"><path fill="#000" fill-rule="evenodd" stroke="none" d="M1.516.577C.656.906.276 1.832.658 2.666c.091.199.356.482 1.963 2.094L4.48 6.623v4.612l-.359-.023c-1.154-.075-2.198.374-2.951 1.269-.276.329-.574.888-.668 1.254-.268 1.044-.122 2.004.436 2.866.131.203.751.861 2.178 2.312 2.32 2.358 2.495 2.52 3.297 3.059.961.647 2.209 1.155 3.399 1.385.757.146 1.374.175 3.245.152 1.905-.023 2.322-.06 3.204-.284 1.003-.255 2.096-.725 2.89-1.246l.411-.269.779.767c.84.828 1.003.941 1.441 1 1.2.163 2.067-1.029 1.56-2.145-.095-.21-1.076-1.202-10.274-10.395C1.635-.49 2.738.551 2.042.532c-.253-.007-.431.008-.526.045m5.771.004c-.606.132-1.042.582-1.171 1.209-.099.478.13 1.1.517 1.404.353.277.703.375 1.213.339l.337-.024.143.136.142.135.022.5c.026.578.106.847.346 1.15.267.337.606.518 1.049.559.433.041.842-.112 1.163-.433.391-.392.519-.907.438-1.77a5 5 0 0 0-.13-.766A3.52 3.52 0 0 0 8.712.583C8.337.506 7.637.505 7.287.581m5.023 5.062c-.394.093-.784.382-.964.714-.137.251-.235.706-.202.933.038.254.269.709.45.885.088.085.292.22.453.3.293.145.293.145.463.488.151.305.218.388.603.743.238.22.514.439.613.487.588.285 1.265.151 1.745-.347a2 2 0 0 1 .316-.281.52.52 0 0 1 .627.172c.053.081.066.208.067.652.001.954.097 1.3.464 1.666a1.49 1.49 0 0 0 2.11 0c.251-.25.377-.525.44-.959.045-.31.065-.36.179-.462.104-.094.164-.114.331-.114.178 0 .22.017.339.136l.136.136v1.881c0 1.971-.015 2.2-.187 2.947-.076.334-.096.505-.08.707.055.68.569 1.226 1.277 1.355.577.106 1.253-.236 1.522-.77.216-.429.408-1.412.468-2.392.051-.85.05-3.348-.001-3.837-.132-1.255-.824-2.255-1.947-2.818-.527-.263-.825-.325-1.552-.322-.566.002-.678.014-.968.103l-.328.101-.212-.217c-.441-.45-1.101-.805-1.764-.951-.455-.099-1.247-.067-1.702.071l-.333.1-.162-.175c-.482-.523-1.404-.988-1.926-.971-.069.002-.193.02-.275.039m4.967 13.965c-.605.368-1.43.661-2.297.818-.449.081-3.48.123-4.062.056-1.306-.149-2.421-.614-3.38-1.406-.155-.129-1.147-1.113-2.204-2.187-1.641-1.667-1.926-1.974-1.943-2.091-.052-.342.197-.622.521-.586.164.018.223.068 1.187 1.024.831.823 1.056 1.024 1.239 1.108 1.107.507 2.301-.366 2.139-1.562-.049-.358-.192-.607-.591-1.028l-.366-.386V9.66l4.938 4.938 4.938 4.938z"/></svg>