<svg xmlns="http://www.w3.org/2000/svg" width="24" height="24" fill="none" stroke="currentColor" stroke-linecap="round" stroke-linejoin="round" stroke-width="3"><path fill="#000" fill-rule="evenodd" stroke="none" d="M7.44.545C5.98.826 4.919 1.836 4.569 3.279c-.055.227-.066.769-.078 4.121l-.015 3.86-.628.001c-.544 0-.668.013-.928.094-1.248.388-2.192 1.405-2.448 2.637a3 3 0 0 0-.06.868c.033.784.235 1.357.69 1.96.323.428 4.275 4.336 4.782 4.729 1.295 1.003 2.66 1.582 4.316 1.829 1.139.169 4.129.185 5.181.027a9.2 9.2 0 0 0 2.819-.89c1.925-.955 3.36-2.39 4.315-4.315a9.3 9.3 0 0 0 .892-2.819c.068-.445.083-.79.101-2.361.023-1.96-.004-2.497-.148-2.982a3.52 3.52 0 0 0-2.428-2.408c-.269-.077-.401-.09-.952-.087-.566.002-.678.014-.968.103l-.328.101-.192-.197a3.75 3.75 0 0 0-1.56-.92c-.269-.077-.401-.09-.952-.087-.566.002-.678.014-.968.103l-.328.101-.192-.197a3.76 3.76 0 0 0-1.539-.913c-.212-.062-.45-.091-.863-.106l-.57-.021-.001-.725c0-.399-.018-.895-.04-1.102-.132-1.255-.824-2.255-1.946-2.817C9.054.626 8.736.553 8.1.539a7 7 0 0 0-.66.006m.889 3.092.131.116.02 3.274.02 3.273.105.248c.25.595.761.938 1.395.938.635 0 1.151-.347 1.392-.938.093-.227.103-.311.12-1.007l.019-.76.13-.13c.114-.114.157-.131.339-.131s.224.016.344.136l.136.136v.594c.001.973.091 1.299.463 1.671.348.347.814.498 1.301.419.317-.051.58-.187.813-.419.258-.259.373-.505.438-.943.049-.33.067-.381.18-.481.103-.093.163-.113.33-.113.178 0 .22.017.339.136l.136.136v.594c.001.973.091 1.299.463 1.671.348.347.814.498 1.301.419.317-.051.58-.187.813-.419.258-.259.373-.505.438-.943.049-.33.067-.381.18-.481.103-.093.163-.113.33-.113.178 0 .22.017.339.136l.136.136v1.864c0 1.467-.013 1.952-.061 2.274a6.5 6.5 0 0 1-2.839 4.477c-.791.526-1.679.863-2.68 1.02-.572.089-3.416.103-4.02.019-.919-.127-1.557-.317-2.205-.653-.756-.394-1.112-.703-3.209-2.789-1.074-1.069-1.979-1.993-2.01-2.052-.12-.23-.033-.54.183-.651a.7.7 0 0 1 .285-.061c.165 0 .181.013 1.18 1.001.824.815 1.054 1.021 1.236 1.104 1.105.506 2.299-.367 2.137-1.563-.049-.358-.192-.607-.591-1.028l-.366-.386V3.792l.136-.136c.119-.119.161-.136.339-.136.169 0 .226.02.334.117"/></svg>