<svg xmlns="http://www.w3.org/2000/svg" width="24" height="24" fill="none" stroke="currentColor" stroke-linecap="round" stroke-linejoin="round" stroke-width="3"><path fill="#000" fill-rule="evenodd" stroke="none" d="M7.44.545c-.77.148-1.465.517-1.966 1.044-.256.269-.605.782-.675.993-.039.119-.091.163-.333.284-1.004.503-1.713 1.43-1.907 2.498a4.4 4.4 0 0 0 0 1.267l.048.29-.273.293c-.484.517-.681 1.036-.642 1.685.016.263.379 2.01 1.346 6.461.728 3.355 1.36 6.21 1.404 6.345.267.81 1.005 1.485 1.882 1.722.235.064.671.071 5.396.084 3.471.009 5.26 0 5.51-.029a2.56 2.56 0 0 0 1.118-.385c.522-.333.911-.758 1.141-1.245.16-.341 2.786-12.402 2.819-12.953.04-.653-.169-1.188-.67-1.716-.229-.242-.263-.296-.234-.373.067-.179.106-.813.071-1.156-.123-1.215-.831-2.232-1.939-2.787-.258-.129-.29-.159-.366-.341-.269-.647-.909-1.296-1.638-1.661C17.013.606 16.705.54 16 .54c-.739 0-1.043.071-1.63.379l-.37.195-.37-.195C13.043.611 12.739.54 12 .54s-1.043.071-1.63.379l-.37.195L9.63.92C9.081.631 8.772.554 8.1.539a7 7 0 0 0-.66.006m.886 3.089c.114.102.134.152.179.462.063.434.189.709.44.959a1.49 1.49 0 0 0 2.11 0c.251-.25.377-.525.44-.959.045-.31.065-.36.179-.462.104-.093.164-.114.326-.114s.222.021.326.114c.114.102.134.152.179.462.063.434.189.709.44.959a1.49 1.49 0 0 0 2.11 0c.251-.25.377-.525.44-.959.045-.31.065-.36.179-.462.104-.093.164-.114.326-.114s.222.021.326.114c.114.102.134.152.179.462.063.434.189.709.44.959.25.251.525.377.959.44.31.045.36.065.462.179.094.104.114.164.114.331 0 .176-.017.22-.13.333-.116.116-.162.132-.43.155-.392.034-11.448.034-11.84 0-.268-.023-.314-.039-.43-.155-.113-.113-.13-.157-.13-.333 0-.167.02-.227.114-.331.102-.114.152-.134.462-.179.434-.063.709-.189.959-.44.251-.25.377-.525.44-.959.045-.31.065-.36.179-.462.104-.093.164-.114.326-.114s.222.021.326.114M7.617 9.79c.021.223.72 10.034.752 10.55l.009.16h-1.15l-1.153-5.32-1.189-5.49-.036-.17h2.742zm5.376 5.16c-.214 2.987-.39 5.462-.391 5.5-.002.063-.058.07-.602.07s-.6-.007-.602-.07c-.001-.038-.177-2.513-.391-5.5l-.39-5.43h2.766zm6.121-5.26-1.189 5.49-1.153 5.32h-1.15l.009-.16c.032-.516.731-10.327.752-10.55l.025-.27h2.742z"/></svg>