<svg xmlns="http://www.w3.org/2000/svg" width="24" height="24" fill="none" stroke="currentColor" stroke-linecap="round" stroke-linejoin="round" stroke-width="3"><path fill="#000" fill-rule="evenodd" stroke="none" d="M13.26 1.545c-1.567.236-2.84.961-3.706 2.11-.293.388-.677 1.163-.814 1.644-.224.785-.231.878-.25 3.65l-.017 2.568-1.446.012-1.447.011-.228.116a1.51 1.51 0 0 0-.829 1.126 1.494 1.494 0 0 0 1.287 1.7c.138.02.795.037 1.46.037l1.21.001v4.997l-1.45.012-1.45.011-.228.116a1.51 1.51 0 0 0-.829 1.126 1.494 1.494 0 0 0 1.287 1.7c.328.048 12.052.048 12.38 0a1.494 1.494 0 0 0 1.287-1.7 1.51 1.51 0 0 0-.829-1.126l-.228-.116-3.45-.011-3.45-.011V14.52l2.21-.001c1.215 0 2.322-.017 2.46-.037a1.494 1.494 0 0 0 1.287-1.7 1.51 1.51 0 0 0-.829-1.126l-.228-.116-2.45-.011-2.45-.011.001-2.469c0-2.721.006-2.799.245-3.289.161-.329.599-.773.941-.952.742-.389 1.844-.389 2.586 0 .14.074.369.251.53.411.456.452.596.824.687 1.821.043.467.16.741.435 1.015.862.862 2.369.365 2.532-.835.016-.119.015-.42-.001-.668-.168-2.481-1.773-4.347-4.232-4.918-.263-.061-.524-.083-1.104-.093a12 12 0 0 0-.88.004"/></svg>