<svg xmlns="http://www.w3.org/2000/svg" width="24" height="24" fill="none" stroke="currentColor" stroke-linecap="round" stroke-linejoin="round" stroke-width="3"><path fill="#000" fill-rule="evenodd" stroke="none" d="M1.516.577C.656.906.276 1.832.657 2.666c.09.196.338.462 1.732 1.861L4.016 6.16l-.078.097-.326.414C2.549 8.036 1.82 9.78 1.535 11.64c-.087.568-.1 2.076-.023 2.62.35 2.479 1.279 4.421 2.926 6.114 1.684 1.733 3.761 2.761 6.282 3.113.487.067 1.977.066 2.48-.003 1.91-.261 3.726-1.003 5.129-2.096l.414-.326.096-.077 1.136 1.128c.943.935 1.175 1.145 1.362 1.231a1.503 1.503 0 0 0 2.005-2.012c-.095-.21-1.076-1.202-10.274-10.395C1.635-.49 2.738.551 2.042.532c-.253-.007-.431.008-.526.045m10 0c-.559.214-.919.67-1.002 1.267-.023.165-.034 1.152-.027 2.369L10.5 6.3l.105.248c.25.595.761.938 1.395.938s1.145-.343 1.395-.938L13.5 6.3l.013-2.087c.007-1.217-.004-2.204-.027-2.369-.075-.537-.364-.948-.836-1.187-.195-.099-.28-.116-.608-.125q-.382-.01-.526.045m6.36 4.64c-.689.262-1.09.925-.993 1.641.047.343.196.608.579 1.022.991 1.074 1.575 2.209 1.886 3.67.1.468.109.585.11 1.41.001.741-.013.971-.078 1.3a5 5 0 0 0-.08.76c0 .305.016.394.105.585.235.501.64.792 1.237.892.516.086 1.226-.319 1.461-.833.342-.746.487-2.743.296-4.061-.326-2.253-1.322-4.316-2.822-5.847-.461-.469-.67-.573-1.177-.585-.246-.006-.431.01-.524.046m-6.436 8.365 5.26 5.263-.14.12c-.43.37-1.359.884-2.04 1.129-1.678.605-3.356.612-5.067.022A7.4 7.4 0 0 1 5.22 16.34a7.48 7.48 0 0 1 .689-7.73c.116-.16.225-.29.241-.29.017 0 2.397 2.368 5.29 5.262"/></svg>