<svg xmlns="http://www.w3.org/2000/svg" width="24" height="24" fill="none" stroke="currentColor" stroke-linecap="round" stroke-linejoin="round" stroke-width="3"><path fill="#000" fill-rule="evenodd" stroke="none" d="M11.516.577a1.54 1.54 0 0 0-1.001 1.258c-.022.162-.033 2.326-.026 5.368L10.5 12.3l.105.248c.25.595.761.938 1.395.938s1.145-.343 1.395-.938l.105-.248.011-5.097c.007-3.042-.004-5.206-.026-5.368A1.51 1.51 0 0 0 12.65.657c-.195-.099-.28-.116-.608-.125q-.382-.01-.526.045m6.4 4.6c-.689.262-1.09.925-.993 1.641.046.341.197.608.57 1.013 1.344 1.46 2.027 3.188 2.027 5.129 0 3.736-2.684 6.849-6.402 7.422-.553.085-1.603.085-2.156 0-1.291-.199-2.404-.659-3.397-1.402a6.8 6.8 0 0 1-1.244-1.168 7.47 7.47 0 0 1-1.699-3.765c-.083-.53-.084-1.563-.002-2.144.209-1.479.845-2.832 1.883-4.001.511-.577.597-.758.597-1.262 0-.328-.015-.411-.106-.607a1.58 1.58 0 0 0-.684-.717c-.239-.13-.268-.136-.67-.136-.373 0-.446.012-.651.108-.384.18-1.165 1.047-1.76 1.952-.318.484-.837 1.521-1.048 2.094a10.45 10.45 0 0 0 .436 8.247 10 10 0 0 0 2.001 2.8 10 10 0 0 0 2.802 2.002c1.503.738 2.937 1.068 4.64 1.067a9.5 9.5 0 0 0 2.547-.31c1.383-.348 2.841-1.062 3.906-1.915q3.224-2.581 3.914-6.725c.105-.633.105-2.447 0-3.08-.377-2.267-1.331-4.197-2.829-5.723-.44-.448-.657-.554-1.158-.566-.246-.006-.431.01-.524.046"/></svg>