<svg xmlns="http://www.w3.org/2000/svg" width="24" height="24" fill="none" stroke="currentColor" stroke-linecap="round" stroke-linejoin="round" stroke-width="3"><path fill="#000" fill-rule="evenodd" stroke="none" d="M2.22 1.52c-.607.019-.652.026-.868.136-.938.475-1.135 1.681-.394 2.41.115.113.279.237.364.275l.155.07.014 5.024c.015 5.53-.001 5.178.265 5.869.319.826 1.068 1.581 1.908 1.923.628.256.684.262 2.77.282l1.894.018-1.284 1.291c-1.079 1.085-1.3 1.327-1.387 1.518a1.502 1.502 0 0 0 2.01 2.006c.2-.092.498-.372 2.282-2.152L12 18.143l2.051 2.047c1.784 1.78 2.082 2.06 2.282 2.152a1.502 1.502 0 0 0 2.01-2.006c-.087-.191-.308-.433-1.387-1.518l-1.284-1.291 1.894-.018c2.086-.02 2.142-.026 2.77-.282a3.6 3.6 0 0 0 1.575-1.293 3.5 3.5 0 0 0 .568-1.617c.024-.227.04-2.273.04-5.141l.001-4.764.156-.07c.223-.101.558-.446.673-.694a1.56 1.56 0 0 0 0-1.296c-.17-.363-.571-.697-.952-.791-.182-.045-18.837-.083-20.177-.041m17.26 7.837v4.837l-.103.122a.6.6 0 0 1-.252.163c-.205.055-14.045.055-14.25 0a.6.6 0 0 1-.252-.163l-.103-.122V4.52h14.96z"/></svg>