<svg xmlns="http://www.w3.org/2000/svg" width="24" height="24" fill="none" stroke="currentColor" stroke-linecap="round" stroke-linejoin="round" stroke-width="3"><path fill="#000" fill-rule="evenodd" stroke="none" d="M6.38.576A2.55 2.55 0 0 0 4.777 1.86c-.278.559-.269.46-.287 3.185L4.475 7.51l-.568.021c-.41.015-.648.044-.86.106a3.56 3.56 0 0 0-2.495 2.751c-.075.391-.075 5.833 0 6.224.221 1.168 1.036 2.177 2.115 2.617.425.173.753.24 1.335.274l.468.028.022.944c.015.676.039 1.008.084 1.165.194.688.7 1.302 1.312 1.594.584.278.394.266 4.332.266h3.56l.23-.093c.433-.175.803-.555.92-.945.062-.209.062-.715 0-.924-.117-.391-.496-.78-.911-.935-.218-.081-.283-.083-3.361-.083H7.52v-5l4.49.01 4.489.01.027.189c.061.424.408.916.778 1.102.812.408 1.766.034 2.1-.821.077-.198.09-.307.091-.79.002-.651-.041-.869-.26-1.33-.261-.548-.8-1.027-1.418-1.26l-.237-.09H6.42l-.237.09c-.596.224-1.146.701-1.398 1.212-.246.498-.269.635-.294 1.708l-.022.97h-.224c-.315-.001-.503-.062-.622-.204l-.103-.122v-5.402l.136-.136.136-.136h16.407l.13.117.131.116.022 1.274c.021 1.253.023 1.277.124 1.521.246.593.759.938 1.394.938s1.148-.345 1.393-.938c.1-.241.104-.278.119-1.308.018-1.157-.025-1.775-.152-2.202a3.46 3.46 0 0 0-1.827-2.172c-.469-.235-.798-.312-1.44-.335l-.568-.021-.015-2.465c-.014-2.141-.025-2.494-.082-2.685A2.65 2.65 0 0 0 17.817.63L17.58.54l-5.5-.007C7.809.528 6.535.537 6.38.576m10.1 4.944v2H7.52v-4h8.96zm5.036 10.057c-.317.12-.553.33-2.004 1.775l-1.508 1.502-.553-.537c-.723-.702-.863-.777-1.451-.777-.384 0-.44.01-.648.116-.754.381-1.048 1.237-.694 2.012.09.195.286.411 1.275 1.399.988.989 1.204 1.185 1.399 1.275.432.197.903.197 1.336 0 .203-.093.499-.373 2.4-2.274s2.181-2.197 2.274-2.4c.354-.776.06-1.63-.694-2.012-.198-.101-.279-.117-.608-.125-.246-.006-.431.01-.524.046"/></svg>