<svg xmlns="http://www.w3.org/2000/svg" width="24" height="24" fill="none" stroke="currentColor" stroke-linecap="round" stroke-linejoin="round" stroke-width="3"><path fill="#000" fill-rule="evenodd" stroke="none" d="M6.38.576A2.55 2.55 0 0 0 4.777 1.86c-.278.559-.269.46-.287 3.185L4.475 7.51l-.568.021c-.41.015-.648.044-.86.106a3.56 3.56 0 0 0-2.495 2.751c-.075.391-.075 5.833 0 6.224.221 1.168 1.036 2.177 2.115 2.617.425.173.753.24 1.335.274l.468.028.022.944c.015.676.039 1.008.084 1.165.194.688.7 1.302 1.312 1.594.594.283.212.266 6.112.266 4.352 0 5.381-.01 5.56-.054a2.62 2.62 0 0 0 1.864-1.806c.045-.157.069-.489.084-1.165l.022-.944.468-.028c.257-.015.588-.052.735-.083a3.6 3.6 0 0 0 1.775-.992c.573-.6.883-1.272.971-2.111.052-.49.052-5.144 0-5.634-.132-1.255-.824-2.255-1.946-2.817-.469-.235-.798-.312-1.44-.335l-.568-.021-.015-2.465c-.014-2.141-.025-2.494-.082-2.685A2.65 2.65 0 0 0 17.817.63L17.58.54l-5.5-.007C7.809.528 6.535.537 6.38.576m10.1 4.944v2H7.52v-4h8.96zm3.864 5.136.136.136v5.402l-.103.122c-.119.142-.307.203-.622.204h-.224l-.022-.97c-.016-.7-.04-1.031-.085-1.19a2.63 2.63 0 0 0-1.607-1.73l-.237-.09H6.42l-.237.09c-.596.224-1.146.701-1.398 1.212-.246.498-.269.635-.294 1.708l-.022.97h-.224c-.315-.001-.503-.062-.622-.204l-.103-.122v-5.402l.136-.136.136-.136h16.416zM16.48 18.02v2.5H7.52v-5h8.96z"/></svg>