<svg xmlns="http://www.w3.org/2000/svg" width="24" height="24" fill="none" stroke="currentColor" stroke-linecap="round" stroke-linejoin="round" stroke-width="3"><path fill="#000" fill-rule="evenodd" stroke="none" d="M8.516 1.577c-.371.142-.711.446-.864.774-.156.334-.179.663-.165 2.367L7.501 6.3l.104.248c.25.594.761.938 1.395.938s1.145-.344 1.395-.938l.104-.248.014-1.582c.008-.912-.004-1.704-.026-1.869-.076-.542-.364-.953-.837-1.192-.195-.099-.28-.116-.608-.125q-.382-.01-.526.045m-6 2a1.52 1.52 0 0 0-.858 2.091c.09.195.286.411 1.275 1.399.988.989 1.204 1.185 1.399 1.275 1.312.6 2.61-.698 2.01-2.01-.09-.196-.283-.406-1.274-1.393-1.376-1.37-1.41-1.393-2.028-1.408-.246-.006-.431.01-.524.046m12 0c-.313.119-.537.312-1.625 1.4-.948.948-1.146 1.166-1.234 1.358a1.503 1.503 0 0 0 2.011 2.007c.195-.09.411-.286 1.399-1.275.989-.988 1.185-1.204 1.275-1.399.354-.775.06-1.631-.694-2.012-.198-.101-.279-.117-.608-.125-.246-.006-.431.01-.524.046M8.277 8.558c-.637.116-1.466.462-1.917.8a5.7 5.7 0 0 0-.927.907l-.195.248-.949.017c-.826.015-.987.029-1.242.105a3.56 3.56 0 0 0-2.495 2.753c-.074.389-.074 4.835 0 5.224.221 1.168 1.036 2.177 2.116 2.617.719.293-.04.271 9.332.271 7.775 0 8.442-.005 8.71-.068a3.7 3.7 0 0 0 1.798-1.004c.573-.6.883-1.272.971-2.111.051-.49.051-4.144 0-4.634-.154-1.465-1.106-2.614-2.526-3.051l-.293-.091-3.947-.011-3.947-.012-.197-.251a4.4 4.4 0 0 0-1.589-1.289c-.678-.332-1.061-.423-1.86-.44-.363-.007-.742.002-.843.02m1.343 3.081c.245.119.545.393.672.615.232.404.253.998.049 1.4a1.51 1.51 0 0 1-1.123.823 1.5 1.5 0 0 1-1.56-.825c-.145-.287-.184-.806-.083-1.104.148-.434.506-.805.939-.971.24-.092.859-.057 1.106.062M4.534 13.59c.01.038.031.142.045.23.047.293.227.832.382 1.148a4.49 4.49 0 0 0 3.655 2.508 4.49 4.49 0 0 0 3.56-1.3c.686-.687 1.056-1.42 1.283-2.546l.023-.11h6.726l.136.136.136.136v4.402l-.103.122a.6.6 0 0 1-.25.163c-.204.056-16.05.056-16.254 0a.6.6 0 0 1-.25-.163l-.103-.122v-4.402l.136-.136c.135-.135.14-.136.497-.136.31 0 .364.01.381.07m10.982.988c-.531.199-.921.672-.993 1.204a1.494 1.494 0 0 0 1.287 1.7c.138.02.673.036 1.19.036s1.052-.016 1.19-.036a1.494 1.494 0 0 0 1.287-1.7 1.51 1.51 0 0 0-.829-1.126l-.228-.116-1.38-.008c-1.079-.007-1.412.003-1.524.046"/></svg>