<svg xmlns="http://www.w3.org/2000/svg" width="24" height="24" fill="none" stroke="currentColor" stroke-linecap="round" stroke-linejoin="round" stroke-width="3"><path fill="#000" fill-rule="evenodd" stroke="none" d="M3.44 2.547A3.56 3.56 0 0 0 .552 5.388c-.076.398-.076 12.826 0 13.224.221 1.168 1.036 2.177 2.116 2.617.719.293-.04.271 9.332.271 7.775 0 8.442-.005 8.71-.068a3.7 3.7 0 0 0 1.798-1.004c.573-.6.883-1.272.971-2.111.053-.509.053-12.125 0-12.634-.154-1.464-1.103-2.61-2.526-3.052l-.293-.091-8.56-.005c-4.708-.002-8.605.003-8.66.012m16.904 3.109.136.136v12.402l-.103.122a.6.6 0 0 1-.25.163c-.081.022-.475.041-.877.041h-.73l-.001-3.73c0-2.183-.017-3.886-.04-4.107-.169-1.605-1.293-2.824-2.879-3.124-.146-.027-2.208-.041-6.15-.04l-5.93.001V5.792l.136-.136.136-.136h16.416zM10.48 14.52v4H7.25c-2.08 0-3.283-.015-3.377-.041a.6.6 0 0 1-.25-.163l-.103-.122V10.52h6.96zm4.864-3.864.136.136v7.728h-1.96v-8h1.688z"/></svg>