<svg xmlns="http://www.w3.org/2000/svg" width="24" height="24" fill="none" stroke="currentColor" stroke-linecap="round" stroke-linejoin="round" stroke-width="3"><path fill="#000" fill-rule="evenodd" stroke="none" d="M11.287.562c-.538.096-1.189.388-1.66.745-.37.28-2.069 1.997-2.247 2.271a2.6 2.6 0 0 0-.161 2.521c.286.591.74 1.019 1.514 1.426.486.256.608.364.726.646.07.168.079.463.02.674-.053.193-.336.509-.537.6-.2.091-.571.097-.771.014-.28-.117-.396-.244-.612-.668-.378-.74-.74-1.159-1.285-1.483C5.86 7.063 5.537 6.98 5 6.982c-.732.002-1.211.191-1.8.707-.549.481-1.817 1.806-2.018 2.108a3.92 3.92 0 0 0-.001 4.404c.101.153.498.6.883.995.591.607.686.722.619.743-.185.059-.725.454-1.006.736a3.97 3.97 0 0 0-.286 5.328 3.99 3.99 0 0 0 4.457 1.256 4.2 4.2 0 0 0 1.58-1.028c.209-.223.587-.768.633-.914.021-.067.136.028.743.619.395.385.842.782.995.883 1.36.904 3.045.902 4.409-.005.311-.206 1.925-1.765 2.286-2.207.407-.499.596-1.009.596-1.607 0-1.037-.586-1.892-1.649-2.406-.535-.259-.637-.337-.776-.593a.99.99 0 0 1 .132-1.131c.351-.4.924-.434 1.392-.084.09.067.195.234.345.546.26.542.513.886.863 1.175A2.44 2.44 0 0 0 19 17.09c.605-.003 1.11-.191 1.607-.596.442-.361 1.995-1.97 2.206-2.286.911-1.365.911-3.056 0-4.414-.106-.158-.504-.607-.884-.997-.585-.601-.679-.715-.612-.736.146-.046.691-.424.914-.633.494-.464.949-1.219 1.126-1.868a4.01 4.01 0 0 0-.744-3.558C22.094 1.36 21.31.844 20.54.639c-.411-.11-1.308-.151-1.716-.08a4.26 4.26 0 0 0-2.232 1.192c-.223.233-.604.778-.653.933-.022.069-.12-.012-.672-.553-.764-.747-1.08-.997-1.567-1.233-.575-.278-.861-.343-1.58-.36-.341-.007-.716.003-.833.024m1.085 3.023c.07.035.533.463 1.028.952s.972.943 1.06 1.011c.552.425 1.358.615 2.004.473.934-.205 1.552-.734 2.054-1.761.162-.331.243-.449.368-.54.224-.162.402-.211.694-.193.5.032.861.393.893.893.033.525-.135.763-.76 1.08-.542.274-.618.326-.948.638-.445.423-.666.82-.787 1.42-.11.542-.035 1.056.23 1.582.177.351.28.471 1.255 1.46.489.495.917.958.952 1.028.092.181.085.576-.012.764-.105.202-1.286 1.365-1.312 1.293a6 6 0 0 0-.254-.403 4 4 0 0 0-2.877-1.718c-1.01-.095-2.039.182-2.806.757-.505.379-1.002.979-1.234 1.494-.709 1.568-.427 3.262.75 4.51.223.236.83.694 1.015.767.036.013-.176.252-.605.679-.625.624-.671.661-.87.703a.9.9 0 0 1-.42 0c-.202-.043-.246-.08-1.13-.951a31 31 0 0 0-1.1-1.05 2.5 2.5 0 0 0-1.54-.526c-.712-.009-1.292.232-1.835.763-.298.293-.425.478-.702 1.027-.192.382-.249.46-.413.57-.37.247-.772.247-1.139 0-.395-.267-.529-.815-.307-1.26.125-.252.239-.341.736-.582.672-.325 1.165-.792 1.441-1.365.361-.749.358-1.512-.009-2.24-.177-.351-.28-.471-1.255-1.46-.489-.495-.917-.958-.952-1.028-.092-.181-.085-.576.012-.764.043-.081.356-.425.696-.764l.619-.616.09.176c.473.931 1.38 1.662 2.458 1.981.508.151 1.354.178 1.882.062a4 4 0 0 0 1.306-.523c.985-.645 1.587-1.524 1.815-2.647.093-.458.062-1.373-.061-1.797-.307-1.059-1.071-2.007-1.998-2.478l-.176-.09.616-.619c.339-.34.679-.652.756-.694.18-.097.592-.105.772-.014"/></svg>