<svg xmlns="http://www.w3.org/2000/svg" width="24" height="24" fill="none" stroke="currentColor" stroke-linecap="round" stroke-linejoin="round" stroke-width="3"><path fill="#000" fill-rule="evenodd" stroke="none" d="M11.8.509c-.583.066-1.152.329-1.534.708-.178.177-1.503 2.063-4.806 6.844C2.952 11.69.844 14.768.774 14.9a2.1 2.1 0 0 0-.267 1.08c.001.886.421 1.667 1.148 2.135.43.277 8.715 4.984 8.965 5.094.87.381 1.898.381 2.759.001.253-.112 8.542-4.822 8.966-5.095.385-.248.713-.617.892-1.004.202-.436.259-.692.257-1.151a2.3 2.3 0 0 0-.383-1.28c-.094-.144-2.187-3.176-4.651-6.739-3.228-4.668-4.549-6.547-4.726-6.723-.477-.475-1.311-.78-1.934-.709m-1.32 12.408v6.797l-3.362-1.921c-1.984-1.133-3.357-1.942-3.35-1.971.012-.052 6.676-9.702 6.699-9.702.007 0 .013 3.059.013 6.797m6.457-1.899c2.925 4.231 3.336 4.842 3.274 4.876l-3.381 1.93-3.31 1.891v-6.806c0-4.004.015-6.789.036-6.767.019.021 1.541 2.215 3.381 4.876"/></svg>