<svg xmlns="http://www.w3.org/2000/svg" width="24" height="24" fill="none" stroke="currentColor" stroke-linecap="round" stroke-linejoin="round" stroke-width="3"><path fill="#000" fill-rule="evenodd" stroke="none" d="M3.38 1.575c-.454.115-.95.423-1.279.794-.209.237-.465.739-.547 1.071-.078.317-.078 3.803 0 4.12.175.713.701 1.372 1.334 1.674.557.265.566.266 2.612.266s2.055-.001 2.612-.266a2.5 2.5 0 0 0 1.122-1.122c.265-.557.266-.566.266-2.612 0-2.045-.001-2.055-.265-2.61-.261-.548-.8-1.027-1.418-1.26-.233-.088-.273-.09-2.237-.097-1.495-.006-2.051.005-2.2.042m8.136.002c-1.049.399-1.349 1.701-.571 2.478.58.58 1.53.583 2.107.007a1.47 1.47 0 0 0 0-2.124c-.292-.292-.55-.395-1.012-.407-.247-.006-.431.01-.524.046m4.864-.002c-.454.115-.95.423-1.279.794-.209.237-.465.739-.547 1.071-.041.169-.054.649-.054 2.06 0 2.046.001 2.055.266 2.612.223.467.655.899 1.122 1.122.557.265.566.266 2.612.266s2.055-.001 2.612-.266a2.5 2.5 0 0 0 1.122-1.122c.265-.557.266-.566.266-2.612 0-2.045-.001-2.055-.265-2.61-.261-.548-.8-1.027-1.418-1.26-.233-.088-.273-.09-2.237-.097-1.495-.006-2.051.005-2.2.042M6.48 5.52v1H4.52v-2h1.96zm13 0v1h-1.96v-2h1.96zm-7.964.057a1.54 1.54 0 0 0-.998 1.233c-.02.138-.037.954-.037 1.815-.001 1.522-.003 1.567-.084 1.67-.162.206-.142.204-2.037.225l-1.78.02-.228.116c-.93.471-1.133 1.673-.407 2.399.242.242.53.38.906.432.47.066 3.544.018 3.879-.06a3.62 3.62 0 0 0 2.145-1.444 3.44 3.44 0 0 0 .604-1.666c.05-.471.052-3.169.003-3.507a1.51 1.51 0 0 0-.832-1.153c-.195-.099-.28-.116-.608-.125q-.382-.01-.526.045m-9 5c-1.049.399-1.349 1.701-.571 2.478.58.58 1.53.583 2.107.007a1.47 1.47 0 0 0 0-2.124c-.292-.292-.55-.395-1.012-.407-.247-.006-.431.01-.524.046m13 0c-1.048.396-1.349 1.701-.571 2.478.353.354.721.463 1.555.463s1.202-.109 1.555-.463c.726-.726.523-1.928-.407-2.399l-.228-.116-.88-.009c-.663-.006-.916.005-1.024.046m5 0c-1.046.4-1.349 1.703-.578 2.475a1.47 1.47 0 0 0 2.124 0c.719-.719.511-1.928-.412-2.395-.195-.099-.28-.116-.608-.125-.253-.007-.431.008-.526.045M3.38 14.575c-.454.115-.95.423-1.279.794-.209.237-.465.739-.547 1.071-.078.317-.078 3.803 0 4.12.175.713.701 1.372 1.334 1.674.557.265.566.266 2.612.266s2.055-.001 2.612-.266a2.5 2.5 0 0 0 1.122-1.122c.265-.557.266-.566.266-2.612 0-2.045-.001-2.055-.265-2.61-.261-.548-.8-1.027-1.418-1.26-.233-.088-.273-.09-2.237-.097-1.495-.006-2.051.005-2.2.042m8.136.002c-1.046.4-1.349 1.703-.578 2.475a1.47 1.47 0 0 0 2.124 0c.719-.719.511-1.928-.412-2.395-.195-.099-.28-.116-.608-.125q-.382-.01-.526.045m5.924-.03a3.56 3.56 0 0 0-2.888 2.841c-.038.197-.052.774-.052 2.092v1.82l.105.248c.25.595.761.938 1.395.938s1.146-.344 1.395-.938l.104-.248.021-1.773.02-1.774.131-.116.13-.117 1.57-.001c.863 0 1.681-.017 1.819-.037a1.494 1.494 0 0 0 1.287-1.7 1.51 1.51 0 0 0-.829-1.126l-.228-.116-1.94-.005c-1.067-.003-1.985.002-2.04.012M6.48 18.52v1H4.52v-2h1.96zm5.036.057c-.371.142-.711.446-.864.774-.137.294-.184.691-.161 1.371.017.499.034.617.119.828.237.587.755.936 1.39.936s1.153-.349 1.39-.936c.085-.211.102-.329.119-.828.033-.973-.075-1.401-.445-1.766a2 2 0 0 0-.414-.299c-.195-.099-.28-.116-.608-.125q-.382-.01-.526.045m9 1c-1.046.4-1.349 1.703-.578 2.475a1.47 1.47 0 0 0 2.124 0c.719-.719.511-1.928-.412-2.395-.195-.099-.28-.116-.608-.125-.253-.007-.431.008-.526.045"/></svg>