<svg xmlns="http://www.w3.org/2000/svg" width="24" height="24" fill="none" stroke="currentColor" stroke-linecap="round" stroke-linejoin="round" stroke-width="3"><path fill="#000" fill-rule="evenodd" stroke="none" d="M4.44 1.547a3.555 3.555 0 0 0-2.888 2.841c-.075.393-.075 6.831 0 7.224a3.62 3.62 0 0 0 1.525 2.307c.304.205.841.433 1.17.495l.233.044v.366c0 .309-.013.381-.083.471-.124.157-.208.188-.618.227-.65.062-1.083.267-1.564.742a2.57 2.57 0 0 0-.661 1.176c-.077.313-.077 2.807 0 3.12.205.834.86 1.549 1.666 1.819.322.108.753.14 1.32.097 3.725-.278 6.653-3.214 6.939-6.956.054-.713.054-10.321 0-10.837-.154-1.465-1.11-2.619-2.526-3.05-.285-.087-.347-.09-2.353-.097-1.133-.004-2.105.001-2.16.011m11 0a3.555 3.555 0 0 0-2.888 2.841c-.075.393-.075 6.831 0 7.224a3.62 3.62 0 0 0 1.525 2.307c.304.205.841.433 1.17.495l.233.044v.366c0 .309-.013.381-.083.471-.124.157-.208.188-.618.227-.65.062-1.083.267-1.564.742a2.57 2.57 0 0 0-.661 1.176c-.077.313-.077 2.807 0 3.12.205.834.86 1.549 1.666 1.819.322.108.753.14 1.32.097 3.725-.278 6.653-3.214 6.939-6.956.054-.713.054-10.321 0-10.837-.154-1.465-1.11-2.619-2.526-3.05-.285-.087-.347-.09-2.353-.097-1.133-.004-2.105.001-2.16.011m-7.095 3.11.137.137-.012 5.493-.012 5.493-.11.379c-.381 1.302-1.205 2.3-2.378 2.879-.337.166-.845.337-1.13.38a3 3 0 0 0-.25.048c-.064.018-.07-.024-.07-.494v-.514l.233-.044c.784-.149 1.631-.72 2.122-1.431.356-.515.539-1.031.61-1.728.055-.534.02-1.591-.063-1.895a2.44 2.44 0 0 0-.636-1.092c-.477-.477-.911-.684-1.565-.746-.41-.039-.494-.07-.618-.227-.082-.105-.083-.127-.083-3.304V4.792l.136-.136.136-.136h3.416zm11 0 .137.137-.012 5.493-.012 5.493-.11.379c-.381 1.302-1.205 2.3-2.378 2.879-.337.166-.845.337-1.13.38a3 3 0 0 0-.25.048c-.064.018-.07-.024-.07-.494v-.514l.233-.044c.784-.149 1.631-.72 2.122-1.431.356-.515.539-1.031.61-1.728.055-.534.02-1.591-.063-1.895a2.44 2.44 0 0 0-.636-1.092c-.477-.477-.911-.684-1.565-.746-.41-.039-.494-.07-.618-.227-.082-.105-.083-.127-.083-3.304V4.792l.136-.136.136-.136h3.416z"/></svg>