<svg xmlns="http://www.w3.org/2000/svg" width="24" height="24" fill="none" stroke="currentColor" stroke-linecap="round" stroke-linejoin="round" stroke-width="3"><path fill="#000" fill-rule="evenodd" stroke="none" d="M17.44.545c-1.019.196-1.839.74-2.392 1.587-.198.304-.418.835-.469 1.132-.055.329-.025.342-.654-.275-.865-.849-1.259-1.113-1.993-1.335-.312-.094-.419-.106-.932-.106s-.62.012-.932.106c-.625.189-1.116.481-1.536.912-.399.409-.553.645-.764 1.166-.399.99-.305 2.112.258 3.073.166.283.629.799 1.427 1.591l.621.617-.43.185a8.4 8.4 0 0 0-1.572.883 5 5 0 0 1-.413.279c-.014 0-.1-.052-.192-.115-.462-.317-1.187-.596-1.787-.689-.425-.065-1.378-.023-1.76.078-1.895.5-3.23 2.066-3.396 3.985a4.48 4.48 0 0 0 2.394 4.358c.451.233.996.411 1.442.472l.349.047.089.276c.049.152.187.471.306.709a5.48 5.48 0 0 0 3.199 2.741c.856.28.695.272 5.366.288 2.582.009 4.318-.001 4.489-.024.869-.121 1.435-.852 1.319-1.704a1.51 1.51 0 0 0-.829-1.126c-.205-.105-.274-.117-.698-.13l-.47-.014.024-.406c.035-.615.139-.869.487-1.194.368-.343.462-.368 1.509-.398.578-.016 1.028-.049 1.21-.088a3.6 3.6 0 0 0 1.798-.998c.874-.914 1.124-1.933.971-3.948-.125-1.629-.721-3.08-1.787-4.344l-.172-.205-.001-1.935c0-1.065-.018-2.106-.04-2.313-.132-1.255-.824-2.255-1.946-2.817-.479-.24-.797-.313-1.433-.327a7 7 0 0 0-.66.006m.904 3.111.136.136V4.86c0 .957-.007 1.066-.063 1.044-.157-.06-.761-.224-.825-.224-.067 0-.072-.063-.072-.944v-.944l.136-.136c.12-.12.161-.136.344-.136s.224.016.344.136m-5.328 2.696c.992.989 1.885 1.849 1.984 1.91.275.171.487.218 1.14.257.409.025.724.068.988.136 1.54.395 2.804 1.655 3.219 3.206.098.366.108.477.123 1.35.024 1.345.091 1.278-1.288 1.315-.87.023-.998.036-1.342.131-.491.136-1.184.475-1.551.759l-.29.224-.25-.195c-.553-.434-1.377-.789-2.054-.886a5 5 0 0 0-.72-.033c-.34.012-.427.03-.623.13-.93.471-1.133 1.673-.407 2.399.275.275.534.384 1.07.45.694.086 1.078.327 1.328.837.106.215.117.277.117.638 0 .22-.013.433-.03.473-.028.069-.139.072-2.44.057-2.088-.014-2.439-.025-2.63-.082a2.64 2.64 0 0 1-1.727-1.611c-.12-.33-.148-1.139-.057-1.67a5.9 5.9 0 0 1 .859-2.208 5.9 5.9 0 0 1 1.517-1.512c.807-.539 1.955-.905 2.848-.908.73-.002 1.116-.125 1.455-.464a1.48 1.48 0 0 0 .417-1.287c-.074-.488-.098-.517-2.19-2.62L10.54 5.197v-.195c0-.307.211-.497.516-.465.145.016.279.139 1.96 1.815m4.5 4.225c-1.049.399-1.349 1.701-.571 2.478.58.58 1.53.583 2.107.007a1.47 1.47 0 0 0 0-2.124c-.292-.292-.55-.395-1.012-.407-.247-.006-.431.01-.524.046M5.477 12.586c.113.037.2.078.194.09l-.227.444a9.2 9.2 0 0 0-.689 1.825c-.127.495-.129.5-.232.475-.304-.075-.678-.408-.864-.769-.11-.214-.119-.263-.118-.651.001-.378.012-.443.113-.646.171-.347.499-.642.862-.775.206-.076.714-.072.961.007"/></svg>