<svg xmlns="http://www.w3.org/2000/svg" width="24" height="24" fill="none" stroke="currentColor" stroke-linecap="round" stroke-linejoin="round" stroke-width="3"><path fill="#000" fill-rule="evenodd" stroke="none" d="M10.66.58a12.4 12.4 0 0 0-2.7.646c-.209.077-.693.294-1.075.482-.593.292-.732.379-.944.587-.321.316-.433.585-.436 1.045-.002.409.102.682.377.991.356.399.941.593 1.425.472.106-.027.481-.19.833-.364.948-.467 1.757-.724 2.708-.859.474-.067 1.609-.078 2.117-.02a8.8 8.8 0 0 1 3.547 1.246l.332.209-.358.358-.357.358-.235-.141a7.52 7.52 0 0 0-7.234-.312c-2.564 1.259-4.18 3.879-4.18 6.779 0 1.087.333 2.403.864 3.415.373.713.772 1.25 1.355 1.828.718.712 1.036.881 1.601.852.572-.03 1.006-.311 1.264-.819.129-.255.136-.29.133-.671-.004-.576-.059-.681-.691-1.302-.543-.534-.863-.965-1.105-1.489a4.5 4.5 0 0 1 .98-5.127A4.33 4.33 0 0 1 11.94 7.51c.694-.001 1.437.148 1.874.377l.106.055-.376.374-.376.375-.294-.076c-.446-.114-1.383-.106-1.806.016-1.287.371-2.274 1.445-2.509 2.733-.06.328-.06.944 0 1.272a3.56 3.56 0 0 0 2.109 2.593c.451.184.832.258 1.332.258.933 0 1.747-.328 2.428-.979a3.51 3.51 0 0 0 .947-3.42l-.068-.253 2.504-2.507c2.892-2.896 2.729-2.692 2.729-3.408 0-.403-.006-.43-.138-.674-.288-.532-1.609-1.612-2.782-2.276A11.6 11.6 0 0 0 13.126.561C12.575.506 11.209.517 10.66.58M3.516 4.577c-1.049.399-1.349 1.701-.571 2.478.58.58 1.53.583 2.107.007a1.47 1.47 0 0 0 0-2.124c-.292-.292-.55-.395-1.012-.407-.247-.006-.431.01-.524.046M21 6.894a1.49 1.49 0 0 0-1.14 1.093c-.091.348-.076.49.117 1.085.388 1.205.462 1.604.492 2.673.023.843-.01 1.28-.15 1.961a8.46 8.46 0 0 1-4.647 5.95c-1.688.801-3.459 1.038-5.224.701-3.036-.581-5.502-2.718-6.485-5.621-.501-1.478-.576-2.93-.243-4.654.098-.503.091-.663-.043-1.021-.12-.322-.491-.695-.817-.823-.358-.14-.838-.136-1.149.01-.426.199-.68.462-.815.842C.679 9.704.515 10.951.515 12a11.34 11.34 0 0 0 3.325 8.083c2.049 2.063 4.577 3.205 7.531 3.399 1.88.124 3.906-.289 5.689-1.161 3.918-1.915 6.437-5.937 6.428-10.261-.002-.842-.05-1.419-.172-2.08-.205-1.112-.593-2.282-.865-2.605-.325-.389-.949-.595-1.451-.481m-3.325 3.301a1.6 1.6 0 0 0-.776.455c-.344.382-.405.594-.434 1.51-.023.729-.121 1.15-.404 1.748-.257.543-.538.922-1.07 1.446-.613.603-.688.744-.69 1.306-.001.351.012.428.105.627.149.318.395.569.708.723.245.12.294.13.665.13.357 0 .425-.012.621-.11a3.5 3.5 0 0 0 .572-.42c1.454-1.279 2.365-3.133 2.505-5.094.073-1.011-.036-1.502-.42-1.897-.333-.343-.919-.522-1.382-.424m-5.331 1.461c.119.119.136.162.136.337 0 .242-.129.424-.343.483a.5.5 0 0 1-.514-.16c-.081-.096-.103-.166-.103-.323 0-.175.017-.218.136-.337s.161-.136.344-.136.224.016.344.136m-.828 4.921c-1.049.399-1.349 1.701-.571 2.478.58.58 1.53.583 2.107.007a1.47 1.47 0 0 0 0-2.124c-.292-.292-.55-.395-1.012-.407-.247-.006-.431.01-.524.046"/></svg>