<svg xmlns="http://www.w3.org/2000/svg" width="24" height="24" fill="none" stroke="currentColor" stroke-linecap="round" stroke-linejoin="round" stroke-width="3"><path fill="#000" fill-rule="evenodd" stroke="none" d="M6.136 2.217c-.324.074-.649.243-1.034.538C2.553 4.712.846 7.696.518 10.767c-.042.389-.04.501.012.755a2.47 2.47 0 0 0 1.761 1.884l.329.094H8.3l.248-.105c.617-.26.892-.69.967-1.515.048-.533.149-.86.366-1.197.201-.311.417-.517.749-.715.149-.089.345-.234.436-.322.396-.384.543-1.093.328-1.589A99 99 0 0 0 10.32 6.14c-.563-.99-1.158-2.043-1.322-2.34-.25-.454-.352-.594-.638-.881-.362-.362-.668-.549-1.08-.66-.328-.088-.857-.108-1.144-.042m10.673.081a2.4 2.4 0 0 0-1.249.767c-.2.246-2.63 4.248-2.902 4.781-.205.4-.202.852.007 1.319.116.258.298.445.692.713.694.471 1.048 1.099 1.129 2 .074.826.348 1.257.966 1.517l.248.105h2.84c2.59 0 2.863-.006 3.1-.071a2.47 2.47 0 0 0 1.423-.993c.399-.586.501-1.145.373-2.025-.307-2.107-1.138-4.034-2.438-5.651-.861-1.07-2.197-2.189-2.873-2.404-.342-.109-.967-.137-1.316-.058M7.313 6.932l.712 1.255-.174.197a7.4 7.4 0 0 0-.779 1.152 7 7 0 0 0-.252.602l-.131.362-1.545.01c-1.222.009-1.544 0-1.544-.04 0-.109.201-.87.32-1.21.172-.491.622-1.4.921-1.86a9.6 9.6 0 0 1 1.254-1.534l.399-.394.053.102c.03.056.374.667.766 1.358m10.776-.919a8.4 8.4 0 0 1 1.97 3.147c.146.418.341 1.156.341 1.29 0 .067-.092.07-1.544.06l-1.545-.01-.131-.362a5.9 5.9 0 0 0-1.013-1.758c-.18-.214-.197-.249-.152-.32.028-.044.38-.633.783-1.309.637-1.07.741-1.224.803-1.191.039.021.258.225.488.453m-6.573 4.564c-1.049.399-1.349 1.701-.571 2.478.58.58 1.53.583 2.107.007a1.47 1.47 0 0 0 0-2.124c-.292-.292-.55-.395-1.012-.407-.247-.006-.431.01-.524.046M9.56 14.072a1.46 1.46 0 0 0-.692.456c-.261.319-2.383 3.942-2.752 4.697-.357.734-.357 1.395.002 2.115.299.601.663.913 1.463 1.253a11.26 11.26 0 0 0 8.838 0c.8-.34 1.164-.652 1.463-1.253q.5-1.005.068-1.982c-.263-.592-2.585-4.563-2.846-4.864-.286-.331-.768-.52-1.228-.482-.198.017-.369.069-.662.201-.603.273-.662.287-1.214.287-.553 0-.611-.014-1.218-.289-.485-.219-.854-.261-1.222-.139m1.6 3.39c.492.074 1.2.073 1.68-.002.209-.033.416-.065.459-.07.064-.008.188.176.662.99.321.55.659 1.137.751 1.305l.168.305-.39.124c-.848.269-1.541.373-2.49.373s-1.642-.104-2.491-.373l-.39-.124.146-.265c.202-.364 1.166-2.03 1.284-2.218.07-.111.115-.147.163-.128.037.014.238.052.448.083"/></svg>