<svg xmlns="http://www.w3.org/2000/svg" width="24" height="24" fill="none" stroke="currentColor" stroke-linecap="round" stroke-linejoin="round" stroke-width="3"><path fill="#000" fill-rule="evenodd" stroke="none" d="M4.574 3.439c-.3.064-.546.224-.899.587a10.4 10.4 0 0 0-1.737 2.33c-2.089 3.746-1.922 8.418.428 11.991.436.664.73 1.028 1.33 1.649.444.46.7.584 1.204.584.311 0 .394-.015.604-.113.309-.143.617-.452.764-.767.097-.207.112-.29.112-.6 0-.322-.013-.388-.125-.62-.082-.169-.249-.393-.477-.64-1.688-1.828-2.489-4.19-2.257-6.66.178-1.886.951-3.606 2.257-5.02.228-.247.395-.471.477-.64.112-.232.125-.298.125-.62 0-.311-.015-.394-.113-.604a1.68 1.68 0 0 0-.748-.753 1.8 1.8 0 0 0-.945-.104m14.2 0c-.424.09-.845.438-1.042.861-.097.207-.112.29-.112.6 0 .322.013.388.126.62.082.17.252.398.493.66a8 8 0 0 1 1.447 2.12 8.5 8.5 0 0 1 .793 4.466c-.192 1.913-.939 3.548-2.299 5.031-.19.208-.378.442-.418.52a1.55 1.55 0 0 0 .104 1.532c.486.702 1.493.845 2.171.31.403-.319 1.299-1.413 1.751-2.139 2.225-3.568 2.312-8.118.226-11.757-.681-1.187-1.749-2.46-2.274-2.707a1.7 1.7 0 0 0-.966-.117M7.485 6.243c-.414.082-.711.308-1.198.913a7.8 7.8 0 0 0-1.629 3.724c-.087.561-.087 1.643-.001 2.198.21 1.345.729 2.558 1.515 3.542.356.446.758.827.98.929a1.498 1.498 0 0 0 2.125-1.567c-.044-.321-.194-.602-.514-.959-.48-.535-.755-1.006-.963-1.652-.174-.538-.213-.862-.189-1.571.015-.438.044-.708.101-.921A4.9 4.9 0 0 1 8.745 8.9c.363-.434.485-.661.529-.982.143-1.045-.748-1.879-1.789-1.675m8.231.134c-.691.264-1.09.925-.993 1.641.044.321.194.602.514.959.482.537.755 1.006.965 1.658.165.513.212.915.187 1.604-.04 1.096-.385 1.967-1.134 2.861-.363.434-.485.661-.529.982a1.49 1.49 0 0 0 1.02 1.643c.449.148.996.05 1.371-.246.46-.364 1.125-1.281 1.522-2.099a7.36 7.36 0 0 0 .768-3.36c.002-1.998-.711-3.793-2.049-5.163-.394-.403-.625-.512-1.116-.525q-.381-.01-.526.045M11.44 8.545c-.77.148-1.465.517-1.966 1.044A3.42 3.42 0 0 0 8.512 12c0 .715.187 1.345.57 1.917a3.56 3.56 0 0 0 2.208 1.509 4.3 4.3 0 0 0 1.42 0 3.513 3.513 0 0 0 2.765-3.772c-.123-1.217-.83-2.232-1.942-2.788-.479-.24-.797-.313-1.433-.327a7 7 0 0 0-.66.006m.904 3.111c.119.119.136.162.136.337 0 .242-.129.424-.343.483a.5.5 0 0 1-.514-.16c-.081-.096-.103-.166-.103-.323 0-.175.017-.218.136-.337s.161-.136.344-.136.224.016.344.136"/></svg>