<svg xmlns="http://www.w3.org/2000/svg" width="24" height="24" fill="none" stroke="currentColor" stroke-linecap="round" stroke-linejoin="round" stroke-width="3"><path fill="#000" fill-rule="evenodd" stroke="none" d="M4.574.439c-.3.064-.546.224-.899.587a10.4 10.4 0 0 0-1.737 2.33c-2.089 3.746-1.922 8.418.428 11.991.436.664.73 1.028 1.33 1.649.444.46.7.584 1.204.584.311 0 .394-.015.604-.113.309-.143.617-.452.764-.767.097-.207.112-.29.112-.6 0-.322-.013-.388-.125-.62-.082-.169-.249-.393-.477-.64-1.688-1.828-2.489-4.19-2.257-6.66.178-1.886.951-3.606 2.257-5.02.228-.247.395-.471.477-.64.112-.232.125-.298.125-.62 0-.311-.015-.394-.113-.604a1.68 1.68 0 0 0-.748-.753 1.8 1.8 0 0 0-.945-.104m14.2 0c-.424.09-.845.438-1.042.861-.097.207-.112.29-.112.6 0 .322.013.388.126.62.082.17.252.398.493.66a8 8 0 0 1 1.447 2.12 8.5 8.5 0 0 1 .792 4.466c-.191 1.9-.95 3.561-2.298 5.031-.375.409-.445.519-.526.823a1.484 1.484 0 0 0 1.446 1.864c.537 0 .876-.194 1.445-.83 1.722-1.925 2.714-4.203 2.94-6.753.061-.683.022-1.926-.08-2.601-.297-1.956-1.097-3.847-2.259-5.34C20.59 1.245 20.043.698 19.74.556a1.7 1.7 0 0 0-.966-.117M7.485 3.243c-.298.059-.535.2-.818.49C5.345 5.086 4.584 7.01 4.591 8.98c.003.958.15 1.778.476 2.66.155.419.553 1.208.734 1.453.321.438.928.685 1.439.588.818-.156 1.357-.898 1.236-1.701-.026-.17-.117-.398-.312-.78-.471-.924-.588-1.432-.553-2.409.042-1.153.366-1.989 1.114-2.872.382-.451.505-.675.549-1.001.143-1.043-.75-1.879-1.789-1.675m8.231.134c-.625.239-1.002.775-1.002 1.423 0 .419.11.694.42 1.048.55.628.796 1.011 1.005 1.566.365.97.368 2.234.008 3.192a10 10 0 0 1-.344.736c-.335.649-.372.891-.213 1.398.124.396.403.706.805.895.194.09.278.105.605.105.334 0 .41-.014.629-.115.298-.138.53-.373.766-.776.471-.808.825-1.846.97-2.849.065-.446.064-1.526-.002-1.98-.232-1.612-.927-3.061-1.986-4.143-.415-.425-.638-.532-1.135-.545q-.381-.01-.526.045M11.44 5.545c-1.488.286-2.621 1.394-2.881 2.819-.06.328-.06.944 0 1.272.149.815.678 1.672 1.325 2.147l.186.136-1.753 4.82c-.965 2.652-1.772 4.925-1.796 5.053-.101.558.213 1.202.734 1.507.252.148.674.228.955.183.477-.078.934-.409 1.124-.814.053-.114.337-.869.63-1.678l.534-1.47h3.004l.575 1.581c.677 1.865.736 1.968 1.277 2.24 1.043.524 2.308-.39 2.124-1.533-.021-.132-.826-2.405-1.793-5.064l-1.755-4.825.186-.136a3.76 3.76 0 0 0 1.062-1.322c.779-1.762.072-3.736-1.645-4.595-.479-.24-.797-.313-1.433-.327a7 7 0 0 0-.66.006m.904 3.111c.12.12.136.161.136.344s-.016.224-.136.344-.161.136-.344.136-.224-.016-.344-.136-.136-.161-.136-.344.016-.224.136-.344.161-.136.344-.136.224.016.344.136m-.148 7.274.194.54c.014.038-.08.05-.39.05s-.404-.012-.39-.05l.194-.54c.097-.269.185-.49.196-.49s.099.221.196.49"/></svg>