<svg xmlns="http://www.w3.org/2000/svg" width="24" height="24" fill="none" stroke="currentColor" stroke-linecap="round" stroke-linejoin="round" stroke-width="3"><path fill="#000" fill-rule="evenodd" stroke="none" d="M3.44 6.547A3.56 3.56 0 0 0 .552 9.388c-.074.389-.074 4.835 0 5.224a3.62 3.62 0 0 0 1.525 2.307c.302.204.841.432 1.164.494l.228.043.025.434c.036.629.171.93.577 1.285.473.413 1.385.413 1.858 0 .397-.346.537-.651.576-1.25l.027-.405h10.936l.027.405c.039.599.179.904.576 1.25.473.413 1.385.413 1.858 0 .406-.355.541-.656.577-1.285l.025-.434.228-.043c.323-.062.862-.29 1.164-.494a3.5 3.5 0 0 0 1.556-2.602c.051-.49.051-4.144 0-4.634-.154-1.464-1.103-2.61-2.526-3.052l-.293-.091-8.56-.005c-4.708-.002-8.605.003-8.66.012m16.904 3.109.136.136v4.402l-.103.122a.6.6 0 0 1-.251.162c-.203.055-16.049.055-16.252 0a.6.6 0 0 1-.251-.162l-.103-.122V9.792l.136-.136.136-.136h16.416zm-2.828.921c-1.049.399-1.349 1.701-.571 2.478.58.58 1.53.583 2.107.007a1.47 1.47 0 0 0 0-2.124c-.292-.292-.55-.395-1.012-.407-.247-.006-.431.01-.524.046"/></svg>