<svg xmlns="http://www.w3.org/2000/svg" width="24" height="24" fill="none" stroke="currentColor" stroke-linecap="round" stroke-linejoin="round" stroke-width="3"><path fill="#000" fill-rule="evenodd" stroke="none" d="M14.16 2.582c-.674.178-1.299.688-1.593 1.301-.191.399-.051-.223-1.53 6.805-.648 3.073-1.188 5.575-1.202 5.56s-.287-.937-.608-2.048c-.32-1.111-.626-2.119-.68-2.24-.288-.649-.942-1.192-1.66-1.378-.213-.055-.523-.063-2.277-.053l-2.03.011-.228.116a1.51 1.51 0 0 0-.829 1.126 1.494 1.494 0 0 0 1.287 1.7c.138.02.894.037 1.68.037.786.001 1.43.011 1.43.023s.496 1.736 1.103 3.83c.75 2.589 1.143 3.883 1.227 4.041a2 2 0 0 0 2.373.937 2.03 2.03 0 0 0 1.311-1.41c.034-.132.775-3.624 1.646-7.76s1.593-7.551 1.605-7.59c.019-.066.192-.07 2.888-.071 1.577 0 2.979-.017 3.117-.037a1.494 1.494 0 0 0 1.287-1.7 1.51 1.51 0 0 0-.829-1.126l-.228-.116-3.52-.008c-2.964-.006-3.555.002-3.74.05"/></svg>