<svg xmlns="http://www.w3.org/2000/svg" width="24" height="24" fill="none" stroke="currentColor" stroke-linecap="round" stroke-linejoin="round" stroke-width="3"><path fill="#000" fill-rule="evenodd" stroke="none" d="M11 .547c-.741.074-1.536.22-2.14.392a11.53 11.53 0 0 0-7.431 6.542c-1.443 3.387-1.18 7.29.702 10.419.872 1.448 2.119 2.759 3.495 3.672 3.388 2.248 7.648 2.547 11.347.797.446-.211.481-.221.6-.173.604.246 1.192.338 1.778.279a3.45 3.45 0 0 0 2.157-1.047c.998-1.044 1.252-2.467.688-3.855-.048-.119-.038-.154.173-.6 1.222-2.584 1.462-5.406.689-8.114-.556-1.949-1.513-3.567-2.954-4.999C18.225 1.994 15.962.907 13.281.581 12.829.526 11.419.505 11 .547m1.961 3.014c2.515.304 4.71 1.641 6.091 3.707 1.015 1.52 1.475 3.153 1.416 5.026-.034 1.071-.217 1.978-.578 2.864l-.154.378-.678.003c-.533.002-.737.019-.952.078l-.274.075-1.263-1.263-1.263-1.263.069-.253c.499-1.844-.585-3.745-2.443-4.283-.264-.076-.407-.09-.932-.09s-.668.014-.932.09c-1.289.374-2.274 1.447-2.509 2.734-.06.328-.06.944 0 1.272a3.56 3.56 0 0 0 2.109 2.593c.451.184.832.258 1.332.258.368 0 .527-.022 1.1-.153.062-.014.36.263 1.336 1.241l1.257 1.258-.066.235a3.9 3.9 0 0 0-.102 1.276c.019.189.025.359.014.377s-.21.107-.441.196a8.5 8.5 0 0 1-5.78.138 8.45 8.45 0 0 1-5.497-5.771c-.232-.827-.276-1.182-.277-2.264-.002-1.099.05-1.509.296-2.365A8.46 8.46 0 0 1 9.655 3.84c.407-.117 1.17-.265 1.505-.292.414-.033 1.486-.025 1.801.013m-.617 8.095c.119.119.136.162.136.337 0 .242-.129.424-.343.483a.5.5 0 0 1-.514-.16c-.081-.096-.103-.166-.103-.323 0-.175.017-.218.136-.337s.161-.136.344-.136.224.016.344.136m7 7c.119.119.136.162.136.337 0 .242-.129.424-.343.483a.5.5 0 0 1-.514-.16c-.081-.096-.103-.166-.103-.323 0-.175.017-.218.136-.337s.161-.136.344-.136.224.016.344.136"/></svg>