<svg xmlns="http://www.w3.org/2000/svg" width="24" height="24" fill="none" stroke="currentColor" stroke-width="2" stroke-linecap="round" stroke-linejoin="round" class="lucide lucide-radio-tower"><path d="M4.447 1.024c-.48.239-1.607 1.681-2.201 2.816a11.087 11.087 0 0 0-.459 9.32c.495 1.234 1.149 2.268 2.11 3.335.346.384.547.528.806.574a.987.987 0 0 0 1.166-1.168c-.042-.235-.11-.338-.501-.761-1.399-1.513-2.264-3.558-2.36-5.58-.125-2.614.679-4.877 2.393-6.736.181-.196.363-.432.404-.526a1.001 1.001 0 0 0-.104-.983 1.004 1.004 0 0 0-1.254-.291m14.197.001a.98.98 0 0 0-.516 1.077c.051.239.119.342.504.758a9.012 9.012 0 0 1 2.288 4.777c.09.614.109 1.788.038 2.364a9.198 9.198 0 0 1-1.422 3.882c-.315.475-.459.657-1 1.26-.351.392-.427.549-.425.877.007.706.753 1.182 1.389.886.138-.064.315-.214.571-.485 1.256-1.327 2.135-2.934 2.613-4.779.818-3.156.135-6.603-1.83-9.23-.524-.7-1.052-1.264-1.3-1.387a1.006 1.006 0 0 0-.91 0M7.412 3.779c-.172.075-.448.334-.742.699a7.165 7.165 0 0 0-1.229 6.724c.186.566.656 1.498.859 1.7.656.656 1.784.123 1.689-.798-.016-.152-.092-.342-.283-.706-.281-.534-.463-1.037-.551-1.518-.078-.43-.068-1.453.018-1.887A5.06 5.06 0 0 1 8.361 5.58c.307-.349.438-.612.438-.88 0-.37-.269-.777-.608-.918-.183-.076-.606-.078-.779-.003m8.483.078a1.04 1.04 0 0 0-.567.459c-.092.156-.108.229-.107.484.001.356.056.478.36.799.915.964 1.387 2.259 1.328 3.641-.037.858-.195 1.431-.616 2.234-.191.364-.265.55-.281.706a.962.962 0 0 0 .506.955.978.978 0 0 0 1.192-.175c.351-.351.904-1.681 1.091-2.622.11-.559.149-1.573.081-2.124-.194-1.572-.899-3.048-1.951-4.083-.307-.302-.654-.394-1.036-.274M11.499 6.04a3.05 3.05 0 0 0-2.385 2.12c-.078.252-.093.387-.093.84 0 .609.072.922.323 1.4.232.442.768.998 1.166 1.209.094.05.164.109.156.131-.708 1.878-3.644 10.055-3.657 10.186-.076.762.76 1.308 1.456.95.333-.172.374-.254 1.054-2.122l.63-1.734h3.702l.63 1.734c.68 1.868.721 1.95 1.054 2.122.696.358 1.532-.188 1.456-.95-.013-.13-3.021-8.51-3.657-10.186-.008-.022.062-.081.156-.131.398-.211.934-.767 1.166-1.209.251-.478.323-.791.323-1.4 0-.453-.015-.588-.093-.84-.305-.981-1.076-1.753-2.025-2.031-.361-.106-1.029-.149-1.362-.089m.811 2.021c.378.112.69.537.69.94 0 .33-.216.695-.516.871-.156.091-.23.108-.484.108s-.328-.017-.484-.108c-.581-.342-.683-1.098-.212-1.569.279-.279.612-.359 1.006-.242m.258 7.429.541 1.49-.555.011c-.305.006-.803.006-1.108 0l-.555-.011.541-1.49c.298-.819.553-1.49.568-1.49.015 0 .27.671.568 1.49" fill-rule="evenodd" fill="#000" stroke="none"/></svg>