<svg xmlns="http://www.w3.org/2000/svg" width="24" height="24" fill="none" stroke="currentColor" stroke-linecap="round" stroke-linejoin="round" stroke-width="3"><path fill="#000" fill-rule="evenodd" stroke="none" d="M9.516 2.577a1.52 1.52 0 0 0-.859 2.087c.087.191.31.435 1.41 1.541l1.307 1.314-3.397.01-3.397.011-.228.116a1.51 1.51 0 0 0-.829 1.126 1.494 1.494 0 0 0 1.287 1.7c.138.02 1.663.037 3.39.037l3.14.001-1.499 1.499-1.498 1.499-1.882.011-1.881.011-.228.116a1.51 1.51 0 0 0-.829 1.126 1.494 1.494 0 0 0 1.287 1.7c.138.02.996.037 1.909.037l1.658.001 2.362 2.358c2.069 2.065 2.391 2.371 2.593 2.464a1.503 1.503 0 0 0 2.011-2.006c-.087-.191-.309-.433-1.391-1.521l-1.287-1.295 3.137-.001c1.726 0 3.25-.017 3.388-.037a1.494 1.494 0 0 0 1.287-1.7 1.51 1.51 0 0 0-.829-1.126l-.228-.116-3.399-.011-3.399-.011 1.499-1.499 1.499-1.499 1.66-.001c.913 0 1.772-.017 1.91-.037a1.494 1.494 0 0 0 1.287-1.7 1.51 1.51 0 0 0-.829-1.126l-.228-.116-1.88-.011-1.88-.012-2.38-2.37c-2.726-2.715-2.584-2.6-3.24-2.616-.246-.006-.431.01-.524.046"/></svg>