<svg xmlns="http://www.w3.org/2000/svg" width="24" height="24" fill="none" stroke="currentColor" stroke-linecap="round" stroke-linejoin="round" stroke-width="3"><path fill="#000" fill-rule="evenodd" stroke="none" d="M10.82 5.563a11.52 11.52 0 0 0-7.707 4.142C1.491 11.667.54 14.234.513 16.724c-.006.533.001.595.095.824.241.591.757.938 1.392.938.63 0 1.153-.349 1.386-.926.08-.197.102-.348.132-.911.021-.371.066-.845.101-1.052a8.4 8.4 0 0 1 2.378-4.598C7.276 9.724 8.758 8.956 10.6 8.613c.546-.102 2.255-.102 2.8 0 1.844.344 3.332 1.115 4.602 2.385a8.2 8.2 0 0 1 1.933 2.97c.333.866.482 1.598.545 2.685.032.556.056.714.134.909.233.575.756.924 1.386.924.635 0 1.151-.347 1.392-.938.094-.229.101-.291.095-.824-.027-2.492-.977-5.055-2.604-7.024a11.47 11.47 0 0 0-7.757-4.139c-.477-.047-1.835-.046-2.306.002m.2 4.001a7.55 7.55 0 0 0-4.315 2.142 7.45 7.45 0 0 0-2.181 4.743c-.063.83.041 1.226.421 1.606.756.756 2.079.482 2.449-.508.055-.147.096-.4.124-.773.053-.7.179-1.181.46-1.754a4.3 4.3 0 0 1 2.042-2.043c.242-.118.62-.265.84-.326.37-.102.455-.11 1.14-.11s.77.008 1.14.11c.488.135 1.19.472 1.54.74.31.237.734.665.962.969.241.322.581 1.044.697 1.48.062.234.117.592.143.934.058.76.155 1 .558 1.377.15.141.495.293.742.326a1.493 1.493 0 0 0 1.698-1.279c.044-.31-.018-1.136-.124-1.658a7.54 7.54 0 0 0-6.281-5.958c-.461-.067-1.636-.078-2.055-.018m.42 3.981c-1.374.264-2.405 1.178-2.798 2.48-.104.348-.16.894-.12 1.186.164 1.209 1.668 1.71 2.533.844.251-.25.377-.525.44-.959.045-.31.065-.36.179-.462.104-.093.164-.114.326-.114s.222.021.326.114c.114.102.134.152.179.462.063.434.189.709.44.959a1.49 1.49 0 0 0 2.11 0c.357-.356.483-.78.419-1.408-.122-1.209-.832-2.226-1.941-2.781-.479-.24-.797-.313-1.433-.327a7 7 0 0 0-.66.006"/></svg>