<svg xmlns="http://www.w3.org/2000/svg" width="24" height="24" fill="none" stroke="currentColor" stroke-linecap="round" stroke-linejoin="round" stroke-width="3"><path fill="#000" fill-rule="evenodd" stroke="none" d="M13.146.584a4.44 4.44 0 0 0-2.394 1.289 3.8 3.8 0 0 0-.813 1.179c-.313.662-.427 1.207-.424 2.033l.001.545-.348.068c-.53.105-1.369.399-1.948.683-2.855 1.4-4.694 4.321-4.708 7.479-.004.981.172 1.799.55 2.543.074.146.087.203.049.215l-.211.064c-.242.074-.691.307-.96.498-.691.491-1.227 1.339-1.381 2.184-.06.328-.06.944 0 1.272a3.56 3.56 0 0 0 2.108 2.593c.691.281.372.265 5.546.28 2.839.009 4.781-.001 4.949-.024.865-.12 1.431-.852 1.315-1.703a1.51 1.51 0 0 0-.829-1.126l-.228-.116-4.78-.02c-3.708-.016-4.799-.031-4.867-.07a.49.49 0 0 1-.253-.459c0-.173.018-.217.136-.335l.136-.136 6.074-.001c3.397 0 6.184-.017 6.324-.037a1.494 1.494 0 0 0 1.287-1.7 1.51 1.51 0 0 0-.829-1.126c-.208-.106-.272-.117-.721-.13l-.493-.014.023-.146c.013-.08.04-.302.061-.493.063-.578.311-.961.782-1.204.211-.109.289-.126.641-.141.349-.014.467 0 .918.11.285.07.923.209 1.419.309.827.167.935.18 1.302.159.512-.029.789-.102 1.26-.332.317-.155.436-.242.723-.53.394-.396.541-.634.72-1.165.122-.364.126-.398.105-.859-.035-.792-.096-.96-.803-2.197l-.501-.876.195-.213c.439-.481.782-1.131.989-1.874.103-.372.111-.452.111-1.14-.001-.638-.013-.785-.09-1.064-.391-1.439-1.313-2.49-2.654-3.028-.932-.374-2.027-.433-2.952-.16l-.416.122q-.073.02-.24-.14c-.52-.501-1.401-.928-2.204-1.068-.435-.076-1.25-.075-1.677.002M14.7 3.669c.496.257.717.624.798 1.326.059.52.171.784.447 1.06a1.49 1.49 0 0 0 2.109 0c.324-.326.431-.607.44-1.147l.006-.366.18-.032c.392-.071.9.065 1.237.331.14.111.234.233.33.427.124.252.133.298.133.671 0 .351-.013.43-.106.628-.155.33-.4.575-.754.753a2.3 2.3 0 0 0-.478.326c-.365.363-.527.962-.388 1.438.035.121.41.826.847 1.591.431.756.775 1.383.764 1.394-.027.026-1.095-.198-1.885-.396l-.64-.161-.76.019c-.654.016-.816.033-1.16.124a5.3 5.3 0 0 0-1.575.767l-.295.223-.105-.098c-.287-.266-.988-.657-1.475-.822a4.2 4.2 0 0 0-1.388-.198c-.346.011-.433.029-.622.125-.555.284-.849.756-.847 1.361.002.402.115.687.393.987.297.321.537.432 1.081.504.683.089 1.07.338 1.32.846.101.206.113.272.113.63 0 .22-.014.433-.03.474-.029.071-.123.074-2.42.057l-2.39-.017-.323-.107c-.746-.245-1.375-.857-1.625-1.579-.082-.238-.092-.342-.092-.928 0-.486.019-.749.073-1 .415-1.943 1.762-3.463 3.627-4.093.56-.189.855-.231 1.86-.266 1.021-.035 1.194-.064 1.48-.253.488-.321.706-.713.706-1.268a1.44 1.44 0 0 0-.363-.99c-.339-.406-.383-.525-.383-1.03 0-.406.009-.457.114-.66.148-.285.356-.501.606-.629.305-.157.369-.169.8-.157.358.009.425.024.64.135m.816 3.908c-1.049.399-1.349 1.701-.571 2.478.58.58 1.53.583 2.107.007a1.47 1.47 0 0 0 0-2.124c-.292-.292-.55-.395-1.012-.407-.247-.006-.431.01-.524.046"/></svg>