<svg xmlns="http://www.w3.org/2000/svg" width="24" height="24" fill="none" stroke="currentColor" stroke-linecap="round" stroke-linejoin="round" stroke-width="3"><path fill="#000" fill-rule="evenodd" stroke="none" d="M7.44.547C6.212.76 5.136 1.642 4.728 2.771c-.153.423-.199.674-.233 1.266l-.026.473-.565.021c-.407.015-.646.044-.857.106A3.56 3.56 0 0 0 .552 7.388c-.075.396-.075 8.828 0 9.224.221 1.168 1.036 2.177 2.115 2.617.425.173.753.24 1.335.274l.467.028.027.457c.015.251.046.558.069.681.205 1.106 1.044 2.128 2.103 2.56.7.285.421.271 5.332.271 4.913 0 4.632.014 5.336-.273.783-.319 1.51-1.016 1.842-1.766.215-.486.339-1.115.341-1.725l.001-.205.473-.027c.587-.035.914-.102 1.34-.275 1.195-.488 2.007-1.589 2.146-2.912.053-.502.053-8.132 0-8.634-.132-1.255-.824-2.255-1.946-2.817-.47-.236-.798-.312-1.443-.335l-.57-.021-.001-.225c-.001-.382-.076-.966-.16-1.249-.348-1.169-1.218-2.038-2.406-2.405l-.293-.09L12.1.536C9.592.532 7.495.538 7.44.547m8.904 3.109c.135.135.136.139.136.5v.364H7.52v-.364c0-.361.001-.365.136-.5l.136-.136h8.416zM4.48 12.02v4.5h-.23c-.32-.001-.507-.062-.627-.204l-.103-.122V7.792l.136-.136c.134-.134.142-.136.48-.136h.344zm12 0v4.5H7.52v-9h8.96zm3.864-4.364.136.136v8.402l-.103.122c-.12.142-.307.203-.627.204h-.23v-9h.344c.338 0 .346.002.48.136M16.48 19.857c0 .303-.01.349-.103.459a.6.6 0 0 1-.25.163c-.202.056-8.052.056-8.254 0a.6.6 0 0 1-.25-.163c-.093-.11-.103-.156-.103-.459v-.337h8.96z"/></svg>