<svg xmlns="http://www.w3.org/2000/svg" width="24" height="24" fill="none" stroke="currentColor" stroke-linecap="round" stroke-linejoin="round" stroke-width="3"><path fill="#000" fill-rule="evenodd" stroke="none" d="M3.491.596a1.58 1.58 0 0 0-.902.884L2.5 1.7l-.011 10.1c-.006 6.068.005 10.207.027 10.369.096.695.602 1.215 1.275 1.31.398.056.605-.004 1.439-.416l.77-.381.77.38c.537.266.84.392 1 .417.397.063.615.001 1.46-.417l.77-.38.77.38c1.182.584 1.278.584 2.46 0l.77-.38.77.38c1.182.585 1.278.585 2.461 0l.771-.381.722.361c.872.436 1.096.504 1.468.439.694-.121 1.179-.597 1.289-1.263.05-.308.052-20.059.001-20.408a1.51 1.51 0 0 0-.834-1.154c-.209-.106-.264-.116-.65-.116h-.421l-.789.388-.788.389-.788-.389-.789-.388h-.846l-.789.388-.788.389-.788-.389-.789-.388h-.846l-.789.388-.788.389-.788-.389L8.423.54h-.846l-.789.388L6 1.317 5.212.928 4.424.54 4.062.53c-.278-.008-.41.007-.571.066m5.277 3.465c1.184.586 1.28.586 2.462.001l.77-.38.77.38c1.182.585 1.278.585 2.461 0l.771-.381.709.354c.39.194.779.377.865.404.174.057.575.069.774.024l.13-.029V19.54h-.903l-.788.388-.789.389-.788-.389-.789-.388h-.846l-.789.388-.788.389-.788-.389-.789-.388h-.846l-.789.388-.788.389-.789-.389-.788-.388H5.52V4.434l.13.029c.219.05.608.031.814-.04.108-.037.493-.218.856-.403s.664-.337.668-.338.355.17.78.379m3.612 2.563c-.949.142-1.817.46-2.498.918a5.67 5.67 0 0 0-2.084 2.657c-.06.165-.134.312-.164.327l-.282.136a1.487 1.487 0 0 0-.407 2.393c.171.171.52.383.635.385.022 0 .082.14.133.31.125.416.388.965.658 1.374.811 1.23 2.034 2.047 3.569 2.385.457.1 1.589.098 2.06-.004.777-.169 1.524-.482 2.081-.873.457-.32 1.085-.949 1.242-1.244.17-.318.209-.779.097-1.148-.2-.661-.905-1.108-1.61-1.021-.357.044-.612.19-1.047.596-.449.42-.734.583-1.243.71a1.9 1.9 0 0 1-.7.062c-.667-.044-1.131-.255-1.6-.725l-.32-.322 1.2-.023c1.125-.021 1.215-.028 1.433-.114a1.52 1.52 0 0 0 .944-1.185 1.5 1.5 0 0 0-.829-1.562l-.228-.116-1.17-.012c-.643-.007-1.17-.026-1.17-.042 0-.048.326-.345.52-.474a2.74 2.74 0 0 1 1.377-.411c.321.001.736.106 1.089.275.252.121.411.238.7.513.444.423.709.565 1.115.599a1.476 1.476 0 0 0 1.538-1.022c.053-.161.066-.302.054-.56-.024-.484-.154-.718-.688-1.237a5.4 5.4 0 0 0-2.716-1.452c-.358-.077-1.406-.135-1.689-.093"/></svg>