<svg xmlns="http://www.w3.org/2000/svg" width="24" height="24" fill="none" stroke="currentColor" stroke-linecap="round" stroke-linejoin="round" stroke-width="3"><path fill="#000" fill-rule="evenodd" stroke="none" d="M3.491.596a1.58 1.58 0 0 0-.902.884L2.5 1.7l-.011 10.1c-.006 6.068.005 10.207.027 10.369.096.695.602 1.215 1.275 1.31.398.056.605-.004 1.439-.416l.77-.381.77.38c.537.266.84.392 1 .417.397.063.615.001 1.46-.417l.77-.38.77.38c1.182.584 1.278.584 2.46 0l.77-.38.77.38c1.182.585 1.278.585 2.461 0l.771-.381.722.361c.872.436 1.096.504 1.468.439.694-.121 1.179-.597 1.289-1.263.05-.308.052-20.059.001-20.408a1.51 1.51 0 0 0-.834-1.154c-.209-.106-.264-.116-.65-.116h-.421l-.789.388-.788.389-.788-.389-.789-.388h-.846l-.789.388-.788.389-.788-.389-.789-.388h-.846l-.789.388-.788.389-.788-.389L8.423.54h-.846l-.789.388L6 1.317 5.212.928 4.424.54 4.062.53c-.278-.008-.41.007-.571.066m5.277 3.465c1.184.586 1.28.586 2.462.001l.77-.38.77.38c1.182.585 1.278.585 2.461 0l.771-.381.709.354c.39.194.779.377.865.404.174.057.575.069.774.024l.13-.029V19.54h-.903l-.788.388-.789.389-.788-.389-.789-.388h-.846l-.789.388-.788.389-.788-.389-.789-.388h-.846l-.789.388-.788.389-.789-.389-.788-.388H5.52V4.434l.13.029c.219.05.608.031.814-.04.108-.037.493-.218.856-.403s.664-.337.668-.338.355.17.78.379M8.22 5.52c-.607.019-.652.026-.868.136a1.496 1.496 0 0 0 .115 2.745c.207.079.34.092 1.173.117 1.035.032 1.18.061 1.633.332.243.144.687.546.687.62 0 .036-.415.05-1.69.059l-1.69.011-.228.116c-1.174.594-1.104 2.265.115 2.748.226.09.279.093 1.873.114l1.64.022-.279.273c-.297.291-.725.53-1.121.627-.11.027-.605.06-1.1.075-.871.025-.907.029-1.121.134-.914.447-1.139 1.653-.444 2.377.207.215 4.322 2.791 4.636 2.902.478.168 1.106.02 1.474-.347.484-.485.598-1.113.315-1.733-.143-.313-.283-.445-.84-.797a19 19 0 0 1-.529-.34c-.034-.028.045-.107.279-.281a5.64 5.64 0 0 0 1.931-2.6l.109-.31.825-.001c.454 0 .937-.017 1.075-.037a1.494 1.494 0 0 0 1.287-1.7 1.51 1.51 0 0 0-.829-1.126l-.228-.116-1.052-.012c-1.039-.013-1.052-.014-1.088-.1l-.179-.448-.167-.41c-.018-.039.195-.05.992-.051.558 0 1.126-.017 1.264-.037a1.494 1.494 0 0 0 1.287-1.7 1.51 1.51 0 0 0-.829-1.126l-.228-.116-.88-.01c-1.993-.022-6.724-.029-7.32-.01"/></svg>