<svg xmlns="http://www.w3.org/2000/svg" width="24" height="24" fill="none" stroke="currentColor" stroke-linecap="round" stroke-linejoin="round" stroke-width="3"><path fill="#000" fill-rule="evenodd" stroke="none" d="M3.491.596a1.58 1.58 0 0 0-.902.884L2.5 1.7l-.011 10.1c-.006 6.068.005 10.207.027 10.369.096.695.602 1.215 1.275 1.31.398.056.605-.004 1.439-.416l.77-.381.77.38c.537.266.84.392 1 .417.397.063.615.001 1.46-.417l.77-.38.77.38c1.182.584 1.278.584 2.46 0l.77-.38.77.38c1.182.585 1.278.585 2.461 0l.771-.381.722.361c.872.436 1.096.504 1.468.439.694-.121 1.179-.597 1.289-1.263.05-.308.052-20.059.001-20.408a1.51 1.51 0 0 0-.834-1.154c-.209-.106-.264-.116-.65-.116h-.421l-.789.388-.788.389-.788-.389-.789-.388h-.846l-.789.388-.788.389-.788-.389-.789-.388h-.846l-.789.388-.788.389-.788-.389L8.423.54h-.846l-.789.388L6 1.317 5.212.928 4.424.54 4.062.53c-.278-.008-.41.007-.571.066m5.277 3.465c1.184.586 1.28.586 2.462.001l.77-.38.77.38c1.182.585 1.278.585 2.461 0l.771-.381.709.354c.39.194.779.377.865.404.174.057.575.069.774.024l.13-.029V19.54h-.903l-.788.388-.789.389-.788-.389-.789-.388h-.846l-.789.388-.788.389-.788-.389-.789-.388h-.846l-.789.388-.788.389-.789-.389-.788-.388H5.52V4.434l.13.029c.219.05.608.031.814-.04.108-.037.493-.218.856-.403s.664-.337.668-.338.355.17.78.379m-.252 1.516c-.855.325-1.24 1.255-.862 2.082.081.176.269.392.907 1.038l.804.815-.392.014c-.338.012-.425.03-.621.13a1.51 1.51 0 0 0-.829 1.126 1.494 1.494 0 0 0 1.287 1.7c.138.02.57.037.96.037l.71.001v.996l-.95.012-.95.012-.228.116c-.93.471-1.133 1.673-.407 2.399.381.382.7.463 1.82.464l.704.001.02.63c.017.521.036.67.109.86.163.426.547.802.94.92.209.062.715.062.924 0 .393-.118.778-.495.94-.92.071-.188.091-.344.108-.86l.021-.63.705-.001c1.119-.001 1.438-.082 1.819-.464.726-.726.523-1.928-.407-2.399l-.228-.116-.95-.013-.95-.012v-.995l.71-.001c.39 0 .822-.017.96-.037a1.494 1.494 0 0 0 1.287-1.7 1.51 1.51 0 0 0-.827-1.125c-.193-.098-.285-.117-.62-.131l-.393-.015.803-.815c.637-.645.825-.861.906-1.037a1.505 1.505 0 0 0-.698-2.003c-.208-.106-.264-.116-.648-.116-.647 0-.68.022-1.95 1.276L12 7.854l-1.05-1.038C9.703 5.584 9.646 5.545 9.04 5.531c-.246-.006-.431.01-.524.046"/></svg>