<svg xmlns="http://www.w3.org/2000/svg" width="24" height="24" fill="none" stroke="currentColor" stroke-linecap="round" stroke-linejoin="round" stroke-width="3"><path fill="#000" fill-rule="evenodd" stroke="none" d="M3.491.596a1.58 1.58 0 0 0-.902.884L2.5 1.7l-.011 10.1c-.006 6.068.005 10.207.027 10.369.096.695.602 1.215 1.275 1.31.398.056.605-.004 1.439-.416l.77-.381.77.38c.537.266.84.392 1 .417.397.063.615.001 1.46-.417l.77-.38.77.38c1.182.584 1.278.584 2.46 0l.77-.38.77.38c1.182.585 1.278.585 2.461 0l.771-.381.722.361c.872.436 1.096.504 1.468.439.694-.121 1.179-.597 1.289-1.263.05-.308.052-20.059.001-20.408a1.51 1.51 0 0 0-.834-1.154c-.209-.106-.264-.116-.65-.116h-.421l-.789.388-.788.389-.788-.389-.789-.388h-.846l-.789.388-.788.389-.788-.389-.789-.388h-.846l-.789.388-.788.389-.788-.389L8.423.54h-.846l-.789.388L6 1.317 5.212.928 4.424.54 4.062.53c-.278-.008-.41.007-.571.066m5.277 3.465c1.184.586 1.28.586 2.462.001l.77-.38.77.38c1.182.585 1.278.585 2.461 0l.771-.381.709.354c.39.194.779.377.865.404.174.057.575.069.774.024l.13-.029V19.54h-.903l-.788.388-.789.389-.788-.389-.789-.388h-.846l-.789.388-.788.389-.788-.389-.789-.388h-.846l-.789.388-.788.389-.789-.389-.788-.388H5.52V4.434l.13.029c.219.05.608.031.814-.04.108-.037.493-.218.856-.403s.664-.337.668-.338.355.17.78.379m.748 1.517a1.54 1.54 0 0 0-.998 1.232c-.02.138-.037 1.702-.037 3.477l-.001 3.226-.45.014c-.402.012-.474.025-.678.129-.93.471-1.133 1.673-.407 2.399.315.316.731.462 1.319.464l.204.001.027.405c.039.599.179.904.576 1.25.473.413 1.385.413 1.858 0 .397-.346.537-.651.576-1.25l.027-.405.704-.001c1.119-.001 1.438-.083 1.819-.464.726-.726.523-1.928-.407-2.399l-.228-.116-.95-.013-.95-.012v-.995l1.21-.001c.666 0 1.322-.017 1.46-.037a1.494 1.494 0 0 0 1.287-1.7 1.51 1.51 0 0 0-.829-1.126l-.228-.116-1.45-.012-1.45-.012V8.52l1.71-.001c.941 0 1.822-.017 1.96-.037a1.494 1.494 0 0 0 1.287-1.7 1.51 1.51 0 0 0-.829-1.126l-.228-.116-2.88-.008c-2.326-.006-2.908.003-3.024.046"/></svg>