<svg xmlns="http://www.w3.org/2000/svg" width="24" height="24" fill="none" stroke="currentColor" stroke-linecap="round" stroke-linejoin="round" stroke-width="3"><path fill="#000" fill-rule="evenodd" stroke="none" d="M3.491.596a1.58 1.58 0 0 0-.902.884L2.5 1.7l-.011 10.1c-.006 6.068.005 10.207.027 10.369.096.695.602 1.215 1.275 1.31.398.056.605-.004 1.439-.416l.77-.381.77.38c.537.266.84.392 1 .417.397.063.615.001 1.46-.417l.77-.38.77.38c1.182.584 1.278.584 2.46 0l.77-.38.77.38c1.182.585 1.278.585 2.461 0l.771-.381.722.361c.872.436 1.096.504 1.468.439.694-.121 1.179-.597 1.289-1.263.05-.308.052-20.059.001-20.408a1.51 1.51 0 0 0-.834-1.154c-.209-.106-.264-.116-.65-.116h-.421l-.789.388-.788.389-.788-.389-.789-.388h-.846l-.789.388-.788.389-.788-.389-.789-.388h-.846l-.789.388-.788.389-.788-.389L8.423.54h-.846l-.789.388L6 1.317 5.212.928 4.424.54 4.062.53c-.278-.008-.41.007-.571.066m5.277 3.465c1.184.586 1.28.586 2.462.001l.77-.38.77.38c1.182.585 1.278.585 2.461 0l.771-.381.709.354c.39.194.779.377.865.404.174.057.575.069.774.024l.13-.029V19.54h-.903l-.788.388-.789.389-.788-.389-.789-.388h-.846l-.789.388-.788.389-.788-.389-.789-.388h-.846l-.789.388-.788.389-.789-.389-.788-.388H5.52V4.434l.13.029c.219.05.608.031.814-.04.108-.037.493-.218.856-.403s.664-.337.668-.338.355.17.78.379m2.869.994c-.609.131-1.061.683-1.137 1.389l-.028.263-.269.086c-.148.048-.439.17-.646.27a5.47 5.47 0 0 0-3.073 4.493A5.53 5.53 0 0 0 8.78 16.49a7 7 0 0 0 1.417.715l.27.087.041.308c.053.397.197.709.443.955.294.294.648.444 1.049.444s.755-.15 1.049-.444c.246-.246.384-.545.444-.96l.047-.324.303-.11a5.16 5.16 0 0 0 1.98-1.26c.549-.55.637-.73.637-1.301 0-.348-.015-.453-.088-.61-.122-.265-.46-.608-.728-.74-.202-.099-.265-.11-.644-.109-.537.002-.699.072-1.118.48-.169.164-.32.299-.335.299s-.027-.864-.027-1.92.014-1.92.031-1.92.148.118.29.263c.319.324.503.436.85.516.507.118 1.01-.042 1.386-.439.315-.334.383-.514.383-1.02 0-.376-.011-.443-.109-.64-.185-.375-.757-.944-1.363-1.356a6.2 6.2 0 0 0-1.141-.563l-.307-.112-.046-.32c-.08-.554-.291-.905-.702-1.171a1.3 1.3 0 0 0-.485-.194c-.304-.053-.38-.052-.67.011m-1.166 7.955-.011 1.01-.243-.243a2.6 2.6 0 0 1-.623-.977c-.08-.224-.093-.336-.093-.8s.013-.576.093-.8c.131-.366.341-.695.623-.977l.243-.243.011 1.01c.006.556.006 1.465 0 2.02"/></svg>