<svg xmlns="http://www.w3.org/2000/svg" width="24" height="24" fill="none" stroke="currentColor" stroke-linecap="round" stroke-linejoin="round" stroke-width="3"><path fill="#000" fill-rule="evenodd" stroke="none" d="M7.44.547a3.56 3.56 0 0 0-2.888 2.841c-.076.399-.076 16.825 0 17.224.221 1.168 1.036 2.177 2.116 2.617.7.285.421.271 5.332.271 4.015 0 4.447-.006 4.71-.068a3.7 3.7 0 0 0 1.798-1.004c.573-.6.883-1.272.971-2.111.054-.512.054-16.122 0-16.634-.154-1.465-1.105-2.613-2.526-3.052l-.293-.09L12.1.536C9.592.532 7.495.538 7.44.547m8.904 3.109.136.136v16.402l-.103.122a.6.6 0 0 1-.25.163c-.202.056-8.052.056-8.254 0a.6.6 0 0 1-.25-.163l-.103-.122V3.792l.136-.136.136-.136h8.416z"/></svg>