<svg xmlns="http://www.w3.org/2000/svg" width="24" height="24" fill="none" stroke="currentColor" stroke-linecap="round" stroke-linejoin="round" stroke-width="3"><path fill="#000" fill-rule="evenodd" stroke="none" d="M3.44 4.547A3.56 3.56 0 0 0 .552 7.388c-.075.396-.075 8.828 0 9.224.221 1.168 1.036 2.177 2.116 2.617.719.293-.04.271 9.332.271 7.775 0 8.442-.005 8.71-.068 1.537-.359 2.605-1.561 2.769-3.115.053-.502.053-8.132 0-8.634-.154-1.464-1.103-2.61-2.526-3.052l-.293-.091-8.56-.005c-4.708-.002-8.605.003-8.66.012m16.904 3.109.136.136v8.402l-.103.122a.6.6 0 0 1-.25.163c-.204.056-16.05.056-16.254 0a.6.6 0 0 1-.25-.163l-.103-.122V7.792l.136-.136.136-.136h16.416zM6.516 10.577c-1.049.399-1.349 1.701-.571 2.478.71.71 1.942.519 2.393-.371a1.48 1.48 0 0 0-.286-1.746c-.292-.292-.55-.395-1.012-.407-.247-.006-.431.01-.524.046m5 0c-1.049.399-1.349 1.701-.571 2.478.58.58 1.53.583 2.107.007a1.47 1.47 0 0 0 0-2.124c-.292-.292-.55-.395-1.012-.407-.247-.006-.431.01-.524.046m5 0c-1.049.399-1.349 1.701-.571 2.478.58.58 1.53.583 2.107.007a1.47 1.47 0 0 0 0-2.124c-.292-.292-.55-.395-1.012-.407-.247-.006-.431.01-.524.046"/></svg>