<svg xmlns="http://www.w3.org/2000/svg" width="24" height="24" fill="none" stroke="currentColor" stroke-linecap="round" stroke-linejoin="round" stroke-width="3"><path fill="#000" fill-rule="evenodd" stroke="none" d="M11.3 1.584c-.941.226-1.653.759-2.186 1.638-.593.977-1.16 2.006-1.22 2.214-.079.271-.054.614.07.947.119.319.49.69.822.82.327.13.783.129 1.114-.002.415-.163.633-.429 1.28-1.561.308-.538.593-1.012.632-1.052.05-.05.118-.069.217-.06l.144.012 1.079 1.872c.593 1.029 1.069 1.88 1.058 1.892-.012.011-.171-.02-.355-.068-.488-.129-.842-.118-1.171.036-.35.164-.597.401-.754.724-.118.242-.128.296-.127.644.001.334.014.408.113.609q.246.505.677.706c.143.068 1.177.366 2.447.706 2 .535 2.223.586 2.448.568.466-.037.973-.354 1.182-.738.069-.127.319-.98.695-2.374.681-2.526.693-2.606.469-3.082-.165-.35-.368-.568-.668-.715-.594-.292-1.207-.219-1.68.201-.265.236-.369.416-.492.849a3 3 0 0 1-.129.398c-.014.015-.483-.768-1.042-1.74-.56-.972-1.106-1.9-1.213-2.061a3.27 3.27 0 0 0-2.064-1.39c-.369-.072-1.032-.068-1.346.007M4.8 8.582c-1.319.357-2.235.626-2.388.7-.947.462-1.085 1.815-.252 2.474.436.345.914.415 1.571.23l.351-.099-.076.126c-.407.674-2.053 3.559-2.172 3.807a3 3 0 0 0-.314 1.4c0 1.519.99 2.78 2.5 3.184.285.077.456.088 1.58.105 1.375.021 1.717-.006 2.049-.16.425-.198.764-.661.828-1.131a1.5 1.5 0 0 0-.829-1.562l-.228-.116-1.366-.02c-1.271-.019-1.372-.025-1.45-.096a.28.28 0 0 1-.084-.19q0-.114 1.066-1.953c.586-1.013 1.077-1.841 1.091-1.841s.058.13.099.29c.04.159.125.4.188.534.264.562.92.906 1.541.809a1.5 1.5 0 0 0 1.147-.865c.109-.231.126-.312.125-.588 0-.286-.063-.554-.585-2.487-.322-1.192-.618-2.236-.657-2.32-.108-.229-.461-.562-.724-.682a1.25 1.25 0 0 0-.551-.117c-.303-.01-.436.021-2.46.568m14.38 4.174a1.496 1.496 0 0 0-1.129 1.586c.026.346.067.431.855 1.788.601 1.036.646 1.153.49 1.294-.081.073-.188.076-2.425.087l-2.34.011.31-.331c.34-.364.49-.636.536-.973a1.5 1.5 0 0 0-.829-1.562c-.208-.106-.264-.116-.648-.116-.682 0-.611-.053-2.566 1.898-1.284 1.281-1.69 1.709-1.768 1.868a1.6 1.6 0 0 0 0 1.388c.078.158.489.593 1.768 1.874 1.443 1.444 1.697 1.681 1.898 1.773 1.113.51 2.308-.358 2.145-1.559-.045-.329-.196-.609-.515-.952l-.289-.31 2.214-.001c2.747-.001 3.045-.028 3.703-.338a3.2 3.2 0 0 0 1.592-1.593c.227-.481.278-.735.278-1.388 0-.882-.034-.971-1.034-2.715-.36-.627-.685-1.143-.799-1.269a1.4 1.4 0 0 0-1.02-.481 2 2 0 0 0-.427.021"/></svg>