<svg xmlns="http://www.w3.org/2000/svg" width="24" height="24" fill="none" stroke="currentColor" stroke-linecap="round" stroke-linejoin="round" stroke-width="3"><path fill="#000" fill-rule="evenodd" stroke="none" d="M20.516 5.577a1.62 1.62 0 0 0-.92.89c-.088.224-.093.291-.114 1.68l-.022 1.446-.38-.337c-2.04-1.813-4.422-2.736-7.063-2.736-1.369 0-2.555.21-3.743.662-.948.361-2.094 1.023-2.906 1.679a12.6 12.6 0 0 0-1.553 1.564 10.55 10.55 0 0 0-2.196 4.99c-.086.54-.138 1.507-.098 1.791.172 1.217 1.666 1.718 2.534.849.332-.332.462-.727.464-1.41.002-.836.27-1.915.7-2.825a7.49 7.49 0 0 1 5.706-4.238c.544-.079 1.532-.08 2.098-.001a7.53 7.53 0 0 1 3.727 1.633c.16.13.29.252.29.27s-.554.038-1.23.044l-1.23.012-.228.116a1.51 1.51 0 0 0-.829 1.126 1.494 1.494 0 0 0 1.287 1.7c.369.054 6.159.048 6.451-.006.314-.058.569-.192.796-.419a1.42 1.42 0 0 0 .422-.846c.05-.343.053-6.059.003-6.401a1.51 1.51 0 0 0-.832-1.153c-.195-.099-.28-.116-.608-.125-.253-.007-.431.008-.526.045m-9.136 8.997a2.73 2.73 0 0 0-1.279.795c-.21.239-.469.746-.542 1.064A3 3 0 0 0 9.51 17c0 .446.058.695.256 1.112.223.467.655.899 1.122 1.122.417.198.666.256 1.112.256s.695-.058 1.112-.256a2.5 2.5 0 0 0 1.122-1.122c.198-.417.256-.666.256-1.112s-.058-.695-.255-1.11c-.262-.55-.811-1.037-1.418-1.257-.295-.107-1.12-.141-1.437-.059m.964 2.082c.119.119.136.162.136.337 0 .242-.129.424-.343.483a.5.5 0 0 1-.514-.16c-.081-.096-.103-.166-.103-.323 0-.175.017-.218.136-.337s.161-.136.344-.136.224.016.344.136"/></svg>