<svg xmlns="http://www.w3.org/2000/svg" width="24" height="24" fill="none" stroke="currentColor" stroke-linecap="round" stroke-linejoin="round" stroke-width="3"><path fill="#000" fill-rule="evenodd" stroke="none" d="M20.516 5.577a1.62 1.62 0 0 0-.92.89c-.088.224-.093.291-.114 1.68l-.022 1.446-.38-.337c-2.04-1.813-4.422-2.736-7.063-2.736-1.369 0-2.555.21-3.743.662-.948.361-2.094 1.023-2.906 1.679a12.6 12.6 0 0 0-1.553 1.564 10.55 10.55 0 0 0-2.196 4.99c-.086.54-.138 1.507-.098 1.791.172 1.217 1.666 1.718 2.534.849.332-.332.462-.727.464-1.41.002-.836.27-1.915.7-2.825a7.49 7.49 0 0 1 5.706-4.238c.544-.079 1.532-.08 2.098-.001a7.53 7.53 0 0 1 3.727 1.633c.16.13.29.252.29.27s-.554.038-1.23.044l-1.23.012-.228.116a1.51 1.51 0 0 0-.829 1.126 1.494 1.494 0 0 0 1.287 1.7c.369.054 6.159.048 6.451-.006.314-.058.569-.192.796-.419a1.42 1.42 0 0 0 .422-.846c.05-.343.053-6.059.003-6.401a1.51 1.51 0 0 0-.832-1.153c-.195-.099-.28-.116-.608-.125-.253-.007-.431.008-.526.045"/></svg>