<svg xmlns="http://www.w3.org/2000/svg" width="24" height="24" fill="none" stroke="currentColor" stroke-linecap="round" stroke-linejoin="round" stroke-width="3"><path fill="#000" fill-rule="evenodd" stroke="none" d="M14.516 2.577a1.52 1.52 0 0 0-.859 2.087c.087.191.31.435 1.411 1.542l1.307 1.314h-3.748c-4.004 0-4.03.001-4.847.204-2.705.672-4.75 2.927-5.201 5.736-.084.524-.084 1.51-.001 2.06a7.01 7.01 0 0 0 4.562 5.561c1.033.369 1.336.404 3.72.427 1.245.012 2.109.005 2.289-.021.376-.052.664-.19.906-.432.726-.726.523-1.928-.407-2.399l-.228-.116-2.18-.024c-2.294-.025-2.454-.037-3-.223a4.02 4.02 0 0 1-2.656-3.021c-.127-.615-.069-1.461.144-2.092.369-1.09 1.362-2.083 2.452-2.452.622-.21.584-.208 4.506-.208h3.649l-1.287 1.295c-1.082 1.088-1.304 1.33-1.391 1.521a1.502 1.502 0 0 0 2.011 2.006c.205-.094.543-.417 2.898-2.774 2.098-2.1 2.688-2.712 2.769-2.874a1.6 1.6 0 0 0 .141-.938c-.08-.498-.042-.455-2.91-3.318-3.046-3.042-2.863-2.891-3.526-2.907-.246-.006-.431.01-.524.046"/></svg>