<svg xmlns="http://www.w3.org/2000/svg" width="24" height="24" fill="none" stroke="currentColor" stroke-linecap="round" stroke-linejoin="round" stroke-width="3"><path fill="#000" fill-rule="evenodd" stroke="none" d="M8.081.583c-2.049.374-3.664 1.77-4.303 3.721-.296.903-.278.341-.278 8.616 0 5.888.011 7.476.052 7.692.221 1.168 1.036 2.177 2.116 2.617.707.288.306.271 6.332.271 4.955 0 5.445-.006 5.71-.068a3.7 3.7 0 0 0 1.798-1.004c.584-.611.887-1.28.974-2.153.027-.275.037-2.843.028-7.615-.014-8.011.005-7.464-.288-8.357C19.579 2.34 17.952.942 15.89.582 15.401.496 8.551.497 8.081.583m7.736 3.047a2.67 2.67 0 0 1 1.553 1.553c.087.228.09.295.102 1.787l.012 1.55h-.964l-.001-.73c0-.401-.017-.842-.037-.98a1.51 1.51 0 0 0-.834-1.154c-.208-.106-.264-.116-.648-.116s-.44.01-.648.116a1.51 1.51 0 0 0-.834 1.154c-.02.138-.037.579-.037.98l-.001.73H6.52V7.082c0-.91.016-1.516.045-1.65.145-.685.674-1.346 1.346-1.679.469-.233.364-.228 4.169-.22l3.5.007zm-2.329 8.78c.016.842.023.904.119 1.138.243.592.758.938 1.393.938s1.15-.346 1.393-.938c.096-.234.103-.296.119-1.138l.018-.89h.95v8.674l-.103.122a.6.6 0 0 1-.25.163c-.203.056-10.051.056-10.254 0a.6.6 0 0 1-.25-.163l-.103-.122V11.52h6.95z"/></svg>