<svg xmlns="http://www.w3.org/2000/svg" width="24" height="24" fill="none" stroke="currentColor" stroke-linecap="round" stroke-linejoin="round" stroke-width="3"><path fill="#000" fill-rule="evenodd" stroke="none" d="M10.84 1.563c-.791.086-1.815.333-2.566.619-.948.361-2.094 1.023-2.906 1.679a12.6 12.6 0 0 0-1.553 1.564 10.55 10.55 0 0 0-2.196 4.99c-.086.54-.138 1.507-.098 1.791.172 1.217 1.666 1.718 2.534.849.332-.332.462-.727.464-1.41.002-.836.27-1.915.7-2.825a7.49 7.49 0 0 1 5.706-4.238c.54-.079 1.533-.08 2.123-.002a8.3 8.3 0 0 1 2.537.764c.463.225 1.267.737 1.573 1.002l.178.154-.878.02c-.871.02-.88.021-1.106.136a1.51 1.51 0 0 0-.829 1.126 1.494 1.494 0 0 0 1.287 1.7c.353.051 5.107.048 5.424-.004.327-.053.588-.187.823-.421.234-.235.368-.496.421-.823.052-.317.055-5.071.004-5.424a1.51 1.51 0 0 0-.834-1.154c-.208-.106-.264-.116-.648-.116-.381 0-.44.01-.64.112q-.558.285-.761.815c-.079.204-.093.336-.115 1.058l-.024.825-.42-.339C17.476 2.75 15.633 1.94 13.6 1.619c-.496-.078-2.234-.114-2.76-.056m9.676 9.014c-.371.142-.711.446-.864.773-.112.241-.17.579-.171 1.005a7.8 7.8 0 0 1-.185 1.385c-.793 3.194-3.497 5.491-6.756 5.737-1.948.147-4.019-.5-5.617-1.755l-.257-.202.637-.001c1.046-.001 1.377-.089 1.752-.464.726-.726.523-1.928-.407-2.399l-.228-.116-2.74-.02c-1.507-.011-2.836-.006-2.954.011-.422.062-.863.389-1.067.791-.172.339-.184.581-.171 3.362L1.5 21.3l.105.248c.25.595.761.938 1.395.938.635 0 1.151-.347 1.392-.938.094-.229.103-.311.125-1.073l.023-.825.42.339a11.1 11.1 0 0 0 3.96 2.064c.883.255 1.546.367 2.494.424 4.351.259 8.418-2.236 10.2-6.258.346-.782.631-1.757.765-2.616.088-.564.141-1.521.1-1.809a1.51 1.51 0 0 0-.829-1.137c-.195-.099-.28-.116-.608-.125-.253-.007-.431.008-.526.045"/></svg>