<svg xmlns="http://www.w3.org/2000/svg" width="24" height="24" fill="none" stroke="currentColor" stroke-linecap="round" stroke-linejoin="round" stroke-width="3"><path fill="#000" fill-rule="evenodd" stroke="none" d="M2.516 1.577a1.54 1.54 0 0 0-.998 1.233c-.051.353-.048 5.107.004 5.424.053.327.187.588.421.823.235.234.496.368.823.421.317.052 5.071.055 5.424.004a1.494 1.494 0 0 0 1.287-1.7 1.51 1.51 0 0 0-.829-1.126c-.228-.116-.229-.116-1.101-.129-1.009-.015-.979.016-.407-.408a8.24 8.24 0 0 1 3.815-1.541c.569-.076 1.588-.074 2.12.004 3.029.444 5.476 2.678 6.221 5.678.092.372.184 1.059.185 1.385.002.683.132 1.078.464 1.41.868.869 2.362.368 2.534-.849.04-.284-.012-1.251-.098-1.791a10.45 10.45 0 0 0-2.969-5.839 10.44 10.44 0 0 0-6.39-3.019c-.608-.061-2.052-.026-2.622.063a11.4 11.4 0 0 0-5.44 2.391l-.42.339-.024-.825c-.022-.722-.036-.854-.115-1.058q-.203-.53-.759-.814c-.187-.095-.274-.112-.6-.121-.253-.007-.431.008-.526.045m0 9c-.54.207-.918.669-.995 1.217-.04.284.012 1.251.098 1.791a10.45 10.45 0 0 0 2.962 5.834c3.184 3.185 7.928 3.971 12.149 2.015a10.8 10.8 0 0 0 2.31-1.445l.42-.339.023.825c.022.762.031.844.125 1.073.241.591.757.938 1.392.938s1.145-.343 1.395-.938l.105-.248.012-2.616c.013-2.781.001-3.023-.171-3.362-.209-.412-.647-.731-1.087-.79-.128-.018-1.458-.023-2.954-.012l-2.72.02-.228.116a1.496 1.496 0 0 0 .115 2.745c.202.078.338.093 1.033.114l.8.025-.24.192c-1.016.814-2.373 1.418-3.711 1.65-2.455.426-4.901-.343-6.643-2.087a7.5 7.5 0 0 1-1.981-3.477c-.11-.437-.205-1.109-.206-1.463-.002-.884-.262-1.391-.869-1.698-.195-.099-.28-.116-.608-.125-.253-.007-.431.008-.526.045"/></svg>