<svg xmlns="http://www.w3.org/2000/svg" width="24" height="24" fill="none" stroke="currentColor" stroke-linecap="round" stroke-linejoin="round" stroke-width="3"><path fill="#000" fill-rule="evenodd" stroke="none" d="M2.516.577a1.54 1.54 0 0 0-.998 1.233c-.052.355-.048 6.106.004 6.424a1.5 1.5 0 0 0 1.217 1.242c.292.054 6.082.06 6.451.006a1.494 1.494 0 0 0 1.287-1.7 1.51 1.51 0 0 0-.829-1.126L9.42 6.54l-1.23-.012c-.676-.007-1.23-.028-1.23-.047 0-.047.592-.52.94-.751 1.691-1.122 3.941-1.497 5.94-.99 1.397.354 2.761 1.173 3.703 2.223 1.198 1.337 1.826 2.859 1.937 4.695.054.89.147 1.129.591 1.517.357.312 1.008.406 1.484.213a1.48 1.48 0 0 0 .836-.84c.091-.224.1-.298.096-.768-.026-2.659-1.132-5.25-3.077-7.205-1.191-1.197-2.751-2.125-4.429-2.634-2.583-.783-5.635-.462-7.986.84-.852.472-1.273.778-2.285 1.66l-.19.165-.001-1.273c0-.7-.017-1.385-.037-1.523A1.51 1.51 0 0 0 3.65.657C3.455.558 3.37.541 3.042.532c-.253-.007-.431.008-.526.045m8.864 8.997a2.73 2.73 0 0 0-1.279.795c-.21.239-.469.746-.542 1.064A3 3 0 0 0 9.51 12c0 .446.058.695.256 1.112.223.467.655.899 1.122 1.122.417.198.666.256 1.112.256s.695-.058 1.112-.256a2.5 2.5 0 0 0 1.122-1.122c.198-.417.256-.666.256-1.112s-.058-.695-.255-1.11c-.262-.55-.811-1.037-1.418-1.257-.295-.107-1.12-.141-1.437-.059m-8.864 1.003c-.536.205-.921.673-.993 1.207-.043.313.021 1.346.119 1.936a10.53 10.53 0 0 0 2.927 5.686c1.644 1.66 3.963 2.778 6.291 3.034.515.056 1.695.056 2.181 0 2.364-.275 4.152-1.064 5.966-2.633l.466-.404.014 1.449.014 1.448.104.248c.249.594.761.938 1.395.938s1.145-.343 1.395-.938l.105-.248.012-3.08c.013-3.278.001-3.559-.169-3.894-.201-.396-.632-.723-1.045-.793-.109-.018-1.665-.024-3.458-.013l-3.26.02-.228.116a1.5 1.5 0 0 0-.829 1.562c.071.522.443.989.944 1.185.218.085.31.093 1.409.114l1.175.023-.299.247c-.68.563-1.618 1.082-2.401 1.329-.775.245-1.293.328-2.191.352-.724.019-.881.011-1.335-.067-2.464-.419-4.478-1.917-5.565-4.141-.449-.918-.672-1.796-.739-2.912-.031-.503-.061-.718-.125-.889-.128-.343-.385-.617-.754-.806-.187-.095-.274-.112-.6-.121-.253-.007-.431.008-.526.045m9.828 1.079c.119.119.136.162.136.337 0 .242-.129.424-.343.483a.5.5 0 0 1-.514-.16c-.081-.096-.103-.166-.103-.323 0-.175.017-.218.136-.337s.161-.136.344-.136.224.016.344.136"/></svg>