<svg xmlns="http://www.w3.org/2000/svg" width="24" height="24" fill="none" stroke="currentColor" stroke-linecap="round" stroke-linejoin="round" stroke-width="3"><path fill="#000" fill-rule="evenodd" stroke="none" d="M1.516.577C.657.906.276 1.832.657 2.665c.088.192.319.443 1.509 1.639l1.405 1.411-.308.462c-1.106 1.661-1.729 3.64-1.751 5.56-.005.519.002.583.096.811.161.396.448.683.837.84.476.193 1.127.099 1.484-.213.443-.387.539-.631.59-1.502.056-.94.191-1.62.465-2.33.142-.368.566-1.214.687-1.373.069-.09.079-.08 5.262 5.103l5.194 5.194-.274.164c-2.224 1.341-5.002 1.418-7.473.209-.495-.242-1.174-.671-1.514-.957l-.195-.163.635-.001c1.043-.001 1.374-.089 1.749-.464.726-.726.523-1.928-.407-2.399l-.228-.116-2.74-.02c-1.507-.011-2.836-.006-2.954.011-.422.062-.863.389-1.067.791-.172.339-.184.581-.171 3.362L1.5 21.3l.105.248c.25.595.761.938 1.395.938.635 0 1.15-.347 1.392-.938.095-.232.103-.303.12-1.078l.018-.83.145.121c.08.067.352.279.605.471a11.3 11.3 0 0 0 5.58 2.208c.623.068 1.86.058 2.44-.019a10.6 10.6 0 0 0 4.523-1.684l.462-.308 1.411 1.405c1.196 1.19 1.447 1.421 1.639 1.509a1.503 1.503 0 0 0 2.007-2.011c-.095-.21-1.076-1.202-10.274-10.395C1.635-.49 2.738.551 2.042.532c-.253-.007-.431.008-.526.045m9.524.966c-.055.009-.262.036-.46.06-.804.096-1.974.417-2.284.626-.445.302-.68.781-.648 1.327.032.558.318.993.819 1.248.402.203.715.208 1.373.021.275-.079.662-.173.86-.209.479-.087 1.656-.119 2.185-.059a8.6 8.6 0 0 1 3.335 1.126c.322.195 1.099.763 1.1.805 0 .015-.392.033-.87.04-.869.012-.87.012-1.098.128a1.51 1.51 0 0 0-.829 1.126 1.494 1.494 0 0 0 1.287 1.7c.353.051 5.107.048 5.424-.004.327-.053.588-.187.823-.421.234-.235.368-.496.421-.823.052-.317.055-5.071.004-5.424a1.51 1.51 0 0 0-.834-1.154c-.208-.106-.264-.116-.648-.116-.381 0-.44.01-.64.112q-.558.285-.761.815c-.079.204-.093.336-.115 1.058l-.024.825-.42-.338a11.6 11.6 0 0 0-3.88-2.044c-1.082-.319-1.731-.412-3-.429a21 21 0 0 0-1.12.004m9.476 9.034c-.416.159-.77.501-.912.882-.063.168-.094.385-.123.853a7.8 7.8 0 0 1-.307 1.865c-.121.435-.141.561-.125.801.034.542.365 1.022.864 1.256.198.093.277.106.627.106.359 0 .423-.012.62-.112.462-.234.686-.532.881-1.172a10.2 10.2 0 0 0 .444-2.817c.004-.467-.007-.57-.084-.772q-.203-.53-.759-.814c-.187-.095-.274-.112-.6-.121-.253-.007-.431.008-.526.045"/></svg>