<svg xmlns="http://www.w3.org/2000/svg" width="24" height="24" fill="none" stroke="currentColor" stroke-linecap="round" stroke-linejoin="round" stroke-width="3"><path fill="#000" fill-rule="evenodd" stroke="none" d="M16.516 1.577a1.54 1.54 0 0 0-.998 1.233c-.02.138-.037.775-.037 1.417l-.001 1.166-.97-.562c-1.374-.796-1.409-.811-1.85-.81-.323.001-.388.015-.628.131a1.64 1.64 0 0 0-.76.806c-.123.31-.12.772.008 1.102.162.418.422.629 1.631 1.319.577.33 1.049.61 1.049.623s-.482.301-1.07.64c-1.22.702-1.451.888-1.61 1.298-.128.33-.131.792-.008 1.102.275.694 1.088 1.103 1.788.9.142-.042.663-.316 1.304-.685.586-.34 1.076-.617 1.088-.617.011 0 .027.599.035 1.33.015 1.325.015 1.331.119 1.578.247.594.76.938 1.394.938s1.147-.344 1.394-.938c.104-.247.104-.253.119-1.578.008-.731.024-1.33.035-1.33s.502.277 1.088.617c1.188.686 1.387.766 1.811.731a1.508 1.508 0 0 0 1.272-2.048c-.158-.41-.388-.596-1.609-1.298-.589-.339-1.07-.627-1.07-.64s.472-.293 1.049-.623c1.209-.69 1.469-.901 1.631-1.319.128-.33.131-.792.008-1.102a1.64 1.64 0 0 0-.76-.806c-.24-.116-.305-.13-.628-.131-.441-.001-.476.014-1.85.81l-.97.562-.001-1.166c0-.642-.017-1.279-.037-1.417a1.51 1.51 0 0 0-.832-1.153c-.195-.099-.28-.116-.608-.125-.253-.007-.431.008-.526.045M4.44 13.546a3.56 3.56 0 0 0-2.888 2.842c-.072.378-.072 2.846 0 3.224.221 1.168 1.036 2.177 2.116 2.617.621.253.755.269 2.332.269 1.182 0 1.469-.012 1.71-.067 1.531-.352 2.605-1.56 2.769-3.114.051-.487.051-2.147 0-2.634-.154-1.465-1.113-2.622-2.526-3.05-.279-.084-.37-.089-1.853-.097a45 45 0 0 0-1.66.01m2.904 3.11.136.136v2.402l-.103.122a.6.6 0 0 1-.25.163c-.192.053-2.062.053-2.254 0a.6.6 0 0 1-.25-.163l-.103-.122v-2.402l.136-.136.136-.136h2.416z"/></svg>