<svg xmlns="http://www.w3.org/2000/svg" width="24" height="24" fill="none" stroke="currentColor" stroke-linecap="round" stroke-linejoin="round" stroke-width="3"><path fill="#000" fill-rule="evenodd" stroke="none" d="m8.16 2.52-4.58.02-.228.116c-.476.241-.763.65-.839 1.193-.022.165-.034.957-.026 1.869L2.501 7.3l.104.248c.25.594.761.938 1.395.938.635 0 1.15-.346 1.393-.938.096-.234.103-.296.119-1.138l.018-.89h5.421l-.077.25-2.027 6.49-1.951 6.24-1.158.02-1.158.02-.228.116a1.51 1.51 0 0 0-.829 1.126 1.494 1.494 0 0 0 1.287 1.7c.326.047 6.054.047 6.38 0a1.494 1.494 0 0 0 1.287-1.7 1.51 1.51 0 0 0-.829-1.126c-.221-.113-.249-.116-.921-.129-.506-.01-.688-.026-.676-.06.009-.026.924-2.949 2.032-6.497l2.014-6.45h4.373l.018.89c.016.842.023.904.119 1.138.243.592.758.938 1.393.938.634 0 1.145-.344 1.395-.938l.104-.248.014-1.582c.008-.912-.004-1.704-.026-1.869-.076-.543-.363-.952-.839-1.193l-.228-.116-.88-.01a967 967 0 0 0-11.38-.01m6.356 11.057c-.855.325-1.24 1.255-.862 2.082.081.176.269.391.901 1.032l.798.809-.798.809c-.633.641-.82.855-.9 1.032a1.499 1.499 0 0 0 1.563 2.136c.442-.06.599-.17 1.473-1.032l.809-.798.809.798c.641.633.855.82 1.032.9a1.499 1.499 0 0 0 2.136-1.563c-.06-.443-.17-.6-1.032-1.473l-.798-.809.798-.809c.632-.641.82-.856.901-1.032a1.505 1.505 0 0 0-.698-2.003c-.208-.106-.264-.116-.648-.116-.624 0-.707.05-1.7 1.027l-.8.786-.8-.786c-.972-.956-1.078-1.022-1.66-1.036-.246-.006-.431.01-.524.046"/></svg>