<svg xmlns="http://www.w3.org/2000/svg" width="24" height="24" fill="none" stroke="currentColor" stroke-linecap="round" stroke-linejoin="round" stroke-width="3"><path fill="#000" fill-rule="evenodd" stroke="none" d="M16.516.577c-.857.328-1.24 1.255-.862 2.082.081.176.27.392.91 1.042l.809.819h-5.457c-4.722 0-5.503.009-5.806.062-2.062.36-3.689 1.758-4.332 3.722-.216.66-.269 1.065-.274 2.096-.004.885-.002.904.101 1.148.25.595.761.938 1.395.938.635 0 1.152-.348 1.391-.938.095-.232.103-.31.129-1.188.023-.819.038-.971.113-1.177a2.66 2.66 0 0 1 1.55-1.553l.237-.09 5.457-.011 5.457-.01-.789.8c-.851.864-.962 1.022-1.022 1.463-.163 1.2 1.031 2.069 2.145 1.56.203-.093.499-.373 2.398-2.274 1.689-1.69 2.189-2.213 2.269-2.374.21-.423.21-.965 0-1.388-.08-.161-.576-.678-2.269-2.368C17.58.457 17.697.55 17.042.532c-.253-.007-.431.008-.526.045m4 11c-.419.16-.768.499-.917.89-.079.207-.092.34-.117 1.173-.032 1.034-.06 1.175-.332 1.636-.203.346-.656.773-.998.942-.609.301-.122.277-6.13.292l-5.398.013.81-.821c.642-.651.831-.867.912-1.043a1.505 1.505 0 0 0-.698-2.003c-.208-.106-.264-.116-.648-.116-.695 0-.551-.113-3.066 2.398-1.693 1.69-2.189 2.207-2.269 2.368-.21.423-.21.965 0 1.388.08.161.58.684 2.269 2.374 1.899 1.901 2.195 2.181 2.398 2.274 1.114.509 2.308-.36 2.145-1.56-.06-.441-.171-.6-1.02-1.461l-.786-.798 5.434-.013c6.039-.015 5.716-.001 6.592-.288a5.5 5.5 0 0 0 3.525-3.525c.185-.564.253-1.015.283-1.857.028-.798-.012-1.179-.156-1.489-.124-.266-.406-.546-.699-.694-.195-.099-.28-.116-.608-.125-.253-.007-.431.008-.526.045"/></svg>