<svg xmlns="http://www.w3.org/2000/svg" width="24" height="24" fill="none" stroke="currentColor" stroke-linecap="round" stroke-linejoin="round" stroke-width="3"><path fill="#000" fill-rule="evenodd" stroke="none" d="M4.729 4.524c-.447.075-.522.137-2.297 1.91C.988 7.877.751 8.131.659 8.332c-.51 1.113.358 2.308 1.559 2.145.329-.045.608-.196.95-.513l.307-.287.016 3.392c.016 3.719.007 3.564.265 4.235.319.826 1.068 1.581 1.908 1.923.672.274.544.265 4.044.282 1.928.01 3.278.001 3.449-.023.368-.051.657-.19.898-.431.726-.726.523-1.928-.407-2.399l-.228-.116-3.28-.02c-2.511-.015-3.3-.032-3.367-.07a.7.7 0 0 1-.17-.155c-.082-.105-.083-.126-.083-3.364V9.673l.31.289c.343.319.623.47.952.515 1.201.163 2.069-1.032 1.559-2.145-.092-.201-.329-.455-1.773-1.898-1.799-1.797-1.842-1.832-2.334-1.912a3 3 0 0 0-.274-.037zm5.787.054c-.366.136-.71.444-.864.774a1.5 1.5 0 0 0 1.158 2.13c.138.02 1.633.037 3.324.037l3.074.001.136.136.136.136v6.535l-.301-.278a3 3 0 0 0-.53-.393c-.209-.106-.265-.116-.649-.116s-.44.01-.648.116c-.754.382-1.048 1.237-.693 2.012.092.201.329.455 1.773 1.898 1.281 1.279 1.716 1.69 1.874 1.768a1.6 1.6 0 0 0 1.388 0c.158-.078.593-.489 1.874-1.768 1.444-1.443 1.681-1.697 1.773-1.898.355-.775.061-1.63-.693-2.012-.208-.106-.264-.116-.648-.116s-.44.01-.649.116a3 3 0 0 0-.53.393l-.301.278-.001-3.134c0-1.788-.017-3.295-.04-3.51-.154-1.465-1.106-2.615-2.526-3.051l-.293-.09-3.5-.009c-2.85-.007-3.527.001-3.644.045"/></svg>