<svg xmlns="http://www.w3.org/2000/svg" width="24" height="24" fill="none" stroke="currentColor" stroke-linecap="round" stroke-linejoin="round" stroke-width="3"><path fill="#000" fill-rule="evenodd" stroke="none" d="M8.146.583a4.45 4.45 0 0 0-2.394 1.29 3.8 3.8 0 0 0-.814 1.181c-.336.708-.457 1.414-.458 2.659v.614l-.301-.278a3 3 0 0 0-.53-.393C3.44 5.55 3.384 5.54 3 5.54s-.44.01-.648.116c-.754.382-1.048 1.237-.693 2.012.092.201.329.455 1.773 1.898 1.281 1.279 1.716 1.69 1.874 1.768a1.6 1.6 0 0 0 1.388 0c.158-.078.593-.489 1.874-1.768 1.444-1.443 1.681-1.697 1.773-1.898.355-.775.061-1.63-.693-2.012C9.44 5.55 9.384 5.54 9 5.54s-.44.01-.649.116a3 3 0 0 0-.533.396l-.304.28.013-.896.013-.896.126-.24a1.45 1.45 0 0 1 .654-.644c.215-.109.24-.113 1.1-.139.772-.024.909-.038 1.113-.116a1.496 1.496 0 0 0 .115-2.745L10.42.54 9.44.532C8.727.527 8.375.54 8.146.583M15.44.546c-1.596.3-2.756 1.535-2.915 3.104-.063.625.064 1.049.42 1.405a1.49 1.49 0 0 0 2.11 0c.25-.25.377-.525.44-.955.068-.467.138-.537.605-.605.43-.063.705-.19.955-.44.726-.726.522-1.929-.407-2.399-.207-.105-.269-.117-.668-.123a5 5 0 0 0-.54.013m4.076.03c-1.051.406-1.349 1.701-.571 2.479.25.25.525.377.955.44.467.068.537.138.605.605.063.43.19.705.44.955.865.866 2.369.365 2.533-.844a3 3 0 0 0-.004-.564 3.51 3.51 0 0 0-2.521-3.01c-.378-.109-1.22-.145-1.437-.061m-6 6.001c-.371.142-.711.446-.864.775-.13.276-.169.584-.126 1.001a3.5 3.5 0 0 0 3.121 3.121c.628.064 1.052-.062 1.408-.419.579-.579.583-1.533.009-2.099a1.5 1.5 0 0 0-.921-.436c-.493-.062-.592-.16-.655-.648-.073-.56-.356-.971-.838-1.215-.195-.099-.28-.116-.608-.125q-.382-.01-.526.045m8 0c-.371.142-.711.446-.865.775a2.2 2.2 0 0 0-.139.52c-.063.487-.167.591-.648.645-1.269.142-1.813 1.644-.919 2.538.356.357.78.483 1.408.419a3.5 3.5 0 0 0 3.121-3.121c.019-.186.021-.44.004-.564a1.51 1.51 0 0 0-.828-1.132c-.195-.099-.28-.116-.608-.125-.253-.007-.431.008-.526.045M3.44 12.547a3.56 3.56 0 0 0-2.888 2.841c-.074.389-.074 4.835 0 5.224.221 1.168 1.036 2.177 2.116 2.617.669.272.647.271 3.332.271 2.132 0 2.454-.008 2.71-.068a3.7 3.7 0 0 0 1.798-1.004c.573-.6.883-1.272.971-2.111.051-.49.051-4.144 0-4.634-.154-1.465-1.108-2.617-2.526-3.051-.289-.088-.325-.089-2.853-.096-1.408-.004-2.605.001-2.66.011m4.904 3.109.136.136v4.402l-.103.122a.6.6 0 0 1-.25.163c-.199.055-4.055.055-4.254 0a.6.6 0 0 1-.25-.163l-.103-.122v-4.402l.136-.136.136-.136h4.416z"/></svg>