<svg xmlns="http://www.w3.org/2000/svg" width="24" height="24" fill="none" stroke="currentColor" stroke-linecap="round" stroke-linejoin="round" stroke-width="3"><path fill="#000" fill-rule="evenodd" stroke="none" d="M6.516 5.577a2.3 2.3 0 0 0-.32.163c-.097.059-1.359 1.29-2.804 2.734-2.319 2.318-2.64 2.653-2.734 2.858a1.58 1.58 0 0 0 0 1.336c.094.205.417.543 2.774 2.9s2.695 2.68 2.9 2.774a1.503 1.503 0 0 0 2.01-2.009c-.092-.2-.372-.498-2.152-2.282L4.143 12 6.19 9.949c1.78-1.784 2.06-2.082 2.152-2.282.354-.774.06-1.63-.694-2.011-.198-.101-.279-.117-.608-.125-.246-.006-.431.01-.524.046m5 0a2.3 2.3 0 0 0-.32.163c-.097.06-1.358 1.29-2.802 2.734-2.064 2.064-2.648 2.67-2.728 2.832a1.6 1.6 0 0 0-.001 1.388c.081.162.671.774 2.769 2.874 2.355 2.357 2.693 2.68 2.898 2.774a1.502 1.502 0 0 0 2.011-2.006c-.087-.191-.309-.433-1.392-1.522l-1.288-1.296 3.958.011 3.959.011.237.09c.715.269 1.29.845 1.552 1.553.082.222.089.326.111 1.677.023 1.43.024 1.442.127 1.688.245.593.758.938 1.393.938.634 0 1.145-.343 1.395-.938l.105-.248-.002-1.4c-.003-1.573-.033-1.855-.276-2.596-.643-1.964-2.27-3.362-4.332-3.722-.298-.053-.932-.062-4.308-.062h-3.957l1.307-1.314c1.101-1.107 1.324-1.351 1.411-1.542.353-.771.057-1.627-.695-2.008-.198-.101-.279-.117-.608-.125-.246-.006-.431.01-.524.046"/></svg>