<svg xmlns="http://www.w3.org/2000/svg" width="24" height="24" fill="none" stroke="currentColor" stroke-linecap="round" stroke-linejoin="round" stroke-width="3"><path fill="#000" fill-rule="evenodd" stroke="none" d="M10.458 3.6c-.142.056-1.581 1.151-4.76 3.622C3.191 9.17 1.054 10.847.95 10.949c-.341.329-.483.744-.424 1.233.043.356.179.628.442.883.346.333 9.232 7.218 9.423 7.3a1.498 1.498 0 0 0 2.091-1.175c.02-.138.037-1.46.037-2.94.001-1.479.011-2.69.022-2.69.012 0 1.969 1.514 4.348 3.365 2.38 1.85 4.406 3.398 4.502 3.44a1.498 1.498 0 0 0 2.091-1.175c.053-.363.048-14.062-.004-14.387a1.47 1.47 0 0 0-.457-.878c-.299-.284-.517-.373-.961-.395-.298-.015-.398-.003-.583.066-.174.066-1.174.824-4.568 3.464a591 591 0 0 1-4.368 3.38c-.011 0-.021-1.211-.021-2.69 0-1.671-.016-2.787-.042-2.947a1.47 1.47 0 0 0-.457-.878c-.308-.291-.515-.374-.981-.391-.309-.012-.418.001-.582.066m-.978 8.399v3.919l-2.501-1.945c-1.376-1.071-2.496-1.962-2.489-1.982.009-.028 4.935-3.893 4.98-3.908.006-.002.01 1.761.01 3.916m11 0v3.919l-2.501-1.945c-1.376-1.071-2.496-1.962-2.489-1.982.009-.028 4.935-3.893 4.98-3.908.006-.002.01 1.761.01 3.916"/></svg>