<svg xmlns="http://www.w3.org/2000/svg" width="24" height="24" fill="none" stroke="currentColor" stroke-linecap="round" stroke-linejoin="round" stroke-width="3"><path fill="#000" fill-rule="evenodd" stroke="none" d="M10.86.579c-3.222.445-5.71 2.578-6.261 5.367-.1.506-.118 1.453-.04 2.114.238 2.016.937 3.644 2.528 5.888.214.301.382.557.373.57-.008.012-.664.859-1.457 1.882s-1.504 1.977-1.579 2.12c-.206.394-.28.76-.253 1.251.037.661.252 1.165.684 1.604.254.258 2.212 1.679 2.554 1.853a2.23 2.23 0 0 0 1.111.257c.419 0 .705-.063 1.089-.238.456-.208.656-.416 1.538-1.593.452-.604.836-1.092.854-1.086s.362.462.764 1.012c.403.55.846 1.112.987 1.249.713.699 1.872.871 2.781.414.382-.192 2.337-1.601 2.629-1.895.724-.73.888-1.982.378-2.888-.075-.132-.787-1.068-1.583-2.08a105 105 0 0 1-1.465-1.886c-.01-.026.106-.215.258-.42 1.965-2.663 2.735-4.645 2.739-7.054.003-1.598-.611-3.049-1.791-4.234-1.213-1.22-2.756-1.961-4.595-2.207-.527-.071-1.729-.071-2.243 0m2.52 3.099c.839.216 1.645.664 2.191 1.217.212.214.469.545.469.603 0 .013-.13-.042-.289-.122-1.255-.632-2.927-.966-4.281-.855-1.224.1-2.279.38-3.221.855-.159.08-.289.135-.289.122 0-.058.257-.389.469-.603.658-.667 1.673-1.163 2.731-1.335.121-.02.562-.029.98-.021.692.014.803.026 1.24.139m-1.031 3.983c.131.131.14.155.122.336-.014.151-.067.267-.235.519a2.6 2.6 0 0 1-.236.323c-.011 0-.117-.145-.236-.323-.168-.252-.221-.368-.235-.519-.018-.181-.009-.205.122-.336.125-.125.164-.141.349-.141s.224.016.349.141M8.688 9.04c.167.526.473 1.051 1.026 1.758.179.23.326.43.326.445 0 .023-.506.675-.598.77-.036.037-.516-.674-.885-1.313-.24-.416-.636-1.265-.637-1.367 0-.072.657-.665.672-.605.007.028.05.169.096.312m7.093-.03.306.29-.086.22c-.152.386-.581 1.175-.929 1.707-.334.51-.645.946-1.394 1.953-.212.286-.914 1.24-1.559 2.12-2.156 2.942-3.693 4.983-3.739 4.966-.024-.01-.263-.176-.529-.37l-.485-.352.11-.142 1.566-2.022c1.519-1.963 3.837-4.88 4.641-5.84.986-1.177 1.428-1.859 1.641-2.53.05-.159.105-.29.121-.29s.167.131.336.29m-.124 9.3c.522.665.938 1.226.926 1.246-.041.065-.99.728-1.026.716-.07-.024-1.678-2.251-1.66-2.299.011-.027.175-.259.365-.516.287-.389.354-.458.396-.412.029.03.478.599.999 1.265"/></svg>