<svg xmlns="http://www.w3.org/2000/svg" width="24" height="24" fill="none" stroke="currentColor" stroke-linecap="round" stroke-linejoin="round" stroke-width="3"><path fill="#000" fill-rule="evenodd" stroke="none" d="M2.949.615c-.287.121-.479.265-.636.479-.228.31-.287.492-.288.886-.002.356.016.423 1.528 5.694.841 2.933 1.572 5.417 1.624 5.52.132.259.397.508.699.657.225.111.31.129.684.148l.427.021-1.039 1.949-1.04 1.948-.153-.121a21 21 0 0 1-.667-.588c-.675-.614-.783-.668-1.328-.668-.368 0-.447.013-.64.103-.598.281-.965.98-.841 1.606.092.472.245.684.952 1.323 2.311 2.089 4.903 3.267 8.169 3.715.514.07 2.686.07 3.2 0 1.203-.165 2.118-.377 3.127-.723 1.883-.646 3.522-1.619 5.042-2.992.707-.639.86-.851.952-1.323.124-.626-.243-1.325-.841-1.606-.193-.09-.272-.103-.64-.103-.549 0-.651.052-1.357.695-.529.482-.714.632-.737.6-.006-.008-.41-.87-.896-1.915l-.885-1.9.487-.023c.69-.033.993-.164 1.312-.567.635-.803.281-2.015-.69-2.361-.1-.036-1.484-.053-5.49-.068l-5.355-.021-1.355-4.74c-.769-2.691-1.401-4.833-1.463-4.954-.123-.244-.379-.487-.671-.638-.165-.085-.267-.106-.58-.117-.331-.012-.41-.001-.611.084M15.304 16.7a244 244 0 0 1 1.254 2.705c.006.072-1.407.539-2.098.692-.888.198-1.326.241-2.46.241-1.135 0-1.574-.043-2.46-.241-.702-.157-2.02-.589-2.02-.663 0-.017.632-1.215 1.404-2.662l1.442-2.702c.035-.066.155-.07 1.861-.06l1.824.01z"/></svg>