<svg xmlns="http://www.w3.org/2000/svg" width="24" height="24" fill="none" stroke="currentColor" stroke-linecap="round" stroke-linejoin="round" stroke-width="3"><path fill="#000" fill-rule="evenodd" stroke="none" d="M20.44.58c-2.157.227-4.06.871-6.02 2.037-1.376.819-2.88 2.158-3.835 3.413-.104.138-.211.25-.237.25-.027 0-.192-.028-.368-.061-.95-.183-2.232-.232-3.011-.116-1.036.153-1.877.579-2.513 1.271-.681.742-1.276 1.916-1.677 3.311-.229.793-.302 1.215-.261 1.505a1.5 1.5 0 0 0 1.292 1.292c.138.02 1.222.037 2.41.037l2.161.001 1.049 1.05 1.05 1.051.001 2.159c0 1.188.017 2.272.037 2.41a1.5 1.5 0 0 0 1.292 1.292c.748.106 3.042-.68 4.15-1.421 1.292-.865 1.888-1.936 1.996-3.588.049-.746-.042-1.88-.218-2.735-.023-.112-.005-.136.229-.319 1.913-1.497 3.436-3.456 4.355-5.599.691-1.613 1.065-3.261 1.153-5.082.039-.796.017-1.063-.114-1.368-.107-.248-.456-.593-.741-.732-.188-.092-.243-.098-.94-.104-.407-.003-.965.018-1.24.046m-.04 3.03-.076.45a11 11 0 0 1-3.136 6.031c-1.117 1.111-2.184 1.849-3.928 2.712l-.88.436-.79-.789c-.434-.434-.79-.812-.79-.84 0-.057.536-1.15.779-1.59.532-.962 1.114-1.833 1.677-2.507 1.55-1.856 3.831-3.229 6.224-3.747.51-.11.92-.18.92-.156M8.649 9.062c.018.018-.276.656-.599 1.298l-.07.14-.97.011c-.762.008-.97 0-.97-.04.001-.081.175-.434.356-.72.277-.439.462-.567.984-.684.118-.026 1.243-.031 1.269-.005M5.44 14.519a3.63 3.63 0 0 0-1.822.775c-.821.66-1.426 1.657-1.938 3.19-.379 1.135-.705 2.667-.669 3.142.054.696.652 1.296 1.357 1.359.682.061 2.948-.513 4.189-1.062q2.337-1.032 2.849-2.903c.126-.461.126-1.418 0-1.878a3.59 3.59 0 0 0-1.989-2.327c-.544-.251-1.364-.374-1.977-.296m9.509 1.601c-.024.769-.079.947-.386 1.24-.207.198-.717.508-.954.579l-.09.027.01-.982.011-.983.7-.332.7-.333.014.102c.007.056.006.363-.005.682m-8.705 1.462q.231.118.266.436c.044.389-.274.741-.97 1.077-.431.207-.972.407-1.008.371-.068-.068.443-1.211.695-1.555.295-.403.652-.518 1.017-.329"/></svg>