<svg xmlns="http://www.w3.org/2000/svg" width="24" height="24" fill="none" stroke="currentColor" stroke-linecap="round" stroke-linejoin="round" stroke-width="3"><path fill="#000" fill-rule="evenodd" stroke="none" d="M5.56 3.522c-1.928.18-3.575 1.277-4.437 2.955a6.3 6.3 0 0 0-.554 1.637C.506 8.468.5 8.95.5 13.9v5.4l.105.248c.25.595.761.938 1.395.938s1.145-.343 1.395-.938L3.5 19.3l.02-5.44.02-5.44.09-.237c.132-.351.321-.645.59-.919l.24-.244.02 6.14.02 6.14.105.248c.25.595.761.938 1.395.938s1.145-.343 1.395-.938L7.5 19.3l.011-6.21.011-6.211.169.085c.093.047.308.177.478.288l.309.203.011 5.922L8.5 19.3l.105.248c.25.595.761.938 1.395.938s1.145-.343 1.395-.938l.105-.248.02-4.231.02-4.23.46.51.46.51.02 3.72.02 3.721.105.248c.25.595.761.938 1.395.938s1.145-.343 1.395-.938l.105-.248.012-2.65c.007-1.457.016-2.65.02-2.649s.215.071.468.157l.46.156.02 2.493.02 2.493.105.248c.25.595.761.938 1.395.938s1.145-.343 1.395-.938l.105-.248.012-2.509.012-2.509.16-.043c.087-.024.301-.103.475-.176l.317-.134.012 2.686.012 2.685.105.248c.25.595.761.938 1.395.938s1.145-.343 1.395-.938l.105-.248v-5.42c0-5.958.011-5.677-.244-6.485a5.55 5.55 0 0 0-4.05-3.76c-1.114-.266-2.461-.118-3.563.39-.724.333-1.725 1.165-1.976 1.643-.126.24-.189.645-.143.933.104.66.704 1.195 1.382 1.232.514.028.856-.123 1.293-.57.12-.122.231-.223.246-.223s.034.509.043 1.13c.015 1.106.017 1.135.118 1.378.246.593.76.938 1.394.938.635 0 1.148-.345 1.393-.938.1-.241.104-.279.125-1.388l.022-1.14.243.247c.251.254.468.62.602 1.013.107.313.106 1.129-.001 1.44-.176.514-.407.859-.796 1.192-.455.388-.966.568-1.614.568-.527-.001-.963-.109-1.514-.377-.72-.349-1.246-.753-2.034-1.56-.378-.386-.559-.602-1.597-1.908C11.33 5.75 9.877 4.569 8.287 3.944c-.835-.328-1.927-.497-2.727-.422"/></svg>