<svg xmlns="http://www.w3.org/2000/svg" width="24" height="24" fill="none" stroke="currentColor" stroke-linecap="round" stroke-linejoin="round" stroke-width="3"><path fill="#000" fill-rule="evenodd" stroke="none" d="M11.38.546C9.686.813 8.175 2.143 7.117 4.3c-.293.597-.659 1.496-.757 1.86-.039.145-.059.163-.251.22-.8.237-2.182.877-2.869 1.329C1.451 8.885.512 10.362.512 12c0 1.952 1.343 3.684 3.788 4.883.597.293 1.496.659 1.86.757.137.037.163.063.2.2.098.364.464 1.263.757 1.86 1.198 2.444 2.932 3.789 4.881 3.788a3.7 3.7 0 0 0 1.304-.211c.681-.218 1.032-.581 1.161-1.201a1.44 1.44 0 0 0-.397-1.32c-.417-.41-.993-.539-1.593-.356-.512.155-.783.115-1.242-.187-.429-.283-.889-.84-1.279-1.549l-.152-.275.31.029c.668.062 1.932.09 2.701.059a18 18 0 0 0 2.741-.282c.27-.047.501-.076.512-.064s-.053.167-.143.346c-.205.409-.297.757-.269 1.022.101.963 1.057 1.603 1.945 1.303.33-.112.56-.272.734-.511.077-.105.583-1.102 1.126-2.215 1.086-2.229 1.119-2.32 1.027-2.766-.085-.412-.293-.751-.581-.946-.272-.184-4.201-2.079-4.409-2.126-.449-.102-1.082.102-1.395.449-.31.343-.47.888-.378 1.284.123.527.401.868.918 1.129.159.08.282.152.274.16a9 9 0 0 1-.654.097c-1.365.175-3.172.176-4.479.003-.923-.123-.94-.126-.979-.198-.038-.071-.126-.634-.209-1.342-.08-.677-.067-3.131.02-3.82.105-.84.156-1.122.211-1.177.2-.2 3.103-.373 4.521-.268 1.963.144 3.623.554 4.996 1.234.539.267.747.395 1.164.716.437.337.653.587.871 1.009.293.567.62.839 1.141.948.251.052.317.052.568 0 .625-.131 1.047-.553 1.178-1.178.078-.373.014-.695-.235-1.188-.588-1.166-1.66-2.133-3.255-2.94-.597-.302-1.439-.652-1.872-.778-.205-.059-.221-.073-.263-.229a11 11 0 0 0-.219-.635C16.444 2.898 14.935 1.2 13.1.656c-.311-.092-.445-.108-.98-.118a9 9 0 0 0-.74.008m1.2 3.114c.448.223 1.035.894 1.497 1.712l.131.232-.474-.032c-.623-.042-2.822-.041-3.443.001l-.489.034.151-.274c.448-.813.985-1.416 1.487-1.668.28-.141.32-.15.6-.138.236.01.351.039.54.133m-6.998 6.45c-.093.999-.092 2.782.001 3.784l.029.313-.236-.131c-.848-.471-1.46-1.012-1.709-1.511-.126-.253-.147-.335-.147-.565s.021-.312.148-.565c.245-.49.826-1.01 1.652-1.479.143-.082.267-.15.276-.152.008-.002.002.136-.014.306"/></svg>