<svg xmlns="http://www.w3.org/2000/svg" width="24" height="24" fill="none" stroke="currentColor" stroke-linecap="round" stroke-linejoin="round" stroke-width="3"><path fill="#000" fill-rule="evenodd" stroke="none" d="M2.516 1.577a1.54 1.54 0 0 0-.998 1.233c-.051.353-.048 5.107.004 5.424.053.327.187.588.421.823.235.234.496.368.823.421.317.052 5.071.055 5.424.004a1.494 1.494 0 0 0 1.287-1.7 1.51 1.51 0 0 0-.829-1.126c-.228-.116-.229-.116-1.101-.129-1.009-.015-.979.016-.407-.408a8.24 8.24 0 0 1 3.815-1.541c.569-.076 1.588-.074 2.12.004 3.029.444 5.476 2.678 6.221 5.678.246.991.246 2.489 0 3.48-.63 2.539-2.514 4.584-4.952 5.377-2.723.886-5.626.193-7.638-1.822a7.5 7.5 0 0 1-1.981-3.477c-.11-.437-.205-1.109-.206-1.463-.002-.885-.261-1.391-.871-1.699-.208-.106-.264-.116-.648-.116s-.44.01-.648.116a1.51 1.51 0 0 0-.831 1.138c-.04.284.012 1.251.098 1.791a10.45 10.45 0 0 0 2.962 5.834 10.483 10.483 0 0 0 14.006.754 12.3 12.3 0 0 0 1.586-1.586 10.48 10.48 0 0 0-.761-14.011 10.44 10.44 0 0 0-6.39-3.019c-.608-.061-2.052-.026-2.622.063a11.4 11.4 0 0 0-5.44 2.391l-.42.339-.024-.825c-.022-.722-.036-.854-.115-1.058q-.203-.53-.759-.814c-.187-.095-.274-.112-.6-.121-.253-.007-.431.008-.526.045"/></svg>