<svg xmlns="http://www.w3.org/2000/svg" width="24" height="24" fill="none" stroke="currentColor" stroke-linecap="round" stroke-linejoin="round" stroke-width="3"><path fill="#000" fill-rule="evenodd" stroke="none" d="M10.84 1.565c-.767.078-1.808.329-2.566.617-.948.361-2.094 1.023-2.906 1.679a12.6 12.6 0 0 0-1.553 1.564 10.51 10.51 0 0 0 0 13.15 10.51 10.51 0 0 0 13.05 2.728 10.56 10.56 0 0 0 5.514-7.7c.088-.564.141-1.521.1-1.809a1.51 1.51 0 0 0-.831-1.138c-.208-.106-.264-.116-.648-.116s-.44.01-.648.116c-.61.308-.869.814-.871 1.699a7.8 7.8 0 0 1-.185 1.385c-.63 2.539-2.514 4.584-4.952 5.377-2.723.886-5.626.193-7.638-1.822a7.5 7.5 0 0 1-1.981-3.477c-.276-1.094-.276-2.542 0-3.636a7.5 7.5 0 0 1 1.981-3.476A7.2 7.2 0 0 1 8.82 5.219c1.037-.491 1.982-.699 3.166-.699 1.37 0 2.452.255 3.674.865.464.232 1.199.703 1.498.961l.178.154-.878.02c-.871.02-.88.021-1.106.136a1.51 1.51 0 0 0-.829 1.126 1.494 1.494 0 0 0 1.287 1.7c.353.051 5.107.048 5.424-.004.327-.053.588-.187.823-.421.234-.235.368-.496.421-.823.052-.317.055-5.071.004-5.424a1.51 1.51 0 0 0-.834-1.154c-.208-.106-.264-.116-.648-.116s-.44.01-.648.116a1.51 1.51 0 0 0-.834 1.154 9 9 0 0 0-.037.904l-.001.654-.15-.125c-1.828-1.521-3.833-2.401-6.07-2.662-.563-.066-1.844-.074-2.42-.016"/></svg>