<svg xmlns="http://www.w3.org/2000/svg" width="24" height="24" fill="none" stroke="currentColor" stroke-linecap="round" stroke-linejoin="round" stroke-width="3"><path fill="#000" fill-rule="evenodd" stroke="none" d="M14.516.577c-.322.123-.562.338-2.122 1.897-1.244 1.245-1.65 1.674-1.728 1.832a1.6 1.6 0 0 0 0 1.388c.078.158.489.593 1.768 1.874 1.443 1.444 1.697 1.681 1.898 1.773 1.113.51 2.308-.358 2.145-1.559-.045-.329-.196-.609-.515-.952l-.289-.31h2.526l.13.117.131.116.022 1.274c.021 1.253.023 1.277.124 1.521.246.593.759.938 1.394.938s1.148-.345 1.393-.938c.1-.241.104-.278.119-1.308.023-1.5-.045-2.047-.334-2.701-.387-.876-1.243-1.609-2.225-1.906-.275-.083-.383-.089-1.804-.103l-1.511-.015.306-.328c.337-.36.487-.633.533-.969A1.5 1.5 0 0 0 15.65.657c-.195-.099-.28-.116-.608-.125q-.382-.01-.526.045M5.44 3.547a3.56 3.56 0 0 0-2.888 2.841c-.076.398-.076 11.826 0 12.224.221 1.168 1.036 2.177 2.116 2.617.712.29.191.271 7.332.271 5.895 0 6.444-.006 6.71-.068 1.537-.359 2.605-1.561 2.769-3.115.05-.471.052-5.167.003-5.507a1.51 1.51 0 0 0-.834-1.154c-.208-.106-.264-.116-.648-.116s-.44.01-.648.116a1.51 1.51 0 0 0-.834 1.154c-.02.138-.037 1.405-.037 2.817l-.001 2.567-.103.122a.6.6 0 0 1-.25.163c-.204.056-12.05.056-12.254 0a.6.6 0 0 1-.25-.163l-.103-.122V6.792l.136-.136.136-.136 1.074-.001c.591 0 1.186-.017 1.324-.037a1.494 1.494 0 0 0 1.287-1.7 1.51 1.51 0 0 0-.829-1.126L8.42 3.54l-1.44-.005a37 37 0 0 0-1.54.012"/></svg>