<svg xmlns="http://www.w3.org/2000/svg" width="24" height="24" fill="none" stroke="currentColor" stroke-linecap="round" stroke-linejoin="round" stroke-width="3"><path fill="#000" fill-rule="evenodd" stroke="none" d="M8.516.577c-.691.264-1.09.925-.993 1.641.046.336.196.609.533.969l.306.328-1.511.015c-1.421.014-1.529.02-1.804.103a3.57 3.57 0 0 0-2.495 2.755c-.038.197-.052.774-.052 2.092v1.82l.105.248c.25.595.761.938 1.395.938s1.146-.344 1.395-.938l.104-.248.021-1.773.02-1.774.131-.116.13-.117h2.526l-.289.31c-.319.343-.47.623-.515.952-.163 1.201 1.032 2.069 2.145 1.559.201-.092.455-.329 1.898-1.773 1.279-1.281 1.69-1.716 1.768-1.874a1.6 1.6 0 0 0 0-1.388c-.078-.159-.484-.587-1.768-1.868C9.638.514 9.684.549 9.042.532q-.382-.01-.526.045m7 3c-.532.201-.921.673-.993 1.205a1.494 1.494 0 0 0 1.287 1.7c.138.02.733.037 1.324.037l1.074.001.136.136.136.136v11.402l-.103.122a.6.6 0 0 1-.25.163c-.204.056-12.05.056-12.254 0a.6.6 0 0 1-.25-.163l-.103-.122-.001-2.067c0-1.137-.017-2.179-.037-2.317a1.51 1.51 0 0 0-.834-1.154c-.208-.106-.264-.116-.648-.116s-.44.01-.648.116c-.476.241-.763.65-.839 1.193-.024.175-.033 1.132-.022 2.449.014 1.767.029 2.21.079 2.423a3.58 3.58 0 0 0 2.72 2.711c.266.062.815.068 6.71.068s6.444-.006 6.71-.068a3.7 3.7 0 0 0 1.798-1.004c.573-.6.883-1.272.971-2.111.053-.508.053-11.126 0-11.634-.154-1.465-1.113-2.623-2.526-3.05-.277-.083-.377-.089-1.793-.099-1.19-.009-1.53 0-1.644.043"/></svg>