<svg xmlns="http://www.w3.org/2000/svg" width="24" height="24" fill="none" stroke="currentColor" stroke-linecap="round" stroke-linejoin="round" stroke-width="3"><path fill="#000" fill-rule="evenodd" stroke="none" d="M1.516.577C.658.906.276 1.832.656 2.662c.085.186.29.414 1.16 1.292L2.873 5.02l-.142.16c-.366.414-.785 1.173-.985 1.785-.32.98-.291 2.21.075 3.235.587 1.642 2.041 2.875 3.807 3.228.258.052.784.066 3.035.08l2.724.018 1.996 1.997 1.997 1.997h-5.126l-.135-.31a4.6 4.6 0 0 0-1.479-1.852c-.322-.241-1.042-.58-1.5-.707-.37-.102-.455-.11-1.14-.11-.686 0-.769.008-1.138.11-1.3.362-2.315 1.196-2.901 2.381a5.2 5.2 0 0 0-.402 1.248c-.059.334-.059 1.106 0 1.44a4.53 4.53 0 0 0 3.637 3.706c.391.076 1.217.076 1.608 0a4.52 4.52 0 0 0 3.37-2.756l.062-.15 3.612-.001c1.987-.001 3.8-.019 4.031-.039l.418-.038 1.406 1.398c1.19 1.185 1.44 1.415 1.632 1.503a1.503 1.503 0 0 0 2.007-2.011c-.095-.21-1.076-1.202-10.274-10.395C1.635-.49 2.738.551 2.042.532c-.253-.007-.431.008-.526.045M17.277.558c-.637.116-1.465.462-1.917.8a4.67 4.67 0 0 0-1.482 1.852l-.138.31h-1.668c-1.59 0-1.679.004-1.891.083-1.089.408-1.322 1.841-.414 2.558.106.084.296.194.423.245.223.088.281.091 1.902.112l1.671.022.129.28c.813 1.777 2.573 2.818 4.492 2.656 2.466-.208 4.3-2.387 4.092-4.86a4.43 4.43 0 0 0-1.343-2.828 3.8 3.8 0 0 0-1.153-.81c-.678-.332-1.061-.423-1.86-.44-.363-.007-.742.002-.843.02m1.376 3.1c.272.138.573.445.709.722.085.174.098.255.098.62 0 .384-.01.44-.116.648a1.51 1.51 0 0 1-1.126.829 1.5 1.5 0 0 1-1.562-.829c-.106-.208-.116-.264-.116-.648 0-.365.013-.446.098-.62.173-.352.515-.664.878-.803q.144-.055.526-.045c.329.009.413.026.611.126M6.7 8.843l1.68 1.683-1.1-.016c-1.012-.015-1.121-.024-1.36-.106a1.96 1.96 0 0 1-.86-.571c-.239-.258-.328-.41-.442-.753-.098-.296-.103-.9-.009-1.2.065-.21.341-.72.389-.72.012 0 .778.757 1.702 1.683m10.58 1.714c-.384.118-.738.42-.923.79-.126.254-.136.3-.136.653.001.308.018.417.091.577.17.373.509.701.848.819.077.027.335.083.573.123.557.095.807.22 1.168.58.36.361.485.611.58 1.168.088.514.134.658.286.88.114.168.372.401.545.49.594.309 1.404.146 1.818-.365.28-.344.359-.583.356-1.067-.003-.579-.22-1.363-.558-2.022a4.99 4.99 0 0 0-2.84-2.422c-.611-.205-1.482-.303-1.808-.204M6.653 17.658c.272.138.573.445.709.722.085.174.098.255.098.62 0 .384-.01.44-.116.648a1.5 1.5 0 0 1-1.562.829 1.51 1.51 0 0 1-1.126-.829c-.106-.208-.116-.264-.116-.648 0-.365.013-.446.098-.62.173-.352.515-.664.878-.803q.144-.055.526-.045c.329.009.413.026.611.126"/></svg>