<svg xmlns="http://www.w3.org/2000/svg" width="24" height="24" fill="none" stroke="currentColor" stroke-linecap="round" stroke-linejoin="round" stroke-width="3"><path fill="#000" fill-rule="evenodd" stroke="none" d="M13.78.583a9.5 9.5 0 0 0-4.76 2.045c-.9.724-1.151 1.098-1.151 1.712 0 .406.107.701.358.979.405.45.979.622 1.532.458.275-.082.448-.194.808-.52 1.059-.96 2.244-1.517 3.617-1.699.466-.061 1.557-.03 2.036.059.818.151 1.863.598 2.543 1.088.167.12.464.363.66.54.214.193.461.373.617.449.233.113.298.126.62.126.31 0 .393-.015.6-.112.315-.147.624-.455.767-.764.098-.21.113-.293.113-.604 0-.495-.126-.76-.564-1.188A9.5 9.5 0 0 0 16.94.7c-.89-.182-2.301-.234-3.16-.117m.52 3.961a12 12 0 0 1-.4.08c-.91.173-1.816.631-2.585 1.307-.623.547-.798 1.238-.479 1.886.262.533.748.834 1.344.834.435 0 .685-.101 1.064-.429.6-.521.948-.666 1.656-.692.755-.028 1.226.137 1.8.632.342.295.566.415.891.479.797.157 1.615-.442 1.726-1.265.073-.535-.098-.957-.568-1.399-.687-.647-1.635-1.143-2.589-1.357-.292-.065-1.671-.122-1.86-.076m.216 4.033a1.54 1.54 0 0 0-.998 1.233c-.02.138-.037.803-.037 1.479l-.001 1.229-5.07.012-5.07.011-.293.09C1.745 13.034.8 14.078.552 15.388c-.074.389-.074 4.835 0 5.224.221 1.168 1.036 2.177 2.116 2.617.719.293-.04.271 9.332.271 7.775 0 8.442-.005 8.71-.068a3.7 3.7 0 0 0 1.798-1.004c.573-.6.883-1.272.971-2.111.051-.49.051-4.144 0-4.634-.154-1.465-1.11-2.619-2.526-3.05-.284-.087-.356-.09-2.363-.103l-2.07-.014-.001-1.228c0-.675-.017-1.34-.037-1.478a1.51 1.51 0 0 0-.832-1.153c-.195-.099-.28-.116-.608-.125q-.382-.01-.526.045m5.828 7.079.136.136v4.402l-.103.122a.6.6 0 0 1-.25.163c-.204.056-16.05.056-16.254 0a.6.6 0 0 1-.25-.163l-.103-.122v-4.402l.136-.136.136-.136h16.416zm-14.828.921c-1.049.399-1.349 1.701-.571 2.478.71.71 1.942.519 2.393-.371a1.48 1.48 0 0 0-.286-1.746c-.292-.292-.55-.395-1.012-.407-.247-.006-.431.01-.524.046m4 0c-1.049.399-1.349 1.701-.571 2.478.58.58 1.53.583 2.107.007a1.47 1.47 0 0 0 0-2.124c-.292-.292-.55-.395-1.012-.407-.247-.006-.431.01-.524.046"/></svg>