<svg xmlns="http://www.w3.org/2000/svg" width="24" height="24" fill="none" stroke="currentColor" stroke-linecap="round" stroke-linejoin="round" stroke-width="3"><path fill="#000" fill-rule="evenodd" stroke="none" d="M17.277.558c-.637.116-1.465.462-1.917.8a4.67 4.67 0 0 0-1.482 1.851l-.137.308-4.021.013c-4.011.013-4.021.013-4.36.102a5.5 5.5 0 0 0-1.954.944c-.505.389-1.084 1.1-1.388 1.704a6.2 6.2 0 0 0-.441 1.355c-.08.445-.08 1.285 0 1.73.07.392.278 1.029.441 1.355a5.1 5.1 0 0 0 2.865 2.503c.843.286.402.268 7.097.294l6.04.023.313.15c.427.203.774.55.977.977.149.312.15.315.15.833 0 .514-.002.523-.143.82a2.1 2.1 0 0 1-1.207 1.094c-.248.085-.288.086-4.052.097l-3.802.012-.136-.311a4.6 4.6 0 0 0-1.48-1.854c-.322-.241-1.042-.58-1.5-.707-.37-.102-.455-.11-1.14-.11-.686 0-.769.008-1.138.11-1.3.362-2.315 1.196-2.901 2.381A4.34 4.34 0 0 0 1.513 19c0 .253.02.577.046.72a4.53 4.53 0 0 0 3.637 3.706c.391.076 1.217.076 1.608 0a4.52 4.52 0 0 0 3.369-2.754l.061-.147 3.913-.016c4.324-.018 4.155-.009 4.957-.282a4.8 4.8 0 0 0 1.858-1.134 4.98 4.98 0 0 0 1.515-3.99 4.3 4.3 0 0 0-.256-1.223 4.3 4.3 0 0 0-.575-1.16c-.677-1.025-1.724-1.752-3.006-2.088l-.34-.089-6.08-.022-6.08-.021-.25-.086A2.1 2.1 0 0 1 4.683 9.32c-.141-.297-.143-.306-.143-.82 0-.518.001-.521.15-.833.203-.427.55-.774.977-.977l.313-.15h7.783l.129.28c.813 1.777 2.573 2.818 4.492 2.656 2.466-.208 4.3-2.387 4.092-4.86a4.43 4.43 0 0 0-1.343-2.828 3.8 3.8 0 0 0-1.153-.81c-.678-.332-1.061-.423-1.86-.44-.363-.007-.742.002-.843.02m1.376 3.1c.272.138.573.445.709.722.085.174.098.255.098.62 0 .384-.01.44-.116.648a1.51 1.51 0 0 1-1.126.829 1.5 1.5 0 0 1-1.562-.829c-.106-.208-.116-.264-.116-.648 0-.365.013-.446.098-.62.173-.352.515-.664.878-.803q.144-.055.526-.045c.329.009.413.026.611.126m-12 14c.272.138.573.445.709.722.085.174.098.255.098.62 0 .384-.01.44-.116.648a1.5 1.5 0 0 1-1.562.829 1.51 1.51 0 0 1-1.126-.829c-.106-.208-.116-.264-.116-.648 0-.365.013-.446.098-.62.173-.352.515-.664.878-.803q.144-.055.526-.045c.329.009.413.026.611.126"/></svg>