<svg xmlns="http://www.w3.org/2000/svg" width="24" height="24" fill="none" stroke="currentColor" stroke-linecap="round" stroke-linejoin="round" stroke-width="3"><path fill="#000" fill-rule="evenodd" stroke="none" d="M3.516 2.576c-.373.145-.711.448-.864.776-.371.792.008 1.745.814 2.047.195.073.368.093 1.071.124.461.02 1.055.065 1.321.099A14.52 14.52 0 0 1 18.015 16.28c.265.983.41 1.983.462 3.183.031.703.051.876.124 1.071a1.5 1.5 0 0 0 1.617.943 1.5 1.5 0 0 0 1.26-1.269c.044-.316-.021-1.655-.116-2.405-.253-1.996-.816-3.826-1.747-5.683a16.9 16.9 0 0 0-3.42-4.66C14.817 6.119 13.456 5.163 11.7 4.3c-1.834-.9-3.507-1.401-5.56-1.663-.838-.107-2.412-.144-2.624-.061m0 7.003c-1.045.384-1.348 1.699-.571 2.476.332.332.727.462 1.41.464a7.8 7.8 0 0 1 1.385.185 7.58 7.58 0 0 1 5.556 5.556c.092.372.184 1.059.185 1.385.002.683.132 1.078.464 1.41.868.869 2.362.368 2.534-.849.04-.284-.012-1.251-.098-1.791a10.45 10.45 0 0 0-2.969-5.839 9.6 9.6 0 0 0-1.65-1.342 10.4 10.4 0 0 0-4.69-1.673c-.546-.057-1.379-.048-1.556.018m.864 6.995a2.73 2.73 0 0 0-1.279.795c-.21.239-.469.746-.542 1.064a3.5 3.5 0 0 0 0 1.134c.159.691.696 1.366 1.329 1.667.417.198.666.256 1.112.256s.695-.058 1.112-.256a2.5 2.5 0 0 0 1.122-1.122c.198-.417.256-.666.256-1.112s-.058-.695-.255-1.11c-.262-.55-.811-1.037-1.418-1.257-.295-.107-1.12-.141-1.437-.059m.964 2.082c.119.119.136.162.136.337 0 .242-.129.424-.343.483a.5.5 0 0 1-.514-.16c-.081-.096-.103-.166-.103-.323 0-.175.017-.218.136-.337s.161-.136.344-.136.224.016.344.136"/></svg>