<svg xmlns="http://www.w3.org/2000/svg" width="24" height="24" fill="none" stroke="currentColor" stroke-linecap="round" stroke-linejoin="round" stroke-width="3"><path fill="#000" fill-rule="evenodd" stroke="none" d="M6.287.562c-.537.096-1.186.387-1.66.744-.424.32-3.224 3.155-3.441 3.484-.91 1.381-.911 3.03-.002 4.42.276.42 13.183 13.331 13.6 13.603.413.27.822.453 1.276.571.573.15 1.307.15 1.88 0a4.2 4.2 0 0 0 1.276-.572c.399-.261 3.335-3.197 3.596-3.596.269-.411.453-.821.572-1.276.15-.573.15-1.307 0-1.88a4.3 4.3 0 0 0-.571-1.276c-.143-.22-1.655-1.754-6.689-6.789-3.632-3.633-6.628-6.597-6.784-6.714a4.7 4.7 0 0 0-1.3-.643c-.233-.067-.438-.089-.92-.1-.341-.007-.716.003-.833.024m1.085 3.022c.07.035.321.255.556.487l.428.424-.542.557c-.687.707-.794.901-.794 1.448 0 .311.015.394.113.604.143.309.452.617.767.764.207.097.29.112.6.112.547 0 .741-.107 1.447-.793l.558-.543.425.426.426.425-.543.558c-.686.706-.793.9-.793 1.447 0 .31.015.393.112.6.147.315.455.624.764.767.21.098.293.113.604.113.547 0 .741-.107 1.447-.793l.558-.543.425.426.426.425-.543.558c-.686.706-.793.9-.793 1.447 0 .31.015.393.112.6.147.315.455.624.764.767.21.098.293.113.604.113.547 0 .741-.107 1.447-.793l.558-.543.425.426.426.425-.543.558c-.686.706-.793.9-.793 1.447 0 .31.015.393.112.6.147.315.455.624.764.767.21.098.293.113.604.113.547 0 .741-.107 1.448-.794l.557-.542.424.428c.232.235.454.489.491.564.095.19.089.55-.013.748-.046.09-.699.771-1.534 1.601-1.411 1.403-1.459 1.446-1.663 1.494a.8.8 0 0 1-.42.001c-.209-.048-.231-.07-6.663-6.494-3.687-3.684-6.486-6.51-6.53-6.594-.104-.201-.104-.583 0-.784.092-.175 2.848-2.931 3.023-3.022.161-.084.586-.085.752-.002"/></svg>