<svg xmlns="http://www.w3.org/2000/svg" width="24" height="24" fill="none" stroke="currentColor" stroke-linecap="round" stroke-linejoin="round" stroke-width="3"><path fill="#000" fill-rule="evenodd" stroke="none" d="M8.516 1.579a1.54 1.54 0 0 0-.998 1.231c-.02.138-.037 1.703-.037 3.478L7.48 9.516l-.95.012-.95.012-.228.116a1.51 1.51 0 0 0-.829 1.126 1.494 1.494 0 0 0 1.287 1.7c.138.02.57.037.96.037l.71.001v.996l-.95.012-.95.012-.228.116c-.93.471-1.133 1.673-.407 2.399.381.382.7.463 1.823.464l.707.001.013 2.39.012 2.39.105.248c.25.595.761.938 1.395.938s1.145-.343 1.395-.938l.105-.248.012-2.39.013-2.39 1.707-.001c.94 0 1.82-.017 1.958-.037a1.494 1.494 0 0 0 1.287-1.7 1.51 1.51 0 0 0-.829-1.126l-.228-.116-1.95-.011-1.95-.012v-.989l2.01-.019c2.229-.02 2.399-.036 3.167-.287a5.491 5.491 0 0 0-.807-10.64c-.484-.085-6.145-.088-6.374-.003m6.301 3.051a2.67 2.67 0 0 1 1.553 1.553c.076.205.088.316.088.817s-.012.612-.088.817c-.221.59-.706 1.148-1.218 1.401-.559.276-.526.273-2.682.291l-1.95.018v-5.01l2.03.011c1.99.012 2.035.014 2.267.102"/></svg>