<svg xmlns="http://www.w3.org/2000/svg" width="24" height="24" fill="none" stroke="currentColor" stroke-linecap="round" stroke-linejoin="round" stroke-width="3"><path fill="#000" fill-rule="evenodd" stroke="none" d="M9.729.524c-.291.049-.571.2-.788.426-.133.138-1.159 1.864-3.728 6.27-1.95 3.344-3.581 6.179-3.625 6.3-.271.755.14 1.597.932 1.908.165.065.418.072 3.07.083l2.89.012v.996l-3.45.01-3.45.011-.22.112q-.56.287-.76.815c-.168.445-.092 1.406.178 2.229a5.49 5.49 0 0 0 3.526 3.526c.897.294.449.278 7.696.278s6.799.016 7.696-.278a5.49 5.49 0 0 0 3.526-3.526c.27-.823.346-1.784.178-2.229q-.2-.528-.76-.815l-.22-.112-5.45-.011-5.45-.01v-.999l4.71-.001c2.591 0 4.822-.017 4.96-.037a1.498 1.498 0 0 0 1.149-2.145c-.072-.149-1.575-1.814-5.693-6.308C13.569 3.672 11 .881 10.936.828a1.45 1.45 0 0 0-.701-.306A3 3 0 0 0 9.96.485zm4.838 8.68a329 329 0 0 1 2.986 3.279c.008.022-1.184.037-3.01.037H11.52V9.218c0-2.041.014-3.294.037-3.28.021.013 1.376 1.483 3.01 3.266m-6.087.876v2.44H7.056c-1.34 0-1.423-.004-1.398-.07.037-.095 2.788-4.81 2.807-4.81.008 0 .015 1.098.015 2.44m11.442 9.516c-.084.158-.514.493-.822.641-.581.281-.106.263-7.1.263s-6.519.018-7.1-.263c-.308-.148-.738-.483-.822-.641-.04-.075.108-.076 7.922-.076s7.962.001 7.922.076"/></svg>