<svg xmlns="http://www.w3.org/2000/svg" width="24" height="24" fill="none" stroke="currentColor" stroke-linecap="round" stroke-linejoin="round" stroke-width="3"><path fill="#000" fill-rule="evenodd" stroke="none" d="M15.9 1.864c-.848.109-1.474.347-2.048.779-.199.15-.223.157-.503.157a4.06 4.06 0 0 0-2.56.938c-.278.231-.713.743-.818.963l-.059.125-.317-.092c-1.063-.308-2.236-.305-3.24.009a5.55 5.55 0 0 0-3.777 4.303c-.041.228-.067.6-.068.954l-.002.58-.193.096a1.5 1.5 0 0 0-.794 1.118c-.04.284.012 1.251.098 1.791a10.56 10.56 0 0 0 3.668 6.488l.348.291-.06.168c-.033.093-.06.305-.061.474-.001.627.345 1.14.938 1.389l.248.105h10.6l.248-.105c.593-.249.939-.762.938-1.389a1.8 1.8 0 0 0-.064-.482c-.061-.171-.06-.178.026-.238.205-.144.678-.57 1.045-.943a10.4 10.4 0 0 0 2.985-6.736c.019-.318.02-.681.002-.806-.035-.246-.175-.611-.263-.684-.045-.037-.025-.088.107-.283.652-.96.84-2.177.509-3.305l-.085-.292.107-.347a3.9 3.9 0 0 0-.671-3.592c-.539-.67-1.219-1.125-2.009-1.34-.22-.06-.481-.093-.867-.107-.618-.024-1.019.024-1.428.172l-.26.093-.232-.077c-.392-.129-1.151-.219-1.488-.175m.863 3.178c.339.204.577.278.902.278.317 0 .564-.081.893-.294.248-.16.271-.166.58-.166.285 0 .34.012.48.109.322.222.475.606.381.955a2 2 0 0 1-.203.418c-.219.346-.291.609-.264.964.021.289.061.393.345.914.115.211.129.266.111.463-.021.245-.128.489-.275.625a1.7 1.7 0 0 1-.354.206 1.54 1.54 0 0 0-.775.724l-.148.282h-1.809l.809-.819c.64-.65.829-.866.91-1.042a1.505 1.505 0 0 0-.698-2.003c-.208-.106-.264-.116-.648-.116-.686 0-.584-.078-2.788 2.115l-1.888 1.877-.606-.027c-.658-.03-.798-.07-1.003-.291-.172-.185-.235-.35-.235-.614s.063-.429.235-.614c.136-.146.251-.205.564-.286.337-.087.53-.189.721-.38.384-.384.501-.73.46-1.359-.025-.378-.019-.453.049-.607a.89.89 0 0 1 .517-.49c.245-.083.329-.081.691.021.403.113.741.09 1.09-.073.203-.095.323-.194.59-.486.27-.296.371-.379.519-.426.284-.091.53-.05.847.142M7.918 7.77a3.5 3.5 0 0 0-.438 1.432c-.04.356-.009.928.066 1.226l.023.092h-2l-.024-.09c-.039-.148-.028-.771.018-.998a3 3 0 0 1 .204-.541 2.52 2.52 0 0 1 2.178-1.406l.125-.005zm11.376 5.98c-.644 2.547-2.515 4.575-4.95 5.367-.931.303-1.193.341-2.344.341-.915 0-1.063-.01-1.44-.092-1.534-.335-2.799-1.015-3.854-2.071a7.46 7.46 0 0 1-1.961-3.405l-.099-.37h14.706z"/></svg>