<svg xmlns="http://www.w3.org/2000/svg" width="24" height="24" fill="none" stroke="currentColor" stroke-linecap="round" stroke-linejoin="round" stroke-width="3"><path fill="#000" fill-rule="evenodd" stroke="none" d="M11.349 3.103a3.6 3.6 0 0 0-1.169.45c-.347.222-8.179 6.309-8.311 6.46a1.56 1.56 0 0 0-.352.788q-.045.285-.026 1.953c.016 1.462.027 1.693.089 1.886.092.279.091.44-.003.74-.068.215-.076.38-.076 1.6-.001 1.52.008 1.591.265 2.132.211.443.65.893 1.08 1.105.601.297.292.277 4.696.293l3.961.014.279.222c.609.488.994.7 1.545.853.804.224 1.808.104 2.55-.304.308-.169.507-.317.783-.579l.2-.19 1.78-.017c1.969-.019 1.959-.018 2.514-.292.43-.212.869-.662 1.08-1.105.257-.541.266-.612.265-2.132 0-1.22-.008-1.385-.076-1.6-.094-.3-.095-.46-.004-.74.063-.192.074-.424.09-1.851.012-1.041.003-1.747-.024-1.95-.046-.336-.161-.607-.354-.826-.132-.15-7.964-6.238-8.311-6.46-.677-.432-1.618-.604-2.471-.45m.822 2.974c.053.02 1.076.798 2.273 1.73L16.62 9.5l-2.31.01c-1.27.006-3.349.006-4.62 0L7.38 9.5l2.177-1.694c1.197-.931 2.214-1.709 2.26-1.727a.48.48 0 0 1 .354-.002M19.48 13v.48H4.52v-.96h14.96zm-12.4 3.983c.319.255.586.48.593.5.008.022-.628.037-1.57.037H4.52v-1H6.5zm8.319.594c-.95 1.139-1.007 1.189-1.29 1.111-.081-.023-.654-.45-1.432-1.069l-1.335-1.065c-.021-.019 1.082-.034 2.451-.034h2.488zm4.065-.068c-.04.041-.074-.02-.041-.074.026-.041.035-.041.048-.001.01.028.006.062-.007.075"/></svg>