<svg xmlns="http://www.w3.org/2000/svg" width="24" height="24" fill="none" stroke="currentColor" stroke-linecap="round" stroke-linejoin="round" stroke-width="3"><path fill="#000" fill-rule="evenodd" stroke="none" d="M8.516 1.577a2.3 2.3 0 0 0-.32.163c-.097.059-1.133 1.065-2.304 2.234-1.863 1.862-2.141 2.155-2.233 2.358a1.57 1.57 0 0 0-.002 1.333c.09.196.332.457 1.661 1.792l1.556 1.563-.093.108c-.321.371-.356 1.093-.079 1.637.07.139 3.79 3.903 4.264 4.315.339.295.622.406 1.034.406.335 0 .688-.108.872-.267l.108-.093 1.563 1.556c1.335 1.329 1.596 1.571 1.792 1.661a1.58 1.58 0 0 0 1.333-.001c.203-.093.499-.373 2.4-2.274s2.181-2.197 2.274-2.4a1.58 1.58 0 0 0 .001-1.333c-.09-.196-.332-.457-1.661-1.792l-1.556-1.563.093-.108c.264-.304.347-.958.18-1.405-.102-.274-.18-.371-.794-.996l-.461-.469 1.048-1.057c.863-.87 1.067-1.098 1.152-1.283.352-.769.055-1.626-.696-2.006-.208-.106-.264-.116-.648-.116-.647 0-.68.022-1.949 1.275l-1.049 1.037-.552-.536c-.682-.662-.86-.764-1.372-.789-.396-.019-.633.042-.898.229l-.16.113-1.56-1.546C9.649 1.529 9.677 1.549 9.042 1.532q-.382-.01-.526.045M9.94 6.08l.92.92-.93.93-.93.93-.93-.93L7.14 7l.92-.92c.506-.506.929-.92.94-.92s.434.414.94.92m5 3 .92.92-1.93 1.93L12 13.86l-.93-.93-.93-.93 1.92-1.92A134 134 0 0 1 14 8.16c.011 0 .434.414.94.92m3 5 .92.92-.93.93-.93.93-.93-.93-.93-.93.92-.92c.506-.506.929-.92.94-.92s.434.414.94.92m-15.424-.501a1.52 1.52 0 0 0-.993 1.639c.033.247.185.592.326.742.377.403.617.5 1.377.558.7.053 1.18.179 1.754.459.5.245.841.491 1.229.888.384.393.568.655.813 1.155.281.573.407 1.054.46 1.754.058.76.155 1 .558 1.377.15.141.495.293.742.326a1.493 1.493 0 0 0 1.698-1.279c.044-.31-.018-1.136-.124-1.658a7.54 7.54 0 0 0-6.281-5.958c-.519-.076-1.357-.078-1.559-.003"/></svg>