<svg xmlns="http://www.w3.org/2000/svg" width="24" height="24" fill="none" stroke="currentColor" stroke-linecap="round" stroke-linejoin="round" stroke-width="3"><path fill="#000" fill-rule="evenodd" stroke="none" d="M10.516 1.579c-.364.134-.71.443-.864.773-.37.789.008 1.745.809 2.045.177.066.378.094.897.122 1.04.056 1.81.214 2.674.546a8.2 8.2 0 0 1 2.97 1.933 8.2 8.2 0 0 1 1.933 2.97c.333.866.482 1.598.545 2.685.032.556.056.714.134.909.233.575.756.924 1.386.924.635 0 1.151-.347 1.392-.938.094-.229.101-.291.095-.824-.027-2.492-.977-5.055-2.604-7.024A11.5 11.5 0 0 0 12.9 1.663c-.891-.148-2.097-.19-2.384-.084m0 4a1.52 1.52 0 0 0-.993 1.639c.033.247.185.592.326.742.377.403.617.5 1.377.558.7.053 1.18.179 1.754.459.5.245.841.491 1.229.888.384.393.568.655.813 1.155.281.573.407 1.054.46 1.754.058.76.155 1 .558 1.377.15.141.495.293.742.326a1.493 1.493 0 0 0 1.698-1.279c.044-.31-.018-1.136-.124-1.658a7.54 7.54 0 0 0-6.281-5.958c-.519-.076-1.357-.078-1.559-.003m-7 2.998c-.404.154-.67.411-.946.916a8.95 8.95 0 0 0-1.043 3.567c-.037.497.012 1.602.092 2.06.494 2.837 2.258 5.212 4.795 6.458a8.5 8.5 0 0 0 3.369.899c1.096.074 2.166-.065 3.277-.424.797-.257 1.718-.722 2.003-1.01.33-.335.484-.805.411-1.26-.084-.522-.074-.51-2.288-2.732l-2.041-2.05 1.048-1.057c.862-.869 1.067-1.097 1.151-1.282.352-.769.055-1.626-.696-2.006-.208-.106-.264-.116-.648-.116-.647 0-.68.022-1.951 1.277l-1.05 1.038-2.05-2.039C4.592 8.47 4.689 8.546 4.04 8.531c-.246-.006-.431.01-.524.046m7.634 10.874c-.251.061-1.389.044-1.779-.027-1.29-.232-2.244-.729-3.152-1.641-.542-.544-.809-.911-1.118-1.534-.388-.785-.535-1.39-.569-2.352a9 9 0 0 1 .006-.916l.03-.273 3.356 3.356 3.356 3.356z"/></svg>