<svg xmlns="http://www.w3.org/2000/svg" width="24" height="24" fill="none" stroke="currentColor" stroke-linecap="round" stroke-linejoin="round" stroke-width="3"><path fill="#000" fill-rule="evenodd" stroke="none" d="M5.6 1.523c-1.142.021-1.287.031-1.553.111a3.57 3.57 0 0 0-2.495 2.754c-.076.399-.076 14.825 0 15.224.221 1.168 1.036 2.177 2.116 2.617.716.292.076.271 8.332.271 6.835 0 7.443-.005 7.71-.068 1.537-.359 2.605-1.561 2.769-3.115.056-.536.054-10.32-.002-10.828-.09-.808-.381-1.436-.968-2.091-.187-.208-1.183-1.216-2.214-2.241-2.019-2.006-2.196-2.156-2.833-2.402-.62-.239-.458-.231-5.222-.243a431 431 0 0 0-5.64.011M5.491 5.97c.021 1.602.027 1.647.292 2.184.2.405.658.863 1.063 1.063.597.295.328.277 4.385.293 2.206.008 3.761-.001 3.929-.025.867-.12 1.433-.851 1.317-1.703a1.51 1.51 0 0 0-.829-1.126l-.228-.116-3.45-.011-3.45-.011V4.52h6.859l2.051 2.05 2.05 2.051v10.573l-.103.122c-.119.142-.307.203-.625.204h-.227l-.015-2.97c-.014-2.621-.023-2.996-.082-3.19a2.65 2.65 0 0 0-1.611-1.73l-.237-.09H7.42l-.237.09c-.596.224-1.146.701-1.398 1.212-.293.594-.279.409-.295 3.708l-.014 2.97h-.228c-.318-.001-.506-.062-.625-.204l-.103-.122V4.792l.136-.136c.133-.133.143-.136.476-.136h.34zm9.989 11.05v2.5H8.52v-5h6.96z"/></svg>