<svg xmlns="http://www.w3.org/2000/svg" width="24" height="24" fill="none" stroke="currentColor" stroke-linecap="round" stroke-linejoin="round" stroke-width="3"><path fill="#000" fill-rule="evenodd" stroke="none" d="M8.6.523C7.458.544 7.313.554 7.047.634a3.57 3.57 0 0 0-2.495 2.754c-.076.398-.076 12.826 0 13.224.221 1.168 1.036 2.177 2.116 2.617.712.29.194.271 7.312.271 5.935 0 6.423-.005 6.712-.07a3.55 3.55 0 0 0 2.683-2.516 4 4 0 0 0 .104-.6c.055-.521.054-9.259-.001-9.796-.085-.824-.373-1.455-.97-2.12-.455-.507-2.913-2.942-3.182-3.152A3.7 3.7 0 0 0 18.24.673L17.86.54 16.12.53C11.528.504 9.76.502 8.6.523M8.491 4.47c.025 1.05.05 1.193.292 1.684.2.405.658.863 1.063 1.063.582.287.446.275 3.381.293 1.598.009 2.758 0 2.929-.024.369-.051.658-.19.899-.431.726-.726.523-1.928-.407-2.399l-.228-.116-2.45-.011-2.45-.011V3.52h5.859l1.55 1.551 1.551 1.55v9.573l-.103.122c-.119.142-.307.203-.624.204h-.228l-.015-2.47c-.014-2.146-.025-2.499-.082-2.69a2.65 2.65 0 0 0-1.611-1.73l-.237-.09h-7.16l-.237.09c-.596.224-1.146.701-1.398 1.212-.287.582-.277.469-.295 3.208l-.015 2.47h-.228c-.317-.001-.505-.062-.624-.204l-.103-.122V3.792l.136-.136c.133-.133.143-.136.475-.136h.338zm-6.975.107A1.54 1.54 0 0 0 .515 5.834C.493 6 .483 8.93.491 13.283c.011 6.432.019 7.204.077 7.438.34 1.381 1.329 2.373 2.702 2.709.245.061.929.068 7.447.079 4.353.008 7.283-.002 7.449-.024.861-.12 1.426-.854 1.311-1.703a1.51 1.51 0 0 0-.829-1.126l-.228-.116-7.28-.02c-5.701-.016-7.299-.031-7.367-.07a.7.7 0 0 1-.17-.155l-.083-.106-.001-7.064c0-3.987-.016-7.174-.037-7.315a1.51 1.51 0 0 0-.832-1.153c-.195-.099-.28-.116-.608-.125-.253-.007-.431.008-.526.045M16.48 14.52v2h-4.96v-4h4.96z"/></svg>