<svg xmlns="http://www.w3.org/2000/svg" width="24" height="24" fill="none" stroke="currentColor" stroke-linecap="round" stroke-linejoin="round" stroke-width="3"><path fill="#000" fill-rule="evenodd" stroke="none" d="M1.516.577C.825.841.426 1.502.523 2.218c.053.387.187.606.695 1.133l.469.487-.093.371-.094.371v7.38c0 5.855.011 7.436.052 7.652.221 1.168 1.036 2.177 2.116 2.617.716.292.076.271 8.332.271h7.42l.371-.094.371-.093.487.469c.527.508.746.642 1.133.695 1.2.163 2.067-1.029 1.56-2.145-.095-.21-1.076-1.202-10.274-10.395C1.635-.49 2.738.551 2.042.532c-.253-.007-.431.008-.526.045m7 1.001c-.367.137-.71.444-.864.774a1.5 1.5 0 0 0 1.158 2.13c.138.02 1.672.037 3.409.037l3.159.001 2.041 2.04 2.041 2.039.02 3.351.02 3.35.105.248c.25.595.761.938 1.395.938s1.145-.343 1.395-.938l.105-.248.013-3.16c.008-2.127-.002-3.302-.032-3.595-.087-.852-.37-1.475-.973-2.147-.467-.521-3.918-3.947-4.182-4.152a3.7 3.7 0 0 0-1.086-.574l-.38-.132-3.6-.008c-2.936-.006-3.627.002-3.744.046m5 4.999c-1.048.396-1.349 1.701-.571 2.478.353.354.721.463 1.555.463s1.202-.109 1.555-.463c.726-.726.523-1.928-.407-2.399l-.228-.116-.88-.009c-.663-.006-.916.005-1.024.046M8.39 11.521c-.869.02-.995.031-1.207.11-.591.219-1.145.699-1.398 1.211-.293.594-.279.409-.295 3.708l-.014 2.97h-.228c-.318-.001-.506-.062-.625-.204l-.103-.122V6.66l2.42 2.42 2.421 2.42zm5.54 4.549 1.55 1.55v1.9H8.52v-5h3.86z"/></svg>