<svg xmlns="http://www.w3.org/2000/svg" width="24" height="24" fill="none" stroke="currentColor" stroke-linecap="round" stroke-linejoin="round" stroke-width="3"><path fill="#000" fill-rule="evenodd" stroke="none" d="M11.516 1.577c-.371.142-.711.446-.864.773-.126.269-.17.585-.171 1.212l-.001.501-.576.229c-1.268.505-2.621.905-3.704 1.095-.528.093-.717.104-2.1.127l-1.52.026-.228.116c-.93.471-1.133 1.673-.407 2.399.248.249.54.384.936.435l.313.04-.113.305c-.062.168-.653 1.746-1.314 3.506-.66 1.761-1.22 3.309-1.243 3.44-.033.187-.03.299.016.514.1.475.306.738.881 1.124 1.88 1.264 4.387 1.427 6.434.417.777-.384 1.341-.836 1.505-1.208.113-.254.159-.612.113-.867-.022-.12-.635-1.803-1.362-3.74A306 306 0 0 1 6.772 8.42c-.016-.073.031-.09.525-.192a20 20 0 0 0 2.434-.68l.749-.256v12.226l-1.95.011-1.95.011-.228.116a1.51 1.51 0 0 0-.829 1.126 1.494 1.494 0 0 0 1.287 1.7c.327.047 10.053.047 10.38 0a1.494 1.494 0 0 0 1.287-1.7 1.51 1.51 0 0 0-.829-1.126l-.228-.116-1.95-.011-1.95-.012V7.292l.749.256c.89.303 1.691.527 2.434.68.494.102.541.119.525.192-.009.044-.612 1.665-1.339 3.601-.727 1.937-1.342 3.629-1.365 3.76-.033.187-.03.299.016.514.1.475.306.738.881 1.124 1.88 1.264 4.387 1.427 6.434.417.777-.384 1.341-.836 1.505-1.208.113-.254.159-.612.113-.867-.022-.12-.58-1.659-1.241-3.42l-1.313-3.506-.113-.305.313-.04c.396-.051.688-.186.936-.435.726-.726.523-1.928-.407-2.399l-.228-.116-1.52-.026c-1.381-.023-1.573-.035-2.1-.127-1.081-.19-2.436-.59-3.704-1.095l-.576-.229-.001-.501c-.001-.626-.045-.942-.171-1.212-.123-.265-.405-.545-.698-.693-.195-.099-.28-.116-.608-.125q-.382-.01-.526.045M5.574 13.806c.439 1.174.543 1.491.5 1.518-.338.211-1.811.21-2.15-.001-.046-.029.049-.316.499-1.519.306-.816.566-1.484.577-1.483s.269.668.574 1.485m14 0c.439 1.174.543 1.491.5 1.518-.338.211-1.811.21-2.15-.001-.046-.029.049-.316.499-1.519.306-.816.566-1.484.577-1.483s.269.668.574 1.485"/></svg>