<svg xmlns="http://www.w3.org/2000/svg" width="24" height="24" fill="none" stroke="currentColor" stroke-linecap="round" stroke-linejoin="round" stroke-width="3"><path fill="#000" fill-rule="evenodd" stroke="none" d="m18.22 1.519-2.64.021-.228.116a1.496 1.496 0 0 0 .115 2.745c.203.078.337.093 1.043.114l.811.025-3.401 3.4-3.4 3.4-.001-.64c0-.352-.017-.752-.037-.89a1.51 1.51 0 0 0-.834-1.154C9.44 8.55 9.384 8.54 9 8.54s-.44.01-.648.116a1.51 1.51 0 0 0-.834 1.154c-.051.353-.048 5.107.004 5.424.053.327.187.588.421.823.235.234.496.368.823.421.317.052 5.071.055 5.424.004a1.494 1.494 0 0 0 1.287-1.7 1.51 1.51 0 0 0-.829-1.126c-.227-.115-.234-.116-1.118-.136l-.89-.02 3.415-3.415L19.47 6.67l.018.815c.017.758.025.832.12 1.063.241.591.757.938 1.392.938s1.145-.343 1.395-.938L22.5 8.3l.012-2.616c.013-2.781.001-3.023-.171-3.362a1.73 1.73 0 0 0-.662-.662c-.178-.091-.624-.191-.759-.17-.033.005-1.248.018-2.7.029m-13.78.028a3.56 3.56 0 0 0-2.888 2.841c-.076.399-.076 14.825 0 15.224.221 1.168 1.036 2.177 2.116 2.617.716.292.076.271 8.332.271 6.835 0 7.443-.005 7.71-.068a3.7 3.7 0 0 0 1.798-1.004c.573-.6.883-1.272.971-2.111.05-.475.053-7.163.003-7.507a1.51 1.51 0 0 0-.834-1.154c-.208-.106-.264-.116-.648-.116s-.44.01-.648.116a1.51 1.51 0 0 0-.834 1.154c-.02.138-.037 1.855-.037 3.817l-.001 3.567-.103.122a.6.6 0 0 1-.25.163c-.204.056-14.05.056-14.254 0a.6.6 0 0 1-.25-.163l-.103-.122V4.792l.136-.136.136-.136 3.574-.001c1.966 0 3.686-.017 3.824-.037a1.494 1.494 0 0 0 1.287-1.7 1.51 1.51 0 0 0-.829-1.126l-.228-.116-3.94-.005c-2.167-.003-3.985.003-4.04.012"/></svg>