<svg xmlns="http://www.w3.org/2000/svg" width="24" height="24" fill="none" stroke="currentColor" stroke-linecap="round" stroke-linejoin="round" stroke-width="3"><path fill="#000" fill-rule="evenodd" stroke="none" d="M4.44 1.545c-1.488.286-2.621 1.394-2.881 2.819-.06.328-.06.944 0 1.272.171.937.773 1.811 1.613 2.343l.308.195v5.403c0 3.522.015 5.492.042 5.657.053.327.187.588.421.823.235.234.496.368.823.421.165.027 2.135.042 5.657.042h5.403l.195.308a3.6 3.6 0 0 0 2.269 1.598 4.3 4.3 0 0 0 1.42 0c1.061-.224 2.044-1.007 2.468-1.965.779-1.762.072-3.736-1.646-4.596-.519-.259-.827-.325-1.532-.325-.525 0-.668.014-.932.09-.854.248-1.539.764-2.047 1.544l-.226.346H8.624l1.806-1.812c1.56-1.564 1.822-1.844 1.912-2.042.354-.773.059-1.629-.694-2.01-.208-.106-.264-.116-.648-.116-.683 0-.595-.066-2.69 2.017l-1.79 1.779V8.174l.308-.195a3.491 3.491 0 0 0-.295-6.113c-.479-.24-.797-.313-1.433-.327a7 7 0 0 0-.66.006m.904 3.111c.12.12.136.161.136.344s-.016.224-.136.344-.161.136-.344.136-.224-.016-.344-.136S4.52 5.183 4.52 5s.016-.224.136-.344.161-.136.344-.136.224.016.344.136m14 14c.119.119.136.162.136.337 0 .242-.129.424-.343.483a.5.5 0 0 1-.514-.16c-.081-.096-.103-.166-.103-.323 0-.175.017-.218.136-.337s.161-.136.344-.136.224.016.344.136"/></svg>