<svg xmlns="http://www.w3.org/2000/svg" width="24" height="24" fill="none" stroke="currentColor" stroke-linecap="round" stroke-linejoin="round" stroke-width="3"><path fill="#000" fill-rule="evenodd" stroke="none" d="M4.44 1.547a3.56 3.56 0 0 0-2.888 2.841c-.036.187-.052.682-.052 1.592V7.3l.105.248c.25.595.761.938 1.395.938.635 0 1.148-.345 1.394-.938.101-.244.103-.268.124-1.521l.022-1.274.131-.116.13-.117 1.07-.001c.588 0 1.181-.017 1.319-.037a1.494 1.494 0 0 0 1.287-1.7 1.51 1.51 0 0 0-.829-1.126L7.42 1.54l-1.44-.005a37 37 0 0 0-1.54.012m12.076.03c-.532.201-.921.673-.993 1.205a1.494 1.494 0 0 0 1.287 1.7c.138.02.731.037 1.319.037l1.07.001.13.117.131.116.022 1.274c.021 1.253.023 1.277.124 1.521.246.593.759.938 1.394.938s1.148-.345 1.393-.938c.1-.241.104-.278.119-1.308.023-1.5-.045-2.047-.334-2.701-.387-.876-1.243-1.609-2.225-1.906-.277-.083-.377-.089-1.793-.099-1.19-.009-1.53 0-1.644.043M11.14 5.545l-.552.078c-1.848.259-3.742 1.254-5.103 2.679a8.2 8.2 0 0 0-1.505 2.133c-.412.823-.528 1.286-.458 1.842.048.378.16.693.458 1.288.421.84.845 1.441 1.505 2.133 1.342 1.405 3.091 2.336 5.055 2.689.576.103 2.344.103 2.92 0 1.964-.353 3.713-1.284 5.055-2.689a8.2 8.2 0 0 0 1.505-2.133c.298-.595.41-.91.458-1.288.07-.556-.046-1.019-.458-1.842a8.2 8.2 0 0 0-1.505-2.133 9.12 9.12 0 0 0-5.095-2.686c-.383-.062-1.997-.112-2.28-.071m2.12 3.093c1.408.322 2.605 1.074 3.461 2.172.334.428.692 1.045.692 1.19 0 .059-.094.272-.209.473-.847 1.481-2.293 2.53-4.004 2.908-.471.103-1.599.125-2.141.04-1.448-.226-2.869-1.06-3.765-2.208-.277-.354-.734-1.11-.734-1.213 0-.104.458-.861.732-1.209a6 6 0 0 1 3.453-2.147c.556-.116.59-.118 1.415-.102.564.01.825.033 1.1.096m-1.88.936a2.73 2.73 0 0 0-1.279.795c-.21.239-.469.746-.542 1.064A3 3 0 0 0 9.51 12c0 .446.058.695.256 1.112.223.467.655.899 1.122 1.122.417.198.666.256 1.112.256s.695-.058 1.112-.256a2.5 2.5 0 0 0 1.122-1.122c.198-.417.256-.666.256-1.112s-.058-.695-.255-1.11c-.262-.55-.811-1.037-1.418-1.257-.295-.107-1.12-.141-1.437-.059m.964 2.082c.119.119.136.162.136.337 0 .242-.129.424-.343.483a.5.5 0 0 1-.514-.16c-.081-.096-.103-.166-.103-.323 0-.175.017-.218.136-.337s.161-.136.344-.136.224.016.344.136m-9.828 3.921c-.561.215-.918.668-1.004 1.274-.06.425-.015 2.537.061 2.87a3.57 3.57 0 0 0 2.697 2.704c.342.078 2.447.124 2.879.063.376-.053.664-.191.906-.433.726-.726.523-1.928-.407-2.399l-.228-.116-1.28-.02c-1.359-.021-1.379-.024-1.537-.225-.079-.101-.083-.154-.084-1.17 0-.586-.017-1.177-.037-1.315a1.51 1.51 0 0 0-.832-1.153c-.195-.099-.28-.116-.608-.125-.253-.007-.431.008-.526.045m18 0a1.54 1.54 0 0 0-.998 1.233c-.02.138-.037.729-.037 1.315-.001 1.016-.005 1.069-.084 1.17-.158.201-.178.204-1.537.225l-1.28.02-.228.116c-.93.471-1.133 1.673-.407 2.399.242.242.53.38.906.433.432.061 2.537.015 2.879-.063a3.6 3.6 0 0 0 2.145-1.442 3.44 3.44 0 0 0 .604-1.666c.049-.471.052-2.171.003-2.507a1.51 1.51 0 0 0-.832-1.153c-.195-.099-.28-.116-.608-.125-.253-.007-.431.008-.526.045"/></svg>