<svg xmlns="http://www.w3.org/2000/svg" width="24" height="24" fill="none" stroke="currentColor" stroke-linecap="round" stroke-linejoin="round" stroke-width="3"><path fill="#000" fill-rule="evenodd" stroke="none" d="M4.44 1.547a3.56 3.56 0 0 0-2.888 2.841c-.036.187-.052.682-.052 1.592V7.3l.105.248c.25.595.761.938 1.395.938.635 0 1.148-.345 1.394-.938.101-.244.103-.268.124-1.521l.022-1.274.131-.116.13-.117 1.07-.001c.588 0 1.181-.017 1.319-.037a1.494 1.494 0 0 0 1.287-1.7 1.51 1.51 0 0 0-.829-1.126L7.42 1.54l-1.44-.005a37 37 0 0 0-1.54.012m12.076.03c-.532.201-.921.673-.993 1.205a1.494 1.494 0 0 0 1.287 1.7c.138.02.731.037 1.319.037l1.07.001.13.117.131.116.022 1.274c.021 1.253.023 1.277.124 1.521.246.593.759.938 1.394.938s1.148-.345 1.393-.938c.1-.241.104-.278.119-1.308.023-1.5-.045-2.047-.334-2.701-.387-.876-1.243-1.609-2.225-1.906-.277-.083-.377-.089-1.793-.099-1.19-.009-1.53 0-1.644.043m-8 6c-1.049.399-1.349 1.701-.571 2.478.58.58 1.53.583 2.107.007a1.47 1.47 0 0 0 0-2.124c-.292-.292-.55-.395-1.012-.407-.247-.006-.431.01-.524.046m6 0c-1.049.399-1.349 1.701-.571 2.478.58.58 1.53.583 2.107.007a1.47 1.47 0 0 0 0-2.124c-.292-.292-.55-.395-1.012-.407-.247-.006-.431.01-.524.046m-6.983 4.998c-.241.079-.416.197-.63.426-.227.243-.329.461-.378.807-.067.471.042.798.426 1.275.359.446.913.925 1.569 1.355 2.14 1.406 4.82 1.406 6.957.002.489-.321.875-.63 1.224-.979.663-.662.856-1.074.774-1.658a1.4 1.4 0 0 0-.455-.88c-.335-.316-.514-.383-1.02-.382-.58.002-.678.053-1.32.677-.937.913-1.695 1.273-2.68 1.273s-1.743-.36-2.68-1.273c-.612-.596-.738-.664-1.26-.684-.231-.008-.42.006-.527.041m-5.017 3.002c-.561.215-.918.668-1.004 1.274-.06.425-.015 2.537.061 2.87a3.57 3.57 0 0 0 2.697 2.704c.342.078 2.447.124 2.879.063.376-.053.664-.191.906-.433.726-.726.523-1.928-.407-2.399l-.228-.116-1.28-.02c-1.359-.021-1.379-.024-1.537-.225-.079-.101-.083-.154-.084-1.17 0-.586-.017-1.177-.037-1.315a1.51 1.51 0 0 0-.832-1.153c-.195-.099-.28-.116-.608-.125-.253-.007-.431.008-.526.045m18 0a1.54 1.54 0 0 0-.998 1.233c-.02.138-.037.729-.037 1.315-.001 1.016-.005 1.069-.084 1.17-.158.201-.178.204-1.537.225l-1.28.02-.228.116c-.93.471-1.133 1.673-.407 2.399.242.242.53.38.906.433.432.061 2.537.015 2.879-.063a3.6 3.6 0 0 0 2.145-1.442 3.44 3.44 0 0 0 .604-1.666c.049-.471.052-2.171.003-2.507a1.51 1.51 0 0 0-.832-1.153c-.195-.099-.28-.116-.608-.125-.253-.007-.431.008-.526.045"/></svg>