<svg xmlns="http://www.w3.org/2000/svg" width="24" height="24" fill="none" stroke="currentColor" stroke-linecap="round" stroke-linejoin="round" stroke-width="3"><path fill="#000" fill-rule="evenodd" stroke="none" d="M11.5.593c-.11.041-2.036.994-4.28 2.118-4.445 2.226-4.339 2.165-4.552 2.616-.287.606-.187 1.246.268 1.719.319.331.899.525 1.31.436a4 4 0 0 1 .216-.042c.01 0 .018.369.018.819v.819l-1.672.839c-1.433.719-1.698.866-1.861 1.031a1.52 1.52 0 0 0-.431.858c-.025.165-.035 1.768-.025 4.456.012 3.666.022 4.231.078 4.459.337 1.385 1.344 2.389 2.721 2.711.268.063.935.068 8.71.068s8.442-.005 8.71-.068c1.298-.303 2.276-1.216 2.65-2.47.151-.509.164-.946.152-5.182L23.5 11.7l-.093-.231a1.7 1.7 0 0 0-.315-.471c-.213-.23-.283-.27-1.897-1.079l-1.675-.841v-.819c0-.45.008-.819.018-.819s.107.019.216.042c.411.089.991-.105 1.31-.436a1.49 1.49 0 0 0 .273-1.709c-.219-.464-.086-.387-4.684-2.688L12.446.544l-.373-.013c-.29-.01-.417.004-.573.062M14.24 4.8l2.24 1.12v14.6h-.96l-.001-1.23c0-1.336-.036-1.837-.16-2.254a3.52 3.52 0 0 0-2.427-2.406c-.264-.076-.407-.09-.932-.09s-.668.014-.932.09a3.56 3.56 0 0 0-2.496 2.649c-.046.198-.066.62-.081 1.751l-.02 1.49H7.52V5.92l2.23-1.118a649 649 0 0 1 2.24-1.12c.006-.001 1.018.502 2.25 1.118m-2.8.745c-.77.148-1.465.517-1.966 1.044A3.42 3.42 0 0 0 8.512 9c0 .715.187 1.345.57 1.917a3.56 3.56 0 0 0 2.208 1.509 4.3 4.3 0 0 0 1.42 0 3.513 3.513 0 0 0 2.765-3.772c-.123-1.217-.83-2.232-1.942-2.788-.479-.24-.797-.313-1.433-.327a7 7 0 0 0-.66.006m.904 3.111c.119.119.136.162.136.337 0 .242-.129.424-.343.483a.5.5 0 0 1-.514-.16c-.081-.096-.103-.166-.103-.323 0-.175.017-.218.136-.337s.161-.136.344-.136.224.016.344.136M4.48 16.48v4.04h-.23c-.32-.001-.507-.062-.627-.204l-.103-.122v-7.273l.47-.239c.258-.131.475-.239.48-.24s.01 1.816.01 4.038m16 .077v3.637l-.103.122c-.12.142-.307.203-.627.204h-.23v-8.081l.48.241.48.241zm-8.136 1.099.136.136v2.728h-.96v-2.728l.136-.136c.12-.12.161-.136.344-.136s.224.016.344.136"/></svg>