<svg xmlns="http://www.w3.org/2000/svg" width="24" height="24" fill="none" stroke="currentColor" stroke-linecap="round" stroke-linejoin="round" stroke-width="3"><path fill="#000" fill-rule="evenodd" stroke="none" d="M3.44 4.545C1.952 4.831.819 5.939.559 7.364c-.06.328-.06.944 0 1.272.236 1.291 1.225 2.366 2.521 2.74.519.15 1.314.148 1.852-.003l.235-.065.346.346.346.346-.345.345-.345.346-.295-.076c-.446-.114-1.383-.106-1.806.016-1.287.371-2.274 1.445-2.509 2.733-.06.328-.06.944 0 1.272a3.56 3.56 0 0 0 2.109 2.593c.451.184.832.258 1.332.258.933 0 1.747-.328 2.428-.979a3.51 3.51 0 0 0 .947-3.421l-.068-.252 3.964-3.968c3.533-3.535 3.976-3.992 4.071-4.199.354-.776.06-1.63-.694-2.012-.208-.106-.264-.116-.648-.116-.701 0-.504-.158-3.451 2.777l-2.55 2.541-.346-.346-.346-.346.068-.253c.436-1.613-.326-3.289-1.842-4.047-.479-.24-.797-.313-1.433-.327a7 7 0 0 0-.66.006m.904 3.111c.119.119.136.162.136.337 0 .157-.022.227-.103.323a.5.5 0 0 1-.514.16c-.214-.059-.343-.241-.343-.483 0-.175.017-.218.136-.337S3.817 7.52 4 7.52s.224.016.344.136m9.172 2.922c-.531.199-.921.672-.993 1.204a1.494 1.494 0 0 0 1.287 1.7c.138.02.673.036 1.19.036s1.052-.016 1.19-.036a1.494 1.494 0 0 0 1.287-1.7 1.51 1.51 0 0 0-.829-1.126l-.228-.116-1.38-.008c-1.079-.007-1.412.003-1.524.046m6 0c-.531.199-.921.672-.993 1.204a1.494 1.494 0 0 0 1.287 1.7c.138.02.673.036 1.19.036s1.052-.016 1.19-.036a1.494 1.494 0 0 0 1.287-1.7 1.51 1.51 0 0 0-.829-1.126l-.228-.116-1.38-.008c-1.079-.007-1.412.003-1.524.046m-9.2 2.799c-.861.33-1.24 1.254-.857 2.091.091.202.337.464 1.873 2s1.798 1.782 2 1.873a1.502 1.502 0 0 0 2.009-2.009c-.092-.202-.334-.46-1.873-1.994-2.042-2.035-1.981-1.989-2.626-2.006-.253-.007-.431.008-.526.045m-5.972 2.279c.119.119.136.162.136.337 0 .157-.022.227-.103.323a.5.5 0 0 1-.514.16c-.214-.059-.343-.241-.343-.483 0-.175.017-.218.136-.337s.161-.136.344-.136.224.016.344.136"/></svg>