<svg xmlns="http://www.w3.org/2000/svg" width="24" height="24" fill="none" stroke="currentColor" stroke-linecap="round" stroke-linejoin="round" stroke-width="3"><path fill="#000" fill-rule="evenodd" stroke="none" d="M5.277 1.558c-1.471.269-2.667 1.161-3.316 2.474a5.2 5.2 0 0 0-.402 1.248c-.059.334-.059 1.106 0 1.44a4.53 4.53 0 0 0 3.637 3.706c.395.076 1.217.076 1.614-.002a5 5 0 0 0 .66-.185c.193-.068.377-.133.41-.143.039-.012.403.325 1.02.943l.96.961-.966.966-.966.966-.259-.104c-.597-.239-.87-.286-1.669-.287-.687 0-.768.008-1.138.11-1.3.362-2.315 1.196-2.901 2.381a5.2 5.2 0 0 0-.402 1.248c-.059.334-.059 1.106 0 1.44.361 2.054 2.013 3.583 4.057 3.756 2.473.208 4.652-1.626 4.86-4.092a4.46 4.46 0 0 0-.285-1.999l-.12-.314 5.582-5.586c5.009-5.01 5.594-5.609 5.689-5.817.354-.777.06-1.63-.694-2.012-.208-.106-.264-.116-.648-.116-.713 0-.383-.28-4.45 3.777l-3.551 3.542-.964-.964-.965-.965.12-.315a4.49 4.49 0 0 0-.615-4.338 5.8 5.8 0 0 0-.935-.919c-.317-.237-1.039-.579-1.48-.701-.323-.089-.479-.107-1.04-.119-.363-.007-.742.002-.843.02m1.376 3.1c.272.138.573.445.709.722.085.174.098.255.098.62 0 .385-.01.439-.117.65A1.48 1.48 0 0 1 6 7.486c-.603 0-1.063-.289-1.348-.846-.102-.2-.112-.259-.112-.64 0-.365.013-.446.098-.62.173-.352.515-.664.878-.803q.144-.055.526-.045c.329.009.413.026.611.126m7.663 8.719c-.861.33-1.24 1.254-.858 2.091.094.205.426.552 2.874 3s2.795 2.78 3 2.874a1.503 1.503 0 0 0 2.01-2.01c-.094-.205-.423-.548-2.874-2.994-3.157-3.151-2.96-2.988-3.626-3.006-.253-.007-.431.008-.526.045m-7.663 3.281c.272.138.573.445.709.722.085.174.098.255.098.62 0 .384-.01.44-.116.648a1.5 1.5 0 0 1-1.562.829 1.51 1.51 0 0 1-1.126-.829c-.106-.208-.116-.264-.116-.648 0-.365.013-.446.098-.62.173-.352.515-.664.878-.803q.144-.055.526-.045c.329.009.413.026.611.126"/></svg>