<svg xmlns="http://www.w3.org/2000/svg" width="24" height="24" fill="none" stroke="currentColor" stroke-linecap="round" stroke-linejoin="round" stroke-width="3"><path fill="#000" fill-rule="evenodd" stroke="none" d="M3.62 1.531A3.525 3.525 0 0 0 .552 4.388C.478 4.779.48 7.257.554 7.56A2.62 2.62 0 0 0 2.36 9.424c.157.045.49.069 1.168.084l.949.023.014 4.964c.012 4.379.021 4.996.077 5.226.34 1.387 1.345 2.389 2.722 2.711.266.062.815.068 6.71.068s6.444-.006 6.71-.068a3.7 3.7 0 0 0 1.798-1.004c.588-.615.885-1.275.977-2.173.055-.534.02-1.591-.063-1.895a2.61 2.61 0 0 0-1.605-1.727c-.183-.067-.358-.09-.767-.104l-.53-.018-.001-5.226c0-3.172-.016-5.373-.04-5.602-.154-1.465-1.109-2.618-2.526-3.051-.287-.087-.343-.089-2.593-.1-5.719-.029-11.484-.029-11.74-.001m.724 3.125.136.136V6.52h-.96V4.792l.136-.136c.12-.12.161-.136.344-.136s.224.016.344.136m13 0 .136.136v10.726l-3.53.011-3.53.011-.237.09c-.596.224-1.146.701-1.398 1.212-.234.474-.267.649-.293 1.552-.023.786-.027.818-.12.929a.49.49 0 0 1-.749-.007l-.103-.122v-7.031c0-3.867-.012-7.169-.026-7.337l-.026-.306h9.74zm3.136 14.201c0 .303-.01.349-.103.459a.6.6 0 0 1-.25.163c-.096.026-1.623.041-4.403.041h-4.256l.026-.33c.014-.182.026-.406.026-.5v-.17h8.96z"/></svg>