<svg xmlns="http://www.w3.org/2000/svg" width="24" height="24" fill="none" stroke="currentColor" stroke-linecap="round" stroke-linejoin="round" stroke-width="3"><path fill="#000" fill-rule="evenodd" stroke="none" d="M10.08 1.545c-2.267.271-4.109 1.123-5.653 2.613A9.45 9.45 0 0 0 1.706 9.02c-.263 1.198-.263 2.762 0 3.96.327 1.492 1.027 2.938 1.968 4.062 1.574 1.881 3.668 3.04 6.106 3.38.699.098 1.838.089 2.56-.018a9.6 9.6 0 0 0 3.876-1.465l.349-.23 1.77 1.764c1.525 1.521 1.801 1.779 1.999 1.869a1.502 1.502 0 0 0 2.008-2.008c-.09-.198-.348-.474-1.869-1.999l-1.764-1.77.23-.349A9.35 9.35 0 0 0 20.488 11c0-2.175-.697-4.19-2.038-5.896-.336-.429-1.262-1.334-1.69-1.654-1.28-.956-2.643-1.548-4.18-1.815-.373-.065-.689-.086-1.42-.095a20 20 0 0 0-1.08.005m1.86 3.032c2.154.331 3.918 1.619 4.898 3.576.655 1.309.823 3.004.445 4.476a6.51 6.51 0 0 1-5.303 4.794 8 8 0 0 1-1.96 0 6.51 6.51 0 0 1-5.303-4.794 6.75 6.75 0 0 1 0-3.258c.644-2.508 2.714-4.378 5.303-4.791.436-.069 1.478-.071 1.92-.003M8.6 7.064c-.442.118-.555.23-1.766 1.745-.619.773-1.158 1.48-1.198 1.57a1.65 1.65 0 0 0 0 1.242c.094.211 2.263 2.924 2.455 3.07.286.217.496.283.909.286.337.003.405-.009.605-.107.512-.252.819-.679.87-1.209.03-.312-.012-.58-.127-.821-.037-.077-.374-.522-.748-.99L8.919 11l.681-.85c.374-.467.71-.913.747-.99.324-.676.087-1.516-.538-1.913A1.47 1.47 0 0 0 8.6 7.064m3.956.012a1.65 1.65 0 0 0-.694.448 1.57 1.57 0 0 0-.209 1.636c.037.077.373.523.747.99l.681.85-.681.85c-.374.468-.71.913-.747.99a1.5 1.5 0 0 0-.129.83c.057.527.365.951.871 1.2.2.098.268.11.605.107.413-.003.623-.069.909-.286.192-.146 2.361-2.859 2.455-3.07a1.65 1.65 0 0 0 0-1.242c-.04-.09-.579-.797-1.198-1.57-1.221-1.527-1.324-1.628-1.784-1.747a1.37 1.37 0 0 0-.826.014"/></svg>