<svg xmlns="http://www.w3.org/2000/svg" width="24" height="24" fill="none" stroke="currentColor" stroke-linecap="round" stroke-linejoin="round" stroke-width="3"><path fill="#000" fill-rule="evenodd" stroke="none" d="M10.08 1.545c-2.267.271-4.109 1.123-5.653 2.613A9.45 9.45 0 0 0 1.706 9.02c-.263 1.198-.263 2.762 0 3.96.327 1.492 1.027 2.938 1.968 4.062 1.574 1.881 3.668 3.04 6.106 3.38.699.098 1.838.089 2.56-.018a9.6 9.6 0 0 0 3.876-1.465l.349-.23 1.77 1.764c1.525 1.521 1.801 1.779 1.999 1.869a1.502 1.502 0 0 0 2.008-2.008c-.09-.198-.348-.474-1.869-1.999l-1.764-1.77.23-.349A9.35 9.35 0 0 0 20.488 11c0-2.175-.697-4.19-2.038-5.896-.336-.429-1.262-1.334-1.69-1.654-1.28-.956-2.643-1.548-4.18-1.815-.373-.065-.689-.086-1.42-.095a20 20 0 0 0-1.08.005m1.86 3.032c2.154.331 3.918 1.619 4.898 3.576.655 1.309.823 3.004.445 4.476a6.51 6.51 0 0 1-5.303 4.794 8 8 0 0 1-1.96 0 6.51 6.51 0 0 1-5.303-4.794 6.75 6.75 0 0 1 0-3.258c.644-2.508 2.714-4.378 5.303-4.791.436-.069 1.478-.071 1.92-.003m1.234 2.462c-.434.092-.466.121-3.242 2.895-2.503 2.501-2.655 2.661-2.78 2.926-.119.252-.132.316-.132.64 0 .31.015.393.112.6.147.315.455.624.764.767.21.098.293.113.604.113.324 0 .388-.013.64-.132.265-.125.426-.278 2.928-2.78s2.655-2.663 2.78-2.928c.119-.252.132-.316.132-.64 0-.311-.015-.394-.113-.604a1.68 1.68 0 0 0-.748-.753 1.8 1.8 0 0 0-.945-.104"/></svg>