<svg xmlns="http://www.w3.org/2000/svg" width="24" height="24" fill="none" stroke="currentColor" stroke-linecap="round" stroke-linejoin="round" stroke-width="3"><path fill="#000" fill-rule="evenodd" stroke="none" d="M11.2.545C9.074.81 7.294 2.084 6.712 3.76c-.282.812-.265 1.862.044 2.68.267.709.864 1.452 1.562 1.947a.7.7 0 0 1 .16.133c-.001.011-.11.101-.243.2-.319.238-.866.807-1.048 1.091-.54.845-.742 1.632-.662 2.58q.16 1.905 2.036 3.164c.669.45 1.195.686 3.619 1.625.777.301 1.536.687 1.846.937.313.254.454.519.454.851 0 .317-.112.538-.416.822-.494.462-1.195.7-2.064.7-.873 0-1.568-.235-2.063-.699-.305-.285-.379-.433-.441-.88a2.5 2.5 0 0 0-.147-.56c-.124-.266-.406-.546-.701-.695-.208-.106-.264-.116-.648-.116-.381 0-.44.01-.64.112-.584.298-.849.743-.847 1.419.004 1.031.412 1.941 1.243 2.774.658.66 1.376 1.082 2.328 1.37 1.812.547 3.859.275 5.386-.717.408-.265 1.126-.964 1.343-1.307.482-.762.672-1.388.673-2.211 0-.964-.287-1.777-.892-2.525-.187-.231-.708-.706-.993-.906-.053-.037-.088-.073-.079-.08.465-.329 1.059-.917 1.291-1.28.479-.749.672-1.385.673-2.209 0-1.249-.489-2.273-1.486-3.108-.657-.551-1.489-1.008-2.66-1.462l-1.32-.511c-1.437-.556-2.109-.947-2.37-1.38a.7.7 0 0 1-.13-.468c0-.173.026-.308.085-.432.178-.379.819-.831 1.416-.999.362-.102 1.322-.127 1.726-.045.546.111.973.318 1.325.644.295.273.37.425.432.87.061.434.189.714.441.966.762.762 2.076.483 2.455-.522.068-.18.088-.317.087-.604-.005-1.234-.651-2.405-1.807-3.274-.397-.298-1.155-.684-1.64-.835-.702-.218-1.045-.268-1.9-.281-.44-.006-.863-.003-.94.006m1.576 10.035c.522.108.951.32 1.297.64.283.262.407.5.407.78 0 .282-.124.517-.416.79-.494.462-1.195.7-2.064.7-.873 0-1.568-.235-2.064-.699-.557-.521-.562-1.059-.015-1.565.35-.324.773-.537 1.279-.645.358-.075 1.212-.076 1.576-.001"/></svg>