<svg xmlns="http://www.w3.org/2000/svg" width="24" height="24" fill="none" stroke="currentColor" stroke-linecap="round" stroke-linejoin="round" stroke-width="3"><path fill="#000" fill-rule="evenodd" stroke="none" d="M3.44.547A3.56 3.56 0 0 0 .552 3.388c-.074.389-.074 4.835 0 5.224.221 1.168 1.036 2.177 2.116 2.617.669.272.647.271 3.332.271 2.132 0 2.454-.008 2.71-.068a3.7 3.7 0 0 0 1.798-1.004c.573-.6.883-1.272.971-2.111.051-.49.051-4.144 0-4.634-.154-1.465-1.108-2.617-2.526-3.051C8.664.544 8.628.543 6.1.536 4.692.532 3.495.537 3.44.547m4.904 3.109.136.136v4.402l-.103.122a.6.6 0 0 1-.25.163c-.199.055-4.055.055-4.254 0a.6.6 0 0 1-.25-.163l-.103-.122V3.792l.136-.136.136-.136h4.416zm5.172 1.921c-1.049.399-1.349 1.701-.571 2.478.369.369.71.463 1.689.464l.574.001.131.131.13.13.019.76c.017.696.027.78.12 1.007.241.591.757.938 1.392.938s1.153-.349 1.39-.935c.084-.207.102-.331.119-.808.053-1.458-.228-2.358-.987-3.158a3.7 3.7 0 0 0-1.569-.951c-.261-.077-.403-.088-1.293-.099-.776-.01-1.032-.001-1.144.042m-7 7c-.561.215-.917.667-1.004 1.274-.052.363-.013 1.518.064 1.87.241 1.116 1.045 2.081 2.088 2.506.477.195.785.25 1.536.278 1.058.039 1.465-.06 1.855-.45.726-.726.523-1.928-.407-2.399-.223-.113-.247-.117-1.008-.137-.822-.022-.889-.036-1.037-.224-.075-.096-.083-.16-.084-.67-.001-.688-.042-.999-.171-1.275-.123-.265-.405-.545-.698-.693-.195-.099-.28-.116-.608-.125q-.382-.01-.526.045m8.924-.03a3.56 3.56 0 0 0-2.888 2.841c-.074.389-.074 4.835 0 5.224.221 1.168 1.036 2.177 2.116 2.617.669.272.647.271 3.332.271 2.132 0 2.454-.008 2.71-.068a3.7 3.7 0 0 0 1.798-1.004c.573-.6.883-1.272.971-2.111.051-.49.051-4.144 0-4.634-.154-1.465-1.108-2.617-2.526-3.051-.289-.088-.325-.089-2.853-.096-1.408-.004-2.605.001-2.66.011m4.904 3.109.136.136v4.402l-.103.122a.6.6 0 0 1-.25.163c-.199.055-4.055.055-4.254 0a.6.6 0 0 1-.25-.163l-.103-.122v-4.402l.136-.136.136-.136h4.416z"/></svg>