<svg xmlns="http://www.w3.org/2000/svg" width="24" height="24" fill="none" stroke="currentColor" stroke-linecap="round" stroke-linejoin="round" stroke-width="3"><path fill="#000" fill-rule="evenodd" stroke="none" d="M21.68.538C21.374.61 1.541 7.565 1.324 7.677a1.488 1.488 0 0 0-.353 2.404c.214.206.128.166 4.869 2.273l4.02 1.786 1.787 4.02c2.215 4.983 2.041 4.611 2.283 4.867.361.381.919.557 1.388.437.452-.116.84-.422 1.017-.8.053-.112 1.576-4.434 3.384-9.604 1.809-5.17 3.388-9.678 3.508-10.018.26-.731.303-.953.249-1.286A1.5 1.5 0 0 0 22.288.525c-.257-.055-.325-.053-.608.013m-8.223 7.865-2.803 2.803-2.297-1.022A158 158 0 0 1 6.08 9.16c.011-.001 2.297-.801 5.08-1.778s5.069-1.777 5.08-1.779a330 330 0 0 1-2.783 2.8m4.865-.433c-2.236 6.395-3.454 9.857-3.478 9.881-.016.017-.484-.99-1.038-2.238l-1.009-2.27 2.791-2.791a652 652 0 0 1 2.8-2.792c.004 0-.025.095-.066.21"/></svg>