<svg xmlns="http://www.w3.org/2000/svg" width="24" height="24" fill="none" stroke="currentColor" stroke-linecap="round" stroke-linejoin="round" stroke-width="3"><path fill="#000" fill-rule="evenodd" stroke="none" d="M2.6 1.556c-.677.222-1.088.766-1.084 1.437.001.281.076.519 1.452 4.651L4.419 12l-1.455 4.369C1.345 21.228 1.406 21 1.594 21.505c.228.609.772.983 1.432.984.237 0 .34-.023.6-.136.173-.075 4.568-2.151 9.768-4.614 8.522-4.037 9.473-4.497 9.646-4.663.606-.581.611-1.55.009-2.138-.189-.186-.804-.483-9.915-4.798L3.42 1.54l-.36-.008a2.2 2.2 0 0 0-.46.024m8 6.703c2.541 1.204 4.637 2.205 4.658 2.225.023.021-1.619.036-4.045.036-3.219 0-4.092-.011-4.123-.05-.037-.047-1.53-4.496-1.53-4.559 0-.041-.145-.108 5.04 2.348m4.636 5.278c-.041.041-9.653 4.579-9.668 4.565-.014-.015 1.454-4.471 1.5-4.552.009-.016 1.855-.03 4.101-.03s4.077.008 4.067.017"/></svg>