<svg xmlns="http://www.w3.org/2000/svg" width="24" height="24" fill="none" stroke="currentColor" stroke-linecap="round" stroke-linejoin="round" stroke-width="3"><path fill="#000" fill-rule="evenodd" stroke="none" d="M11.516 1.577c-.554.212-.919.67-1 1.254-.022.162-.033 3.904-.027 9.369l.011 9.1.105.248c.25.595.761.938 1.395.938s1.145-.343 1.395-.938l.105-.248.011-9.1c.006-5.465-.005-9.207-.027-9.369a1.5 1.5 0 0 0-.834-1.174c-.195-.099-.28-.116-.608-.125q-.382-.01-.526.045m-4 5a2.3 2.3 0 0 0-.32.163c-.097.059-1.133 1.065-2.304 2.234-1.863 1.862-2.141 2.155-2.233 2.358a1.58 1.58 0 0 0-.001 1.336c.093.203.373.499 2.274 2.4s2.197 2.181 2.4 2.274a1.503 1.503 0 0 0 2.011-2.007c-.09-.195-.331-.456-1.652-1.782L6.144 12l1.547-1.553C9.012 9.121 9.253 8.86 9.343 8.665c.353-.772.058-1.628-.695-2.009-.198-.101-.279-.117-.608-.125-.246-.006-.431.01-.524.046m8 0c-.859.327-1.24 1.255-.859 2.088.09.195.331.456 1.652 1.782L17.856 12l-1.547 1.553c-1.321 1.326-1.562 1.587-1.652 1.782a1.503 1.503 0 0 0 2.011 2.007c.203-.093.499-.373 2.4-2.274s2.181-2.197 2.274-2.4a1.58 1.58 0 0 0 0-1.336c-.093-.204-.37-.495-2.274-2.394-2.489-2.483-2.374-2.392-3.028-2.407-.246-.006-.431.01-.524.046"/></svg>