<svg xmlns="http://www.w3.org/2000/svg" width="24" height="24" fill="none" stroke="currentColor" stroke-linecap="round" stroke-linejoin="round" stroke-width="3"><path fill="#000" fill-rule="evenodd" stroke="none" d="M11.516 2.577a2.3 2.3 0 0 0-.32.163c-.097.059-1.133 1.065-2.304 2.234-1.863 1.862-2.141 2.155-2.233 2.358a1.502 1.502 0 0 0 2.006 2.011c.195-.09.456-.331 1.782-1.652L12 6.144l1.553 1.547c1.326 1.321 1.587 1.562 1.782 1.652a1.503 1.503 0 0 0 2.007-2.011c-.093-.204-.37-.495-2.274-2.394-2.489-2.483-2.374-2.392-3.028-2.407-.246-.006-.431.01-.524.046m-9 8.002c-.365.134-.71.443-.864.773a1.5 1.5 0 0 0 1.158 2.13c.33.048 18.05.048 18.38 0a1.494 1.494 0 0 0 1.287-1.7 1.51 1.51 0 0 0-.829-1.126l-.228-.116-9.38-.007c-7.731-.006-9.405.002-9.524.046m5 3.998a1.52 1.52 0 0 0-.858 2.091c.093.203.373.499 2.274 2.4s2.197 2.181 2.4 2.274c.433.197.903.197 1.336 0 .203-.093.499-.373 2.4-2.274s2.181-2.197 2.274-2.4c.354-.776.06-1.63-.694-2.012-.208-.106-.264-.116-.648-.116-.675 0-.624-.037-2.45 1.777L12 17.856l-1.55-1.539c-1.801-1.789-1.777-1.771-2.41-1.786-.246-.006-.431.01-.524.046"/></svg>