<svg xmlns="http://www.w3.org/2000/svg" width="24" height="24" fill="none" stroke="currentColor" stroke-linecap="round" stroke-linejoin="round" stroke-width="3"><path fill="#000" fill-rule="evenodd" stroke="none" d="M1.516.577C.829.84.427 1.5.522 2.208c.016.117.012.743-.01 1.392C.456 5.308.491 8.382.571 8.721c.269 1.145 1.051 2.082 2.093 2.506.666.272.571.265 3.796.282l2.92.015.491.488.49.488-3.51.021c-3.498.021-3.512.021-3.804.111C1.748 13.031.8 14.078.552 15.388c-.074.389-.074 4.835 0 5.224.221 1.168 1.036 2.177 2.116 2.617.72.293-.058.271 9.492.271h8.58l.263-.095c.246-.089.27-.091.384-.032.329.171.921.155 1.292-.033.244-.123.538-.417.661-.661a1.6 1.6 0 0 0-.005-1.373c-.083-.167-2.027-2.13-10.269-10.369C1.635-.49 2.738.551 2.042.532c-.253-.007-.431.008-.526.045m5 .001c-.365.136-.71.444-.864.774a1.5 1.5 0 0 0 1.158 2.13c.141.021 3.129.037 6.824.037l6.574.001.136.136.136.136v2.199c0 2.165-.001 2.2-.083 2.304-.166.211-.068.204-3.037.225l-2.78.02-.228.116c-.93.471-1.133 1.673-.407 2.399.241.241.53.38.901.431.173.024 1.326.033 2.949.023 2.273-.014 2.705-.025 2.935-.08 1.523-.364 2.586-1.567 2.749-3.112.051-.49.051-4.144 0-4.634-.154-1.464-1.103-2.611-2.526-3.052L20.66.54l-7-.007C7.9.526 6.634.534 6.516.578M5.25 8.512c-1.335.014-1.421.005-1.598-.172l-.132-.132V5.66l1.42 1.42L6.36 8.5zm13.266 4.065c-1.049.399-1.349 1.701-.571 2.478.369.369.71.463 1.689.464l.574.001.131.131.13.13.019.76c.017.696.027.78.12 1.007.241.591.757.938 1.392.938s1.153-.349 1.39-.935c.084-.207.102-.331.119-.808.053-1.458-.228-2.358-.987-3.158a3.7 3.7 0 0 0-1.569-.951c-.261-.077-.403-.088-1.293-.099-.776-.01-1.032-.001-1.144.042M15.88 18.02l2.5 2.5H11.2c-4.774 0-7.229-.014-7.327-.041a.6.6 0 0 1-.25-.163l-.103-.122v-4.402l.136-.136.136-.136h9.588zM5.516 16.577c-1.049.399-1.349 1.701-.571 2.478.71.71 1.942.519 2.393-.371a1.48 1.48 0 0 0-.286-1.746c-.292-.292-.55-.395-1.012-.407-.247-.006-.431.01-.524.046"/></svg>