<svg xmlns="http://www.w3.org/2000/svg" width="24" height="24" fill="none" stroke="currentColor" stroke-linecap="round" stroke-linejoin="round" stroke-width="3"><path fill="#000" fill-rule="evenodd" stroke="none" d="M3.44.547A3.56 3.56 0 0 0 .552 3.388c-.074.389-.074 4.835 0 5.224.221 1.168 1.036 2.177 2.115 2.617.564.229.756.256 2.033.279 1.272.022 1.619-.006 1.949-.159.425-.198.764-.661.828-1.131a1.5 1.5 0 0 0-.829-1.562L6.42 8.54l-1.28-.02c-1.359-.021-1.379-.024-1.537-.225-.082-.104-.083-.139-.083-2.304V3.792l.136-.136.136-.136h16.416l.136.136.136.136v2.199c0 2.165-.001 2.2-.083 2.304-.158.201-.178.204-1.537.225l-1.28.02-.228.116c-.93.471-1.133 1.673-.407 2.399.242.242.53.38.906.433.432.061 2.537.015 2.879-.063a3.6 3.6 0 0 0 2.145-1.442 3.44 3.44 0 0 0 .604-1.666c.051-.49.051-4.144 0-4.634-.154-1.464-1.103-2.61-2.526-3.052L20.66.54 12.1.535C7.392.533 3.495.538 3.44.547m2.076 4.03c-1.049.399-1.349 1.701-.571 2.478.58.58 1.53.583 2.107.007a1.47 1.47 0 0 0 0-2.124c-.292-.292-.55-.395-1.012-.407-.247-.006-.431.01-.524.046m7.024-.003a1.7 1.7 0 0 0-.596.371c-.143.143-4.252 6.298-4.333 6.49-.222.531-.083 1.207.332 1.616.239.235.515.373.857.427.145.023.945.042 1.81.042.853 0 1.55.009 1.55.02s-.56.861-1.245 1.888-1.272 1.93-1.304 2.007c-.365.873.21 1.879 1.172 2.048.42.074.921-.084 1.233-.39.086-.084 1.105-1.576 2.264-3.315 2.278-3.416 2.216-3.309 2.207-3.84-.009-.549-.315-1.014-.847-1.286l-.22-.112-1.79-.012c-1.101-.007-1.79-.026-1.79-.049 0-.021.561-.88 1.246-1.909.686-1.028 1.272-1.932 1.304-2.007.149-.356.13-.841-.047-1.223-.118-.256-.404-.537-.695-.684-.194-.099-.281-.117-.588-.125-.213-.006-.425.012-.52.043m-9.1 7.973a3.56 3.56 0 0 0-2.888 2.841c-.074.389-.074 4.835 0 5.224.221 1.168 1.036 2.177 2.116 2.617.719.293-.04.271 9.332.271 7.775 0 8.442-.005 8.71-.068 1.537-.359 2.605-1.561 2.769-3.115.051-.49.051-4.144 0-4.634-.155-1.474-1.13-2.642-2.547-3.053-.3-.086-.373-.09-1.832-.09h-1.52l-.228.116a1.51 1.51 0 0 0-.829 1.126 1.494 1.494 0 0 0 1.287 1.7c.138.02.733.037 1.324.037l1.074.001.136.136.136.136v4.402l-.103.122a.6.6 0 0 1-.25.163c-.204.056-16.05.056-16.254 0a.6.6 0 0 1-.25-.163l-.103-.122v-4.402l.136-.136.136-.136 1.074-.001c.591 0 1.186-.017 1.324-.037a1.494 1.494 0 0 0 1.287-1.7 1.51 1.51 0 0 0-.829-1.126l-.228-.116-1.44-.005a37 37 0 0 0-1.54.012m2.076 4.03c-1.049.399-1.349 1.701-.571 2.478.71.71 1.942.519 2.393-.371a1.48 1.48 0 0 0-.286-1.746c-.292-.292-.55-.395-1.012-.407-.247-.006-.431.01-.524.046"/></svg>