<svg xmlns="http://www.w3.org/2000/svg" width="24" height="24" fill="none" stroke="currentColor" stroke-linecap="round" stroke-linejoin="round" stroke-width="3"><path fill="#000" fill-rule="evenodd" stroke="none" d="M3.44.547A3.56 3.56 0 0 0 .552 3.388c-.074.389-.074 4.835 0 5.224.221 1.168 1.036 2.177 2.116 2.617.502.205.826.261 1.512.264.531.001.626-.009.83-.089.429-.168.802-.55.92-.942.062-.209.062-.715 0-.924-.117-.391-.496-.78-.911-.935-.168-.063-.316-.083-.611-.083-.476 0-.653-.046-.785-.204l-.103-.122V3.792l.136-.136.136-.136h16.416l.136.136.136.136v4.402l-.103.122c-.132.158-.309.204-.785.204-.459 0-.728.083-1.022.316-.915.724-.684 2.135.42 2.568.204.08.299.09.83.089.686-.003 1.01-.059 1.512-.264 1.196-.488 2.008-1.589 2.147-2.912.051-.49.051-4.144 0-4.634-.154-1.464-1.103-2.61-2.526-3.052L20.66.54 12.1.535C7.392.533 3.495.538 3.44.547m2.076 4.03c-1.049.399-1.349 1.701-.571 2.478.58.58 1.53.583 2.107.007a1.47 1.47 0 0 0 0-2.124c-.292-.292-.55-.395-1.012-.407-.247-.006-.431.01-.524.046m4.549 2.267c-.242.057-.612.272-.77.447-.282.312-.439.807-.378 1.193l.034.213-.206.207-.205.208-.346.016c-.314.016-.37.031-.618.175-.894.517-1.038 1.723-.285 2.4.183.164.2.194.215.39.015.207.011.216-.144.34a1.505 1.505 0 0 0-.181 2.155c.311.356.863.563 1.314.493.193-.03.196-.028.4.166.203.193.205.198.207.444a1.526 1.526 0 0 0 1.516 1.509c.394 0 .851-.214 1.114-.521.13-.152.164-.17.358-.184.21-.016.218-.013.343.143.167.207.432.387.718.487.288.101.693.086 1.009-.038.601-.234 1.021-.948.923-1.568l-.032-.208.195-.206c.194-.203.199-.205.445-.208a1.4 1.4 0 0 0 .787-.226c.842-.506.959-1.719.231-2.374-.183-.164-.2-.194-.215-.39-.015-.207-.012-.215.147-.343.837-.673.69-2.019-.272-2.492-.245-.121-.301-.132-.671-.138l-.405-.005-.201-.185-.2-.185v-.27c0-.465-.228-.915-.602-1.186-.233-.169-.625-.303-.887-.303a1.62 1.62 0 0 0-1.169.561c-.119.148-.141.159-.334.159s-.215-.01-.338-.164c-.337-.419-.969-.635-1.497-.512m2.584 3.812c.301.152.558.427.696.744.099.225.114.311.114.64.001.34-.011.404-.115.608-.173.342-.408.554-.784.71-.394.162-.735.175-1.096.04-.376-.141-.614-.376-.803-.794-.105-.233-.119-.309-.12-.644-.001-.323.014-.41.097-.58.144-.293.452-.603.676-.68.102-.034.231-.09.286-.122.074-.044.195-.057.463-.047.303.01.399.031.586.125M3.44 12.548a3.56 3.56 0 0 0-2.888 2.84c-.074.389-.074 4.835 0 5.224.221 1.168 1.036 2.177 2.116 2.617.719.293-.04.271 9.332.271 7.775 0 8.442-.005 8.71-.068 1.537-.359 2.605-1.561 2.769-3.115.051-.49.051-4.144 0-4.634-.132-1.255-.824-2.255-1.946-2.817-.513-.257-.785-.314-1.593-.335-.667-.017-.737-.012-.95.068-1.308.493-1.309 2.312-.001 2.801.169.063.361.092.73.109.499.024.502.024.631.153l.13.13v4.402l-.103.122a.6.6 0 0 1-.25.163c-.204.056-16.05.056-16.254 0a.6.6 0 0 1-.25-.163l-.103-.122v-4.402l.13-.13c.129-.129.132-.129.631-.153.581-.027.849-.108 1.152-.348.222-.174.426-.462.497-.699.062-.209.062-.715 0-.924-.117-.391-.496-.78-.911-.935-.193-.072-.304-.082-.851-.078a10 10 0 0 0-.728.023m2.076 4.029c-1.049.399-1.349 1.701-.571 2.478.71.71 1.942.519 2.393-.371a1.48 1.48 0 0 0-.286-1.746c-.292-.292-.55-.395-1.012-.407-.247-.006-.431.01-.524.046"/></svg>