<svg xmlns="http://www.w3.org/2000/svg" width="24" height="24" fill="none" stroke="currentColor" stroke-linecap="round" stroke-linejoin="round" stroke-width="3"><path fill="#000" fill-rule="evenodd" stroke="none" d="M6.277 2.558c-1.471.269-2.667 1.161-3.316 2.474a5.2 5.2 0 0 0-.402 1.248c-.059.334-.059 1.106 0 1.44a4.53 4.53 0 0 0 3.637 3.706c.391.076 1.217.076 1.608 0a4.52 4.52 0 0 0 3.37-2.756l.062-.15 4.352-.001c2.394 0 4.464-.017 4.602-.037a1.494 1.494 0 0 0 1.287-1.7 1.51 1.51 0 0 0-.829-1.126l-.228-.116-4.583-.011-4.583-.01-.135-.31a4.2 4.2 0 0 0-.986-1.421 3.8 3.8 0 0 0-1.153-.81c-.678-.332-1.061-.423-1.86-.44-.363-.007-.742.002-.843.02m1.376 3.1c.272.138.573.445.709.722.085.174.098.255.098.62 0 .384-.01.44-.116.648a1.51 1.51 0 0 1-1.126.829 1.5 1.5 0 0 1-1.562-.829C5.55 7.44 5.54 7.384 5.54 7c0-.365.013-.446.098-.62.173-.352.515-.664.878-.803q.144-.055.526-.045c.329.009.413.026.611.126m8.624 6.9c-.637.116-1.465.462-1.917.8a4.67 4.67 0 0 0-1.482 1.851l-.138.31-4.08.01-4.08.011-.228.116a1.503 1.503 0 0 0 .115 2.75l.233.094 4.032.02 4.031.02.129.28c.813 1.777 2.573 2.818 4.492 2.656 2.466-.208 4.3-2.387 4.092-4.86a4.43 4.43 0 0 0-1.343-2.828 3.8 3.8 0 0 0-1.153-.81c-.678-.332-1.061-.423-1.86-.44-.363-.007-.742.002-.843.02m1.376 3.1c.272.138.573.445.709.722.085.174.098.255.098.62 0 .384-.01.44-.116.648a1.5 1.5 0 0 1-1.562.829 1.51 1.51 0 0 1-1.126-.829c-.106-.208-.116-.264-.116-.648 0-.365.013-.446.098-.62.173-.352.515-.664.878-.803q.144-.056.526-.045c.329.009.413.026.611.126"/></svg>