<svg xmlns="http://www.w3.org/2000/svg" width="24" height="24" fill="none" stroke="currentColor" stroke-linecap="round" stroke-linejoin="round" stroke-width="3"><path fill="#000" fill-rule="evenodd" stroke="none" d="M11.399 1.235a2.2 2.2 0 0 0-.97.605c-.185.199-.74 1.05-2.154 3.304A228 228 0 0 0 6.289 8.34a2 2 0 0 0-.212.962c.001 1.001.624 1.816 1.625 2.125.224.069.472.073 4.278.073 3.737 0 4.059-.005 4.295-.071a2.25 2.25 0 0 0 1.589-1.632c.092-.36.06-.887-.076-1.244-.062-.163-.858-1.484-2.035-3.378-1.625-2.615-1.974-3.152-2.193-3.373a2.14 2.14 0 0 0-.982-.581c-.319-.083-.898-.076-1.179.014m1.735 5.421c.608.977 1.106 1.796 1.106 1.82 0 .031-.658.044-2.263.044-1.245 0-2.258-.015-2.25-.034.033-.084 2.256-3.602 2.277-3.604.012-.001.521.797 1.13 1.774m-9.754 5.92c-.453.113-.95.421-1.279.793-.209.237-.465.739-.547 1.071-.079.322-.079 5.798 0 6.12.175.713.701 1.372 1.334 1.674.576.274.467.266 3.612.266 2.251 0 2.886-.011 3.06-.054.713-.175 1.372-.701 1.674-1.334.274-.576.266-.467.266-3.612s.008-3.036-.265-3.61c-.261-.548-.8-1.027-1.418-1.26l-.237-.09-3-.007c-2.288-.006-3.047.004-3.2.043m13.46-.032c-1.248.222-2.161.688-2.945 1.505a4.84 4.84 0 0 0-1.122 1.846 4.6 4.6 0 0 0-.258 1.605c0 .612.072 1.058.258 1.605a4.8 4.8 0 0 0 1.134 1.857 5.05 5.05 0 0 0 2.728 1.461c.445.08 1.285.08 1.73 0a6.2 6.2 0 0 0 1.355-.441c1.819-.914 2.927-2.876 2.757-4.879a4.3 4.3 0 0 0-.256-1.223 4.3 4.3 0 0 0-.575-1.16 5 5 0 0 0-2.288-1.851c-.647-.253-.972-.315-1.738-.33a10 10 0 0 0-.78.005M8.48 17.52v2H4.52v-4h3.96zm9.853-1.83c.427.203.774.55.977.977.149.312.15.315.15.833 0 .514-.002.523-.143.82-.36.752-1.007 1.168-1.817 1.168s-1.457-.416-1.817-1.168c-.141-.297-.143-.306-.143-.82 0-.518.001-.521.15-.833a2.13 2.13 0 0 1 1.25-1.093c.104-.034.322-.049.62-.043.439.009.474.016.773.159"/></svg>