<svg xmlns="http://www.w3.org/2000/svg" width="24" height="24" fill="none" stroke="currentColor" stroke-linecap="round" stroke-linejoin="round" stroke-width="3"><path fill="#000" fill-rule="evenodd" stroke="none" d="M11.729.524c-.458.077-.488.103-2.797 2.41-1.901 1.899-2.181 2.195-2.274 2.398-.509 1.114.36 2.308 1.56 2.145.441-.06.6-.171 1.461-1.02l.799-.787.011 4.815.011 4.815.105.248c.25.595.761.938 1.395.938s1.145-.343 1.395-.938l.105-.248.011-4.815.011-4.815.799.787c.861.849 1.02.96 1.461 1.02 1.2.163 2.069-1.031 1.56-2.145-.093-.203-.373-.499-2.274-2.398C12.731.599 12.736.603 12.234.522a3 3 0 0 0-.274-.037zM3.516 10.577c-.557.213-.919.67-1.001 1.263-.024.168-.033 1.913-.024 4.449.012 3.641.022 4.204.078 4.432.337 1.385 1.344 2.389 2.721 2.711.266.062.815.068 6.71.068s6.444-.006 6.71-.068c1.537-.359 2.605-1.561 2.769-3.115.05-.476.053-8.162.003-8.507a1.51 1.51 0 0 0-.834-1.154c-.208-.106-.264-.116-.648-.116s-.44.01-.648.116a1.51 1.51 0 0 0-.834 1.154c-.02.138-.037 2.08-.037 4.317l-.001 4.067-.103.122a.6.6 0 0 1-.25.163c-.204.056-12.05.056-12.254 0a.6.6 0 0 1-.25-.163l-.103-.122-.001-4.067c0-2.237-.017-4.179-.037-4.317a1.51 1.51 0 0 0-.832-1.153c-.195-.099-.28-.116-.608-.125-.253-.007-.431.008-.526.045"/></svg>