<svg xmlns="http://www.w3.org/2000/svg" width="24" height="24" fill="none" stroke="currentColor" stroke-linecap="round" stroke-linejoin="round" stroke-width="3"><path fill="#000" fill-rule="evenodd" stroke="none" d="M17.277.558c-1.471.269-2.667 1.161-3.316 2.474-.374.759-.517 1.613-.425 2.548l.027.28-2.323 1.353-2.323 1.353-.249-.186c-.347-.261-1.055-.598-1.528-.729-.37-.102-.455-.11-1.14-.11-.686 0-.769.008-1.138.11-1.3.362-2.315 1.196-2.901 2.381a5.2 5.2 0 0 0-.402 1.248c-.059.334-.059 1.106 0 1.44.361 2.054 2.013 3.583 4.057 3.756a4.54 4.54 0 0 0 3.09-.886l.206-.154 2.326 1.352 2.325 1.352-.027.28c-.039.397-.028 1.014.024 1.309.359 2.044 2.016 3.575 4.056 3.747a4.48 4.48 0 0 0 4.514-2.716 4.49 4.49 0 0 0-.555-4.483 5.8 5.8 0 0 0-.935-.919c-.322-.241-1.042-.58-1.5-.707-.37-.102-.455-.11-1.14-.11s-.77.008-1.14.11c-.472.131-1.18.468-1.526.727l-.246.184-2.326-1.351-2.325-1.351.027-.28c.033-.354.034-.8.001-1.16l-.026-.28 2.324-1.352 2.324-1.352.206.154a4.54 4.54 0 0 0 3.091.886c2.466-.208 4.3-2.387 4.092-4.86a4.43 4.43 0 0 0-1.343-2.828 3.8 3.8 0 0 0-1.153-.81c-.678-.332-1.061-.423-1.86-.44-.363-.007-.742.002-.843.02m1.376 3.1c.272.138.573.445.709.722.085.174.098.255.098.62 0 .384-.01.44-.116.648a1.51 1.51 0 0 1-1.126.829 1.5 1.5 0 0 1-1.562-.829c-.106-.208-.116-.264-.116-.648 0-.365.013-.446.098-.62.173-.352.515-.664.878-.803q.144-.055.526-.045c.329.009.413.026.611.126m-12 7c.272.138.573.445.709.722.085.174.098.255.098.62 0 .384-.01.44-.116.648a1.51 1.51 0 0 1-1.126.829 1.5 1.5 0 0 1-1.562-.829c-.106-.208-.116-.264-.116-.648 0-.365.013-.446.098-.62.173-.352.515-.664.878-.803q.144-.056.526-.045c.329.009.413.026.611.126m12 7c.272.138.573.445.709.722.085.174.098.255.098.62 0 .384-.01.44-.116.648a1.51 1.51 0 0 1-1.126.829 1.5 1.5 0 0 1-1.562-.829c-.106-.208-.116-.264-.116-.648 0-.365.013-.446.098-.62.173-.352.515-.664.878-.803q.144-.055.526-.045c.329.009.413.026.611.126"/></svg>