<svg xmlns="http://www.w3.org/2000/svg" width="24" height="24" fill="none" stroke="currentColor" stroke-linecap="round" stroke-linejoin="round" stroke-width="3"><path fill="#000" fill-rule="evenodd" stroke="none" d="M5.7 1.427c-.652.081-1.398.401-1.881.805-.777.651-1.91 2.526-2.502 4.143C.498 8.609.288 11.138.739 13.329a11.52 11.52 0 0 0 8.932 8.932c1.501.309 3.157.309 4.658 0a11.53 11.53 0 0 0 8.932-8.932c.323-1.567.307-3.258-.043-4.629a9.7 9.7 0 0 0-1.768-3.596c-.336-.429-1.262-1.334-1.69-1.654a9.6 9.6 0 0 0-4.3-1.837c-.626-.104-2.292-.104-2.92-.001a9.7 9.7 0 0 0-3.277 1.159l-.277.161-.096-.116c-.504-.607-1.052-1.003-1.689-1.223-.425-.146-1.08-.219-1.501-.166m.596 3.034a.48.48 0 0 1 .264.449c0 .128-.043.217-.227.474-1.308 1.819-1.969 4.068-1.81 6.156a7.51 7.51 0 0 0 6.947 6.938c4.078.31 7.695-2.815 8.005-6.919a5.65 5.65 0 0 0-.257-2.266c-.928-2.835-3.909-4.389-6.808-3.549a5.9 5.9 0 0 0-1.262.562 5.5 5.5 0 0 0-2.635 4.633c-.003.772.174 1.387.569 1.978a3.56 3.56 0 0 0 2.208 1.509 4.3 4.3 0 0 0 1.42 0 3.515 3.515 0 0 0 2.764-3.073c.019-.186.021-.44.004-.564a1.51 1.51 0 0 0-.83-1.133c-.208-.106-.264-.116-.648-.116s-.44.01-.648.116c-.294.149-.577.428-.699.692a2.4 2.4 0 0 0-.147.549c-.038.259-.073.365-.145.442a.495.495 0 0 1-.743-.029c-.104-.124-.107-.14-.088-.509.032-.626.245-1.093.712-1.559.287-.287.576-.475.941-.612.205-.076.316-.088.817-.088s.612.012.817.088a2.67 2.67 0 0 1 1.553 1.553c.08.211.09.31.089.897-.001.596-.012.699-.111 1.058-.356 1.287-1.195 2.314-2.358 2.89-1.614.798-3.581.549-4.92-.623a5.3 5.3 0 0 1-.809-.905 5.5 5.5 0 0 1-.604-1.34c-.129-.472-.176-1.395-.099-1.972.387-2.92 2.586-5.163 5.502-5.611.751-.116 1.797-.059 2.569.14a6.49 6.49 0 0 1 4.654 4.654c.14.542.196 1.015.196 1.657.003 2.287-.862 4.362-2.497 5.992-1.312 1.308-2.942 2.123-4.802 2.402-.591.088-1.769.088-2.36 0-1.86-.279-3.49-1.094-4.802-2.402-1.284-1.28-2.068-2.783-2.4-4.6-.09-.493-.123-1.864-.059-2.46.199-1.856.799-3.46 1.876-5.013.165-.238.346-.458.403-.488a.5.5 0 0 1 .458.002"/></svg>