<svg xmlns="http://www.w3.org/2000/svg" width="24" height="24" fill="none" stroke="currentColor" stroke-linecap="round" stroke-linejoin="round" stroke-width="3"><path fill="#000" fill-rule="evenodd" stroke="none" d="M11.34.585c-.383.092-.776.313-1.265.708-.814.66-1.382 1.02-2.295 1.455-.983.467-1.826.703-2.7.753-.554.032-.723.066-1.14.224-.654.249-.874.454-1.142 1.064-.315.719-.292.381-.308 4.431-.016 3.817.008 4.697.149 5.562q.958 5.865 8.316 8.496c.993.355 1.329.322 2.865-.284.33-.131.96-.416 1.4-.634 3.776-1.871 5.819-4.556 6.227-8.185.078-.697.077-8.416-.001-8.735a2.57 2.57 0 0 0-.658-1.17c-.546-.546-.898-.69-1.884-.77-.992-.081-1.588-.244-2.63-.721-.841-.385-1.532-.822-2.354-1.49-.496-.403-.871-.61-1.281-.707-.323-.076-.978-.075-1.299.003m.989 3.28a16 16 0 0 0 1.891 1.244c1.334.719 2.681 1.181 3.89 1.335l.37.046v3.568c0 2.923-.011 3.646-.059 4.005-.059.433-.194 1.058-.251 1.157-.021.035-1.687-1.386-5.31-4.526C9.956 8.177 7.574 6.1 7.567 6.079s.016-.039.052-.039c.134 0 1.222-.459 1.874-.79.692-.351 1.768-1.04 2.227-1.426.143-.12.264-.219.269-.221s.158.116.34.262m-1.15 9.335c2.935 2.541 5.337 4.639 5.338 4.662.007.103-.984.876-1.635 1.276-.649.399-1.735.917-2.557 1.22l-.309.114-.498-.191c-1.568-.604-2.745-1.27-3.701-2.095q-1.613-1.391-2.1-3.366c-.181-.736-.197-1.043-.197-3.853V8.31l.162.135c.089.074 2.562 2.214 5.497 4.755"/></svg>