<svg xmlns="http://www.w3.org/2000/svg" width="24" height="24" fill="none" stroke="currentColor" stroke-linecap="round" stroke-linejoin="round" stroke-width="3"><path fill="#000" fill-rule="evenodd" stroke="none" d="M1.516.577C.658.905.276 1.832.656 2.662c.083.183.286.41 1.098 1.231L2.749 4.9l-.06.14c-.19.445-.184.318-.199 4.18-.016 3.817.008 4.697.149 5.562.639 3.911 3.405 6.737 8.317 8.497.994.356 1.329.322 2.864-.287 1.577-.625 3.197-1.558 4.212-2.424l.211-.18 1.432 1.425c1.215 1.21 1.467 1.442 1.66 1.53a1.503 1.503 0 0 0 2.007-2.011c-.095-.21-1.076-1.202-10.274-10.395C1.635-.49 2.738.551 2.042.532c-.253-.007-.431.008-.526.045m9.824.008c-.372.09-.768.307-1.202.661-.466.38-.894.686-1.407 1.008-.61.383-.865.751-.918 1.323-.035.394.167.884.493 1.19.278.261.799.424 1.196.375.376-.048 1.236-.551 2.108-1.234l.39-.306.33.264c.445.356 1.352.953 1.89 1.243 1.334.719 2.681 1.181 3.89 1.335l.37.046-.003 3.585c-.001 1.972-.017 3.745-.034 3.94s-.016.432.001.526c.083.444.405.86.828 1.068.244.12.297.131.648.131.35 0 .403-.011.648-.131.302-.149.587-.435.71-.714.214-.483.251-1.399.232-5.755-.016-3.953.001-3.698-.292-4.292-.169-.342-.596-.795-.942-.998-.386-.228-.631-.29-1.372-.35-.992-.081-1.588-.244-2.63-.721-.841-.385-1.532-.822-2.354-1.49-.496-.403-.871-.61-1.281-.707-.323-.076-.978-.075-1.299.003M16.068 18.3l-.293.227c-.81.628-2.034 1.283-3.315 1.774l-.44.169-.32-.118c-1.552-.569-2.911-1.328-3.883-2.166q-1.613-1.391-2.1-3.366c-.184-.748-.197-1.02-.197-4.177V7.66l5.3 5.3c4.008 4.007 5.288 5.31 5.248 5.34"/></svg>