<svg xmlns="http://www.w3.org/2000/svg" width="24" height="24" fill="none" stroke="currentColor" stroke-linecap="round" stroke-linejoin="round" stroke-width="3"><path fill="#000" fill-rule="evenodd" stroke="none" d="M11.34.585c-.383.092-.776.313-1.265.708-.814.66-1.383 1.021-2.295 1.454-1.008.479-1.683.668-2.684.751-.741.062-.988.125-1.372.352-.354.208-.768.646-.939.992-.297.602-.279.332-.295 4.378-.016 3.817.008 4.697.149 5.562q.958 5.865 8.316 8.496c.993.355 1.329.322 2.865-.284.33-.131.96-.416 1.4-.634 3.776-1.871 5.819-4.556 6.227-8.185.078-.697.077-8.416-.001-8.735a2.57 2.57 0 0 0-.658-1.17c-.546-.546-.898-.69-1.884-.77-.992-.081-1.588-.244-2.63-.721-.841-.385-1.532-.822-2.354-1.49-.496-.403-.871-.61-1.281-.707-.323-.076-.978-.075-1.299.003m.989 3.28a16 16 0 0 0 1.891 1.244c1.334.719 2.681 1.181 3.89 1.335l.37.046v3.568c0 3.786-.009 3.998-.197 4.762-.505 2.049-1.912 3.619-4.321 4.821-.577.288-1.132.531-1.637.717l-.309.114-.498-.191c-1.568-.604-2.745-1.27-3.701-2.095q-1.613-1.391-2.1-3.366c-.188-.764-.197-.976-.197-4.764V6.488l.25-.027c.736-.08 1.71-.337 2.571-.679 1.088-.433 2.621-1.321 3.379-1.958.143-.12.264-.219.269-.221s.158.116.34.262m2.187 4.712c-.317.12-.553.33-2.004 1.775l-1.508 1.502-.553-.537c-.723-.702-.863-.777-1.451-.777-.384 0-.44.01-.648.116-.754.381-1.048 1.237-.694 2.012.09.195.286.411 1.275 1.399.988.989 1.204 1.185 1.399 1.275.432.197.903.197 1.336 0 .203-.093.499-.373 2.4-2.274s2.181-2.197 2.274-2.4c.354-.776.06-1.63-.694-2.012-.198-.101-.279-.117-.608-.125-.246-.006-.431.01-.524.046"/></svg>