<svg xmlns="http://www.w3.org/2000/svg" width="24" height="24" fill="none" stroke="currentColor" stroke-linecap="round" stroke-linejoin="round" stroke-width="3"><path fill="#000" fill-rule="evenodd" stroke="none" d="M11.644.525c-.585.087-.957.271-1.597.791A10 10 0 0 1 7.78 2.747c-1.008.479-1.683.668-2.684.751-.741.062-.988.125-1.372.352-.354.208-.768.646-.939.992-.297.602-.279.332-.295 4.378-.016 3.817.008 4.697.149 5.562.596 3.648 3.063 6.373 7.356 8.126 1.329.542 1.762.651 2.299.576.551-.077 1.721-.526 2.926-1.124 3.776-1.871 5.819-4.556 6.227-8.185.078-.697.077-8.416-.001-8.735a2.57 2.57 0 0 0-.658-1.17c-.546-.546-.898-.69-1.884-.77-.992-.081-1.588-.244-2.63-.721-.841-.385-1.532-.822-2.354-1.49-.253-.206-.586-.435-.741-.51C12.71.552 12.12.455 11.644.525M10.48 12.28c0 4.158-.012 7.56-.026 7.56a10 10 0 0 1-.61-.304c-2.296-1.194-3.637-2.727-4.127-4.716-.188-.764-.197-.976-.197-4.764V6.488l.25-.027c.736-.08 1.71-.337 2.571-.679.51-.203 1.705-.794 1.939-.959a.8.8 0 0 1 .17-.101c.017-.001.03 3.4.03 7.558m3.78-7.151c1.271.691 2.653 1.163 3.85 1.315l.37.046v3.568c0 3.786-.009 3.998-.197 4.762-.436 1.768-1.55 3.184-3.397 4.316-.345.211-1.283.704-1.341.704-.014 0-.025-3.404-.025-7.564V4.712l.17.1c.094.054.35.197.57.317"/></svg>