<svg xmlns="http://www.w3.org/2000/svg" width="24" height="24" fill="none" stroke="currentColor" stroke-linecap="round" stroke-linejoin="round" stroke-width="3"><path fill="#000" fill-rule="evenodd" stroke="none" d="M11.516.577c-.371.142-.711.446-.864.773-.111.239-.17.579-.171.995l-.001.286-.19.027c-.36.051-1.259.304-1.724.487a10.7 10.7 0 0 0-1.748.898l-.377.245-.283-.259a3 3 0 0 0-.511-.374C5.44 3.55 5.383 3.54 5 3.54c-.384 0-.44.01-.648.116a1.5 1.5 0 0 0-.829 1.562c.044.323.195.606.495.932l.268.289-.226.343a9.9 9.9 0 0 0-1.372 3.338l-.076.38-.516.02c-.468.018-.537.031-.744.136-.93.471-1.133 1.673-.407 2.399.329.33.727.462 1.395.464l.28.001.072.37c.214 1.103.731 2.361 1.368 3.328l.226.343-.268.289c-.3.326-.451.609-.495.932a1.493 1.493 0 0 0 1.695 1.695c.323-.044.606-.195.932-.496l.291-.268.349.23a9.8 9.8 0 0 0 3.314 1.365l.365.071.023.47c.034.667.163.963.579 1.326.473.413 1.385.413 1.858 0 .416-.363.545-.659.579-1.327l.023-.469.365-.071c1.075-.209 2.39-.75 3.314-1.363l.349-.232.291.268c.326.301.609.452.932.496a1.493 1.493 0 0 0 1.695-1.695c-.044-.323-.195-.606-.496-.932l-.268-.291.232-.349c.615-.926 1.155-2.242 1.364-3.32l.071-.37.28-.001c.667-.002 1.066-.134 1.395-.464.726-.726.522-1.929-.407-2.399-.207-.105-.276-.118-.743-.136l-.516-.02-.092-.44c-.239-1.137-.74-2.348-1.352-3.27l-.232-.349.268-.291c.301-.326.452-.609.496-.932a1.5 1.5 0 0 0-.829-1.562c-.208-.106-.264-.116-.648-.116-.383 0-.44.01-.647.115a3 3 0 0 0-.511.374l-.283.259-.39-.254a10.8 10.8 0 0 0-1.889-.946c-.479-.175-1.243-.384-1.57-.43l-.19-.027-.001-.286c-.002-.873-.264-1.382-.869-1.688-.195-.099-.28-.116-.608-.125q-.382-.01-.526.045M10.471 7.66l-.011.661-.932-.933-.933-.933.433-.224c.377-.195 1.115-.478 1.352-.518.077-.014.08.011.091.636.006.358.006.948 0 1.311m3.86-1.722c.273.103.726.32.946.454l.119.073-.938.937-.938.937V5.685l.27.075c.148.042.392.121.541.178m-6.036 4.549c-.011.018-.604.033-1.318.033H5.678l.025-.11c.075-.329.332-1.003.528-1.382l.224-.433.93.93c.512.511.921.945.91.962m9.541-1.336c.141.281.399.986.461 1.259l.025.11h-1.295c-.711 0-1.306-.013-1.322-.028-.015-.016.39-.447.901-.958l.929-.93.073.119c.04.066.142.259.228.428m-5.526 1.91c.378.112.69.537.69.94 0 .33-.216.695-.516.871-.156.091-.23.108-.484.108s-.328-.017-.484-.108c-.581-.342-.683-1.098-.212-1.569q.417-.418 1.006-.242m-4.908 3.397-.937.938-.073-.119a6.6 6.6 0 0 1-.632-1.487l-.075-.27h2.654zm10.838-.668a6.6 6.6 0 0 1-.632 1.487l-.073.119-.937-.938-.937-.938h2.654zm-7.775 4.518c-.039.039-1.049-.337-1.439-.537l-.434-.222.934-.935.934-.935.011 1.307c.005.718.003 1.313-.006 1.322m4.884-.738c-.201.137-.905.455-1.305.589a13 13 0 0 1-.503.161c-.012 0-.021-.598-.021-1.33v-1.329l.939.938c.646.646.923.948.89.971"/></svg>