<svg xmlns="http://www.w3.org/2000/svg" width="24" height="24" fill="none" stroke="currentColor" stroke-linecap="round" stroke-linejoin="round" stroke-width="3"><path fill="#000" fill-rule="evenodd" stroke="none" d="M11.516.577c-.371.142-.711.446-.864.773-.135.289-.17.587-.171 1.438l-.001.728-2.07.014c-2.007.013-2.079.016-2.363.103-1.259.383-2.167 1.353-2.478 2.646-.053.22-.065.697-.078 3.066l-.016 2.805-.568.251a9 9 0 0 0-.709.341 1.8 1.8 0 0 0-.602.73c-.079.204-.088.295-.082.866a13.2 13.2 0 0 0 1.122 5.075c.068.151.101.264.074.253-.446-.187-.98-.192-1.357-.011-.303.144-.637.506-.753.814-.126.334-.103.862.053 1.18.167.342.694.805 1.387 1.219.714.427 1.509.624 2.5.618a4.9 4.9 0 0 0 1.588-.249c.507-.162.95-.42 1.732-1.008.838-.63.947-.68 1.547-.702.636-.023.886.053 1.353.412l.673.516c.966.74 1.85 1.035 3.087 1.033a4.8 4.8 0 0 0 1.922-.369c.403-.166.689-.346 1.418-.892.839-.629.948-.678 1.547-.7.656-.024.88.049 1.413.456.459.351.646.446.981.5.285.046.683-.031.939-.181.222-.13.527-.465.633-.693.072-.156.087-.262.087-.609 0-.379-.011-.442-.112-.648a1.8 1.8 0 0 0-.399-.494c-.297-.275-.99-.76-1.222-.856-.158-.064-.163-.017.093-.762a12.6 12.6 0 0 0 .656-3.525c.047-1.023-.017-1.322-.362-1.698-.227-.246-.343-.316-1.024-.617l-.57-.252-.001-2.544c0-1.399-.018-2.714-.04-2.921-.154-1.465-1.11-2.619-2.526-3.05-.284-.087-.356-.09-2.363-.103l-2.07-.014-.001-.728c0-.4-.017-.84-.037-.978A1.51 1.51 0 0 0 12.65.657c-.195-.099-.28-.116-.608-.125q-.382-.01-.526.045m5.828 6.079.136.136v2.005c0 1.897-.004 2.004-.07 1.97-.038-.02-1.172-.526-2.52-1.124q-2.449-1.087-2.67-1.123a1.5 1.5 0 0 0-.44 0q-.221.037-2.67 1.123a403 403 0 0 0-2.52 1.124c-.066.034-.07-.073-.07-1.97V6.792l.136-.136.136-.136h10.416zm-6.737 7.892c.244.592.758.938 1.393.938s1.149-.346 1.393-.938c.097-.236.103-.294.125-1.234l.022-.985 2.94 1.306 2.94 1.307.013.133c.007.073-.017.324-.053.559a10.4 10.4 0 0 1-.761 2.566l-.174.38-.232.072c-.812.251-1.201.462-2.107 1.144-.333.251-.698.499-.81.551-.514.236-1.403.181-1.829-.113-.07-.049-.325-.244-.567-.435-.779-.613-1.151-.831-1.771-1.038-.506-.168-.99-.241-1.609-.241-1.21 0-2.016.261-3.01.974l-.309.222-.203-.342a13 13 0 0 1-.802-1.624c-.317-.795-.586-1.919-.607-2.533l-.009-.273 2.94-1.307 2.94-1.308.022.985c.022.94.028.998.125 1.234"/></svg>