<svg xmlns="http://www.w3.org/2000/svg" width="24" height="24" fill="none" stroke="currentColor" stroke-linecap="round" stroke-linejoin="round" stroke-width="3"><path fill="#000" fill-rule="evenodd" stroke="none" d="M5.32 1.312c-1.309.438-2.506.86-2.66.938a3.45 3.45 0 0 0-1.9 3.087c0 .48.591 4.09.74 4.518.172.497.54.952 1.019 1.262.42.27.947.399 1.651.402l.31.001.001 4.21c0 2.501.017 4.363.04 4.587.153 1.456 1.118 2.627 2.504 3.039.529.157.929.169 5.275.153 4.605-.016 4.348-.001 5.036-.282a3.6 3.6 0 0 0 1.575-1.293 3.5 3.5 0 0 0 .568-1.617c.023-.224.04-2.084.04-4.581l.001-4.204.531-.024c.409-.018.605-.047.853-.125.746-.236 1.385-.859 1.611-1.57.047-.15.23-1.132.406-2.181.346-2.067.375-2.405.257-2.973a3.5 3.5 0 0 0-1.898-2.436c-.163-.079-1.357-.495-2.652-.927L16.273.512l-.347.015c-.281.012-.387.035-.563.125-.582.299-.817.694-.881 1.485-.06.73-.251 1.151-.752 1.651a2.5 2.5 0 0 1-1.163.653 3.4 3.4 0 0 1-1.134-.001 2.6 2.6 0 0 1-1.451-.975c-.329-.461-.402-.693-.497-1.571-.062-.573-.341-.988-.834-1.237-.188-.095-.286-.116-.588-.128L7.7.516zm1.767 3.122a5.4 5.4 0 0 0 2.388 2.441 5.5 5.5 0 0 0 6.958-1.629c.2-.27.617-1.017.69-1.236.012-.036.415.082 1.377.403.748.25 1.418.484 1.489.521a.49.49 0 0 1 .251.406c0 .092-.449 2.865-.5 3.088-.021.088-.025.088-1.09.1l-1.07.012-.228.116a1.51 1.51 0 0 0-.834 1.154c-.02.138-.037 2.519-.037 5.317l-.001 5.067-.103.122a.6.6 0 0 1-.25.163c-.202.056-8.052.056-8.254 0a.6.6 0 0 1-.25-.163l-.103-.122-.001-5.067c0-2.798-.017-5.179-.037-5.317a1.51 1.51 0 0 0-.834-1.154L6.42 8.54l-1.07-.012c-1.063-.013-1.07-.013-1.09-.1-.051-.224-.5-2.996-.5-3.088 0-.158.107-.331.251-.406.105-.054 2.762-.965 2.829-.969.011-.001.122.21.247.469"/></svg>