<svg xmlns="http://www.w3.org/2000/svg" width="24" height="24" fill="none" stroke="currentColor" stroke-linecap="round" stroke-linejoin="round" stroke-width="3"><path fill="#000" fill-rule="evenodd" stroke="none" d="M8.491 2.598c-.254.091-.386.182-.595.409-.094.103-.898 1.466-1.973 3.348L4.108 9.53l-.264-.021a22 22 0 0 0-1.264.005l-1 .026-.228.116c-.93.471-1.133 1.673-.407 2.399.26.261.54.385.989.441l.362.044.687 3.178c.378 1.749.719 3.279.757 3.4.333 1.062 1.315 1.968 2.48 2.292l.32.088 5.18.013c3.469.009 5.311-.001 5.575-.029 1.281-.138 2.416-.985 2.884-2.151.062-.152.438-1.7.858-3.531l.749-3.26.326-.047c.413-.059.695-.19.943-.438.726-.726.523-1.928-.407-2.399-.227-.115-.233-.116-1.168-.141a21 21 0 0 0-1.264-.004l-.324.02-1.814-3.175c-1.361-2.382-1.863-3.228-2.012-3.386-.284-.302-.555-.421-1.006-.441-.473-.022-.726.069-1.06.377-.482.447-.625 1.082-.376 1.678.034.08.672 1.215 1.419 2.521A224 224 0 0 1 16.4 9.497c0 .011-1.98.019-4.4.019s-4.4-.008-4.4-.019.611-1.086 1.357-2.392c.747-1.306 1.385-2.441 1.419-2.521.251-.601.105-1.239-.385-1.682-.313-.284-.568-.382-.983-.381a1.6 1.6 0 0 0-.517.077M7.728 13.14c.037.33.069.658.07.73L7.8 14H6.74c-.583 0-1.06-.008-1.06-.017 0-.029-.282-1.318-.305-1.394-.02-.066.046-.07 1.132-.06l1.153.011zm5.574-.45a44 44 0 0 0-.142 1.26c0 .039-.259.05-1.16.05s-1.16-.011-1.16-.05a44 44 0 0 0-.142-1.26l-.023-.17h2.65zm5.24.56-.166.73-1.088.011-1.088.01v-.09a23 23 0 0 1 .142-1.341c.012-.039.285-.05 1.191-.05h1.175zm-10.381 3.8c0 .028.036.356.079.73s.079.695.079.713c.001.055-1.365.012-1.479-.047-.178-.091-.242-.235-.376-.846l-.132-.6h.914c.704 0 .914.011.915.05m4.639.05c0 .121-.116 1.204-.143 1.33-.018.089-.027.09-.657.09s-.639-.001-.657-.09a23 23 0 0 1-.143-1.33V17h1.6zm4.866-.03a34 34 0 0 0-.145.61c-.187.807-.194.813-1.151.833-.38.008-.69 0-.689-.019 0-.019.036-.34.079-.714s.079-.702.079-.73c.001-.039.213-.05.924-.05.859 0 .921.005.903.07"/></svg>