<svg xmlns="http://www.w3.org/2000/svg" width="24" height="24" fill="none" stroke="currentColor" stroke-linecap="round" stroke-linejoin="round" stroke-width="3"><path fill="#000" fill-rule="evenodd" stroke="none" d="M1.572.633C.67.95.273 2.037.771 2.826c.338.534.787.734 1.652.734.39 0 .409.004.431.09.012.05.563 2.616 1.225 5.704s1.248 5.741 1.302 5.896c.364 1.043 1.304 1.897 2.419 2.198l.34.092h10.92l.36-.113c.628-.196 1.103-.475 1.538-.905.403-.399.709-.897.86-1.402.1-.336 1.737-7.723 1.765-7.967.067-.57-.292-1.172-.863-1.448l-.26-.125-8.062-.01-8.062-.011-.413-1.929c-.227-1.062-.447-2.024-.49-2.14-.111-.297-.418-.618-.745-.779L4.422.58 3.101.57C1.91.562 1.76.568 1.572.633M20.2 8.6c0 .023-.279 1.296-.62 2.83-.407 1.834-.645 2.824-.693 2.89a.7.7 0 0 1-.21.17c-.129.066-.436.07-5.157.06-4.601-.009-5.028-.016-5.114-.076a.8.8 0 0 1-.15-.148C8.208 14.258 7.001 8.762 7 8.61c0-.04 1.347-.05 6.6-.05 4.418 0 6.6.013 6.6.04M7.38 18.574a2.73 2.73 0 0 0-1.279.795c-.212.24-.469.746-.543 1.071a3 3 0 0 0-.051.56c0 .433.062.697.259 1.112.223.467.655.899 1.122 1.122.417.198.666.256 1.112.256s.695-.058 1.112-.256a2.5 2.5 0 0 0 1.122-1.122c.198-.417.256-.666.256-1.112s-.058-.695-.255-1.11c-.262-.55-.811-1.037-1.418-1.257-.295-.107-1.12-.141-1.437-.059m11 0a2.73 2.73 0 0 0-1.279.795c-.21.239-.469.746-.542 1.064a3 3 0 0 0-.049.567c0 .446.058.695.256 1.112.223.467.655.899 1.122 1.122.417.198.666.256 1.112.256s.695-.058 1.112-.256a2.5 2.5 0 0 0 1.122-1.122c.198-.417.256-.666.256-1.112s-.058-.695-.255-1.11c-.262-.55-.811-1.037-1.418-1.257-.295-.107-1.12-.141-1.437-.059M8.344 20.656c.119.119.136.162.136.337 0 .157-.022.227-.103.323a.5.5 0 0 1-.514.16c-.214-.059-.343-.241-.343-.483 0-.175.017-.218.136-.337s.161-.136.344-.136.224.016.344.136m11 0c.119.119.136.162.136.337 0 .242-.129.424-.343.483a.5.5 0 0 1-.514-.16c-.081-.096-.103-.166-.103-.323 0-.175.017-.218.136-.337s.161-.136.344-.136.224.016.344.136"/></svg>