<svg xmlns="http://www.w3.org/2000/svg" width="24" height="24" fill="none" stroke="currentColor" stroke-linecap="round" stroke-linejoin="round" stroke-width="3"><path fill="#000" fill-rule="evenodd" stroke="none" d="M5.491.598c-.249.09-.374.176-.596.409-.224.235-3.148 4.143-3.251 4.345a1.8 1.8 0 0 0-.124.435c-.029.186-.039 2.557-.03 7.473.012 6.453.02 7.227.078 7.461.342 1.39 1.345 2.389 2.722 2.711.267.063.875.068 7.71.068s7.443-.005 7.71-.068a3.7 3.7 0 0 0 1.798-1.004c.573-.6.883-1.272.971-2.111.055-.526.055-14.21-.001-14.552a1.7 1.7 0 0 0-.123-.414c-.113-.223-3.15-4.258-3.34-4.438a2 2 0 0 0-.375-.26L18.42.54 12.06.531C5.912.523 5.693.525 5.491.598m12.102 3.364c.182.244.341.469.353.5.02.05-.768.058-5.946.058s-5.966-.008-5.946-.058c.012-.031.171-.256.353-.5l.332-.442h10.522zm1.887 9.895v6.337l-.103.122a.6.6 0 0 1-.25.163c-.204.056-14.05.056-14.254 0a.6.6 0 0 1-.25-.163l-.103-.122V7.52h14.96zM7.516 8.577c-.419.16-.769.5-.916.89-.071.187-.088.313-.086.64.012 1.971 1.182 3.855 2.961 4.768a5.49 5.49 0 0 0 6.407-.993c1.005-1.005 1.595-2.393 1.604-3.775.002-.327-.015-.453-.086-.64q-.2-.528-.76-.815c-.2-.102-.259-.112-.64-.112-.384 0-.44.01-.648.116q-.744.377-.837 1.238c-.095.878-.168 1.11-.497 1.571a2.6 2.6 0 0 1-1.451.975c-.274.064-.86.064-1.134 0a2.6 2.6 0 0 1-1.451-.975c-.329-.461-.402-.693-.497-1.571q-.093-.861-.835-1.237c-.195-.099-.28-.116-.608-.125q-.382-.01-.526.045"/></svg>