<svg xmlns="http://www.w3.org/2000/svg" width="24" height="24" fill="none" stroke="currentColor" stroke-linecap="round" stroke-linejoin="round" stroke-width="3"><path fill="#000" fill-rule="evenodd" stroke="none" d="M16.514.577c-.327.126-.617.362-1.116.912-.587.645-.912 1.175-1.161 1.892-.199.575-.257.941-.257 1.619 0 .82.109 1.338.431 2.053l.123.272-2.515 2.516-2.515 2.516-.802-.789C7.707 10.59 7.624 10.54 7 10.54c-.705 0-.491-.174-3.562 2.898C.524 16.351.606 16.256.519 16.824c-.029.189-.039 1.157-.031 2.88L.5 22.3l.105.248q.25.597.847.847l.248.105 2.596.012c1.723.008 2.691-.002 2.88-.031.567-.087.473-.006 3.392-2.919 2.36-2.355 2.68-2.689 2.774-2.894.196-.43.197-.904.004-1.327-.081-.176-.269-.391-.902-1.033l-.801-.812 2.516-2.515 2.516-2.515.272.123c.713.321 1.231.43 2.053.43.679 0 1.048-.058 1.619-.256.71-.247 1.24-.57 1.876-1.145.787-.711.991-1.045.991-1.618 0-.412-.111-.695-.406-1.034-.127-.146-1.345-1.374-2.706-2.728C17.545.423 17.701.55 17.042.532q-.383-.01-.528.045m3.077 6.375c-.292.09-.741.103-1.047.031a1.9 1.9 0 0 1-1-.585c-.524-.555-.691-1.22-.499-1.982l.047-.184 1.334 1.334L19.761 6.9zM8.44 15.58 9.86 17 8.1 18.76l-1.76 1.76H3.52v-2.9l1.73-1.73c.951-.951 1.739-1.73 1.75-1.73s.659.639 1.44 1.42"/></svg>