<svg xmlns="http://www.w3.org/2000/svg" width="24" height="24" fill="none" stroke="currentColor" stroke-linecap="round" stroke-linejoin="round" stroke-width="3"><path fill="#000" fill-rule="evenodd" stroke="none" d="M3.516 2.577c-.856.326-1.24 1.255-.861 2.083.082.18.275.398.983 1.114l.881.891-.213.426c-.497.99-.704 1.858-.705 2.955a6.1 6.1 0 0 0 .303 1.961c.141.438.505 1.249.581 1.296.021.013-.137.206-.35.43-.422.442-.562.684-.612 1.049-.163 1.2 1.03 2.068 2.145 1.56.208-.095.764-.638 5.4-5.274s5.179-5.192 5.274-5.4c.354-.777.06-1.63-.694-2.012-.208-.106-.264-.116-.648-.116-.387 0-.438.009-.656.12-.143.072-.39.265-.624.488-.227.216-.403.354-.424.333-.075-.073-.77-.397-1.108-.516a6.2 6.2 0 0 0-2.138-.364c-1.074-.002-1.96.21-2.946.702l-.436.218-.884-.871C4.72 2.602 4.631 2.545 4.04 2.531c-.246-.006-.431.01-.524.046m7.354 4.104c.116.029.21.063.21.076 0 .039-4.316 4.341-4.335 4.321-.01-.01-.049-.17-.087-.355-.09-.447-.063-1.214.059-1.636.368-1.273 1.415-2.206 2.763-2.461.191-.037 1.181.003 1.39.055m4.646 1.896c-1.046.4-1.349 1.703-.578 2.475a1.47 1.47 0 0 0 2.124 0c.719-.719.511-1.928-.412-2.395-.195-.099-.28-.116-.608-.125q-.381-.01-.526.045m4 1c-1.046.4-1.349 1.703-.578 2.475a1.47 1.47 0 0 0 2.124 0c.719-.719.511-1.928-.412-2.395-.195-.099-.28-.116-.608-.125-.253-.007-.431.008-.526.045m-7 2c-1.046.4-1.349 1.703-.578 2.475a1.47 1.47 0 0 0 2.124 0c.719-.719.511-1.928-.412-2.395-.195-.099-.28-.116-.608-.125q-.382-.01-.526.045m4 1c-1.046.4-1.349 1.703-.578 2.475a1.47 1.47 0 0 0 2.124 0c.719-.719.511-1.928-.412-2.395-.195-.099-.28-.116-.608-.125-.253-.007-.431.008-.526.045m-7 2c-1.046.4-1.349 1.703-.578 2.475a1.47 1.47 0 0 0 2.124 0c.719-.719.511-1.928-.412-2.395-.195-.099-.28-.116-.608-.125q-.382-.01-.526.045m4 1c-1.046.4-1.349 1.703-.578 2.475a1.47 1.47 0 0 0 2.124 0c.719-.719.511-1.928-.412-2.395-.195-.099-.28-.116-.608-.125q-.382-.01-.526.045m-3 3c-1.046.4-1.349 1.703-.578 2.475a1.47 1.47 0 0 0 2.124 0c.719-.719.511-1.928-.412-2.395-.195-.099-.28-.116-.608-.125q-.382-.01-.526.045"/></svg>