<svg xmlns="http://www.w3.org/2000/svg" width="24" height="24" fill="none" stroke="currentColor" stroke-linecap="round" stroke-linejoin="round" stroke-width="3"><path fill="#000" fill-rule="evenodd" stroke="none" d="M2.516 1.577c-.86.329-1.24 1.255-.858 2.089.09.198.352.477 1.909 2.039l1.805 1.81-.796.013c-.787.012-.799.013-1.024.128-.93.471-1.133 1.673-.407 2.399.24.241.53.38.897.431.164.022 1.307.033 2.769.026L9.3 10.5l.248-.105q.597-.25.847-.847L10.5 9.3l.012-2.489c.007-1.462-.004-2.605-.026-2.769-.075-.536-.364-.947-.838-1.186C9.44 2.75 9.384 2.74 9 2.74s-.44.01-.648.116c-.295.149-.577.429-.7.694-.127.273-.17.586-.171 1.248l-.001.538-1.79-1.779C3.623 1.502 3.685 1.549 3.042 1.532c-.253-.007-.431.008-.526.045m18 0c-.321.123-.566.343-2.246 2.017l-1.75 1.744-.001-.539c-.001-.663-.044-.976-.171-1.249-.123-.265-.405-.545-.7-.694-.208-.106-.264-.116-.648-.116s-.44.01-.648.116c-.474.239-.763.65-.838 1.186-.022.164-.033 1.307-.026 2.769L13.5 9.3l.105.248q.25.597.847.847l.248.105 2.489.012c1.462.007 2.605-.004 2.769-.026a1.5 1.5 0 0 0 .897-.431c.726-.726.523-1.928-.407-2.399-.225-.115-.237-.116-1.023-.129l-.795-.013 1.803-1.809c1.557-1.562 1.819-1.841 1.909-2.039.354-.773.059-1.629-.692-2.009-.195-.099-.28-.116-.608-.125-.253-.007-.431.008-.526.045m-16.8 12.001c-1.046.388-1.348 1.7-.571 2.477.365.365.713.463 1.653.464l.538.001-1.786 1.792c-1.542 1.546-1.802 1.824-1.892 2.022a1.502 1.502 0 0 0 2.008 2.008c.198-.09.475-.35 2.016-1.886l1.787-1.781.019.712c.018.645.029.737.121.961.239.59.756.938 1.391.938.634 0 1.145-.343 1.395-.938l.105-.248.012-2.489c.007-1.462-.004-2.605-.026-2.769-.075-.536-.364-.947-.838-1.186l-.228-.116-2.78-.008c-2.239-.006-2.808.003-2.924.046m10.8 0a1.54 1.54 0 0 0-1.002 1.264c-.022.164-.033 1.307-.026 2.769L13.5 20.1l.105.248c.25.595.761.938 1.395.938.635 0 1.152-.348 1.391-.938.092-.224.103-.316.121-.961l.019-.712 1.787 1.781c1.541 1.536 1.818 1.796 2.016 1.886a1.502 1.502 0 0 0 2.008-2.008c-.09-.198-.35-.476-1.892-2.022l-1.786-1.792.538-.001c.94-.001 1.288-.099 1.653-.464.726-.726.523-1.928-.407-2.399l-.228-.116-2.78-.008c-2.243-.006-2.808.003-2.924.046"/></svg>