<svg xmlns="http://www.w3.org/2000/svg" width="24" height="24" fill="none" stroke="currentColor" stroke-linecap="round" stroke-linejoin="round" stroke-width="3"><path fill="#000" fill-rule="evenodd" stroke="none" d="M11.02 1.58c-2.1.335-3.878 1.627-4.821 3.503-.281.557-.556 1.404-.619 1.901-.023.185-.044.218-.221.353-.305.233-.916.854-1.205 1.225a7.2 7.2 0 0 0-.879 1.418c-.866 1.795-1.058 3.573-.591 5.46.373 1.504 1.104 2.773 2.2 3.821q2.165 2.067 5.16 2.245l.425.026.026.399c.039.593.18.899.576 1.244.473.413 1.385.413 1.858 0 .397-.346.537-.651.576-1.25l.027-.405h.248c.404 0 1.256-.077 1.6-.144 1.535-.3 2.838-.989 3.923-2.073 2.722-2.722 2.953-6.981.543-10.003a8.4 8.4 0 0 0-1.086-1.096c-.121-.095-.232-.203-.247-.239a1.4 1.4 0 0 1-.03-.325c-.008-.695-.289-1.774-.648-2.492-.977-1.952-2.743-3.24-4.895-3.571-.442-.068-1.484-.066-1.92.003m1.732 3.003c.641.13 1.193.439 1.71.955.369.37.581.675.764 1.102.192.447.254.821.254 1.528.001.716.041 1.012.178 1.29s.333.469.802.777a4.54 4.54 0 0 1 1.88 2.55c.528 1.822-.214 3.865-1.791 4.929-.773.522-1.471.744-2.494.793l-.535.025v-1.905l.862-.872c.69-.699.881-.916.963-1.095a1.505 1.505 0 0 0-.697-2.004c-.208-.106-.264-.116-.648-.116-.385 0-.439.01-.651.117a3 3 0 0 0-.54.406l-.309.288-.8-.786c-.993-.975-1.076-1.025-1.7-1.025-.384 0-.44.01-.648.116a1.505 1.505 0 0 0-.697 2.004c.082.179.273.396.963 1.095l.862.872v2.904l-.37-.027c-1.77-.134-3.312-1.147-4.103-2.696-.398-.78-.545-1.395-.546-2.288-.001-.681.044-.98.229-1.54a5 5 0 0 1 1.97-2.62c.154-.105.348-.259.431-.343.277-.28.428-.719.429-1.249 0-.499.221-1.181.54-1.668.201-.308.732-.839 1.04-1.04a3.7 3.7 0 0 1 1.12-.474c.378-.08 1.146-.082 1.532-.003"/></svg>