<svg xmlns="http://www.w3.org/2000/svg" width="24" height="24" fill="none" stroke="currentColor" stroke-linecap="round" stroke-linejoin="round" stroke-width="3"><path fill="#000" fill-rule="evenodd" stroke="none" d="M17.516.577c-.857.328-1.24 1.255-.862 2.082.081.176.27.392.91 1.042l.809.819h-1.417c-1.528 0-1.822.026-2.497.221a6.3 6.3 0 0 0-1.535.73c-.734.489-.77.536-4.263 5.47-3.501 4.946-3.541 4.998-4.104 5.273-.508.248-.658.272-1.877.3l-1.1.026-.228.116a1.51 1.51 0 0 0-.829 1.126 1.494 1.494 0 0 0 1.287 1.7c.336.049 1.462.047 2.029-.003 1.109-.098 2.162-.507 2.979-1.158.637-.507.83-.759 4.216-5.535 3.484-4.913 3.348-4.738 3.882-5.005.463-.232.475-.234 2.003-.251l1.419-.016-.791.803c-.853.866-.964 1.024-1.024 1.465-.163 1.2 1.031 2.069 2.145 1.56.203-.093.499-.373 2.398-2.274 1.689-1.69 2.189-2.213 2.269-2.374.21-.423.21-.965 0-1.388-.08-.161-.576-.678-2.269-2.368C18.58.457 18.697.55 18.042.532c-.253-.007-.431.008-.526.045m-16 4.002c-.364.134-.71.443-.864.773a1.5 1.5 0 0 0 1.158 2.13c.138.02.745.037 1.35.038 1.196.001 1.316.017 1.778.233.513.24.845.551 1.269 1.186.349.523.745.75 1.315.754.257.001.342-.017.567-.122.353-.165.59-.392.755-.721.126-.251.135-.296.133-.65-.003-.452-.051-.58-.446-1.18-.34-.516-1.013-1.192-1.529-1.536-.718-.478-1.46-.782-2.202-.902-.51-.083-3.062-.085-3.284-.003m16 7.998c-.855.325-1.24 1.255-.862 2.082.081.176.27.393.914 1.046l.812.823-1.32-.017c-1.298-.017-1.325-.019-1.64-.123-.687-.228-1.116-.598-1.597-1.382-.368-.598-.528-.774-.854-.935-.251-.123-.293-.131-.688-.131-.385.001-.44.01-.638.114-.319.168-.612.48-.722.767-.123.325-.147.699-.064.985.078.265.689 1.255 1.063 1.72.757.943 1.997 1.662 3.273 1.899.259.048.699.07 1.739.085l1.391.02-.784.795c-.845.857-.956 1.017-1.016 1.457-.163 1.2 1.031 2.069 2.145 1.56.203-.093.499-.373 2.398-2.274 1.689-1.69 2.189-2.213 2.269-2.374.21-.423.21-.965 0-1.388-.08-.161-.576-.678-2.269-2.368-2.487-2.483-2.372-2.392-3.026-2.407-.246-.006-.431.01-.524.046"/></svg>