<svg xmlns="http://www.w3.org/2000/svg" width="24" height="24" fill="none" stroke="currentColor" stroke-linecap="round" stroke-linejoin="round" stroke-width="3"><path fill="#000" fill-rule="evenodd" stroke="none" d="M6.04 2.548c-.055.01-.235.083-.4.161a1.97 1.97 0 0 0-1.129 1.759c0 .376.067.655.23.958.073.135 1.169 1.627 2.436 3.317C9.448 11.772 9.48 11.817 9.48 12s-.032.228-2.323 3.283c-1.278 1.703-2.374 3.196-2.435 3.317-.626 1.241.162 2.695 1.56 2.879.238.032 1.932.041 5.738.031 4.924-.012 5.419-.019 5.62-.081.879-.269 1.539-.93 1.785-1.789.079-.276.125-2.341.062-2.789-.076-.546-.363-.954-.839-1.195-.208-.106-.264-.116-.648-.116s-.44.01-.648.116a1.51 1.51 0 0 0-.834 1.154c-.02.138-.037.579-.037.98l-.001.73H12.5c-2.189 0-3.98-.009-3.98-.02s.761-1.034 1.69-2.275 1.758-2.369 1.841-2.51c.562-.949.584-2.326.055-3.335-.069-.132-.904-1.279-1.855-2.55l-1.73-2.31h7.949l.018.89c.016.842.023.904.119 1.138.243.592.758.938 1.393.938.634 0 1.145-.343 1.395-.938L19.5 7.3V5.98c0-1.475-.01-1.554-.265-2.09-.261-.548-.8-1.027-1.418-1.26l-.237-.09-5.72-.005c-3.146-.003-5.765.003-5.82.013"/></svg>