<svg xmlns="http://www.w3.org/2000/svg" width="24" height="24" fill="none" stroke="currentColor" stroke-linecap="round" stroke-linejoin="round" stroke-width="3"><path fill="#000" fill-rule="evenodd" stroke="none" d="M11.516 10.577c-.556.213-.919.67-1.001 1.259-.022.164-.033 1.933-.026 4.369L10.5 20.3l.105.248c.25.595.761.938 1.395.938s1.145-.343 1.395-.938l.105-.248.011-4.095c.007-2.436-.004-4.205-.026-4.369a1.51 1.51 0 0 0-.835-1.179c-.195-.099-.28-.116-.608-.125q-.382-.01-.526.045m-5 4c-.559.214-.919.67-1.002 1.267-.023.165-.034 1.152-.027 2.369L5.5 20.3l.105.248c.25.595.761.938 1.395.938s1.145-.343 1.395-.938L8.5 20.3l.013-2.087c.007-1.217-.004-2.204-.027-2.369-.075-.537-.364-.948-.836-1.187-.195-.099-.28-.116-.608-.125q-.382-.01-.526.045m-5 4c-1.049.399-1.349 1.701-.571 2.478.58.58 1.53.583 2.107.007a1.47 1.47 0 0 0 0-2.124c-.292-.292-.55-.395-1.012-.407-.247-.006-.431.01-.524.046"/></svg>