<svg xmlns="http://www.w3.org/2000/svg" width="24" height="24" fill="none" stroke="currentColor" stroke-linecap="round" stroke-linejoin="round" stroke-width="3"><path fill="#000" fill-rule="evenodd" stroke="none" d="M12.72.575c-1.31.304-2.304 1.088-2.842 2.24-.278.598-.454 1.304-.875 3.525-.434 2.292-.83 4.182-.9 4.295-.009.015-.239.003-.51-.027-.28-.031-.977-.058-1.613-.062-1.225-.007-1.396.015-1.991.256-1.252.508-2.214 1.705-2.432 3.03a5.3 5.3 0 0 0-.001 1.334c.235 1.426 1.306 2.669 2.698 3.13.425.14.765.192 1.266.191 1.429-.002 2.606-.74 3.61-2.266.253-.385.754-1.358.913-1.774.093-.242.102-.252.214-.229.178.035.906.357 1.211.535.358.21.691.5.853.744.116.173.138.252.183.642.087.754.269 1.153.744 1.628.241.242.379.343.64.467.539.257.614.266 2.112.266 1.493 0 1.574-.01 2.101-.261a2.9 2.9 0 0 0 .931-.773l.085-.113.512.445c.281.244.602.489.713.544.569.28 1.208.179 1.678-.265.317-.3.433-.561.452-1.015.019-.451-.071-.723-.337-1.02-.227-.251-2.365-2.105-2.589-2.245a2 2 0 0 0-1.897-.098c-.562.267-1.035.882-1.107 1.441-.055.418.002.38-.562.38h-.498l-.023-.11c-.179-.853-.416-1.353-.943-1.992-.617-.746-1.717-1.459-2.996-1.939l-.468-.177a8 8 0 0 1 .112-.503c.127-.531.476-2.252.876-4.319.443-2.285.538-2.573.937-2.819.177-.109.23-.121.523-.121s.346.012.522.121c.274.17.43.432.451.759.03.469-.135.742-.623 1.031-.366.216-.54.394-.676.691-.205.448-.202.827.011 1.302.291.648 1.101.995 1.781.761 1.1-.379 2.064-1.447 2.392-2.649.5-1.838-.391-3.807-2.098-4.637-.601-.293-.916-.364-1.68-.381q-.64-.014-.86.037M7.093 13.597c.093.093-.537 1.171-.889 1.523-.422.422-.871.485-1.289.181-.587-.427-.514-1.35.134-1.681l.211-.108.896.022c.526.013.913.039.937.063m-4.577 5.982c-.365.134-.71.443-.864.773a1.5 1.5 0 0 0 1.158 2.13c.143.021 4.083.036 9.19.036s9.047-.015 9.19-.036a1.494 1.494 0 0 0 1.287-1.7 1.51 1.51 0 0 0-.829-1.126l-.228-.116-9.38-.007c-7.731-.006-9.405.002-9.524.046"/></svg>