<svg xmlns="http://www.w3.org/2000/svg" width="24" height="24" fill="none" stroke="currentColor" stroke-linecap="round" stroke-linejoin="round" stroke-width="3"><path fill="#000" fill-rule="evenodd" stroke="none" d="M11.44.545C9.99.824 8.861 1.896 8.582 3.26l-.049.24-2.476.02-2.477.02-.24.119c-.197.098-.451.33-1.408 1.281C.94 5.927.748 6.136.658 6.332a1.63 1.63 0 0 0-.135.886c.065.481.144.584 1.409 1.843 1.272 1.266 1.366 1.338 1.868 1.417.155.025 1.15.042 2.47.042h2.21v9.993l-.45.014c-.402.012-.474.025-.678.129a1.51 1.51 0 0 0-.829 1.126 1.494 1.494 0 0 0 1.287 1.7c.326.047 8.054.047 8.38 0a1.494 1.494 0 0 0 1.287-1.7 1.51 1.51 0 0 0-.829-1.126c-.203-.103-.277-.117-.678-.13l-.45-.015V10.52h2.21c1.32 0 2.315-.017 2.47-.042.502-.079.596-.151 1.868-1.417 1.265-1.259 1.344-1.362 1.409-1.843a1.63 1.63 0 0 0-.135-.886c-.09-.196-.282-.405-1.274-1.392-.957-.951-1.211-1.183-1.408-1.281l-.24-.119-2.48-.02-2.48-.02-.013-.1a4 4 0 0 0-.09-.366c-.282-.964-.91-1.711-1.824-2.168-.479-.24-.797-.313-1.433-.327a7 7 0 0 0-.66.006m.904 3.111.136.136V20.52h-.96V3.792l.136-.136c.12-.12.161-.136.344-.136s.224.016.344.136M8.48 7.02v.5H4.658L4.4 7.26 4.142 7l.238-.24.237-.24H8.48zm11.14-.26.238.24-.258.26-.258.26H15.52v-1h3.863z"/></svg>