<svg xmlns="http://www.w3.org/2000/svg" width="24" height="24" fill="none" stroke="currentColor" stroke-linecap="round" stroke-linejoin="round" stroke-width="3"><path fill="#000" fill-rule="evenodd" stroke="none" d="M11.516 1.577c-.371.142-.711.446-.864.773-.135.289-.17.587-.171 1.438l-.001.729-2.57.013c-2.529.012-2.575.014-2.863.102-.374.115-.841.35-1.147.578-.383.286-2.828 2.673-2.994 2.924-.387.582-.5 1.347-.307 2.066.091.34.33.729.654 1.068.603.63 2.512 2.432 2.758 2.602a3.6 3.6 0 0 0 1.149.525l.38.105 2.468-.01 2.469-.009.011 3.409.012 3.41.105.248c.25.595.761.938 1.395.938s1.145-.343 1.395-.938l.105-.248.012-3.412.011-3.412 2.469.006c2.691.006 2.693.006 3.282-.229.651-.26 1.059-.602 2.95-2.477.766-.759.9-.911 1.009-1.139.18-.378.257-.721.257-1.137-.001-.678-.228-1.228-.717-1.742-.488-.511-2.515-2.439-2.719-2.586a4.5 4.5 0 0 0-1.101-.54c-.288-.088-.334-.09-2.863-.102l-2.57-.013-.001-.729c0-.4-.017-.84-.037-.978a1.51 1.51 0 0 0-.832-1.153c-.195-.099-.28-.116-.608-.125q-.382-.01-.526.045m6.976 6.212c.158.147.626.594 1.039.991l.75.723-.999.956c-.55.526-1.023.969-1.051.984-.091.05-12.245.07-12.386.021-.075-.026-.533-.434-1.129-1.004L3.713 9.5l.533-.511c.294-.281.763-.726 1.042-.99l.508-.479h12.407z"/></svg>