<svg xmlns="http://www.w3.org/2000/svg" width="24" height="24" fill="none" stroke="currentColor" stroke-linecap="round" stroke-linejoin="round" stroke-width="3"><path fill="#000" fill-rule="evenodd" stroke="none" d="M11.516.577c-.371.142-.711.446-.864.774-.137.294-.184.691-.161 1.371.017.499.034.617.119.828.237.587.755.936 1.39.936s1.153-.349 1.39-.936c.085-.211.102-.329.119-.828.033-.973-.075-1.401-.445-1.766a2 2 0 0 0-.414-.299c-.195-.099-.28-.116-.608-.125q-.382-.01-.526.045m6.658 2.462c-.319.068-.576.238-1.002.665-.455.454-.596.689-.649 1.078-.162 1.195 1.032 2.069 2.136 1.564.332-.153 1.022-.855 1.193-1.216.115-.242.128-.308.128-.63 0-.311-.015-.394-.113-.604a1.68 1.68 0 0 0-.748-.753 1.8 1.8 0 0 0-.945-.104m-13.722.475a1.505 1.505 0 0 0-.791 2.212c.186.3 1.05 1.124 1.314 1.253.406.199 1.008.185 1.385-.031.198-.113.468-.38.576-.568.228-.399.247-.988.044-1.406-.138-.282-1.019-1.189-1.301-1.337-.4-.212-.842-.255-1.227-.123M11.02 5.58c-2.824.451-4.967 2.589-5.449 5.437-.05.294-.065.885-.08 3.107l-.018 2.745-.146.069c-.242.115-.613.398-.853.651a3.65 3.65 0 0 0-.919 1.775c-.071.361-.072 1.907-.001 2.196.175.713.701 1.372 1.334 1.674.598.284.11.266 7.112.266 5.193 0 6.38-.01 6.56-.054a2.61 2.61 0 0 0 1.862-1.806c.083-.304.118-1.361.063-1.895-.091-.889-.387-1.552-.963-2.16-.236-.249-.607-.532-.849-.647l-.146-.069-.017-2.745c-.019-2.959-.025-3.043-.249-3.841-.708-2.516-2.735-4.309-5.321-4.706-.442-.068-1.484-.066-1.92.003m1.732 3.003c.641.13 1.193.439 1.71.955.369.37.581.675.764 1.102.248.579.254.655.254 3.398v2.482h-1.96l-.001-2.23c0-1.227-.017-2.342-.037-2.48a1.51 1.51 0 0 0-.834-1.154c-.208-.106-.264-.116-.648-.116s-.44.01-.648.116a1.51 1.51 0 0 0-.834 1.154c-.02.138-.037 1.253-.037 2.48l-.001 2.23H8.52v-2.482c0-2.743.006-2.819.254-3.398.183-.427.395-.732.764-1.102.507-.506 1.063-.821 1.682-.952.378-.08 1.146-.082 1.532-.003M1.516 10.577c-1.048.396-1.349 1.701-.571 2.478.353.354.721.463 1.555.463s1.202-.109 1.555-.463c.726-.726.523-1.928-.407-2.399l-.228-.116-.88-.009c-.663-.006-.916.005-1.024.046m19 0c-1.048.396-1.349 1.701-.571 2.478.353.354.721.463 1.555.463s1.202-.109 1.555-.463c.726-.726.523-1.928-.407-2.399l-.228-.116-.88-.009c-.663-.006-.916.005-1.024.046m-3.172 9.079c.135.135.136.139.136.5v.364H6.52v-.364c0-.361.001-.365.136-.5l.136-.136h10.416z"/></svg>