<svg xmlns="http://www.w3.org/2000/svg" width="24" height="24" fill="none" stroke="currentColor" stroke-linecap="round" stroke-linejoin="round" stroke-width="3"><path fill="#000" fill-rule="evenodd" stroke="none" d="M4.516 2.577a1.54 1.54 0 0 0-.998 1.233c-.052.356-.049 16.061.003 16.378.056.348.166.581.386.816.242.258.446.377.784.455.307.072.624.04.921-.091.176-.078 10.261-8.118 10.501-8.372.162-.171.319-.485.359-.718.041-.242-.01-.676-.105-.891a1.7 1.7 0 0 0-.232-.349c-.239-.266-10.315-8.312-10.529-8.407-.238-.106-.873-.138-1.09-.054m14 1c-.555.212-.919.67-1 1.255-.023.162-.033 3.115-.027 7.369L17.5 19.3l.105.248c.25.595.761.938 1.395.938s1.145-.343 1.395-.938l.105-.248.011-7.099c.006-4.254-.004-7.207-.027-7.369a1.5 1.5 0 0 0-.834-1.175c-.195-.099-.28-.116-.608-.125-.253-.007-.431.008-.526.045M9.59 9.592c1.633 1.307 2.97 2.39 2.97 2.408 0 .027-5.849 4.728-5.99 4.814-.04.025-.05-.949-.05-4.814s.01-4.839.05-4.814c.028.017 1.387 1.1 3.02 2.406"/></svg>