<svg xmlns="http://www.w3.org/2000/svg" width="24" height="24" fill="none" stroke="currentColor" stroke-linecap="round" stroke-linejoin="round" stroke-width="3"><path fill="#000" fill-rule="evenodd" stroke="none" d="M10.9 1.564q-2.164.265-3.928 1.385C5.373 3.964 4.217 5.256 3.438 6.9c-.981 2.071-1.199 4.263-.641 6.447.307 1.204 1.017 2.661 1.685 3.459l.156.186-.061.314a3.52 3.52 0 0 0 .859 3.062c.261.282.63.57.888.693l.145.068.021.588c.017.503.035.622.12.833.158.392.442.677.842.845l.248.105h8.6l.248-.105c.4-.168.684-.453.842-.845.085-.211.103-.33.12-.833l.021-.588.14-.066a3.507 3.507 0 0 0 1.752-3.757l-.061-.314.156-.186c.499-.597 1.143-1.786 1.442-2.665q1.265-3.714-.399-7.241c-.791-1.678-2.028-3.036-3.681-4.043-1.163-.709-2.401-1.127-3.839-1.297-.4-.047-1.741-.045-2.141.004m2.34 3.049c1.405.304 2.504.914 3.485 1.937.809.844 1.39 1.966 1.661 3.21.06.276.074.51.073 1.24-.001.844-.008.93-.114 1.377-.295 1.253-.769 2.145-1.647 3.103-.518.564-.634.802-.625 1.284.006.319.084.567.27.858.179.28.187.501.025.695-.102.123-.14.138-.481.188-.439.065-.685.179-.944.438-.325.325-.462.718-.463 1.327v.25H9.52v-.25c-.001-.609-.138-1.002-.463-1.327-.259-.259-.505-.373-.944-.438-.341-.05-.379-.065-.481-.188-.162-.194-.154-.415.025-.695a1.53 1.53 0 0 0 .27-.858c.009-.482-.107-.72-.625-1.284-.882-.962-1.367-1.877-1.642-3.102-.178-.797-.194-1.858-.039-2.627A6.56 6.56 0 0 1 9.08 5.2a6 6 0 0 1 1.78-.596l.38-.061c.221-.038 1.75.016 2 .07M8.38 9.574a2.73 2.73 0 0 0-1.279.795c-.21.239-.469.746-.542 1.064A3 3 0 0 0 6.51 12c0 .446.058.695.256 1.112.223.467.655.899 1.122 1.122.417.198.666.256 1.112.256s.695-.058 1.112-.256a2.5 2.5 0 0 0 1.122-1.122c.198-.417.256-.666.256-1.112s-.058-.695-.255-1.11c-.262-.55-.811-1.037-1.418-1.257-.295-.107-1.12-.141-1.437-.059m6 0a2.73 2.73 0 0 0-1.279.795c-.21.239-.469.746-.542 1.064a3 3 0 0 0-.049.567c0 .446.058.695.256 1.112.223.467.655.899 1.122 1.122.417.198.666.256 1.112.256s.695-.058 1.112-.256a2.5 2.5 0 0 0 1.122-1.122c.198-.417.256-.666.256-1.112s-.058-.695-.255-1.11c-.262-.55-.811-1.037-1.418-1.257-.295-.107-1.12-.141-1.437-.059m-5.036 2.082c.119.119.136.162.136.337 0 .242-.129.424-.343.483a.5.5 0 0 1-.514-.16c-.081-.096-.103-.166-.103-.323 0-.175.017-.218.136-.337s.161-.136.344-.136.224.016.344.136m6 0c.119.119.136.162.136.337 0 .242-.129.424-.343.483a.5.5 0 0 1-.514-.16c-.081-.096-.103-.166-.103-.323 0-.175.017-.218.136-.337s.161-.136.344-.136.224.016.344.136M11.5 14.59c-.537.237-.666.385-1.114 1.287l-.366.737.001.363c.002.444.096.71.355 1.006.376.429.836.562 1.824.526.665-.024.912-.093 1.23-.345.343-.271.521-.611.559-1.067.029-.336-.055-.594-.431-1.337-.353-.698-.545-.93-.914-1.108-.294-.141-.89-.173-1.144-.062"/></svg>