<svg xmlns="http://www.w3.org/2000/svg" width="24" height="24" fill="none" stroke="currentColor" stroke-linecap="round" stroke-linejoin="round" stroke-width="3"><path fill="#000" fill-rule="evenodd" stroke="none" d="M7.808.581c-.933.203-1.839 1.02-2.14 1.929-.374 1.132-.097 2.306.736 3.12.453.442.788.629 1.416.791l.36.093-2.54.004c-2.794.004-2.845.008-3.368.248C.851 7.421.173 8.993.667 10.487c.27.817 1.042 1.585 1.859 1.849.184.059.451.123.594.141.167.021.21.035.12.039-.429.017-1.05.239-1.434.512-1.122.797-1.569 2.156-1.138 3.461.267.808 1.035 1.576 1.844 1.844 1.129.373 2.305.095 3.118-.737.422-.432.625-.785.771-1.336l.075-.28.002 2.24c.002 1.236.021 2.399.043 2.594.107.93.609 1.729 1.412 2.246.7.45 1.696.556 2.555.273 1.029-.34 1.862-1.37 1.985-2.453l.03-.26.027.266c.105 1.059.955 2.107 1.982 2.447 1.354.447 2.771-.058 3.548-1.266.45-.7.556-1.696.272-2.556-.301-.91-1.207-1.727-2.14-1.93-.225-.049-.007-.055 2.008-.058 1.243-.002 2.419-.022 2.614-.044a2.9 2.9 0 0 0 1.822-.889 2.86 2.86 0 0 0 .84-1.756 3 3 0 0 0-1.748-3.068c-.281-.129-.708-.24-.968-.25-.09-.004-.047-.018.12-.039.143-.018.41-.082.594-.141.817-.264 1.589-1.032 1.859-1.848.369-1.118.094-2.306-.717-3.098-.624-.609-1.257-.869-2.116-.869-.878 0-1.554.288-2.171.925a2.7 2.7 0 0 0-.73 1.294l-.075.28-.002-2.24c-.002-1.236-.021-2.399-.043-2.594a2.9 2.9 0 0 0-.863-1.796C15.992.781 15.359.521 14.5.521c-.486 0-.857.074-1.228.245-.951.439-1.632 1.357-1.745 2.354l-.03.26-.027-.266C11.353 1.937 10.349.828 9.174.579 8.834.507 8.143.508 7.808.581M11.59 9.24c.161.583.356.922.78 1.356.653.668 1.54.984 2.464.88a2.9 2.9 0 0 0 1.796-.88c.422-.432.625-.785.771-1.336l.075-.28.003.48c.005.884.109 1.24.466 1.594.221.219.401.322.705.404.189.051.026.057-1.67.06-2.074.004-2.203.016-2.708.248a3 3 0 0 0-1.748 3.068c.079.701.349 1.257.858 1.771.454.458.92.713 1.539.841.257.054.254.054-.541.074-.779.019-.806.023-1.02.132-.363.185-.603.436-.741.773l-.097.235-.001-1.56c-.001-.858-.02-1.719-.042-1.914a2.9 2.9 0 0 0-.863-1.796c-.624-.609-1.257-.869-2.116-.869-.878 0-1.554.288-2.171.925a2.7 2.7 0 0 0-.73 1.294l-.075.28-.003-.48c-.003-.61-.049-.925-.173-1.19a1.58 1.58 0 0 0-.888-.774c-.135-.043.09-.051 1.42-.054 1.735-.003 2.131-.032 2.608-.189.809-.268 1.577-1.036 1.844-1.844a3.14 3.14 0 0 0 0-1.979c-.301-.911-1.219-1.737-2.14-1.926l-.252-.052.68-.02c.607-.018.707-.031.928-.121.39-.158.716-.482.842-.837.069-.196.07-.177.093 1.594.022 1.649.03 1.816.107 2.092"/></svg>