<svg xmlns="http://www.w3.org/2000/svg" width="24" height="24" fill="none" stroke="currentColor" stroke-linecap="round" stroke-linejoin="round" stroke-width="3"><path fill="#000" fill-rule="evenodd" stroke="none" d="M19.256 1.564c-.666.111-1.3.433-1.886.958-.214.192-4.046 4.01-8.514 8.484C1.499 18.372.724 19.161.642 19.358c-.404.969.15 1.966 1.178 2.122.189.029 1.772.039 4.88.031l4.6-.011.248-.105a1.52 1.52 0 0 0 .846-.847c.104-.247.104-.251.118-1.588l.014-1.34 5.051-5.06c3.15-3.156 5.119-5.158 5.232-5.32.247-.353.41-.689.538-1.108.098-.319.108-.412.109-.992.001-.694-.031-.874-.252-1.411-.444-1.077-1.495-1.932-2.638-2.146a4.7 4.7 0 0 0-1.31-.019m.901 3.026a.7.7 0 0 1 .216.177c.106.145.134.466.054.616-.034.065-2.169 2.223-4.744 4.797L11 14.86l-.43-.43-.43-.43 4.66-4.664c2.563-2.565 4.714-4.698 4.78-4.74.15-.095.398-.097.577-.006M8.75 16.89l.73.729v.901H5.621L6.8 17.34a52 52 0 0 1 1.199-1.18c.011 0 .349.328.751.73"/></svg>