<svg xmlns="http://www.w3.org/2000/svg" width="24" height="24" fill="none" stroke="currentColor" stroke-linecap="round" stroke-linejoin="round" stroke-width="3"><path fill="#000" fill-rule="evenodd" stroke="none" d="M13.516.577c-.559.214-.919.67-1.002 1.267-.023.165-.034 1.152-.027 2.369L12.5 6.3l.105.248c.168.399.453.684.84.84.476.193 1.127.099 1.484-.213.397-.346.537-.651.576-1.25l.027-.405 2.704-.001c1.487 0 2.816-.017 2.954-.037a1.494 1.494 0 0 0 1.287-1.7 1.51 1.51 0 0 0-.829-1.126l-.228-.116-2.95-.011-2.95-.011-.001-.229c-.003-.814-.279-1.334-.869-1.632-.195-.099-.28-.116-.608-.125q-.382-.01-.526.045m-11 2.001c-.366.136-.71.444-.864.774a1.5 1.5 0 0 0 1.158 2.13c.326.047 7.054.047 7.38 0a1.494 1.494 0 0 0 1.287-1.7 1.51 1.51 0 0 0-.829-1.126l-.228-.116-3.88-.008c-3.157-.006-3.907.003-4.024.046m5 5.999c-.371.142-.711.446-.864.773-.106.228-.17.576-.171.939l-.001.229-1.95.011-1.95.011-.228.116a1.51 1.51 0 0 0-.829 1.126 1.494 1.494 0 0 0 1.287 1.7c.138.02 1.017.037 1.954.037l1.704.001.027.405c.039.599.179.904.576 1.25.357.312 1.008.406 1.484.213.387-.156.672-.441.84-.84L9.5 14.3l.013-2.087c.007-1.217-.004-2.204-.027-2.369-.075-.537-.364-.948-.836-1.187-.195-.099-.28-.116-.608-.125q-.382-.01-.526.045m4 2.001c-.365.136-.71.444-.864.774a1.5 1.5 0 0 0 1.158 2.13c.326.047 9.054.047 9.38 0a1.494 1.494 0 0 0 1.287-1.7 1.51 1.51 0 0 0-.829-1.126l-.228-.116-4.88-.008c-3.989-.006-4.906.003-5.024.046m4 5.999c-.559.214-.919.67-1.002 1.267-.023.165-.034 1.152-.027 2.369L14.5 22.3l.105.248c.168.399.453.684.84.84.476.193 1.127.099 1.484-.213.397-.346.537-.651.576-1.25l.027-.405 1.704-.001c.937 0 1.816-.017 1.954-.037a1.494 1.494 0 0 0 1.287-1.7 1.51 1.51 0 0 0-.829-1.126l-.228-.116-1.95-.011-1.95-.012-.001-.228c-.003-.814-.279-1.334-.869-1.632-.195-.099-.28-.116-.608-.125q-.381-.01-.526.045m-13 2.001c-.365.136-.71.444-.864.774a1.5 1.5 0 0 0 1.158 2.13c.326.047 9.054.047 9.38 0a1.494 1.494 0 0 0 1.287-1.7 1.51 1.51 0 0 0-.829-1.126l-.228-.116-4.88-.008c-3.989-.006-4.906.003-5.024.046"/></svg>