<svg xmlns="http://www.w3.org/2000/svg" width="24" height="24" fill="none" stroke="currentColor" stroke-linecap="round" stroke-linejoin="round" stroke-width="3"><path fill="#000" fill-rule="evenodd" stroke="none" d="M3.516 1.577c-.557.213-.919.67-1.001 1.261-.023.163-.034 1.736-.027 3.869L2.5 10.3l.105.248c.25.595.761.938 1.395.938s1.145-.343 1.395-.938L5.5 10.3l.012-3.593c.007-2.133-.004-3.706-.027-3.869a1.5 1.5 0 0 0-.835-1.181c-.195-.099-.28-.116-.608-.125-.253-.007-.431.008-.526.045m8 0a1.54 1.54 0 0 0-.998 1.233c-.02.138-.037 1.027-.037 1.977l-.001 1.726-.45.014c-.402.012-.474.025-.678.129a1.51 1.51 0 0 0-.829 1.126 1.494 1.494 0 0 0 1.287 1.7c.325.047 4.055.047 4.38 0a1.494 1.494 0 0 0 1.287-1.7 1.51 1.51 0 0 0-.829-1.126c-.203-.103-.277-.117-.678-.13l-.45-.015-.001-1.725c0-.949-.017-1.838-.037-1.976a1.51 1.51 0 0 0-.832-1.153c-.195-.099-.28-.116-.608-.125q-.382-.01-.526.045m8 0c-.556.213-.919.67-1.001 1.258-.022.163-.033 2.13-.026 4.869L18.5 12.3l.105.248c.25.595.761.938 1.395.938s1.145-.343 1.395-.938l.105-.248.011-4.596c.007-2.739-.004-4.706-.026-4.869a1.51 1.51 0 0 0-.835-1.178c-.195-.099-.28-.116-.608-.125-.253-.007-.431.008-.526.045m-8 9c-.556.213-.919.67-1.001 1.258-.022.163-.033 2.13-.026 4.869L10.5 21.3l.105.248c.25.595.761.938 1.395.938s1.145-.343 1.395-.938l.105-.248.011-4.596c.007-2.739-.004-4.706-.026-4.869a1.51 1.51 0 0 0-.835-1.178c-.195-.099-.28-.116-.608-.125q-.382-.01-.526.045M2.72 12.52l-1.14.02-.228.116c-.93.471-1.133 1.673-.407 2.399.316.317.73.462 1.323.464l.208.001.012 2.89.012 2.89.105.248c.25.595.761.938 1.395.938s1.145-.343 1.395-.938L5.5 21.3l.012-2.89.012-2.89.208-.001c.593-.002 1.007-.147 1.323-.464.725-.725.522-1.929-.404-2.398-.191-.096-.282-.116-.588-.125a81 81 0 0 0-3.343-.012m16 2-1.14.02-.228.116c-.93.471-1.133 1.673-.407 2.399.316.316.731.462 1.322.464l.207.001.013 1.89.013 1.89.105.248c.25.595.761.938 1.395.938s1.145-.343 1.395-.938l.105-.248.013-1.89.013-1.89.207-.001c.591-.002 1.006-.148 1.322-.464.725-.725.522-1.929-.404-2.398-.191-.096-.282-.116-.588-.125a81 81 0 0 0-3.343-.012"/></svg>