<svg xmlns="http://www.w3.org/2000/svg" width="24" height="24" fill="none" stroke="currentColor" stroke-linecap="round" stroke-linejoin="round" stroke-width="3"><path fill="#000" fill-rule="evenodd" stroke="none" d="M6.44.547a3.56 3.56 0 0 0-2.888 2.841c-.076.399-.076 16.825 0 17.224.221 1.168 1.036 2.177 2.116 2.617.707.288.306.271 6.332.271 4.955 0 5.445-.006 5.71-.068a3.7 3.7 0 0 0 1.798-1.004c.573-.6.883-1.272.971-2.111.054-.512.054-16.122 0-16.634-.154-1.464-1.104-2.612-2.526-3.052l-.293-.09L12.1.535C9.042.532 6.495.538 6.44.547m10.904 3.109.136.136v16.402l-.103.122a.6.6 0 0 1-.25.163c-.203.056-10.051.056-10.254 0a.6.6 0 0 1-.25-.163l-.103-.122V3.792l.136-.136.136-.136h10.416zm-5.231 2.957c-.437.184-.471.228-2 2.519-.793 1.188-1.469 2.224-1.501 2.301a1.52 1.52 0 0 0 .331 1.618c.373.368.73.468 1.667.469.302 0 .55.009.55.019s-.268.422-.595.915c-.678 1.02-.743 1.168-.717 1.628.071 1.227 1.468 1.841 2.439 1.073.112-.089.601-.788 1.631-2.332 1.588-2.382 1.578-2.365 1.569-2.885-.009-.549-.315-1.014-.847-1.286-.216-.11-.235-.112-1.01-.125-.439-.007-.79-.029-.79-.049s.268-.439.595-.932c.676-1.017.743-1.169.717-1.622a1.46 1.46 0 0 0-.802-1.247c-.225-.12-.288-.135-.63-.147-.329-.011-.411 0-.607.083"/></svg>