<svg xmlns="http://www.w3.org/2000/svg" width="24" height="24" fill="none" stroke="currentColor" stroke-linecap="round" stroke-linejoin="round" stroke-width="3"><path fill="#000" fill-rule="evenodd" stroke="none" d="M19.549 2.641c-.424.107-.877.503-1.024.894-.124.333-.149.643-.071.908.035.119.25.587.478 1.038.725 1.434 1.122 2.62 1.366 4.079.151.898.193 1.459.191 2.5-.006 2.488-.505 4.478-1.702 6.78-.406.781-.439.959-.28 1.526.206.736 1.062 1.193 1.816.97.483-.144.704-.348 1.056-.974 1.455-2.592 2.217-5.752 2.127-8.822-.076-2.619-.677-5.018-1.828-7.3-.566-1.124-.689-1.281-1.17-1.502-.256-.117-.702-.162-.959-.097M2.38 4.576c-.453.113-.95.421-1.279.793-.209.237-.465.739-.547 1.071-.08.325-.08 10.795 0 11.12.175.713.701 1.372 1.334 1.674.576.274.467.266 3.612.266 2.251 0 2.886-.011 3.06-.054.713-.175 1.372-.701 1.674-1.334.283-.594.266-.212.266-6.112 0-4.352-.01-5.381-.054-5.56a2.64 2.64 0 0 0-1.629-1.81l-.237-.09-3-.007c-2.288-.006-3.047.004-3.2.043m13.6.216c-.636.221-1 .75-1 1.453v.344l.327.657c.469.942.68 1.494.876 2.294a10.38 10.38 0 0 1-.422 6.239c-.07.175-.274.614-.454.975l-.327.657v.344c0 .399.077.652.288.942.165.228.54.478.816.544.521.125 1.15-.061 1.483-.438.192-.216.832-1.494 1.071-2.137 1.123-3.023 1.125-6.338.005-9.312-.267-.709-.771-1.751-.997-2.061-.342-.468-1.102-.697-1.666-.501m-3.531 2.131c-.28.111-.658.463-.783.73-.251.535-.223.877.132 1.607.494 1.017.658 1.702.657 2.74-.002 1.045-.165 1.727-.657 2.74-.273.563-.342.861-.274 1.184.074.353.219.611.476.85.301.279.591.395.985.398.663.003 1.138-.352 1.527-1.143 1.153-2.345 1.277-4.886.355-7.258-.401-1.032-.775-1.583-1.22-1.797-.315-.151-.883-.176-1.198-.051M7.48 12.02v4.5H3.52v-9h3.96z"/></svg>