<svg xmlns="http://www.w3.org/2000/svg" width="24" height="24" fill="none" stroke="currentColor" stroke-linecap="round" stroke-linejoin="round" stroke-width="3"><path fill="#000" fill-rule="evenodd" stroke="none" d="M11.28.481A11.49 11.49 0 0 0 1.68 6.9C.512 9.285.21 11.927.804 14.548c.377 1.661 1.245 3.423 2.311 4.692 1.135 1.351 2.308 2.277 3.825 3.018 1.655.809 3.245 1.18 5.06 1.181a11.43 11.43 0 0 0 6.818-2.238c2.606-1.924 4.248-4.79 4.619-8.061.066-.583.097-1.968.051-2.289-.078-.547-.364-.954-.84-1.195-.208-.106-.264-.116-.648-.116s-.44.01-.648.116a1.51 1.51 0 0 0-.834 1.154c-.02.138-.037.596-.037 1.018-.002 1.501-.238 2.589-.823 3.792-.533 1.095-1.305 2.099-2.17 2.823-1.534 1.284-3.472 1.999-5.428 2.001a8.5 8.5 0 0 1-3.007-.521c-2.691-.983-4.778-3.39-5.349-6.17-.143-.697-.183-1.114-.182-1.893.001-1.319.254-2.405.836-3.6.449-.921.984-1.676 1.648-2.327.741-.726 1.342-1.149 2.294-1.614 1.443-.705 2.512-.905 4.5-.843.626.019.84-.049 1.2-.382.336-.311.453-.566.472-1.032.02-.475-.07-.729-.378-1.062-.377-.407-.673-.496-1.774-.533-.297-.01-.765-.003-1.04.014m7.236.096c-.371.142-.711.446-.864.773-.135.289-.17.587-.171 1.438l-.001.728-.95.012-.95.012-.228.116c-.93.471-1.133 1.673-.407 2.399.381.382.7.463 1.82.464l.705.001.018.89c.016.842.023.904.119 1.138.243.592.758.938 1.393.938s1.15-.346 1.393-.938c.096-.234.103-.296.119-1.138l.018-.89.705-.001c1.12-.001 1.439-.082 1.82-.464.726-.726.523-1.928-.407-2.399l-.228-.116-.95-.013-.95-.012-.001-.728c0-.4-.017-.839-.037-.977A1.51 1.51 0 0 0 19.65.657c-.195-.099-.28-.116-.608-.125-.253-.007-.431.008-.526.045m-10 7c-1.049.399-1.349 1.701-.571 2.478.58.58 1.53.583 2.107.007a1.47 1.47 0 0 0 0-2.124c-.292-.292-.55-.395-1.012-.407-.247-.006-.431.01-.524.046m6 0c-1.049.399-1.349 1.701-.571 2.478.58.58 1.53.583 2.107.007a1.47 1.47 0 0 0 0-2.124c-.292-.292-.55-.395-1.012-.407-.247-.006-.431.01-.524.046m-6.983 4.998c-.241.079-.416.197-.63.426-.227.243-.329.461-.378.807-.067.471.042.798.426 1.275.359.446.913.925 1.569 1.355 2.14 1.406 4.82 1.406 6.957.002.489-.321.875-.63 1.224-.979.663-.662.856-1.074.774-1.658a1.4 1.4 0 0 0-.455-.88c-.335-.316-.514-.383-1.02-.382-.58.002-.678.053-1.32.677-.937.913-1.695 1.273-2.68 1.273s-1.743-.36-2.68-1.273c-.612-.596-.738-.664-1.26-.684-.231-.008-.42.006-.527.041"/></svg>