<svg xmlns="http://www.w3.org/2000/svg" width="24" height="24" fill="none" stroke="currentColor" stroke-linecap="round" stroke-linejoin="round" stroke-width="3"><path fill="#000" fill-rule="evenodd" stroke="none" d="M17.5 1.59c-.578.255-.872.613-.977 1.192-.067.369-.006.589.376 1.369l.338.691-.195.299c-.108.165-.253.46-.323.657l-.128.357-.326-.287c-1.329-1.177-2.99-1.956-4.805-2.255-.626-.104-2.292-.104-2.92-.001a9.6 9.6 0 0 0-5.867 3.346c-.941 1.127-1.64 2.57-1.967 4.062-.263 1.202-.263 2.758 0 3.96a9.6 9.6 0 0 0 1.996 4.095c.186.221.338.411.338.421s-.328.025-.73.032c-.714.012-.735.015-.958.128-.93.471-1.133 1.673-.407 2.399.24.24.53.38.895.43.172.024 2.696.034 6.629.025 6.241-.014 6.36-.016 6.871-.099q2.636-.429 4.581-1.996c1.899-1.53 3.096-3.614 3.489-6.075.077-.488.084-.722.1-3.846.011-2.212.002-3.47-.026-3.755-.067-.657-.25-1.197-.565-1.66l-.158-.233.339-.693c.379-.773.437-.982.376-1.356a1.52 1.52 0 0 0-.833-1.144c-.203-.103-.261-.113-.643-.113-.377 0-.443.012-.646.111-.368.181-.534.386-.934 1.156-.223.429-.383.693-.42.693s-.197-.264-.42-.693c-.401-.771-.568-.978-.934-1.154-.296-.142-.892-.175-1.146-.063m-6.56 4.987c2.154.331 3.918 1.619 4.898 3.576.655 1.309.823 3.004.445 4.476a6.47 6.47 0 0 1-3.412 4.193c-.309.152-.348.164-.231.071 1.658-1.333 2.678-3.252 2.835-5.334a5.65 5.65 0 0 0-.257-2.266c-.928-2.835-3.909-4.389-6.808-3.549a5.9 5.9 0 0 0-1.262.562 5.5 5.5 0 0 0-2.635 4.633c-.003.772.174 1.387.569 1.978a3.56 3.56 0 0 0 2.208 1.509 4.3 4.3 0 0 0 1.42 0 3.515 3.515 0 0 0 2.764-3.073c.019-.186.021-.44.004-.564a1.51 1.51 0 0 0-.83-1.133c-.208-.106-.264-.116-.648-.116s-.44.01-.648.116c-.294.149-.577.428-.699.692a2.4 2.4 0 0 0-.147.549c-.038.259-.073.365-.145.442a.495.495 0 0 1-.743-.029c-.104-.124-.107-.14-.088-.509.032-.626.245-1.093.712-1.559.287-.287.576-.475.941-.612.205-.076.316-.088.817-.088s.612.012.817.088a2.67 2.67 0 0 1 1.553 1.553c.08.211.09.31.089.897-.001.596-.012.699-.111 1.058-.356 1.287-1.195 2.314-2.358 2.89-1.614.798-3.581.549-4.92-.623a5.3 5.3 0 0 1-.809-.905 5.4 5.4 0 0 1-.603-1.34c-.129-.476-.176-1.397-.1-1.97A6.495 6.495 0 0 1 9.02 6.58c.436-.069 1.478-.071 1.92-.003m9.405.08.138.138-.013 3.552c-.014 3.521-.015 3.557-.104 3.953-.302 1.334-.888 2.391-1.859 3.352-.218.215-.403.385-.411.377s.084-.193.205-.412a9.8 9.8 0 0 0 1.108-3.27c.079-.5.085-.709.101-4.044l.016-3.517.133-.133c.117-.117.159-.133.341-.133.184 0 .224.016.345.137"/></svg>