<svg xmlns="http://www.w3.org/2000/svg" width="24" height="24" fill="none" stroke="currentColor" stroke-linecap="round" stroke-linejoin="round" stroke-width="3"><path fill="#000" fill-rule="evenodd" stroke="none" d="M11.516.577a1.54 1.54 0 0 0-.998 1.233c-.02.138-.037.761-.037 1.386l-.001 1.137-.79-.777C8.708 2.591 8.623 2.54 8 2.54c-.384 0-.44.01-.648.116-.753.381-1.048 1.237-.694 2.01.091.199.356.482 1.963 2.094l1.859 1.863v1.897H8.663L6.782 8.648C4.585 6.463 4.686 6.54 4 6.54c-.384 0-.44.01-.648.116a1.505 1.505 0 0 0-.698 2.003c.081.176.27.392.909 1.04l.807.818-1.395.012-1.395.011-.228.116a1.51 1.51 0 0 0-.829 1.126 1.494 1.494 0 0 0 1.287 1.7c.138.02.761.037 1.386.037l1.137.001-.789.8c-.85.862-.961 1.021-1.021 1.462-.163 1.199 1.032 2.069 2.143 1.56.199-.091.482-.356 2.094-1.963l1.863-1.859h1.857v1.857L8.621 17.24c-1.607 1.612-1.872 1.895-1.963 2.094-.509 1.111.361 2.306 1.56 2.143.44-.06.6-.171 1.459-1.018l.796-.784.014 1.312c.015 1.307.016 1.314.119 1.561.247.594.76.938 1.394.938s1.147-.344 1.394-.938c.103-.247.104-.254.119-1.561l.014-1.312.796.784c.859.847 1.019.958 1.459 1.018 1.199.163 2.069-1.032 1.56-2.143-.091-.199-.356-.482-1.963-2.094l-1.859-1.863V13.52h1.857l1.863 1.859c1.612 1.607 1.895 1.872 2.094 1.963 1.111.509 2.306-.361 2.143-1.56-.06-.441-.171-.6-1.021-1.462l-.789-.8 1.137-.001c.625 0 1.248-.017 1.386-.037a1.494 1.494 0 0 0 1.287-1.7 1.51 1.51 0 0 0-.829-1.126l-.228-.116-1.394-.012-1.395-.012.806-.817c.639-.648.828-.864.909-1.04a1.505 1.505 0 0 0-.698-2.003c-.208-.106-.264-.116-.648-.116-.686 0-.585-.077-2.782 2.108l-1.881 1.872H13.52V8.623l1.859-1.863c1.607-1.612 1.872-1.895 1.963-2.094.354-.773.059-1.629-.694-2.01-.208-.106-.264-.116-.648-.116-.623 0-.708.051-1.69 1.016l-.79.777-.001-1.137c0-.625-.017-1.248-.037-1.386A1.51 1.51 0 0 0 12.65.657c-.195-.099-.28-.116-.608-.125q-.382-.01-.526.045"/></svg>