<svg xmlns="http://www.w3.org/2000/svg" width="24" height="24" fill="none" stroke="currentColor" stroke-linecap="round" stroke-linejoin="round" stroke-width="3"><path fill="#000" fill-rule="evenodd" stroke="none" d="M8.58 2.521c-3.215.021-3.242.022-3.533.111-1.263.388-2.184 1.373-2.474 2.647-.042.183-.066.608-.081 1.426L2.47 7.87l-.145.069c-.24.114-.611.397-.851.65a3.64 3.64 0 0 0-.922 1.799c-.075.391-.075 5.833 0 6.224a3.6 3.6 0 0 0 1.615 2.363l.301.192.022.569c.029.778.141 1.055.581 1.439.473.413 1.385.413 1.858 0 .397-.346.537-.651.576-1.25l.027-.405h12.936l.027.405c.039.599.179.904.576 1.25.473.413 1.385.413 1.858 0 .44-.384.552-.661.581-1.439l.022-.569.301-.192a3.5 3.5 0 0 0 1.646-2.658c.022-.207.04-1.475.04-2.817s-.018-2.61-.04-2.817c-.087-.83-.396-1.506-.957-2.098-.237-.251-.607-.532-.852-.649l-.15-.071-.001-.902c-.001-1.329-.068-1.806-.341-2.424-.387-.876-1.245-1.61-2.225-1.905-.272-.082-.387-.09-1.633-.101a529 529 0 0 0-8.74-.012m1.9 5.999v3H7.52l-.001-.23c-.002-.636-.123-1.257-.341-1.751-.28-.633-.937-1.331-1.508-1.603l-.15-.071V5.792l.136-.136.136-.136h4.688zm7.864-2.864.136.136v2.073l-.15.071c-.649.309-1.334 1.094-1.602 1.835-.153.423-.199.674-.233 1.271l-.027.478H13.52v-6h4.688zM4.34 10.652l.131.131.018 1.039c.016.907.029 1.07.101 1.288a2.09 2.09 0 0 0 1.35 1.317c.228.069.536.073 6.06.073s5.832-.004 6.06-.073a2.09 2.09 0 0 0 1.35-1.317c.072-.218.085-.381.101-1.288l.018-1.039.131-.131c.115-.115.158-.132.34-.132s.224.016.344.136l.136.136v5.407l-.114.128c-.095.106-.155.133-.35.157-.308.038-15.724.038-16.032 0-.195-.024-.255-.051-.35-.157l-.114-.128v-5.407l.136-.136c.12-.12.161-.136.344-.136s.225.017.34.132"/></svg>