<svg xmlns="http://www.w3.org/2000/svg" width="24" height="24" fill="none" stroke="currentColor" stroke-linecap="round" stroke-linejoin="round" stroke-width="3"><path fill="#000" fill-rule="evenodd" stroke="none" d="M5.798 1.576c-.446.171-.727.423-.912.817-.091.196-.106.279-.106.607 0 .335.014.41.116.632.078.169.188.316.334.45l.217.199-.259.349c-.445.602-.61 1.007-.668 1.647-.091 1.007.326 2.012 1.146 2.762.278.254.534.386.84.435.937.15 1.793-.622 1.723-1.554-.03-.395-.151-.663-.449-.994-.143-.159-.26-.315-.26-.347s.118-.216.262-.409c.299-.401.542-.873.642-1.25.09-.34.091-1.006.002-1.373A2.82 2.82 0 0 0 6.965 1.69c-.265-.132-.331-.148-.66-.158-.238-.007-.415.008-.507.044m5 0c-.446.171-.727.423-.912.817-.091.196-.106.279-.106.607 0 .335.014.41.116.632q.117.251.331.448l.215.196-.262.358c-.518.709-.679 1.211-.649 2.026.022.575.096.877.331 1.345.254.503.864 1.175 1.227 1.349a1.51 1.51 0 0 0 1.683-.292c.379-.379.528-.873.415-1.374-.072-.319-.163-.481-.462-.82-.113-.128-.205-.26-.205-.294s.107-.204.238-.377c.524-.696.722-1.232.722-1.955 0-1.133-.562-2.08-1.515-2.553-.264-.131-.331-.147-.66-.157-.238-.007-.415.008-.507.044m5 0c-.446.171-.727.423-.912.817-.091.196-.106.279-.106.607 0 .335.014.41.116.632.078.169.188.316.334.45l.217.199-.259.349a5 5 0 0 0-.383.598c-.425.848-.4 1.871.067 2.797.245.485.861 1.158 1.217 1.329a1.51 1.51 0 0 0 1.683-.292c.379-.379.528-.873.415-1.374-.072-.319-.163-.481-.462-.82-.113-.128-.205-.258-.205-.29s.118-.215.262-.408c.299-.401.542-.873.642-1.25.09-.34.091-1.006.002-1.373a2.82 2.82 0 0 0-1.461-1.857c-.265-.132-.331-.148-.66-.158-.238-.007-.415.008-.507.044m5.762 2.995c-.386.135-.713.403-.876.717-.049.095-.561 1.306-1.138 2.692l-1.048 2.52-7.959.02-7.959.02-.228.116a1.51 1.51 0 0 0-.831 1.138c-.04.284.012 1.251.098 1.791a10.56 10.56 0 0 0 3.668 6.488l.348.291-.06.168c-.033.093-.06.305-.061.474-.001.627.345 1.14.938 1.389l.248.105h10.6l.248-.105c.593-.249.939-.762.938-1.389a1.8 1.8 0 0 0-.064-.482c-.061-.171-.06-.178.026-.238.205-.144.678-.57 1.045-.943a10.4 10.4 0 0 0 2.985-6.736c.039-.664.009-.959-.13-1.257-.103-.221-.373-.519-.557-.614-.09-.047-.103-.072-.074-.146.019-.05.413-.999.875-2.11.516-1.237.858-2.113.884-2.26.11-.621-.225-1.255-.825-1.559-.196-.1-.285-.119-.591-.129-.211-.006-.418.01-.5.039m-2.266 9.179c-.644 2.547-2.515 4.575-4.95 5.367-.931.303-1.193.341-2.344.341-.915 0-1.063-.01-1.44-.092-1.534-.335-2.799-1.015-3.854-2.071a7.46 7.46 0 0 1-1.961-3.405l-.099-.37h14.706z"/></svg>