<svg xmlns="http://www.w3.org/2000/svg" width="24" height="24" fill="none" stroke="currentColor" stroke-linecap="round" stroke-linejoin="round" stroke-width="3"><path fill="#000" fill-rule="evenodd" stroke="none" d="M1.516 15.577c-.561.215-.918.668-1.004 1.274-.06.422-.014 1.466.078 1.792.236.825 1.001 1.572 1.828 1.785.268.068.74.072 9.582.072s9.314-.004 9.582-.072c.827-.213 1.592-.96 1.828-1.785.092-.326.138-1.37.078-1.792-.078-.547-.364-.954-.84-1.195-.208-.106-.264-.116-.648-.116s-.44.01-.648.116c-.592.3-.868.818-.871 1.634l-.001.23H3.52l-.001-.23c-.003-.815-.279-1.335-.869-1.633-.195-.099-.28-.116-.608-.125-.253-.007-.431.008-.526.045"/></svg>