<svg xmlns="http://www.w3.org/2000/svg" width="24" height="24" fill="none" stroke="currentColor" stroke-linecap="round" stroke-linejoin="round" stroke-width="3"><path fill="#000" fill-rule="evenodd" stroke="none" d="M11.516.577a2.3 2.3 0 0 0-.32.163c-.184.114-5.963 5.854-7.39 7.341-1.451 1.511-1.995 2.22-2.541 3.309-.876 1.748-.997 3.649-.346 5.47a6.99 6.99 0 0 0 4.221 4.221c.833.298 1.483.406 2.44.406q1.464 0 2.585-.436l.304-.118.02.683c.017.613.029.71.12.932.239.59.756.938 1.391.938s1.152-.348 1.391-.938c.091-.222.103-.319.12-.932l.02-.683.304.118c1.254.487 3.091.581 4.405.225 1.274-.345 2.294-.93 3.2-1.836 1.893-1.893 2.54-4.642 1.679-7.138a8.7 8.7 0 0 0-1.244-2.311c-.724-.957-1.511-1.779-5.781-6.033C12.462.339 12.711.55 12.042.532q-.382-.01-.526.045m3.928 7.013c2.184 2.189 3.543 3.582 3.756 3.85.616.775.936 1.34 1.146 2.025.099.323.109.414.112 1.015.002.702-.044.984-.243 1.492a4.1 4.1 0 0 1-1.664 1.955c-.747.447-1.535.621-2.493.55-1.114-.084-1.786-.408-2.792-1.348-.221-.207-.486-.418-.589-.471a1.6 1.6 0 0 0-1.356.001c-.104.053-.361.258-.572.456-.998.94-1.696 1.279-2.807 1.362-1.184.088-2.161-.212-3.026-.93-.495-.41-.982-1.12-1.188-1.729-.168-.494-.219-.874-.198-1.454.016-.431.043-.618.127-.899.201-.676.523-1.246 1.143-2.025.213-.268 1.572-1.661 3.756-3.85C10.438 5.704 11.988 4.16 12 4.16s1.562 1.544 3.444 3.43"/></svg>