<svg xmlns="http://www.w3.org/2000/svg" width="24" height="24" fill="none" stroke="currentColor" stroke-linecap="round" stroke-linejoin="round" stroke-width="3"><path fill="#000" fill-rule="evenodd" stroke="none" d="M11.356.615A2.01 2.01 0 0 0 10.22 1.62c-.098.205-.35 1.123-.946 3.44-.761 2.964-.819 3.168-.933 3.282-.114.115-.306.169-3.281.934-2.307.592-3.236.847-3.44.945a1.97 1.97 0 0 0-.795.706c-.643.979-.257 2.363.795 2.855.197.092 1.213.37 3.44.943 2.969.763 3.167.819 3.281.933s.171.314.932 3.282c.897 3.494.925 3.579 1.304 3.952.417.41.857.594 1.423.594.571 0 1.056-.211 1.466-.638.335-.349.386-.508 1.259-3.908.763-2.969.819-3.167.933-3.281s.314-.171 3.282-.932c3.498-.898 3.578-.925 3.954-1.306.403-.41.597-.871.597-1.421 0-.552-.196-1.016-.598-1.418-.384-.384-.464-.411-3.952-1.308-2.689-.691-3.177-.827-3.275-.915-.108-.096-.17-.314-.946-3.323-.598-2.318-.865-3.288-.953-3.462-.215-.425-.64-.789-1.123-.959a2.16 2.16 0 0 0-1.288 0m.743 6.275c.418 1.637.594 2.266.703 2.515a3.55 3.55 0 0 0 1.792 1.793c.162.07.846.271 1.52.446a62 62 0 0 1 1.286.34c.033.014-.525.175-1.24.36-1.332.344-1.713.482-2.143.778a4 4 0 0 0-.887.888c-.355.516-.421.714-1.033 3.1-.041.16-.085.29-.098.29s-.168-.564-.347-1.254-.382-1.388-.453-1.55a3.6 3.6 0 0 0-.782-1.113c-.608-.569-.942-.717-2.547-1.13-.699-.18-1.27-.338-1.27-.352s.568-.172 1.263-.351c1.648-.426 2-.587 2.6-1.187.604-.605.758-.942 1.189-2.609.179-.69.335-1.254.349-1.254s.057.13.098.29"/></svg>