<svg xmlns="http://www.w3.org/2000/svg" width="24" height="24" fill="none" stroke="currentColor" stroke-linecap="round" stroke-linejoin="round" stroke-width="3"><path fill="#000" fill-rule="evenodd" stroke="none" d="M6.34 1.44a6.82 6.82 0 0 0-3.791 1.933A6.66 6.66 0 0 0 .887 6.02c-.32.941-.423 1.774-.364 2.957.066 1.334.182 1.873.697 3.223.343.899.432 1.31.434 2.02.002.315-.02.665-.049.8a405 405 0 0 1-.551 2.4 129 129 0 0 0-.536 2.377c-.045.274.036.698.183.948.223.38.62.654 1.069.737.604.111 1.293-.249 1.569-.819.129-.267 1.24-5.092 1.305-5.663.057-.512.026-1.482-.063-1.972a9 9 0 0 0-.487-1.707c-.52-1.364-.549-1.513-.552-2.801-.002-1.093.034-1.283.378-1.98A3.9 3.9 0 0 1 5.7 4.759c.629-.312.911-.374 1.72-.376.592-.002.721.01.995.089.72.207 1.25.509 1.753.999a4.1 4.1 0 0 1 1.08 1.853c.087.332.089.377.102 3.504.013 3.073.011 3.174-.065 3.32a.77.77 0 0 1-.414.39c-.136.057-.223.054-1.112-.041-.832-.089-1.002-.097-1.241-.057-.498.084-.919.441-1.127.954l-.091.226v4.68l.105.248c.25.595.761.938 1.395.938s1.146-.344 1.394-.938c.104-.248.104-.25.119-1.608l.014-1.36.427-.003c1.476-.01 2.921-1.081 3.402-2.519.066-.197.138-.475.161-.618.027-.166.042-1.418.042-3.46 0-3.447-.007-3.587-.216-4.407-.311-1.222-.863-2.203-1.76-3.127C11.3 2.33 9.965 1.653 8.395 1.422a8 8 0 0 0-2.055.018m12.909 4.364c-.285.111-.655.46-.797.749-.101.205-.112.268-.112.647 0 .381.01.44.112.64.062.121.263.387.447.591 1.05 1.166 1.58 2.529 1.58 4.069 0 1.15-.265 2.099-.869 3.12q-.262.442-.876 1.135c-.311.352-.42.624-.42 1.051 0 .627.351 1.148.931 1.382.476.193 1.127.099 1.484-.213.441-.385 1.093-1.2 1.484-1.855.859-1.441 1.269-2.934 1.269-4.628a8.8 8.8 0 0 0-1.472-4.946c-.509-.775-1.208-1.533-1.57-1.703-.306-.143-.879-.162-1.191-.039M16.64 8.576a1.32 1.32 0 0 0-.728.411 1.48 1.48 0 0 0-.425.953c-.026.483.101.784.539 1.273.532.597.645 1.495.277 2.22a3.4 3.4 0 0 1-.356.498c-.325.382-.433.649-.433 1.069 0 .925.781 1.602 1.704 1.477.338-.046.611-.194.897-.487a5.04 5.04 0 0 0 1.345-2.683 5 5 0 0 0-1.279-4.178c-.332-.353-.575-.503-.918-.566-.285-.052-.339-.051-.623.013"/></svg>