<svg xmlns="http://www.w3.org/2000/svg" width="24" height="24" fill="none" stroke="currentColor" stroke-linecap="round" stroke-linejoin="round" stroke-width="3"><path fill="#000" fill-rule="evenodd" stroke="none" d="M11.486 2.598c-.229.084-.43.222-.615.42-.064.068-1.48 2.853-3.214 6.322-2.312 4.625-3.11 6.255-3.139 6.418-.076.427.104.985.416 1.288.226.218.44.339.741.416.306.078.653.033.995-.129.418-.197.498-.32 1.413-2.143l.838-1.67h6.158l.838 1.67c.915 1.823.995 1.946 1.413 2.143.342.162.689.207.995.129a1.5 1.5 0 0 0 1.151-1.259c.026-.158.027-.326.004-.456-.026-.148-.916-1.966-3.134-6.407-3.405-6.815-3.192-6.429-3.698-6.683-.305-.154-.833-.18-1.162-.059M12.79 8.94c.424.847.77 1.549.77 1.56s-.702.02-1.56.02-1.56-.009-1.56-.02c0-.039 1.54-3.1 1.56-3.1.011 0 .367.693.79 1.54m-7.107 9.623a3.23 3.23 0 0 0-1.552.809c-.097.091-.184.129-.353.152a1.55 1.55 0 0 0-.842.432c-.574.566-.57 1.52.009 2.099.35.35.791.486 1.369.421.66-.074 1.104-.278 1.71-.785.113-.094.226-.171.252-.171s.191.117.367.26c.611.497 1.179.704 1.937.705.808.001 1.342-.207 2.044-.794.113-.094.218-.171.234-.171s.174.116.352.258c.616.493 1.21.706 1.97.707.808.001 1.342-.207 2.044-.794.113-.094.218-.171.234-.171s.174.116.352.258c.616.493 1.21.706 1.97.707.81.001 1.342-.207 2.047-.797.173-.144.249-.179.45-.208.133-.018.341-.079.462-.134.251-.115.577-.421.692-.65a1.504 1.504 0 0 0-.821-2.097c-.203-.077-.284-.085-.69-.067-.487.021-.841.107-1.22.297-.219.11-.68.438-.798.569-.041.045-.096.082-.123.082s-.164-.095-.306-.211c-.375-.308-.622-.455-.998-.598-.323-.123-.357-.128-.955-.129-.671-.002-.96.056-1.419.287-.22.11-.681.438-.799.569-.041.045-.096.082-.123.082s-.164-.095-.306-.211c-.375-.308-.622-.455-.998-.598-.323-.123-.357-.128-.955-.129-.541-.002-.658.01-.92.092a3.1 3.1 0 0 0-1.08.586c-.143.121-.282.23-.31.244-.027.013-.139-.057-.25-.156a3 3 0 0 0-1.399-.731c-.286-.061-.999-.068-1.278-.014"/></svg>