<svg xmlns="http://www.w3.org/2000/svg" width="24" height="24" fill="none" stroke="currentColor" stroke-linecap="round" stroke-linejoin="round" stroke-width="3"><path fill="#000" fill-rule="evenodd" stroke="none" d="M2.724 1.53c-.416.06-.862.392-1.065.792-.172.339-.184.581-.171 3.362L1.5 8.3l.105.248c.25.595.761.938 1.395.938.635 0 1.151-.347 1.392-.938.093-.228.103-.313.125-1.059l.023-.811 2.766 2.771c2.558 2.562 2.777 2.792 2.906 3.051.261.526.243.182.267 5.2l.021 4.6.105.248c.25.595.761.938 1.395.938s1.145-.343 1.395-.938l.105-.248.012-4.18c.008-2.644-.003-4.393-.029-4.76-.085-1.173-.423-2.096-1.115-3.04-.132-.18-1.318-1.401-2.962-3.05L6.663 4.52l.639-.001c1.048-.001 1.378-.089 1.753-.464.726-.726.523-1.928-.407-2.399L8.42 1.54l-.98-.01c-2.68-.027-4.53-.027-4.716 0m15.496-.011-2.64.021-.228.116c-.93.471-1.133 1.673-.407 2.399.375.375.705.463 1.753.464l.638.001-1.786 1.792c-1.542 1.546-1.802 1.824-1.892 2.022a1.502 1.502 0 0 0 2.008 2.008c.198-.09.475-.35 2.017-1.886l1.787-1.782.018.813c.017.756.025.83.12 1.061.241.591.757.938 1.392.938s1.145-.343 1.395-.938L22.5 8.3l.012-2.616c.013-2.781.001-3.023-.171-3.362a1.73 1.73 0 0 0-.662-.662c-.178-.091-.624-.191-.759-.17-.033.005-1.248.018-2.7.029"/></svg>