<svg xmlns="http://www.w3.org/2000/svg" width="24" height="24" fill="none" stroke="currentColor" stroke-linecap="round" stroke-linejoin="round" stroke-width="3"><path fill="#000" fill-rule="evenodd" stroke="none" d="M18.44 1.545c-1.121.216-2.076.913-2.573 1.88-.063.123-.075.127-.476.175-2.09.25-4.083.982-5.831 2.142a13.47 13.47 0 0 0-5.521 7.486c-.187.64-.371 1.536-.442 2.148-.048.421-.054.437-.169.5-.996.537-1.679 1.446-1.869 2.488-.06.328-.06.944 0 1.272a3.56 3.56 0 0 0 2.109 2.593c.451.184.832.258 1.332.258a3.4 3.4 0 0 0 1.971-.604c1.409-.973 1.905-2.764 1.206-4.347-.249-.561-.822-1.203-1.351-1.512l-.267-.155.025-.205c.014-.112.069-.429.123-.704.808-4.15 4.103-7.445 8.253-8.253.275-.054.59-.108.7-.121l.2-.023.179.287a3.59 3.59 0 0 0 2.251 1.576 4.3 4.3 0 0 0 1.42 0 3.513 3.513 0 0 0 2.765-3.772c-.123-1.217-.83-2.232-1.942-2.788-.479-.24-.797-.313-1.433-.327a7 7 0 0 0-.66.006m.904 3.111c.119.119.136.162.136.337 0 .242-.129.424-.343.483a.5.5 0 0 1-.514-.16c-.081-.096-.103-.166-.103-.323 0-.175.017-.218.136-.337s.161-.136.344-.136.224.016.344.136m-14 14c.119.119.136.162.136.337 0 .242-.129.424-.343.483a.5.5 0 0 1-.514-.16c-.081-.096-.103-.166-.103-.323 0-.175.017-.218.136-.337s.161-.136.344-.136.224.016.344.136"/></svg>