<svg xmlns="http://www.w3.org/2000/svg" width="24" height="24" fill="none" stroke="currentColor" stroke-linecap="round" stroke-linejoin="round" stroke-width="3"><path fill="#000" fill-rule="evenodd" stroke="none" d="M2.516 1.577c-1.049.399-1.349 1.701-.571 2.478.58.58 1.53.583 2.107.007a1.47 1.47 0 0 0 0-2.124c-.292-.292-.55-.395-1.012-.407-.247-.006-.431.01-.524.046m4 2c-1.049.399-1.349 1.701-.571 2.478.71.71 1.942.519 2.393-.371a1.48 1.48 0 0 0-.286-1.746c-.292-.292-.55-.395-1.012-.407-.247-.006-.431.01-.524.046m8 .001a1.54 1.54 0 0 0-.998 1.232c-.02.138-.037.996-.037 1.907l-.001 1.656-.85.864c-.936.95-1.035 1.092-1.11 1.583-.029.19-.039 1.936-.031 5.46l.011 5.18.112.332c.276.815.911 1.41 1.748 1.637.239.065.533.071 3.64.071s3.401-.006 3.64-.071a2.47 2.47 0 0 0 1.423-.993c.243-.357.364-.694.418-1.159.054-.47.051-10.135-.003-10.477-.075-.473-.18-.621-1.108-1.563l-.85-.864-.001-1.656c0-.911-.017-1.769-.037-1.907a1.51 1.51 0 0 0-.834-1.154l-.228-.116-2.38-.008c-1.91-.006-2.409.003-2.524.046m-12 1.999c-1.049.399-1.349 1.701-.571 2.478.58.58 1.53.583 2.107.007a1.47 1.47 0 0 0 0-2.124c-.292-.292-.55-.395-1.012-.407-.247-.006-.431.01-.524.046m8 0c-1.049.399-1.349 1.701-.571 2.478.58.58 1.53.583 2.107.007a1.47 1.47 0 0 0 0-2.124c-.292-.292-.55-.395-1.012-.407-.247-.006-.431.01-.524.046M17.48 7.02v.5h-.96v-1h.96zm-10.964.557c-1.049.399-1.349 1.701-.571 2.478.58.58 1.53.583 2.107.007a1.47 1.47 0 0 0 0-2.124c-.292-.292-.55-.395-1.012-.407-.247-.006-.431.01-.524.046m-4 2c-1.049.399-1.349 1.701-.571 2.478.58.58 1.53.583 2.107.007a1.47 1.47 0 0 0 0-2.124c-.292-.292-.55-.395-1.012-.407-.247-.006-.431.01-.524.046m16.098 1.177.232.234-2.163.541-2.163.541v-.449l.549-.55.55-.551h2.764zm.866 4.121v.955l-2.48.62-2.48.62v-1.9l2.47-.621 2.48-.625c.006-.002.01.426.01.951m0 4.845v.8h-4.96v-.35l2.47-.621 2.48-.625c.006-.002.01.356.01.796"/></svg>