<svg xmlns="http://www.w3.org/2000/svg" width="24" height="24" fill="none" stroke="currentColor" stroke-linecap="round" stroke-linejoin="round" stroke-width="3"><path fill="#000" fill-rule="evenodd" stroke="none" d="M17.9 2.584c-.948.117-1.922.383-2.672.73-1.1.51-2.176 1.444-2.641 2.295-.583 1.066-.922 2.114-1.032 3.199l-.047.452-.485-.485C9.964 7.716 8.739 7.153 7.065 6.956c-.584-.068-2.021-.026-2.76.081-.883.129-1.075.208-1.416.581-.255.278-.39.623-.386.982.006.509.589 2.015 1.134 2.929 1.068 1.792 2.61 2.887 4.559 3.238.571.103 1.707.121 2.416.038.259-.03.481-.045.494-.033.051.052.173 1.124.173 1.534.002.918-.32 1.421-1.287 2.015L9.7 18.5l-1.56.02-1.56.02-.228.116a1.51 1.51 0 0 0-.829 1.126 1.494 1.494 0 0 0 1.287 1.7c.327.047 10.053.047 10.38 0a1.494 1.494 0 0 0 1.287-1.7 1.51 1.51 0 0 0-.829-1.126l-.228-.116-1.77-.012c-.973-.006-1.77-.021-1.77-.033s.062-.205.137-.429c.362-1.074.363-1.909.004-4.226-.127-.821-.17-1.639-.105-2.021.072-.424.06-.407.315-.438.45-.054 1.198-.23 1.725-.406 1.058-.353 1.935-.858 2.524-1.454 1.177-1.192 1.831-2.843 1.994-5.03.037-.506.002-.857-.112-1.115-.109-.248-.439-.581-.711-.719-.217-.11-.263-.117-.751-.125a9 9 0 0 0-1 .052m-.684 3.286c-.047.2-.258.679-.408.926-.336.553-.595.795-1.148 1.074-.24.121-.94.382-.94.351 0-.072.243-.667.388-.95.307-.598.913-1.075 1.772-1.395.165-.062.314-.113.331-.114s.019.048.005.108m-9.832 4.189c.473.118 1.029.387 1.345.651.346.29.871.972.871 1.133 0 .075-.734.011-1.184-.103-.598-.152-1.036-.403-1.498-.86-.343-.34-.629-.706-.705-.903-.024-.065.004-.068.374-.044.221.015.579.071.797.126"/></svg>