<svg xmlns="http://www.w3.org/2000/svg" width="24" height="24" fill="none" stroke="currentColor" stroke-linecap="round" stroke-linejoin="round" stroke-width="3"><path fill="#000" fill-rule="evenodd" stroke="none" d="M4.44 1.546c-1.366.257-2.406 1.178-2.798 2.479-.104.348-.16.894-.12 1.186.164 1.209 1.668 1.71 2.533.844.25-.25.377-.525.44-.955.068-.467.138-.537.605-.605.43-.063.705-.19.955-.44.726-.726.522-1.929-.407-2.399-.207-.105-.269-.117-.668-.123a5 5 0 0 0-.54.013m4.076.031c-1.048.396-1.349 1.701-.571 2.478.353.354.721.463 1.555.463s1.202-.109 1.555-.463c.726-.726.523-1.928-.407-2.399l-.228-.116-.88-.009c-.663-.006-.916.005-1.024.046m5 0c-1.048.396-1.349 1.701-.571 2.478.353.354.721.463 1.555.463s1.202-.109 1.555-.463c.726-.726.523-1.928-.407-2.399l-.228-.116-.88-.009c-.663-.006-.916.005-1.024.046m5-.001c-1.051.406-1.349 1.701-.571 2.479.25.25.525.377.955.44.467.068.537.138.605.605.063.43.19.705.44.955.865.866 2.369.365 2.533-.844a3 3 0 0 0-.004-.564 3.51 3.51 0 0 0-2.521-3.01c-.378-.109-1.22-.145-1.437-.061m-16 6.001c-.371.142-.711.446-.864.774-.137.294-.184.691-.161 1.371.017.499.034.617.119.828.237.587.755.936 1.39.936s1.153-.349 1.39-.936c.085-.211.102-.329.119-.828.033-.973-.075-1.401-.445-1.766a2 2 0 0 0-.414-.299c-.195-.099-.28-.116-.608-.125-.253-.007-.431.008-.526.045m18 0c-.371.142-.711.446-.864.774-.149.319-.181.681-.164 1.869.015 1.052.018 1.086.118 1.328.246.593.759.938 1.394.938s1.148-.345 1.394-.938c.1-.242.103-.276.118-1.328.017-1.187-.015-1.549-.163-1.869-.124-.266-.406-.546-.699-.694-.195-.099-.28-.116-.608-.125-.253-.007-.431.008-.526.045m-8.956 2.994c-.729.256-1.147.924-1.033 1.651.021.137.816 2.176 2.077 5.329a815 815 0 0 0 2.096 5.21c.077.149.366.428.563.543.093.054.296.125.453.158.25.052.317.052.567 0 .414-.086.756-.321.982-.672.053-.083.428-.99.833-2.016.406-1.026.754-1.882.774-1.902s.893-.375 1.939-.789c1.12-.442 1.97-.801 2.065-.871.478-.352.704-.931.585-1.502a1.48 1.48 0 0 0-.786-1.031c-.123-.063-2.481-1.019-5.24-2.123l-5.015-2.009-.36-.013c-.216-.007-.416.007-.5.037m-9.044 2.006c-.371.142-.711.446-.864.774-.137.294-.184.691-.161 1.371.017.499.034.617.119.828.237.587.755.936 1.39.936s1.153-.349 1.39-.936c.085-.211.102-.329.119-.828.033-.973-.075-1.401-.445-1.766a2 2 0 0 0-.414-.299c-.195-.099-.28-.116-.608-.125-.253-.007-.431.008-.526.045M16.4 15.376c1.348.54 1.528.622 1.44.656-.889.349-.974.394-1.206.635-.197.205-.293.371-.449.779-.213.558-.116.682-.809-1.046-.732-1.827-.685-1.695-.59-1.664.041.013.767.301 1.614.64M2.516 17.577c-.371.142-.711.446-.864.775-.13.277-.168.584-.126 1.005.142 1.427 1.145 2.613 2.554 3.019.306.088.862.138 1.131.102a1.5 1.5 0 0 0 1.266-1.26c.117-.86-.454-1.586-1.334-1.698-.493-.062-.592-.16-.655-.648-.073-.56-.356-.971-.838-1.215-.195-.099-.28-.116-.608-.125-.253-.007-.431.008-.526.045m6 2.001c-.531.199-.921.672-.993 1.204a1.494 1.494 0 0 0 1.287 1.7c.138.02.673.036 1.19.036s1.052-.016 1.19-.036a1.494 1.494 0 0 0 1.287-1.7 1.51 1.51 0 0 0-.829-1.126l-.228-.116-1.38-.008c-1.079-.007-1.412.003-1.524.046"/></svg>