<svg xmlns="http://www.w3.org/2000/svg" width="24" height="24" fill="none" stroke="currentColor" stroke-linecap="round" stroke-linejoin="round" stroke-width="3"><path fill="#000" fill-rule="evenodd" stroke="none" d="M19.147.583c-.683.152-1.209.43-1.779.941-.74.662-9.271 9.247-9.437 9.496-.358.538-.374.578-.959 2.56-.435 1.473-.46 1.58-.462 1.92-.002.552.154.952.529 1.355.337.362.694.549 1.198.627.376.059.522.028 2.223-.467 1.854-.54 1.983-.588 2.52-.946.304-.202 9.532-9.42 9.8-9.789.243-.334.423-.694.561-1.12.094-.289.113-.426.127-.92.016-.526.008-.617-.084-.977-.336-1.299-1.261-2.251-2.551-2.626-.393-.114-1.289-.143-1.686-.054M4.44 1.547a3.56 3.56 0 0 0-2.888 2.841c-.076.399-.076 14.825 0 15.224.221 1.168 1.036 2.177 2.116 2.617.716.292.076.271 8.332.271 6.835 0 7.443-.005 7.71-.068a3.7 3.7 0 0 0 1.798-1.004c.573-.6.883-1.272.971-2.111.05-.475.053-7.163.003-7.507a1.51 1.51 0 0 0-.834-1.154c-.208-.106-.264-.116-.648-.116s-.44.01-.648.116a1.51 1.51 0 0 0-.834 1.154c-.02.138-.037 1.855-.037 3.817l-.001 3.567-.103.122a.6.6 0 0 1-.25.163c-.204.056-14.05.056-14.254 0a.6.6 0 0 1-.25-.163l-.103-.122V4.792l.136-.136.136-.136 3.574-.001c1.966 0 3.686-.017 3.824-.037a1.494 1.494 0 0 0 1.287-1.7 1.51 1.51 0 0 0-.829-1.126l-.228-.116-3.94-.005c-2.167-.003-3.985.003-4.04.012M20.19 3.6c.262.159.371.532.233.792-.032.059-2.125 2.173-4.65 4.697l-4.593 4.59-.57.167c-.314.092-.582.155-.596.141s.049-.283.142-.597l.168-.57 4.568-4.574c2.513-2.516 4.622-4.608 4.688-4.65.16-.101.442-.099.61.004"/></svg>