<svg xmlns="http://www.w3.org/2000/svg" width="24" height="24" fill="none" stroke="currentColor" stroke-linecap="round" stroke-linejoin="round" stroke-width="3"><path fill="#000" fill-rule="evenodd" stroke="none" d="M4.44 1.547a3.56 3.56 0 0 0-2.888 2.841c-.04.208-.052 1.05-.052 3.592v3.32l.105.248c.25.595.761.938 1.395.938s1.145-.343 1.395-.938L4.5 11.3l.02-3.273.02-3.274.131-.116.13-.117h14.407l.136.136.136.136v14.397l-.083.106a.7.7 0 0 1-.17.155c-.067.038-.856.055-3.367.07l-3.28.02-.228.116c-.93.471-1.133 1.673-.407 2.399.241.241.53.38.898.431.171.024 1.521.033 3.449.023 3.5-.017 3.372-.008 4.044-.282a3.6 3.6 0 0 0 1.575-1.293 3.5 3.5 0 0 0 .568-1.617c.054-.511.054-14.123 0-14.634-.154-1.464-1.103-2.611-2.526-3.052l-.293-.091-7.56-.005c-4.158-.002-7.605.003-7.66.012m7.076 9.03a2.3 2.3 0 0 0-.32.163c-.097.06-1.638 1.569-3.426 3.354l-3.25 3.245-.001-1.14c0-.626-.017-1.251-.037-1.389a1.51 1.51 0 0 0-.834-1.154c-.208-.106-.264-.116-.648-.116s-.44.01-.648.116a1.51 1.51 0 0 0-.834 1.154c-.052.355-.048 6.106.004 6.424.053.327.187.588.421.823.235.234.496.368.823.421.318.052 6.069.056 6.424.004a1.494 1.494 0 0 0 1.287-1.7 1.51 1.51 0 0 0-.829-1.126l-.228-.116-1.397-.012-1.397-.012 3.305-3.308c2.931-2.934 3.317-3.334 3.41-3.54.355-.775.061-1.631-.691-2.011-.195-.099-.28-.116-.608-.125q-.382-.01-.526.045"/></svg>