<svg xmlns="http://www.w3.org/2000/svg" width="24" height="24" fill="none" stroke="currentColor" stroke-linecap="round" stroke-linejoin="round" stroke-width="3"><path fill="#000" fill-rule="evenodd" stroke="none" d="M4.44 1.547a3.56 3.56 0 0 0-2.888 2.841c-.076.399-.076 14.825 0 15.224.221 1.168 1.036 2.177 2.116 2.617.716.292.076.271 8.332.271 6.835 0 7.443-.005 7.71-.068a3.7 3.7 0 0 0 1.798-1.004c.573-.6.883-1.272.971-2.111.054-.511.054-14.123 0-14.634-.154-1.464-1.103-2.611-2.526-3.052l-.293-.091-7.56-.005c-4.158-.002-7.605.003-7.66.012m14.904 3.109.136.136v14.402l-.103.122a.6.6 0 0 1-.25.163c-.204.056-14.05.056-14.254 0a.6.6 0 0 1-.25-.163l-.103-.122V4.792l.136-.136.136-.136h14.416zm-11.828.921c-.557.213-.919.67-1.001 1.261-.023.163-.034 1.736-.027 3.869L6.5 14.3l.105.248c.25.595.761.938 1.395.938s1.145-.343 1.395-.938L9.5 14.3l.012-3.593c.007-2.133-.004-3.706-.027-3.869a1.5 1.5 0 0 0-.835-1.181c-.195-.099-.28-.116-.608-.125q-.382-.01-.526.045m4 0c-.559.214-.919.67-1.002 1.267-.023.165-.034 1.152-.027 2.369L10.5 11.3l.105.248c.25.595.761.938 1.395.938s1.145-.343 1.395-.938l.105-.248.013-2.087c.007-1.217-.004-2.204-.027-2.369-.075-.537-.364-.948-.836-1.187-.195-.099-.28-.116-.608-.125q-.382-.01-.526.045m4 0c-.556.213-.919.67-1.001 1.258-.022.163-.033 2.13-.026 4.869L14.5 16.3l.105.248c.25.595.761.938 1.395.938s1.145-.343 1.395-.938l.105-.248.011-4.596c.007-2.739-.004-4.706-.026-4.869a1.51 1.51 0 0 0-.835-1.178c-.195-.099-.28-.116-.608-.125q-.381-.01-.526.045"/></svg>