<svg xmlns="http://www.w3.org/2000/svg" width="24" height="24" fill="none" stroke="currentColor" stroke-linecap="round" stroke-linejoin="round" stroke-width="3"><path fill="#000" fill-rule="evenodd" stroke="none" d="M4.44 1.547a3.56 3.56 0 0 0-2.888 2.841c-.076.399-.076 14.825 0 15.224.221 1.168 1.036 2.177 2.116 2.617.716.292.076.271 8.332.271 6.835 0 7.443-.005 7.71-.068a3.7 3.7 0 0 0 1.798-1.004c.573-.6.883-1.272.971-2.111.054-.511.054-14.123 0-14.634-.154-1.464-1.103-2.611-2.526-3.052l-.293-.091-7.56-.005c-4.158-.002-7.605.003-7.66.012m14.904 3.109.136.136v14.402l-.103.122a.6.6 0 0 1-.25.163c-.204.056-14.05.056-14.254 0a.6.6 0 0 1-.25-.163l-.103-.122V4.792l.136-.136.136-.136h14.416zM8.516 6.579a1.54 1.54 0 0 0-.998 1.231c-.052.356-.048 8.063.004 8.39.054.342.192.619.427.855.231.232.405.326.754.407.292.068.523.051.817-.06.237-.089 6.377-4.185 6.566-4.38s.348-.514.391-.785c.07-.437-.089-.957-.382-1.253-.226-.228-6.393-4.324-6.626-4.401-.232-.076-.751-.079-.953-.004m2.919 4.841c.464.308.843.569.843.58 0 .02-1.655 1.128-1.723 1.153-.02.008-.035-.491-.035-1.153s.015-1.161.035-1.153c.02.007.416.265.88.573"/></svg>