<svg xmlns="http://www.w3.org/2000/svg" width="24" height="24" fill="none" stroke="currentColor" stroke-linecap="round" stroke-linejoin="round" stroke-width="3"><path fill="#000" fill-rule="evenodd" stroke="none" d="M4.44 1.547a3.56 3.56 0 0 0-2.888 2.841c-.076.399-.076 14.825 0 15.224.221 1.168 1.036 2.177 2.116 2.617.716.292.076.271 8.332.271 6.835 0 7.443-.005 7.71-.068a3.7 3.7 0 0 0 1.798-1.004c.573-.6.883-1.272.971-2.111.054-.511.054-14.123 0-14.634-.154-1.464-1.103-2.611-2.526-3.052l-.293-.091-7.56-.005c-4.158-.002-7.605.003-7.66.012m14.904 3.109.136.136v7.2c0 7.011-.002 7.202-.076 7.293l-.076.094-.046-.18c-.431-1.672-1.403-3.142-2.742-4.15-.22-.165-.417-.316-.438-.335-.023-.02.011-.085.085-.164.386-.408.811-1.168 1.035-1.854a5.52 5.52 0 0 0 0-3.392c-.932-2.847-3.908-4.402-6.812-3.56-1.38.4-2.616 1.427-3.285 2.731a5.5 5.5 0 0 0-.347 4.221c.224.686.649 1.446 1.035 1.854.074.079.108.144.085.164a17 17 0 0 1-.418.316c-1.333.99-2.33 2.494-2.762 4.169l-.046.18-.076-.094c-.074-.091-.076-.282-.076-7.293v-7.2l.136-.136.136-.136h14.416zm-6.527 3.977a2.65 2.65 0 0 1 1.553 1.55c.076.205.088.316.088.817s-.012.612-.088.817a2.56 2.56 0 0 1-.638.969 2.4 2.4 0 0 1-1.092.635c-.286.076-.994.076-1.28 0-.773-.206-1.45-.834-1.726-1.604-.108-.299-.146-.987-.075-1.347.171-.872.938-1.674 1.812-1.895.328-.083 1.149-.05 1.446.058m.343 8.024c.441.122 1.163.464 1.48.701.305.228.732.652.969.962.208.273.643 1.108.607 1.166-.011.019-1.909.034-4.216.034s-4.205-.015-4.216-.034c-.036-.058.399-.893.607-1.166.237-.31.664-.734.969-.962.301-.225 1.033-.577 1.417-.681.515-.139.65-.153 1.343-.139.561.012.717.03 1.04.119"/></svg>