<svg xmlns="http://www.w3.org/2000/svg" width="24" height="24" fill="none" stroke="currentColor" stroke-linecap="round" stroke-linejoin="round" stroke-width="3"><path fill="#000" fill-rule="evenodd" stroke="none" d="M4.44 1.547a3.56 3.56 0 0 0-2.888 2.841c-.076.399-.076 14.825 0 15.224.221 1.168 1.036 2.177 2.116 2.617.716.292.076.271 8.332.271 6.835 0 7.443-.005 7.71-.068a3.7 3.7 0 0 0 1.798-1.004c.573-.6.883-1.272.971-2.111.054-.511.054-14.123 0-14.634-.154-1.464-1.103-2.611-2.526-3.052l-.293-.091-7.56-.005c-4.158-.002-7.605.003-7.66.012m14.904 3.109.136.136v14.402l-.103.122a.6.6 0 0 1-.25.163c-.204.056-14.05.056-14.254 0a.6.6 0 0 1-.25-.163l-.103-.122V4.792l.136-.136.136-.136h14.416zm-8.851.936c-.308.11-.647.393-.792.661a95 95 0 0 0-.895 2.188L7.98 10.5l-.7.02c-.673.019-.709.024-.928.136a1.51 1.51 0 0 0-.829 1.126 1.494 1.494 0 0 0 1.287 1.7c.343.05 2.07.047 2.39-.004a2 2 0 0 0 .467-.141c.285-.138.615-.502.743-.823.09-.223.106-.242.127-.154.014.055.249 1.225.524 2.6.538 2.692.556 2.756.865 3.072.232.238.456.36.79.43.557.116 1.112-.094 1.483-.56.07-.088.44-.959.961-2.263l.848-2.119.466-.001c.863-.001 1.225-.107 1.581-.464.726-.726.523-1.928-.407-2.399l-.228-.116-1.338-.012c-1.151-.01-1.366-.003-1.537.053-.434.142-.757.45-.952.907-.094.22-.11.238-.131.151a547 547 0 0 1-.523-2.596c-.34-1.701-.529-2.561-.594-2.7-.121-.259-.405-.539-.697-.687-.193-.098-.283-.118-.588-.127-.268-.007-.413.009-.567.063"/></svg>