<svg xmlns="http://www.w3.org/2000/svg" width="24" height="24" fill="none" stroke="currentColor" stroke-linecap="round" stroke-linejoin="round" stroke-width="3"><path fill="#000" fill-rule="evenodd" stroke="none" d="M4.44 1.547a3.56 3.56 0 0 0-2.888 2.841c-.076.399-.076 14.825 0 15.224.221 1.168 1.036 2.177 2.116 2.617.716.292.076.271 8.332.271 6.835 0 7.443-.005 7.71-.068a3.7 3.7 0 0 0 1.798-1.004c.573-.6.883-1.272.971-2.111.054-.511.054-14.123 0-14.634-.154-1.464-1.103-2.611-2.526-3.052l-.293-.091-7.56-.005c-4.158-.002-7.605.003-7.66.012m14.904 3.109.136.136v14.402l-.103.122a.6.6 0 0 1-.25.163c-.204.056-14.05.056-14.254 0a.6.6 0 0 1-.25-.163l-.103-.122V4.792l.136-.136.136-.136h14.416zM7.725 6.53c-.278.04-.555.187-.782.413-.239.239-.37.501-.424.844-.028.182-.038 1.639-.03 4.393L6.5 16.3l.105.248c.25.595.761.938 1.395.938s1.145-.343 1.395-.938L9.5 16.3l.012-2.316.013-2.317 2.787 2.784c2.46 2.456 2.815 2.797 3.02 2.89a1.502 1.502 0 0 0 2.009-2.009c-.093-.205-.434-.561-2.892-3.022l-2.787-2.79 2.139-.001c1.177 0 2.251-.017 2.389-.037a1.494 1.494 0 0 0 1.287-1.7 1.51 1.51 0 0 0-.829-1.126l-.228-.116L15 6.53c-3.855-.027-7.09-.027-7.275 0"/></svg>