<svg xmlns="http://www.w3.org/2000/svg" width="24" height="24" fill="none" stroke="currentColor" stroke-linecap="round" stroke-linejoin="round" stroke-width="3"><path fill="#000" fill-rule="evenodd" stroke="none" d="M4.44 1.547a3.56 3.56 0 0 0-2.888 2.841c-.076.399-.076 14.825 0 15.224.221 1.168 1.036 2.177 2.116 2.617.716.292.076.271 8.332.271 6.835 0 7.443-.005 7.71-.068a3.7 3.7 0 0 0 1.798-1.004c.573-.6.883-1.272.971-2.111.054-.511.054-14.123 0-14.634-.154-1.464-1.103-2.611-2.526-3.052l-.293-.091-7.56-.005c-4.158-.002-7.605.003-7.66.012m14.904 3.109.136.136v14.402l-.103.122c-.12.142-.307.203-.627.204h-.23l-.001-.23c-.001-.386-.075-.969-.16-1.254a3.52 3.52 0 0 0-2.427-2.406l-.312-.09H8.38l-.312.09c-1.076.312-1.977 1.136-2.34 2.141-.153.423-.199.674-.233 1.271l-.027.478h-.224c-.314-.001-.502-.062-.621-.204l-.103-.122V4.792l.136-.136.136-.136h14.416zm-8.067.902c-1.471.269-2.667 1.161-3.316 2.474a5.2 5.2 0 0 0-.402 1.248c-.059.334-.059 1.106 0 1.44.361 2.054 2.013 3.583 4.057 3.756 2.473.208 4.652-1.626 4.86-4.092a4.46 4.46 0 0 0-1.343-3.596 3.8 3.8 0 0 0-1.153-.81c-.678-.332-1.061-.423-1.86-.44-.363-.007-.742.002-.843.02m1.376 3.1c.272.138.573.445.709.722.085.174.098.255.098.62 0 .384-.01.44-.116.648a1.5 1.5 0 0 1-1.562.829 1.51 1.51 0 0 1-1.126-.829c-.106-.208-.116-.264-.116-.648 0-.365.013-.446.098-.62.173-.352.515-.664.878-.803q.144-.056.526-.045c.329.009.413.026.611.126m2.691 9.998c.135.135.136.139.136.5v.364H8.52v-.364c0-.361.001-.365.136-.5l.136-.136h6.416z"/></svg>