<svg xmlns="http://www.w3.org/2000/svg" width="24" height="24" fill="none" stroke="currentColor" stroke-linecap="round" stroke-linejoin="round" stroke-width="3"><path fill="#000" fill-rule="evenodd" stroke="none" d="M4.44 1.547a3.56 3.56 0 0 0-2.888 2.841c-.076.399-.076 14.825 0 15.224.221 1.168 1.036 2.177 2.116 2.617.716.292.076.271 8.332.271 6.835 0 7.443-.005 7.71-.068a3.7 3.7 0 0 0 1.798-1.004c.573-.6.883-1.272.971-2.111.054-.511.054-14.123 0-14.634-.154-1.464-1.103-2.611-2.526-3.052l-.293-.091-7.56-.005c-4.158-.002-7.605.003-7.66.012m14.904 3.109.136.136v14.402l-.103.122a.6.6 0 0 1-.25.163c-.204.056-14.05.056-14.254 0a.6.6 0 0 1-.25-.163l-.103-.122V4.792l.136-.136.136-.136h14.416zm-7.828.921c-.559.214-.919.67-1.002 1.267-.023.165-.034 1.152-.027 2.369L10.5 11.3l.105.248c.25.595.761.938 1.395.938s1.145-.343 1.395-.938l.105-.248.013-2.087c.007-1.217-.004-2.204-.027-2.369-.075-.537-.364-.948-.836-1.187-.195-.099-.28-.116-.608-.125q-.382-.01-.526.045M7.6 7.556c-.418.139-.685.368-1.036.89a7.8 7.8 0 0 0-.739 1.534 6.65 6.65 0 0 0 0 4.04c.158.489.576 1.317.879 1.74.347.487 1.049 1.189 1.536 1.536.423.303 1.251.721 1.74.879a6.65 6.65 0 0 0 4.04 0c.489-.158 1.317-.576 1.74-.879.487-.347 1.189-1.049 1.536-1.536.303-.423.721-1.251.879-1.74a6.67 6.67 0 0 0 0-4.04c-.136-.421-.518-1.209-.756-1.56-.441-.651-.765-.864-1.359-.891-.435-.02-.692.061-1 .314-.375.309-.553.697-.55 1.197.003.334.077.53.372.987.438.675.598 1.197.598 1.948 0 1.167-.479 2.136-1.4 2.835-1.204.913-2.957.912-4.162-.002-.562-.426-1.019-1.045-1.215-1.646a3.4 3.4 0 0 1-.183-1.191c0-.748.155-1.252.599-1.95.306-.481.366-.646.365-1.005-.002-.473-.147-.806-.485-1.109-.306-.276-.516-.359-.939-.373-.198-.006-.405.003-.46.022"/></svg>