<svg xmlns="http://www.w3.org/2000/svg" width="24" height="24" fill="none" stroke="currentColor" stroke-linecap="round" stroke-linejoin="round" stroke-width="3"><path fill="#000" fill-rule="evenodd" stroke="none" d="M3.44.547A3.56 3.56 0 0 0 .552 3.388c-.076.399-.076 16.825 0 17.224.221 1.168 1.036 2.177 2.116 2.617.719.293-.04.271 9.332.271 7.775 0 8.442-.005 8.71-.068a3.7 3.7 0 0 0 1.798-1.004c.573-.6.883-1.272.971-2.111.054-.512.054-16.122 0-16.634-.154-1.464-1.103-2.61-2.526-3.052L20.66.54 12.1.535C7.392.533 3.495.538 3.44.547m16.904 3.109.136.136v16.402l-.103.122a.6.6 0 0 1-.25.163c-.204.056-16.05.056-16.254 0a.6.6 0 0 1-.25-.163l-.103-.122V3.792l.136-.136.136-.136h16.416zM7.44 4.545c-1.488.286-2.621 1.394-2.881 2.819-.06.328-.06.944 0 1.272.236 1.291 1.225 2.366 2.521 2.74.519.15 1.314.148 1.852-.003l.235-.065.346.346.346.346-.345.345-.345.346-.295-.076c-.446-.114-1.383-.106-1.806.016-1.287.371-2.274 1.445-2.509 2.733-.06.328-.06.944 0 1.272a3.56 3.56 0 0 0 2.109 2.593c.451.184.832.258 1.332.258.933 0 1.747-.328 2.428-.979a3.51 3.51 0 0 0 .947-3.421l-.068-.252 3.964-3.968c3.533-3.535 3.976-3.992 4.071-4.199.354-.776.06-1.63-.694-2.012-.208-.106-.264-.116-.648-.116-.701 0-.504-.158-3.451 2.777l-2.55 2.541-.346-.346-.346-.346.068-.253c.436-1.613-.326-3.289-1.842-4.047-.479-.24-.797-.313-1.433-.327a7 7 0 0 0-.66.006m.904 3.111c.119.119.136.162.136.337 0 .157-.022.227-.103.323a.5.5 0 0 1-.514.16c-.214-.059-.343-.241-.343-.483 0-.175.017-.218.136-.337S7.817 7.52 8 7.52s.224.016.344.136m5.972 5.721c-.861.33-1.24 1.254-.857 2.091.091.202.337.464 1.873 2s1.798 1.782 2 1.873a1.502 1.502 0 0 0 2.009-2.009c-.092-.202-.334-.46-1.873-1.994-2.042-2.035-1.981-1.989-2.626-2.006-.253-.007-.431.008-.526.045m-5.972 2.279c.119.119.136.162.136.337 0 .242-.129.424-.343.483a.5.5 0 0 1-.514-.16c-.081-.096-.103-.166-.103-.323 0-.175.017-.218.136-.337s.161-.136.344-.136.224.016.344.136"/></svg>