<svg xmlns="http://www.w3.org/2000/svg" width="24" height="24" fill="none" stroke="currentColor" stroke-linecap="round" stroke-linejoin="round" stroke-width="3"><path fill="#000" fill-rule="evenodd" stroke="none" d="M4.44 1.547a3.56 3.56 0 0 0-2.888 2.841c-.076.399-.076 14.825 0 15.224.221 1.168 1.036 2.177 2.116 2.617.716.292.076.271 8.332.271 6.835 0 7.443-.005 7.71-.068a3.7 3.7 0 0 0 1.798-1.004c.573-.6.883-1.272.971-2.111.05-.475.053-7.163.003-7.507a1.51 1.51 0 0 0-.834-1.154c-.208-.106-.264-.116-.648-.116s-.44.01-.648.116a1.51 1.51 0 0 0-.834 1.154c-.02.138-.037 1.855-.037 3.817l-.001 3.567-.103.122a.6.6 0 0 1-.25.163c-.204.056-14.05.056-14.254 0a.6.6 0 0 1-.25-.163l-.103-.122V4.792l.136-.136.136-.136 5.574-.001c3.1 0 5.685-.017 5.824-.037a1.494 1.494 0 0 0 1.287-1.7 1.51 1.51 0 0 0-.829-1.126l-.228-.116-5.94-.005c-3.267-.002-5.985.003-6.04.012m17.076 1.03a2.3 2.3 0 0 0-.32.163c-.097.06-2.205 2.135-4.685 4.613l-4.508 4.504-1.052-1.039C9.68 9.561 9.647 9.54 9 9.54c-.384 0-.44.01-.648.116-.754.382-1.048 1.236-.693 2.012.091.201.329.455 1.773 1.9 1.445 1.444 1.699 1.682 1.9 1.773a1.58 1.58 0 0 0 1.336.001c.208-.095.764-.638 5.4-5.274s5.179-5.192 5.274-5.4c.354-.777.06-1.63-.694-2.012-.198-.101-.279-.117-.608-.125-.246-.006-.431.01-.524.046"/></svg>