<svg xmlns="http://www.w3.org/2000/svg" width="24" height="24" fill="none" stroke="currentColor" stroke-linecap="round" stroke-linejoin="round" stroke-width="3"><path fill="#000" fill-rule="evenodd" stroke="none" d="M4.44 1.547a3.56 3.56 0 0 0-2.888 2.841c-.076.399-.076 14.825 0 15.224.221 1.168 1.036 2.177 2.115 2.617.668.272.543.263 4.041.28 1.928.01 3.278.001 3.449-.023.368-.051.657-.19.898-.431.726-.726.523-1.928-.407-2.399l-.228-.116-3.28-.02c-2.511-.015-3.3-.032-3.367-.07a.7.7 0 0 1-.17-.155l-.083-.106V4.792l.136-.136.136-.136h14.407l.13.117.131.116.02 3.274.02 3.273.105.248c.25.595.761.938 1.395.938s1.145-.343 1.395-.938l.105-.248.012-3.08c.012-3.21-.005-3.686-.152-4.182-.349-1.171-1.216-2.038-2.407-2.407l-.293-.091-7.56-.005c-4.158-.002-7.605.003-7.66.012m7.12 9.024c-.729.256-1.147.924-1.033 1.651.021.137.816 2.176 2.077 5.329a815 815 0 0 0 2.096 5.21c.077.149.366.428.563.543.093.054.296.125.453.158.25.052.317.052.567 0 .414-.086.756-.321.982-.672.053-.083.428-.99.833-2.016.406-1.026.754-1.882.774-1.902s.893-.375 1.939-.789c1.12-.442 1.97-.801 2.065-.871.478-.352.704-.931.585-1.502a1.48 1.48 0 0 0-.786-1.031c-.123-.063-2.481-1.019-5.24-2.123l-5.015-2.009-.36-.013c-.216-.007-.416.007-.5.037m4.84 4.805c1.348.54 1.528.622 1.44.656-.889.349-.974.394-1.206.635-.197.205-.293.371-.449.779-.213.558-.116.682-.809-1.046-.732-1.827-.685-1.695-.59-1.664.041.013.767.301 1.614.64"/></svg>