<svg xmlns="http://www.w3.org/2000/svg" width="24" height="24" fill="none" stroke="currentColor" stroke-linecap="round" stroke-linejoin="round" stroke-width="3"><path fill="#000" fill-rule="evenodd" stroke="none" d="M4.44 1.547a3.56 3.56 0 0 0-2.888 2.841c-.076.399-.076 14.825 0 15.224.221 1.168 1.036 2.177 2.116 2.617.716.292.076.271 8.332.271 6.835 0 7.443-.005 7.71-.068a3.7 3.7 0 0 0 1.798-1.004c.573-.6.883-1.272.971-2.111.054-.511.054-14.123 0-14.634-.154-1.464-1.103-2.611-2.526-3.052l-.293-.091-7.56-.005c-4.158-.002-7.605.003-7.66.012m14.904 3.109.136.136v14.402l-.103.122a.6.6 0 0 1-.25.163c-.204.056-14.05.056-14.254 0a.6.6 0 0 1-.25-.163l-.103-.122V4.792l.136-.136.136-.136h14.416zm-7.828 1.921c-.418.16-.767.498-.918.89-.079.205-.092.334-.114 1.08l-.024.846-.7-.397c-.385-.219-.771-.417-.858-.441a2.2 2.2 0 0 0-.481-.029 1.2 1.2 0 0 0-.59.145c-.782.386-1.056 1.346-.603 2.118.15.256.381.436 1.037.807.327.185.618.354.646.376.037.028-.122.137-.58.398-.347.198-.709.423-.803.5a1.47 1.47 0 0 0-.515 1.235c.057.806.705 1.393 1.534 1.389.253-.001.326-.02.62-.164.183-.09.549-.289.813-.442l.48-.278.023.845c.022.784.031.863.125 1.093.241.591.757.938 1.392.938s1.151-.347 1.392-.938c.094-.23.103-.309.125-1.093l.023-.845.48.278c.264.153.63.352.813.442.294.144.367.163.62.164 1.227.006 1.95-1.288 1.297-2.319-.15-.237-.366-.397-1.081-.805-.458-.261-.617-.37-.58-.398.028-.022.319-.191.646-.376.656-.371.887-.551 1.037-.807.453-.772.179-1.732-.603-2.118a1.2 1.2 0 0 0-.59-.145 2.2 2.2 0 0 0-.481.029c-.087.024-.473.222-.858.441l-.7.397-.024-.846c-.022-.746-.035-.875-.114-1.08q-.205-.53-.76-.814c-.187-.095-.274-.112-.6-.121q-.382-.01-.526.045"/></svg>