<svg xmlns="http://www.w3.org/2000/svg" width="24" height="24" fill="none" stroke="currentColor" stroke-linecap="round" stroke-linejoin="round" stroke-width="3"><path fill="#000" fill-rule="evenodd" stroke="none" d="M2.724 1.53c-.416.06-.862.392-1.065.792-.174.343-.183.556-.171 3.86L1.5 9.3l.105.248c.25.595.761.938 1.395.938s1.147-.344 1.394-.938c.103-.247.104-.254.119-1.563l.014-1.315 3.287 3.283c2.914 2.911 3.312 3.295 3.518 3.388a1.502 1.502 0 0 0 2.009-2.009c-.093-.206-.478-.605-3.392-3.522L6.662 4.52l1.139-.001c.626 0 1.251-.017 1.389-.037a1.494 1.494 0 0 0 1.287-1.7 1.51 1.51 0 0 0-.829-1.126L9.42 1.54l-1.18-.01c-3.228-.027-5.33-.027-5.516 0m9.792.048c-.366.136-.71.444-.864.774a1.5 1.5 0 0 0 1.158 2.13c.138.02 1.633.037 3.324.037l3.074.001.136.136.136.136v14.402l-.103.122a.6.6 0 0 1-.25.163c-.204.056-14.05.056-14.254 0a.6.6 0 0 1-.25-.163l-.103-.122-.001-3.067c0-1.687-.017-3.179-.037-3.317a1.51 1.51 0 0 0-.834-1.154c-.208-.106-.264-.116-.648-.116s-.44.01-.648.116c-.474.24-.763.65-.838 1.187-.024.171-.033 1.521-.023 3.449.013 2.708.024 3.206.078 3.429.333 1.382 1.344 2.389 2.721 2.711.267.063.875.068 7.71.068s7.443-.005 7.71-.068a3.7 3.7 0 0 0 1.798-1.004c.573-.6.883-1.272.971-2.111.054-.511.054-14.123 0-14.634-.154-1.465-1.106-2.615-2.526-3.051l-.293-.09-3.5-.009c-2.85-.007-3.527.001-3.644.045"/></svg>