<svg xmlns="http://www.w3.org/2000/svg" width="24" height="24" fill="none" stroke="currentColor" stroke-linecap="round" stroke-linejoin="round" stroke-width="3"><path fill="#000" fill-rule="evenodd" stroke="none" d="M4.44 1.547a3.56 3.56 0 0 0-2.888 2.841c-.076.399-.076 14.825 0 15.224.221 1.168 1.036 2.177 2.116 2.617.716.292.076.271 8.332.271 6.835 0 7.443-.005 7.71-.068a3.7 3.7 0 0 0 1.798-1.004c.573-.6.883-1.272.971-2.111.054-.511.054-14.123 0-14.634-.154-1.464-1.103-2.611-2.526-3.052l-.293-.091-7.56-.005c-4.158-.002-7.605.003-7.66.012m14.904 3.109.136.136v14.402l-.103.122a.6.6 0 0 1-.25.163c-.204.056-14.05.056-14.254 0a.6.6 0 0 1-.25-.163l-.103-.122V4.792l.136-.136.136-.136h14.416zM9.6 8.064c-.442.118-.555.23-1.766 1.745-.619.773-1.158 1.48-1.198 1.57a1.65 1.65 0 0 0 0 1.242c.094.211 2.263 2.924 2.455 3.07.286.217.496.283.909.286.337.003.405-.009.605-.107.512-.252.819-.679.87-1.209.03-.312-.012-.58-.127-.821-.037-.077-.374-.522-.748-.99L9.919 12l.681-.85c.374-.467.71-.913.747-.99.324-.676.087-1.516-.538-1.913A1.47 1.47 0 0 0 9.6 8.064m3.956.012a1.65 1.65 0 0 0-.694.448 1.57 1.57 0 0 0-.209 1.636c.037.077.373.523.747.99l.681.85-.681.85c-.374.468-.71.913-.747.99a1.5 1.5 0 0 0-.129.83c.057.527.365.951.871 1.2.2.098.268.11.605.107.413-.003.623-.069.909-.286.192-.146 2.361-2.859 2.455-3.07a1.65 1.65 0 0 0 0-1.242c-.04-.09-.579-.797-1.198-1.57-1.221-1.527-1.324-1.628-1.784-1.747a1.37 1.37 0 0 0-.826.014"/></svg>