<svg xmlns="http://www.w3.org/2000/svg" width="24" height="24" fill="none" stroke="currentColor" stroke-linecap="round" stroke-linejoin="round" stroke-width="3"><path fill="#000" fill-rule="evenodd" stroke="none" d="M4.44 1.547a3.56 3.56 0 0 0-2.888 2.841c-.076.399-.076 14.825 0 15.224.221 1.168 1.036 2.177 2.116 2.617.716.292.076.271 8.332.271 6.835 0 7.443-.005 7.71-.068a3.7 3.7 0 0 0 1.798-1.004c.573-.6.883-1.272.971-2.111.054-.511.054-14.123 0-14.634-.154-1.464-1.103-2.611-2.526-3.052l-.293-.091-7.56-.005c-4.158-.002-7.605.003-7.66.012m14.904 3.109.136.136v14.402l-.103.122a.6.6 0 0 1-.25.163c-.204.056-14.05.056-14.254 0a.6.6 0 0 1-.25-.163l-.103-.122V4.792l.136-.136.136-.136h14.416zM11.7 6.52l-4.12.02-.228.116a1.51 1.51 0 0 0-.829 1.126 1.494 1.494 0 0 0 1.287 1.7c.138.02 1.212.037 2.389.037l2.139.001-2.787 2.79c-2.458 2.461-2.799 2.817-2.892 3.022a1.502 1.502 0 0 0 2.009 2.009c.205-.093.56-.434 3.02-2.89l2.787-2.784.013 2.317.012 2.316.105.248c.25.595.761.938 1.395.938s1.145-.343 1.395-.938l.105-.248.011-4.12c.008-2.754-.002-4.211-.03-4.393a2 2 0 0 0-.14-.465 1.73 1.73 0 0 0-.662-.662c-.185-.094-.618-.189-.779-.17-.044.005-1.934.018-4.2.03"/></svg>