<svg xmlns="http://www.w3.org/2000/svg" width="24" height="24" fill="none" stroke="currentColor" stroke-linecap="round" stroke-linejoin="round" stroke-width="3"><path fill="#000" fill-rule="evenodd" stroke="none" d="M4.44 1.547a3.56 3.56 0 0 0-2.888 2.841c-.076.399-.076 14.825 0 15.224.221 1.168 1.036 2.177 2.116 2.617.716.292.076.271 8.332.271 6.835 0 7.443-.005 7.71-.068a3.7 3.7 0 0 0 1.798-1.004c.573-.6.883-1.272.971-2.111.054-.511.054-14.123 0-14.634-.154-1.464-1.103-2.611-2.526-3.052l-.293-.091-7.56-.005c-4.158-.002-7.605.003-7.66.012m14.904 3.109.136.136v14.402l-.103.122a.6.6 0 0 1-.25.163c-.204.056-14.05.056-14.254 0a.6.6 0 0 1-.25-.163l-.103-.122V4.792l.136-.136.136-.136h14.416zM8.22 5.52l-1.64.02-.228.116a1.51 1.51 0 0 0-.829 1.126 1.494 1.494 0 0 0 1.287 1.7c.138.02.569.037.959.037l.708.001.012 4.39.011 4.39.105.248c.25.595.761.938 1.395.938s1.145-.343 1.395-.938l.105-.248.011-4.39.012-4.39h.953l.015 3.47c.013 2.989.023 3.506.078 3.731.317 1.311 1.242 2.289 2.511 2.655.306.088.862.138 1.131.102a1.5 1.5 0 0 0 1.266-1.26c.116-.857-.454-1.586-1.328-1.697-.351-.044-.428-.076-.546-.226-.083-.105-.083-.125-.083-3.44V8.52l.71-.001c.39 0 .822-.017.96-.037a1.5 1.5 0 0 0 1.159-2.13c-.17-.364-.572-.698-.952-.791-.197-.048-6.361-.075-9.177-.041"/></svg>