<svg xmlns="http://www.w3.org/2000/svg" width="24" height="24" fill="none" stroke="currentColor" stroke-linecap="round" stroke-linejoin="round" stroke-width="3"><path fill="#000" fill-rule="evenodd" stroke="none" d="M4.44 1.547a3.56 3.56 0 0 0-2.888 2.841c-.076.399-.076 14.825 0 15.224.221 1.168 1.036 2.177 2.116 2.617.716.292.076.271 8.332.271 6.835 0 7.443-.005 7.71-.068a3.7 3.7 0 0 0 1.798-1.004c.573-.6.883-1.272.971-2.111.054-.511.054-14.123 0-14.634-.154-1.464-1.103-2.611-2.526-3.052l-.293-.091-7.56-.005c-4.158-.002-7.605.003-7.66.012m14.904 3.109.136.136v14.402l-.103.122a.6.6 0 0 1-.25.163c-.204.056-14.05.056-14.254 0a.6.6 0 0 1-.25-.163l-.103-.122V4.792l.136-.136.136-.136h14.416zm-7.828 1.921c-.855.325-1.24 1.255-.862 2.082.081.176.27.392.91 1.041l.807.818-2.396.011-2.395.011-.228.116a1.51 1.51 0 0 0-.829 1.126 1.494 1.494 0 0 0 1.287 1.7c.138.02 1.211.037 2.386.037l2.137.001-.789.8c-.85.862-.961 1.021-1.021 1.462-.163 1.2 1.031 2.069 2.145 1.56.203-.093.499-.373 2.398-2.274 1.689-1.69 2.189-2.213 2.269-2.374.21-.423.21-.965 0-1.388-.08-.161-.576-.678-2.269-2.368-2.487-2.483-2.372-2.392-3.026-2.407-.246-.006-.431.01-.524.046"/></svg>