<svg xmlns="http://www.w3.org/2000/svg" width="24" height="24" fill="none" stroke="currentColor" stroke-linecap="round" stroke-linejoin="round" stroke-width="3"><path fill="#000" fill-rule="evenodd" stroke="none" d="M1.516.577C.655.907.277 1.83.658 2.668c.095.21 1.079 1.206 10.274 10.4s10.19 10.179 10.4 10.274c1.116.507 2.308-.36 2.145-1.56-.053-.387-.187-.606-.695-1.133l-.469-.487.092-.351.092-.351.013-7.16c.009-4.733-.001-7.301-.028-7.575-.086-.864-.388-1.536-.96-2.14a3.7 3.7 0 0 0-1.59-.955l-.312-.09h-7.64c-7.625 0-7.64 0-7.88.083l-.24.083-.482-.463c-.624-.6-.806-.697-1.336-.711-.253-.007-.431.008-.526.045m17.828 4.079.136.136V17.34l-1.877-1.877-1.878-1.877.188-.163a4.4 4.4 0 0 0 1.217-1.663 4.49 4.49 0 0 0-.555-4.483 5.8 5.8 0 0 0-.935-.919c-.311-.233-1.033-.577-1.48-.705l-.38-.109-2.535-.014c-2.778-.015-2.699-.021-3.061.223l-.174.118-.675-.676-.674-.675h12.547zM2.637 7.255c-.444.095-.853.462-1.044.935l-.093.23v5.46c0 4.288.011 5.518.052 5.732.221 1.168 1.036 2.177 2.116 2.617.708.288.297.271 6.412.271h5.5l.23-.093c.433-.175.803-.555.92-.945.062-.209.062-.715 0-.924-.117-.391-.496-.78-.911-.935-.22-.082-.258-.083-5.511-.083-3.377 0-5.34-.015-5.431-.04a.6.6 0 0 1-.24-.143l-.097-.103-.02-5.407L4.5 8.42l-.093-.23c-.195-.483-.6-.84-1.063-.937a1.36 1.36 0 0 0-.707.002M13.62 8.638c.278.136.584.438.723.711.107.212.117.266.117.651 0 .384-.01.44-.116.648-.134.265-.416.564-.64.68l-.156.08-1.444-1.445-1.444-1.446 1.38.012c1.372.011 1.381.012 1.58.109m-4.983 4.617c-.444.095-.853.462-1.044.935-.091.226-.093.256-.093 1.67v1.44l.105.248c.25.595.761.938 1.395.938s1.145-.343 1.395-.938l.105-.248v-1.44c0-1.413-.002-1.444-.093-1.67-.195-.482-.6-.84-1.063-.937a1.36 1.36 0 0 0-.707.002"/></svg>