<svg xmlns="http://www.w3.org/2000/svg" width="24" height="24" fill="none" stroke="currentColor" stroke-linecap="round" stroke-linejoin="round" stroke-width="3"><path fill="#000" fill-rule="evenodd" stroke="none" d="M4.44 1.547a3.56 3.56 0 0 0-2.888 2.841c-.076.399-.076 14.825 0 15.224.221 1.168 1.036 2.177 2.116 2.617.716.292.076.271 8.332.271 6.835 0 7.443-.005 7.71-.068a3.7 3.7 0 0 0 1.798-1.004c.573-.6.883-1.272.971-2.111.054-.511.054-14.123 0-14.634-.154-1.464-1.103-2.611-2.526-3.052l-.293-.091-7.56-.005c-4.158-.002-7.605.003-7.66.012m14.904 3.109.136.136v14.402l-.103.122a.6.6 0 0 1-.25.163c-.204.056-14.05.056-14.254 0a.6.6 0 0 1-.25-.163l-.103-.122V4.792l.136-.136.136-.136h14.416zm-7.828 1.921a1.54 1.54 0 0 0-.998 1.233c-.02.138-.037.803-.037 1.479l-.001 1.228-1.45.012-1.45.011-.228.116a1.51 1.51 0 0 0-.829 1.126 1.494 1.494 0 0 0 1.287 1.7c.138.02.793.037 1.456.037l1.207.001.014 1.39.015 1.39.104.248c.248.594.76.938 1.394.938s1.146-.344 1.394-.938l.104-.248.015-1.39.014-1.39 1.207-.001c.663 0 1.318-.017 1.456-.037a1.494 1.494 0 0 0 1.287-1.7 1.51 1.51 0 0 0-.829-1.126l-.228-.116-1.45-.012-1.45-.012-.001-1.228c0-.675-.017-1.34-.037-1.478a1.51 1.51 0 0 0-.832-1.153c-.195-.099-.28-.116-.608-.125q-.382-.01-.526.045"/></svg>