<svg xmlns="http://www.w3.org/2000/svg" width="24" height="24" fill="none" stroke="currentColor" stroke-linecap="round" stroke-linejoin="round" stroke-width="3"><path fill="#000" fill-rule="evenodd" stroke="none" d="M6.403 1.563C5.208 1.8 4.121 2.754 3.699 3.935c-.198.552-.229.963-.212 2.805l.014 1.56.104.248c.249.594.761.938 1.395.938s1.146-.344 1.395-.938l.104-.248.02-1.733.021-1.733.168-.157.169-.157h10.246l.169.157.168.157.021 1.733.02 1.733.104.248c.249.594.761.938 1.395.938s1.145-.344 1.395-.938l.104-.248.014-1.574c.008-.96-.003-1.73-.03-1.974-.157-1.442-1.141-2.63-2.583-3.117l-.28-.095-5.52-.006c-3.038-.003-5.6.01-5.697.029m-2.887 9.016c-.365.134-.71.443-.864.773a1.5 1.5 0 0 0 1.158 2.13c.33.048 16.05.048 16.38 0a1.494 1.494 0 0 0 1.287-1.7 1.51 1.51 0 0 0-.829-1.126l-.228-.116-8.38-.007c-6.9-.006-8.406.002-8.524.046m1 3.998a1.54 1.54 0 0 0-.998 1.233c-.051.351-.047 3.033.005 3.498.089.798.439 1.499 1.054 2.115.616.615 1.317.965 2.115 1.054.516.058 10.105.059 10.606.001.823-.094 1.492-.428 2.122-1.058s.964-1.299 1.058-2.122c.051-.441.054-3.145.004-3.488a1.51 1.51 0 0 0-.834-1.154c-.208-.106-.264-.116-.648-.116s-.44.01-.648.116a1.51 1.51 0 0 0-.834 1.154c-.02.138-.037.938-.037 1.779l-.001 1.528-.129.148a.9.9 0 0 1-.259.201c-.192.08-9.992.08-10.184 0a.9.9 0 0 1-.259-.201l-.129-.148-.001-1.528c0-.841-.017-1.641-.037-1.779a1.51 1.51 0 0 0-.832-1.153c-.195-.099-.28-.116-.608-.125-.253-.007-.431.008-.526.045"/></svg>