<svg xmlns="http://www.w3.org/2000/svg" width="24" height="24" fill="none" stroke="currentColor" stroke-linecap="round" stroke-linejoin="round" stroke-width="3"><path fill="#000" fill-rule="evenodd" stroke="none" d="M4.44 1.547a3.56 3.56 0 0 0-2.888 2.841c-.076.399-.076 14.825 0 15.224.221 1.168 1.036 2.177 2.116 2.617.716.292.076.271 8.332.271 6.835 0 7.443-.005 7.71-.068a3.7 3.7 0 0 0 1.798-1.004c.573-.6.883-1.272.971-2.111.054-.511.054-14.123 0-14.634-.154-1.464-1.103-2.611-2.526-3.052l-.293-.091-7.56-.005c-4.158-.002-7.605.003-7.66.012m14.904 3.109.136.136v14.402l-.103.122a.6.6 0 0 1-.25.163c-.204.056-14.05.056-14.254 0a.6.6 0 0 1-.25-.163l-.103-.122V4.792l.136-.136.136-.136h14.416zM7.516 6.577c-.556.213-.919.67-1.001 1.259-.022.164-.033 1.933-.026 4.369L6.5 16.3l.105.248c.25.595.761.938 1.395.938s1.145-.343 1.395-.938L9.5 16.3l.012-2.314.013-2.314.797.786c.629.62.844.808 1.019.888.42.192.898.192 1.318 0 .175-.08.39-.268 1.019-.888l.797-.786.013 2.314.012 2.314.105.248c.25.595.761.938 1.395.938s1.145-.343 1.395-.938l.105-.248.011-4.1c.008-2.76-.002-4.192-.031-4.38a1.53 1.53 0 0 0-.832-1.164c-.208-.106-.264-.116-.648-.116-.675 0-.624-.037-2.45 1.777L12 9.856l-1.55-1.538C8.651 6.532 8.675 6.55 8.04 6.532q-.38-.01-.524.045"/></svg>