<svg xmlns="http://www.w3.org/2000/svg" width="24" height="24" fill="none" stroke="currentColor" stroke-linecap="round" stroke-linejoin="round" stroke-width="3"><path fill="#000" fill-rule="evenodd" stroke="none" d="M4.44 1.547a3.56 3.56 0 0 0-2.888 2.841c-.076.399-.076 14.825 0 15.224.221 1.168 1.036 2.177 2.116 2.617.716.292.076.271 8.332.271 6.835 0 7.443-.005 7.71-.068a3.7 3.7 0 0 0 1.798-1.004c.573-.6.883-1.272.971-2.111.054-.511.054-14.123 0-14.634-.154-1.464-1.103-2.611-2.526-3.052l-.293-.091-7.56-.005c-4.158-.002-7.605.003-7.66.012m14.904 3.109.136.136v14.402l-.103.122a.6.6 0 0 1-.25.163c-.204.056-14.05.056-14.254 0a.6.6 0 0 1-.25-.163l-.103-.122V4.792l.136-.136.136-.136h14.416zm-6.853.942a1.7 1.7 0 0 0-.323.156c-.19.136-.451.442-.532.626-.043.096-.302 1.296-.576 2.667a481 481 0 0 1-.522 2.592c-.021.087-.037.069-.131-.151-.194-.457-.518-.765-.95-.906-.17-.056-.39-.063-1.538-.054l-1.339.012-.228.116c-.93.471-1.133 1.673-.407 2.399.356.357.718.463 1.581.464l.466.001.848 2.119c.521 1.304.891 2.175.961 2.263.248.312.521.478.923.561.242.051.311.051.56-.001a1.9 1.9 0 0 0 .455-.159c.233-.137.559-.504.643-.723.038-.1.469-2.175.956-4.611l.886-4.429 1.538-.022c1.485-.021 1.546-.025 1.771-.114.503-.199.873-.664.944-1.186a1.5 1.5 0 0 0-.829-1.562l-.228-.116-2.36-.009c-2.231-.009-2.371-.005-2.569.067"/></svg>