<svg xmlns="http://www.w3.org/2000/svg" width="24" height="24" fill="none" stroke="currentColor" stroke-linecap="round" stroke-linejoin="round" stroke-width="3"><path fill="#000" fill-rule="evenodd" stroke="none" d="M4.44 1.547a3.56 3.56 0 0 0-2.888 2.841c-.076.399-.076 14.825 0 15.224.221 1.168 1.036 2.177 2.116 2.617.716.292.076.271 8.332.271 6.835 0 7.443-.005 7.71-.068a3.7 3.7 0 0 0 1.798-1.004c.573-.6.883-1.272.971-2.111.054-.511.054-14.123 0-14.634-.154-1.464-1.103-2.611-2.526-3.052l-.293-.091-7.56-.005c-4.158-.002-7.605.003-7.66.012m14.904 3.109.136.136v14.402l-.103.122a.6.6 0 0 1-.25.163c-.204.056-14.05.056-14.254 0a.6.6 0 0 1-.25-.163l-.103-.122V4.792l.136-.136.136-.136h14.416zm-10.828.922a1.54 1.54 0 0 0-1.001 1.257c-.022.162-.033 2.326-.026 5.368L7.5 17.3l.105.248c.25.595.761.938 1.395.938s1.146-.344 1.394-.938l.104-.248.015-1.39.014-1.39h1.187c1.333-.001 1.919-.04 2.386-.162a4.48 4.48 0 0 0 3.03-2.598 4.49 4.49 0 0 0-.555-4.483 5.8 5.8 0 0 0-.935-.919c-.311-.233-1.033-.577-1.48-.705l-.38-.109-2.56-.01c-2.074-.008-2.587 0-2.704.044m5.104 3.06c.278.136.584.438.723.711.107.212.117.266.117.651 0 .384-.01.44-.116.648a1.51 1.51 0 0 1-1.154.834c-.138.02-.794.037-1.46.037l-1.21.001V8.516l1.45.012c1.446.012 1.451.012 1.65.11"/></svg>