<svg xmlns="http://www.w3.org/2000/svg" width="24" height="24" fill="none" stroke="currentColor" stroke-linecap="round" stroke-linejoin="round" stroke-width="3"><path fill="#000" fill-rule="evenodd" stroke="none" d="M4.44 1.547a3.56 3.56 0 0 0-2.888 2.841c-.076.399-.076 14.825 0 15.224.221 1.168 1.036 2.177 2.116 2.617.716.292.076.271 8.332.271 6.835 0 7.443-.005 7.71-.068a3.7 3.7 0 0 0 1.798-1.004c.573-.6.883-1.272.971-2.111.054-.511.054-14.123 0-14.634-.154-1.464-1.103-2.611-2.526-3.052l-.293-.091-7.56-.005c-4.158-.002-7.605.003-7.66.012m14.904 3.109.136.136v14.402l-.103.122a.6.6 0 0 1-.25.163c-.204.056-14.05.056-14.254 0a.6.6 0 0 1-.25-.163l-.103-.122V4.792l.136-.136.136-.136h14.416zm-11.828.922a1.516 1.516 0 0 0-.879 2.034c.042.1.817 1.105 1.76 2.283L10.08 12l-1.685 2.107c-.927 1.159-1.72 2.184-1.761 2.278a1.4 1.4 0 0 0-.109.79c.043.357.148.581.398.845.247.26.524.402.902.46.185.029 1.618.039 4.375.031l4.1-.011.248-.105q.597-.25.847-.847l.105-.248v-1.24c-.001-1.196-.004-1.248-.092-1.466-.285-.709-.941-1.08-1.687-.954-.502.084-.934.45-1.12.947a2.5 2.5 0 0 0-.108.576l-.025.357H12.81c-1.421 0-1.655-.008-1.637-.057.012-.032.494-.647 1.07-1.368s1.081-1.384 1.121-1.474a1.65 1.65 0 0 0 0-1.242c-.04-.09-.539-.747-1.11-1.461s-1.051-1.32-1.068-1.348c-.024-.04.31-.05 1.624-.05h1.654l.04.39c.05.481.174.772.448 1.046.321.321.73.474 1.163.433.601-.056 1.067-.41 1.289-.979.083-.212.091-.311.107-1.25.018-1.126-.014-1.49-.162-1.809-.124-.266-.406-.546-.701-.695l-.228-.116-4.38-.008c-3.573-.006-4.407.003-4.524.046"/></svg>