<svg xmlns="http://www.w3.org/2000/svg" width="24" height="24" fill="none" stroke="currentColor" stroke-linecap="round" stroke-linejoin="round" stroke-width="3"><path fill="#000" fill-rule="evenodd" stroke="none" d="M4.44 1.547a3.56 3.56 0 0 0-2.888 2.841c-.076.399-.076 14.825 0 15.224.291 1.539 1.552 2.707 3.091 2.862.632.064 1.055-.061 1.412-.419.579-.579.583-1.533.009-2.099a1.48 1.48 0 0 0-.915-.435c-.351-.044-.428-.076-.546-.226l-.083-.106V4.792l.136-.136.136-.136h14.416l.136.136.136.136v14.397l-.083.106c-.119.151-.201.185-.539.223-1.263.141-1.804 1.646-.913 2.537.357.358.78.483 1.412.419a3.45 3.45 0 0 0 2.151-1.046c.573-.6.883-1.272.971-2.111.054-.511.054-14.123 0-14.634-.154-1.464-1.103-2.611-2.526-3.052l-.293-.091-7.56-.005c-4.158-.002-7.605.003-7.66.012m4.076 18.03c-1.048.396-1.349 1.701-.571 2.478.353.354.721.463 1.555.463s1.202-.109 1.555-.463c.726-.726.523-1.928-.407-2.399l-.228-.116-.88-.009c-.663-.006-.916.005-1.024.046m5 0c-1.048.396-1.349 1.701-.571 2.478.353.354.721.463 1.555.463s1.202-.109 1.555-.463c.726-.726.523-1.928-.407-2.399l-.228-.116-.88-.009c-.663-.006-.916.005-1.024.046"/></svg>