<svg xmlns="http://www.w3.org/2000/svg" width="24" height="24" fill="none" stroke="currentColor" stroke-linecap="round" stroke-linejoin="round" stroke-width="3"><path fill="#000" fill-rule="evenodd" stroke="none" d="M4.44 1.547a3.56 3.56 0 0 0-2.888 2.841c-.076.399-.076 14.825 0 15.224.221 1.168 1.036 2.177 2.116 2.617.716.292.076.271 8.332.271 6.835 0 7.443-.005 7.71-.068a3.7 3.7 0 0 0 1.798-1.004c.573-.6.883-1.272.971-2.111.054-.511.054-14.123 0-14.634-.154-1.464-1.103-2.611-2.526-3.052l-.293-.091-7.56-.005c-4.158-.002-7.605.003-7.66.012m14.904 3.109.136.136v14.402l-.103.122a.6.6 0 0 1-.25.163c-.204.056-14.05.056-14.254 0a.6.6 0 0 1-.25-.163l-.103-.122V4.792l.136-.136.136-.136h14.416zm-12.828.921a1.54 1.54 0 0 0-1.001 1.258c-.022.162-.033 2.326-.026 5.368L5.5 17.3l.105.248c.25.595.761.938 1.395.938s1.145-.343 1.395-.938L8.5 17.3l.011-5.097c.007-3.042-.004-5.206-.026-5.368a1.51 1.51 0 0 0-.835-1.178c-.195-.099-.28-.116-.608-.125q-.382-.01-.526.045m4 0a1.54 1.54 0 0 0-1.001 1.258c-.022.162-.033 2.326-.026 5.368L9.5 17.3l.105.248c.25.595.761.938 1.395.938s1.145-.343 1.395-.938l.105-.248.011-5.097c.007-3.042-.004-5.206-.026-5.368a1.51 1.51 0 0 0-.835-1.178c-.195-.099-.28-.116-.608-.125q-.382-.01-.526.045m4.024-.003a1.515 1.515 0 0 0-1.017 1.646c.02.132.485 2.488 1.036 5.235.714 3.57 1.027 5.054 1.095 5.2.119.255.42.556.686.687.32.156.631.196.953.121.351-.081.526-.175.751-.401.347-.348.501-.806.433-1.282-.02-.132-.485-2.488-1.036-5.235-.714-3.57-1.027-5.054-1.095-5.2-.122-.261-.405-.541-.698-.689-.194-.099-.281-.117-.588-.125-.213-.006-.425.012-.52.043"/></svg>