<svg xmlns="http://www.w3.org/2000/svg" width="24" height="24" fill="none" stroke="currentColor" stroke-linecap="round" stroke-linejoin="round" stroke-width="3"><path fill="#000" fill-rule="evenodd" stroke="none" d="M4.44 1.547a3.56 3.56 0 0 0-2.888 2.841c-.076.399-.076 14.825 0 15.224.221 1.168 1.036 2.177 2.116 2.617.716.292.076.271 8.332.271 6.835 0 7.443-.005 7.71-.068a3.7 3.7 0 0 0 1.798-1.004c.573-.6.883-1.272.971-2.111.054-.511.054-14.123 0-14.634-.154-1.464-1.103-2.611-2.526-3.052l-.293-.091-7.56-.005c-4.158-.002-7.605.003-7.66.012m14.904 3.109.136.136v14.402l-.103.122a.6.6 0 0 1-.25.163c-.204.056-14.05.056-14.254 0a.6.6 0 0 1-.25-.163l-.103-.122V4.792l.136-.136.136-.136h14.416zm-4.828 2.921a2.3 2.3 0 0 0-.32.163c-.097.059-1.584 1.515-3.304 3.234-2.775 2.773-3.14 3.152-3.234 3.358a1.503 1.503 0 0 0 2.01 2.01c.206-.094.587-.461 3.4-3.274s3.18-3.194 3.274-3.4c.354-.777.06-1.63-.694-2.012-.198-.101-.279-.117-.608-.125-.246-.006-.431.01-.524.046"/></svg>