<svg xmlns="http://www.w3.org/2000/svg" width="24" height="24" fill="none" stroke="currentColor" stroke-linecap="round" stroke-linejoin="round" stroke-width="3"><path fill="#000" fill-rule="evenodd" stroke="none" d="M3.44.547a3.58 3.58 0 0 0-2.372 1.556 3.4 3.4 0 0 0-.547 1.583c-.052.487-.051 4.143 0 4.631.153 1.455 1.118 2.627 2.503 3.038.36.107.895.163 1.187.123a1.5 1.5 0 0 0 1.266-1.26c.116-.857-.454-1.586-1.328-1.697-.351-.044-.428-.076-.546-.226-.082-.104-.083-.139-.083-2.304V3.792l.136-.136.136-.136h4.407l.127.114c.114.102.134.152.179.462.063.434.189.709.44.959.865.866 2.369.365 2.533-.844a3 3 0 0 0-.004-.564C11.331 2.231 10.351 1.06 8.953.632 8.664.544 8.628.543 6.1.536 4.692.532 3.495.537 3.44.547m6 6a3.58 3.58 0 0 0-2.372 1.556 3.4 3.4 0 0 0-.547 1.583c-.052.487-.051 4.143 0 4.631.153 1.455 1.118 2.627 2.503 3.038.36.107.895.163 1.187.123a1.5 1.5 0 0 0 1.266-1.26c.116-.857-.454-1.586-1.328-1.697-.351-.044-.428-.076-.546-.226-.082-.104-.083-.139-.083-2.304V9.792l.136-.136.136-.136h4.407l.127.114c.114.102.134.152.179.462.063.434.189.709.44.959a1.49 1.49 0 0 0 2.11 0c.357-.356.483-.78.419-1.408-.143-1.416-1.123-2.587-2.521-3.015-.289-.088-.325-.089-2.853-.096-1.408-.004-2.605.001-2.66.011m6 6a3.56 3.56 0 0 0-2.888 2.841c-.074.389-.074 4.835 0 5.224.221 1.168 1.036 2.177 2.116 2.617.669.272.647.271 3.332.271 2.132 0 2.454-.008 2.71-.068a3.7 3.7 0 0 0 1.798-1.004c.573-.6.883-1.272.971-2.111.051-.49.051-4.144 0-4.634-.154-1.465-1.108-2.617-2.526-3.051-.289-.088-.325-.089-2.853-.096-1.408-.004-2.605.001-2.66.011m4.904 3.109.136.136v4.402l-.103.122a.6.6 0 0 1-.25.163c-.199.055-4.055.055-4.254 0a.6.6 0 0 1-.25-.163l-.103-.122v-4.402l.136-.136.136-.136h4.416z"/></svg>