<svg xmlns="http://www.w3.org/2000/svg" width="24" height="24" fill="none" stroke="currentColor" stroke-linecap="round" stroke-linejoin="round" stroke-width="3"><path fill="#000" fill-rule="evenodd" stroke="none" d="M4.44 1.547a3.56 3.56 0 0 0-2.888 2.841c-.076.399-.076 14.825 0 15.224.221 1.168 1.036 2.177 2.115 2.617.668.272.543.263 4.041.28 1.928.01 3.278.001 3.449-.023.368-.051.657-.19.898-.431.726-.726.523-1.928-.407-2.399l-.228-.116-3.28-.02c-2.511-.015-3.3-.032-3.367-.07a.7.7 0 0 1-.17-.155l-.083-.106V4.792l.136-.136.136-.136h14.407l.13.117.131.116.02 3.274.02 3.273.105.248c.25.595.761.938 1.395.938s1.145-.343 1.395-.938l.105-.248.012-3.08c.012-3.21-.005-3.686-.152-4.182-.349-1.171-1.216-2.038-2.407-2.407l-.293-.091-7.56-.005c-4.158-.002-7.605.003-7.66.012m7.076 9.03c-.861.33-1.24 1.254-.857 2.091.093.206.479.606 3.411 3.54l3.305 3.309-1.398.011-1.397.012-.228.116a1.51 1.51 0 0 0-.829 1.126 1.494 1.494 0 0 0 1.287 1.7c.355.052 6.106.048 6.424-.004.327-.053.588-.187.823-.421.234-.235.368-.496.421-.823.052-.318.056-6.069.004-6.424a1.51 1.51 0 0 0-.834-1.154c-.208-.106-.264-.116-.648-.116s-.44.01-.648.116a1.51 1.51 0 0 0-.834 1.154c-.02.138-.037.763-.037 1.389l-.001 1.139-3.29-3.281c-3.74-3.73-3.477-3.507-4.148-3.525q-.382-.01-.526.045"/></svg>