<svg xmlns="http://www.w3.org/2000/svg" width="24" height="24" fill="none" stroke="currentColor" stroke-linecap="round" stroke-linejoin="round" stroke-width="3"><path fill="#000" fill-rule="evenodd" stroke="none" d="M11.516 2.577c-.554.212-.919.67-1 1.255-.023.161-.033 3.509-.027 8.368l.011 8.1.105.248c.25.595.761.938 1.395.938s1.145-.343 1.395-.938l.105-.248.011-8.1c.006-4.859-.004-8.207-.027-8.368a1.5 1.5 0 0 0-.834-1.175c-.195-.099-.28-.116-.608-.125q-.382-.01-.526.045m-7.113.986c-1.482.297-2.713 1.634-2.88 3.129-.059.53-.059 10.086 0 10.616.089.798.439 1.499 1.054 2.115.616.615 1.317.965 2.115 1.054.465.052 3.147.056 3.498.005a1.494 1.494 0 0 0 1.287-1.7 1.51 1.51 0 0 0-.829-1.126l-.228-.116-1.74-.02c-1.257-.014-1.763-.033-1.825-.068a1.2 1.2 0 0 1-.21-.192l-.125-.143V6.869l.175-.174.174-.175 1.536-.001c.844 0 1.647-.017 1.785-.037a1.494 1.494 0 0 0 1.287-1.7 1.51 1.51 0 0 0-.829-1.126L8.42 3.54 6.5 3.534c-1.056-.004-2 .009-2.097.029m11.113.015c-.531.199-.921.672-.993 1.204a1.494 1.494 0 0 0 1.287 1.7c.138.02.941.037 1.785.037l1.536.001.174.175.175.174v10.248l-.125.143c-.07.079-.164.165-.21.192-.062.035-.568.054-1.825.068l-1.74.02-.228.116a1.51 1.51 0 0 0-.829 1.126 1.494 1.494 0 0 0 1.287 1.7c.343.05 3.047.047 3.488-.004.823-.094 1.492-.428 2.122-1.058s.964-1.299 1.058-2.122c.056-.485.056-10.109.001-10.594-.161-1.402-1.163-2.595-2.579-3.068-.277-.093-.302-.094-2.26-.103-1.586-.008-2.009.001-2.124.045"/></svg>