<svg xmlns="http://www.w3.org/2000/svg" width="24" height="24" fill="none" stroke="currentColor" stroke-linecap="round" stroke-linejoin="round" stroke-width="3"><path fill="#000" fill-rule="evenodd" stroke="none" d="M4.44 1.547a3.56 3.56 0 0 0-2.888 2.841c-.076.399-.076 14.825 0 15.224.221 1.168 1.036 2.177 2.116 2.617.716.292.076.271 8.332.271 6.835 0 7.443-.005 7.71-.068a3.7 3.7 0 0 0 1.798-1.004c.573-.6.883-1.272.971-2.111.054-.511.054-14.123 0-14.634-.154-1.464-1.103-2.611-2.526-3.052l-.293-.091-7.56-.005c-4.158-.002-7.605.003-7.66.012m14.904 3.109.136.136v14.402l-.103.122a.6.6 0 0 1-.25.163c-.204.056-14.05.056-14.254 0a.6.6 0 0 1-.25-.163l-.103-.122V4.792l.136-.136.136-.136h14.416zm-5.398.832c-2.018.144-3.421 1.653-3.618 3.892l-.028.32-.86.02c-.851.02-.862.021-1.088.136-.93.471-1.133 1.673-.407 2.399.373.373.707.463 1.728.464l.613.001-.013 1.07c-.012 1-.019 1.082-.1 1.259-.146.315-.372.406-1.159.464-.369.028-.485.053-.669.146-.922.467-1.124 1.673-.4 2.396.376.377.756.478 1.566.418 1.823-.134 3.078-1.068 3.566-2.651.154-.502.206-.96.231-2.047l.024-1.045.824-.019c.727-.017.851-.03 1.054-.108.427-.165.802-.548.92-.941a2 2 0 0 0 .048-.462 2 2 0 0 0-.048-.462c-.117-.391-.496-.78-.911-.935-.199-.074-.31-.083-1.066-.083h-.844l.026-.219c.058-.493.24-.819.529-.947.148-.066.26-.075.804-.07.774.008.96-.046 1.332-.39a1.48 1.48 0 0 0 .363-1.717c-.11-.248-.453-.597-.704-.716-.339-.16-.98-.225-1.713-.173"/></svg>