<svg xmlns="http://www.w3.org/2000/svg" width="24" height="24" fill="none" stroke="currentColor" stroke-linecap="round" stroke-linejoin="round" stroke-width="3"><path fill="#000" fill-rule="evenodd" stroke="none" d="M5.56.58C3.309.965 1.516 2.491.807 4.623.564 5.354.459 6.2.526 6.887c.152 1.554 1.223 2.909 2.685 3.394l.271.09-.069.105c-1.254 1.904-1.89 4.029-1.9 6.344-.003.774.041 1.182.19 1.78a6.4 6.4 0 0 0 4.637 4.685c.816.211.618.204 6.269.222 3.277.011 5.376.003 5.549-.021.869-.121 1.435-.852 1.319-1.704a1.51 1.51 0 0 0-.829-1.126c-.206-.105-.274-.117-.701-.13l-.473-.015.026-.405c.04-.616.144-.87.491-1.194.368-.343.462-.368 1.509-.398 1.024-.029 1.316-.075 1.836-.287.783-.319 1.51-1.016 1.842-1.766.298-.674.359-1.199.33-2.821-.024-1.322-.067-1.667-.286-2.337A5.5 5.5 0 0 0 21.6 8.852a5.8 5.8 0 0 0-1.77-1.034l-.31-.108-.001-1.825c0-1.004-.017-1.937-.037-2.075a1.51 1.51 0 0 0-.834-1.154c-.208-.106-.264-.116-.648-.116s-.44.01-.648.116c-.617.312-.869.812-.871 1.729l-.001.325-.31.108a7 7 0 0 0-1.254.633c-.948.63-1.743 1.672-2.112 2.77-.065.194-.142.365-.171.38a1 1 0 0 1-.207.052c-.121.018-.149.012-.131-.033.05-.131.151-.958.183-1.498.05-.84-.013-1.546-.199-2.22C11.646 2.611 9.721.922 7.332.563 6.951.506 5.935.515 5.56.58m1.62 3c.357.074.937.363 1.221.608.517.445.9 1.063 1.024 1.652.085.406.053 1.573-.06 2.124-.222 1.09-.536 1.694-1.648 3.179-.725.968-1.038 1.44-1.315 1.977a8.2 8.2 0 0 0-.89 3.63c-.005.505.003.571.096.798.161.396.448.683.837.84.476.193 1.127.099 1.484-.213.427-.372.534-.63.589-1.418a9 9 0 0 1 .104-.877 5.51 5.51 0 0 1 4.258-4.258 9 9 0 0 1 .877-.104c.788-.055 1.046-.162 1.418-.589.19-.218.293-.538.34-1.055.064-.721.249-1.144.703-1.61l.239-.244.027.642c.035.859.137 1.12.587 1.513.218.19.538.293 1.055.34.735.065 1.16.255 1.632.727.287.286.475.575.612.941.085.225.09.304.102 1.61.014 1.501.017 1.481-.221 1.636-.092.061-.246.075-1.069.097-.87.023-.998.036-1.342.131-.49.136-1.184.475-1.55.758l-.288.223-.291-.22c-.797-.601-1.788-.927-2.717-.892-.308.012-.413.033-.595.123-.933.458-1.144 1.682-.416 2.406.271.269.533.381 1.047.449.253.033.498.091.607.144.261.125.57.432.706.701.106.21.117.268.117.631 0 .22-.013.432-.029.47-.027.066-.216.07-3.18.07-1.836 0-3.331-.017-3.582-.041-1.155-.109-2.088-.69-2.683-1.669-.337-.554-.466-1.101-.466-1.964.001-1.899.467-3.333 1.639-5.047C7.64 9.633 7.856 9.276 8.122 8.555c.269-.727.428-1.724.357-2.24-.089-.652-.576-1.17-1.2-1.275-.714-.121-1.359.219-1.645.864a2.8 2.8 0 0 0-.136.565c-.037.261-.084.429-.156.552-.379.645-1.381.608-1.716-.064-.089-.178-.106-.266-.105-.535.002-.852.378-1.631 1.078-2.234.277-.239.86-.533 1.201-.606.345-.074 1.032-.075 1.38-.002m10.336 7.997c-1.049.399-1.349 1.701-.571 2.478.58.58 1.53.583 2.107.007a1.47 1.47 0 0 0 0-2.124c-.292-.292-.55-.395-1.012-.407-.247-.006-.431.01-.524.046"/></svg>