<svg xmlns="http://www.w3.org/2000/svg" width="24" height="24" fill="none" stroke="currentColor" stroke-linecap="round" stroke-linejoin="round" stroke-width="3"><path fill="#000" fill-rule="evenodd" stroke="none" d="M11.06.583c-.962.18-1.704.568-2.36 1.233-.872.883-1.288 2.164-1.177 3.632.069.919.231 1.428.775 2.426l.182.333v3.313H7.258c-1.287 0-1.535.025-2.078.208-1.331.45-2.384 1.702-2.63 3.128-.071.408-.067 2.413.004 2.704.175.713.701 1.372 1.334 1.674.6.285.007.266 8.112.266 6.033 0 7.379-.01 7.56-.054.713-.175 1.372-.701 1.674-1.334.25-.526.266-.637.266-1.872-.001-1.187-.032-1.488-.207-1.998-.477-1.392-1.58-2.362-3.021-2.659-.242-.049-.571-.063-1.53-.063H15.52V8.207l.182-.333c.542-.994.706-1.508.775-2.415.108-1.442-.356-2.709-1.344-3.671a3.8 3.8 0 0 0-1.153-.81c-.689-.338-1.057-.423-1.9-.441-.508-.011-.788.002-1.02.046m1.592 3.075c.273.138.575.445.709.722.078.161.1.279.112.602.02.526-.049.793-.347 1.335-.588 1.069-.646 1.402-.646 3.733v1.47h-.96v-1.47c0-2.344-.053-2.646-.663-3.77-.303-.559-.353-.764-.33-1.365.02-.516.113-.789.351-1.027.276-.276.572-.368 1.143-.355.353.007.428.022.631.125m5.37 11.003c.121.075.242.196.317.317.12.194.121.199.134.869l.012.673H5.52v-.621c0-.664.026-.789.22-1.043.054-.07.192-.175.308-.232l.209-.105 5.785.011 5.784.01zM4.516 20.579c-.365.134-.71.443-.864.773a1.5 1.5 0 0 0 1.158 2.13c.141.021 3.273.036 7.19.036s7.049-.015 7.19-.036a1.494 1.494 0 0 0 1.287-1.7 1.51 1.51 0 0 0-.829-1.126l-.228-.116-7.38-.007c-6.068-.006-7.406.002-7.524.046"/></svg>