<svg xmlns="http://www.w3.org/2000/svg" width="24" height="24" fill="none" stroke="currentColor" stroke-linecap="round" stroke-linejoin="round" stroke-width="3"><path fill="#000" fill-rule="evenodd" stroke="none" d="M1.516.577C.655.907.276 1.832.658 2.667c.092.202.384.51 2.291 2.421 1.203 1.205 2.178 2.196 2.169 2.204a50 50 0 0 1-1.478.225c-1.945.28-2.092.307-2.327.426-.55.279-.876.911-.789 1.527.076.533.041.493 2.555 2.945 1.736 1.694 2.297 2.263 2.288 2.324-.007.045-.245 1.44-.53 3.101-.284 1.661-.517 3.093-.517 3.183 0 .369.222.848.512 1.102.319.28.821.425 1.222.352.283-.051.305-.061 3.46-1.713A140 140 0 0 1 12 19.48c.017 0 1.136.578 2.486 1.284 1.349.707 2.625 1.37 2.834 1.475.47.237.751.301 1.06.244.445-.082.771-.279 1.008-.609l.142-.197.795.784c.857.845 1.017.956 1.457 1.016 1.2.163 2.067-1.029 1.56-2.145-.095-.21-1.076-1.202-10.274-10.395C1.635-.49 2.738.551 2.042.532c-.253-.007-.431.008-.526.045M11.5.59c-.551.243-.655.369-1.197 1.45C9.5 3.643 9.122 4.456 9.082 4.667c-.116.617.237 1.29.83 1.582.245.12.298.131.647.131.329 0 .412-.015.608-.106a1.67 1.67 0 0 0 .704-.64.8.8 0 0 1 .13-.194c.012 0 .426.822.92 1.826.96 1.953 1.051 2.1 1.425 2.302.281.152.336.162 2.334.449 1.001.144 1.88.272 1.954.285l.134.023-.82.808c-.752.74-.827.827-.908 1.047-.16.433-.149.872.031 1.24.164.335.568.673.929.778.408.118.948.026 1.282-.219.076-.056.993-.935 2.038-1.953 2.051-1.999 2.078-2.031 2.152-2.514a1.48 1.48 0 0 0-1.133-1.687c-.131-.032-1.593-.253-3.247-.491l-3.008-.433-.479-.98c-1.91-3.909-2.356-4.78-2.544-4.968-.292-.292-.564-.404-1.021-.42-.297-.01-.415.002-.54.057m.44 13.49 4.12 4.121-1.7-.889c-.935-.489-1.79-.921-1.9-.959a1.6 1.6 0 0 0-.92 0c-.11.038-.982.479-1.937.978-.955.5-1.746.9-1.757.889s.057-.466.151-1.01c.544-3.162.527-3.047.48-3.308-.088-.489-.166-.584-1.76-2.131-.81-.786-1.464-1.437-1.455-1.447.024-.024 2.247-.355 2.418-.36.134-.004.315.171 4.26 4.116"/></svg>