<svg xmlns="http://www.w3.org/2000/svg" width="24" height="24" fill="none" stroke="currentColor" stroke-linecap="round" stroke-linejoin="round" stroke-width="3"><path fill="#000" fill-rule="evenodd" stroke="none" d="M11.6.556a1.7 1.7 0 0 0-.66.397c-.162.162-.347.511-1.382 2.607a897 897 0 0 1-1.426 2.879l-.232.459-3.06.445c-1.683.246-3.123.46-3.2.476-.215.046-.515.222-.714.421-.32.32-.471.801-.398 1.272.074.488.069.482 2.551 2.903 1.732 1.69 2.297 2.264 2.288 2.324-.006.045-.246 1.449-.533 3.121-.408 2.383-.517 3.093-.502 3.286.067.898 1.021 1.57 1.871 1.32.119-.035 1.467-.722 2.995-1.525a246 246 0 0 1 2.801-1.461c.013 0 1.273.657 2.802 1.461 1.528.803 2.877 1.49 2.996 1.525.663.195 1.421-.163 1.733-.818.211-.445.214-.413-.364-3.788a914 914 0 0 1-.533-3.121c-.009-.06.556-.634 2.288-2.324 2.514-2.452 2.479-2.412 2.555-2.945.044-.31.001-.572-.139-.859-.186-.381-.589-.707-.977-.791-.077-.017-1.517-.231-3.2-.477l-3.06-.445-.252-.499c-.138-.274-.78-1.57-1.426-2.879C13.132.905 13.127.897 12.648.657c-.193-.097-.283-.116-.588-.124a2 2 0 0 0-.46.023m1.276 6.614c.467.952.906 1.818.975 1.926.163.256.516.513.815.595.128.035 1.062.183 2.074.329 1.012.145 1.879.277 1.928.292.077.025-.091.201-1.385 1.458-1.595 1.55-1.672 1.643-1.76 2.134-.048.262-.082.026.499 3.427.082.48.139.882.126.894-.012.012-.816-.396-1.788-.906-.971-.511-1.848-.953-1.949-.984a1.64 1.64 0 0 0-.822 0c-.101.031-.978.473-1.949.984-.972.51-1.777.918-1.789.905s.053-.469.146-1.013c.562-3.279.528-3.043.48-3.307-.088-.492-.165-.585-1.761-2.134-1.299-1.261-1.463-1.433-1.384-1.458.048-.015.916-.147 1.928-.292 1.012-.146 1.946-.294 2.074-.329a1.58 1.58 0 0 0 .815-.595c.069-.108.507-.974.975-1.926s.861-1.73.876-1.73.409.778.876 1.73"/></svg>