<svg xmlns="http://www.w3.org/2000/svg" width="24" height="24" fill="none" stroke="currentColor" stroke-linecap="round" stroke-linejoin="round" stroke-width="3"><path fill="#000" fill-rule="evenodd" stroke="none" d="M11.6.556a1.7 1.7 0 0 0-.664.399c-.209.211-.105.005-1.732 3.425-.974 2.046-1.216 2.526-1.292 2.55-.05.017-1.433.22-3.072.45-1.639.231-3.088.448-3.22.482-.927.244-1.373 1.245-.942 2.12.107.218.363.477 2.401 2.434 1.509 1.448 2.281 2.216 2.281 2.269 0 .043-.217 1.324-.482 2.847a351 351 0 0 0-.535 3.116c-.088.592.023.994.382 1.373.365.387.921.563 1.392.443.161-.041 1.342-.628 3.454-1.718 2.711-1.398 3.244-1.687 3.437-1.863.646-.589.652-1.554.013-2.158-.299-.284-.517-.373-.961-.395-.296-.015-.395-.004-.56.063-.11.044-.983.485-1.94.98s-1.744.896-1.749.891.097-.62.228-1.366c.508-2.914.487-2.766.438-3.034-.089-.494-.164-.585-1.739-2.094-1.119-1.072-1.436-1.396-1.385-1.418.037-.015.913-.146 1.947-.291s2-.299 2.147-.342c.301-.09.616-.315.774-.554.089-.134 2.494-5.144 3.024-6.297.24-.523.286-.735.231-1.071a1.52 1.52 0 0 0-.83-1.143c-.193-.097-.279-.115-.586-.122a2.2 2.2 0 0 0-.46.024"/></svg>