<svg xmlns="http://www.w3.org/2000/svg" width="24" height="24" fill="none" stroke="currentColor" stroke-linecap="round" stroke-linejoin="round" stroke-width="3"><path fill="#000" fill-rule="evenodd" stroke="none" d="M13.453 2.601c-.153.061-1.533 1.144-5.345 4.193-2.827 2.261-5.186 4.164-5.243 4.229-.143.161-.297.48-.338.701-.044.235.008.669.107.892.042.096.147.251.231.346.241.268 10.317 8.313 10.522 8.401a1.498 1.498 0 0 0 2.095-1.173c.053-.364.049-16.061-.004-16.387a1.47 1.47 0 0 0-.457-.878c-.308-.291-.515-.374-.981-.391-.311-.012-.417 0-.587.067m4.063-.024c-.554.212-.919.67-1 1.255-.023.161-.033 3.509-.027 8.368l.011 8.1.105.248c.25.595.761.938 1.395.938s1.145-.343 1.395-.938l.105-.248.011-8.1c.006-4.859-.004-8.207-.027-8.368a1.5 1.5 0 0 0-.834-1.175c-.195-.099-.28-.116-.608-.125-.253-.007-.431.008-.526.045M12.47 14.424l-.01 2.424-3.01-2.408C7.794 13.116 6.44 12.018 6.44 12s1.355-1.116 3.01-2.44l3.01-2.408.01 2.424c.006 1.333.006 3.515 0 4.848"/></svg>