<svg xmlns="http://www.w3.org/2000/svg" width="24" height="24" fill="none" stroke="currentColor" stroke-linecap="round" stroke-linejoin="round" stroke-width="3"><path fill="#000" fill-rule="evenodd" stroke="none" d="M4.14.522c-.894.031-1.155.084-1.673.344C1.488 1.356.83 2.193.57 3.279.517 3.498.504 3.967.491 6.2c-.022 3.502.015 3.984.392 5.144.73 2.244 2.565 4.072 4.796 4.776.275.087.575.177.665.199l.164.041.027.348c.015.191.064.529.109.75a7.524 7.524 0 0 0 6.826 6.02c3.385.257 6.595-1.898 7.647-5.134.335-1.03.403-1.662.403-3.767v-1.403l.308-.195a3.491 3.491 0 0 0-.296-6.114c-.519-.259-.827-.325-1.532-.325-.525 0-.668.014-.932.09-1.289.374-2.274 1.447-2.509 2.734-.06.328-.06.944 0 1.272.171.938.773 1.811 1.616 2.345l.31.196-.015 1.802-.015 1.801-.109.379c-.37 1.284-1.202 2.298-2.356 2.869-1.614.798-3.581.549-4.92-.623a5.3 5.3 0 0 1-.809-.905c-.36-.543-.682-1.423-.71-1.935l-.011-.215.34-.092a7.44 7.44 0 0 0 3.415-1.963 7.46 7.46 0 0 0 2.184-4.775c.052-.69.052-5.338 0-5.837-.155-1.474-1.13-2.642-2.547-3.053C12.644.547 12.54.54 11.6.54h-1.02l-.234.12c-.829.427-1.14 1.447-.702 2.308.042.081.174.248.293.371a1.69 1.69 0 0 0 1.998.322l.275-.139.137.137.136.136-.013 2.993-.013 2.992-.11.379c-.375 1.289-1.204 2.298-2.357 2.869-.65.321-1.225.452-1.99.452s-1.34-.131-1.99-.452a4.4 4.4 0 0 1-1.386-1.067 4.7 4.7 0 0 1-.972-1.801l-.109-.38-.013-2.985-.013-2.985.105-.125c.129-.154.164-.155.339-.011.715.588 1.779.521 2.434-.154.828-.853.575-2.316-.49-2.833-.273-.132-.593-.211-.817-.2-.081.004-.508.02-.948.035m16.204 9.134c.12.12.136.161.136.344s-.016.224-.136.344-.161.136-.344.136-.224-.016-.344-.136-.136-.161-.136-.344.016-.224.136-.344.161-.136.344-.136.224.016.344.136"/></svg>