<svg xmlns="http://www.w3.org/2000/svg" width="24" height="24" fill="none" stroke="currentColor" stroke-linecap="round" stroke-linejoin="round" stroke-width="3"><path fill="#000" fill-rule="evenodd" stroke="none" d="m9.6 1.521-5.26.02-.293.09C2.745 2.033 1.8 3.078 1.552 4.388c-.076.399-.076 14.825 0 15.224.221 1.168 1.036 2.177 2.116 2.617.716.292.076.271 8.332.271 6.835 0 7.443-.005 7.71-.068a3.7 3.7 0 0 0 1.798-1.004c.573-.6.883-1.272.971-2.111.055-.522.054-11.169-.001-11.517-.086-.542-.021-.467-2.896-3.344-2.702-2.704-2.818-2.809-3.199-2.895-.254-.057-1.142-.062-6.783-.04m3.891 4.469c.015 1.112.035 1.534.081 1.731.264 1.139 1.05 2.081 2.092 2.506.599.244.728.26 2.346.282l1.47.02v8.665l-.103.122a.6.6 0 0 1-.25.163c-.204.056-14.05.056-14.254 0a.6.6 0 0 1-.25-.163l-.103-.122V4.792l.136-.136.136-.136h8.679zm4.259 1.522c-.799.016-.931-.005-1.098-.172l-.132-.132V5.661l.92.919.921.92z"/></svg>