<svg xmlns="http://www.w3.org/2000/svg" width="24" height="24" fill="none" stroke="currentColor" stroke-linecap="round" stroke-linejoin="round" stroke-width="3"><path fill="#000" fill-rule="evenodd" stroke="none" d="m9.1 1.521-4.76.02-.293.091c-1.264.39-2.158 1.344-2.479 2.647-.058.234-.066 1.006-.078 7.421-.009 4.735.001 7.301.028 7.575.048.482.156.873.347 1.261.552 1.118 1.581 1.818 2.86 1.946.274.027 2.84.037 7.575.028 6.501-.012 7.185-.019 7.43-.08.682-.167 1.328-.531 1.778-1.002.573-.6.883-1.272.971-2.111.05-.479.053-10.64.003-10.987-.081-.56.019-.444-3.054-3.524-1.544-1.548-2.893-2.883-2.998-2.967-.348-.28-.482-.308-1.59-.324-.539-.008-3.122-.006-5.74.006m3.391 4.469c.015 1.112.035 1.534.081 1.731.264 1.139 1.05 2.081 2.092 2.506.632.258.676.262 2.846.282l1.97.018v8.667l-.103.122a.6.6 0 0 1-.25.163c-.204.056-14.05.056-14.254 0a.6.6 0 0 1-.25-.163l-.103-.122V4.792l.136-.136.136-.136h7.679zm5.349 1.5c0 .046-1.799.035-1.967-.011a.6.6 0 0 1-.25-.163l-.103-.122V5.141L16.68 6.3c.638.638 1.16 1.173 1.16 1.19M7.516 11.577c-1.049.399-1.349 1.701-.571 2.478.71.71 1.942.519 2.393-.371a1.48 1.48 0 0 0-.286-1.746c-.292-.292-.55-.395-1.012-.407-.247-.006-.431.01-.524.046m8 0c-1.049.399-1.349 1.701-.571 2.478.58.58 1.53.583 2.107.007a1.47 1.47 0 0 0 0-2.124c-.292-.292-.55-.395-1.012-.407-.247-.006-.431.01-.524.046m-6.067 3.026c-.276.109-.656.462-.788.731-.12.246-.182.683-.134.942.084.456.515.995 1.153 1.441.779.546 1.494.777 2.38.771a3.9 3.9 0 0 0 2.188-.691c.361-.243.948-.85 1.083-1.12.376-.753.077-1.637-.685-2.023-.206-.104-.263-.114-.646-.114-.38 0-.442.011-.65.113-.144.07-.331.217-.498.389-.31.32-.539.444-.829.446-.285.003-.52-.121-.905-.475-.42-.386-.589-.461-1.078-.479-.314-.012-.417 0-.591.069"/></svg>