<svg xmlns="http://www.w3.org/2000/svg" width="24" height="24" fill="none" stroke="currentColor" stroke-linecap="round" stroke-linejoin="round" stroke-width="3"><path fill="#000" fill-rule="evenodd" stroke="none" d="M7.173.563c-.302.052-.829.254-1.135.436-.4.237-.819.633-3.144 2.967C.626 6.243.616 6.255.52 6.745c-.073.371-.031 3.624.051 3.976A3.56 3.56 0 0 0 2.1 12.928l.36.242.023 3.645c.019 3.13.032 3.682.086 3.906.335 1.383 1.344 2.389 2.721 2.711.266.062.815.068 6.71.068s6.444-.006 6.71-.068c1.297-.303 2.276-1.216 2.649-2.468.143-.481.16-.933.16-4.407l.001-3.383.308-.195a3.5 3.5 0 0 0 1.651-2.662c.056-.531.053-3.337-.004-3.605-.098-.461-.127-.494-2.369-2.746-1.169-1.174-2.296-2.287-2.504-2.474-.455-.409-.834-.638-1.353-.817L16.86.54 12.12.534C9.513.531 7.287.544 7.173.563M17.378 4.52l1.002 1H5.62l1.002-1 1.001-1h8.754zm3.102 4.844v.844l-.141.141c-.132.132-.153.14-.35.122-.248-.022-.412-.093-.709-.309a3 3 0 0 0-.48-.27c-.241-.102-.3-.11-.8-.11s-.559.008-.8.11a3 3 0 0 0-.48.27c-.322.234-.472.295-.72.295s-.398-.061-.72-.295a3 3 0 0 0-.48-.27c-.241-.102-.3-.11-.8-.11s-.559.008-.8.11a3 3 0 0 0-.48.27c-.322.234-.472.295-.72.295s-.398-.061-.72-.295a3 3 0 0 0-.48-.27c-.241-.102-.3-.11-.8-.11s-.559.008-.8.11a3 3 0 0 0-.48.27c-.322.234-.472.295-.72.295s-.398-.061-.72-.295a3 3 0 0 0-.48-.27c-.241-.102-.3-.11-.8-.11s-.559.008-.8.11a3 3 0 0 0-.48.27c-.297.216-.461.287-.709.309-.197.018-.218.01-.35-.122l-.141-.141V8.52h16.96zM6.305 13.077a3.73 3.73 0 0 0 3.385.003l.31-.155.31.155a3.74 3.74 0 0 0 3.38 0l.31-.155.31.155a3.74 3.74 0 0 0 3.382-.001l.312-.156.238.124.238.125v7.022l-.103.122a.6.6 0 0 1-.25.163c-.081.022-.475.041-.877.041h-.73l-.001-1.23c0-1.336-.036-1.837-.16-2.254a3.52 3.52 0 0 0-2.427-2.406c-.301-.087-.369-.09-1.932-.09s-1.631.003-1.932.09a3.56 3.56 0 0 0-2.496 2.649c-.046.198-.066.62-.081 1.751l-.02 1.49h-.725c-.399 0-.792-.019-.873-.041a.6.6 0 0 1-.25-.163l-.103-.122v-7.022l.23-.123.235-.127c.003-.001.147.069.32.155m7.039 4.579.136.136v2.728h-2.96v-2.728l.136-.136.136-.136h2.416z"/></svg>