<svg xmlns="http://www.w3.org/2000/svg" width="24" height="24" fill="none" stroke="currentColor" stroke-linecap="round" stroke-linejoin="round" stroke-width="3"><path fill="#000" fill-rule="evenodd" stroke="none" d="M5.44.546a3.56 3.56 0 0 0-2.888 2.842c-.076.399-.076 16.825 0 17.224.221 1.168 1.036 2.177 2.116 2.617.621.253.755.269 2.332.269 1.182 0 1.469-.012 1.71-.067a3.7 3.7 0 0 0 1.798-1.003c.573-.6.883-1.272.971-2.111.054-.512.054-16.122 0-16.634-.154-1.465-1.113-2.622-2.526-3.05C8.674.549 8.583.544 7.1.536a45 45 0 0 0-1.66.01m10 0a3.56 3.56 0 0 0-2.888 2.842c-.076.399-.076 16.825 0 17.224.221 1.168 1.036 2.177 2.116 2.617.621.253.755.269 2.332.269 1.182 0 1.469-.012 1.71-.067a3.7 3.7 0 0 0 1.798-1.003c.573-.6.883-1.272.971-2.111.054-.512.054-16.122 0-16.634-.154-1.465-1.113-2.622-2.526-3.05-.279-.084-.37-.089-1.853-.097a45 45 0 0 0-1.66.01m-7.096 3.11.136.136v16.402l-.103.122a.6.6 0 0 1-.25.163c-.192.053-2.062.053-2.254 0a.6.6 0 0 1-.25-.163l-.103-.122V3.792l.136-.136.136-.136h2.416zm10 0 .136.136v16.402l-.103.122a.6.6 0 0 1-.25.163c-.192.053-2.062.053-2.254 0a.6.6 0 0 1-.25-.163l-.103-.122V3.792l.136-.136.136-.136h2.416z"/></svg>