<svg xmlns="http://www.w3.org/2000/svg" width="24" height="24" fill="none" stroke="currentColor" stroke-linecap="round" stroke-linejoin="round" stroke-width="3"><path fill="#000" fill-rule="evenodd" stroke="none" d="M8.18 2.58a4.5 4.5 0 0 0-2.383 1.287c-.626.65-1.013 1.356-1.199 2.193-.178.798-.083 1.9.221 2.569.266.584.929.953 1.537.855.537-.087.954-.394 1.165-.86.166-.367.188-.653.078-1.058-.121-.45-.101-.898.055-1.218.138-.282.415-.557.703-.699l.223-.109 3.86-.02 3.86-.02.233-.094a1.516 1.516 0 0 0 .944-1.624 1.51 1.51 0 0 0-.829-1.126l-.228-.116-3.98-.006c-3.104-.005-4.042.005-4.26.046m.52 7.94-5.12.02-.228.116a1.503 1.503 0 0 0 .115 2.75l.233.094 5.44.02 5.44.02.237.09a2.67 2.67 0 0 1 1.553 1.553c.076.205.088.316.088.817s-.012.612-.088.817c-.221.59-.706 1.148-1.218 1.401-.6.296-.242.275-5.152.3l-4.42.022-.228.116c-.93.471-1.133 1.673-.407 2.399.24.241.53.38.897.431.171.023 1.907.033 4.489.024 4.671-.016 4.51-.008 5.366-.288a5.49 5.49 0 0 0 3.527-6.913 6 6 0 0 0-.221-.583 1 1 0 0 1-.083-.184c0-.012.229-.022.51-.023.91-.001 1.264-.102 1.625-.464.726-.726.523-1.928-.407-2.399-.225-.114-.238-.116-.988-.126-1.907-.024-6.265-.028-10.96-.01"/></svg>