<svg xmlns="http://www.w3.org/2000/svg" width="24" height="24" fill="none" stroke="currentColor" stroke-linecap="round" stroke-linejoin="round" stroke-width="3"><path fill="#000" fill-rule="evenodd" stroke="none" d="M3.516 3.577a1.52 1.52 0 0 0-.859 2.088c.09.195.331.456 1.652 1.782L5.856 9l-1.547 1.553c-1.321 1.326-1.562 1.587-1.652 1.782a1.503 1.503 0 0 0 2.008 2.008c.195-.09.456-.331 1.782-1.652L8 11.144l1.553 1.547c1.326 1.321 1.587 1.562 1.782 1.652a1.503 1.503 0 0 0 2.008-2.008c-.09-.195-.331-.456-1.652-1.782L10.144 9l1.547-1.553c1.321-1.326 1.562-1.587 1.652-1.782.353-.772.058-1.628-.695-2.009-.208-.106-.264-.116-.648-.116-.675 0-.624-.037-2.45 1.777L8 6.856 6.45 5.317C4.649 3.528 4.673 3.546 4.04 3.531c-.246-.006-.431.01-.524.046m14.044 6.949c-.943.077-1.957.651-2.503 1.416-.245.344-.484.869-.533 1.172a1.52 1.52 0 0 0 .916 1.615c.167.067.306.088.58.089.331.002.382-.009.63-.133.325-.163.539-.386.724-.752.161-.317.291-.413.564-.413.438 0 .685.366.461.682-.122.171-.6.473-1.328.84-.853.429-1.224.679-1.618 1.089-.389.405-.641.876-.793 1.481-.119.476-.188 1.248-.141 1.584a1.5 1.5 0 0 0 1.291 1.286c.138.02 1.123.036 2.19.036s2.052-.016 2.19-.036a1.494 1.494 0 0 0 1.287-1.7 1.51 1.51 0 0 0-.829-1.126c-.223-.113-.246-.116-1.008-.136l-.78-.02.28-.155c.967-.534 1.592-1.112 1.974-1.828.677-1.266.434-2.865-.594-3.917-.797-.817-1.773-1.17-2.96-1.074"/></svg>