<svg xmlns="http://www.w3.org/2000/svg" width="24" height="24" fill="none" stroke="currentColor" stroke-linecap="round" stroke-linejoin="round" stroke-width="3"><path fill="#000" fill-rule="evenodd" stroke="none" d="M11.516.577c-.371.142-.711.446-.864.774-.149.319-.181.681-.164 1.869.015 1.052.018 1.086.118 1.328.246.593.759.938 1.394.938s1.148-.345 1.394-.938c.1-.242.103-.276.118-1.328.017-1.187-.015-1.549-.163-1.869-.124-.266-.406-.546-.699-.694-.195-.099-.28-.116-.608-.125q-.382-.01-.526.045M4.574 3.439c-.424.09-.845.438-1.042.861-.097.207-.112.29-.112.6 0 .324.013.388.132.638.115.244.232.379.982 1.128.749.75.884.867 1.128.982.25.119.314.132.638.132.31 0 .393-.015.6-.112.315-.147.624-.455.767-.764.098-.21.113-.293.113-.604 0-.324-.013-.388-.132-.638-.115-.244-.232-.379-.982-1.128-.73-.731-.887-.868-1.108-.971a1.73 1.73 0 0 0-.984-.124m14.2 0c-.379.081-.567.224-1.442 1.098-.748.747-.865.88-.98 1.125-.119.25-.132.314-.132.638 0 .311.015.394.113.604.143.309.452.617.767.764.207.097.29.112.6.112.324 0 .388-.013.638-.132.244-.115.379-.232 1.128-.982.75-.749.867-.884.982-1.128.119-.25.132-.314.132-.638 0-.311-.015-.394-.113-.604a1.68 1.68 0 0 0-.748-.753 1.8 1.8 0 0 0-.945-.104m-7.693 3.144c-2.049.374-3.664 1.77-4.303 3.721a5.49 5.49 0 0 0 9.104 5.578c.992-.991 1.586-2.372 1.604-3.728.008-.59-.111-.899-.473-1.237-.292-.273-.526-.37-.938-.39-.451-.021-.663.049-1.069.356-.384.29-.58.365-.952.366a1.29 1.29 0 0 1-1.173-.739c-.105-.211-.121-.286-.121-.566.001-.382.092-.617.376-.965.67-.823.346-2.048-.629-2.385-.254-.088-.975-.093-1.426-.011m-9.565 3.995c-.531.199-.921.672-.993 1.204a1.494 1.494 0 0 0 1.287 1.7c.138.02.673.036 1.19.036s1.052-.016 1.19-.036a1.494 1.494 0 0 0 1.287-1.7 1.51 1.51 0 0 0-.829-1.126l-.228-.116-1.38-.008c-1.079-.007-1.412.003-1.524.046m18 0c-.531.199-.921.672-.993 1.204a1.494 1.494 0 0 0 1.287 1.7c.138.02.673.036 1.19.036s1.052-.016 1.19-.036a1.494 1.494 0 0 0 1.287-1.7 1.51 1.51 0 0 0-.829-1.126l-.228-.116-1.38-.008c-1.079-.007-1.412.003-1.524.046m-9.337 1.245a4.36 4.36 0 0 0 2.706 2.272l.335.098-.22.098a2.26 2.26 0 0 1-1 .199c-.693 0-1.256-.229-1.73-.702-.511-.511-.71-.951-.741-1.638-.022-.489.028-.812.178-1.146l.1-.224.098.34c.054.187.178.504.274.703m-4.205 4.416c-.379.081-.567.224-1.442 1.098-.748.747-.865.88-.98 1.125-.119.25-.132.314-.132.638 0 .311.015.394.113.604.143.309.452.617.767.764.207.097.29.112.6.112.324 0 .388-.013.638-.132.244-.115.379-.232 1.128-.982.75-.749.867-.884.982-1.128.119-.25.132-.314.132-.638 0-.311-.015-.394-.113-.604a1.68 1.68 0 0 0-.748-.753 1.8 1.8 0 0 0-.945-.104m11.4 0c-.424.09-.845.438-1.042.861-.097.207-.112.29-.112.6 0 .324.013.388.132.638.115.244.232.379.982 1.128.749.75.884.867 1.128.982.25.119.314.132.638.132.31 0 .393-.015.6-.112.315-.147.624-.455.767-.764.098-.21.113-.293.113-.604 0-.324-.013-.388-.132-.638-.115-.244-.232-.379-.982-1.128-.73-.731-.887-.868-1.108-.971a1.73 1.73 0 0 0-.984-.124m-5.858 2.338c-.371.142-.711.446-.864.774-.149.319-.181.681-.164 1.869.015 1.052.018 1.086.118 1.328.246.593.759.938 1.394.938s1.148-.345 1.394-.938c.1-.242.103-.276.118-1.328.017-1.187-.015-1.549-.163-1.869-.124-.266-.406-.546-.699-.694-.195-.099-.28-.116-.608-.125q-.382-.01-.526.045"/></svg>