<svg xmlns="http://www.w3.org/2000/svg" width="24" height="24" fill="none" stroke="currentColor" stroke-linecap="round" stroke-linejoin="round" stroke-width="3"><path fill="#000" fill-rule="evenodd" stroke="none" d="M11.516 2.577c-1.049.399-1.349 1.701-.571 2.478.58.58 1.53.583 2.107.007a1.47 1.47 0 0 0 0-2.124c-.292-.292-.55-.395-1.012-.407-.247-.006-.431.01-.524.046M5.999 4.893A1.5 1.5 0 0 0 4.855 6.49c.109 1.041 1.244 1.655 2.191 1.185.229-.114.546-.449.666-.704.095-.203.108-.28.108-.631 0-.347-.014-.429-.103-.62-.293-.624-1.033-.981-1.718-.827m11.358-.014c-.632.113-1.154.721-1.19 1.388-.067 1.234 1.322 2.008 2.343 1.307.647-.443.846-1.355.439-2a1.56 1.56 0 0 0-1.592-.695m-6.276 1.704c-2.049.374-3.664 1.77-4.303 3.721a5.49 5.49 0 1 0 6.112-3.722c-.431-.076-1.391-.075-1.809.001m1.736 3.05a2.65 2.65 0 0 1 1.553 1.55c.076.205.088.316.088.817s-.012.612-.088.817c-.23.615-.711 1.157-1.26 1.418-.415.197-.664.255-1.11.255s-.695-.058-1.11-.255c-.551-.262-1.039-.813-1.256-1.418-.108-.299-.146-.987-.075-1.347.171-.872.938-1.674 1.812-1.895.328-.083 1.149-.05 1.446.058m-9.301.944c-1.049.399-1.349 1.701-.571 2.478.58.58 1.53.583 2.107.007a1.47 1.47 0 0 0 0-2.124c-.292-.292-.55-.395-1.012-.407-.247-.006-.431.01-.524.046m16 0c-1.049.399-1.349 1.701-.571 2.478.58.58 1.53.583 2.107.007a1.47 1.47 0 0 0 0-2.124c-.292-.292-.55-.395-1.012-.407-.247-.006-.431.01-.524.046M5.99 16.203c-.586.139-1.071.696-1.135 1.305-.1.961.776 1.786 1.723 1.624.337-.058.583-.185.831-.429.283-.278.403-.556.423-.983.013-.277 0-.382-.07-.566a1.53 1.53 0 0 0-1.772-.951m11.32-.002a1.62 1.62 0 0 0-.926.673c-.473.753-.155 1.768.676 2.153.206.096.291.112.6.112.321.001.388-.013.62-.124.555-.264.879-.765.879-1.355 0-.798-.61-1.439-1.409-1.482a2 2 0 0 0-.44.023m-5.794 2.376c-1.049.399-1.349 1.701-.571 2.478.58.58 1.53.583 2.107.007a1.47 1.47 0 0 0 0-2.124c-.292-.292-.55-.395-1.012-.407-.247-.006-.431.01-.524.046"/></svg>