<svg xmlns="http://www.w3.org/2000/svg" width="24" height="24" fill="none" stroke="currentColor" stroke-linecap="round" stroke-linejoin="round" stroke-width="3"><path fill="#000" fill-rule="evenodd" stroke="none" d="M11.516 1.577c-.371.142-.711.446-.864.774-.137.294-.184.691-.161 1.371.017.499.034.617.119.828.237.587.755.936 1.39.936s1.153-.349 1.39-.936c.085-.211.102-.329.119-.828.033-.973-.075-1.401-.445-1.766a2 2 0 0 0-.414-.299c-.195-.099-.28-.116-.608-.125q-.382-.01-.526.045M5.074 4.253c-.811.34-1.15 1.237-.777 2.053.076.164.232.35.619.738.425.425.566.54.791.646 1.269.597 2.58-.714 1.983-1.983-.106-.224-.22-.365-.639-.783-.648-.646-.816-.739-1.371-.755-.325-.009-.413.003-.606.084m12.753-.016c-.268.108-.567.349-1.015.819-.275.288-.42.478-.508.664-.592 1.255.728 2.563 1.989 1.97.225-.106.366-.221.791-.646.56-.56.687-.759.756-1.181A1.525 1.525 0 0 0 19 4.284c-.299-.14-.882-.163-1.173-.047m-6.746 2.346c-2.049.374-3.664 1.77-4.303 3.721a5.49 5.49 0 1 0 6.112-3.722c-.431-.076-1.391-.075-1.809.001m1.736 3.05a2.65 2.65 0 0 1 1.553 1.55c.076.205.088.316.088.817s-.012.612-.088.817c-.23.615-.711 1.157-1.26 1.418-.415.197-.664.255-1.11.255s-.695-.058-1.11-.255c-.551-.262-1.039-.813-1.256-1.418-.108-.299-.146-.987-.075-1.347.171-.872.938-1.674 1.812-1.895.328-.083 1.149-.05 1.446.058m-10.301.944c-1.048.396-1.349 1.701-.571 2.478.353.354.721.463 1.555.463s1.202-.109 1.555-.463c.726-.726.523-1.928-.407-2.399l-.228-.116-.88-.009c-.663-.006-.916.005-1.024.046m17 0c-1.048.396-1.349 1.701-.571 2.478.353.354.721.463 1.555.463s1.202-.109 1.555-.463c.726-.726.523-1.928-.407-2.399l-.228-.116-.88-.009c-.663-.006-.916.005-1.024.046M5.99 16.201c-.334.084-.567.249-1.08.761-.553.554-.681.754-.75 1.175-.158.977.726 1.861 1.703 1.703.422-.069.621-.196 1.181-.756.425-.425.54-.566.646-.791a1.474 1.474 0 0 0-1.258-2.114 2 2 0 0 0-.442.022m11.32 0a1.495 1.495 0 0 0-1 2.092c.106.225.221.366.646.791.56.56.759.687 1.181.756.977.158 1.861-.726 1.703-1.703-.069-.422-.196-.621-.756-1.181-.616-.616-.849-.752-1.332-.777a2 2 0 0 0-.442.022m-5.794 2.376c-.371.142-.711.446-.864.774-.137.294-.184.691-.161 1.371.017.499.034.617.119.828.237.587.755.936 1.39.936s1.153-.349 1.39-.936c.085-.211.102-.329.119-.828.033-.973-.075-1.401-.445-1.766a2 2 0 0 0-.414-.299c-.195-.099-.28-.116-.608-.125q-.382-.01-.526.045"/></svg>