<svg xmlns="http://www.w3.org/2000/svg" width="24" height="24" fill="none" stroke="currentColor" stroke-linecap="round" stroke-linejoin="round" stroke-width="3"><path fill="#000" fill-rule="evenodd" stroke="none" d="M9.516 1.577c-.371.142-.711.446-.864.774-.137.294-.184.691-.161 1.371.017.499.034.617.119.828.237.587.755.936 1.39.936s1.153-.349 1.39-.936c.085-.211.102-.329.119-.828.033-.973-.075-1.401-.445-1.766a2 2 0 0 0-.414-.299c-.195-.099-.28-.116-.608-.125q-.382-.01-.526.045m4 0a1.54 1.54 0 0 0-.998 1.233c-.048.33-.048 18.05 0 18.38.178 1.234 1.662 1.74 2.537.865.263-.263.388-.544.442-.998l.043-.367.3.28c.334.312.614.463.942.507 1.198.163 2.069-1.032 1.561-2.141-.088-.193-.315-.44-1.463-1.594l-1.36-1.367V13.52h1.855l1.367 1.36c1.154 1.148 1.401 1.375 1.594 1.463 1.109.508 2.304-.363 2.141-1.561-.044-.328-.195-.608-.507-.942l-.28-.3.367-.043c.454-.054.735-.179.998-.442.726-.725.522-1.929-.405-2.398-.192-.098-.285-.117-.617-.131l-.391-.015.304-.326c.335-.358.485-.631.531-.967a1.5 1.5 0 0 0-.829-1.562c-.208-.106-.264-.116-.648-.116-.667 0-.643-.017-2.282 1.609l-1.382 1.371H15.52V7.625l1.36-1.367c1.148-1.154 1.375-1.401 1.463-1.594.353-.771.057-1.627-.695-2.008-.208-.106-.264-.116-.648-.116s-.439.01-.65.116c-.126.064-.36.238-.52.385l-.29.269-.043-.367c-.054-.451-.179-.737-.433-.987a2 2 0 0 0-.414-.299c-.195-.099-.28-.116-.608-.125q-.382-.01-.526.045m-10.36 2.64c-.858.328-1.24 1.255-.861 2.084.078.17.229.351.621.743.424.423.567.541.791.647.245.116.31.129.633.129.31 0 .393-.015.6-.112.315-.147.624-.455.767-.764.098-.21.113-.293.113-.604 0-.323-.013-.388-.129-.633-.106-.224-.221-.364-.64-.781-.652-.647-.82-.739-1.369-.754q-.382-.01-.526.045m6.121 3.341c-.834.15-1.645.537-2.238 1.066a4.54 4.54 0 0 0-1.48 2.656c-.059.334-.059 1.106 0 1.44.361 2.053 2.013 3.583 4.054 3.755.681.058 1.081-.059 1.442-.42.579-.579.583-1.533.009-2.099-.286-.282-.53-.387-1.05-.451-.532-.065-.796-.175-1.058-.441a2 2 0 0 1-.3-.416c-.106-.208-.116-.264-.116-.648 0-.496.073-.69.387-1.023.282-.299.539-.414 1.063-.474.525-.06.788-.171 1.065-.448.726-.726.523-1.928-.407-2.399-.21-.107-.265-.117-.708-.123a5 5 0 0 0-.663.025m-7.761 3.019c-1.048.396-1.349 1.701-.571 2.478.353.354.721.463 1.555.463s1.202-.109 1.555-.463c.726-.726.523-1.928-.407-2.399l-.228-.116-.88-.009c-.663-.006-.916.005-1.024.046m2.498 5.622c-.339.072-.578.238-1.104.763-.556.557-.691.77-.747 1.18-.162 1.196 1.032 2.069 2.138 1.563.17-.078.351-.229.743-.621.423-.424.541-.567.647-.791.116-.245.129-.31.129-.633 0-.311-.015-.394-.113-.604a1.68 1.68 0 0 0-.748-.753 1.8 1.8 0 0 0-.945-.104m5.502 2.378c-.371.142-.711.446-.864.774-.137.294-.184.691-.161 1.371.017.499.034.617.119.828.237.587.755.936 1.39.936s1.153-.349 1.39-.936c.085-.211.102-.329.119-.828.033-.973-.075-1.401-.445-1.766a2 2 0 0 0-.414-.299c-.195-.099-.28-.116-.608-.125q-.382-.01-.526.045"/></svg>