<svg xmlns="http://www.w3.org/2000/svg" width="24" height="24" fill="none" stroke="currentColor" stroke-linecap="round" stroke-linejoin="round" stroke-width="3"><path fill="#000" fill-rule="evenodd" stroke="none" d="M11.516.577a1.54 1.54 0 0 0-.998 1.233c-.02.138-.037 1.211-.037 2.386l-.001 2.137-.79-.777C8.708 4.591 8.623 4.54 8 4.54c-.384 0-.44.01-.648.116-.754.382-1.048 1.236-.694 2.012.093.203.373.499 2.274 2.398 1.69 1.689 2.213 2.189 2.374 2.269.423.21.965.21 1.388 0 .161-.08.684-.58 2.374-2.269 1.901-1.899 2.181-2.195 2.274-2.398.354-.776.06-1.63-.694-2.012-.208-.106-.264-.116-.648-.116-.623 0-.708.051-1.69 1.016l-.79.777-.001-2.137c0-1.175-.017-2.248-.037-2.386A1.51 1.51 0 0 0 12.65.657c-.195-.099-.28-.116-.608-.125q-.382-.01-.526.045M4.452 9.514a1.506 1.506 0 0 0-.791 2.212c.059.096.481.547.938 1.004.727.725.866.846 1.106.96.247.117.312.13.635.13.31 0 .393-.015.6-.112.315-.147.624-.455.767-.764.098-.21.113-.293.113-.604 0-.324-.013-.388-.132-.638-.115-.245-.232-.378-.98-1.125-.835-.834-1.009-.972-1.368-1.085-.228-.072-.645-.062-.888.022m14.188-.021c-.349.122-.53.267-1.348 1.084-.748.747-.865.88-.98 1.125-.119.25-.132.314-.132.638 0 .311.015.394.113.604.143.309.452.617.767.764.207.097.29.112.6.112.323 0 .388-.013.635-.13.24-.114.379-.235 1.106-.96.457-.457.879-.909.938-1.005.168-.272.233-.542.213-.886a1.4 1.4 0 0 0-.43-.961c-.291-.29-.576-.411-1.002-.424-.193-.006-.401.011-.48.039m-7.559 3.09a5.8 5.8 0 0 0-1.933.723c-1.591.955-2.619 2.747-2.635 4.589-.004.59.136.911.558 1.28.473.413 1.385.413 1.858 0 .399-.348.526-.629.586-1.301.065-.735.255-1.16.727-1.632.287-.287.576-.475.941-.612.205-.076.316-.088.817-.088s.612.012.817.088c.365.137.654.325.941.612.472.472.662.897.727 1.632.06.672.187.953.586 1.301.357.312 1.008.406 1.484.213.389-.157.677-.446.835-.838.256-.633.022-2.031-.515-3.075-.788-1.535-2.238-2.588-3.985-2.893-.431-.076-1.391-.075-1.809.001m-9.565 3.995c-.531.199-.921.672-.993 1.204a1.494 1.494 0 0 0 1.287 1.7c.138.02.673.036 1.19.036s1.052-.016 1.19-.036a1.494 1.494 0 0 0 1.287-1.7 1.51 1.51 0 0 0-.829-1.126l-.228-.116-1.38-.008c-1.079-.007-1.412.003-1.524.046m18 0c-.531.199-.921.672-.993 1.204a1.494 1.494 0 0 0 1.287 1.7c.138.02.673.036 1.19.036s1.052-.016 1.19-.036a1.494 1.494 0 0 0 1.287-1.7 1.51 1.51 0 0 0-.829-1.126l-.228-.116-1.38-.008c-1.079-.007-1.412.003-1.524.046m-18 4.001c-.365.134-.71.443-.864.773a1.5 1.5 0 0 0 1.158 2.13c.331.048 20.049.048 20.38 0a1.494 1.494 0 0 0 1.287-1.7 1.51 1.51 0 0 0-.829-1.126l-.228-.116-10.38-.007c-8.563-.006-10.405.002-10.524.046"/></svg>