<svg xmlns="http://www.w3.org/2000/svg" width="24" height="24" fill="none" stroke="currentColor" stroke-linecap="round" stroke-linejoin="round" stroke-width="3"><path fill="#000" fill-rule="evenodd" stroke="none" d="M17.2 3.577c-.351.078-.516.14-.92.349-.717.369-1.182.838-1.522 1.534-.316.648-.335 1.04-.075 1.57.291.595 1.015.923 1.669.755.467-.119.799-.4 1.028-.868.14-.284.3-.397.562-.397.425.001.675.375.457.682-.122.171-.6.473-1.328.84-.863.434-1.232.684-1.625 1.099-.389.411-.636.872-.786 1.471-.119.476-.188 1.248-.141 1.584a1.5 1.5 0 0 0 1.291 1.286c.138.02 1.123.036 2.19.036s2.052-.016 2.19-.036a1.494 1.494 0 0 0 1.287-1.7 1.51 1.51 0 0 0-.829-1.126c-.224-.114-.242-.116-.978-.129-.412-.007-.75-.026-.75-.043s.062-.059.137-.095c.586-.279 1.326-.858 1.703-1.332a3.17 3.17 0 0 0 .725-2.077c-.001-.954-.336-1.758-1.013-2.427a3.55 3.55 0 0 0-1.8-.969c-.365-.076-1.148-.079-1.472-.007m-13.684 6c-.859.327-1.24 1.255-.859 2.088.09.195.331.456 1.652 1.782L5.856 15l-1.547 1.553c-1.321 1.326-1.562 1.587-1.652 1.782a1.503 1.503 0 0 0 2.008 2.008c.195-.09.456-.331 1.782-1.652L8 17.144l1.553 1.547c1.326 1.321 1.587 1.562 1.782 1.652a1.503 1.503 0 0 0 2.008-2.008c-.09-.195-.331-.456-1.652-1.782L10.144 15l1.547-1.553c1.321-1.326 1.562-1.587 1.652-1.782.353-.772.058-1.628-.695-2.009-.208-.106-.264-.116-.648-.116-.675 0-.624-.037-2.45 1.777L8 12.856l-1.55-1.539C4.649 9.528 4.673 9.546 4.04 9.531c-.246-.006-.431.01-.524.046"/></svg>