<svg xmlns="http://www.w3.org/2000/svg" width="24" height="24" fill="none" stroke="currentColor" stroke-linecap="round" stroke-linejoin="round" stroke-width="3"><path fill="#000" fill-rule="evenodd" stroke="none" d="M4.44 1.547a3.56 3.56 0 0 0-2.888 2.841c-.041.215-.052 1.62-.052 6.692 0 7.158-.016 6.719.278 7.616a5.49 5.49 0 0 0 3.526 3.526c.897.294.454.278 7.656.278 5.933 0 6.484-.006 6.75-.068a3.7 3.7 0 0 0 1.798-1.004c.573-.6.883-1.272.971-2.111.051-.49.051-4.144 0-4.634-.134-1.276-.84-2.28-1.993-2.838a10 10 0 0 0-.371-.173c-.021-.007.052-.163.162-.347.388-.646.533-1.169.539-1.945.005-.649-.061-1.004-.285-1.54-.273-.652-.489-.922-1.749-2.184-.639-.641-1.288-1.259-1.442-1.374a3.94 3.94 0 0 0-1.981-.756c-.988-.079-1.922.18-2.686.745l-.218.161-.052-.232c-.264-1.19-1.219-2.191-2.45-2.568-.289-.088-.325-.089-2.853-.096-1.408-.004-2.605.001-2.66.011m4.905 3.11.136.136-.01 6.394-.011 6.393-.09.237c-.223.593-.706 1.148-1.218 1.401-.412.204-.666.261-1.152.261-.241 0-.514-.025-.64-.058-.771-.205-1.435-.82-1.73-1.604l-.09-.237-.011-6.393-.01-6.394.136-.136.137-.137h4.416zM15.4 6.602c.077.04.637.572 1.245 1.185 1.059 1.067 1.107 1.122 1.154 1.322a.85.85 0 0 1-.091.662c-.049.079-1.235 1.295-2.638 2.702l-2.55 2.558V8.619l.99-.985c.545-.542 1.035-1.009 1.09-1.037a.91.91 0 0 1 .8.005m3.944 8.054.136.136v4.402l-.103.122a.6.6 0 0 1-.25.163c-.156.043-6.767.061-6.767.018 0-.013 1.102-1.138 2.449-2.5l2.45-2.477h1.949zm-12.828.921c-1.049.399-1.349 1.701-.571 2.478.71.71 1.942.519 2.393-.371a1.48 1.48 0 0 0-.286-1.746c-.292-.292-.55-.395-1.012-.407-.247-.006-.431.01-.524.046"/></svg>