<svg xmlns="http://www.w3.org/2000/svg" width="24" height="24" fill="none" stroke="currentColor" stroke-linecap="round" stroke-linejoin="round" stroke-width="3"><path fill="#000" fill-rule="evenodd" stroke="none" d="M9.516 1.578c-.54.2-.916.665-.998 1.232-.02.139-.037 2.787-.037 5.979l-.001 5.728-1.45.012-1.45.011-.228.116a1.51 1.51 0 0 0-.829 1.126 1.494 1.494 0 0 0 1.287 1.7c.138.02.793.037 1.457.037l1.207.001.013 1.89.013 1.89.105.248c.25.595.761.938 1.395.938s1.145-.343 1.395-.938l.105-.248.013-1.89.013-1.89 1.707-.001c.939 0 1.819-.017 1.957-.037a1.494 1.494 0 0 0 1.287-1.7 1.51 1.51 0 0 0-.829-1.126l-.228-.116-1.95-.011-1.95-.012v-3.515l2.91-.011c2.592-.01 2.929-.018 3.082-.077 1.15-.441 1.318-2.013.287-2.675-.365-.234-.416-.237-3.489-.238L11.52 8V4.52l3.21-.001c1.765 0 3.322-.017 3.46-.037a1.494 1.494 0 0 0 1.287-1.7 1.51 1.51 0 0 0-.829-1.126l-.228-.116-4.38-.008c-3.573-.006-4.407.003-4.524.046"/></svg>