<svg xmlns="http://www.w3.org/2000/svg" width="24" height="24" fill="none" stroke="currentColor" stroke-linecap="round" stroke-linejoin="round" stroke-width="3"><path fill="#000" fill-rule="evenodd" stroke="none" d="M5.516.577c-.691.264-1.09.925-.993 1.641.046.336.196.609.532.968l.305.327-1.01.017c-.891.015-1.044.027-1.303.104A3.57 3.57 0 0 0 .552 6.388c-.076.397-.076 10.827 0 11.224.221 1.168 1.036 2.177 2.115 2.617.678.276.486.264 4.543.28 2.232.009 3.779 0 3.949-.023.868-.121 1.434-.852 1.318-1.704a1.51 1.51 0 0 0-.829-1.126l-.228-.116-3.78-.02c-2.91-.015-3.8-.031-3.867-.07a.7.7 0 0 1-.17-.155l-.083-.106V6.792l.136-.136.136-.136h1.535l-.289.31c-.319.343-.47.623-.515.952-.163 1.201 1.032 2.069 2.145 1.559.201-.092.455-.329 1.898-1.773 1.279-1.281 1.69-1.716 1.768-1.874a1.6 1.6 0 0 0 0-1.388c-.078-.159-.484-.587-1.768-1.868C6.638.514 6.684.549 6.042.532q-.382-.01-.526.045m7 3.001c-.366.136-.71.444-.864.774a1.5 1.5 0 0 0 1.158 2.13c.138.02 1.858.037 3.824.037l3.574.001.136.136.136.136v10.402l-.103.122c-.145.173-.308.204-1.07.204h-.674l.309-.33c.339-.363.489-.635.535-.972a1.5 1.5 0 0 0-.829-1.562c-.208-.106-.264-.116-.648-.116-.682 0-.611-.053-2.566 1.898-1.284 1.281-1.69 1.709-1.768 1.868a1.6 1.6 0 0 0 0 1.388c.078.158.489.593 1.768 1.874 1.443 1.444 1.697 1.681 1.898 1.773 1.113.51 2.308-.358 2.145-1.559-.044-.328-.196-.608-.51-.946l-.283-.305.888-.023c.556-.015.989-.046 1.158-.084a3.66 3.66 0 0 0 1.778-.996c.573-.6.883-1.272.971-2.111.053-.506.053-10.128 0-10.634-.154-1.465-1.106-2.614-2.526-3.051l-.293-.091-4-.008c-3.266-.007-4.027.001-4.144.045m-1.239 3.98c-1.471.269-2.667 1.161-3.316 2.474a5.2 5.2 0 0 0-.402 1.248c-.059.334-.059 1.106 0 1.44.361 2.054 2.013 3.583 4.057 3.756 2.473.208 4.652-1.626 4.86-4.092a4.46 4.46 0 0 0-1.343-3.596 3.8 3.8 0 0 0-1.153-.81c-.678-.332-1.061-.423-1.86-.44-.363-.007-.742.002-.843.02m1.376 3.1c.272.138.573.445.709.722.085.174.098.255.098.62 0 .384-.01.44-.116.648a1.51 1.51 0 0 1-1.126.829 1.5 1.5 0 0 1-1.562-.829c-.106-.208-.116-.264-.116-.648 0-.365.013-.446.098-.62.173-.352.515-.664.878-.803q.144-.056.526-.045c.329.009.413.026.611.126"/></svg>