<svg xmlns="http://www.w3.org/2000/svg" width="24" height="24" fill="none" stroke="currentColor" stroke-linecap="round" stroke-linejoin="round" stroke-width="3"><path fill="#000" fill-rule="evenodd" stroke="none" d="M2.516 1.578a1.54 1.54 0 0 0-.998 1.232c-.05.345-.047 3.07.004 3.39.088.56-.217.228 5.543 6l5.289 5.3-.303.32c-.333.353-.482.625-.528.962-.162 1.197 1.032 2.069 2.139 1.562.185-.085.413-.289 1.283-1.152l1.058-1.049.936.936.936.935-.094.113c-.273.324-.351.979-.169 1.428.234.58.755.931 1.382.931.417 0 .699-.109 1.04-.405.146-.127.703-.673 1.237-1.213.79-.799.99-1.025 1.074-1.207.351-.767.054-1.626-.693-2.003-.182-.093-.291-.117-.575-.131-.397-.019-.61.035-.893.226l-.174.118-.933-.934-.934-.934 1.049-1.058c.863-.87 1.067-1.098 1.152-1.283.352-.769.055-1.626-.696-2.006-.208-.106-.264-.116-.648-.116-.385 0-.439.01-.651.117a3 3 0 0 0-.54.407l-.309.29-5.3-5.288C7.551 2.427 6.871 1.763 6.66 1.659l-.24-.119-1.88-.008c-1.494-.006-1.91.003-2.024.046m15.044-.006c-.375.128-.526.262-2.388 2.122-1.761 1.76-1.896 1.905-2.02 2.166-.119.252-.132.316-.132.64 0 .311.015.394.113.604.143.309.452.617.767.764.207.097.29.112.6.112.324 0 .388-.013.637-.131.256-.121.407-.261 1.882-1.73l1.605-1.599h.856v.856l-1.599 1.605c-1.469 1.475-1.609 1.626-1.73 1.882-.118.249-.131.313-.131.637 0 .31.015.393.112.6.147.315.455.624.764.767.21.098.293.113.604.113.324 0 .388-.013.64-.132.262-.124.404-.257 2.182-2.04 2.069-2.075 2.072-2.079 2.156-2.608.051-.32.054-3.045.004-3.39a1.51 1.51 0 0 0-.834-1.154l-.228-.116-1.86-.008c-1.353-.005-1.898.006-2 .04M10.37 9.51l4.989 4.989-.429.431-.429.431L9.51 10.37 4.52 5.38v-.86h.86zm-5.854 3.067c-.855.325-1.24 1.255-.862 2.082.081.176.269.391.903 1.034l.8.811-.689.683-.688.683-.16-.114c-.38-.273-1.039-.318-1.468-.1a1.505 1.505 0 0 0-.697 2.005c.084.182.284.408 1.074 1.207.534.54 1.091 1.086 1.237 1.213.341.296.623.405 1.04.405.627 0 1.148-.351 1.382-.931.182-.45.103-1.115-.17-1.427l-.094-.108.685-.687.685-.687.323.302c.356.333.63.484.965.529 1.2.163 2.068-1.031 1.56-2.145-.093-.204-.37-.495-2.274-2.394-2.489-2.483-2.374-2.392-3.028-2.407-.246-.006-.431.01-.524.046"/></svg>