<svg xmlns="http://www.w3.org/2000/svg" width="24" height="24" fill="none" stroke="currentColor" stroke-linecap="round" stroke-linejoin="round" stroke-width="3"><path fill="#000" fill-rule="evenodd" stroke="none" d="M2.516 1.578a1.54 1.54 0 0 0-.998 1.232c-.05.345-.047 3.07.004 3.39.088.56-.217.228 5.543 6l5.289 5.3-.303.32c-.333.353-.482.625-.528.962-.162 1.197 1.032 2.069 2.139 1.562.185-.085.413-.289 1.283-1.152l1.058-1.049.936.936.936.935-.094.113c-.273.324-.351.979-.169 1.428.234.58.755.931 1.382.931.417 0 .699-.109 1.04-.405.146-.127.703-.673 1.237-1.213.79-.799.99-1.025 1.074-1.207.351-.767.054-1.626-.693-2.003-.182-.093-.291-.117-.575-.131-.397-.019-.61.035-.893.226l-.174.118-.933-.934-.934-.934 1.049-1.058c.863-.87 1.067-1.098 1.152-1.283.352-.769.055-1.626-.696-2.006-.208-.106-.264-.116-.648-.116-.385 0-.439.01-.651.117a3 3 0 0 0-.54.407l-.309.29-5.3-5.288C7.551 2.427 6.871 1.763 6.66 1.659l-.24-.119-1.88-.008c-1.494-.006-1.91.003-2.024.046M10.37 9.51l4.989 4.989-.429.431-.429.431L9.51 10.37 4.52 5.38v-.86h.86z"/></svg>