<svg xmlns="http://www.w3.org/2000/svg" width="24" height="24" fill="none" stroke="currentColor" stroke-linecap="round" stroke-linejoin="round" stroke-width="3"><path fill="#000" fill-rule="evenodd" stroke="none" d="M17.516.577c-.691.264-1.09.925-.993 1.641.055.405.184.606.78 1.219l.552.568-.426.426-.426.426-1.052-1.039C14.68 2.561 14.647 2.54 14 2.54c-.381 0-.44.01-.64.112-.557.285-.846.745-.846 1.348 0 .336.108.689.267.872l.094.108-4.771 4.78c-2.972 2.978-4.842 4.88-4.958 5.046a4.2 4.2 0 0 0-.593 1.299c-.069.278-.088.468-.086.875.003.603.105 1.072.35 1.602l.144.312-1.101 1.109C.949 20.92.741 21.151.656 21.338a1.502 1.502 0 0 0 2.006 2.006c.187-.085.419-.295 1.332-1.198L5.1 21.051l.32.153c.921.439 2.04.45 3.05.029.738-.307.642-.218 5.79-5.357l4.76-4.751.108.094c.303.264.958.348 1.405.18a1.5 1.5 0 0 0 .944-1.617c-.063-.465-.152-.585-1.285-1.727l-1.049-1.058.426-.426.426-.426.568.552c.613.596.814.725 1.219.78 1.2.163 2.068-1.031 1.56-2.145-.093-.204-.37-.495-2.274-2.394C18.58.457 18.697.55 18.042.532c-.253-.007-.431.008-.526.045M15.94 8.08l.92.92-1.93 1.93L13 12.86l-.93-.93-.93-.93 1.92-1.92A134 134 0 0 1 15 7.16c.011 0 .434.414.94.92m-6 6 .919.92-1.679 1.683c-.924.925-1.743 1.715-1.82 1.755-.215.111-.389.135-.581.082-.141-.04-.265-.141-.666-.545-.271-.273-.526-.563-.568-.645-.093-.181-.103-.508-.02-.664.056-.103 3.428-3.506 3.475-3.506.012 0 .434.414.94.92"/></svg>