<svg xmlns="http://www.w3.org/2000/svg" width="24" height="24" fill="none" stroke="currentColor" stroke-linecap="round" stroke-linejoin="round" stroke-width="3"><path fill="#000" fill-rule="evenodd" stroke="none" d="M2.516.577c-.561.215-.918.668-1.004 1.274-.06.425-.015 2.537.061 2.87.31 1.361 1.34 2.389 2.717 2.711.267.063.875.068 7.71.068s7.443-.005 7.71-.068c1.537-.359 2.605-1.561 2.769-3.115.049-.471.052-2.171.003-2.507a1.51 1.51 0 0 0-.834-1.154C21.44.55 21.384.54 21 .54s-.44.01-.648.116a1.51 1.51 0 0 0-.834 1.154c-.02.138-.037.73-.037 1.317l-.001 1.067-.103.122a.6.6 0 0 1-.25.163c-.085.023-.661.041-1.377.041h-1.23l-.001-1.23c0-.676-.017-1.342-.037-1.48a1.51 1.51 0 0 0-.834-1.154C15.44.55 15.384.54 15 .54s-.44.01-.648.116a1.51 1.51 0 0 0-.834 1.154c-.02.138-.037.804-.037 1.48l-.001 1.23h-2.96l-.001-1.23c0-.676-.017-1.342-.037-1.48A1.51 1.51 0 0 0 9.648.656C9.44.55 9.384.54 9 .54s-.44.01-.648.116a1.51 1.51 0 0 0-.834 1.154c-.02.138-.037.804-.037 1.48L7.48 4.52H6.25c-.716 0-1.292-.018-1.377-.041a.6.6 0 0 1-.25-.163l-.103-.122-.001-1.067c0-.587-.017-1.179-.037-1.317A1.51 1.51 0 0 0 3.65.657C3.455.558 3.37.541 3.042.532c-.253-.007-.431.008-.526.045m-1 8.001c-.531.199-.921.672-.993 1.204a1.494 1.494 0 0 0 1.287 1.7c.138.02.673.036 1.19.036s1.052-.016 1.19-.036a1.494 1.494 0 0 0 1.287-1.7 1.51 1.51 0 0 0-.829-1.126L4.42 8.54l-1.38-.008c-1.079-.007-1.412.003-1.524.046m6 0c-.531.199-.921.672-.993 1.204a1.494 1.494 0 0 0 1.287 1.7c.138.02.673.036 1.19.036s1.052-.016 1.19-.036a1.494 1.494 0 0 0 1.287-1.7 1.51 1.51 0 0 0-.829-1.126l-.228-.116-1.38-.008c-1.079-.007-1.412.003-1.524.046m6 0c-.531.199-.921.672-.993 1.204a1.494 1.494 0 0 0 1.287 1.7c.138.02.673.036 1.19.036s1.052-.016 1.19-.036a1.494 1.494 0 0 0 1.287-1.7 1.51 1.51 0 0 0-.829-1.126l-.228-.116-1.38-.008c-1.079-.007-1.412.003-1.524.046m6 0c-.531.199-.921.672-.993 1.204a1.494 1.494 0 0 0 1.287 1.7c.138.02.673.036 1.19.036s1.052-.016 1.19-.036a1.494 1.494 0 0 0 1.287-1.7 1.51 1.51 0 0 0-.829-1.126l-.228-.116-1.38-.008c-1.079-.007-1.412.003-1.524.046M6.6 12.522c-2.192.021-2.269.024-2.553.111a3.57 3.57 0 0 0-2.495 2.755c-.04.208-.052 1.05-.052 3.592v3.32l.105.248c.25.595.761.938 1.395.938.635 0 1.15-.346 1.393-.938.096-.234.103-.296.119-1.138l.018-.89h2.94l.018.89c.016.842.023.904.119 1.138.243.592.758.938 1.393.938s1.15-.346 1.393-.938c.096-.234.103-.296.119-1.138l.018-.89h2.94l.018.89c.016.842.023.904.119 1.138.243.592.758.938 1.393.938s1.15-.346 1.393-.938c.096-.234.103-.296.119-1.138l.018-.89h2.94l.018.89c.016.842.023.904.119 1.138.243.592.758.938 1.393.938.634 0 1.145-.343 1.395-.938l.105-.248.012-3.08c.007-1.937-.004-3.234-.03-3.495-.065-.648-.249-1.184-.571-1.659-.616-.91-1.6-1.479-2.651-1.531-.579-.029-10.001-.039-12.66-.013m.88 3.998v1H4.52v-1.728l.136-.136.136-.136H7.48zm6 0v1h-2.96v-2h2.96zm5.864-.864.136.136v1.728h-2.96v-2h2.688z"/></svg>