<svg xmlns="http://www.w3.org/2000/svg" width="24" height="24" fill="none" stroke="currentColor" stroke-linecap="round" stroke-linejoin="round" stroke-width="3"><path fill="#000" fill-rule="evenodd" stroke="none" d="M13.516.577c-.371.142-.711.446-.864.774-.149.319-.181.681-.164 1.869.015 1.052.018 1.086.118 1.328.246.593.759.938 1.394.938s1.148-.345 1.394-.938c.1-.242.103-.276.118-1.328.017-1.187-.015-1.549-.163-1.869-.124-.266-.406-.546-.699-.694-.195-.099-.28-.116-.608-.125q-.382-.01-.526.045M3.22 1.52l-1.64.02-.228.116a1.51 1.51 0 0 0-.829 1.126 1.494 1.494 0 0 0 1.287 1.7c.138.02.569.037.96.037l.71.001v2.996l-.95.012-.95.012-.228.116a1.51 1.51 0 0 0-.829 1.126 1.494 1.494 0 0 0 1.287 1.7c.138.02.569.037.96.037l.71.001v2.996l-.95.012-.95.012-.228.116a1.51 1.51 0 0 0-.829 1.126 1.494 1.494 0 0 0 1.287 1.7c.138.02.569.037.96.037l.71.001v2.996l-.95.012-.95.012-.228.116c-.93.471-1.133 1.673-.407 2.399.241.241.53.38.898.431.171.024 1.521.033 3.449.023 3.5-.017 3.372-.008 4.044-.282a3.6 3.6 0 0 0 1.575-1.293 3.5 3.5 0 0 0 .568-1.617c.054-.511.054-14.123 0-14.634-.132-1.255-.824-2.255-1.946-2.817-.522-.262-.782-.315-1.613-.331a152 152 0 0 0-4.7-.015m16.22.027a3.56 3.56 0 0 0-2.888 2.841c-.076.399-.076 14.825 0 15.224.221 1.168 1.036 2.177 2.115 2.617.564.229.756.256 2.033.279 1.272.022 1.619-.006 1.949-.159.425-.198.764-.661.828-1.131a1.5 1.5 0 0 0-.829-1.562l-.228-.116-1.28-.02c-1.359-.021-1.379-.024-1.537-.225-.08-.102-.083-.15-.083-1.44V16.52l1.21-.001c.666 0 1.322-.017 1.46-.037a1.494 1.494 0 0 0 1.287-1.7 1.51 1.51 0 0 0-.829-1.126l-.228-.116-1.45-.012-1.45-.012V10.52l1.21-.001c.666 0 1.322-.017 1.46-.037a1.494 1.494 0 0 0 1.287-1.7 1.51 1.51 0 0 0-.829-1.126l-.228-.116-1.45-.012-1.45-.012V4.792l.136-.136.136-.136 1.074-.001c.591 0 1.186-.017 1.324-.037a1.494 1.494 0 0 0 1.287-1.7 1.51 1.51 0 0 0-.829-1.126l-.228-.116-1.44-.005a37 37 0 0 0-1.54.012M8.344 4.656l.136.136V7.52H6.52v-3h1.688zm5.172 1.921c-.371.142-.711.446-.864.774-.149.319-.181.681-.164 1.869.015 1.052.018 1.086.118 1.328.246.593.759.938 1.394.938s1.148-.345 1.394-.938c.1-.242.103-.276.118-1.328.017-1.187-.015-1.549-.163-1.869-.124-.266-.406-.546-.699-.694-.195-.099-.28-.116-.608-.125q-.382-.01-.526.045M8.48 12.02v1.5H6.52v-3h1.96zm5.036.557c-.371.142-.711.446-.864.774-.149.319-.181.681-.164 1.869.015 1.052.018 1.086.118 1.328.246.593.759.938 1.394.938s1.148-.345 1.394-.938c.1-.242.103-.276.118-1.328.017-1.187-.015-1.549-.163-1.869-.124-.266-.406-.546-.699-.694-.195-.099-.28-.116-.608-.125q-.382-.01-.526.045m-5.036 5.28v1.337l-.103.122a.6.6 0 0 1-.25.163c-.081.022-.476.041-.877.041h-.73v-3h1.96zm5.036.72c-.371.142-.711.446-.864.774-.149.319-.181.681-.164 1.869.015 1.052.018 1.086.118 1.328.246.593.759.938 1.394.938s1.148-.345 1.394-.938c.1-.242.103-.276.118-1.328.017-1.187-.015-1.549-.163-1.869-.124-.266-.406-.546-.699-.694-.195-.099-.28-.116-.608-.125q-.382-.01-.526.045"/></svg>