<svg xmlns="http://www.w3.org/2000/svg" width="24" height="24" fill="none" stroke="currentColor" stroke-linecap="round" stroke-linejoin="round" stroke-width="3"><path fill="#000" fill-rule="evenodd" stroke="none" d="M8.08 1.521c-3.737.021-3.74.021-4.033.111-1.3.4-2.247 1.446-2.495 2.756-.076.399-.076 14.825 0 15.224.221 1.168 1.036 2.177 2.116 2.617.716.292.076.271 8.332.271 6.835 0 7.443-.005 7.71-.068a3.7 3.7 0 0 0 1.798-1.004c.573-.6.883-1.272.971-2.111.054-.511.054-14.123 0-14.634-.154-1.465-1.113-2.622-2.526-3.05-.277-.084-.376-.089-1.853-.101a713 713 0 0 0-10.02-.011m2.4 4.499v1.5H4.52V4.792l.136-.136.136-.136h5.688zm8.864-1.364.136.136V7.52h-5.96v-3h5.688zM10.48 12.02v1.5H4.52v-3h5.96zm9 0v1.5h-5.96v-3h5.96zm-9 6v1.5H7.75c-1.739 0-2.784-.015-2.877-.041a.6.6 0 0 1-.25-.163l-.103-.122V16.52h5.96zm9-.163v1.337l-.103.122a.6.6 0 0 1-.25.163c-.093.026-1.138.041-2.877.041h-2.73v-3h5.96z"/></svg>