<svg xmlns="http://www.w3.org/2000/svg" width="24" height="24" fill="none" stroke="currentColor" stroke-linecap="round" stroke-linejoin="round" stroke-width="3"><path fill="#000" fill-rule="evenodd" stroke="none" d="M6.02.58C3.196 1.031 1.006 3.22.577 6.02a8 8 0 0 0 0 1.96 6.51 6.51 0 0 0 4.376 5.178c2.03.677 4.302.3 5.987-.993A6.48 6.48 0 0 0 13.486 7a6.3 6.3 0 0 0-.726-2.99C11.777 2.136 10.042.9 7.94.577 7.498.509 6.456.511 6.02.58m1.732 3.004c.169.035.33.076.357.091.031.017-.757.833-2.187 2.263L3.687 8.173l-.044-.16a3.5 3.5 0 0 1-.123-1.02c0-.999.31-1.747 1.018-2.455.507-.506 1.063-.821 1.682-.952.381-.081 1.146-.082 1.532-.002m2.664 2.664c.082.395.082 1.105.001 1.504-.21 1.034-.994 1.996-1.996 2.45-.422.192-.89.286-1.42.285a3.3 3.3 0 0 1-1.018-.132l-.156-.042 2.235-2.235c1.43-1.43 2.246-2.218 2.263-2.187.015.027.056.188.091.357m5.604 4.332c-2.824.451-5.009 2.634-5.444 5.44a7.5 7.5 0 0 0 .02 2.067 6.484 6.484 0 0 0 6.384 5.398c1.728.003 3.263-.611 4.515-1.805A6.41 6.41 0 0 0 23.487 17c0-3.236-2.325-5.928-5.547-6.423-.442-.068-1.484-.066-1.92.003m1.732 3.003c.92.187 1.8.838 2.301 1.701.059.1.107.195.107.21s-1.422.026-3.16.026-3.16-.012-3.16-.026c0-.015.048-.11.107-.21.493-.85 1.374-1.508 2.273-1.698.378-.08 1.146-.082 1.532-.003m2.305 5.127a3.7 3.7 0 0 1-1.645 1.497c-1.032.467-2.426.347-3.359-.291a4.1 4.1 0 0 1-1.11-1.206l-.111-.19h6.336z"/></svg>