<svg xmlns="http://www.w3.org/2000/svg" width="24" height="24" fill="none" stroke="currentColor" stroke-linecap="round" stroke-linejoin="round" stroke-width="3"><path fill="#000" fill-rule="evenodd" stroke="none" d="M6.44.547a3.6 3.6 0 0 0-2.356 1.526c-.413.61-.648 1.505-.562 2.138.164 1.209 1.668 1.71 2.533.844.251-.25.377-.525.44-.959.045-.31.065-.36.179-.462l.127-.114h12.407l.136.136.136.136v16.397l-.083.106c-.16.203-.164.204-1.737.225l-1.48.02-.228.116c-.93.471-1.133 1.673-.407 2.399.242.242.53.38.906.432.45.063 2.941.017 3.279-.061a3.7 3.7 0 0 0 1.778-.998c.573-.6.883-1.272.971-2.111.054-.512.054-16.122 0-16.634-.154-1.464-1.104-2.611-2.526-3.052l-.293-.09L13.1.535C9.492.533 6.495.538 6.44.547m-2 6a3.56 3.56 0 0 0-2.888 2.841c-.076.397-.076 10.827 0 11.224.221 1.168 1.036 2.177 2.116 2.617.689.281.535.271 4.332.271 3.075 0 3.449-.007 3.71-.068a3.7 3.7 0 0 0 1.798-1.004c.573-.6.883-1.272.971-2.111.053-.506.053-10.128 0-10.634-.154-1.465-1.106-2.614-2.526-3.051l-.293-.09-3.56-.006a202 202 0 0 0-3.66.011m6.904 3.109.136.136v10.402l-.103.122a.6.6 0 0 1-.25.163c-.201.056-6.053.056-6.254 0a.6.6 0 0 1-.25-.163l-.103-.122V9.792l.136-.136.136-.136h6.416zm-3.828 6.921c-1.049.399-1.349 1.701-.571 2.478.71.71 1.942.519 2.393-.371a1.48 1.48 0 0 0-.286-1.746c-.292-.292-.55-.395-1.012-.407-.247-.006-.431.01-.524.046"/></svg>