<svg xmlns="http://www.w3.org/2000/svg" width="24" height="24" fill="none" stroke="currentColor" stroke-linecap="round" stroke-linejoin="round" stroke-width="3"><path fill="#000" fill-rule="evenodd" stroke="none" d="M3.44.547C2.016.795.918 1.84.569 3.279.514 3.505.503 4.042.49 7.28c-.011 2.578-.002 3.875.029 4.175.088.853.37 1.476.973 2.147s8.879 8.9 9.168 9.116c.344.256.804.482 1.28.628.334.102.41.11 1.06.11s.726-.008 1.06-.11a4.3 4.3 0 0 0 1.28-.628c.365-.272 7.106-7.013 7.378-7.378.257-.344.482-.804.628-1.28.102-.334.11-.41.11-1.06s-.008-.726-.11-1.06a4.3 4.3 0 0 0-.628-1.28c-.216-.289-8.445-8.565-9.116-9.168-.455-.409-.834-.637-1.353-.817L11.86.54 7.7.535C5.412.532 3.495.537 3.44.547M15.854 7.99c3.088 3.085 4.497 4.52 4.549 4.63.092.196.099.529.016.731-.086.207-6.812 6.946-7.039 7.052a1.02 1.02 0 0 1-.76 0c-.11-.052-1.545-1.461-4.63-4.549l-4.47-4.475V3.792l.136-.136.136-.136h7.587zM6.94 5.574c-.451.149-.898.489-1.14.867-.388.604-.39 1.512-.003 2.114a1.99 1.99 0 0 0 1.703.937c.552 0 .969-.166 1.369-.544.43-.407.619-.848.619-1.448 0-.81-.417-1.457-1.168-1.816-.284-.136-.324-.144-.76-.153-.298-.006-.516.009-.62.043m1.083 1.088c.283.174.431.432.451.784.013.237 0 .305-.095.499-.349.713-1.379.724-1.748.018a.98.98 0 0 1 .418-1.341c.181-.092.251-.105.495-.094.232.011.319.035.479.134m-.771.416a.48.48 0 0 0-.174.67c.2.328.644.328.844 0a.45.45 0 0 0 0-.496.48.48 0 0 0-.67-.174"/></svg>