<svg xmlns="http://www.w3.org/2000/svg" width="24" height="24" fill="none" stroke="currentColor" stroke-linecap="round" stroke-linejoin="round" stroke-width="3"><path fill="#000" fill-rule="evenodd" stroke="none" d="M2.38 3.575A2.56 2.56 0 0 0 .777 4.86c-.281.565-.27.431-.287 3.44-.011 1.84-.002 2.861.029 3.155.088.853.37 1.476.973 2.147.585.652 5.874 5.895 6.168 6.115.343.257.803.483 1.28.629.334.102.41.11 1.06.11s.726-.008 1.06-.11a4.3 4.3 0 0 0 1.28-.628c.365-.273 4.105-4.013 4.378-4.378.256-.344.482-.804.628-1.28.102-.334.11-.41.11-1.06s-.008-.726-.11-1.06a4.3 4.3 0 0 0-.629-1.28c-.22-.294-5.463-5.583-6.115-6.168-.455-.409-.834-.638-1.353-.817L8.86 3.54l-3.14-.007c-2.407-.006-3.187.004-3.34.042m12.136.002a1.52 1.52 0 0 0-.857 2.091c.093.206.48.607 3.399 3.532 1.812 1.815 3.324 3.361 3.362 3.436.089.178.089.55 0 .728-.038.075-1.101 1.171-2.362 2.437-2.005 2.011-2.307 2.33-2.4 2.531a1.503 1.503 0 0 0 2.01 2.01c.205-.093.51-.384 2.595-2.474 2.464-2.469 2.57-2.589 2.876-3.233.243-.512.35-1.009.35-1.635s-.107-1.123-.35-1.635c-.315-.665-.353-.706-3.876-4.228-3.825-3.824-3.551-3.59-4.223-3.606-.246-.006-.431.01-.524.046M11.354 9.49c2.031 2.028 2.998 3.021 3.049 3.13.092.196.099.529.016.731-.085.205-3.814 3.947-4.039 4.052a1.02 1.02 0 0 1-.76 0c-.109-.051-1.102-1.018-3.13-3.049l-2.97-2.975V6.52h4.859zM5.94 7.574c-.451.149-.898.489-1.14.867-.388.604-.39 1.512-.003 2.114a1.99 1.99 0 0 0 1.703.937c.552 0 .969-.166 1.369-.544.43-.407.619-.848.619-1.448 0-.81-.417-1.457-1.168-1.816-.284-.136-.324-.144-.76-.153-.298-.006-.516.009-.62.043m1.083 1.088c.283.174.431.432.451.784.013.237 0 .305-.095.499-.349.713-1.379.724-1.748.018a.98.98 0 0 1 .418-1.341c.181-.092.251-.105.495-.094.232.011.319.035.479.134m-.771.416a.48.48 0 0 0-.174.67c.2.328.644.328.844 0a.45.45 0 0 0 0-.496.48.48 0 0 0-.67-.174"/></svg>