<svg xmlns="http://www.w3.org/2000/svg" width="24" height="24" fill="none" stroke="currentColor" stroke-linecap="round" stroke-linejoin="round" stroke-width="3"><path fill="#000" fill-rule="evenodd" stroke="none" d="M3.516 2.577a1.64 1.64 0 0 0-.922.89L2.5 3.7l-.02 6.138-.02 6.137-.677.408c-.732.44-.972.644-1.126.959-.21.429-.194.998.039 1.395.311.531.976.851 1.544.743l.219-.04c.005 0 .02.199.034.442.037.638.17.937.578 1.293.357.312 1.008.406 1.484.213.387-.156.674-.443.839-.84.103-.246.104-.26.125-1.586l.021-1.337.953-.573c.524-.314.959-.572.967-.572s.02.86.027 1.91L7.5 20.3l.105.248c.25.595.761.938 1.395.938s1.145-.343 1.395-.938l.105-.248.02-2.838.02-2.837.953-.573c.524-.314.959-.572.968-.572s.021 1.534.027 3.41l.012 3.41.105.248c.25.595.761.938 1.395.938s1.145-.343 1.395-.938l.105-.248.02-4.338.02-4.337.953-.573c.524-.314.96-.572.968-.572s.022 2.209.028 4.91l.011 4.91.105.248c.25.595.761.938 1.395.938s1.145-.343 1.395-.938l.105-.248.02-5.838.02-5.837 1.177-.707c.721-.433 1.244-.775 1.351-.882.711-.712.496-1.925-.422-2.379-.18-.089-.297-.115-.573-.129-.43-.022-.577.024-1.116.35-.22.133-.409.242-.419.242s-.018-.239-.019-.53c-.001-.654-.044-.967-.171-1.24-.123-.265-.405-.545-.7-.694-.208-.106-.264-.116-.648-.116-.381 0-.44.01-.64.112q-.554.282-.764.815c-.09.226-.093.28-.114 1.871l-.022 1.637-.953.573c-.524.314-.96.572-.97.572-.009 0-.017-.913-.018-2.03s-.017-2.142-.037-2.28a1.51 1.51 0 0 0-.834-1.154c-.208-.106-.264-.116-.648-.116-.381 0-.44.01-.64.112a1.54 1.54 0 0 0-.766.815L12.5 3.7l-.02 3.138-.02 3.137-.953.573c-.524.314-.96.572-.97.572-.009 0-.017-1.589-.018-3.53s-.017-3.642-.037-3.78a1.51 1.51 0 0 0-.834-1.154C9.44 2.55 9.384 2.54 9 2.54c-.381 0-.44.01-.64.112a1.54 1.54 0 0 0-.766.815L7.5 3.7l-.02 4.638-.02 4.637-.953.573c-.524.314-.96.572-.97.572-.009 0-.017-2.263-.018-5.03 0-2.776-.017-5.142-.037-5.28a1.51 1.51 0 0 0-.832-1.153c-.195-.099-.28-.116-.608-.125-.253-.007-.431.008-.526.045"/></svg>