<svg xmlns="http://www.w3.org/2000/svg" width="24" height="24" fill="none" stroke="currentColor" stroke-linecap="round" stroke-linejoin="round" stroke-width="3"><path fill="#000" fill-rule="evenodd" stroke="none" d="M16.44.545c-1.019.196-1.839.74-2.392 1.587q-.537.824-.535 1.888c.001.344.025.517.153 1.08.014.063-.894.991-4.24 4.335l-4.257 4.256-.294-.076c-.447-.114-1.384-.106-1.807.016-1.287.371-2.274 1.445-2.509 2.733-.06.328-.06.944 0 1.272a3.56 3.56 0 0 0 2.109 2.593c.451.184.832.258 1.332.258a3.4 3.4 0 0 0 1.971-.604 3.51 3.51 0 0 0 1.404-3.796l-.068-.252.496-.499.497-.498.032.231c.102.75.401 2.068.708 3.13.441 1.525 1.403 4.131 1.698 4.597.226.358.545.576.978.666.249.052.318.052.563.001.624-.13 1.053-.556 1.181-1.172.08-.381.038-.591-.258-1.303-.722-1.737-1.376-3.772-1.7-5.287-.215-1.004-.268-1.421-.291-2.285-.041-1.572.158-1.974 1.069-2.158.272-.056.479-.064 1.136-.047.864.023 1.281.076 2.285.291 1.515.324 3.55.978 5.287 1.7.712.296.922.338 1.303.258 1.324-.276 1.644-2.004.504-2.723-.288-.182-1.763-.764-3.045-1.202-1.655-.567-3.358-1.002-4.701-1.203l-.211-.032.498-.496.498-.496.234.066c.938.263 2.059.083 2.861-.459.523-.354 1.015-.926 1.248-1.451.78-1.765.075-3.738-1.644-4.598-.479-.24-.797-.313-1.433-.327a7 7 0 0 0-.66.006m.904 3.111c.119.119.136.162.136.337 0 .157-.022.227-.103.323a.49.49 0 0 1-.754 0c-.081-.096-.103-.166-.103-.323 0-.175.017-.218.136-.337s.161-.136.344-.136.224.016.344.136m-13 13c.119.119.136.162.136.337 0 .157-.022.227-.103.323a.5.5 0 0 1-.514.16c-.214-.059-.343-.241-.343-.483 0-.175.017-.218.136-.337s.161-.136.344-.136.224.016.344.136"/></svg>