<svg xmlns="http://www.w3.org/2000/svg" width="24" height="24" fill="none" stroke="currentColor" stroke-linecap="round" stroke-linejoin="round" stroke-width="3"><path fill="#000" fill-rule="evenodd" stroke="none" d="M10.82.563A11.515 11.515 0 0 0 .739 9.671a11.8 11.8 0 0 0 0 4.658 11.52 11.52 0 0 0 8.932 8.932c1.501.309 3.157.309 4.658 0a11.53 11.53 0 0 0 8.932-8.932 11.8 11.8 0 0 0 0-4.658C22.306 5.036 18.563 1.433 13.9.663c-.846-.14-2.244-.185-3.08-.1m2.6 3.054c2.416.447 4.406 1.764 5.73 3.791 1.617 2.478 1.777 5.808.406 8.476a8.75 8.75 0 0 1-3.078 3.344c-.929.579-2.156 1.023-3.298 1.194-.591.088-1.769.088-2.36 0-1.86-.279-3.49-1.094-4.802-2.402-1.289-1.285-2.06-2.766-2.405-4.62-.102-.545-.102-2.255 0-2.8.455-2.445 1.759-4.421 3.795-5.75 1.057-.69 2.201-1.094 3.692-1.306.306-.043 1.974.01 2.32.073m-2.4.947c-2.244.32-4.216 1.595-5.387 3.483-.998 1.609-1.36 3.591-.989 5.413.754 3.703 4.159 6.301 7.886 6.018a7.51 7.51 0 0 0 6.948-6.948c.295-3.877-2.526-7.378-6.403-7.948-.461-.067-1.636-.078-2.055-.018m2.14 3.093c.441.122 1.163.464 1.48.701.304.228.732.652.969.962.268.35.605 1.052.74 1.54.102.37.11.455.11 1.14 0 .686-.008.769-.11 1.138-.36 1.289-1.196 2.314-2.359 2.89-1.614.798-3.581.549-4.92-.623a4.6 4.6 0 0 1-1.419-2.265c-.102-.37-.11-.456-.11-1.14 0-.685.008-.77.11-1.14.135-.488.472-1.19.74-1.54.237-.31.665-.734.969-.962.301-.225 1.033-.577 1.417-.681.515-.139.65-.153 1.343-.139.561.012.717.03 1.04.119m-1.72.888c-.77.148-1.465.517-1.966 1.044A3.42 3.42 0 0 0 8.512 12c0 .715.187 1.345.57 1.917a3.56 3.56 0 0 0 2.208 1.509 4.3 4.3 0 0 0 1.42 0 3.513 3.513 0 0 0 2.765-3.772c-.123-1.217-.83-2.232-1.942-2.788-.479-.24-.797-.313-1.433-.327a7 7 0 0 0-.66.006m.904 3.111c.119.119.136.162.136.337 0 .242-.129.424-.343.483a.5.5 0 0 1-.514-.16c-.081-.096-.103-.166-.103-.323 0-.175.017-.218.136-.337s.161-.136.344-.136.224.016.344.136"/></svg>