<svg xmlns="http://www.w3.org/2000/svg" width="24" height="24" fill="none" stroke="currentColor" stroke-linecap="round" stroke-linejoin="round" stroke-width="3"><path fill="#000" fill-rule="evenodd" stroke="none" d="M18.203 1.905c-1.148.28-1.583.477-2.116.96a3.6 3.6 0 0 0-.757.953l-.15.271L8.8 6.185c-4.11 1.35-6.5 2.154-6.717 2.26-.556.273-.991.776-1.234 1.425-.079.213-.104.367-.118.73l-.018.46.326 1.3c.347 1.388.46 1.698.757 2.072.296.372.813.7 1.304.828.5.13.704.103 3.155-.419l2.383-.507c.105-.021.121-.008.195.159.044.099.153.289.244.422l.164.241-1.342 2.692c-.965 1.937-1.352 2.753-1.381 2.91-.076.426.104.985.416 1.288.226.218.44.339.741.416.306.078.653.033.995-.129.44-.208.455-.232 1.913-3.143 1.095-2.186 1.352-2.67 1.417-2.67s.322.484 1.417 2.67c1.458 2.911 1.473 2.935 1.913 3.143.342.162.689.207.995.129a1.5 1.5 0 0 0 1.151-1.259c.026-.159.027-.325.004-.456-.026-.143-.453-1.041-1.379-2.899l-1.342-2.692.159-.234c.306-.449.497-.998.56-1.602.021-.205.03-.388.019-.405-.024-.039-.037-.036 1.071-.274l.892-.192.11.078c.19.135.681.344 1.011.431.702.184 1.168.156 2.339-.14.936-.236 1.244-.388 1.648-.811.486-.508.712-1.059.712-1.735 0-.323-.065-.609-.817-3.619-.939-3.755-.923-3.708-1.43-4.196-.516-.497-1.096-.74-1.752-.734-.261.002-.514.045-1.078.182m1.338 5.459c.494 1.977.62 2.531.579 2.556a2.5 2.5 0 0 1-.388.103c-.311.065-.345.066-.472.005a.6.6 0 0 1-.203-.167c-.037-.056-.31-1.069-.606-2.252-.518-2.067-.537-2.155-.485-2.305.03-.086.1-.191.157-.233.095-.07.567-.219.722-.227.053-.003.18.455.696 2.52m-3.973 1.105c.168.677.3 1.237.291 1.245-.008.008-.425.103-.927.21l-.912.195-.38-.197c-.603-.312-.901-.382-1.64-.382-.525 0-.668.014-.932.09-.759.22-1.455.703-1.892 1.314-.174.243-.175.243-.481.311-.168.037-.31.062-.315.056a41 41 0 0 1-.411-1.691 721 721 0 0 1 7.232-2.376c.046-.003.13.276.367 1.225M5.256 11.22c.081.33.156.628.166.663.016.052-.091.087-.611.196l-.667.137c-.04.004-.351-1.182-.319-1.215.044-.045 1.236-.43 1.259-.406.014.014.091.295.172.625m7.088 1.436c.119.119.136.162.136.337 0 .242-.129.424-.343.483a.5.5 0 0 1-.514-.16c-.081-.096-.103-.166-.103-.323 0-.175.017-.218.136-.337s.161-.136.344-.136.224.016.344.136"/></svg>