<svg xmlns="http://www.w3.org/2000/svg" width="24" height="24" fill="none" stroke="currentColor" stroke-linecap="round" stroke-linejoin="round" stroke-width="3"><path fill="#000" fill-rule="evenodd" stroke="none" d="M16.729.524c-.447.075-.522.137-2.297 1.91-1.444 1.443-1.681 1.697-1.773 1.898-.51 1.113.358 2.308 1.559 2.145.329-.045.609-.196.952-.515l.31-.289v.702l-1.36 1.367c-1.148 1.154-1.375 1.401-1.463 1.594-.508 1.109.363 2.304 1.561 2.141.329-.045.609-.196.952-.515l.31-.289v1.85l-4.37-.005c-3.902-.004-4.392.003-4.578.06a1.8 1.8 0 0 0-.661.438C5.71 13.204.66 21.315.589 21.5c-.1.259-.105.69-.012.971.143.431.546.825.982.961.206.063.912.068 10.481.068H22.3l.248-.105c.398-.167.684-.453.84-.839.124-.307.133-.718.024-1.036-.045-.132-1.04-1.762-2.484-4.07L18.52 13.6v-2.927l.31.289c.343.319.623.47.952.515 1.198.163 2.069-1.032 1.561-2.141-.088-.193-.315-.44-1.463-1.594l-1.36-1.367v-.702l.31.289c.343.319.623.47.952.515 1.201.163 2.069-1.032 1.559-2.145-.092-.201-.329-.455-1.773-1.898C17.769.637 17.726.602 17.234.522a3 3 0 0 0-.274-.037zM3.44.545c-.77.148-1.465.517-1.966 1.044A3.42 3.42 0 0 0 .512 4c0 .715.187 1.345.57 1.917A3.56 3.56 0 0 0 3.29 7.426a4.3 4.3 0 0 0 1.42 0 3.513 3.513 0 0 0 2.765-3.772c-.123-1.217-.83-2.232-1.942-2.788C5.054.626 4.736.553 4.1.539a7 7 0 0 0-.66.006m.904 3.111c.119.119.136.162.136.337 0 .157-.022.227-.103.323a.49.49 0 0 1-.754 0c-.081-.096-.103-.166-.103-.323 0-.175.017-.218.136-.337S3.817 3.52 4 3.52s.224.016.344.136M17.72 17.983c.847 1.355 1.546 2.48 1.553 2.5.008.022-.874.037-2.207.037h-2.221l-1.369-2.19-1.562-2.5-.195-.31h4.461zM6.48 19.1v1.42h-.883c-.514 0-.878-.015-.87-.036.017-.047 1.73-2.8 1.743-2.802.005-.001.01.637.01 1.418m4.8 1.4c0 .011-.396.02-.88.02h-.88v-2.856l.88 1.408c.484.774.88 1.417.88 1.428"/></svg>