<svg xmlns="http://www.w3.org/2000/svg" width="24" height="24" fill="none" stroke="currentColor" stroke-linecap="round" stroke-linejoin="round" stroke-width="3"><path fill="#000" fill-rule="evenodd" stroke="none" d="M9.5 1.582c-.764.288-1.179 1.152-.912 1.898.044.121.435.829.87 1.574.688 1.178.786 1.366.75 1.444-.07.155-7.496 12.878-7.557 12.949-.047.054-.152.069-.564.08-.466.012-.525.022-.735.129a1.51 1.51 0 0 0-.829 1.126 1.494 1.494 0 0 0 1.287 1.7c.331.048 20.049.048 20.38 0a1.494 1.494 0 0 0 1.287-1.7 1.51 1.51 0 0 0-.829-1.126c-.209-.106-.27-.117-.735-.13-.41-.011-.519-.027-.565-.08-.06-.07-7.486-12.794-7.556-12.948-.036-.078.061-.264.741-1.428.43-.736.809-1.406.844-1.489.104-.249.145-.606.097-.836a1.5 1.5 0 0 0-.666-.996c-.272-.187-.499-.243-.897-.221-.662.036-.948.269-1.508 1.229-.206.354-.388.643-.404.643-.015 0-.187-.274-.381-.61-.403-.693-.636-.967-.967-1.131-.197-.097-.287-.116-.611-.126-.267-.008-.428.006-.54.049m5.44 12.865a1547 1547 0 0 1 2.933 5.039c.008.019-.318.034-.723.034-.653 0-.745-.008-.798-.07-.034-.038-.742-1.24-1.575-2.67-1.055-1.812-1.572-2.662-1.705-2.803a1.8 1.8 0 0 0-.421-.32c-.211-.107-.267-.117-.651-.117-.376 0-.443.011-.641.109-.422.207-.483.296-2.118 3.102-.843 1.446-1.56 2.661-1.593 2.699-.053.062-.145.07-.798.07-.405 0-.731-.015-.723-.034.036-.091 5.856-10.045 5.873-10.045.011 0 1.334 2.253 2.94 5.006m-2.5 4.282c.231.399.426.741.433.759.008.017-.385.032-.873.032s-.881-.015-.873-.032c.039-.096.856-1.485.873-1.485.011 0 .209.326.44.726"/></svg>