<svg xmlns="http://www.w3.org/2000/svg" width="24" height="24" fill="none" stroke="currentColor" stroke-linecap="round" stroke-linejoin="round" stroke-width="3"><path fill="#000" fill-rule="evenodd" stroke="none" d="M3.516 3.577a1.52 1.52 0 0 0-.857 2.091c.093.203.414.54 2.652 2.782L7.857 11l-2.546 2.55c-2.238 2.242-2.559 2.579-2.652 2.782a1.502 1.502 0 0 0 2.009 2.01c.206-.094.587-.461 3.4-3.274s3.18-3.194 3.274-3.4a1.58 1.58 0 0 0 0-1.336c-.094-.206-.458-.584-3.274-3.394-3.606-3.6-3.359-3.391-4.028-3.407-.246-.006-.431.01-.524.046m8 14.001c-.365.136-.71.444-.864.774a1.5 1.5 0 0 0 1.158 2.13c.138.02 2.023.036 4.19.036s4.052-.016 4.19-.036a1.494 1.494 0 0 0 1.287-1.7 1.51 1.51 0 0 0-.829-1.126l-.228-.116-4.38-.008c-3.573-.006-4.407.003-4.524.046"/></svg>