<svg xmlns="http://www.w3.org/2000/svg" width="24" height="24" fill="none" stroke="currentColor" stroke-linecap="round" stroke-linejoin="round" stroke-width="3"><path fill="#000" fill-rule="evenodd" stroke="none" d="M2.516 4.579c-.365.134-.71.443-.864.773a1.5 1.5 0 0 0 1.158 2.13c.329.048 14.051.048 14.38 0a1.494 1.494 0 0 0 1.287-1.7 1.51 1.51 0 0 0-.829-1.126l-.228-.116-7.38-.007c-6.068-.006-7.406.002-7.524.046m0 5.998c-.557.213-.919.67-1.001 1.262-.023.164-.034 1.541-.027 3.369L1.5 18.3l.105.248c.25.595.761.938 1.395.938s1.145-.343 1.395-.938L4.5 18.3l.012-3.092c.007-1.828-.004-3.205-.027-3.369a1.51 1.51 0 0 0-.835-1.182c-.195-.099-.28-.116-.608-.125-.253-.007-.431.008-.526.045m5 .002c-.365.134-.71.443-.864.773a1.5 1.5 0 0 0 1.158 2.13c.329.048 13.051.048 13.38 0a1.494 1.494 0 0 0 1.287-1.7 1.51 1.51 0 0 0-.829-1.126l-.228-.116-6.88-.007c-5.652-.007-6.906.002-7.024.046m0 6c-.365.134-.71.443-.864.773a1.5 1.5 0 0 0 1.158 2.13c.329.048 13.051.048 13.38 0a1.494 1.494 0 0 0 1.287-1.7 1.51 1.51 0 0 0-.829-1.126l-.228-.116-6.88-.007c-5.652-.007-6.906.002-7.024.046"/></svg>