<svg xmlns="http://www.w3.org/2000/svg" width="24" height="24" fill="none" stroke="currentColor" stroke-linecap="round" stroke-linejoin="round" stroke-width="3"><path fill="#000" fill-rule="evenodd" stroke="none" d="M2.637 4.655c-.829.178-1.343 1.147-1.038 1.955.16.424.543.8.939.921.236.072 14.688.072 14.924 0 .395-.121.78-.498.937-.918.308-.823-.209-1.783-1.055-1.96-.344-.072-14.372-.07-14.707.002m0 6c-.829.178-1.343 1.147-1.038 1.955.16.424.543.8.939.921.237.072 18.687.072 18.924 0 .395-.121.78-.498.937-.918.308-.823-.209-1.783-1.055-1.96-.345-.072-18.371-.071-18.707.002m-.121 5.924c-1.045.384-1.348 1.699-.571 2.476.239.239.53.38.888.429.162.023 2.736.034 6.409.027l6.138-.011.23-.093c.433-.175.803-.555.92-.945.062-.209.062-.715 0-.924-.117-.391-.496-.78-.911-.935-.221-.083-.242-.083-6.591-.08-5.191.002-6.395.012-6.512.056"/></svg>