<svg xmlns="http://www.w3.org/2000/svg" width="24" height="24" fill="none" stroke="currentColor" stroke-linecap="round" stroke-linejoin="round" stroke-width="3"><path fill="#000" fill-rule="evenodd" stroke="none" d="M4.516.577c-.418.16-.77.501-.913.885-.069.183-.094.378-.124.96-.059 1.134-.219 2.038-.52 2.938C2.52 6.673 1.784 7.986.987 8.879c-.282.315-.404.542-.468.872-.093.471.054.903.465 1.369.472.534.972 1.403 1.208 2.1.17.499.246.903.292 1.557.055.769.164 1.028.587 1.398.357.312 1.008.406 1.484.213.389-.157.677-.445.836-.84.089-.219.1-.302.096-.718a8.6 8.6 0 0 0-.744-3.325 4 4 0 0 1-.143-.342c0-.015.131-.069.29-.119a9.57 9.57 0 0 0 5.003-3.777 9.6 9.6 0 0 0 1.489-3.769c.088-.545.138-1.417.097-1.702a1.5 1.5 0 0 0-.831-1.14C10.44.55 10.384.54 10 .54c-.381 0-.44.01-.64.112-.24.123-.354.213-.546.436-.211.244-.289.522-.331 1.183-.11 1.74-.732 3.139-1.929 4.337-.332.332-.883.772-1.119.895l-.112.057.118-.276c.488-1.147.784-2.288.978-3.766.05-.382.089-1.511.059-1.728A1.51 1.51 0 0 0 5.65.657C5.455.558 5.37.541 5.042.532c-.253-.007-.431.008-.526.045m9 0a1.54 1.54 0 0 0-.995 1.219c-.041.285.009 1.157.097 1.702a9.6 9.6 0 0 0 1.489 3.769 9.57 9.57 0 0 0 5.003 3.777c.16.05.29.104.29.119s-.065.169-.143.342a8.6 8.6 0 0 0-.745 3.332c-.004.409.007.492.096.711.161.395.448.683.837.84.476.193 1.127.099 1.484-.213.423-.37.532-.629.587-1.398.022-.308.069-.703.105-.878.19-.934.734-2.022 1.384-2.765.291-.332.412-.557.476-.885.094-.473-.055-.908-.468-1.37-.797-.893-1.533-2.206-1.972-3.519-.301-.9-.461-1.804-.52-2.938-.03-.582-.055-.777-.124-.96-.129-.347-.385-.62-.757-.81C19.44.55 19.381.54 19 .54c-.384 0-.44.01-.648.116-.455.23-.765.653-.83 1.132-.03.223.007 1.335.057 1.714.2 1.513.49 2.63.98 3.782l.118.276-.112-.057c-.44-.228-1.338-1.051-1.742-1.597-.815-1.103-1.216-2.218-1.306-3.635-.042-.661-.12-.939-.331-1.183a1.5 1.5 0 0 0-.544-.435c-.187-.095-.274-.112-.6-.121q-.382-.01-.526.045m-6 13.001c-.365.136-.71.444-.864.774a1.5 1.5 0 0 0 1.158 2.13c.326.047 8.054.047 8.38 0a1.494 1.494 0 0 0 1.287-1.7 1.51 1.51 0 0 0-.829-1.126l-.228-.116-4.38-.008c-3.573-.006-4.407.003-4.524.046M3.44 17.547a3.56 3.56 0 0 0-2.885 2.817c-.03.155-.051.589-.053 1.096-.002.818.001.847.103 1.088.25.595.761.938 1.395.938.635 0 1.151-.347 1.392-.938.093-.227.103-.311.12-1.007l.019-.76.13-.13.131-.131h4.416l.131.131.13.13.019.76c.017.696.027.78.12 1.007.241.591.757.938 1.392.938s1.153-.349 1.39-.935c.084-.207.102-.331.119-.808.053-1.458-.228-2.358-.987-3.158a3.73 3.73 0 0 0-1.569-.953c-.289-.088-.325-.089-2.853-.096-1.408-.004-2.605.001-2.66.011m12 0a3.56 3.56 0 0 0-2.885 2.817c-.03.155-.051.589-.053 1.096-.002.818.001.847.103 1.088.25.595.761.938 1.395.938.635 0 1.151-.347 1.392-.938.093-.227.103-.311.12-1.007l.019-.76.13-.13.131-.131h4.416l.131.131.13.13.019.76c.017.696.027.78.12 1.007.241.591.757.938 1.392.938s1.153-.349 1.39-.935c.084-.207.102-.331.119-.808.053-1.458-.228-2.358-.987-3.158a3.73 3.73 0 0 0-1.569-.953c-.289-.088-.325-.089-2.853-.096-1.408-.004-2.605.001-2.66.011"/></svg>