<svg xmlns="http://www.w3.org/2000/svg" width="24" height="24" fill="none" stroke="currentColor" stroke-linecap="round" stroke-linejoin="round" stroke-width="3"><path fill="#000" fill-rule="evenodd" stroke="none" d="M17.44.545c-1.46.281-2.518 1.288-2.872 2.734-.056.231-.065.858-.077 5.376l-.014 5.116-.3.279c-1.146 1.07-1.823 2.87-1.66 4.41.087.814.336 1.627.69 2.245a5.52 5.52 0 0 0 6.733 2.448c1.404-.515 2.683-1.779 3.182-3.148.281-.771.432-1.704.379-2.345-.113-1.371-.752-2.744-1.68-3.611l-.301-.281-.001-4.854c0-2.927-.016-5.004-.04-5.231-.132-1.255-.824-2.255-1.946-2.817-.479-.24-.797-.313-1.433-.327a7 7 0 0 0-.66.006M8.516 2.577c-.371.142-.711.446-.864.773-.131.281-.17.586-.171 1.343l-.001.634-.301-.278a3 3 0 0 0-.53-.393C6.44 4.55 6.384 4.54 6 4.54s-.44.01-.648.116c-.752.381-1.048 1.237-.695 2.008.088.193.315.44 1.463 1.594l1.36 1.367v.895h-.816L5.282 9.149C3.643 7.523 3.667 7.54 3 7.54c-.384 0-.44.01-.648.116a1.5 1.5 0 0 0-.829 1.562c.046.336.196.609.532.968l.305.327-.39.013c-.335.012-.422.03-.618.13-.93.471-1.133 1.673-.407 2.399.263.263.544.388.998.442l.367.043-.28.3c-.312.334-.463.614-.507.942-.163 1.198 1.032 2.069 2.141 1.561.193-.088.44-.315 1.594-1.463l1.367-1.36h.855v.855l-1.36 1.367c-1.148 1.154-1.375 1.401-1.463 1.594-.508 1.109.363 2.304 1.561 2.141.328-.045.608-.196.947-.511l.305-.283.018.808c.017.752.025.827.12 1.057.241.591.757.938 1.392.938s1.148-.345 1.394-.938c.101-.243.103-.27.118-1.393l.016-1.146.186-.024c.459-.061.943-.432 1.154-.885.097-.207.112-.29.112-.6 0-.559-.102-.739-.856-1.511l-.604-.618v-.851l.71-.001c.39 0 .822-.017.96-.037a1.494 1.494 0 0 0 1.287-1.7 1.51 1.51 0 0 0-.829-1.126l-.228-.116-.95-.013-.95-.012v-.89l1.36-1.367c1.148-1.154 1.375-1.401 1.463-1.594.353-.771.057-1.627-.695-2.008-.208-.106-.264-.116-.648-.116s-.44.01-.649.116a3 3 0 0 0-.53.393l-.301.278-.001-.634a9 9 0 0 0-.037-.883 1.51 1.51 0 0 0-.832-1.153c-.195-.099-.28-.116-.608-.125q-.382-.01-.526.045m9.828 1.079.136.136v5.354c0 3.311.015 5.446.04 5.594.085.524.301.81.959 1.271.341.239.55.489.743.889.185.383.258.694.257 1.098-.001.815-.341 1.51-.971 1.986a2.38 2.38 0 0 1-1.508.509c-.572 0-1.045-.16-1.508-.509-.63-.476-.97-1.171-.971-1.986a2.3 2.3 0 0 1 .257-1.098c.193-.4.402-.65.743-.889.658-.461.874-.747.959-1.271.025-.148.04-2.283.04-5.594V3.792l.136-.136c.12-.12.161-.136.344-.136s.224.016.344.136"/></svg>