<svg xmlns="http://www.w3.org/2000/svg" width="24" height="24" fill="none" stroke="currentColor" stroke-linecap="round" stroke-linejoin="round" stroke-width="3"><path fill="#000" fill-rule="evenodd" stroke="none" d="M17.44.545c-1.46.281-2.518 1.288-2.872 2.734-.056.231-.065.858-.077 5.376l-.014 5.116-.3.279c-1.146 1.07-1.823 2.87-1.66 4.41.087.814.336 1.627.69 2.245a5.52 5.52 0 0 0 6.733 2.448c1.404-.515 2.683-1.779 3.182-3.148.281-.771.432-1.704.379-2.345-.113-1.371-.752-2.744-1.68-3.611l-.301-.281-.001-4.854c0-2.927-.016-5.004-.04-5.231-.132-1.255-.824-2.255-1.946-2.817-.479-.24-.797-.313-1.433-.327a7 7 0 0 0-.66.006m-5.924 1.032c-.371.142-.711.446-.864.774-.149.319-.181.681-.164 1.869.015 1.052.018 1.086.118 1.328.246.593.759.938 1.394.938s1.148-.345 1.394-.938c.1-.242.103-.276.118-1.328.017-1.187-.015-1.549-.163-1.869-.124-.266-.406-.546-.699-.694-.195-.099-.28-.116-.608-.125q-.382-.01-.526.045m6.828 2.079.136.136v5.354c0 3.311.015 5.446.04 5.594.085.524.301.81.959 1.271.341.239.55.489.743.889.185.383.258.694.257 1.098-.001.815-.341 1.51-.971 1.986a2.38 2.38 0 0 1-1.508.509c-.572 0-1.045-.16-1.508-.509-.63-.476-.97-1.171-.971-1.986a2.3 2.3 0 0 1 .257-1.098c.193-.4.402-.65.743-.889.658-.461.874-.747.959-1.271.025-.148.04-2.283.04-5.594V3.792l.136-.136c.12-.12.161-.136.344-.136s.224.016.344.136m-13.892.858a1.506 1.506 0 0 0-.791 2.212c.059.096.481.547.938 1.004.727.725.866.846 1.106.96.247.117.312.13.635.13.31 0 .393-.015.6-.112.315-.147.624-.455.767-.764.098-.21.113-.293.113-.604 0-.324-.013-.388-.132-.638-.115-.245-.232-.378-.98-1.125-.835-.834-1.009-.972-1.368-1.085-.228-.072-.645-.062-.888.022m6.649 3.049c-1.175.178-2.235.731-3.13 1.632-.693.698-1.198 1.659-1.431 2.725-.104.477-.124 1.427-.041 1.925.252 1.507 1.111 2.869 2.323 3.683.509.342.732.439 1.06.463.773.055 1.435-.459 1.596-1.239.056-.272.011-.579-.131-.888-.135-.293-.274-.44-.664-.702-.756-.509-1.171-1.178-1.23-1.987a2.48 2.48 0 0 1 1.398-2.41c.381-.181.586-.231 1.102-.264a2.4 2.4 0 0 0 .591-.106c.285-.107.659-.451.797-.734.188-.384.195-.891.019-1.29-.107-.243-.439-.577-.709-.714-.219-.111-.26-.117-.771-.124a7 7 0 0 0-.779.03m-9.585 4.015c-.531.199-.921.672-.993 1.204a1.494 1.494 0 0 0 1.287 1.7c.138.02.673.036 1.19.036s1.052-.016 1.19-.036a1.494 1.494 0 0 0 1.287-1.7 1.51 1.51 0 0 0-.829-1.126l-.228-.116-1.38-.008c-1.079-.007-1.412.003-1.524.046m4.6 5.399c-.304.116-.521.297-1.326 1.103-.674.674-.85.873-.934 1.057a1.502 1.502 0 0 0 2.01 2.005c.188-.086.384-.26 1.1-.976s.89-.912.976-1.1c.354-.773.059-1.629-.692-2.009-.195-.099-.28-.116-.608-.125q-.381-.01-.526.045"/></svg>