<svg xmlns="http://www.w3.org/2000/svg" width="24" height="24" fill="none" stroke="currentColor" stroke-linecap="round" stroke-linejoin="round" stroke-width="3"><path fill="#000" fill-rule="evenodd" stroke="none" d="M11.44.545C9.98.826 8.922 1.833 8.568 3.279c-.056.231-.065.858-.077 5.376l-.014 5.116-.3.279c-1.146 1.07-1.823 2.87-1.66 4.41.087.814.336 1.627.69 2.245a5.52 5.52 0 0 0 6.733 2.448c1.404-.515 2.683-1.779 3.182-3.148.281-.771.432-1.704.379-2.345-.113-1.371-.752-2.744-1.68-3.611l-.301-.281-.001-4.854c0-2.927-.016-5.004-.04-5.231-.132-1.255-.824-2.255-1.946-2.817-.479-.24-.797-.313-1.433-.327a7 7 0 0 0-.66.006m.904 3.111.136.136v5.354c0 3.311.015 5.446.04 5.594.085.524.301.81.959 1.271.341.239.55.489.743.889.185.383.258.694.257 1.098-.001.815-.341 1.51-.971 1.986a2.38 2.38 0 0 1-1.508.509c-.572 0-1.045-.16-1.508-.509-.63-.476-.97-1.171-.971-1.986a2.3 2.3 0 0 1 .257-1.098c.193-.4.402-.65.743-.889.658-.461.874-.747.959-1.271.025-.148.04-2.283.04-5.594V3.792l.136-.136c.12-.12.161-.136.344-.136s.224.016.344.136"/></svg>