<svg xmlns="http://www.w3.org/2000/svg" width="24" height="24" fill="none" stroke="currentColor" stroke-linecap="round" stroke-linejoin="round" stroke-width="3"><path fill="#000" fill-rule="evenodd" stroke="none" d="M11.34.521c-6.146.024-5.639 0-6.285.298-.814.375-1.493 1.077-1.792 1.85-.142.37-2.447 8.303-2.528 8.705-.093.456-.058 1.126.082 1.598.36 1.218 1.293 2.108 2.547 2.434.321.083.435.088 2.526.104 1.205.009 2.19.022 2.19.028s-.135.567-.301 1.246c-.372 1.53-.423 1.941-.329 2.638.297 2.202 1.996 3.849 4.183 4.053.657.062 1.047-.054 1.421-.423.175-.172.378-.559 1.988-3.778q1.795-3.587 1.896-3.666c.099-.077.175-.081 1.812-.099 1.883-.021 1.969-.03 2.586-.282a3.6 3.6 0 0 0 1.575-1.293 3.5 3.5 0 0 0 .568-1.617c.053-.502.053-8.132 0-8.634-.132-1.255-.824-2.255-1.946-2.817-.522-.262-.782-.315-1.613-.331-1.608-.031-3.279-.034-8.58-.014m4.139 7.729-.001 4.73-.263.18a3.9 3.9 0 0 0-.862.866c-.073.105-.818 1.556-1.654 3.223l-1.522 3.033-.208-.191c-.396-.362-.616-.908-.551-1.361.016-.105.253-1.117.528-2.25.274-1.133.514-2.15.533-2.26.102-.616-.244-1.267-.833-1.566l-.226-.114-3.2-.02c-2.54-.016-3.219-.031-3.292-.073a.59.59 0 0 1-.248-.429c0-.067.531-1.948 1.181-4.18C6.012 3.88 6.044 3.777 6.18 3.65l.139-.13h9.161zm4.865-4.594.136.136v8.402l-.103.122a.6.6 0 0 1-.25.163c-.081.022-.475.041-.877.041h-.73v-9h1.688z"/></svg>