<svg xmlns="http://www.w3.org/2000/svg" width="24" height="24" fill="none" stroke="currentColor" stroke-linecap="round" stroke-linejoin="round" stroke-width="3"><path fill="#000" fill-rule="evenodd" stroke="none" d="M11.54.576c-.203.063-.44.214-.62.393-.102.101-.629 1.111-1.96 3.754-1.376 2.733-1.848 3.634-1.933 3.696-.108.078-.187.082-1.9.104-1.691.021-1.803.027-2.08.111a3.57 3.57 0 0 0-2.495 2.754c-.075.396-.075 8.828 0 9.224.221 1.168 1.036 2.177 2.116 2.617.715.292.101.271 8.112.271h7.2l.383-.106c1.121-.31 2.023-1.114 2.391-2.13.174-.48 2.433-8.252 2.511-8.639.093-.455.058-1.126-.082-1.597-.345-1.166-1.202-2.021-2.403-2.397-.272-.085-.344-.088-2.57-.101-1.26-.008-2.29-.029-2.29-.047 0-.019.118-.518.262-1.109.427-1.75.47-2.086.365-2.834C16.26 2.51 14.789.966 12.774.58 12.398.508 11.762.506 11.54.576m1.516 3.354c.372.345.589.899.526 1.34a92 92 0 0 1-.548 2.33c-.35 1.44-.521 2.219-.524 2.38-.009.627.369 1.184.97 1.43l.22.09 3.154.012c2.818.01 3.164.018 3.252.076.122.08.214.252.214.401 0 .063-.532 1.94-1.182 4.172-1.282 4.401-1.222 4.232-1.536 4.319-.09.025-1.791.04-4.612.04H8.52l.001-4.75.001-4.75.242-.16c.293-.193.707-.622.924-.955.087-.135.824-1.573 1.636-3.195s1.493-2.95 1.512-2.95c.02 0 .119.077.22.17M5.48 16.02v4.5h-.73c-.401 0-.796-.019-.877-.041a.6.6 0 0 1-.25-.163l-.103-.122v-8.402l.136-.136.136-.136H5.48z"/></svg>