<svg xmlns="http://www.w3.org/2000/svg" width="24" height="24" fill="none" stroke="currentColor" stroke-linecap="round" stroke-linejoin="round" stroke-width="3"><path fill="#000" fill-rule="evenodd" stroke="none" d="M3.44 3.547A3.56 3.56 0 0 0 .573 6.279c-.076.333-.121 2.445-.061 2.87.053.376.191.664.433.906.275.275.534.384 1.069.45s.779.175 1.059.472c.314.333.387.527.387 1.023 0 .384-.01.44-.116.648a2 2 0 0 1-.3.416c-.264.267-.532.379-1.054.439-.51.058-.765.168-1.054.453-.233.23-.371.521-.424.895-.06.425-.015 2.537.061 2.87.31 1.361 1.34 2.389 2.717 2.711.268.063.935.068 8.71.068s8.442-.005 8.71-.068a3.7 3.7 0 0 0 1.798-1.004c.573-.6.883-1.272.971-2.111.049-.471.052-2.171.003-2.507a1.48 1.48 0 0 0-.418-.854c-.286-.282-.53-.387-1.05-.451-.532-.065-.796-.175-1.058-.441a2 2 0 0 1-.3-.416c-.106-.208-.116-.264-.116-.648 0-.496.073-.69.387-1.023.282-.299.539-.414 1.063-.474.525-.06.788-.171 1.065-.448.234-.233.378-.526.427-.865.049-.336.046-2.036-.003-2.507-.154-1.464-1.103-2.61-2.526-3.052l-.293-.091-8.56-.005c-4.708-.002-8.605.003-8.66.012m16.904 3.109.136.136v.963l-.378.179a4.4 4.4 0 0 0-2.141 2.098A4.34 4.34 0 0 0 17.513 12c0 .253.02.577.046.72a4.53 4.53 0 0 0 2.771 3.454l.15.062v.479c0 .456-.005.485-.103.601a.6.6 0 0 1-.25.163c-.204.056-16.05.056-16.254 0a.6.6 0 0 1-.252-.165c-.1-.119-.103-.137-.092-.604l.011-.481.281-.124a4.49 4.49 0 0 0 2.655-4.489 4.43 4.43 0 0 0-1.343-2.828c-.393-.383-.654-.566-1.163-.816l-.45-.222v-.958l.136-.136.136-.136h16.416zM9.174 8.039c-.424.09-.845.438-1.042.861-.097.207-.112.29-.112.6 0 .322.013.388.128.63.11.232.242.387.916 1.07l.789.8-.789.8c-.674.683-.806.838-.916 1.07-.115.242-.128.308-.128.63 0 .31.015.393.112.6.147.315.455.624.764.767.21.098.293.113.604.113.322 0 .388-.013.63-.128.232-.11.387-.242 1.07-.916l.8-.789.8.789c.683.674.838.806 1.07.916.242.115.308.128.63.128.311 0 .394-.015.604-.113.309-.143.617-.452.764-.767.097-.207.112-.29.112-.6 0-.322-.013-.388-.128-.63-.11-.232-.242-.387-.916-1.07l-.789-.8.789-.8c.674-.683.806-.838.916-1.07.115-.242.128-.308.128-.63 0-.31-.015-.393-.112-.6a1.68 1.68 0 0 0-.764-.765c-.208-.095-.297-.111-.604-.112-.322-.001-.389.013-.63.126-.233.109-.383.238-1.07.915l-.8.789-.8-.789c-.664-.655-.841-.808-1.05-.905a1.73 1.73 0 0 0-.976-.12"/></svg>