<svg xmlns="http://www.w3.org/2000/svg" width="24" height="24" fill="none" stroke="currentColor" stroke-linecap="round" stroke-linejoin="round" stroke-width="3"><path fill="#000" fill-rule="evenodd" stroke="none" d="m8.08 3.521-4.74.02-.293.091C1.782 4.022.863 5.005.573 6.279c-.076.333-.121 2.445-.061 2.87.053.376.191.664.433.906.274.275.534.384 1.067.45.277.034.509.087.625.143.261.125.57.432.706.701.107.212.117.266.117.651 0 .384-.01.44-.116.648a2 2 0 0 1-.3.416c-.264.267-.532.379-1.054.439-.51.058-.765.168-1.054.453-.233.23-.371.521-.424.895-.06.425-.015 2.537.061 2.87.31 1.361 1.34 2.389 2.717 2.711.268.063.935.068 8.71.068s8.442-.005 8.71-.068a3.7 3.7 0 0 0 1.798-1.004c.573-.6.883-1.272.971-2.111.049-.471.052-2.171.003-2.507a1.48 1.48 0 0 0-.418-.854c-.286-.282-.53-.387-1.05-.451-.532-.065-.796-.175-1.058-.441a2 2 0 0 1-.3-.416c-.106-.208-.116-.264-.116-.648 0-.385.01-.439.117-.651a1.8 1.8 0 0 1 .714-.705c.126-.061.338-.109.622-.141.522-.06.786-.171 1.062-.448.234-.233.378-.526.427-.865.049-.336.046-2.036-.003-2.507-.154-1.465-1.113-2.622-2.526-3.05-.277-.084-.376-.089-1.853-.101a825 825 0 0 0-11.02-.011m3.415 3.404c.039.599.179.904.576 1.25.473.413 1.385.413 1.858 0 .397-.346.537-.651.576-1.25l.027-.405h5.676l.136.136.136.136v.963l-.378.179a4.4 4.4 0 0 0-2.141 2.098A4.34 4.34 0 0 0 17.513 12c0 .253.02.577.046.72a4.53 4.53 0 0 0 2.771 3.454l.15.062v.479c0 .456-.005.485-.103.601a.6.6 0 0 1-.25.163c-.093.026-1.138.041-2.877.041h-2.73l-.001-.23c-.003-.816-.279-1.334-.871-1.634-.208-.106-.264-.116-.648-.116s-.44.01-.648.116c-.592.3-.868.818-.871 1.634l-.001.23H7.75c-2.421 0-3.782-.015-3.877-.041a.6.6 0 0 1-.252-.165c-.1-.119-.103-.137-.092-.604l.011-.481.281-.124a4.49 4.49 0 0 0 2.655-4.489 4.43 4.43 0 0 0-1.343-2.828c-.393-.383-.654-.566-1.163-.816l-.45-.222v-.958l.136-.136.136-.136h7.676zm1.021 2.652c-.371.142-.711.446-.864.774-.149.319-.181.681-.164 1.869.015 1.052.018 1.086.118 1.328.246.593.759.938 1.394.938s1.148-.345 1.394-.938c.1-.242.103-.276.118-1.328.017-1.187-.015-1.549-.163-1.869-.124-.266-.406-.546-.699-.694-.195-.099-.28-.116-.608-.125q-.382-.01-.526.045"/></svg>