<svg xmlns="http://www.w3.org/2000/svg" width="24" height="24" fill="none" stroke="currentColor" stroke-linecap="round" stroke-linejoin="round" stroke-width="3"><path fill="#000" fill-rule="evenodd" stroke="none" d="M9.516.578c-.366.136-.71.444-.864.774a1.5 1.5 0 0 0 1.158 2.13c.138.02 1.123.036 2.19.036s2.052-.016 2.19-.036a1.494 1.494 0 0 0 1.287-1.7 1.51 1.51 0 0 0-.829-1.126L14.42.54 12.04.532C10.13.526 9.631.535 9.516.578m1.464 3.97c-.37.034-1.174.186-1.568.296A9.67 9.67 0 0 0 4.621 7.94c-.944 1.118-1.71 2.734-1.999 4.216-.191.981-.131 1.391.266 1.825.252.276.457.398.803.478.507.118 1.01-.042 1.386-.439.269-.285.334-.443.462-1.117.354-1.865 1.318-3.331 2.847-4.332a6.5 6.5 0 0 1 2.267-.94c.355-.077.525-.088 1.327-.088.8 0 .973.011 1.324.088.599.131.977.265 1.556.551 1.864.922 3.136 2.603 3.526 4.658.111.583.101 1.878-.018 2.426-.387 1.786-1.363 3.219-2.848 4.184-1.453.943-3.158 1.26-4.88.906a6.3 6.3 0 0 1-1.94-.747 10 10 0 0 1-1.18-.885l-.22-.201.82-.002a12 12 0 0 0 1.07-.039 1.494 1.494 0 0 0 1.287-1.7 1.51 1.51 0 0 0-.829-1.126l-.228-.116H3.58l-.228.116c-.473.239-.763.65-.838 1.186-.022.164-.033 1.345-.026 2.868L2.5 22.3l.105.248c.25.595.761.938 1.395.938.636 0 1.152-.348 1.391-.938.09-.221.103-.321.12-.913l.02-.665.394.328c2.125 1.771 4.99 2.539 7.677 2.061 1.046-.187 2.215-.602 3.054-1.086 2.564-1.48 4.216-3.865 4.73-6.833.104-.6.104-2.234.001-2.86a10 10 0 0 0-1.046-3.098c-1.483-2.716-4.093-4.494-7.198-4.904-.4-.053-1.711-.071-2.163-.03m.536 4.029c-.559.214-.919.67-1.002 1.267-.023.165-.034 1.152-.027 2.369L10.5 14.3l.105.248c.25.595.761.938 1.395.938s1.145-.343 1.395-.938l.105-.248.013-2.087c.007-1.217-.004-2.204-.027-2.369-.075-.537-.364-.948-.836-1.187-.195-.099-.28-.116-.608-.125q-.382-.01-.526.045"/></svg>