<svg xmlns="http://www.w3.org/2000/svg" width="24" height="24" fill="none" stroke="currentColor" stroke-linecap="round" stroke-linejoin="round" stroke-width="3"><path fill="#000" fill-rule="evenodd" stroke="none" d="M1.516.577C.655.907.277 1.83.658 2.668c.095.21 1.079 1.206 10.274 10.4s10.19 10.179 10.4 10.274a1.502 1.502 0 0 0 2.011-2.006c-.088-.193-.315-.44-1.463-1.594-.748-.752-1.36-1.386-1.36-1.409s.071-.193.157-.377c.526-1.125.843-2.59.843-3.896a9.61 9.61 0 0 0-4.545-8.149c-1.453-.898-3.003-1.361-4.755-1.417a9.1 9.1 0 0 0-2.975.381c-.437.13-1.137.401-1.405.543l-.18.096-2.38-2.369C2.556.434 2.699.55 2.042.532c-.253-.007-.431.008-.526.045m8 .001c-.366.136-.71.444-.864.774a1.5 1.5 0 0 0 1.158 2.13c.138.02 1.123.036 2.19.036s2.052-.016 2.19-.036a1.494 1.494 0 0 0 1.287-1.7 1.51 1.51 0 0 0-.829-1.126L14.42.54 12.04.532C10.13.526 9.631.535 9.516.578m3.285 6.96c1.864.248 3.506 1.267 4.586 2.847a6.51 6.51 0 0 1 .825 5.628c-.013.02-1.073-1.014-2.357-2.298L13.52 11.38l-.001-.66c-.001-1.066-.088-1.402-.455-1.764-.294-.29-.568-.409-.987-.429-.398-.019-.61.035-.893.226l-.174.118-.533-.534c-.61-.612-.614-.542.032-.693a6.7 6.7 0 0 1 2.292-.106M4.18 9.56a1.67 1.67 0 0 0-.794.567c-.183.248-.517 1.182-.684 1.915-.157.686-.2 1.131-.198 2.038.002 1.128.112 1.851.435 2.88a9.4 9.4 0 0 0 3.806 5.014c2.256 1.474 5.083 1.921 7.655 1.21.664-.183 1.214-.396 1.464-.566.758-.518.845-1.646.175-2.289-.268-.258-.566-.383-.96-.402-.317-.015-.373-.005-.82.15-1.197.415-2.064.52-3.127.381-1.549-.203-2.805-.829-3.853-1.923-1.735-1.81-2.252-4.433-1.345-6.825.162-.428.194-.683.126-1.005-.1-.476-.367-.82-.809-1.044-.197-.1-.284-.119-.591-.128-.198-.006-.414.006-.48.027"/></svg>