<svg xmlns="http://www.w3.org/2000/svg" width="24" height="24" fill="none" stroke="currentColor" stroke-linecap="round" stroke-linejoin="round" stroke-width="3"><path fill="#000" fill-rule="evenodd" stroke="none" d="M9.516.578c-.366.136-.71.444-.864.774a1.5 1.5 0 0 0 1.158 2.13c.138.02 1.123.036 2.19.036s2.052-.016 2.19-.036a1.494 1.494 0 0 0 1.287-1.7 1.51 1.51 0 0 0-.829-1.126L14.42.54 12.04.532C10.13.526 9.631.535 9.516.578m1.564 3.967c-2.267.271-4.109 1.123-5.653 2.613a9.45 9.45 0 0 0-2.721 4.862c-.263 1.198-.263 2.762 0 3.96.327 1.492 1.027 2.938 1.968 4.062 1.574 1.881 3.668 3.04 6.106 3.38.699.098 1.838.089 2.56-.018a9.6 9.6 0 0 0 4.556-1.954c.366-.288 1.266-1.188 1.554-1.554A9.4 9.4 0 0 0 21.488 14c0-2.175-.697-4.19-2.038-5.896-.336-.429-1.262-1.334-1.69-1.654-1.28-.956-2.643-1.548-4.18-1.815-.373-.065-.689-.086-1.42-.095a20 20 0 0 0-1.08.005m1.86 3.032c2.154.331 3.918 1.619 4.898 3.576.655 1.309.823 3.004.445 4.476a6.51 6.51 0 0 1-5.303 4.794 8 8 0 0 1-1.96 0c-2.818-.432-5.005-2.635-5.443-5.483-.116-.751-.059-1.797.14-2.569.644-2.508 2.714-4.378 5.303-4.791.436-.069 1.478-.071 1.92-.003m1.576 2c-.322.122-.562.337-2.124 1.898-1.406 1.405-1.642 1.658-1.734 1.857a1.502 1.502 0 0 0 2.01 2.009c.201-.091.455-.329 1.9-1.773 1.444-1.445 1.682-1.699 1.773-1.9.355-.776.061-1.63-.693-2.012-.198-.101-.279-.117-.608-.125-.246-.006-.431.01-.524.046"/></svg>