<svg xmlns="http://www.w3.org/2000/svg" width="24" height="24" fill="none" stroke="currentColor" stroke-linecap="round" stroke-linejoin="round" stroke-width="3"><path fill="#000" fill-rule="evenodd" stroke="none" d="M2.516 2.579c-.365.134-.71.443-.864.773a1.5 1.5 0 0 0 1.158 2.13c.33.048 18.05.048 18.38 0a1.494 1.494 0 0 0 1.287-1.7 1.51 1.51 0 0 0-.829-1.126l-.228-.116-9.38-.007c-7.731-.006-9.405.002-9.524.046m3 4c-.365.134-.71.443-.864.773a1.5 1.5 0 0 0 1.158 2.13c.328.048 12.052.048 12.38 0a1.494 1.494 0 0 0 1.287-1.7 1.51 1.51 0 0 0-.829-1.126l-.228-.116-6.38-.007c-5.236-.007-6.406.002-6.524.046m3 3.999c-.365.136-.71.444-.864.774a1.5 1.5 0 0 0 1.158 2.13c.327.047 10.053.047 10.38 0a1.494 1.494 0 0 0 1.287-1.7 1.51 1.51 0 0 0-.829-1.126l-.228-.116-5.38-.007c-4.405-.007-5.406.002-5.524.045m1 4c-.366.136-.71.444-.864.774a1.5 1.5 0 0 0 1.158 2.13c.326.047 6.054.047 6.38 0a1.494 1.494 0 0 0 1.287-1.7 1.51 1.51 0 0 0-.829-1.126l-.228-.116-3.38-.008c-2.742-.006-3.407.003-3.524.046m-1 4c-.531.199-.921.672-.993 1.204a1.494 1.494 0 0 0 1.287 1.7c.138.02.673.036 1.19.036s1.052-.016 1.19-.036a1.494 1.494 0 0 0 1.287-1.7 1.51 1.51 0 0 0-.829-1.126l-.228-.116-1.38-.008c-1.079-.007-1.412.003-1.524.046"/></svg>