<svg xmlns="http://www.w3.org/2000/svg" width="24" height="24" fill="none" stroke="currentColor" stroke-linecap="round" stroke-linejoin="round" stroke-width="3"><path fill="#000" fill-rule="evenodd" stroke="none" d="M10.58 2.581c-4.263.467-7.878 2.949-9.353 6.423A8.6 8.6 0 0 0 .511 12.5c0 .961.121 1.763.396 2.632 1.239 3.91 4.977 6.74 9.633 7.289.751.089 2.169.089 2.92 0 2.323-.274 4.46-1.118 6.163-2.436 2.168-1.676 3.478-3.893 3.819-6.465.058-.438.058-1.602 0-2.04-.334-2.518-1.595-4.696-3.682-6.358-1.771-1.411-3.977-2.289-6.387-2.542-.695-.073-2.12-.072-2.793.001m3.08 3.055c1.693.303 3.075.913 4.304 1.899 1.227.985 2.048 2.249 2.389 3.681.097.407.106.514.106 1.284s-.009.877-.106 1.284c-.7 2.94-3.49 5.163-7.077 5.64-.661.087-1.891.087-2.552 0-1.807-.241-3.4-.911-4.744-1.996-1.275-1.029-2.157-2.5-2.401-4.007-.075-.463-.075-1.379 0-1.842.251-1.545 1.114-2.965 2.461-4.047 1.156-.928 2.448-1.523 3.98-1.832.754-.153 1.05-.175 2.14-.162.829.01 1.11.028 1.5.098m-2.4 1.909c-.9.131-1.564.371-2.199.793-.784.522-1.303 1.241-1.5 2.08-.064.272-.057.912.012 1.202.34 1.421 1.687 2.513 3.461 2.805.504.083 1.428.083 1.932 0 1.774-.292 3.121-1.384 3.461-2.805.074-.308.074-.932 0-1.24-.321-1.342-1.512-2.374-3.167-2.746-.274-.061-.541-.084-1.12-.094a12 12 0 0 0-.88.005m1.56 3.072c.277.096.62.307.62.381 0 .034-.06.102-.132.151-.666.454-1.947.456-2.61.005-.217-.148-.184-.218.193-.416.326-.171.595-.217 1.189-.203.383.009.598.033.74.082"/></svg>