<svg xmlns="http://www.w3.org/2000/svg" width="24" height="24" fill="none" stroke="currentColor" stroke-linecap="round" stroke-linejoin="round" stroke-width="3"><path fill="#000" fill-rule="evenodd" stroke="none" d="M3.44 2.547A3.56 3.56 0 0 0 .552 5.388c-.076.398-.076 12.826 0 13.224.221 1.168 1.036 2.177 2.116 2.617.719.293-.04.271 9.332.271 7.775 0 8.442-.005 8.71-.068a3.7 3.7 0 0 0 1.798-1.004c.573-.6.883-1.272.971-2.111.053-.509.053-12.125 0-12.634-.154-1.464-1.103-2.61-2.526-3.052l-.293-.091-8.56-.005c-4.708-.002-8.605.003-8.66.012m16.904 3.109.136.136v6.727H3.52V5.792l.136-.136.136-.136h16.416zM10.48 17.02v1.5H7.25c-2.08 0-3.283-.015-3.377-.041a.6.6 0 0 1-.25-.163l-.103-.122V15.52h6.96zm10-.163v1.337l-.103.122a.6.6 0 0 1-.25.163c-.094.026-1.297.041-3.377.041h-3.23v-3h6.96z"/></svg>