<svg xmlns="http://www.w3.org/2000/svg" width="24" height="24" fill="none" stroke="currentColor" stroke-linecap="round" stroke-linejoin="round" stroke-width="3"><path fill="#000" fill-rule="evenodd" stroke="none" d="M1.516.577C.825.841.426 1.502.523 2.218c.048.352.193.608.572 1.009l.346.366-.222.294C.803 4.434.588 5.002.518 5.733.489 6.036.48 8.161.49 12.32c.012 5.468.021 6.169.078 6.401.339 1.38 1.328 2.372 2.702 2.709.246.061.974.068 8.188.079l7.917.013.871.861c.94.928 1.087 1.033 1.536 1.094 1.2.163 2.067-1.029 1.56-2.145-.095-.21-1.076-1.202-10.274-10.395C1.635-.49 2.738.551 2.042.532c-.253-.007-.431.008-.526.045m8 2.001c-.366.136-.71.444-.864.774a1.5 1.5 0 0 0 1.158 2.13c.138.02 2.522.037 5.324.037l5.074.001.136.136.136.136v6.721l-.45.014c-.402.012-.474.025-.678.129-.93.471-1.133 1.673-.407 2.399.315.316.731.462 1.319.464l.204.001.027.405c.039.599.179.904.576 1.25.357.312 1.008.406 1.484.213.387-.156.672-.441.84-.84l.105-.248.012-5.08c.012-5.264.002-5.664-.152-6.182-.349-1.171-1.217-2.039-2.407-2.407l-.293-.09-5.5-.008c-4.513-.007-5.526.001-5.644.045M6.98 9.12l3.4 3.4H3.52V9.183c0-2.834.01-3.463.054-3.463.004 0 1.536 1.53 3.406 3.4m3.5 7.9v1.5H7.25c-2.08 0-3.283-.015-3.377-.041a.6.6 0 0 1-.25-.163l-.103-.122V15.52h6.96zm4.48.08 1.42 1.42h-2.86V17.1c0-.781.005-1.42.01-1.42.006 0 .649.639 1.43 1.42"/></svg>