<svg xmlns="http://www.w3.org/2000/svg" width="24" height="24" fill="none" stroke="currentColor" stroke-linecap="round" stroke-linejoin="round" stroke-width="3"><path fill="#000" fill-rule="evenodd" stroke="none" d="M11.22.52c-.607.019-.652.026-.868.136-.938.475-1.135 1.681-.394 2.41.115.113.28.237.366.276l.156.07v1.1l-3.398.005c-2.789.004-3.426.015-3.555.061-.37.13-.718.437-.875.772-.109.234-.18.635-.145.826.037.206 1.809 6.384 1.914 6.675a2.5 2.5 0 0 0 1.828 1.591l.228.05.012 3.904L6.5 22.3l.105.248c.25.595.761.938 1.395.938s1.145-.343 1.395-.938L9.5 22.3l.011-3.89.012-3.89h4.954l.012 3.89.011 3.89.105.248c.25.595.761.938 1.395.938s1.145-.343 1.395-.938l.105-.248.011-3.904.012-3.904.228-.05c.754-.167 1.433-.693 1.733-1.342.111-.239 1.963-6.646 2.016-6.971.03-.186-.027-.482-.145-.759-.081-.191-.382-.531-.571-.646-.338-.206-.253-.202-3.882-.207l-3.382-.005v-1.1l.156-.07c.223-.101.558-.446.673-.694a1.56 1.56 0 0 0 0-1.296c-.171-.366-.578-.703-.952-.788C13.181.515 12.086.493 11.22.52M7.974 9.45l.279 1.985c.006.045-.102.056-.553.06l-.56.005-.569-1.98-.57-1.99c0-.005.382-.01.85-.01h.85zm5.008.06-.284 1.99h-1.396l-.284-1.99-.284-1.99h2.532zm5.017-1.98c-.001.005-.257.901-.57 1.99l-.569 1.98-.56-.005c-.451-.004-.559-.015-.553-.06l.279-1.985.273-1.93h.85c.468 0 .851.005.85.01"/></svg>