<svg xmlns="http://www.w3.org/2000/svg" width="24" height="24" fill="none" stroke="currentColor" stroke-linecap="round" stroke-linejoin="round" stroke-width="3"><path fill="#000" fill-rule="evenodd" stroke="none" d="M5.38 2.576A2.56 2.56 0 0 0 3.777 3.86c-.238.478-.262.621-.285 1.704l-.022.984-.231.069c-.594.178-1.202.701-1.471 1.267-.285.599-.268.213-.268 6.116 0 4.352.01 5.381.054 5.56.175.713.701 1.372 1.334 1.674.602.286-.095.266 9.112.266 6.873 0 8.379-.01 8.56-.054.713-.175 1.372-.701 1.674-1.334.283-.594.266-.212.266-6.112 0-5.897.016-5.518-.265-6.11-.271-.569-.882-1.096-1.479-1.274l-.236-.071-.001-.783c-.002-1.239-.085-1.645-.447-2.186a2.38 2.38 0 0 0-1.444-.995c-.247-.056-.566-.063-2.248-.053-1.918.012-1.965.014-2.197.102-.596.224-1.146.701-1.398 1.212-.246.498-.269.635-.294 1.708l-.022.97h-.949l-.001-.77c-.002-1.226-.086-1.635-.447-2.174a2.35 2.35 0 0 0-1.375-.977c-.288-.074-.441-.079-2.213-.076-1.366.003-1.961.018-2.104.053m3.1 3.444v.5H6.52v-1h1.96zm9 0v.5h-1.96v-1h1.96zm2 8v4.5H4.52v-9h14.96z"/></svg>