<svg xmlns="http://www.w3.org/2000/svg" width="24" height="24" fill="none" stroke="currentColor" stroke-linecap="round" stroke-linejoin="round" stroke-width="3"><path fill="#000" fill-rule="evenodd" stroke="none" d="M3.22 2.52c-.607.019-.652.026-.868.136-.938.475-1.135 1.681-.394 2.41.115.113.28.237.366.276l.156.07v4.932l-.144.138c-.374.36-.849 1.026-1.135 1.596A6.26 6.26 0 0 0 .515 15c0 1.066.217 1.99.686 2.922a6.47 6.47 0 0 0 5.779 3.563c1.685.003 3.231-.6 4.441-1.732l.249-.233h3.156l.195.308a3.6 3.6 0 0 0 2.269 1.598 4.3 4.3 0 0 0 1.42 0c1.057-.224 2.044-1.008 2.465-1.958a.67.67 0 0 1 .311-.358 2.66 2.66 0 0 0 1.048-1.37c.035-.11.22-1.172.412-2.36.381-2.357.412-2.707.278-3.16-.24-.809-.893-1.484-1.664-1.72-.172-.052-2.528-.289-2.97-.299-.066-.001-.07-.118-.07-1.895V6.412l.156-.07a1.7 1.7 0 0 0 .366-.276c.741-.729.544-1.935-.394-2.41-.216-.11-.254-.116-.728-.114-.414.001-.541.016-.737.089-.591.219-1.145.699-1.398 1.211-.284.574-.276.501-.295 2.93-.015 2.026-.021 2.19-.083 2.172a6 6 0 0 0-.533-.047c-.256-.015-.486-.04-.51-.055s-.202-1.172-.405-2.644c-.199-1.44-.388-2.724-.42-2.853-.164-.647-.69-1.284-1.304-1.579a3 3 0 0 0-.575-.205c-.252-.046-7.195-.08-8.44-.041m3.26 4.5c0 .825-.009 1.5-.02 1.5-.071 0-.822.123-.875.144-.059.022-.065-.112-.065-1.56V5.52h.96zm4.485.46c.149 1.067.271 1.981.273 2.031.002.089-.004.09-.328.066-.235-.018-.382-.053-.51-.121l-.53-.276-.35-.181V5.518l.588.011.588.011zm-3.149 4.121c1.257.277 2.345 1.385 2.601 2.647a4.7 4.7 0 0 1 0 1.504c-.21 1.034-.994 1.996-1.996 2.45-.421.191-.89.285-1.421.285q-1.51 0-2.521-1.073C3.813 16.707 3.52 15.97 3.52 15c0-1.007.308-1.752 1.018-2.462.507-.506 1.063-.821 1.682-.952.415-.088 1.164-.081 1.596.015m8.984 1.464c1.837.147 3.356.282 3.377.3.028.025-.196 1.66-.233 1.704a4 4 0 0 1-.347-.168c-.561-.291-.869-.361-1.597-.361-.525 0-.668.014-.932.09-.854.248-1.539.764-2.047 1.544l-.226.346h-.74c-.687 0-.739-.005-.719-.07.078-.252.15-.948.15-1.45 0-.661-.072-1.184-.247-1.791a8 8 0 0 1-.119-.434c0-.013.077-.014.17-.001s1.673.144 3.51.291m-10.284.512c-1.049.399-1.349 1.701-.571 2.478.71.71 1.942.519 2.393-.371a1.48 1.48 0 0 0-.286-1.746c-.292-.292-.55-.395-1.012-.407-.247-.006-.431.01-.524.046m11.828 4.079c.119.119.136.162.136.337 0 .242-.129.424-.343.483a.5.5 0 0 1-.514-.16c-.081-.096-.103-.166-.103-.323 0-.175.017-.218.136-.337s.161-.136.344-.136.224.016.344.136"/></svg>