<svg xmlns="http://www.w3.org/2000/svg" width="24" height="24" fill="none" stroke="currentColor" stroke-linecap="round" stroke-linejoin="round" stroke-width="3"><path fill="#000" fill-rule="evenodd" stroke="none" d="M11.34.416a3.46 3.46 0 0 0-1.85 1.042c-.352.373-.561.705-.705 1.118-.092.262-2.136 7.063-2.455 8.167l-.14.482-1.945 1.115c-2.263 1.296-2.532 1.464-2.878 1.794C.784 14.692.518 15.277.518 16c0 .538.123.93.435 1.39.212.312.687.755 1.049.978.607.375 7.68 4.552 7.876 4.651.532.27 1.37.461 2.022.461s1.49-.191 2.021-.461c.112-.056 1.916-1.115 4.011-2.354a733 733 0 0 1 4.124-2.428c.383-.214.843-.634 1.063-.97.234-.355.366-.801.368-1.235.003-.753-.268-1.34-.897-1.937-.258-.245-.583-.454-2.295-1.476l-2.274-1.357c-.301-.18-.328-.226-.422-.722a4 4 0 0 0-.158-.52c-.108-.29-1.884-6.19-2.137-7.1a3.4 3.4 0 0 0-.607-1.236c-.442-.566-1.143-1.035-1.806-1.208-.402-.105-1.164-.135-1.551-.06m.853 3.001c.061.031.13.098.155.15.091.187.562 1.854.533 1.885-.045.049-.63.145-.881.145-.269 0-.836-.097-.892-.153-.028-.028.046-.333.229-.952.228-.77.289-.929.387-1.022.132-.124.297-.143.469-.053m-1.509 5.025a6 6 0 0 0 1.802.122c.431-.041 1.066-.155 1.235-.222.049-.019.11.14.317.838.156.525.242.876.219.897-.07.067-.836.281-1.237.345-.525.085-1.513.085-2.04.001-.409-.066-1.3-.322-1.3-.374.001-.028.461-1.575.501-1.683.012-.033.046-.044.089-.027.039.015.225.062.414.103m-1.655 4.576c.565.219 1.56.409 2.401.457 1.207.07 2.67-.119 3.546-.459.086-.033.17-.046.186-.028.047.05.318.988.318 1.1a.6.6 0 0 1-.114.257c-.43.595-1.544 1.04-2.836 1.134-1.515.11-2.99-.26-3.721-.933-.236-.218-.302-.356-.279-.583.024-.235.262-1.003.311-1.003a1 1 0 0 1 .188.058m10.243 2.481c.403.238.718.446.7.462-.033.03-6.854 4.069-7.233 4.283-.537.303-1.125.309-1.648.017-.521-.29-7.171-4.242-7.17-4.26.002-.021 1.65-.971 1.698-.977.014-.002.077.123.14.279.663 1.652 2.649 2.869 5.121 3.139.539.059 1.701.059 2.24 0 2.499-.273 4.493-1.511 5.143-3.192.106-.275.116-.287.194-.236.046.029.413.248.815.485"/></svg>