<svg xmlns="http://www.w3.org/2000/svg" width="24" height="24" fill="none" stroke="currentColor" stroke-linecap="round" stroke-linejoin="round" stroke-width="3"><path fill="#000" fill-rule="evenodd" stroke="none" d="M11.08.545C8.813.816 6.971 1.668 5.427 3.158 3.805 4.723 2.88 6.578 2.553 8.92c-.076.547-.076 5.428.001 5.94.224 1.501.827 2.724 1.844 3.742.354.354.842.743 1.172.935.116.068.179.129.163.157-.015.025-.261.395-.545.822-.557.836-.618.951-.667 1.261-.127.796.439 1.561 1.262 1.706.27.048.653-.018.928-.159.263-.134.474-.399 1.283-1.615l.794-1.191h6.424l.794 1.191c.809 1.216 1.02 1.481 1.283 1.615a1.502 1.502 0 0 0 2.185-1.104 1.54 1.54 0 0 0-.086-.787c-.032-.077-.292-.49-.576-.917s-.53-.797-.545-.822c-.016-.028.047-.089.163-.157.33-.192.818-.581 1.172-.935a6.3 6.3 0 0 0 1.695-2.997c.195-.786.203-.932.202-3.745-.002-2.526-.006-2.664-.091-3.2-.274-1.732-.92-3.236-1.958-4.556-.336-.429-1.262-1.334-1.69-1.654-1.28-.956-2.643-1.548-4.18-1.815-.373-.065-.689-.086-1.42-.095a20 20 0 0 0-1.08.005m1.87 3.034c.428.065.998.21 1.31.333l.2.079v1.794c0 1.761-.002 1.799-.09 2.032-.233.618-.712 1.157-1.26 1.418-.415.197-.664.255-1.11.255s-.695-.058-1.11-.255c-.548-.261-1.027-.8-1.26-1.418-.088-.233-.09-.271-.09-2.032V3.991l.2-.079a8 8 0 0 1 1.28-.332c.454-.072 1.462-.072 1.93-.001M6.562 7.758c.063.527.241 1.099.516 1.664a5.42 5.42 0 0 0 2.397 2.453c2.746 1.411 6.103.306 7.447-2.453.377-.774.509-1.321.589-2.439l.029-.397.207.397c.343.656.561 1.324.676 2.077.081.527.082 5.245.001 5.666a3.44 3.44 0 0 1-2.333 2.61c-.525.163-.988.184-4.091.184s-3.566-.021-4.091-.184a3.44 3.44 0 0 1-2.333-2.61c-.081-.421-.08-5.139.001-5.666a6.5 6.5 0 0 1 .676-2.077l.207-.397.029.397c.015.218.048.567.073.775m.954 4.819a1.52 1.52 0 0 0-.859 2.087c.15.329 1.35 1.529 1.679 1.679a1.502 1.502 0 0 0 2.007-2.007c-.083-.181-.239-.362-.773-.893-.827-.821-.957-.898-1.53-.912-.246-.006-.431.01-.524.046m8 0c-.293.111-.51.286-1.127.906-.684.686-.808.872-.866 1.299-.163 1.198 1.032 2.069 2.141 1.561.329-.15 1.529-1.35 1.679-1.679.353-.771.057-1.627-.695-2.008-.198-.101-.279-.117-.608-.125-.246-.006-.431.01-.524.046"/></svg>