<svg xmlns="http://www.w3.org/2000/svg" width="24" height="24" fill="none" stroke="currentColor" stroke-linecap="round" stroke-linejoin="round" stroke-width="3"><path fill="#000" fill-rule="evenodd" stroke="none" d="M13.516.577c-.691.264-1.09.925-.993 1.641.046.337.195.609.528.962l.303.32-.424.427-.423.428-.313-.291a3 3 0 0 0-.543-.407c-.212-.107-.266-.117-.651-.117-.384 0-.44.01-.648.116a1.5 1.5 0 0 0-.829 1.562c.046.337.195.609.528.962l.303.32-.424.427-.423.428-.313-.291a3 3 0 0 0-.543-.407C8.439 6.55 8.385 6.54 8 6.54c-.384 0-.44.01-.648.116a1.5 1.5 0 0 0-.829 1.562c.045.335.196.609.529.965l.303.324-.428.423-.427.424-.309-.29a3 3 0 0 0-.54-.407C5.439 9.55 5.385 9.54 5 9.54c-.384 0-.44.01-.648.116a1.5 1.5 0 0 0-.829 1.562c.045.335.196.609.529.965l.303.324-.428.423-.427.424-.309-.29a3 3 0 0 0-.54-.407c-.212-.107-.266-.117-.651-.117-.384 0-.44.01-.648.116a1.5 1.5 0 0 0-.829 1.562c.045.334.196.61.526.962l.3.32-.3.32c-.33.352-.481.627-.526.962a1.493 1.493 0 0 0 1.695 1.695c.337-.046.609-.195.962-.529l.32-.302 1.427 1.424 1.427 1.424-.302.323c-.333.356-.484.63-.529.965a1.493 1.493 0 0 0 1.695 1.695c.335-.045.61-.196.962-.526l.32-.3.32.3c.352.33.628.481.962.526a1.493 1.493 0 0 0 1.695-1.695c-.046-.337-.195-.609-.528-.962l-.303-.32.424-.427.423-.428.324.303c.356.333.63.484.965.529a1.493 1.493 0 0 0 1.695-1.695c-.045-.335-.196-.609-.529-.965l-.303-.324.428-.423.427-.424.32.303c.353.333.625.482.962.528a1.493 1.493 0 0 0 1.695-1.695c-.045-.335-.196-.609-.529-.965l-.303-.324.428-.423.427-.424.32.303c.353.333.625.482.962.528a1.493 1.493 0 0 0 1.695-1.695c-.045-.335-.196-.609-.529-.965l-.303-.324.428-.423.427-.424.32.303c.353.333.625.482.962.528a1.493 1.493 0 0 0 1.695-1.695c-.045-.334-.196-.61-.526-.962l-.3-.32.3-.32c.33-.352.481-.627.526-.962a1.5 1.5 0 0 0-.829-1.562c-.208-.106-.264-.116-.648-.116-.385 0-.439.01-.651.117a3 3 0 0 0-.54.407l-.309.29-1.427-1.424-1.427-1.424.302-.323c.333-.356.484-.63.529-.965a1.5 1.5 0 0 0-.829-1.562C17.44.55 17.384.54 17 .54c-.385 0-.439.01-.651.117a3 3 0 0 0-.54.404l-.309.288-.309-.287a3 3 0 0 0-.538-.404c-.198-.1-.281-.117-.611-.126q-.382-.01-.526.045M17.93 8.93l-.429.43-1.43-1.429-1.431-1.43.43-.431.429-.43 1.43 1.429 1.431 1.43zm-3 3-.429.43-1.43-1.429-1.431-1.43.43-.431.429-.43 1.43 1.429 1.431 1.43zm-3 3-.429.43-1.43-1.429-1.431-1.43.43-.431.429-.43 1.43 1.429 1.431 1.43zm-3 3-.429.43-1.43-1.429-1.431-1.43.43-.431.429-.43 1.43 1.429 1.431 1.43z"/></svg>