<svg xmlns="http://www.w3.org/2000/svg" width="24" height="24" fill="none" stroke="currentColor" stroke-linecap="round" stroke-linejoin="round" stroke-width="3"><path fill="#000" fill-rule="evenodd" stroke="none" d="M10.82.563A11.51 11.51 0 0 0 .74 9.665C.495 10.845.5 10.699.5 16.76v5.54l.105.248c.25.595.761.938 1.395.938s1.145-.343 1.395-.938L3.5 22.3l.023-5.7c.023-5.542.026-5.711.105-6.101.376-1.837 1.126-3.261 2.369-4.5C7.276 4.724 8.758 3.956 10.6 3.613c.546-.102 2.255-.102 2.8 0 1.844.344 3.332 1.115 4.602 2.385 1.268 1.269 2.05 2.778 2.385 4.602.063.346.072.89.091 6.04l.022 5.66.105.248c.25.595.761.938 1.395.938s1.145-.343 1.395-.938l.105-.248v-5.54c0-6.061.005-5.915-.24-7.095-.961-4.638-4.699-8.232-9.36-9.002-.846-.14-2.244-.185-3.08-.1m.2 4.001a8 8 0 0 0-1.32.304c-2.263.729-4.087 2.542-4.817 4.788-.356 1.095-.42 1.783-.392 4.202.022 1.868.045 2.1.287 2.839a5.57 5.57 0 0 0 2.001 2.758c.075.054.053.095-.528.971-.334.503-.628.968-.653 1.034-.333.885.235 1.856 1.185 2.023.27.048.653-.018.928-.159.263-.134.474-.399 1.284-1.615l.793-1.192h4.424l.793 1.192c.81 1.216 1.021 1.481 1.284 1.615a1.502 1.502 0 0 0 2.185-1.104c.038-.244.01-.541-.072-.76-.025-.066-.319-.531-.653-1.034-.581-.876-.603-.917-.528-.971 1.141-.825 1.956-2.137 2.204-3.549.085-.482.125-3.44.059-4.343-.096-1.316-.458-2.453-1.123-3.525-.722-1.164-1.873-2.2-3.081-2.772-1.155-.547-2.064-.75-3.325-.741-.382.003-.803.02-.935.039m2.1 3.083.34.093v.4c0 .347-.013.426-.1.595-.509.997-2.211.997-2.72 0-.087-.169-.1-.248-.1-.594v-.399l.26-.072c.463-.127.649-.146 1.32-.131.538.011.723.031 1 .108m-4.905 2.868c.228.357.776.915 1.142 1.163a5 5 0 0 0 1.917.765c.146.024.473.043.726.043s.58-.019.726-.043a5 5 0 0 0 1.897-.752c.51-.348 1.102-.994 1.347-1.469l.083-.162.097.22c.054.121.145.391.204.6l.106.38v2.16c0 2.139-.001 2.162-.09 2.397-.233.618-.712 1.157-1.26 1.418-.566.269-.516.265-3.11.265s-2.544.004-3.11-.265c-.548-.261-1.027-.8-1.26-1.418-.089-.235-.09-.258-.09-2.397 0-2.131.001-2.165.092-2.495.051-.184.139-.453.197-.597.09-.225.112-.252.148-.19.024.04.131.21.238.377m1.301 3.062c-1.049.399-1.349 1.701-.571 2.478.58.58 1.53.583 2.107.007a1.47 1.47 0 0 0 0-2.124c-.292-.292-.55-.395-1.012-.407-.247-.006-.431.01-.524.046m4 0c-1.049.399-1.349 1.701-.571 2.478.58.58 1.53.583 2.107.007a1.47 1.47 0 0 0 0-2.124c-.292-.292-.55-.395-1.012-.407-.247-.006-.431.01-.524.046"/></svg>