<svg xmlns="http://www.w3.org/2000/svg" width="24" height="24" fill="none" stroke="currentColor" stroke-linecap="round" stroke-linejoin="round" stroke-width="3"><path fill="#000" fill-rule="evenodd" stroke="none" d="M8.58 1.521c-3.215.021-3.242.022-3.533.111-1.299.399-2.247 1.446-2.495 2.756-.076.398-.076 12.826 0 13.224.247 1.306 1.23 2.393 2.488 2.751.099.028.186.056.193.061s-.116.202-.274.437c-.323.482-.392.626-.438.916-.127.796.439 1.561 1.262 1.706.27.048.655-.018.928-.159.268-.138.466-.388 1.273-1.603l.796-1.199h6.44l.796 1.199c.807 1.215 1.005 1.465 1.273 1.603a1.5 1.5 0 0 0 2.185-1.104 1.53 1.53 0 0 0-.087-.788 5 5 0 0 0-.346-.571c-.158-.235-.281-.432-.274-.437s.094-.033.193-.061a3.6 3.6 0 0 0 1.548-.935c.573-.6.883-1.272.971-2.111.053-.509.053-12.125 0-12.634-.132-1.255-.824-2.255-1.946-2.817-.604-.303-.714-.319-2.213-.333a529 529 0 0 0-8.74-.012m1.9 5.499v2.5H5.52V4.792l.136-.136.136-.136h4.688zm7.864-2.364.136.136V9.52h-4.96v-5h4.688zm.136 10.201v2.337l-.103.122a.6.6 0 0 1-.25.162c-.201.054-12.053.054-12.254 0a.6.6 0 0 1-.25-.162l-.103-.122V12.52h12.96zm-10.964-1.28c-1.049.399-1.349 1.701-.571 2.478.71.71 1.942.519 2.393-.371a1.48 1.48 0 0 0-.286-1.746c-.292-.292-.55-.395-1.012-.407-.247-.006-.431.01-.524.046m8 0c-1.049.399-1.349 1.701-.571 2.478.58.58 1.53.583 2.107.007a1.47 1.47 0 0 0 0-2.124c-.292-.292-.55-.395-1.012-.407-.247-.006-.431.01-.524.046"/></svg>