<svg xmlns="http://www.w3.org/2000/svg" width="24" height="24" fill="none" stroke="currentColor" stroke-linecap="round" stroke-linejoin="round" stroke-width="3"><path fill="#000" fill-rule="evenodd" stroke="none" d="M9.403.563C8.206.803 7.121 1.754 6.7 2.931c-.134.376-.22.907-.22 1.364v.219l-1.893.002c-2.033.003-2.038.003-2.372.215a1.492 1.492 0 0 0-.27 2.324c.317.317.73.462 1.325.464l.21.001v6.202c0 4.15.014 6.328.043 6.586.089.798.439 1.499 1.054 2.115.616.615 1.317.965 2.115 1.054.516.058 10.105.059 10.606.001.823-.094 1.492-.428 2.122-1.058s.964-1.299 1.058-2.122c.027-.23.041-2.586.042-6.568V7.52l.21-.001c.595-.002 1.008-.147 1.325-.464a1.492 1.492 0 0 0-.275-2.328c-.322-.203-.382-.208-2.389-.211l-1.871-.002v-.227c-.003-1.718-.999-3.107-2.62-3.652l-.28-.094L12.1.534C10.714.53 9.5.543 9.403.563m4.902 3.132.175.174v.651H9.52v-.651l.175-.174.174-.175h4.262zm3.175 10.124v6.298l-.129.148a.9.9 0 0 1-.259.201c-.192.08-9.992.08-10.184 0a.9.9 0 0 1-.259-.201l-.129-.148V7.52h10.96zM9.516 9.577c-.557.213-.919.67-1.001 1.262-.023.164-.034 1.541-.027 3.369L8.5 17.3l.105.248c.25.595.761.938 1.395.938s1.145-.343 1.395-.938l.105-.248.012-3.092c.007-1.828-.004-3.205-.027-3.369a1.51 1.51 0 0 0-.835-1.182c-.195-.099-.28-.116-.608-.125q-.382-.01-.526.045m4 0c-.557.213-.919.67-1.001 1.262-.023.164-.034 1.541-.027 3.369L12.5 17.3l.105.248c.25.595.761.938 1.395.938s1.145-.343 1.395-.938l.105-.248.012-3.092c.007-1.828-.004-3.205-.027-3.369a1.51 1.51 0 0 0-.835-1.182c-.195-.099-.28-.116-.608-.125q-.382-.01-.526.045"/></svg>