<svg xmlns="http://www.w3.org/2000/svg" width="24" height="24" fill="none" stroke="currentColor" stroke-linecap="round" stroke-linejoin="round" stroke-width="3"><path fill="#000" fill-rule="evenodd" stroke="none" d="M11.54 1.573c-.386.127-.414.155-2.764 2.687-2.207 2.379-2.114 2.271-2.292 2.638-.357.738-.364 1.428-.021 2.177l.148.324-.339.371c-1.766 1.933-1.773 1.942-1.956 2.55-.176.584-.12 1.168.172 1.809l.123.27-.339.37c-1.488 1.629-1.583 1.74-1.744 2.031-.27.489-.378 1.132-.274 1.627.212 1.008.86 1.709 1.846 1.998.218.064.526.071 3.305.085l3.066.014.017.888c.016.84.023.902.119 1.136.243.592.758.938 1.393.938s1.15-.346 1.393-.938c.096-.234.103-.296.119-1.136l.017-.888 3.066-.014c2.778-.012 3.087-.02 3.305-.084.982-.286 1.634-.992 1.846-1.999.104-.495-.004-1.138-.274-1.627-.161-.291-.256-.402-1.744-2.031l-.339-.37.123-.27c.292-.641.348-1.225.172-1.809-.183-.608-.19-.617-1.956-2.55l-.339-.371.148-.324c.446-.975.284-1.99-.447-2.796-.582-.642-3.521-3.8-3.863-4.15-.471-.482-.665-.582-1.165-.597-.221-.007-.424.009-.522.041m1.617 4.874c.618.665 1.123 1.221 1.123 1.238s-.033.04-.073.053c-.133.042-.456.398-.556.614-.189.407-.185.908.011 1.313.067.139.499.645 1.358 1.589.693.761 1.26 1.401 1.26 1.422s-.033.049-.073.062c-.133.042-.456.398-.556.614-.189.407-.185.908.01 1.311.066.137.484.628 1.278 1.5.649.713 1.18 1.31 1.18 1.326.001.017-2.754.03-6.122.03-3.87 0-6.118-.014-6.11-.038A45 45 0 0 1 7 16.234c.605-.664 1.159-1.29 1.232-1.39.261-.363.332-.939.168-1.375-.091-.242-.455-.683-.603-.73-.042-.013-.077-.042-.077-.063 0-.022.537-.628 1.193-1.348s1.25-1.389 1.321-1.486c.26-.36.329-.938.163-1.38-.065-.173-.155-.305-.333-.485-.134-.136-.271-.256-.304-.267-.074-.023-.17.088 1.157-1.34.577-.622 1.065-1.13 1.084-1.13.018 0 .538.543 1.156 1.207"/></svg>