<svg xmlns="http://www.w3.org/2000/svg" width="24" height="24" fill="none" stroke="currentColor" stroke-linecap="round" stroke-linejoin="round" stroke-width="3"><path fill="#000" fill-rule="evenodd" stroke="none" d="M6.405 1.585C3.509 2.006 1.173 4.11.619 6.798c-.086.419-.137 1.14-.099 1.41.068.483.403.941.831 1.141.31.144.646.175 1.744.162.542-.006.985-.004.985.005a1 1 0 0 1-.092.14c-.525.708-.988 1.798-1.198 2.82-.074.361-.087.552-.085 1.284.002.96.05 1.276.315 2.067.39 1.168 1.232 2.349 1.9 2.669.231.11.3.124.62.124.322 0 .389-.014.629-.127.244-.116.406-.266 1.813-1.68 1.266-1.273 1.54-1.532 1.525-1.434-.011.065.016.362.059.66.051.354.078.762.078 1.181.001 1.187-.2 2.086-.826 3.689-.315.804-.357 1.014-.278 1.386.136.643.609 1.086 1.269 1.189.16.025 1.063.035 2.356.027 2.338-.016 2.32-.014 2.703-.298.315-.232.47-.479.648-1.027.911-2.802.985-5.553.258-9.531l-.023-.125.755-.02c.827-.022 1.006-.058 1.311-.264l.183-.123.183.123c.358.242.408.248 2.121.265 1.684.016 2.01-.007 2.345-.162.428-.2.763-.658.831-1.141.038-.27-.013-.991-.099-1.41a6.46 6.46 0 0 0-2.118-3.551c-1.378-1.159-2.947-1.727-4.769-1.727-.915 0-1.786.145-2.508.416l-.261.099-.118-.208c-.292-.514-.834-1.152-1.347-1.583a7.2 7.2 0 0 0-3.717-1.663c-.534-.075-1.613-.073-2.138.004M8.66 4.654a4.24 4.24 0 0 1 1.897 1.104c.259.265.63.789.588.83a2 2 0 0 1-.309-.033c-.202-.032-.907-.044-2.227-.038l-1.931.009-.393-.373c-.514-.489-.735-.603-1.212-.626-.419-.02-.418-.027.052-.328a4.1 4.1 0 0 1 1.155-.527c.473-.13.656-.148 1.36-.133.551.012.719.031 1.02.115m9 3c.927.257 1.809.858 2.274 1.548.195.29.19.318-.058.318-.203 0-.207-.002-.594-.37-.236-.224-.483-.418-.626-.49-.218-.111-.269-.12-.656-.12s-.438.009-.656.12c-.143.072-.39.266-.626.49l-.389.37h-1.326l-.099-.33c-.252-.842-.344-1.168-.344-1.212 0-.051.238-.162.594-.278.441-.143.763-.179 1.466-.162.571.013.738.032 1.04.116m-6.985 1.913.254.044-2.553 2.553c-1.619 1.619-2.564 2.536-2.581 2.505-.048-.087-.115-.616-.115-.904 0-1.146.477-2.215 1.369-3.069.399-.381.663-.56 1.203-.815.505-.239.847-.327 1.388-.358.471-.027.666-.019 1.035.044m2.05 3.2c.559 2.556.671 5.048.316 7.013a10 10 0 0 1-.122.59l-.043.15h-.358a2 2 0 0 1-.358-.014c0-.008.071-.293.158-.634.386-1.511.454-2.982.204-4.37-.096-.536-.23-.829-.487-1.07a1.46 1.46 0 0 0-.943-.421l-.299-.023.892-.893c.49-.49.899-.885.907-.876s.069.256.133.548"/></svg>