<svg xmlns="http://www.w3.org/2000/svg" width="24" height="24" fill="none" stroke="currentColor" stroke-linecap="round" stroke-linejoin="round" stroke-width="3"><path fill="#000" fill-rule="evenodd" stroke="none" d="M11.277 1.558c-1.473.269-2.667 1.161-3.318 2.478a4 4 0 0 0-.181.418c-.022.086-.056.107-.212.129-.278.04-.953.269-1.289.438-1.382.69-2.334 1.913-2.679 3.439-.07.311-.091.529-.093.98-.003.649.049 1.006.221 1.551l.118.37-.263.35c-.46.61-.842 1.488-1.009 2.318-.095.476-.095 1.457.001 1.942.163.82.551 1.717 1.002 2.312A6.2 6.2 0 0 0 5.56 19.94c.365.184 1.025.398 1.48.481.3.054.703.073 1.905.088l1.526.02.017.886c.016.836.023.899.119 1.133.243.592.758.938 1.393.938s1.15-.346 1.393-.938c.096-.234.103-.296.119-1.138l.018-.89 1.205-.001c2.062-.001 2.703-.102 3.675-.583 1.769-.874 2.893-2.535 3.068-4.533.084-.958-.132-1.999-.615-2.957-.153-.304-.458-.768-.615-.936l-.102-.109.107-.331c.181-.557.237-.921.241-1.57.004-.657-.05-.998-.253-1.597a5.02 5.02 0 0 0-2.718-2.963 5.6 5.6 0 0 0-1.123-.358c-.132-.023-.148-.044-.277-.353a4.1 4.1 0 0 0-.99-1.441 3.8 3.8 0 0 0-1.153-.81c-.678-.332-1.061-.423-1.86-.44-.363-.007-.742.002-.843.02m1.376 3.1c.267.135.574.445.7.706.058.121.107.342.141.643.038.329.083.519.157.675.167.35.461.623.816.759.204.077.303.088.798.084.661-.006.932.057 1.318.308.327.212.557.477.73.84.146.305.147.311.147.827 0 .501-.005.53-.127.787a4 4 0 0 1-.283.5c-.227.339-.299.548-.296.865.004.561.191.922.679 1.31.531.423.822.85.968 1.422.35 1.367-.476 2.711-1.881 3.061-.32.08-8.705.081-9.053.002-.725-.167-1.386-.685-1.703-1.335-.282-.579-.338-1.277-.147-1.852.112-.335.322-.72.499-.914.057-.063.239-.225.404-.36.388-.318.465-.404.58-.646.181-.38.2-.864.046-1.231a3 3 0 0 0-.227-.39 5 5 0 0 1-.273-.472c-.098-.209-.106-.268-.106-.747 0-.464.01-.544.097-.74.266-.6.658-.963 1.263-1.167.197-.066.355-.082.88-.087.588-.006.655-.014.82-.101.597-.313.844-.708.913-1.457.04-.436.137-.674.385-.944.341-.37.623-.487 1.144-.472.329.009.413.026.611.126"/></svg>