<svg xmlns="http://www.w3.org/2000/svg" width="24" height="24" fill="none" stroke="currentColor" stroke-linecap="round" stroke-linejoin="round" stroke-width="3"><path fill="#000" fill-rule="evenodd" stroke="none" d="M12.514 1.581c-.274.087-.511.288-1.156.979-1.111 1.19-1.171 1.273-1.232 1.722-.148 1.083.843 1.957 1.877 1.654.276-.08.524-.238.775-.494.11-.111.211-.202.226-.202s.492.5 1.059 1.11c1.351 1.455 1.249 1.337 1.177 1.36-.033.011-.17.131-.304.267-.178.18-.268.312-.333.485-.166.442-.097 1.02.163 1.38.071.097.665.766 1.321 1.486s1.193 1.326 1.193 1.348c0 .021-.035.05-.077.063-.148.047-.512.488-.603.73-.164.436-.093 1.012.168 1.375.073.1.627.726 1.232 1.39a46 46 0 0 1 1.114 1.248c.009.026-1.264.039-3.7.037-4.022-.004-3.844-.013-4.199.212-.65.41-.888 1.22-.564 1.917.114.246.45.593.668.692l.152.068.017.946c.016.904.021.957.119 1.194.244.592.758.938 1.393.938s1.15-.346 1.393-.938c.096-.234.103-.296.119-1.136l.017-.888 3.066-.014c2.779-.014 3.087-.021 3.305-.085.986-.289 1.634-.99 1.846-1.998.104-.495-.004-1.138-.274-1.627-.161-.291-.256-.402-1.744-2.031l-.339-.37.123-.27c.292-.641.348-1.225.172-1.809-.183-.608-.19-.617-1.956-2.55l-.339-.371.148-.324c.451-.985.286-1.982-.464-2.815-.623-.692-3.949-4.248-4.098-4.382-.273-.246-.506-.334-.915-.346-.237-.007-.424.009-.546.049M6.277 5.558c-1.471.269-2.667 1.161-3.316 2.474a5.7 5.7 0 0 0-.38 1.112c-.018.092-.089.171-.282.312-.886.651-1.553 1.847-1.704 3.057-.138 1.106.253 2.427.978 3.307.886 1.073 1.955 1.6 3.415 1.683l.487.028.013 2.385L5.5 22.3l.105.248c.25.595.761.938 1.395.938s1.145-.343 1.395-.938L8.5 22.3l.012-2.383.013-2.382.607-.046c1.006-.076 1.719-.326 2.428-.851q1.632-1.21 1.844-3.265a3.9 3.9 0 0 0-.125-1.507c-.238-.908-.835-1.831-1.536-2.373l-.294-.227-.086-.343a4.4 4.4 0 0 0-1.23-2.135 3.8 3.8 0 0 0-1.153-.81c-.678-.332-1.061-.423-1.86-.44-.363-.007-.742.002-.843.02m1.376 3.1c.27.137.574.445.703.713.068.141.102.309.128.64.044.54.113.798.277 1.024.189.261.35.391.711.571.388.194.642.433.798.751.099.2.11.266.11.643 0 .379-.011.442-.112.647-.146.298-.511.637-.817.758-.229.091-.25.092-2.283.104-1.221.007-2.152-.004-2.298-.028-1.011-.162-1.576-1.233-1.131-2.143.153-.313.39-.534.781-.729.368-.183.529-.311.719-.574.165-.227.237-.496.275-1.021.036-.503.12-.722.384-1.01.341-.37.623-.487 1.144-.472.329.009.413.026.611.126"/></svg>