<svg xmlns="http://www.w3.org/2000/svg" width="24" height="24" fill="none" stroke="currentColor" stroke-linecap="round" stroke-linejoin="round" stroke-width="3"><path fill="#000" fill-rule="evenodd" stroke="none" d="M4.44 1.547a3.56 3.56 0 0 0-2.888 2.841c-.076.399-.076 14.825 0 15.224.221 1.168 1.036 2.177 2.116 2.617.716.292.076.271 8.332.271 6.835 0 7.443-.005 7.71-.068a3.7 3.7 0 0 0 1.798-1.004c.573-.6.883-1.272.971-2.111.054-.511.054-14.123 0-14.634-.154-1.464-1.103-2.611-2.526-3.052l-.293-.091-7.56-.005c-4.158-.002-7.605.003-7.66.012m14.904 3.109.136.136v14.402l-.103.122a.6.6 0 0 1-.25.163c-.204.056-14.05.056-14.254 0a.6.6 0 0 1-.25-.163l-.103-.122V4.792l.136-.136.136-.136h14.416zm-12.828.922a1.54 1.54 0 0 0-1.001 1.257c-.022.163-.033 2.13-.026 4.869L5.5 16.3l.105.248q.25.597.847.847l.248.105h3.6l.248-.105q.597-.25.847-.847l.105-.248.011-4.596c.007-2.739-.004-4.706-.026-4.869a1.51 1.51 0 0 0-.837-1.179l-.228-.116-1.88-.008c-1.494-.006-1.91.003-2.024.046m7 0a1.54 1.54 0 0 0-1.002 1.264c-.022.164-.033 1.345-.026 2.868l.012 2.59.105.248q.25.597.847.847l.248.105h3.6l.248-.105q.597-.25.847-.847l.105-.248.012-2.59c.007-1.523-.004-2.704-.026-2.868a1.51 1.51 0 0 0-.838-1.186l-.228-.116-1.88-.008c-1.494-.006-1.91.003-2.024.046"/></svg>