<svg xmlns="http://www.w3.org/2000/svg" width="24" height="24" fill="none" stroke="currentColor" stroke-linecap="round" stroke-linejoin="round" stroke-width="3"><path fill="#000" fill-rule="evenodd" stroke="none" d="m18.7 5.519-3.12.021-.228.116a1.51 1.51 0 0 0-.829 1.126 1.494 1.494 0 0 0 1.287 1.7c.138.02.763.037 1.39.037l1.14.001-2.419 2.419-2.419 2.42-2.042-2.038C9.549 9.415 9.4 9.276 9.139 9.153c-.25-.117-.316-.131-.639-.131s-.389.014-.64.131c-.267.125-.435.286-3.688 3.539-3.032 3.031-3.42 3.434-3.514 3.64a1.502 1.502 0 0 0 2.01 2.009c.205-.093.562-.435 3.032-2.902l2.8-2.796 2.041 2.036c1.903 1.899 2.06 2.046 2.32 2.169.251.119.315.132.639.132.312 0 .394-.016.62-.117.243-.11.457-.314 3.306-3.155l3.047-3.038.014 1.315c.015 1.309.016 1.316.119 1.563.247.594.76.938 1.394.938s1.145-.343 1.395-.938l.105-.248.012-3.118c.012-3.304.003-3.517-.171-3.86a1.73 1.73 0 0 0-.662-.662c-.185-.094-.618-.189-.779-.17-.044.005-1.484.018-3.2.029"/></svg>