<svg xmlns="http://www.w3.org/2000/svg" width="24" height="24" fill="none" stroke="currentColor" stroke-linecap="round" stroke-linejoin="round" stroke-width="3"><path fill="#000" fill-rule="evenodd" stroke="none" d="M1.516 5.577a1.52 1.52 0 0 0-.858 2.091c.094.206.482.609 3.514 3.64 3.242 3.242 3.422 3.414 3.688 3.54.252.119.316.132.64.132s.388-.013.639-.132c.26-.123.417-.27 2.321-2.169l2.042-2.038 2.437 2.438 2.438 2.438-1.399.011-1.398.012-.228.116a1.51 1.51 0 0 0-.829 1.126 1.494 1.494 0 0 0 1.287 1.7c.355.052 6.106.048 6.424-.004.327-.053.588-.187.823-.421.234-.235.368-.496.421-.823.052-.318.056-6.069.004-6.424a1.51 1.51 0 0 0-.834-1.154c-.208-.106-.264-.116-.648-.116s-.44.01-.648.116a1.51 1.51 0 0 0-.834 1.154c-.02.138-.037.762-.037 1.389l-.001 1.138-3.05-3.041c-2.87-2.862-3.065-3.048-3.31-3.157-.223-.099-.311-.115-.62-.116-.324-.001-.388.012-.639.13-.261.123-.41.262-2.32 2.168L8.5 11.357l-2.8-2.79c-3.195-3.184-2.997-3.02-3.66-3.036-.246-.006-.431.01-.524.046"/></svg>