<svg xmlns="http://www.w3.org/2000/svg" width="24" height="24" fill="none" stroke="currentColor" stroke-linecap="round" stroke-linejoin="round" stroke-width="3"><path fill="#000" fill-rule="evenodd" stroke="none" d="M11.571 1.52c-1.004.111-1.99.735-2.536 1.605-.264.42-7.997 13.96-8.165 14.296-.491.984-.51 2.081-.052 3.047a3.48 3.48 0 0 0 2.86 2.013c.518.05 16.149.05 16.622-.001a3.15 3.15 0 0 0 1.24-.357 3.37 3.37 0 0 0 1.583-1.583c.221-.448.314-.772.353-1.23a3.4 3.4 0 0 0-.311-1.77C23 17.194 15.069 3.298 14.867 3c-.341-.502-.973-1.009-1.554-1.246a3.74 3.74 0 0 0-1.742-.234m.708 3.073c.061.045 1.716 2.896 4.139 7.131l4.038 7.056.002.233c.002.213-.009.244-.125.347a.6.6 0 0 1-.3.139c-.095.013-3.773.019-8.173.013-7.452-.011-8.009-.017-8.125-.08a.53.53 0 0 1-.243-.492c.012-.07 1.846-3.322 4.075-7.224 3.64-6.369 4.069-7.103 4.194-7.168a.49.49 0 0 1 .518.045m-.763 2.984c-.559.214-.919.67-1.002 1.267-.023.165-.034 1.152-.027 2.369L10.5 13.3l.105.248c.25.595.761.938 1.395.938s1.145-.343 1.395-.938l.105-.248.013-2.087c.007-1.217-.004-2.204-.027-2.369-.075-.537-.364-.948-.836-1.187-.195-.099-.28-.116-.608-.125q-.382-.01-.526.045m0 8c-1.049.399-1.349 1.701-.571 2.478.58.58 1.53.583 2.107.007a1.47 1.47 0 0 0 0-2.124c-.292-.292-.55-.395-1.012-.407-.247-.006-.431.01-.524.046"/></svg>