<svg xmlns="http://www.w3.org/2000/svg" width="24" height="24" fill="none" stroke="currentColor" stroke-linecap="round" stroke-linejoin="round" stroke-width="3"><path fill="#000" fill-rule="evenodd" stroke="none" d="M20.6 2.535c-.332.1-.596.227-.905.435-.359.242-18.185 14.677-18.428 14.923-.568.574-.831 1.285-.709 1.915.159.826.779 1.415 1.705 1.621.298.067.862.071 9.237.071 8.245 0 8.942-.005 9.21-.068a3.7 3.7 0 0 0 1.798-1.004c.573-.6.883-1.272.971-2.111.056-.533.055-13.094-.001-13.643-.074-.714-.284-1.203-.697-1.619a2.2 2.2 0 0 0-.938-.551c-.321-.095-.871-.082-1.243.031m-.12 9.662v5.997l-.103.122a.6.6 0 0 1-.25.163c-.193.053-14.859.057-14.84.004.015-.045 15.119-12.277 15.163-12.28.016-.002.03 2.696.03 5.994"/></svg>