<svg xmlns="http://www.w3.org/2000/svg" width="24" height="24" fill="none" stroke="currentColor" stroke-linecap="round" stroke-linejoin="round" stroke-width="3"><path fill="#000" fill-rule="evenodd" stroke="none" d="M11.24 1.596a3.5 3.5 0 0 0-1.683.924 4 4 0 0 0-.425.48C8.927 3.304.997 17.199.835 17.54a3.4 3.4 0 0 0-.311 1.77c.039.458.132.782.353 1.23.352.713.87 1.231 1.583 1.583.456.224.727.302 1.24.357.217.023 3.503.039 8.3.039s8.083-.016 8.3-.039a3.15 3.15 0 0 0 1.24-.357 3.37 3.37 0 0 0 1.583-1.583c.221-.448.314-.772.353-1.23a3.4 3.4 0 0 0-.3-1.75c-.078-.165-1.971-3.501-4.206-7.413-2.936-5.138-4.127-7.186-4.289-7.379a3.56 3.56 0 0 0-1.979-1.184c-.404-.083-1.072-.078-1.462.012m1.075 3.034c.064.061 1.922 3.269 4.129 7.13 4.006 7.009 4.012 7.02 4.014 7.247.002.266-.098.407-.335.473-.196.054-16.05.054-16.246 0-.237-.066-.337-.207-.335-.473.002-.227.008-.238 4.014-7.247 2.207-3.861 4.065-7.069 4.129-7.13.095-.09.153-.11.315-.11s.22.02.315.11"/></svg>