<svg xmlns="http://www.w3.org/2000/svg" width="24" height="24" fill="none" stroke="currentColor" stroke-linecap="round" stroke-linejoin="round" stroke-width="3"><path fill="#000" fill-rule="evenodd" stroke="none" d="M3.44 2.547A3.56 3.56 0 0 0 .552 5.388c-.078.41-.076 11.856.002 12.172a2.61 2.61 0 0 0 1.806 1.862c.123.033.498.071.847.085l.627.025.191.302a3.6 3.6 0 0 0 1.639 1.393c.455.186.835.26 1.336.26s.881-.074 1.336-.26a3.6 3.6 0 0 0 1.643-1.399l.195-.308h3.652l.195.308a3.6 3.6 0 0 0 1.643 1.399c.455.186.835.26 1.336.26s.881-.074 1.336-.26a3.6 3.6 0 0 0 1.639-1.393l.191-.302.627-.025c.349-.014.724-.052.847-.085.679-.185 1.302-.696 1.594-1.31.269-.565.266-.535.266-2.932 0-1.699-.012-2.207-.055-2.38-.138-.55-.225-.675-2.232-3.182-1.999-2.498-2.089-2.597-2.595-2.853-.432-.218-.634-.244-1.928-.244l-1.17-.001-.001-.23c-.001-.386-.075-.969-.16-1.254-.348-1.169-1.218-2.038-2.406-2.405l-.293-.09-4.56-.005c-2.508-.004-4.605.002-4.66.011m8.904 3.109.136.136V16.52h-2.275l-.226-.346c-.508-.78-1.193-1.296-2.047-1.544-.264-.076-.407-.09-.932-.09s-.668.014-.932.09q-1.283.373-2.047 1.544c-.212.324-.235.346-.364.346H3.52V5.792l.136-.136.136-.136h8.416zm6.546 5.855 1.59 1.989v3.02h-.137c-.129 0-.152-.022-.364-.346-.504-.773-1.193-1.296-2.026-1.537-.639-.184-1.603-.14-2.203.101l-.23.093V9.52l.89.001h.89zM7.344 17.656c.119.119.136.162.136.337 0 .242-.129.424-.343.483a.5.5 0 0 1-.514-.16c-.081-.096-.103-.166-.103-.323 0-.175.017-.218.136-.337s.161-.136.344-.136.224.016.344.136m10 0c.119.119.136.162.136.337 0 .242-.129.424-.343.483a.5.5 0 0 1-.514-.16c-.081-.096-.103-.166-.103-.323 0-.175.017-.218.136-.337s.161-.136.344-.136.224.016.344.136"/></svg>