<svg xmlns="http://www.w3.org/2000/svg" width="24" height="24" fill="none" stroke="currentColor" stroke-linecap="round" stroke-linejoin="round" stroke-width="3"><path fill="#000" fill-rule="evenodd" stroke="none" d="M9.08 4.545c-1.942.232-3.449.84-4.966 2.002-.472.361-1.313 1.22-1.7 1.734C1.404 9.626.798 11.135.554 12.92c-.076.552-.075 4.333 0 4.64.175.713.701 1.372 1.334 1.674.539.257.614.266 2.112.266s1.573-.009 2.112-.266c.612-.292 1.118-.906 1.312-1.594.045-.157.069-.49.085-1.17l.022-.95h4.938l.022.95c.016.68.04 1.013.085 1.17.194.688.7 1.302 1.312 1.594.539.257.614.266 2.112.266s1.573-.009 2.112-.266c.612-.292 1.118-.906 1.312-1.594.045-.157.069-.489.084-1.165l.022-.944.468-.028c.582-.034.91-.101 1.335-.274a3.5 3.5 0 0 0 2.142-3.575c-.145-1.427-1.122-2.598-2.522-3.021-.274-.082-.387-.089-1.74-.103l-1.447-.015-.253-.328c-.39-.507-1.207-1.321-1.693-1.689-1.315-.994-2.671-1.59-4.24-1.863-.373-.065-.689-.086-1.42-.095a20 20 0 0 0-1.08.005m1.86 3.032c.563.086 1.38.312 1.38.382 0 .018-.182.151-.405.297l-.405.264H8.49l-.405-.264c-.223-.146-.405-.279-.405-.297 0-.066.808-.294 1.34-.379.435-.069 1.478-.071 1.92-.003M5.554 10.18c.267.176.484.338.483.36 0 .022-.22.472-.489 1l-.488.96-.691.011-.691.011.025-.111c.062-.274.32-.979.462-1.261.287-.571.798-1.332.874-1.302.017.007.249.156.515.332m9.618-.11a6.5 6.5 0 0 1 .959 1.81c.078.231.152.47.166.531l.025.111-.691-.011-.691-.011-.488-.96c-.269-.528-.489-.978-.489-1-.001-.037.942-.691 1.005-.697.015-.002.107.101.204.227m-3.852 1.929c.132.264.24.489.24.5s-.702.021-1.56.021-1.56-.009-1.56-.021c0-.011.108-.236.24-.5l.241-.479h2.158zm9.024-.343c.12.12.136.161.136.344s-.016.224-.132.34c-.149.149-.335.194-.723.173l-.236-.013-.092-.451a5 5 0 0 0-.117-.49c-.016-.025.167-.039.502-.039h.526zM4.48 16.02v.5h-.96v-1h.96zm12 0v.5h-.96v-1h.96z"/></svg>