<svg xmlns="http://www.w3.org/2000/svg" width="24" height="24" fill="none" stroke="currentColor" stroke-linecap="round" stroke-linejoin="round" stroke-width="3"><path fill="#000" fill-rule="evenodd" stroke="none" d="M6.516.577c-.859.329-1.24 1.255-.859 2.087.087.191.31.435 1.409 1.54l1.306 1.313-2.516.013c-2.473.012-2.521.014-2.809.102C1.749 6.029.8 7.078.552 8.388c-.076.398-.076 11.826 0 12.224.221 1.168 1.036 2.177 2.116 2.617.719.293-.04.271 9.332.271 7.775 0 8.442-.005 8.71-.068a3.7 3.7 0 0 0 1.798-1.004c.573-.6.883-1.272.971-2.111.053-.508.053-11.126 0-11.634-.154-1.465-1.109-2.617-2.526-3.051-.288-.088-.336-.09-2.809-.102l-2.516-.013 1.306-1.313c1.099-1.105 1.322-1.349 1.409-1.54.353-.771.057-1.627-.695-2.008C17.44.55 17.384.54 17 .54c-.69 0-.565-.097-2.95 2.277L12 4.857l-2.05-2.04C7.594.472 7.693.55 7.042.532q-.382-.01-.526.045m13.828 8.079.136.136v11.402l-.103.122a.6.6 0 0 1-.25.163c-.204.056-16.05.056-16.254 0a.6.6 0 0 1-.25-.163l-.103-.122V8.792l.136-.136.136-.136h16.416z"/></svg>