<svg xmlns="http://www.w3.org/2000/svg" width="24" height="24" fill="none" stroke="currentColor" stroke-linecap="round" stroke-linejoin="round" stroke-width="3"><path fill="#000" fill-rule="evenodd" stroke="none" d="M2.516.579a1.53 1.53 0 0 0-1 1.253c-.023.161-.033 3.509-.027 8.368l.011 8.1.105.248q.25.597.847.847l.248.105 1.89.013 1.89.013.001 1.207c0 .664.017 1.319.037 1.457a1.49 1.49 0 0 0 1.714 1.282c.486-.074.524-.106 2.53-2.1l1.861-1.852h2.159c1.284 0 2.263-.017 2.418-.042.535-.085.51-.063 2.862-2.416s2.331-2.327 2.416-2.862c.052-.329.056-12.031.004-12.39a1.51 1.51 0 0 0-.834-1.154L21.42.54 12.04.533C4.309.527 2.635.535 2.516.579M19.48 8.45v4.93l-1.57 1.569-1.57 1.569-2.38.011-2.38.011-.24.12c-.184.092-.42.297-1.022.889l-.783.769-.04-.369c-.068-.625-.336-1.035-.847-1.293l-.228-.116-1.95-.011-1.95-.012V3.52h14.96zm-8.964-2.873c-.559.214-.919.67-1.002 1.267-.023.165-.034 1.152-.027 2.369L9.5 11.3l.105.248c.25.595.761.938 1.395.938s1.145-.343 1.395-.938l.105-.248.013-2.087c.007-1.217-.004-2.204-.027-2.369-.075-.537-.364-.948-.836-1.187-.195-.099-.28-.116-.608-.125q-.382-.01-.526.045m5 0c-.559.214-.919.67-1.002 1.267-.023.165-.034 1.152-.027 2.369L14.5 11.3l.105.248c.25.595.761.938 1.395.938s1.145-.343 1.395-.938l.105-.248.013-2.087c.007-1.217-.004-2.204-.027-2.369-.075-.537-.364-.948-.836-1.187-.195-.099-.28-.116-.608-.125q-.381-.01-.526.045"/></svg>