<svg xmlns="http://www.w3.org/2000/svg" width="24" height="24" fill="none" stroke="currentColor" stroke-linecap="round" stroke-linejoin="round" stroke-width="3"><path fill="#000" fill-rule="evenodd" stroke="none" d="M15.46 2.52c-.965.087-2.011.481-2.825 1.065-1.129.81-1.93 2.101-2.17 3.495l-.052.3-.235-.008c-.301-.011-1.273-.254-1.838-.46a13 13 0 0 1-.96-.409C6.139 5.91 5.31 5.281 4.143 4.05a2 2 0 0 0-.499-.4c-.201-.099-.267-.11-.644-.11s-.443.012-.644.111c-.363.177-.603.468-.898 1.086A10.3 10.3 0 0 0 .593 7.62c-.079.554-.067 2.095.021 2.652.429 2.717 1.811 5.039 3.966 6.667.11.084.197.162.192.175-.019.059-1 .289-1.472.346-.132.016-.573.041-.98.057-.705.027-.751.033-.971.142-.273.136-.601.468-.714.723-.245.553-.124 1.24.289 1.651.202.2.854.614 1.517.962a13 13 0 0 0 4.609 1.427c.717.085 2.082.086 2.81.001a13.42 13.42 0 0 0 9.927-6.363c1.331-2.184 2.005-4.853 1.855-7.357a47 47 0 0 1-.042-.778c0-.036.1-.2.223-.365.669-.898 1.548-2.672 1.658-3.344.1-.619-.24-1.26-.827-1.557-.184-.094-.292-.118-.576-.132-.424-.02-.54.014-1.038.305-.389.228-1.23.641-1.48.727-.134.046-.152.04-.42-.137-.788-.52-1.682-.818-2.72-.904-.479-.04-.491-.04-.96.002m1.238 3.067c.13.032.346.11.48.171.232.107.349.187.902.612.136.104.322.21.414.237s.171.05.177.054a.6.6 0 0 1-.052.155c-.129.31-.139.504-.057 1.209.242 2.094-.059 3.926-.938 5.715-.779 1.584-1.806 2.795-3.244 3.827a10.1 10.1 0 0 1-4.02 1.746 7.7 7.7 0 0 1-1.32.166c-.545.035-1.791-.014-1.849-.072-.017-.017.136-.125.339-.24.552-.314 1.09-.708 1.454-1.067.387-.382.502-.626.501-1.068-.002-.454-.1-.719-.378-1.022-.226-.246-.377-.334-.868-.509-1.131-.402-1.972-.941-2.766-1.773a7.06 7.06 0 0 1-1.919-5.416c.026-.312.057-.576.067-.587.011-.01.096.038.189.108 2.291 1.711 5.005 2.643 7.75 2.661.686.004.757-.002.971-.088.297-.119.672-.463.807-.739.144-.296.186-.658.12-1.028-.175-.979.037-1.737.66-2.361.674-.673 1.628-.929 2.58-.691"/></svg>