<svg xmlns="http://www.w3.org/2000/svg" width="24" height="24" fill="none" stroke="currentColor" stroke-linecap="round" stroke-linejoin="round" stroke-width="3"><path fill="#000" fill-rule="evenodd" stroke="none" d="M3.44 1.547A3.56 3.56 0 0 0 .552 4.388c-.073.385-.073 3.839 0 4.224.221 1.168 1.036 2.177 2.116 2.617.451.184.832.258 1.332.258.933 0 1.747-.328 2.428-.979.288-.275.602-.714.749-1.044.121-.274.263-.738.263-.858 0-.084.015-.086.52-.086h.52v7.021l-.314.07c-.365.082-.881.321-1.225.567a3.6 3.6 0 0 0-1.382 2.186c-.06.328-.06.944 0 1.272a3.56 3.56 0 0 0 2.109 2.593c.689.281.535.271 4.332.271 3.075 0 3.449-.007 3.71-.068 2.222-.52 3.384-2.822 2.468-4.893-.406-.917-1.367-1.708-2.344-1.928l-.314-.07V8.52h1.029l.024.173c.044.319.274.872.509 1.224.672 1.003 1.724 1.57 2.918 1.57.933 0 1.747-.328 2.428-.979.6-.573.959-1.322 1.051-2.191.051-.489.051-3.145 0-3.634-.154-1.464-1.103-2.61-2.526-3.052l-.293-.091-8.56-.005c-4.708-.002-8.605.003-8.66.012m16.904 3.109.136.136v3.402l-.103.122a.49.49 0 0 1-.748.007c-.088-.105-.099-.161-.12-.649-.026-.603-.104-.915-.309-1.233a2.3 2.3 0 0 0-.88-.758l-.3-.143h-4.04l-.3.144c-.548.263-.959.733-1.105 1.265-.071.258-.075.507-.075 5.071 0 4.536.004 4.813.073 5.04.096.315.237.553.479.809.43.455.811.605 1.628.64l.54.024.13.129c.112.112.13.158.13.331 0 .245-.129.424-.353.486-.201.056-6.053.056-6.254 0-.224-.062-.353-.241-.353-.486 0-.173.018-.219.13-.331l.13-.129.54-.024c.817-.035 1.198-.185 1.628-.64.242-.256.383-.494.479-.809.069-.227.073-.504.073-5.04 0-4.564-.004-4.813-.075-5.071-.146-.532-.557-1.002-1.105-1.265l-.3-.144H5.98l-.3.143a2.3 2.3 0 0 0-.88.758c-.205.318-.283.63-.309 1.233-.021.488-.032.544-.12.649a.49.49 0 0 1-.748-.007l-.103-.122V4.792l.136-.136.136-.136h16.416z"/></svg>