<svg xmlns="http://www.w3.org/2000/svg" width="24" height="24" fill="none" stroke="currentColor" stroke-linecap="round" stroke-linejoin="round" stroke-width="3"><path fill="#000" fill-rule="evenodd" stroke="none" d="m7.7 2.52-4.12.02-.228.116c-.476.241-.763.65-.839 1.193-.022.165-.034.957-.026 1.869L2.501 7.3l.104.248c.25.594.761.938 1.395.938.635 0 1.15-.346 1.393-.938.096-.234.103-.296.119-1.138l.018-.89h4.95v12.996l-.95.012-.95.012-.228.116a1.51 1.51 0 0 0-.829 1.126 1.494 1.494 0 0 0 1.287 1.7c.138.02 1.573.036 3.19.036s3.052-.016 3.19-.036a1.494 1.494 0 0 0 1.287-1.7 1.51 1.51 0 0 0-.829-1.126l-.228-.116-.95-.013-.95-.012V5.52h4.95l.018.89c.016.842.023.904.119 1.138.243.592.758.938 1.393.938.634 0 1.145-.344 1.395-.938l.104-.248.014-1.582c.008-.912-.004-1.704-.026-1.869-.076-.543-.363-.952-.839-1.193l-.228-.116-1.32-.01c-3.288-.025-7.61-.028-11.4-.01"/></svg>