<svg xmlns="http://www.w3.org/2000/svg" width="24" height="24" fill="none" stroke="currentColor" stroke-linecap="round" stroke-linejoin="round" stroke-width="3"><path fill="#000" fill-rule="evenodd" stroke="none" d="M1.516.577C.657.906.276 1.832.657 2.664c.087.19.306.431 1.367 1.498l1.264 1.271L3 5.786C2.017 6.994 1.191 8.651.799 10.2c-.161.636-.289 1.441-.288 1.805.003.629.35 1.141.941 1.39l.248.105 4.388.011 4.389.012.013 3.608c.012 3.59.013 3.61.101 3.897.241.786.692 1.436 1.309 1.887.652.477 1.736.72 2.526.568 1.154-.222 2.207-1.088 2.501-2.055.207-.683-.081-1.378-.72-1.738-.262-.147-.275-.15-.688-.15-.393 0-.437.008-.684.13-.263.129-.426.283-.689.65-.107.148-.155.182-.273.192-.172.015-.346-.118-.358-.272-.004-.055-.005-1.108-.001-2.339l.006-2.239 3.79 3.787c3.373 3.37 3.815 3.798 4.022 3.893a1.503 1.503 0 0 0 2.01-2.01c-.095-.21-1.076-1.202-10.274-10.395C1.635-.49 2.738.551 2.042.532c-.253-.007-.431.008-.526.045m10 0c-.379.145-.747.484-.884.813-.074.179-.102.21-.194.21-.294 0-1.727.351-2.079.509-.282.126-.54.382-.688.682-.122.249-.131.296-.131.668 0 .35.013.429.105.621.16.336.36.538.694.703.428.212.677.224 1.263.06 1.261-.352 2.5-.44 3.694-.263a8.48 8.48 0 0 1 6.284 4.474c.216.413.58 1.293.58 1.405 0 .054-.176.061-1.478.061-1.398 0-1.491.005-1.701.083-1.089.408-1.322 1.841-.414 2.558.106.084.296.195.423.246.23.092.233.092 2.558.105 1.367.007 2.444-.003 2.609-.026a1.5 1.5 0 0 0 .898-.431c.38-.38.495-.809.403-1.508-.338-2.576-1.459-4.864-3.278-6.688-1.683-1.688-3.99-2.874-6.26-3.217-.484-.073-.466-.064-.572-.292-.123-.265-.405-.545-.698-.693-.195-.099-.28-.116-.608-.125q-.382-.01-.526.045M6.114 10.51c-1.236.006-2.255.002-2.265-.008-.04-.04.224-.71.497-1.262.29-.584.492-.913.867-1.411l.204-.271 1.472 1.471L8.36 10.5z"/></svg>