<svg xmlns="http://www.w3.org/2000/svg" width="24" height="24" fill="none" stroke="currentColor" stroke-linecap="round" stroke-linejoin="round" stroke-width="3"><path fill="#000" fill-rule="evenodd" stroke="none" d="M11.516.577c-.365.139-.708.444-.86.763-.052.11-.095.22-.096.245 0 .025-.094.057-.21.072-.744.095-1.803.378-2.59.691a11.57 11.57 0 0 0-7.159 8.831c-.113.657-.113 1.058-.002 1.351.1.264.406.623.657.77.378.221.319.219 4.952.219l4.268.001.015 3.47c.016 3.806.006 3.642.265 4.314.401 1.039 1.411 1.885 2.534 2.122a4.3 4.3 0 0 0 1.42 0c1.061-.224 2.044-1.007 2.468-1.965.238-.538.361-1.223.3-1.672a1.51 1.51 0 0 0-.83-1.133c-.208-.106-.264-.116-.648-.116s-.44.01-.648.116c-.294.149-.577.428-.699.692a2.4 2.4 0 0 0-.147.549c-.038.259-.073.365-.145.442a.495.495 0 0 1-.738-.023l-.103-.122V13.52l4.21-.001c2.316 0 4.322-.017 4.46-.037a1.5 1.5 0 0 0 1.29-1.279c.049-.348-.067-1.129-.3-2.026a11.47 11.47 0 0 0-3.36-5.586c-1.688-1.531-3.782-2.552-5.939-2.896-.243-.039-.441-.09-.441-.113a1.3 1.3 0 0 0-.095-.242c-.122-.257-.407-.538-.695-.683-.195-.099-.28-.116-.608-.125q-.382-.01-.526.045m1.624 4.042a8 8 0 0 1 2.16.589c1.025.437 1.757.918 2.6 1.71a8.5 8.5 0 0 1 1.778 2.417c.257.519.492 1.122.453 1.16-.031.031-16.231.031-16.262 0-.039-.038.196-.641.453-1.16A8.7 8.7 0 0 1 7.86 5.613a8.7 8.7 0 0 1 2.98-.994c.479-.071 1.808-.071 2.3 0"/></svg>