<svg xmlns="http://www.w3.org/2000/svg" width="24" height="24" fill="none" stroke="currentColor" stroke-linecap="round" stroke-linejoin="round" stroke-width="3"><path fill="#000" fill-rule="evenodd" stroke="none" d="M5.516 2.577a1.54 1.54 0 0 0-.998 1.233c-.05.347-.047 6.045.003 6.71a7.53 7.53 0 0 0 2.861 5.382c1.455 1.14 3.331 1.714 5.148 1.576a7.51 7.51 0 0 0 6.949-6.958c.05-.665.053-6.363.003-6.71a1.51 1.51 0 0 0-.834-1.154c-.208-.106-.264-.116-.648-.116-.381 0-.44.01-.64.112a1.55 1.55 0 0 0-.766.815l-.093.233-.023 3.54-.022 3.54-.11.379c-.372 1.286-1.202 2.298-2.356 2.869-1.614.798-3.581.549-4.92-.623a5.3 5.3 0 0 1-.809-.905 5.7 5.7 0 0 1-.608-1.34l-.109-.38-.022-3.54-.023-3.54-.093-.233a1.55 1.55 0 0 0-.764-.814c-.187-.095-.274-.112-.6-.121q-.382-.01-.526.045m-2 16.002c-.365.134-.71.443-.864.773a1.5 1.5 0 0 0 1.158 2.13c.142.021 3.678.036 8.19.036s8.048-.015 8.19-.036a1.494 1.494 0 0 0 1.287-1.7 1.51 1.51 0 0 0-.829-1.126l-.228-.116-8.38-.007c-6.9-.006-8.406.002-8.524.046"/></svg>