<svg xmlns="http://www.w3.org/2000/svg" width="24" height="24" fill="none" stroke="currentColor" stroke-linecap="round" stroke-linejoin="round" stroke-width="3"><path fill="#000" fill-rule="evenodd" stroke="none" d="M8.516 2.577a2.3 2.3 0 0 0-.32.163c-.097.06-1.358 1.29-2.802 2.734-2.064 2.064-2.648 2.67-2.728 2.832a1.6 1.6 0 0 0-.001 1.388c.081.162.671.774 2.769 2.874 2.355 2.357 2.693 2.68 2.898 2.774a1.502 1.502 0 0 0 2.011-2.006c-.087-.191-.309-.433-1.391-1.521L7.665 10.52h3.649c3.922 0 3.884-.002 4.506.208.889.301 1.761 1.05 2.205 1.897.354.674.475 1.23.443 2.033-.031.761-.174 1.269-.525 1.863a4.1 4.1 0 0 1-2.743 1.923c-.172.032-1.001.056-2.44.072l-2.18.024-.228.116c-.93.471-1.133 1.673-.407 2.399.242.242.53.38.906.432.18.026 1.044.033 2.289.021 2.107-.02 2.402-.043 3.1-.232 1.274-.345 2.294-.93 3.2-1.836a6.84 6.84 0 0 0 2.045-4.94c0-1.063-.2-1.98-.646-2.96-.832-1.829-2.599-3.3-4.559-3.799-.873-.222-.856-.221-4.907-.221H7.625l1.307-1.314c1.101-1.107 1.324-1.351 1.411-1.542.353-.771.057-1.627-.695-2.008-.198-.101-.279-.117-.608-.125-.246-.006-.431.01-.524.046"/></svg>