<svg xmlns="http://www.w3.org/2000/svg" width="24" height="24" fill="none" stroke="currentColor" stroke-linecap="round" stroke-linejoin="round" stroke-width="3"><path fill="#000" fill-rule="evenodd" stroke="none" d="M2.516 5.577a1.54 1.54 0 0 0-.998 1.233c-.052.355-.048 6.106.004 6.424a1.5 1.5 0 0 0 1.217 1.242c.292.054 6.082.06 6.451.006a1.494 1.494 0 0 0 1.287-1.7 1.51 1.51 0 0 0-.829-1.126l-.228-.116-1.23-.012c-.676-.007-1.23-.027-1.23-.044 0-.018.13-.14.29-.27a7.53 7.53 0 0 1 3.727-1.633c.829-.116 2.013-.063 2.763.123a7.58 7.58 0 0 1 5.556 5.556c.092.372.184 1.059.185 1.385.002.683.132 1.078.464 1.41.868.869 2.362.368 2.534-.849.04-.284-.012-1.251-.098-1.791a10.45 10.45 0 0 0-2.969-5.839 10.45 10.45 0 0 0-5.372-2.871c-1.697-.334-3.614-.223-5.24.303-1.446.469-2.688 1.188-3.88 2.248l-.38.337-.022-1.446c-.021-1.389-.026-1.456-.114-1.68a1.53 1.53 0 0 0-.762-.814c-.187-.095-.274-.112-.6-.121-.253-.007-.431.008-.526.045m8.864 8.997a2.73 2.73 0 0 0-1.279.795c-.21.239-.469.746-.542 1.064A3 3 0 0 0 9.51 17c0 .446.058.695.256 1.112.223.467.655.899 1.122 1.122.417.198.666.256 1.112.256s.695-.058 1.112-.256a2.5 2.5 0 0 0 1.122-1.122c.198-.417.256-.666.256-1.112s-.058-.695-.255-1.11c-.262-.55-.811-1.037-1.418-1.257-.295-.107-1.12-.141-1.437-.059m.964 2.082c.119.119.136.162.136.337 0 .242-.129.424-.343.483a.5.5 0 0 1-.514-.16c-.081-.096-.103-.166-.103-.323 0-.175.017-.218.136-.337s.161-.136.344-.136.224.016.344.136"/></svg>