<svg xmlns="http://www.w3.org/2000/svg" width="24" height="24" fill="none" stroke="currentColor" stroke-linecap="round" stroke-linejoin="round" stroke-width="3"><path fill="#000" fill-rule="evenodd" stroke="none" d="M2.516 5.577a1.54 1.54 0 0 0-.998 1.233c-.052.355-.048 6.106.004 6.424a1.5 1.5 0 0 0 1.217 1.242c.292.054 6.082.06 6.451.006a1.494 1.494 0 0 0 1.287-1.7 1.51 1.51 0 0 0-.829-1.126l-.228-.116-1.23-.012c-.676-.007-1.23-.027-1.23-.044 0-.018.13-.14.29-.27a7.53 7.53 0 0 1 3.727-1.633c.829-.116 2.013-.063 2.763.123a7.58 7.58 0 0 1 5.556 5.556c.092.372.184 1.059.185 1.385.002.683.132 1.078.464 1.41.868.869 2.362.368 2.534-.849.04-.284-.012-1.251-.098-1.791a10.45 10.45 0 0 0-2.969-5.839 10.45 10.45 0 0 0-5.372-2.871c-1.697-.334-3.614-.223-5.24.303-1.446.469-2.688 1.188-3.88 2.248l-.38.337-.022-1.446c-.021-1.389-.026-1.456-.114-1.68a1.53 1.53 0 0 0-.762-.814c-.187-.095-.274-.112-.6-.121-.253-.007-.431.008-.526.045"/></svg>