<svg xmlns="http://www.w3.org/2000/svg" width="24" height="24" fill="none" stroke="currentColor" stroke-linecap="round" stroke-linejoin="round" stroke-width="3"><path fill="#000" fill-rule="evenodd" stroke="none" d="M5.38 2.576c-.453.113-.95.421-1.279.793-.209.237-.465.739-.547 1.071-.079.32-.079 4.8 0 5.12.175.713.701 1.372 1.334 1.674.582.277.416.266 4.112.266 2.672 0 3.384-.011 3.56-.054.713-.175 1.372-.701 1.674-1.334.27-.569.266-.517.266-3.112 0-2.594.004-2.544-.265-3.11-.261-.548-.8-1.027-1.418-1.26l-.237-.09-3.5-.007c-2.684-.006-3.547.004-3.7.043m6.1 4.444v1.5H6.52v-3h4.96zm-.1 5.556c-.453.113-.95.421-1.279.793-.209.237-.465.739-.547 1.071-.079.32-.079 4.8 0 5.12.175.713.701 1.372 1.334 1.674.582.277.416.266 4.112.266s3.53.011 4.112-.266a2.5 2.5 0 0 0 1.122-1.122c.27-.569.266-.517.266-3.112 0-2.594.004-2.544-.265-3.11-.261-.548-.8-1.027-1.418-1.26l-.237-.09-3.5-.007c-2.684-.006-3.547.004-3.7.043m6.1 4.444v1.5h-4.96v-3h4.96z"/></svg>