<svg xmlns="http://www.w3.org/2000/svg" width="24" height="24" fill="none" stroke="currentColor" stroke-linecap="round" stroke-linejoin="round" stroke-width="3"><path fill="#000" fill-rule="evenodd" stroke="none" d="M11.544 2.57c-.094.024-1.337.827-3.09 1.994L5.521 6.518l-1.971.011-1.97.011-.228.116c-.471.238-.763.65-.837 1.18-.023.166-.032 2.701-.024 6.449.011 5.502.02 6.203.077 6.436.341 1.389 1.345 2.389 2.722 2.711.268.063.935.068 8.71.068s8.442-.005 8.71-.068c1.537-.359 2.605-1.561 2.769-3.115.051-.48.054-12.158.003-12.507a1.51 1.51 0 0 0-.834-1.154l-.228-.116-1.971-.011-1.971-.012-2.93-1.952c-2.14-1.424-2.981-1.964-3.117-1.998a2.3 2.3 0 0 0-.887.003m3.106 4.998c1.641 1.096 2.734 1.799 2.87 1.849.201.073.339.082 1.59.095l1.37.014v10.668l-.103.122a.6.6 0 0 1-.25.163c-.092.025-.979.041-2.377.041h-2.23l-.001-1.73c0-.952-.018-1.9-.04-2.107-.132-1.255-.824-2.255-1.947-2.818-.519-.259-.827-.325-1.532-.325-.525 0-.668.014-.932.09-1.261.366-2.191 1.352-2.498 2.649-.049.211-.065.646-.079 2.251l-.018 1.99H6.247c-1.396 0-2.282-.016-2.374-.041a.6.6 0 0 1-.25-.163l-.103-.122V9.526l1.37-.016c1.138-.013 1.404-.027 1.57-.082.127-.042 1.177-.719 2.86-1.844 1.463-.978 2.665-1.78 2.67-1.781.006-.002 1.203.793 2.66 1.765m-3.27.006a2.73 2.73 0 0 0-1.279.795c-.21.239-.469.746-.542 1.064A3 3 0 0 0 9.51 10c0 .446.058.695.256 1.112.223.467.655.899 1.122 1.122.417.198.666.256 1.112.256s.695-.058 1.112-.256a2.5 2.5 0 0 0 1.122-1.122c.198-.417.256-.666.256-1.112s-.058-.695-.255-1.11c-.262-.55-.811-1.037-1.418-1.257-.295-.107-1.12-.141-1.437-.059m.964 2.082c.119.119.136.162.136.337 0 .242-.129.424-.343.483a.5.5 0 0 1-.514-.16c-.081-.096-.103-.166-.103-.323 0-.175.017-.218.136-.337s.161-.136.344-.136.224.016.344.136m-6.828 1.921c-1.046.4-1.349 1.703-.578 2.475a1.47 1.47 0 0 0 2.124 0c.719-.719.511-1.928-.412-2.395-.195-.099-.28-.116-.608-.125q-.382-.01-.526.045m12 0c-1.046.4-1.349 1.703-.578 2.475a1.47 1.47 0 0 0 2.124 0c.719-.719.511-1.928-.412-2.395-.195-.099-.28-.116-.608-.125-.253-.007-.431.008-.526.045m-12 4c-1.046.4-1.349 1.703-.578 2.475a1.47 1.47 0 0 0 2.124 0c.719-.719.511-1.928-.412-2.395-.195-.099-.28-.116-.608-.125q-.382-.01-.526.045m12 0c-1.046.4-1.349 1.703-.578 2.475a1.47 1.47 0 0 0 2.124 0c.719-.719.511-1.928-.412-2.395-.195-.099-.28-.116-.608-.125-.253-.007-.431.008-.526.045m-5.172 1.079.136.136v3.728h-.96v-3.728l.136-.136c.12-.12.161-.136.344-.136s.224.016.344.136"/></svg>