<svg xmlns="http://www.w3.org/2000/svg" width="24" height="24" fill="none" stroke="currentColor" stroke-linecap="round" stroke-linejoin="round" stroke-width="3"><path fill="#000" fill-rule="evenodd" stroke="none" d="M7.516.577c-.371.142-.711.446-.864.774-.156.334-.179.663-.165 2.367L6.501 5.3l.104.248c.25.594.761.938 1.395.938s1.145-.344 1.395-.938l.104-.248.014-1.582c.008-.912-.004-1.704-.026-1.869-.076-.542-.364-.953-.837-1.192-.195-.099-.28-.116-.608-.125q-.382-.01-.526.045m8.864.025c-1.082.088-2.134.464-3.1 1.109-.399.266-.617.463-1.646 1.488-1.104 1.099-1.192 1.198-1.276 1.421-.197.526-.089 1.141.269 1.539.503.56 1.287.68 1.909.292.09-.056.632-.564 1.204-1.128 1.002-.989 1.248-1.196 1.68-1.413.887-.446 2.17-.438 3.08.02a3.6 3.6 0 0 1 1.829 2.225c.123.453.123 1.384.001 1.811-.232.81-.435 1.094-1.713 2.394-.712.724-1.07 1.117-1.128 1.24a1.66 1.66 0 0 0-.126.856c.111.823.929 1.422 1.726 1.265.45-.088.588-.19 1.545-1.137 1.327-1.311 1.73-1.815 2.144-2.679.492-1.027.696-1.996.65-3.082a9 9 0 0 0-.067-.803c-.153-.853-.476-1.713-.895-2.379A6.52 6.52 0 0 0 16.38.602M1.516 6.578c-.53.198-.921.672-.993 1.204a1.494 1.494 0 0 0 1.287 1.7c.325.047 3.055.047 3.38 0a1.494 1.494 0 0 0 1.287-1.7 1.51 1.51 0 0 0-.829-1.126L5.42 6.54l-1.88-.008c-1.494-.006-1.91.003-2.024.046m3.395 3.704c-.454.075-.581.172-1.693 1.29-1.212 1.219-1.566 1.662-1.954 2.448-.529 1.07-.74 2.034-.692 3.157.035.802.143 1.34.416 2.063a6.2 6.2 0 0 0 1.619 2.417c2.022 1.907 4.99 2.312 7.466 1.02a8 8 0 0 0 .8-.487c.348-.251 2.235-2.07 2.53-2.44.696-.873.206-2.198-.885-2.393-.346-.062-.727-.004-.998.151-.099.057-.657.575-1.24 1.15-1.059 1.044-1.299 1.243-1.77 1.463-.475.222-.827.292-1.47.292-.512-.001-.621-.014-.932-.107-.998-.302-1.738-.926-2.206-1.861-.49-.979-.44-2.302.123-3.265.155-.265.376-.511 1.283-1.428.88-.892 1.114-1.151 1.194-1.325.286-.626.186-1.262-.271-1.719a1.54 1.54 0 0 0-1.32-.426m13.605 4.296c-.53.198-.921.672-.993 1.204a1.494 1.494 0 0 0 1.287 1.7c.325.047 3.055.047 3.38 0a1.494 1.494 0 0 0 1.287-1.7 1.51 1.51 0 0 0-.829-1.126l-.228-.116-1.88-.008c-1.494-.006-1.91.003-2.024.046m-3 2.999c-.371.142-.711.446-.864.774-.156.334-.179.663-.165 2.367l.014 1.582.104.248c.25.594.761.938 1.395.938s1.145-.344 1.395-.938l.104-.248.014-1.582c.008-.912-.004-1.704-.026-1.869-.076-.542-.364-.953-.837-1.192-.195-.099-.28-.116-.608-.125q-.381-.01-.526.045"/></svg>