<svg xmlns="http://www.w3.org/2000/svg" width="24" height="24" fill="none" stroke="currentColor" stroke-linecap="round" stroke-linejoin="round" stroke-width="3"><path fill="#000" fill-rule="evenodd" stroke="none" d="M21.516.577c-.305.116-.527.305-1.504 1.275l-1.008 1.001-.266-.237c-.565-.502-1.049-.784-1.64-.955-.892-.259-2.006-.169-2.79.224-.563.283-.796.481-2.176 1.854-1.178 1.172-1.383 1.393-1.474 1.593a1.58 1.58 0 0 0 0 1.336c.094.206.461.587 3.274 3.4s3.194 3.18 3.4 3.274c.433.197.903.197 1.336 0 .2-.091.422-.296 1.594-1.474 1.411-1.417 1.592-1.632 1.877-2.233.243-.512.35-1.009.35-1.635 0-.451-.018-.606-.104-.94-.173-.668-.472-1.205-1.001-1.798l-.236-.264 1.047-1.056c.86-.868 1.065-1.095 1.149-1.28.352-.768.055-1.626-.694-2.005-.195-.099-.28-.116-.608-.125-.253-.007-.431.008-.526.045M16.38 4.59c.174.084 2.929 2.839 3.027 3.026a.94.94 0 0 1 0 .768c-.045.086-.38.453-.744.816L18 9.859 16.07 7.93 14.141 6l.659-.663c.363-.364.714-.691.78-.727a.9.9 0 0 1 .8-.02M9.516 9.577c-.293.111-.512.291-1.256 1.025l-.76.75-.309-.289a3 3 0 0 0-.54-.406c-.212-.107-.266-.117-.651-.117-.672 0-.647-.018-2.263 1.598-1.414 1.414-1.589 1.621-1.876 2.227-.243.512-.35 1.009-.35 1.635 0 .451.018.606.104.94.173.668.472 1.205 1.001 1.798l.236.264-1.047 1.056C.675 21.197.586 21.317.523 21.782c-.162 1.197 1.032 2.069 2.139 1.562.185-.084.412-.289 1.28-1.149l1.056-1.047.264.236c.593.529 1.13.828 1.798 1.001.334.086.489.104.94.104.626 0 1.123-.107 1.635-.35.601-.285.816-.466 2.233-1.877 1.484-1.477 1.542-1.551 1.609-2.044.071-.521-.081-.924-.527-1.398l-.301-.32.797-.809c.631-.64.819-.856.9-1.032a1.505 1.505 0 0 0-.698-2.003c-.208-.106-.264-.116-.648-.116-.624 0-.707.05-1.702 1.028l-.802.789-.426-.427-.427-.426.801-.812c.633-.642.821-.857.902-1.033a1.505 1.505 0 0 0-.698-2.003c-.198-.101-.279-.117-.608-.125-.246-.006-.431.01-.524.046M7.94 16.08 9.859 18l-.699.701c-.642.643-.718.707-.917.765a.7.7 0 0 1-.44.015c-.223-.048-.226-.052-1.676-1.495-.83-.826-1.488-1.513-1.534-1.602-.102-.197-.109-.557-.013-.748.059-.119 1.365-1.476 1.42-1.476.011 0 .884.864 1.94 1.92"/></svg>