<svg xmlns="http://www.w3.org/2000/svg" width="24" height="24" fill="none" stroke="currentColor" stroke-linecap="round" stroke-linejoin="round" stroke-width="3"><path fill="#000" fill-rule="evenodd" stroke="none" d="M11.729 1.524c-.465.078-.453.068-3.297 2.91-2.357 2.355-2.68 2.693-2.774 2.898a1.502 1.502 0 0 0 2.006 2.011c.191-.087.433-.308 1.52-1.389l1.293-1.286.012 4.316.011 4.316.105.248c.25.595.761.938 1.395.938s1.145-.343 1.395-.938l.105-.248.011-4.316.012-4.316 1.293 1.286c1.087 1.081 1.329 1.302 1.52 1.389a1.502 1.502 0 0 0 2.006-2.011c-.094-.205-.417-.543-2.774-2.898-2.876-2.874-2.825-2.83-3.334-2.912a3 3 0 0 0-.274-.037zM2.516 13.577c-.371.142-.711.446-.864.774-.164.35-.18.641-.161 2.947.014 1.767.029 2.21.079 2.423a3.58 3.58 0 0 0 2.72 2.711c.267.063.875.068 7.71.068s7.443-.005 7.71-.068c1.537-.359 2.605-1.561 2.769-3.115.05-.471.052-4.168.003-4.507a1.51 1.51 0 0 0-.834-1.154c-.208-.106-.264-.116-.648-.116s-.44.01-.648.116a1.51 1.51 0 0 0-.834 1.154c-.02.138-.037 1.18-.037 2.317l-.001 2.067-.103.122a.6.6 0 0 1-.25.163c-.204.056-14.05.056-14.254 0a.6.6 0 0 1-.25-.163l-.103-.122-.001-2.067c0-1.137-.017-2.179-.037-2.317a1.51 1.51 0 0 0-.832-1.153c-.195-.099-.28-.116-.608-.125-.253-.007-.431.008-.526.045"/></svg>