<svg xmlns="http://www.w3.org/2000/svg" width="24" height="24" fill="none" stroke="currentColor" stroke-linecap="round" stroke-linejoin="round" stroke-width="3"><path fill="#000" fill-rule="evenodd" stroke="none" d="M19.02 2.081c-1.79.597-1.915.653-2.188.991-.398.491-.432 1.273-.077 1.751l.117.157-4.665 4.669-4.664 4.668-.393-.982-.392-.981 1.407-1.427L9.573 9.5l.392-.006c.491-.007.727-.06 1.147-.26a2.5 2.5 0 0 0 1.122-1.122c.198-.417.256-.666.256-1.112s-.058-.695-.255-1.11c-.261-.549-.803-1.03-1.418-1.26-.205-.076-.316-.088-.817-.088s-.612.012-.817.088c-.37.139-.656.326-.968.634-.465.461-.702 1.036-.705 1.717l-.002.338-1.847 1.873c-1.029 1.042-1.896 1.953-1.956 2.055-.137.235-.231.673-.199.925.014.109.395 1.118.876 2.32l.852 2.128-.442.445-.441.445-.466.019c-.718.029-1.145.217-1.67.735a1.9 1.9 0 0 0-.447.62c-.2.421-.258.669-.258 1.116 0 .446.058.695.256 1.112.223.467.655.899 1.122 1.122.417.198.666.256 1.112.256s.695-.058 1.112-.256a2.5 2.5 0 0 0 1.122-1.122c.198-.417.256-.666.256-1.11v-.352l1.945-1.942 1.945-1.943 2.087.836c1.297.52 2.177.851 2.326.875.299.048.693-.026.962-.181.105-.061.769-.687 1.545-1.458l1.36-1.352.32.001c.607.001.866-.162 1.796-1.128.329-.342.506-.56.574-.708a1.58 1.58 0 0 0-.007-1.314c-.083-.181-.239-.362-.773-.893-.847-.841-.955-.903-1.57-.903-.387 0-.439.009-.658.12q-.237.119-.716.58c-.949.913-1.113 1.176-1.112 1.783l.001.323-.948.944-.947.945-.969-.389-.968-.389 3.168-3.166 3.169-3.167.108.094c.311.272.977.352 1.427.17.28-.113.454-.251.656-.52.119-.159.243-.489.711-1.897.514-1.544.567-1.731.568-1.988a1.495 1.495 0 0 0-1.021-1.4 2 2 0 0 0-.48-.063c-.265 0-.431.048-1.969.561"/></svg>