<svg xmlns="http://www.w3.org/2000/svg" width="24" height="24" fill="none" stroke="currentColor" stroke-linecap="round" stroke-linejoin="round" stroke-width="3"><path fill="#000" fill-rule="evenodd" stroke="none" d="M9.02 1.58c-2.824.451-5.014 2.64-5.443 5.44a8 8 0 0 0 0 1.96 6.7 6.7 0 0 0 .958 2.531c.195.305.596.811.781.986a.6.6 0 0 1 .124.147c0 .015-.103.087-.23.158-.879.495-1.902 1.372-2.589 2.218-1.32 1.627-2.086 3.72-2.108 5.758-.005.474.004.545.095.77.161.395.448.683.837.84.476.193 1.127.099 1.484-.213.436-.381.536-.629.589-1.468.022-.344.076-.803.121-1.022a6.55 6.55 0 0 1 1.636-3.133 6.54 6.54 0 0 1 3.419-1.921c.352-.077.526-.088 1.306-.088 1.003 0 1.266.039 2.134.32.686.222 1.09.185 1.567-.143.48-.331.728-1.024.563-1.573l-.056-.186.3-.291A6.42 6.42 0 0 0 16.486 8c0-3.238-2.323-5.928-5.546-6.423-.442-.068-1.484-.066-1.92.003m1.732 3.003c.641.13 1.193.439 1.71.955.71.71 1.018 1.455 1.018 2.462 0 .979-.294 1.712-.976 2.431-.671.708-1.485 1.048-2.504 1.048-1.03 0-1.839-.342-2.521-1.065C6.813 9.707 6.52 8.97 6.52 8c0-1.007.308-1.752 1.018-2.462.507-.506 1.063-.821 1.682-.952.378-.08 1.146-.082 1.532-.003m8.548 6.963a4 4 0 0 0-1.534.639c-.356.25-4.621 4.514-4.835 4.835-.355.532-.407.672-.988 2.666-.431 1.482-.473 1.682-.422 2.042.135.949.806 1.621 1.75 1.751.354.049.599-.004 2.209-.475 1.669-.488 1.735-.51 2.043-.665.495-.251.739-.472 2.923-2.655 2.397-2.395 2.507-2.522 2.783-3.204.79-1.953-.245-4.144-2.269-4.806-.342-.111-.438-.125-.96-.135a7 7 0 0 0-.7.007m.89 3.054c.191.116.29.302.29.546 0 .18-.02.232-.153.4-.085.107-1.049 1.076-2.143 2.154l-1.988 1.96-.481.147c-.264.081-.536.16-.603.175-.144.031-.15.086.077-.702l.144-.5 1.963-1.974c1.08-1.086 2.051-2.045 2.158-2.13.168-.136.22-.156.4-.156.135 0 .251.028.336.08"/></svg>