<svg xmlns="http://www.w3.org/2000/svg" width="24" height="24" fill="none" stroke="currentColor" stroke-linecap="round" stroke-linejoin="round" stroke-width="3"><path fill="#000" fill-rule="evenodd" stroke="none" d="M9.081 1.583c-2.049.374-3.664 1.77-4.303 3.721a5.49 5.49 0 1 0 6.112-3.722c-.431-.076-1.391-.075-1.809.001m1.736 3.05a2.65 2.65 0 0 1 1.553 1.55c.076.205.088.316.088.817s-.012.612-.088.817c-.23.615-.711 1.157-1.26 1.418-.415.197-.664.255-1.11.255s-.695-.058-1.11-.255c-.551-.262-1.039-.813-1.256-1.418-.108-.299-.146-.987-.075-1.347.171-.872.938-1.674 1.812-1.895.328-.083 1.149-.05 1.446.058m5.46 7.925c-1.471.269-2.667 1.161-3.316 2.474a5.2 5.2 0 0 0-.402 1.248c-.059.334-.059 1.106 0 1.44.361 2.054 2.013 3.583 4.057 3.756a4.46 4.46 0 0 0 1.996-.284l.312-.119.602.587c.65.635.844.761 1.256.817a1.493 1.493 0 0 0 1.695-1.695c-.056-.412-.182-.606-.817-1.256l-.587-.602.119-.312a4.5 4.5 0 0 0-.617-4.335 5.8 5.8 0 0 0-.935-.919c-.317-.237-1.039-.579-1.48-.701-.323-.089-.479-.107-1.04-.119-.363-.007-.742.002-.843.02M6.081 13.583c-2.049.374-3.664 1.77-4.303 3.721-.243.741-.273 1.023-.276 2.596L1.5 21.3l.105.248c.25.595.761.938 1.395.938.635 0 1.148-.345 1.393-.938.103-.246.104-.258.127-1.688.022-1.351.029-1.455.111-1.677a2.66 2.66 0 0 1 1.552-1.553c.23-.086.294-.089 2.317-.111 2.046-.022 2.084-.024 2.31-.114.431-.17.803-.552.92-.943.062-.209.062-.715 0-.924-.117-.391-.496-.78-.911-.935-.215-.08-.29-.083-2.331-.079-1.591.004-2.181.018-2.407.059m11.572 2.075c.272.138.573.445.709.722.085.174.098.255.098.62 0 .385-.01.439-.117.65a1.48 1.48 0 0 1-1.343.836c-.603 0-1.063-.289-1.348-.846-.102-.2-.112-.259-.112-.64 0-.365.013-.446.098-.62.173-.352.515-.664.878-.803q.144-.056.526-.045c.329.009.413.026.611.126"/></svg>