<svg xmlns="http://www.w3.org/2000/svg" width="24" height="24" fill="none" stroke="currentColor" stroke-linecap="round" stroke-linejoin="round" stroke-width="3"><path fill="#000" fill-rule="evenodd" stroke="none" d="M9.02 1.58c-2.824.451-5.014 2.64-5.443 5.44a8 8 0 0 0 0 1.96 6.55 6.55 0 0 0 1.698 3.474c.151.159.174.201.125.23-1.205.734-1.979 1.378-2.714 2.256C1.352 16.534.535 18.73.513 20.778c-.005.474.004.545.095.77.161.395.448.683.837.84.476.193 1.127.099 1.484-.213.436-.381.536-.629.589-1.468.047-.73.146-1.259.345-1.829a6.49 6.49 0 0 1 4.093-4.039c.747-.249 1.093-.298 2.084-.296.902.002 1.053.022 1.917.256.375.102.607.102.929.002a1.47 1.47 0 0 0 1.034-1.399c0-.222 0-.223.221-.399a8 8 0 0 0 1.024-1.063c1.214-1.585 1.633-3.747 1.096-5.656-.708-2.517-2.735-4.31-5.321-4.707-.442-.068-1.484-.066-1.92.003m1.732 3.003c.641.13 1.193.439 1.71.955.71.71 1.018 1.455 1.018 2.462 0 .979-.294 1.712-.976 2.431-.671.708-1.485 1.048-2.504 1.048-1.03 0-1.839-.342-2.521-1.065C6.813 9.707 6.52 8.97 6.52 8c0-1.007.308-1.752 1.018-2.462.507-.506 1.063-.821 1.682-.952.378-.08 1.146-.082 1.532-.003m5.417 8.259c-.413.082-.827.419-1.024.834-.108.228-.126.312-.131.616l-.006.351-.197.197c-.196.196-.199.198-.4.174-.58-.069-1.195.294-1.467.866-.11.231-.124.3-.124.62 0 .321.014.389.127.628.111.234.448.632.535.632.015 0 .025.106.023.236-.005.224-.013.243-.157.358-.201.16-.289.275-.419.554-.093.199-.109.284-.109.592 0 .32.014.389.124.62.161.338.399.577.73.734.23.109.313.127.615.132l.349.006.185.185.185.185.006.349c.005.302.023.385.132.615.157.331.396.569.734.73.231.11.3.124.62.124.319 0 .389-.014.62-.123.225-.107.64-.455.64-.537 0-.015.108-.027.24-.027s.24.012.24.027c0 .086.4.423.632.533.239.113.307.127.628.127.32 0 .389-.014.62-.124.564-.268.905-.828.874-1.436l-.013-.248.191-.19.19-.19.349-.006c.3-.005.385-.023.609-.13a1.48 1.48 0 0 0 .695-2.056 1.2 1.2 0 0 0-.375-.456c-.129-.107-.14-.133-.145-.35-.002-.129.008-.234.024-.234.015 0 .113-.084.217-.187a1.48 1.48 0 0 0 .315-1.701c-.264-.562-.885-.926-1.462-.858-.201.024-.204.023-.405-.179l-.203-.203.013-.25a1.5 1.5 0 0 0-.439-1.134 1.494 1.494 0 0 0-2.128.016c-.103.104-.187.204-.187.223 0 .018-.108.033-.24.033s-.24-.015-.24-.033c0-.066-.376-.414-.536-.496a1.57 1.57 0 0 0-1.055-.149m2.484 3.816c.272.138.573.445.709.722.085.174.098.255.098.62 0 .384-.01.44-.116.648a1.51 1.51 0 0 1-1.126.829 1.5 1.5 0 0 1-1.562-.829c-.106-.208-.116-.264-.116-.648 0-.365.013-.446.098-.62.173-.352.515-.664.878-.803q.144-.055.526-.045c.329.009.413.026.611.126"/></svg>