<svg xmlns="http://www.w3.org/2000/svg" width="24" height="24" fill="none" stroke="currentColor" stroke-linecap="round" stroke-linejoin="round" stroke-width="3"><path fill="#000" fill-rule="evenodd" stroke="none" d="M9.02 1.58c-2.824.451-5.014 2.64-5.443 5.44a8 8 0 0 0 0 1.96 6.55 6.55 0 0 0 1.698 3.474c.151.159.174.201.125.23-1.205.734-1.979 1.378-2.714 2.256C1.352 16.534.535 18.73.513 20.778c-.005.474.004.545.095.77.161.395.448.683.837.84.476.193 1.127.099 1.484-.213.436-.381.536-.629.589-1.468.047-.73.146-1.259.345-1.829a6.49 6.49 0 0 1 4.093-4.039c.747-.249 1.093-.298 2.084-.296.902.002 1.053.022 1.917.256.375.102.607.102.929.002a1.47 1.47 0 0 0 1.034-1.399c0-.222 0-.223.221-.399a8 8 0 0 0 1.024-1.063c1.214-1.585 1.633-3.747 1.096-5.656-.708-2.517-2.735-4.31-5.321-4.707-.442-.068-1.484-.066-1.92.003m1.732 3.003c.641.13 1.193.439 1.71.955.71.71 1.018 1.455 1.018 2.462 0 .979-.294 1.712-.976 2.431-.671.708-1.485 1.048-2.504 1.048-1.03 0-1.839-.342-2.521-1.065C6.813 9.707 6.52 8.97 6.52 8c0-1.007.308-1.752 1.018-2.462.507-.506 1.063-.821 1.682-.952.378-.08 1.146-.082 1.532-.003m6.525 8.975c-1.471.269-2.667 1.161-3.316 2.474a5.2 5.2 0 0 0-.402 1.248c-.059.334-.059 1.106 0 1.44.361 2.054 2.013 3.583 4.057 3.756a4.46 4.46 0 0 0 1.996-.284l.312-.119.602.587c.65.635.844.761 1.256.817a1.493 1.493 0 0 0 1.695-1.695c-.056-.412-.182-.606-.817-1.256l-.587-.602.119-.312a4.5 4.5 0 0 0-.617-4.335 5.8 5.8 0 0 0-.935-.919c-.317-.237-1.039-.579-1.48-.701-.323-.089-.479-.107-1.04-.119-.363-.007-.742.002-.843.02m1.376 3.1c.272.138.573.445.709.722.085.174.098.255.098.62 0 .385-.01.439-.117.65a1.48 1.48 0 0 1-1.343.836c-.603 0-1.063-.289-1.348-.846-.102-.2-.112-.259-.112-.64 0-.365.013-.446.098-.62.173-.352.515-.664.878-.803q.144-.055.526-.045c.329.009.413.026.611.126"/></svg>