<svg xmlns="http://www.w3.org/2000/svg" width="24" height="24" fill="none" stroke="currentColor" stroke-linecap="round" stroke-linejoin="round" stroke-width="3"><path fill="#000" fill-rule="evenodd" stroke="none" d="M9.02 1.58c-2.824.451-5.014 2.64-5.443 5.44a8 8 0 0 0 0 1.96 6.55 6.55 0 0 0 1.698 3.474c.172.18.18.197.11.24-.909.56-1.333.868-1.816 1.321-.658.617-.989 1.004-1.465 1.718C1.079 17.267.531 19.011.513 20.796c-.005.454.004.529.095.752.161.395.448.683.837.84.476.193 1.127.099 1.484-.213.436-.381.536-.629.589-1.468.047-.73.146-1.259.345-1.829.755-2.171 2.548-3.745 4.837-4.247.346-.076.521-.088 1.3-.088s.954.012 1.304.088c.566.123.951.259 1.576.553.635.299.871.356 1.218.293.502-.091.883-.375 1.129-.842.102-.194.113-.253.113-.615 0-.356-.013-.427-.115-.649-.11-.237-.343-.5-.584-.656l-.1-.064.226-.244A6.4 6.4 0 0 0 16.486 8c0-3.238-2.323-5.928-5.546-6.423-.442-.068-1.484-.066-1.92.003m1.732 3.003c.641.13 1.193.439 1.71.955.71.71 1.018 1.455 1.018 2.462 0 .979-.294 1.712-.976 2.431-.671.708-1.485 1.048-2.504 1.048-1.03 0-1.839-.342-2.521-1.065C6.813 9.707 6.52 8.97 6.52 8c0-1.007.308-1.752 1.018-2.462.507-.506 1.063-.821 1.682-.952.378-.08 1.146-.082 1.532-.003m5.764 10.994c-.855.325-1.24 1.255-.862 2.082.081.176.269.391.901 1.032l.798.809-.798.809c-.633.641-.82.855-.9 1.032a1.499 1.499 0 0 0 1.563 2.136c.442-.06.599-.17 1.473-1.032l.809-.798.809.798c.641.633.855.82 1.032.9a1.499 1.499 0 0 0 2.136-1.563c-.06-.443-.17-.6-1.032-1.473l-.798-.809.798-.809c.632-.641.82-.856.901-1.032a1.505 1.505 0 0 0-.698-2.003c-.208-.106-.264-.116-.648-.116-.624 0-.707.05-1.7 1.027l-.8.786-.8-.786c-.972-.956-1.078-1.022-1.66-1.036-.246-.006-.431.01-.524.046"/></svg>