<svg xmlns="http://www.w3.org/2000/svg" width="24" height="24" fill="none" stroke="currentColor" stroke-linecap="round" stroke-linejoin="round" stroke-width="3"><path fill="#000" fill-rule="evenodd" stroke="none" d="M9.02 1.58c-2.824.451-5.014 2.64-5.443 5.44a8 8 0 0 0 0 1.96 6.7 6.7 0 0 0 .958 2.531c.195.305.596.811.781.986a.6.6 0 0 1 .124.147c0 .015-.103.087-.23.158-1.997 1.125-3.619 3.18-4.311 5.463-.273.902-.458 2.349-.377 2.949.088.643.62 1.176 1.26 1.263.698.095 1.375-.297 1.614-.934.061-.165.094-.388.123-.843.062-.98.222-1.64.584-2.413a6.5 6.5 0 0 1 1.427-1.991 6.55 6.55 0 0 1 3.41-1.703c.632-.108 1.738-.088 2.368.043 1.041.217 1.959.658 2.832 1.362.417.336.585.422.934.478.984.158 1.872-.746 1.692-1.724a1.47 1.47 0 0 0-.428-.812c-.257-.257-1.012-.823-1.438-1.078a9 9 0 0 1-.335-.205c-.009-.008.084-.122.206-.254A6.4 6.4 0 0 0 16.486 8c0-3.238-2.323-5.928-5.546-6.423-.442-.068-1.484-.066-1.92.003m1.732 3.003c.641.13 1.193.439 1.71.955.71.71 1.018 1.455 1.018 2.462 0 .979-.294 1.712-.976 2.431-.671.708-1.485 1.048-2.504 1.048-1.03 0-1.839-.342-2.521-1.065C6.813 9.707 6.52 8.97 6.52 8c0-1.007.308-1.752 1.018-2.462.507-.506 1.063-.821 1.682-.952.378-.08 1.146-.082 1.532-.003m7.764 9.994c-.371.142-.711.446-.864.773-.135.289-.17.587-.171 1.438l-.001.728-.95.012-.95.012-.228.116c-.93.471-1.133 1.673-.407 2.399.381.382.7.463 1.82.464l.705.001.018.89c.016.842.023.904.119 1.138.243.592.758.938 1.393.938s1.15-.346 1.393-.938c.096-.234.103-.296.119-1.138l.018-.89.705-.001c1.12-.001 1.439-.082 1.82-.464.726-.726.523-1.928-.407-2.399l-.228-.116-.95-.013-.95-.012-.001-.728c0-.4-.017-.839-.037-.977a1.51 1.51 0 0 0-.832-1.153c-.195-.099-.28-.116-.608-.125-.253-.007-.431.008-.526.045"/></svg>