<svg xmlns="http://www.w3.org/2000/svg" width="24" height="24" fill="none" stroke="currentColor" stroke-linecap="round" stroke-linejoin="round" stroke-width="3"><path fill="#000" fill-rule="evenodd" stroke="none" d="M8.081 1.583c-2.049.374-3.664 1.77-4.303 3.721A5.49 5.49 0 1 0 9.89 1.582c-.431-.076-1.391-.075-1.809.001m1.736 3.05a2.65 2.65 0 0 1 1.553 1.55c.076.205.088.316.088.817s-.012.612-.088.817c-.23.615-.711 1.157-1.26 1.418-.415.197-.664.255-1.11.255s-.695-.058-1.11-.255c-.551-.262-1.039-.813-1.256-1.418-.108-.299-.146-.987-.075-1.347.171-.872.938-1.674 1.812-1.895.328-.083 1.149-.05 1.446.058m5.699 4.945c-.366.136-.71.444-.864.774a1.5 1.5 0 0 0 1.158 2.13c.326.047 6.054.047 6.38 0a1.494 1.494 0 0 0 1.287-1.7 1.51 1.51 0 0 0-.829-1.126l-.228-.116-3.38-.008c-2.742-.006-3.407.003-3.524.046M5.081 13.583c-2.046.373-3.664 1.771-4.301 3.713-.249.761-.274.999-.277 2.584L.5 21.3l.105.248c.25.595.761.938 1.395.938.635 0 1.148-.345 1.393-.938.103-.246.104-.258.127-1.688.022-1.351.029-1.455.111-1.677a2.67 2.67 0 0 1 1.552-1.553l.237-.09h7.16l.237.09c.715.269 1.29.845 1.552 1.553.082.222.089.326.111 1.677.023 1.43.024 1.442.127 1.688.245.593.758.938 1.393.938.634 0 1.145-.343 1.395-.938l.105-.248-.002-1.4c-.003-1.573-.033-1.855-.276-2.596-.643-1.964-2.27-3.362-4.332-3.722-.489-.086-7.339-.085-7.809.001"/></svg>