<svg xmlns="http://www.w3.org/2000/svg" width="24" height="24" fill="none" stroke="currentColor" stroke-linecap="round" stroke-linejoin="round" stroke-width="3"><path fill="#000" fill-rule="evenodd" stroke="none" d="M9.02 1.58c-2.824.451-5.014 2.64-5.443 5.44a8 8 0 0 0 0 1.96 6.55 6.55 0 0 0 1.698 3.474c.151.159.174.201.125.23-.943.575-1.38.901-1.968 1.469-.789.761-1.354 1.506-1.83 2.414-.698 1.33-1.075 2.784-1.09 4.196-.005.49.003.559.096.785.161.396.448.683.837.84.476.193 1.127.099 1.484-.213.403-.352.539-.653.572-1.26.048-.866.174-1.53.417-2.189a6.5 6.5 0 0 1 4.453-4.009 6.75 6.75 0 0 1 3.258 0c1.831.47 3.341 1.703 4.209 3.436.388.777.601 1.666.661 2.762.033.607.169.908.572 1.26.357.312 1.008.406 1.484.213.389-.157.676-.444.837-.84.093-.227.101-.293.096-.798-.021-1.968-.764-4.026-2.038-5.646-.336-.429-1.262-1.334-1.69-1.654a14 14 0 0 0-1.16-.764c-.048-.028-.015-.082.167-.279A6.4 6.4 0 0 0 16.486 8c0-3.238-2.323-5.928-5.546-6.423-.442-.068-1.484-.066-1.92.003m8.055.71a1.8 1.8 0 0 0-.412.205c-.408.311-.657.852-.605 1.314.061.538.285.882.804 1.232.611.413 1.006.866 1.295 1.485.22.47.284.741.31 1.315.028.599-.04 1.012-.246 1.492-.262.609-.445.844-1.231 1.583-.381.358-.535.782-.465 1.281.056.401.193.64.545.953 1.284 1.14 1.859 1.87 2.511 3.19.569 1.152.821 2.081.898 3.309.031.503.062.724.125.893.239.638.915 1.03 1.614.935a1.5 1.5 0 0 0 1.259-1.261c.017-.122.016-.49-.002-.818-.112-2.05-.847-4.111-2.146-6.018-.296-.434-.878-1.168-1.044-1.316-.047-.042-.085-.091-.085-.109s.097-.181.215-.364c1.886-2.903 1.237-6.695-1.502-8.77-.777-.589-1.267-.731-1.838-.531m-6.323 2.293c.641.13 1.193.439 1.71.955.71.71 1.018 1.455 1.018 2.462 0 .979-.294 1.712-.976 2.431-.671.708-1.485 1.048-2.504 1.048-1.03 0-1.839-.342-2.521-1.065C6.813 9.707 6.52 8.97 6.52 8c0-1.007.308-1.752 1.018-2.462.507-.506 1.063-.821 1.682-.952.378-.08 1.146-.082 1.532-.003"/></svg>