<svg xmlns="http://www.w3.org/2000/svg" width="24" height="24" fill="none" stroke="currentColor" stroke-linecap="round" stroke-linejoin="round" stroke-width="3"><path fill="#000" fill-rule="evenodd" stroke="none" d="M8.081 1.583c-2.049.374-3.664 1.77-4.303 3.721A5.49 5.49 0 1 0 9.89 1.582c-.431-.076-1.391-.075-1.809.001m1.736 3.05a2.65 2.65 0 0 1 1.553 1.55c.076.205.088.316.088.817s-.012.612-.088.817c-.23.615-.711 1.157-1.26 1.418-.415.197-.664.255-1.11.255s-.695-.058-1.11-.255c-.551-.262-1.039-.813-1.256-1.418-.108-.299-.146-.987-.075-1.347.171-.872.938-1.674 1.812-1.895.328-.083 1.149-.05 1.446.058m6.248 5.211c-.242.057-.612.272-.77.447-.282.312-.439.807-.378 1.193l.034.213-.206.207-.205.208-.346.016c-.314.016-.37.031-.618.175-.894.517-1.038 1.723-.285 2.4.183.164.2.194.215.39.015.207.011.216-.144.34a1.505 1.505 0 0 0-.181 2.155c.311.356.863.563 1.314.493.193-.03.196-.028.4.166.203.193.205.198.207.444a1.526 1.526 0 0 0 1.516 1.509c.394 0 .851-.214 1.114-.521.13-.152.164-.17.358-.184.21-.016.218-.013.343.143.167.207.432.387.718.487.288.101.693.086 1.009-.038.601-.234 1.021-.948.923-1.568l-.032-.208.195-.206c.194-.203.199-.205.445-.208a1.4 1.4 0 0 0 .787-.226c.842-.506.959-1.719.231-2.374-.183-.164-.2-.194-.215-.39-.015-.207-.012-.215.147-.343.837-.673.69-2.019-.272-2.492-.245-.121-.301-.132-.671-.138l-.405-.005-.201-.185-.2-.185v-.27c0-.465-.228-.915-.602-1.186-.233-.169-.625-.303-.887-.303a1.62 1.62 0 0 0-1.169.561c-.119.148-.141.159-.334.159s-.215-.01-.338-.164c-.337-.419-.969-.635-1.497-.512M5.081 13.583C3.03 13.96 1.417 15.354.78 17.296c-.249.761-.274.999-.277 2.584L.5 21.3l.105.248c.25.595.761.938 1.395.938.635 0 1.148-.345 1.393-.938.103-.246.104-.258.127-1.688.022-1.351.029-1.455.111-1.677a2.66 2.66 0 0 1 1.552-1.553c.233-.088.277-.09 2.677-.111 2.436-.021 2.44-.021 2.673-.114a1.514 1.514 0 0 0 .944-1.623 1.51 1.51 0 0 0-.829-1.126l-.228-.116-2.52-.006c-1.991-.005-2.583.005-2.819.049m13.568.073c.301.152.558.427.696.744.099.225.114.311.114.64.001.34-.011.404-.115.608-.173.342-.408.554-.784.71-.394.162-.735.175-1.096.04-.376-.141-.614-.376-.803-.794-.105-.233-.119-.309-.12-.644-.001-.323.014-.41.097-.58.144-.293.452-.603.676-.68.102-.034.231-.09.286-.122.074-.044.195-.057.463-.047.303.01.399.031.586.125"/></svg>