<svg xmlns="http://www.w3.org/2000/svg" width="24" height="24" fill="none" stroke="currentColor" stroke-linecap="round" stroke-linejoin="round" stroke-width="3"><path fill="#000" fill-rule="evenodd" stroke="none" d="M9.02 1.58c-2.824.451-5.014 2.64-5.443 5.44a8 8 0 0 0 0 1.96 6.7 6.7 0 0 0 .958 2.531c.195.305.596.811.781.986a.6.6 0 0 1 .124.147c0 .015-.103.087-.23.158-1.997 1.125-3.619 3.18-4.311 5.463-.273.902-.458 2.349-.377 2.949.088.643.62 1.176 1.26 1.263.698.095 1.375-.297 1.614-.934.061-.165.094-.388.123-.843.062-.98.222-1.64.584-2.413a6.5 6.5 0 0 1 1.427-1.991 6.55 6.55 0 0 1 3.41-1.703c.632-.108 1.738-.088 2.368.043 1.041.217 1.959.658 2.832 1.362.417.336.585.422.934.478.984.158 1.872-.746 1.692-1.724a1.47 1.47 0 0 0-.428-.812c-.257-.257-1.012-.823-1.438-1.078a9 9 0 0 1-.335-.205c-.009-.008.084-.122.206-.254A6.4 6.4 0 0 0 16.486 8c0-3.238-2.323-5.928-5.546-6.423-.442-.068-1.484-.066-1.92.003m1.732 3.003c.641.13 1.193.439 1.71.955.71.71 1.018 1.455 1.018 2.462 0 .979-.294 1.712-.976 2.431-.671.708-1.485 1.048-2.504 1.048-1.03 0-1.839-.342-2.521-1.065C6.813 9.707 6.52 8.97 6.52 8c0-1.007.308-1.752 1.018-2.462.507-.506 1.063-.821 1.682-.952.378-.08 1.146-.082 1.532-.003m10.764 10.994c-.317.12-.553.33-2.004 1.775l-1.508 1.502-.553-.537c-.723-.702-.863-.777-1.451-.777-.384 0-.44.01-.648.116-.754.381-1.048 1.237-.694 2.012.09.195.286.411 1.275 1.399.988.989 1.204 1.185 1.399 1.275.432.197.903.197 1.336 0 .203-.093.499-.373 2.4-2.274s2.181-2.197 2.274-2.4c.354-.776.06-1.63-.694-2.012-.198-.101-.279-.117-.608-.125-.246-.006-.431.01-.524.046"/></svg>