<svg xmlns="http://www.w3.org/2000/svg" width="24" height="24" fill="none" stroke="currentColor" stroke-linecap="round" stroke-linejoin="round" stroke-width="3"><path fill="#000" fill-rule="evenodd" stroke="none" d="M8.081 1.583c-2.049.374-3.664 1.77-4.303 3.721A5.49 5.49 0 1 0 9.89 1.582c-.431-.076-1.391-.075-1.809.001m7.499.113c-.661.209-1.081.785-1.07 1.464.005.299.08.535.257.811.168.261.415.442.807.588.488.183.783.333 1.014.518.382.306.725.848.848 1.341.063.254.063.908 0 1.164a2.67 2.67 0 0 1-.784 1.297c-.268.24-.482.357-.961.526-.696.246-1.027.586-1.151 1.184-.17.816.377 1.613 1.215 1.77.269.051.539.01 1.045-.16 1.843-.615 3.251-2.254 3.625-4.219.093-.489.093-1.431.001-1.94q-.307-1.688-1.564-2.941a5.1 5.1 0 0 0-1.505-1.056c-.755-.36-1.362-.478-1.777-.347M9.817 4.633a2.65 2.65 0 0 1 1.553 1.55c.076.205.088.316.088.817s-.012.612-.088.817c-.23.615-.711 1.157-1.26 1.418-.415.197-.664.255-1.11.255s-.695-.058-1.11-.255c-.551-.262-1.039-.813-1.256-1.418-.108-.299-.146-.987-.075-1.347.171-.872.938-1.674 1.812-1.895.328-.083 1.149-.05 1.446.058m-4.736 8.95c-2.046.373-3.664 1.771-4.301 3.713-.249.761-.274.999-.277 2.584L.5 21.3l.105.248c.25.595.761.938 1.395.938.635 0 1.148-.345 1.393-.938.103-.246.104-.258.127-1.688.022-1.351.029-1.455.111-1.677a2.67 2.67 0 0 1 1.552-1.553l.237-.09h7.16l.237.09c.715.269 1.29.845 1.552 1.553.082.222.089.326.111 1.677.023 1.43.024 1.442.127 1.688.245.593.758.938 1.393.938.634 0 1.145-.343 1.395-.938l.105-.248-.002-1.4c-.003-1.573-.033-1.855-.276-2.596-.643-1.964-2.27-3.362-4.332-3.722-.489-.086-7.339-.085-7.809.001m13.499.113c-.66.209-1.08.783-1.071 1.464.007.467.274.969.637 1.2.101.064.338.172.528.24.686.249 1.059.523 1.395 1.028.372.559.382.613.41 2.252.024 1.409.025 1.422.127 1.668.246.593.759.938 1.394.938s1.145-.343 1.395-.938l.105-.248-.002-1.42c-.002-1.181-.014-1.486-.073-1.811a5.49 5.49 0 0 0-3.072-4.028c-.751-.358-1.359-.476-1.773-.345"/></svg>