<svg xmlns="http://www.w3.org/2000/svg" width="24" height="24" fill="none" stroke="currentColor" stroke-linecap="round" stroke-linejoin="round" stroke-width="3"><path fill="#000" fill-rule="evenodd" stroke="none" d="M9.081 1.583c-2.049.374-3.664 1.77-4.303 3.721a5.49 5.49 0 1 0 6.112-3.722c-.431-.076-1.391-.075-1.809.001m1.736 3.05a2.65 2.65 0 0 1 1.553 1.55c.076.205.088.316.088.817s-.012.612-.088.817c-.23.615-.711 1.157-1.26 1.418-.415.197-.664.255-1.11.255s-.695-.058-1.11-.255c-.551-.262-1.039-.813-1.256-1.418-.108-.299-.146-.987-.075-1.347.171-.872.938-1.674 1.812-1.895.328-.083 1.149-.05 1.446.058m8.483 6.913a4 4 0 0 0-1.534.639c-.356.25-4.621 4.514-4.835 4.835-.355.532-.407.672-.988 2.666-.431 1.482-.473 1.682-.422 2.042.135.949.806 1.621 1.75 1.751.354.049.599-.004 2.209-.475 1.669-.488 1.735-.51 2.043-.665.495-.251.739-.472 2.923-2.655 2.397-2.395 2.507-2.522 2.783-3.204.79-1.953-.245-4.144-2.269-4.806-.342-.111-.438-.125-.96-.135a7 7 0 0 0-.7.007M6.081 13.583c-2.049.374-3.664 1.77-4.303 3.721-.243.741-.273 1.023-.276 2.596L1.5 21.3l.105.248c.25.595.761.938 1.395.938.635 0 1.148-.345 1.393-.938.103-.246.104-.258.127-1.688.022-1.351.029-1.455.111-1.677a2.67 2.67 0 0 1 1.552-1.553c.234-.089.266-.09 2.917-.111l2.68-.021.23-.092c.432-.172.803-.553.92-.944.062-.209.062-.715 0-.924-.117-.391-.496-.78-.911-.935-.217-.081-.283-.083-2.931-.079-2.099.004-2.775.017-3.007.059M20.19 14.6c.191.116.29.302.29.546 0 .18-.02.232-.153.4-.085.107-1.049 1.076-2.143 2.154l-1.988 1.96-.481.147c-.264.081-.536.16-.603.175-.144.031-.15.086.077-.702l.144-.5 1.963-1.974c1.08-1.086 2.051-2.045 2.158-2.13.168-.136.22-.156.4-.156.135 0 .251.028.336.08"/></svg>