<svg xmlns="http://www.w3.org/2000/svg" width="24" height="24" fill="none" stroke="currentColor" stroke-linecap="round" stroke-linejoin="round" stroke-width="3"><path fill="#000" fill-rule="evenodd" stroke="none" d="M11.02 1.58c-2.098.335-3.878 1.627-4.819 3.498-.473.94-.686 1.857-.685 2.942a6.43 6.43 0 0 0 1.759 4.434c.151.159.174.201.125.23-.943.575-1.38.901-1.968 1.469-.789.761-1.354 1.506-1.83 2.414-.698 1.33-1.075 2.784-1.09 4.196-.005.49.003.559.096.785.161.396.448.683.837.84.476.193 1.127.099 1.484-.213.403-.352.539-.653.572-1.26.048-.866.174-1.53.417-2.189a6.5 6.5 0 0 1 4.453-4.009 6.75 6.75 0 0 1 3.258 0c1.831.47 3.341 1.703 4.209 3.436.388.777.601 1.666.661 2.762.033.607.169.908.572 1.26.357.312 1.008.406 1.484.213.389-.157.676-.444.837-.84.093-.227.101-.293.096-.798-.021-1.968-.764-4.026-2.038-5.646-.336-.429-1.262-1.334-1.69-1.654a14 14 0 0 0-1.16-.764c-.048-.028-.015-.082.167-.279A6.4 6.4 0 0 0 18.486 8c0-3.238-2.323-5.928-5.546-6.423-.442-.068-1.484-.066-1.92.003m1.732 3.003c.641.13 1.193.439 1.71.955.71.71 1.018 1.455 1.018 2.462 0 .979-.294 1.712-.976 2.431-.671.708-1.485 1.048-2.504 1.048-1.03 0-1.839-.342-2.521-1.065C8.813 9.707 8.52 8.97 8.52 8c0-1.007.308-1.752 1.018-2.462.507-.506 1.063-.821 1.682-.952.378-.08 1.146-.082 1.532-.003"/></svg>