<svg xmlns="http://www.w3.org/2000/svg" width="24" height="24" fill="none" stroke="currentColor" stroke-linecap="round" stroke-linejoin="round" stroke-width="3"><path fill="#000" fill-rule="evenodd" stroke="none" d="M2.516.577a1.54 1.54 0 0 0-.998 1.233c-.05.344-.047 7.032.003 7.507.153 1.455 1.118 2.627 2.502 3.038.29.086.873.163 1.246.164l.209.001.011 4.89.011 4.89.105.248c.25.595.761.938 1.395.938s1.145-.343 1.395-.938L8.5 22.3l.011-4.884.011-4.885.472-.027c.259-.016.592-.053.739-.084a3.6 3.6 0 0 0 1.775-.992c.573-.6.883-1.272.971-2.111.05-.475.053-7.163.003-7.507a1.51 1.51 0 0 0-.834-1.154C11.44.55 11.384.54 11 .54s-.44.01-.648.116a1.51 1.51 0 0 0-.834 1.154c-.02.138-.037 1.855-.037 3.817L9.48 9.194l-.103.122c-.12.142-.307.203-.627.204h-.23l-.001-3.73c0-2.051-.017-3.842-.037-3.98A1.51 1.51 0 0 0 7.648.656C7.44.55 7.384.54 7 .54s-.44.01-.648.116a1.51 1.51 0 0 0-.834 1.154c-.02.138-.037 1.929-.037 3.98L5.48 9.52h-.23c-.32-.001-.507-.062-.627-.204l-.103-.122-.001-3.567c0-1.962-.017-3.679-.037-3.817A1.51 1.51 0 0 0 3.65.657C3.455.558 3.37.541 3.042.532c-.253-.007-.431.008-.526.045M20.02.578c-2.843.47-4.963 2.585-5.45 5.439-.051.301-.065.914-.079 3.592-.018 3.397-.002 3.842.153 4.366a3.53 3.53 0 0 0 2.379 2.38c.385.115.904.163 1.745.164l.708.001.012 2.89.012 2.89.105.248c.25.595.761.938 1.395.938s1.145-.343 1.395-.938l.105-.248.011-10.1c.006-6.076-.005-10.207-.027-10.369a1.5 1.5 0 0 0-.836-1.175c-.215-.109-.259-.116-.768-.123a6 6 0 0 0-.86.045m-.54 8.102v4.84h-.73c-.402 0-.796-.019-.877-.041a.6.6 0 0 1-.25-.163l-.103-.122V9.875c0-3.665-.002-3.639.254-4.235a3.7 3.7 0 0 1 1.696-1.8c.006 0 .01 2.178.01 4.84"/></svg>