<svg xmlns="http://www.w3.org/2000/svg" width="24" height="24" fill="none" stroke="currentColor" stroke-linecap="round" stroke-linejoin="round" stroke-width="3"><path fill="#000" fill-rule="evenodd" stroke="none" d="M15.516.577c-.08.03-.224.103-.32.163-.277.169-2.78 2.705-3.027 3.067-.949 1.388-1.08 3.103-.351 4.573.12.242.316.569.435.726l.217.286-.235.233-.235.233-3.91-3.902C4.388 2.262 4.166 2.048 3.92 1.939c-.223-.099-.311-.115-.62-.115-.309-.001-.394.015-.6.11-.508.233-1.218 1.091-1.615 1.95a5.69 5.69 0 0 0 .706 5.973c.123.156 1.312 1.376 2.644 2.712l2.42 2.43-.097.104c-.054.058-1.38 1.366-2.946 2.906S.916 20.879.858 20.963a1.54 1.54 0 0 0-.107 1.497c.164.335.568.673.929.778.445.129.983.019 1.35-.277.105-.084 1.486-1.43 3.07-2.991l2.88-2.838.4.378c.853.805 1.543 1.099 2.58 1.1 1.07.002 1.823-.312 2.675-1.114l.37-.349 3.048 3.044c2.696 2.694 3.074 3.057 3.279 3.15a1.502 1.502 0 0 0 2.01-2.009c-.095-.207-.589-.716-4.653-4.782l-4.547-4.549.233-.236.233-.235.286.217c1.304.99 3.149 1.178 4.619.473.677-.325.901-.512 2.355-1.959 1.177-1.171 1.383-1.393 1.474-1.593.354-.776.06-1.63-.694-2.012-.208-.106-.264-.116-.648-.116-.665 0-.647-.012-2.242 1.568-1.496 1.482-1.51 1.492-2.044 1.524-.34.02-.633-.035-.833-.157l-.132-.08 1.744-1.75c1.502-1.507 1.759-1.782 1.849-1.979.354-.773.059-1.629-.694-2.01-.208-.106-.264-.116-.648-.116-.682 0-.601-.06-2.644 1.971l-1.745 1.734-.085-.145c-.13-.218-.178-.469-.158-.814.03-.524.047-.547 1.539-2.051 1.119-1.129 1.35-1.382 1.437-1.572.352-.769.056-1.627-.694-2.006-.195-.099-.28-.116-.608-.125q-.381-.01-.526.045m-2.937 14.704c-.297.299-.479.387-.716.342-.099-.018-.916-.816-3.989-3.893C3.641 7.49 3.808 7.676 3.64 7.02c-.079-.311-.113-1.048-.054-1.201.02-.051 1.117 1.024 4.649 4.556l4.624 4.624z"/></svg>