<svg xmlns="http://www.w3.org/2000/svg" width="24" height="24" fill="none" stroke="currentColor" stroke-linecap="round" stroke-linejoin="round" stroke-width="3"><path fill="#000" fill-rule="evenodd" stroke="none" d="M11.516.577c-.371.142-.711.446-.864.773-.135.289-.17.587-.171 1.44l-.001.73H8.52l-.001-.23c-.003-.816-.279-1.334-.871-1.634C7.44 1.55 7.384 1.54 7 1.54s-.44.01-.648.116c-.59.298-.868.818-.871 1.626l-.001.222h-.96l-.001-.222c-.003-.808-.281-1.328-.871-1.626C3.44 1.55 3.384 1.54 3 1.54s-.44.01-.648.116c-.6.304-.868.816-.871 1.664l-.001.26-.191.107a1.51 1.51 0 0 0-.766 1.095 1.494 1.494 0 0 0 1.287 1.7c.138.02.772.037 1.41.037l1.16.001 3.049 3.05 3.049 3.05.011 4.84.011 4.84.105.248c.25.595.761.938 1.395.938s1.145-.343 1.395-.938l.105-.248.011-4.84.011-4.84 3.049-3.05 3.049-3.05 1.16-.001c.638 0 1.272-.017 1.41-.037a1.494 1.494 0 0 0 1.287-1.7 1.51 1.51 0 0 0-.766-1.095l-.191-.107-.001-.26c-.003-.848-.271-1.36-.871-1.664-.208-.106-.264-.116-.648-.116s-.44.01-.648.116c-.59.298-.868.818-.871 1.626l-.001.222h-.96l-.001-.222c-.003-.808-.281-1.328-.871-1.626-.208-.106-.264-.116-.648-.116s-.44.01-.648.116c-.592.3-.868.818-.871 1.634l-.001.23h-1.96l-.001-.73c0-.401-.017-.842-.037-.98A1.51 1.51 0 0 0 12.65.657c-.195-.099-.28-.116-.608-.125q-.382-.01-.526.045M10.48 7.42c0 .495-.005.9-.01.9a56 56 0 0 1-.91-.9l-.899-.9h1.819zm4.84-.89c0 .006-.405.415-.9.91l-.9.899V6.52h.9c.495 0 .9.005.9.01"/></svg>