<svg xmlns="http://www.w3.org/2000/svg" width="24" height="24" fill="none" stroke="currentColor" stroke-linecap="round" stroke-linejoin="round" stroke-width="3"><path fill="#000" fill-rule="evenodd" stroke="none" d="M7.493 1.592c-.295.105-.598.345-1.195.944C4.42 4.422 3.164 6.881 2.702 9.572c-.142.829-.191 1.46-.191 2.428s.049 1.599.191 2.428a13.26 13.26 0 0 0 3.497 6.946c.952.986 1.445 1.24 2.11 1.085a1.38 1.38 0 0 0 .785-.457c.322-.344.446-.734.381-1.199-.061-.438-.176-.616-.741-1.147-1.771-1.662-2.86-3.858-3.152-6.356-.079-.673-.079-1.927 0-2.6.227-1.941.886-3.59 2.07-5.179.157-.209.587-.681.957-1.047.729-.723.803-.832.866-1.282.067-.468-.06-.855-.398-1.212-.298-.315-.562-.431-1.017-.448-.275-.011-.409.003-.567.06m7.998.006c-.257.093-.386.182-.607.422a1.38 1.38 0 0 0-.359 1.177c.061.435.178.619.718 1.124 1.787 1.673 2.881 3.871 3.175 6.379.079.673.079 1.927 0 2.6-.294 2.508-1.388 4.706-3.175 6.379-.54.505-.657.689-.718 1.124-.065.465.059.855.381 1.199.243.26.447.379.785.457.307.071.624.04.918-.09.384-.171 1.282-1.019 1.915-1.81 1.659-2.074 2.609-4.379 2.9-7.041.084-.767.084-2.269 0-3.036-.226-2.07-.849-3.914-1.897-5.622-.929-1.513-2.391-3.082-3.058-3.28-.28-.083-.72-.075-.978.018M8.516 7.577a1.52 1.52 0 0 0-.86 2.085c.084.185.289.413 1.15 1.282L9.854 12l-1.048 1.056c-1.131 1.141-1.22 1.261-1.283 1.726-.162 1.197 1.032 2.069 2.139 1.562.185-.084.413-.289 1.282-1.15L12 14.146l1.056 1.048c.869.861 1.097 1.066 1.282 1.15 1.107.507 2.301-.365 2.139-1.562-.063-.465-.152-.585-1.283-1.726L14.146 12l1.048-1.056c.861-.869 1.066-1.097 1.15-1.282.352-.769.055-1.626-.696-2.006-.208-.106-.264-.116-.648-.116-.647 0-.68.022-1.95 1.276L12 9.854l-1.05-1.038C9.703 7.584 9.646 7.545 9.04 7.531c-.246-.006-.431.01-.524.046"/></svg>