<svg xmlns="http://www.w3.org/2000/svg" width="24" height="24" fill="none" stroke="currentColor" stroke-linecap="round" stroke-linejoin="round" stroke-width="3"><path fill="#000" fill-rule="evenodd" stroke="none" d="M4.44 1.547a3.56 3.56 0 0 0-2.888 2.841c-.076.399-.076 14.825 0 15.224.221 1.168 1.036 2.177 2.116 2.617.716.292.076.271 8.332.271 6.835 0 7.443-.005 7.71-.068a3.7 3.7 0 0 0 1.798-1.004c.573-.6.883-1.272.971-2.111.054-.511.054-14.123 0-14.634-.154-1.464-1.103-2.611-2.526-3.052l-.293-.091-7.56-.005c-4.158-.002-7.605.003-7.66.012m14.904 3.109.136.136v14.402l-.103.122a.6.6 0 0 1-.25.163c-.204.056-14.05.056-14.254 0a.6.6 0 0 1-.25-.163l-.103-.122V4.792l.136-.136.136-.136h14.416zM6.94 5.574c-.451.149-.898.489-1.14.867-.37.575-.391 1.45-.049 2.039.139.241.454.569.694.723.21.135.615.277.789.277.085 0 .245.139.783.677l.675.676-.066.235a3.9 3.9 0 0 0 0 1.864l.066.235-.67.671c-.661.662-.674.672-.874.696-.453.054-1.065.465-1.348.907-.388.604-.39 1.512-.003 2.114a1.99 1.99 0 0 0 1.703.937 1.99 1.99 0 0 0 1.703-.937c.135-.21.277-.615.277-.789 0-.085.139-.245.677-.783l.676-.675.235.066a3.9 3.9 0 0 0 1.864 0l.235-.066.676.675c.538.538.677.698.677.783 0 .174.142.579.277.789a1.99 1.99 0 0 0 1.703.937 1.99 1.99 0 0 0 1.703-.937c.387-.602.385-1.51-.003-2.114-.283-.442-.895-.853-1.348-.907-.2-.024-.213-.034-.874-.696l-.671-.672.068-.253a3.7 3.7 0 0 0 0-1.826l-.068-.253.676-.677c.538-.538.698-.677.783-.677.174 0 .579-.142.789-.277a2.5 2.5 0 0 0 .694-.723c.342-.589.321-1.464-.049-2.039a2.3 2.3 0 0 0-.88-.758c-.297-.141-.306-.143-.82-.143s-.523.002-.82.143a2.3 2.3 0 0 0-.88.758c-.137.213-.28.618-.28.793 0 .085-.138.245-.676.782l-.676.675-.294-.076c-.413-.106-1.335-.106-1.748 0l-.294.076-.676-.675c-.538-.537-.676-.697-.676-.782 0-.175-.143-.58-.28-.793a2.3 2.3 0 0 0-.88-.757c-.284-.136-.324-.144-.76-.153-.298-.006-.516.009-.62.043m.16 1.06c-.148.091-.5.465-.5.531q-.002.042-.025.023c-.054-.054.199-.399.376-.511a1 1 0 0 1 .227-.117c.023 0-.012.034-.078.074m9.949.043c.177.112.43.457.376.511-.014.014-.025.004-.025-.023 0-.066-.352-.44-.5-.531-.066-.04-.101-.074-.078-.074s.125.053.227.117m-4.708 4.982c.121.121.139.164.139.337 0 .162-.021.222-.112.322-.138.15-.322.21-.496.16a.6.6 0 0 1-.24-.16c-.091-.1-.112-.16-.112-.322 0-.173.018-.216.139-.337s.163-.139.341-.139.22.017.341.139m-5.526 5.456c.091.096.219.208.285.25.066.041.096.075.067.075-.163 0-.611-.461-.606-.624.001-.02.021 0 .045.044.025.044.118.159.209.255m10.529-.098c-.102.174-.403.423-.511.423-.029 0 .001-.034.067-.074.148-.091.5-.465.5-.531q.002-.042.025-.023c.014.013-.023.106-.081.205"/></svg>