<svg xmlns="http://www.w3.org/2000/svg" width="24" height="24" fill="none" stroke="currentColor" stroke-linecap="round" stroke-linejoin="round" stroke-width="3"><path fill="#000" fill-rule="evenodd" stroke="none" d="M1.491.596C.907.812.51 1.37.514 1.968c.004.669.129.85 1.219 1.767.259.217.645.561.858.764.365.348.383.373.328.45C1.988 6.235 1.54 7.07 1.123 8.295a11.47 11.47 0 0 0-.137 7.022c1.089 3.599 3.881 6.461 7.434 7.618 2.428.79 4.955.763 7.389-.079a11.7 11.7 0 0 0 3.347-1.845c.5-.394 1.511-1.409 1.883-1.891 1.96-2.536 2.798-5.678 2.341-8.771a12.7 12.7 0 0 0-.914-3.106l-.223-.496.176-.284c.453-.725.806-1.743.961-2.768.088-.578.142-1.595.101-1.886a1.51 1.51 0 0 0-.833-1.153c-.213-.108-.264-.117-.784-.13-1.138-.029-2.405.188-3.37.578a5.5 5.5 0 0 0-.968.486l-.294.178-.426-.199C14.124.315 10.881.18 8.07 1.204a12.5 12.5 0 0 0-2.599 1.342c-.17.118-.32.214-.335.214s-.209-.176-.432-.39C3.908 1.605 2.878.751 2.601.626c-.265-.119-.83-.134-1.11-.03m11.381 2.965c.725.078 1.692.307 2.181.516l.189.081-.066.151c-.14.321-.347.969-.438 1.371-.108.479-.218 1.309-.218 1.645 0 .212-.034.293-.497 1.201-.795 1.556-1.32 2.812-1.763 4.214-.125.396-.24.754-.256.796-.021.056-.075-.05-.202-.4-.985-2.707-2.669-5.716-4.368-7.803a3 3 0 0 1-.234-.311c0-.085 1.076-.669 1.67-.907a8.8 8.8 0 0 1 4.002-.554m7.427.249c-.05.238-.284.821-.422 1.054-.272.457-.743.886-1.257 1.146-.237.12-.893.33-.926.297-.032-.032.131-.556.266-.852a3.04 3.04 0 0 1 1.389-1.45c.184-.093.838-.323.924-.324.039-.001.046.034.026.129M5.446 7.67c2.451 3.28 4.058 7.015 4.712 10.95.111.668.245 1.706.223 1.731s-.958-.238-1.322-.372a8.46 8.46 0 0 1-4.649-4.162c-.655-1.312-.928-2.593-.878-4.116.044-1.313.318-2.403.887-3.521.236-.464.576-1.02.623-1.02.012 0 .194.23.404.51m14.591 1.592c.306.92.443 1.769.443 2.753 0 2.323-.898 4.46-2.549 6.071a8.4 8.4 0 0 1-3.451 2.047c-.655.196-.72.208-.72.127 0-.122.315-2.113.459-2.9.448-2.447.975-4.226 1.796-6.068.149-.333.851-1.766.883-1.802.005-.006.232-.038.505-.072.775-.096 1.498-.276 2.094-.52.177-.073.334-.134.348-.136.014-.001.101.224.192.5"/></svg>