<svg xmlns="http://www.w3.org/2000/svg" width="24" height="24" fill="none" stroke="currentColor" stroke-linecap="round" stroke-linejoin="round" stroke-width="3"><path fill="#000" fill-rule="evenodd" stroke="none" d="M1.516 5.578c-.368.138-.71.445-.864.773-.169.36-.18.619-.16 3.549.017 2.584.024 2.789.102 3.207.448 2.398 2.082 4.29 4.365 5.053.568.189 1.182.3 1.876.338.972.053 1.751.228 2.485.557.612.274.921.468 1.68 1.054.362.279.625.379 1 .379s.638-.1 1-.379c.759-.586 1.068-.78 1.68-1.054.729-.327 1.504-.501 2.46-.555 1.776-.099 3.154-.675 4.355-1.82 1.019-.971 1.666-2.206 1.93-3.683.057-.322.07-.779.085-3.117.01-1.71.002-2.849-.023-3.029-.076-.545-.363-.954-.839-1.195l-.228-.116H19.3c-3.077 0-3.127.001-3.592.091-1.337.257-2.624.758-3.538 1.378l-.17.115-.17-.115c-.907-.615-2.164-1.107-3.51-1.373-.451-.09-.519-.092-3.56-.102-2.537-.009-3.126-.001-3.244.044M7.694 8.58a6.7 6.7 0 0 1 2.286.809c.296.174.496.315 1.02.72.362.279.625.379 1 .379s.638-.1 1-.379c.983-.76 1.592-1.09 2.486-1.347.769-.222 1.023-.242 3.104-.242h1.89v1.962c0 2.172-.013 2.315-.254 2.878a3.65 3.65 0 0 1-1.805 1.842c-.39.177-.839.266-1.601.317-1.3.086-2.289.324-3.42.822a10 10 0 0 0-1.23.668l-.17.115-.17-.115a10 10 0 0 0-1.23-.668c-1.125-.495-2.125-.736-3.42-.822-.786-.053-1.222-.142-1.646-.338a3.62 3.62 0 0 1-1.76-1.821c-.241-.563-.254-.706-.254-2.878V8.52h1.89c1.468 0 1.978.014 2.284.06m-2.178.999c-.364.134-.71.443-.864.773-.132.282-.165.56-.127 1.084.107 1.487.815 2.472 2.041 2.841.447.134.677.166 1.498.208 1.207.061 1.581-.019 1.991-.43.35-.35.483-.782.422-1.372a2.9 2.9 0 0 0-.228-.948c-.469-1.152-1.601-1.918-3.182-2.153-.511-.076-1.349-.078-1.551-.003m11.384.003c-1.279.203-2.293.767-2.835 1.575a3 3 0 0 0-.54 1.506c-.063.61.066 1.038.42 1.392.241.242.53.38.902.431.326.045 1.757-.014 2.113-.088.767-.158 1.254-.406 1.702-.864.303-.311.571-.82.698-1.328.099-.396.159-1.118.117-1.424a1.51 1.51 0 0 0-.829-1.126c-.217-.111-.255-.116-.808-.124a6 6 0 0 0-.94.05"/></svg>