<svg xmlns="http://www.w3.org/2000/svg" width="24" height="24" fill="none" stroke="currentColor" stroke-linecap="round" stroke-linejoin="round" stroke-width="3"><path fill="#000" fill-rule="evenodd" stroke="none" d="M1.516.577C.655.907.276 1.832.659 2.668c.093.205.44.567 2.962 3.092l2.856 2.86.013 4.9c.015 5.407-.003 5.034.267 5.578a2.6 2.6 0 0 0 1.683 1.347c.321.08 6.794.081 7.12.001.537-.133 1.115-.511 1.412-.924l.168-.233 1.982 1.974c1.718 1.711 2.012 1.988 2.211 2.079a1.503 1.503 0 0 0 2.009-2.01c-.095-.21-1.076-1.202-10.274-10.395C1.635-.49 2.738.551 2.042.532c-.253-.007-.431.008-.526.045m8.593 3.04c-.564.232-.892.687-.938 1.303-.048.64.341 1.231.979 1.486.228.092.249.092 2.278.106l2.047.013.013 2.048c.013 2.031.014 2.049.105 2.277.174.432.555.803.945.92.209.062.715.062.924 0 .39-.117.77-.487.945-.92l.093-.23V8.14c0-2.679 0-2.676-.22-3.16a2.57 2.57 0 0 0-1.18-1.22c-.49-.241-.478-.24-3.238-.239l-2.522.001zm-8.593 2.96c-.689.262-1.09.925-.993 1.641.055.405.184.606.778 1.217L1.85 10l-.549.565c-.594.611-.723.812-.778 1.217-.016.12-.016.316 0 .436.055.405.184.606.778 1.217L1.85 14l-.549.565c-.594.611-.723.812-.778 1.217-.163 1.2 1.032 2.069 2.145 1.56.195-.09.411-.286 1.399-1.275.989-.988 1.185-1.204 1.275-1.399a1.58 1.58 0 0 0 .006-1.321c-.072-.158-.249-.371-.649-.782L4.15 12l.549-.565c.4-.411.577-.624.649-.782a1.58 1.58 0 0 0-.006-1.321c-.09-.196-.283-.406-1.274-1.393-1.376-1.37-1.41-1.393-2.028-1.408-.246-.006-.431.01-.524.046m20 0c-.313.119-.537.312-1.625 1.4-.948.948-1.146 1.166-1.234 1.358a1.58 1.58 0 0 0-.005 1.318c.072.158.249.371.649.782l.549.565-.549.565c-.4.411-.577.624-.649.782a1.58 1.58 0 0 0 .006 1.321c.09.195.286.411 1.275 1.399.988.989 1.204 1.185 1.399 1.275 1.113.509 2.308-.36 2.145-1.56-.055-.405-.184-.606-.778-1.217L22.15 14l.549-.565c.594-.611.723-.812.778-1.217.016-.12.016-.316 0-.436-.055-.405-.184-.606-.778-1.217L22.15 10l.549-.565c.594-.611.723-.812.778-1.217a1.5 1.5 0 0 0-.829-1.562c-.198-.101-.279-.117-.608-.125-.246-.006-.431.01-.524.046M14.48 17.07v.45H9.52v-5.86L12 14.14l2.48 2.48z"/></svg>