<svg xmlns="http://www.w3.org/2000/svg" width="24" height="24" fill="none" stroke="currentColor" stroke-linecap="round" stroke-linejoin="round" stroke-width="3"><path fill="#000" fill-rule="evenodd" stroke="none" d="M8.38 3.576c-.453.113-.95.421-1.279.793-.209.237-.465.739-.547 1.071-.08.326-.08 12.794 0 13.12.175.713.701 1.372 1.334 1.674.582.277.416.266 4.112.266 2.672 0 3.384-.011 3.56-.054.713-.175 1.372-.701 1.674-1.334.284-.598.266-.11.266-7.112 0-5.193-.01-6.38-.054-6.56a2.64 2.64 0 0 0-1.629-1.81l-.237-.09-3.5-.007c-2.684-.006-3.547.004-3.7.043M1.516 6.577c-.689.262-1.09.925-.993 1.641.055.405.184.606.778 1.217L1.85 10l-.549.565c-.594.611-.723.812-.778 1.217-.016.12-.016.316 0 .436.055.405.184.606.778 1.217L1.85 14l-.549.565c-.594.611-.723.812-.778 1.217-.163 1.2 1.032 2.069 2.145 1.56.195-.09.411-.286 1.399-1.275.989-.988 1.185-1.204 1.275-1.399a1.58 1.58 0 0 0 .006-1.321c-.072-.158-.249-.371-.649-.782L4.15 12l.549-.565c.4-.411.577-.624.649-.782a1.58 1.58 0 0 0-.006-1.321c-.09-.196-.283-.406-1.274-1.393-1.376-1.37-1.41-1.393-2.028-1.408-.246-.006-.431.01-.524.046M14.48 12.02v5.5H9.52v-11h4.96zm7.036-5.443c-.313.119-.537.312-1.625 1.4-.948.948-1.146 1.166-1.234 1.358a1.58 1.58 0 0 0-.005 1.318c.072.158.249.371.649.782l.549.565-.549.565c-.4.411-.577.624-.649.782a1.58 1.58 0 0 0 .006 1.321c.09.195.286.411 1.275 1.399.988.989 1.204 1.185 1.399 1.275 1.113.509 2.308-.36 2.145-1.56-.055-.405-.184-.606-.778-1.217L22.15 14l.549-.565c.594-.611.723-.812.778-1.217.016-.12.016-.316 0-.436-.055-.405-.184-.606-.778-1.217L22.15 10l.549-.565c.594-.611.723-.812.778-1.217a1.5 1.5 0 0 0-.829-1.562c-.198-.101-.279-.117-.608-.125-.246-.006-.431.01-.524.046"/></svg>