<svg xmlns="http://www.w3.org/2000/svg" width="24" height="24" fill="none" stroke="currentColor" stroke-linecap="round" stroke-linejoin="round" stroke-width="3"><path fill="#000" fill-rule="evenodd" stroke="none" d="M3.44 4.547A3.56 3.56 0 0 0 .552 7.388c-.075.396-.075 8.828 0 9.224.221 1.168 1.036 2.177 2.116 2.617.707.288.306.271 6.332.271 4.955 0 5.445-.006 5.71-.068a3.7 3.7 0 0 0 1.798-1.004c.583-.61.884-1.274.974-2.151a5 5 0 0 1 .056-.429c.008-.007.704.446 1.548 1.007 1.099.731 1.602 1.042 1.774 1.098.729.239 1.445.08 2.005-.444.342-.32.551-.737.615-1.229.03-.234.04-1.645.032-4.54l-.012-4.2-.09-.263c-.112-.332-.346-.695-.574-.893a3 3 0 0 0-.516-.319l-.34-.165h-.96l-.34.164c-.187.091-.975.536-1.751.99s-1.417.826-1.424.826-.024-.125-.037-.277c-.112-1.34-1.131-2.544-2.515-2.972l-.293-.09-5.56-.006c-3.058-.003-5.605.003-5.66.012m10.904 3.109.136.136v8.402l-.103.122a.6.6 0 0 1-.25.163c-.203.056-10.051.056-10.254 0a.6.6 0 0 1-.25-.163l-.103-.122V7.792l.136-.136.136-.136h10.416zm6.136 4.247c0 1.315-.015 2.258-.036 2.25a95 95 0 0 1-1.479-.973l-1.443-.96.001-.44v-.44l1.449-.846a63 63 0 0 1 1.478-.85c.016-.002.03 1.015.03 2.259"/></svg>