<svg xmlns="http://www.w3.org/2000/svg" width="24" height="24" fill="none" stroke="currentColor" stroke-linecap="round" stroke-linejoin="round" stroke-width="3"><path fill="#000" fill-rule="evenodd" stroke="none" d="M3.44 2.547A3.56 3.56 0 0 0 .552 5.388c-.076.398-.076 12.826 0 13.224.221 1.168 1.036 2.177 2.116 2.617.719.293-.04.271 9.332.271 7.775 0 8.442-.005 8.71-.068a3.7 3.7 0 0 0 1.798-1.004c.573-.6.883-1.272.971-2.111.053-.509.053-12.125 0-12.634-.154-1.464-1.103-2.61-2.526-3.052l-.293-.091-8.56-.005c-4.708-.002-8.605.003-8.66.012m16.904 3.109c.135.135.136.139.136.5v.364H3.52v-.364c0-.361.001-.365.136-.5l.136-.136h16.416zm.136 8.201v4.337l-.103.122a.6.6 0 0 1-.25.163c-.204.056-16.05.056-16.254 0a.6.6 0 0 1-.25-.163l-.103-.122V9.52h16.96zM7.62 10.531c-1.522.166-2.788 1.338-3.061 2.833-.06.328-.06.944 0 1.272a3.56 3.56 0 0 0 2.109 2.593c.451.184.832.258 1.332.258s.881-.074 1.332-.258c1.369-.558 2.265-1.995 2.157-3.459l-.019-.25h1.044l-.001.43c-.003.762.176 1.379.569 1.967.672 1.003 1.724 1.57 2.918 1.57.933 0 1.747-.328 2.428-.979 1.061-1.013 1.359-2.592.75-3.969-.472-1.066-1.63-1.901-2.778-2.003-.398-.035-8.461-.04-8.78-.005m.724 3.125c.119.119.136.162.136.337 0 .242-.129.424-.343.483a.5.5 0 0 1-.514-.16c-.081-.096-.103-.166-.103-.323 0-.175.017-.218.136-.337s.161-.136.344-.136.224.016.344.136m8 0c.119.119.136.162.136.337 0 .242-.129.424-.343.483a.5.5 0 0 1-.514-.16c-.081-.096-.103-.166-.103-.323 0-.175.017-.218.136-.337s.161-.136.344-.136.224.016.344.136"/></svg>