<svg xmlns="http://www.w3.org/2000/svg" width="24" height="24" fill="none" stroke="currentColor" stroke-linecap="round" stroke-linejoin="round" stroke-width="3"><path fill="#000" fill-rule="evenodd" stroke="none" d="M1.516.577C.658.905.276 1.832.655 2.661c.083.182.28.403 1.043 1.174l.94.949-.229.112C1.47 5.355.755 6.314.552 7.388c-.075.396-.075 8.828 0 9.224.221 1.168 1.036 2.177 2.115 2.617.695.283.319.265 6.013.281 3.462.01 5.286.001 5.587-.028.727-.07 1.302-.288 1.849-.703l.296-.224 2.345 2.34c2.053 2.05 2.373 2.354 2.575 2.447a1.503 1.503 0 0 0 2.01-2.01c-.095-.21-1.076-1.202-10.274-10.395C1.635-.49 2.738.551 2.042.532c-.253-.007-.431.008-.526.045m8.593 4.039c-.565.235-.892.688-.938 1.304-.048.64.342 1.232.979 1.486.226.09.268.092 2.159.113l1.929.021.111.111.111.111.022 1.509c.021 1.45.025 1.518.113 1.739.299.755 1.09 1.154 1.825.921.145-.046.991-.516 2.135-1.184a152 152 0 0 1 1.91-1.107c.008 0 .015 1.435.015 3.19 0 2.037.016 3.284.043 3.45.081.503.377.906.829 1.129.245.12.297.131.648.131s.403-.011.648-.131a1.49 1.49 0 0 0 .832-1.15c.029-.19.039-1.617.031-4.499L23.5 7.54l-.09-.263c-.112-.332-.346-.695-.574-.893a3 3 0 0 0-.516-.319l-.34-.165h-.96l-.34.164c-.187.09-.974.536-1.75.99-.775.454-1.416.826-1.424.826a1.4 1.4 0 0 1-.038-.277c-.112-1.34-1.137-2.55-2.515-2.97-.285-.087-.349-.09-2.453-.101l-2.16-.012zm-.273 7.36 4.457 4.457-.157.043c-.211.059-10.052.061-10.263.003a.6.6 0 0 1-.25-.163l-.103-.122V7.792l.136-.136.136-.136H5.38z"/></svg>