<svg xmlns="http://www.w3.org/2000/svg" width="24" height="24" fill="none" stroke="currentColor" stroke-linecap="round" stroke-linejoin="round" stroke-width="3"><path fill="#000" fill-rule="evenodd" stroke="none" d="M5.081 6.583c-2.049.374-3.664 1.77-4.303 3.721a5.49 5.49 0 0 0 3.526 6.918c.897.294.449.278 7.696.278s6.799.016 7.696-.278a5.49 5.49 0 0 0 3.526-6.918c-.932-2.847-3.908-4.402-6.812-3.56-1.38.4-2.616 1.427-3.285 2.731a5.5 5.5 0 0 0-.349 4.216c.076.231.175.493.221.583a1 1 0 0 1 .083.204q0 .042-1.08.042t-1.08-.042c0-.022.037-.115.083-.204a6 6 0 0 0 .221-.583 5.5 5.5 0 0 0-1.34-5.571c-.831-.826-1.815-1.332-2.994-1.538-.431-.076-1.391-.075-1.809.001m1.736 3.05a2.65 2.65 0 0 1 1.553 1.55c.076.205.088.316.088.817s-.012.612-.088.817a2.56 2.56 0 0 1-.638.969 2.4 2.4 0 0 1-1.092.635c-.286.076-.994.076-1.28 0-.773-.206-1.45-.834-1.726-1.604-.108-.299-.146-.987-.075-1.347.171-.872.938-1.674 1.812-1.895.328-.083 1.149-.05 1.446.058m12 0a2.65 2.65 0 0 1 1.553 1.55c.076.205.088.316.088.817s-.012.612-.088.817a2.56 2.56 0 0 1-.638.969 2.4 2.4 0 0 1-1.092.635c-.286.076-.994.076-1.28 0-.773-.206-1.45-.834-1.726-1.604-.108-.299-.146-.987-.075-1.347.171-.872.938-1.674 1.812-1.895.328-.083 1.149-.05 1.446.058"/></svg>