<svg xmlns="http://www.w3.org/2000/svg" width="24" height="24" fill="none" stroke="currentColor" stroke-linecap="round" stroke-linejoin="round" stroke-width="3"><path fill="#000" fill-rule="evenodd" stroke="none" d="M10.486 3.598a2 2 0 0 0-.26.113c-.025.018-1.11.883-2.41 1.92L5.453 7.518l-1.937.011-1.936.011-.228.116c-.473.239-.763.65-.837 1.183-.023.164-.034 1.541-.027 3.369L.5 15.3l.105.248q.25.597.847.847l.248.105 1.903.013 1.903.012 2.368 1.894c1.381 1.104 2.438 1.921 2.537 1.961.297.119.575.144.88.08.342-.071.555-.192.802-.456.22-.235.33-.468.386-.816.052-.317.055-14.023.003-14.378a1.51 1.51 0 0 0-.831-1.153c-.304-.153-.838-.181-1.165-.059m4.728 3.401c-.424.09-.845.438-1.042.861-.097.207-.112.289-.111.6 0 .452.094.682.441 1.081.348.399.515.642.675.982.239.505.283.734.283 1.477 0 .57-.013.703-.092.98-.153.53-.354.862-.971 1.6a1.463 1.463 0 0 0 .144 2.054c.295.269.581.377.999.377.508 0 .72-.1 1.16-.548.907-.925 1.501-2.123 1.727-3.482.073-.44.081-1.442.015-1.881a7 7 0 0 0-.595-1.94c-.405-.851-1.219-1.847-1.679-2.053a1.8 1.8 0 0 0-.954-.108M9.47 13.924l-.01 1.923-1.336-1.067c-.735-.587-1.419-1.107-1.52-1.154-.176-.082-.247-.087-1.634-.098l-1.45-.012V10.52h1.21c1.252-.001 1.582-.028 1.882-.157.097-.041.777-.556 1.512-1.143L9.46 8.153l.01 1.923c.006 1.058.006 2.79 0 3.848"/></svg>