<svg xmlns="http://www.w3.org/2000/svg" width="24" height="24" fill="none" stroke="currentColor" stroke-linecap="round" stroke-linejoin="round" stroke-width="3"><path fill="#000" fill-rule="evenodd" stroke="none" d="M10.486 3.598a2 2 0 0 0-.26.113c-.025.018-1.11.883-2.41 1.92L5.453 7.518l-1.937.011-1.936.011-.228.116c-.473.239-.763.65-.837 1.183-.023.164-.034 1.541-.027 3.369L.5 15.3l.105.248q.25.597.847.847l.248.105 1.903.013 1.903.012 2.368 1.894c1.381 1.104 2.438 1.921 2.537 1.961.297.119.575.144.88.08.342-.071.555-.192.802-.456.22-.235.33-.468.386-.816.052-.317.055-14.023.003-14.378a1.51 1.51 0 0 0-.831-1.153c-.304-.153-.838-.181-1.165-.059m5.03 3.979a1.52 1.52 0 0 0-.86 2.085c.084.185.289.413 1.15 1.282L16.854 12l-1.048 1.056c-1.131 1.141-1.22 1.261-1.283 1.726-.162 1.197 1.032 2.069 2.139 1.562.185-.084.413-.289 1.282-1.15L19 14.146l1.056 1.048c.869.861 1.097 1.066 1.282 1.15 1.107.507 2.301-.365 2.139-1.562-.063-.465-.152-.585-1.283-1.726L21.146 12l1.048-1.056c.861-.869 1.066-1.097 1.15-1.282.352-.769.055-1.626-.696-2.006-.208-.106-.264-.116-.648-.116-.647 0-.68.022-1.95 1.276L19 9.854l-1.05-1.038c-1.247-1.232-1.304-1.271-1.91-1.285-.246-.006-.431.01-.524.046M9.47 13.924l-.01 1.923-1.336-1.067c-.735-.587-1.419-1.107-1.52-1.154-.176-.082-.247-.087-1.634-.098l-1.45-.012V10.52h1.21c1.252-.001 1.582-.028 1.882-.157.097-.041.777-.556 1.512-1.143L9.46 8.153l.01 1.923c.006 1.058.006 2.79 0 3.848"/></svg>