<svg xmlns="http://www.w3.org/2000/svg" width="24" height="24" fill="none" stroke="currentColor" stroke-linecap="round" stroke-linejoin="round" stroke-width="3"><path fill="#000" fill-rule="evenodd" stroke="none" d="M6.44 3.547a3.55 3.55 0 0 0-2.815 2.539c-.132.46-.144.965-.144 6.202l-.001 5.228-.95.012-.95.012-.228.116a1.51 1.51 0 0 0-.829 1.126 1.494 1.494 0 0 0 1.287 1.7c.331.048 20.049.048 20.38 0a1.494 1.494 0 0 0 1.287-1.7 1.51 1.51 0 0 0-.829-1.126l-.228-.116-.95-.013-.95-.012-.001-5.228c0-3.174-.016-5.375-.04-5.604-.154-1.464-1.104-2.612-2.526-3.052l-.293-.09-5.56-.006c-3.058-.003-5.605.003-5.66.012m10.904 3.109.136.136V17.48H6.52V6.792l.136-.136.136-.136h10.416zm-2.828 1.921c-.317.12-.553.33-2.004 1.775l-1.508 1.502-.553-.537c-.723-.702-.863-.777-1.451-.777-.384 0-.44.01-.648.116-.754.381-1.048 1.237-.694 2.012.09.195.286.411 1.275 1.399.988.989 1.204 1.185 1.399 1.275.432.197.903.197 1.336 0 .203-.093.499-.373 2.4-2.274s2.181-2.197 2.274-2.4c.354-.776.06-1.63-.694-2.012-.198-.101-.279-.117-.608-.125-.246-.006-.431.01-.524.046"/></svg>