<svg xmlns="http://www.w3.org/2000/svg" width="24" height="24" fill="none" stroke="currentColor" stroke-linecap="round" stroke-linejoin="round" stroke-width="3"><path fill="#000" fill-rule="evenodd" stroke="none" d="M4.44 1.547a3.56 3.56 0 0 0-2.888 2.841c-.076.399-.076 14.825 0 15.224.221 1.168 1.036 2.177 2.116 2.617.716.292.076.271 8.332.271 6.835 0 7.443-.005 7.71-.068a3.7 3.7 0 0 0 1.798-1.004c.573-.6.883-1.272.971-2.111.054-.511.054-14.123 0-14.634-.154-1.464-1.103-2.611-2.526-3.052l-.293-.091-7.56-.005c-4.158-.002-7.605.003-7.66.012m14.904 3.109c.135.135.136.139.136.5v.364H4.52v-.364c0-.361.001-.365.136-.5l.136-.136h14.416zm0 4c.135.135.136.139.136.5v.364h-.916c-.987 0-1.274.034-1.819.217-.603.203-1.114.502-1.7.998-1.327 1.121-1.58 1.326-1.792 1.451-.756.444-1.845.401-2.559-.101-.183-.13-1.121-.914-1.87-1.564a3.9 3.9 0 0 0-1.147-.694c-.635-.255-.818-.281-2.047-.298l-1.11-.016v-.36c0-.357.001-.362.136-.497l.136-.136h14.416zM6.625 12.628c.091.049.243.164.339.256.177.17 1.192 1.021 1.727 1.447 1.645 1.312 3.978 1.532 5.853.552.499-.261.721-.415 1.258-.871 1.075-.912 1.494-1.238 1.749-1.362l.267-.13h1.662v6.674l-.103.122a.6.6 0 0 1-.25.163c-.204.056-14.05.056-14.254 0a.6.6 0 0 1-.25-.163l-.103-.122v-6.679l.97.012c.91.012.98.018 1.135.101"/></svg>