<svg xmlns="http://www.w3.org/2000/svg" width="24" height="24" fill="none" stroke="currentColor" stroke-linecap="round" stroke-linejoin="round" stroke-width="3"><path fill="#000" fill-rule="evenodd" stroke="none" d="M4.44 1.547a3.56 3.56 0 0 0-2.888 2.841c-.076.399-.076 14.825 0 15.224.221 1.168 1.036 2.177 2.116 2.617.718.292.023.271 8.792.271 6.487 0 7.919-.01 8.1-.054a2.62 2.62 0 0 0 1.867-1.806c.053-.183.067-.51.082-1.928l.018-1.708.277-.286c.299-.308.54-.742.642-1.158.077-.313.077-2.807 0-3.12a2.64 2.64 0 0 0-.642-1.158l-.277-.286-.018-1.708c-.019-1.887-.02-1.891-.291-2.44-.262-.531-.889-1.061-1.457-1.231l-.231-.069-.022-.984c-.015-.715-.038-1.044-.084-1.204a2.63 2.63 0 0 0-1.607-1.73l-.237-.09-7.02-.005c-3.861-.002-7.065.003-7.12.012M17.48 5.02v.5h-6.23c-4.126 0-6.28-.014-6.377-.041-.224-.062-.353-.241-.353-.486 0-.175.017-.218.136-.337l.136-.136H17.48zm-5.174 3.5h7.174v1.993l-1.07.017c-.955.015-1.101.026-1.363.104-1.28.383-2.254 1.452-2.488 2.73-.06.328-.06.944 0 1.272a3.56 3.56 0 0 0 2.108 2.593c.535.218.773.254 1.843.279l.97.023v1.989h-7.23c-4.808 0-7.279-.014-7.377-.041a.6.6 0 0 1-.25-.163l-.103-.122V8.468l.306.026c.168.014 3.534.026 7.48.026m8.174 5.5v.5h-1.23c-.716 0-1.292-.018-1.377-.041-.224-.062-.353-.241-.353-.486 0-.175.017-.218.136-.337l.136-.136h2.688z"/></svg>