<svg xmlns="http://www.w3.org/2000/svg" width="24" height="24" fill="none" stroke="currentColor" stroke-linecap="round" stroke-linejoin="round" stroke-width="3"><path fill="#000" fill-rule="evenodd" stroke="none" d="M3.44 1.547A3.56 3.56 0 0 0 .552 4.388c-.076.397-.076 10.827 0 11.224.221 1.168 1.036 2.177 2.115 2.617.674.274.509.264 4.343.28l3.47.015v.993l-1.45.012-1.45.011-.228.116a1.51 1.51 0 0 0-.829 1.126 1.494 1.494 0 0 0 1.287 1.7c.326.047 8.054.047 8.38 0a1.494 1.494 0 0 0 1.287-1.7 1.51 1.51 0 0 0-.829-1.126l-.228-.116-1.45-.012-1.45-.012v-.992l3.47-.015c3.837-.016 3.668-.005 4.346-.282a3.6 3.6 0 0 0 1.575-1.293 3.5 3.5 0 0 0 .568-1.617c.053-.506.053-10.128 0-10.634-.154-1.464-1.103-2.61-2.526-3.052l-.293-.091-8.56-.005c-4.708-.002-8.605.003-8.66.012m16.904 3.109.136.136v6.541l-.83-.819c-.906-.893-1.132-1.078-1.606-1.315-.541-.269-.852-.337-1.544-.337-.503 0-.651.014-.914.09a4.3 4.3 0 0 0-1.176.572c-.126.092-1.545 1.479-3.151 3.082L8.338 15.52H6.179c-1.349 0-2.214-.016-2.306-.041a.6.6 0 0 1-.25-.163l-.103-.122V4.792l.136-.136.136-.136h16.416zM7.44 5.545c-.77.148-1.465.517-1.966 1.044A3.42 3.42 0 0 0 4.512 9c0 .715.187 1.345.57 1.917a3.56 3.56 0 0 0 2.208 1.509 4.3 4.3 0 0 0 1.42 0 3.513 3.513 0 0 0 2.765-3.772c-.123-1.217-.83-2.232-1.942-2.788-.479-.24-.797-.313-1.433-.327a7 7 0 0 0-.66.006m.904 3.111c.119.119.136.162.136.337 0 .157-.022.227-.103.323a.5.5 0 0 1-.514.16c-.214-.059-.343-.241-.343-.483 0-.175.017-.218.136-.337S7.817 8.52 8 8.52s.224.016.344.136m10.152 4.98 1.797 1.797-.156.043c-.108.03-1.31.044-3.837.044h-3.68l1.841-1.84 1.841-1.84h.396z"/></svg>