<svg xmlns="http://www.w3.org/2000/svg" width="24" height="24" fill="none" stroke="currentColor" stroke-linecap="round" stroke-linejoin="round" stroke-width="3"><path fill="#000" fill-rule="evenodd" stroke="none" d="M9.516.577c-.369.141-.711.446-.862.769-.081.173-.13.223-.313.315a1.494 1.494 0 0 0-.396 2.394c.107.108.289.239.403.292.178.083.222.127.305.305.265.569.917.913 1.565.825a1.53 1.53 0 0 0 1.129-.825c.083-.178.127-.222.305-.305.114-.053.296-.184.403-.292a1.494 1.494 0 0 0-.396-2.394c-.183-.092-.232-.142-.313-.315-.121-.261-.405-.542-.696-.689-.195-.099-.28-.116-.608-.125q-.382-.01-.526.045M18.84.58a2.7 2.7 0 0 0-.833.366C17.769 1.1 1.838 16.975 1.238 17.655.706 18.26.513 18.75.513 19.5c0 .746.198 1.247.738 1.863.457.521 1.594 1.602 1.845 1.752.684.411 1.579.5 2.321.23.358-.13.558-.256.944-.597.187-.165 4.002-3.969 8.48-8.454 6.219-6.229 8.172-8.208 8.275-8.384.495-.849.509-1.947.034-2.756-.209-.356-1.482-1.682-2.023-2.106a2.7 2.7 0 0 0-.971-.466C19.841.507 19.142.507 18.84.58m-.16 5.599L17 7.86l-.43-.43-.43-.43 1.68-1.68 1.679-1.68.431.43.431.429zM4.516 4.577c-.371.142-.711.446-.864.773-.106.228-.17.576-.171.937l-.001.226-.45.014c-.402.012-.474.025-.678.129-.93.471-1.133 1.673-.407 2.399.315.316.731.462 1.319.464l.204.001.027.405c.039.599.179.904.576 1.25.473.413 1.385.413 1.858 0 .397-.346.537-.651.576-1.25l.027-.405.204-.001c.588-.002 1.004-.148 1.319-.464.726-.726.522-1.929-.407-2.399-.203-.103-.277-.117-.678-.13l-.45-.015-.001-.225c-.003-.811-.28-1.331-.869-1.629-.195-.099-.28-.116-.608-.125-.253-.007-.431.008-.526.045M14.44 9.58l.419.421L9.68 15.18l-5.179 5.179-.431-.429-.431-.429L8.81 14.33c2.843-2.843 5.179-5.17 5.191-5.17s.209.189.439.42m4.076 2.997c-.371.142-.711.446-.864.773-.106.228-.17.576-.171.937l-.001.226-.45.014c-.402.012-.474.025-.678.129-.93.471-1.133 1.673-.407 2.399.315.316.731.462 1.319.464l.204.001.027.405c.039.599.179.904.576 1.25.473.413 1.385.413 1.858 0 .397-.346.537-.651.576-1.25l.027-.405.204-.001c.588-.002 1.004-.148 1.319-.464.726-.726.522-1.929-.407-2.399-.203-.103-.277-.117-.678-.13l-.45-.015-.001-.225c-.003-.811-.28-1.331-.869-1.629-.195-.099-.28-.116-.608-.125-.253-.007-.431.008-.526.045"/></svg>