<svg xmlns="http://www.w3.org/2000/svg" width="24" height="24" fill="none" stroke="currentColor" stroke-linecap="round" stroke-linejoin="round" stroke-width="3"><path fill="#000" fill-rule="evenodd" stroke="none" d="M14.516.577c-.371.142-.711.446-.864.774-.149.319-.181.681-.164 1.869.015 1.052.018 1.086.118 1.328.246.593.759.938 1.394.938s1.148-.345 1.394-.938c.1-.242.103-.276.118-1.328.017-1.187-.015-1.549-.163-1.869-.124-.266-.406-.546-.699-.694-.195-.099-.28-.116-.608-.125q-.382-.01-.526.045m-4 3a1.52 1.52 0 0 0-.859 2.088c.085.185.252.375.877 1.001.626.625.816.792 1.001.877a1.503 1.503 0 0 0 2.008-2.008c-.085-.186-.248-.371-.874-.993-.935-.93-1.044-.997-1.629-1.011-.246-.006-.431.01-.524.046m8 0c-.298.113-.515.291-1.227 1.004-.582.583-.751.778-.833.957a1.503 1.503 0 0 0 2.009 2.005c.185-.085.375-.252 1.001-.877.625-.626.792-.816.877-1.001.353-.772.058-1.628-.695-2.009-.198-.101-.279-.117-.608-.125-.246-.006-.431.01-.524.046m-11 4.001c-.531.199-.921.672-.993 1.204a1.494 1.494 0 0 0 1.287 1.7c.138.02.673.036 1.19.036s1.052-.016 1.19-.036a1.494 1.494 0 0 0 1.287-1.7 1.51 1.51 0 0 0-.829-1.126l-.228-.116-1.38-.008c-1.079-.007-1.412.003-1.524.046m7-.001c-1.049.399-1.349 1.701-.571 2.478.58.58 1.53.583 2.107.007a1.47 1.47 0 0 0 0-2.124c-.292-.292-.55-.395-1.012-.407-.247-.006-.431.01-.524.046m5 .001c-.531.199-.921.672-.993 1.204a1.494 1.494 0 0 0 1.287 1.7c.138.02.673.036 1.19.036s1.052-.016 1.19-.036a1.494 1.494 0 0 0 1.287-1.7 1.51 1.51 0 0 0-.829-1.126l-.228-.116-1.38-.008c-1.079-.007-1.412.003-1.524.046m-2.2 2.799c-.86.329-1.24 1.255-.859 2.088.085.185.252.375.877 1.001.626.625.816.792 1.001.877a1.503 1.503 0 0 0 2.008-2.008c-.085-.186-.248-.371-.874-.993-.934-.928-1.04-.994-1.627-1.01-.253-.007-.431.008-.526.045m-5.8.2a2.3 2.3 0 0 0-.32.163c-.097.059-2.259 2.19-4.804 4.734-4.143 4.141-4.639 4.65-4.734 4.858a1.503 1.503 0 0 0 2.01 2.01c.208-.094.72-.593 4.9-4.774 4.181-4.18 4.68-4.692 4.774-4.9.354-.777.06-1.631-.692-2.011-.195-.099-.28-.116-.608-.125q-.382-.01-.526.045m3 2c-.371.142-.711.446-.864.774-.149.319-.181.681-.164 1.869.015 1.052.018 1.086.118 1.328.246.593.759.938 1.394.938s1.148-.345 1.394-.938c.1-.242.103-.276.118-1.328.017-1.187-.015-1.549-.163-1.869-.124-.266-.406-.546-.699-.694-.195-.099-.28-.116-.608-.125q-.382-.01-.526.045"/></svg>