<svg xmlns="http://www.w3.org/2000/svg" width="24" height="24" fill="none" stroke="currentColor" stroke-linecap="round" stroke-linejoin="round" stroke-width="3"><path fill="#000" fill-rule="evenodd" stroke="none" d="M11.592 1.68a4 4 0 0 0-.5.1c-.441.129-8.633 3.429-8.908 3.589-.579.338-1.152 1.008-1.412 1.651C.481 7.737.5 7.238.5 14.14c0 4.892.011 6.257.052 6.472.221 1.168 1.036 2.177 2.116 2.617.719.293-.04.271 9.332.271 7.775 0 8.442-.005 8.71-.068 1.298-.303 2.276-1.216 2.65-2.47.156-.526.164-.886.151-7.102l-.012-6-.088-.309c-.27-.954-.849-1.746-1.596-2.182-.328-.191-8.591-3.506-8.995-3.608a3.9 3.9 0 0 0-1.228-.081M16.2 6.302c3.308 1.321 4.08 1.644 4.17 1.74l.11.119v12.033l-.103.122c-.12.142-.307.203-.627.204h-.23l-.001-5.23c0-2.895-.017-5.341-.037-5.48a1.51 1.51 0 0 0-.834-1.154l-.228-.116H5.58l-.228.116a1.51 1.51 0 0 0-.834 1.154c-.02.139-.037 2.585-.037 5.48l-.001 5.23h-.23c-.32-.001-.507-.062-.627-.204l-.103-.122V8.153l.13-.125c.104-.099.949-.452 4.15-1.732 2.802-1.122 4.069-1.61 4.18-1.612.123-.003 1.107.374 4.22 1.618m.28 5.718v.5H7.52v-1h8.96zm0 4v.5H7.52v-1h8.96zm0 3.98v.48H7.52v-.96h8.96z"/></svg>