<svg xmlns="http://www.w3.org/2000/svg" width="24" height="24" fill="none" stroke="currentColor" stroke-linecap="round" stroke-linejoin="round" stroke-width="3"><path fill="#000" fill-rule="evenodd" stroke="none" d="M4.44.547a3.56 3.56 0 0 0-2.888 2.841c-.076.399-.076 16.825 0 17.224.221 1.168 1.036 2.177 2.116 2.617.716.292.076.271 8.332.271 6.835 0 7.443-.005 7.71-.068a3.7 3.7 0 0 0 1.798-1.004c.573-.6.883-1.272.971-2.111.054-.512.054-16.122 0-16.634-.154-1.464-1.103-2.611-2.526-3.052L19.66.54 12.1.535C7.942.533 4.495.538 4.44.547m14.904 3.109.136.136v16.402l-.103.122a.6.6 0 0 1-.25.163c-.204.056-14.05.056-14.254 0a.6.6 0 0 1-.25-.163l-.103-.122V7.52l.71-.001c.39 0 .822-.017.96-.037a1.494 1.494 0 0 0 1.287-1.7 1.51 1.51 0 0 0-.829-1.126L6.42 4.54l-.95-.013-.95-.012v-.362c0-.357.001-.362.136-.497l.136-.136h14.416zm-2.828.921c-1.049.399-1.349 1.701-.571 2.478.58.58 1.53.583 2.107.007a1.47 1.47 0 0 0 0-2.124c-.292-.292-.55-.395-1.012-.407-.247-.006-.431.01-.524.046M11.72 6.506c-1.683.118-3.057.709-4.214 1.813a6.5 6.5 0 0 0-1.929 3.701 7.6 7.6 0 0 0 .02 2.067 6.484 6.484 0 0 0 6.383 5.399c2.509.005 4.721-1.368 5.855-3.634.68-1.358.841-3.092.426-4.568-.646-2.297-2.403-4.011-4.694-4.58-.571-.142-1.391-.23-1.847-.198m1.032 3.077c.641.13 1.193.439 1.71.955.725.725 1.035 1.492 1.009 2.497l-.011.456-.138-.213a4 4 0 0 0-.4-.491c-.719-.764-1.591-1.179-2.663-1.266-.55-.044-.733-.102-.933-.293-.222-.213-.304-.409-.304-.728 0-.209.022-.321.086-.44.107-.201.31-.398.492-.476.187-.081.757-.082 1.152-.001m-4.07 3.147c.213.328.743.855 1.097 1.089.604.399 1.187.596 1.961.664.586.051.706.087.908.269.242.219.33.417.33.748 0 .319-.082.515-.304.728-.206.197-.381.252-.803.252-.892-.001-1.747-.382-2.392-1.066-.671-.712-.959-1.443-.959-2.432 0-.254.006-.462.013-.462.008 0 .075.095.149.21"/></svg>