<svg xmlns="http://www.w3.org/2000/svg" width="24" height="24" fill="none" stroke="currentColor" stroke-linecap="round" stroke-linejoin="round" stroke-width="3"><path fill="#000" fill-rule="evenodd" stroke="none" d="M9.84.581C8.753.817 7.754 1.665 7.359 2.688c-.134.348-.184.58-.62 2.852-.261 1.361-.272 1.404-.398 1.54a7 7 0 0 0-.706.964c-1 1.612-1.362 3.593-.991 5.416.245 1.202.832 2.428 1.599 3.339l.252.298.373 1.862c.205 1.023.411 1.978.458 2.121.18.55.445.965.88 1.383.474.455.876.692 1.502.885l.352.108 1.78.015c1.894.016 2.183-.002 2.669-.167.876-.298 1.652-.958 2.051-1.743.184-.363.285-.765.661-2.645l.384-1.92.292-.374c1.781-2.278 2.103-5.384.822-7.936a7.7 7.7 0 0 0-.957-1.478l-.245-.291-.378-1.879c-.46-2.291-.54-2.553-.951-3.099A3.7 3.7 0 0 0 14.32.627c-.247-.079-.358-.084-2.24-.093-1.584-.008-2.032.002-2.24.047m3.819 3.035c.074.057.144.16.171.25.073.251.183.854.16.877-.012.012-.127-.005-.256-.038-.967-.248-2.44-.248-3.466-.001-.149.036-.281.056-.292.045-.026-.025.121-.807.18-.959a.5.5 0 0 1 .173-.19c.125-.076.202-.08 1.667-.08h1.536zm-.5 4.042c.424.118.999.377 1.349.608.301.199.85.724 1.101 1.054.268.351.605 1.053.74 1.54.102.37.11.455.11 1.14 0 .686-.008.769-.11 1.138-.36 1.289-1.196 2.314-2.359 2.89a4.3 4.3 0 0 1-1.99.459c-1.46 0-2.747-.656-3.65-1.859-.236-.316-.577-1.04-.7-1.488-.101-.369-.109-.458-.109-1.14 0-.685.008-.77.11-1.14.135-.488.472-1.19.74-1.54.237-.31.665-.734.969-.962.301-.225 1.033-.577 1.417-.681.515-.139.65-.153 1.343-.139.563.012.716.03 1.039.12m-1.643.919a1.54 1.54 0 0 0-.998 1.233c-.05.343-.047 2.07.004 2.39.072.459.191.634.921 1.37.531.534.712.69.893.773 1.109.508 2.304-.363 2.141-1.561-.049-.358-.192-.607-.591-1.028l-.366-.386-.001-.654c0-.36-.017-.766-.037-.904a1.51 1.51 0 0 0-.832-1.153c-.195-.099-.28-.116-.608-.125q-.382-.01-.526.045m2.483 11.126c-.103.525-.187.668-.432.736-.087.024-.719.041-1.558.041-1.524 0-1.596-.009-1.756-.213-.075-.095-.284-.97-.242-1.012.009-.009.168.019.353.062 1.048.245 2.401.233 3.416-.032.154-.04.287-.067.295-.06s-.025.222-.076.478"/></svg>