<svg xmlns="http://www.w3.org/2000/svg" width="24" height="24" fill="none" stroke="currentColor" stroke-linecap="round" stroke-linejoin="round" stroke-width="3"><path fill="#000" fill-rule="evenodd" stroke="none" d="M8.58 3.582c-.874.148-1.46.44-2.566 1.282-.28.213-.603.43-.716.482-.394.181-1.048.197-1.525.038-.109-.036-.39-.212-.646-.404-.543-.407-.737-.478-1.223-.452-.43.024-.702.153-.998.472-.308.333-.398.587-.378 1.062.012.294.036.405.125.587.217.444 1.146 1.166 1.907 1.483.972.404 2.236.474 3.309.183.687-.187 1.06-.39 1.991-1.088.839-.629.948-.678 1.547-.7.637-.023.886.053 1.353.412.876.673 1.026.783 1.272.927.738.431 1.509.624 2.488.622a4.8 4.8 0 0 0 1.922-.369c.403-.166.689-.346 1.418-.892.839-.629.948-.678 1.547-.7.656-.024.88.049 1.413.456.459.351.646.446.981.5.285.046.683-.031.939-.181.222-.13.527-.465.633-.693.072-.156.087-.262.087-.609 0-.379-.011-.442-.112-.648-.134-.273-.509-.635-1.019-.983-.875-.598-1.705-.849-2.809-.849-.615 0-1.119.071-1.581.221-.621.203-1.027.44-1.925 1.123-.28.213-.603.43-.716.482-.518.237-1.404.182-1.831-.112-.07-.049-.325-.244-.567-.435-.977-.769-1.567-1.058-2.48-1.216-.441-.077-1.389-.077-1.84-.001m0 6c-.874.148-1.46.44-2.566 1.282-.28.213-.603.43-.716.482-.394.181-1.048.197-1.525.038-.109-.036-.39-.212-.646-.404-.543-.407-.737-.478-1.223-.452-.43.024-.702.153-.998.472-.308.333-.398.587-.378 1.062.012.294.036.405.125.587.217.444 1.146 1.166 1.907 1.483.972.404 2.236.474 3.309.183.687-.187 1.06-.39 1.991-1.088.839-.629.948-.678 1.547-.7.637-.023.886.053 1.353.412.876.673 1.026.783 1.272.927.738.431 1.509.624 2.488.622a4.8 4.8 0 0 0 1.922-.369c.403-.166.689-.346 1.418-.892.839-.629.948-.678 1.547-.7.656-.024.88.049 1.413.456.459.351.646.446.981.5.285.046.683-.031.939-.181.222-.13.527-.465.633-.693.072-.156.087-.262.087-.609 0-.379-.011-.442-.112-.648-.134-.273-.509-.635-1.019-.983-.875-.598-1.705-.849-2.809-.849-.615 0-1.119.071-1.581.221-.621.203-1.027.44-1.925 1.123-.28.213-.603.43-.716.482-.518.237-1.404.182-1.831-.112-.07-.049-.325-.244-.567-.435-.977-.769-1.567-1.058-2.48-1.216-.441-.077-1.389-.077-1.84-.001m0 6c-.874.148-1.46.44-2.566 1.282-.28.213-.603.43-.716.482-.394.181-1.048.197-1.525.038-.109-.036-.39-.212-.646-.404-.543-.407-.737-.478-1.223-.452-.43.024-.702.153-.998.472-.308.333-.398.587-.378 1.062.012.294.036.405.125.587.217.444 1.146 1.166 1.907 1.483.972.404 2.236.474 3.309.183.687-.187 1.06-.39 1.991-1.088.839-.629.948-.678 1.547-.7.637-.023.886.053 1.353.412.876.673 1.026.783 1.272.927.738.431 1.509.624 2.488.622a4.8 4.8 0 0 0 1.922-.369c.403-.166.689-.346 1.418-.892.839-.629.948-.678 1.547-.7.656-.024.88.049 1.413.456.459.351.646.446.981.5.285.046.683-.031.939-.181.222-.13.527-.465.633-.693.072-.156.087-.262.087-.609 0-.379-.011-.442-.112-.648-.134-.273-.509-.635-1.019-.983-.875-.598-1.705-.849-2.809-.849-.615 0-1.119.071-1.581.221-.621.203-1.027.44-1.925 1.123-.28.213-.603.43-.716.482-.518.237-1.404.182-1.831-.112-.07-.049-.325-.244-.567-.435-.977-.769-1.567-1.058-2.48-1.216-.441-.077-1.389-.077-1.84-.001"/></svg>