<svg xmlns="http://www.w3.org/2000/svg" width="24" height="24" fill="none" stroke="currentColor" stroke-linecap="round" stroke-linejoin="round" stroke-width="3"><path fill="#000" fill-rule="evenodd" stroke="none" d="M11.306.559c-1.158.21-2.241.986-2.804 2.009-.542.986-.65 2.214-.283 3.22l.099.272-1.13 1.131-1.131 1.132-.15-.063c-.625-.261-1.679-.319-2.387-.13-1.923.51-3.176 2.282-2.995 4.236a4.01 4.01 0 0 0 3.99 3.633 4.1 4.1 0 0 0 2.398-.814c.494-.382.985-.986 1.199-1.475l.084-.19h3.802c2.091 0 3.802.014 3.802.03 0 .017-.501.532-1.114 1.144l-1.114 1.113-.328-.103c-.49-.155-.837-.197-1.444-.173-.42.017-.618.045-.892.125a4.04 4.04 0 0 0-2.848 3.17c-.397 2.279 1.261 4.436 3.574 4.649 2.077.192 3.936-1.238 4.309-3.315a3.95 3.95 0 0 0-.156-1.92l-.102-.3 1.127-1.129 1.128-1.129.272.099c1.19.434 2.678.194 3.701-.596 1.912-1.479 2.122-4.238.452-5.959a4 4 0 0 0-1.885-1.097c-.326-.087-.465-.101-.98-.101s-.654.014-.98.101a4.04 4.04 0 0 0-2.59 2.076l-.15.295-3.758.01c-2.53.007-3.771-.003-3.799-.031-.055-.055 2.171-2.289 2.257-2.265l.414.121a4.1 4.1 0 0 0 2.14.024A4.014 4.014 0 0 0 15.997 4.5c0-1.771-1.178-3.329-2.905-3.844-.3-.089-.444-.107-.972-.118a6 6 0 0 0-.814.021m1.085 3.023c.189.079.392.272.501.478.064.119.086.231.086.44 0 .319-.082.515-.304.728a.94.94 0 0 1-.674.26.94.94 0 0 1-.674-.26c-.222-.213-.304-.409-.304-.728 0-.209.022-.321.086-.44.107-.201.31-.398.492-.476.183-.08.603-.081.791-.002m-7.444 7.531c.186.095.399.323.478.513.03.072.055.241.055.374 0 .286-.061.45-.245.659a.97.97 0 0 1-1.135.246q-.58-.276-.58-.905c0-.466.259-.814.72-.965.159-.052.531-.011.707.078m15 0c.186.095.399.323.478.513.071.169.071.579 0 .748-.215.514-.835.762-1.325.531q-.58-.276-.58-.905c0-.466.259-.814.72-.965.159-.052.531-.011.707.078m-7.556 7.469c.189.079.392.272.501.478.064.119.086.231.086.44 0 .319-.082.515-.304.728a.94.94 0 0 1-.674.26.94.94 0 0 1-.674-.26c-.222-.213-.304-.409-.304-.728 0-.209.022-.321.086-.44.107-.201.31-.398.492-.476.183-.08.603-.081.791-.002"/></svg>