<svg xmlns="http://www.w3.org/2000/svg" width="24" height="24" fill="none" stroke="currentColor" stroke-width="2" stroke-linecap="round" stroke-linejoin="round" class="lucide lucide-waypoints"><path d="M11.58 1.024c-.879.129-1.766.618-2.286 1.262a3.8 3.8 0 0 0-.57.994c-.329.89-.274 1.967.141 2.769l.063.123-1.374 1.374c-.756.756-1.392 1.367-1.414 1.357a4.698 4.698 0 0 0-.919-.321c-.375-.078-1.076-.079-1.439-.002-1.856.393-3.071 2.208-2.719 4.061A3.48 3.48 0 0 0 4.5 15.487a3.48 3.48 0 0 0 3.265-2.237L7.86 13h8.28l.135.345.136.344-1.355 1.355c-.746.746-1.376 1.356-1.4 1.356-.025 0-.16-.052-.3-.115-.398-.18-.83-.264-1.356-.264-.593 0-.983.088-1.506.341-1.244.6-1.982 1.769-1.982 3.138.001.863.283 1.631.835 2.27a3.482 3.482 0 0 0 5.306 0 3.388 3.388 0 0 0 .834-2.27c0-.586-.093-.979-.39-1.64-.01-.022.601-.658 1.357-1.414l1.374-1.374.123.063c.816.423 1.926.471 2.813.123A3.53 3.53 0 0 0 23 12c0-1.636-1.174-3.079-2.782-3.42-.357-.075-1.079-.075-1.436 0-1.152.244-2.138 1.084-2.547 2.17l-.095.25H7.86l-.135-.345-.136-.344 1.362-1.362 1.361-1.361.314.125a3.5 3.5 0 0 0 4.632-1.949 3.541 3.541 0 0 0 0-2.528 3.577 3.577 0 0 0-1.093-1.477c-.323-.257-.978-.573-1.365-.66-.297-.066-.989-.109-1.22-.075m.764 2.029c.304.064.618.261.818.514.541.685.38 1.707-.345 2.187-.256.169-.456.224-.817.224-.361 0-.561-.055-.817-.224-.893-.592-.884-1.936.016-2.513.345-.222.704-.281 1.145-.188m-7.297 7.562c.682.281 1.037.929.913 1.666-.149.88-1.125 1.435-1.969 1.12-1.287-.482-1.312-2.262-.038-2.786.173-.071.303-.093.547-.093.244 0 .374.022.547.093m15 0c.682.281 1.037.929.913 1.666-.117.691-.739 1.203-1.46 1.203-.719 0-1.338-.507-1.461-1.197-.17-.948.506-1.765 1.461-1.765.244 0 .374.022.547.093m-7.703 7.438c.304.064.618.261.818.514.541.685.38 1.707-.345 2.187-.256.169-.456.224-.817.224-.361 0-.561-.055-.817-.224-.894-.593-.884-1.936.019-2.515.205-.132.53-.23.778-.235.066-.001.23.021.364.049" fill-rule="evenodd" fill="#000" stroke="none"/></svg>