<svg xmlns="http://www.w3.org/2000/svg" width="24" height="24" fill="none" stroke="currentColor" stroke-linecap="round" stroke-linejoin="round" stroke-width="3"><path fill="#000" fill-rule="evenodd" stroke="none" d="M11.08.545C8.813.816 6.971 1.668 5.427 3.158A9.45 9.45 0 0 0 2.706 8.02c-.263 1.198-.263 2.762 0 3.96a9.6 9.6 0 0 0 4.051 5.94 9.7 9.7 0 0 0 3.353 1.388l.37.072v1.138l-1.95.011-1.95.011-.228.116a1.51 1.51 0 0 0-.829 1.126 1.494 1.494 0 0 0 1.287 1.7c.327.047 10.053.047 10.38 0a1.494 1.494 0 0 0 1.287-1.7 1.51 1.51 0 0 0-.829-1.126l-.228-.116-1.95-.011-1.95-.012V19.38l.37-.071c1.374-.266 2.856-.954 4.006-1.859.366-.288 1.266-1.188 1.554-1.554A9.4 9.4 0 0 0 21.488 10c0-2.175-.697-4.19-2.038-5.896-.336-.429-1.262-1.334-1.69-1.654-1.28-.956-2.643-1.548-4.18-1.815-.373-.065-.689-.086-1.42-.095a20 20 0 0 0-1.08.005m1.86 3.032c2.154.331 3.918 1.619 4.898 3.576.655 1.309.823 3.004.445 4.476a6.51 6.51 0 0 1-5.3 4.794c-.467.071-1.499.071-1.966 0-2.81-.428-5.003-2.638-5.44-5.483-.116-.751-.059-1.797.14-2.569.644-2.508 2.714-4.378 5.303-4.791.436-.069 1.478-.071 1.92-.003m-1.663 1.981c-1.471.269-2.667 1.161-3.316 2.474a5.2 5.2 0 0 0-.402 1.248c-.059.334-.059 1.106 0 1.44.361 2.054 2.013 3.583 4.057 3.756 2.473.208 4.652-1.626 4.86-4.092a4.46 4.46 0 0 0-1.343-3.596 3.8 3.8 0 0 0-1.153-.81c-.678-.332-1.061-.423-1.86-.44-.363-.007-.742.002-.843.02m1.376 3.1c.272.138.573.445.709.722.085.174.098.255.098.62 0 .384-.01.44-.116.648a1.5 1.5 0 0 1-1.562.829 1.51 1.51 0 0 1-1.126-.829c-.106-.208-.116-.264-.116-.648 0-.365.013-.446.098-.62.173-.352.515-.664.878-.803q.144-.056.526-.045c.329.009.413.026.611.126"/></svg>