<svg xmlns="http://www.w3.org/2000/svg" width="24" height="24" fill="none" stroke="currentColor" stroke-linecap="round" stroke-linejoin="round" stroke-width="3"><path fill="#000" fill-rule="evenodd" stroke="none" d="M1.516.577C.655.907.276 1.831.658 2.668c.095.206.501.627 3.649 3.778l3.544 3.546-.018.214c-.016.19-.198.55-1.599 3.174-.87 1.628-1.609 3.032-1.643 3.12-.208.54-.057 1.155.389 1.577.478.452 1.082.544 1.687.258.427-.202.506-.327 2.073-3.27.792-1.487 1.449-2.704 1.46-2.705s.731.711 1.6 1.58l1.58 1.58h-.912c-1.291 0-1.7.1-2.454.598-.649.428-1.219 1.06-1.771 1.962-.321.524-.662.866-1.056 1.059-.775.378-1.513.384-2.252.018-.809-.4-1.31-1.171-1.363-2.095-.025-.444.046-.777.263-1.242.294-.626.308-.97.062-1.487-.239-.5-.674-.783-1.245-.807-.694-.03-1.142.258-1.495.96-.42.835-.571 1.481-.575 2.454-.002.76.046 1.07.278 1.766a5.46 5.46 0 0 0 3.76 3.53c.494.134.867.181 1.44.18 1.301-.001 2.465-.431 3.52-1.301.435-.359.812-.811 1.238-1.487.35-.557.572-.828.807-.983l.189-.125h4.567l.533.534.533.535-.193.119c-.547.337-.815.894-.73 1.516.085.627.626 1.165 1.262 1.255.459.065 1.458-.067 2.022-.267l.188-.066.567.551c.613.596.814.725 1.219.78 1.2.163 2.067-1.029 1.56-2.145-.095-.21-1.076-1.202-10.274-10.395C1.635-.49 2.738.551 2.042.532c-.253-.007-.431.008-.526.045m9.684 0c-1.155.208-2.109.668-2.907 1.401-.574.526-.773.896-.777 1.445-.004.421.114.695.44 1.021.332.331.598.445 1.044.445.468 0 .68-.1 1.163-.548.667-.617 1.262-.857 2.014-.809.837.053 1.475.435 1.983 1.186.336.497.533.655.977.783 1.013.293 2.048-.64 1.86-1.676-.086-.477-.54-1.167-1.158-1.76A5.43 5.43 0 0 0 13.24.654C12.712.531 11.673.491 11.2.577m.268 4.02a1.495 1.495 0 0 0-.927 1.698c.048.231.129.401.457.947.219.366.475.74.57.833.328.32.849.485 1.277.404.802-.151 1.355-.909 1.23-1.688-.051-.323-.073-.368-.496-1.072-.413-.687-.595-.894-.935-1.063-.302-.15-.879-.179-1.176-.059m6.625 6.997c-.515.178-.89.646-.968 1.209a1.43 1.43 0 0 0 .401 1.229c.239.246.438.348.896.464.649.164.956.326 1.336.706.374.374.576.769.705 1.378.113.531.318.858.688 1.093.819.522 1.901.137 2.231-.793.217-.613-.175-2.049-.818-2.994A5.9 5.9 0 0 0 21 12.351c-.982-.648-2.259-.981-2.907-.757"/></svg>