<svg xmlns="http://www.w3.org/2000/svg" width="24" height="24" fill="none" stroke="currentColor" stroke-linecap="round" stroke-linejoin="round" stroke-width="3"><path fill="#000" fill-rule="evenodd" stroke="none" d="M11.195.561C9.679.799 8.276 1.693 7.459 2.94c-.581.888-.874 1.769-.925 2.783-.058 1.147.19 2.085.859 3.25.32.556.453.911.459 1.227.005.217-.019.264-1.597 3.18-.881 1.628-1.63 3.032-1.664 3.12-.208.54-.057 1.155.389 1.577.478.452 1.082.544 1.687.258.422-.2.487-.302 2.275-3.609 1.767-3.269 1.824-3.391 1.907-4.096.114-.967-.165-1.963-.912-3.257-.255-.441-.369-.791-.401-1.228-.085-1.158.733-2.272 1.882-2.564.306-.078.898-.078 1.204 0 .61.155 1.172.567 1.525 1.116.314.491.539.673.991.804a1.47 1.47 0 0 0 1.701-.753c.308-.63.239-1.082-.28-1.848a5.5 5.5 0 0 0-2.54-2.018c-.665-.261-1.05-.331-1.879-.345-.396-.007-.821.004-.945.024m.254 4.042c-.279.11-.658.463-.784.73-.152.323-.205.658-.143.914.028.117.074.27.103.339.119.286 3.298 6.062 3.445 6.259a3.7 3.7 0 0 0 1.31 1.085c.685.343 1.302.488 2.41.566.59.041.85.077 1.027.139.697.246 1.285.833 1.553 1.548.076.205.088.316.088.817s-.012.612-.088.817a2.64 2.64 0 0 1-1.59 1.563c-.11.037-.429.091-.709.119-.592.059-.828.154-1.135.457-.754.744-.467 2.067.531 2.444.187.071.313.088.64.086 1.971-.012 3.855-1.182 4.768-2.961 1.346-2.62.408-5.823-2.132-7.279-.877-.503-1.508-.667-2.923-.761-.623-.042-1.009-.143-1.22-.32-.087-.073-.608-.99-1.718-3.025-1.735-3.182-1.794-3.274-2.235-3.486-.315-.151-.883-.176-1.198-.051m-9.331 8.973c-.475.181-.727.424-1.013.979-.769 1.488-.794 3.328-.066 4.825.59 1.212 1.673 2.234 2.859 2.697.891.349 1.701.479 2.522.405 1.849-.168 3.417-1.152 4.326-2.716.273-.469.612-.924.785-1.056.293-.222.084-.208 3.569-.23 2.885-.018 3.259-.027 3.412-.086a1.516 1.516 0 0 0 .662-2.334 1.48 1.48 0 0 0-.885-.538c-.189-.032-1.241-.042-3.549-.033-3.258.013-3.282.013-3.6.103-1.134.318-2.031 1.092-2.881 2.487a4.7 4.7 0 0 1-.501.68c-1.35 1.371-3.691.722-4.178-1.159-.078-.301-.077-.864.003-1.17.034-.133.14-.397.234-.586.239-.478.29-.701.235-1.023-.093-.541-.383-.943-.843-1.169-.192-.094-.287-.113-.589-.121-.227-.006-.412.011-.502.045"/></svg>