<svg xmlns="http://www.w3.org/2000/svg" width="24" height="24" fill="none" stroke="currentColor" stroke-linecap="round" stroke-linejoin="round" stroke-width="3"><path fill="#000" fill-rule="evenodd" stroke="none" d="M1.516.577C.655.907.276 1.832.659 2.668c.093.203.417.544 2.68 2.812l2.574 2.58-.139.2c-.165.238-.469.853-.536 1.086l-.048.166-.305.014c-.529.024-.634.098-1.786 1.252-1.068 1.068-1.376 1.455-1.674 2.105a5.03 5.03 0 0 0-.241 3.604c.24.767.6 1.362 1.242 2.058l.423.46-1.045 1.054C.945 20.926.74 21.153.656 21.338c-.507 1.107.365 2.301 1.562 2.139.465-.063.585-.152 1.723-1.281l1.054-1.045.46.423C6.544 22.579 7.659 23.04 9 23.04c1.061 0 2.031-.313 2.928-.946.326-.229 1.749-1.59 2.154-2.06.274-.317.399-.619.405-.975l.005-.25.164-.047c.231-.067.846-.371 1.084-.536l.2-.139 2.58 2.574c2.268 2.263 2.609 2.587 2.812 2.68a1.502 1.502 0 0 0 2.01-2.009c-.095-.21-1.076-1.202-10.274-10.395C1.635-.49 2.738.551 2.042.532c-.253-.007-.431.008-.526.045m17.565.005c-.742.138-1.551.459-2.129.845-.563.377-1.164.974-1.506 1.497l-.146.224-.7-.684c-.883-.863-.989-.924-1.6-.924s-.717.061-1.596.92c-1.283 1.254-1.766 1.853-1.931 2.394-.269.885.391 1.83 1.326 1.897.56.04 1.05-.213 1.395-.72a5 5 0 0 1 .502-.59L13 5.142l.342.339c.533.528.732 1.015.687 1.679-.025.368-.121.625-.382 1.033-.272.424-.342.65-.319 1.039a1.51 1.51 0 0 0 1.433 1.44c.399.023.631-.048 1.045-.317.397-.259.665-.358 1.034-.384.664-.045 1.151.154 1.679.687l.339.342-.299.302a5.5 5.5 0 0 1-.609.522c-.368.259-.557.518-.653.895-.232.907.387 1.767 1.343 1.867.668.07 1.338-.392 2.933-2.022.514-.525.697-.74.774-.908.191-.416.19-.896-.001-1.313-.078-.171-.261-.384-.809-.942-.39-.396-.69-.721-.666-.721.081 0 .708-.495 1.011-.798a5.64 5.64 0 0 0 1.542-2.976c.079-.461.124-2.629.064-3.055-.078-.546-.364-.954-.84-1.195L22.42.54 20.9.533c-1.149-.005-1.593.007-1.819.049m1.39 3.468c-.014.409-.037.584-.104.767-.221.608-.707 1.156-1.257 1.417-.413.196-.585.237-1.143.271l-.447.027v-.444c0-.514.047-.773.199-1.108a2.6 2.6 0 0 1 1.192-1.227c.352-.175.6-.226 1.124-.23l.454-.003zM9.708 12.104a4 4 0 0 1-.404.455L9 12.858l-.34-.338c-.386-.384-.585-.719-.662-1.112a2.7 2.7 0 0 1 .044-1.024l.045-.157.861.861.86.86zM5.367 13.51c.491.502.673.906.673 1.49 0 .591-.198 1.021-.7 1.52l-.34.338-.34-.338c-.502-.499-.7-.929-.7-1.52 0-.584.182-.988.673-1.49.188-.192.353-.35.367-.35s.179.158.367.35m7.548 1.545.854.854-.135.049c-.196.072-.823.1-1.069.047-.386-.083-.642-.237-1.045-.63l-.38-.371.3-.306c.258-.262.53-.488.6-.496.012-.001.405.383.875.853m-3.467 2.949c.363.076.703.285 1.073.658l.339.342-.38.37c-.529.516-.859.664-1.48.664s-.951-.148-1.48-.664l-.38-.37.338-.341c.359-.362.677-.563 1.022-.647.257-.063.678-.068.948-.012"/></svg>