<svg xmlns="http://www.w3.org/2000/svg" width="24" height="24" fill="none" stroke="currentColor" stroke-linecap="round" stroke-linejoin="round" stroke-width="3"><path fill="#000" fill-rule="evenodd" stroke="none" d="M19.081.582c-.742.138-1.551.459-2.129.845-.563.377-1.164.974-1.506 1.497l-.146.224-.7-.684c-.883-.863-.989-.924-1.6-.924-.652 0-.689.024-1.901 1.238-.806.806-1.054 1.081-1.27 1.405-.27.407-.5.859-.59 1.163l-.049.166-.305.014c-.529.024-.634.098-1.786 1.252-.806.806-1.054 1.081-1.27 1.405-.27.407-.5.859-.59 1.163l-.049.166-.305.014c-.529.024-.634.098-1.786 1.252-1.068 1.068-1.376 1.455-1.674 2.105a5.03 5.03 0 0 0-.241 3.604c.24.767.6 1.362 1.242 2.058l.423.46-1.045 1.054C.945 20.926.74 21.153.656 21.338c-.507 1.107.365 2.301 1.562 2.139.465-.063.585-.152 1.723-1.281l1.054-1.045.46.423C6.544 22.579 7.659 23.04 9 23.04c1.061 0 2.031-.313 2.928-.946.326-.229 1.749-1.59 2.154-2.06.274-.317.399-.619.405-.975l.005-.25.164-.048c.304-.091.759-.322 1.156-.589.283-.19.629-.494 1.218-1.069.452-.442.926-.923 1.052-1.069.274-.318.399-.62.405-.975l.005-.25.164-.048c.304-.09.759-.322 1.163-.592.316-.212.616-.482 1.409-1.269.851-.844 1.025-1.036 1.114-1.232.196-.429.197-.904.004-1.325-.078-.171-.261-.384-.809-.942-.39-.396-.69-.721-.666-.721.081 0 .708-.495 1.011-.798a5.64 5.64 0 0 0 1.542-2.976c.079-.461.124-2.629.064-3.055-.078-.546-.364-.954-.84-1.195L22.42.54 20.9.533c-1.149-.005-1.593.007-1.819.049m1.39 3.468c-.014.409-.037.584-.104.767-.221.608-.707 1.156-1.257 1.417-.413.196-.585.237-1.143.271l-.447.027v-.444c0-.514.047-.773.199-1.108a2.6 2.6 0 0 1 1.192-1.227c.352-.175.6-.226 1.124-.23l.454-.003zm-7.104 1.46c.491.502.673.906.673 1.49 0 .591-.198 1.021-.7 1.52l-.34.338-.34-.338c-.502-.499-.7-.929-.7-1.52 0-.584.182-.988.673-1.49.188-.193.353-.35.367-.35s.179.157.367.35m-4 4c.491.502.673.906.673 1.49 0 .591-.198 1.021-.7 1.52l-.34.338-.34-.338c-.502-.499-.7-.929-.7-1.52 0-.584.182-.988.673-1.49.188-.192.353-.35.367-.35s.179.158.367.35m8.081.494c.363.076.703.285 1.073.658l.339.342-.38.37c-.529.516-.859.664-1.48.664s-.951-.148-1.48-.664l-.38-.37.338-.341c.359-.362.677-.563 1.022-.647.257-.063.678-.068.948-.012M5.367 13.51c.491.502.673.906.673 1.49 0 .591-.198 1.021-.7 1.52l-.34.338-.34-.338c-.502-.499-.7-.929-.7-1.52 0-.584.182-.988.673-1.49.188-.192.353-.35.367-.35s.179.158.367.35m8.081.494c.363.076.703.285 1.073.658l.339.342-.38.37c-.529.516-.859.664-1.48.664s-.951-.148-1.48-.664l-.38-.37.338-.341c.359-.362.677-.563 1.022-.647.257-.063.678-.068.948-.012m-4 4c.363.076.703.285 1.073.658l.339.342-.38.37c-.529.516-.859.664-1.48.664s-.951-.148-1.48-.664l-.38-.37.338-.341c.359-.362.677-.563 1.022-.647.257-.063.678-.068.948-.012"/></svg>