<svg xmlns="http://www.w3.org/2000/svg" width="24" height="24" fill="none" stroke="currentColor" stroke-linecap="round" stroke-linejoin="round" stroke-width="3"><path fill="#000" fill-rule="evenodd" stroke="none" d="M13.516 5.577c-.556.213-.919.67-1.001 1.259-.022.164-.033 1.933-.026 4.369L12.5 15.3l.105.248c.168.399.453.684.84.84.465.188 1.119.102 1.454-.192a.6.6 0 0 1 .169-.116c.021 0 .147.044.281.099a4.6 4.6 0 0 0 2.035.297 4.5 4.5 0 0 0 4.092-4.092 4.52 4.52 0 0 0-.901-3.107 5.8 5.8 0 0 0-.935-.919c-.322-.241-1.041-.58-1.5-.707-.375-.104-.447-.111-1.16-.107-.685.003-.794.013-1.11.103l-.35.1-.001-.343c-.002-.936-.25-1.434-.869-1.747-.195-.099-.28-.116-.608-.125q-.382-.01-.526.045M6.277 7.56a4.66 4.66 0 0 0-2.238 1.064 4.54 4.54 0 0 0-1.48 2.656c-.059.334-.059 1.106 0 1.44a4.53 4.53 0 0 0 3.637 3.706c.391.076 1.217.076 1.608 0a7 7 0 0 0 1.022-.311c.118-.046.137-.041.267.074.343.301.991.389 1.462.199.387-.156.672-.441.84-.84l.105-.248.012-3.092c.007-1.828-.004-3.205-.027-3.369a1.5 1.5 0 0 0-.837-1.183c-.208-.106-.264-.116-.648-.116-.454 0-.655.064-.927.292l-.121.102-.186-.072a6.4 6.4 0 0 0-1.059-.301c-.284-.046-1.159-.046-1.43-.001m1.376 3.098c.272.138.573.445.709.722.085.174.098.255.098.62 0 .384-.01.44-.116.648a1.51 1.51 0 0 1-1.126.829 1.5 1.5 0 0 1-1.562-.829c-.106-.208-.116-.264-.116-.648 0-.365.013-.446.098-.62.173-.352.515-.664.878-.803q.144-.056.526-.045c.329.009.413.026.611.126m10 0c.272.138.573.445.709.722.085.174.098.255.098.62 0 .384-.01.44-.116.648a1.51 1.51 0 0 1-1.126.829 1.5 1.5 0 0 1-1.562-.829c-.106-.208-.116-.264-.116-.648 0-.365.013-.446.098-.62.173-.352.515-.664.878-.803q.144-.056.526-.045c.329.009.413.026.611.126M1.516 15.577c-.561.215-.918.668-1.004 1.274-.06.422-.014 1.466.078 1.792.236.825 1.001 1.572 1.828 1.785.268.068.74.072 9.582.072s9.314-.004 9.582-.072c.827-.213 1.592-.96 1.828-1.785.092-.326.138-1.37.078-1.792-.078-.547-.364-.954-.84-1.195-.208-.106-.264-.116-.648-.116s-.44.01-.648.116c-.592.3-.868.818-.871 1.634l-.001.23H3.52l-.001-.23c-.003-.815-.279-1.335-.869-1.633-.195-.099-.28-.116-.608-.125-.253-.007-.431.008-.526.045"/></svg>