<svg xmlns="http://www.w3.org/2000/svg" width="24" height="24" fill="none" stroke="currentColor" stroke-linecap="round" stroke-linejoin="round" stroke-width="3"><path fill="#000" fill-rule="evenodd" stroke="none" d="M1.516.577C.656.906.276 1.832.657 2.665c.089.193.321.446 1.541 1.671L3.635 5.78l-.413.255C2.325 6.589.994 7.639.768 7.97.475 8.399.426 9.013.65 9.46c.333.668 1.073 1.001 1.771.798.254-.074.404-.171.858-.559.677-.576 1.67-1.249 2.363-1.6l.21-.106.734.733c.404.403.734.744.734.758 0 .013-.13.084-.29.156-.908.414-1.96 1.127-2.819 1.911-.539.493-.703.805-.698 1.333a1.493 1.493 0 0 0 1.867 1.422c.299-.08.408-.148.822-.514.56-.495.74-.637 1.144-.901.635-.416 1.552-.848 2.147-1.01l.194-.053.834.833c.459.459.827.846.818.861s-.13.04-.268.055c-.717.079-1.702.427-2.402.848-.701.422-1.329.984-1.51 1.352a1.484 1.484 0 0 0 .47 1.863c.295.211.59.293.972.271.385-.022.647-.142 1.019-.47.748-.658 1.427-.921 2.38-.921s1.632.263 2.38.921c.387.341.632.45 1.06.471l.34.016 2.66 2.654c2.341 2.335 2.688 2.666 2.892 2.759a1.502 1.502 0 0 0 2.01-2.009c-.095-.21-1.076-1.202-10.274-10.395C1.635-.49 2.738.551 2.042.532c-.253-.007-.431.008-.526.045m9.127 2.986c-1.098.106-1.736 1.164-1.283 2.128.169.36.548.696.898.797.109.031.634.048 1.602.05 1.478.004 1.743.025 2.68.207 2.283.443 4.358 1.436 6.18 2.957.497.415.591.475.874.561.526.159 1.19-.044 1.536-.471.348-.428.452-.943.29-1.435-.105-.318-.254-.511-.669-.865a16.54 16.54 0 0 0-9.371-3.931c-.555-.047-2.243-.045-2.737.002m6.008 6.313a1.6 1.6 0 0 0-1.157 1.303c-.03.223.042.577.173.844.125.255.364.487.737.714a9.6 9.6 0 0 1 1.336 1.002c.478.422.578.486.88.567a1.495 1.495 0 0 0 1.867-1.424c.006-.64-.274-1.033-1.349-1.893-.37-.296-1.236-.873-1.514-1.009-.238-.116-.723-.168-.973-.104m-5.135 8.701c-1.049.399-1.349 1.701-.571 2.478.58.58 1.53.583 2.107.007a1.47 1.47 0 0 0 0-2.124c-.292-.292-.55-.395-1.012-.407-.247-.006-.431.01-.524.046"/></svg>