<svg xmlns="http://www.w3.org/2000/svg" width="24" height="24" fill="none" stroke="currentColor" stroke-linecap="round" stroke-linejoin="round" stroke-width="3"><path fill="#000" fill-rule="evenodd" stroke="none" d="M11 8.547c-2.59.26-4.818 1.23-6.7 2.917-.616.553-.797.883-.787 1.44.016.947.948 1.647 1.867 1.402.296-.079.413-.151.763-.469 1.304-1.188 2.686-1.884 4.376-2.208.4-.076.595-.088 1.481-.088s1.081.012 1.481.088c1.69.324 3.072 1.02 4.376 2.208.35.318.467.39.763.469.918.244 1.851-.457 1.867-1.404.01-.552-.17-.881-.786-1.434a11.46 11.46 0 0 0-6.575-2.907c-.381-.038-1.797-.047-2.126-.014m.02 5.033a6.5 6.5 0 0 0-3.449 1.677c-.371.345-.527.643-.559 1.071-.017.227-.005.352.048.516.229.695.824 1.108 1.541 1.067.385-.022.647-.142 1.019-.47.748-.658 1.427-.921 2.38-.921s1.632.263 2.38.921c.372.328.634.448 1.019.47a1.476 1.476 0 0 0 1.543-1.093c.162-.555-.018-1.1-.513-1.561a6.43 6.43 0 0 0-3.479-1.678c-.47-.071-1.478-.071-1.93.001m.496 4.997c-1.049.399-1.349 1.701-.571 2.478.58.58 1.53.583 2.107.007a1.47 1.47 0 0 0 0-2.124c-.292-.292-.55-.395-1.012-.407-.247-.006-.431.01-.524.046"/></svg>