<svg xmlns="http://www.w3.org/2000/svg" width="24" height="24" fill="none" stroke="currentColor" stroke-linecap="round" stroke-linejoin="round" stroke-width="3"><path fill="#000" fill-rule="evenodd" stroke="none" d="M10.284 2.58c-.948.213-1.844.859-2.09 1.507a1.65 1.65 0 0 0 0 1.026c.226.595.762.971 1.387.974.391.001.639-.087.987-.351.314-.237.484-.274.713-.155.32.165.313.671-.012.848-.121.066-.437.072-4.909.091l-4.78.02-.228.116C.422 7.127.219 8.329.945 9.055c.24.24.53.38.893.43.168.023 2.133.033 4.989.026 4.675-.013 4.715-.014 5.016-.099 1.295-.365 2.163-1.198 2.544-2.44.098-.32.108-.411.109-.992 0-.595-.008-.664-.112-.98-.234-.71-.613-1.276-1.145-1.709-.294-.24-.943-.577-1.299-.675-.333-.092-1.312-.114-1.656-.036m8.462 2.98c-.768.137-1.552.536-2.06 1.05-.264.268-.355.419-.433.723-.177.694.18 1.426.847 1.734.205.095.292.111.6.112.31.001.393-.014.594-.109.129-.06.32-.182.426-.27.254-.213.427-.28.72-.28a.97.97 0 0 1 .941.697c.074.248.074.319-.003.578a1.04 1.04 0 0 1-.531.613l-.187.092-9.04.02-9.04.02-.228.116a1.51 1.51 0 0 0-.829 1.126 1.494 1.494 0 0 0 1.287 1.7c.357.052 17.551.049 18.01-.003.938-.106 1.685-.447 2.351-1.075a3.95 3.95 0 0 0 1.134-1.904c.146-.542.158-1.378.027-1.9-.368-1.459-1.457-2.581-2.881-2.967-.346-.094-1.347-.137-1.705-.073m-17.23 9.018c-.365.136-.71.444-.864.774a1.5 1.5 0 0 0 1.158 2.13c.14.02 2.918.037 6.302.037 6.649.001 6.215-.015 6.347.24a.495.495 0 0 1-.441.733c-.127.004-.19-.032-.598-.332-.255-.187-.494-.25-.892-.234-.287.012-.388.034-.576.13-.445.225-.766.659-.828 1.12q-.104.76.467 1.319c.893.875 2.124 1.2 3.349.884.365-.094 1.008-.426 1.31-.676a3.52 3.52 0 0 0 1.089-3.825 3.48 3.48 0 0 0-1.799-2.023c-.716-.344-.023-.314-7.36-.322-5.357-.007-6.546.002-6.664.045"/></svg>