<svg xmlns="http://www.w3.org/2000/svg" width="24" height="24" fill="none" stroke="currentColor" stroke-linecap="round" stroke-linejoin="round" stroke-width="3"><path fill="#000" fill-rule="evenodd" stroke="none" d="M1.516.577C.655.907.276 1.832.658 2.668c.093.203.407.532 2.565 2.694l2.459 2.463-.059.397c-.138.917-.149 2.283-.024 2.938.254 1.331.85 2.451 1.82 3.421.783.783 1.588 1.279 2.61 1.606l.451.145v4.185l-1.45.012-1.45.011-.228.116a1.51 1.51 0 0 0-.829 1.126 1.494 1.494 0 0 0 1.287 1.7c.138.02 2.023.036 4.19.036s4.052-.016 4.19-.036a1.494 1.494 0 0 0 1.287-1.7 1.51 1.51 0 0 0-.829-1.126l-.228-.116-1.45-.012-1.45-.012v-4.19l.216-.063c.119-.035.24-.063.269-.063s1.638 1.583 3.574 3.518c3.128 3.125 3.547 3.529 3.753 3.623a1.502 1.502 0 0 0 2.01-2.009c-.095-.21-1.076-1.202-10.274-10.395C1.635-.49 2.738.551 2.042.532c-.253-.007-.431.008-.526.045m7.007.008a1.56 1.56 0 0 0-.787.615c-.124.186-.523 1.268-.576 1.56-.052.289-.02.51.119.821.128.287.298.49.548.655a1.495 1.495 0 0 0 2.102-.505l.119-.212 1.962.011 1.962.01.257.74c.648 1.87 1.083 3.468 1.104 4.058l.007.184-.231.095c-.954.391-1.251 1.543-.602 2.334.172.21.49.424.726.487q.168.045.167.114c.001.037.043.158.094.268.443.944 1.684 1.166 2.417.432.244-.244.355-.474.452-.94.3-1.434.077-3.564-.619-5.918-.374-1.265-1.303-3.914-1.463-4.172a1.9 1.9 0 0 0-.641-.569L15.42.54 12.06.531C9.104.524 8.679.53 8.523.585M10.32 12.46c.517.517.911.94.876.94-.104 0-.477-.139-.776-.29a3.4 3.4 0 0 1-1.003-.764c-.217-.243-.537-.715-.537-.793 0-.018.113-.033.25-.033h.251z"/></svg>