<svg xmlns="http://www.w3.org/2000/svg" width="24" height="24" fill="none" stroke="currentColor" stroke-linecap="round" stroke-linejoin="round" stroke-width="3"><path fill="#000" fill-rule="evenodd" stroke="none" d="M8.523.585a1.57 1.57 0 0 0-.787.615c-.167.253-1.078 2.833-1.48 4.194-.653 2.209-.899 4.33-.66 5.693a6.5 6.5 0 0 0 4.421 5.093l.463.15v4.187l-1.45.012-1.45.011-.228.116a1.51 1.51 0 0 0-.829 1.126 1.494 1.494 0 0 0 1.287 1.7c.326.047 8.054.047 8.38 0a1.494 1.494 0 0 0 1.287-1.7 1.51 1.51 0 0 0-.829-1.126l-.228-.116-1.45-.012-1.45-.012v-2.099c0-1.646.011-2.103.05-2.114a9 9 0 0 0 1.205-.432c1.978-.957 3.29-2.716 3.648-4.895.077-.469.085-1.536.017-2.196-.105-1.014-.357-2.241-.696-3.386-.374-1.265-1.303-3.914-1.463-4.172a1.9 1.9 0 0 0-.641-.569L15.42.54 12.06.531C9.104.524 8.679.53 8.523.585m5.706 3.695c.622 1.796 1.002 3.172 1.114 4.03l.027.21h-3.365c-3.178 0-3.365-.004-3.365-.07 0-.217.222-1.246.424-1.97.119-.425.8-2.51.932-2.85l.042-.111 1.967.011 1.967.01zm.828 7.43a3.7 3.7 0 0 1-1.645 1.496c-.84.382-2.018.372-2.872-.022a3.66 3.66 0 0 1-1.597-1.474l-.111-.19h6.336z"/></svg>