<svg xmlns="http://www.w3.org/2000/svg" width="24" height="24" fill="none" stroke="currentColor" stroke-linecap="round" stroke-linejoin="round" stroke-width="3"><path fill="#000" fill-rule="evenodd" stroke="none" d="M4.44 1.547a3.56 3.56 0 0 0-2.888 2.841c-.074.389-.074 4.835 0 5.224.221 1.168 1.036 2.177 2.115 2.617.426.173.753.24 1.336.274l.468.028.02 1.464c.015 1.108.035 1.529.081 1.726.264 1.139 1.05 2.081 2.092 2.506.599.244.728.26 2.34.282l1.465.02.027.457c.015.252.046.56.069.683.205 1.106 1.044 2.128 2.103 2.56.669.272.647.271 3.332.271 2.132 0 2.454-.008 2.71-.068a3.7 3.7 0 0 0 1.798-1.004c.573-.6.883-1.272.971-2.111.051-.49.051-4.144 0-4.634-.155-1.474-1.13-2.642-2.547-3.053-.31-.089-.331-.09-2.932-.09s-2.622.001-2.932.09c-1.076.312-1.977 1.136-2.34 2.141-.153.423-.199.674-.233 1.271l-.027.478h-1.224c-.711 0-1.286-.018-1.371-.041a.6.6 0 0 1-.25-.163l-.103-.122v-2.663l.473-.027a7 7 0 0 0 .74-.084 3.6 3.6 0 0 0 1.775-.992c.573-.6.883-1.272.971-2.111.051-.49.051-4.144 0-4.634-.154-1.465-1.108-2.617-2.526-3.051-.289-.088-.325-.089-2.853-.096-1.408-.004-2.605.001-2.66.011m4.904 3.109.136.136v4.402l-.103.122a.6.6 0 0 1-.25.162c-.196.052-4.058.052-4.254 0a.6.6 0 0 1-.25-.162l-.103-.122V4.792l.136-.136.136-.136h4.416zm10 10 .136.136v4.402l-.103.122a.6.6 0 0 1-.25.163c-.199.055-4.055.055-4.254 0a.6.6 0 0 1-.25-.163l-.103-.122v-4.402l.136-.136.136-.136h4.416z"/></svg>