<svg xmlns="http://www.w3.org/2000/svg" width="24" height="24" fill="none" stroke="currentColor" stroke-linecap="round" stroke-linejoin="round" stroke-width="3"><path fill="#000" fill-rule="evenodd" stroke="none" d="M6.772 1.482a7.7 7.7 0 0 0-2.952.788 20 20 0 0 0-1.54.875C1.073 3.935.364 5.423.52 6.84a4.2 4.2 0 0 0 .405 1.416c.217.43.356.624.711.996.506.529 1.154.907 1.917 1.117.427.118 1.451.127 1.867.016a5 5 0 0 0 1.358-.587c.254-.153.498-.278.543-.278s.099.04.122.09c.033.073-.024.301-.299 1.191-.598 1.938-.675 2.335-.675 3.459 0 .782.063 1.308.236 1.975.55 2.119 1.683 3.713 3.509 4.939 2.015 1.352 4.692 1.71 7.046.943.829-.27 1.402-.559 2.347-1.185l.386-.256.726.364c.877.438 1.101.506 1.473.441q.534-.093.866-.432a1.48 1.48 0 0 0 .279-1.712c-.168-.354-.4-.54-1.162-.926l-.685-.348-.021-.622c-.017-.516-.038-.682-.127-.981-.268-.905-.818-1.69-1.529-2.179l-.201-.139.414-.841c.456-.927.513-1.116.45-1.504a1.52 1.52 0 0 0-.833-1.144c-.203-.103-.261-.113-.643-.113-.377 0-.443.012-.644.11-.431.212-.538.363-1.237 1.755-.598 1.191-.642 1.266-.758 1.289-.236.047-.718.273-1.128.528-.227.142-.443.258-.479.258-.107 0-.244-.137-.244-.245 0-.056.154-.604.341-1.218.577-1.889.628-2.132.658-3.14.032-1.053-.079-1.821-.407-2.817-.658-2.001-1.948-3.549-3.842-4.61-1.008-.565-2.102-.878-3.373-.967a14 14 0 0 0-.64-.037c-.015.003-.228.019-.475.036M8.16 4.524c.995.133 2.048.661 2.821 1.416a5.17 5.17 0 0 1 1.525 3.9c-.03.625-.092.893-.538 2.36-.45 1.476-.462 1.529-.459 2.04a3.22 3.22 0 0 0 1.904 2.939c.985.451 2.114.375 3.064-.206.668-.409.723-.432 1.003-.432.575.001.997.419.999.989.001.252-.098.512-.261.688-.144.156-.788.563-1.238.783-1.206.59-2.63.676-3.948.237-.979-.325-2.002-1.083-2.589-1.918a5.7 5.7 0 0 1-.908-2.211c-.048-.281-.059-.527-.043-1.029.024-.767.043-.857.505-2.354.455-1.474.457-1.482.46-2.006.006-.977-.381-1.828-1.112-2.445a3.8 3.8 0 0 0-1.265-.663c-.364-.096-1.207-.096-1.56-.001-.295.08-.815.327-1.333.634-.396.234-.646.285-.968.195-.229-.064-.505-.307-.614-.539-.181-.384-.064-.961.242-1.194C4.078 5.531 5.041 5 5.42 4.84c.837-.354 1.702-.454 2.74-.316"/></svg>