<svg xmlns="http://www.w3.org/2000/svg" width="24" height="24" fill="none" stroke="currentColor" stroke-linecap="round" stroke-linejoin="round" stroke-width="3"><path fill="#000" fill-rule="evenodd" stroke="none" d="M2.516 4.579c-.365.134-.71.443-.864.773a1.5 1.5 0 0 0 1.158 2.13c.33.048 18.05.048 18.38 0a1.494 1.494 0 0 0 1.287-1.7 1.51 1.51 0 0 0-.829-1.126l-.228-.116-9.38-.007c-7.731-.006-9.405.002-9.524.046m0 5.999c-.365.136-.71.444-.864.774-.371.791 0 1.725.815 2.054l.233.094 7.86.02 7.86.02.231.117c.273.139.575.445.711.723.085.174.098.255.098.62 0 .384-.01.44-.116.648-.303.599-.817.869-1.658.871l-.253.001.029-.17c.128-.753-.167-1.363-.822-1.698-.2-.102-.259-.112-.64-.112-.659 0-.669.006-2.066 1.398-1.256 1.252-1.336 1.354-1.41 1.818-.05.31.004.663.143.938.074.148.378.483 1.068 1.181 1.188 1.2 1.426 1.41 1.731 1.524.333.124.765.12 1.089-.011.563-.227.926-.751.932-1.342.001-.15-.01-.329-.025-.399l-.028-.127h.233c.428-.001 1.11-.078 1.433-.162a4.48 4.48 0 0 0 3.03-2.598 4.49 4.49 0 0 0-.555-4.483 5.8 5.8 0 0 0-.935-.919c-.309-.231-1.031-.576-1.48-.706l-.38-.111-8.06-.008c-6.646-.007-8.085.001-8.204.045m0 6c-.366.136-.71.444-.864.774a1.5 1.5 0 0 0 1.158 2.13c.138.02 1.798.036 3.69.036s3.552-.016 3.69-.036a1.494 1.494 0 0 0 1.287-1.7 1.51 1.51 0 0 0-.829-1.126l-.228-.116-3.88-.008c-3.157-.006-3.907.003-4.024.046"/></svg>