<svg xmlns="http://www.w3.org/2000/svg" width="24" height="24" fill="none" stroke="currentColor" stroke-linecap="round" stroke-linejoin="round" stroke-width="3"><path fill="#000" fill-rule="evenodd" stroke="none" d="M15.72.506c-1.952.098-3.642.832-4.991 2.167a7.27 7.27 0 0 0-2.071 3.805c-.238 1.14-.22 2.245.054 3.302l.073.28-3.207 3.22c-1.939 1.947-3.28 3.325-3.393 3.486-.769 1.096-.893 2.476-.329 3.652a3.55 3.55 0 0 0 1.755 1.742c1.172.55 2.527.419 3.629-.351.156-.109 1.552-1.468 3.48-3.39l3.22-3.207.18.055c.925.286 2.352.306 3.529.049 1.937-.422 3.679-1.666 4.755-3.398.876-1.409 1.29-3.405 1.033-4.978-.109-.668-.355-1.492-.6-2.006-.394-.826-1.32-1.135-2.111-.702-.12.065-.817.73-1.957 1.864l-1.771 1.762-.428-.428-.428-.429 1.762-1.77c.969-.974 1.799-1.834 1.844-1.911a1.54 1.54 0 0 0-.133-1.749c-.18-.22-.377-.345-.835-.532-.926-.379-2.09-.581-3.06-.533M14.436 4.43c-1.006 1.015-1.11 1.138-1.292 1.534-.402.871-.266 1.876.356 2.636.364.445 1.941 1.965 2.193 2.115.125.074.349.181.497.238.238.09.333.102.79.104.554.003.732-.035 1.16-.247.302-.15.484-.308 1.43-1.246.479-.474.87-.843.87-.819 0 .08-.162.675-.243.895-.423 1.139-1.51 2.199-2.657 2.591-1.105.377-2.033.367-3.153-.036-.557-.201-.827-.248-1.112-.194-.514.096-.381-.024-4.259 3.847-3.892 3.885-3.695 3.709-4.046 3.63a.64.64 0 0 1-.3-.194c-.14-.15-.15-.177-.15-.411v-.25l3.612-3.622c2.718-2.725 3.638-3.67 3.716-3.821.136-.261.207-.622.174-.873a3 3 0 0 0-.164-.552c-.292-.747-.318-.894-.316-1.755.002-.676.014-.823.091-1.1.137-.498.276-.83.5-1.199.637-1.047 1.579-1.753 2.747-2.058.165-.043.326-.08.359-.081s-.329.389-.803.868"/></svg>