<svg xmlns="http://www.w3.org/2000/svg" width="24" height="24" fill="none" stroke="currentColor" stroke-linecap="round" stroke-linejoin="round" stroke-width="3"><path fill="#000" fill-rule="evenodd" stroke="none" d="M5.516 4.577a1.52 1.52 0 0 0-.857 2.091c.093.203.414.54 2.652 2.782L9.857 12l-2.546 2.55c-2.238 2.242-2.559 2.579-2.652 2.782a1.502 1.502 0 0 0 2.009 2.009c.203-.093.54-.414 2.782-2.652L12 14.143l2.55 2.546c2.242 2.238 2.579 2.559 2.782 2.652a1.502 1.502 0 0 0 2.009-2.009c-.093-.203-.414-.54-2.652-2.782L14.143 12l2.546-2.55c2.238-2.242 2.559-2.579 2.652-2.782.355-.775.061-1.63-.693-2.012-.208-.106-.264-.116-.648-.116-.701 0-.504-.158-3.45 2.777L12 9.857l-2.55-2.54c-2.916-2.905-2.751-2.77-3.41-2.786-.246-.006-.431.01-.524.046"/></svg>