<svg xmlns="http://www.w3.org/2000/svg" width="24" height="24" fill="none" stroke="currentColor" stroke-linecap="round" stroke-linejoin="round" stroke-width="3"><path fill="#000" fill-rule="evenodd" stroke="none" d="M9.76 3.483c-2.224.099-5.664.488-6.4.725a3.48 3.48 0 0 0-1.758 1.27c-.374.509-.508.877-.701 1.922a25 25 0 0 0 0 9.2c.193 1.045.327 1.413.701 1.922a3.5 3.5 0 0 0 1.758 1.271c.44.143 2.369.413 4.02.564 1.811.164 2.281.183 4.62.183s2.809-.019 4.62-.183c1.651-.151 3.58-.421 4.02-.564a3.5 3.5 0 0 0 1.789-1.314c.345-.476.483-.862.67-1.879.57-3.102.565-6.211-.016-9.3-.178-.947-.323-1.33-.685-1.82a3.48 3.48 0 0 0-1.758-1.272c-.558-.18-3.025-.494-5.08-.646-1.582-.118-4.132-.153-5.8-.079m4.3 2.998c1.701.079 3.162.217 4.839.459 1.148.166 1.081.116 1.233.924.272 1.453.365 2.505.365 4.136 0 1.63-.093 2.683-.365 4.134-.11.589-.189.751-.388.801-.413.104-2.94.408-4.184.504a51 51 0 0 1-7.12 0c-1.244-.096-3.771-.4-4.184-.504-.199-.05-.278-.212-.39-.807-.268-1.413-.364-2.507-.364-4.128 0-1.622.096-2.715.364-4.131.154-.814.087-.763 1.235-.929A49 49 0 0 1 9.8 6.485a64 64 0 0 1 4.26-.004M9.523 7.586c-.543.19-.917.643-1.007 1.22-.025.161-.035 1.426-.028 3.376L8.5 15.3l.105.248c.246.584.762.938 1.368.937.158 0 .37-.025.471-.057.288-.089 5.43-3.191 5.631-3.396a1.49 1.49 0 0 0-.003-2.066c-.188-.19-5.295-3.281-5.596-3.387-.215-.076-.726-.073-.953.007m2.274 4.239c.134.079.243.158.243.175 0 .027-.46.32-.503.32-.009 0-.017-.144-.017-.32s.008-.32.017-.32.127.065.26.145"/></svg>