<svg xmlns="http://www.w3.org/2000/svg" width="24" height="24" fill="none" stroke="currentColor" stroke-linecap="round" stroke-linejoin="round" stroke-width="3"><path fill="#000" fill-rule="evenodd" stroke="none" d="M1.516.577C.655.907.276 1.832.658 2.668c.093.203.404.529 2.531 2.66l2.425 2.428-1.237 1.272-1.781 1.832c-.595.611-.787.864-.914 1.203-.135.36-.172.575-.172.977-.001 1.111.739 2.054 1.873 2.387.214.063.557.072 3.579.091l3.342.022-.875 2.74c-.947 2.967-.983 3.113-.883 3.596a1.97 1.97 0 0 0 1.063 1.398c.683.341 1.388.3 2.013-.119.09-.06 1.024-.996 2.077-2.082s2.064-2.126 2.247-2.312l.333-.339 2.411 2.407c2.114 2.11 2.44 2.42 2.642 2.513a1.503 1.503 0 0 0 2.01-2.01c-.095-.21-1.076-1.202-10.274-10.395C1.635-.49 2.738.551 2.042.532c-.253-.007-.431.008-.526.045M12.96.575a2.3 2.3 0 0 0-.676.34c-.075.057-.781.768-1.57 1.581-1.065 1.096-1.46 1.529-1.534 1.68-.293.6-.186 1.262.281 1.73.245.245.438.35.771.419.279.057.662.014.892-.101.071-.035.135-.058.143-.05.008.007-.014.093-.049.19-.284.797.037 1.604.775 1.95.196.091.279.106.608.106.349 0 .402-.011.646-.131.368-.181.631-.474.768-.857.057-.161.403-1.228.768-2.372.721-2.258.768-2.466.67-2.945A2.02 2.02 0 0 0 14.347.699c-.299-.147-.332-.155-.76-.165-.283-.008-.513.008-.627.041m2.156 8.039a1.5 1.5 0 0 0-.845.809c-.131.283-.131.871 0 1.154.182.396.56.739.95.866.114.036.643.057 1.859.074l1.699.023-.489.511c-.269.282-.518.567-.553.635-.229.442-.228.987.002 1.432.101.194.449.526.661.63a1.56 1.56 0 0 0 1.428-.065c.263-.161 2.072-2.027 2.284-2.355.5-.774.508-1.805.021-2.636-.256-.436-.797-.864-1.346-1.063-.245-.088-.269-.089-2.847-.099l-2.6-.009zm-6.059 3.897c-.716.005-1.882.005-2.59 0L5.18 12.5l1.277-1.313 1.278-1.312 1.313 1.312 1.313 1.313zm4.414 4.495c-.377.393-.689.709-.695.703-.009-.009.566-1.845.646-2.067.015-.039.132.053.377.297l.356.354z"/></svg>