<?xml version="1.0" encoding="UTF-8"?>
<svg height="16px" viewBox="0 0 16 16" width="16px" xmlns="http://www.w3.org/2000/svg">
    <path d="m 2 1 c -0.550781 0 -1 0.449219 -1 1 v 12 c 0 0.550781 0.449219 1 1 1 h 12 c 0.550781 0 1 -0.449219 1 -1 v -12 c 0 -0.550781 -0.449219 -1 -1 -1 z m 1 2 h 2 v 2 h -2 z m 4 0 h 2 v 2 h -2 z m 4 0 h 2 v 2 h -2 z m -8 4 h 2 v 2 h -2 z m 4 0 h 2 v 2 h -2 z m 4 0 h 2 v 2 h -2 z m -8 4 h 2 v 2 h -2 z m 4 0 h 2 v 2 h -2 z m 4 0 h 2 v 2 h -2 z m 0 0" fill="#222222"/>
</svg>
