<?xml version="1.0" encoding="UTF-8"?>
<svg height="16px" viewBox="0 0 16 16" width="16px" xmlns="http://www.w3.org/2000/svg">
    <g fill="#222222">
        <path d="m 3 0 v 0.5 c 0 2.480469 2.019531 4.5 4.5 4.5 h 3 c 0.832031 0 1.5 0.664062 1.5 1.5 v 0.5 h 3 v -0.5 c 0 -2.480469 -2.019531 -4.5 -4.5 -4.5 h -3 c -0.835938 0 -1.5 -0.667969 -1.5 -1.5 v -0.5 z m 0 0" fill-opacity="0.34902"/>
        <path d="m 0 8 v 4 h 8.90625 l -4 -4 z m 7.03125 0 l 3.96875 3.96875 v -3.96875 z m 4.96875 0 v 4 h 1 v -4 z m 2 0 v 4 h 1 v -4 z m 0 0"/>
        <path d="m 1.53125 0.46875 l -1.0625 1.0625 l 14 14 l 1.0625 -1.0625 z m 0 0"/>
    </g>
</svg>
