<?xml version="1.0" encoding="UTF-8"?>
<svg height="16px" viewBox="0 0 16 16" width="16px" xmlns="http://www.w3.org/2000/svg">
    <path d="m 5.644531 1.019531 c -0.347656 0.003907 -0.679687 0.140625 -0.925781 0.386719 l -3.332031 3.332031 c -0.25 0.246094 -0.386719 0.578125 -0.386719 0.929688 v 4.707031 c 0 0.347656 0.136719 0.683594 0.386719 0.929688 l 3.328125 3.332031 c 0.246094 0.246093 0.582031 0.386719 0.929687 0.382812 h 4.710938 c 0.347656 0 0.679687 -0.136719 0.925781 -0.382812 l 3.332031 -3.332031 c 0.25 -0.246094 0.386719 -0.582032 0.386719 -0.929688 v -4.707031 c 0 -0.351563 -0.136719 -0.683594 -0.386719 -0.929688 l -3.328125 -3.332031 c -0.246094 -0.246094 -0.582031 -0.386719 -0.929687 -0.386719 z m -1.644531 5.980469 h 8 v 2 h -8 z m 0 0" fill="#222222"/>
</svg>
