<?xml version="1.0" encoding="UTF-8"?>
<svg height="16px" viewBox="0 0 16 16" width="16px" xmlns="http://www.w3.org/2000/svg">
    <g fill="#222222">
        <path d="m 8 0 c -0.554688 0 -1 0.445312 -1 1 v 1 c 0 0.554688 0.445312 1 1 1 s 1 -0.445312 1 -1 v -1 c 0 -0.554688 -0.445312 -1 -1 -1 z m -4.992188 2.003906 c -0.253906 0 -0.511718 0.097656 -0.707031 0.296875 c -0.390625 0.390625 -0.390625 1.019531 0 1.414063 l 0.707031 0.707031 c 0.390626 0.390625 1.023438 0.390625 1.414063 0 c 0.390625 -0.394531 0.390625 -1.023437 0 -1.414063 l -0.707031 -0.707031 c -0.195313 -0.199219 -0.453125 -0.296875 -0.707032 -0.296875 z m 9.984376 0 c -0.253907 0 -0.507813 0.097656 -0.707032 0.296875 l -0.707031 0.707031 c -0.390625 0.390626 -0.390625 1.019532 0 1.414063 c 0.394531 0.390625 1.023437 0.390625 1.414063 0 l 0.707031 -0.707031 c 0.394531 -0.394532 0.394531 -1.023438 0 -1.414063 c -0.195313 -0.199219 -0.449219 -0.296875 -0.707031 -0.296875 z m -11.992188 4.996094 c -0.554688 0 -1 0.445312 -1 1 s 0.445312 1 1 1 h 1 c 0.554688 0 1 -0.445312 1 -1 s -0.445312 -1 -1 -1 z m 13 0 c -0.554688 0 -1 0.445312 -1 1 s 0.445312 1 1 1 h 1 c 0.554688 0 1 -0.445312 1 -1 s -0.445312 -1 -1 -1 z m -10.335938 4.285156 c -0.238281 0.011719 -0.472656 0.109375 -0.65625 0.292969 l -0.707031 0.707031 c -0.390625 0.394532 -0.390625 1.023438 0 1.414063 c 0.390625 0.394531 1.023438 0.394531 1.414063 0 l 0.707031 -0.707031 c 0.390625 -0.390626 0.390625 -1.019532 0 -1.414063 c -0.207031 -0.207031 -0.484375 -0.304687 -0.757813 -0.292969 z m 8.574219 0 c -0.238281 0.011719 -0.472656 0.109375 -0.660156 0.292969 c -0.390625 0.394531 -0.390625 1.023437 0 1.414063 l 0.707031 0.707031 c 0.394532 0.394531 1.023438 0.394531 1.414063 0 c 0.394531 -0.390625 0.394531 -1.019531 0 -1.414063 l -0.707031 -0.707031 c -0.207032 -0.207031 -0.484376 -0.304687 -0.753907 -0.292969 z m -4.292969 1.714844 c -0.527343 0.027344 -0.945312 0.464844 -0.945312 1 v 1 c 0 0.554688 0.445312 1 1 1 s 1 -0.445312 1 -1 v -1 c 0 -0.554688 -0.445312 -1 -1 -1 c -0.015625 0 -0.035156 0 -0.050781 0 z m 0 0"/>
        <path d="m 7.332031 4 h 1.15625 c 0.4375 0 0.828125 0.277344 0.96875 0.695312 l 1.910157 5.609376 c 0.054687 0.160156 0.027343 0.339843 -0.070313 0.476562 s -0.257813 0.21875 -0.425781 0.21875 h -0.710938 c -0.433594 0 -0.820312 -0.285156 -0.945312 -0.703125 l -0.066406 -0.214844 c -0.078126 -0.261719 -0.320313 -0.441406 -0.589844 -0.441406 h -1.257813 c -0.269531 0 -0.511719 0.183594 -0.585937 0.445313 l -0.058594 0.210937 c -0.121094 0.414063 -0.503906 0.703125 -0.9375 0.703125 h -0.679688 c -0.171874 0 -0.332031 -0.082031 -0.429687 -0.21875 c -0.101563 -0.140625 -0.128906 -0.316406 -0.078125 -0.476562 l 1.839844 -5.609376 c 0.136718 -0.414062 0.523437 -0.695312 0.960937 -0.695312 z m 0.339844 2.886719 l -0.335937 1.058593 c -0.019532 0.058594 -0.007813 0.128907 0.027343 0.179688 c 0.039063 0.050781 0.101563 0.082031 0.164063 0.082031 h 0.789062 c 0.0625 0 0.121094 -0.03125 0.160156 -0.082031 c 0.035157 -0.050781 0.046876 -0.117188 0.023438 -0.179688 l -0.367188 -1.066406 c -0.035156 -0.097656 -0.128906 -0.164062 -0.234374 -0.164062 c -0.101563 0.003906 -0.195313 0.070312 -0.226563 0.171875 z m 0 0"/>
    </g>
</svg>
