<?xml version="1.0" encoding="UTF-8"?>
<svg height="16px" viewBox="0 0 16 16" width="16px" xmlns="http://www.w3.org/2000/svg">
    <path d="m 2.910156 0.03125 c -0.964844 0 -1.742187 0.777344 -1.742187 1.742188 v 12.449218 c 0 0.964844 0.777343 1.746094 1.742187 1.746094 h 10.203125 c 0.964844 0 1.746094 -0.78125 1.746094 -1.746094 v -12.449218 c 0 -0.964844 -0.78125 -1.742188 -1.746094 -1.742188 z m 0.75 1.96875 h 8.703125 c 0.046875 0 0.09375 0.003906 0.136719 0.015625 c 0.042969 0.007813 0.082031 0.019531 0.121094 0.035156 c 0.042968 0.015625 0.078125 0.039063 0.113281 0.0625 c 0.035156 0.023438 0.066406 0.050781 0.097656 0.082031 c 0.03125 0.027344 0.054688 0.0625 0.078125 0.097657 c 0.027344 0.035156 0.046875 0.070312 0.0625 0.109375 c 0.019532 0.039062 0.03125 0.078125 0.039063 0.125 c 0.007812 0.042968 0.011719 0.085937 0.011719 0.132812 v 7.679688 c 0 0.046875 -0.003907 0.09375 -0.011719 0.136718 c -0.007813 0.042969 -0.019531 0.082032 -0.039063 0.121094 c -0.015625 0.039063 -0.035156 0.078125 -0.0625 0.113282 c -0.023437 0.035156 -0.046875 0.066406 -0.078125 0.097656 c -0.03125 0.027344 -0.0625 0.054687 -0.097656 0.078125 c -0.035156 0.023437 -0.070313 0.046875 -0.113281 0.0625 c -0.039063 0.015625 -0.078125 0.027343 -0.121094 0.039062 c -0.042969 0.007813 -0.089844 0.011719 -0.136719 0.011719 h -8.703125 c -0.046875 0 -0.09375 -0.003906 -0.136718 -0.011719 c -0.042969 -0.011719 -0.082032 -0.023437 -0.121094 -0.039062 c -0.039063 -0.015625 -0.078125 -0.039063 -0.113282 -0.0625 c -0.03125 -0.023438 -0.066406 -0.050781 -0.097656 -0.078125 c -0.027344 -0.03125 -0.054687 -0.0625 -0.078125 -0.097656 c -0.023437 -0.035157 -0.046875 -0.074219 -0.0625 -0.113282 c -0.015625 -0.039062 -0.027343 -0.078125 -0.039062 -0.121094 c -0.007813 -0.042968 -0.011719 -0.089843 -0.011719 -0.136718 v -7.679688 c 0 -0.046875 0.003906 -0.089844 0.011719 -0.132812 c 0.011719 -0.042969 0.023437 -0.085938 0.039062 -0.125 c 0.015625 -0.039063 0.039063 -0.074219 0.0625 -0.109375 c 0.023438 -0.035157 0.050781 -0.070313 0.078125 -0.097657 c 0.03125 -0.03125 0.066406 -0.058593 0.097656 -0.082031 c 0.035157 -0.023437 0.074219 -0.046875 0.113282 -0.0625 c 0.039062 -0.015625 0.078125 -0.027343 0.121094 -0.035156 c 0.046874 -0.011719 0.089843 -0.015625 0.136718 -0.015625 z m 1.339844 1 c -0.554688 0 -1 0.445312 -1 1 s 0.445312 1 1 1 s 1 -0.445312 1 -1 s -0.445312 -1 -1 -1 z m 6.023438 0 c -0.550782 0 -1 0.445312 -1 1 s 0.449218 1 1 1 c 0.554687 0 1 -0.445312 1 -1 s -0.445313 -1 -1 -1 z m -6.023438 5 c -0.554688 0 -1 0.445312 -1 1 s 0.445312 1 1 1 s 1 -0.445312 1 -1 s -0.445312 -1 -1 -1 z m 6.023438 0 c -0.550782 0 -1 0.445312 -1 1 s 0.449218 1 1 1 c 0.554687 0 1 -0.445312 1 -1 s -0.445313 -1 -1 -1 z m -2.988282 4.738281 c 0.554688 0 1 0.34375 1 0.765625 s -0.445312 0.761719 -1 0.761719 c -0.554687 0 -1 -0.339844 -1 -0.761719 s 0.445313 -0.765625 1 -0.765625 z m 0 0" fill="#222222"/>
</svg>
