<?xml version="1.0" encoding="UTF-8"?>
<svg height="16px" viewBox="0 0 16 16" width="16px" xmlns="http://www.w3.org/2000/svg">
    <path d="m 5 0 c -1.660156 0 -3 1.339844 -3 3 v 3 h -0.941406 v 1 c 0 1.105469 0.894531 2 2 2 h 9.960937 c 1.105469 0 2 -0.894531 2 -2 v -1 h -1.019531 v -3 c 0 -1.660156 -1.339844 -3 -3 -3 z m 0 2 h 6 c 0.546875 0 1 0.453125 1 1 v 3 h -8 v -3 c 0 -0.546875 0.453125 -1 1 -1 z m 2.5 8 c -0.277344 0 -0.5 0.222656 -0.5 0.5 v 1.5 h -2 l 3 3 l 3 -3 h -2 v -1.5 c 0 -0.277344 -0.222656 -0.5 -0.5 -0.5 z m -6.5 4 c -0.554688 0 -1 0.445312 -1 1 s 0.445312 1 1 1 h 6 l -2 -2 z m 10 0 l -2 2 h 6 c 0.554688 0 1 -0.445312 1 -1 s -0.445312 -1 -1 -1 z m 0 0" fill="#222222"/>
</svg>
