<?xml version="1.0" encoding="UTF-8"?>
<svg height="16px" viewBox="0 0 16 16" width="16px" xmlns="http://www.w3.org/2000/svg">
    <g fill="#222222">
        <path d="m 4.46875 1 c -0.820312 0 -1.46875 0.648438 -1.46875 1.46875 v 11.0625 c 0 0.820312 0.648438 1.46875 1.46875 1.46875 h 7.0625 c 0.820312 0 1.46875 -0.648438 1.46875 -1.46875 v -11.0625 c 0 -0.820312 -0.648438 -1.46875 -1.46875 -1.46875 z m -0.46875 1 h 8 v 5 h -8 z m 4 6 c 1.65625 0 3 1.34375 3 3 s -1.34375 3 -3 3 s -3 -1.34375 -3 -3 s 1.34375 -3 3 -3 z m 0 0"/>
        <path d="m 9.5 11 c 0 0.828125 -0.671875 1.5 -1.5 1.5 s -1.5 -0.671875 -1.5 -1.5 s 0.671875 -1.5 1.5 -1.5 s 1.5 0.671875 1.5 1.5 z m 0 0"/>
    </g>
</svg>
