<?xml version="1.0" encoding="UTF-8"?>
<svg height="16px" viewBox="0 0 16 16" width="16px" xmlns="http://www.w3.org/2000/svg">
    <path d="m 7.496094 0 c -3.898438 0.00390625 -7.160156 3.011719 -7.4726565 6.898438 l -0.0234375 0.289062 v 0.8125 h 15 v -0.5 l -0.027344 -0.609375 c -0.316406 -3.886719 -3.578125 -6.89453125 -7.476562 -6.890625 z m -0.496094 2.023438 v 2.933593 c -0.609375 -0.089843 -1.25 -0.347656 -1.929688 -0.808593 c 0.316407 -0.734376 0.804688 -1.449219 1.585938 -2.085938 c 0.113281 -0.015625 0.226562 -0.027344 0.34375 -0.039062 z m 1 0 c 0.132812 0.011718 0.261719 0.03125 0.394531 0.050781 c 0.773438 0.632812 1.257813 1.339843 1.570313 2.074219 c -0.660156 0.449218 -1.3125 0.726562 -1.964844 0.816406 z m -3.316406 0.75 c -0.164063 0.246093 -0.304688 0.496093 -0.425782 0.75 c -0.09375 -0.082032 -0.1875 -0.164063 -0.28125 -0.253907 c 0.21875 -0.183593 0.457032 -0.347656 0.707032 -0.496093 z m 5.691406 0.035156 c 0.230469 0.140625 0.449219 0.296875 0.652344 0.464844 c -0.085938 0.082031 -0.171875 0.160156 -0.257813 0.234374 c -0.113281 -0.234374 -0.242187 -0.46875 -0.394531 -0.699218 z m -7.105469 1.167968 c 0.203125 0.191407 0.410157 0.367188 0.613281 0.53125 c -0.265624 0.875 -0.34375 1.730469 -0.371093 2.492188 h -1.488281 c 0.105468 -1.152344 0.554687 -2.191406 1.246093 -3.023438 z m 8.464844 0.007813 c 0.6875 0.828125 1.136719 1.867187 1.242187 3.015625 h -1.457031 c -0.023437 -0.761719 -0.101562 -1.621094 -0.363281 -2.5 c 0.191406 -0.160156 0.386719 -0.332031 0.578125 -0.515625 z m -6.984375 1.140625 c 0.757812 0.472656 1.507812 0.753906 2.25 0.84375 v 1.03125 h -2.484375 c 0.023437 -0.601562 0.078125 -1.238281 0.234375 -1.875 z m 5.539062 0.007812 c 0.152344 0.632813 0.210938 1.269532 0.230469 1.867188 h -2.519531 v -1.027344 c 0.796875 -0.085937 1.558594 -0.378906 2.289062 -0.839844 z m -9.289062 3.867188 c -0.550781 0 -1 0.449219 -1 1 v 1 c 0 0.75 0.394531 1.1875 0.824219 1.605469 c 0.429687 0.417969 0.984375 0.804687 1.648437 1.15625 c 1.324219 0.695312 3.085938 1.238281 5.027344 1.238281 s 3.703125 -0.542969 5.027344 -1.238281 c 0.664062 -0.351563 1.21875 -0.738281 1.648437 -1.15625 c 0.429688 -0.417969 0.824219 -0.855469 0.824219 -1.605469 v -1 c 0 -0.550781 -0.449219 -1 -1 -1 h -3 s -0.457031 -0.015625 -0.949219 0.230469 c -0.488281 0.246093 -1.050781 0.9375 -1.050781 1.769531 v 1.800781 c -0.492188 0.089844 -0.976562 0.199219 -1.5 0.199219 s -1.007812 -0.109375 -1.5 -0.199219 v -1.800781 c 0 -0.832031 -0.5625 -1.523438 -1.050781 -1.769531 c -0.492188 -0.246094 -0.949219 -0.230469 -0.949219 -0.230469 z m 1.078125 2 h 1.921875 v 1.21875 c -0.191406 -0.082031 -0.429688 -0.140625 -0.597656 -0.230469 c -0.523438 -0.273437 -0.9375 -0.574219 -1.179688 -0.8125 c -0.066406 -0.066406 -0.113281 -0.125 -0.144531 -0.175781 z m 8.921875 0 h 1.921875 c -0.03125 0.050781 -0.078125 0.109375 -0.144531 0.175781 c -0.242188 0.238281 -0.65625 0.539063 -1.179688 0.8125 c -0.167968 0.089844 -0.40625 0.148438 -0.597656 0.230469 z m 0 0" fill="#222222"/>
</svg>
