<?xml version="1.0" encoding="UTF-8"?>
<svg height="16px" viewBox="0 0 16 16" width="16px" xmlns="http://www.w3.org/2000/svg">
    <path d="m 4.199219 0.105469 c -0.160157 0.007812 -0.3125 0.050781 -0.449219 0.132812 c -0.230469 0.128907 -0.398438 0.347657 -0.464844 0.605469 c -0.070312 0.257812 -0.035156 0.53125 0.101563 0.761719 l 0.5 0.863281 c 0.273437 0.476562 0.886719 0.640625 1.363281 0.363281 c 0.476562 -0.273437 0.640625 -0.886719 0.363281 -1.363281 l -0.5 -0.863281 c -0.1875 -0.328125 -0.539062 -0.5195315 -0.914062 -0.5 z m 4.601562 0 c -0.375 -0.0195315 -0.726562 0.171875 -0.914062 0.5 l -0.5 0.863281 c -0.277344 0.476562 -0.113281 1.089844 0.363281 1.363281 c 0.476562 0.277344 1.089844 0.113281 1.363281 -0.363281 l 0.5 -0.863281 c 0.136719 -0.230469 0.171875 -0.503907 0.101563 -0.761719 c -0.066406 -0.257812 -0.234375 -0.476562 -0.464844 -0.605469 c -0.136719 -0.082031 -0.289062 -0.125 -0.449219 -0.132812 z m -6.800781 3.894531 c -0.550781 0 -1 0.449219 -1 1 s 0.449219 1 1 1 h 1 c 0.550781 0 1 -0.449219 1 -1 s -0.449219 -1 -1 -1 z m 8 0 c -0.550781 0 -1 0.449219 -1 1 s 0.449219 1 1 1 h 1 c 0.550781 0 1 -0.449219 1 -1 s -0.449219 -1 -1 -1 z m -2.136719 2.011719 c -0.09375 0.011719 -0.1875 0.035156 -0.273437 0.074219 c -0.359375 0.164062 -0.589844 0.519531 -0.589844 0.914062 v 6 c 0 0.40625 0.242188 0.769531 0.617188 0.921875 c 0.375 0.15625 0.804687 0.070313 1.089843 -0.214844 l 0.875 -0.875 l 1.074219 1.699219 c 0.292969 0.46875 0.910156 0.609375 1.375 0.3125 c 0.46875 -0.292969 0.609375 -0.910156 0.3125 -1.375 l -0.917969 -1.46875 h 1.074219 c 0.414062 0 0.789062 -0.257812 0.933594 -0.644531 c 0.148437 -0.390625 0.042968 -0.828125 -0.269532 -1.105469 l -4.5 -4 c -0.21875 -0.191406 -0.511718 -0.28125 -0.800781 -0.238281 z m -3.113281 1.019531 c -0.355469 0 -0.6875 0.191406 -0.863281 0.5 l -0.5 0.863281 c -0.136719 0.230469 -0.171875 0.503907 -0.101563 0.761719 c 0.066406 0.257812 0.234375 0.476562 0.464844 0.605469 c 0.476562 0.277343 1.089844 0.113281 1.363281 -0.367188 l 0.5 -0.863281 c 0.277344 -0.476562 0.113281 -1.089844 -0.363281 -1.363281 c -0.152344 -0.089844 -0.324219 -0.136719 -0.5 -0.136719 z m 0 0" fill="#222222"/>
</svg>
