<?xml version="1.0" encoding="UTF-8"?>
<svg height="16px" viewBox="0 0 16 16" width="16px" xmlns="http://www.w3.org/2000/svg">
    <g fill="#222222">
        <path d="m 7.953125 0 c -0.125 0.0078125 -0.25 0.0351562 -0.367187 0.0898438 c -0.359376 0.1601562 -0.585938 0.5156252 -0.585938 0.9101562 v 5.296875 l -2.34375 -2.050781 c -0.414062 -0.363282 -1.046875 -0.320313 -1.410156 0.09375 c -0.363282 0.417968 -0.320313 1.046875 0.09375 1.410156 l 2.570312 2.25 l -2.570312 2.246094 c -0.414063 0.363281 -0.457032 0.996094 -0.09375 1.410156 c 0.363281 0.414062 0.996094 0.457031 1.410156 0.09375 l 2.34375 -2.046875 v 5.296875 c 0 0.390625 0.230469 0.746094 0.585938 0.910156 c 0.355468 0.160156 0.777343 0.097656 1.070312 -0.160156 l 0.386719 -0.335938 c -0.132813 -0.640624 0.046875 -1.339843 0.535156 -1.828124 l 0.421875 -0.421876 v -0.332031 l -0.421875 -0.417969 c -0.019531 -0.023437 -0.039063 -0.046874 -0.0625 -0.070312 l -0.515625 0.453125 v -2.59375 l 0.121094 0.105469 c 0.097656 -0.265625 0.246094 -0.511719 0.457031 -0.722656 c 0.304687 -0.304688 0.691406 -0.496094 1.109375 -0.5625 l -1.171875 -1.023438 l 3.140625 -2.75 c 0.21875 -0.1875 0.339844 -0.464844 0.339844 -0.75 c 0 -0.289062 -0.121094 -0.5625 -0.339844 -0.753906 l -4 -3.5 c -0.191406 -0.167969 -0.445312 -0.2578128 -0.703125 -0.246094 z m 1.046875 3.203125 l 1.480469 1.296875 l -1.480469 1.296875 z m 0 0" fill-opacity="0.34902"/>
        <path d="m 11 10 c -0.265625 0 -0.519531 0.105469 -0.707031 0.292969 c -0.390625 0.390625 -0.390625 1.023437 0 1.414062 l 1.292969 1.292969 l -1.292969 1.292969 c -0.390625 0.390625 -0.390625 1.023437 0 1.414062 s 1.023437 0.390625 1.414062 0 l 1.292969 -1.292969 l 1.292969 1.292969 c 0.390625 0.390625 1.023437 0.390625 1.414062 0 s 0.390625 -1.023437 0 -1.414062 l -1.292969 -1.292969 l 1.292969 -1.292969 c 0.390625 -0.390625 0.390625 -1.023437 0 -1.414062 c -0.1875 -0.1875 -0.441406 -0.292969 -0.707031 -0.292969 s -0.519531 0.105469 -0.707031 0.292969 l -1.292969 1.292969 l -1.292969 -1.292969 c -0.1875 -0.1875 -0.441406 -0.292969 -0.707031 -0.292969 z m 0 0"/>
    </g>
</svg>
