<?xml version="1.0" encoding="UTF-8"?>
<svg height="16px" viewBox="0 0 16 16" width="16px" xmlns="http://www.w3.org/2000/svg">
    <path d="m 5 0 c -1 0 -1 1 -1 1 v 1 h -1 s -0.707031 -0.015625 -1.449219 0.355469 c -0.738281 0.367187 -1.550781 1.308593 -1.550781 2.644531 v 8 s -0.015625 0.707031 0.355469 1.445312 c 0.371093 0.738282 1.3125 1.554688 2.644531 1.554688 h 3 c 0.550781 0 1 -0.449219 1 -1 c 0 -0.554688 -0.449219 -1 -1 -1 h -3 c -0.554688 0 -1 -0.445312 -1 -1 v -8 c 0 -0.554688 0.445312 -1 1 -1 h 6 c 0.554688 0 1 0.445312 1 1 h 2 c 0 -1.335938 -0.8125 -2.277344 -1.550781 -2.644531 c -0.742188 -0.371094 -1.449219 -0.355469 -1.449219 -0.355469 h -1 v -1 c 0 -1 -1 -1 -1 -1 z m 5 6 c -1.933594 0.273438 -2.722656 2.894531 -3 4 h -2 c -0.550781 0 -1 0.445312 -1 1 c 0 0.550781 0.449219 1 1 1 h 2 c 0.277344 1.101562 1.066406 3.722656 3 4 h 2 s 1 0 1 -1 v -1 h 3 v -2 h -3 v -2 h 3 v -2 h -3 v -1 s 0 -1 -1 -1 z m 0 0" fill="#222222"/>
</svg>
