<?xml version="1.0" encoding="UTF-8"?>
<svg height="16px" viewBox="0 0 16 16" width="16px" xmlns="http://www.w3.org/2000/svg">
    <g fill="#222222">
        <path d="m 3 1 c -1.660156 0 -3 1.339844 -3 3 v 7 c 0 1.660156 1.339844 3 3 3 h 10 c 1.664062 0 3 -1.339844 3 -3 v -7 c 0 -1.660156 -1.335938 -3 -3 -3 z m 0 2 h 10 c 0.554688 0 1 0.445312 1 1 v 7 c 0 0.554688 -0.445312 1 -1 1 h -10 c -0.554688 0 -1 -0.445312 -1 -1 v -7 c 0 -0.554688 0.445312 -1 1 -1 z m 0 0"/>
        <path d="m 8 16 c 3 0 4 -1 4 -1 h -8 s 1 1 4 1 z m 0 0"/>
        <path d="m 8 4 l 3 1.132812 v 1.851563 c 0 1.660156 -2 4.015625 -3 4.015625 c -0.902344 0 -3 -2.355469 -3 -4.015625 v -1.851563 z m 0 0"/>
    </g>
</svg>
