<?xml version="1.0" encoding="UTF-8"?>
<svg height="16px" viewBox="0 0 16 16" width="16px" xmlns="http://www.w3.org/2000/svg">
    <path d="m 12.039062 0.00390625 c -0.257812 -0.01171875 -0.523437 0.07421875 -0.726562 0.28124975 l -3.3125 3.292969 v 1.421875 h 1.390625 l 3.304687 -3.296875 c 0.40625 -0.40625 0.363282 -1.042969 0.03125 -1.394531 c -0.175781 -0.183594 -0.429687 -0.292969 -0.6875 -0.30468775 z m -5.039062 1.00390575 c -0.296875 -0.003906 -0.578125 0.125 -0.765625 0.351563 l -3.234375 3.640625 h -1 c -1.09375 0 -2 0.84375 -2 2 v 2 c 0 1.089844 0.910156 2 2 2 h 1 l 3.234375 3.640625 c 0.207031 0.253906 0.488281 0.363281 0.765625 0.359375 z m 1 5.992188 v 2 h 6 c 0.75 0 1 -0.5 1 -1 s -0.25 -1 -1 -1 z m 0 4 v 1.421875 l 3.324219 3.292969 c 0.402343 0.410156 1.0625 0.347656 1.414062 -0.023438 c 0.332031 -0.351562 0.371094 -0.988281 -0.03125 -1.390625 l -3.316406 -3.300781 z m 0 0" fill="#222222"/>
</svg>
