<?xml version="1.0" encoding="UTF-8"?>
<svg height="16px" viewBox="0 0 16 16" width="16px" xmlns="http://www.w3.org/2000/svg">
    <g fill="#222222">
        <path d="m 7.5 11 c -1.929688 0 -3.5 -1.570312 -3.5 -3.5 s 1.570312 -3.5 3.5 -3.5 s 3.5 1.570312 3.5 3.5 s -1.570312 3.5 -3.5 3.5 z m 0 -9 c -3.042969 0 -5.5 2.457031 -5.5 5.5 s 2.457031 5.5 5.5 5.5 s 5.5 -2.457031 5.5 -5.5 s -2.457031 -5.5 -5.5 -5.5 z m 0 0"/>
        <path d="m 3 7 h 9 v 1 h -9 z m 0 0"/>
        <path d="m 4.199219 6.207031 c 2.203125 -0.292969 4.515625 -0.292969 6.714843 0 c 0.273438 0.035157 0.527344 -0.15625 0.5625 -0.429687 c 0.039063 -0.273438 -0.15625 -0.523438 -0.429687 -0.5625 c -2.285156 -0.304688 -4.691406 -0.304688 -6.980469 0 c -0.273437 0.039062 -0.464844 0.289062 -0.425781 0.5625 c 0.035156 0.273437 0.285156 0.464844 0.558594 0.429687 z m 0 0"/>
        <path d="m 4.199219 8.8125 c 2.203125 0.296875 4.515625 0.296875 6.714843 0 c 0.273438 -0.035156 0.527344 0.15625 0.5625 0.429688 c 0.039063 0.273437 -0.15625 0.527343 -0.429687 0.5625 c -2.285156 0.304687 -4.691406 0.304687 -6.980469 0 c -0.273437 -0.035157 -0.464844 -0.289063 -0.425781 -0.5625 c 0.035156 -0.273438 0.285156 -0.464844 0.558594 -0.429688 z m 0 0"/>
        <path d="m 6.976562 10.753906 c -1.339843 -2.074218 -1.339843 -4.230468 0 -6.304687 c 0.097657 -0.148438 0.105469 -0.339844 0.027344 -0.5 c -0.082031 -0.160157 -0.242187 -0.261719 -0.421875 -0.269531 c -0.179687 -0.011719 -0.347656 0.078124 -0.445312 0.226562 c -1.558594 2.410156 -1.558594 4.980469 0 7.390625 c 0.097656 0.152344 0.265625 0.238281 0.445312 0.230469 c 0.179688 -0.011719 0.339844 -0.113282 0.421875 -0.273438 c 0.078125 -0.160156 0.070313 -0.347656 -0.027344 -0.5 z m 0 0"/>
        <path d="m 7.949219 10.753906 c 1.339843 -2.074218 1.339843 -4.230468 0 -6.304687 c -0.097657 -0.148438 -0.109375 -0.339844 -0.027344 -0.5 c 0.082031 -0.15625 0.242187 -0.261719 0.421875 -0.269531 c 0.179688 -0.011719 0.347656 0.078124 0.445312 0.226562 c 1.558594 2.410156 1.558594 4.980469 0 7.390625 c -0.097656 0.152344 -0.265624 0.238281 -0.445312 0.230469 c -0.179688 -0.011719 -0.339844 -0.113282 -0.421875 -0.273438 s -0.070313 -0.347656 0.027344 -0.5 z m 0 0"/>
    </g>
</svg>
