<?xml version="1.0" encoding="UTF-8"?>
<svg height="16px" viewBox="0 0 16 16" width="16px" xmlns="http://www.w3.org/2000/svg">
    <g fill="#222222">
        <path d="m 3 11.980469 c 0 0.550781 0.449219 1 1 1 h 8 c 0.550781 0 1 -0.449219 1 -1 v -5.980469 c 0 -0.550781 -0.449219 -1 -1 -1 h -8 c -0.550781 0 -1 0.449219 -1 1 z m 9 -4.980469 l -1 -1 v 5.980469 l 1 -1 h -8 l 1 1 v -5.980469 l -1 1 z m 0 0"/>
        <path d="m 3.5 7.027344 l 4.207031 3.027344 c 0.175781 0.128906 0.410157 0.128906 0.582031 0 l 4.210938 -3.027344 c 0.222656 -0.160156 0.273438 -0.472656 0.113281 -0.699219 c -0.160156 -0.222656 -0.472656 -0.273437 -0.699219 -0.113281 l -4.207031 3.03125 h 0.582031 l -4.207031 -3.03125 c -0.144531 -0.105469 -0.335937 -0.125 -0.496093 -0.050782 c -0.164063 0.074219 -0.277344 0.230469 -0.292969 0.40625 c -0.019531 0.179688 0.058593 0.351563 0.207031 0.457032 z m 0 0"/>
    </g>
</svg>
