<?xml version="1.0" encoding="UTF-8"?>
<svg height="16px" viewBox="0 0 16 16" width="16px" xmlns="http://www.w3.org/2000/svg">
    <path d="m 4 6.734375 c -0.699219 0 -1.265625 0.566406 -1.265625 1.265625 s 0.566406 1.265625 1.265625 1.265625 s 1.265625 -0.566406 1.265625 -1.265625 s -0.566406 -1.265625 -1.265625 -1.265625 z m 4 0 c -0.699219 0 -1.265625 0.566406 -1.265625 1.265625 s 0.566406 1.265625 1.265625 1.265625 s 1.265625 -0.566406 1.265625 -1.265625 s -0.566406 -1.265625 -1.265625 -1.265625 z m 4 0 c -0.699219 0 -1.265625 0.566406 -1.265625 1.265625 s 0.566406 1.265625 1.265625 1.265625 s 1.265625 -0.566406 1.265625 -1.265625 s -0.566406 -1.265625 -1.265625 -1.265625 z m 0 0" fill="#222222"/>
</svg>
