<?xml version="1.0" encoding="UTF-8"?>
<svg height="16.019531px" viewBox="0 0 16.023438 16.019531" width="16.023438px" xmlns="http://www.w3.org/2000/svg">
    <g fill="#2e3436">
        <path d="m 7 0 c -0.796875 0.0078125 -1.59375 0.3125 -2.199219 0.910156 l -2.777343 2.707032 v -0.597657 c 0 -0.554687 -0.445313 -1 -1 -1 c -0.550782 0 -1.0000005 0.445313 -1.0000005 1 v 3 c 0.0039063 0.550781 0.4492185 1 1.0000005 1 h 3 c 0.554687 0 1 -0.449219 1 -1 c 0 -0.554687 -0.445313 -1 -1 -1 h -0.574219 l 2.757812 -2.707031 c 0.363281 -0.359375 1.242188 -0.371094 1.597657 -0.019531 l 5.519531 5.4375 c 0.394531 0.386719 1.027343 0.382812 1.414062 -0.011719 c 0.386719 -0.390625 0.382813 -1.027344 -0.011719 -1.414062 l -5.515624 -5.414063 c -0.613282 -0.605469 -1.414063 -0.890625 -2.210938 -0.890625 z m -4.945312 8.019531 c -0.273438 -0.007812 -0.542969 0.097657 -0.742188 0.296875 c -0.386719 0.394532 -0.382812 1.027344 0.011719 1.414063 l 5.480469 5.378906 c 0.613281 0.605469 1.425781 0.867187 2.222656 0.878906 v -1.976562 c -0.339844 -0.015625 -0.660156 -0.148438 -0.820313 -0.308594 l -5.480469 -5.394531 c -0.148437 -0.148438 -0.34375 -0.246094 -0.550781 -0.277344 c -0.039062 -0.007812 -0.078125 -0.007812 -0.117187 -0.011719 z m 0 0" fill-opacity="0.34902"/>
        <path d="m 13.023438 9.019531 c -1.097657 0 -2 0.898438 -2 2 v 1 h -1 v 4 h 6 v -4 h -1 v -1 c 0 -1.101562 -0.898438 -2 -2 -2 z m 0 1 c 0.566406 0 1 0.4375 1 1 v 1 h -2 v -1 c 0 -0.5625 0.4375 -1 1 -1 z m 0 0"/>
    </g>
</svg>
