<?xml version="1.0" encoding="UTF-8"?>
<svg height="16px" viewBox="0 0 16 16" width="16px" xmlns="http://www.w3.org/2000/svg">
    <path d="m 7 0 c -0.796875 0.0078125 -1.59375 0.3125 -2.199219 0.910156 l -2.777343 2.707032 v -0.597657 c 0 -0.554687 -0.445313 -1 -1 -1 c -0.550782 0 -1.0000005 0.445313 -1.0000005 1 v 3 c 0.0039063 0.550781 0.4492185 1 1.0000005 1 h 3 c 0.554687 0 1 -0.449219 1 -1 c 0 -0.554687 -0.445313 -1 -1 -1 h -0.574219 l 2.757812 -2.707031 c 0.363281 -0.359375 1.242188 -0.371094 1.597657 -0.019531 l 5.519531 5.4375 c 0.394531 0.386719 1.027343 0.382812 1.414062 -0.011719 c 0.386719 -0.390625 0.382813 -1.027344 -0.011719 -1.414062 l -5.515624 -5.414063 c -0.613282 -0.601563 -1.414063 -0.890625 -2.210938 -0.890625 z m -4.824219 8.03125 c -0.316406 -0.046875 -0.636719 0.058594 -0.863281 0.285156 c -0.386719 0.394532 -0.382812 1.027344 0.011719 1.414063 l 5.480469 5.378906 c 0.621093 0.609375 1.441406 0.875 2.246093 0.882813 c 0.800781 0.007812 1.636719 -0.246094 2.265625 -0.871094 l 2.707032 -2.6875 v 0.585937 c 0 0.550781 0.449218 1 1 1 c 0.554687 0 1 -0.449219 1 -1 v -3 c 0 -0.554687 -0.445313 -1 -1 -1 h -3 c -0.550782 0 -1 0.445313 -1 1 c 0 0.550781 0.449218 1 1 1 h 0.589843 l -2.714843 2.710938 c -0.15625 0.15625 -0.476563 0.285156 -0.828126 0.28125 c -0.355468 0 -0.695312 -0.140625 -0.863281 -0.308594 l -5.480469 -5.394531 c -0.148437 -0.148438 -0.34375 -0.246094 -0.550781 -0.277344 z m 0 0" fill="#2e3436"/>
</svg>
