<?xml version="1.0" encoding="UTF-8"?>
<svg height="16px" viewBox="0 0 16 16" width="16px" xmlns="http://www.w3.org/2000/svg">
    <g fill="#222222">
        <path d="m 3.902344 4 c 0.265625 -0.003906 0.523437 0.097656 0.710937 0.28125 c 0.398438 0.386719 0.40625 1.019531 0.019531 1.417969 l -1.265624 1.300781 h 7.550781 c 0.550781 0 1 0.449219 1 1 s -0.449219 1 -1 1 h -7.550781 l 1.265624 1.300781 c 0.386719 0.398438 0.378907 1.03125 -0.019531 1.417969 c -0.394531 0.382812 -1.027343 0.375 -1.414062 -0.019531 l -2.917969 -3 c -0.375 -0.390625 -0.375 -1.007813 0 -1.394531 l 2.917969 -3 c 0.1875 -0.191407 0.441406 -0.300782 0.703125 -0.300782 z m 0 0" fill-rule="evenodd"/>
        <path d="m 15 1 v 14 h -2 v -14 z m 0 0"/>
    </g>
</svg>
