<?xml version="1.0" encoding="UTF-8"?>
<svg height="16px" viewBox="0 0 16 16" width="16px" xmlns="http://www.w3.org/2000/svg">
    <path d="m 8.03125 0 c -0.523438 -0.015625 -1.03125 0.386719 -1.03125 1 v 3 h -5 c -0.832031 0 -1.523438 0.5625 -1.769531 1.050781 c -0.246094 0.492188 -0.230469 0.949219 -0.230469 0.949219 v 4 s -0.015625 0.457031 0.230469 0.949219 c 0.246093 0.488281 0.9375 1.050781 1.769531 1.050781 h 5 v 3 c 0 0.613281 0.507812 1.015625 1.03125 1 c 0.238281 -0.003906 0.480469 -0.097656 0.675781 -0.292969 l 6 -6 c 0.027344 -0.027343 0.050781 -0.054687 0.074219 -0.085937 c 0.375 -0.472656 0.558594 -1.046875 0.558594 -1.621094 s -0.183594 -1.148438 -0.558594 -1.621094 c -0.023438 -0.03125 -0.046875 -0.058594 -0.074219 -0.085937 l -6 -6 c -0.195312 -0.1953128 -0.4375 -0.28906275 -0.675781 -0.292969 z m 0.914062 3 c 1.46875 1.601562 2.765626 3 4.269532 4.632812 c 0.121094 0.152344 0.175781 0.261719 0.179687 0.367188 c -0.003906 0.105469 -0.058593 0.214844 -0.179687 0.367188 c -1.503906 1.632812 -2.800782 3.03125 -4.269532 4.632812 l 0.054688 -2 v -1 h -7 v -4 h 7 v -1 z m 0 0" fill="#222222"/>
</svg>
