<?xml version="1.0" encoding="UTF-8"?>
<svg height="16px" viewBox="0 0 16 16" width="16px" xmlns="http://www.w3.org/2000/svg">
    <g fill="#222222">
        <path d="m 11.015625 1 c -0.257813 -0.003906 -0.515625 0.089844 -0.710937 0.28125 c -0.398438 0.386719 -0.40625 1.019531 -0.019532 1.414062 l 1.265625 1.304688 h -3.550781 c 1.429688 0 2.75 0.761719 3.464844 2 h 0.085937 l -0.054687 0.058594 c 0.332031 0.59375 0.503906 1.261718 0.503906 1.941406 c -0.003906 0.148438 -0.015625 0.296875 -0.035156 0.441406 l 2.667968 -2.746094 c 0.378907 -0.386718 0.378907 -1.003906 0 -1.390624 l -2.917968 -3.003907 c -0.191406 -0.195312 -0.445313 -0.296875 -0.699219 -0.300781 z m -3.015625 3 h -1 c -0.320312 0.007812 -0.613281 0.167969 -0.796875 0.429688 c 0.558594 -0.28125 1.171875 -0.429688 1.796875 -0.429688 z m -3.964844 3.558594 l -2.667968 2.746094 c -0.378907 0.386718 -0.378907 1.003906 0 1.390624 l 2.917968 3 c 0.382813 0.398438 1.015625 0.40625 1.414063 0.019532 c 0.195312 -0.191406 0.296875 -0.445313 0.300781 -0.703125 c 0.003906 -0.253907 -0.089844 -0.511719 -0.28125 -0.710938 l -1.269531 -1.300781 h 1.550781 v -2 h -1.550781 l 1.164062 -1.195312 h -1.519531 c -0.058594 -0.265626 -0.089844 -0.535157 -0.09375 -0.804688 c 0.003906 -0.148438 0.015625 -0.296875 0.035156 -0.441406 z m 0 0" fill-opacity="0.34902" fill-rule="evenodd"/>
        <path d="m 8.1875 4.976562 c -0.4375 -0.023437 -0.882812 0.046876 -1.300781 0.222657 c -1.117188 0.460937 -1.851563 1.558593 -1.851563 2.769531 h 2 c 0 -0.40625 0.242188 -0.769531 0.617188 -0.925781 c 0.375 -0.152344 0.800781 -0.070313 1.089844 0.21875 c 0.289062 0.289062 0.375 0.714843 0.21875 1.089843 s -0.519532 0.617188 -0.925782 0.617188 c -0.550781 0 -1 0.449219 -1 1 v 2 h 2 v -1.179688 c 0.785156 -0.28125 1.441406 -0.875 1.773438 -1.671874 c 0.460937 -1.117188 0.203125 -2.414063 -0.652344 -3.269532 c -0.535156 -0.535156 -1.242188 -0.835937 -1.96875 -0.871094 z m -0.152344 7.992188 c -0.550781 0 -1 0.449219 -1 1 s 0.449219 1 1 1 c 0.550782 0 1 -0.449219 1 -1 s -0.449218 -1 -1 -1 z m 0 0"/>
    </g>
</svg>
