<?xml version="1.0" encoding="UTF-8"?>
<svg height="16px" viewBox="0 0 16 16" width="16px" xmlns="http://www.w3.org/2000/svg">
    <g fill="#222222">
        <path d="m 12.097656 4 c 0.261719 0.003906 0.515625 0.113281 0.703125 0.300781 l 2.917969 3 c 0.375 0.390625 0.375 1.007813 0 1.398438 l -2.917969 3 c -0.386719 0.394531 -1.019531 0.402343 -1.414062 0.015625 c -0.398438 -0.382813 -0.40625 -1.015625 -0.019531 -1.414063 l 1.265624 -1.300781 h -7.550781 c -0.550781 0 -1 -0.449219 -1 -1 s 0.449219 -1 1 -1 h 7.550781 l -1.265624 -1.300781 c -0.386719 -0.398438 -0.378907 -1.03125 0.019531 -1.417969 c 0.1875 -0.183594 0.445312 -0.285156 0.710937 -0.28125 z m 0 0" fill-rule="evenodd"/>
        <path d="m 1 1 v 14 h 2 v -14 z m 0 0"/>
    </g>
</svg>
