<?xml version="1.0" encoding="UTF-8"?>
<svg height="16px" viewBox="0 0 16 16" width="16px" xmlns="http://www.w3.org/2000/svg">
    <g fill="#222222">
        <path d="m 4.28125 7.304688 c -0.382812 0.394531 -0.375 1.027343 0.019531 1.414062 l 3 2.917969 c 0.390625 0.375 1.007813 0.375 1.394531 0 l 3 -2.917969 c 0.398438 -0.386719 0.40625 -1.019531 0.019532 -1.414062 c -0.382813 -0.398438 -1.015625 -0.40625 -1.414063 -0.019532 l -2.300781 2.238282 l -2.304688 -2.238282 c -0.394531 -0.386718 -1.027343 -0.378906 -1.414062 0.015625 z m 0 0" fill-rule="evenodd"/>
        <path d="m 9 10 v -9 c 0 -0.550781 -0.449219 -1 -1 -1 c -0.554688 0 -1 0.449219 -1 1 v 9 c 0 0.550781 0.445312 1 1 1 c 0.550781 0 1 -0.449219 1 -1 z m 0 0"/>
    </g>
</svg>
