<?xml version="1.0" encoding="UTF-8"?>
<svg height="16px" viewBox="0 0 16 16" width="16px" xmlns="http://www.w3.org/2000/svg">
    <g fill="#222222">
        <path d="m 14.292969 8.707031 l -7 -7 h 1.414062 l -7 7 c -0.390625 0.390625 -1.023437 0.390625 -1.414062 0 c -0.3906252 -0.390625 -0.3906252 -1.023437 0 -1.414062 l 7 -7 c 0.390625 -0.3906252 1.023437 -0.3906252 1.414062 0 l 7 7 c 0.390625 0.390625 0.390625 1.023437 0 1.414062 s -1.023437 0.390625 -1.414062 0 z m 0 0"/>
        <path d="m 9 1 v 14 c 0 0.550781 -0.449219 1 -1 1 s -1 -0.449219 -1 -1 v -14 c 0 -0.550781 0.449219 -1 1 -1 s 1 0.449219 1 1 z m 0 0"/>
    </g>
</svg>
