<?xml version="1.0" encoding="UTF-8"?>
<svg height="16px" viewBox="0 0 16 16" width="16px" xmlns="http://www.w3.org/2000/svg">
    <path d="m 16 8 c 0 2.753906 -2.246094 5 -5 5 h -10 c -0.550781 0 -1 -0.449219 -1 -1 s 0.449219 -1 1 -1 h 10 c 1.679688 0 3 -1.320312 3 -3 s -1.320312 -3 -3 -3 h -3.585938 l 1.292969 1.292969 c 0.390625 0.390625 0.390625 1.023437 0 1.414062 s -1.023437 0.390625 -1.414062 0 l -3 -3 c -0.390625 -0.390625 -0.390625 -1.023437 0 -1.414062 l 3 -3 c 0.390625 -0.3906252 1.023437 -0.3906252 1.414062 0 c 0.1875 0.1875 0.292969 0.441406 0.292969 0.707031 s -0.105469 0.519531 -0.292969 0.707031 l -1.292969 1.292969 h 3.585938 c 2.753906 0 5 2.246094 5 5 z m 0 0" fill="#222222"/>
</svg>
