<?xml version="1.0" encoding="UTF-8"?>
<svg height="16px" viewBox="0 0 16 16" width="16px" xmlns="http://www.w3.org/2000/svg">
    <path d="m 4.988281 14 c -0.265625 -0.003906 -0.519531 -0.113281 -0.703125 -0.300781 l -2.917968 -3 c -0.378907 -0.390625 -0.378907 -1.007813 0 -1.398438 l 2.917968 -3 c 0.382813 -0.394531 1.015625 -0.402343 1.414063 -0.015625 c 0.394531 0.382813 0.402343 1.015625 0.019531 1.414063 l -1.269531 1.300781 h 4.550781 c 1.527344 0 2.996094 -1.441406 3 -3 v -4 c 0 -0.550781 0.449219 -1 1 -1 s 1 0.449219 1 1 v 4 c -0.003906 2.683594 -2.347656 5 -5 5 h -4.550781 l 1.269531 1.300781 c 0.382812 0.398438 0.375 1.03125 -0.019531 1.417969 c -0.191407 0.183594 -0.449219 0.285156 -0.710938 0.28125 z m 0 0" fill="#222222" fill-rule="evenodd"/>
</svg>
