<?xml version="1.0" encoding="UTF-8"?>
<svg height="16px" viewBox="0 0 16 16" width="16px" xmlns="http://www.w3.org/2000/svg">
    <g fill="#222222">
        <path d="m 9 2 c -0.265625 0 -0.519531 0.105469 -0.707031 0.292969 l -2 2 c -0.390625 0.390625 -0.390625 1.023437 0 1.414062 l 2 2 c 0.390625 0.390625 1.023437 0.390625 1.414062 0 s 0.390625 -1.023437 0 -1.414062 l -0.292969 -0.292969 h 2.585938 c 1.117188 0 2 0.882812 2 2 s -0.882812 2 -2 2 c -0.550781 0 -1 0.449219 -1 1 s 0.449219 1 1 1 c 2.199219 0 4 -1.800781 4 -4 s -1.800781 -4 -4 -4 h -2.585938 l 0.292969 -0.292969 c 0.390625 -0.390625 0.390625 -1.023437 0 -1.414062 c -0.1875 -0.1875 -0.441406 -0.292969 -0.707031 -0.292969 z m 0 0"/>
        <path d="m 1.582031 4.828125 c -0.960937 0.730469 -1.582031 1.886719 -1.582031 3.175781 c 0 2.199219 1.800781 4 4 4 h 2.585938 l -0.292969 0.292969 c -0.390625 0.390625 -0.390625 1.027344 0 1.417969 c 0.1875 0.1875 0.441406 0.289062 0.707031 0.289062 s 0.519531 -0.101562 0.707031 -0.289062 l 1.378907 -1.382813 l -3.046876 -3.046875 c 0.046876 0.15625 0.128907 0.304688 0.253907 0.429688 l 0.292969 0.289062 h -2.585938 c -1.117188 0 -2 -0.882812 -2 -2 c 0 -0.753906 0.40625 -1.402344 1.011719 -1.742187 z m 0 0"/>
        <path d="m 1.5 0.5 l -1.0625 1.0625 l 14 14 l 1.0625 -1.0625 z m 0 0"/>
    </g>
</svg>
