<?xml version="1.0" encoding="UTF-8"?>
<svg height="16px" viewBox="0 0 16 16" width="16px" xmlns="http://www.w3.org/2000/svg">
    <g fill="#222222">
        <path d="m 9 2 c -0.265625 0 -0.519531 0.105469 -0.707031 0.292969 l -2 2 c -0.390625 0.390625 -0.390625 1.023437 0 1.414062 l 2 2 c 0.390625 0.390625 1.023437 0.390625 1.414062 0 s 0.390625 -1.023437 0 -1.414062 l -0.292969 -0.292969 h 2.585938 c 1.117188 0 2 0.882812 2 2 s -0.882812 2 -2 2 c -0.550781 0 -1 0.449219 -1 1 s 0.449219 1 1 1 c 2.199219 0 4 -1.800781 4 -4 s -1.800781 -4 -4 -4 h -2.585938 l 0.292969 -0.292969 c 0.390625 -0.390625 0.390625 -1.023437 0 -1.414062 c -0.1875 -0.1875 -0.441406 -0.292969 -0.707031 -0.292969 z m 0 0"/>
        <path d="m 7 14.003906 c 0.265625 0 0.519531 -0.105468 0.707031 -0.292968 l 2 -2 c 0.390625 -0.390626 0.390625 -1.023438 0 -1.414063 l -2 -2 c -0.390625 -0.390625 -1.023437 -0.390625 -1.414062 0 s -0.390625 1.023437 0 1.414063 l 0.292969 0.292968 h -2.585938 c -1.117188 0 -2 -0.882812 -2 -2 c 0 -1.113281 0.882812 -2 2 -2 c 0.550781 0 1 -0.445312 1 -1 c 0 -0.550781 -0.449219 -1 -1 -1 c -2.195312 0 -4 1.804688 -4 4 c 0 2.199219 1.804688 4 4 4 h 2.585938 l -0.292969 0.292969 c -0.390625 0.390625 -0.390625 1.023437 0 1.414063 c 0.1875 0.1875 0.441406 0.292968 0.707031 0.292968 z m 0 0"/>
    </g>
</svg>
