<?xml version="1.0" encoding="UTF-8"?>
<svg height="16px" viewBox="0 0 16 16" width="16px" xmlns="http://www.w3.org/2000/svg">
    <g fill="#222222">
        <path d="m 4 13 v -10 l -1 1 h 10.078125 c 0.550781 0 1 -0.449219 1 -1 s -0.449219 -1 -1 -1 h -10.078125 c -0.550781 0 -1 0.449219 -1 1 v 10 c 0 0.550781 0.449219 1 1 1 s 1 -0.449219 1 -1 z m 0 0"/>
        <path d="m 3.292969 4.707031 l 9 9 c 0.390625 0.390625 1.023437 0.390625 1.414062 0 s 0.390625 -1.023437 0 -1.414062 l -9 -9 c -0.390625 -0.390625 -1.023437 -0.390625 -1.414062 0 s -0.390625 1.023437 0 1.414062 z m 0 0"/>
    </g>
</svg>
