<?xml version="1.0" encoding="UTF-8"?>
<svg height="16px" viewBox="0 0 16 16" width="16px" xmlns="http://www.w3.org/2000/svg">
    <g fill="#202020" fill-opacity="0.34902" fill-rule="evenodd">
        <path d="m 4.949219 7 c -0.257813 0.003906 -0.511719 0.105469 -0.703125 0.300781 l -2.917969 3 c -0.378906 0.390625 -0.378906 1.007813 0 1.398438 l 2.917969 3 c 0.386718 0.394531 1.019531 0.402343 1.414062 0.015625 c 0.394532 -0.382813 0.40625 -1.015625 0.019532 -1.414063 l -1.265626 -1.300781 h 4.550782 c 0.550781 0 1 -0.449219 1 -1 s -0.449219 -1 -1 -1 h -4.550782 l 1.265626 -1.300781 c 0.386718 -0.398438 0.375 -1.03125 -0.019532 -1.417969 c -0.199218 -0.191406 -0.453125 -0.285156 -0.710937 -0.28125 z m 0 0"/>
        <path d="m 10.976562 1 c 0.257813 0.003906 0.511719 0.105469 0.703126 0.300781 l 2.917968 3 c 0.378906 0.390625 0.378906 1.007813 0 1.398438 l -2.917968 3 c -0.386719 0.394531 -1.019532 0.402343 -1.414063 0.015625 c -0.394531 -0.382813 -0.40625 -1.015625 -0.019531 -1.414063 l 1.269531 -1.300781 h -4.550781 c -0.554688 0 -1 -0.449219 -1 -1 s 0.445312 -1 1 -1 h 4.550781 l -1.269531 -1.300781 c -0.386719 -0.398438 -0.375 -1.03125 0.019531 -1.417969 c 0.199219 -0.191406 0.453125 -0.285156 0.710937 -0.28125 z m 0 0"/>
    </g>
</svg>
