<?xml version="1.0" encoding="UTF-8"?>
<svg height="16px" viewBox="0 0 16 16" width="16px" xmlns="http://www.w3.org/2000/svg">
    <g fill="#222222">
        <path d="m 8 1 v 2 h -4 c -0.585938 0 -1.140625 0.128906 -1.644531 0.359375 l 1.644531 1.640625 h 4 v 2 h 1 v -0.003906 c 0.265625 0 0.519531 -0.105469 0.707031 -0.289063 l 2 -2 c 0.390625 -0.390625 0.390625 -1.023437 0 -1.414062 l -2 -2 c -0.1875 -0.183594 -0.441406 -0.289063 -0.707031 -0.285157 v -0.007812 z m 6.289062 3 c -0.265624 -0.011719 -0.523437 0.078125 -0.71875 0.257812 c -0.414062 0.367188 -0.449218 1 -0.082031 1.410157 c 0.320313 0.355469 0.511719 0.816406 0.511719 1.339843 v 2 c 0 1.125 -0.875 2 -2 2 h -1.996094 l 2.003906 2 c 2.195313 -0.003906 3.992188 -1.804687 3.992188 -4 v -2 c 0 -1.023437 -0.386719 -1.96875 -1.019531 -2.675781 c -0.175781 -0.199219 -0.425781 -0.316406 -0.691407 -0.332031 z m -13.175781 0.238281 c -0.6875 0.722657 -1.113281 1.695313 -1.113281 2.761719 v 2 c 0 1.019531 0.386719 1.964844 1.019531 2.671875 c 0.367188 0.410156 1 0.445313 1.410157 0.078125 c 0.414062 -0.367188 0.449218 -1 0.082031 -1.410156 c -0.320313 -0.355469 -0.511719 -0.816406 -0.511719 -1.339844 v -2 c 0 -0.53125 0.195312 -1.003906 0.519531 -1.355469 z m 5.117188 5.117188 l -1.9375 1.9375 c -0.390625 0.390625 -0.390625 1.023437 0 1.414062 l 2 2 c 0.1875 0.183594 0.441406 0.289063 0.707031 0.289063 v 0.003906 h 1 v -1.992188 h 1.882812 z m 0 0"/>
        <path d="m 1.5625 0.449219 l -1.0625 1.058593 l 14 14 l 1.0625 -1.0625 z m 0 0"/>
    </g>
</svg>
