<?xml version="1.0" encoding="UTF-8"?>
<svg height="16px" viewBox="0 0 16 16" width="16px" xmlns="http://www.w3.org/2000/svg">
    <path d="m 1.976562 3.773438 c -0.132812 0.007812 -0.257812 0.070312 -0.34375 0.167968 c -1.070312 1.210938 -1.62890575 2.585938 -1.62890575 3.988282 c 0 1.398437 0.55468775 2.808593 1.61718775 4.101562 c 0.171875 0.214844 0.488281 0.246094 0.703125 0.070312 c 0.210937 -0.175781 0.242187 -0.488281 0.070312 -0.703124 c -0.945312 -1.152344 -1.390625 -2.332032 -1.390625 -3.46875 c 0 -1.140626 0.441406 -2.265626 1.378906 -3.324219 c 0.183594 -0.210938 0.160157 -0.527344 -0.046874 -0.707031 c -0.097657 -0.089844 -0.230469 -0.132813 -0.359376 -0.125 z m 11.980469 0 c -0.105469 0.011718 -0.203125 0.054687 -0.28125 0.125 c -0.210937 0.179687 -0.230469 0.496093 -0.046875 0.707031 c 0.9375 1.058593 1.378906 2.183593 1.378906 3.324219 c 0 1.136718 -0.445312 2.316406 -1.390624 3.46875 c -0.175782 0.214843 -0.144532 0.527343 0.070312 0.703124 c 0.214844 0.175782 0.527344 0.144532 0.703125 -0.070312 c 1.058594 -1.292969 1.617187 -2.703125 1.617187 -4.101562 c 0 -1.402344 -0.5625 -2.777344 -1.628906 -3.988282 c -0.105468 -0.121094 -0.261718 -0.183594 -0.421875 -0.167968 z m -8.097656 0.164062 c -0.480469 0.023438 -0.855469 0.417969 -0.855469 0.898438 v 6.359374 c 0 0.675782 0.738282 1.085938 1.3125 0.734376 l 5.265625 -3.25 c 0.503907 -0.3125 0.507813 -1.046876 0.003907 -1.363282 l -5.203126 -3.246094 c -0.15625 -0.097656 -0.339843 -0.144531 -0.523437 -0.132812 z m -2.359375 1.050781 c -0.160156 -0.003906 -0.3125 0.070313 -0.410156 0.195313 c -0.683594 0.886718 -1.070313 1.824218 -1.082032 2.792968 c -0.007812 0.964844 0.367188 1.921876 1.085938 2.835938 c 0.171875 0.214844 0.484375 0.25 0.703125 0.082031 c 0.214844 -0.171875 0.25 -0.488281 0.082031 -0.703125 c -0.617187 -0.777344 -0.878906 -1.5 -0.871094 -2.203125 c 0.007813 -0.707031 0.285157 -1.429687 0.875 -2.195312 c 0.167969 -0.21875 0.125 -0.53125 -0.09375 -0.699219 c -0.082031 -0.066406 -0.183593 -0.101562 -0.289062 -0.105469 z m 9.011719 0 c -0.105469 0.003907 -0.207031 0.039063 -0.289063 0.105469 c -0.222656 0.164062 -0.261718 0.480469 -0.09375 0.699219 c 0.585938 0.765625 0.867188 1.488281 0.875 2.195312 c 0.003906 0.703125 -0.253906 1.425781 -0.871094 2.203125 c -0.171874 0.214844 -0.132812 0.53125 0.082032 0.703125 c 0.21875 0.167969 0.53125 0.132813 0.703125 -0.082031 c 0.71875 -0.914062 1.09375 -1.871094 1.085937 -2.835938 c -0.011718 -0.96875 -0.402344 -1.90625 -1.082031 -2.792968 c -0.097656 -0.125 -0.25 -0.199219 -0.410156 -0.195313 z m 0 0" fill="#222222"/>
</svg>
