<?xml version="1.0" encoding="UTF-8"?>
<svg height="16px" viewBox="0 0 16 16" width="16px" xmlns="http://www.w3.org/2000/svg">
    <g fill="#222222">
        <path d="m 3.003906 3 c -1.109375 0 -2 0.890625 -2 2 v 6 c 0 1.109375 0.890625 2 2 2 h 6 c 1.105469 0 2 -0.890625 2 -2 v -6 c 0 -1.109375 -0.894531 -2 -2 -2 z m 1.980469 2.988281 l 0.015625 0.011719 h 0.003906 v 0.003906 l 1 0.996094 l 0.996094 -0.996094 v -0.003906 h 0.003906 l 0.015625 -0.011719 l 0.011719 0.011719 h 0.96875 v 0.972656 l 0.007812 0.007813 l -0.007812 0.003906 v 0.015625 h -0.015625 l -0.992187 0.988281 l 1.015624 1.007813 l -0.003906 0.003906 v 1 h -1 v -0.027344 l -1 -0.996094 l -1.003906 0.996094 v 0.027344 h -1 v -1 l -0.003906 -0.003906 l 1.015625 -1.007813 l -0.992188 -0.988281 h -0.015625 v -0.015625 l -0.007812 -0.007813 l 0.007812 -0.003906 v -0.972656 h 0.96875 z m 0 0"/>
        <path d="m 11.003906 8 l 3 -3 h 1 v 6 h -1 z m 0 0"/>
    </g>
</svg>
