<?xml version="1.0" encoding="UTF-8"?>
<svg height="16px" viewBox="0 0 16 16" width="16px" xmlns="http://www.w3.org/2000/svg">
    <g fill="#222222">
        <path d="m 14.003906 2.023438 c 1.089844 0.007812 2 0.910156 2 2 v 9 c 0 1.089843 -0.910156 2.003906 -2 2 l -4 -0.023438 v -2 l 4 0.023438 v -9 l -4 -0.023438 v -2 z m 0 0"/>
        <path d="m 3.003906 3 v 3 h 3 v -3 z m 1 1 h 1 v 1 h -1 z m 0 0"/>
        <path d="m 4.003906 7 v 3 h -3 v -3 z m -1 1 h -1 v 1 h 1 z m 0 0"/>
        <path d="m 3.003906 11 v 3 h 3 v -3 z m 1 1 h 1 v 1 h -1 z m 0 0"/>
        <path d="m 0.503906 11.5 v 0.5 h 0.5 v 2 h 1 v -3 h -1 z m 0 0"/>
        <path d="m 4.503906 7.5 v 0.5 h 0.5 v 2 h 1 v -3 h -1 z m 0 0"/>
        <path d="m 0.503906 3.5 v 0.5 h 0.5 v 2 h 1 v -3 h -1 z m 0 0"/>
        <path d="m 9.003906 1 h 1 v 15 h -1 z m 0 0"/>
        <path d="m 7.003906 1 h 1 v 15 h -1 z m 0 0" fill-opacity="0.34902"/>
    </g>
</svg>
