<?xml version="1.0" encoding="UTF-8"?>
<svg height="16px" viewBox="0 0 16 16" width="16px" xmlns="http://www.w3.org/2000/svg">
    <g fill="#222222">
        <path d="m 5.003906 0 c -1.09375 0 -2 0.910156 -2 2 v 9 c 0 1.089844 0.90625 2 2 2 h 9 c 1.089844 0 2 -0.910156 2 -2 v -9 c 0 -1.089844 -0.910156 -2 -2 -2 z m 8 2 v 2 h -2 v 5 c 0 1.105469 -0.898437 2 -2 2 c -1.105468 0 -2 -0.894531 -2 -2 s 0.894532 -2 2 -2 c 0.351563 0 0.695313 0.09375 1 0.269531 v -5.269531 z m 0 0"/>
        <path d="m 2.003906 3 c -1.09375 0 -1.99999975 0.910156 -1.99999975 2 v 9 c 0 1.089844 0.90624975 2 1.99999975 2 h 9 c 1.089844 0 2 -0.910156 2 -2 h -11 z m 0 0"/>
    </g>
</svg>
