<?xml version="1.0" encoding="UTF-8"?>
<svg height="16px" viewBox="0 0 16 16" width="16px" xmlns="http://www.w3.org/2000/svg">
    <path d="m 4.871094 1.011719 c -2.648438 0.074219 -4.7968752 2.210937 -4.8632815 4.890625 c -0.00390625 0.03125 -0.00390625 0.0625 -0.00390625 0.097656 c 0.00390625 0.550781 0.44921875 0.992188 0.99999975 0.992188 c 0.546875 0 0.996094 -0.441407 1 -0.992188 c -0.003906 -1.476562 1.074219 -2.730469 2.535156 -2.953125 c 1.457032 -0.234375 2.871094 0.632813 3.320313 2.042969 c 0.453125 1.398437 -0.175781 2.917968 -1.484375 3.585937 c -1.003906 0.429688 -1.582031 1.238281 -1.867188 1.921875 c -0.292968 0.691406 -0.421874 1.246094 -0.644531 1.589844 c -0.359375 0.558594 -0.863281 0.683594 -1.246093 0.609375 c -0.382813 -0.074219 -0.613282 -0.214844 -0.613282 -0.789063 v -1 v -0.007812 c 0 -0.554688 -0.449218 -1 -1 -1 c -0.554687 0 -0.99999975 0.445312 -0.99999975 1 v 0.007812 v 1 c 0 1.429688 1.05078175 2.527344 2.23828175 2.753907 c 1.183593 0.226562 2.527343 -0.289063 3.304687 -1.496094 c 0.472656 -0.742187 0.609375 -1.441406 0.800781 -1.890625 c 0.191406 -0.453125 0.300782 -0.652344 0.835938 -0.867188 l 0.035156 -0.015624 l 0.039062 -0.019532 c 2.191407 -1.113281 3.253907 -3.65625 2.503907 -5.996094 c -0.65625 -2.019531 -2.511719 -3.40625 -4.632813 -3.464843 z m 8.140625 2.765625 c -0.140625 0 -0.273438 0.066406 -0.363281 0.171875 c -1.070313 1.207031 -1.628907 2.582031 -1.628907 3.984375 s 0.554688 2.808594 1.617188 4.105468 c 0.171875 0.210938 0.488281 0.242188 0.703125 0.066407 c 0.210937 -0.171875 0.242187 -0.488281 0.070312 -0.703125 c -0.945312 -1.152344 -1.390625 -2.328125 -1.390625 -3.46875 s 0.441407 -2.261719 1.378907 -3.324219 c 0.183593 -0.207031 0.160156 -0.523437 -0.046876 -0.707031 c -0.078124 -0.070313 -0.179687 -0.113282 -0.28125 -0.125 c -0.019531 0 -0.039062 0 -0.058593 0 z m 1.503906 1.21875 c -0.160156 0 -0.3125 0.066406 -0.410156 0.195312 c -0.683594 0.886719 -1.070313 1.824219 -1.082031 2.789063 c -0.007813 0.96875 0.363281 1.925781 1.085937 2.839843 c 0.171875 0.214844 0.484375 0.25 0.703125 0.082032 c 0.214844 -0.171875 0.25 -0.488282 0.082031 -0.703125 c -0.617187 -0.777344 -0.878906 -1.5 -0.871093 -2.207031 c 0.007812 -0.703126 0.289062 -1.425782 0.875 -2.191407 c 0.167968 -0.21875 0.125 -0.535156 -0.09375 -0.699219 c -0.082032 -0.066406 -0.183594 -0.105468 -0.289063 -0.105468 z m 0 0" fill="#222222"/>
</svg>
