<?xml version="1.0" encoding="UTF-8"?>
<svg height="16px" viewBox="0 0 16 16" width="16px" xmlns="http://www.w3.org/2000/svg">
    <path d="m 5 4 v 4.34375 c -0.453125 -0.210938 -0.96875 -0.34375 -1.5 -0.34375 c -1.921875 0 -3.5 1.578125 -3.5 3.5 s 1.578125 3.5 3.5 3.5 c 1.910156 0 3.480469 -1.5625 3.5 -3.46875 c 0 -0.011719 0 -0.019531 0 -0.03125 v -6.933594 c 0 -0.3125 0.253906 -0.566406 0.566406 -0.566406 h 4.867188 c 0.3125 0 0.566406 0.253906 0.566406 0.566406 v 3.777344 c -0.453125 -0.210938 -0.96875 -0.34375 -1.5 -0.34375 c -1.921875 0 -3.5 1.578125 -3.5 3.5 s 1.578125 3.5 3.5 3.5 c 1.898438 0 3.464844 -1.546875 3.5 -3.4375 c 0 -0.023438 0 -0.039062 0 -0.0625 v -7.5 c 0 -1.65625 -1.34375 -3 -3 -3 h -4 c -1.65625 0 -3 1.34375 -3 3 z m 0 0" fill="#222222"/>
</svg>
