<?xml version="1.0" encoding="UTF-8"?>
<svg height="16px" viewBox="0 0 16 16" width="16px" xmlns="http://www.w3.org/2000/svg">
    <path d="m 0.894531 4.566406 c -0.585937 0.90625 -0.89062475 2.085938 -0.89062475 3.433594 s 0.30468775 2.527344 0.89062475 3.433594 c 0.582031 0.910156 1.527344 1.566406 2.914063 1.566406 c 1.285156 0 2.179687 -0.628906 2.875 -1.410156 c 0.378906 -0.425782 0.699218 -1.046875 0.085937 -1.578125 c -0.46875 -0.410157 -0.992187 -0.308594 -1.554687 0.222656 c -1.011719 1.078125 -2.085938 0.980469 -2.640625 0.117187 c -0.320313 -0.492187 -0.570313 -1.316406 -0.570313 -2.351562 s 0.25 -1.859375 0.570313 -2.351562 c 0.402343 -0.628907 1.242187 -1.25 2.769531 0.257812 c 0.597656 0.589844 2.824219 4.203125 3.8125 5.5 c 0.679688 0.894531 1.652344 1.59375 3.039062 1.59375 c 1.386719 0 2.332032 -0.65625 2.917969 -1.566406 c 0.582031 -0.90625 0.890625 -2.085938 0.890625 -3.433594 s -0.308594 -2.527344 -0.890625 -3.433594 c -0.585937 -0.910156 -1.53125 -1.566406 -2.917969 -1.566406 c -1.214843 0 -2.066406 0.574219 -2.757812 1.285156 c -0.542969 0.5625 -0.574219 1.242188 -0.179688 1.65625 c 0.371094 0.382813 0.96875 0.324219 1.527344 -0.167968 c 0.890625 -0.792969 1.925782 -1.246094 2.644532 -0.125 c 0.320312 0.492187 0.574218 1.316406 0.574218 2.351562 s -0.253906 1.859375 -0.574218 2.351562 c -0.320313 0.496094 -0.625 0.648438 -1.179688 0.648438 s -1.015625 -0.253906 -1.589844 -0.90625 c -1.074218 -1.25 -3.019531 -4.640625 -3.8125 -5.5 c -0.738281 -0.847656 -1.652344 -1.59375 -3.039062 -1.59375 c -1.386719 0 -2.332032 0.65625 -2.914063 1.566406 z m 0 0" fill="#222222"/>
</svg>
