<?xml version="1.0" encoding="UTF-8"?>
<svg height="16px" viewBox="0 0 16 16" width="16px" xmlns="http://www.w3.org/2000/svg">
    <path d="m 1.003906 3 v 10 c 0 1.375 1.019532 2.027344 1.96875 2.015625 c 0.808594 -0.011719 1.328125 -0.308594 2.023438 -0.707031 l 8.902344 -5.085938 c 0.433593 -0.242187 0.65625 -0.734375 0.65625 -1.226562 c 0 -0.492188 -0.222657 -0.984375 -0.65625 -1.222656 l -8.890626 -5.078126 c -0.746093 -0.433593 -1.28125 -0.703124 -1.992187 -0.679687 c -0.96875 0.023437 -2.011719 0.582031 -2.011719 1.984375 z m 1.972656 1.996094 l 0.003907 0.003906 h 0.023437 v 0.023438 l 0.5 0.5 l 0.5 -0.496094 v -0.027344 h 0.023438 l 0.007812 -0.007812 l 0.003906 0.007812 h 0.964844 v 0.96875 l 0.019532 0.019531 l -0.527344 0.523438 l 0.488281 0.488281 h 0.019531 v 0.019531 l 0.019532 0.019531 l -0.019532 0.019532 v 0.941406 h -0.941406 l -0.027344 0.027344 l -0.027344 -0.027344 h -0.003906 v -0.003906 l -0.5 -0.496094 l -0.527344 0.527344 l -0.027343 -0.027344 h -0.945313 v -0.945312 l -0.019531 -0.015626 l 0.019531 -0.019531 v -0.019531 h 0.019532 l 0.488281 -0.488281 l -0.527344 -0.523438 l 0.019531 -0.019531 v -0.96875 h 0.964844 z m 3.96875 0 l 0.003907 0.003906 h 0.023437 v 0.023438 l 0.5 0.5 l 0.5 -0.496094 v -0.027344 h 0.023438 l 0.007812 -0.007812 l 0.003906 0.007812 h 0.964844 v 0.96875 l 0.019532 0.019531 l -0.527344 0.523438 l 0.488281 0.488281 h 0.019531 v 0.019531 l 0.019532 0.019531 l -0.019532 0.015626 v 0.945312 h -0.941406 l -0.027344 0.027344 l -0.027344 -0.027344 h -0.003906 v -0.003906 l -0.5 -0.496094 l -0.527344 0.527344 l -0.027343 -0.027344 h -0.945313 v -0.945312 l -0.019531 -0.015626 l 0.019531 -0.019531 v -0.019531 h 0.019532 l 0.488281 -0.488281 l -0.527344 -0.523438 l 0.019531 -0.019531 v -0.96875 h 0.964844 z m -4.941406 4.003906 h 7 v 1 h -3 v 1.667969 c 0 0.738281 -0.671875 1.332031 -1.5 1.332031 c -0.832031 0 -1.5 -0.59375 -1.5 -1.332031 v -1.667969 h -1 z m 0 0" fill="#222222"/>
</svg>
