<?xml version="1.0" encoding="UTF-8"?>
<svg height="16px" viewBox="0 0 16 16" width="16px" xmlns="http://www.w3.org/2000/svg">
    <g fill="#222222">
        <path d="m 7.433594 11.007812 h 1.144531 c 1.898437 0 3.425781 1.527344 3.425781 3.429688 v 0.800781 c 0 0.761719 -0.761718 0.761719 -0.761718 0.761719 h -6.476563 s -0.761719 0 -0.761719 -0.761719 v -0.800781 c 0 -1.902344 1.53125 -3.429688 3.429688 -3.429688 z m 0 0"/>
        <path d="m 8.007812 0.00390625 c -1.902343 0 -3.804687 0.67187475 -5.320312 2.01953175 c -3.027344 2.695312 -3.558594 7.246093 -1.234375 10.5625 c 0.148437 0.230468 0.414063 0.363281 0.6875 0.339843 c 0.273437 -0.019531 0.511719 -0.1875 0.625 -0.4375 s 0.082031 -0.539062 -0.082031 -0.757812 c -1.898438 -2.707031 -1.464844 -6.390625 1.003906 -8.585938 c 2.464844 -2.195312 6.171875 -2.195312 8.640625 0 c 2.464844 2.195313 2.898437 5.878907 1.003906 8.585938 c -0.167969 0.21875 -0.199219 0.507812 -0.085937 0.757812 c 0.113281 0.25 0.355468 0.417969 0.628906 0.4375 c 0.273438 0.023438 0.535156 -0.109375 0.683594 -0.339843 c 2.324218 -3.316407 1.792968 -7.867188 -1.234375 -10.5625 c -1.511719 -1.347657 -3.414063 -2.01953175 -5.316407 -2.01953175 z m 0 2.99999975 c -1.191406 0 -2.378906 0.421875 -3.324218 1.261719 c -1.890625 1.683594 -2.226563 4.527344 -0.773438 6.601563 c 0.148438 0.230468 0.414063 0.359374 0.6875 0.339843 c 0.273438 -0.019531 0.511719 -0.1875 0.625 -0.4375 c 0.113282 -0.25 0.082032 -0.542969 -0.082031 -0.761719 c -1.023437 -1.460937 -0.792969 -3.4375 0.539063 -4.621093 c 1.332031 -1.1875 3.320312 -1.1875 4.652343 0 c 1.332031 1.183593 1.5625 3.160156 0.542969 4.621093 c -0.167969 0.21875 -0.199219 0.511719 -0.085938 0.761719 c 0.113282 0.25 0.355469 0.417969 0.628907 0.4375 c 0.273437 0.019531 0.535156 -0.109375 0.683593 -0.339843 c 1.453126 -2.074219 1.121094 -4.917969 -0.769531 -6.601563 c -0.945312 -0.839844 -2.136719 -1.261719 -3.324219 -1.261719 z m 0 0" fill-opacity="0.34902"/>
        <path d="m 8.003906 6 c 1.105469 0 2 0.894531 2 2 s -0.894531 2 -2 2 c -1.101562 0 -2 -0.894531 -2 -2 s 0.898438 -2 2 -2 z m 0 0"/>
    </g>
</svg>
