<?xml version="1.0" encoding="UTF-8"?>
<svg height="16px" viewBox="0 0 16 16" width="16px" xmlns="http://www.w3.org/2000/svg">
    <path d="m 8.980469 4.863281 c 0.199219 0 0.402343 0.054688 0.574219 0.167969 l 3 2 c 0.59375 0.394531 0.59375 1.269531 0 1.664062 l -3 2 c -0.664063 0.441407 -1.554688 -0.035156 -1.554688 -0.832031 v -4 c 0 -0.367187 0.203125 -0.707031 0.527344 -0.878906 c 0.140625 -0.078125 0.296875 -0.117187 0.453125 -0.121094 z m -0.980469 3 c 0 0.316407 -0.148438 0.632813 -0.445312 0.832031 l -3 2 c -0.664063 0.441407 -1.554688 -0.035156 -1.554688 -0.832031 v -4 c 0 -0.367187 0.203125 -0.707031 0.527344 -0.878906 c 0.324218 -0.175781 0.71875 -0.15625 1.027344 0.046875 l 3 2 c 0.296874 0.199219 0.445312 0.515625 0.445312 0.832031 z m 0 0" fill="#222222"/>
</svg>
