<?xml version="1.0" encoding="UTF-8"?>
<svg height="16px" viewBox="0 0 16 16" width="16px" xmlns="http://www.w3.org/2000/svg">
    <g fill="#222222">
        <path d="m 3.011719 16 c -1.644531 0 -3.0000002 -1.355469 -3.0000002 -3 v -10 c 0 -1.644531 1.3554692 -3 3.0000002 -3 h 10 c 1.644531 0 3 1.355469 3 3 v 10 c 0 1.644531 -1.355469 3 -3 3 z m 0 -2 h 10 c 0.570312 0 1 -0.429688 1 -1 v -9 h -12 v 9 c 0 0.570312 0.429687 1 1 1 z m 0 0"/>
        <path d="m 10.960938 4.558594 c -0.105469 0.011718 -0.203126 0.054687 -0.28125 0.125 c -0.210938 0.179687 -0.230469 0.5 -0.046876 0.707031 c 0.9375 1.0625 1.378907 2.183594 1.378907 3.324219 c 0 1.136718 -0.445313 2.316406 -1.390625 3.46875 c -0.175782 0.214844 -0.144532 0.527344 0.070312 0.703125 s 0.527344 0.144531 0.703125 -0.070313 c 1.058594 -1.292968 1.617188 -2.699218 1.617188 -4.101562 s -0.5625 -2.777344 -1.628907 -3.988282 c -0.105468 -0.121093 -0.261718 -0.183593 -0.421874 -0.167968 z m -1.445313 1.214844 c -0.105469 0.003906 -0.207031 0.039062 -0.289063 0.105468 c -0.222656 0.167969 -0.261718 0.480469 -0.09375 0.699219 c 0.585938 0.765625 0.867188 1.488281 0.875 2.195313 c 0.003907 0.703124 -0.253906 1.425781 -0.871093 2.203124 c -0.171875 0.21875 -0.132813 0.53125 0.082031 0.703126 c 0.214844 0.167968 0.53125 0.132812 0.703125 -0.082032 c 0.71875 -0.914062 1.09375 -1.871094 1.085937 -2.835937 c -0.011718 -0.964844 -0.402343 -1.90625 -1.082031 -2.792969 c -0.097656 -0.125 -0.25 -0.199219 -0.410156 -0.195312 z m 0 0"/>
        <path d="m 7.992188 6 l 0.007812 6 c 0 0.195312 -0.109375 0.378906 -0.28125 0.472656 c -0.175781 0.09375 -0.386719 0.082032 -0.550781 -0.027344 l -1.777344 -1.183593 c -0.253906 -0.171875 -0.554687 -0.261719 -0.859375 -0.261719 h -0.519531 c -0.558594 0 -1.007813 -0.453125 -1.007813 -1.007812 v -2.003907 c 0 -0.550781 0.445313 -1 1 -1 h 0.566406 c 0.289063 0 0.574219 -0.085937 0.8125 -0.246093 l 1.777344 -1.1875 c 0.164063 -0.109376 0.375 -0.121094 0.550782 -0.027344 c 0.171874 0.09375 0.28125 0.273437 0.28125 0.472656 z m 0 0"/>
    </g>
</svg>
